<?xml version="1.0" encoding="UTF-8" standalone="no"?>
<!DOCTYPE svg PUBLIC "-//W3C//DTD SVG 1.1//EN"
 "http://www.w3.org/Graphics/SVG/1.1/DTD/svg11.dtd">
<!-- Generated by graphviz version 2.43.0 (0)
 -->
<!-- Title: include/Channel/channel.h Pages: 1 -->
<!--zoomable 544 -->

<svg id="main" version="1.1" xmlns="http://www.w3.org/2000/svg" xmlns:xlink="http://www.w3.org/1999/xlink" xml:space="preserve" onload="init(evt)">
<style type="text/css"><![CDATA[
.node, .edge {opacity: 0.7;}
.node.selected, .edge.selected {opacity: 1;}
.edge:hover path { stroke: red; }
.edge:hover polygon { stroke: red; fill: red; }
]]></style>

<defs>
  <circle id="rim" cx="0" cy="0" r="7"/>
  <circle id="rim2" cx="0" cy="0" r="3.5"/>
  <g id="zoomPlus">
    <use xlink:href="#rim" fill="#404040"><set attributeName="fill" to="#808080" begin="zoomplus.mouseover" end="zoomplus.mouseout"/></use>
    <path d="M-4,0h8M0,-4v8" fill="none" stroke="white" stroke-width="1.5" pointer-events="none"/>
  </g>
  <g id="zoomMin">
    <use xlink:href="#rim" fill="#404040"><set attributeName="fill" to="#808080" begin="zoomminus.mouseover" end="zoomminus.mouseout"/></use>
    <path d="M-4,0h8" fill="none" stroke="white" stroke-width="1.5" pointer-events="none"/>
  </g>
  <g id="arrowUp" transform="translate(30 24)">
    <use xlink:href="#rim"/>
    <path pointer-events="none" fill="none" stroke="white" stroke-width="1.5" d="M0,-3.0v7 M-2.5,-0.5L0,-3.0L2.5,-0.5"/>
  </g>
  <g id="arrowRight" transform="rotate(90) translate(36 -43)">
    <use xlink:href="#rim"/>
    <path pointer-events="none" fill="none" stroke="white" stroke-width="1.5" d="M0,-3.0v7 M-2.5,-0.5L0,-3.0L2.5,-0.5"/>
  </g>
  <g id="arrowDown" transform="rotate(180) translate(-30 -48)">
    <use xlink:href="#rim"/>
    <path pointer-events="none" fill="none" stroke="white" stroke-width="1.5" d="M0,-3.0v7 M-2.5,-0.5L0,-3.0L2.5,-0.5"/>
  </g>
  <g id="arrowLeft" transform="rotate(270) translate(-36 17)">
    <use xlink:href="#rim"/>
    <path pointer-events="none" fill="none" stroke="white" stroke-width="1.5" d="M0,-3.0v7 M-2.5,-0.5L0,-3.0L2.5,-0.5"/>
  </g>
  <g id="resetDef">
    <use xlink:href="#rim2" fill="#404040"><set attributeName="fill" to="#808080" begin="reset.mouseover" end="reset.mouseout"/></use>
  </g>
</defs>
<script type="application/ecmascript">
var viewWidth = 1118;
var viewHeight = 544;
var sectionId = 'dynsection-1';
</script>
<script type="application/ecmascript" xlink:href="svg.min.js"/>
<svg id="graph" class="graph">
<g id="viewport">
<title>include/Channel/channel.h</title>
<!-- Node1 -->
<g id="Node000001" class="node">
<title>Node1</title>
<g id="a_Node000001"><a xlink:title=" ">
<polygon fill="#999999" stroke="#666666" points="753.5,-536 608.5,-536 608.5,-517 753.5,-517 753.5,-536"/>
<text text-anchor="middle" x="681" y="-524" font-family="Helvetica,sans-Serif" font-size="10.00">include/Channel/channel.h</text>
</a>
</g>
</g>
<!-- Node2 -->
<g id="Node000002" class="node">
<title>Node2</title>
<g id="a_Node000002"><a xlink:href="driverModel_8h.html" target="_top" xlink:title=" ">
<polygon fill="white" stroke="#666666" points="524.5,-481 363.5,-481 363.5,-462 524.5,-462 524.5,-481"/>
<text text-anchor="middle" x="444" y="-469" font-family="Helvetica,sans-Serif" font-size="10.00">include/Drivers/driverModel.h</text>
</a>
</g>
</g>
<!-- Node1&#45;&gt;Node2 -->
<g id="edge1_Node000001_Node000002" class="edge">
<title>Node1&#45;&gt;Node2</title>
<g id="a_edge1_Node000001_Node000002"><a xlink:title=" ">
<path fill="none" stroke="#63b8ff" d="M632.94,-514.75C588.53,-504.82 523.4,-490.26 482.38,-481.08"/>
<polygon fill="#63b8ff" stroke="#63b8ff" points="632.4,-518.22 642.92,-516.98 633.93,-511.39 632.4,-518.22"/>
</a>
</g>
</g>
<!-- Node5 -->
<g id="Node000005" class="node">
<title>Node5</title>
<g id="a_Node000005"><a xlink:href="mlvp_8h.html" target="_top" xlink:title=" ">
<polygon fill="white" stroke="#666666" points="326.5,-74 237.5,-74 237.5,-55 326.5,-55 326.5,-74"/>
<text text-anchor="middle" x="282" y="-62" font-family="Helvetica,sans-Serif" font-size="10.00">include/mlvp.h</text>
</a>
</g>
</g>
<!-- Node1&#45;&gt;Node5 -->
<g id="edge40_Node000001_Node000005" class="edge">
<title>Node1&#45;&gt;Node5</title>
<g id="a_edge40_Node000001_Node000005"><a xlink:title=" ">
<path fill="none" stroke="#63b8ff" d="M597.85,-524C461.44,-520.71 196.47,-510.61 108,-481 53.99,-462.92 0,-468.96 0,-412 0,-412 0,-412 0,-283.5 0,-184.97 56.64,-165.58 138,-110 167.82,-89.63 207.33,-78.29 237.43,-72.17"/>
<polygon fill="#63b8ff" stroke="#63b8ff" points="598.16,-527.51 608.24,-524.24 598.33,-520.51 598.16,-527.51"/>
</a>
</g>
</g>
<!-- Node6 -->
<g id="Node000006" class="node">
<title>Node6</title>
<g id="a_Node000006"><a xlink:href="main_8cpp.html" target="_top" xlink:title=" ">
<polygon fill="white" stroke="#666666" points="736.5,-19 657.5,-19 657.5,0 736.5,0 736.5,-19"/>
<text text-anchor="middle" x="697" y="-7" font-family="Helvetica,sans-Serif" font-size="10.00">src/main.cpp</text>
</a>
</g>
</g>
<!-- Node1&#45;&gt;Node6 -->
<g id="edge42_Node000001_Node000006" class="edge">
<title>Node1&#45;&gt;Node6</title>
<g id="a_edge42_Node000001_Node000006"><a xlink:title=" ">
<path fill="none" stroke="#63b8ff" d="M764.06,-523.44C841.78,-516.56 946,-492.35 946,-412 946,-412 946,-412 946,-118.5 946,-28.38 807.03,-12.64 736.73,-10.44"/>
<polygon fill="#63b8ff" stroke="#63b8ff" points="763.45,-519.98 753.76,-524.27 764.01,-526.96 763.45,-519.98"/>
</a>
</g>
</g>
<!-- Node9 -->
<g id="Node000009" class="node">
<title>Node9</title>
<g id="a_Node000009"><a xlink:href="dutDriver_8h.html" target="_top" xlink:title=" ">
<polygon fill="white" stroke="#666666" points="825.5,-294 678.5,-294 678.5,-275 825.5,-275 825.5,-294"/>
<text text-anchor="middle" x="752" y="-282" font-family="Helvetica,sans-Serif" font-size="10.00">include/Drivers/dutDriver.h</text>
</a>
</g>
</g>
<!-- Node1&#45;&gt;Node9 -->
<g id="edge38_Node000001_Node000009" class="edge">
<title>Node1&#45;&gt;Node9</title>
<g id="a_edge38_Node000001_Node000009"><a xlink:title=" ">
<path fill="none" stroke="#63b8ff" d="M693.88,-508.73C714.95,-480.12 755.94,-419.21 771,-360 774.29,-347.08 773.67,-343.06 771,-330 768.31,-316.83 761.56,-302.74 756.88,-294.02"/>
<polygon fill="#63b8ff" stroke="#63b8ff" points="690.99,-506.74 687.8,-516.84 696.59,-510.94 690.99,-506.74"/>
</a>
</g>
</g>
<!-- Node17 -->
<g id="Node000017" class="node">
<title>Node17</title>
<g id="a_Node000017"><a xlink:href="ref_8h.html" target="_top" xlink:title=" ">
<polygon fill="white" stroke="#666666" points="147.5,-354.5 28.5,-354.5 28.5,-335.5 147.5,-335.5 147.5,-354.5"/>
<text text-anchor="middle" x="88" y="-342.5" font-family="Helvetica,sans-Serif" font-size="10.00">include/RefPack/ref.h</text>
</a>
</g>
</g>
<!-- Node1&#45;&gt;Node17 -->
<g id="edge39_Node000001_Node000017" class="edge">
<title>Node1&#45;&gt;Node17</title>
<g id="a_edge39_Node000001_Node000017"><a xlink:title=" ">
<path fill="none" stroke="#63b8ff" d="M598.1,-525.17C444.39,-522.58 124.64,-507.31 57,-426 38.81,-404.13 65.02,-370.36 79.5,-354.62"/>
<polygon fill="#63b8ff" stroke="#63b8ff" points="598.37,-528.67 608.42,-525.33 598.48,-521.67 598.37,-528.67"/>
</a>
</g>
</g>
<!-- Node19 -->
<g id="Node000019" class="node">
<title>Node19</title>
<g id="a_Node000019"><a xlink:href="channel_8cpp.html" target="_top" xlink:title=" ">
<polygon fill="white" stroke="#666666" points="1109.5,-481 974.5,-481 974.5,-462 1109.5,-462 1109.5,-481"/>
<text text-anchor="middle" x="1042" y="-469" font-family="Helvetica,sans-Serif" font-size="10.00">src/Channel/channel.cpp</text>
</a>
</g>
</g>
<!-- Node1&#45;&gt;Node19 -->
<g id="edge41_Node000001_Node000019" class="edge">
<title>Node1&#45;&gt;Node19</title>
<g id="a_edge41_Node000001_Node000019"><a xlink:title=" ">
<path fill="none" stroke="#63b8ff" d="M749.15,-515.49C816.93,-505.54 919.8,-490.44 983.84,-481.04"/>
<polygon fill="#63b8ff" stroke="#63b8ff" points="748.39,-512.07 739,-516.98 749.4,-518.99 748.39,-512.07"/>
</a>
</g>
</g>
<!-- Node3 -->
<g id="Node000003" class="node">
<title>Node3</title>
<g id="a_Node000003"><a xlink:href="driver_8h.html" target="_top" xlink:title=" ">
<polygon fill="white" stroke="#666666" points="796,-184 666,-184 666,-165 796,-165 796,-184"/>
<text text-anchor="middle" x="731" y="-172" font-family="Helvetica,sans-Serif" font-size="10.00">include/Drivers/driver.h</text>
</a>
</g>
</g>
<!-- Node2&#45;&gt;Node3 -->
<g id="edge2_Node000002_Node000003" class="edge">
<title>Node2&#45;&gt;Node3</title>
<g id="a_edge2_Node000002_Node000003"><a xlink:title=" ">
<path fill="none" stroke="#63b8ff" d="M535.12,-461.7C600.44,-454.22 681.97,-442.12 712,-426 782.65,-388.08 795.39,-363.72 835,-294 851.62,-264.74 870.22,-247.62 851,-220 837.93,-201.21 815.95,-190.34 794.35,-184.05"/>
<polygon fill="#63b8ff" stroke="#63b8ff" points="534.33,-458.27 524.79,-462.86 535.12,-465.23 534.33,-458.27"/>
</a>
</g>
</g>
<!-- Node2&#45;&gt;Node5 -->
<g id="edge35_Node000002_Node000005" class="edge">
<title>Node2&#45;&gt;Node5</title>
<g id="a_edge35_Node000002_Node000005"><a xlink:title=" ">
<path fill="none" stroke="#63b8ff" d="M408.74,-458.49C386.08,-450.32 356.27,-438.71 331,-426 247.94,-384.22 176,-378.48 176,-285.5 176,-285.5 176,-285.5 176,-173.5 176,-124.37 232.56,-89.39 263.05,-74.1"/>
<polygon fill="#63b8ff" stroke="#63b8ff" points="407.7,-461.83 418.29,-461.88 410.04,-455.24 407.7,-461.83"/>
</a>
</g>
</g>
<!-- Node2&#45;&gt;Node6 -->
<g id="edge37_Node000002_Node000006" class="edge">
<title>Node2&#45;&gt;Node6</title>
<g id="a_edge37_Node000002_Node000006"><a xlink:title=" ">
<path fill="none" stroke="#63b8ff" d="M534.9,-464.58C669.99,-453.26 908,-422.46 908,-346 908,-346 908,-346 908,-118.5 908,-42.37 797.81,-19.87 736.69,-13.25"/>
<polygon fill="#63b8ff" stroke="#63b8ff" points="534.24,-461.13 524.56,-465.43 534.81,-468.1 534.24,-461.13"/>
</a>
</g>
</g>
<!-- Node2&#45;&gt;Node9 -->
<g id="edge10_Node000002_Node000009" class="edge">
<title>Node2&#45;&gt;Node9</title>
<g id="a_edge10_Node000002_Node000009"><a xlink:title=" ">
<path fill="none" stroke="#63b8ff" d="M534.66,-465.29C607.08,-455.77 704.24,-429.81 753,-360 766.92,-340.06 759.86,-309.23 755.12,-294.26"/>
<polygon fill="#63b8ff" stroke="#63b8ff" points="534.11,-461.83 524.61,-466.53 534.97,-468.78 534.11,-461.83"/>
</a>
</g>
</g>
<!-- Node10 -->
<g id="Node000010" class="node">
<title>Node10</title>
<g id="a_Node000010"><a xlink:href="refDriver_8h.html" target="_top" xlink:title=" ">
<polygon fill="white" stroke="#666666" points="533.5,-239 388.5,-239 388.5,-220 533.5,-220 533.5,-239"/>
<text text-anchor="middle" x="461" y="-227" font-family="Helvetica,sans-Serif" font-size="10.00">include/Drivers/refDriver.h</text>
</a>
</g>
</g>
<!-- Node2&#45;&gt;Node10 -->
<g id="edge19_Node000002_Node000010" class="edge">
<title>Node2&#45;&gt;Node10</title>
<g id="a_edge19_Node000002_Node000010"><a xlink:title=" ">
<path fill="none" stroke="#63b8ff" d="M416.11,-457.28C383.47,-440.07 331.07,-406.59 309,-360 292.83,-325.86 286.35,-305.23 309,-275 321.12,-258.83 369.44,-246.55 408.39,-239.04"/>
<polygon fill="#63b8ff" stroke="#63b8ff" points="414.65,-460.47 425.15,-461.9 417.84,-454.23 414.65,-460.47"/>
</a>
</g>
</g>
<!-- Node13 -->
<g id="Node000013" class="node">
<title>Node13</title>
<g id="a_Node000013"><a xlink:href="simulatorDriver_8h.html" target="_top" xlink:title=" ">
<polygon fill="white" stroke="#666666" points="564,-426 424,-426 424,-396 564,-396 564,-426"/>
<text text-anchor="start" x="432" y="-414" font-family="Helvetica,sans-Serif" font-size="10.00">include/Drivers/simulator</text>
<text text-anchor="middle" x="494" y="-403" font-family="Helvetica,sans-Serif" font-size="10.00">Driver.h</text>
</a>
</g>
</g>
<!-- Node2&#45;&gt;Node13 -->
<g id="edge20_Node000002_Node000013" class="edge">
<title>Node2&#45;&gt;Node13</title>
<g id="a_edge20_Node000002_Node000013"><a xlink:title=" ">
<path fill="none" stroke="#63b8ff" d="M457.97,-454.15C465.51,-445.34 474.72,-434.56 481.94,-426.11"/>
<polygon fill="#63b8ff" stroke="#63b8ff" points="455.21,-451.99 451.38,-461.87 460.54,-456.54 455.21,-451.99"/>
</a>
</g>
</g>
<!-- Node14 -->
<g id="Node000014" class="node">
<title>Node14</title>
<g id="a_Node000014"><a xlink:href="transDriverModel_8h.html" target="_top" xlink:title=" ">
<polygon fill="white" stroke="#666666" points="466,-360 318,-360 318,-330 466,-330 466,-360"/>
<text text-anchor="start" x="326" y="-348" font-family="Helvetica,sans-Serif" font-size="10.00">include/Drivers/transDriver</text>
<text text-anchor="middle" x="392" y="-337" font-family="Helvetica,sans-Serif" font-size="10.00">Model.h</text>
</a>
</g>
</g>
<!-- Node2&#45;&gt;Node14 -->
<g id="edge31_Node000002_Node000014" class="edge">
<title>Node2&#45;&gt;Node14</title>
<g id="a_edge31_Node000002_Node000014"><a xlink:title=" ">
<path fill="none" stroke="#63b8ff" d="M431.28,-453.61C425.69,-445.57 419.4,-435.63 415,-426 404.91,-403.92 398.16,-376.37 394.71,-360.03"/>
<polygon fill="#63b8ff" stroke="#63b8ff" points="428.47,-455.7 437.17,-461.75 434.15,-451.6 428.47,-455.7"/>
</a>
</g>
</g>
<!-- Node2&#45;&gt;Node17 -->
<g id="edge32_Node000002_Node000017" class="edge">
<title>Node2&#45;&gt;Node17</title>
<g id="a_edge32_Node000002_Node000017"><a xlink:title=" ">
<path fill="none" stroke="#63b8ff" d="M381.15,-459.93C347.26,-452.89 305.28,-441.94 270,-426 248.43,-416.25 247.07,-406.78 226,-396 190.5,-377.83 146.83,-363.19 118.25,-354.55"/>
<polygon fill="#63b8ff" stroke="#63b8ff" points="380.9,-463.45 391.4,-462 382.28,-456.59 380.9,-463.45"/>
</a>
</g>
</g>
<!-- Node18 -->
<g id="Node000018" class="node">
<title>Node18</title>
<g id="a_Node000018"><a xlink:href="driverModel_8cpp.html" target="_top" xlink:title=" ">
<polygon fill="white" stroke="#666666" points="217.5,-420.5 66.5,-420.5 66.5,-401.5 217.5,-401.5 217.5,-420.5"/>
<text text-anchor="middle" x="142" y="-408.5" font-family="Helvetica,sans-Serif" font-size="10.00">src/Drivers/driverModel.cpp</text>
</a>
</g>
</g>
<!-- Node2&#45;&gt;Node18 -->
<g id="edge36_Node000002_Node000018" class="edge">
<title>Node2&#45;&gt;Node18</title>
<g id="a_edge36_Node000002_Node000018"><a xlink:title=" ">
<path fill="none" stroke="#63b8ff" d="M389.97,-460.03C331.68,-448.74 240.01,-430.98 185.97,-420.52"/>
<polygon fill="#63b8ff" stroke="#63b8ff" points="389.6,-463.53 400.09,-461.99 390.93,-456.66 389.6,-463.53"/>
</a>
</g>
</g>
<!-- Node4 -->
<g id="Node000004" class="node">
<title>Node4</title>
<g id="a_Node000004"><a xlink:href="spreader_8h.html" target="_top" xlink:title=" ">
<polygon fill="white" stroke="#666666" points="704,-129 552,-129 552,-110 704,-110 704,-129"/>
<text text-anchor="middle" x="628" y="-117" font-family="Helvetica,sans-Serif" font-size="10.00">include/Spreader/spreader.h</text>
</a>
</g>
</g>
<!-- Node3&#45;&gt;Node4 -->
<g id="edge3_Node000003_Node000004" class="edge">
<title>Node3&#45;&gt;Node4</title>
<g id="a_edge3_Node000003_Node000004"><a xlink:title=" ">
<path fill="none" stroke="#63b8ff" d="M705.48,-160.37C686.56,-150.63 661.3,-137.64 644.85,-129.17"/>
<polygon fill="#63b8ff" stroke="#63b8ff" points="703.96,-163.52 714.45,-164.98 707.16,-157.3 703.96,-163.52"/>
</a>
</g>
</g>
<!-- Node3&#45;&gt;Node5 -->
<g id="edge7_Node000003_Node000005" class="edge">
<title>Node3&#45;&gt;Node5</title>
<g id="a_edge7_Node000003_Node000005"><a xlink:title=" ">
<path fill="none" stroke="#63b8ff" d="M684.82,-162.65C646.75,-153.69 591.35,-140.6 543,-129 462.06,-109.57 367.1,-86.37 317.02,-74.09"/>
<polygon fill="#63b8ff" stroke="#63b8ff" points="684.06,-166.07 694.59,-164.95 685.66,-159.26 684.06,-166.07"/>
</a>
</g>
</g>
<!-- Node3&#45;&gt;Node6 -->
<g id="edge9_Node000003_Node000006" class="edge">
<title>Node3&#45;&gt;Node6</title>
<g id="a_edge9_Node000003_Node000006"><a xlink:title=" ">
<path fill="none" stroke="#63b8ff" d="M798.23,-162.58C833.24,-153.48 865.94,-137.44 851,-110 824.13,-60.66 761.11,-32.06 724.56,-19.05"/>
<polygon fill="#63b8ff" stroke="#63b8ff" points="797.24,-159.22 788.33,-164.97 798.88,-166.03 797.24,-159.22"/>
</a>
</g>
</g>
<!-- Node8 -->
<g id="Node000008" class="node">
<title>Node8</title>
<g id="a_Node000008"><a xlink:href="driver_8cpp.html" target="_top" xlink:title=" ">
<polygon fill="white" stroke="#666666" points="842,-129 722,-129 722,-110 842,-110 842,-129"/>
<text text-anchor="middle" x="782" y="-117" font-family="Helvetica,sans-Serif" font-size="10.00">src/Drivers/driver.cpp</text>
</a>
</g>
</g>
<!-- Node3&#45;&gt;Node8 -->
<g id="edge8_Node000003_Node000008" class="edge">
<title>Node3&#45;&gt;Node8</title>
<g id="a_edge8_Node000003_Node000008"><a xlink:title=" ">
<path fill="none" stroke="#63b8ff" d="M746.38,-157.52C755.37,-148.18 766.36,-136.75 773.74,-129.09"/>
<polygon fill="#63b8ff" stroke="#63b8ff" points="743.83,-155.12 739.42,-164.75 748.88,-159.97 743.83,-155.12"/>
</a>
</g>
</g>
<!-- Node4&#45;&gt;Node5 -->
<g id="edge4_Node000004_Node000005" class="edge">
<title>Node4&#45;&gt;Node5</title>
<g id="a_edge4_Node000004_Node000005"><a xlink:title=" ">
<path fill="none" stroke="#63b8ff" d="M562.51,-108.47C493.49,-97.9 386.66,-81.53 326.72,-72.35"/>
<polygon fill="#63b8ff" stroke="#63b8ff" points="561.99,-111.93 572.41,-109.98 563.05,-105.01 561.99,-111.93"/>
</a>
</g>
</g>
<!-- Node7 -->
<g id="Node000007" class="node">
<title>Node7</title>
<g id="a_Node000007"><a xlink:href="spreader_8cpp.html" target="_top" xlink:title=" ">
<polygon fill="white" stroke="#666666" points="699.5,-74 556.5,-74 556.5,-55 699.5,-55 699.5,-74"/>
<text text-anchor="middle" x="628" y="-62" font-family="Helvetica,sans-Serif" font-size="10.00">src/Spreader/spreader.cpp</text>
</a>
</g>
</g>
<!-- Node4&#45;&gt;Node7 -->
<g id="edge6_Node000004_Node000007" class="edge">
<title>Node4&#45;&gt;Node7</title>
<g id="a_edge6_Node000004_Node000007"><a xlink:title=" ">
<path fill="none" stroke="#63b8ff" d="M628,-99.66C628,-90.93 628,-80.99 628,-74.09"/>
<polygon fill="#63b8ff" stroke="#63b8ff" points="624.5,-99.75 628,-109.75 631.5,-99.75 624.5,-99.75"/>
</a>
</g>
</g>
<!-- Node5&#45;&gt;Node6 -->
<g id="edge5_Node000005_Node000006" class="edge">
<title>Node5&#45;&gt;Node6</title>
<g id="a_edge5_Node000005_Node000006"><a xlink:title=" ">
<path fill="none" stroke="#63b8ff" d="M336.76,-56.51C421.58,-45.67 582.7,-25.1 657.29,-15.57"/>
<polygon fill="#63b8ff" stroke="#63b8ff" points="336.28,-53.04 326.81,-57.78 337.17,-59.98 336.28,-53.04"/>
</a>
</g>
</g>
<!-- Node9&#45;&gt;Node3 -->
<g id="edge11_Node000009_Node000003" class="edge">
<title>Node9&#45;&gt;Node3</title>
<g id="a_edge11_Node000009_Node000003"><a xlink:title=" ">
<path fill="none" stroke="#63b8ff" d="M725.46,-269.62C714.18,-262.18 702.22,-251.88 696,-239 686.37,-219.05 706.52,-196.52 720.06,-184.38"/>
<polygon fill="#63b8ff" stroke="#63b8ff" points="723.87,-272.75 734.23,-274.96 727.51,-266.77 723.87,-272.75"/>
</a>
</g>
</g>
<!-- Node9&#45;&gt;Node5 -->
<g id="edge17_Node000009_Node000005" class="edge">
<title>Node9&#45;&gt;Node5</title>
<g id="a_edge17_Node000009_Node000005"><a xlink:title=" ">
<path fill="none" stroke="#63b8ff" d="M725.28,-270.38C680.1,-248.27 585.62,-202.32 505,-165 430.36,-130.45 340.78,-91.13 301.77,-74.1"/>
<polygon fill="#63b8ff" stroke="#63b8ff" points="723.89,-273.6 734.41,-274.85 726.97,-267.31 723.89,-273.6"/>
</a>
</g>
</g>
<!-- Node9&#45;&gt;Node10 -->
<g id="edge12_Node000009_Node000010" class="edge">
<title>Node9&#45;&gt;Node10</title>
<g id="a_edge12_Node000009_Node000010"><a xlink:title=" ">
<path fill="none" stroke="#63b8ff" d="M695.39,-273.19C640.83,-263.25 559.24,-248.39 508.12,-239.08"/>
<polygon fill="#63b8ff" stroke="#63b8ff" points="694.78,-276.64 705.25,-274.98 696.03,-269.75 694.78,-276.64"/>
</a>
</g>
</g>
<!-- Node12 -->
<g id="Node000012" class="node">
<title>Node12</title>
<g id="a_Node000012"><a xlink:href="dutDriver_8cpp.html" target="_top" xlink:title=" ">
<polygon fill="white" stroke="#666666" points="841.5,-239 704.5,-239 704.5,-220 841.5,-220 841.5,-239"/>
<text text-anchor="middle" x="773" y="-227" font-family="Helvetica,sans-Serif" font-size="10.00">src/Drivers/dutDriver.cpp</text>
</a>
</g>
</g>
<!-- Node9&#45;&gt;Node12 -->
<g id="edge18_Node000009_Node000012" class="edge">
<title>Node9&#45;&gt;Node12</title>
<g id="a_edge18_Node000009_Node000012"><a xlink:title=" ">
<path fill="none" stroke="#63b8ff" d="M759.24,-265.24C762.75,-256.37 766.8,-246.14 769.6,-239.09"/>
<polygon fill="#63b8ff" stroke="#63b8ff" points="755.9,-264.16 755.47,-274.75 762.41,-266.74 755.9,-264.16"/>
</a>
</g>
</g>
<!-- Node10&#45;&gt;Node3 -->
<g id="edge13_Node000010_Node000003" class="edge">
<title>Node10&#45;&gt;Node3</title>
<g id="a_edge13_Node000010_Node000003"><a xlink:title=" ">
<path fill="none" stroke="#63b8ff" d="M514.48,-218C565.09,-208.07 640.15,-193.33 687.28,-184.08"/>
<polygon fill="#63b8ff" stroke="#63b8ff" points="513.52,-214.62 504.38,-219.98 514.87,-221.49 513.52,-214.62"/>
</a>
</g>
</g>
<!-- Node10&#45;&gt;Node5 -->
<g id="edge14_Node000010_Node000005" class="edge">
<title>Node10&#45;&gt;Node5</title>
<g id="a_edge14_Node000010_Node000005"><a xlink:title=" ">
<path fill="none" stroke="#63b8ff" d="M413.84,-216.96C392.84,-210.04 368.88,-199.49 351,-184 314.3,-152.2 292.27,-95.83 284.84,-74.25"/>
<polygon fill="#63b8ff" stroke="#63b8ff" points="412.97,-220.35 423.56,-219.98 415.05,-213.67 412.97,-220.35"/>
</a>
</g>
</g>
<!-- Node10&#45;&gt;Node6 -->
<g id="edge16_Node000010_Node000006" class="edge">
<title>Node10&#45;&gt;Node6</title>
<g id="a_edge16_Node000010_Node000006"><a xlink:title=" ">
<path fill="none" stroke="#63b8ff" d="M480.01,-212.91C488.63,-205.01 498.36,-194.8 505,-184 536.63,-132.5 504.6,-97.05 548,-55 577.37,-26.54 624.16,-16.18 657.47,-12.46"/>
<polygon fill="#63b8ff" stroke="#63b8ff" points="477.44,-210.51 472.22,-219.73 482.05,-215.78 477.44,-210.51"/>
</a>
</g>
</g>
<!-- Node11 -->
<g id="Node000011" class="node">
<title>Node11</title>
<g id="a_Node000011"><a xlink:href="refDriver_8cpp.html" target="_top" xlink:title=" ">
<polygon fill="white" stroke="#666666" points="495.5,-184 360.5,-184 360.5,-165 495.5,-165 495.5,-184"/>
<text text-anchor="middle" x="428" y="-172" font-family="Helvetica,sans-Serif" font-size="10.00">src/Drivers/refDriver.cpp</text>
</a>
</g>
</g>
<!-- Node10&#45;&gt;Node11 -->
<g id="edge15_Node000010_Node000011" class="edge">
<title>Node10&#45;&gt;Node11</title>
<g id="a_edge15_Node000010_Node000011"><a xlink:title=" ">
<path fill="none" stroke="#63b8ff" d="M450.17,-211.1C444.53,-202.04 437.88,-191.37 433.35,-184.09"/>
<polygon fill="#63b8ff" stroke="#63b8ff" points="447.29,-213.11 455.55,-219.75 453.24,-209.41 447.29,-213.11"/>
</a>
</g>
</g>
<!-- Node13&#45;&gt;Node4 -->
<g id="edge28_Node000013_Node000004" class="edge">
<title>Node13&#45;&gt;Node4</title>
<g id="a_edge28_Node000013_Node000004"><a xlink:title=" ">
<path fill="none" stroke="#63b8ff" d="M574.25,-400.64C624.8,-392.91 683.36,-379.92 699,-360 707.24,-349.51 703.43,-342.57 699,-330 692.17,-310.62 679.08,-312.43 670,-294 641.1,-235.34 631.31,-155.51 628.76,-129.26"/>
<polygon fill="#63b8ff" stroke="#63b8ff" points="573.65,-397.19 564.27,-402.12 574.67,-404.12 573.65,-397.19"/>
</a>
</g>
</g>
<!-- Node13&#45;&gt;Node5 -->
<g id="edge29_Node000013_Node000005" class="edge">
<title>Node13&#45;&gt;Node5</title>
<g id="a_edge29_Node000013_Node000005"><a xlink:title=" ">
<path fill="none" stroke="#63b8ff" d="M413.54,-407.31C330.82,-399.74 214,-373.47 214,-285.5 214,-285.5 214,-285.5 214,-173.5 214,-130.74 252.65,-91.07 271.67,-74.13"/>
<polygon fill="#63b8ff" stroke="#63b8ff" points="413.45,-410.82 423.71,-408.17 414.03,-403.84 413.45,-410.82"/>
</a>
</g>
</g>
<!-- Node13&#45;&gt;Node9 -->
<g id="edge21_Node000013_Node000009" class="edge">
<title>Node13&#45;&gt;Node9</title>
<g id="a_edge21_Node000013_Node000009"><a xlink:title=" ">
<path fill="none" stroke="#63b8ff" d="M574.44,-402.13C634.33,-394.65 709.46,-381.33 732,-360 750.48,-342.51 752.55,-309.94 752.38,-294.31"/>
<polygon fill="#63b8ff" stroke="#63b8ff" points="573.72,-398.69 564.22,-403.36 574.56,-405.64 573.72,-398.69"/>
</a>
</g>
</g>
<!-- Node13&#45;&gt;Node10 -->
<g id="edge22_Node000013_Node000010" class="edge">
<title>Node13&#45;&gt;Node10</title>
<g id="a_edge22_Node000013_Node000010"><a xlink:title=" ">
<path fill="none" stroke="#63b8ff" d="M499.79,-386.22C508.33,-350.17 522.8,-284.83 518,-275 510.02,-258.64 492.79,-246.54 479.35,-239.12"/>
<polygon fill="#63b8ff" stroke="#63b8ff" points="496.38,-385.42 497.46,-395.96 503.19,-387.05 496.38,-385.42"/>
</a>
</g>
</g>
<!-- Node13&#45;&gt;Node14 -->
<g id="edge23_Node000013_Node000014" class="edge">
<title>Node13&#45;&gt;Node14</title>
<g id="a_edge23_Node000013_Node000014"><a xlink:title=" ">
<path fill="none" stroke="#63b8ff" d="M462.79,-390.42C447.14,-380.6 428.54,-368.93 414.33,-360.01"/>
<polygon fill="#63b8ff" stroke="#63b8ff" points="461.28,-393.6 471.62,-395.95 465.01,-387.68 461.28,-393.6"/>
</a>
</g>
</g>
<!-- Node16 -->
<g id="Node000016" class="node">
<title>Node16</title>
<g id="a_Node000016"><a xlink:href="simulatorDriver_8cpp.html" target="_top" xlink:title=" ">
<polygon fill="white" stroke="#666666" points="690,-354.5 522,-354.5 522,-335.5 690,-335.5 690,-354.5"/>
<text text-anchor="middle" x="606" y="-342.5" font-family="Helvetica,sans-Serif" font-size="10.00">src/Drivers/simulatorDriver.cpp</text>
</a>
</g>
</g>
<!-- Node13&#45;&gt;Node16 -->
<g id="edge30_Node000013_Node000016" class="edge">
<title>Node13&#45;&gt;Node16</title>
<g id="a_edge30_Node000013_Node000016"><a xlink:title=" ">
<path fill="none" stroke="#63b8ff" d="M527.3,-390.97C548.48,-378.87 574.89,-363.78 591.09,-354.52"/>
<polygon fill="#63b8ff" stroke="#63b8ff" points="525.52,-387.95 518.58,-395.95 529,-394.03 525.52,-387.95"/>
</a>
</g>
</g>
<!-- Node14&#45;&gt;Node5 -->
<g id="edge26_Node000014_Node000005" class="edge">
<title>Node14&#45;&gt;Node5</title>
<g id="a_edge26_Node000014_Node000005"><a xlink:title=" ">
<path fill="none" stroke="#63b8ff" d="M340.22,-326.03C300.35,-308.52 252,-277.57 252,-230.5 252,-230.5 252,-230.5 252,-173.5 252,-135.36 269.59,-92.31 277.83,-74.23"/>
<polygon fill="#63b8ff" stroke="#63b8ff" points="339.04,-329.33 349.62,-329.99 341.76,-322.88 339.04,-329.33"/>
</a>
</g>
</g>
<!-- Node14&#45;&gt;Node9 -->
<g id="edge24_Node000014_Node000009" class="edge">
<title>Node14&#45;&gt;Node9</title>
<g id="a_edge24_Node000014_Node000009"><a xlink:title=" ">
<path fill="none" stroke="#63b8ff" d="M476.15,-330.33C545.23,-319.1 640.9,-303.55 699.5,-294.03"/>
<polygon fill="#63b8ff" stroke="#63b8ff" points="475.46,-326.89 466.16,-331.95 476.59,-333.8 475.46,-326.89"/>
</a>
</g>
</g>
<!-- Node14&#45;&gt;Node10 -->
<g id="edge25_Node000014_Node000010" class="edge">
<title>Node14&#45;&gt;Node10</title>
<g id="a_edge25_Node000014_Node000010"><a xlink:title=" ">
<path fill="none" stroke="#63b8ff" d="M463.86,-325.92C479.3,-318.58 493.75,-308.32 503,-294 515.77,-274.24 490.48,-251.26 473.88,-239.09"/>
<polygon fill="#63b8ff" stroke="#63b8ff" points="462.46,-322.71 454.68,-329.91 465.25,-329.13 462.46,-322.71"/>
</a>
</g>
</g>
<!-- Node15 -->
<g id="Node000015" class="node">
<title>Node15</title>
<g id="a_Node000015"><a xlink:href="transDriverModel_8cpp.html" target="_top" xlink:title=" ">
<polygon fill="white" stroke="#666666" points="494.5,-294 317.5,-294 317.5,-275 494.5,-275 494.5,-294"/>
<text text-anchor="middle" x="406" y="-282" font-family="Helvetica,sans-Serif" font-size="10.00">src/Drivers/transDriverModel.cpp</text>
</a>
</g>
</g>
<!-- Node14&#45;&gt;Node15 -->
<g id="edge27_Node000014_Node000015" class="edge">
<title>Node14&#45;&gt;Node15</title>
<g id="a_edge27_Node000014_Node000015"><a xlink:title=" ">
<path fill="none" stroke="#63b8ff" d="M397.73,-320.04C399.92,-310.93 402.27,-301.1 403.9,-294.27"/>
<polygon fill="#63b8ff" stroke="#63b8ff" points="394.31,-319.3 395.39,-329.84 401.12,-320.93 394.31,-319.3"/>
</a>
</g>
</g>
<!-- Node17&#45;&gt;Node5 -->
<g id="edge33_Node000017_Node000005" class="edge">
<title>Node17&#45;&gt;Node5</title>
<g id="a_edge33_Node000017_Node000005"><a xlink:title=" ">
<path fill="none" stroke="#63b8ff" d="M97.8,-326.5C109.06,-304.71 126,-266.02 126,-230.5 126,-230.5 126,-230.5 126,-173.5 126,-141.06 137.29,-131.03 162,-110 183.58,-91.64 213.43,-80.53 237.96,-74"/>
<polygon fill="#63b8ff" stroke="#63b8ff" points="94.61,-325.03 92.97,-335.5 100.78,-328.34 94.61,-325.03"/>
</a>
</g>
</g>
<!-- Node17&#45;&gt;Node6 -->
<g id="edge34_Node000017_Node000006" class="edge">
<title>Node17&#45;&gt;Node6</title>
<g id="a_edge34_Node000017_Node000006"><a xlink:title=" ">
<path fill="none" stroke="#63b8ff" d="M75.28,-327.17C60.47,-305.86 38,-267.45 38,-230.5 38,-230.5 38,-230.5 38,-118.5 38,-55.39 514.78,-21.5 657.26,-12.79"/>
<polygon fill="#63b8ff" stroke="#63b8ff" points="72.57,-329.39 81.26,-335.45 78.24,-325.3 72.57,-329.39"/>
</a>
</g>
</g>
</g>
</svg>

<g id="navigator" transform="translate(0 0)" fill="#404254">
  <rect fill="#f2f5e9" fill-opacity="0.5" stroke="#606060" stroke-width=".5" x="0" y="0" width="60" height="60"/>
  <use id="zoomplus" xlink:href="#zoomPlus" x="17" y="9" onmousedown="handleZoom(evt,'in')"/>
  <use id="zoomminus" xlink:href="#zoomMin" x="42" y="9" onmousedown="handleZoom(evt,'out')"/>
  <use id="reset" xlink:href="#resetDef" x="30" y="36" onmousedown="handleReset()"/>
   <use id="arrowup" xlink:href="#arrowUp" x="0" y="0" onmousedown="handlePan(0,-1)"/>
  <use id="arrowright" xlink:href="#arrowRight" x="0" y="0" onmousedown="handlePan(1,0)"/>
  <use id="arrowdown" xlink:href="#arrowDown" x="0" y="0" onmousedown="handlePan(0,1)"/>
  <use id="arrowleft" xlink:href="#arrowLeft" x="0" y="0" onmousedown="handlePan(-1,0)"/>
</g>
<svg viewBox="0 0 15 15" width="100%" height="30px" preserveAspectRatio="xMaxYMin meet">
 <g id="arrow_out" transform="scale(0.3 0.3)">
  <a xlink:href="channel_8h__dep__incl_org.svg" target="_base">
   <rect id="button" ry="5" rx="5" y="6" x="6" height="38" width="38"
        fill="#f2f5e9" fill-opacity="0.5" stroke="#606060" stroke-width="1.0"/>
   <path id="arrow"
     d="M 11.500037,31.436501 C 11.940474,20.09759 22.043105,11.32322 32.158766,21.979434 L 37.068811,17.246167 C 37.068811,17.246167 37.088388,32 37.088388,32 L 22.160133,31.978069 C 22.160133,31.978069 26.997745,27.140456 26.997745,27.140456 C 18.528582,18.264221 13.291696,25.230495 11.500037,31.436501 z"
     style="fill:#404040;"/>
  </a>
 </g>
</svg>

<style type='text/css'>
<![CDATA[
[data-mouse-over-selected='false'] { opacity: 0.7; }
[data-mouse-over-selected='true']  { opacity: 1.0; }
]]>
</style>
<script type="application/ecmascript"><![CDATA[
document.addEventListener('DOMContentLoaded', (event) => {
  highlightEdges();
  highlightAdjacentNodes();
});
]]></script>
</svg>
