<?xml version="1.0" encoding="UTF-8" standalone="no"?>
<!DOCTYPE svg PUBLIC "-//W3C//DTD SVG 1.1//EN"
 "http://www.w3.org/Graphics/SVG/1.1/DTD/svg11.dtd">
<!-- Generated by graphviz version 2.43.0 (0)
 -->
<!-- Title: include/Channel/channel.h Pages: 1 -->
<!--zoomable 247 -->

<svg id="main" version="1.1" xmlns="http://www.w3.org/2000/svg" xmlns:xlink="http://www.w3.org/1999/xlink" xml:space="preserve" onload="init(evt)">
<style type="text/css"><![CDATA[
.node, .edge {opacity: 0.7;}
.node.selected, .edge.selected {opacity: 1;}
.edge:hover path { stroke: red; }
.edge:hover polygon { stroke: red; fill: red; }
]]></style>

<defs>
  <circle id="rim" cx="0" cy="0" r="7"/>
  <circle id="rim2" cx="0" cy="0" r="3.5"/>
  <g id="zoomPlus">
    <use xlink:href="#rim" fill="#404040"><set attributeName="fill" to="#808080" begin="zoomplus.mouseover" end="zoomplus.mouseout"/></use>
    <path d="M-4,0h8M0,-4v8" fill="none" stroke="white" stroke-width="1.5" pointer-events="none"/>
  </g>
  <g id="zoomMin">
    <use xlink:href="#rim" fill="#404040"><set attributeName="fill" to="#808080" begin="zoomminus.mouseover" end="zoomminus.mouseout"/></use>
    <path d="M-4,0h8" fill="none" stroke="white" stroke-width="1.5" pointer-events="none"/>
  </g>
  <g id="arrowUp" transform="translate(30 24)">
    <use xlink:href="#rim"/>
    <path pointer-events="none" fill="none" stroke="white" stroke-width="1.5" d="M0,-3.0v7 M-2.5,-0.5L0,-3.0L2.5,-0.5"/>
  </g>
  <g id="arrowRight" transform="rotate(90) translate(36 -43)">
    <use xlink:href="#rim"/>
    <path pointer-events="none" fill="none" stroke="white" stroke-width="1.5" d="M0,-3.0v7 M-2.5,-0.5L0,-3.0L2.5,-0.5"/>
  </g>
  <g id="arrowDown" transform="rotate(180) translate(-30 -48)">
    <use xlink:href="#rim"/>
    <path pointer-events="none" fill="none" stroke="white" stroke-width="1.5" d="M0,-3.0v7 M-2.5,-0.5L0,-3.0L2.5,-0.5"/>
  </g>
  <g id="arrowLeft" transform="rotate(270) translate(-36 17)">
    <use xlink:href="#rim"/>
    <path pointer-events="none" fill="none" stroke="white" stroke-width="1.5" d="M0,-3.0v7 M-2.5,-0.5L0,-3.0L2.5,-0.5"/>
  </g>
  <g id="resetDef">
    <use xlink:href="#rim2" fill="#404040"><set attributeName="fill" to="#808080" begin="reset.mouseover" end="reset.mouseout"/></use>
  </g>
</defs>
<script type="application/ecmascript">
var viewWidth = 1256;
var viewHeight = 247;
var sectionId = 'dynsection-0';
</script>
<script type="application/ecmascript" xlink:href="svg.min.js"/>
<svg id="graph" class="graph">
<g id="viewport">
<title>include/Channel/channel.h</title>
<!-- Node1 -->
<g id="Node000001" class="node">
<title>Node1</title>
<g id="a_Node000001"><a xlink:title=" ">
<polygon fill="#999999" stroke="#666666" points="642,-239 497,-239 497,-220 642,-220 642,-239"/>
<text text-anchor="middle" x="569.5" y="-227" font-family="Helvetica,sans-Serif" font-size="10.00">include/Channel/channel.h</text>
</a>
</g>
</g>
<!-- Node2 -->
<g id="Node000002" class="node">
<title>Node2</title>
<g id="a_Node000002"><a xlink:title=" ">
<polygon fill="#e0e0e0" stroke="#999999" points="53,-184 0,-184 0,-165 53,-165 53,-184"/>
<text text-anchor="middle" x="26.5" y="-172" font-family="Helvetica,sans-Serif" font-size="10.00">iterator</text>
</a>
</g>
</g>
<!-- Node1&#45;&gt;Node2 -->
<g id="edge1_Node000001_Node000002" class="edge">
<title>Node1&#45;&gt;Node2</title>
<g id="a_edge1_Node000001_Node000002"><a xlink:title=" ">
<path fill="none" stroke="#63b8ff" d="M496.87,-224.71C398.96,-219 219.41,-206.4 67.5,-184 66.21,-183.81 64.89,-183.6 63.56,-183.38"/>
<polygon fill="#63b8ff" stroke="#63b8ff" points="63.79,-179.87 53.33,-181.53 62.54,-186.76 63.79,-179.87"/>
</a>
</g>
</g>
<!-- Node3 -->
<g id="Node000003" class="node">
<title>Node3</title>
<g id="a_Node000003"><a xlink:title=" ">
<polygon fill="#e0e0e0" stroke="#999999" points="243.5,-129 185.5,-129 185.5,-110 243.5,-110 243.5,-129"/>
<text text-anchor="middle" x="214.5" y="-117" font-family="Helvetica,sans-Serif" font-size="10.00">memory</text>
</a>
</g>
</g>
<!-- Node1&#45;&gt;Node3 -->
<g id="edge2_Node000001_Node000003" class="edge">
<title>Node1&#45;&gt;Node3</title>
<g id="a_edge2_Node000001_Node000003"><a xlink:title=" ">
<path fill="none" stroke="#63b8ff" d="M536.26,-219.98C503.22,-211.37 451.15,-197.47 406.5,-184 350.81,-167.2 286.77,-145.55 248.53,-132.36"/>
<polygon fill="#63b8ff" stroke="#63b8ff" points="249.51,-129 238.92,-129.04 247.23,-135.61 249.51,-129"/>
</a>
</g>
</g>
<!-- Node4 -->
<g id="Node000004" class="node">
<title>Node4</title>
<g id="a_Node000004"><a xlink:title=" ">
<polygon fill="#e0e0e0" stroke="#999999" points="309.5,-129 261.5,-129 261.5,-110 309.5,-110 309.5,-129"/>
<text text-anchor="middle" x="285.5" y="-117" font-family="Helvetica,sans-Serif" font-size="10.00">mutex</text>
</a>
</g>
</g>
<!-- Node1&#45;&gt;Node4 -->
<g id="edge3_Node000001_Node000004" class="edge">
<title>Node1&#45;&gt;Node4</title>
<g id="a_edge3_Node000001_Node000004"><a xlink:title=" ">
<path fill="none" stroke="#63b8ff" d="M546.74,-219.84C496.35,-200.68 375.25,-154.63 317.36,-132.62"/>
<polygon fill="#63b8ff" stroke="#63b8ff" points="318.57,-129.33 307.98,-129.05 316.08,-135.87 318.57,-129.33"/>
</a>
</g>
</g>
<!-- Node5 -->
<g id="Node000005" class="node">
<title>Node5</title>
<g id="a_Node000005"><a xlink:title=" ">
<polygon fill="#e0e0e0" stroke="#999999" points="475.5,-19 431.5,-19 431.5,0 475.5,0 475.5,-19"/>
<text text-anchor="middle" x="453.5" y="-7" font-family="Helvetica,sans-Serif" font-size="10.00">string</text>
</a>
</g>
</g>
<!-- Node1&#45;&gt;Node5 -->
<g id="edge4_Node000001_Node000005" class="edge">
<title>Node1&#45;&gt;Node5</title>
<g id="a_edge4_Node000001_Node000005"><a xlink:title=" ">
<path fill="none" stroke="#63b8ff" d="M496.92,-223.65C412.86,-217.2 280.09,-204.21 234.5,-184 199.9,-168.67 185.42,-163.33 169.5,-129 122.98,-28.71 337.23,-13.13 421.07,-10.84"/>
<polygon fill="#63b8ff" stroke="#63b8ff" points="421.39,-14.33 431.31,-10.61 421.23,-7.33 421.39,-14.33"/>
</a>
</g>
</g>
<!-- Node6 -->
<g id="Node000006" class="node">
<title>Node6</title>
<g id="a_Node000006"><a xlink:title=" ">
<polygon fill="#e0e0e0" stroke="#999999" points="1066,-74 1025,-74 1025,-55 1066,-55 1066,-74"/>
<text text-anchor="middle" x="1045.5" y="-62" font-family="Helvetica,sans-Serif" font-size="10.00">tuple</text>
</a>
</g>
</g>
<!-- Node1&#45;&gt;Node6 -->
<g id="edge5_Node000001_Node000006" class="edge">
<title>Node1&#45;&gt;Node6</title>
<g id="a_edge5_Node000001_Node000006"><a xlink:title=" ">
<path fill="none" stroke="#63b8ff" d="M642.37,-226.16C750.39,-221.85 947.26,-210.55 1012.5,-184 1048.82,-169.22 1064.48,-164.33 1081.5,-129 1089.52,-112.36 1076.74,-94.08 1064.24,-81.43"/>
<polygon fill="#63b8ff" stroke="#63b8ff" points="1066.37,-78.63 1056.69,-74.34 1061.58,-83.74 1066.37,-78.63"/>
</a>
</g>
</g>
<!-- Node7 -->
<g id="Node000007" class="node">
<title>Node7</title>
<g id="a_Node000007"><a xlink:title=" ">
<polygon fill="#e0e0e0" stroke="#999999" points="271,-19 178,-19 178,0 271,0 271,-19"/>
<text text-anchor="middle" x="224.5" y="-7" font-family="Helvetica,sans-Serif" font-size="10.00">unordered_map</text>
</a>
</g>
</g>
<!-- Node1&#45;&gt;Node7 -->
<g id="edge6_Node000001_Node000007" class="edge">
<title>Node1&#45;&gt;Node7</title>
<g id="a_edge6_Node000001_Node000007"><a xlink:title=" ">
<path fill="none" stroke="#63b8ff" d="M496.93,-227.39C402.03,-224.69 242.14,-215.46 193.5,-184 144.66,-152.41 141.85,-105.04 171.5,-55 178.68,-42.89 190.39,-32.54 200.98,-24.88"/>
<polygon fill="#63b8ff" stroke="#63b8ff" points="203.19,-27.61 209.49,-19.1 199.25,-21.82 203.19,-27.61"/>
</a>
</g>
</g>
<!-- Node8 -->
<g id="Node000008" class="node">
<title>Node8</title>
<g id="a_Node000008"><a xlink:title=" ">
<polygon fill="#e0e0e0" stroke="#999999" points="825.5,-74 787.5,-74 787.5,-55 825.5,-55 825.5,-74"/>
<text text-anchor="middle" x="806.5" y="-62" font-family="Helvetica,sans-Serif" font-size="10.00">map</text>
</a>
</g>
</g>
<!-- Node1&#45;&gt;Node8 -->
<g id="edge7_Node000001_Node000008" class="edge">
<title>Node1&#45;&gt;Node8</title>
<g id="a_edge7_Node000001_Node000008"><a xlink:title=" ">
<path fill="none" stroke="#63b8ff" d="M642.09,-224.07C761.59,-215.08 991.46,-190.11 1040.5,-129 1080.82,-78.75 1136.4,-144.29 835.5,-74 835.4,-73.98 835.3,-73.95 835.2,-73.93"/>
<polygon fill="#63b8ff" stroke="#63b8ff" points="836.32,-70.61 825.76,-71.47 834.56,-77.38 836.32,-70.61"/>
</a>
</g>
</g>
<!-- Node9 -->
<g id="Node000009" class="node">
<title>Node9</title>
<g id="a_Node000009"><a xlink:title=" ">
<polygon fill="#e0e0e0" stroke="#999999" points="889,-74 844,-74 844,-55 889,-55 889,-74"/>
<text text-anchor="middle" x="866.5" y="-62" font-family="Helvetica,sans-Serif" font-size="10.00">utility</text>
</a>
</g>
</g>
<!-- Node1&#45;&gt;Node9 -->
<g id="edge8_Node000001_Node000009" class="edge">
<title>Node1&#45;&gt;Node9</title>
<g id="a_edge8_Node000001_Node000009"><a xlink:title=" ">
<path fill="none" stroke="#63b8ff" d="M642.08,-226.46C769.46,-221.02 1023.84,-201.15 1066.5,-129 1070.8,-121.73 1071.78,-116.59 1066.5,-110 1045.93,-84.35 950.79,-72.54 899.49,-67.96"/>
<polygon fill="#63b8ff" stroke="#63b8ff" points="899.51,-64.45 889.25,-67.09 898.92,-71.42 899.51,-64.45"/>
</a>
</g>
</g>
<!-- Node10 -->
<g id="Node000010" class="node">
<title>Node10</title>
<g id="a_Node000010"><a xlink:title=" ">
<polygon fill="#e0e0e0" stroke="#999999" points="862,-19 815,-19 815,0 862,0 862,-19"/>
<text text-anchor="middle" x="838.5" y="-7" font-family="Helvetica,sans-Serif" font-size="10.00">vector</text>
</a>
</g>
</g>
<!-- Node1&#45;&gt;Node10 -->
<g id="edge9_Node000001_Node000010" class="edge">
<title>Node1&#45;&gt;Node10</title>
<g id="a_edge9_Node000001_Node000010"><a xlink:title=" ">
<path fill="none" stroke="#63b8ff" d="M642.21,-227.98C757.54,-226.12 976.46,-218.05 1045.5,-184 1075.4,-169.26 1084.33,-160.03 1096.5,-129 1108.99,-97.17 1101.74,-76.92 1075.5,-55 1045.1,-29.61 930.16,-17.44 872.26,-12.82"/>
<polygon fill="#63b8ff" stroke="#63b8ff" points="872.38,-9.32 862.15,-12.04 871.85,-16.3 872.38,-9.32"/>
</a>
</g>
</g>
<!-- Node11 -->
<g id="Node000011" class="node">
<title>Node11</title>
<g id="a_Node000011"><a xlink:title=" ">
<polygon fill="#e0e0e0" stroke="#999999" points="1247.5,-184 1201.5,-184 1201.5,-165 1247.5,-165 1247.5,-184"/>
<text text-anchor="middle" x="1224.5" y="-172" font-family="Helvetica,sans-Serif" font-size="10.00">future</text>
</a>
</g>
</g>
<!-- Node1&#45;&gt;Node11 -->
<g id="edge10_Node000001_Node000011" class="edge">
<title>Node1&#45;&gt;Node11</title>
<g id="a_edge10_Node000001_Node000011"><a xlink:title=" ">
<path fill="none" stroke="#63b8ff" d="M642.21,-226.89C758.14,-223.5 991.76,-213.35 1187.5,-184 1188.75,-183.81 1190.01,-183.61 1191.29,-183.38"/>
<polygon fill="#63b8ff" stroke="#63b8ff" points="1191.98,-186.82 1201.12,-181.44 1190.63,-179.95 1191.98,-186.82"/>
</a>
</g>
</g>
<!-- Node12 -->
<g id="Node000012" class="node">
<title>Node12</title>
<g id="a_Node000012"><a xlink:title=" ">
<polygon fill="#e0e0e0" stroke="#999999" points="425.5,-74 365.5,-74 365.5,-55 425.5,-55 425.5,-74"/>
<text text-anchor="middle" x="395.5" y="-62" font-family="Helvetica,sans-Serif" font-size="10.00">iostream</text>
</a>
</g>
</g>
<!-- Node1&#45;&gt;Node12 -->
<g id="edge11_Node000001_Node000012" class="edge">
<title>Node1&#45;&gt;Node12</title>
<g id="a_edge11_Node000001_Node000012"><a xlink:title=" ">
<path fill="none" stroke="#63b8ff" d="M496.84,-221.06C393.86,-208.8 213.78,-180.43 176.5,-129 171.54,-122.16 171.16,-116.54 176.5,-110 198.63,-82.92 298.2,-71.91 355.16,-67.77"/>
<polygon fill="#63b8ff" stroke="#63b8ff" points="355.54,-71.25 365.28,-67.07 355.06,-64.27 355.54,-71.25"/>
</a>
</g>
</g>
<!-- Node13 -->
<g id="Node000013" class="node">
<title>Node13</title>
<g id="a_Node000013"><a xlink:title=" ">
<polygon fill="#e0e0e0" stroke="#999999" points="1031.5,-129 945.5,-129 945.5,-110 1031.5,-110 1031.5,-129"/>
<text text-anchor="middle" x="988.5" y="-117" font-family="Helvetica,sans-Serif" font-size="10.00">shared_mutex</text>
</a>
</g>
</g>
<!-- Node1&#45;&gt;Node13 -->
<g id="edge12_Node000001_Node000013" class="edge">
<title>Node1&#45;&gt;Node13</title>
<g id="a_edge12_Node000001_Node000013"><a xlink:title=" ">
<path fill="none" stroke="#63b8ff" d="M602.73,-219.94C678.06,-200.52 861.76,-153.17 945.56,-131.57"/>
<polygon fill="#63b8ff" stroke="#63b8ff" points="946.46,-134.95 955.27,-129.07 944.71,-128.17 946.46,-134.95"/>
</a>
</g>
</g>
<!-- Node14 -->
<g id="Node000014" class="node">
<title>Node14</title>
<g id="a_Node000014"><a xlink:href="types_8h.html" target="_top" xlink:title=" ">
<polygon fill="white" stroke="#666666" points="590,-74 501,-74 501,-55 590,-55 590,-74"/>
<text text-anchor="middle" x="545.5" y="-62" font-family="Helvetica,sans-Serif" font-size="10.00">Library/types.h</text>
</a>
</g>
</g>
<!-- Node1&#45;&gt;Node14 -->
<g id="edge13_Node000001_Node000014" class="edge">
<title>Node1&#45;&gt;Node14</title>
<g id="a_edge13_Node000001_Node000014"><a xlink:title=" ">
<path fill="none" stroke="#63b8ff" d="M562.99,-219.81C556.89,-211.2 548.05,-197.39 543.5,-184 532.87,-152.72 533.21,-142.87 536.5,-110 537.35,-101.47 539.11,-92.16 540.84,-84.27"/>
<polygon fill="#63b8ff" stroke="#63b8ff" points="544.3,-84.82 543.18,-74.29 537.49,-83.22 544.3,-84.82"/>
</a>
</g>
</g>
<!-- Node15 -->
<g id="Node000015" class="node">
<title>Node15</title>
<g id="a_Node000015"><a xlink:href="transaction_8h_source.html" target="_top" xlink:title=" ">
<polygon fill="white" stroke="#666666" points="692,-184 553,-184 553,-165 692,-165 692,-184"/>
<text text-anchor="middle" x="622.5" y="-172" font-family="Helvetica,sans-Serif" font-size="10.00">Transaction/transaction.h</text>
</a>
</g>
</g>
<!-- Node1&#45;&gt;Node15 -->
<g id="edge17_Node000001_Node000015" class="edge">
<title>Node1&#45;&gt;Node15</title>
<g id="a_edge17_Node000001_Node000015"><a xlink:title=" ">
<path fill="none" stroke="#63b8ff" d="M578.25,-219.75C585.97,-212.03 597.4,-200.6 606.72,-191.28"/>
<polygon fill="#63b8ff" stroke="#63b8ff" points="609.31,-193.64 613.91,-184.09 604.36,-188.69 609.31,-193.64"/>
</a>
</g>
</g>
<!-- Node14&#45;&gt;Node5 -->
<g id="edge16_Node000014_Node000005" class="edge">
<title>Node14&#45;&gt;Node5</title>
<g id="a_edge16_Node000014_Node000005"><a xlink:title=" ">
<path fill="none" stroke="#63b8ff" d="M530.72,-54.98C516.32,-46.69 494.19,-33.94 477.31,-24.22"/>
<polygon fill="#63b8ff" stroke="#63b8ff" points="478.96,-21.13 468.55,-19.17 475.47,-27.19 478.96,-21.13"/>
</a>
</g>
</g>
<!-- Node14&#45;&gt;Node7 -->
<g id="edge15_Node000014_Node000007" class="edge">
<title>Node14&#45;&gt;Node7</title>
<g id="a_edge15_Node000014_Node000007"><a xlink:title=" ">
<path fill="none" stroke="#63b8ff" d="M500.87,-56.13C443.51,-46.66 343.87,-30.21 281.2,-19.86"/>
<polygon fill="#63b8ff" stroke="#63b8ff" points="281.53,-16.37 271.1,-18.19 280.39,-23.28 281.53,-16.37"/>
</a>
</g>
</g>
<!-- Node14&#45;&gt;Node10 -->
<g id="edge14_Node000014_Node000010" class="edge">
<title>Node14&#45;&gt;Node10</title>
<g id="a_edge14_Node000014_Node000010"><a xlink:title=" ">
<path fill="none" stroke="#63b8ff" d="M590,-55.45C648.98,-44.78 751.76,-26.19 804.76,-16.6"/>
<polygon fill="#63b8ff" stroke="#63b8ff" points="805.45,-20.04 814.66,-14.81 804.2,-13.15 805.45,-20.04"/>
</a>
</g>
</g>
<!-- Node15&#45;&gt;Node3 -->
<g id="edge24_Node000015_Node000003" class="edge">
<title>Node15&#45;&gt;Node3</title>
<g id="a_edge24_Node000015_Node000003"><a xlink:title=" ">
<path fill="none" stroke="#63b8ff" d="M552.98,-167.24C480.58,-160.25 363.7,-147.62 253.83,-129.08"/>
<polygon fill="#63b8ff" stroke="#63b8ff" points="254.35,-125.62 243.9,-127.38 253.17,-132.52 254.35,-125.62"/>
</a>
</g>
</g>
<!-- Node15&#45;&gt;Node4 -->
<g id="edge19_Node000015_Node000004" class="edge">
<title>Node15&#45;&gt;Node4</title>
<g id="a_edge19_Node000015_Node000004"><a xlink:title=" ">
<path fill="none" stroke="#63b8ff" d="M555.77,-164.97C495.02,-156.88 402.96,-143.78 323.5,-129 322.23,-128.76 320.94,-128.52 319.63,-128.26"/>
<polygon fill="#63b8ff" stroke="#63b8ff" points="320.07,-124.77 309.57,-126.16 318.64,-131.63 320.07,-124.77"/>
</a>
</g>
</g>
<!-- Node15&#45;&gt;Node5 -->
<g id="edge21_Node000015_Node000005" class="edge">
<title>Node15&#45;&gt;Node5</title>
<g id="a_edge21_Node000015_Node000005"><a xlink:title=" ">
<path fill="none" stroke="#63b8ff" d="M552.71,-167.45C491.94,-160.96 409.6,-148.81 383.5,-129 355.61,-107.83 337.6,-84.47 356.5,-55 370.73,-32.82 399.08,-21.55 421.48,-15.91"/>
<polygon fill="#63b8ff" stroke="#63b8ff" points="422.29,-19.32 431.28,-13.7 420.75,-12.49 422.29,-19.32"/>
</a>
</g>
</g>
<!-- Node15&#45;&gt;Node8 -->
<g id="edge25_Node000015_Node000008" class="edge">
<title>Node15&#45;&gt;Node8</title>
<g id="a_edge25_Node000015_Node000008"><a xlink:title=" ">
<path fill="none" stroke="#63b8ff" d="M692.02,-167.2C743.06,-160.96 806.2,-149.33 822.5,-129 833.02,-115.88 826.05,-96.73 818.28,-82.9"/>
<polygon fill="#63b8ff" stroke="#63b8ff" points="821.21,-80.98 812.98,-74.3 815.25,-84.65 821.21,-80.98"/>
</a>
</g>
</g>
<!-- Node15&#45;&gt;Node9 -->
<g id="edge22_Node000015_Node000009" class="edge">
<title>Node15&#45;&gt;Node9</title>
<g id="a_edge22_Node000015_Node000009"><a xlink:title=" ">
<path fill="none" stroke="#63b8ff" d="M692.26,-166.1C746.54,-159.1 816.27,-146.95 838.5,-129 852.24,-117.9 859.43,-98.68 863.06,-84.29"/>
<polygon fill="#63b8ff" stroke="#63b8ff" points="866.5,-84.95 865.19,-74.44 859.66,-83.47 866.5,-84.95"/>
</a>
</g>
</g>
<!-- Node15&#45;&gt;Node10 -->
<g id="edge23_Node000015_Node000010" class="edge">
<title>Node15&#45;&gt;Node10</title>
<g id="a_edge23_Node000015_Node000010"><a xlink:title=" ">
<path fill="none" stroke="#63b8ff" d="M692.17,-166.25C751.84,-159 832.31,-146.42 859.5,-129 890.8,-108.94 915.21,-88.21 898.5,-55 891.81,-41.71 879.06,-31.39 867.03,-24.05"/>
<polygon fill="#63b8ff" stroke="#63b8ff" points="868.51,-20.87 858.08,-19.02 865.08,-26.97 868.51,-20.87"/>
</a>
</g>
</g>
<!-- Node15&#45;&gt;Node12 -->
<g id="edge18_Node000015_Node000012" class="edge">
<title>Node15&#45;&gt;Node12</title>
<g id="a_edge18_Node000015_Node000012"><a xlink:title=" ">
<path fill="none" stroke="#63b8ff" d="M552.74,-169.4C493.25,-164.28 414.31,-153.05 394.5,-129 384.32,-116.64 386.01,-97.88 389.38,-83.95"/>
<polygon fill="#63b8ff" stroke="#63b8ff" points="392.83,-84.61 392.25,-74.03 386.11,-82.66 392.83,-84.61"/>
</a>
</g>
</g>
<!-- Node15&#45;&gt;Node13 -->
<g id="edge20_Node000015_Node000013" class="edge">
<title>Node15&#45;&gt;Node13</title>
<g id="a_edge20_Node000015_Node000013"><a xlink:title=" ">
<path fill="none" stroke="#63b8ff" d="M682.33,-164.97C744.58,-156.08 844.89,-141.69 931.5,-129 932.75,-128.82 934.02,-128.63 935.3,-128.44"/>
<polygon fill="#63b8ff" stroke="#63b8ff" points="935.86,-131.9 945.24,-126.97 934.84,-124.97 935.86,-131.9"/>
</a>
</g>
</g>
<!-- Node15&#45;&gt;Node14 -->
<g id="edge28_Node000015_Node000014" class="edge">
<title>Node15&#45;&gt;Node14</title>
<g id="a_edge28_Node000015_Node000014"><a xlink:title=" ">
<path fill="none" stroke="#63b8ff" d="M622.87,-164.94C623.02,-151.98 621.67,-127.1 610.5,-110 601.83,-96.73 587.7,-86.36 574.81,-78.98"/>
<polygon fill="#63b8ff" stroke="#63b8ff" points="576.22,-75.76 565.75,-74.13 572.92,-81.93 576.22,-75.76"/>
</a>
</g>
</g>
<!-- Node16 -->
<g id="Node000016" class="node">
<title>Node16</title>
<g id="a_Node000016"><a xlink:title=" ">
<polygon fill="#e0e0e0" stroke="#999999" points="601.5,-129 545.5,-129 545.5,-110 601.5,-110 601.5,-129"/>
<text text-anchor="middle" x="573.5" y="-117" font-family="Helvetica,sans-Serif" font-size="10.00">optional</text>
</a>
</g>
</g>
<!-- Node15&#45;&gt;Node16 -->
<g id="edge26_Node000015_Node000016" class="edge">
<title>Node15&#45;&gt;Node16</title>
<g id="a_edge26_Node000015_Node000016"><a xlink:title=" ">
<path fill="none" stroke="#63b8ff" d="M614.41,-164.75C607.34,-157.11 596.91,-145.82 588.35,-136.56"/>
<polygon fill="#63b8ff" stroke="#63b8ff" points="590.8,-134.06 581.44,-129.09 585.66,-138.81 590.8,-134.06"/>
</a>
</g>
</g>
<!-- Node17 -->
<g id="Node000017" class="node">
<title>Node17</title>
<g id="a_Node000017"><a xlink:title=" ">
<polygon fill="#e0e0e0" stroke="#999999" points="693,-74 628,-74 628,-55 693,-55 693,-74"/>
<text text-anchor="middle" x="660.5" y="-62" font-family="Helvetica,sans-Serif" font-size="10.00">functional</text>
</a>
</g>
</g>
<!-- Node15&#45;&gt;Node17 -->
<g id="edge27_Node000015_Node000017" class="edge">
<title>Node15&#45;&gt;Node17</title>
<g id="a_edge27_Node000015_Node000017"><a xlink:title=" ">
<path fill="none" stroke="#63b8ff" d="M627.16,-164.83C631.77,-156.01 638.8,-141.83 643.5,-129 648.91,-114.25 653.41,-97 656.43,-84.2"/>
<polygon fill="#63b8ff" stroke="#63b8ff" points="659.88,-84.81 658.67,-74.28 653.05,-83.26 659.88,-84.81"/>
</a>
</g>
</g>
<!-- Node18 -->
<g id="Node000018" class="node">
<title>Node18</title>
<g id="a_Node000018"><a xlink:href="error_8h.html" target="_top" xlink:title=" ">
<polygon fill="white" stroke="#666666" points="489,-129 404,-129 404,-110 489,-110 489,-129"/>
<text text-anchor="middle" x="446.5" y="-117" font-family="Helvetica,sans-Serif" font-size="10.00">Library/error.h</text>
</a>
</g>
</g>
<!-- Node15&#45;&gt;Node18 -->
<g id="edge29_Node000015_Node000018" class="edge">
<title>Node15&#45;&gt;Node18</title>
<g id="a_edge29_Node000015_Node000018"><a xlink:title=" ">
<path fill="none" stroke="#63b8ff" d="M594.22,-164.98C564.55,-156.05 517.71,-141.94 484.75,-132.02"/>
<polygon fill="#63b8ff" stroke="#63b8ff" points="485.58,-128.61 475,-129.08 483.57,-135.32 485.58,-128.61"/>
</a>
</g>
</g>
<!-- Node19 -->
<g id="Node000019" class="node">
<title>Node19</title>
<g id="a_Node000019"><a xlink:href="evaluate_8h.html" target="_top" xlink:title=" ">
<polygon fill="white" stroke="#666666" points="813.5,-129 695.5,-129 695.5,-110 813.5,-110 813.5,-129"/>
<text text-anchor="middle" x="754.5" y="-117" font-family="Helvetica,sans-Serif" font-size="10.00">Evaluator/evaluate.h</text>
</a>
</g>
</g>
<!-- Node15&#45;&gt;Node19 -->
<g id="edge32_Node000015_Node000019" class="edge">
<title>Node15&#45;&gt;Node19</title>
<g id="a_edge32_Node000015_Node000019"><a xlink:title=" ">
<path fill="none" stroke="#63b8ff" d="M643.71,-164.98C665.23,-156.34 698.78,-142.87 723.33,-133.02"/>
<polygon fill="#63b8ff" stroke="#63b8ff" points="724.93,-136.14 732.91,-129.17 722.32,-129.65 724.93,-136.14"/>
</a>
</g>
</g>
<!-- Node18&#45;&gt;Node5 -->
<g id="edge30_Node000018_Node000005" class="edge">
<title>Node18&#45;&gt;Node5</title>
<g id="a_edge30_Node000018_Node000005"><a xlink:title=" ">
<path fill="none" stroke="#63b8ff" d="M447.07,-109.66C448.21,-92.17 450.76,-52.8 452.28,-29.27"/>
<polygon fill="#63b8ff" stroke="#63b8ff" points="455.78,-29.36 452.94,-19.16 448.8,-28.91 455.78,-29.36"/>
</a>
</g>
</g>
<!-- Node18&#45;&gt;Node12 -->
<g id="edge31_Node000018_Node000012" class="edge">
<title>Node18&#45;&gt;Node12</title>
<g id="a_edge31_Node000018_Node000012"><a xlink:title=" ">
<path fill="none" stroke="#63b8ff" d="M438.08,-109.75C430.73,-102.11 419.87,-90.82 410.96,-81.56"/>
<polygon fill="#63b8ff" stroke="#63b8ff" points="413.22,-78.87 403.76,-74.09 408.18,-83.72 413.22,-78.87"/>
</a>
</g>
</g>
<!-- Node19&#45;&gt;Node5 -->
<g id="edge35_Node000019_Node000005" class="edge">
<title>Node19&#45;&gt;Node5</title>
<g id="a_edge35_Node000019_Node000005"><a xlink:title=" ">
<path fill="none" stroke="#63b8ff" d="M750.09,-109.86C742.45,-95.86 725.36,-68.42 702.5,-55 666.22,-33.71 544.8,-19.36 485.98,-13.49"/>
<polygon fill="#63b8ff" stroke="#63b8ff" points="486.05,-9.98 475.76,-12.49 485.37,-16.95 486.05,-9.98"/>
</a>
</g>
</g>
<!-- Node19&#45;&gt;Node6 -->
<g id="edge37_Node000019_Node000006" class="edge">
<title>Node19&#45;&gt;Node6</title>
<g id="a_edge37_Node000019_Node000006"><a xlink:title=" ">
<path fill="none" stroke="#63b8ff" d="M801.25,-109.98C861.25,-99.06 963.66,-80.41 1014.7,-71.11"/>
<polygon fill="#63b8ff" stroke="#63b8ff" points="1015.57,-74.51 1024.78,-69.27 1014.31,-67.62 1015.57,-74.51"/>
</a>
</g>
</g>
<!-- Node19&#45;&gt;Node8 -->
<g id="edge38_Node000019_Node000008" class="edge">
<title>Node19&#45;&gt;Node8</title>
<g id="a_edge38_Node000019_Node000008"><a xlink:title=" ">
<path fill="none" stroke="#63b8ff" d="M763.09,-109.75C770.66,-102.03 781.88,-90.6 791.01,-81.28"/>
<polygon fill="#63b8ff" stroke="#63b8ff" points="793.57,-83.68 798.07,-74.09 788.57,-78.78 793.57,-83.68"/>
</a>
</g>
</g>
<!-- Node19&#45;&gt;Node9 -->
<g id="edge33_Node000019_Node000009" class="edge">
<title>Node19&#45;&gt;Node9</title>
<g id="a_edge33_Node000019_Node000009"><a xlink:title=" ">
<path fill="none" stroke="#63b8ff" d="M772.49,-109.98C790.43,-101.5 818.22,-88.35 838.93,-78.54"/>
<polygon fill="#63b8ff" stroke="#63b8ff" points="840.64,-81.61 848.18,-74.17 837.64,-75.28 840.64,-81.61"/>
</a>
</g>
</g>
<!-- Node19&#45;&gt;Node10 -->
<g id="edge34_Node000019_Node000010" class="edge">
<title>Node19&#45;&gt;Node10</title>
<g id="a_edge34_Node000019_Node000010"><a xlink:title=" ">
<path fill="none" stroke="#63b8ff" d="M756.12,-109.94C758.89,-96.99 765.57,-72.11 778.5,-55 787.84,-42.63 801.54,-32.11 813.49,-24.41"/>
<polygon fill="#63b8ff" stroke="#63b8ff" points="815.49,-27.29 822.19,-19.09 811.83,-21.32 815.49,-27.29"/>
</a>
</g>
</g>
<!-- Node19&#45;&gt;Node14 -->
<g id="edge39_Node000019_Node000014" class="edge">
<title>Node19&#45;&gt;Node14</title>
<g id="a_edge39_Node000019_Node000014"><a xlink:title=" ">
<path fill="none" stroke="#63b8ff" d="M720.92,-109.98C685.15,-100.91 628.38,-86.52 589.16,-76.57"/>
<polygon fill="#63b8ff" stroke="#63b8ff" points="589.9,-73.15 579.34,-74.08 588.18,-79.93 589.9,-73.15"/>
</a>
</g>
</g>
<!-- Node19&#45;&gt;Node17 -->
<g id="edge36_Node000019_Node000017" class="edge">
<title>Node19&#45;&gt;Node17</title>
<g id="a_edge36_Node000019_Node000017"><a xlink:title=" ">
<path fill="none" stroke="#63b8ff" d="M739.4,-109.98C724.68,-101.69 702.08,-88.94 684.83,-79.22"/>
<polygon fill="#63b8ff" stroke="#63b8ff" points="686.31,-76.03 675.88,-74.17 682.87,-82.13 686.31,-76.03"/>
</a>
</g>
</g>
</g>
</svg>

<g id="navigator" transform="translate(0 0)" fill="#404254">
  <rect fill="#f2f5e9" fill-opacity="0.5" stroke="#606060" stroke-width=".5" x="0" y="0" width="60" height="60"/>
  <use id="zoomplus" xlink:href="#zoomPlus" x="17" y="9" onmousedown="handleZoom(evt,'in')"/>
  <use id="zoomminus" xlink:href="#zoomMin" x="42" y="9" onmousedown="handleZoom(evt,'out')"/>
  <use id="reset" xlink:href="#resetDef" x="30" y="36" onmousedown="handleReset()"/>
   <use id="arrowup" xlink:href="#arrowUp" x="0" y="0" onmousedown="handlePan(0,-1)"/>
  <use id="arrowright" xlink:href="#arrowRight" x="0" y="0" onmousedown="handlePan(1,0)"/>
  <use id="arrowdown" xlink:href="#arrowDown" x="0" y="0" onmousedown="handlePan(0,1)"/>
  <use id="arrowleft" xlink:href="#arrowLeft" x="0" y="0" onmousedown="handlePan(-1,0)"/>
</g>
<svg viewBox="0 0 15 15" width="100%" height="30px" preserveAspectRatio="xMaxYMin meet">
 <g id="arrow_out" transform="scale(0.3 0.3)">
  <a xlink:href="channel_8h__incl_org.svg" target="_base">
   <rect id="button" ry="5" rx="5" y="6" x="6" height="38" width="38"
        fill="#f2f5e9" fill-opacity="0.5" stroke="#606060" stroke-width="1.0"/>
   <path id="arrow"
     d="M 11.500037,31.436501 C 11.940474,20.09759 22.043105,11.32322 32.158766,21.979434 L 37.068811,17.246167 C 37.068811,17.246167 37.088388,32 37.088388,32 L 22.160133,31.978069 C 22.160133,31.978069 26.997745,27.140456 26.997745,27.140456 C 18.528582,18.264221 13.291696,25.230495 11.500037,31.436501 z"
     style="fill:#404040;"/>
  </a>
 </g>
</svg>

<style type='text/css'>
<![CDATA[
[data-mouse-over-selected='false'] { opacity: 0.7; }
[data-mouse-over-selected='true']  { opacity: 1.0; }
]]>
</style>
<script type="application/ecmascript"><![CDATA[
document.addEventListener('DOMContentLoaded', (event) => {
  highlightEdges();
  highlightAdjacentNodes();
});
]]></script>
</svg>
