<?xml version="1.0" encoding="UTF-8" standalone="no"?>
<!DOCTYPE svg PUBLIC "-//W3C//DTD SVG 1.1//EN"
 "http://www.w3.org/Graphics/SVG/1.1/DTD/svg11.dtd">
<!-- Generated by graphviz version 2.43.0 (0)
 -->
<!-- Title: include/Channel/channel.h Pages: 1 -->
<svg width="1068pt" height="599pt"
 viewBox="0.00 0.00 1067.69 599.00" xmlns="http://www.w3.org/2000/svg" xmlns:xlink="http://www.w3.org/1999/xlink">
<g id="graph0" class="graph" transform="scale(1 1) rotate(0) translate(4 595)">
<title>include/Channel/channel.h</title>
<!-- Node1 -->
<g id="Node000001" class="node">
<title>Node1</title>
<g id="a_Node000001"><a xlink:title=" ">
<polygon fill="#999999" stroke="#666666" points="727.69,-591 582.69,-591 582.69,-572 727.69,-572 727.69,-591"/>
<text text-anchor="middle" x="655.19" y="-579" font-family="Helvetica,sans-Serif" font-size="10.00">include/Channel/channel.h</text>
</a>
</g>
</g>
<!-- Node2 -->
<g id="Node000002" class="node">
<title>Node2</title>
<g id="a_Node000002"><a xlink:href="driverModel_8h.html" target="_top" xlink:title=" ">
<polygon fill="white" stroke="#666666" points="586.69,-536 425.69,-536 425.69,-517 586.69,-517 586.69,-536"/>
<text text-anchor="middle" x="506.19" y="-524" font-family="Helvetica,sans-Serif" font-size="10.00">include/Drivers/driverModel.h</text>
</a>
</g>
</g>
<!-- Node1&#45;&gt;Node2 -->
<g id="edge1_Node000001_Node000002" class="edge">
<title>Node1&#45;&gt;Node2</title>
<g id="a_edge1_Node000001_Node000002"><a xlink:title=" ">
<path fill="none" stroke="#63b8ff" d="M621.6,-568.55C593.93,-558.71 555.35,-544.98 530.57,-536.17"/>
<polygon fill="#63b8ff" stroke="#63b8ff" points="620.66,-571.93 631.25,-571.98 623.01,-565.34 620.66,-571.93"/>
</a>
</g>
</g>
<!-- Node5 -->
<g id="Node000005" class="node">
<title>Node5</title>
<g id="a_Node000005"><a xlink:href="mlvp_8h.html" target="_top" xlink:title=" ">
<polygon fill="white" stroke="#666666" points="455.69,-74 366.69,-74 366.69,-55 455.69,-55 455.69,-74"/>
<text text-anchor="middle" x="411.19" y="-62" font-family="Helvetica,sans-Serif" font-size="10.00">include/mlvp.h</text>
</a>
</g>
</g>
<!-- Node1&#45;&gt;Node5 -->
<g id="edge40_Node000001_Node000005" class="edge">
<title>Node1&#45;&gt;Node5</title>
<g id="a_edge40_Node000001_Node000005"><a xlink:title=" ">
<path fill="none" stroke="#63b8ff" d="M737.97,-576.54C807.71,-568.21 896.19,-543.62 896.19,-472.5 896.19,-472.5 896.19,-472.5 896.19,-173.5 896.19,-83.79 576.02,-68.56 455.95,-66"/>
<polygon fill="#63b8ff" stroke="#63b8ff" points="737.39,-573.08 727.83,-577.65 738.15,-580.04 737.39,-573.08"/>
</a>
</g>
</g>
<!-- Node9 -->
<g id="Node000009" class="node">
<title>Node9</title>
<g id="a_Node000009"><a xlink:href="dutDriver_8h.html" target="_top" xlink:title=" ">
<polygon fill="white" stroke="#666666" points="386.69,-294 239.69,-294 239.69,-275 386.69,-275 386.69,-294"/>
<text text-anchor="middle" x="313.19" y="-282" font-family="Helvetica,sans-Serif" font-size="10.00">include/Drivers/dutDriver.h</text>
</a>
</g>
</g>
<!-- Node1&#45;&gt;Node9 -->
<g id="edge37_Node000001_Node000009" class="edge">
<title>Node1&#45;&gt;Node9</title>
<g id="a_edge37_Node000001_Node000009"><a xlink:title=" ">
<path fill="none" stroke="#63b8ff" d="M572.31,-575.03C399.21,-562.48 15.19,-528.36 15.19,-472.5 15.19,-472.5 15.19,-472.5 15.19,-410 15.19,-313 151.28,-290.24 239.53,-285.69"/>
<polygon fill="#63b8ff" stroke="#63b8ff" points="572.18,-578.53 582.4,-575.75 572.68,-571.54 572.18,-578.53"/>
</a>
</g>
</g>
<!-- Node17 -->
<g id="Node000017" class="node">
<title>Node17</title>
<g id="a_Node000017"><a xlink:href="ref_8h.html" target="_top" xlink:title=" ">
<polygon fill="white" stroke="#666666" points="867.69,-481 748.69,-481 748.69,-462 867.69,-462 867.69,-481"/>
<text text-anchor="middle" x="808.19" y="-469" font-family="Helvetica,sans-Serif" font-size="10.00">include/RefPack/ref.h</text>
</a>
</g>
</g>
<!-- Node1&#45;&gt;Node17 -->
<g id="edge38_Node000001_Node000017" class="edge">
<title>Node1&#45;&gt;Node17</title>
<g id="a_edge38_Node000001_Node000017"><a xlink:title=" ">
<path fill="none" stroke="#63b8ff" d="M675.73,-566.01C708,-543.22 769.63,-499.72 795.87,-481.2"/>
<polygon fill="#63b8ff" stroke="#63b8ff" points="673.61,-563.22 667.46,-571.84 677.64,-568.94 673.61,-563.22"/>
</a>
</g>
</g>
<!-- Node18 -->
<g id="Node000018" class="node">
<title>Node18</title>
<g id="a_Node000018"><a xlink:href="simulator_8h.html" target="_top" xlink:title=" ">
<polygon fill="white" stroke="#666666" points="203.19,-481 43.19,-481 43.19,-462 203.19,-462 203.19,-481"/>
<text text-anchor="middle" x="123.19" y="-469" font-family="Helvetica,sans-Serif" font-size="10.00">include/Simulator/simulator.h</text>
</a>
</g>
</g>
<!-- Node1&#45;&gt;Node18 -->
<g id="edge39_Node000001_Node000018" class="edge">
<title>Node1&#45;&gt;Node18</title>
<g id="a_edge39_Node000001_Node000018"><a xlink:title=" ">
<path fill="none" stroke="#63b8ff" d="M597.06,-570.17C548.6,-561.44 477.8,-548.41 416.19,-536 324.35,-517.5 216.81,-493.62 161.05,-481.08"/>
<polygon fill="#63b8ff" stroke="#63b8ff" points="596.59,-573.64 607.05,-571.96 597.82,-566.75 596.59,-573.64"/>
</a>
</g>
</g>
<!-- Node21 -->
<g id="Node000021" class="node">
<title>Node21</title>
<g id="a_Node000021"><a xlink:href="channel_8cpp.html" target="_top" xlink:title=" ">
<polygon fill="white" stroke="#666666" points="1059.69,-536 924.69,-536 924.69,-517 1059.69,-517 1059.69,-536"/>
<text text-anchor="middle" x="992.19" y="-524" font-family="Helvetica,sans-Serif" font-size="10.00">src/Channel/channel.cpp</text>
</a>
</g>
</g>
<!-- Node1&#45;&gt;Node21 -->
<g id="edge41_Node000001_Node000021" class="edge">
<title>Node1&#45;&gt;Node21</title>
<g id="a_edge41_Node000001_Node000021"><a xlink:title=" ">
<path fill="none" stroke="#63b8ff" d="M719.6,-570.37C782.88,-560.42 878.36,-545.4 937.9,-536.04"/>
<polygon fill="#63b8ff" stroke="#63b8ff" points="718.67,-566.97 709.34,-571.98 719.76,-573.89 718.67,-566.97"/>
</a>
</g>
</g>
<!-- Node3 -->
<g id="Node000003" class="node">
<title>Node3</title>
<g id="a_Node000003"><a xlink:href="driver_8h.html" target="_top" xlink:title=" ">
<polygon fill="white" stroke="#666666" points="315.19,-184 185.19,-184 185.19,-165 315.19,-165 315.19,-184"/>
<text text-anchor="middle" x="250.19" y="-172" font-family="Helvetica,sans-Serif" font-size="10.00">include/Drivers/driver.h</text>
</a>
</g>
</g>
<!-- Node2&#45;&gt;Node3 -->
<g id="edge2_Node000002_Node000003" class="edge">
<title>Node2&#45;&gt;Node3</title>
<g id="a_edge2_Node000002_Node000003"><a xlink:title=" ">
<path fill="none" stroke="#63b8ff" d="M415.17,-518.3C352.49,-511.76 276.04,-500.13 250.19,-481 216.17,-455.81 237.28,-425.78 207.19,-396 181.48,-370.55 153.3,-390.72 134.19,-360 110.11,-321.27 133.78,-266.3 172.19,-220 186.23,-203.08 208.47,-191.3 225.61,-184.13"/>
<polygon fill="#63b8ff" stroke="#63b8ff" points="415.19,-521.82 425.5,-519.35 415.9,-514.86 415.19,-521.82"/>
</a>
</g>
</g>
<!-- Node2&#45;&gt;Node5 -->
<g id="edge35_Node000002_Node000005" class="edge">
<title>Node2&#45;&gt;Node5</title>
<g id="a_edge35_Node000002_Node000005"><a xlink:title=" ">
<path fill="none" stroke="#63b8ff" d="M540.98,-513.34C562.17,-505.34 589.44,-493.97 612.19,-481 647.79,-460.7 657.81,-455.56 686.19,-426 750.65,-358.87 761.19,-323.56 761.19,-230.5 761.19,-230.5 761.19,-230.5 761.19,-173.5 761.19,-110.31 550.23,-80.14 455.88,-69.81"/>
<polygon fill="#63b8ff" stroke="#63b8ff" points="539.58,-510.12 531.41,-516.88 542.01,-516.69 539.58,-510.12"/>
</a>
</g>
</g>
<!-- Node2&#45;&gt;Node9 -->
<g id="edge9_Node000002_Node000009" class="edge">
<title>Node2&#45;&gt;Node9</title>
<g id="a_edge9_Node000002_Node000009"><a xlink:title=" ">
<path fill="none" stroke="#63b8ff" d="M498.84,-507.44C487.8,-481.44 465.32,-432.57 438.19,-396 413.29,-362.43 402.72,-357.44 371.19,-330 356.07,-316.84 337.52,-302.97 325.53,-294.28"/>
<polygon fill="#63b8ff" stroke="#63b8ff" points="495.66,-508.9 502.74,-516.79 502.12,-506.21 495.66,-508.9"/>
</a>
</g>
</g>
<!-- Node10 -->
<g id="Node000010" class="node">
<title>Node10</title>
<g id="a_Node000010"><a xlink:href="refDriver_8h.html" target="_top" xlink:title=" ">
<polygon fill="white" stroke="#666666" points="520.69,-239 375.69,-239 375.69,-220 520.69,-220 520.69,-239"/>
<text text-anchor="middle" x="448.19" y="-227" font-family="Helvetica,sans-Serif" font-size="10.00">include/Drivers/refDriver.h</text>
</a>
</g>
</g>
<!-- Node2&#45;&gt;Node10 -->
<g id="edge17_Node000002_Node000010" class="edge">
<title>Node2&#45;&gt;Node10</title>
<g id="a_edge17_Node000002_Node000010"><a xlink:title=" ">
<path fill="none" stroke="#63b8ff" d="M531.62,-512.06C600.15,-474.18 778.66,-363.53 704.19,-275 681.14,-247.6 588.24,-237.07 520.98,-233.02"/>
<polygon fill="#63b8ff" stroke="#63b8ff" points="529.82,-509.06 522.71,-516.92 533.17,-515.2 529.82,-509.06"/>
</a>
</g>
</g>
<!-- Node13 -->
<g id="Node000013" class="node">
<title>Node13</title>
<g id="a_Node000013"><a xlink:href="simulatorDriver_8h.html" target="_top" xlink:title=" ">
<polygon fill="white" stroke="#666666" points="429.19,-426 289.19,-426 289.19,-396 429.19,-396 429.19,-426"/>
<text text-anchor="start" x="297.19" y="-414" font-family="Helvetica,sans-Serif" font-size="10.00">include/Drivers/simulator</text>
<text text-anchor="middle" x="359.19" y="-403" font-family="Helvetica,sans-Serif" font-size="10.00">Driver.h</text>
</a>
</g>
</g>
<!-- Node2&#45;&gt;Node13 -->
<g id="edge18_Node000002_Node000013" class="edge">
<title>Node2&#45;&gt;Node13</title>
<g id="a_edge18_Node000002_Node000013"><a xlink:title=" ">
<path fill="none" stroke="#63b8ff" d="M487.18,-510.82C458.77,-488.88 405.59,-447.82 377.56,-426.18"/>
<polygon fill="#63b8ff" stroke="#63b8ff" points="485.09,-513.63 495.14,-516.97 489.37,-508.09 485.09,-513.63"/>
</a>
</g>
</g>
<!-- Node14 -->
<g id="Node000014" class="node">
<title>Node14</title>
<g id="a_Node000014"><a xlink:href="transDriverModel_8h.html" target="_top" xlink:title=" ">
<polygon fill="white" stroke="#666666" points="629.19,-360 481.19,-360 481.19,-330 629.19,-330 629.19,-360"/>
<text text-anchor="start" x="489.19" y="-348" font-family="Helvetica,sans-Serif" font-size="10.00">include/Drivers/transDriver</text>
<text text-anchor="middle" x="555.19" y="-337" font-family="Helvetica,sans-Serif" font-size="10.00">Model.h</text>
</a>
</g>
</g>
<!-- Node2&#45;&gt;Node14 -->
<g id="edge29_Node000002_Node000014" class="edge">
<title>Node2&#45;&gt;Node14</title>
<g id="a_edge29_Node000002_Node000014"><a xlink:title=" ">
<path fill="none" stroke="#63b8ff" d="M511.19,-507.19C520.98,-471.33 542.5,-392.51 551.31,-360.22"/>
<polygon fill="#63b8ff" stroke="#63b8ff" points="507.81,-506.27 508.56,-516.84 514.57,-508.12 507.81,-506.27"/>
</a>
</g>
</g>
<!-- Node2&#45;&gt;Node17 -->
<g id="edge30_Node000002_Node000017" class="edge">
<title>Node2&#45;&gt;Node17</title>
<g id="a_edge30_Node000002_Node000017"><a xlink:title=" ">
<path fill="none" stroke="#63b8ff" d="M564.61,-515.25C621.32,-505.3 706.4,-490.36 759.54,-481.04"/>
<polygon fill="#63b8ff" stroke="#63b8ff" points="563.96,-511.81 554.72,-516.98 565.17,-518.7 563.96,-511.81"/>
</a>
</g>
</g>
<!-- Node2&#45;&gt;Node18 -->
<g id="edge32_Node000002_Node000018" class="edge">
<title>Node2&#45;&gt;Node18</title>
<g id="a_edge32_Node000002_Node000018"><a xlink:title=" ">
<path fill="none" stroke="#63b8ff" d="M434.33,-515.56C362.43,-505.61 252.98,-490.46 184.89,-481.04"/>
<polygon fill="#63b8ff" stroke="#63b8ff" points="434.27,-519.08 444.66,-516.98 435.23,-512.15 434.27,-519.08"/>
</a>
</g>
</g>
<!-- Node20 -->
<g id="Node000020" class="node">
<title>Node20</title>
<g id="a_Node000020"><a xlink:href="driverModel_8cpp.html" target="_top" xlink:title=" ">
<polygon fill="white" stroke="#666666" points="410.69,-481 259.69,-481 259.69,-462 410.69,-462 410.69,-481"/>
<text text-anchor="middle" x="335.19" y="-469" font-family="Helvetica,sans-Serif" font-size="10.00">src/Drivers/driverModel.cpp</text>
</a>
</g>
</g>
<!-- Node2&#45;&gt;Node20 -->
<g id="edge36_Node000002_Node000020" class="edge">
<title>Node2&#45;&gt;Node20</title>
<g id="a_edge36_Node000002_Node000020"><a xlink:title=" ">
<path fill="none" stroke="#63b8ff" d="M468.86,-513.93C436.92,-504.03 391.67,-490.01 362.88,-481.08"/>
<polygon fill="#63b8ff" stroke="#63b8ff" points="468.13,-517.37 478.72,-516.98 470.2,-510.68 468.13,-517.37"/>
</a>
</g>
</g>
<!-- Node4 -->
<g id="Node000004" class="node">
<title>Node4</title>
<g id="a_Node000004"><a xlink:href="spreader_8h.html" target="_top" xlink:title=" ">
<polygon fill="white" stroke="#666666" points="169.19,-129 17.19,-129 17.19,-110 169.19,-110 169.19,-129"/>
<text text-anchor="middle" x="93.19" y="-117" font-family="Helvetica,sans-Serif" font-size="10.00">include/Spreader/spreader.h</text>
</a>
</g>
</g>
<!-- Node3&#45;&gt;Node4 -->
<g id="edge3_Node000003_Node000004" class="edge">
<title>Node3&#45;&gt;Node4</title>
<g id="a_edge3_Node000003_Node000004"><a xlink:title=" ">
<path fill="none" stroke="#63b8ff" d="M215.15,-161.67C185.87,-151.79 144.82,-137.93 118.62,-129.08"/>
<polygon fill="#63b8ff" stroke="#63b8ff" points="214.37,-165.1 224.97,-164.98 216.61,-158.47 214.37,-165.1"/>
</a>
</g>
</g>
<!-- Node3&#45;&gt;Node5 -->
<g id="edge7_Node000003_Node000005" class="edge">
<title>Node3&#45;&gt;Node5</title>
<g id="a_edge7_Node000003_Node000005"><a xlink:title=" ">
<path fill="none" stroke="#63b8ff" d="M246.07,-154.67C244.19,-140.82 244.23,-122.35 254.19,-110 268.29,-92.52 325.11,-79.63 366.35,-72.34"/>
<polygon fill="#63b8ff" stroke="#63b8ff" points="242.64,-155.34 247.84,-164.57 249.53,-154.11 242.64,-155.34"/>
</a>
</g>
</g>
<!-- Node8 -->
<g id="Node000008" class="node">
<title>Node8</title>
<g id="a_Node000008"><a xlink:href="driver_8cpp.html" target="_top" xlink:title=" ">
<polygon fill="white" stroke="#666666" points="383.19,-129 263.19,-129 263.19,-110 383.19,-110 383.19,-129"/>
<text text-anchor="middle" x="323.19" y="-117" font-family="Helvetica,sans-Serif" font-size="10.00">src/Drivers/driver.cpp</text>
</a>
</g>
</g>
<!-- Node3&#45;&gt;Node8 -->
<g id="edge8_Node000003_Node000008" class="edge">
<title>Node3&#45;&gt;Node8</title>
<g id="a_edge8_Node000003_Node000008"><a xlink:title=" ">
<path fill="none" stroke="#63b8ff" d="M270.34,-158.88C283.47,-149.34 300.18,-137.21 311.25,-129.17"/>
<polygon fill="#63b8ff" stroke="#63b8ff" points="267.96,-156.28 261.92,-164.98 272.07,-161.94 267.96,-156.28"/>
</a>
</g>
</g>
<!-- Node4&#45;&gt;Node5 -->
<g id="edge4_Node000004_Node000005" class="edge">
<title>Node4&#45;&gt;Node5</title>
<g id="a_edge4_Node000004_Node000005"><a xlink:title=" ">
<path fill="none" stroke="#63b8ff" d="M154.35,-108.31C216.5,-97.95 311.27,-82.15 366.65,-72.92"/>
<polygon fill="#63b8ff" stroke="#63b8ff" points="153.57,-104.89 144.29,-109.98 154.73,-111.79 153.57,-104.89"/>
</a>
</g>
</g>
<!-- Node7 -->
<g id="Node000007" class="node">
<title>Node7</title>
<g id="a_Node000007"><a xlink:href="spreader_8cpp.html" target="_top" xlink:title=" ">
<polygon fill="white" stroke="#666666" points="164.69,-74 21.69,-74 21.69,-55 164.69,-55 164.69,-74"/>
<text text-anchor="middle" x="93.19" y="-62" font-family="Helvetica,sans-Serif" font-size="10.00">src/Spreader/spreader.cpp</text>
</a>
</g>
</g>
<!-- Node4&#45;&gt;Node7 -->
<g id="edge6_Node000004_Node000007" class="edge">
<title>Node4&#45;&gt;Node7</title>
<g id="a_edge6_Node000004_Node000007"><a xlink:title=" ">
<path fill="none" stroke="#63b8ff" d="M93.19,-99.66C93.19,-90.93 93.19,-80.99 93.19,-74.09"/>
<polygon fill="#63b8ff" stroke="#63b8ff" points="89.69,-99.75 93.19,-109.75 96.69,-99.75 89.69,-99.75"/>
</a>
</g>
</g>
<!-- Node6 -->
<g id="Node000006" class="node">
<title>Node6</title>
<g id="a_Node000006"><a xlink:href="main_8cpp.html" target="_top" xlink:title=" ">
<polygon fill="white" stroke="#666666" points="450.69,-19 371.69,-19 371.69,0 450.69,0 450.69,-19"/>
<text text-anchor="middle" x="411.19" y="-7" font-family="Helvetica,sans-Serif" font-size="10.00">src/main.cpp</text>
</a>
</g>
</g>
<!-- Node5&#45;&gt;Node6 -->
<g id="edge5_Node000005_Node000006" class="edge">
<title>Node5&#45;&gt;Node6</title>
<g id="a_edge5_Node000005_Node000006"><a xlink:title=" ">
<path fill="none" stroke="#63b8ff" d="M411.19,-44.66C411.19,-35.93 411.19,-25.99 411.19,-19.09"/>
<polygon fill="#63b8ff" stroke="#63b8ff" points="407.69,-44.75 411.19,-54.75 414.69,-44.75 407.69,-44.75"/>
</a>
</g>
</g>
<!-- Node9&#45;&gt;Node3 -->
<g id="edge10_Node000009_Node000003" class="edge">
<title>Node9&#45;&gt;Node3</title>
<g id="a_edge10_Node000009_Node000003"><a xlink:title=" ">
<path fill="none" stroke="#63b8ff" d="M323.63,-265.6C329.92,-252.27 335.29,-234.03 327.19,-220 316.93,-202.21 296.55,-190.9 279.33,-184.13"/>
<polygon fill="#63b8ff" stroke="#63b8ff" points="320.41,-264.21 318.85,-274.69 326.6,-267.47 320.41,-264.21"/>
</a>
</g>
</g>
<!-- Node9&#45;&gt;Node5 -->
<g id="edge15_Node000009_Node000005" class="edge">
<title>Node9&#45;&gt;Node5</title>
<g id="a_edge15_Node000009_Node000005"><a xlink:title=" ">
<path fill="none" stroke="#63b8ff" d="M229.57,-275.17C207.41,-268.7 185.88,-257.67 172.19,-239 164.41,-228.39 159.56,-197.1 176.19,-165 211.86,-96.16 308.58,-74.94 366.21,-68.4"/>
<polygon fill="#63b8ff" stroke="#63b8ff" points="228.86,-278.6 239.42,-277.75 230.63,-271.83 228.86,-278.6"/>
</a>
</g>
</g>
<!-- Node9&#45;&gt;Node10 -->
<g id="edge11_Node000009_Node000010" class="edge">
<title>Node9&#45;&gt;Node10</title>
<g id="a_edge11_Node000009_Node000010"><a xlink:title=" ">
<path fill="none" stroke="#63b8ff" d="M344.29,-271.29C369.31,-261.47 403.85,-247.91 426.11,-239.17"/>
<polygon fill="#63b8ff" stroke="#63b8ff" points="342.91,-268.07 334.88,-274.98 345.47,-274.59 342.91,-268.07"/>
</a>
</g>
</g>
<!-- Node12 -->
<g id="Node000012" class="node">
<title>Node12</title>
<g id="a_Node000012"><a xlink:href="dutDriver_8cpp.html" target="_top" xlink:title=" ">
<polygon fill="white" stroke="#666666" points="318.69,-239 181.69,-239 181.69,-220 318.69,-220 318.69,-239"/>
<text text-anchor="middle" x="250.19" y="-227" font-family="Helvetica,sans-Serif" font-size="10.00">src/Drivers/dutDriver.cpp</text>
</a>
</g>
</g>
<!-- Node9&#45;&gt;Node12 -->
<g id="edge16_Node000009_Node000012" class="edge">
<title>Node9&#45;&gt;Node12</title>
<g id="a_edge16_Node000009_Node000012"><a xlink:title=" ">
<path fill="none" stroke="#63b8ff" d="M295.15,-268.32C283.92,-258.87 269.87,-247.06 260.5,-239.17"/>
<polygon fill="#63b8ff" stroke="#63b8ff" points="293.17,-271.23 303.07,-274.98 297.67,-265.87 293.17,-271.23"/>
</a>
</g>
</g>
<!-- Node10&#45;&gt;Node3 -->
<g id="edge12_Node000010_Node000003" class="edge">
<title>Node10&#45;&gt;Node3</title>
<g id="a_edge12_Node000010_Node000003"><a xlink:title=" ">
<path fill="none" stroke="#63b8ff" d="M406.39,-217.31C369.34,-207.39 316.03,-193.12 282.26,-184.08"/>
<polygon fill="#63b8ff" stroke="#63b8ff" points="405.82,-220.78 416.38,-219.98 407.63,-214.02 405.82,-220.78"/>
</a>
</g>
</g>
<!-- Node10&#45;&gt;Node5 -->
<g id="edge13_Node000010_Node000005" class="edge">
<title>Node10&#45;&gt;Node5</title>
<g id="a_edge13_Node000010_Node000005"><a xlink:title=" ">
<path fill="none" stroke="#63b8ff" d="M413.23,-215.82C399.09,-208.76 384.24,-198.42 376.19,-184 372.08,-176.62 374.44,-173.26 376.19,-165 379.83,-147.87 386.12,-145.42 392.19,-129 399.3,-109.79 405.71,-86.59 408.96,-74.24"/>
<polygon fill="#63b8ff" stroke="#63b8ff" points="411.79,-219.01 422.34,-219.99 414.71,-212.64 411.79,-219.01"/>
</a>
</g>
</g>
<!-- Node11 -->
<g id="Node000011" class="node">
<title>Node11</title>
<g id="a_Node000011"><a xlink:href="refDriver_8cpp.html" target="_top" xlink:title=" ">
<polygon fill="white" stroke="#666666" points="520.69,-184 385.69,-184 385.69,-165 520.69,-165 520.69,-184"/>
<text text-anchor="middle" x="453.19" y="-172" font-family="Helvetica,sans-Serif" font-size="10.00">src/Drivers/refDriver.cpp</text>
</a>
</g>
</g>
<!-- Node10&#45;&gt;Node11 -->
<g id="edge14_Node000010_Node000011" class="edge">
<title>Node10&#45;&gt;Node11</title>
<g id="a_edge14_Node000010_Node000011"><a xlink:title=" ">
<path fill="none" stroke="#63b8ff" d="M449.97,-209.66C450.79,-200.93 451.73,-190.99 452.38,-184.09"/>
<polygon fill="#63b8ff" stroke="#63b8ff" points="446.47,-209.46 449.02,-219.75 453.44,-210.12 446.47,-209.46"/>
</a>
</g>
</g>
<!-- Node13&#45;&gt;Node4 -->
<g id="edge26_Node000013_Node000004" class="edge">
<title>Node13&#45;&gt;Node4</title>
<g id="a_edge26_Node000013_Node000004"><a xlink:title=" ">
<path fill="none" stroke="#63b8ff" d="M278.89,-405.65C233.47,-400.03 177.31,-387.53 134.19,-360 99.05,-337.57 77.19,-327.19 77.19,-285.5 77.19,-285.5 77.19,-285.5 77.19,-228.5 77.19,-191.16 86.67,-147.33 91.04,-129.12"/>
<polygon fill="#63b8ff" stroke="#63b8ff" points="278.67,-409.15 289.01,-406.81 279.47,-402.19 278.67,-409.15"/>
</a>
</g>
</g>
<!-- Node13&#45;&gt;Node5 -->
<g id="edge27_Node000013_Node000005" class="edge">
<title>Node13&#45;&gt;Node5</title>
<g id="a_edge27_Node000013_Node000005"><a xlink:title=" ">
<path fill="none" stroke="#63b8ff" d="M352.76,-386.38C346.88,-368.77 336.56,-345.21 320.19,-330 288.64,-300.67 267.96,-314.73 230.19,-294 156.77,-253.71 143.96,-234.56 77.19,-184 41.35,-156.85 -21.81,-143.5 8.19,-110 31.79,-83.65 266.77,-71.25 366.65,-67.13"/>
<polygon fill="#63b8ff" stroke="#63b8ff" points="349.43,-387.44 355.73,-395.96 356.12,-385.38 349.43,-387.44"/>
</a>
</g>
</g>
<!-- Node13&#45;&gt;Node9 -->
<g id="edge19_Node000013_Node000009" class="edge">
<title>Node13&#45;&gt;Node9</title>
<g id="a_edge19_Node000013_Node000009"><a xlink:title=" ">
<path fill="none" stroke="#63b8ff" d="M361.37,-385.41C361.87,-369.07 360.66,-347.48 353.19,-330 346.91,-315.29 333.71,-302.17 324.19,-294.06"/>
<polygon fill="#63b8ff" stroke="#63b8ff" points="357.86,-385.59 360.81,-395.77 364.85,-385.97 357.86,-385.59"/>
</a>
</g>
</g>
<!-- Node13&#45;&gt;Node10 -->
<g id="edge20_Node000013_Node000010" class="edge">
<title>Node13&#45;&gt;Node10</title>
<g id="a_edge20_Node000013_Node000010"><a xlink:title=" ">
<path fill="none" stroke="#63b8ff" d="M370.67,-386.86C390.6,-346.65 430.76,-265.67 443.91,-239.13"/>
<polygon fill="#63b8ff" stroke="#63b8ff" points="367.48,-385.4 366.18,-395.91 373.76,-388.51 367.48,-385.4"/>
</a>
</g>
</g>
<!-- Node13&#45;&gt;Node14 -->
<g id="edge21_Node000013_Node000014" class="edge">
<title>Node13&#45;&gt;Node14</title>
<g id="a_edge21_Node000013_Node000014"><a xlink:title=" ">
<path fill="none" stroke="#63b8ff" d="M412.1,-392.72C443.51,-382.47 482.82,-369.63 512.28,-360.01"/>
<polygon fill="#63b8ff" stroke="#63b8ff" points="410.63,-389.52 402.21,-395.95 412.8,-396.18 410.63,-389.52"/>
</a>
</g>
</g>
<!-- Node16 -->
<g id="Node000016" class="node">
<title>Node16</title>
<g id="a_Node000016"><a xlink:href="simulatorDriver_8cpp.html" target="_top" xlink:title=" ">
<polygon fill="white" stroke="#666666" points="311.19,-354.5 143.19,-354.5 143.19,-335.5 311.19,-335.5 311.19,-354.5"/>
<text text-anchor="middle" x="227.19" y="-342.5" font-family="Helvetica,sans-Serif" font-size="10.00">src/Drivers/simulatorDriver.cpp</text>
</a>
</g>
</g>
<!-- Node13&#45;&gt;Node16 -->
<g id="edge28_Node000013_Node000016" class="edge">
<title>Node13&#45;&gt;Node16</title>
<g id="a_edge28_Node000013_Node000016"><a xlink:title=" ">
<path fill="none" stroke="#63b8ff" d="M320.95,-391.46C295.82,-379.27 264.11,-363.9 244.76,-354.52"/>
<polygon fill="#63b8ff" stroke="#63b8ff" points="319.7,-394.74 330.23,-395.95 322.75,-388.44 319.7,-394.74"/>
</a>
</g>
</g>
<!-- Node14&#45;&gt;Node5 -->
<g id="edge24_Node000014_Node000005" class="edge">
<title>Node14&#45;&gt;Node5</title>
<g id="a_edge24_Node000014_Node000005"><a xlink:title=" ">
<path fill="none" stroke="#63b8ff" d="M529.43,-323.06C521.36,-314.93 513.46,-304.94 509.19,-294 499.74,-269.77 522.67,-264.18 529.19,-239 537.44,-207.16 543.06,-194.82 529.19,-165 508.41,-120.29 456.54,-88.45 429.01,-74.07"/>
<polygon fill="#63b8ff" stroke="#63b8ff" points="527.1,-325.67 536.78,-329.97 531.89,-320.57 527.1,-325.67"/>
</a>
</g>
</g>
<!-- Node14&#45;&gt;Node9 -->
<g id="edge22_Node000014_Node000009" class="edge">
<title>Node14&#45;&gt;Node9</title>
<g id="a_edge22_Node000014_Node000009"><a xlink:title=" ">
<path fill="none" stroke="#63b8ff" d="M487.23,-327.57C442.16,-316.67 384.85,-302.82 348.58,-294.05"/>
<polygon fill="#63b8ff" stroke="#63b8ff" points="486.69,-331.04 497.23,-329.99 488.33,-324.24 486.69,-331.04"/>
</a>
</g>
</g>
<!-- Node14&#45;&gt;Node10 -->
<g id="edge23_Node000014_Node000010" class="edge">
<title>Node14&#45;&gt;Node10</title>
<g id="a_edge23_Node000014_Node000010"><a xlink:title=" ">
<path fill="none" stroke="#63b8ff" d="M516.03,-324.87C502.43,-316.79 487.92,-306.36 477.19,-294 462.74,-277.34 454.18,-252.27 450.44,-239.17"/>
<polygon fill="#63b8ff" stroke="#63b8ff" points="514.37,-327.95 524.79,-329.85 517.82,-321.87 514.37,-327.95"/>
</a>
</g>
</g>
<!-- Node15 -->
<g id="Node000015" class="node">
<title>Node15</title>
<g id="a_Node000015"><a xlink:href="transDriverModel_8cpp.html" target="_top" xlink:title=" ">
<polygon fill="white" stroke="#666666" points="695.69,-294 518.69,-294 518.69,-275 695.69,-275 695.69,-294"/>
<text text-anchor="middle" x="607.19" y="-282" font-family="Helvetica,sans-Serif" font-size="10.00">src/Drivers/transDriverModel.cpp</text>
</a>
</g>
</g>
<!-- Node14&#45;&gt;Node15 -->
<g id="edge25_Node000014_Node000015" class="edge">
<title>Node14&#45;&gt;Node15</title>
<g id="a_edge25_Node000014_Node000015"><a xlink:title=" ">
<path fill="none" stroke="#63b8ff" d="M574.67,-322.09C583.26,-312.42 592.87,-301.61 599.4,-294.27"/>
<polygon fill="#63b8ff" stroke="#63b8ff" points="571.81,-320.04 567.78,-329.84 577.04,-324.69 571.81,-320.04"/>
</a>
</g>
</g>
<!-- Node17&#45;&gt;Node5 -->
<g id="edge31_Node000017_Node000005" class="edge">
<title>Node17&#45;&gt;Node5</title>
<g id="a_edge31_Node000017_Node000005"><a xlink:title=" ">
<path fill="none" stroke="#63b8ff" d="M807.46,-451.74C806.57,-427.37 805.19,-383.52 805.19,-346 805.19,-346 805.19,-346 805.19,-173.5 805.19,-142.29 800.5,-128.28 775.19,-110 725.07,-73.79 541.43,-66.91 455.76,-65.7"/>
<polygon fill="#63b8ff" stroke="#63b8ff" points="803.96,-451.89 807.84,-461.75 810.96,-451.62 803.96,-451.89"/>
</a>
</g>
</g>
<!-- Node18&#45;&gt;Node13 -->
<g id="edge33_Node000018_Node000013" class="edge">
<title>Node18&#45;&gt;Node13</title>
<g id="a_edge33_Node000018_Node000013"><a xlink:title=" ">
<path fill="none" stroke="#63b8ff" d="M167.31,-459.56C205.5,-450.1 260.97,-436.35 302.46,-426.06"/>
<polygon fill="#63b8ff" stroke="#63b8ff" points="166.37,-456.19 157.51,-461.99 168.06,-462.98 166.37,-456.19"/>
</a>
</g>
</g>
<!-- Node19 -->
<g id="Node000019" class="node">
<title>Node19</title>
<g id="a_Node000019"><a xlink:href="simulator_8cpp.html" target="_top" xlink:title=" ">
<polygon fill="white" stroke="#666666" points="198.19,-420.5 48.19,-420.5 48.19,-401.5 198.19,-401.5 198.19,-420.5"/>
<text text-anchor="middle" x="123.19" y="-408.5" font-family="Helvetica,sans-Serif" font-size="10.00">src/Simulator/simulator.cpp</text>
</a>
</g>
</g>
<!-- Node18&#45;&gt;Node19 -->
<g id="edge34_Node000018_Node000019" class="edge">
<title>Node18&#45;&gt;Node19</title>
<g id="a_edge34_Node000018_Node000019"><a xlink:title=" ">
<path fill="none" stroke="#63b8ff" d="M123.19,-451.66C123.19,-441.24 123.19,-428.8 123.19,-420.67"/>
<polygon fill="#63b8ff" stroke="#63b8ff" points="119.69,-451.87 123.19,-461.87 126.69,-451.87 119.69,-451.87"/>
</a>
</g>
</g>
</g>
</svg>
