<?xml version="1.0" encoding="UTF-8" standalone="no"?>
<!DOCTYPE svg PUBLIC "-//W3C//DTD SVG 1.1//EN"
 "http://www.w3.org/Graphics/SVG/1.1/DTD/svg11.dtd">
<!-- Generated by graphviz version 2.43.0 (0)
 -->
<!-- Title: src/Channel/channel.cpp Pages: 1 -->
<svg width="1076pt" height="302pt"
 viewBox="0.00 0.00 1075.50 302.00" xmlns="http://www.w3.org/2000/svg" xmlns:xlink="http://www.w3.org/1999/xlink">
<g id="graph0" class="graph" transform="scale(1 1) rotate(0) translate(4 298)">
<title>src/Channel/channel.cpp</title>
<!-- Node1 -->
<g id="Node000001" class="node">
<title>Node1</title>
<g id="a_Node000001"><a xlink:title=" ">
<polygon fill="#999999" stroke="#666666" points="339,-294 204,-294 204,-275 339,-275 339,-294"/>
<text text-anchor="middle" x="271.5" y="-282" font-family="Helvetica,sans-Serif" font-size="10.00">src/Channel/channel.cpp</text>
</a>
</g>
</g>
<!-- Node2 -->
<g id="Node000002" class="node">
<title>Node2</title>
<g id="a_Node000002"><a xlink:href="channel_8h.html" target="_top" xlink:title=" ">
<polygon fill="white" stroke="#666666" points="325,-239 218,-239 218,-220 325,-220 325,-239"/>
<text text-anchor="middle" x="271.5" y="-227" font-family="Helvetica,sans-Serif" font-size="10.00">Channel/channel.h</text>
</a>
</g>
</g>
<!-- Node1&#45;&gt;Node2 -->
<g id="edge1_Node000001_Node000002" class="edge">
<title>Node1&#45;&gt;Node2</title>
<g id="a_edge1_Node000001_Node000002"><a xlink:title=" ">
<path fill="none" stroke="#63b8ff" d="M271.5,-274.75C271.5,-267.8 271.5,-257.85 271.5,-249.13"/>
<polygon fill="#63b8ff" stroke="#63b8ff" points="275,-249.09 271.5,-239.09 268,-249.09 275,-249.09"/>
</a>
</g>
</g>
<!-- Node3 -->
<g id="Node000003" class="node">
<title>Node3</title>
<g id="a_Node000003"><a xlink:title=" ">
<polygon fill="#e0e0e0" stroke="#999999" points="53,-184 0,-184 0,-165 53,-165 53,-184"/>
<text text-anchor="middle" x="26.5" y="-172" font-family="Helvetica,sans-Serif" font-size="10.00">iterator</text>
</a>
</g>
</g>
<!-- Node2&#45;&gt;Node3 -->
<g id="edge2_Node000002_Node000003" class="edge">
<title>Node2&#45;&gt;Node3</title>
<g id="a_edge2_Node000002_Node000003"><a xlink:title=" ">
<path fill="none" stroke="#63b8ff" d="M232.14,-219.98C185.58,-209.91 108.69,-193.28 63.29,-183.46"/>
<polygon fill="#63b8ff" stroke="#63b8ff" points="63.79,-179.99 53.28,-181.29 62.31,-186.83 63.79,-179.99"/>
</a>
</g>
</g>
<!-- Node4 -->
<g id="Node000004" class="node">
<title>Node4</title>
<g id="a_Node000004"><a xlink:title=" ">
<polygon fill="#e0e0e0" stroke="#999999" points="243.5,-129 185.5,-129 185.5,-110 243.5,-110 243.5,-129"/>
<text text-anchor="middle" x="214.5" y="-117" font-family="Helvetica,sans-Serif" font-size="10.00">memory</text>
</a>
</g>
</g>
<!-- Node2&#45;&gt;Node4 -->
<g id="edge3_Node000002_Node000004" class="edge">
<title>Node2&#45;&gt;Node4</title>
<g id="a_edge3_Node000002_Node000004"><a xlink:title=" ">
<path fill="none" stroke="#63b8ff" d="M266.84,-219.66C257.44,-201.85 236.07,-161.37 223.74,-138.01"/>
<polygon fill="#63b8ff" stroke="#63b8ff" points="226.83,-136.37 219.07,-129.16 220.64,-139.64 226.83,-136.37"/>
</a>
</g>
</g>
<!-- Node5 -->
<g id="Node000005" class="node">
<title>Node5</title>
<g id="a_Node000005"><a xlink:title=" ">
<polygon fill="#e0e0e0" stroke="#999999" points="784.5,-19 740.5,-19 740.5,0 784.5,0 784.5,-19"/>
<text text-anchor="middle" x="762.5" y="-7" font-family="Helvetica,sans-Serif" font-size="10.00">string</text>
</a>
</g>
</g>
<!-- Node2&#45;&gt;Node5 -->
<g id="edge4_Node000002_Node000005" class="edge">
<title>Node2&#45;&gt;Node5</title>
<g id="a_edge4_Node000002_Node000005"><a xlink:title=" ">
<path fill="none" stroke="#63b8ff" d="M325.09,-227.28C447.17,-224.01 742.73,-213.25 837.5,-184 884.49,-169.5 901.54,-166.37 933.5,-129 955.72,-103.02 975.77,-81.76 954.5,-55 934.91,-30.36 844.3,-18.15 794.87,-13.23"/>
<polygon fill="#63b8ff" stroke="#63b8ff" points="794.99,-9.73 784.7,-12.27 794.33,-16.7 794.99,-9.73"/>
</a>
</g>
</g>
<!-- Node6 -->
<g id="Node000006" class="node">
<title>Node6</title>
<g id="a_Node000006"><a xlink:title=" ">
<polygon fill="#e0e0e0" stroke="#999999" points="734,-74 693,-74 693,-55 734,-55 734,-74"/>
<text text-anchor="middle" x="713.5" y="-62" font-family="Helvetica,sans-Serif" font-size="10.00">tuple</text>
</a>
</g>
</g>
<!-- Node2&#45;&gt;Node6 -->
<g id="edge5_Node000002_Node000006" class="edge">
<title>Node2&#45;&gt;Node6</title>
<g id="a_edge5_Node000002_Node000006"><a xlink:title=" ">
<path fill="none" stroke="#63b8ff" d="M325.29,-225.12C433.83,-217.02 672.66,-192.25 718.5,-129 727.82,-116.14 725.11,-97.73 720.93,-84.04"/>
<polygon fill="#63b8ff" stroke="#63b8ff" points="724.11,-82.52 717.47,-74.27 717.51,-84.86 724.11,-82.52"/>
</a>
</g>
</g>
<!-- Node7 -->
<g id="Node000007" class="node">
<title>Node7</title>
<g id="a_Node000007"><a xlink:title=" ">
<polygon fill="#e0e0e0" stroke="#999999" points="199,-19 106,-19 106,0 199,0 199,-19"/>
<text text-anchor="middle" x="152.5" y="-7" font-family="Helvetica,sans-Serif" font-size="10.00">unordered_map</text>
</a>
</g>
</g>
<!-- Node2&#45;&gt;Node7 -->
<g id="edge6_Node000002_Node000007" class="edge">
<title>Node2&#45;&gt;Node7</title>
<g id="a_edge6_Node000002_Node000007"><a xlink:title=" ">
<path fill="none" stroke="#63b8ff" d="M222.74,-219.97C201.06,-213.66 177.17,-202.76 162.5,-184 126.77,-138.32 139.05,-63.44 147.4,-28.95"/>
<polygon fill="#63b8ff" stroke="#63b8ff" points="150.79,-29.81 149.9,-19.26 144.01,-28.06 150.79,-29.81"/>
</a>
</g>
</g>
<!-- Node8 -->
<g id="Node000008" class="node">
<title>Node8</title>
<g id="a_Node000008"><a xlink:title=" ">
<polygon fill="#e0e0e0" stroke="#999999" points="945.5,-74 907.5,-74 907.5,-55 945.5,-55 945.5,-74"/>
<text text-anchor="middle" x="926.5" y="-62" font-family="Helvetica,sans-Serif" font-size="10.00">map</text>
</a>
</g>
</g>
<!-- Node2&#45;&gt;Node8 -->
<g id="edge7_Node000002_Node000008" class="edge">
<title>Node2&#45;&gt;Node8</title>
<g id="a_edge7_Node000002_Node000008"><a xlink:title=" ">
<path fill="none" stroke="#63b8ff" d="M325.06,-228.2C464.63,-226.24 834.26,-213.03 915.5,-129 926.79,-117.32 928.81,-98.46 928.45,-84.33"/>
<polygon fill="#63b8ff" stroke="#63b8ff" points="931.93,-83.98 927.77,-74.23 924.95,-84.44 931.93,-83.98"/>
</a>
</g>
</g>
<!-- Node9 -->
<g id="Node000009" class="node">
<title>Node9</title>
<g id="a_Node000009"><a xlink:title=" ">
<polygon fill="#e0e0e0" stroke="#999999" points="490,-74 445,-74 445,-55 490,-55 490,-74"/>
<text text-anchor="middle" x="467.5" y="-62" font-family="Helvetica,sans-Serif" font-size="10.00">utility</text>
</a>
</g>
</g>
<!-- Node2&#45;&gt;Node9 -->
<g id="edge8_Node000002_Node000009" class="edge">
<title>Node2&#45;&gt;Node9</title>
<g id="a_edge8_Node000002_Node000009"><a xlink:title=" ">
<path fill="none" stroke="#63b8ff" d="M279.65,-219.9C299.15,-199.57 350.44,-147.43 398.5,-110 412.84,-98.83 430.03,-87.74 443.66,-79.43"/>
<polygon fill="#63b8ff" stroke="#63b8ff" points="445.67,-82.3 452.44,-74.15 442.07,-76.3 445.67,-82.3"/>
</a>
</g>
</g>
<!-- Node10 -->
<g id="Node000010" class="node">
<title>Node10</title>
<g id="a_Node000010"><a xlink:title=" ">
<polygon fill="#e0e0e0" stroke="#999999" points="370,-19 323,-19 323,0 370,0 370,-19"/>
<text text-anchor="middle" x="346.5" y="-7" font-family="Helvetica,sans-Serif" font-size="10.00">vector</text>
</a>
</g>
</g>
<!-- Node2&#45;&gt;Node10 -->
<g id="edge9_Node000002_Node000010" class="edge">
<title>Node2&#45;&gt;Node10</title>
<g id="a_edge9_Node000002_Node000010"><a xlink:title=" ">
<path fill="none" stroke="#63b8ff" d="M238.55,-219.88C219.03,-213.16 195.3,-201.89 180.5,-184 159.11,-158.14 148.42,-138.88 165.5,-110 197.44,-55.99 270.27,-29.33 313.18,-17.86"/>
<polygon fill="#63b8ff" stroke="#63b8ff" points="314.06,-21.25 322.89,-15.39 312.33,-14.47 314.06,-21.25"/>
</a>
</g>
</g>
<!-- Node11 -->
<g id="Node000011" class="node">
<title>Node11</title>
<g id="a_Node000011"><a xlink:title=" ">
<polygon fill="#e0e0e0" stroke="#999999" points="1067.5,-184 1021.5,-184 1021.5,-165 1067.5,-165 1067.5,-184"/>
<text text-anchor="middle" x="1044.5" y="-172" font-family="Helvetica,sans-Serif" font-size="10.00">future</text>
</a>
</g>
</g>
<!-- Node2&#45;&gt;Node11 -->
<g id="edge10_Node000002_Node000011" class="edge">
<title>Node2&#45;&gt;Node11</title>
<g id="a_edge10_Node000002_Node000011"><a xlink:title=" ">
<path fill="none" stroke="#63b8ff" d="M325.37,-228.28C447.42,-227.13 754.09,-220.51 1007.5,-184 1008.75,-183.82 1010.02,-183.62 1011.29,-183.4"/>
<polygon fill="#63b8ff" stroke="#63b8ff" points="1011.98,-186.84 1021.12,-181.49 1010.64,-179.97 1011.98,-186.84"/>
</a>
</g>
</g>
<!-- Node12 -->
<g id="Node000012" class="node">
<title>Node12</title>
<g id="a_Node000012"><a xlink:href="types_8h.html" target="_top" xlink:title=" ">
<polygon fill="white" stroke="#666666" points="427,-74 338,-74 338,-55 427,-55 427,-74"/>
<text text-anchor="middle" x="382.5" y="-62" font-family="Helvetica,sans-Serif" font-size="10.00">Library/types.h</text>
</a>
</g>
</g>
<!-- Node2&#45;&gt;Node12 -->
<g id="edge11_Node000002_Node000012" class="edge">
<title>Node2&#45;&gt;Node12</title>
<g id="a_edge11_Node000002_Node000012"><a xlink:title=" ">
<path fill="none" stroke="#63b8ff" d="M255.1,-219.86C219.99,-200.28 143.38,-151.04 176.5,-110 195.17,-86.86 273.17,-75.17 327.63,-69.71"/>
<polygon fill="#63b8ff" stroke="#63b8ff" points="328.23,-73.17 337.85,-68.73 327.56,-66.2 328.23,-73.17"/>
</a>
</g>
</g>
<!-- Node13 -->
<g id="Node000013" class="node">
<title>Node13</title>
<g id="a_Node000013"><a xlink:href="transaction_8h_source.html" target="_top" xlink:title=" ">
<polygon fill="white" stroke="#666666" points="542,-184 403,-184 403,-165 542,-165 542,-184"/>
<text text-anchor="middle" x="472.5" y="-172" font-family="Helvetica,sans-Serif" font-size="10.00">Transaction/transaction.h</text>
</a>
</g>
</g>
<!-- Node2&#45;&gt;Node13 -->
<g id="edge15_Node000002_Node000013" class="edge">
<title>Node2&#45;&gt;Node13</title>
<g id="a_edge15_Node000002_Node000013"><a xlink:title=" ">
<path fill="none" stroke="#63b8ff" d="M303.79,-219.98C338.12,-210.93 392.56,-196.58 430.27,-186.64"/>
<polygon fill="#63b8ff" stroke="#63b8ff" points="431.18,-190.02 439.95,-184.08 429.39,-183.25 431.18,-190.02"/>
</a>
</g>
</g>
<!-- Node12&#45;&gt;Node5 -->
<g id="edge14_Node000012_Node000005" class="edge">
<title>Node12&#45;&gt;Node5</title>
<g id="a_edge14_Node000012_Node000005"><a xlink:title=" ">
<path fill="none" stroke="#63b8ff" d="M427.02,-56.28C429.89,-55.84 432.73,-55.41 435.5,-55 543.28,-39.03 671.37,-22.23 730.13,-14.65"/>
<polygon fill="#63b8ff" stroke="#63b8ff" points="730.8,-18.09 740.27,-13.34 729.91,-11.15 730.8,-18.09"/>
</a>
</g>
</g>
<!-- Node12&#45;&gt;Node7 -->
<g id="edge13_Node000012_Node000007" class="edge">
<title>Node12&#45;&gt;Node7</title>
<g id="a_edge13_Node000012_Node000007"><a xlink:title=" ">
<path fill="none" stroke="#63b8ff" d="M345.55,-54.98C305.93,-45.86 242.91,-31.33 199.73,-21.38"/>
<polygon fill="#63b8ff" stroke="#63b8ff" points="200.27,-17.92 189.74,-19.08 198.7,-24.74 200.27,-17.92"/>
</a>
</g>
</g>
<!-- Node12&#45;&gt;Node10 -->
<g id="edge12_Node000012_Node000010" class="edge">
<title>Node12&#45;&gt;Node10</title>
<g id="a_edge12_Node000012_Node000010"><a xlink:title=" ">
<path fill="none" stroke="#63b8ff" d="M376.56,-54.75C371.52,-47.34 364.16,-36.5 357.99,-27.41"/>
<polygon fill="#63b8ff" stroke="#63b8ff" points="360.85,-25.39 352.33,-19.09 355.06,-29.33 360.85,-25.39"/>
</a>
</g>
</g>
<!-- Node13&#45;&gt;Node4 -->
<g id="edge19_Node000013_Node000004" class="edge">
<title>Node13&#45;&gt;Node4</title>
<g id="a_edge19_Node000013_Node000004"><a xlink:title=" ">
<path fill="none" stroke="#63b8ff" d="M431.05,-164.98C382.21,-154.95 301.68,-138.41 253.8,-128.57"/>
<polygon fill="#63b8ff" stroke="#63b8ff" points="254.31,-125.11 243.81,-126.52 252.9,-131.96 254.31,-125.11"/>
</a>
</g>
</g>
<!-- Node13&#45;&gt;Node5 -->
<g id="edge16_Node000013_Node000005" class="edge">
<title>Node13&#45;&gt;Node5</title>
<g id="a_edge16_Node000013_Node000005"><a xlink:title=" ">
<path fill="none" stroke="#63b8ff" d="M542.38,-170.44C648.38,-165.08 839.74,-152.28 860.5,-129 868.92,-119.55 882.4,-90 859.5,-55 845.07,-32.95 816.74,-21.67 794.4,-15.99"/>
<polygon fill="#63b8ff" stroke="#63b8ff" points="795.16,-12.57 784.63,-13.76 793.6,-19.4 795.16,-12.57"/>
</a>
</g>
</g>
<!-- Node13&#45;&gt;Node8 -->
<g id="edge21_Node000013_Node000008" class="edge">
<title>Node13&#45;&gt;Node8</title>
<g id="a_edge21_Node000013_Node000008"><a xlink:title=" ">
<path fill="none" stroke="#63b8ff" d="M542.12,-173.95C646.68,-173.35 837.94,-166.88 893.5,-129 908.71,-118.63 917.37,-98.98 921.97,-84.27"/>
<polygon fill="#63b8ff" stroke="#63b8ff" points="925.45,-84.8 924.73,-74.23 918.7,-82.94 925.45,-84.8"/>
</a>
</g>
</g>
<!-- Node13&#45;&gt;Node9 -->
<g id="edge17_Node000013_Node000009" class="edge">
<title>Node13&#45;&gt;Node9</title>
<g id="a_edge17_Node000013_Node000009"><a xlink:title=" ">
<path fill="none" stroke="#63b8ff" d="M448.72,-164.92C433.07,-157.89 413.83,-146.25 404.5,-129 393.45,-108.56 416.84,-90.32 438.18,-78.69"/>
<polygon fill="#63b8ff" stroke="#63b8ff" points="439.79,-81.8 447.1,-74.13 436.6,-75.57 439.79,-81.8"/>
</a>
</g>
</g>
<!-- Node13&#45;&gt;Node10 -->
<g id="edge18_Node000013_Node000010" class="edge">
<title>Node13&#45;&gt;Node10</title>
<g id="a_edge18_Node000013_Node000010"><a xlink:title=" ">
<path fill="none" stroke="#63b8ff" d="M445.53,-164.96C409.97,-151.96 349.47,-123.37 328.5,-74 322.15,-59.04 328.36,-41.16 335.16,-28.19"/>
<polygon fill="#63b8ff" stroke="#63b8ff" points="338.3,-29.77 340.28,-19.36 332.24,-26.26 338.3,-29.77"/>
</a>
</g>
</g>
<!-- Node13&#45;&gt;Node12 -->
<g id="edge24_Node000013_Node000012" class="edge">
<title>Node13&#45;&gt;Node12</title>
<g id="a_edge24_Node000013_Node000012"><a xlink:title=" ">
<path fill="none" stroke="#63b8ff" d="M448.74,-164.91C432.26,-157.75 411.09,-145.98 398.5,-129 388.87,-116.02 385,-97.87 383.47,-84.29"/>
<polygon fill="#63b8ff" stroke="#63b8ff" points="386.94,-83.87 382.65,-74.18 379.97,-84.43 386.94,-83.87"/>
</a>
</g>
</g>
<!-- Node14 -->
<g id="Node000014" class="node">
<title>Node14</title>
<g id="a_Node000014"><a xlink:title=" ">
<polygon fill="#e0e0e0" stroke="#999999" points="461.5,-129 413.5,-129 413.5,-110 461.5,-110 461.5,-129"/>
<text text-anchor="middle" x="437.5" y="-117" font-family="Helvetica,sans-Serif" font-size="10.00">mutex</text>
</a>
</g>
</g>
<!-- Node13&#45;&gt;Node14 -->
<g id="edge20_Node000013_Node000014" class="edge">
<title>Node13&#45;&gt;Node14</title>
<g id="a_edge20_Node000013_Node000014"><a xlink:title=" ">
<path fill="none" stroke="#63b8ff" d="M466.72,-164.75C461.88,-157.42 454.82,-146.73 448.86,-137.7"/>
<polygon fill="#63b8ff" stroke="#63b8ff" points="451.6,-135.5 443.17,-129.09 445.76,-139.36 451.6,-135.5"/>
</a>
</g>
</g>
<!-- Node15 -->
<g id="Node000015" class="node">
<title>Node15</title>
<g id="a_Node000015"><a xlink:title=" ">
<polygon fill="#e0e0e0" stroke="#999999" points="535.5,-129 479.5,-129 479.5,-110 535.5,-110 535.5,-129"/>
<text text-anchor="middle" x="507.5" y="-117" font-family="Helvetica,sans-Serif" font-size="10.00">optional</text>
</a>
</g>
</g>
<!-- Node13&#45;&gt;Node15 -->
<g id="edge22_Node000013_Node000015" class="edge">
<title>Node13&#45;&gt;Node15</title>
<g id="a_edge22_Node000013_Node000015"><a xlink:title=" ">
<path fill="none" stroke="#63b8ff" d="M478.28,-164.75C483.12,-157.42 490.18,-146.73 496.14,-137.7"/>
<polygon fill="#63b8ff" stroke="#63b8ff" points="499.24,-139.36 501.83,-129.09 493.4,-135.5 499.24,-139.36"/>
</a>
</g>
</g>
<!-- Node16 -->
<g id="Node000016" class="node">
<title>Node16</title>
<g id="a_Node000016"><a xlink:title=" ">
<polygon fill="#e0e0e0" stroke="#999999" points="596,-74 531,-74 531,-55 596,-55 596,-74"/>
<text text-anchor="middle" x="563.5" y="-62" font-family="Helvetica,sans-Serif" font-size="10.00">functional</text>
</a>
</g>
</g>
<!-- Node13&#45;&gt;Node16 -->
<g id="edge23_Node000013_Node000016" class="edge">
<title>Node13&#45;&gt;Node16</title>
<g id="a_edge23_Node000013_Node000016"><a xlink:title=" ">
<path fill="none" stroke="#63b8ff" d="M494.73,-164.89C510.75,-157.61 531.72,-145.68 544.5,-129 554.45,-116.01 559.21,-97.86 561.48,-84.29"/>
<polygon fill="#63b8ff" stroke="#63b8ff" points="564.97,-84.56 562.85,-74.18 558.03,-83.62 564.97,-84.56"/>
</a>
</g>
</g>
<!-- Node17 -->
<g id="Node000017" class="node">
<title>Node17</title>
<g id="a_Node000017"><a xlink:href="error_8h.html" target="_top" xlink:title=" ">
<polygon fill="white" stroke="#666666" points="851,-129 766,-129 766,-110 851,-110 851,-129"/>
<text text-anchor="middle" x="808.5" y="-117" font-family="Helvetica,sans-Serif" font-size="10.00">Library/error.h</text>
</a>
</g>
</g>
<!-- Node13&#45;&gt;Node17 -->
<g id="edge25_Node000013_Node000017" class="edge">
<title>Node13&#45;&gt;Node17</title>
<g id="a_edge25_Node000013_Node000017"><a xlink:title=" ">
<path fill="none" stroke="#63b8ff" d="M526.48,-164.98C589.57,-155.03 693.27,-138.68 755.8,-128.81"/>
<polygon fill="#63b8ff" stroke="#63b8ff" points="756.51,-132.24 765.84,-127.23 755.42,-125.33 756.51,-132.24"/>
</a>
</g>
</g>
<!-- Node19 -->
<g id="Node000019" class="node">
<title>Node19</title>
<g id="a_Node000019"><a xlink:href="evaluate_8h.html" target="_top" xlink:title=" ">
<polygon fill="white" stroke="#666666" points="709.5,-129 591.5,-129 591.5,-110 709.5,-110 709.5,-129"/>
<text text-anchor="middle" x="650.5" y="-117" font-family="Helvetica,sans-Serif" font-size="10.00">Evaluator/evaluate.h</text>
</a>
</g>
</g>
<!-- Node13&#45;&gt;Node19 -->
<g id="edge28_Node000013_Node000019" class="edge">
<title>Node13&#45;&gt;Node19</title>
<g id="a_edge28_Node000013_Node000019"><a xlink:title=" ">
<path fill="none" stroke="#63b8ff" d="M501.1,-164.98C531.11,-156.05 578.48,-141.94 611.82,-132.02"/>
<polygon fill="#63b8ff" stroke="#63b8ff" points="613.09,-135.29 621.68,-129.08 611.09,-128.58 613.09,-135.29"/>
</a>
</g>
</g>
<!-- Node17&#45;&gt;Node5 -->
<g id="edge26_Node000017_Node000005" class="edge">
<title>Node17&#45;&gt;Node5</title>
<g id="a_edge26_Node000017_Node000005"><a xlink:title=" ">
<path fill="none" stroke="#63b8ff" d="M802.43,-109.99C796.45,-101.29 787.37,-87.21 781.5,-74 775.07,-59.52 770.06,-42.25 766.8,-29.38"/>
<polygon fill="#63b8ff" stroke="#63b8ff" points="770.14,-28.29 764.4,-19.38 763.33,-29.92 770.14,-28.29"/>
</a>
</g>
</g>
<!-- Node18 -->
<g id="Node000018" class="node">
<title>Node18</title>
<g id="a_Node000018"><a xlink:title=" ">
<polygon fill="#e0e0e0" stroke="#999999" points="850.5,-74 790.5,-74 790.5,-55 850.5,-55 850.5,-74"/>
<text text-anchor="middle" x="820.5" y="-62" font-family="Helvetica,sans-Serif" font-size="10.00">iostream</text>
</a>
</g>
</g>
<!-- Node17&#45;&gt;Node18 -->
<g id="edge27_Node000017_Node000018" class="edge">
<title>Node17&#45;&gt;Node18</title>
<g id="a_edge27_Node000017_Node000018"><a xlink:title=" ">
<path fill="none" stroke="#63b8ff" d="M810.48,-109.75C812.07,-102.72 814.36,-92.62 816.35,-83.84"/>
<polygon fill="#63b8ff" stroke="#63b8ff" points="819.76,-84.62 818.56,-74.09 812.93,-83.07 819.76,-84.62"/>
</a>
</g>
</g>
<!-- Node19&#45;&gt;Node5 -->
<g id="edge31_Node000019_Node000005" class="edge">
<title>Node19&#45;&gt;Node5</title>
<g id="a_edge31_Node000019_Node000005"><a xlink:title=" ">
<path fill="none" stroke="#63b8ff" d="M653.24,-109.72C657.73,-96.49 667.78,-71.26 683.5,-55 696.82,-41.22 715.34,-30.49 731.09,-23.01"/>
<polygon fill="#63b8ff" stroke="#63b8ff" points="732.8,-26.08 740.48,-18.78 729.92,-19.7 732.8,-26.08"/>
</a>
</g>
</g>
<!-- Node19&#45;&gt;Node6 -->
<g id="edge33_Node000019_Node000006" class="edge">
<title>Node19&#45;&gt;Node6</title>
<g id="a_edge33_Node000019_Node000006"><a xlink:title=" ">
<path fill="none" stroke="#63b8ff" d="M660.62,-109.98C669.94,-102.15 683.97,-90.34 695.24,-80.86"/>
<polygon fill="#63b8ff" stroke="#63b8ff" points="697.79,-83.29 703.19,-74.17 693.29,-77.93 697.79,-83.29"/>
</a>
</g>
</g>
<!-- Node19&#45;&gt;Node8 -->
<g id="edge34_Node000019_Node000008" class="edge">
<title>Node19&#45;&gt;Node8</title>
<g id="a_edge34_Node000019_Node000008"><a xlink:title=" ">
<path fill="none" stroke="#63b8ff" d="M694.84,-109.98C751.79,-99.05 849.04,-80.38 897.4,-71.09"/>
<polygon fill="#63b8ff" stroke="#63b8ff" points="898.34,-74.47 907.5,-69.15 897.02,-67.6 898.34,-74.47"/>
</a>
</g>
</g>
<!-- Node19&#45;&gt;Node9 -->
<g id="edge29_Node000019_Node000009" class="edge">
<title>Node19&#45;&gt;Node9</title>
<g id="a_edge29_Node000019_Node000009"><a xlink:title=" ">
<path fill="none" stroke="#63b8ff" d="M621.1,-109.98C588.04,-100.41 534.52,-84.91 500.18,-74.96"/>
<polygon fill="#63b8ff" stroke="#63b8ff" points="500.76,-71.49 490.18,-72.07 498.81,-78.21 500.76,-71.49"/>
</a>
</g>
</g>
<!-- Node19&#45;&gt;Node10 -->
<g id="edge30_Node000019_Node000010" class="edge">
<title>Node19&#45;&gt;Node10</title>
<g id="a_edge30_Node000019_Node000010"><a xlink:title=" ">
<path fill="none" stroke="#63b8ff" d="M646.88,-109.86C640.53,-95.85 625.99,-68.39 604.5,-55 567.56,-31.98 441.52,-18.5 380.35,-13.17"/>
<polygon fill="#63b8ff" stroke="#63b8ff" points="380.32,-9.65 370.06,-12.29 379.73,-16.63 380.32,-9.65"/>
</a>
</g>
</g>
<!-- Node19&#45;&gt;Node12 -->
<g id="edge35_Node000019_Node000012" class="edge">
<title>Node19&#45;&gt;Node12</title>
<g id="a_edge35_Node000019_Node000012"><a xlink:title=" ">
<path fill="none" stroke="#63b8ff" d="M607.44,-109.98C560.79,-100.76 486.3,-86.03 435.94,-76.07"/>
<polygon fill="#63b8ff" stroke="#63b8ff" points="436.39,-72.59 425.9,-74.08 435.03,-79.46 436.39,-72.59"/>
</a>
</g>
</g>
<!-- Node19&#45;&gt;Node16 -->
<g id="edge32_Node000019_Node000016" class="edge">
<title>Node19&#45;&gt;Node16</title>
<g id="a_edge32_Node000019_Node000016"><a xlink:title=" ">
<path fill="none" stroke="#63b8ff" d="M636.52,-109.98C623.03,-101.77 602.37,-89.18 586.46,-79.49"/>
<polygon fill="#63b8ff" stroke="#63b8ff" points="588.09,-76.38 577.73,-74.17 584.45,-82.36 588.09,-76.38"/>
</a>
</g>
</g>
</g>
</svg>
