<?xml version="1.0" encoding="UTF-8" standalone="no"?>
<!DOCTYPE svg PUBLIC "-//W3C//DTD SVG 1.1//EN"
 "http://www.w3.org/Graphics/SVG/1.1/DTD/svg11.dtd">
<!-- Generated by graphviz version 2.43.0 (0)
 -->
<!-- Title: src/Channel/channel.cpp Pages: 1 -->
<svg width="970pt" height="302pt"
 viewBox="0.00 0.00 969.50 302.00" xmlns="http://www.w3.org/2000/svg" xmlns:xlink="http://www.w3.org/1999/xlink">
<g id="graph0" class="graph" transform="scale(1 1) rotate(0) translate(4 298)">
<title>src/Channel/channel.cpp</title>
<!-- Node1 -->
<g id="Node000001" class="node">
<title>Node1</title>
<g id="a_Node000001"><a xlink:title=" ">
<polygon fill="#999999" stroke="#666666" points="316,-294 181,-294 181,-275 316,-275 316,-294"/>
<text text-anchor="middle" x="248.5" y="-282" font-family="Helvetica,sans-Serif" font-size="10.00">src/Channel/channel.cpp</text>
</a>
</g>
</g>
<!-- Node2 -->
<g id="Node000002" class="node">
<title>Node2</title>
<g id="a_Node000002"><a xlink:href="channel_8h.html" target="_top" xlink:title=" ">
<polygon fill="white" stroke="#666666" points="302,-239 195,-239 195,-220 302,-220 302,-239"/>
<text text-anchor="middle" x="248.5" y="-227" font-family="Helvetica,sans-Serif" font-size="10.00">Channel/channel.h</text>
</a>
</g>
</g>
<!-- Node1&#45;&gt;Node2 -->
<g id="edge1_Node000001_Node000002" class="edge">
<title>Node1&#45;&gt;Node2</title>
<g id="a_edge1_Node000001_Node000002"><a xlink:title=" ">
<path fill="none" stroke="#63b8ff" d="M248.5,-274.75C248.5,-267.8 248.5,-257.85 248.5,-249.13"/>
<polygon fill="#63b8ff" stroke="#63b8ff" points="252,-249.09 248.5,-239.09 245,-249.09 252,-249.09"/>
</a>
</g>
</g>
<!-- Node3 -->
<g id="Node000003" class="node">
<title>Node3</title>
<g id="a_Node000003"><a xlink:title=" ">
<polygon fill="#e0e0e0" stroke="#999999" points="137.5,-129 79.5,-129 79.5,-110 137.5,-110 137.5,-129"/>
<text text-anchor="middle" x="108.5" y="-117" font-family="Helvetica,sans-Serif" font-size="10.00">memory</text>
</a>
</g>
</g>
<!-- Node2&#45;&gt;Node3 -->
<g id="edge2_Node000002_Node000003" class="edge">
<title>Node2&#45;&gt;Node3</title>
<g id="a_edge2_Node000002_Node000003"><a xlink:title=" ">
<path fill="none" stroke="#63b8ff" d="M219.43,-219.85C198.83,-212.67 171.43,-200.89 151.5,-184 136.62,-171.4 124.69,-152.43 117.21,-138.51"/>
<polygon fill="#63b8ff" stroke="#63b8ff" points="120.23,-136.74 112.57,-129.42 114,-139.92 120.23,-136.74"/>
</a>
</g>
</g>
<!-- Node4 -->
<g id="Node000004" class="node">
<title>Node4</title>
<g id="a_Node000004"><a xlink:title=" ">
<polygon fill="#e0e0e0" stroke="#999999" points="678.5,-19 634.5,-19 634.5,0 678.5,0 678.5,-19"/>
<text text-anchor="middle" x="656.5" y="-7" font-family="Helvetica,sans-Serif" font-size="10.00">string</text>
</a>
</g>
</g>
<!-- Node2&#45;&gt;Node4 -->
<g id="edge3_Node000002_Node000004" class="edge">
<title>Node2&#45;&gt;Node4</title>
<g id="a_edge3_Node000002_Node000004"><a xlink:title=" ">
<path fill="none" stroke="#63b8ff" d="M302.04,-226.36C410.15,-221.57 650.93,-208.46 729.5,-184 777.19,-169.15 794.87,-166.81 827.5,-129 849.84,-103.12 869.77,-81.76 848.5,-55 828.91,-30.36 738.3,-18.15 688.87,-13.23"/>
<polygon fill="#63b8ff" stroke="#63b8ff" points="688.99,-9.73 678.7,-12.27 688.33,-16.7 688.99,-9.73"/>
</a>
</g>
</g>
<!-- Node5 -->
<g id="Node000005" class="node">
<title>Node5</title>
<g id="a_Node000005"><a xlink:title=" ">
<polygon fill="#e0e0e0" stroke="#999999" points="628,-74 587,-74 587,-55 628,-55 628,-74"/>
<text text-anchor="middle" x="607.5" y="-62" font-family="Helvetica,sans-Serif" font-size="10.00">tuple</text>
</a>
</g>
</g>
<!-- Node2&#45;&gt;Node5 -->
<g id="edge4_Node000002_Node000005" class="edge">
<title>Node2&#45;&gt;Node5</title>
<g id="a_edge4_Node000002_Node000005"><a xlink:title=" ">
<path fill="none" stroke="#63b8ff" d="M302.05,-222.02C394.12,-209.63 576.07,-179.26 612.5,-129 621.82,-116.14 619.11,-97.73 614.93,-84.04"/>
<polygon fill="#63b8ff" stroke="#63b8ff" points="618.11,-82.52 611.47,-74.27 611.51,-84.86 618.11,-82.52"/>
</a>
</g>
</g>
<!-- Node6 -->
<g id="Node000006" class="node">
<title>Node6</title>
<g id="a_Node000006"><a xlink:title=" ">
<polygon fill="#e0e0e0" stroke="#999999" points="93,-19 0,-19 0,0 93,0 93,-19"/>
<text text-anchor="middle" x="46.5" y="-7" font-family="Helvetica,sans-Serif" font-size="10.00">unordered_map</text>
</a>
</g>
</g>
<!-- Node2&#45;&gt;Node6 -->
<g id="edge5_Node000002_Node000006" class="edge">
<title>Node2&#45;&gt;Node6</title>
<g id="a_edge5_Node000002_Node000006"><a xlink:title=" ">
<path fill="none" stroke="#63b8ff" d="M194.84,-222.76C145.43,-216.3 77.2,-204.01 59.5,-184 20.86,-140.31 33.12,-63.81 41.47,-28.86"/>
<polygon fill="#63b8ff" stroke="#63b8ff" points="44.89,-29.62 43.98,-19.07 38.11,-27.89 44.89,-29.62"/>
</a>
</g>
</g>
<!-- Node7 -->
<g id="Node000007" class="node">
<title>Node7</title>
<g id="a_Node000007"><a xlink:title=" ">
<polygon fill="#e0e0e0" stroke="#999999" points="839.5,-74 801.5,-74 801.5,-55 839.5,-55 839.5,-74"/>
<text text-anchor="middle" x="820.5" y="-62" font-family="Helvetica,sans-Serif" font-size="10.00">map</text>
</a>
</g>
</g>
<!-- Node2&#45;&gt;Node7 -->
<g id="edge6_Node000002_Node000007" class="edge">
<title>Node2&#45;&gt;Node7</title>
<g id="a_edge6_Node000002_Node000007"><a xlink:title=" ">
<path fill="none" stroke="#63b8ff" d="M302.17,-226.73C428.62,-221.4 739.81,-201.1 809.5,-129 820.79,-117.32 822.81,-98.46 822.45,-84.33"/>
<polygon fill="#63b8ff" stroke="#63b8ff" points="825.93,-83.98 821.77,-74.23 818.95,-84.44 825.93,-83.98"/>
</a>
</g>
</g>
<!-- Node8 -->
<g id="Node000008" class="node">
<title>Node8</title>
<g id="a_Node000008"><a xlink:title=" ">
<polygon fill="#e0e0e0" stroke="#999999" points="384,-74 339,-74 339,-55 384,-55 384,-74"/>
<text text-anchor="middle" x="361.5" y="-62" font-family="Helvetica,sans-Serif" font-size="10.00">utility</text>
</a>
</g>
</g>
<!-- Node2&#45;&gt;Node8 -->
<g id="edge7_Node000002_Node000008" class="edge">
<title>Node2&#45;&gt;Node8</title>
<g id="a_edge7_Node000002_Node000008"><a xlink:title=" ">
<path fill="none" stroke="#63b8ff" d="M249.79,-219.83C253.28,-198.89 264.6,-144.73 292.5,-110 303.09,-96.82 318.68,-86.3 332.36,-78.8"/>
<polygon fill="#63b8ff" stroke="#63b8ff" points="334.18,-81.81 341.45,-74.1 330.96,-75.59 334.18,-81.81"/>
</a>
</g>
</g>
<!-- Node9 -->
<g id="Node000009" class="node">
<title>Node9</title>
<g id="a_Node000009"><a xlink:title=" ">
<polygon fill="#e0e0e0" stroke="#999999" points="264,-19 217,-19 217,0 264,0 264,-19"/>
<text text-anchor="middle" x="240.5" y="-7" font-family="Helvetica,sans-Serif" font-size="10.00">vector</text>
</a>
</g>
</g>
<!-- Node2&#45;&gt;Node9 -->
<g id="edge8_Node000002_Node000009" class="edge">
<title>Node2&#45;&gt;Node9</title>
<g id="a_edge8_Node000002_Node000009"><a xlink:title=" ">
<path fill="none" stroke="#63b8ff" d="M194.9,-227.49C157.38,-224.01 108.45,-213.51 76.5,-184 57.5,-166.45 61.78,-154.51 57.5,-129 45.67,-58.54 150.77,-27.56 206.8,-16.15"/>
<polygon fill="#63b8ff" stroke="#63b8ff" points="207.5,-19.58 216.65,-14.24 206.17,-12.71 207.5,-19.58"/>
</a>
</g>
</g>
<!-- Node10 -->
<g id="Node000010" class="node">
<title>Node10</title>
<g id="a_Node000010"><a xlink:title=" ">
<polygon fill="#e0e0e0" stroke="#999999" points="961.5,-184 915.5,-184 915.5,-165 961.5,-165 961.5,-184"/>
<text text-anchor="middle" x="938.5" y="-172" font-family="Helvetica,sans-Serif" font-size="10.00">future</text>
</a>
</g>
</g>
<!-- Node2&#45;&gt;Node10 -->
<g id="edge9_Node000002_Node000010" class="edge">
<title>Node2&#45;&gt;Node10</title>
<g id="a_edge9_Node000002_Node000010"><a xlink:title=" ">
<path fill="none" stroke="#63b8ff" d="M302.13,-227.7C414.09,-225.41 680.62,-216.69 901.5,-184 902.75,-183.82 904.01,-183.61 905.29,-183.39"/>
<polygon fill="#63b8ff" stroke="#63b8ff" points="905.98,-186.82 915.12,-181.46 904.63,-179.95 905.98,-186.82"/>
</a>
</g>
</g>
<!-- Node11 -->
<g id="Node000011" class="node">
<title>Node11</title>
<g id="a_Node000011"><a xlink:href="types_8h.html" target="_top" xlink:title=" ">
<polygon fill="white" stroke="#666666" points="321,-74 232,-74 232,-55 321,-55 321,-74"/>
<text text-anchor="middle" x="276.5" y="-62" font-family="Helvetica,sans-Serif" font-size="10.00">Library/types.h</text>
</a>
</g>
</g>
<!-- Node2&#45;&gt;Node11 -->
<g id="edge10_Node000002_Node000011" class="edge">
<title>Node2&#45;&gt;Node11</title>
<g id="a_edge10_Node000002_Node000011"><a xlink:title=" ">
<path fill="none" stroke="#63b8ff" d="M210.53,-219.94C146.02,-203.68 26.14,-164.96 70.5,-110 89.17,-86.86 167.17,-75.17 221.63,-69.71"/>
<polygon fill="#63b8ff" stroke="#63b8ff" points="222.23,-73.17 231.85,-68.73 221.56,-66.2 222.23,-73.17"/>
</a>
</g>
</g>
<!-- Node12 -->
<g id="Node000012" class="node">
<title>Node12</title>
<g id="a_Node000012"><a xlink:href="transaction_8h_source.html" target="_top" xlink:title=" ">
<polygon fill="white" stroke="#666666" points="436,-184 297,-184 297,-165 436,-165 436,-184"/>
<text text-anchor="middle" x="366.5" y="-172" font-family="Helvetica,sans-Serif" font-size="10.00">Transaction/transaction.h</text>
</a>
</g>
</g>
<!-- Node2&#45;&gt;Node12 -->
<g id="edge14_Node000002_Node000012" class="edge">
<title>Node2&#45;&gt;Node12</title>
<g id="a_edge14_Node000002_Node000012"><a xlink:title=" ">
<path fill="none" stroke="#63b8ff" d="M267.46,-219.98C286.53,-211.42 316.16,-198.11 338.05,-188.28"/>
<polygon fill="#63b8ff" stroke="#63b8ff" points="339.51,-191.46 347.2,-184.17 336.64,-185.07 339.51,-191.46"/>
</a>
</g>
</g>
<!-- Node11&#45;&gt;Node4 -->
<g id="edge13_Node000011_Node000004" class="edge">
<title>Node11&#45;&gt;Node4</title>
<g id="a_edge13_Node000011_Node000004"><a xlink:title=" ">
<path fill="none" stroke="#63b8ff" d="M321.02,-56.28C323.89,-55.84 326.73,-55.41 329.5,-55 437.28,-39.03 565.37,-22.23 624.13,-14.65"/>
<polygon fill="#63b8ff" stroke="#63b8ff" points="624.8,-18.09 634.27,-13.34 623.91,-11.15 624.8,-18.09"/>
</a>
</g>
</g>
<!-- Node11&#45;&gt;Node6 -->
<g id="edge12_Node000011_Node000006" class="edge">
<title>Node11&#45;&gt;Node6</title>
<g id="a_edge12_Node000011_Node000006"><a xlink:title=" ">
<path fill="none" stroke="#63b8ff" d="M239.55,-54.98C199.93,-45.86 136.91,-31.33 93.73,-21.38"/>
<polygon fill="#63b8ff" stroke="#63b8ff" points="94.27,-17.92 83.74,-19.08 92.7,-24.74 94.27,-17.92"/>
</a>
</g>
</g>
<!-- Node11&#45;&gt;Node9 -->
<g id="edge11_Node000011_Node000009" class="edge">
<title>Node11&#45;&gt;Node9</title>
<g id="a_edge11_Node000011_Node000009"><a xlink:title=" ">
<path fill="none" stroke="#63b8ff" d="M270.56,-54.75C265.52,-47.34 258.16,-36.5 251.99,-27.41"/>
<polygon fill="#63b8ff" stroke="#63b8ff" points="254.85,-25.39 246.33,-19.09 249.06,-29.33 254.85,-25.39"/>
</a>
</g>
</g>
<!-- Node12&#45;&gt;Node3 -->
<g id="edge18_Node000012_Node000003" class="edge">
<title>Node12&#45;&gt;Node3</title>
<g id="a_edge18_Node000012_Node000003"><a xlink:title=" ">
<path fill="none" stroke="#63b8ff" d="M325.05,-164.98C276.21,-154.95 195.68,-138.41 147.8,-128.57"/>
<polygon fill="#63b8ff" stroke="#63b8ff" points="148.31,-125.11 137.81,-126.52 146.9,-131.96 148.31,-125.11"/>
</a>
</g>
</g>
<!-- Node12&#45;&gt;Node4 -->
<g id="edge15_Node000012_Node000004" class="edge">
<title>Node12&#45;&gt;Node4</title>
<g id="a_edge15_Node000012_Node000004"><a xlink:title=" ">
<path fill="none" stroke="#63b8ff" d="M436.38,-170.44C542.38,-165.08 733.74,-152.28 754.5,-129 762.92,-119.55 776.4,-90 753.5,-55 739.07,-32.95 710.74,-21.67 688.4,-15.99"/>
<polygon fill="#63b8ff" stroke="#63b8ff" points="689.16,-12.57 678.63,-13.76 687.6,-19.4 689.16,-12.57"/>
</a>
</g>
</g>
<!-- Node12&#45;&gt;Node7 -->
<g id="edge20_Node000012_Node000007" class="edge">
<title>Node12&#45;&gt;Node7</title>
<g id="a_edge20_Node000012_Node000007"><a xlink:title=" ">
<path fill="none" stroke="#63b8ff" d="M436.12,-173.95C540.68,-173.35 731.94,-166.88 787.5,-129 802.71,-118.63 811.37,-98.98 815.97,-84.27"/>
<polygon fill="#63b8ff" stroke="#63b8ff" points="819.45,-84.8 818.73,-74.23 812.7,-82.94 819.45,-84.8"/>
</a>
</g>
</g>
<!-- Node12&#45;&gt;Node8 -->
<g id="edge16_Node000012_Node000008" class="edge">
<title>Node12&#45;&gt;Node8</title>
<g id="a_edge16_Node000012_Node000008"><a xlink:title=" ">
<path fill="none" stroke="#63b8ff" d="M342.72,-164.92C327.07,-157.89 307.83,-146.25 298.5,-129 287.45,-108.56 310.84,-90.32 332.18,-78.69"/>
<polygon fill="#63b8ff" stroke="#63b8ff" points="333.79,-81.8 341.1,-74.13 330.6,-75.57 333.79,-81.8"/>
</a>
</g>
</g>
<!-- Node12&#45;&gt;Node9 -->
<g id="edge17_Node000012_Node000009" class="edge">
<title>Node12&#45;&gt;Node9</title>
<g id="a_edge17_Node000012_Node000009"><a xlink:title=" ">
<path fill="none" stroke="#63b8ff" d="M339.53,-164.96C303.97,-151.96 243.47,-123.37 222.5,-74 216.15,-59.04 222.36,-41.16 229.16,-28.19"/>
<polygon fill="#63b8ff" stroke="#63b8ff" points="232.3,-29.77 234.28,-19.36 226.24,-26.26 232.3,-29.77"/>
</a>
</g>
</g>
<!-- Node12&#45;&gt;Node11 -->
<g id="edge23_Node000012_Node000011" class="edge">
<title>Node12&#45;&gt;Node11</title>
<g id="a_edge23_Node000012_Node000011"><a xlink:title=" ">
<path fill="none" stroke="#63b8ff" d="M342.74,-164.91C326.26,-157.75 305.09,-145.98 292.5,-129 282.87,-116.02 279,-97.87 277.47,-84.29"/>
<polygon fill="#63b8ff" stroke="#63b8ff" points="280.94,-83.87 276.65,-74.18 273.97,-84.43 280.94,-83.87"/>
</a>
</g>
</g>
<!-- Node13 -->
<g id="Node000013" class="node">
<title>Node13</title>
<g id="a_Node000013"><a xlink:title=" ">
<polygon fill="#e0e0e0" stroke="#999999" points="355.5,-129 307.5,-129 307.5,-110 355.5,-110 355.5,-129"/>
<text text-anchor="middle" x="331.5" y="-117" font-family="Helvetica,sans-Serif" font-size="10.00">mutex</text>
</a>
</g>
</g>
<!-- Node12&#45;&gt;Node13 -->
<g id="edge19_Node000012_Node000013" class="edge">
<title>Node12&#45;&gt;Node13</title>
<g id="a_edge19_Node000012_Node000013"><a xlink:title=" ">
<path fill="none" stroke="#63b8ff" d="M360.72,-164.75C355.88,-157.42 348.82,-146.73 342.86,-137.7"/>
<polygon fill="#63b8ff" stroke="#63b8ff" points="345.6,-135.5 337.17,-129.09 339.76,-139.36 345.6,-135.5"/>
</a>
</g>
</g>
<!-- Node14 -->
<g id="Node000014" class="node">
<title>Node14</title>
<g id="a_Node000014"><a xlink:title=" ">
<polygon fill="#e0e0e0" stroke="#999999" points="429.5,-129 373.5,-129 373.5,-110 429.5,-110 429.5,-129"/>
<text text-anchor="middle" x="401.5" y="-117" font-family="Helvetica,sans-Serif" font-size="10.00">optional</text>
</a>
</g>
</g>
<!-- Node12&#45;&gt;Node14 -->
<g id="edge21_Node000012_Node000014" class="edge">
<title>Node12&#45;&gt;Node14</title>
<g id="a_edge21_Node000012_Node000014"><a xlink:title=" ">
<path fill="none" stroke="#63b8ff" d="M372.28,-164.75C377.12,-157.42 384.18,-146.73 390.14,-137.7"/>
<polygon fill="#63b8ff" stroke="#63b8ff" points="393.24,-139.36 395.83,-129.09 387.4,-135.5 393.24,-139.36"/>
</a>
</g>
</g>
<!-- Node15 -->
<g id="Node000015" class="node">
<title>Node15</title>
<g id="a_Node000015"><a xlink:title=" ">
<polygon fill="#e0e0e0" stroke="#999999" points="490,-74 425,-74 425,-55 490,-55 490,-74"/>
<text text-anchor="middle" x="457.5" y="-62" font-family="Helvetica,sans-Serif" font-size="10.00">functional</text>
</a>
</g>
</g>
<!-- Node12&#45;&gt;Node15 -->
<g id="edge22_Node000012_Node000015" class="edge">
<title>Node12&#45;&gt;Node15</title>
<g id="a_edge22_Node000012_Node000015"><a xlink:title=" ">
<path fill="none" stroke="#63b8ff" d="M388.73,-164.89C404.75,-157.61 425.72,-145.68 438.5,-129 448.45,-116.01 453.21,-97.86 455.48,-84.29"/>
<polygon fill="#63b8ff" stroke="#63b8ff" points="458.97,-84.56 456.85,-74.18 452.03,-83.62 458.97,-84.56"/>
</a>
</g>
</g>
<!-- Node16 -->
<g id="Node000016" class="node">
<title>Node16</title>
<g id="a_Node000016"><a xlink:href="error_8h.html" target="_top" xlink:title=" ">
<polygon fill="white" stroke="#666666" points="745,-129 660,-129 660,-110 745,-110 745,-129"/>
<text text-anchor="middle" x="702.5" y="-117" font-family="Helvetica,sans-Serif" font-size="10.00">Library/error.h</text>
</a>
</g>
</g>
<!-- Node12&#45;&gt;Node16 -->
<g id="edge24_Node000012_Node000016" class="edge">
<title>Node12&#45;&gt;Node16</title>
<g id="a_edge24_Node000012_Node000016"><a xlink:title=" ">
<path fill="none" stroke="#63b8ff" d="M420.48,-164.98C483.57,-155.03 587.27,-138.68 649.8,-128.81"/>
<polygon fill="#63b8ff" stroke="#63b8ff" points="650.51,-132.24 659.84,-127.23 649.42,-125.33 650.51,-132.24"/>
</a>
</g>
</g>
<!-- Node18 -->
<g id="Node000018" class="node">
<title>Node18</title>
<g id="a_Node000018"><a xlink:href="evaluate_8h.html" target="_top" xlink:title=" ">
<polygon fill="white" stroke="#666666" points="603.5,-129 485.5,-129 485.5,-110 603.5,-110 603.5,-129"/>
<text text-anchor="middle" x="544.5" y="-117" font-family="Helvetica,sans-Serif" font-size="10.00">Evaluator/evaluate.h</text>
</a>
</g>
</g>
<!-- Node12&#45;&gt;Node18 -->
<g id="edge27_Node000012_Node000018" class="edge">
<title>Node12&#45;&gt;Node18</title>
<g id="a_edge27_Node000012_Node000018"><a xlink:title=" ">
<path fill="none" stroke="#63b8ff" d="M395.1,-164.98C425.11,-156.05 472.48,-141.94 505.82,-132.02"/>
<polygon fill="#63b8ff" stroke="#63b8ff" points="507.09,-135.29 515.68,-129.08 505.09,-128.58 507.09,-135.29"/>
</a>
</g>
</g>
<!-- Node16&#45;&gt;Node4 -->
<g id="edge25_Node000016_Node000004" class="edge">
<title>Node16&#45;&gt;Node4</title>
<g id="a_edge25_Node000016_Node000004"><a xlink:title=" ">
<path fill="none" stroke="#63b8ff" d="M696.43,-109.99C690.45,-101.29 681.37,-87.21 675.5,-74 669.07,-59.52 664.06,-42.25 660.8,-29.38"/>
<polygon fill="#63b8ff" stroke="#63b8ff" points="664.14,-28.29 658.4,-19.38 657.33,-29.92 664.14,-28.29"/>
</a>
</g>
</g>
<!-- Node17 -->
<g id="Node000017" class="node">
<title>Node17</title>
<g id="a_Node000017"><a xlink:title=" ">
<polygon fill="#e0e0e0" stroke="#999999" points="744.5,-74 684.5,-74 684.5,-55 744.5,-55 744.5,-74"/>
<text text-anchor="middle" x="714.5" y="-62" font-family="Helvetica,sans-Serif" font-size="10.00">iostream</text>
</a>
</g>
</g>
<!-- Node16&#45;&gt;Node17 -->
<g id="edge26_Node000016_Node000017" class="edge">
<title>Node16&#45;&gt;Node17</title>
<g id="a_edge26_Node000016_Node000017"><a xlink:title=" ">
<path fill="none" stroke="#63b8ff" d="M704.48,-109.75C706.07,-102.72 708.36,-92.62 710.35,-83.84"/>
<polygon fill="#63b8ff" stroke="#63b8ff" points="713.76,-84.62 712.56,-74.09 706.93,-83.07 713.76,-84.62"/>
</a>
</g>
</g>
<!-- Node18&#45;&gt;Node4 -->
<g id="edge30_Node000018_Node000004" class="edge">
<title>Node18&#45;&gt;Node4</title>
<g id="a_edge30_Node000018_Node000004"><a xlink:title=" ">
<path fill="none" stroke="#63b8ff" d="M547.24,-109.72C551.73,-96.49 561.78,-71.26 577.5,-55 590.82,-41.22 609.34,-30.49 625.09,-23.01"/>
<polygon fill="#63b8ff" stroke="#63b8ff" points="626.8,-26.08 634.48,-18.78 623.92,-19.7 626.8,-26.08"/>
</a>
</g>
</g>
<!-- Node18&#45;&gt;Node5 -->
<g id="edge32_Node000018_Node000005" class="edge">
<title>Node18&#45;&gt;Node5</title>
<g id="a_edge32_Node000018_Node000005"><a xlink:title=" ">
<path fill="none" stroke="#63b8ff" d="M554.62,-109.98C563.94,-102.15 577.97,-90.34 589.24,-80.86"/>
<polygon fill="#63b8ff" stroke="#63b8ff" points="591.79,-83.29 597.19,-74.17 587.29,-77.93 591.79,-83.29"/>
</a>
</g>
</g>
<!-- Node18&#45;&gt;Node7 -->
<g id="edge33_Node000018_Node000007" class="edge">
<title>Node18&#45;&gt;Node7</title>
<g id="a_edge33_Node000018_Node000007"><a xlink:title=" ">
<path fill="none" stroke="#63b8ff" d="M588.84,-109.98C645.79,-99.05 743.04,-80.38 791.4,-71.09"/>
<polygon fill="#63b8ff" stroke="#63b8ff" points="792.34,-74.47 801.5,-69.15 791.02,-67.6 792.34,-74.47"/>
</a>
</g>
</g>
<!-- Node18&#45;&gt;Node8 -->
<g id="edge28_Node000018_Node000008" class="edge">
<title>Node18&#45;&gt;Node8</title>
<g id="a_edge28_Node000018_Node000008"><a xlink:title=" ">
<path fill="none" stroke="#63b8ff" d="M515.1,-109.98C482.04,-100.41 428.52,-84.91 394.18,-74.96"/>
<polygon fill="#63b8ff" stroke="#63b8ff" points="394.76,-71.49 384.18,-72.07 392.81,-78.21 394.76,-71.49"/>
</a>
</g>
</g>
<!-- Node18&#45;&gt;Node9 -->
<g id="edge29_Node000018_Node000009" class="edge">
<title>Node18&#45;&gt;Node9</title>
<g id="a_edge29_Node000018_Node000009"><a xlink:title=" ">
<path fill="none" stroke="#63b8ff" d="M540.88,-109.86C534.53,-95.85 519.99,-68.39 498.5,-55 461.56,-31.98 335.52,-18.5 274.35,-13.17"/>
<polygon fill="#63b8ff" stroke="#63b8ff" points="274.32,-9.65 264.06,-12.29 273.73,-16.63 274.32,-9.65"/>
</a>
</g>
</g>
<!-- Node18&#45;&gt;Node11 -->
<g id="edge34_Node000018_Node000011" class="edge">
<title>Node18&#45;&gt;Node11</title>
<g id="a_edge34_Node000018_Node000011"><a xlink:title=" ">
<path fill="none" stroke="#63b8ff" d="M501.44,-109.98C454.79,-100.76 380.3,-86.03 329.94,-76.07"/>
<polygon fill="#63b8ff" stroke="#63b8ff" points="330.39,-72.59 319.9,-74.08 329.03,-79.46 330.39,-72.59"/>
</a>
</g>
</g>
<!-- Node18&#45;&gt;Node15 -->
<g id="edge31_Node000018_Node000015" class="edge">
<title>Node18&#45;&gt;Node15</title>
<g id="a_edge31_Node000018_Node000015"><a xlink:title=" ">
<path fill="none" stroke="#63b8ff" d="M530.52,-109.98C517.03,-101.77 496.37,-89.18 480.46,-79.49"/>
<polygon fill="#63b8ff" stroke="#63b8ff" points="482.09,-76.38 471.73,-74.17 478.45,-82.36 482.09,-76.38"/>
</a>
</g>
</g>
</g>
</svg>
