<?xml version="1.0" encoding="UTF-8" standalone="no"?>
<!DOCTYPE svg PUBLIC "-//W3C//DTD SVG 1.1//EN"
 "http://www.w3.org/Graphics/SVG/1.1/DTD/svg11.dtd">
<!-- Generated by graphviz version 2.43.0 (0)
 -->
<!-- Title: src/Channel/channel.cpp Pages: 1 -->
<svg width="1157pt" height="302pt"
 viewBox="0.00 0.00 1156.50 302.00" xmlns="http://www.w3.org/2000/svg" xmlns:xlink="http://www.w3.org/1999/xlink">
<g id="graph0" class="graph" transform="scale(1 1) rotate(0) translate(4 298)">
<title>src/Channel/channel.cpp</title>
<!-- Node1 -->
<g id="Node000001" class="node">
<title>Node1</title>
<g id="a_Node000001"><a xlink:title=" ">
<polygon fill="#999999" stroke="#666666" points="519,-294 384,-294 384,-275 519,-275 519,-294"/>
<text text-anchor="middle" x="451.5" y="-282" font-family="Helvetica,sans-Serif" font-size="10.00">src/Channel/channel.cpp</text>
</a>
</g>
</g>
<!-- Node2 -->
<g id="Node000002" class="node">
<title>Node2</title>
<g id="a_Node000002"><a xlink:href="channel_8h.html" target="_top" xlink:title=" ">
<polygon fill="white" stroke="#666666" points="505,-239 398,-239 398,-220 505,-220 505,-239"/>
<text text-anchor="middle" x="451.5" y="-227" font-family="Helvetica,sans-Serif" font-size="10.00">Channel/channel.h</text>
</a>
</g>
</g>
<!-- Node1&#45;&gt;Node2 -->
<g id="edge1_Node000001_Node000002" class="edge">
<title>Node1&#45;&gt;Node2</title>
<g id="a_edge1_Node000001_Node000002"><a xlink:title=" ">
<path fill="none" stroke="#63b8ff" d="M451.5,-274.75C451.5,-267.8 451.5,-257.85 451.5,-249.13"/>
<polygon fill="#63b8ff" stroke="#63b8ff" points="455,-249.09 451.5,-239.09 448,-249.09 455,-249.09"/>
</a>
</g>
</g>
<!-- Node3 -->
<g id="Node000003" class="node">
<title>Node3</title>
<g id="a_Node000003"><a xlink:title=" ">
<polygon fill="#e0e0e0" stroke="#999999" points="53,-184 0,-184 0,-165 53,-165 53,-184"/>
<text text-anchor="middle" x="26.5" y="-172" font-family="Helvetica,sans-Serif" font-size="10.00">iterator</text>
</a>
</g>
</g>
<!-- Node2&#45;&gt;Node3 -->
<g id="edge2_Node000002_Node000003" class="edge">
<title>Node2&#45;&gt;Node3</title>
<g id="a_edge2_Node000002_Node000003"><a xlink:title=" ">
<path fill="none" stroke="#63b8ff" d="M397.87,-223.81C323.45,-216.95 184.77,-202.91 67.5,-184 66.21,-183.79 64.9,-183.57 63.57,-183.34"/>
<polygon fill="#63b8ff" stroke="#63b8ff" points="63.82,-179.82 53.34,-181.42 62.53,-186.7 63.82,-179.82"/>
</a>
</g>
</g>
<!-- Node4 -->
<g id="Node000004" class="node">
<title>Node4</title>
<g id="a_Node000004"><a xlink:title=" ">
<polygon fill="#e0e0e0" stroke="#999999" points="243.5,-129 185.5,-129 185.5,-110 243.5,-110 243.5,-129"/>
<text text-anchor="middle" x="214.5" y="-117" font-family="Helvetica,sans-Serif" font-size="10.00">memory</text>
</a>
</g>
</g>
<!-- Node2&#45;&gt;Node4 -->
<g id="edge3_Node000002_Node000004" class="edge">
<title>Node2&#45;&gt;Node4</title>
<g id="a_edge3_Node000002_Node000004"><a xlink:title=" ">
<path fill="none" stroke="#63b8ff" d="M432.51,-219.84C390.89,-200.88 291.48,-155.58 242.6,-133.31"/>
<polygon fill="#63b8ff" stroke="#63b8ff" points="243.81,-130.01 233.26,-129.05 240.9,-136.38 243.81,-130.01"/>
</a>
</g>
</g>
<!-- Node5 -->
<g id="Node000005" class="node">
<title>Node5</title>
<g id="a_Node000005"><a xlink:title=" ">
<polygon fill="#e0e0e0" stroke="#999999" points="473.5,-19 429.5,-19 429.5,0 473.5,0 473.5,-19"/>
<text text-anchor="middle" x="451.5" y="-7" font-family="Helvetica,sans-Serif" font-size="10.00">string</text>
</a>
</g>
</g>
<!-- Node2&#45;&gt;Node5 -->
<g id="edge4_Node000002_Node000005" class="edge">
<title>Node2&#45;&gt;Node5</title>
<g id="a_edge4_Node000002_Node000005"><a xlink:title=" ">
<path fill="none" stroke="#63b8ff" d="M397.86,-223.58C335.57,-217.05 237.42,-203.95 206.5,-184 181.53,-167.89 177.35,-157.36 168.5,-129 135.87,-24.37 338.52,-11.38 419.31,-10.31"/>
<polygon fill="#63b8ff" stroke="#63b8ff" points="419.45,-13.81 429.42,-10.23 419.4,-6.81 419.45,-13.81"/>
</a>
</g>
</g>
<!-- Node6 -->
<g id="Node000006" class="node">
<title>Node6</title>
<g id="a_Node000006"><a xlink:title=" ">
<polygon fill="#e0e0e0" stroke="#999999" points="1046,-74 1005,-74 1005,-55 1046,-55 1046,-74"/>
<text text-anchor="middle" x="1025.5" y="-62" font-family="Helvetica,sans-Serif" font-size="10.00">tuple</text>
</a>
</g>
</g>
<!-- Node2&#45;&gt;Node6 -->
<g id="edge5_Node000002_Node000006" class="edge">
<title>Node2&#45;&gt;Node6</title>
<g id="a_edge5_Node000002_Node000006"><a xlink:title=" ">
<path fill="none" stroke="#63b8ff" d="M505.19,-229.18C582.37,-228.66 728.31,-222.07 845.5,-184 912.83,-162.13 978.96,-107.85 1008.89,-81.02"/>
<polygon fill="#63b8ff" stroke="#63b8ff" points="1011.3,-83.55 1016.34,-74.23 1006.59,-78.38 1011.3,-83.55"/>
</a>
</g>
</g>
<!-- Node7 -->
<g id="Node000007" class="node">
<title>Node7</title>
<g id="a_Node000007"><a xlink:title=" ">
<polygon fill="#e0e0e0" stroke="#999999" points="270,-19 177,-19 177,0 270,0 270,-19"/>
<text text-anchor="middle" x="223.5" y="-7" font-family="Helvetica,sans-Serif" font-size="10.00">unordered_map</text>
</a>
</g>
</g>
<!-- Node2&#45;&gt;Node7 -->
<g id="edge6_Node000002_Node000007" class="edge">
<title>Node2&#45;&gt;Node7</title>
<g id="a_edge6_Node000002_Node000007"><a xlink:title=" ">
<path fill="none" stroke="#63b8ff" d="M397.75,-226.08C328.31,-221.91 212.53,-211.01 180.5,-184 136.62,-147 145.35,-104.44 174.5,-55 181.36,-43.36 192.26,-33.03 202.03,-25.26"/>
<polygon fill="#63b8ff" stroke="#63b8ff" points="204.31,-27.92 210.2,-19.12 200.11,-22.32 204.31,-27.92"/>
</a>
</g>
</g>
<!-- Node8 -->
<g id="Node000008" class="node">
<title>Node8</title>
<g id="a_Node000008"><a xlink:title=" ">
<polygon fill="#e0e0e0" stroke="#999999" points="625.5,-74 587.5,-74 587.5,-55 625.5,-55 625.5,-74"/>
<text text-anchor="middle" x="606.5" y="-62" font-family="Helvetica,sans-Serif" font-size="10.00">map</text>
</a>
</g>
</g>
<!-- Node2&#45;&gt;Node8 -->
<g id="edge7_Node000002_Node000008" class="edge">
<title>Node2&#45;&gt;Node8</title>
<g id="a_edge7_Node000002_Node000008"><a xlink:title=" ">
<path fill="none" stroke="#63b8ff" d="M459.29,-219.79C470.34,-207.48 491.26,-184.33 509.5,-165 537.73,-135.08 571.39,-100.88 590.72,-81.37"/>
<polygon fill="#63b8ff" stroke="#63b8ff" points="593.28,-83.76 597.84,-74.19 588.31,-78.82 593.28,-83.76"/>
</a>
</g>
</g>
<!-- Node9 -->
<g id="Node000009" class="node">
<title>Node9</title>
<g id="a_Node000009"><a xlink:title=" ">
<polygon fill="#e0e0e0" stroke="#999999" points="940,-74 895,-74 895,-55 940,-55 940,-74"/>
<text text-anchor="middle" x="917.5" y="-62" font-family="Helvetica,sans-Serif" font-size="10.00">utility</text>
</a>
</g>
</g>
<!-- Node2&#45;&gt;Node9 -->
<g id="edge8_Node000002_Node000009" class="edge">
<title>Node2&#45;&gt;Node9</title>
<g id="a_edge8_Node000002_Node000009"><a xlink:title=" ">
<path fill="none" stroke="#63b8ff" d="M505.05,-225.31C616.45,-217.42 867.09,-192.84 918.5,-129 928.43,-116.67 926.91,-98.19 923.65,-84.34"/>
<polygon fill="#63b8ff" stroke="#63b8ff" points="926.94,-83.11 920.86,-74.43 920.2,-85.01 926.94,-83.11"/>
</a>
</g>
</g>
<!-- Node10 -->
<g id="Node000010" class="node">
<title>Node10</title>
<g id="a_Node000010"><a xlink:title=" ">
<polygon fill="#e0e0e0" stroke="#999999" points="945,-19 898,-19 898,0 945,0 945,-19"/>
<text text-anchor="middle" x="921.5" y="-7" font-family="Helvetica,sans-Serif" font-size="10.00">vector</text>
</a>
</g>
</g>
<!-- Node2&#45;&gt;Node10 -->
<g id="edge9_Node000002_Node000010" class="edge">
<title>Node2&#45;&gt;Node10</title>
<g id="a_edge9_Node000002_Node000010"><a xlink:title=" ">
<path fill="none" stroke="#63b8ff" d="M505.33,-225.73C604.46,-220.17 812.04,-206.24 880.5,-184 967.87,-155.62 1012.73,-155.3 1055.5,-74 1077.17,-32.8 1001.37,-18.12 954.99,-13.05"/>
<polygon fill="#63b8ff" stroke="#63b8ff" points="955.32,-9.57 945.02,-12.06 954.62,-16.53 955.32,-9.57"/>
</a>
</g>
</g>
<!-- Node11 -->
<g id="Node000011" class="node">
<title>Node11</title>
<g id="a_Node000011"><a xlink:title=" ">
<polygon fill="#e0e0e0" stroke="#999999" points="1148.5,-184 1102.5,-184 1102.5,-165 1148.5,-165 1148.5,-184"/>
<text text-anchor="middle" x="1125.5" y="-172" font-family="Helvetica,sans-Serif" font-size="10.00">future</text>
</a>
</g>
</g>
<!-- Node2&#45;&gt;Node11 -->
<g id="edge10_Node000002_Node000011" class="edge">
<title>Node2&#45;&gt;Node11</title>
<g id="a_edge10_Node000002_Node000011"><a xlink:title=" ">
<path fill="none" stroke="#63b8ff" d="M505.08,-227.58C615.02,-225.06 873.86,-215.95 1088.5,-184 1089.75,-183.81 1091.01,-183.61 1092.29,-183.39"/>
<polygon fill="#63b8ff" stroke="#63b8ff" points="1092.98,-186.82 1102.12,-181.45 1091.63,-179.95 1092.98,-186.82"/>
</a>
</g>
</g>
<!-- Node12 -->
<g id="Node000012" class="node">
<title>Node12</title>
<g id="a_Node000012"><a xlink:title=" ">
<polygon fill="#e0e0e0" stroke="#999999" points="301.5,-74 241.5,-74 241.5,-55 301.5,-55 301.5,-74"/>
<text text-anchor="middle" x="271.5" y="-62" font-family="Helvetica,sans-Serif" font-size="10.00">iostream</text>
</a>
</g>
</g>
<!-- Node2&#45;&gt;Node12 -->
<g id="edge11_Node000002_Node000012" class="edge">
<title>Node2&#45;&gt;Node12</title>
<g id="a_edge11_Node000002_Node000012"><a xlink:title=" ">
<path fill="none" stroke="#63b8ff" d="M397.93,-226.74C332.8,-221.35 225.5,-201.28 176.5,-129 159.15,-103.4 198.15,-85.44 231.31,-75.3"/>
<polygon fill="#63b8ff" stroke="#63b8ff" points="232.71,-78.54 241.34,-72.4 230.76,-71.81 232.71,-78.54"/>
</a>
</g>
</g>
<!-- Node13 -->
<g id="Node000013" class="node">
<title>Node13</title>
<g id="a_Node000013"><a xlink:href="types_8h.html" target="_top" xlink:title=" ">
<polygon fill="white" stroke="#666666" points="569,-74 480,-74 480,-55 569,-55 569,-74"/>
<text text-anchor="middle" x="524.5" y="-62" font-family="Helvetica,sans-Serif" font-size="10.00">Library/types.h</text>
</a>
</g>
</g>
<!-- Node2&#45;&gt;Node13 -->
<g id="edge12_Node000002_Node000013" class="edge">
<title>Node2&#45;&gt;Node13</title>
<g id="a_edge12_Node000002_Node000013"><a xlink:title=" ">
<path fill="none" stroke="#63b8ff" d="M451.46,-219.83C451.72,-199.33 454.55,-146.87 475.5,-110 482.17,-98.25 493.05,-87.91 502.86,-80.16"/>
<polygon fill="#63b8ff" stroke="#63b8ff" points="505.15,-82.82 511.08,-74.05 500.97,-77.21 505.15,-82.82"/>
</a>
</g>
</g>
<!-- Node14 -->
<g id="Node000014" class="node">
<title>Node14</title>
<g id="a_Node000014"><a xlink:href="transaction_8h_source.html" target="_top" xlink:title=" ">
<polygon fill="white" stroke="#666666" points="657,-184 518,-184 518,-165 657,-165 657,-184"/>
<text text-anchor="middle" x="587.5" y="-172" font-family="Helvetica,sans-Serif" font-size="10.00">Transaction/transaction.h</text>
</a>
</g>
</g>
<!-- Node2&#45;&gt;Node14 -->
<g id="edge16_Node000002_Node000014" class="edge">
<title>Node2&#45;&gt;Node14</title>
<g id="a_edge16_Node000002_Node000014"><a xlink:title=" ">
<path fill="none" stroke="#63b8ff" d="M473.35,-219.98C495.62,-211.3 530.4,-197.75 555.72,-187.88"/>
<polygon fill="#63b8ff" stroke="#63b8ff" points="557.21,-191.06 565.25,-184.17 554.66,-184.54 557.21,-191.06"/>
</a>
</g>
</g>
<!-- Node13&#45;&gt;Node5 -->
<g id="edge15_Node000013_Node000005" class="edge">
<title>Node13&#45;&gt;Node5</title>
<g id="a_edge15_Node000013_Node000005"><a xlink:title=" ">
<path fill="none" stroke="#63b8ff" d="M512.77,-54.98C501.77,-47 485.08,-34.88 471.9,-25.31"/>
<polygon fill="#63b8ff" stroke="#63b8ff" points="473.59,-22.21 463.44,-19.17 469.48,-27.88 473.59,-22.21"/>
</a>
</g>
</g>
<!-- Node13&#45;&gt;Node7 -->
<g id="edge14_Node000013_Node000007" class="edge">
<title>Node13&#45;&gt;Node7</title>
<g id="a_edge14_Node000013_Node000007"><a xlink:title=" ">
<path fill="none" stroke="#63b8ff" d="M479.76,-55.62C426.69,-46.28 338.15,-30.69 280.29,-20.5"/>
<polygon fill="#63b8ff" stroke="#63b8ff" points="280.67,-17.01 270.22,-18.73 279.46,-23.91 280.67,-17.01"/>
</a>
</g>
</g>
<!-- Node13&#45;&gt;Node10 -->
<g id="edge13_Node000013_Node000010" class="edge">
<title>Node13&#45;&gt;Node10</title>
<g id="a_edge13_Node000013_Node000010"><a xlink:title=" ">
<path fill="none" stroke="#63b8ff" d="M569.27,-56.36C572.4,-55.89 575.49,-55.43 578.5,-55 691.48,-38.78 825.79,-22.11 887.46,-14.61"/>
<polygon fill="#63b8ff" stroke="#63b8ff" points="888.26,-18.03 897.77,-13.35 887.42,-11.09 888.26,-18.03"/>
</a>
</g>
</g>
<!-- Node14&#45;&gt;Node4 -->
<g id="edge21_Node000014_Node000004" class="edge">
<title>Node14&#45;&gt;Node4</title>
<g id="a_edge21_Node000014_Node000004"><a xlink:title=" ">
<path fill="none" stroke="#63b8ff" d="M517.79,-165.35C450.87,-157.24 347.04,-143.87 257.5,-129 256.23,-128.79 254.95,-128.57 253.65,-128.34"/>
<polygon fill="#63b8ff" stroke="#63b8ff" points="254.07,-124.86 243.6,-126.5 252.81,-131.75 254.07,-124.86"/>
</a>
</g>
</g>
<!-- Node14&#45;&gt;Node5 -->
<g id="edge18_Node000014_Node000005" class="edge">
<title>Node14&#45;&gt;Node5</title>
<g id="a_edge18_Node000014_Node000005"><a xlink:title=" ">
<path fill="none" stroke="#63b8ff" d="M573.11,-164.98C548.66,-149.78 498.98,-115.63 471.5,-74 462.55,-60.44 457.39,-42.61 454.57,-29.3"/>
<polygon fill="#63b8ff" stroke="#63b8ff" points="457.99,-28.56 452.71,-19.38 451.11,-29.85 457.99,-28.56"/>
</a>
</g>
</g>
<!-- Node14&#45;&gt;Node8 -->
<g id="edge23_Node000014_Node000008" class="edge">
<title>Node14&#45;&gt;Node8</title>
<g id="a_edge23_Node000014_Node000008"><a xlink:title=" ">
<path fill="none" stroke="#63b8ff" d="M585.59,-164.73C583.23,-152.36 580.03,-129.13 584.5,-110 586.7,-100.57 591.21,-90.85 595.57,-82.91"/>
<polygon fill="#63b8ff" stroke="#63b8ff" points="598.62,-84.64 600.66,-74.24 592.58,-81.09 598.62,-84.64"/>
</a>
</g>
</g>
<!-- Node14&#45;&gt;Node9 -->
<g id="edge19_Node000014_Node000009" class="edge">
<title>Node14&#45;&gt;Node9</title>
<g id="a_edge19_Node000014_Node000009"><a xlink:title=" ">
<path fill="none" stroke="#63b8ff" d="M657.32,-172.05C737.76,-168.95 863.37,-159.26 898.5,-129 911.3,-117.98 915.66,-98.72 917.06,-84.3"/>
<polygon fill="#63b8ff" stroke="#63b8ff" points="920.57,-84.2 917.65,-74.01 913.59,-83.8 920.57,-84.2"/>
</a>
</g>
</g>
<!-- Node14&#45;&gt;Node10 -->
<g id="edge20_Node000014_Node000010" class="edge">
<title>Node14&#45;&gt;Node10</title>
<g id="a_edge20_Node000014_Node000010"><a xlink:title=" ">
<path fill="none" stroke="#63b8ff" d="M657.33,-171.32C741.6,-167.48 877.16,-157.01 918.5,-129 948.02,-109 959.38,-89.26 949.5,-55 946.63,-45.06 940.82,-35.2 935.22,-27.29"/>
<polygon fill="#63b8ff" stroke="#63b8ff" points="938,-25.16 929.17,-19.3 932.42,-29.39 938,-25.16"/>
</a>
</g>
</g>
<!-- Node14&#45;&gt;Node12 -->
<g id="edge17_Node000014_Node000012" class="edge">
<title>Node14&#45;&gt;Node12</title>
<g id="a_edge17_Node000014_Node000012"><a xlink:title=" ">
<path fill="none" stroke="#63b8ff" d="M517.69,-171.36C441.09,-167.61 324.58,-157.28 291.5,-129 278.61,-117.98 273.92,-98.72 272.27,-84.3"/>
<polygon fill="#63b8ff" stroke="#63b8ff" points="275.74,-83.72 271.5,-74.01 268.76,-84.25 275.74,-83.72"/>
</a>
</g>
</g>
<!-- Node14&#45;&gt;Node13 -->
<g id="edge26_Node000014_Node000013" class="edge">
<title>Node14&#45;&gt;Node13</title>
<g id="a_edge26_Node000014_Node000013"><a xlink:title=" ">
<path fill="none" stroke="#63b8ff" d="M582.34,-164.66C571.96,-146.85 548.34,-106.37 534.71,-83.01"/>
<polygon fill="#63b8ff" stroke="#63b8ff" points="537.61,-81.03 529.55,-74.16 531.57,-84.56 537.61,-81.03"/>
</a>
</g>
</g>
<!-- Node15 -->
<g id="Node000015" class="node">
<title>Node15</title>
<g id="a_Node000015"><a xlink:title=" ">
<polygon fill="#e0e0e0" stroke="#999999" points="641.5,-129 593.5,-129 593.5,-110 641.5,-110 641.5,-129"/>
<text text-anchor="middle" x="617.5" y="-117" font-family="Helvetica,sans-Serif" font-size="10.00">mutex</text>
</a>
</g>
</g>
<!-- Node14&#45;&gt;Node15 -->
<g id="edge22_Node000014_Node000015" class="edge">
<title>Node14&#45;&gt;Node15</title>
<g id="a_edge22_Node000014_Node000015"><a xlink:title=" ">
<path fill="none" stroke="#63b8ff" d="M592.45,-164.75C596.56,-157.49 602.53,-146.95 607.6,-137.98"/>
<polygon fill="#63b8ff" stroke="#63b8ff" points="610.76,-139.52 612.64,-129.09 604.67,-136.07 610.76,-139.52"/>
</a>
</g>
</g>
<!-- Node16 -->
<g id="Node000016" class="node">
<title>Node16</title>
<g id="a_Node000016"><a xlink:title=" ">
<polygon fill="#e0e0e0" stroke="#999999" points="715.5,-129 659.5,-129 659.5,-110 715.5,-110 715.5,-129"/>
<text text-anchor="middle" x="687.5" y="-117" font-family="Helvetica,sans-Serif" font-size="10.00">optional</text>
</a>
</g>
</g>
<!-- Node14&#45;&gt;Node16 -->
<g id="edge24_Node000014_Node000016" class="edge">
<title>Node14&#45;&gt;Node16</title>
<g id="a_edge24_Node000014_Node000016"><a xlink:title=" ">
<path fill="none" stroke="#63b8ff" d="M603.57,-164.98C619.36,-156.61 643.72,-143.7 662.13,-133.95"/>
<polygon fill="#63b8ff" stroke="#63b8ff" points="663.94,-136.95 671.14,-129.17 660.67,-130.76 663.94,-136.95"/>
</a>
</g>
</g>
<!-- Node17 -->
<g id="Node000017" class="node">
<title>Node17</title>
<g id="a_Node000017"><a xlink:title=" ">
<polygon fill="#e0e0e0" stroke="#999999" points="779,-74 714,-74 714,-55 779,-55 779,-74"/>
<text text-anchor="middle" x="746.5" y="-62" font-family="Helvetica,sans-Serif" font-size="10.00">functional</text>
</a>
</g>
</g>
<!-- Node14&#45;&gt;Node17 -->
<g id="edge25_Node000014_Node000017" class="edge">
<title>Node14&#45;&gt;Node17</title>
<g id="a_edge25_Node000014_Node000017"><a xlink:title=" ">
<path fill="none" stroke="#63b8ff" d="M652.94,-164.95C678.07,-158.69 705.31,-147.82 724.5,-129 736.59,-117.14 742.05,-98.31 744.5,-84.23"/>
<polygon fill="#63b8ff" stroke="#63b8ff" points="747.99,-84.56 745.9,-74.18 741.05,-83.6 747.99,-84.56"/>
</a>
</g>
</g>
<!-- Node18 -->
<g id="Node000018" class="node">
<title>Node18</title>
<g id="a_Node000018"><a xlink:href="error_8h.html" target="_top" xlink:title=" ">
<polygon fill="white" stroke="#666666" points="385,-129 300,-129 300,-110 385,-110 385,-129"/>
<text text-anchor="middle" x="342.5" y="-117" font-family="Helvetica,sans-Serif" font-size="10.00">Library/error.h</text>
</a>
</g>
</g>
<!-- Node14&#45;&gt;Node18 -->
<g id="edge27_Node000014_Node000018" class="edge">
<title>Node14&#45;&gt;Node18</title>
<g id="a_edge27_Node000014_Node000018"><a xlink:title=" ">
<path fill="none" stroke="#63b8ff" d="M548.14,-164.98C505.76,-155.82 438.24,-141.21 392.22,-131.26"/>
<polygon fill="#63b8ff" stroke="#63b8ff" points="392.69,-127.78 382.17,-129.08 391.21,-134.62 392.69,-127.78"/>
</a>
</g>
</g>
<!-- Node19 -->
<g id="Node000019" class="node">
<title>Node19</title>
<g id="a_Node000019"><a xlink:href="evaluate_8h.html" target="_top" xlink:title=" ">
<polygon fill="white" stroke="#666666" points="889.5,-129 771.5,-129 771.5,-110 889.5,-110 889.5,-129"/>
<text text-anchor="middle" x="830.5" y="-117" font-family="Helvetica,sans-Serif" font-size="10.00">Evaluator/evaluate.h</text>
</a>
</g>
</g>
<!-- Node14&#45;&gt;Node19 -->
<g id="edge30_Node000014_Node000019" class="edge">
<title>Node14&#45;&gt;Node19</title>
<g id="a_edge30_Node000014_Node000019"><a xlink:title=" ">
<path fill="none" stroke="#63b8ff" d="M626.54,-164.98C668.58,-155.82 735.54,-141.21 781.18,-131.26"/>
<polygon fill="#63b8ff" stroke="#63b8ff" points="782.13,-134.63 791.15,-129.08 780.64,-127.79 782.13,-134.63"/>
</a>
</g>
</g>
<!-- Node18&#45;&gt;Node5 -->
<g id="edge28_Node000018_Node000005" class="edge">
<title>Node18&#45;&gt;Node5</title>
<g id="a_edge28_Node000018_Node000005"><a xlink:title=" ">
<path fill="none" stroke="#63b8ff" d="M351.42,-109.66C369.79,-91.46 412.09,-49.55 435.38,-26.47"/>
<polygon fill="#63b8ff" stroke="#63b8ff" points="438.12,-28.68 442.76,-19.16 433.19,-23.71 438.12,-28.68"/>
</a>
</g>
</g>
<!-- Node18&#45;&gt;Node12 -->
<g id="edge29_Node000018_Node000012" class="edge">
<title>Node18&#45;&gt;Node12</title>
<g id="a_edge29_Node000018_Node000012"><a xlink:title=" ">
<path fill="none" stroke="#63b8ff" d="M331.09,-109.98C320.39,-102 304.16,-89.88 291.34,-80.31"/>
<polygon fill="#63b8ff" stroke="#63b8ff" points="293.22,-77.35 283.11,-74.17 289.03,-82.96 293.22,-77.35"/>
</a>
</g>
</g>
<!-- Node19&#45;&gt;Node5 -->
<g id="edge33_Node000019_Node000005" class="edge">
<title>Node19&#45;&gt;Node5</title>
<g id="a_edge33_Node000019_Node000005"><a xlink:title=" ">
<path fill="none" stroke="#63b8ff" d="M827.47,-109.78C822.07,-95.65 809.34,-68.04 788.5,-55 738.07,-23.46 558.1,-14 483.87,-11.4"/>
<polygon fill="#63b8ff" stroke="#63b8ff" points="483.82,-7.9 473.71,-11.07 483.59,-14.89 483.82,-7.9"/>
</a>
</g>
</g>
<!-- Node19&#45;&gt;Node6 -->
<g id="edge35_Node000019_Node000006" class="edge">
<title>Node19&#45;&gt;Node6</title>
<g id="a_edge35_Node000019_Node000006"><a xlink:title=" ">
<path fill="none" stroke="#63b8ff" d="M861.83,-109.98C898.38,-100.05 958.42,-83.73 994.73,-73.86"/>
<polygon fill="#63b8ff" stroke="#63b8ff" points="996.01,-77.14 1004.74,-71.14 994.17,-70.39 996.01,-77.14"/>
</a>
</g>
</g>
<!-- Node19&#45;&gt;Node8 -->
<g id="edge36_Node000019_Node000008" class="edge">
<title>Node19&#45;&gt;Node8</title>
<g id="a_edge36_Node000019_Node000008"><a xlink:title=" ">
<path fill="none" stroke="#63b8ff" d="M794.51,-109.98C750.25,-99.51 676.02,-81.95 635.33,-72.32"/>
<polygon fill="#63b8ff" stroke="#63b8ff" points="636.05,-68.89 625.51,-70 634.43,-75.71 636.05,-68.89"/>
</a>
</g>
</g>
<!-- Node19&#45;&gt;Node9 -->
<g id="edge31_Node000019_Node000009" class="edge">
<title>Node19&#45;&gt;Node9</title>
<g id="a_edge31_Node000019_Node000009"><a xlink:title=" ">
<path fill="none" stroke="#63b8ff" d="M844.48,-109.98C857.97,-101.77 878.63,-89.18 894.54,-79.49"/>
<polygon fill="#63b8ff" stroke="#63b8ff" points="896.55,-82.36 903.27,-74.17 892.91,-76.38 896.55,-82.36"/>
</a>
</g>
</g>
<!-- Node19&#45;&gt;Node10 -->
<g id="edge32_Node000019_Node000010" class="edge">
<title>Node19&#45;&gt;Node10</title>
<g id="a_edge32_Node000019_Node000010"><a xlink:title=" ">
<path fill="none" stroke="#63b8ff" d="M837.95,-109.66C853.15,-91.61 887.98,-50.28 907.53,-27.08"/>
<polygon fill="#63b8ff" stroke="#63b8ff" points="910.44,-29.06 914.2,-19.16 905.08,-24.55 910.44,-29.06"/>
</a>
</g>
</g>
<!-- Node19&#45;&gt;Node13 -->
<g id="edge37_Node000019_Node000013" class="edge">
<title>Node19&#45;&gt;Node13</title>
<g id="a_edge37_Node000019_Node000013"><a xlink:title=" ">
<path fill="none" stroke="#63b8ff" d="M781.34,-109.98C726.03,-100.41 636.46,-84.89 579.04,-74.95"/>
<polygon fill="#63b8ff" stroke="#63b8ff" points="579.51,-71.48 569.06,-73.22 578.32,-78.37 579.51,-71.48"/>
</a>
</g>
</g>
<!-- Node19&#45;&gt;Node17 -->
<g id="edge34_Node000019_Node000017" class="edge">
<title>Node19&#45;&gt;Node17</title>
<g id="a_edge34_Node000019_Node000017"><a xlink:title=" ">
<path fill="none" stroke="#63b8ff" d="M817,-109.98C804.1,-101.84 784.4,-89.41 769.1,-79.76"/>
<polygon fill="#63b8ff" stroke="#63b8ff" points="770.57,-76.55 760.24,-74.17 766.83,-82.47 770.57,-76.55"/>
</a>
</g>
</g>
</g>
</svg>
