<?xml version="1.0" encoding="UTF-8" standalone="no"?>
<!DOCTYPE svg PUBLIC "-//W3C//DTD SVG 1.1//EN"
 "http://www.w3.org/Graphics/SVG/1.1/DTD/svg11.dtd">
<!-- Generated by graphviz version 2.43.0 (0)
 -->
<!-- Title: src/Channel/channel.cpp Pages: 1 -->
<!--zoomable 302 -->

<svg id="main" version="1.1" xmlns="http://www.w3.org/2000/svg" xmlns:xlink="http://www.w3.org/1999/xlink" xml:space="preserve" onload="init(evt)">
<style type="text/css"><![CDATA[
.node, .edge {opacity: 0.7;}
.node.selected, .edge.selected {opacity: 1;}
.edge:hover path { stroke: red; }
.edge:hover polygon { stroke: red; fill: red; }
]]></style>

<defs>
  <circle id="rim" cx="0" cy="0" r="7"/>
  <circle id="rim2" cx="0" cy="0" r="3.5"/>
  <g id="zoomPlus">
    <use xlink:href="#rim" fill="#404040"><set attributeName="fill" to="#808080" begin="zoomplus.mouseover" end="zoomplus.mouseout"/></use>
    <path d="M-4,0h8M0,-4v8" fill="none" stroke="white" stroke-width="1.5" pointer-events="none"/>
  </g>
  <g id="zoomMin">
    <use xlink:href="#rim" fill="#404040"><set attributeName="fill" to="#808080" begin="zoomminus.mouseover" end="zoomminus.mouseout"/></use>
    <path d="M-4,0h8" fill="none" stroke="white" stroke-width="1.5" pointer-events="none"/>
  </g>
  <g id="arrowUp" transform="translate(30 24)">
    <use xlink:href="#rim"/>
    <path pointer-events="none" fill="none" stroke="white" stroke-width="1.5" d="M0,-3.0v7 M-2.5,-0.5L0,-3.0L2.5,-0.5"/>
  </g>
  <g id="arrowRight" transform="rotate(90) translate(36 -43)">
    <use xlink:href="#rim"/>
    <path pointer-events="none" fill="none" stroke="white" stroke-width="1.5" d="M0,-3.0v7 M-2.5,-0.5L0,-3.0L2.5,-0.5"/>
  </g>
  <g id="arrowDown" transform="rotate(180) translate(-30 -48)">
    <use xlink:href="#rim"/>
    <path pointer-events="none" fill="none" stroke="white" stroke-width="1.5" d="M0,-3.0v7 M-2.5,-0.5L0,-3.0L2.5,-0.5"/>
  </g>
  <g id="arrowLeft" transform="rotate(270) translate(-36 17)">
    <use xlink:href="#rim"/>
    <path pointer-events="none" fill="none" stroke="white" stroke-width="1.5" d="M0,-3.0v7 M-2.5,-0.5L0,-3.0L2.5,-0.5"/>
  </g>
  <g id="resetDef">
    <use xlink:href="#rim2" fill="#404040"><set attributeName="fill" to="#808080" begin="reset.mouseover" end="reset.mouseout"/></use>
  </g>
</defs>
<script type="application/ecmascript">
var viewWidth = 1051;
var viewHeight = 302;
var sectionId = 'dynsection-0';
</script>
<script type="application/ecmascript" xlink:href="svg.min.js"/>
<svg id="graph" class="graph">
<g id="viewport">
<title>src/Channel/channel.cpp</title>
<!-- Node1 -->
<g id="Node000001" class="node">
<title>Node1</title>
<g id="a_Node000001"><a xlink:title=" ">
<polygon fill="#999999" stroke="#666666" points="358,-294 223,-294 223,-275 358,-275 358,-294"/>
<text text-anchor="middle" x="290.5" y="-282" font-family="Helvetica,sans-Serif" font-size="10.00">src/Channel/channel.cpp</text>
</a>
</g>
</g>
<!-- Node2 -->
<g id="Node000002" class="node">
<title>Node2</title>
<g id="a_Node000002"><a xlink:href="channel_8h.html" target="_top" xlink:title=" ">
<polygon fill="white" stroke="#666666" points="344,-239 237,-239 237,-220 344,-220 344,-239"/>
<text text-anchor="middle" x="290.5" y="-227" font-family="Helvetica,sans-Serif" font-size="10.00">Channel/channel.h</text>
</a>
</g>
</g>
<!-- Node1&#45;&gt;Node2 -->
<g id="edge1_Node000001_Node000002" class="edge">
<title>Node1&#45;&gt;Node2</title>
<g id="a_edge1_Node000001_Node000002"><a xlink:title=" ">
<path fill="none" stroke="#63b8ff" d="M290.5,-274.75C290.5,-267.8 290.5,-257.85 290.5,-249.13"/>
<polygon fill="#63b8ff" stroke="#63b8ff" points="294,-249.09 290.5,-239.09 287,-249.09 294,-249.09"/>
</a>
</g>
</g>
<!-- Node3 -->
<g id="Node000003" class="node">
<title>Node3</title>
<g id="a_Node000003"><a xlink:title=" ">
<polygon fill="#e0e0e0" stroke="#999999" points="53,-184 0,-184 0,-165 53,-165 53,-184"/>
<text text-anchor="middle" x="26.5" y="-172" font-family="Helvetica,sans-Serif" font-size="10.00">iterator</text>
</a>
</g>
</g>
<!-- Node2&#45;&gt;Node3 -->
<g id="edge2_Node000002_Node000003" class="edge">
<title>Node2&#45;&gt;Node3</title>
<g id="a_edge2_Node000002_Node000003"><a xlink:title=" ">
<path fill="none" stroke="#63b8ff" d="M247.31,-219.98C202.38,-211.09 129.98,-196.71 67.5,-184 66.22,-183.74 64.91,-183.47 63.6,-183.2"/>
<polygon fill="#63b8ff" stroke="#63b8ff" points="63.9,-179.69 53.4,-181.11 62.49,-186.55 63.9,-179.69"/>
</a>
</g>
</g>
<!-- Node4 -->
<g id="Node000004" class="node">
<title>Node4</title>
<g id="a_Node000004"><a xlink:title=" ">
<polygon fill="#e0e0e0" stroke="#999999" points="319.5,-129 261.5,-129 261.5,-110 319.5,-110 319.5,-129"/>
<text text-anchor="middle" x="290.5" y="-117" font-family="Helvetica,sans-Serif" font-size="10.00">memory</text>
</a>
</g>
</g>
<!-- Node2&#45;&gt;Node4 -->
<g id="edge3_Node000002_Node000004" class="edge">
<title>Node2&#45;&gt;Node4</title>
<g id="a_edge3_Node000002_Node000004"><a xlink:title=" ">
<path fill="none" stroke="#63b8ff" d="M290.5,-219.66C290.5,-202.17 290.5,-162.8 290.5,-139.27"/>
<polygon fill="#63b8ff" stroke="#63b8ff" points="294,-139.16 290.5,-129.16 287,-139.16 294,-139.16"/>
</a>
</g>
</g>
<!-- Node5 -->
<g id="Node000005" class="node">
<title>Node5</title>
<g id="a_Node000005"><a xlink:title=" ">
<polygon fill="#e0e0e0" stroke="#999999" points="385.5,-129 337.5,-129 337.5,-110 385.5,-110 385.5,-129"/>
<text text-anchor="middle" x="361.5" y="-117" font-family="Helvetica,sans-Serif" font-size="10.00">mutex</text>
</a>
</g>
</g>
<!-- Node2&#45;&gt;Node5 -->
<g id="edge4_Node000002_Node000005" class="edge">
<title>Node2&#45;&gt;Node5</title>
<g id="a_edge4_Node000002_Node000005"><a xlink:title=" ">
<path fill="none" stroke="#63b8ff" d="M296.31,-219.66C308.07,-201.77 334.87,-161 350.2,-137.69"/>
<polygon fill="#63b8ff" stroke="#63b8ff" points="353.24,-139.44 355.81,-129.16 347.39,-135.59 353.24,-139.44"/>
</a>
</g>
</g>
<!-- Node6 -->
<g id="Node000006" class="node">
<title>Node6</title>
<g id="a_Node000006"><a xlink:title=" ">
<polygon fill="#e0e0e0" stroke="#999999" points="835.5,-19 791.5,-19 791.5,0 835.5,0 835.5,-19"/>
<text text-anchor="middle" x="813.5" y="-7" font-family="Helvetica,sans-Serif" font-size="10.00">string</text>
</a>
</g>
</g>
<!-- Node2&#45;&gt;Node6 -->
<g id="edge5_Node000002_Node000006" class="edge">
<title>Node2&#45;&gt;Node6</title>
<g id="a_edge5_Node000002_Node000006"><a xlink:title=" ">
<path fill="none" stroke="#63b8ff" d="M344.06,-228.94C494.54,-229.02 916.31,-220.86 1011.5,-129 1036.1,-105.26 1054.13,-81.47 1032.5,-55 1009.31,-26.62 901.1,-15.9 845.96,-12.22"/>
<polygon fill="#63b8ff" stroke="#63b8ff" points="845.89,-8.71 835.69,-11.58 845.45,-15.7 845.89,-8.71"/>
</a>
</g>
</g>
<!-- Node7 -->
<g id="Node000007" class="node">
<title>Node7</title>
<g id="a_Node000007"><a xlink:title=" ">
<polygon fill="#e0e0e0" stroke="#999999" points="251,-74 210,-74 210,-55 251,-55 251,-74"/>
<text text-anchor="middle" x="230.5" y="-62" font-family="Helvetica,sans-Serif" font-size="10.00">tuple</text>
</a>
</g>
</g>
<!-- Node2&#45;&gt;Node7 -->
<g id="edge6_Node000002_Node000007" class="edge">
<title>Node2&#45;&gt;Node7</title>
<g id="a_edge6_Node000002_Node000007"><a xlink:title=" ">
<path fill="none" stroke="#63b8ff" d="M237.38,-219.97C216.33,-213.7 194.15,-202.83 181.5,-184 163.16,-156.7 168.19,-140.07 181.5,-110 186.82,-97.97 197.18,-87.8 207.01,-80.24"/>
<polygon fill="#63b8ff" stroke="#63b8ff" points="209.26,-82.93 215.37,-74.27 205.2,-77.23 209.26,-82.93"/>
</a>
</g>
</g>
<!-- Node8 -->
<g id="Node000008" class="node">
<title>Node8</title>
<g id="a_Node000008"><a xlink:title=" ">
<polygon fill="#e0e0e0" stroke="#999999" points="275,-19 182,-19 182,0 275,0 275,-19"/>
<text text-anchor="middle" x="228.5" y="-7" font-family="Helvetica,sans-Serif" font-size="10.00">unordered_map</text>
</a>
</g>
</g>
<!-- Node2&#45;&gt;Node8 -->
<g id="edge7_Node000002_Node000008" class="edge">
<title>Node2&#45;&gt;Node8</title>
<g id="a_edge7_Node000002_Node000008"><a xlink:title=" ">
<path fill="none" stroke="#63b8ff" d="M236.56,-222.88C187.92,-216.57 121.6,-204.43 105.5,-184 70.02,-138.97 72.57,-101.93 105.5,-55 120.57,-33.52 147.11,-22.36 171.68,-16.59"/>
<polygon fill="#63b8ff" stroke="#63b8ff" points="172.62,-19.97 181.69,-14.49 171.19,-13.11 172.62,-19.97"/>
</a>
</g>
</g>
<!-- Node9 -->
<g id="Node000009" class="node">
<title>Node9</title>
<g id="a_Node000009"><a xlink:title=" ">
<polygon fill="#e0e0e0" stroke="#999999" points="475.5,-74 437.5,-74 437.5,-55 475.5,-55 475.5,-74"/>
<text text-anchor="middle" x="456.5" y="-62" font-family="Helvetica,sans-Serif" font-size="10.00">map</text>
</a>
</g>
</g>
<!-- Node2&#45;&gt;Node9 -->
<g id="edge8_Node000002_Node000009" class="edge">
<title>Node2&#45;&gt;Node9</title>
<g id="a_edge8_Node000002_Node000009"><a xlink:title=" ">
<path fill="none" stroke="#63b8ff" d="M282.72,-219.74C264.92,-198.59 224.79,-143.99 252.5,-110 302.67,-48.45 350.45,-93.18 427.5,-74 427.6,-73.98 427.7,-73.95 427.8,-73.93"/>
<polygon fill="#63b8ff" stroke="#63b8ff" points="428.47,-77.37 437.22,-71.39 426.65,-70.61 428.47,-77.37"/>
</a>
</g>
</g>
<!-- Node10 -->
<g id="Node000010" class="node">
<title>Node10</title>
<g id="a_Node000010"><a xlink:title=" ">
<polygon fill="#e0e0e0" stroke="#999999" points="785,-74 740,-74 740,-55 785,-55 785,-74"/>
<text text-anchor="middle" x="762.5" y="-62" font-family="Helvetica,sans-Serif" font-size="10.00">utility</text>
</a>
</g>
</g>
<!-- Node2&#45;&gt;Node10 -->
<g id="edge9_Node000002_Node000010" class="edge">
<title>Node2&#45;&gt;Node10</title>
<g id="a_edge9_Node000002_Node000010"><a xlink:title=" ">
<path fill="none" stroke="#63b8ff" d="M344.29,-227.75C445.51,-225.56 660.02,-217.05 725.5,-184 754.99,-169.11 763.59,-159.81 775.5,-129 781.2,-114.26 776.73,-96.58 771.54,-83.62"/>
<polygon fill="#63b8ff" stroke="#63b8ff" points="774.68,-82.08 767.4,-74.39 768.3,-84.95 774.68,-82.08"/>
</a>
</g>
</g>
<!-- Node11 -->
<g id="Node000011" class="node">
<title>Node11</title>
<g id="a_Node000011"><a xlink:title=" ">
<polygon fill="#e0e0e0" stroke="#999999" points="463,-19 416,-19 416,0 463,0 463,-19"/>
<text text-anchor="middle" x="439.5" y="-7" font-family="Helvetica,sans-Serif" font-size="10.00">vector</text>
</a>
</g>
</g>
<!-- Node2&#45;&gt;Node11 -->
<g id="edge10_Node000002_Node000011" class="edge">
<title>Node2&#45;&gt;Node11</title>
<g id="a_edge10_Node000002_Node000011"><a xlink:title=" ">
<path fill="none" stroke="#63b8ff" d="M236.92,-222.94C211.79,-217.33 184.01,-206.17 168.5,-184 134.64,-135.6 152.69,-89.69 200.5,-55 232.82,-31.55 347.94,-18.45 405.79,-13.22"/>
<polygon fill="#63b8ff" stroke="#63b8ff" points="406.24,-16.69 415.9,-12.33 405.63,-9.72 406.24,-16.69"/>
</a>
</g>
</g>
<!-- Node12 -->
<g id="Node000012" class="node">
<title>Node12</title>
<g id="a_Node000012"><a xlink:title=" ">
<polygon fill="#e0e0e0" stroke="#999999" points="716.5,-184 670.5,-184 670.5,-165 716.5,-165 716.5,-184"/>
<text text-anchor="middle" x="693.5" y="-172" font-family="Helvetica,sans-Serif" font-size="10.00">future</text>
</a>
</g>
</g>
<!-- Node2&#45;&gt;Node12 -->
<g id="edge11_Node000002_Node000012" class="edge">
<title>Node2&#45;&gt;Node12</title>
<g id="a_edge11_Node000002_Node000012"><a xlink:title=" ">
<path fill="none" stroke="#63b8ff" d="M344.15,-224.29C414.45,-218.28 541.71,-205.7 660.18,-183.79"/>
<polygon fill="#63b8ff" stroke="#63b8ff" points="660.97,-187.21 670.15,-181.92 659.68,-180.33 660.97,-187.21"/>
</a>
</g>
</g>
<!-- Node13 -->
<g id="Node000013" class="node">
<title>Node13</title>
<g id="a_Node000013"><a xlink:title=" ">
<polygon fill="#e0e0e0" stroke="#999999" points="1023.5,-74 963.5,-74 963.5,-55 1023.5,-55 1023.5,-74"/>
<text text-anchor="middle" x="993.5" y="-62" font-family="Helvetica,sans-Serif" font-size="10.00">iostream</text>
</a>
</g>
</g>
<!-- Node2&#45;&gt;Node13 -->
<g id="edge12_Node000002_Node000013" class="edge">
<title>Node2&#45;&gt;Node13</title>
<g id="a_edge12_Node000002_Node000013"><a xlink:title=" ">
<path fill="none" stroke="#63b8ff" d="M344.07,-225.1C501.45,-214.54 953.9,-179.96 994.5,-129 1004.37,-116.62 1002.85,-98.14 999.61,-84.31"/>
<polygon fill="#63b8ff" stroke="#63b8ff" points="1002.91,-83.1 996.84,-74.42 996.17,-84.99 1002.91,-83.1"/>
</a>
</g>
</g>
<!-- Node14 -->
<g id="Node000014" class="node">
<title>Node14</title>
<g id="a_Node000014"><a xlink:href="types_8h.html" target="_top" xlink:title=" ">
<polygon fill="white" stroke="#666666" points="419,-74 330,-74 330,-55 419,-55 419,-74"/>
<text text-anchor="middle" x="374.5" y="-62" font-family="Helvetica,sans-Serif" font-size="10.00">Library/types.h</text>
</a>
</g>
</g>
<!-- Node2&#45;&gt;Node14 -->
<g id="edge13_Node000002_Node000014" class="edge">
<title>Node2&#45;&gt;Node14</title>
<g id="a_edge13_Node000002_Node000014"><a xlink:title=" ">
<path fill="none" stroke="#63b8ff" d="M264.99,-219.9C248.81,-212.96 229.15,-201.44 219.5,-184 203.57,-155.22 199.71,-136.27 219.5,-110 231.81,-93.66 280.56,-81.48 320.15,-74.03"/>
<polygon fill="#63b8ff" stroke="#63b8ff" points="320.77,-77.47 329.99,-72.24 319.52,-70.58 320.77,-77.47"/>
</a>
</g>
</g>
<!-- Node15 -->
<g id="Node000015" class="node">
<title>Node15</title>
<g id="a_Node000015"><a xlink:href="transaction_8h_source.html" target="_top" xlink:title=" ">
<polygon fill="white" stroke="#666666" points="652,-184 513,-184 513,-165 652,-165 652,-184"/>
<text text-anchor="middle" x="582.5" y="-172" font-family="Helvetica,sans-Serif" font-size="10.00">Transaction/transaction.h</text>
</a>
</g>
</g>
<!-- Node2&#45;&gt;Node15 -->
<g id="edge17_Node000002_Node000015" class="edge">
<title>Node2&#45;&gt;Node15</title>
<g id="a_edge17_Node000002_Node000015"><a xlink:title=" ">
<path fill="none" stroke="#63b8ff" d="M337.41,-219.98C388.56,-210.7 470.42,-195.84 525.3,-185.88"/>
<polygon fill="#63b8ff" stroke="#63b8ff" points="526,-189.31 535.22,-184.08 524.75,-182.42 526,-189.31"/>
</a>
</g>
</g>
<!-- Node14&#45;&gt;Node6 -->
<g id="edge16_Node000014_Node000006" class="edge">
<title>Node14&#45;&gt;Node6</title>
<g id="a_edge16_Node000014_Node000006"><a xlink:title=" ">
<path fill="none" stroke="#63b8ff" d="M419.27,-56.31C422.39,-55.85 425.49,-55.41 428.5,-55 558.91,-37.21 714.81,-20.62 781.11,-13.79"/>
<polygon fill="#63b8ff" stroke="#63b8ff" points="781.73,-17.24 791.32,-12.74 781.02,-10.28 781.73,-17.24"/>
</a>
</g>
</g>
<!-- Node14&#45;&gt;Node8 -->
<g id="edge15_Node000014_Node000008" class="edge">
<title>Node14&#45;&gt;Node8</title>
<g id="a_edge15_Node000014_Node000008"><a xlink:title=" ">
<path fill="none" stroke="#63b8ff" d="M351.04,-54.98C326.92,-46.23 289.13,-32.51 261.9,-22.62"/>
<polygon fill="#63b8ff" stroke="#63b8ff" points="262.98,-19.29 252.38,-19.17 260.59,-25.87 262.98,-19.29"/>
</a>
</g>
</g>
<!-- Node14&#45;&gt;Node11 -->
<g id="edge14_Node000014_Node000011" class="edge">
<title>Node14&#45;&gt;Node11</title>
<g id="a_edge14_Node000014_Node000011"><a xlink:title=" ">
<path fill="none" stroke="#63b8ff" d="M384.94,-54.98C394.65,-47.07 409.32,-35.11 421,-25.58"/>
<polygon fill="#63b8ff" stroke="#63b8ff" points="423.33,-28.2 428.87,-19.17 418.9,-22.78 423.33,-28.2"/>
</a>
</g>
</g>
<!-- Node15&#45;&gt;Node4 -->
<g id="edge23_Node000015_Node000004" class="edge">
<title>Node15&#45;&gt;Node4</title>
<g id="a_edge23_Node000015_Node000004"><a xlink:title=" ">
<path fill="none" stroke="#63b8ff" d="M529.34,-164.93C480.07,-156.82 404.49,-143.95 329.6,-129.14"/>
<polygon fill="#63b8ff" stroke="#63b8ff" points="330.01,-125.66 319.52,-127.14 328.64,-132.52 330.01,-125.66"/>
</a>
</g>
</g>
<!-- Node15&#45;&gt;Node5 -->
<g id="edge19_Node000015_Node000005" class="edge">
<title>Node15&#45;&gt;Node5</title>
<g id="a_edge19_Node000015_Node000005"><a xlink:title=" ">
<path fill="none" stroke="#63b8ff" d="M546.99,-164.98C505.26,-154.98 436.51,-138.49 395.46,-128.64"/>
<polygon fill="#63b8ff" stroke="#63b8ff" points="396.2,-125.22 385.66,-126.29 394.56,-132.03 396.2,-125.22"/>
</a>
</g>
</g>
<!-- Node15&#45;&gt;Node6 -->
<g id="edge20_Node000015_Node000006" class="edge">
<title>Node15&#45;&gt;Node6</title>
<g id="a_edge20_Node000015_Node000006"><a xlink:title=" ">
<path fill="none" stroke="#63b8ff" d="M650.51,-164.99C698.44,-157.7 757.23,-145.7 775.5,-129 803.98,-102.97 811.22,-55.59 812.99,-29.32"/>
<polygon fill="#63b8ff" stroke="#63b8ff" points="816.49,-29.33 813.47,-19.18 809.5,-29 816.49,-29.33"/>
</a>
</g>
</g>
<!-- Node15&#45;&gt;Node9 -->
<g id="edge24_Node000015_Node000009" class="edge">
<title>Node15&#45;&gt;Node9</title>
<g id="a_edge24_Node000015_Node000009"><a xlink:title=" ">
<path fill="none" stroke="#63b8ff" d="M533.61,-164.96C511.33,-158.64 486.43,-147.73 470.5,-129 460.1,-116.77 456.93,-98.54 456.17,-84.74"/>
<polygon fill="#63b8ff" stroke="#63b8ff" points="459.67,-84.37 456,-74.43 452.67,-84.49 459.67,-84.37"/>
</a>
</g>
</g>
<!-- Node15&#45;&gt;Node10 -->
<g id="edge21_Node000015_Node000010" class="edge">
<title>Node15&#45;&gt;Node10</title>
<g id="a_edge21_Node000015_Node000010"><a xlink:title=" ">
<path fill="none" stroke="#63b8ff" d="M646.27,-164.97C689.79,-157.76 742.06,-145.89 756.5,-129 766.95,-116.78 767.47,-98 765.97,-84.02"/>
<polygon fill="#63b8ff" stroke="#63b8ff" points="769.42,-83.44 764.48,-74.07 762.5,-84.48 769.42,-83.44"/>
</a>
</g>
</g>
<!-- Node15&#45;&gt;Node11 -->
<g id="edge22_Node000015_Node000011" class="edge">
<title>Node15&#45;&gt;Node11</title>
<g id="a_edge22_Node000015_Node000011"><a xlink:title=" ">
<path fill="none" stroke="#63b8ff" d="M593.41,-164.77C617.89,-144.14 672.82,-91.4 643.5,-55 622.49,-28.92 525.54,-17.3 473.21,-12.86"/>
<polygon fill="#63b8ff" stroke="#63b8ff" points="473.32,-9.36 463.07,-12.04 472.76,-16.34 473.32,-9.36"/>
</a>
</g>
</g>
<!-- Node15&#45;&gt;Node13 -->
<g id="edge18_Node000015_Node000013" class="edge">
<title>Node15&#45;&gt;Node13</title>
<g id="a_edge18_Node000015_Node000013"><a xlink:title=" ">
<path fill="none" stroke="#63b8ff" d="M652.25,-165.82C764.51,-153.44 972.96,-130.28 974.5,-129 987.45,-118.16 991.8,-98.88 993.15,-84.4"/>
<polygon fill="#63b8ff" stroke="#63b8ff" points="996.66,-84.24 993.7,-74.07 989.67,-83.87 996.66,-84.24"/>
</a>
</g>
</g>
<!-- Node15&#45;&gt;Node14 -->
<g id="edge27_Node000015_Node000014" class="edge">
<title>Node15&#45;&gt;Node14</title>
<g id="a_edge27_Node000015_Node000014"><a xlink:title=" ">
<path fill="none" stroke="#63b8ff" d="M550,-164.96C524.06,-157.44 487.26,-145.16 457.5,-129 432.79,-115.58 407.58,-95.13 391.53,-81.09"/>
<polygon fill="#63b8ff" stroke="#63b8ff" points="393.82,-78.44 384.02,-74.4 389.16,-83.67 393.82,-78.44"/>
</a>
</g>
</g>
<!-- Node16 -->
<g id="Node000016" class="node">
<title>Node16</title>
<g id="a_Node000016"><a xlink:title=" ">
<polygon fill="#e0e0e0" stroke="#999999" points="747.5,-129 691.5,-129 691.5,-110 747.5,-110 747.5,-129"/>
<text text-anchor="middle" x="719.5" y="-117" font-family="Helvetica,sans-Serif" font-size="10.00">optional</text>
</a>
</g>
</g>
<!-- Node15&#45;&gt;Node16 -->
<g id="edge25_Node000015_Node000016" class="edge">
<title>Node15&#45;&gt;Node16</title>
<g id="a_edge25_Node000015_Node000016"><a xlink:title=" ">
<path fill="none" stroke="#63b8ff" d="M604.51,-164.98C626.95,-156.3 661.98,-142.75 687.49,-132.88"/>
<polygon fill="#63b8ff" stroke="#63b8ff" points="689.02,-136.04 697.09,-129.17 686.5,-129.51 689.02,-136.04"/>
</a>
</g>
</g>
<!-- Node17 -->
<g id="Node000017" class="node">
<title>Node17</title>
<g id="a_Node000017"><a xlink:title=" ">
<polygon fill="#e0e0e0" stroke="#999999" points="635,-74 570,-74 570,-55 635,-55 635,-74"/>
<text text-anchor="middle" x="602.5" y="-62" font-family="Helvetica,sans-Serif" font-size="10.00">functional</text>
</a>
</g>
</g>
<!-- Node15&#45;&gt;Node17 -->
<g id="edge26_Node000015_Node000017" class="edge">
<title>Node15&#45;&gt;Node17</title>
<g id="a_edge26_Node000015_Node000017"><a xlink:title=" ">
<path fill="none" stroke="#63b8ff" d="M588.87,-164.84C594.76,-156.25 603.11,-142.45 606.5,-129 610.22,-114.26 608.78,-97 606.66,-84.21"/>
<polygon fill="#63b8ff" stroke="#63b8ff" points="610.07,-83.43 604.73,-74.28 603.2,-84.77 610.07,-83.43"/>
</a>
</g>
</g>
<!-- Node18 -->
<g id="Node000018" class="node">
<title>Node18</title>
<g id="a_Node000018"><a xlink:href="error_8h.html" target="_top" xlink:title=" ">
<polygon fill="white" stroke="#666666" points="965,-129 880,-129 880,-110 965,-110 965,-129"/>
<text text-anchor="middle" x="922.5" y="-117" font-family="Helvetica,sans-Serif" font-size="10.00">Library/error.h</text>
</a>
</g>
</g>
<!-- Node15&#45;&gt;Node18 -->
<g id="edge28_Node000015_Node000018" class="edge">
<title>Node15&#45;&gt;Node18</title>
<g id="a_edge28_Node000015_Node000018"><a xlink:title=" ">
<path fill="none" stroke="#63b8ff" d="M637.13,-164.98C701.14,-155.01 806.48,-138.59 869.7,-128.73"/>
<polygon fill="#63b8ff" stroke="#63b8ff" points="870.51,-132.15 879.85,-127.15 869.43,-125.23 870.51,-132.15"/>
</a>
</g>
</g>
<!-- Node19 -->
<g id="Node000019" class="node">
<title>Node19</title>
<g id="a_Node000019"><a xlink:href="evaluate_8h.html" target="_top" xlink:title=" ">
<polygon fill="white" stroke="#666666" points="597.5,-129 479.5,-129 479.5,-110 597.5,-110 597.5,-129"/>
<text text-anchor="middle" x="538.5" y="-117" font-family="Helvetica,sans-Serif" font-size="10.00">Evaluator/evaluate.h</text>
</a>
</g>
</g>
<!-- Node15&#45;&gt;Node19 -->
<g id="edge31_Node000015_Node000019" class="edge">
<title>Node15&#45;&gt;Node19</title>
<g id="a_edge31_Node000015_Node000019"><a xlink:title=" ">
<path fill="none" stroke="#63b8ff" d="M575.23,-164.75C568.96,-157.18 559.71,-146.05 552.07,-136.84"/>
<polygon fill="#63b8ff" stroke="#63b8ff" points="554.71,-134.55 545.63,-129.09 549.33,-139.02 554.71,-134.55"/>
</a>
</g>
</g>
<!-- Node18&#45;&gt;Node6 -->
<g id="edge29_Node000018_Node000006" class="edge">
<title>Node18&#45;&gt;Node6</title>
<g id="a_edge29_Node000018_Node000006"><a xlink:title=" ">
<path fill="none" stroke="#63b8ff" d="M913.58,-109.66C895.21,-91.46 852.91,-49.55 829.62,-26.47"/>
<polygon fill="#63b8ff" stroke="#63b8ff" points="831.81,-23.71 822.24,-19.16 826.88,-28.68 831.81,-23.71"/>
</a>
</g>
</g>
<!-- Node18&#45;&gt;Node13 -->
<g id="edge30_Node000018_Node000013" class="edge">
<title>Node18&#45;&gt;Node13</title>
<g id="a_edge30_Node000018_Node000013"><a xlink:title=" ">
<path fill="none" stroke="#63b8ff" d="M933.91,-109.98C944.61,-102 960.84,-89.88 973.66,-80.31"/>
<polygon fill="#63b8ff" stroke="#63b8ff" points="975.97,-82.96 981.89,-74.17 971.78,-77.35 975.97,-82.96"/>
</a>
</g>
</g>
<!-- Node19&#45;&gt;Node6 -->
<g id="edge34_Node000019_Node000006" class="edge">
<title>Node19&#45;&gt;Node6</title>
<g id="a_edge34_Node000019_Node000006"><a xlink:title=" ">
<path fill="none" stroke="#63b8ff" d="M538.86,-109.56C539.94,-95.64 544.16,-68.92 560.5,-55 593.24,-27.1 720.31,-15.98 780.95,-12.19"/>
<polygon fill="#63b8ff" stroke="#63b8ff" points="781.34,-15.68 791.12,-11.59 780.93,-8.69 781.34,-15.68"/>
</a>
</g>
</g>
<!-- Node19&#45;&gt;Node7 -->
<g id="edge36_Node000019_Node000007" class="edge">
<title>Node19&#45;&gt;Node7</title>
<g id="a_edge36_Node000019_Node000007"><a xlink:title=" ">
<path fill="none" stroke="#63b8ff" d="M489.01,-109.98C424.77,-98.93 314.57,-79.97 261.22,-70.79"/>
<polygon fill="#63b8ff" stroke="#63b8ff" points="261.79,-67.33 251.34,-69.09 260.6,-74.23 261.79,-67.33"/>
</a>
</g>
</g>
<!-- Node19&#45;&gt;Node9 -->
<g id="edge37_Node000019_Node000009" class="edge">
<title>Node19&#45;&gt;Node9</title>
<g id="a_edge37_Node000019_Node000009"><a xlink:title=" ">
<path fill="none" stroke="#63b8ff" d="M525.33,-109.98C512.73,-101.84 493.5,-89.41 478.56,-79.76"/>
<polygon fill="#63b8ff" stroke="#63b8ff" points="480.21,-76.66 469.91,-74.17 476.41,-82.54 480.21,-76.66"/>
</a>
</g>
</g>
<!-- Node19&#45;&gt;Node10 -->
<g id="edge32_Node000019_Node000010" class="edge">
<title>Node19&#45;&gt;Node10</title>
<g id="a_edge32_Node000019_Node000010"><a xlink:title=" ">
<path fill="none" stroke="#63b8ff" d="M574.49,-109.98C617.47,-99.81 688.73,-82.95 730.07,-73.17"/>
<polygon fill="#63b8ff" stroke="#63b8ff" points="730.98,-76.55 739.9,-70.85 729.37,-69.74 730.98,-76.55"/>
</a>
</g>
</g>
<!-- Node19&#45;&gt;Node11 -->
<g id="edge33_Node000019_Node000011" class="edge">
<title>Node19&#45;&gt;Node11</title>
<g id="a_edge33_Node000019_Node000011"><a xlink:title=" ">
<path fill="none" stroke="#63b8ff" d="M531.39,-109.67C521.28,-97.21 502.02,-73.89 484.5,-55 475.35,-45.13 464.65,-34.52 455.98,-26.13"/>
<polygon fill="#63b8ff" stroke="#63b8ff" points="458.33,-23.54 448.69,-19.14 453.49,-28.59 458.33,-23.54"/>
</a>
</g>
</g>
<!-- Node19&#45;&gt;Node14 -->
<g id="edge38_Node000019_Node000014" class="edge">
<title>Node19&#45;&gt;Node14</title>
<g id="a_edge38_Node000019_Node000014"><a xlink:title=" ">
<path fill="none" stroke="#63b8ff" d="M512.15,-109.98C484.74,-101.13 441.61,-87.19 410.94,-77.28"/>
<polygon fill="#63b8ff" stroke="#63b8ff" points="411.65,-73.83 401.06,-74.08 409.5,-80.49 411.65,-73.83"/>
</a>
</g>
</g>
<!-- Node19&#45;&gt;Node17 -->
<g id="edge35_Node000019_Node000017" class="edge">
<title>Node19&#45;&gt;Node17</title>
<g id="a_edge35_Node000019_Node000017"><a xlink:title=" ">
<path fill="none" stroke="#63b8ff" d="M548.78,-109.98C558.34,-102.07 572.78,-90.11 584.28,-80.58"/>
<polygon fill="#63b8ff" stroke="#63b8ff" points="586.56,-83.24 592.03,-74.17 582.1,-77.85 586.56,-83.24"/>
</a>
</g>
</g>
</g>
</svg>

<g id="navigator" transform="translate(0 0)" fill="#404254">
  <rect fill="#f2f5e9" fill-opacity="0.5" stroke="#606060" stroke-width=".5" x="0" y="0" width="60" height="60"/>
  <use id="zoomplus" xlink:href="#zoomPlus" x="17" y="9" onmousedown="handleZoom(evt,'in')"/>
  <use id="zoomminus" xlink:href="#zoomMin" x="42" y="9" onmousedown="handleZoom(evt,'out')"/>
  <use id="reset" xlink:href="#resetDef" x="30" y="36" onmousedown="handleReset()"/>
   <use id="arrowup" xlink:href="#arrowUp" x="0" y="0" onmousedown="handlePan(0,-1)"/>
  <use id="arrowright" xlink:href="#arrowRight" x="0" y="0" onmousedown="handlePan(1,0)"/>
  <use id="arrowdown" xlink:href="#arrowDown" x="0" y="0" onmousedown="handlePan(0,1)"/>
  <use id="arrowleft" xlink:href="#arrowLeft" x="0" y="0" onmousedown="handlePan(-1,0)"/>
</g>
<svg viewBox="0 0 15 15" width="100%" height="30px" preserveAspectRatio="xMaxYMin meet">
 <g id="arrow_out" transform="scale(0.3 0.3)">
  <a xlink:href="channel_8cpp__incl_org.svg" target="_base">
   <rect id="button" ry="5" rx="5" y="6" x="6" height="38" width="38"
        fill="#f2f5e9" fill-opacity="0.5" stroke="#606060" stroke-width="1.0"/>
   <path id="arrow"
     d="M 11.500037,31.436501 C 11.940474,20.09759 22.043105,11.32322 32.158766,21.979434 L 37.068811,17.246167 C 37.068811,17.246167 37.088388,32 37.088388,32 L 22.160133,31.978069 C 22.160133,31.978069 26.997745,27.140456 26.997745,27.140456 C 18.528582,18.264221 13.291696,25.230495 11.500037,31.436501 z"
     style="fill:#404040;"/>
  </a>
 </g>
</svg>

<style type='text/css'>
<![CDATA[
[data-mouse-over-selected='false'] { opacity: 0.7; }
[data-mouse-over-selected='true']  { opacity: 1.0; }
]]>
</style>
<script type="application/ecmascript"><![CDATA[
document.addEventListener('DOMContentLoaded', (event) => {
  highlightEdges();
  highlightAdjacentNodes();
});
]]></script>
</svg>
