<?xml version="1.0" encoding="UTF-8" standalone="no"?>
<!DOCTYPE svg PUBLIC "-//W3C//DTD SVG 1.1//EN"
 "http://www.w3.org/Graphics/SVG/1.1/DTD/svg11.dtd">
<!-- Generated by graphviz version 2.43.0 (0)
 -->
<!-- Title: include/Channel/channel.h Pages: 1 -->
<svg width="1080pt" height="599pt"
 viewBox="0.00 0.00 1079.50 599.00" xmlns="http://www.w3.org/2000/svg" xmlns:xlink="http://www.w3.org/1999/xlink">
<g id="graph0" class="graph" transform="scale(1 1) rotate(0) translate(4 595)">
<title>include/Channel/channel.h</title>
<!-- Node1 -->
<g id="Node000001" class="node">
<title>Node1</title>
<g id="a_Node000001"><a xlink:title=" ">
<polygon fill="#999999" stroke="#666666" points="744.5,-591 599.5,-591 599.5,-572 744.5,-572 744.5,-591"/>
<text text-anchor="middle" x="672" y="-579" font-family="Helvetica,sans-Serif" font-size="10.00">include/Channel/channel.h</text>
</a>
</g>
</g>
<!-- Node2 -->
<g id="Node000002" class="node">
<title>Node2</title>
<g id="a_Node000002"><a xlink:href="driverModel_8h.html" target="_top" xlink:title=" ">
<polygon fill="white" stroke="#666666" points="585.5,-536 424.5,-536 424.5,-517 585.5,-517 585.5,-536"/>
<text text-anchor="middle" x="505" y="-524" font-family="Helvetica,sans-Serif" font-size="10.00">include/Drivers/driverModel.h</text>
</a>
</g>
</g>
<!-- Node1&#45;&gt;Node2 -->
<g id="edge1_Node000001_Node000002" class="edge">
<title>Node1&#45;&gt;Node2</title>
<g id="a_edge1_Node000001_Node000002"><a xlink:title=" ">
<path fill="none" stroke="#63b8ff" d="M635.54,-568.93C604.34,-559.03 560.16,-545.01 532.04,-536.08"/>
<polygon fill="#63b8ff" stroke="#63b8ff" points="634.58,-572.3 645.17,-571.98 636.7,-565.62 634.58,-572.3"/>
</a>
</g>
</g>
<!-- Node5 -->
<g id="Node000005" class="node">
<title>Node5</title>
<g id="a_Node000005"><a xlink:href="mlvp_8h.html" target="_top" xlink:title=" ">
<polygon fill="white" stroke="#666666" points="485.5,-74 396.5,-74 396.5,-55 485.5,-55 485.5,-74"/>
<text text-anchor="middle" x="441" y="-62" font-family="Helvetica,sans-Serif" font-size="10.00">include/mlvp.h</text>
</a>
</g>
</g>
<!-- Node1&#45;&gt;Node5 -->
<g id="edge41_Node000001_Node000005" class="edge">
<title>Node1&#45;&gt;Node5</title>
<g id="a_edge41_Node000001_Node000005"><a xlink:title=" ">
<path fill="none" stroke="#63b8ff" d="M755.05,-575.71C823.02,-566.75 908,-541.72 908,-472.5 908,-472.5 908,-472.5 908,-173.5 908,-87.37 602.66,-69.92 485.78,-66.39"/>
<polygon fill="#63b8ff" stroke="#63b8ff" points="754.24,-572.28 744.73,-576.96 755.08,-579.23 754.24,-572.28"/>
</a>
</g>
</g>
<!-- Node9 -->
<g id="Node000009" class="node">
<title>Node9</title>
<g id="a_Node000009"><a xlink:href="dutDriver_8h.html" target="_top" xlink:title=" ">
<polygon fill="white" stroke="#666666" points="357.5,-294 210.5,-294 210.5,-275 357.5,-275 357.5,-294"/>
<text text-anchor="middle" x="284" y="-282" font-family="Helvetica,sans-Serif" font-size="10.00">include/Drivers/dutDriver.h</text>
</a>
</g>
</g>
<!-- Node1&#45;&gt;Node9 -->
<g id="edge38_Node000001_Node000009" class="edge">
<title>Node1&#45;&gt;Node9</title>
<g id="a_edge38_Node000001_Node000009"><a xlink:title=" ">
<path fill="none" stroke="#63b8ff" d="M589.18,-573.98C425.44,-559.97 76,-524.03 76,-472.5 76,-472.5 76,-472.5 76,-410 76,-338.56 167.45,-307.12 229.08,-294.05"/>
<polygon fill="#63b8ff" stroke="#63b8ff" points="588.96,-577.47 599.22,-574.83 589.55,-570.5 588.96,-577.47"/>
</a>
</g>
</g>
<!-- Node17 -->
<g id="Node000017" class="node">
<title>Node17</title>
<g id="a_Node000017"><a xlink:href="ref_8h.html" target="_top" xlink:title=" ">
<polygon fill="white" stroke="#666666" points="879.5,-481 760.5,-481 760.5,-462 879.5,-462 879.5,-481"/>
<text text-anchor="middle" x="820" y="-469" font-family="Helvetica,sans-Serif" font-size="10.00">include/RefPack/ref.h</text>
</a>
</g>
</g>
<!-- Node1&#45;&gt;Node17 -->
<g id="edge39_Node000001_Node000017" class="edge">
<title>Node1&#45;&gt;Node17</title>
<g id="a_edge39_Node000001_Node000017"><a xlink:title=" ">
<path fill="none" stroke="#63b8ff" d="M692.26,-565.71C723.59,-542.85 782.81,-499.64 808.08,-481.2"/>
<polygon fill="#63b8ff" stroke="#63b8ff" points="689.88,-563.12 683.86,-571.84 694,-568.78 689.88,-563.12"/>
</a>
</g>
</g>
<!-- Node18 -->
<g id="Node000018" class="node">
<title>Node18</title>
<g id="a_Node000018"><a xlink:href="simulator_8h.html" target="_top" xlink:title=" ">
<polygon fill="white" stroke="#666666" points="374,-481 214,-481 214,-462 374,-462 374,-481"/>
<text text-anchor="middle" x="294" y="-469" font-family="Helvetica,sans-Serif" font-size="10.00">include/Simulator/simulator.h</text>
</a>
</g>
</g>
<!-- Node1&#45;&gt;Node18 -->
<g id="edge40_Node000001_Node000018" class="edge">
<title>Node1&#45;&gt;Node18</title>
<g id="a_edge40_Node000001_Node000018"><a xlink:title=" ">
<path fill="none" stroke="#63b8ff" d="M589.3,-572.81C538.11,-566.44 471.58,-555.21 415,-536 373.44,-521.89 328.76,-495.01 307.17,-481.19"/>
<polygon fill="#63b8ff" stroke="#63b8ff" points="588.98,-576.3 599.33,-574.02 589.82,-569.35 588.98,-576.3"/>
</a>
</g>
</g>
<!-- Node21 -->
<g id="Node000021" class="node">
<title>Node21</title>
<g id="a_Node000021"><a xlink:href="channel_8cpp.html" target="_top" xlink:title=" ">
<polygon fill="white" stroke="#666666" points="1071.5,-536 936.5,-536 936.5,-517 1071.5,-517 1071.5,-536"/>
<text text-anchor="middle" x="1004" y="-524" font-family="Helvetica,sans-Serif" font-size="10.00">src/Channel/channel.cpp</text>
</a>
</g>
</g>
<!-- Node1&#45;&gt;Node21 -->
<g id="edge42_Node000001_Node000021" class="edge">
<title>Node1&#45;&gt;Node21</title>
<g id="a_edge42_Node000001_Node000021"><a xlink:title=" ">
<path fill="none" stroke="#63b8ff" d="M735.45,-570.37C797.79,-560.42 891.86,-545.4 950.52,-536.04"/>
<polygon fill="#63b8ff" stroke="#63b8ff" points="734.66,-566.95 725.34,-571.98 735.77,-573.86 734.66,-566.95"/>
</a>
</g>
</g>
<!-- Node3 -->
<g id="Node000003" class="node">
<title>Node3</title>
<g id="a_Node000003"><a xlink:href="driver_8h.html" target="_top" xlink:title=" ">
<polygon fill="white" stroke="#666666" points="311,-184 181,-184 181,-165 311,-165 311,-184"/>
<text text-anchor="middle" x="246" y="-172" font-family="Helvetica,sans-Serif" font-size="10.00">include/Drivers/driver.h</text>
</a>
</g>
</g>
<!-- Node2&#45;&gt;Node3 -->
<g id="edge2_Node000002_Node000003" class="edge">
<title>Node2&#45;&gt;Node3</title>
<g id="a_edge2_Node000002_Node000003"><a xlink:title=" ">
<path fill="none" stroke="#63b8ff" d="M414.46,-521.8C278.67,-513.75 38,-488.67 38,-412 38,-412 38,-412 38,-283.5 38,-218.19 119.76,-192.32 180.76,-182.11"/>
<polygon fill="#63b8ff" stroke="#63b8ff" points="414.27,-525.3 424.45,-522.38 414.67,-518.31 414.27,-525.3"/>
</a>
</g>
</g>
<!-- Node2&#45;&gt;Node5 -->
<g id="edge36_Node000002_Node000005" class="edge">
<title>Node2&#45;&gt;Node5</title>
<g id="a_edge36_Node000002_Node000005"><a xlink:title=" ">
<path fill="none" stroke="#63b8ff" d="M593.89,-515.53C641.79,-508.43 694.58,-497.23 712,-481 735.36,-459.23 732,-443.93 732,-412 732,-412 732,-412 732,-173.5 732,-138.12 714.12,-128.56 684,-110 651.46,-89.94 546.42,-76.24 485.62,-69.77"/>
<polygon fill="#63b8ff" stroke="#63b8ff" points="593.15,-512.1 583.75,-516.99 594.15,-519.03 593.15,-512.1"/>
</a>
</g>
</g>
<!-- Node2&#45;&gt;Node9 -->
<g id="edge9_Node000002_Node000009" class="edge">
<title>Node2&#45;&gt;Node9</title>
<g id="a_edge9_Node000002_Node000009"><a xlink:title=" ">
<path fill="none" stroke="#63b8ff" d="M497.21,-507.7C480.01,-470.22 435.41,-382.31 374,-330 354.76,-313.61 328.44,-301.51 309.24,-294.1"/>
<polygon fill="#63b8ff" stroke="#63b8ff" points="494.04,-509.18 501.33,-516.86 500.42,-506.31 494.04,-509.18"/>
</a>
</g>
</g>
<!-- Node10 -->
<g id="Node000010" class="node">
<title>Node10</title>
<g id="a_Node000010"><a xlink:href="refDriver_8h.html" target="_top" xlink:title=" ">
<polygon fill="white" stroke="#666666" points="595.5,-239 450.5,-239 450.5,-220 595.5,-220 595.5,-239"/>
<text text-anchor="middle" x="523" y="-227" font-family="Helvetica,sans-Serif" font-size="10.00">include/Drivers/refDriver.h</text>
</a>
</g>
</g>
<!-- Node2&#45;&gt;Node10 -->
<g id="edge17_Node000002_Node000010" class="edge">
<title>Node2&#45;&gt;Node10</title>
<g id="a_edge17_Node000002_Node000010"><a xlink:title=" ">
<path fill="none" stroke="#63b8ff" d="M514.18,-508.03C521.37,-494.91 531.97,-476.76 543,-462 579.91,-412.62 614.57,-417.42 637,-360 651.19,-323.65 641.61,-303.54 615,-275 598.55,-257.35 573.61,-245.89 553.85,-239.03"/>
<polygon fill="#63b8ff" stroke="#63b8ff" points="511.05,-506.46 509.4,-516.93 517.21,-509.78 511.05,-506.46"/>
</a>
</g>
</g>
<!-- Node13 -->
<g id="Node000013" class="node">
<title>Node13</title>
<g id="a_Node000013"><a xlink:href="simulatorDriver_8h.html" target="_top" xlink:title=" ">
<polygon fill="white" stroke="#666666" points="412,-426 272,-426 272,-396 412,-396 412,-426"/>
<text text-anchor="start" x="280" y="-414" font-family="Helvetica,sans-Serif" font-size="10.00">include/Drivers/simulator</text>
<text text-anchor="middle" x="342" y="-403" font-family="Helvetica,sans-Serif" font-size="10.00">Driver.h</text>
</a>
</g>
</g>
<!-- Node2&#45;&gt;Node13 -->
<g id="edge18_Node000002_Node000013" class="edge">
<title>Node2&#45;&gt;Node13</title>
<g id="a_edge18_Node000002_Node000013"><a xlink:title=" ">
<path fill="none" stroke="#63b8ff" d="M478.7,-512.18C463,-503.86 442.89,-492.56 426,-481 400.77,-463.73 373.84,-440.69 357.46,-426.09"/>
<polygon fill="#63b8ff" stroke="#63b8ff" points="477.36,-515.42 487.84,-516.95 480.6,-509.22 477.36,-515.42"/>
</a>
</g>
</g>
<!-- Node14 -->
<g id="Node000014" class="node">
<title>Node14</title>
<g id="a_Node000014"><a xlink:href="transDriverModel_8h.html" target="_top" xlink:title=" ">
<polygon fill="white" stroke="#666666" points="628,-360 480,-360 480,-330 628,-330 628,-360"/>
<text text-anchor="start" x="488" y="-348" font-family="Helvetica,sans-Serif" font-size="10.00">include/Drivers/transDriver</text>
<text text-anchor="middle" x="554" y="-337" font-family="Helvetica,sans-Serif" font-size="10.00">Model.h</text>
</a>
</g>
</g>
<!-- Node2&#45;&gt;Node14 -->
<g id="edge30_Node000002_Node000014" class="edge">
<title>Node2&#45;&gt;Node14</title>
<g id="a_edge30_Node000002_Node000014"><a xlink:title=" ">
<path fill="none" stroke="#63b8ff" d="M505.09,-506.48C505.5,-493.75 506.7,-476.71 510,-462 518.53,-423.96 536.99,-381.72 547.08,-360.24"/>
<polygon fill="#63b8ff" stroke="#63b8ff" points="501.59,-506.7 504.91,-516.76 508.59,-506.82 501.59,-506.7"/>
</a>
</g>
</g>
<!-- Node2&#45;&gt;Node17 -->
<g id="edge31_Node000002_Node000017" class="edge">
<title>Node2&#45;&gt;Node17</title>
<g id="a_edge31_Node000002_Node000017"><a xlink:title=" ">
<path fill="none" stroke="#63b8ff" d="M565.56,-515.31C624.72,-505.36 713.71,-490.38 769.25,-481.04"/>
<polygon fill="#63b8ff" stroke="#63b8ff" points="564.89,-511.87 555.61,-516.98 566.05,-518.78 564.89,-511.87"/>
</a>
</g>
</g>
<!-- Node2&#45;&gt;Node18 -->
<g id="edge33_Node000002_Node000018" class="edge">
<title>Node2&#45;&gt;Node18</title>
<g id="a_edge33_Node000002_Node000018"><a xlink:title=" ">
<path fill="none" stroke="#63b8ff" d="M461.21,-514.5C421.7,-504.58 364.38,-490.18 328.17,-481.08"/>
<polygon fill="#63b8ff" stroke="#63b8ff" points="460.55,-517.94 471.1,-516.98 462.25,-511.15 460.55,-517.94"/>
</a>
</g>
</g>
<!-- Node20 -->
<g id="Node000020" class="node">
<title>Node20</title>
<g id="a_Node000020"><a xlink:href="driverModel_8cpp.html" target="_top" xlink:title=" ">
<polygon fill="white" stroke="#666666" points="703.5,-481 552.5,-481 552.5,-462 703.5,-462 703.5,-481"/>
<text text-anchor="middle" x="628" y="-469" font-family="Helvetica,sans-Serif" font-size="10.00">src/Drivers/driverModel.cpp</text>
</a>
</g>
</g>
<!-- Node2&#45;&gt;Node20 -->
<g id="edge37_Node000002_Node000020" class="edge">
<title>Node2&#45;&gt;Node20</title>
<g id="a_edge37_Node000002_Node000020"><a xlink:title=" ">
<path fill="none" stroke="#63b8ff" d="M534.25,-512.9C556.97,-503.11 587.87,-489.79 607.88,-481.17"/>
<polygon fill="#63b8ff" stroke="#63b8ff" points="532.56,-509.81 524.76,-516.98 535.33,-516.24 532.56,-509.81"/>
</a>
</g>
</g>
<!-- Node4 -->
<g id="Node000004" class="node">
<title>Node4</title>
<g id="a_Node000004"><a xlink:href="spreader_8h.html" target="_top" xlink:title=" ">
<polygon fill="white" stroke="#666666" points="180,-129 28,-129 28,-110 180,-110 180,-129"/>
<text text-anchor="middle" x="104" y="-117" font-family="Helvetica,sans-Serif" font-size="10.00">include/Spreader/spreader.h</text>
</a>
</g>
</g>
<!-- Node3&#45;&gt;Node4 -->
<g id="edge3_Node000003_Node000004" class="edge">
<title>Node3&#45;&gt;Node4</title>
<g id="a_edge3_Node000003_Node000004"><a xlink:title=" ">
<path fill="none" stroke="#63b8ff" d="M213.64,-161.42C187.29,-151.59 150.74,-137.95 127.23,-129.17"/>
<polygon fill="#63b8ff" stroke="#63b8ff" points="212.59,-164.77 223.19,-164.98 215.04,-158.21 212.59,-164.77"/>
</a>
</g>
</g>
<!-- Node3&#45;&gt;Node5 -->
<g id="edge7_Node000003_Node000005" class="edge">
<title>Node3&#45;&gt;Node5</title>
<g id="a_edge7_Node000003_Node000005"><a xlink:title=" ">
<path fill="none" stroke="#63b8ff" d="M246.82,-154.6C248.44,-140.43 252.93,-121.56 265,-110 300.05,-76.43 356.62,-67.14 396.14,-65.07"/>
<polygon fill="#63b8ff" stroke="#63b8ff" points="243.31,-154.49 246.03,-164.73 250.29,-155.03 243.31,-154.49"/>
</a>
</g>
</g>
<!-- Node8 -->
<g id="Node000008" class="node">
<title>Node8</title>
<g id="a_Node000008"><a xlink:href="driver_8cpp.html" target="_top" xlink:title=" ">
<polygon fill="white" stroke="#666666" points="394,-129 274,-129 274,-110 394,-110 394,-129"/>
<text text-anchor="middle" x="334" y="-117" font-family="Helvetica,sans-Serif" font-size="10.00">src/Drivers/driver.cpp</text>
</a>
</g>
</g>
<!-- Node3&#45;&gt;Node8 -->
<g id="edge8_Node000003_Node000008" class="edge">
<title>Node3&#45;&gt;Node8</title>
<g id="a_edge8_Node000003_Node000008"><a xlink:title=" ">
<path fill="none" stroke="#63b8ff" d="M268.92,-159.7C284.95,-150.04 305.87,-137.44 319.6,-129.17"/>
<polygon fill="#63b8ff" stroke="#63b8ff" points="266.9,-156.83 260.14,-164.98 270.51,-162.82 266.9,-156.83"/>
</a>
</g>
</g>
<!-- Node4&#45;&gt;Node5 -->
<g id="edge4_Node000004_Node000005" class="edge">
<title>Node4&#45;&gt;Node5</title>
<g id="a_edge4_Node000004_Node000005"><a xlink:title=" ">
<path fill="none" stroke="#63b8ff" d="M168.14,-108.41C234.98,-97.9 337.95,-81.71 396.41,-72.51"/>
<polygon fill="#63b8ff" stroke="#63b8ff" points="167.48,-104.97 158.14,-109.98 168.57,-111.89 167.48,-104.97"/>
</a>
</g>
</g>
<!-- Node7 -->
<g id="Node000007" class="node">
<title>Node7</title>
<g id="a_Node000007"><a xlink:href="spreader_8cpp.html" target="_top" xlink:title=" ">
<polygon fill="white" stroke="#666666" points="175.5,-74 32.5,-74 32.5,-55 175.5,-55 175.5,-74"/>
<text text-anchor="middle" x="104" y="-62" font-family="Helvetica,sans-Serif" font-size="10.00">src/Spreader/spreader.cpp</text>
</a>
</g>
</g>
<!-- Node4&#45;&gt;Node7 -->
<g id="edge6_Node000004_Node000007" class="edge">
<title>Node4&#45;&gt;Node7</title>
<g id="a_edge6_Node000004_Node000007"><a xlink:title=" ">
<path fill="none" stroke="#63b8ff" d="M104,-99.66C104,-90.93 104,-80.99 104,-74.09"/>
<polygon fill="#63b8ff" stroke="#63b8ff" points="100.5,-99.75 104,-109.75 107.5,-99.75 100.5,-99.75"/>
</a>
</g>
</g>
<!-- Node6 -->
<g id="Node000006" class="node">
<title>Node6</title>
<g id="a_Node000006"><a xlink:href="main_8cpp.html" target="_top" xlink:title=" ">
<polygon fill="white" stroke="#666666" points="250.5,-19 171.5,-19 171.5,0 250.5,0 250.5,-19"/>
<text text-anchor="middle" x="211" y="-7" font-family="Helvetica,sans-Serif" font-size="10.00">src/main.cpp</text>
</a>
</g>
</g>
<!-- Node5&#45;&gt;Node6 -->
<g id="edge5_Node000005_Node000006" class="edge">
<title>Node5&#45;&gt;Node6</title>
<g id="a_edge5_Node000005_Node000006"><a xlink:title=" ">
<path fill="none" stroke="#63b8ff" d="M394.09,-52.69C351,-42.76 287.97,-28.24 248.24,-19.08"/>
<polygon fill="#63b8ff" stroke="#63b8ff" points="393.52,-56.15 404.05,-54.98 395.09,-49.33 393.52,-56.15"/>
</a>
</g>
</g>
<!-- Node9&#45;&gt;Node3 -->
<g id="edge10_Node000009_Node000003" class="edge">
<title>Node9&#45;&gt;Node3</title>
<g id="a_edge10_Node000009_Node000003"><a xlink:title=" ">
<path fill="none" stroke="#63b8ff" d="M266.44,-267.83C258.96,-260 251.03,-249.88 247,-239 240.11,-220.39 242.41,-196.56 244.39,-184.05"/>
<polygon fill="#63b8ff" stroke="#63b8ff" points="264.02,-270.36 273.62,-274.85 268.91,-265.35 264.02,-270.36"/>
</a>
</g>
</g>
<!-- Node9&#45;&gt;Node5 -->
<g id="edge15_Node000009_Node000005" class="edge">
<title>Node9&#45;&gt;Node5</title>
<g id="a_edge15_Node000009_Node000005"><a xlink:title=" ">
<path fill="none" stroke="#63b8ff" d="M347.56,-271.98C367.52,-265.41 387.99,-255.12 402,-239 445.14,-189.37 443.49,-102.22 441.72,-74.34"/>
<polygon fill="#63b8ff" stroke="#63b8ff" points="346.39,-268.68 337.83,-274.92 348.41,-275.38 346.39,-268.68"/>
</a>
</g>
</g>
<!-- Node9&#45;&gt;Node10 -->
<g id="edge11_Node000009_Node000010" class="edge">
<title>Node9&#45;&gt;Node10</title>
<g id="a_edge11_Node000009_Node000010"><a xlink:title=" ">
<path fill="none" stroke="#63b8ff" d="M332.18,-272.82C376.97,-262.88 442.84,-248.28 484.3,-239.08"/>
<polygon fill="#63b8ff" stroke="#63b8ff" points="331.4,-269.4 322.4,-274.98 332.92,-276.24 331.4,-269.4"/>
</a>
</g>
</g>
<!-- Node12 -->
<g id="Node000012" class="node">
<title>Node12</title>
<g id="a_Node000012"><a xlink:href="dutDriver_8cpp.html" target="_top" xlink:title=" ">
<polygon fill="white" stroke="#666666" points="393.5,-239 256.5,-239 256.5,-220 393.5,-220 393.5,-239"/>
<text text-anchor="middle" x="325" y="-227" font-family="Helvetica,sans-Serif" font-size="10.00">src/Drivers/dutDriver.cpp</text>
</a>
</g>
</g>
<!-- Node9&#45;&gt;Node12 -->
<g id="edge16_Node000009_Node000012" class="edge">
<title>Node9&#45;&gt;Node12</title>
<g id="a_edge16_Node000009_Node000012"><a xlink:title=" ">
<path fill="none" stroke="#63b8ff" d="M297.02,-266.67C304.12,-257.5 312.6,-246.52 318.36,-239.09"/>
<polygon fill="#63b8ff" stroke="#63b8ff" points="294.12,-264.7 290.77,-274.75 299.66,-268.98 294.12,-264.7"/>
</a>
</g>
</g>
<!-- Node10&#45;&gt;Node3 -->
<g id="edge12_Node000010_Node000003" class="edge">
<title>Node10&#45;&gt;Node3</title>
<g id="a_edge12_Node000010_Node000003"><a xlink:title=" ">
<path fill="none" stroke="#63b8ff" d="M468.46,-218.07C416.53,-208.13 339.31,-193.35 290.85,-184.08"/>
<polygon fill="#63b8ff" stroke="#63b8ff" points="468.02,-221.54 478.5,-219.98 469.33,-214.67 468.02,-221.54"/>
</a>
</g>
</g>
<!-- Node10&#45;&gt;Node5 -->
<g id="edge13_Node000010_Node000005" class="edge">
<title>Node10&#45;&gt;Node5</title>
<g id="a_edge13_Node000010_Node000005"><a xlink:title=" ">
<path fill="none" stroke="#63b8ff" d="M503.93,-212.94C495.3,-205.05 485.57,-194.84 479,-184 456.37,-146.68 445.8,-94.48 442.34,-74.11"/>
<polygon fill="#63b8ff" stroke="#63b8ff" points="501.9,-215.82 511.74,-219.75 506.5,-210.54 501.9,-215.82"/>
</a>
</g>
</g>
<!-- Node11 -->
<g id="Node000011" class="node">
<title>Node11</title>
<g id="a_Node000011"><a xlink:href="refDriver_8cpp.html" target="_top" xlink:title=" ">
<polygon fill="white" stroke="#666666" points="623.5,-184 488.5,-184 488.5,-165 623.5,-165 623.5,-184"/>
<text text-anchor="middle" x="556" y="-172" font-family="Helvetica,sans-Serif" font-size="10.00">src/Drivers/refDriver.cpp</text>
</a>
</g>
</g>
<!-- Node10&#45;&gt;Node11 -->
<g id="edge14_Node000010_Node000011" class="edge">
<title>Node10&#45;&gt;Node11</title>
<g id="a_edge14_Node000010_Node000011"><a xlink:title=" ">
<path fill="none" stroke="#63b8ff" d="M533.83,-211.1C539.47,-202.04 546.12,-191.37 550.65,-184.09"/>
<polygon fill="#63b8ff" stroke="#63b8ff" points="530.76,-209.41 528.45,-219.75 536.71,-213.11 530.76,-209.41"/>
</a>
</g>
</g>
<!-- Node13&#45;&gt;Node4 -->
<g id="edge26_Node000013_Node000004" class="edge">
<title>Node13&#45;&gt;Node4</title>
<g id="a_edge26_Node000013_Node000004"><a xlink:title=" ">
<path fill="none" stroke="#63b8ff" d="M261.62,-394.19C208.67,-383.12 147.43,-368.78 138,-360 112.54,-336.29 114,-320.29 114,-285.5 114,-285.5 114,-285.5 114,-228.5 114,-191.4 108.08,-147.45 105.35,-129.15"/>
<polygon fill="#63b8ff" stroke="#63b8ff" points="261.23,-397.68 271.73,-396.29 262.65,-390.83 261.23,-397.68"/>
</a>
</g>
</g>
<!-- Node13&#45;&gt;Node5 -->
<g id="edge27_Node000013_Node000005" class="edge">
<title>Node13&#45;&gt;Node5</title>
<g id="a_edge27_Node000013_Node000005"><a xlink:title=" ">
<path fill="none" stroke="#63b8ff" d="M271.08,-393.49C226.96,-382.51 177.42,-368.57 171,-360 160.01,-345.34 112.26,-279.36 172,-165 213.78,-85 331.24,-68.41 396.28,-65.53"/>
<polygon fill="#63b8ff" stroke="#63b8ff" points="270.43,-396.94 280.97,-395.93 272.1,-390.14 270.43,-396.94"/>
</a>
</g>
</g>
<!-- Node13&#45;&gt;Node6 -->
<g id="edge29_Node000013_Node000006" class="edge">
<title>Node13&#45;&gt;Node6</title>
<g id="a_edge29_Node000013_Node000006"><a xlink:title=" ">
<path fill="none" stroke="#63b8ff" d="M261.77,-395.59C207.26,-385.19 140.43,-371.09 114,-360 58.19,-336.58 0,-346.03 0,-285.5 0,-285.5 0,-285.5 0,-118.5 0,-88.48 0.59,-74.97 23,-55 44.66,-35.7 122.9,-22.16 171.36,-15.41"/>
<polygon fill="#63b8ff" stroke="#63b8ff" points="261.32,-399.06 271.8,-397.48 262.62,-392.19 261.32,-399.06"/>
</a>
</g>
</g>
<!-- Node13&#45;&gt;Node9 -->
<g id="edge19_Node000013_Node000009" class="edge">
<title>Node13&#45;&gt;Node9</title>
<g id="a_edge19_Node000013_Node000009"><a xlink:title=" ">
<path fill="none" stroke="#63b8ff" d="M354.42,-386.22C361.3,-369.54 366.68,-347.24 357,-330 347.12,-312.4 327.13,-300.94 310.57,-294.06"/>
<polygon fill="#63b8ff" stroke="#63b8ff" points="351.03,-385.22 350.07,-395.78 357.4,-388.12 351.03,-385.22"/>
</a>
</g>
</g>
<!-- Node13&#45;&gt;Node10 -->
<g id="edge20_Node000013_Node000010" class="edge">
<title>Node13&#45;&gt;Node10</title>
<g id="a_edge20_Node000013_Node000010"><a xlink:title=" ">
<path fill="none" stroke="#63b8ff" d="M358.15,-387.21C363.62,-378.89 369.48,-369.25 374,-360 391.58,-324 375.94,-303.59 404,-275 422.31,-256.35 449.17,-245.43 472.73,-239.08"/>
<polygon fill="#63b8ff" stroke="#63b8ff" points="355.15,-385.4 352.45,-395.64 360.95,-389.32 355.15,-385.4"/>
</a>
</g>
</g>
<!-- Node13&#45;&gt;Node14 -->
<g id="edge21_Node000013_Node000014" class="edge">
<title>Node13&#45;&gt;Node14</title>
<g id="a_edge21_Node000013_Node000014"><a xlink:title=" ">
<path fill="none" stroke="#63b8ff" d="M398.35,-392.99C432.46,-382.69 475.44,-369.72 507.58,-360.01"/>
<polygon fill="#63b8ff" stroke="#63b8ff" points="397.09,-389.71 388.52,-395.95 399.11,-396.42 397.09,-389.71"/>
</a>
</g>
</g>
<!-- Node16 -->
<g id="Node000016" class="node">
<title>Node16</title>
<g id="a_Node000016"><a xlink:href="simulatorDriver_8cpp.html" target="_top" xlink:title=" ">
<polygon fill="white" stroke="#666666" points="348,-354.5 180,-354.5 180,-335.5 348,-335.5 348,-354.5"/>
<text text-anchor="middle" x="264" y="-342.5" font-family="Helvetica,sans-Serif" font-size="10.00">src/Drivers/simulatorDriver.cpp</text>
</a>
</g>
</g>
<!-- Node13&#45;&gt;Node16 -->
<g id="edge28_Node000013_Node000016" class="edge">
<title>Node13&#45;&gt;Node16</title>
<g id="a_edge28_Node000013_Node000016"><a xlink:title=" ">
<path fill="none" stroke="#63b8ff" d="M316.72,-389.26C302.53,-377.61 285.56,-363.69 274.78,-354.84"/>
<polygon fill="#63b8ff" stroke="#63b8ff" points="314.74,-392.16 324.69,-395.8 319.18,-386.75 314.74,-392.16"/>
</a>
</g>
</g>
<!-- Node14&#45;&gt;Node5 -->
<g id="edge24_Node000014_Node000005" class="edge">
<title>Node14&#45;&gt;Node5</title>
<g id="a_edge24_Node000014_Node000005"><a xlink:title=" ">
<path fill="none" stroke="#63b8ff" d="M605.78,-326.03C645.65,-308.52 694,-277.57 694,-230.5 694,-230.5 694,-230.5 694,-173.5 694,-83.95 558.28,-67.64 485.65,-65.33"/>
<polygon fill="#63b8ff" stroke="#63b8ff" points="604.24,-322.88 596.38,-329.99 606.96,-329.33 604.24,-322.88"/>
</a>
</g>
</g>
<!-- Node14&#45;&gt;Node9 -->
<g id="edge22_Node000014_Node000009" class="edge">
<title>Node14&#45;&gt;Node9</title>
<g id="a_edge22_Node000014_Node000009"><a xlink:title=" ">
<path fill="none" stroke="#63b8ff" d="M479.43,-327.84C428.96,-316.91 364.28,-302.89 323.48,-294.05"/>
<polygon fill="#63b8ff" stroke="#63b8ff" points="478.81,-331.29 489.33,-329.99 480.3,-324.45 478.81,-331.29"/>
</a>
</g>
</g>
<!-- Node14&#45;&gt;Node10 -->
<g id="edge23_Node000014_Node000010" class="edge">
<title>Node14&#45;&gt;Node10</title>
<g id="a_edge23_Node000014_Node000010"><a xlink:title=" ">
<path fill="none" stroke="#63b8ff" d="M581.51,-323.16C595.81,-309.67 608.51,-291.59 599,-275 588.81,-257.23 568.46,-245.87 551.39,-239.08"/>
<polygon fill="#63b8ff" stroke="#63b8ff" points="579.2,-320.53 573.99,-329.76 583.82,-325.79 579.2,-320.53"/>
</a>
</g>
</g>
<!-- Node15 -->
<g id="Node000015" class="node">
<title>Node15</title>
<g id="a_Node000015"><a xlink:href="transDriverModel_8cpp.html" target="_top" xlink:title=" ">
<polygon fill="white" stroke="#666666" points="590.5,-294 413.5,-294 413.5,-275 590.5,-275 590.5,-294"/>
<text text-anchor="middle" x="502" y="-282" font-family="Helvetica,sans-Serif" font-size="10.00">src/Drivers/transDriverModel.cpp</text>
</a>
</g>
</g>
<!-- Node14&#45;&gt;Node15 -->
<g id="edge25_Node000014_Node000015" class="edge">
<title>Node14&#45;&gt;Node15</title>
<g id="a_edge25_Node000014_Node000015"><a xlink:title=" ">
<path fill="none" stroke="#63b8ff" d="M534.52,-322.09C525.93,-312.42 516.32,-301.61 509.79,-294.27"/>
<polygon fill="#63b8ff" stroke="#63b8ff" points="532.15,-324.69 541.41,-329.84 537.38,-320.04 532.15,-324.69"/>
</a>
</g>
</g>
<!-- Node17&#45;&gt;Node5 -->
<g id="edge32_Node000017_Node000005" class="edge">
<title>Node17&#45;&gt;Node5</title>
<g id="a_edge32_Node000017_Node000005"><a xlink:title=" ">
<path fill="none" stroke="#63b8ff" d="M813.99,-452.3C806.59,-428.24 795,-384.43 795,-346 795,-346 795,-346 795,-173.5 795,-137.85 776.77,-128 746,-110 702.7,-84.67 559.21,-72.57 485.52,-67.91"/>
<polygon fill="#63b8ff" stroke="#63b8ff" points="810.67,-453.4 817.03,-461.87 817.34,-451.27 810.67,-453.4"/>
</a>
</g>
</g>
<!-- Node18&#45;&gt;Node13 -->
<g id="edge34_Node000018_Node000013" class="edge">
<title>Node18&#45;&gt;Node13</title>
<g id="a_edge34_Node000018_Node000013"><a xlink:title=" ">
<path fill="none" stroke="#63b8ff" d="M307.64,-453.88C314.83,-445.11 323.56,-434.48 330.42,-426.11"/>
<polygon fill="#63b8ff" stroke="#63b8ff" points="304.72,-451.92 301.08,-461.87 310.13,-456.36 304.72,-451.92"/>
</a>
</g>
</g>
<!-- Node19 -->
<g id="Node000019" class="node">
<title>Node19</title>
<g id="a_Node000019"><a xlink:href="simulator_8cpp.html" target="_top" xlink:title=" ">
<polygon fill="white" stroke="#666666" points="254,-420.5 104,-420.5 104,-401.5 254,-401.5 254,-420.5"/>
<text text-anchor="middle" x="179" y="-408.5" font-family="Helvetica,sans-Serif" font-size="10.00">src/Simulator/simulator.cpp</text>
</a>
</g>
</g>
<!-- Node18&#45;&gt;Node19 -->
<g id="edge35_Node000018_Node000019" class="edge">
<title>Node18&#45;&gt;Node19</title>
<g id="a_edge35_Node000018_Node000019"><a xlink:title=" ">
<path fill="none" stroke="#63b8ff" d="M267.91,-457.23C245.89,-446.03 215.01,-430.32 196.04,-420.67"/>
<polygon fill="#63b8ff" stroke="#63b8ff" points="266.53,-460.45 277.03,-461.87 269.71,-454.21 266.53,-460.45"/>
</a>
</g>
</g>
</g>
</svg>
