<?xml version="1.0" encoding="UTF-8" standalone="no"?>
<!DOCTYPE svg PUBLIC "-//W3C//DTD SVG 1.1//EN"
 "http://www.w3.org/Graphics/SVG/1.1/DTD/svg11.dtd">
<!-- Generated by graphviz version 2.43.0 (0)
 -->
<!-- Title: include/Channel/channel.h Pages: 1 -->
<!--zoomable 599 -->

<svg id="main" version="1.1" xmlns="http://www.w3.org/2000/svg" xmlns:xlink="http://www.w3.org/1999/xlink" xml:space="preserve" onload="init(evt)">
<style type="text/css"><![CDATA[
.node, .edge {opacity: 0.7;}
.node.selected, .edge.selected {opacity: 1;}
.edge:hover path { stroke: red; }
.edge:hover polygon { stroke: red; fill: red; }
]]></style>

<defs>
  <circle id="rim" cx="0" cy="0" r="7"/>
  <circle id="rim2" cx="0" cy="0" r="3.5"/>
  <g id="zoomPlus">
    <use xlink:href="#rim" fill="#404040"><set attributeName="fill" to="#808080" begin="zoomplus.mouseover" end="zoomplus.mouseout"/></use>
    <path d="M-4,0h8M0,-4v8" fill="none" stroke="white" stroke-width="1.5" pointer-events="none"/>
  </g>
  <g id="zoomMin">
    <use xlink:href="#rim" fill="#404040"><set attributeName="fill" to="#808080" begin="zoomminus.mouseover" end="zoomminus.mouseout"/></use>
    <path d="M-4,0h8" fill="none" stroke="white" stroke-width="1.5" pointer-events="none"/>
  </g>
  <g id="arrowUp" transform="translate(30 24)">
    <use xlink:href="#rim"/>
    <path pointer-events="none" fill="none" stroke="white" stroke-width="1.5" d="M0,-3.0v7 M-2.5,-0.5L0,-3.0L2.5,-0.5"/>
  </g>
  <g id="arrowRight" transform="rotate(90) translate(36 -43)">
    <use xlink:href="#rim"/>
    <path pointer-events="none" fill="none" stroke="white" stroke-width="1.5" d="M0,-3.0v7 M-2.5,-0.5L0,-3.0L2.5,-0.5"/>
  </g>
  <g id="arrowDown" transform="rotate(180) translate(-30 -48)">
    <use xlink:href="#rim"/>
    <path pointer-events="none" fill="none" stroke="white" stroke-width="1.5" d="M0,-3.0v7 M-2.5,-0.5L0,-3.0L2.5,-0.5"/>
  </g>
  <g id="arrowLeft" transform="rotate(270) translate(-36 17)">
    <use xlink:href="#rim"/>
    <path pointer-events="none" fill="none" stroke="white" stroke-width="1.5" d="M0,-3.0v7 M-2.5,-0.5L0,-3.0L2.5,-0.5"/>
  </g>
  <g id="resetDef">
    <use xlink:href="#rim2" fill="#404040"><set attributeName="fill" to="#808080" begin="reset.mouseover" end="reset.mouseout"/></use>
  </g>
</defs>
<script type="application/ecmascript">
var viewWidth = 1289;
var viewHeight = 599;
var sectionId = 'dynsection-1';
</script>
<script type="application/ecmascript" xlink:href="svg.min.js"/>
<svg id="graph" class="graph">
<g id="viewport">
<title>include/Channel/channel.h</title>
<!-- Node1 -->
<g id="Node000001" class="node">
<title>Node1</title>
<g id="a_Node000001"><a xlink:title=" ">
<polygon fill="#999999" stroke="#666666" points="1008.5,-591 863.5,-591 863.5,-572 1008.5,-572 1008.5,-591"/>
<text text-anchor="middle" x="936" y="-579" font-family="Helvetica,sans-Serif" font-size="10.00">include/Channel/channel.h</text>
</a>
</g>
</g>
<!-- Node2 -->
<g id="Node000002" class="node">
<title>Node2</title>
<g id="a_Node000002"><a xlink:href="driverModel_8h.html" target="_top" xlink:title=" ">
<polygon fill="white" stroke="#666666" points="682.5,-536 521.5,-536 521.5,-517 682.5,-517 682.5,-536"/>
<text text-anchor="middle" x="602" y="-524" font-family="Helvetica,sans-Serif" font-size="10.00">include/Drivers/driverModel.h</text>
</a>
</g>
</g>
<!-- Node1&#45;&gt;Node2 -->
<g id="edge1_Node000001_Node000002" class="edge">
<title>Node1&#45;&gt;Node2</title>
<g id="a_edge1_Node000001_Node000002"><a xlink:title=" ">
<path fill="none" stroke="#63b8ff" d="M872.17,-570.37C809.45,-560.42 714.82,-545.4 655.81,-536.04"/>
<polygon fill="#63b8ff" stroke="#63b8ff" points="871.91,-573.87 882.34,-571.98 873.01,-566.96 871.91,-573.87"/>
</a>
</g>
</g>
<!-- Node5 -->
<g id="Node000005" class="node">
<title>Node5</title>
<g id="a_Node000005"><a xlink:href="mlvp_8h.html" target="_top" xlink:title=" ">
<polygon fill="white" stroke="#666666" points="455.5,-74 366.5,-74 366.5,-55 455.5,-55 455.5,-74"/>
<text text-anchor="middle" x="411" y="-62" font-family="Helvetica,sans-Serif" font-size="10.00">include/mlvp.h</text>
</a>
</g>
</g>
<!-- Node1&#45;&gt;Node5 -->
<g id="edge42_Node000001_Node000005" class="edge">
<title>Node1&#45;&gt;Node5</title>
<g id="a_edge42_Node000001_Node000005"><a xlink:title=" ">
<path fill="none" stroke="#63b8ff" d="M853.06,-579.56C624.08,-575.87 0,-557.98 0,-472.5 0,-472.5 0,-472.5 0,-173.5 0,-98.43 259.71,-74.47 366.23,-67.79"/>
<polygon fill="#63b8ff" stroke="#63b8ff" points="853.28,-583.06 863.33,-579.72 853.39,-576.06 853.28,-583.06"/>
</a>
</g>
</g>
<!-- Node6 -->
<g id="Node000006" class="node">
<title>Node6</title>
<g id="a_Node000006"><a xlink:href="main_8cpp.html" target="_top" xlink:title=" ">
<polygon fill="white" stroke="#666666" points="1099.5,-19 1020.5,-19 1020.5,0 1099.5,0 1099.5,-19"/>
<text text-anchor="middle" x="1060" y="-7" font-family="Helvetica,sans-Serif" font-size="10.00">src/main.cpp</text>
</a>
</g>
</g>
<!-- Node1&#45;&gt;Node6 -->
<g id="edge44_Node000001_Node000006" class="edge">
<title>Node1&#45;&gt;Node6</title>
<g id="a_edge44_Node000001_Node000006"><a xlink:title=" ">
<path fill="none" stroke="#63b8ff" d="M999.23,-569.58C1051.44,-556.51 1117,-528.88 1117,-472.5 1117,-472.5 1117,-472.5 1117,-118.5 1117,-77.37 1084.27,-36.56 1068.41,-19.2"/>
<polygon fill="#63b8ff" stroke="#63b8ff" points="998.25,-566.22 989.33,-571.93 999.86,-573.03 998.25,-566.22"/>
</a>
</g>
</g>
<!-- Node9 -->
<g id="Node000009" class="node">
<title>Node9</title>
<g id="a_Node000009"><a xlink:href="dutDriver_8h.html" target="_top" xlink:title=" ">
<polygon fill="white" stroke="#666666" points="675.5,-294 528.5,-294 528.5,-275 675.5,-275 675.5,-294"/>
<text text-anchor="middle" x="602" y="-282" font-family="Helvetica,sans-Serif" font-size="10.00">include/Drivers/dutDriver.h</text>
</a>
</g>
</g>
<!-- Node1&#45;&gt;Node9 -->
<g id="edge39_Node000001_Node000009" class="edge">
<title>Node1&#45;&gt;Node9</title>
<g id="a_edge39_Node000001_Node000009"><a xlink:title=" ">
<path fill="none" stroke="#63b8ff" d="M956.19,-565.57C977.94,-548.1 1011.27,-516.93 1025,-481 1049.81,-416.04 1042.72,-367.26 984,-330 934.32,-298.47 771.98,-289.27 675.65,-286.59"/>
<polygon fill="#63b8ff" stroke="#63b8ff" points="953.95,-562.88 948.21,-571.78 958.25,-568.4 953.95,-562.88"/>
</a>
</g>
</g>
<!-- Node17 -->
<g id="Node000017" class="node">
<title>Node17</title>
<g id="a_Node000017"><a xlink:href="ref_8h.html" target="_top" xlink:title=" ">
<polygon fill="white" stroke="#666666" points="147.5,-481 28.5,-481 28.5,-462 147.5,-462 147.5,-481"/>
<text text-anchor="middle" x="88" y="-469" font-family="Helvetica,sans-Serif" font-size="10.00">include/RefPack/ref.h</text>
</a>
</g>
</g>
<!-- Node1&#45;&gt;Node17 -->
<g id="edge40_Node000001_Node000017" class="edge">
<title>Node1&#45;&gt;Node17</title>
<g id="a_edge40_Node000001_Node000017"><a xlink:title=" ">
<path fill="none" stroke="#63b8ff" d="M853.13,-572.86C767.76,-564.73 630.9,-551 513,-536 378.12,-518.84 219.89,-493.93 139.91,-481"/>
<polygon fill="#63b8ff" stroke="#63b8ff" points="853,-576.36 863.28,-573.82 853.66,-569.39 853,-576.36"/>
</a>
</g>
</g>
<!-- Node18 -->
<g id="Node000018" class="node">
<title>Node18</title>
<g id="a_Node000018"><a xlink:href="simulator_8h.html" target="_top" xlink:title=" ">
<polygon fill="white" stroke="#666666" points="1016,-481 856,-481 856,-462 1016,-462 1016,-481"/>
<text text-anchor="middle" x="936" y="-469" font-family="Helvetica,sans-Serif" font-size="10.00">include/Simulator/simulator.h</text>
</a>
</g>
</g>
<!-- Node1&#45;&gt;Node18 -->
<g id="edge41_Node000001_Node000018" class="edge">
<title>Node1&#45;&gt;Node18</title>
<g id="a_edge41_Node000001_Node000018"><a xlink:title=" ">
<path fill="none" stroke="#63b8ff" d="M936,-561.48C936,-537.84 936,-498.5 936,-481.16"/>
<polygon fill="#63b8ff" stroke="#63b8ff" points="932.5,-561.66 936,-571.66 939.5,-561.66 932.5,-561.66"/>
</a>
</g>
</g>
<!-- Node21 -->
<g id="Node000021" class="node">
<title>Node21</title>
<g id="a_Node000021"><a xlink:href="channel_8cpp.html" target="_top" xlink:title=" ">
<polygon fill="white" stroke="#666666" points="1280.5,-536 1145.5,-536 1145.5,-517 1280.5,-517 1280.5,-536"/>
<text text-anchor="middle" x="1213" y="-524" font-family="Helvetica,sans-Serif" font-size="10.00">src/Channel/channel.cpp</text>
</a>
</g>
</g>
<!-- Node1&#45;&gt;Node21 -->
<g id="edge43_Node000001_Node000021" class="edge">
<title>Node1&#45;&gt;Node21</title>
<g id="a_edge43_Node000001_Node000021"><a xlink:title=" ">
<path fill="none" stroke="#63b8ff" d="M990.54,-570.07C1042.47,-560.13 1119.69,-545.35 1168.15,-536.08"/>
<polygon fill="#63b8ff" stroke="#63b8ff" points="989.67,-566.67 980.5,-571.98 990.98,-573.54 989.67,-566.67"/>
</a>
</g>
</g>
<!-- Node3 -->
<g id="Node000003" class="node">
<title>Node3</title>
<g id="a_Node000003"><a xlink:href="driver_8h.html" target="_top" xlink:title=" ">
<polygon fill="white" stroke="#666666" points="712,-184 582,-184 582,-165 712,-165 712,-184"/>
<text text-anchor="middle" x="647" y="-172" font-family="Helvetica,sans-Serif" font-size="10.00">include/Drivers/driver.h</text>
</a>
</g>
</g>
<!-- Node2&#45;&gt;Node3 -->
<g id="edge2_Node000002_Node000003" class="edge">
<title>Node2&#45;&gt;Node3</title>
<g id="a_edge2_Node000002_Node000003"><a xlink:title=" ">
<path fill="none" stroke="#63b8ff" d="M610.78,-507.74C629.02,-469.7 670.56,-377.05 685,-294 692.36,-251.64 665.32,-203.53 652.91,-184.21"/>
<polygon fill="#63b8ff" stroke="#63b8ff" points="607.51,-506.44 606.29,-516.97 613.81,-509.5 607.51,-506.44"/>
</a>
</g>
</g>
<!-- Node2&#45;&gt;Node5 -->
<g id="edge36_Node000002_Node000005" class="edge">
<title>Node2&#45;&gt;Node5</title>
<g id="a_edge36_Node000002_Node000005"><a xlink:title=" ">
<path fill="none" stroke="#63b8ff" d="M511.39,-518.34C395.24,-508.75 207.35,-491.72 196,-481 113.94,-403.48 154,-343.39 154,-230.5 154,-230.5 154,-230.5 154,-173.5 154,-82.51 292.6,-66.92 366.23,-65.05"/>
<polygon fill="#63b8ff" stroke="#63b8ff" points="511.1,-521.82 521.36,-519.16 511.68,-514.85 511.1,-521.82"/>
</a>
</g>
</g>
<!-- Node2&#45;&gt;Node6 -->
<g id="edge38_Node000002_Node000006" class="edge">
<title>Node2&#45;&gt;Node6</title>
<g id="a_edge38_Node000002_Node000006"><a xlink:title=" ">
<path fill="none" stroke="#63b8ff" d="M634.94,-513.25C678.56,-496.41 757.18,-463.83 819,-426 837.35,-414.77 837.57,-405.25 857,-396 923.21,-364.49 955.58,-398.47 1018,-360 1054.43,-337.55 1079,-328.29 1079,-285.5 1079,-285.5 1079,-285.5 1079,-118.5 1079,-81 1067.75,-37.26 1062.56,-19.09"/>
<polygon fill="#63b8ff" stroke="#63b8ff" points="633.49,-510.06 625.4,-516.9 636,-516.6 633.49,-510.06"/>
</a>
</g>
</g>
<!-- Node2&#45;&gt;Node9 -->
<g id="edge9_Node000002_Node000009" class="edge">
<title>Node2&#45;&gt;Node9</title>
<g id="a_edge9_Node000002_Node000009"><a xlink:title=" ">
<path fill="none" stroke="#63b8ff" d="M602,-506.93C602,-458.36 602,-328.94 602,-294.19"/>
<polygon fill="#63b8ff" stroke="#63b8ff" points="598.5,-506.96 602,-516.96 605.5,-506.96 598.5,-506.96"/>
</a>
</g>
</g>
<!-- Node10 -->
<g id="Node000010" class="node">
<title>Node10</title>
<g id="a_Node000010"><a xlink:href="refDriver_8h.html" target="_top" xlink:title=" ">
<polygon fill="white" stroke="#666666" points="368.5,-239 223.5,-239 223.5,-220 368.5,-220 368.5,-239"/>
<text text-anchor="middle" x="296" y="-227" font-family="Helvetica,sans-Serif" font-size="10.00">include/Drivers/refDriver.h</text>
</a>
</g>
</g>
<!-- Node2&#45;&gt;Node10 -->
<g id="edge17_Node000002_Node000010" class="edge">
<title>Node2&#45;&gt;Node10</title>
<g id="a_edge17_Node000002_Node000010"><a xlink:title=" ">
<path fill="none" stroke="#63b8ff" d="M565.66,-513.53C504.9,-491.86 382.08,-440.75 308,-360 280.92,-330.48 270.35,-314.32 278,-275 280.55,-261.91 286.94,-247.8 291.38,-239.06"/>
<polygon fill="#63b8ff" stroke="#63b8ff" points="564.62,-516.87 575.21,-516.88 566.93,-510.27 564.62,-516.87"/>
</a>
</g>
</g>
<!-- Node13 -->
<g id="Node000013" class="node">
<title>Node13</title>
<g id="a_Node000013"><a xlink:href="simulatorDriver_8h.html" target="_top" xlink:title=" ">
<polygon fill="white" stroke="#666666" points="810,-426 670,-426 670,-396 810,-396 810,-426"/>
<text text-anchor="start" x="678" y="-414" font-family="Helvetica,sans-Serif" font-size="10.00">include/Drivers/simulator</text>
<text text-anchor="middle" x="740" y="-403" font-family="Helvetica,sans-Serif" font-size="10.00">Driver.h</text>
</a>
</g>
</g>
<!-- Node2&#45;&gt;Node13 -->
<g id="edge18_Node000002_Node000013" class="edge">
<title>Node2&#45;&gt;Node13</title>
<g id="a_edge18_Node000002_Node000013"><a xlink:title=" ">
<path fill="none" stroke="#63b8ff" d="M620.2,-510.53C646.95,-488.53 696.56,-447.73 722.76,-426.18"/>
<polygon fill="#63b8ff" stroke="#63b8ff" points="617.87,-507.91 612.37,-516.97 622.32,-513.32 617.87,-507.91"/>
</a>
</g>
</g>
<!-- Node14 -->
<g id="Node000014" class="node">
<title>Node14</title>
<g id="a_Node000014"><a xlink:href="transDriverModel_8h.html" target="_top" xlink:title=" ">
<polygon fill="white" stroke="#666666" points="465,-360 317,-360 317,-330 465,-330 465,-360"/>
<text text-anchor="start" x="325" y="-348" font-family="Helvetica,sans-Serif" font-size="10.00">include/Drivers/transDriver</text>
<text text-anchor="middle" x="391" y="-337" font-family="Helvetica,sans-Serif" font-size="10.00">Model.h</text>
</a>
</g>
</g>
<!-- Node2&#45;&gt;Node14 -->
<g id="edge30_Node000002_Node000014" class="edge">
<title>Node2&#45;&gt;Node14</title>
<g id="a_edge30_Node000002_Node000014"><a xlink:title=" ">
<path fill="none" stroke="#63b8ff" d="M584.15,-510.32C543.96,-476.12 446.82,-393.48 407.72,-360.22"/>
<polygon fill="#63b8ff" stroke="#63b8ff" points="581.94,-513.03 591.82,-516.84 586.47,-507.7 581.94,-513.03"/>
</a>
</g>
</g>
<!-- Node2&#45;&gt;Node17 -->
<g id="edge31_Node000002_Node000017" class="edge">
<title>Node2&#45;&gt;Node17</title>
<g id="a_edge31_Node000002_Node000017"><a xlink:title=" ">
<path fill="none" stroke="#63b8ff" d="M511.21,-516.68C422.22,-507.95 282.73,-494.04 162,-481 157.37,-480.5 152.58,-479.97 147.77,-479.44"/>
<polygon fill="#63b8ff" stroke="#63b8ff" points="510.98,-520.17 521.27,-517.67 511.66,-513.21 510.98,-520.17"/>
</a>
</g>
</g>
<!-- Node2&#45;&gt;Node18 -->
<g id="edge33_Node000002_Node000018" class="edge">
<title>Node2&#45;&gt;Node18</title>
<g id="a_edge33_Node000002_Node000018"><a xlink:title=" ">
<path fill="none" stroke="#63b8ff" d="M665.83,-515.37C728.55,-505.42 823.18,-490.4 882.19,-481.04"/>
<polygon fill="#63b8ff" stroke="#63b8ff" points="664.99,-511.96 655.66,-516.98 666.09,-518.87 664.99,-511.96"/>
</a>
</g>
</g>
<!-- Node20 -->
<g id="Node000020" class="node">
<title>Node20</title>
<g id="a_Node000020"><a xlink:href="driverModel_8cpp.html" target="_top" xlink:title=" ">
<polygon fill="white" stroke="#666666" points="355.5,-481 204.5,-481 204.5,-462 355.5,-462 355.5,-481"/>
<text text-anchor="middle" x="280" y="-469" font-family="Helvetica,sans-Serif" font-size="10.00">src/Drivers/driverModel.cpp</text>
</a>
</g>
</g>
<!-- Node2&#45;&gt;Node20 -->
<g id="edge37_Node000002_Node000020" class="edge">
<title>Node2&#45;&gt;Node20</title>
<g id="a_edge37_Node000002_Node000020"><a xlink:title=" ">
<path fill="none" stroke="#63b8ff" d="M540.09,-515.31C479.62,-505.36 388.65,-490.38 331.87,-481.04"/>
<polygon fill="#63b8ff" stroke="#63b8ff" points="539.83,-518.81 550.27,-516.98 540.97,-511.91 539.83,-518.81"/>
</a>
</g>
</g>
<!-- Node4 -->
<g id="Node000004" class="node">
<title>Node4</title>
<g id="a_Node000004"><a xlink:href="spreader_8h.html" target="_top" xlink:title=" ">
<polygon fill="white" stroke="#666666" points="922,-129 770,-129 770,-110 922,-110 922,-129"/>
<text text-anchor="middle" x="846" y="-117" font-family="Helvetica,sans-Serif" font-size="10.00">include/Spreader/spreader.h</text>
</a>
</g>
</g>
<!-- Node3&#45;&gt;Node4 -->
<g id="edge3_Node000003_Node000004" class="edge">
<title>Node3&#45;&gt;Node4</title>
<g id="a_edge3_Node000003_Node000004"><a xlink:title=" ">
<path fill="none" stroke="#63b8ff" d="M689.01,-162.31C726.25,-152.39 779.84,-138.12 813.78,-129.08"/>
<polygon fill="#63b8ff" stroke="#63b8ff" points="687.74,-159.03 678.97,-164.98 689.54,-165.79 687.74,-159.03"/>
</a>
</g>
</g>
<!-- Node3&#45;&gt;Node5 -->
<g id="edge7_Node000003_Node000005" class="edge">
<title>Node3&#45;&gt;Node5</title>
<g id="a_edge7_Node000003_Node000005"><a xlink:title=" ">
<path fill="none" stroke="#63b8ff" d="M666.77,-158.13C681.73,-144.66 697.71,-124.94 685,-110 656.08,-76 525.53,-67.9 455.59,-66.03"/>
<polygon fill="#63b8ff" stroke="#63b8ff" points="664.13,-155.78 658.75,-164.9 668.65,-161.12 664.13,-155.78"/>
</a>
</g>
</g>
<!-- Node8 -->
<g id="Node000008" class="node">
<title>Node8</title>
<g id="a_Node000008"><a xlink:href="driver_8cpp.html" target="_top" xlink:title=" ">
<polygon fill="white" stroke="#666666" points="676,-129 556,-129 556,-110 676,-110 676,-129"/>
<text text-anchor="middle" x="616" y="-117" font-family="Helvetica,sans-Serif" font-size="10.00">src/Drivers/driver.cpp</text>
</a>
</g>
</g>
<!-- Node3&#45;&gt;Node8 -->
<g id="edge8_Node000003_Node000008" class="edge">
<title>Node3&#45;&gt;Node8</title>
<g id="a_edge8_Node000003_Node000008"><a xlink:title=" ">
<path fill="none" stroke="#63b8ff" d="M636.82,-156.1C631.53,-147.04 625.28,-136.37 621.02,-129.09"/>
<polygon fill="#63b8ff" stroke="#63b8ff" points="633.81,-157.88 641.88,-164.75 639.85,-154.35 633.81,-157.88"/>
</a>
</g>
</g>
<!-- Node4&#45;&gt;Node5 -->
<g id="edge4_Node000004_Node000005" class="edge">
<title>Node4&#45;&gt;Node5</title>
<g id="a_edge4_Node000004_Node000005"><a xlink:title=" ">
<path fill="none" stroke="#63b8ff" d="M766.09,-108.76C674.88,-97.65 528.9,-79.86 455.79,-70.96"/>
<polygon fill="#63b8ff" stroke="#63b8ff" points="765.76,-112.25 776.11,-109.98 766.61,-105.3 765.76,-112.25"/>
</a>
</g>
</g>
<!-- Node7 -->
<g id="Node000007" class="node">
<title>Node7</title>
<g id="a_Node000007"><a xlink:href="spreader_8cpp.html" target="_top" xlink:title=" ">
<polygon fill="white" stroke="#666666" points="917.5,-74 774.5,-74 774.5,-55 917.5,-55 917.5,-74"/>
<text text-anchor="middle" x="846" y="-62" font-family="Helvetica,sans-Serif" font-size="10.00">src/Spreader/spreader.cpp</text>
</a>
</g>
</g>
<!-- Node4&#45;&gt;Node7 -->
<g id="edge6_Node000004_Node000007" class="edge">
<title>Node4&#45;&gt;Node7</title>
<g id="a_edge6_Node000004_Node000007"><a xlink:title=" ">
<path fill="none" stroke="#63b8ff" d="M846,-99.66C846,-90.93 846,-80.99 846,-74.09"/>
<polygon fill="#63b8ff" stroke="#63b8ff" points="842.5,-99.75 846,-109.75 849.5,-99.75 842.5,-99.75"/>
</a>
</g>
</g>
<!-- Node5&#45;&gt;Node6 -->
<g id="edge5_Node000005_Node000006" class="edge">
<title>Node5&#45;&gt;Node6</title>
<g id="a_edge5_Node000005_Node000006"><a xlink:title=" ">
<path fill="none" stroke="#63b8ff" d="M465.94,-59.01C593.76,-48.58 908.67,-22.86 1020.12,-13.76"/>
<polygon fill="#63b8ff" stroke="#63b8ff" points="465.29,-55.55 455.61,-59.86 465.86,-62.53 465.29,-55.55"/>
</a>
</g>
</g>
<!-- Node9&#45;&gt;Node3 -->
<g id="edge10_Node000009_Node000003" class="edge">
<title>Node9&#45;&gt;Node3</title>
<g id="a_edge10_Node000009_Node000003"><a xlink:title=" ">
<path fill="none" stroke="#63b8ff" d="M609.66,-265.12C619.47,-241.56 636.1,-201.66 643.39,-184.16"/>
<polygon fill="#63b8ff" stroke="#63b8ff" points="606.3,-264.08 605.68,-274.66 612.76,-266.78 606.3,-264.08"/>
</a>
</g>
</g>
<!-- Node9&#45;&gt;Node5 -->
<g id="edge15_Node000009_Node000005" class="edge">
<title>Node9&#45;&gt;Node5</title>
<g id="a_edge15_Node000009_Node000005"><a xlink:title=" ">
<path fill="none" stroke="#63b8ff" d="M587.85,-267.35C550.03,-224.18 447.49,-107.15 418.64,-74.22"/>
<polygon fill="#63b8ff" stroke="#63b8ff" points="585.29,-269.74 594.51,-274.95 590.56,-265.13 585.29,-269.74"/>
</a>
</g>
</g>
<!-- Node9&#45;&gt;Node10 -->
<g id="edge11_Node000009_Node000010" class="edge">
<title>Node9&#45;&gt;Node10</title>
<g id="a_edge11_Node000009_Node000010"><a xlink:title=" ">
<path fill="none" stroke="#63b8ff" d="M542.81,-273.25C485.35,-263.3 399.14,-248.36 345.3,-239.04"/>
<polygon fill="#63b8ff" stroke="#63b8ff" points="542.39,-276.73 552.84,-274.98 543.58,-269.83 542.39,-276.73"/>
</a>
</g>
</g>
<!-- Node12 -->
<g id="Node000012" class="node">
<title>Node12</title>
<g id="a_Node000012"><a xlink:href="dutDriver_8cpp.html" target="_top" xlink:title=" ">
<polygon fill="white" stroke="#666666" points="523.5,-239 386.5,-239 386.5,-220 523.5,-220 523.5,-239"/>
<text text-anchor="middle" x="455" y="-227" font-family="Helvetica,sans-Serif" font-size="10.00">src/Drivers/dutDriver.cpp</text>
</a>
</g>
</g>
<!-- Node9&#45;&gt;Node12 -->
<g id="edge16_Node000009_Node000012" class="edge">
<title>Node9&#45;&gt;Node12</title>
<g id="a_edge16_Node000009_Node000012"><a xlink:title=" ">
<path fill="none" stroke="#63b8ff" d="M568.86,-271.55C541.56,-261.71 503.5,-247.98 479.05,-239.17"/>
<polygon fill="#63b8ff" stroke="#63b8ff" points="567.79,-274.89 578.38,-274.98 570.16,-268.3 567.79,-274.89"/>
</a>
</g>
</g>
<!-- Node10&#45;&gt;Node3 -->
<g id="edge12_Node000010_Node000003" class="edge">
<title>Node10&#45;&gt;Node3</title>
<g id="a_edge12_Node000010_Node000003"><a xlink:title=" ">
<path fill="none" stroke="#63b8ff" d="M362.67,-218.43C428.58,-208.48 528.31,-193.42 590.46,-184.04"/>
<polygon fill="#63b8ff" stroke="#63b8ff" points="361.76,-215.03 352.39,-219.98 362.8,-221.95 361.76,-215.03"/>
</a>
</g>
</g>
<!-- Node10&#45;&gt;Node5 -->
<g id="edge13_Node000010_Node000005" class="edge">
<title>Node10&#45;&gt;Node5</title>
<g id="a_edge13_Node000010_Node000005"><a xlink:title=" ">
<path fill="none" stroke="#63b8ff" d="M299.49,-209.96C302.51,-196.77 307.73,-178.99 316,-165 339.08,-125.93 380.23,-90.05 399.92,-74.14"/>
<polygon fill="#63b8ff" stroke="#63b8ff" points="296.06,-209.27 297.44,-219.77 302.91,-210.69 296.06,-209.27"/>
</a>
</g>
</g>
<!-- Node11 -->
<g id="Node000011" class="node">
<title>Node11</title>
<g id="a_Node000011"><a xlink:href="refDriver_8cpp.html" target="_top" xlink:title=" ">
<polygon fill="white" stroke="#666666" points="459.5,-184 324.5,-184 324.5,-165 459.5,-165 459.5,-184"/>
<text text-anchor="middle" x="392" y="-172" font-family="Helvetica,sans-Serif" font-size="10.00">src/Drivers/refDriver.cpp</text>
</a>
</g>
</g>
<!-- Node10&#45;&gt;Node11 -->
<g id="edge14_Node000010_Node000011" class="edge">
<title>Node10&#45;&gt;Node11</title>
<g id="a_edge14_Node000010_Node000011"><a xlink:title=" ">
<path fill="none" stroke="#63b8ff" d="M320.52,-214.97C338.06,-205.28 361.17,-192.52 376.3,-184.17"/>
<polygon fill="#63b8ff" stroke="#63b8ff" points="318.49,-212.09 311.42,-219.98 321.87,-218.22 318.49,-212.09"/>
</a>
</g>
</g>
<!-- Node13&#45;&gt;Node4 -->
<g id="edge26_Node000013_Node000004" class="edge">
<title>Node13&#45;&gt;Node4</title>
<g id="a_edge26_Node000013_Node000004"><a xlink:title=" ">
<path fill="none" stroke="#63b8ff" d="M748.74,-386.14C770.93,-325.52 828.73,-167.66 842.85,-129.09"/>
<polygon fill="#63b8ff" stroke="#63b8ff" points="745.41,-385.05 745.26,-395.64 751.98,-387.46 745.41,-385.05"/>
</a>
</g>
</g>
<!-- Node13&#45;&gt;Node5 -->
<g id="edge27_Node000013_Node000005" class="edge">
<title>Node13&#45;&gt;Node5</title>
<g id="a_edge27_Node000013_Node000005"><a xlink:title=" ">
<path fill="none" stroke="#63b8ff" d="M740.45,-385.47C741.04,-350.91 742,-285.9 742,-230.5 742,-230.5 742,-230.5 742,-173.5 742,-139.91 729.19,-128.27 701,-110 661.3,-84.28 526.53,-72.45 455.56,-67.9"/>
<polygon fill="#63b8ff" stroke="#63b8ff" points="736.95,-385.52 740.27,-395.58 743.94,-385.64 736.95,-385.52"/>
</a>
</g>
</g>
<!-- Node13&#45;&gt;Node6 -->
<g id="edge29_Node000013_Node000006" class="edge">
<title>Node13&#45;&gt;Node6</title>
<g id="a_edge29_Node000013_Node000006"><a xlink:title=" ">
<path fill="none" stroke="#63b8ff" d="M820.03,-396.47C885.68,-384.91 969.99,-368.78 984,-360 1019.32,-337.86 1041,-327.19 1041,-285.5 1041,-285.5 1041,-285.5 1041,-118.5 1041,-81 1052.25,-37.26 1057.44,-19.09"/>
<polygon fill="#63b8ff" stroke="#63b8ff" points="819.33,-393.04 810.08,-398.22 820.54,-399.94 819.33,-393.04"/>
</a>
</g>
</g>
<!-- Node13&#45;&gt;Node9 -->
<g id="edge19_Node000013_Node000009" class="edge">
<title>Node13&#45;&gt;Node9</title>
<g id="a_edge19_Node000013_Node000009"><a xlink:title=" ">
<path fill="none" stroke="#63b8ff" d="M716.75,-389.03C685.97,-361.26 633.08,-313.54 611.54,-294.11"/>
<polygon fill="#63b8ff" stroke="#63b8ff" points="714.67,-391.86 724.44,-395.96 719.36,-386.66 714.67,-391.86"/>
</a>
</g>
</g>
<!-- Node13&#45;&gt;Node10 -->
<g id="edge20_Node000013_Node000010" class="edge">
<title>Node13&#45;&gt;Node10</title>
<g id="a_edge20_Node000013_Node000010"><a xlink:title=" ">
<path fill="none" stroke="#63b8ff" d="M704.27,-391.16C634.8,-354.54 487.78,-277.16 482,-275 437.38,-258.28 384.34,-246.33 346.34,-239.04"/>
<polygon fill="#63b8ff" stroke="#63b8ff" points="702.66,-394.27 713.14,-395.83 705.92,-388.07 702.66,-394.27"/>
</a>
</g>
</g>
<!-- Node13&#45;&gt;Node14 -->
<g id="edge21_Node000013_Node000014" class="edge">
<title>Node13&#45;&gt;Node14</title>
<g id="a_edge21_Node000013_Node000014"><a xlink:title=" ">
<path fill="none" stroke="#63b8ff" d="M659.83,-395.3C601.17,-384.54 522.17,-370.05 465.01,-359.57"/>
<polygon fill="#63b8ff" stroke="#63b8ff" points="659.33,-398.76 669.79,-397.13 660.59,-391.88 659.33,-398.76"/>
</a>
</g>
</g>
<!-- Node16 -->
<g id="Node000016" class="node">
<title>Node16</title>
<g id="a_Node000016"><a xlink:href="simulatorDriver_8cpp.html" target="_top" xlink:title=" ">
<polygon fill="white" stroke="#666666" points="975,-354.5 807,-354.5 807,-335.5 975,-335.5 975,-354.5"/>
<text text-anchor="middle" x="891" y="-342.5" font-family="Helvetica,sans-Serif" font-size="10.00">src/Drivers/simulatorDriver.cpp</text>
</a>
</g>
</g>
<!-- Node13&#45;&gt;Node16 -->
<g id="edge28_Node000013_Node000016" class="edge">
<title>Node13&#45;&gt;Node16</title>
<g id="a_edge28_Node000013_Node000016"><a xlink:title=" ">
<path fill="none" stroke="#63b8ff" d="M782.61,-391.94C811.54,-379.68 848.48,-364.02 870.9,-354.52"/>
<polygon fill="#63b8ff" stroke="#63b8ff" points="780.98,-388.83 773.14,-395.95 783.71,-395.28 780.98,-388.83"/>
</a>
</g>
</g>
<!-- Node14&#45;&gt;Node5 -->
<g id="edge24_Node000014_Node000005" class="edge">
<title>Node14&#45;&gt;Node5</title>
<g id="a_edge24_Node000014_Node000005"><a xlink:title=" ">
<path fill="none" stroke="#63b8ff" d="M307.19,-329.97C252.8,-315.52 192,-286.78 192,-230.5 192,-230.5 192,-230.5 192,-173.5 192,-96.45 302.39,-74.37 366.42,-68.04"/>
<polygon fill="#63b8ff" stroke="#63b8ff" points="306.35,-333.37 316.9,-332.42 308.06,-326.58 306.35,-333.37"/>
</a>
</g>
</g>
<!-- Node14&#45;&gt;Node9 -->
<g id="edge22_Node000014_Node000009" class="edge">
<title>Node14&#45;&gt;Node9</title>
<g id="a_edge22_Node000014_Node000009"><a xlink:title=" ">
<path fill="none" stroke="#63b8ff" d="M451.25,-327.29C490.4,-316.44 539.79,-302.75 571.15,-294.05"/>
<polygon fill="#63b8ff" stroke="#63b8ff" points="450.24,-323.94 441.54,-329.99 452.11,-330.69 450.24,-323.94"/>
</a>
</g>
</g>
<!-- Node14&#45;&gt;Node10 -->
<g id="edge23_Node000014_Node000010" class="edge">
<title>Node14&#45;&gt;Node10</title>
<g id="a_edge23_Node000014_Node000010"><a xlink:title=" ">
<path fill="none" stroke="#63b8ff" d="M324.96,-325.71C309.97,-318.34 295.88,-308.11 287,-294 276.21,-276.84 285.31,-251.99 291.47,-239.05"/>
<polygon fill="#63b8ff" stroke="#63b8ff" points="323.81,-329.03 334.36,-329.93 326.68,-322.64 323.81,-329.03"/>
</a>
</g>
</g>
<!-- Node15 -->
<g id="Node000015" class="node">
<title>Node15</title>
<g id="a_Node000015"><a xlink:href="transDriverModel_8cpp.html" target="_top" xlink:title=" ">
<polygon fill="white" stroke="#666666" points="472.5,-294 295.5,-294 295.5,-275 472.5,-275 472.5,-294"/>
<text text-anchor="middle" x="384" y="-282" font-family="Helvetica,sans-Serif" font-size="10.00">src/Drivers/transDriverModel.cpp</text>
</a>
</g>
</g>
<!-- Node14&#45;&gt;Node15 -->
<g id="edge25_Node000014_Node000015" class="edge">
<title>Node14&#45;&gt;Node15</title>
<g id="a_edge25_Node000014_Node000015"><a xlink:title=" ">
<path fill="none" stroke="#63b8ff" d="M388.1,-319.75C387.02,-310.72 385.86,-301.03 385.05,-294.27"/>
<polygon fill="#63b8ff" stroke="#63b8ff" points="384.64,-320.33 389.31,-329.84 391.59,-319.49 384.64,-320.33"/>
</a>
</g>
</g>
<!-- Node17&#45;&gt;Node5 -->
<g id="edge32_Node000017_Node000005" class="edge">
<title>Node17&#45;&gt;Node5</title>
<g id="a_edge32_Node000017_Node000005"><a xlink:title=" ">
<path fill="none" stroke="#63b8ff" d="M88.73,-451.74C89.62,-427.37 91,-383.52 91,-346 91,-346 91,-346 91,-173.5 91,-137.85 109.39,-128.27 140,-110 177.41,-87.67 299.51,-74.54 366.32,-68.86"/>
<polygon fill="#63b8ff" stroke="#63b8ff" points="85.24,-451.62 88.36,-461.75 92.23,-451.89 85.24,-451.62"/>
</a>
</g>
</g>
<!-- Node18&#45;&gt;Node13 -->
<g id="edge34_Node000018_Node000013" class="edge">
<title>Node18&#45;&gt;Node13</title>
<g id="a_edge34_Node000018_Node000013"><a xlink:title=" ">
<path fill="none" stroke="#63b8ff" d="M897.73,-459.08C866.08,-449.63 820.99,-436.17 787.12,-426.06"/>
<polygon fill="#63b8ff" stroke="#63b8ff" points="896.92,-462.49 907.5,-461.99 898.92,-455.78 896.92,-462.49"/>
</a>
</g>
</g>
<!-- Node19 -->
<g id="Node000019" class="node">
<title>Node19</title>
<g id="a_Node000019"><a xlink:href="simulator_8cpp.html" target="_top" xlink:title=" ">
<polygon fill="white" stroke="#666666" points="1016,-420.5 866,-420.5 866,-401.5 1016,-401.5 1016,-420.5"/>
<text text-anchor="middle" x="941" y="-408.5" font-family="Helvetica,sans-Serif" font-size="10.00">src/Simulator/simulator.cpp</text>
</a>
</g>
</g>
<!-- Node18&#45;&gt;Node19 -->
<g id="edge35_Node000018_Node000019" class="edge">
<title>Node18&#45;&gt;Node19</title>
<g id="a_edge35_Node000018_Node000019"><a xlink:title=" ">
<path fill="none" stroke="#63b8ff" d="M937.61,-451.66C938.5,-441.24 939.56,-428.8 940.26,-420.67"/>
<polygon fill="#63b8ff" stroke="#63b8ff" points="934.1,-451.61 936.74,-461.87 941.08,-452.2 934.1,-451.61"/>
</a>
</g>
</g>
</g>
</svg>

<g id="navigator" transform="translate(0 0)" fill="#404254">
  <rect fill="#f2f5e9" fill-opacity="0.5" stroke="#606060" stroke-width=".5" x="0" y="0" width="60" height="60"/>
  <use id="zoomplus" xlink:href="#zoomPlus" x="17" y="9" onmousedown="handleZoom(evt,'in')"/>
  <use id="zoomminus" xlink:href="#zoomMin" x="42" y="9" onmousedown="handleZoom(evt,'out')"/>
  <use id="reset" xlink:href="#resetDef" x="30" y="36" onmousedown="handleReset()"/>
   <use id="arrowup" xlink:href="#arrowUp" x="0" y="0" onmousedown="handlePan(0,-1)"/>
  <use id="arrowright" xlink:href="#arrowRight" x="0" y="0" onmousedown="handlePan(1,0)"/>
  <use id="arrowdown" xlink:href="#arrowDown" x="0" y="0" onmousedown="handlePan(0,1)"/>
  <use id="arrowleft" xlink:href="#arrowLeft" x="0" y="0" onmousedown="handlePan(-1,0)"/>
</g>
<svg viewBox="0 0 15 15" width="100%" height="30px" preserveAspectRatio="xMaxYMin meet">
 <g id="arrow_out" transform="scale(0.3 0.3)">
  <a xlink:href="channel_8h__dep__incl_org.svg" target="_base">
   <rect id="button" ry="5" rx="5" y="6" x="6" height="38" width="38"
        fill="#f2f5e9" fill-opacity="0.5" stroke="#606060" stroke-width="1.0"/>
   <path id="arrow"
     d="M 11.500037,31.436501 C 11.940474,20.09759 22.043105,11.32322 32.158766,21.979434 L 37.068811,17.246167 C 37.068811,17.246167 37.088388,32 37.088388,32 L 22.160133,31.978069 C 22.160133,31.978069 26.997745,27.140456 26.997745,27.140456 C 18.528582,18.264221 13.291696,25.230495 11.500037,31.436501 z"
     style="fill:#404040;"/>
  </a>
 </g>
</svg>

<style type='text/css'>
<![CDATA[
[data-mouse-over-selected='false'] { opacity: 0.7; }
[data-mouse-over-selected='true']  { opacity: 1.0; }
]]>
</style>
<script type="application/ecmascript"><![CDATA[
document.addEventListener('DOMContentLoaded', (event) => {
  highlightEdges();
  highlightAdjacentNodes();
});
]]></script>
</svg>
