<?xml version="1.0" encoding="UTF-8" standalone="no"?>
<!DOCTYPE svg PUBLIC "-//W3C//DTD SVG 1.1//EN"
 "http://www.w3.org/Graphics/SVG/1.1/DTD/svg11.dtd">
<!-- Generated by graphviz version 2.43.0 (0)
 -->
<!-- Title: include/Channel/channel.h Pages: 1 -->
<svg width="1109pt" height="599pt"
 viewBox="0.00 0.00 1108.50 599.00" xmlns="http://www.w3.org/2000/svg" xmlns:xlink="http://www.w3.org/1999/xlink">
<g id="graph0" class="graph" transform="scale(1 1) rotate(0) translate(4 595)">
<title>include/Channel/channel.h</title>
<!-- Node1 -->
<g id="Node000001" class="node">
<title>Node1</title>
<g id="a_Node000001"><a xlink:title=" ">
<polygon fill="#999999" stroke="#666666" points="705.5,-591 560.5,-591 560.5,-572 705.5,-572 705.5,-591"/>
<text text-anchor="middle" x="633" y="-579" font-family="Helvetica,sans-Serif" font-size="10.00">include/Channel/channel.h</text>
</a>
</g>
</g>
<!-- Node2 -->
<g id="Node000002" class="node">
<title>Node2</title>
<g id="a_Node000002"><a xlink:href="driverModel_8h.html" target="_top" xlink:title=" ">
<polygon fill="white" stroke="#666666" points="555.5,-536 394.5,-536 394.5,-517 555.5,-517 555.5,-536"/>
<text text-anchor="middle" x="475" y="-524" font-family="Helvetica,sans-Serif" font-size="10.00">include/Drivers/driverModel.h</text>
</a>
</g>
</g>
<!-- Node1&#45;&gt;Node2 -->
<g id="edge1_Node000001_Node000002" class="edge">
<title>Node1&#45;&gt;Node2</title>
<g id="a_edge1_Node000001_Node000002"><a xlink:title=" ">
<path fill="none" stroke="#63b8ff" d="M598.12,-568.8C568.63,-558.91 527.07,-544.97 500.58,-536.08"/>
<polygon fill="#63b8ff" stroke="#63b8ff" points="597.02,-572.12 607.61,-571.98 599.25,-565.49 597.02,-572.12"/>
</a>
</g>
</g>
<!-- Node5 -->
<g id="Node000005" class="node">
<title>Node5</title>
<g id="a_Node000005"><a xlink:href="mlvp_8h.html" target="_top" xlink:title=" ">
<polygon fill="white" stroke="#666666" points="372.5,-74 283.5,-74 283.5,-55 372.5,-55 372.5,-74"/>
<text text-anchor="middle" x="328" y="-62" font-family="Helvetica,sans-Serif" font-size="10.00">include/mlvp.h</text>
</a>
</g>
</g>
<!-- Node1&#45;&gt;Node5 -->
<g id="edge42_Node000001_Node000005" class="edge">
<title>Node1&#45;&gt;Node5</title>
<g id="a_edge42_Node000001_Node000005"><a xlink:title=" ">
<path fill="none" stroke="#63b8ff" d="M550.39,-574.89C378.87,-562.13 0,-527.7 0,-472.5 0,-472.5 0,-472.5 0,-173.5 0,-114.52 193.74,-82.41 283.42,-70.7"/>
<polygon fill="#63b8ff" stroke="#63b8ff" points="550.16,-578.38 560.39,-575.63 550.67,-571.4 550.16,-578.38"/>
</a>
</g>
</g>
<!-- Node9 -->
<g id="Node000009" class="node">
<title>Node9</title>
<g id="a_Node000009"><a xlink:href="dutDriver_8h.html" target="_top" xlink:title=" ">
<polygon fill="white" stroke="#666666" points="735.5,-294 588.5,-294 588.5,-275 735.5,-275 735.5,-294"/>
<text text-anchor="middle" x="662" y="-282" font-family="Helvetica,sans-Serif" font-size="10.00">include/Drivers/dutDriver.h</text>
</a>
</g>
</g>
<!-- Node1&#45;&gt;Node9 -->
<g id="edge39_Node000001_Node000009" class="edge">
<title>Node1&#45;&gt;Node9</title>
<g id="a_edge39_Node000001_Node000009"><a xlink:title=" ">
<path fill="none" stroke="#63b8ff" d="M701.36,-570.26C791,-554.87 937,-522.18 937,-472.5 937,-472.5 937,-472.5 937,-410 937,-321.43 817.15,-295.54 735.69,-288.18"/>
<polygon fill="#63b8ff" stroke="#63b8ff" points="700.53,-566.85 691.25,-571.96 701.7,-573.75 700.53,-566.85"/>
</a>
</g>
</g>
<!-- Node17 -->
<g id="Node000017" class="node">
<title>Node17</title>
<g id="a_Node000017"><a xlink:href="ref_8h.html" target="_top" xlink:title=" ">
<polygon fill="white" stroke="#666666" points="147.5,-481 28.5,-481 28.5,-462 147.5,-462 147.5,-481"/>
<text text-anchor="middle" x="88" y="-469" font-family="Helvetica,sans-Serif" font-size="10.00">include/RefPack/ref.h</text>
</a>
</g>
</g>
<!-- Node1&#45;&gt;Node17 -->
<g id="edge40_Node000001_Node000017" class="edge">
<title>Node1&#45;&gt;Node17</title>
<g id="a_edge40_Node000001_Node000017"><a xlink:title=" ">
<path fill="none" stroke="#63b8ff" d="M572.76,-570.2C522.68,-561.5 449.6,-548.5 386,-536 292.31,-517.58 182.59,-493.57 126.02,-481.01"/>
<polygon fill="#63b8ff" stroke="#63b8ff" points="572.32,-573.67 582.77,-571.93 573.51,-566.77 572.32,-573.67"/>
</a>
</g>
</g>
<!-- Node18 -->
<g id="Node000018" class="node">
<title>Node18</title>
<g id="a_Node000018"><a xlink:href="simulator_8h.html" target="_top" xlink:title=" ">
<polygon fill="white" stroke="#666666" points="871,-481 711,-481 711,-462 871,-462 871,-481"/>
<text text-anchor="middle" x="791" y="-469" font-family="Helvetica,sans-Serif" font-size="10.00">include/Simulator/simulator.h</text>
</a>
</g>
</g>
<!-- Node1&#45;&gt;Node18 -->
<g id="edge41_Node000001_Node000018" class="edge">
<title>Node1&#45;&gt;Node18</title>
<g id="a_edge41_Node000001_Node000018"><a xlink:title=" ">
<path fill="none" stroke="#63b8ff" d="M654.2,-566.01C687.54,-543.22 751.18,-499.72 778.28,-481.2"/>
<polygon fill="#63b8ff" stroke="#63b8ff" points="651.94,-563.31 645.66,-571.84 655.89,-569.09 651.94,-563.31"/>
</a>
</g>
</g>
<!-- Node21 -->
<g id="Node000021" class="node">
<title>Node21</title>
<g id="a_Node000021"><a xlink:href="channel_8cpp.html" target="_top" xlink:title=" ">
<polygon fill="white" stroke="#666666" points="1100.5,-536 965.5,-536 965.5,-517 1100.5,-517 1100.5,-536"/>
<text text-anchor="middle" x="1033" y="-524" font-family="Helvetica,sans-Serif" font-size="10.00">src/Channel/channel.cpp</text>
</a>
</g>
</g>
<!-- Node1&#45;&gt;Node21 -->
<g id="edge43_Node000001_Node000021" class="edge">
<title>Node1&#45;&gt;Node21</title>
<g id="a_edge43_Node000001_Node000021"><a xlink:title=" ">
<path fill="none" stroke="#63b8ff" d="M707.59,-570.62C782.68,-560.67 897.31,-545.48 968.56,-536.04"/>
<polygon fill="#63b8ff" stroke="#63b8ff" points="706.72,-567.2 697.27,-571.98 707.64,-574.14 706.72,-567.2"/>
</a>
</g>
</g>
<!-- Node3 -->
<g id="Node000003" class="node">
<title>Node3</title>
<g id="a_Node000003"><a xlink:href="driver_8h.html" target="_top" xlink:title=" ">
<polygon fill="white" stroke="#666666" points="467,-184 337,-184 337,-165 467,-165 467,-184"/>
<text text-anchor="middle" x="402" y="-172" font-family="Helvetica,sans-Serif" font-size="10.00">include/Drivers/driver.h</text>
</a>
</g>
</g>
<!-- Node2&#45;&gt;Node3 -->
<g id="edge2_Node000002_Node000003" class="edge">
<title>Node2&#45;&gt;Node3</title>
<g id="a_edge2_Node000002_Node000003"><a xlink:title=" ">
<path fill="none" stroke="#63b8ff" d="M425.84,-514.68C350.22,-496.6 214,-457.69 214,-412 214,-412 214,-412 214,-344 214,-277.68 245.89,-262.26 297,-220 318.06,-202.59 346.92,-191.02 369.06,-184.05"/>
<polygon fill="#63b8ff" stroke="#63b8ff" points="425.11,-518.11 435.64,-516.99 426.71,-511.29 425.11,-518.11"/>
</a>
</g>
</g>
<!-- Node2&#45;&gt;Node5 -->
<g id="edge36_Node000002_Node000005" class="edge">
<title>Node2&#45;&gt;Node5</title>
<g id="a_edge36_Node000002_Node000005"><a xlink:title=" ">
<path fill="none" stroke="#63b8ff" d="M384.93,-515.28C346.98,-508.73 303.11,-498.11 266,-481 220.23,-459.9 176,-462.4 176,-412 176,-412 176,-412 176,-173.5 176,-116.85 247.03,-87.18 291.98,-74.08"/>
<polygon fill="#63b8ff" stroke="#63b8ff" points="384.51,-518.76 394.95,-516.95 385.65,-511.86 384.51,-518.76"/>
</a>
</g>
</g>
<!-- Node6 -->
<g id="Node000006" class="node">
<title>Node6</title>
<g id="a_Node000006"><a xlink:href="main_8cpp.html" target="_top" xlink:title=" ">
<polygon fill="white" stroke="#666666" points="958.5,-19 879.5,-19 879.5,0 958.5,0 958.5,-19"/>
<text text-anchor="middle" x="919" y="-7" font-family="Helvetica,sans-Serif" font-size="10.00">src/main.cpp</text>
</a>
</g>
</g>
<!-- Node2&#45;&gt;Node6 -->
<g id="edge38_Node000002_Node000006" class="edge">
<title>Node2&#45;&gt;Node6</title>
<g id="a_edge38_Node000002_Node000006"><a xlink:title=" ">
<path fill="none" stroke="#63b8ff" d="M565.94,-525.52C669.61,-523.83 831.04,-515.51 880,-481 958.96,-425.35 975,-382.1 975,-285.5 975,-285.5 975,-285.5 975,-118.5 975,-77.53 942.84,-36.63 927.26,-19.23"/>
<polygon fill="#63b8ff" stroke="#63b8ff" points="565.73,-522.02 555.79,-525.66 565.83,-529.02 565.73,-522.02"/>
</a>
</g>
</g>
<!-- Node2&#45;&gt;Node9 -->
<g id="edge9_Node000002_Node000009" class="edge">
<title>Node2&#45;&gt;Node9</title>
<g id="a_edge9_Node000002_Node000009"><a xlink:title=" ">
<path fill="none" stroke="#63b8ff" d="M476,-506.46C479.03,-467.94 491.21,-380.22 540,-330 558.22,-311.24 584.98,-300.35 608.8,-294.04"/>
<polygon fill="#63b8ff" stroke="#63b8ff" points="472.49,-506.52 475.32,-516.73 479.47,-506.98 472.49,-506.52"/>
</a>
</g>
</g>
<!-- Node10 -->
<g id="Node000010" class="node">
<title>Node10</title>
<g id="a_Node000010"><a xlink:href="refDriver_8h.html" target="_top" xlink:title=" ">
<polygon fill="white" stroke="#666666" points="450.5,-239 305.5,-239 305.5,-220 450.5,-220 450.5,-239"/>
<text text-anchor="middle" x="378" y="-227" font-family="Helvetica,sans-Serif" font-size="10.00">include/Drivers/refDriver.h</text>
</a>
</g>
</g>
<!-- Node2&#45;&gt;Node10 -->
<g id="edge17_Node000002_Node000010" class="edge">
<title>Node2&#45;&gt;Node10</title>
<g id="a_edge17_Node000002_Node000010"><a xlink:title=" ">
<path fill="none" stroke="#63b8ff" d="M450.45,-511.8C409.67,-487.45 329.39,-432.32 298,-360 276.85,-311.27 338.23,-259.23 365.58,-239.12"/>
<polygon fill="#63b8ff" stroke="#63b8ff" points="448.81,-514.9 459.21,-516.92 452.34,-508.85 448.81,-514.9"/>
</a>
</g>
</g>
<!-- Node13 -->
<g id="Node000013" class="node">
<title>Node13</title>
<g id="a_Node000013"><a xlink:href="simulatorDriver_8h.html" target="_top" xlink:title=" ">
<polygon fill="white" stroke="#666666" points="703,-426 563,-426 563,-396 703,-396 703,-426"/>
<text text-anchor="start" x="571" y="-414" font-family="Helvetica,sans-Serif" font-size="10.00">include/Drivers/simulator</text>
<text text-anchor="middle" x="633" y="-403" font-family="Helvetica,sans-Serif" font-size="10.00">Driver.h</text>
</a>
</g>
</g>
<!-- Node2&#45;&gt;Node13 -->
<g id="edge18_Node000002_Node000013" class="edge">
<title>Node2&#45;&gt;Node13</title>
<g id="a_edge18_Node000002_Node000013"><a xlink:title=" ">
<path fill="none" stroke="#63b8ff" d="M487.56,-508.61C498.45,-494.8 515.22,-475.44 533,-462 552.51,-447.25 577.04,-434.91 596.92,-426.18"/>
<polygon fill="#63b8ff" stroke="#63b8ff" points="484.62,-506.69 481.3,-516.76 490.17,-510.96 484.62,-506.69"/>
</a>
</g>
</g>
<!-- Node14 -->
<g id="Node000014" class="node">
<title>Node14</title>
<g id="a_Node000014"><a xlink:href="transDriverModel_8h.html" target="_top" xlink:title=" ">
<polygon fill="white" stroke="#666666" points="455,-360 307,-360 307,-330 455,-330 455,-360"/>
<text text-anchor="start" x="315" y="-348" font-family="Helvetica,sans-Serif" font-size="10.00">include/Drivers/transDriver</text>
<text text-anchor="middle" x="381" y="-337" font-family="Helvetica,sans-Serif" font-size="10.00">Model.h</text>
</a>
</g>
</g>
<!-- Node2&#45;&gt;Node14 -->
<g id="edge30_Node000002_Node000014" class="edge">
<title>Node2&#45;&gt;Node14</title>
<g id="a_edge30_Node000002_Node000014"><a xlink:title=" ">
<path fill="none" stroke="#63b8ff" d="M465.65,-507.65C446.99,-472.01 405.43,-392.65 388.45,-360.22"/>
<polygon fill="#63b8ff" stroke="#63b8ff" points="462.73,-509.61 470.47,-516.84 468.93,-506.36 462.73,-509.61"/>
</a>
</g>
</g>
<!-- Node2&#45;&gt;Node17 -->
<g id="edge31_Node000002_Node000017" class="edge">
<title>Node2&#45;&gt;Node17</title>
<g id="a_edge31_Node000002_Node000017"><a xlink:title=" ">
<path fill="none" stroke="#63b8ff" d="M402.71,-515.6C329.16,-505.53 216.49,-490.1 147.8,-480.69"/>
<polygon fill="#63b8ff" stroke="#63b8ff" points="402.44,-519.1 412.82,-516.98 403.39,-512.16 402.44,-519.1"/>
</a>
</g>
</g>
<!-- Node2&#45;&gt;Node18 -->
<g id="edge33_Node000002_Node000018" class="edge">
<title>Node2&#45;&gt;Node18</title>
<g id="a_edge33_Node000002_Node000018"><a xlink:title=" ">
<path fill="none" stroke="#63b8ff" d="M535.76,-515.31C595.1,-505.36 684.38,-490.38 740.09,-481.04"/>
<polygon fill="#63b8ff" stroke="#63b8ff" points="535.05,-511.88 525.77,-516.98 536.21,-518.78 535.05,-511.88"/>
</a>
</g>
</g>
<!-- Node20 -->
<g id="Node000020" class="node">
<title>Node20</title>
<g id="a_Node000020"><a xlink:href="driverModel_8cpp.html" target="_top" xlink:title=" ">
<polygon fill="white" stroke="#666666" points="692.5,-481 541.5,-481 541.5,-462 692.5,-462 692.5,-481"/>
<text text-anchor="middle" x="617" y="-469" font-family="Helvetica,sans-Serif" font-size="10.00">src/Drivers/driverModel.cpp</text>
</a>
</g>
</g>
<!-- Node2&#45;&gt;Node20 -->
<g id="edge37_Node000002_Node000020" class="edge">
<title>Node2&#45;&gt;Node20</title>
<g id="a_edge37_Node000002_Node000020"><a xlink:title=" ">
<path fill="none" stroke="#63b8ff" d="M507.36,-513.42C533.71,-503.59 570.26,-489.95 593.77,-481.17"/>
<polygon fill="#63b8ff" stroke="#63b8ff" points="505.96,-510.21 497.81,-516.98 508.41,-516.77 505.96,-510.21"/>
</a>
</g>
</g>
<!-- Node4 -->
<g id="Node000004" class="node">
<title>Node4</title>
<g id="a_Node000004"><a xlink:href="spreader_8h.html" target="_top" xlink:title=" ">
<polygon fill="white" stroke="#666666" points="891,-129 739,-129 739,-110 891,-110 891,-129"/>
<text text-anchor="middle" x="815" y="-117" font-family="Helvetica,sans-Serif" font-size="10.00">include/Spreader/spreader.h</text>
</a>
</g>
</g>
<!-- Node3&#45;&gt;Node4 -->
<g id="edge3_Node000003_Node000004" class="edge">
<title>Node3&#45;&gt;Node4</title>
<g id="a_edge3_Node000003_Node000004"><a xlink:title=" ">
<path fill="none" stroke="#63b8ff" d="M477.62,-163.8C555.13,-153.85 674.49,-138.53 748.5,-129.03"/>
<polygon fill="#63b8ff" stroke="#63b8ff" points="476.91,-160.36 467.44,-165.1 477.81,-167.3 476.91,-160.36"/>
</a>
</g>
</g>
<!-- Node3&#45;&gt;Node5 -->
<g id="edge7_Node000003_Node000005" class="edge">
<title>Node3&#45;&gt;Node5</title>
<g id="a_edge7_Node000003_Node000005"><a xlink:title=" ">
<path fill="none" stroke="#63b8ff" d="M387.88,-157.18C380.99,-148.95 372.76,-138.67 366,-129 352.9,-110.25 339.65,-86.88 332.79,-74.37"/>
<polygon fill="#63b8ff" stroke="#63b8ff" points="385.31,-159.56 394.45,-164.92 390.64,-155.03 385.31,-159.56"/>
</a>
</g>
</g>
<!-- Node8 -->
<g id="Node000008" class="node">
<title>Node8</title>
<g id="a_Node000008"><a xlink:href="driver_8cpp.html" target="_top" xlink:title=" ">
<polygon fill="white" stroke="#666666" points="495,-129 375,-129 375,-110 495,-110 495,-129"/>
<text text-anchor="middle" x="435" y="-117" font-family="Helvetica,sans-Serif" font-size="10.00">src/Drivers/driver.cpp</text>
</a>
</g>
</g>
<!-- Node3&#45;&gt;Node8 -->
<g id="edge8_Node000003_Node000008" class="edge">
<title>Node3&#45;&gt;Node8</title>
<g id="a_edge8_Node000003_Node000008"><a xlink:title=" ">
<path fill="none" stroke="#63b8ff" d="M412.83,-156.1C418.47,-147.04 425.12,-136.37 429.65,-129.09"/>
<polygon fill="#63b8ff" stroke="#63b8ff" points="409.76,-154.41 407.45,-164.75 415.71,-158.11 409.76,-154.41"/>
</a>
</g>
</g>
<!-- Node4&#45;&gt;Node5 -->
<g id="edge4_Node000004_Node000005" class="edge">
<title>Node4&#45;&gt;Node5</title>
<g id="a_edge4_Node000004_Node000005"><a xlink:title=" ">
<path fill="none" stroke="#63b8ff" d="M728.73,-109.11C624.54,-97.77 453.25,-79.13 372.62,-70.36"/>
<polygon fill="#63b8ff" stroke="#63b8ff" points="728.59,-112.62 738.91,-110.22 729.34,-105.66 728.59,-112.62"/>
</a>
</g>
</g>
<!-- Node7 -->
<g id="Node000007" class="node">
<title>Node7</title>
<g id="a_Node000007"><a xlink:href="spreader_8cpp.html" target="_top" xlink:title=" ">
<polygon fill="white" stroke="#666666" points="886.5,-74 743.5,-74 743.5,-55 886.5,-55 886.5,-74"/>
<text text-anchor="middle" x="815" y="-62" font-family="Helvetica,sans-Serif" font-size="10.00">src/Spreader/spreader.cpp</text>
</a>
</g>
</g>
<!-- Node4&#45;&gt;Node7 -->
<g id="edge6_Node000004_Node000007" class="edge">
<title>Node4&#45;&gt;Node7</title>
<g id="a_edge6_Node000004_Node000007"><a xlink:title=" ">
<path fill="none" stroke="#63b8ff" d="M815,-99.66C815,-90.93 815,-80.99 815,-74.09"/>
<polygon fill="#63b8ff" stroke="#63b8ff" points="811.5,-99.75 815,-109.75 818.5,-99.75 811.5,-99.75"/>
</a>
</g>
</g>
<!-- Node5&#45;&gt;Node6 -->
<g id="edge5_Node000005_Node000006" class="edge">
<title>Node5&#45;&gt;Node6</title>
<g id="a_edge5_Node000005_Node000006"><a xlink:title=" ">
<path fill="none" stroke="#63b8ff" d="M383.17,-58.55C501.32,-47.96 776.45,-23.28 879.28,-14.06"/>
<polygon fill="#63b8ff" stroke="#63b8ff" points="382.55,-55.09 372.91,-59.47 383.18,-62.07 382.55,-55.09"/>
</a>
</g>
</g>
<!-- Node9&#45;&gt;Node3 -->
<g id="edge10_Node000009_Node000003" class="edge">
<title>Node9&#45;&gt;Node3</title>
<g id="a_edge10_Node000009_Node000003"><a xlink:title=" ">
<path fill="none" stroke="#63b8ff" d="M605.94,-272.76C573.78,-265.49 533.15,-254.38 499,-239 465.23,-223.79 429.89,-197.64 412.69,-184.14"/>
<polygon fill="#63b8ff" stroke="#63b8ff" points="605.54,-276.25 616.06,-274.98 607.05,-269.42 605.54,-276.25"/>
</a>
</g>
</g>
<!-- Node9&#45;&gt;Node5 -->
<g id="edge15_Node000009_Node000005" class="edge">
<title>Node9&#45;&gt;Node5</title>
<g id="a_edge15_Node000009_Node000005"><a xlink:title=" ">
<path fill="none" stroke="#63b8ff" d="M662.37,-264.92C661.85,-238.94 656.91,-191.91 630,-165 559.45,-94.44 437.97,-73.92 372.65,-67.95"/>
<polygon fill="#63b8ff" stroke="#63b8ff" points="658.87,-264.94 662.37,-274.94 665.87,-264.94 658.87,-264.94"/>
</a>
</g>
</g>
<!-- Node9&#45;&gt;Node10 -->
<g id="edge11_Node000009_Node000010" class="edge">
<title>Node9&#45;&gt;Node10</title>
<g id="a_edge11_Node000009_Node000010"><a xlink:title=" ">
<path fill="none" stroke="#63b8ff" d="M606.42,-273.13C553.17,-263.19 473.77,-248.37 423.99,-239.08"/>
<polygon fill="#63b8ff" stroke="#63b8ff" points="605.9,-276.59 616.37,-274.98 607.18,-269.71 605.9,-276.59"/>
</a>
</g>
</g>
<!-- Node12 -->
<g id="Node000012" class="node">
<title>Node12</title>
<g id="a_Node000012"><a xlink:href="dutDriver_8cpp.html" target="_top" xlink:title=" ">
<polygon fill="white" stroke="#666666" points="644.5,-239 507.5,-239 507.5,-220 644.5,-220 644.5,-239"/>
<text text-anchor="middle" x="576" y="-227" font-family="Helvetica,sans-Serif" font-size="10.00">src/Drivers/dutDriver.cpp</text>
</a>
</g>
</g>
<!-- Node9&#45;&gt;Node12 -->
<g id="edge16_Node000009_Node000012" class="edge">
<title>Node9&#45;&gt;Node12</title>
<g id="a_edge16_Node000009_Node000012"><a xlink:title=" ">
<path fill="none" stroke="#63b8ff" d="M639.6,-269.7C623.93,-260.04 603.49,-247.44 590.07,-239.17"/>
<polygon fill="#63b8ff" stroke="#63b8ff" points="637.83,-272.72 648.18,-274.98 641.51,-266.76 637.83,-272.72"/>
</a>
</g>
</g>
<!-- Node10&#45;&gt;Node3 -->
<g id="edge12_Node000010_Node000003" class="edge">
<title>Node10&#45;&gt;Node3</title>
<g id="a_edge12_Node000010_Node000003"><a xlink:title=" ">
<path fill="none" stroke="#63b8ff" d="M386.14,-210.53C390.18,-201.6 394.88,-191.22 398.11,-184.09"/>
<polygon fill="#63b8ff" stroke="#63b8ff" points="382.9,-209.19 381.96,-219.75 389.28,-212.08 382.9,-209.19"/>
</a>
</g>
</g>
<!-- Node10&#45;&gt;Node5 -->
<g id="edge13_Node000010_Node000005" class="edge">
<title>Node10&#45;&gt;Node5</title>
<g id="a_edge13_Node000010_Node000005"><a xlink:title=" ">
<path fill="none" stroke="#63b8ff" d="M354.35,-214.09C344.23,-206.52 333.5,-196.26 328,-184 310.99,-146.08 320.82,-94.22 325.73,-74.03"/>
<polygon fill="#63b8ff" stroke="#63b8ff" points="352.36,-216.97 362.57,-219.8 356.35,-211.22 352.36,-216.97"/>
</a>
</g>
</g>
<!-- Node11 -->
<g id="Node000011" class="node">
<title>Node11</title>
<g id="a_Node000011"><a xlink:href="refDriver_8cpp.html" target="_top" xlink:title=" ">
<polygon fill="white" stroke="#666666" points="620.5,-184 485.5,-184 485.5,-165 620.5,-165 620.5,-184"/>
<text text-anchor="middle" x="553" y="-172" font-family="Helvetica,sans-Serif" font-size="10.00">src/Drivers/refDriver.cpp</text>
</a>
</g>
</g>
<!-- Node10&#45;&gt;Node11 -->
<g id="edge14_Node000010_Node000011" class="edge">
<title>Node10&#45;&gt;Node11</title>
<g id="a_edge14_Node000010_Node000011"><a xlink:title=" ">
<path fill="none" stroke="#63b8ff" d="M415.79,-217.06C448.5,-207.15 495.07,-193.04 524.66,-184.08"/>
<polygon fill="#63b8ff" stroke="#63b8ff" points="414.67,-213.74 406.12,-219.98 416.7,-220.44 414.67,-213.74"/>
</a>
</g>
</g>
<!-- Node13&#45;&gt;Node4 -->
<g id="edge26_Node000013_Node000004" class="edge">
<title>Node13&#45;&gt;Node4</title>
<g id="a_edge26_Node000013_Node000004"><a xlink:title=" ">
<path fill="none" stroke="#63b8ff" d="M710.91,-393.52C746.76,-384.52 784.15,-372.65 797,-360 821.79,-335.6 821,-320.29 821,-285.5 821,-285.5 821,-285.5 821,-228.5 821,-191.51 817.45,-147.49 815.81,-129.17"/>
<polygon fill="#63b8ff" stroke="#63b8ff" points="709.75,-390.2 700.87,-395.98 711.41,-397 709.75,-390.2"/>
</a>
</g>
</g>
<!-- Node13&#45;&gt;Node5 -->
<g id="edge27_Node000013_Node000005" class="edge">
<title>Node13&#45;&gt;Node5</title>
<g id="a_edge27_Node000013_Node000005"><a xlink:title=" ">
<path fill="none" stroke="#63b8ff" d="M701.96,-391.93C717.58,-384.56 732.37,-374.29 742,-360 763.13,-328.65 758.09,-310.46 745,-275 708.87,-177.11 673.65,-151.68 578,-110 510.3,-80.5 424.17,-70.56 372.7,-67.2"/>
<polygon fill="#63b8ff" stroke="#63b8ff" points="700.49,-388.75 692.71,-395.93 703.27,-395.17 700.49,-388.75"/>
</a>
</g>
</g>
<!-- Node13&#45;&gt;Node6 -->
<g id="edge29_Node000013_Node000006" class="edge">
<title>Node13&#45;&gt;Node6</title>
<g id="a_edge29_Node000013_Node000006"><a xlink:title=" ">
<path fill="none" stroke="#63b8ff" d="M707.42,-393.72C756.12,-382.47 812.29,-368.12 821,-360 925.61,-262.43 921.75,-63.09 919.54,-19.18"/>
<polygon fill="#63b8ff" stroke="#63b8ff" points="706.45,-390.35 697.48,-396 708.01,-397.18 706.45,-390.35"/>
</a>
</g>
</g>
<!-- Node13&#45;&gt;Node9 -->
<g id="edge19_Node000013_Node000009" class="edge">
<title>Node13&#45;&gt;Node9</title>
<g id="a_edge19_Node000013_Node000009"><a xlink:title=" ">
<path fill="none" stroke="#63b8ff" d="M690.4,-391.28C704.47,-383.84 717.82,-373.68 726,-360 732.84,-348.56 732.18,-341.82 726,-330 717.16,-313.09 698.64,-301.31 683.79,-294.13"/>
<polygon fill="#63b8ff" stroke="#63b8ff" points="688.57,-388.28 681.1,-395.8 691.63,-394.58 688.57,-388.28"/>
</a>
</g>
</g>
<!-- Node13&#45;&gt;Node10 -->
<g id="edge20_Node000013_Node000010" class="edge">
<title>Node13&#45;&gt;Node10</title>
<g id="a_edge20_Node000013_Node000010"><a xlink:title=" ">
<path fill="none" stroke="#63b8ff" d="M575.6,-391.28C561.53,-383.84 548.18,-373.68 540,-360 520.61,-327.56 564.96,-305.02 542,-275 529.19,-258.24 479.51,-246.32 438.16,-239.06"/>
<polygon fill="#63b8ff" stroke="#63b8ff" points="574.37,-394.58 584.9,-395.8 577.43,-388.28 574.37,-394.58"/>
</a>
</g>
</g>
<!-- Node13&#45;&gt;Node14 -->
<g id="edge21_Node000013_Node000014" class="edge">
<title>Node13&#45;&gt;Node14</title>
<g id="a_edge21_Node000013_Node000014"><a xlink:title=" ">
<path fill="none" stroke="#63b8ff" d="M567.84,-393.45C527.01,-383.08 474.96,-369.86 436.17,-360.01"/>
<polygon fill="#63b8ff" stroke="#63b8ff" points="567.14,-396.89 577.7,-395.95 568.87,-390.1 567.14,-396.89"/>
</a>
</g>
</g>
<!-- Node16 -->
<g id="Node000016" class="node">
<title>Node16</title>
<g id="a_Node000016"><a xlink:href="simulatorDriver_8cpp.html" target="_top" xlink:title=" ">
<polygon fill="white" stroke="#666666" points="717,-354.5 549,-354.5 549,-335.5 717,-335.5 717,-354.5"/>
<text text-anchor="middle" x="633" y="-342.5" font-family="Helvetica,sans-Serif" font-size="10.00">src/Drivers/simulatorDriver.cpp</text>
</a>
</g>
</g>
<!-- Node13&#45;&gt;Node16 -->
<g id="edge28_Node000013_Node000016" class="edge">
<title>Node13&#45;&gt;Node16</title>
<g id="a_edge28_Node000013_Node000016"><a xlink:title=" ">
<path fill="none" stroke="#63b8ff" d="M633,-385.6C633,-374.8 633,-362.78 633,-354.84"/>
<polygon fill="#63b8ff" stroke="#63b8ff" points="629.5,-385.8 633,-395.8 636.5,-385.8 629.5,-385.8"/>
</a>
</g>
</g>
<!-- Node14&#45;&gt;Node5 -->
<g id="edge24_Node000014_Node000005" class="edge">
<title>Node14&#45;&gt;Node5</title>
<g id="a_edge24_Node000014_Node000005"><a xlink:title=" ">
<path fill="none" stroke="#63b8ff" d="M356.7,-322.87C336.34,-303.43 308.79,-272.6 297,-239 275.63,-178.08 310.55,-99.72 323.48,-74.05"/>
<polygon fill="#63b8ff" stroke="#63b8ff" points="354.39,-325.5 364.1,-329.74 359.15,-320.37 354.39,-325.5"/>
</a>
</g>
</g>
<!-- Node14&#45;&gt;Node9 -->
<g id="edge22_Node000014_Node000009" class="edge">
<title>Node14&#45;&gt;Node9</title>
<g id="a_edge22_Node000014_Node000009"><a xlink:title=" ">
<path fill="none" stroke="#63b8ff" d="M458.28,-327.91C510.85,-316.97 578.36,-302.91 620.91,-294.05"/>
<polygon fill="#63b8ff" stroke="#63b8ff" points="457.38,-324.52 448.31,-329.99 458.81,-331.38 457.38,-324.52"/>
</a>
</g>
</g>
<!-- Node14&#45;&gt;Node10 -->
<g id="edge23_Node000014_Node000010" class="edge">
<title>Node14&#45;&gt;Node10</title>
<g id="a_edge23_Node000014_Node000010"><a xlink:title=" ">
<path fill="none" stroke="#63b8ff" d="M361.85,-321.97C355.89,-313.75 350.07,-303.98 347,-294 340.65,-273.36 357.68,-251.09 368.95,-239.18"/>
<polygon fill="#63b8ff" stroke="#63b8ff" points="359.12,-324.16 368.01,-329.92 364.65,-319.87 359.12,-324.16"/>
</a>
</g>
</g>
<!-- Node15 -->
<g id="Node000015" class="node">
<title>Node15</title>
<g id="a_Node000015"><a xlink:href="transDriverModel_8cpp.html" target="_top" xlink:title=" ">
<polygon fill="white" stroke="#666666" points="532.5,-294 355.5,-294 355.5,-275 532.5,-275 532.5,-294"/>
<text text-anchor="middle" x="444" y="-282" font-family="Helvetica,sans-Serif" font-size="10.00">src/Drivers/transDriverModel.cpp</text>
</a>
</g>
</g>
<!-- Node14&#45;&gt;Node15 -->
<g id="edge25_Node000014_Node000015" class="edge">
<title>Node14&#45;&gt;Node15</title>
<g id="a_edge25_Node000014_Node000015"><a xlink:title=" ">
<path fill="none" stroke="#63b8ff" d="M403.66,-322.96C414.3,-313.07 426.41,-301.83 434.56,-294.27"/>
<polygon fill="#63b8ff" stroke="#63b8ff" points="401.2,-320.47 396.25,-329.84 405.96,-325.6 401.2,-320.47"/>
</a>
</g>
</g>
<!-- Node17&#45;&gt;Node5 -->
<g id="edge32_Node000017_Node000005" class="edge">
<title>Node17&#45;&gt;Node5</title>
<g id="a_edge32_Node000017_Node000005"><a xlink:title=" ">
<path fill="none" stroke="#63b8ff" d="M94.01,-452.3C101.41,-428.24 113,-384.43 113,-346 113,-346 113,-346 113,-173.5 113,-97.89 220.48,-75.21 283.45,-68.41"/>
<polygon fill="#63b8ff" stroke="#63b8ff" points="90.66,-451.27 90.97,-461.87 97.33,-453.4 90.66,-451.27"/>
</a>
</g>
</g>
<!-- Node18&#45;&gt;Node13 -->
<g id="edge34_Node000018_Node000013" class="edge">
<title>Node18&#45;&gt;Node13</title>
<g id="a_edge34_Node000018_Node000013"><a xlink:title=" ">
<path fill="none" stroke="#63b8ff" d="M758.48,-458.46C733.06,-449.05 697.7,-435.95 670.99,-426.06"/>
<polygon fill="#63b8ff" stroke="#63b8ff" points="757.43,-461.8 768.03,-461.99 759.86,-455.24 757.43,-461.8"/>
</a>
</g>
</g>
<!-- Node19 -->
<g id="Node000019" class="node">
<title>Node19</title>
<g id="a_Node000019"><a xlink:href="simulator_8cpp.html" target="_top" xlink:title=" ">
<polygon fill="white" stroke="#666666" points="871,-420.5 721,-420.5 721,-401.5 871,-401.5 871,-420.5"/>
<text text-anchor="middle" x="796" y="-408.5" font-family="Helvetica,sans-Serif" font-size="10.00">src/Simulator/simulator.cpp</text>
</a>
</g>
</g>
<!-- Node18&#45;&gt;Node19 -->
<g id="edge35_Node000018_Node000019" class="edge">
<title>Node18&#45;&gt;Node19</title>
<g id="a_edge35_Node000018_Node000019"><a xlink:title=" ">
<path fill="none" stroke="#63b8ff" d="M792.61,-451.66C793.5,-441.24 794.56,-428.8 795.26,-420.67"/>
<polygon fill="#63b8ff" stroke="#63b8ff" points="789.1,-451.61 791.74,-461.87 796.08,-452.2 789.1,-451.61"/>
</a>
</g>
</g>
</g>
</svg>
