<?xml version="1.0" encoding="UTF-8" standalone="no"?>
<!DOCTYPE svg PUBLIC "-//W3C//DTD SVG 1.1//EN"
 "http://www.w3.org/Graphics/SVG/1.1/DTD/svg11.dtd">
<!-- Generated by graphviz version 2.43.0 (0)
 -->
<!-- Title: MLVP::Driver::TransDriver Pages: 1 -->
<svg width="342pt" height="137pt"
 viewBox="0.00 0.00 341.50 137.00" xmlns="http://www.w3.org/2000/svg" xmlns:xlink="http://www.w3.org/1999/xlink">
<g id="graph0" class="graph" transform="scale(1 1) rotate(0) translate(4 133)">
<title>MLVP::Driver::TransDriver</title>
<!-- Node1 -->
<g id="Node000001" class="node">
<title>Node1</title>
<g id="a_Node000001"><a xlink:title=" ">
<polygon fill="#999999" stroke="#666666" points="237,-74 97,-74 97,-55 237,-55 237,-74"/>
<text text-anchor="middle" x="167" y="-62" font-family="Helvetica,sans-Serif" font-size="10.00">MLVP::Driver::TransDriver</text>
</a>
</g>
</g>
<!-- Node3 -->
<g id="Node000003" class="node">
<title>Node3</title>
<g id="a_Node000003"><a xlink:href="classMLVP_1_1Driver_1_1DutTransDriver.html" target="_top" xlink:title=" ">
<polygon fill="white" stroke="#bfbfbf" points="158,-19 0,-19 0,0 158,0 158,-19"/>
<text text-anchor="middle" x="79" y="-7" font-family="Helvetica,sans-Serif" font-size="10.00">MLVP::Driver::DutTransDriver</text>
</a>
</g>
</g>
<!-- Node1&#45;&gt;Node3 -->
<g id="edge2_Node000001_Node000003" class="edge">
<title>Node1&#45;&gt;Node3</title>
<g id="a_edge2_Node000001_Node000003"><a xlink:title=" ">
<path fill="none" stroke="#63b8ff" d="M144.08,-49.7C128.05,-40.04 107.13,-27.44 93.4,-19.17"/>
<polygon fill="#63b8ff" stroke="#63b8ff" points="142.49,-52.82 152.86,-54.98 146.1,-46.83 142.49,-52.82"/>
</a>
</g>
</g>
<!-- Node4 -->
<g id="Node000004" class="node">
<title>Node4</title>
<g id="a_Node000004"><a xlink:href="classMLVP_1_1Driver_1_1RefTransDriver.html" target="_top" xlink:title=" ">
<polygon fill="white" stroke="#bfbfbf" points="333.5,-19 176.5,-19 176.5,0 333.5,0 333.5,-19"/>
<text text-anchor="middle" x="255" y="-7" font-family="Helvetica,sans-Serif" font-size="10.00">MLVP::Driver::RefTransDriver</text>
</a>
</g>
</g>
<!-- Node1&#45;&gt;Node4 -->
<g id="edge3_Node000001_Node000004" class="edge">
<title>Node1&#45;&gt;Node4</title>
<g id="a_edge3_Node000001_Node000004"><a xlink:title=" ">
<path fill="none" stroke="#63b8ff" d="M189.92,-49.7C205.95,-40.04 226.87,-27.44 240.6,-19.17"/>
<polygon fill="#63b8ff" stroke="#63b8ff" points="187.9,-46.83 181.14,-54.98 191.51,-52.82 187.9,-46.83"/>
</a>
</g>
</g>
<!-- Node2 -->
<g id="Node000002" class="node">
<title>Node2</title>
<g id="a_Node000002"><a xlink:href="classMLVP_1_1Driver_1_1DriverModel.html" target="_top" xlink:title=" ">
<polygon fill="white" stroke="#bfbfbf" points="239.5,-129 94.5,-129 94.5,-110 239.5,-110 239.5,-129"/>
<text text-anchor="middle" x="167" y="-117" font-family="Helvetica,sans-Serif" font-size="10.00">MLVP::Driver::DriverModel</text>
</a>
</g>
</g>
<!-- Node2&#45;&gt;Node1 -->
<g id="edge1_Node000001_Node000002" class="edge">
<title>Node2&#45;&gt;Node1</title>
<g id="a_edge1_Node000001_Node000002"><a xlink:title=" ">
<path fill="none" stroke="#63b8ff" d="M167,-99.66C167,-90.93 167,-80.99 167,-74.09"/>
<polygon fill="#63b8ff" stroke="#63b8ff" points="163.5,-99.75 167,-109.75 170.5,-99.75 163.5,-99.75"/>
</a>
</g>
</g>
</g>
</svg>
