<?xml version="1.0" encoding="UTF-8" standalone="no"?>
<!DOCTYPE svg PUBLIC "-//W3C//DTD SVG 1.1//EN"
 "http://www.w3.org/Graphics/SVG/1.1/DTD/svg11.dtd">
<!-- Generated by graphviz version 2.43.0 (0)
 -->
<!-- Title: src/Database/database.cpp Pages: 1 -->
<svg width="894pt" height="302pt"
 viewBox="0.00 0.00 894.00 302.00" xmlns="http://www.w3.org/2000/svg" xmlns:xlink="http://www.w3.org/1999/xlink">
<g id="graph0" class="graph" transform="scale(1 1) rotate(0) translate(4 298)">
<title>src/Database/database.cpp</title>
<!-- Node1 -->
<g id="Node000001" class="node">
<title>Node1</title>
<g id="a_Node000001"><a xlink:title=" ">
<polygon fill="#999999" stroke="#666666" points="274.5,-294 125.5,-294 125.5,-275 274.5,-275 274.5,-294"/>
<text text-anchor="middle" x="200" y="-282" font-family="Helvetica,sans-Serif" font-size="10.00">src/Database/database.cpp</text>
</a>
</g>
</g>
<!-- Node2 -->
<g id="Node000002" class="node">
<title>Node2</title>
<g id="a_Node000002"><a xlink:href="database_8h.html" target="_top" xlink:title=" ">
<polygon fill="white" stroke="#666666" points="260,-239 140,-239 140,-220 260,-220 260,-239"/>
<text text-anchor="middle" x="200" y="-227" font-family="Helvetica,sans-Serif" font-size="10.00">Database/database.h</text>
</a>
</g>
</g>
<!-- Node1&#45;&gt;Node2 -->
<g id="edge1_Node000001_Node000002" class="edge">
<title>Node1&#45;&gt;Node2</title>
<g id="a_edge1_Node000001_Node000002"><a xlink:title=" ">
<path fill="none" stroke="#63b8ff" d="M200,-274.75C200,-267.8 200,-257.85 200,-249.13"/>
<polygon fill="#63b8ff" stroke="#63b8ff" points="203.5,-249.09 200,-239.09 196.5,-249.09 203.5,-249.09"/>
</a>
</g>
</g>
<!-- Node3 -->
<g id="Node000003" class="node">
<title>Node3</title>
<g id="a_Node000003"><a xlink:title=" ">
<polygon fill="#e0e0e0" stroke="#999999" points="58,-129 0,-129 0,-110 58,-110 58,-129"/>
<text text-anchor="middle" x="29" y="-117" font-family="Helvetica,sans-Serif" font-size="10.00">memory</text>
</a>
</g>
</g>
<!-- Node2&#45;&gt;Node3 -->
<g id="edge2_Node000002_Node000003" class="edge">
<title>Node2&#45;&gt;Node3</title>
<g id="a_edge2_Node000002_Node000003"><a xlink:title=" ">
<path fill="none" stroke="#63b8ff" d="M186.3,-219.84C156.9,-201.28 87.56,-157.49 51.57,-134.75"/>
<polygon fill="#63b8ff" stroke="#63b8ff" points="53.09,-131.58 42.77,-129.2 49.36,-137.5 53.09,-131.58"/>
</a>
</g>
</g>
<!-- Node4 -->
<g id="Node000004" class="node">
<title>Node4</title>
<g id="a_Node000004"><a xlink:href="transaction_8h_source.html" target="_top" xlink:title=" ">
<polygon fill="white" stroke="#666666" points="420.5,-184 281.5,-184 281.5,-165 420.5,-165 420.5,-184"/>
<text text-anchor="middle" x="351" y="-172" font-family="Helvetica,sans-Serif" font-size="10.00">Transaction/transaction.h</text>
</a>
</g>
</g>
<!-- Node2&#45;&gt;Node4 -->
<g id="edge3_Node000002_Node000004" class="edge">
<title>Node2&#45;&gt;Node4</title>
<g id="a_edge3_Node000002_Node000004"><a xlink:title=" ">
<path fill="none" stroke="#63b8ff" d="M224.26,-219.98C249.32,-211.19 288.63,-197.39 316.83,-187.49"/>
<polygon fill="#63b8ff" stroke="#63b8ff" points="318.02,-190.78 326.3,-184.17 315.7,-184.18 318.02,-190.78"/>
</a>
</g>
</g>
<!-- Node4&#45;&gt;Node3 -->
<g id="edge10_Node000004_Node000003" class="edge">
<title>Node4&#45;&gt;Node3</title>
<g id="a_edge10_Node000004_Node000003"><a xlink:title=" ">
<path fill="none" stroke="#63b8ff" d="M289.03,-164.97C233.62,-157.07 149.97,-144.49 67.99,-129.08"/>
<polygon fill="#63b8ff" stroke="#63b8ff" points="68.48,-125.61 58.01,-127.19 67.18,-132.49 68.48,-125.61"/>
</a>
</g>
</g>
<!-- Node5 -->
<g id="Node000005" class="node">
<title>Node5</title>
<g id="a_Node000005"><a xlink:title=" ">
<polygon fill="#e0e0e0" stroke="#999999" points="886,-74 826,-74 826,-55 886,-55 886,-74"/>
<text text-anchor="middle" x="856" y="-62" font-family="Helvetica,sans-Serif" font-size="10.00">iostream</text>
</a>
</g>
</g>
<!-- Node4&#45;&gt;Node5 -->
<g id="edge4_Node000004_Node000005" class="edge">
<title>Node4&#45;&gt;Node5</title>
<g id="a_edge4_Node000004_Node000005"><a xlink:title=" ">
<path fill="none" stroke="#63b8ff" d="M420.62,-171.74C548.86,-167.84 812.19,-156.55 843,-129 855.31,-117.99 857.78,-98.73 857.64,-84.31"/>
<polygon fill="#63b8ff" stroke="#63b8ff" points="861.12,-83.82 857.12,-74.02 854.13,-84.18 861.12,-83.82"/>
</a>
</g>
</g>
<!-- Node6 -->
<g id="Node000006" class="node">
<title>Node6</title>
<g id="a_Node000006"><a xlink:title=" ">
<polygon fill="#e0e0e0" stroke="#999999" points="124,-129 76,-129 76,-110 124,-110 124,-129"/>
<text text-anchor="middle" x="100" y="-117" font-family="Helvetica,sans-Serif" font-size="10.00">mutex</text>
</a>
</g>
</g>
<!-- Node4&#45;&gt;Node6 -->
<g id="edge5_Node000004_Node000006" class="edge">
<title>Node4&#45;&gt;Node6</title>
<g id="a_edge5_Node000004_Node000006"><a xlink:title=" ">
<path fill="none" stroke="#63b8ff" d="M305.76,-164.96C263.73,-156.87 199.16,-144.05 134.13,-129.17"/>
<polygon fill="#63b8ff" stroke="#63b8ff" points="134.65,-125.7 124.12,-126.86 133.07,-132.52 134.65,-125.7"/>
</a>
</g>
</g>
<!-- Node7 -->
<g id="Node000007" class="node">
<title>Node7</title>
<g id="a_Node000007"><a xlink:title=" ">
<polygon fill="#e0e0e0" stroke="#999999" points="228,-129 142,-129 142,-110 228,-110 228,-129"/>
<text text-anchor="middle" x="185" y="-117" font-family="Helvetica,sans-Serif" font-size="10.00">shared_mutex</text>
</a>
</g>
</g>
<!-- Node4&#45;&gt;Node7 -->
<g id="edge6_Node000004_Node000007" class="edge">
<title>Node4&#45;&gt;Node7</title>
<g id="a_edge6_Node000004_Node000007"><a xlink:title=" ">
<path fill="none" stroke="#63b8ff" d="M324.33,-164.98C296.46,-156.09 252.55,-142.07 221.48,-132.15"/>
<polygon fill="#63b8ff" stroke="#63b8ff" points="222.47,-128.79 211.88,-129.08 220.34,-135.46 222.47,-128.79"/>
</a>
</g>
</g>
<!-- Node8 -->
<g id="Node000008" class="node">
<title>Node8</title>
<g id="a_Node000008"><a xlink:title=" ">
<polygon fill="#e0e0e0" stroke="#999999" points="739,-19 695,-19 695,0 739,0 739,-19"/>
<text text-anchor="middle" x="717" y="-7" font-family="Helvetica,sans-Serif" font-size="10.00">string</text>
</a>
</g>
</g>
<!-- Node4&#45;&gt;Node8 -->
<g id="edge7_Node000004_Node000008" class="edge">
<title>Node4&#45;&gt;Node8</title>
<g id="a_edge7_Node000004_Node000008"><a xlink:title=" ">
<path fill="none" stroke="#63b8ff" d="M420.57,-170.52C475.88,-166.15 554.29,-155.39 618,-129 656.85,-112.91 669.82,-107.68 695,-74 704.93,-60.71 710.62,-42.6 713.71,-29.11"/>
<polygon fill="#63b8ff" stroke="#63b8ff" points="717.19,-29.58 715.74,-19.09 710.33,-28.2 717.19,-29.58"/>
</a>
</g>
</g>
<!-- Node9 -->
<g id="Node000009" class="node">
<title>Node9</title>
<g id="a_Node000009"><a xlink:title=" ">
<polygon fill="#e0e0e0" stroke="#999999" points="317.5,-74 272.5,-74 272.5,-55 317.5,-55 317.5,-74"/>
<text text-anchor="middle" x="295" y="-62" font-family="Helvetica,sans-Serif" font-size="10.00">utility</text>
</a>
</g>
</g>
<!-- Node4&#45;&gt;Node9 -->
<g id="edge8_Node000004_Node000009" class="edge">
<title>Node4&#45;&gt;Node9</title>
<g id="a_edge8_Node000004_Node000009"><a xlink:title=" ">
<path fill="none" stroke="#63b8ff" d="M346.42,-164.66C337.22,-146.93 316.38,-106.73 304.24,-83.32"/>
<polygon fill="#63b8ff" stroke="#63b8ff" points="307.2,-81.42 299.49,-74.16 300.99,-84.65 307.2,-81.42"/>
</a>
</g>
</g>
<!-- Node10 -->
<g id="Node000010" class="node">
<title>Node10</title>
<g id="a_Node000010"><a xlink:title=" ">
<polygon fill="#e0e0e0" stroke="#999999" points="509.5,-19 462.5,-19 462.5,0 509.5,0 509.5,-19"/>
<text text-anchor="middle" x="486" y="-7" font-family="Helvetica,sans-Serif" font-size="10.00">vector</text>
</a>
</g>
</g>
<!-- Node4&#45;&gt;Node10 -->
<g id="edge9_Node000004_Node000010" class="edge">
<title>Node4&#45;&gt;Node10</title>
<g id="a_edge9_Node000004_Node000010"><a xlink:title=" ">
<path fill="none" stroke="#63b8ff" d="M336.04,-164.96C303.21,-145.16 230.34,-94.83 263,-55 286.52,-26.32 395.64,-15.77 452.04,-12.18"/>
<polygon fill="#63b8ff" stroke="#63b8ff" points="452.48,-15.66 462.25,-11.57 452.06,-8.68 452.48,-15.66"/>
</a>
</g>
</g>
<!-- Node11 -->
<g id="Node000011" class="node">
<title>Node11</title>
<g id="a_Node000011"><a xlink:title=" ">
<polygon fill="#e0e0e0" stroke="#999999" points="374,-74 336,-74 336,-55 374,-55 374,-74"/>
<text text-anchor="middle" x="355" y="-62" font-family="Helvetica,sans-Serif" font-size="10.00">map</text>
</a>
</g>
</g>
<!-- Node4&#45;&gt;Node11 -->
<g id="edge11_Node000004_Node000011" class="edge">
<title>Node4&#45;&gt;Node11</title>
<g id="a_edge11_Node000004_Node000011"><a xlink:title=" ">
<path fill="none" stroke="#63b8ff" d="M351.33,-164.66C351.98,-147.17 353.43,-107.8 354.3,-84.27"/>
<polygon fill="#63b8ff" stroke="#63b8ff" points="357.81,-84.28 354.68,-74.16 350.81,-84.02 357.81,-84.28"/>
</a>
</g>
</g>
<!-- Node12 -->
<g id="Node000012" class="node">
<title>Node12</title>
<g id="a_Node000012"><a xlink:title=" ">
<polygon fill="#e0e0e0" stroke="#999999" points="454,-129 398,-129 398,-110 454,-110 454,-129"/>
<text text-anchor="middle" x="426" y="-117" font-family="Helvetica,sans-Serif" font-size="10.00">optional</text>
</a>
</g>
</g>
<!-- Node4&#45;&gt;Node12 -->
<g id="edge12_Node000004_Node000012" class="edge">
<title>Node4&#45;&gt;Node12</title>
<g id="a_edge12_Node000004_Node000012"><a xlink:title=" ">
<path fill="none" stroke="#63b8ff" d="M363.05,-164.98C374.46,-156.92 391.83,-144.65 405.43,-135.03"/>
<polygon fill="#63b8ff" stroke="#63b8ff" points="407.58,-137.8 413.73,-129.17 403.54,-132.08 407.58,-137.8"/>
</a>
</g>
</g>
<!-- Node13 -->
<g id="Node000013" class="node">
<title>Node13</title>
<g id="a_Node000013"><a xlink:title=" ">
<polygon fill="#e0e0e0" stroke="#999999" points="457.5,-74 392.5,-74 392.5,-55 457.5,-55 457.5,-74"/>
<text text-anchor="middle" x="425" y="-62" font-family="Helvetica,sans-Serif" font-size="10.00">functional</text>
</a>
</g>
</g>
<!-- Node4&#45;&gt;Node13 -->
<g id="edge13_Node000004_Node000013" class="edge">
<title>Node4&#45;&gt;Node13</title>
<g id="a_edge13_Node000004_Node000013"><a xlink:title=" ">
<path fill="none" stroke="#63b8ff" d="M355.79,-164.63C362.65,-152.12 375.9,-128.75 389,-110 395.76,-100.33 403.99,-90.05 410.88,-81.82"/>
<polygon fill="#63b8ff" stroke="#63b8ff" points="413.64,-83.97 417.45,-74.08 408.31,-79.44 413.64,-83.97"/>
</a>
</g>
</g>
<!-- Node14 -->
<g id="Node000014" class="node">
<title>Node14</title>
<g id="a_Node000014"><a xlink:href="types_8h.html" target="_top" xlink:title=" ">
<polygon fill="white" stroke="#666666" points="662.5,-74 573.5,-74 573.5,-55 662.5,-55 662.5,-74"/>
<text text-anchor="middle" x="618" y="-62" font-family="Helvetica,sans-Serif" font-size="10.00">Library/types.h</text>
</a>
</g>
</g>
<!-- Node4&#45;&gt;Node14 -->
<g id="edge14_Node000004_Node000014" class="edge">
<title>Node4&#45;&gt;Node14</title>
<g id="a_edge14_Node000004_Node000014"><a xlink:title=" ">
<path fill="none" stroke="#63b8ff" d="M420.57,-169.07C484.51,-163.61 573.18,-152.05 599,-129 611.46,-117.87 615.9,-98.94 617.41,-84.64"/>
<polygon fill="#63b8ff" stroke="#63b8ff" points="620.92,-84.61 618.08,-74.4 613.93,-84.14 620.92,-84.61"/>
</a>
</g>
</g>
<!-- Node16 -->
<g id="Node000016" class="node">
<title>Node16</title>
<g id="a_Node000016"><a xlink:href="error_8h.html" target="_top" xlink:title=" ">
<polygon fill="white" stroke="#666666" points="833.5,-129 748.5,-129 748.5,-110 833.5,-110 833.5,-129"/>
<text text-anchor="middle" x="791" y="-117" font-family="Helvetica,sans-Serif" font-size="10.00">Library/error.h</text>
</a>
</g>
</g>
<!-- Node4&#45;&gt;Node16 -->
<g id="edge18_Node000004_Node000016" class="edge">
<title>Node4&#45;&gt;Node16</title>
<g id="a_edge18_Node000004_Node000016"><a xlink:title=" ">
<path fill="none" stroke="#63b8ff" d="M420.62,-166.1C497.44,-157.77 624.67,-143.5 734,-129 735.46,-128.81 736.93,-128.61 738.42,-128.4"/>
<polygon fill="#63b8ff" stroke="#63b8ff" points="738.96,-131.86 748.38,-127.01 737.99,-124.93 738.96,-131.86"/>
</a>
</g>
</g>
<!-- Node17 -->
<g id="Node000017" class="node">
<title>Node17</title>
<g id="a_Node000017"><a xlink:href="evaluate_8h.html" target="_top" xlink:title=" ">
<polygon fill="white" stroke="#666666" points="590,-129 472,-129 472,-110 590,-110 590,-129"/>
<text text-anchor="middle" x="531" y="-117" font-family="Helvetica,sans-Serif" font-size="10.00">Evaluator/evaluate.h</text>
</a>
</g>
</g>
<!-- Node4&#45;&gt;Node17 -->
<g id="edge21_Node000004_Node000017" class="edge">
<title>Node4&#45;&gt;Node17</title>
<g id="a_edge21_Node000004_Node000017"><a xlink:title=" ">
<path fill="none" stroke="#63b8ff" d="M379.92,-164.98C410.27,-156.05 458.17,-141.94 491.88,-132.02"/>
<polygon fill="#63b8ff" stroke="#63b8ff" points="493.25,-135.26 501.85,-129.08 491.27,-128.55 493.25,-135.26"/>
</a>
</g>
</g>
<!-- Node14&#45;&gt;Node8 -->
<g id="edge17_Node000014_Node000008" class="edge">
<title>Node14&#45;&gt;Node8</title>
<g id="a_edge17_Node000014_Node000008"><a xlink:title=" ">
<path fill="none" stroke="#63b8ff" d="M633.91,-54.98C649.55,-46.61 673.66,-33.7 691.88,-23.95"/>
<polygon fill="#63b8ff" stroke="#63b8ff" points="693.64,-26.98 700.8,-19.17 690.34,-20.8 693.64,-26.98"/>
</a>
</g>
</g>
<!-- Node14&#45;&gt;Node10 -->
<g id="edge15_Node000014_Node000010" class="edge">
<title>Node14&#45;&gt;Node10</title>
<g id="a_edge15_Node000014_Node000010"><a xlink:title=" ">
<path fill="none" stroke="#63b8ff" d="M596.79,-54.98C575.27,-46.34 541.72,-32.87 517.17,-23.02"/>
<polygon fill="#63b8ff" stroke="#63b8ff" points="518.18,-19.65 507.59,-19.17 515.57,-26.14 518.18,-19.65"/>
</a>
</g>
</g>
<!-- Node15 -->
<g id="Node000015" class="node">
<title>Node15</title>
<g id="a_Node000015"><a xlink:title=" ">
<polygon fill="#e0e0e0" stroke="#999999" points="664.5,-19 571.5,-19 571.5,0 664.5,0 664.5,-19"/>
<text text-anchor="middle" x="618" y="-7" font-family="Helvetica,sans-Serif" font-size="10.00">unordered_map</text>
</a>
</g>
</g>
<!-- Node14&#45;&gt;Node15 -->
<g id="edge16_Node000014_Node000015" class="edge">
<title>Node14&#45;&gt;Node15</title>
<g id="a_edge16_Node000014_Node000015"><a xlink:title=" ">
<path fill="none" stroke="#63b8ff" d="M618,-54.75C618,-47.8 618,-37.85 618,-29.13"/>
<polygon fill="#63b8ff" stroke="#63b8ff" points="621.5,-29.09 618,-19.09 614.5,-29.09 621.5,-29.09"/>
</a>
</g>
</g>
<!-- Node16&#45;&gt;Node5 -->
<g id="edge20_Node000016_Node000005" class="edge">
<title>Node16&#45;&gt;Node5</title>
<g id="a_edge20_Node000016_Node000005"><a xlink:title=" ">
<path fill="none" stroke="#63b8ff" d="M801.44,-109.98C811.15,-102.07 825.82,-90.11 837.5,-80.58"/>
<polygon fill="#63b8ff" stroke="#63b8ff" points="839.83,-83.2 845.37,-74.17 835.4,-77.78 839.83,-83.2"/>
</a>
</g>
</g>
<!-- Node16&#45;&gt;Node8 -->
<g id="edge19_Node000016_Node000008" class="edge">
<title>Node16&#45;&gt;Node8</title>
<g id="a_edge19_Node000016_Node000008"><a xlink:title=" ">
<path fill="none" stroke="#63b8ff" d="M784.94,-109.66C772.69,-91.77 744.75,-51 728.78,-27.69"/>
<polygon fill="#63b8ff" stroke="#63b8ff" points="731.47,-25.43 722.93,-19.16 725.7,-29.39 731.47,-25.43"/>
</a>
</g>
</g>
<!-- Node17&#45;&gt;Node8 -->
<g id="edge24_Node000017_Node000008" class="edge">
<title>Node17&#45;&gt;Node8</title>
<g id="a_edge24_Node000017_Node000008"><a xlink:title=" ">
<path fill="none" stroke="#63b8ff" d="M585.31,-109.93C613.21,-103.51 646.59,-92.53 672,-74 688.17,-62.21 700.68,-42.82 708.37,-28.56"/>
<polygon fill="#63b8ff" stroke="#63b8ff" points="711.68,-29.77 713.09,-19.27 705.44,-26.6 711.68,-29.77"/>
</a>
</g>
</g>
<!-- Node17&#45;&gt;Node9 -->
<g id="edge22_Node000017_Node000009" class="edge">
<title>Node17&#45;&gt;Node9</title>
<g id="a_edge22_Node000017_Node000009"><a xlink:title=" ">
<path fill="none" stroke="#63b8ff" d="M489.07,-109.93C449.84,-101.78 389.38,-88.89 327.61,-74.06"/>
<polygon fill="#63b8ff" stroke="#63b8ff" points="328.24,-70.61 317.69,-71.66 326.59,-77.41 328.24,-70.61"/>
</a>
</g>
</g>
<!-- Node17&#45;&gt;Node10 -->
<g id="edge23_Node000017_Node000010" class="edge">
<title>Node17&#45;&gt;Node10</title>
<g id="a_edge23_Node000017_Node000010"><a xlink:title=" ">
<path fill="none" stroke="#63b8ff" d="M525.47,-109.91C519.99,-101.14 511.63,-87.01 506,-74 499.68,-59.4 494.37,-42.14 490.82,-29.3"/>
<polygon fill="#63b8ff" stroke="#63b8ff" points="494.12,-28.1 488.16,-19.33 487.36,-29.9 494.12,-28.1"/>
</a>
</g>
</g>
<!-- Node17&#45;&gt;Node11 -->
<g id="edge27_Node000017_Node000011" class="edge">
<title>Node17&#45;&gt;Node11</title>
<g id="a_edge27_Node000017_Node000011"><a xlink:title=" ">
<path fill="none" stroke="#63b8ff" d="M502.72,-109.98C470.19,-100.19 417.05,-84.19 384.15,-74.28"/>
<polygon fill="#63b8ff" stroke="#63b8ff" points="384.82,-70.83 374.24,-71.29 382.8,-77.53 384.82,-70.83"/>
</a>
</g>
</g>
<!-- Node17&#45;&gt;Node13 -->
<g id="edge25_Node000017_Node000013" class="edge">
<title>Node17&#45;&gt;Node13</title>
<g id="a_edge25_Node000017_Node000013"><a xlink:title=" ">
<path fill="none" stroke="#63b8ff" d="M513.97,-109.98C497.07,-101.54 470.94,-88.47 451.36,-78.68"/>
<polygon fill="#63b8ff" stroke="#63b8ff" points="452.85,-75.51 442.34,-74.17 449.72,-81.77 452.85,-75.51"/>
</a>
</g>
</g>
<!-- Node17&#45;&gt;Node14 -->
<g id="edge28_Node000017_Node000014" class="edge">
<title>Node17&#45;&gt;Node14</title>
<g id="a_edge28_Node000017_Node000014"><a xlink:title=" ">
<path fill="none" stroke="#63b8ff" d="M544.98,-109.98C558.47,-101.77 579.13,-89.18 595.04,-79.49"/>
<polygon fill="#63b8ff" stroke="#63b8ff" points="597.05,-82.36 603.77,-74.17 593.41,-76.38 597.05,-82.36"/>
</a>
</g>
</g>
<!-- Node18 -->
<g id="Node000018" class="node">
<title>Node18</title>
<g id="a_Node000018"><a xlink:title=" ">
<polygon fill="#e0e0e0" stroke="#999999" points="555.5,-74 514.5,-74 514.5,-55 555.5,-55 555.5,-74"/>
<text text-anchor="middle" x="535" y="-62" font-family="Helvetica,sans-Serif" font-size="10.00">tuple</text>
</a>
</g>
</g>
<!-- Node17&#45;&gt;Node18 -->
<g id="edge26_Node000017_Node000018" class="edge">
<title>Node17&#45;&gt;Node18</title>
<g id="a_edge26_Node000017_Node000018"><a xlink:title=" ">
<path fill="none" stroke="#63b8ff" d="M531.66,-109.75C532.18,-102.8 532.94,-92.85 533.59,-84.13"/>
<polygon fill="#63b8ff" stroke="#63b8ff" points="537.09,-84.32 534.35,-74.09 530.11,-83.8 537.09,-84.32"/>
</a>
</g>
</g>
</g>
</svg>
