<?xml version="1.0" encoding="UTF-8" standalone="no"?>
<!DOCTYPE svg PUBLIC "-//W3C//DTD SVG 1.1//EN"
 "http://www.w3.org/Graphics/SVG/1.1/DTD/svg11.dtd">
<!-- Generated by graphviz version 2.43.0 (0)
 -->
<!-- Title: src Pages: 1 -->
<!--zoomable 98 -->

<svg id="main" version="1.1" xmlns="http://www.w3.org/2000/svg" xmlns:xlink="http://www.w3.org/1999/xlink" xml:space="preserve" onload="init(evt)">
<style type="text/css"><![CDATA[
.node, .edge {opacity: 0.7;}
.node.selected, .edge.selected {opacity: 1;}
.edge:hover path { stroke: red; }
.edge:hover polygon { stroke: red; fill: red; }
]]></style>

<defs>
  <circle id="rim" cx="0" cy="0" r="7"/>
  <circle id="rim2" cx="0" cy="0" r="3.5"/>
  <g id="zoomPlus">
    <use xlink:href="#rim" fill="#404040"><set attributeName="fill" to="#808080" begin="zoomplus.mouseover" end="zoomplus.mouseout"/></use>
    <path d="M-4,0h8M0,-4v8" fill="none" stroke="white" stroke-width="1.5" pointer-events="none"/>
  </g>
  <g id="zoomMin">
    <use xlink:href="#rim" fill="#404040"><set attributeName="fill" to="#808080" begin="zoomminus.mouseover" end="zoomminus.mouseout"/></use>
    <path d="M-4,0h8" fill="none" stroke="white" stroke-width="1.5" pointer-events="none"/>
  </g>
  <g id="arrowUp" transform="translate(30 24)">
    <use xlink:href="#rim"/>
    <path pointer-events="none" fill="none" stroke="white" stroke-width="1.5" d="M0,-3.0v7 M-2.5,-0.5L0,-3.0L2.5,-0.5"/>
  </g>
  <g id="arrowRight" transform="rotate(90) translate(36 -43)">
    <use xlink:href="#rim"/>
    <path pointer-events="none" fill="none" stroke="white" stroke-width="1.5" d="M0,-3.0v7 M-2.5,-0.5L0,-3.0L2.5,-0.5"/>
  </g>
  <g id="arrowDown" transform="rotate(180) translate(-30 -48)">
    <use xlink:href="#rim"/>
    <path pointer-events="none" fill="none" stroke="white" stroke-width="1.5" d="M0,-3.0v7 M-2.5,-0.5L0,-3.0L2.5,-0.5"/>
  </g>
  <g id="arrowLeft" transform="rotate(270) translate(-36 17)">
    <use xlink:href="#rim"/>
    <path pointer-events="none" fill="none" stroke="white" stroke-width="1.5" d="M0,-3.0v7 M-2.5,-0.5L0,-3.0L2.5,-0.5"/>
  </g>
  <g id="resetDef">
    <use xlink:href="#rim2" fill="#404040"><set attributeName="fill" to="#808080" begin="reset.mouseover" end="reset.mouseout"/></use>
  </g>
</defs>
<script type="application/ecmascript">
var viewWidth = 876;
var viewHeight = 98;
var sectionId = 'dynsection-0';
</script>
<script type="application/ecmascript" xlink:href="svg.min.js"/>
<svg id="graph" class="graph">
<g id="viewport">
<title>src</title>
<g id="clust1" class="cluster">
<title>clusterdir_68267d1309a1af8e8297ef4c3efbcdba</title>
<g id="a_clust1"><a xlink:href="dir_68267d1309a1af8e8297ef4c3efbcdba.html" target="_top">
<polygon fill="#edf0f7" stroke="#404040" stroke-width="2" points="8,-47 8,-82 860,-82 860,-47 8,-47"/>
</a>
</g>
</g>
<!-- dir_68267d1309a1af8e8297ef4c3efbcdba -->
<g id="node1" class="node">
<title>dir_68267d1309a1af8e8297ef4c3efbcdba</title>
<text text-anchor="middle" x="836" y="-62" font-family="Helvetica,sans-Serif" font-size="10.00">src</text>
</g>
<!-- dir_d44c64559bbebec7f509842c48db8b23 -->
<g id="node12" class="node">
<title>dir_d44c64559bbebec7f509842c48db8b23</title>
<g id="a_node12"><a xlink:href="dir_d44c64559bbebec7f509842c48db8b23.html" target="_top" xlink:title="include">
<polygon fill="#edf0f7" stroke="red" points="505,-19 453,-19 453,0 505,0 505,-19"/>
<text text-anchor="middle" x="479" y="-7" font-family="Helvetica,sans-Serif" font-size="10.00">include</text>
</a>
</g>
</g>
<!-- dir_68267d1309a1af8e8297ef4c3efbcdba&#45;&gt;dir_d44c64559bbebec7f509842c48db8b23 -->
<g id="edge1" class="edge">
<title>dir_68267d1309a1af8e8297ef4c3efbcdba&#45;&gt;dir_d44c64559bbebec7f509842c48db8b23</title>
<g id="a_edge1"><a xlink:href="dir_000019_000010.html" target="_top">
<path fill="none" stroke="#63b8ff" d="M825.41,-54.9C821.17,-51.9 816.09,-48.84 811,-47 757.33,-27.62 589.94,-16.47 515.42,-12.34"/>
<polygon fill="#63b8ff" stroke="#63b8ff" points="515.3,-8.83 505.12,-11.79 514.92,-15.82 515.3,-8.83"/>
</a>
</g>
<g id="a_edge1&#45;headlabel"><a xlink:href="dir_000019_000010.html" target="_top" xlink:title="25">
<text text-anchor="middle" x="519.04" y="-3.69" font-family="Helvetica,sans-Serif" font-size="10.00" fill="#63b8ff">25</text>
</a>
</g>
</g>
<!-- dir_b744047ae6c50201c8c68963d318301a -->
<g id="node2" class="node">
<title>dir_b744047ae6c50201c8c68963d318301a</title>
<g id="a_node2"><a xlink:href="dir_b744047ae6c50201c8c68963d318301a.html" target="_top" xlink:title="Channel">
<polygon fill="#a2b4d6" stroke="#404040" points="802,-74 746,-74 746,-55 802,-55 802,-74"/>
<text text-anchor="middle" x="774" y="-62" font-family="Helvetica,sans-Serif" font-size="10.00">Channel</text>
</a>
</g>
</g>
<!-- dir_b744047ae6c50201c8c68963d318301a&#45;&gt;dir_d44c64559bbebec7f509842c48db8b23 -->
<g id="edge2" class="edge">
<title>dir_b744047ae6c50201c8c68963d318301a&#45;&gt;dir_d44c64559bbebec7f509842c48db8b23</title>
<g id="a_edge2"><a xlink:href="dir_000001_000010.html" target="_top">
<path fill="none" stroke="#63b8ff" d="M757.43,-54.92C751.17,-52 743.89,-48.98 737,-47 659.88,-24.82 565.76,-15.86 515.23,-12.44"/>
<polygon fill="#63b8ff" stroke="#63b8ff" points="515.34,-8.94 505.13,-11.79 514.89,-15.92 515.34,-8.94"/>
</a>
</g>
<g id="a_edge2&#45;headlabel"><a xlink:href="dir_000001_000010.html" target="_top" xlink:title="1">
<text text-anchor="middle" x="519.1" y="-3.83" font-family="Helvetica,sans-Serif" font-size="10.00" fill="#63b8ff">1</text>
</a>
</g>
</g>
<!-- dir_55be27304aee4fac13a1eb8fc08f58b6 -->
<g id="node3" class="node">
<title>dir_55be27304aee4fac13a1eb8fc08f58b6</title>
<g id="a_node3"><a xlink:href="dir_55be27304aee4fac13a1eb8fc08f58b6.html" target="_top" xlink:title="Config">
<polygon fill="#a2b4d6" stroke="#404040" points="727.5,-74 680.5,-74 680.5,-55 727.5,-55 727.5,-74"/>
<text text-anchor="middle" x="704" y="-62" font-family="Helvetica,sans-Serif" font-size="10.00">Config</text>
</a>
</g>
</g>
<!-- dir_55be27304aee4fac13a1eb8fc08f58b6&#45;&gt;dir_d44c64559bbebec7f509842c48db8b23 -->
<g id="edge3" class="edge">
<title>dir_55be27304aee4fac13a1eb8fc08f58b6&#45;&gt;dir_d44c64559bbebec7f509842c48db8b23</title>
<g id="a_edge3"><a xlink:href="dir_000003_000010.html" target="_top">
<path fill="none" stroke="#63b8ff" d="M689.42,-54.85C684.09,-52 677.91,-49.03 672,-47 619.13,-28.8 554.81,-18.94 515.4,-14.2"/>
<polygon fill="#63b8ff" stroke="#63b8ff" points="515.55,-10.7 505.21,-13.03 514.75,-17.65 515.55,-10.7"/>
</a>
</g>
<g id="a_edge3&#45;headlabel"><a xlink:href="dir_000003_000010.html" target="_top" xlink:title="1">
<text text-anchor="middle" x="519.45" y="-5.79" font-family="Helvetica,sans-Serif" font-size="10.00" fill="#63b8ff">1</text>
</a>
</g>
</g>
<!-- dir_e95107e76c1ba4922be3f343acf5dcf1 -->
<g id="node4" class="node">
<title>dir_e95107e76c1ba4922be3f343acf5dcf1</title>
<g id="a_node4"><a xlink:href="dir_e95107e76c1ba4922be3f343acf5dcf1.html" target="_top" xlink:title="Database">
<polygon fill="#a2b4d6" stroke="#404040" points="662.5,-74 599.5,-74 599.5,-55 662.5,-55 662.5,-74"/>
<text text-anchor="middle" x="631" y="-62" font-family="Helvetica,sans-Serif" font-size="10.00">Database</text>
</a>
</g>
</g>
<!-- dir_e95107e76c1ba4922be3f343acf5dcf1&#45;&gt;dir_d44c64559bbebec7f509842c48db8b23 -->
<g id="edge4" class="edge">
<title>dir_e95107e76c1ba4922be3f343acf5dcf1&#45;&gt;dir_d44c64559bbebec7f509842c48db8b23</title>
<g id="a_edge4"><a xlink:href="dir_000005_000010.html" target="_top">
<path fill="none" stroke="#63b8ff" d="M610.24,-54.84C603.79,-52.23 596.63,-49.42 590,-47 565.05,-37.89 536.58,-28.55 514.72,-21.6"/>
<polygon fill="#63b8ff" stroke="#63b8ff" points="515.77,-18.26 505.18,-18.58 513.66,-24.93 515.77,-18.26"/>
</a>
</g>
<g id="a_edge4&#45;headlabel"><a xlink:href="dir_000005_000010.html" target="_top" xlink:title="1">
<text text-anchor="middle" x="520.05" y="-14.13" font-family="Helvetica,sans-Serif" font-size="10.00" fill="#63b8ff">1</text>
</a>
</g>
</g>
<!-- dir_6b6158ffc10bb67e6b7d62eced5c0155 -->
<g id="node5" class="node">
<title>dir_6b6158ffc10bb67e6b7d62eced5c0155</title>
<g id="a_node5"><a xlink:href="dir_6b6158ffc10bb67e6b7d62eced5c0155.html" target="_top" xlink:title="Drivers">
<polygon fill="#a2b4d6" stroke="#404040" points="581,-74 529,-74 529,-55 581,-55 581,-74"/>
<text text-anchor="middle" x="555" y="-62" font-family="Helvetica,sans-Serif" font-size="10.00">Drivers</text>
</a>
</g>
</g>
<!-- dir_6b6158ffc10bb67e6b7d62eced5c0155&#45;&gt;dir_d44c64559bbebec7f509842c48db8b23 -->
<g id="edge5" class="edge">
<title>dir_6b6158ffc10bb67e6b7d62eced5c0155&#45;&gt;dir_d44c64559bbebec7f509842c48db8b23</title>
<g id="a_edge5"><a xlink:href="dir_000007_000010.html" target="_top">
<path fill="none" stroke="#63b8ff" d="M542.79,-54.98C531.22,-46.92 513.62,-34.65 499.84,-25.03"/>
<polygon fill="#63b8ff" stroke="#63b8ff" points="501.64,-22.02 491.43,-19.17 497.63,-27.76 501.64,-22.02"/>
</a>
</g>
<g id="a_edge5&#45;headlabel"><a xlink:href="dir_000007_000010.html" target="_top" xlink:title="6">
<text text-anchor="middle" x="506.21" y="-19.25" font-family="Helvetica,sans-Serif" font-size="10.00" fill="#63b8ff">6</text>
</a>
</g>
</g>
<!-- dir_212914c1f7c879d13fb628a4730e4e98 -->
<g id="node6" class="node">
<title>dir_212914c1f7c879d13fb628a4730e4e98</title>
<g id="a_node6"><a xlink:href="dir_212914c1f7c879d13fb628a4730e4e98.html" target="_top" xlink:title="Evaluator">
<polygon fill="#a2b4d6" stroke="#404040" points="510.5,-74 447.5,-74 447.5,-55 510.5,-55 510.5,-74"/>
<text text-anchor="middle" x="479" y="-62" font-family="Helvetica,sans-Serif" font-size="10.00">Evaluator</text>
</a>
</g>
</g>
<!-- dir_212914c1f7c879d13fb628a4730e4e98&#45;&gt;dir_d44c64559bbebec7f509842c48db8b23 -->
<g id="edge6" class="edge">
<title>dir_212914c1f7c879d13fb628a4730e4e98&#45;&gt;dir_d44c64559bbebec7f509842c48db8b23</title>
<g id="a_edge6"><a xlink:href="dir_000009_000010.html" target="_top">
<path fill="none" stroke="#63b8ff" d="M479,-54.75C479,-47.8 479,-37.85 479,-29.13"/>
<polygon fill="#63b8ff" stroke="#63b8ff" points="482.5,-29.09 479,-19.09 475.5,-29.09 482.5,-29.09"/>
</a>
</g>
<g id="a_edge6&#45;headlabel"><a xlink:href="dir_000009_000010.html" target="_top" xlink:title="1">
<text text-anchor="middle" x="485.34" y="-30.18" font-family="Helvetica,sans-Serif" font-size="10.00" fill="#63b8ff">1</text>
</a>
</g>
</g>
<!-- dir_86305bf49d89b2a055ec783c882c7c0f -->
<g id="node7" class="node">
<title>dir_86305bf49d89b2a055ec783c882c7c0f</title>
<g id="a_node7"><a xlink:href="dir_86305bf49d89b2a055ec783c882c7c0f.html" target="_top" xlink:title="Reporter">
<polygon fill="#a2b4d6" stroke="#404040" points="429.5,-74 370.5,-74 370.5,-55 429.5,-55 429.5,-74"/>
<text text-anchor="middle" x="400" y="-62" font-family="Helvetica,sans-Serif" font-size="10.00">Reporter</text>
</a>
</g>
</g>
<!-- dir_86305bf49d89b2a055ec783c882c7c0f&#45;&gt;dir_d44c64559bbebec7f509842c48db8b23 -->
<g id="edge7" class="edge">
<title>dir_86305bf49d89b2a055ec783c882c7c0f&#45;&gt;dir_d44c64559bbebec7f509842c48db8b23</title>
<g id="a_edge7"><a xlink:href="dir_000014_000010.html" target="_top">
<path fill="none" stroke="#63b8ff" d="M412.69,-54.98C424.83,-46.84 443.36,-34.41 457.75,-24.76"/>
<polygon fill="#63b8ff" stroke="#63b8ff" points="459.72,-27.65 466.08,-19.17 455.82,-21.84 459.72,-27.65"/>
</a>
</g>
<g id="a_edge7&#45;headlabel"><a xlink:href="dir_000014_000010.html" target="_top" xlink:title="2">
<text text-anchor="middle" x="458.32" y="-29.51" font-family="Helvetica,sans-Serif" font-size="10.00" fill="#63b8ff">2</text>
</a>
</g>
</g>
<!-- dir_9994e8d78827318b32c660b708636a19 -->
<g id="node8" class="node">
<title>dir_9994e8d78827318b32c660b708636a19</title>
<g id="a_node8"><a xlink:href="dir_9994e8d78827318b32c660b708636a19.html" target="_top" xlink:title="Simulator">
<polygon fill="#a2b4d6" stroke="#404040" points="352,-74 288,-74 288,-55 352,-55 352,-74"/>
<text text-anchor="middle" x="320" y="-62" font-family="Helvetica,sans-Serif" font-size="10.00">Simulator</text>
</a>
</g>
</g>
<!-- dir_9994e8d78827318b32c660b708636a19&#45;&gt;dir_d44c64559bbebec7f509842c48db8b23 -->
<g id="edge8" class="edge">
<title>dir_9994e8d78827318b32c660b708636a19&#45;&gt;dir_d44c64559bbebec7f509842c48db8b23</title>
<g id="a_edge8"><a xlink:href="dir_000016_000010.html" target="_top">
<path fill="none" stroke="#63b8ff" d="M340.83,-54.98C347.55,-52.32 355.05,-49.44 362,-47 388.93,-37.52 419.76,-27.96 443.01,-21"/>
<polygon fill="#63b8ff" stroke="#63b8ff" points="444.21,-24.29 452.8,-18.09 442.22,-17.58 444.21,-24.29"/>
</a>
</g>
<g id="a_edge8&#45;headlabel"><a xlink:href="dir_000016_000010.html" target="_top" xlink:title="1">
<text text-anchor="middle" x="441.58" y="-25.54" font-family="Helvetica,sans-Serif" font-size="10.00" fill="#63b8ff">1</text>
</a>
</g>
</g>
<!-- dir_70327672c2a11044a13f237300c5c7a9 -->
<g id="node9" class="node">
<title>dir_70327672c2a11044a13f237300c5c7a9</title>
<g id="a_node9"><a xlink:href="dir_70327672c2a11044a13f237300c5c7a9.html" target="_top" xlink:title="Spreader">
<polygon fill="#a2b4d6" stroke="#404040" points="270,-74 210,-74 210,-55 270,-55 270,-74"/>
<text text-anchor="middle" x="240" y="-62" font-family="Helvetica,sans-Serif" font-size="10.00">Spreader</text>
</a>
</g>
</g>
<!-- dir_70327672c2a11044a13f237300c5c7a9&#45;&gt;dir_d44c64559bbebec7f509842c48db8b23 -->
<g id="edge9" class="edge">
<title>dir_70327672c2a11044a13f237300c5c7a9&#45;&gt;dir_d44c64559bbebec7f509842c48db8b23</title>
<g id="a_edge9"><a xlink:href="dir_000018_000010.html" target="_top">
<path fill="none" stroke="#63b8ff" d="M257.95,-54.93C264.46,-52.08 271.96,-49.1 279,-47 335,-30.27 402.23,-19.91 442.73,-14.68"/>
<polygon fill="#63b8ff" stroke="#63b8ff" points="443.19,-18.15 452.68,-13.43 442.32,-11.21 443.19,-18.15"/>
</a>
</g>
<g id="a_edge9&#45;headlabel"><a xlink:href="dir_000018_000010.html" target="_top" xlink:title="1">
<text text-anchor="middle" x="439.98" y="-18.92" font-family="Helvetica,sans-Serif" font-size="10.00" fill="#63b8ff">1</text>
</a>
</g>
</g>
<!-- dir_baa766d9bd5011bb57ba73d5f6f29e18 -->
<g id="node10" class="node">
<title>dir_baa766d9bd5011bb57ba73d5f6f29e18</title>
<g id="a_node10"><a xlink:href="dir_baa766d9bd5011bb57ba73d5f6f29e18.html" target="_top" xlink:title="TestGenerator">
<polygon fill="#a2b4d6" stroke="#404040" points="191.5,-74 106.5,-74 106.5,-55 191.5,-55 191.5,-74"/>
<text text-anchor="middle" x="149" y="-62" font-family="Helvetica,sans-Serif" font-size="10.00">TestGenerator</text>
</a>
</g>
</g>
<!-- dir_baa766d9bd5011bb57ba73d5f6f29e18&#45;&gt;dir_d44c64559bbebec7f509842c48db8b23 -->
<g id="edge10" class="edge">
<title>dir_baa766d9bd5011bb57ba73d5f6f29e18&#45;&gt;dir_d44c64559bbebec7f509842c48db8b23</title>
<g id="a_edge10"><a xlink:href="dir_000022_000010.html" target="_top">
<path fill="none" stroke="#63b8ff" d="M172.84,-54.96C181.6,-52.08 191.66,-49.08 201,-47 286.53,-27.97 389.22,-17.66 442.66,-13.21"/>
<polygon fill="#63b8ff" stroke="#63b8ff" points="442.98,-16.69 452.67,-12.4 442.42,-9.72 442.98,-16.69"/>
</a>
</g>
<g id="a_edge10&#45;headlabel"><a xlink:href="dir_000022_000010.html" target="_top" xlink:title="2">
<text text-anchor="middle" x="439.63" y="-17.32" font-family="Helvetica,sans-Serif" font-size="10.00" fill="#63b8ff">2</text>
</a>
</g>
</g>
<!-- dir_90bc0d3a03a2bb013b21845d01122dda -->
<g id="node11" class="node">
<title>dir_90bc0d3a03a2bb013b21845d01122dda</title>
<g id="a_node11"><a xlink:href="dir_90bc0d3a03a2bb013b21845d01122dda.html" target="_top" xlink:title="Transaction">
<polygon fill="#a2b4d6" stroke="#404040" points="88,-74 16,-74 16,-55 88,-55 88,-74"/>
<text text-anchor="middle" x="52" y="-62" font-family="Helvetica,sans-Serif" font-size="10.00">Transaction</text>
</a>
</g>
</g>
<!-- dir_90bc0d3a03a2bb013b21845d01122dda&#45;&gt;dir_d44c64559bbebec7f509842c48db8b23 -->
<g id="edge11" class="edge">
<title>dir_90bc0d3a03a2bb013b21845d01122dda&#45;&gt;dir_d44c64559bbebec7f509842c48db8b23</title>
<g id="a_edge11"><a xlink:href="dir_000024_000010.html" target="_top">
<path fill="none" stroke="#63b8ff" d="M72.29,-54.99C80.18,-52.01 89.39,-48.93 98,-47 222.34,-19.2 374.16,-12.57 442.54,-10.99"/>
<polygon fill="#63b8ff" stroke="#63b8ff" points="442.85,-14.48 452.78,-10.78 442.71,-7.49 442.85,-14.48"/>
</a>
</g>
<g id="a_edge11&#45;headlabel"><a xlink:href="dir_000024_000010.html" target="_top" xlink:title="2">
<text text-anchor="middle" x="439.32" y="-14.9" font-family="Helvetica,sans-Serif" font-size="10.00" fill="#63b8ff">2</text>
</a>
</g>
</g>
</g>
</svg>

<g id="navigator" transform="translate(0 0)" fill="#404254">
  <rect fill="#f2f5e9" fill-opacity="0.5" stroke="#606060" stroke-width=".5" x="0" y="0" width="60" height="60"/>
  <use id="zoomplus" xlink:href="#zoomPlus" x="17" y="9" onmousedown="handleZoom(evt,'in')"/>
  <use id="zoomminus" xlink:href="#zoomMin" x="42" y="9" onmousedown="handleZoom(evt,'out')"/>
  <use id="reset" xlink:href="#resetDef" x="30" y="36" onmousedown="handleReset()"/>
   <use id="arrowup" xlink:href="#arrowUp" x="0" y="0" onmousedown="handlePan(0,-1)"/>
  <use id="arrowright" xlink:href="#arrowRight" x="0" y="0" onmousedown="handlePan(1,0)"/>
  <use id="arrowdown" xlink:href="#arrowDown" x="0" y="0" onmousedown="handlePan(0,1)"/>
  <use id="arrowleft" xlink:href="#arrowLeft" x="0" y="0" onmousedown="handlePan(-1,0)"/>
</g>
<svg viewBox="0 0 15 15" width="100%" height="30px" preserveAspectRatio="xMaxYMin meet">
 <g id="arrow_out" transform="scale(0.3 0.3)">
  <a xlink:href="dir_68267d1309a1af8e8297ef4c3efbcdba_dep_org.svg" target="_base">
   <rect id="button" ry="5" rx="5" y="6" x="6" height="38" width="38"
        fill="#f2f5e9" fill-opacity="0.5" stroke="#606060" stroke-width="1.0"/>
   <path id="arrow"
     d="M 11.500037,31.436501 C 11.940474,20.09759 22.043105,11.32322 32.158766,21.979434 L 37.068811,17.246167 C 37.068811,17.246167 37.088388,32 37.088388,32 L 22.160133,31.978069 C 22.160133,31.978069 26.997745,27.140456 26.997745,27.140456 C 18.528582,18.264221 13.291696,25.230495 11.500037,31.436501 z"
     style="fill:#404040;"/>
  </a>
 </g>
</svg>

<style type='text/css'>
<![CDATA[
[data-mouse-over-selected='false'] { opacity: 0.7; }
[data-mouse-over-selected='true']  { opacity: 1.0; }
]]>
</style>
<script type="application/ecmascript"><![CDATA[
document.addEventListener('DOMContentLoaded', (event) => {
  highlightEdges();
  highlightAdjacentNodes();
});
]]></script>
</svg>
