<?xml version="1.0" encoding="UTF-8" standalone="no"?>
<!DOCTYPE svg PUBLIC "-//W3C//DTD SVG 1.1//EN"
 "http://www.w3.org/Graphics/SVG/1.1/DTD/svg11.dtd">
<!-- Generated by graphviz version 2.43.0 (0)
 -->
<!-- Title: include Pages: 1 -->
<svg width="418pt" height="334pt"
 viewBox="0.00 0.00 418.00 334.00" xmlns="http://www.w3.org/2000/svg" xmlns:xlink="http://www.w3.org/1999/xlink">

<svg id="main" version="1.1" xmlns="http://www.w3.org/2000/svg" xmlns:xlink="http://www.w3.org/1999/xlink" xml:space="preserve" onload="init(evt)">
<style type="text/css"><![CDATA[
.node, .edge {opacity: 0.7;}
.node.selected, .edge.selected {opacity: 1;}
.edge:hover path { stroke: red; }
.edge:hover polygon { stroke: red; fill: red; }
]]></style>
<script type="application/ecmascript" xlink:href="svg.min.js"/>
<svg id="graph" class="graph">
<g id="graph0" class="graph" transform="scale(1 1) rotate(0) translate(4 330)">
<title>include</title>
<g id="clust1" class="cluster">
<title>clusterdir_d44c64559bbebec7f509842c48db8b23</title>
<g id="a_clust1"><a xlink:href="dir_d44c64559bbebec7f509842c48db8b23.html" target="_top">
<polygon fill="#edf0f7" stroke="#404040" stroke-width="2" points="8,-8 8,-318 402,-318 402,-8 8,-8"/>
</a>
</g>
</g>
<!-- dir_d44c64559bbebec7f509842c48db8b23 -->
<g id="node1" class="node">
<title>dir_d44c64559bbebec7f509842c48db8b23</title>
<text text-anchor="middle" x="198" y="-298" font-family="Helvetica,sans-Serif" font-size="10.00">include</text>
</g>
<!-- dir_a707b3c631222d9e9a8595f4aaa7fbb2 -->
<g id="node2" class="node">
<title>dir_a707b3c631222d9e9a8595f4aaa7fbb2</title>
<g id="a_node2"><a xlink:href="dir_a707b3c631222d9e9a8595f4aaa7fbb2.html" target="_top" xlink:title="Channel">
<polygon fill="#a2b4d6" stroke="#404040" points="222,-90 166,-90 166,-71 222,-71 222,-90"/>
<text text-anchor="middle" x="194" y="-78" font-family="Helvetica,sans-Serif" font-size="10.00">Channel</text>
</a>
</g>
</g>
<!-- dir_d44c64559bbebec7f509842c48db8b23&#45;&gt;dir_a707b3c631222d9e9a8595f4aaa7fbb2 -->
<g id="edge7" class="edge">
<title>dir_d44c64559bbebec7f509842c48db8b23&#45;&gt;dir_a707b3c631222d9e9a8595f4aaa7fbb2</title>
<g id="a_edge7"><a xlink:href="dir_000010_000000.html" target="_top">
<path fill="none" stroke="#63b8ff" d="M189.98,-290.77C175.59,-274.43 145.88,-237.51 135,-200 123.71,-161.08 155.97,-119.55 177.14,-97.47"/>
<polygon fill="#63b8ff" stroke="#63b8ff" points="179.75,-99.81 184.34,-90.26 174.79,-94.87 179.75,-99.81"/>
</a>
</g>
<g id="a_edge7&#45;headlabel"><a xlink:href="dir_000010_000000.html" target="_top" xlink:title="5">
<text text-anchor="middle" x="179.22" y="-101.86" font-family="Helvetica,sans-Serif" font-size="10.00" fill="#63b8ff">5</text>
</a>
</g>
</g>
<!-- dir_37df1cb154487d0b8fa64856285c6c86 -->
<g id="node4" class="node">
<title>dir_37df1cb154487d0b8fa64856285c6c86</title>
<g id="a_node4"><a xlink:href="dir_37df1cb154487d0b8fa64856285c6c86.html" target="_top" xlink:title="Database">
<polygon fill="#a2b4d6" stroke="#404040" points="206.5,-200 143.5,-200 143.5,-181 206.5,-181 206.5,-200"/>
<text text-anchor="middle" x="175" y="-188" font-family="Helvetica,sans-Serif" font-size="10.00">Database</text>
</a>
</g>
</g>
<!-- dir_d44c64559bbebec7f509842c48db8b23&#45;&gt;dir_37df1cb154487d0b8fa64856285c6c86 -->
<g id="edge2" class="edge">
<title>dir_d44c64559bbebec7f509842c48db8b23&#45;&gt;dir_37df1cb154487d0b8fa64856285c6c86</title>
<g id="a_edge2"><a xlink:href="dir_000010_000004.html" target="_top">
<path fill="none" stroke="#63b8ff" d="M196.12,-290.66C192.38,-273.09 183.93,-233.45 178.93,-209.95"/>
<polygon fill="#63b8ff" stroke="#63b8ff" points="182.35,-209.21 176.84,-200.16 175.5,-210.67 182.35,-209.21"/>
</a>
</g>
<g id="a_edge2&#45;headlabel"><a xlink:href="dir_000010_000004.html" target="_top" xlink:title="2">
<text text-anchor="middle" x="185.88" y="-209.63" font-family="Helvetica,sans-Serif" font-size="10.00" fill="#63b8ff">2</text>
</a>
</g>
</g>
<!-- dir_61e7388386f8079d670ae25d70d0cfb3 -->
<g id="node5" class="node">
<title>dir_61e7388386f8079d670ae25d70d0cfb3</title>
<g id="a_node5"><a xlink:href="dir_61e7388386f8079d670ae25d70d0cfb3.html" target="_top" xlink:title="Drivers">
<polygon fill="#a2b4d6" stroke="#404040" points="354,-200 302,-200 302,-181 354,-181 354,-200"/>
<text text-anchor="middle" x="328" y="-188" font-family="Helvetica,sans-Serif" font-size="10.00">Drivers</text>
</a>
</g>
</g>
<!-- dir_d44c64559bbebec7f509842c48db8b23&#45;&gt;dir_61e7388386f8079d670ae25d70d0cfb3 -->
<g id="edge3" class="edge">
<title>dir_d44c64559bbebec7f509842c48db8b23&#45;&gt;dir_61e7388386f8079d670ae25d70d0cfb3</title>
<g id="a_edge3"><a xlink:href="dir_000010_000006.html" target="_top">
<path fill="none" stroke="#63b8ff" d="M222.83,-290.97C241.69,-283.59 267.46,-271.5 286,-255 300.46,-242.13 312.12,-223.2 319.45,-209.36"/>
<polygon fill="#63b8ff" stroke="#63b8ff" points="322.62,-210.85 324,-200.34 316.38,-207.69 322.62,-210.85"/>
</a>
</g>
<g id="a_edge3&#45;headlabel"><a xlink:href="dir_000010_000006.html" target="_top" xlink:title="10">
<text text-anchor="middle" x="323.54" y="-212.83" font-family="Helvetica,sans-Serif" font-size="10.00" fill="#63b8ff">10</text>
</a>
</g>
</g>
<!-- dir_355e6ca098999a5ac175abb2b6fa99c5 -->
<g id="node6" class="node">
<title>dir_355e6ca098999a5ac175abb2b6fa99c5</title>
<g id="a_node6"><a xlink:href="dir_355e6ca098999a5ac175abb2b6fa99c5.html" target="_top" xlink:title="Evaluator">
<polygon fill="#a2b4d6" stroke="#404040" points="107.5,-90 44.5,-90 44.5,-71 107.5,-71 107.5,-90"/>
<text text-anchor="middle" x="76" y="-78" font-family="Helvetica,sans-Serif" font-size="10.00">Evaluator</text>
</a>
</g>
</g>
<!-- dir_d44c64559bbebec7f509842c48db8b23&#45;&gt;dir_355e6ca098999a5ac175abb2b6fa99c5 -->
<g id="edge1" class="edge">
<title>dir_d44c64559bbebec7f509842c48db8b23&#45;&gt;dir_355e6ca098999a5ac175abb2b6fa99c5</title>
<g id="a_edge1"><a xlink:href="dir_000010_000008.html" target="_top">
<path fill="none" stroke="#63b8ff" d="M171.88,-295.68C148.39,-290.71 115.16,-279.56 99,-255 67.48,-207.1 109.97,-181.85 97,-126 94.85,-116.76 90.61,-107.15 86.5,-99.25"/>
<polygon fill="#63b8ff" stroke="#63b8ff" points="89.45,-97.34 81.53,-90.29 83.33,-100.73 89.45,-97.34"/>
</a>
</g>
<g id="a_edge1&#45;headlabel"><a xlink:href="dir_000010_000008.html" target="_top" xlink:title="2">
<text text-anchor="middle" x="93.67" y="-96.6" font-family="Helvetica,sans-Serif" font-size="10.00" fill="#63b8ff">2</text>
</a>
</g>
</g>
<!-- dir_f3b5534f769798fe34f6616e7fe90e4d -->
<g id="node7" class="node">
<title>dir_f3b5534f769798fe34f6616e7fe90e4d</title>
<g id="a_node7"><a xlink:href="dir_f3b5534f769798fe34f6616e7fe90e4d.html" target="_top" xlink:title="Library">
<polygon fill="#a2b4d6" stroke="#404040" points="172,-35 122,-35 122,-16 172,-16 172,-35"/>
<text text-anchor="middle" x="147" y="-23" font-family="Helvetica,sans-Serif" font-size="10.00">Library</text>
</a>
</g>
</g>
<!-- dir_d44c64559bbebec7f509842c48db8b23&#45;&gt;dir_f3b5534f769798fe34f6616e7fe90e4d -->
<g id="edge9" class="edge">
<title>dir_d44c64559bbebec7f509842c48db8b23&#45;&gt;dir_f3b5534f769798fe34f6616e7fe90e4d</title>
<g id="a_edge9"><a xlink:href="dir_000010_000011.html" target="_top">
<path fill="none" stroke="#63b8ff" d="M184.53,-290.77C173.09,-282.72 156.98,-269.81 147,-255 132.55,-233.55 132.28,-225.51 128,-200 118.58,-143.86 133.21,-76.69 141.67,-44.9"/>
<polygon fill="#63b8ff" stroke="#63b8ff" points="145.06,-45.79 144.36,-35.21 138.32,-43.92 145.06,-45.79"/>
</a>
</g>
<g id="a_edge9&#45;headlabel"><a xlink:href="dir_000010_000011.html" target="_top" xlink:title="11">
<text text-anchor="middle" x="146.84" y="-47.51" font-family="Helvetica,sans-Serif" font-size="10.00" fill="#63b8ff">11</text>
</a>
</g>
</g>
<!-- dir_9a9da714380e83657350e1a283b118f2 -->
<g id="node8" class="node">
<title>dir_9a9da714380e83657350e1a283b118f2</title>
<g id="a_node8"><a xlink:href="dir_9a9da714380e83657350e1a283b118f2.html" target="_top" xlink:title="RefPack">
<polygon fill="#a2b4d6" stroke="#404040" points="371,-255 315,-255 315,-236 371,-236 371,-255"/>
<text text-anchor="middle" x="343" y="-243" font-family="Helvetica,sans-Serif" font-size="10.00">RefPack</text>
</a>
</g>
</g>
<!-- dir_d44c64559bbebec7f509842c48db8b23&#45;&gt;dir_9a9da714380e83657350e1a283b118f2 -->
<g id="edge5" class="edge">
<title>dir_d44c64559bbebec7f509842c48db8b23&#45;&gt;dir_9a9da714380e83657350e1a283b118f2</title>
<g id="a_edge5"><a xlink:href="dir_000010_000013.html" target="_top">
<path fill="none" stroke="#63b8ff" d="M221.3,-290.98C245.25,-282.23 282.78,-268.51 309.83,-258.62"/>
<polygon fill="#63b8ff" stroke="#63b8ff" points="311.09,-261.89 319.28,-255.17 308.69,-255.32 311.09,-261.89"/>
</a>
</g>
<g id="a_edge5&#45;headlabel"><a xlink:href="dir_000010_000013.html" target="_top" xlink:title="1">
<text text-anchor="middle" x="308.69" y="-263.29" font-family="Helvetica,sans-Serif" font-size="10.00" fill="#63b8ff">1</text>
</a>
</g>
</g>
<!-- dir_6814b3546391fe00b0986e016a1f5cce -->
<g id="node9" class="node">
<title>dir_6814b3546391fe00b0986e016a1f5cce</title>
<g id="a_node9"><a xlink:href="dir_6814b3546391fe00b0986e016a1f5cce.html" target="_top" xlink:title="Reporter">
<polygon fill="#a2b4d6" stroke="#404040" points="283.5,-200 224.5,-200 224.5,-181 283.5,-181 283.5,-200"/>
<text text-anchor="middle" x="254" y="-188" font-family="Helvetica,sans-Serif" font-size="10.00">Reporter</text>
</a>
</g>
</g>
<!-- dir_d44c64559bbebec7f509842c48db8b23&#45;&gt;dir_6814b3546391fe00b0986e016a1f5cce -->
<g id="edge4" class="edge">
<title>dir_d44c64559bbebec7f509842c48db8b23&#45;&gt;dir_6814b3546391fe00b0986e016a1f5cce</title>
<g id="a_edge4"><a xlink:href="dir_000010_000014.html" target="_top">
<path fill="none" stroke="#63b8ff" d="M197.67,-290.75C197.56,-277.98 198.74,-253.83 208,-236 213.96,-224.52 224.01,-214.29 233.19,-206.53"/>
<polygon fill="#63b8ff" stroke="#63b8ff" points="235.59,-209.1 241.25,-200.14 231.24,-203.62 235.59,-209.1"/>
</a>
</g>
<g id="a_edge4&#45;headlabel"><a xlink:href="dir_000010_000014.html" target="_top" xlink:title="2">
<text text-anchor="middle" x="234.54" y="-211.06" font-family="Helvetica,sans-Serif" font-size="10.00" fill="#63b8ff">2</text>
</a>
</g>
</g>
<!-- dir_ecb1cd2647fbde066aa42b8902781c17 -->
<g id="node11" class="node">
<title>dir_ecb1cd2647fbde066aa42b8902781c17</title>
<g id="a_node11"><a xlink:href="dir_ecb1cd2647fbde066aa42b8902781c17.html" target="_top" xlink:title="Spreader">
<polygon fill="#a2b4d6" stroke="#404040" points="277,-255 217,-255 217,-236 277,-236 277,-255"/>
<text text-anchor="middle" x="247" y="-243" font-family="Helvetica,sans-Serif" font-size="10.00">Spreader</text>
</a>
</g>
</g>
<!-- dir_d44c64559bbebec7f509842c48db8b23&#45;&gt;dir_ecb1cd2647fbde066aa42b8902781c17 -->
<g id="edge8" class="edge">
<title>dir_d44c64559bbebec7f509842c48db8b23&#45;&gt;dir_ecb1cd2647fbde066aa42b8902781c17</title>
<g id="a_edge8"><a xlink:href="dir_000010_000018.html" target="_top">
<path fill="none" stroke="#63b8ff" d="M206.09,-290.75C213.16,-283.11 223.59,-271.82 232.15,-262.56"/>
<polygon fill="#63b8ff" stroke="#63b8ff" points="234.84,-264.81 239.06,-255.09 229.7,-260.06 234.84,-264.81"/>
</a>
</g>
<g id="a_edge8&#45;headlabel"><a xlink:href="dir_000010_000018.html" target="_top" xlink:title="1">
<text text-anchor="middle" x="234.49" y="-266.87" font-family="Helvetica,sans-Serif" font-size="10.00" fill="#63b8ff">1</text>
</a>
</g>
</g>
<!-- dir_a06002fa8f31776c9dd8916b34795e1d -->
<g id="node12" class="node">
<title>dir_a06002fa8f31776c9dd8916b34795e1d</title>
<g id="a_node12"><a xlink:href="dir_a06002fa8f31776c9dd8916b34795e1d.html" target="_top" xlink:title="TestGenerator">
<polygon fill="#a2b4d6" stroke="#404040" points="393.5,-145 308.5,-145 308.5,-126 393.5,-126 393.5,-145"/>
<text text-anchor="middle" x="351" y="-133" font-family="Helvetica,sans-Serif" font-size="10.00">TestGenerator</text>
</a>
</g>
</g>
<!-- dir_d44c64559bbebec7f509842c48db8b23&#45;&gt;dir_a06002fa8f31776c9dd8916b34795e1d -->
<g id="edge6" class="edge">
<title>dir_d44c64559bbebec7f509842c48db8b23&#45;&gt;dir_a06002fa8f31776c9dd8916b34795e1d</title>
<g id="a_edge6"><a xlink:href="dir_000010_000022.html" target="_top">
<path fill="none" stroke="#63b8ff" d="M224.25,-297C269.91,-292.05 360.92,-279.31 380,-255 403.54,-225.01 379.64,-178.61 363.37,-153.7"/>
<polygon fill="#63b8ff" stroke="#63b8ff" points="366.16,-151.57 357.63,-145.29 360.38,-155.52 366.16,-151.57"/>
</a>
</g>
<g id="a_edge6&#45;headlabel"><a xlink:href="dir_000010_000022.html" target="_top" xlink:title="1">
<text text-anchor="middle" x="370.53" y="-150.44" font-family="Helvetica,sans-Serif" font-size="10.00" fill="#63b8ff">1</text>
</a>
</g>
</g>
<!-- dir_a707b3c631222d9e9a8595f4aaa7fbb2&#45;&gt;dir_f3b5534f769798fe34f6616e7fe90e4d -->
<g id="edge10" class="edge">
<title>dir_a707b3c631222d9e9a8595f4aaa7fbb2&#45;&gt;dir_f3b5534f769798fe34f6616e7fe90e4d</title>
<g id="a_edge10"><a xlink:href="dir_000000_000011.html" target="_top">
<path fill="none" stroke="#63b8ff" d="M186.24,-70.75C179.53,-63.18 169.66,-52.05 161.49,-42.84"/>
<polygon fill="#63b8ff" stroke="#63b8ff" points="163.87,-40.25 154.62,-35.09 158.63,-44.89 163.87,-40.25"/>
</a>
</g>
<g id="a_edge10&#45;headlabel"><a xlink:href="dir_000000_000011.html" target="_top" xlink:title="1">
<text text-anchor="middle" x="168.38" y="-38.55" font-family="Helvetica,sans-Serif" font-size="10.00" fill="#63b8ff">1</text>
</a>
</g>
</g>
<!-- dir_4c66d8320edae8ac4eb532c864452e83 -->
<g id="node3" class="node">
<title>dir_4c66d8320edae8ac4eb532c864452e83</title>
<g id="a_node3"><a xlink:href="dir_4c66d8320edae8ac4eb532c864452e83.html" target="_top" xlink:title="Config">
<polygon fill="#a2b4d6" stroke="#404040" points="107.5,-310 60.5,-310 60.5,-291 107.5,-291 107.5,-310"/>
<text text-anchor="middle" x="84" y="-298" font-family="Helvetica,sans-Serif" font-size="10.00">Config</text>
</a>
</g>
</g>
<!-- dir_61e7388386f8079d670ae25d70d0cfb3&#45;&gt;dir_a707b3c631222d9e9a8595f4aaa7fbb2 -->
<g id="edge12" class="edge">
<title>dir_61e7388386f8079d670ae25d70d0cfb3&#45;&gt;dir_a707b3c631222d9e9a8595f4aaa7fbb2</title>
<g id="a_edge12"><a xlink:href="dir_000006_000000.html" target="_top">
<path fill="none" stroke="#63b8ff" d="M301.94,-182.35C265.62,-172.13 203.5,-153.64 197,-145 187.56,-132.46 187.68,-114.26 189.66,-100.56"/>
<polygon fill="#63b8ff" stroke="#63b8ff" points="193.17,-100.8 191.58,-90.33 186.29,-99.51 193.17,-100.8"/>
</a>
</g>
<g id="a_edge12&#45;headlabel"><a xlink:href="dir_000006_000000.html" target="_top" xlink:title="2">
<text text-anchor="middle" x="195.3" y="-102.36" font-family="Helvetica,sans-Serif" font-size="10.00" fill="#63b8ff">2</text>
</a>
</g>
</g>
<!-- dir_61e7388386f8079d670ae25d70d0cfb3&#45;&gt;dir_f3b5534f769798fe34f6616e7fe90e4d -->
<g id="edge13" class="edge">
<title>dir_61e7388386f8079d670ae25d70d0cfb3&#45;&gt;dir_f3b5534f769798fe34f6616e7fe90e4d</title>
<g id="a_edge13"><a xlink:href="dir_000006_000011.html" target="_top">
<path fill="none" stroke="#63b8ff" d="M301.97,-182.58C263.26,-172.11 194.09,-152.67 185,-145 155.37,-120 148.61,-71.82 147.21,-45.25"/>
<polygon fill="#63b8ff" stroke="#63b8ff" points="150.7,-44.9 146.89,-35.01 143.71,-45.12 150.7,-44.9"/>
</a>
</g>
<g id="a_edge13&#45;headlabel"><a xlink:href="dir_000006_000011.html" target="_top" xlink:title="2">
<text text-anchor="middle" x="153.65" y="-45.9" font-family="Helvetica,sans-Serif" font-size="10.00" fill="#63b8ff">2</text>
</a>
</g>
</g>
<!-- dir_33e04a8098dc3fe87f81eb223d56b845 -->
<g id="node10" class="node">
<title>dir_33e04a8098dc3fe87f81eb223d56b845</title>
<g id="a_node10"><a xlink:href="dir_33e04a8098dc3fe87f81eb223d56b845.html" target="_top" xlink:title="Simulator">
<polygon fill="#a2b4d6" stroke="#404040" points="270,-145 206,-145 206,-126 270,-126 270,-145"/>
<text text-anchor="middle" x="238" y="-133" font-family="Helvetica,sans-Serif" font-size="10.00">Simulator</text>
</a>
</g>
</g>
<!-- dir_61e7388386f8079d670ae25d70d0cfb3&#45;&gt;dir_33e04a8098dc3fe87f81eb223d56b845 -->
<g id="edge11" class="edge">
<title>dir_61e7388386f8079d670ae25d70d0cfb3&#45;&gt;dir_33e04a8098dc3fe87f81eb223d56b845</title>
<g id="a_edge11"><a xlink:href="dir_000006_000016.html" target="_top">
<path fill="none" stroke="#63b8ff" d="M308.43,-180.98C292.8,-172.84 271.38,-160.41 256.15,-150.76"/>
<polygon fill="#63b8ff" stroke="#63b8ff" points="257.86,-147.7 247.57,-145.17 254.04,-153.56 257.86,-147.7"/>
</a>
</g>
<g id="a_edge11&#45;headlabel"><a xlink:href="dir_000006_000016.html" target="_top" xlink:title="1">
<text text-anchor="middle" x="262.42" y="-144.78" font-family="Helvetica,sans-Serif" font-size="10.00" fill="#63b8ff">1</text>
</a>
</g>
</g>
<!-- dir_355e6ca098999a5ac175abb2b6fa99c5&#45;&gt;dir_f3b5534f769798fe34f6616e7fe90e4d -->
<g id="edge14" class="edge">
<title>dir_355e6ca098999a5ac175abb2b6fa99c5&#45;&gt;dir_f3b5534f769798fe34f6616e7fe90e4d</title>
<g id="a_edge14"><a xlink:href="dir_000008_000011.html" target="_top">
<path fill="none" stroke="#63b8ff" d="M87.41,-70.98C98.11,-63 114.34,-50.88 127.16,-41.31"/>
<polygon fill="#63b8ff" stroke="#63b8ff" points="129.47,-43.96 135.39,-35.17 125.28,-38.35 129.47,-43.96"/>
</a>
</g>
<g id="a_edge14&#45;headlabel"><a xlink:href="dir_000008_000011.html" target="_top" xlink:title="1">
<text text-anchor="middle" x="128.28" y="-45.88" font-family="Helvetica,sans-Serif" font-size="10.00" fill="#63b8ff">1</text>
</a>
</g>
</g>
<!-- dir_9a9da714380e83657350e1a283b118f2&#45;&gt;dir_a707b3c631222d9e9a8595f4aaa7fbb2 -->
<g id="edge16" class="edge">
<title>dir_9a9da714380e83657350e1a283b118f2&#45;&gt;dir_a707b3c631222d9e9a8595f4aaa7fbb2</title>
<g id="a_edge16"><a xlink:href="dir_000013_000000.html" target="_top">
<path fill="none" stroke="#63b8ff" d="M350,-235.79C359.31,-223.08 373.44,-198.99 363,-181 346.81,-153.11 326.11,-163.93 300,-145 289.81,-137.61 289.32,-133.2 279,-126 261.41,-113.74 240.02,-102.55 223.09,-94.47"/>
<polygon fill="#63b8ff" stroke="#63b8ff" points="224.25,-91.14 213.71,-90.08 221.28,-97.48 224.25,-91.14"/>
</a>
</g>
<g id="a_edge16&#45;headlabel"><a xlink:href="dir_000013_000000.html" target="_top" xlink:title="1">
<text text-anchor="middle" x="228.71" y="-87.59" font-family="Helvetica,sans-Serif" font-size="10.00" fill="#63b8ff">1</text>
</a>
</g>
</g>
<!-- dir_9a9da714380e83657350e1a283b118f2&#45;&gt;dir_61e7388386f8079d670ae25d70d0cfb3 -->
<g id="edge15" class="edge">
<title>dir_9a9da714380e83657350e1a283b118f2&#45;&gt;dir_61e7388386f8079d670ae25d70d0cfb3</title>
<g id="a_edge15"><a xlink:href="dir_000013_000006.html" target="_top">
<path fill="none" stroke="#63b8ff" d="M340.52,-235.75C338.54,-228.72 335.68,-218.62 333.19,-209.84"/>
<polygon fill="#63b8ff" stroke="#63b8ff" points="336.52,-208.76 330.43,-200.09 329.79,-210.66 336.52,-208.76"/>
</a>
</g>
<g id="a_edge15&#45;headlabel"><a xlink:href="dir_000013_000006.html" target="_top" xlink:title="1">
<text text-anchor="middle" x="340.23" y="-208.94" font-family="Helvetica,sans-Serif" font-size="10.00" fill="#63b8ff">1</text>
</a>
</g>
</g>
<!-- dir_33e04a8098dc3fe87f81eb223d56b845&#45;&gt;dir_a707b3c631222d9e9a8595f4aaa7fbb2 -->
<g id="edge18" class="edge">
<title>dir_33e04a8098dc3fe87f81eb223d56b845&#45;&gt;dir_a707b3c631222d9e9a8595f4aaa7fbb2</title>
<g id="a_edge18"><a xlink:href="dir_000016_000000.html" target="_top">
<path fill="none" stroke="#63b8ff" d="M230.73,-125.75C224.46,-118.18 215.21,-107.05 207.57,-97.84"/>
<polygon fill="#63b8ff" stroke="#63b8ff" points="210.21,-95.55 201.13,-90.09 204.83,-100.02 210.21,-95.55"/>
</a>
</g>
<g id="a_edge18&#45;headlabel"><a xlink:href="dir_000016_000000.html" target="_top" xlink:title="1">
<text text-anchor="middle" x="214.69" y="-94" font-family="Helvetica,sans-Serif" font-size="10.00" fill="#63b8ff">1</text>
</a>
</g>
</g>
<!-- dir_33e04a8098dc3fe87f81eb223d56b845&#45;&gt;dir_61e7388386f8079d670ae25d70d0cfb3 -->
<g id="edge17" class="edge">
<title>dir_33e04a8098dc3fe87f81eb223d56b845&#45;&gt;dir_61e7388386f8079d670ae25d70d0cfb3</title>
<g id="a_edge17"><a xlink:href="dir_000016_000006.html" target="_top">
<path fill="none" stroke="#63b8ff" d="M257.87,-145.17C273.57,-153.37 294.99,-165.81 310.14,-175.42"/>
<polygon fill="#63b8ff" stroke="#63b8ff" points="308.37,-178.45 318.65,-180.98 312.2,-172.59 308.37,-178.45"/>
</a>
</g>
<g id="a_edge17&#45;headlabel"><a xlink:href="dir_000016_000006.html" target="_top" xlink:title="1">
<text text-anchor="middle" x="303.81" y="-176.36" font-family="Helvetica,sans-Serif" font-size="10.00" fill="#63b8ff">1</text>
</a>
</g>
</g>
<!-- dir_33e04a8098dc3fe87f81eb223d56b845&#45;&gt;dir_f3b5534f769798fe34f6616e7fe90e4d -->
<g id="edge19" class="edge">
<title>dir_33e04a8098dc3fe87f81eb223d56b845&#45;&gt;dir_f3b5534f769798fe34f6616e7fe90e4d</title>
<g id="a_edge19"><a xlink:href="dir_000016_000011.html" target="_top">
<path fill="none" stroke="#63b8ff" d="M239.43,-125.84C241.1,-112.75 242.34,-87.7 231,-71 219.5,-54.07 199.42,-43.1 181.78,-36.29"/>
<polygon fill="#63b8ff" stroke="#63b8ff" points="182.9,-32.97 172.3,-32.92 180.55,-39.56 182.9,-32.97"/>
</a>
</g>
<g id="a_edge19&#45;headlabel"><a xlink:href="dir_000016_000011.html" target="_top" xlink:title="1">
<text text-anchor="middle" x="187.24" y="-29" font-family="Helvetica,sans-Serif" font-size="10.00" fill="#63b8ff">1</text>
</a>
</g>
</g>
<!-- dir_ecb1cd2647fbde066aa42b8902781c17&#45;&gt;dir_37df1cb154487d0b8fa64856285c6c86 -->
<g id="edge20" class="edge">
<title>dir_ecb1cd2647fbde066aa42b8902781c17&#45;&gt;dir_37df1cb154487d0b8fa64856285c6c86</title>
<g id="a_edge20"><a xlink:href="dir_000018_000004.html" target="_top">
<path fill="none" stroke="#63b8ff" d="M235.43,-235.98C224.58,-228 208.12,-215.88 195.12,-206.31"/>
<polygon fill="#63b8ff" stroke="#63b8ff" points="196.91,-203.28 186.78,-200.17 192.76,-208.92 196.91,-203.28"/>
</a>
</g>
<g id="a_edge20&#45;headlabel"><a xlink:href="dir_000018_000004.html" target="_top" xlink:title="1">
<text text-anchor="middle" x="201.48" y="-200.62" font-family="Helvetica,sans-Serif" font-size="10.00" fill="#63b8ff">1</text>
</a>
</g>
</g>
<!-- dir_ecb1cd2647fbde066aa42b8902781c17&#45;&gt;dir_61e7388386f8079d670ae25d70d0cfb3 -->
<g id="edge21" class="edge">
<title>dir_ecb1cd2647fbde066aa42b8902781c17&#45;&gt;dir_61e7388386f8079d670ae25d70d0cfb3</title>
<g id="a_edge21"><a xlink:href="dir_000018_000006.html" target="_top">
<path fill="none" stroke="#63b8ff" d="M260.01,-235.98C272.46,-227.84 291.46,-215.41 306.21,-205.76"/>
<polygon fill="#63b8ff" stroke="#63b8ff" points="308.3,-208.57 314.75,-200.17 304.46,-202.72 308.3,-208.57"/>
</a>
</g>
<g id="a_edge21&#45;headlabel"><a xlink:href="dir_000018_000006.html" target="_top" xlink:title="2">
<text text-anchor="middle" x="306.84" y="-210.42" font-family="Helvetica,sans-Serif" font-size="10.00" fill="#63b8ff">2</text>
</a>
</g>
</g>
<!-- dir_ecb1cd2647fbde066aa42b8902781c17&#45;&gt;dir_6814b3546391fe00b0986e016a1f5cce -->
<g id="edge22" class="edge">
<title>dir_ecb1cd2647fbde066aa42b8902781c17&#45;&gt;dir_6814b3546391fe00b0986e016a1f5cce</title>
<g id="a_edge22"><a xlink:href="dir_000018_000014.html" target="_top">
<path fill="none" stroke="#63b8ff" d="M248.16,-235.75C249.07,-228.8 250.39,-218.85 251.54,-210.13"/>
<polygon fill="#63b8ff" stroke="#63b8ff" points="255.03,-210.46 252.87,-200.09 248.09,-209.54 255.03,-210.46"/>
</a>
</g>
<g id="a_edge22&#45;headlabel"><a xlink:href="dir_000018_000014.html" target="_top" xlink:title="1">
<text text-anchor="middle" x="257.37" y="-211.9" font-family="Helvetica,sans-Serif" font-size="10.00" fill="#63b8ff">1</text>
</a>
</g>
</g>
<!-- dir_a06002fa8f31776c9dd8916b34795e1d&#45;&gt;dir_f3b5534f769798fe34f6616e7fe90e4d -->
<g id="edge23" class="edge">
<title>dir_a06002fa8f31776c9dd8916b34795e1d&#45;&gt;dir_f3b5534f769798fe34f6616e7fe90e4d</title>
<g id="a_edge23"><a xlink:href="dir_000022_000011.html" target="_top">
<path fill="none" stroke="#63b8ff" d="M336.67,-125.98C315.53,-113.49 274.63,-89.69 239,-71 217.69,-59.82 193.14,-48 174.76,-39.35"/>
<polygon fill="#63b8ff" stroke="#63b8ff" points="176.04,-36.09 165.5,-35.02 173.08,-42.43 176.04,-36.09"/>
</a>
</g>
<g id="a_edge23&#45;headlabel"><a xlink:href="dir_000022_000011.html" target="_top" xlink:title="2">
<text text-anchor="middle" x="180.5" y="-32.54" font-family="Helvetica,sans-Serif" font-size="10.00" fill="#63b8ff">2</text>
</a>
</g>
</g>
<!-- dir_2ea744a57f066fc9309ddb5edad689f0 -->
<g id="node13" class="node">
<title>dir_2ea744a57f066fc9309ddb5edad689f0</title>
<g id="a_node13"><a xlink:href="dir_2ea744a57f066fc9309ddb5edad689f0.html" target="_top" xlink:title="Transaction">
<polygon fill="#a2b4d6" stroke="#404040" points="88,-145 16,-145 16,-126 88,-126 88,-145"/>
<text text-anchor="middle" x="52" y="-133" font-family="Helvetica,sans-Serif" font-size="10.00">Transaction</text>
</a>
</g>
</g>
<!-- dir_2ea744a57f066fc9309ddb5edad689f0&#45;&gt;dir_355e6ca098999a5ac175abb2b6fa99c5 -->
<g id="edge24" class="edge">
<title>dir_2ea744a57f066fc9309ddb5edad689f0&#45;&gt;dir_355e6ca098999a5ac175abb2b6fa99c5</title>
<g id="a_edge24"><a xlink:href="dir_000024_000008.html" target="_top">
<path fill="none" stroke="#63b8ff" d="M55.96,-125.75C59.21,-118.57 63.92,-108.18 67.95,-99.27"/>
<polygon fill="#63b8ff" stroke="#63b8ff" points="71.17,-100.64 72.11,-90.09 64.8,-97.75 71.17,-100.64"/>
</a>
</g>
<g id="a_edge24&#45;headlabel"><a xlink:href="dir_000024_000008.html" target="_top" xlink:title="1">
<text text-anchor="middle" x="72.28" y="-102.59" font-family="Helvetica,sans-Serif" font-size="10.00" fill="#63b8ff">1</text>
</a>
</g>
</g>
<!-- dir_2ea744a57f066fc9309ddb5edad689f0&#45;&gt;dir_f3b5534f769798fe34f6616e7fe90e4d -->
<g id="edge25" class="edge">
<title>dir_2ea744a57f066fc9309ddb5edad689f0&#45;&gt;dir_f3b5534f769798fe34f6616e7fe90e4d</title>
<g id="a_edge25"><a xlink:href="dir_000024_000011.html" target="_top">
<path fill="none" stroke="#63b8ff" d="M45.64,-125.96C36.85,-113.03 23.34,-88.19 35,-71 52.12,-45.78 86.01,-34.86 112.06,-30.12"/>
<polygon fill="#63b8ff" stroke="#63b8ff" points="112.63,-33.57 121.95,-28.54 111.53,-26.66 112.63,-33.57"/>
</a>
</g>
<g id="a_edge25&#45;headlabel"><a xlink:href="dir_000024_000011.html" target="_top" xlink:title="2">
<text text-anchor="middle" x="109.53" y="-34.44" font-family="Helvetica,sans-Serif" font-size="10.00" fill="#63b8ff">2</text>
</a>
</g>
</g>
</g>
</svg>
</svg>

<style type='text/css'>
<![CDATA[
[data-mouse-over-selected='false'] { opacity: 0.7; }
[data-mouse-over-selected='true']  { opacity: 1.0; }
]]>
</style>
<script type="application/ecmascript"><![CDATA[
document.addEventListener('DOMContentLoaded', (event) => {
  highlightEdges();
  highlightAdjacentNodes();
});
]]></script>
</svg>
