<?xml version="1.0" encoding="UTF-8" standalone="no"?>
<!DOCTYPE svg PUBLIC "-//W3C//DTD SVG 1.1//EN"
 "http://www.w3.org/Graphics/SVG/1.1/DTD/svg11.dtd">
<!-- Generated by graphviz version 2.43.0 (0)
 -->
<!-- Title: src Pages: 1 -->
<svg width="945pt" height="98pt"
 viewBox="0.00 0.00 945.00 98.00" xmlns="http://www.w3.org/2000/svg" xmlns:xlink="http://www.w3.org/1999/xlink">
<g id="graph0" class="graph" transform="scale(1 1) rotate(0) translate(4 94)">
<title>src</title>
<g id="clust1" class="cluster">
<title>clusterdir_68267d1309a1af8e8297ef4c3efbcdba</title>
<g id="a_clust1"><a xlink:href="dir_68267d1309a1af8e8297ef4c3efbcdba.html" target="_top">
<polygon fill="#edf0f7" stroke="#404040" stroke-width="2" points="8,-47 8,-82 929,-82 929,-47 8,-47"/>
</a>
</g>
</g>
<!-- dir_68267d1309a1af8e8297ef4c3efbcdba -->
<g id="node1" class="node">
<title>dir_68267d1309a1af8e8297ef4c3efbcdba</title>
<text text-anchor="middle" x="905" y="-62" font-family="Helvetica,sans-Serif" font-size="10.00">src</text>
</g>
<!-- dir_d44c64559bbebec7f509842c48db8b23 -->
<g id="node13" class="node">
<title>dir_d44c64559bbebec7f509842c48db8b23</title>
<g id="a_node13"><a xlink:href="dir_d44c64559bbebec7f509842c48db8b23.html" target="_top" xlink:title="include">
<polygon fill="#edf0f7" stroke="red" points="574,-19 522,-19 522,0 574,0 574,-19"/>
<text text-anchor="middle" x="548" y="-7" font-family="Helvetica,sans-Serif" font-size="10.00">include</text>
</a>
</g>
</g>
<!-- dir_68267d1309a1af8e8297ef4c3efbcdba&#45;&gt;dir_d44c64559bbebec7f509842c48db8b23 -->
<g id="edge1" class="edge">
<title>dir_68267d1309a1af8e8297ef4c3efbcdba&#45;&gt;dir_d44c64559bbebec7f509842c48db8b23</title>
<g id="a_edge1"><a xlink:href="dir_000020_000010.html" target="_top">
<path fill="none" stroke="#63b8ff" d="M894.41,-54.9C890.17,-51.9 885.09,-48.84 880,-47 826.33,-27.62 658.94,-16.47 584.42,-12.34"/>
<polygon fill="#63b8ff" stroke="#63b8ff" points="584.3,-8.83 574.12,-11.79 583.92,-15.82 584.3,-8.83"/>
</a>
</g>
<g id="a_edge1&#45;headlabel"><a xlink:href="dir_000020_000010.html" target="_top" xlink:title="23">
<text text-anchor="middle" x="588.04" y="-3.69" font-family="Helvetica,sans-Serif" font-size="10.00" fill="#63b8ff">23</text>
</a>
</g>
</g>
<!-- dir_b744047ae6c50201c8c68963d318301a -->
<g id="node2" class="node">
<title>dir_b744047ae6c50201c8c68963d318301a</title>
<g id="a_node2"><a xlink:href="dir_b744047ae6c50201c8c68963d318301a.html" target="_top" xlink:title="Channel">
<polygon fill="#a2b4d6" stroke="#404040" points="871,-74 815,-74 815,-55 871,-55 871,-74"/>
<text text-anchor="middle" x="843" y="-62" font-family="Helvetica,sans-Serif" font-size="10.00">Channel</text>
</a>
</g>
</g>
<!-- dir_b744047ae6c50201c8c68963d318301a&#45;&gt;dir_d44c64559bbebec7f509842c48db8b23 -->
<g id="edge2" class="edge">
<title>dir_b744047ae6c50201c8c68963d318301a&#45;&gt;dir_d44c64559bbebec7f509842c48db8b23</title>
<g id="a_edge2"><a xlink:href="dir_000001_000010.html" target="_top">
<path fill="none" stroke="#63b8ff" d="M826.43,-54.92C820.17,-52 812.89,-48.98 806,-47 728.88,-24.82 634.76,-15.86 584.23,-12.44"/>
<polygon fill="#63b8ff" stroke="#63b8ff" points="584.34,-8.94 574.13,-11.79 583.89,-15.92 584.34,-8.94"/>
</a>
</g>
<g id="a_edge2&#45;headlabel"><a xlink:href="dir_000001_000010.html" target="_top" xlink:title="1">
<text text-anchor="middle" x="588.1" y="-3.83" font-family="Helvetica,sans-Serif" font-size="10.00" fill="#63b8ff">1</text>
</a>
</g>
</g>
<!-- dir_55be27304aee4fac13a1eb8fc08f58b6 -->
<g id="node3" class="node">
<title>dir_55be27304aee4fac13a1eb8fc08f58b6</title>
<g id="a_node3"><a xlink:href="dir_55be27304aee4fac13a1eb8fc08f58b6.html" target="_top" xlink:title="Config">
<polygon fill="#a2b4d6" stroke="#404040" points="796.5,-74 749.5,-74 749.5,-55 796.5,-55 796.5,-74"/>
<text text-anchor="middle" x="773" y="-62" font-family="Helvetica,sans-Serif" font-size="10.00">Config</text>
</a>
</g>
</g>
<!-- dir_55be27304aee4fac13a1eb8fc08f58b6&#45;&gt;dir_d44c64559bbebec7f509842c48db8b23 -->
<g id="edge3" class="edge">
<title>dir_55be27304aee4fac13a1eb8fc08f58b6&#45;&gt;dir_d44c64559bbebec7f509842c48db8b23</title>
<g id="a_edge3"><a xlink:href="dir_000003_000010.html" target="_top">
<path fill="none" stroke="#63b8ff" d="M758.42,-54.85C753.09,-52 746.91,-49.03 741,-47 688.13,-28.8 623.81,-18.94 584.4,-14.2"/>
<polygon fill="#63b8ff" stroke="#63b8ff" points="584.55,-10.7 574.21,-13.03 583.75,-17.65 584.55,-10.7"/>
</a>
</g>
<g id="a_edge3&#45;headlabel"><a xlink:href="dir_000003_000010.html" target="_top" xlink:title="1">
<text text-anchor="middle" x="588.45" y="-5.79" font-family="Helvetica,sans-Serif" font-size="10.00" fill="#63b8ff">1</text>
</a>
</g>
</g>
<!-- dir_e95107e76c1ba4922be3f343acf5dcf1 -->
<g id="node4" class="node">
<title>dir_e95107e76c1ba4922be3f343acf5dcf1</title>
<g id="a_node4"><a xlink:href="dir_e95107e76c1ba4922be3f343acf5dcf1.html" target="_top" xlink:title="Database">
<polygon fill="#a2b4d6" stroke="#404040" points="731.5,-74 668.5,-74 668.5,-55 731.5,-55 731.5,-74"/>
<text text-anchor="middle" x="700" y="-62" font-family="Helvetica,sans-Serif" font-size="10.00">Database</text>
</a>
</g>
</g>
<!-- dir_e95107e76c1ba4922be3f343acf5dcf1&#45;&gt;dir_d44c64559bbebec7f509842c48db8b23 -->
<g id="edge4" class="edge">
<title>dir_e95107e76c1ba4922be3f343acf5dcf1&#45;&gt;dir_d44c64559bbebec7f509842c48db8b23</title>
<g id="a_edge4"><a xlink:href="dir_000005_000010.html" target="_top">
<path fill="none" stroke="#63b8ff" d="M679.24,-54.84C672.79,-52.23 665.63,-49.42 659,-47 634.05,-37.89 605.58,-28.55 583.72,-21.6"/>
<polygon fill="#63b8ff" stroke="#63b8ff" points="584.77,-18.26 574.18,-18.58 582.66,-24.93 584.77,-18.26"/>
</a>
</g>
<g id="a_edge4&#45;headlabel"><a xlink:href="dir_000005_000010.html" target="_top" xlink:title="1">
<text text-anchor="middle" x="589.05" y="-14.13" font-family="Helvetica,sans-Serif" font-size="10.00" fill="#63b8ff">1</text>
</a>
</g>
</g>
<!-- dir_6b6158ffc10bb67e6b7d62eced5c0155 -->
<g id="node5" class="node">
<title>dir_6b6158ffc10bb67e6b7d62eced5c0155</title>
<g id="a_node5"><a xlink:href="dir_6b6158ffc10bb67e6b7d62eced5c0155.html" target="_top" xlink:title="Drivers">
<polygon fill="#a2b4d6" stroke="#404040" points="650,-74 598,-74 598,-55 650,-55 650,-74"/>
<text text-anchor="middle" x="624" y="-62" font-family="Helvetica,sans-Serif" font-size="10.00">Drivers</text>
</a>
</g>
</g>
<!-- dir_6b6158ffc10bb67e6b7d62eced5c0155&#45;&gt;dir_d44c64559bbebec7f509842c48db8b23 -->
<g id="edge5" class="edge">
<title>dir_6b6158ffc10bb67e6b7d62eced5c0155&#45;&gt;dir_d44c64559bbebec7f509842c48db8b23</title>
<g id="a_edge5"><a xlink:href="dir_000007_000010.html" target="_top">
<path fill="none" stroke="#63b8ff" d="M611.79,-54.98C600.22,-46.92 582.62,-34.65 568.84,-25.03"/>
<polygon fill="#63b8ff" stroke="#63b8ff" points="570.64,-22.02 560.43,-19.17 566.63,-27.76 570.64,-22.02"/>
</a>
</g>
<g id="a_edge5&#45;headlabel"><a xlink:href="dir_000007_000010.html" target="_top" xlink:title="6">
<text text-anchor="middle" x="575.21" y="-19.25" font-family="Helvetica,sans-Serif" font-size="10.00" fill="#63b8ff">6</text>
</a>
</g>
</g>
<!-- dir_212914c1f7c879d13fb628a4730e4e98 -->
<g id="node6" class="node">
<title>dir_212914c1f7c879d13fb628a4730e4e98</title>
<g id="a_node6"><a xlink:href="dir_212914c1f7c879d13fb628a4730e4e98.html" target="_top" xlink:title="Evaluator">
<polygon fill="#a2b4d6" stroke="#404040" points="579.5,-74 516.5,-74 516.5,-55 579.5,-55 579.5,-74"/>
<text text-anchor="middle" x="548" y="-62" font-family="Helvetica,sans-Serif" font-size="10.00">Evaluator</text>
</a>
</g>
</g>
<!-- dir_212914c1f7c879d13fb628a4730e4e98&#45;&gt;dir_d44c64559bbebec7f509842c48db8b23 -->
<g id="edge6" class="edge">
<title>dir_212914c1f7c879d13fb628a4730e4e98&#45;&gt;dir_d44c64559bbebec7f509842c48db8b23</title>
<g id="a_edge6"><a xlink:href="dir_000009_000010.html" target="_top">
<path fill="none" stroke="#63b8ff" d="M548,-54.75C548,-47.8 548,-37.85 548,-29.13"/>
<polygon fill="#63b8ff" stroke="#63b8ff" points="551.5,-29.09 548,-19.09 544.5,-29.09 551.5,-29.09"/>
</a>
</g>
<g id="a_edge6&#45;headlabel"><a xlink:href="dir_000009_000010.html" target="_top" xlink:title="1">
<text text-anchor="middle" x="554.34" y="-30.18" font-family="Helvetica,sans-Serif" font-size="10.00" fill="#63b8ff">1</text>
</a>
</g>
</g>
<!-- dir_f741251061e5c7c7ed48ab45c3348f11 -->
<g id="node7" class="node">
<title>dir_f741251061e5c7c7ed48ab45c3348f11</title>
<g id="a_node7"><a xlink:href="dir_f741251061e5c7c7ed48ab45c3348f11.html" target="_top" xlink:title="Library">
<polygon fill="#a2b4d6" stroke="#404040" points="498,-74 448,-74 448,-55 498,-55 498,-74"/>
<text text-anchor="middle" x="473" y="-62" font-family="Helvetica,sans-Serif" font-size="10.00">Library</text>
</a>
</g>
</g>
<!-- dir_86305bf49d89b2a055ec783c882c7c0f -->
<g id="node8" class="node">
<title>dir_86305bf49d89b2a055ec783c882c7c0f</title>
<g id="a_node8"><a xlink:href="dir_86305bf49d89b2a055ec783c882c7c0f.html" target="_top" xlink:title="Reporter">
<polygon fill="#a2b4d6" stroke="#404040" points="429.5,-74 370.5,-74 370.5,-55 429.5,-55 429.5,-74"/>
<text text-anchor="middle" x="400" y="-62" font-family="Helvetica,sans-Serif" font-size="10.00">Reporter</text>
</a>
</g>
</g>
<!-- dir_86305bf49d89b2a055ec783c882c7c0f&#45;&gt;dir_d44c64559bbebec7f509842c48db8b23 -->
<g id="edge7" class="edge">
<title>dir_86305bf49d89b2a055ec783c882c7c0f&#45;&gt;dir_d44c64559bbebec7f509842c48db8b23</title>
<g id="a_edge7"><a xlink:href="dir_000015_000010.html" target="_top">
<path fill="none" stroke="#63b8ff" d="M419.32,-54.98C425.56,-52.32 432.54,-49.45 439,-47 463.17,-37.86 490.78,-28.62 512.16,-21.73"/>
<polygon fill="#63b8ff" stroke="#63b8ff" points="513.36,-25.02 521.81,-18.64 511.22,-18.36 513.36,-25.02"/>
</a>
</g>
<g id="a_edge7&#45;headlabel"><a xlink:href="dir_000015_000010.html" target="_top" xlink:title="2">
<text text-anchor="middle" x="510.8" y="-26.32" font-family="Helvetica,sans-Serif" font-size="10.00" fill="#63b8ff">2</text>
</a>
</g>
</g>
<!-- dir_9994e8d78827318b32c660b708636a19 -->
<g id="node9" class="node">
<title>dir_9994e8d78827318b32c660b708636a19</title>
<g id="a_node9"><a xlink:href="dir_9994e8d78827318b32c660b708636a19.html" target="_top" xlink:title="Simulator">
<polygon fill="#a2b4d6" stroke="#404040" points="352,-74 288,-74 288,-55 352,-55 352,-74"/>
<text text-anchor="middle" x="320" y="-62" font-family="Helvetica,sans-Serif" font-size="10.00">Simulator</text>
</a>
</g>
</g>
<!-- dir_9994e8d78827318b32c660b708636a19&#45;&gt;dir_d44c64559bbebec7f509842c48db8b23 -->
<g id="edge8" class="edge">
<title>dir_9994e8d78827318b32c660b708636a19&#45;&gt;dir_d44c64559bbebec7f509842c48db8b23</title>
<g id="a_edge8"><a xlink:href="dir_000017_000010.html" target="_top">
<path fill="none" stroke="#63b8ff" d="M339.83,-54.86C346.75,-52.07 354.63,-49.15 362,-47 413.11,-32.08 473.91,-21.44 511.73,-15.63"/>
<polygon fill="#63b8ff" stroke="#63b8ff" points="512.4,-19.07 521.77,-14.12 511.36,-12.15 512.4,-19.07"/>
</a>
</g>
<g id="a_edge8&#45;headlabel"><a xlink:href="dir_000017_000010.html" target="_top" xlink:title="1">
<text text-anchor="middle" x="509.27" y="-19.91" font-family="Helvetica,sans-Serif" font-size="10.00" fill="#63b8ff">1</text>
</a>
</g>
</g>
<!-- dir_70327672c2a11044a13f237300c5c7a9 -->
<g id="node10" class="node">
<title>dir_70327672c2a11044a13f237300c5c7a9</title>
<g id="a_node10"><a xlink:href="dir_70327672c2a11044a13f237300c5c7a9.html" target="_top" xlink:title="Spreader">
<polygon fill="#a2b4d6" stroke="#404040" points="270,-74 210,-74 210,-55 270,-55 270,-74"/>
<text text-anchor="middle" x="240" y="-62" font-family="Helvetica,sans-Serif" font-size="10.00">Spreader</text>
</a>
</g>
</g>
<!-- dir_70327672c2a11044a13f237300c5c7a9&#45;&gt;dir_d44c64559bbebec7f509842c48db8b23 -->
<g id="edge9" class="edge">
<title>dir_70327672c2a11044a13f237300c5c7a9&#45;&gt;dir_d44c64559bbebec7f509842c48db8b23</title>
<g id="a_edge9"><a xlink:href="dir_000019_000010.html" target="_top">
<path fill="none" stroke="#63b8ff" d="M257.51,-54.92C264.11,-52 271.77,-48.98 279,-47 360.43,-24.68 459.63,-15.72 511.85,-12.36"/>
<polygon fill="#63b8ff" stroke="#63b8ff" points="512.19,-15.84 521.95,-11.74 511.76,-8.86 512.19,-15.84"/>
</a>
</g>
<g id="a_edge9&#45;headlabel"><a xlink:href="dir_000019_000010.html" target="_top" xlink:title="1">
<text text-anchor="middle" x="508.77" y="-16.4" font-family="Helvetica,sans-Serif" font-size="10.00" fill="#63b8ff">1</text>
</a>
</g>
</g>
<!-- dir_baa766d9bd5011bb57ba73d5f6f29e18 -->
<g id="node11" class="node">
<title>dir_baa766d9bd5011bb57ba73d5f6f29e18</title>
<g id="a_node11"><a xlink:href="dir_baa766d9bd5011bb57ba73d5f6f29e18.html" target="_top" xlink:title="TestGenerator">
<polygon fill="#a2b4d6" stroke="#404040" points="191.5,-74 106.5,-74 106.5,-55 191.5,-55 191.5,-74"/>
<text text-anchor="middle" x="149" y="-62" font-family="Helvetica,sans-Serif" font-size="10.00">TestGenerator</text>
</a>
</g>
</g>
<!-- dir_baa766d9bd5011bb57ba73d5f6f29e18&#45;&gt;dir_d44c64559bbebec7f509842c48db8b23 -->
<g id="edge10" class="edge">
<title>dir_baa766d9bd5011bb57ba73d5f6f29e18&#45;&gt;dir_d44c64559bbebec7f509842c48db8b23</title>
<g id="a_edge10"><a xlink:href="dir_000023_000010.html" target="_top">
<path fill="none" stroke="#63b8ff" d="M172.55,-54.92C181.37,-52 191.54,-48.98 201,-47 312.54,-23.69 447.53,-14.93 511.27,-11.92"/>
<polygon fill="#63b8ff" stroke="#63b8ff" points="511.77,-15.4 521.6,-11.46 511.45,-8.41 511.77,-15.4"/>
</a>
</g>
<g id="a_edge10&#45;headlabel"><a xlink:href="dir_000023_000010.html" target="_top" xlink:title="2">
<text text-anchor="middle" x="508.31" y="-15.9" font-family="Helvetica,sans-Serif" font-size="10.00" fill="#63b8ff">2</text>
</a>
</g>
</g>
<!-- dir_90bc0d3a03a2bb013b21845d01122dda -->
<g id="node12" class="node">
<title>dir_90bc0d3a03a2bb013b21845d01122dda</title>
<g id="a_node12"><a xlink:href="dir_90bc0d3a03a2bb013b21845d01122dda.html" target="_top" xlink:title="Transaction">
<polygon fill="#a2b4d6" stroke="#404040" points="88,-74 16,-74 16,-55 88,-55 88,-74"/>
<text text-anchor="middle" x="52" y="-62" font-family="Helvetica,sans-Serif" font-size="10.00">Transaction</text>
</a>
</g>
</g>
<!-- dir_90bc0d3a03a2bb013b21845d01122dda&#45;&gt;dir_d44c64559bbebec7f509842c48db8b23 -->
<g id="edge11" class="edge">
<title>dir_90bc0d3a03a2bb013b21845d01122dda&#45;&gt;dir_d44c64559bbebec7f509842c48db8b23</title>
<g id="a_edge11"><a xlink:href="dir_000025_000010.html" target="_top">
<path fill="none" stroke="#63b8ff" d="M72.27,-54.93C80.17,-51.93 89.38,-48.86 98,-47 249.1,-14.37 434.47,-10.35 511.62,-10.23"/>
<polygon fill="#63b8ff" stroke="#63b8ff" points="511.78,-13.73 521.78,-10.23 511.78,-6.73 511.78,-13.73"/>
</a>
</g>
<g id="a_edge11&#45;headlabel"><a xlink:href="dir_000025_000010.html" target="_top" xlink:title="3">
<text text-anchor="middle" x="508.18" y="-14.07" font-family="Helvetica,sans-Serif" font-size="10.00" fill="#63b8ff">3</text>
</a>
</g>
</g>
</g>
</svg>
