<?xml version="1.0" encoding="UTF-8" standalone="no"?>
<!DOCTYPE svg PUBLIC "-//W3C//DTD SVG 1.1//EN"
 "http://www.w3.org/Graphics/SVG/1.1/DTD/svg11.dtd">
<!-- Generated by graphviz version 2.43.0 (0)
 -->
<!-- Title: include Pages: 1 -->
<svg width="398pt" height="334pt"
 viewBox="0.00 0.00 398.00 334.00" xmlns="http://www.w3.org/2000/svg" xmlns:xlink="http://www.w3.org/1999/xlink">

<svg id="main" version="1.1" xmlns="http://www.w3.org/2000/svg" xmlns:xlink="http://www.w3.org/1999/xlink" xml:space="preserve" onload="init(evt)">
<style type="text/css"><![CDATA[
.node, .edge {opacity: 0.7;}
.node.selected, .edge.selected {opacity: 1;}
.edge:hover path { stroke: red; }
.edge:hover polygon { stroke: red; fill: red; }
]]></style>
<script type="application/ecmascript" xlink:href="svg.min.js"/>
<svg id="graph" class="graph">
<g id="graph0" class="graph" transform="scale(1 1) rotate(0) translate(4 330)">
<title>include</title>
<g id="clust1" class="cluster">
<title>clusterdir_d44c64559bbebec7f509842c48db8b23</title>
<g id="a_clust1"><a xlink:href="dir_d44c64559bbebec7f509842c48db8b23.html" target="_top">
<polygon fill="#edf0f7" stroke="#404040" stroke-width="2" points="8,-8 8,-318 382,-318 382,-8 8,-8"/>
</a>
</g>
</g>
<!-- dir_d44c64559bbebec7f509842c48db8b23 -->
<g id="node1" class="node">
<title>dir_d44c64559bbebec7f509842c48db8b23</title>
<text text-anchor="middle" x="212" y="-298" font-family="Helvetica,sans-Serif" font-size="10.00">include</text>
</g>
<!-- dir_a707b3c631222d9e9a8595f4aaa7fbb2 -->
<g id="node2" class="node">
<title>dir_a707b3c631222d9e9a8595f4aaa7fbb2</title>
<g id="a_node2"><a xlink:href="dir_a707b3c631222d9e9a8595f4aaa7fbb2.html" target="_top" xlink:title="Channel">
<polygon fill="#a2b4d6" stroke="#404040" points="194,-90 138,-90 138,-71 194,-71 194,-90"/>
<text text-anchor="middle" x="166" y="-78" font-family="Helvetica,sans-Serif" font-size="10.00">Channel</text>
</a>
</g>
</g>
<!-- dir_d44c64559bbebec7f509842c48db8b23&#45;&gt;dir_a707b3c631222d9e9a8595f4aaa7fbb2 -->
<g id="edge6" class="edge">
<title>dir_d44c64559bbebec7f509842c48db8b23&#45;&gt;dir_a707b3c631222d9e9a8595f4aaa7fbb2</title>
<g id="a_edge6"><a xlink:href="dir_000010_000000.html" target="_top">
<path fill="none" stroke="#63b8ff" d="M186,-292.87C166.82,-286.52 141.91,-274.89 129,-255 97.78,-206.89 110.22,-179.05 132,-126 136.23,-115.7 143.48,-105.7 150.21,-97.8"/>
<polygon fill="#63b8ff" stroke="#63b8ff" points="153.02,-99.91 157.13,-90.14 147.83,-95.22 153.02,-99.91"/>
</a>
</g>
<g id="a_edge6&#45;headlabel"><a xlink:href="dir_000010_000000.html" target="_top" xlink:title="5">
<text text-anchor="middle" x="152.72" y="-101.98" font-family="Helvetica,sans-Serif" font-size="10.00" fill="#63b8ff">5</text>
</a>
</g>
</g>
<!-- dir_37df1cb154487d0b8fa64856285c6c86 -->
<g id="node4" class="node">
<title>dir_37df1cb154487d0b8fa64856285c6c86</title>
<g id="a_node4"><a xlink:href="dir_37df1cb154487d0b8fa64856285c6c86.html" target="_top" xlink:title="Database">
<polygon fill="#a2b4d6" stroke="#404040" points="205.5,-200 142.5,-200 142.5,-181 205.5,-181 205.5,-200"/>
<text text-anchor="middle" x="174" y="-188" font-family="Helvetica,sans-Serif" font-size="10.00">Database</text>
</a>
</g>
</g>
<!-- dir_d44c64559bbebec7f509842c48db8b23&#45;&gt;dir_37df1cb154487d0b8fa64856285c6c86 -->
<g id="edge1" class="edge">
<title>dir_d44c64559bbebec7f509842c48db8b23&#45;&gt;dir_37df1cb154487d0b8fa64856285c6c86</title>
<g id="a_edge1"><a xlink:href="dir_000010_000004.html" target="_top">
<path fill="none" stroke="#63b8ff" d="M185.85,-291.57C168.63,-284.84 147.41,-273.29 137,-255 127.61,-238.5 141.63,-219.73 155.03,-206.9"/>
<polygon fill="#63b8ff" stroke="#63b8ff" points="157.52,-209.36 162.66,-200.1 152.87,-204.14 157.52,-209.36"/>
</a>
</g>
<g id="a_edge1&#45;headlabel"><a xlink:href="dir_000010_000004.html" target="_top" xlink:title="2">
<text text-anchor="middle" x="156.73" y="-211.37" font-family="Helvetica,sans-Serif" font-size="10.00" fill="#63b8ff">2</text>
</a>
</g>
</g>
<!-- dir_61e7388386f8079d670ae25d70d0cfb3 -->
<g id="node5" class="node">
<title>dir_61e7388386f8079d670ae25d70d0cfb3</title>
<g id="a_node5"><a xlink:href="dir_61e7388386f8079d670ae25d70d0cfb3.html" target="_top" xlink:title="Drivers">
<polygon fill="#a2b4d6" stroke="#404040" points="276,-200 224,-200 224,-181 276,-181 276,-200"/>
<text text-anchor="middle" x="250" y="-188" font-family="Helvetica,sans-Serif" font-size="10.00">Drivers</text>
</a>
</g>
</g>
<!-- dir_d44c64559bbebec7f509842c48db8b23&#45;&gt;dir_61e7388386f8079d670ae25d70d0cfb3 -->
<g id="edge2" class="edge">
<title>dir_d44c64559bbebec7f509842c48db8b23&#45;&gt;dir_61e7388386f8079d670ae25d70d0cfb3</title>
<g id="a_edge2"><a xlink:href="dir_000010_000006.html" target="_top">
<path fill="none" stroke="#63b8ff" d="M238.07,-292.04C255.87,-285.44 278.12,-273.86 289,-255 298.62,-238.33 283.88,-219.58 269.85,-206.81"/>
<polygon fill="#63b8ff" stroke="#63b8ff" points="271.75,-203.83 261.86,-200.04 267.23,-209.17 271.75,-203.83"/>
</a>
</g>
<g id="a_edge2&#45;headlabel"><a xlink:href="dir_000010_000006.html" target="_top" xlink:title="10">
<text text-anchor="middle" x="276.33" y="-201.49" font-family="Helvetica,sans-Serif" font-size="10.00" fill="#63b8ff">10</text>
</a>
</g>
</g>
<!-- dir_f3b5534f769798fe34f6616e7fe90e4d -->
<g id="node7" class="node">
<title>dir_f3b5534f769798fe34f6616e7fe90e4d</title>
<g id="a_node7"><a xlink:href="dir_f3b5534f769798fe34f6616e7fe90e4d.html" target="_top" xlink:title="Library">
<polygon fill="#a2b4d6" stroke="#404040" points="191,-35 141,-35 141,-16 191,-16 191,-35"/>
<text text-anchor="middle" x="166" y="-23" font-family="Helvetica,sans-Serif" font-size="10.00">Library</text>
</a>
</g>
</g>
<!-- dir_d44c64559bbebec7f509842c48db8b23&#45;&gt;dir_f3b5534f769798fe34f6616e7fe90e4d -->
<g id="edge8" class="edge">
<title>dir_d44c64559bbebec7f509842c48db8b23&#45;&gt;dir_f3b5534f769798fe34f6616e7fe90e4d</title>
<g id="a_edge8"><a xlink:href="dir_000010_000011.html" target="_top">
<path fill="none" stroke="#63b8ff" d="M185.96,-294.89C163.24,-289.43 131.29,-278 114,-255 89.35,-222.2 111.16,-107.94 129,-71 134.06,-60.52 142.11,-50.42 149.41,-42.5"/>
<polygon fill="#63b8ff" stroke="#63b8ff" points="152.14,-44.72 156.59,-35.1 147.12,-39.84 152.14,-44.72"/>
</a>
</g>
<g id="a_edge8&#45;headlabel"><a xlink:href="dir_000010_000011.html" target="_top" xlink:title="11">
<text text-anchor="middle" x="151.67" y="-46.77" font-family="Helvetica,sans-Serif" font-size="10.00" fill="#63b8ff">11</text>
</a>
</g>
</g>
<!-- dir_9a9da714380e83657350e1a283b118f2 -->
<g id="node8" class="node">
<title>dir_9a9da714380e83657350e1a283b118f2</title>
<g id="a_node8"><a xlink:href="dir_9a9da714380e83657350e1a283b118f2.html" target="_top" xlink:title="RefPack">
<polygon fill="#a2b4d6" stroke="#404040" points="202,-255 146,-255 146,-236 202,-236 202,-255"/>
<text text-anchor="middle" x="174" y="-243" font-family="Helvetica,sans-Serif" font-size="10.00">RefPack</text>
</a>
</g>
</g>
<!-- dir_d44c64559bbebec7f509842c48db8b23&#45;&gt;dir_9a9da714380e83657350e1a283b118f2 -->
<g id="edge4" class="edge">
<title>dir_d44c64559bbebec7f509842c48db8b23&#45;&gt;dir_9a9da714380e83657350e1a283b118f2</title>
<g id="a_edge4"><a xlink:href="dir_000010_000013.html" target="_top">
<path fill="none" stroke="#63b8ff" d="M205.73,-290.75C200.41,-283.34 192.64,-272.5 186.12,-263.41"/>
<polygon fill="#63b8ff" stroke="#63b8ff" points="188.83,-261.18 180.16,-255.09 183.14,-265.26 188.83,-261.18"/>
</a>
</g>
<g id="a_edge4&#45;headlabel"><a xlink:href="dir_000010_000013.html" target="_top" xlink:title="1">
<text text-anchor="middle" x="193.23" y="-259.94" font-family="Helvetica,sans-Serif" font-size="10.00" fill="#63b8ff">1</text>
</a>
</g>
</g>
<!-- dir_6814b3546391fe00b0986e016a1f5cce -->
<g id="node9" class="node">
<title>dir_6814b3546391fe00b0986e016a1f5cce</title>
<g id="a_node9"><a xlink:href="dir_6814b3546391fe00b0986e016a1f5cce.html" target="_top" xlink:title="Reporter">
<polygon fill="#a2b4d6" stroke="#404040" points="353.5,-200 294.5,-200 294.5,-181 353.5,-181 353.5,-200"/>
<text text-anchor="middle" x="324" y="-188" font-family="Helvetica,sans-Serif" font-size="10.00">Reporter</text>
</a>
</g>
</g>
<!-- dir_d44c64559bbebec7f509842c48db8b23&#45;&gt;dir_6814b3546391fe00b0986e016a1f5cce -->
<g id="edge3" class="edge">
<title>dir_d44c64559bbebec7f509842c48db8b23&#45;&gt;dir_6814b3546391fe00b0986e016a1f5cce</title>
<g id="a_edge3"><a xlink:href="dir_000010_000014.html" target="_top">
<path fill="none" stroke="#63b8ff" d="M237.27,-290.96C255.31,-283.77 279.11,-271.93 295,-255 306.91,-242.31 314.58,-223.87 319.03,-210.13"/>
<polygon fill="#63b8ff" stroke="#63b8ff" points="322.45,-210.9 321.91,-200.32 315.73,-208.92 322.45,-210.9"/>
</a>
</g>
<g id="a_edge3&#45;headlabel"><a xlink:href="dir_000010_000014.html" target="_top" xlink:title="2">
<text text-anchor="middle" x="324.16" y="-212.65" font-family="Helvetica,sans-Serif" font-size="10.00" fill="#63b8ff">2</text>
</a>
</g>
</g>
<!-- dir_ecb1cd2647fbde066aa42b8902781c17 -->
<g id="node11" class="node">
<title>dir_ecb1cd2647fbde066aa42b8902781c17</title>
<g id="a_node11"><a xlink:href="dir_ecb1cd2647fbde066aa42b8902781c17.html" target="_top" xlink:title="Spreader">
<polygon fill="#a2b4d6" stroke="#404040" points="280,-255 220,-255 220,-236 280,-236 280,-255"/>
<text text-anchor="middle" x="250" y="-243" font-family="Helvetica,sans-Serif" font-size="10.00">Spreader</text>
</a>
</g>
</g>
<!-- dir_d44c64559bbebec7f509842c48db8b23&#45;&gt;dir_ecb1cd2647fbde066aa42b8902781c17 -->
<g id="edge7" class="edge">
<title>dir_d44c64559bbebec7f509842c48db8b23&#45;&gt;dir_ecb1cd2647fbde066aa42b8902781c17</title>
<g id="a_edge7"><a xlink:href="dir_000010_000018.html" target="_top">
<path fill="none" stroke="#63b8ff" d="M218.27,-290.75C223.59,-283.34 231.36,-272.5 237.88,-263.41"/>
<polygon fill="#63b8ff" stroke="#63b8ff" points="240.86,-265.26 243.84,-255.09 235.17,-261.18 240.86,-265.26"/>
</a>
</g>
<g id="a_edge7&#45;headlabel"><a xlink:href="dir_000010_000018.html" target="_top" xlink:title="1">
<text text-anchor="middle" x="241.07" y="-267.33" font-family="Helvetica,sans-Serif" font-size="10.00" fill="#63b8ff">1</text>
</a>
</g>
</g>
<!-- dir_a06002fa8f31776c9dd8916b34795e1d -->
<g id="node12" class="node">
<title>dir_a06002fa8f31776c9dd8916b34795e1d</title>
<g id="a_node12"><a xlink:href="dir_a06002fa8f31776c9dd8916b34795e1d.html" target="_top" xlink:title="TestGenerator">
<polygon fill="#a2b4d6" stroke="#404040" points="373.5,-145 288.5,-145 288.5,-126 373.5,-126 373.5,-145"/>
<text text-anchor="middle" x="331" y="-133" font-family="Helvetica,sans-Serif" font-size="10.00">TestGenerator</text>
</a>
</g>
</g>
<!-- dir_d44c64559bbebec7f509842c48db8b23&#45;&gt;dir_a06002fa8f31776c9dd8916b34795e1d -->
<g id="edge5" class="edge">
<title>dir_d44c64559bbebec7f509842c48db8b23&#45;&gt;dir_a06002fa8f31776c9dd8916b34795e1d</title>
<g id="a_edge5"><a xlink:href="dir_000010_000022.html" target="_top">
<path fill="none" stroke="#63b8ff" d="M238.18,-292.15C275.23,-280.07 340.91,-252.01 363,-200 369.97,-183.6 358.9,-165.5 347.92,-152.83"/>
<polygon fill="#63b8ff" stroke="#63b8ff" points="350.31,-150.26 340.91,-145.37 345.2,-155.05 350.31,-150.26"/>
</a>
</g>
<g id="a_edge5&#45;headlabel"><a xlink:href="dir_000010_000022.html" target="_top" xlink:title="1">
<text text-anchor="middle" x="354.84" y="-148.44" font-family="Helvetica,sans-Serif" font-size="10.00" fill="#63b8ff">1</text>
</a>
</g>
</g>
<!-- dir_a707b3c631222d9e9a8595f4aaa7fbb2&#45;&gt;dir_f3b5534f769798fe34f6616e7fe90e4d -->
<g id="edge9" class="edge">
<title>dir_a707b3c631222d9e9a8595f4aaa7fbb2&#45;&gt;dir_f3b5534f769798fe34f6616e7fe90e4d</title>
<g id="a_edge9"><a xlink:href="dir_000000_000011.html" target="_top">
<path fill="none" stroke="#63b8ff" d="M166,-70.75C166,-63.8 166,-53.85 166,-45.13"/>
<polygon fill="#63b8ff" stroke="#63b8ff" points="169.5,-45.09 166,-35.09 162.5,-45.09 169.5,-45.09"/>
</a>
</g>
<g id="a_edge9&#45;headlabel"><a xlink:href="dir_000000_000011.html" target="_top" xlink:title="1">
<text text-anchor="middle" x="172.34" y="-46.18" font-family="Helvetica,sans-Serif" font-size="10.00" fill="#63b8ff">1</text>
</a>
</g>
</g>
<!-- dir_4c66d8320edae8ac4eb532c864452e83 -->
<g id="node3" class="node">
<title>dir_4c66d8320edae8ac4eb532c864452e83</title>
<g id="a_node3"><a xlink:href="dir_4c66d8320edae8ac4eb532c864452e83.html" target="_top" xlink:title="Config">
<polygon fill="#a2b4d6" stroke="#404040" points="134.5,-310 87.5,-310 87.5,-291 134.5,-291 134.5,-310"/>
<text text-anchor="middle" x="111" y="-298" font-family="Helvetica,sans-Serif" font-size="10.00">Config</text>
</a>
</g>
</g>
<!-- dir_61e7388386f8079d670ae25d70d0cfb3&#45;&gt;dir_a707b3c631222d9e9a8595f4aaa7fbb2 -->
<g id="edge11" class="edge">
<title>dir_61e7388386f8079d670ae25d70d0cfb3&#45;&gt;dir_a707b3c631222d9e9a8595f4aaa7fbb2</title>
<g id="a_edge11"><a xlink:href="dir_000006_000000.html" target="_top">
<path fill="none" stroke="#63b8ff" d="M225.82,-180.95C209.43,-173.88 188.69,-162.18 177,-145 168.05,-131.85 165.65,-113.72 165.28,-100.19"/>
<polygon fill="#63b8ff" stroke="#63b8ff" points="168.78,-100.15 165.35,-90.13 161.78,-100.1 168.78,-100.15"/>
</a>
</g>
<g id="a_edge11&#45;headlabel"><a xlink:href="dir_000006_000000.html" target="_top" xlink:title="2">
<text text-anchor="middle" x="171.6" y="-101.27" font-family="Helvetica,sans-Serif" font-size="10.00" fill="#63b8ff">2</text>
</a>
</g>
</g>
<!-- dir_61e7388386f8079d670ae25d70d0cfb3&#45;&gt;dir_f3b5534f769798fe34f6616e7fe90e4d -->
<g id="edge12" class="edge">
<title>dir_61e7388386f8079d670ae25d70d0cfb3&#45;&gt;dir_f3b5534f769798fe34f6616e7fe90e4d</title>
<g id="a_edge12"><a xlink:href="dir_000006_000011.html" target="_top">
<path fill="none" stroke="#63b8ff" d="M253.77,-181C258.73,-168.54 266.04,-144.77 259,-126 245.16,-89.09 209.91,-58.06 187,-40.9"/>
<polygon fill="#63b8ff" stroke="#63b8ff" points="189.05,-38.06 178.9,-35.02 184.93,-43.73 189.05,-38.06"/>
</a>
</g>
<g id="a_edge12&#45;headlabel"><a xlink:href="dir_000006_000011.html" target="_top" xlink:title="2">
<text text-anchor="middle" x="193.62" y="-35.37" font-family="Helvetica,sans-Serif" font-size="10.00" fill="#63b8ff">2</text>
</a>
</g>
</g>
<!-- dir_33e04a8098dc3fe87f81eb223d56b845 -->
<g id="node10" class="node">
<title>dir_33e04a8098dc3fe87f81eb223d56b845</title>
<g id="a_node10"><a xlink:href="dir_33e04a8098dc3fe87f81eb223d56b845.html" target="_top" xlink:title="Simulator">
<polygon fill="#a2b4d6" stroke="#404040" points="250,-145 186,-145 186,-126 250,-126 250,-145"/>
<text text-anchor="middle" x="218" y="-133" font-family="Helvetica,sans-Serif" font-size="10.00">Simulator</text>
</a>
</g>
</g>
<!-- dir_61e7388386f8079d670ae25d70d0cfb3&#45;&gt;dir_33e04a8098dc3fe87f81eb223d56b845 -->
<g id="edge10" class="edge">
<title>dir_61e7388386f8079d670ae25d70d0cfb3&#45;&gt;dir_33e04a8098dc3fe87f81eb223d56b845</title>
<g id="a_edge10"><a xlink:href="dir_000006_000016.html" target="_top">
<path fill="none" stroke="#63b8ff" d="M239.55,-180.75C233.67,-173.57 226.98,-163.18 222.31,-154.27"/>
<polygon fill="#63b8ff" stroke="#63b8ff" points="225.44,-152.69 218.05,-145.09 219.09,-155.63 225.44,-152.69"/>
</a>
</g>
<g id="a_edge10&#45;headlabel"><a xlink:href="dir_000006_000016.html" target="_top" xlink:title="1">
<text text-anchor="middle" x="229.53" y="-152.25" font-family="Helvetica,sans-Serif" font-size="10.00" fill="#63b8ff">1</text>
</a>
</g>
</g>
<!-- dir_355e6ca098999a5ac175abb2b6fa99c5 -->
<g id="node6" class="node">
<title>dir_355e6ca098999a5ac175abb2b6fa99c5</title>
<g id="a_node6"><a xlink:href="dir_355e6ca098999a5ac175abb2b6fa99c5.html" target="_top" xlink:title="Evaluator">
<polygon fill="#a2b4d6" stroke="#404040" points="79.5,-90 16.5,-90 16.5,-71 79.5,-71 79.5,-90"/>
<text text-anchor="middle" x="48" y="-78" font-family="Helvetica,sans-Serif" font-size="10.00">Evaluator</text>
</a>
</g>
</g>
<!-- dir_355e6ca098999a5ac175abb2b6fa99c5&#45;&gt;dir_f3b5534f769798fe34f6616e7fe90e4d -->
<g id="edge13" class="edge">
<title>dir_355e6ca098999a5ac175abb2b6fa99c5&#45;&gt;dir_f3b5534f769798fe34f6616e7fe90e4d</title>
<g id="a_edge13"><a xlink:href="dir_000008_000011.html" target="_top">
<path fill="none" stroke="#63b8ff" d="M66.96,-70.98C86.03,-62.42 115.66,-49.11 137.55,-39.28"/>
<polygon fill="#63b8ff" stroke="#63b8ff" points="139.01,-42.46 146.7,-35.17 136.14,-36.07 139.01,-42.46"/>
</a>
</g>
<g id="a_edge13&#45;headlabel"><a xlink:href="dir_000008_000011.html" target="_top" xlink:title="1">
<text text-anchor="middle" x="136.89" y="-44.02" font-family="Helvetica,sans-Serif" font-size="10.00" fill="#63b8ff">1</text>
</a>
</g>
</g>
<!-- dir_9a9da714380e83657350e1a283b118f2&#45;&gt;dir_a707b3c631222d9e9a8595f4aaa7fbb2 -->
<g id="edge15" class="edge">
<title>dir_9a9da714380e83657350e1a283b118f2&#45;&gt;dir_a707b3c631222d9e9a8595f4aaa7fbb2</title>
<g id="a_edge15"><a xlink:href="dir_000013_000000.html" target="_top">
<path fill="none" stroke="#63b8ff" d="M162.36,-235.73C152.69,-227.67 139.65,-214.74 134,-200 120.58,-165 140.71,-122.16 154.62,-98.77"/>
<polygon fill="#63b8ff" stroke="#63b8ff" points="157.75,-100.36 160.08,-90.02 151.82,-96.65 157.75,-100.36"/>
</a>
</g>
<g id="a_edge15&#45;headlabel"><a xlink:href="dir_000013_000000.html" target="_top" xlink:title="1">
<text text-anchor="middle" x="158.26" y="-102.41" font-family="Helvetica,sans-Serif" font-size="10.00" fill="#63b8ff">1</text>
</a>
</g>
</g>
<!-- dir_9a9da714380e83657350e1a283b118f2&#45;&gt;dir_61e7388386f8079d670ae25d70d0cfb3 -->
<g id="edge14" class="edge">
<title>dir_9a9da714380e83657350e1a283b118f2&#45;&gt;dir_61e7388386f8079d670ae25d70d0cfb3</title>
<g id="a_edge14"><a xlink:href="dir_000013_000006.html" target="_top">
<path fill="none" stroke="#63b8ff" d="M186.21,-235.98C197.78,-227.92 215.38,-215.65 229.16,-206.03"/>
<polygon fill="#63b8ff" stroke="#63b8ff" points="231.37,-208.76 237.57,-200.17 227.36,-203.02 231.37,-208.76"/>
</a>
</g>
<g id="a_edge14&#45;headlabel"><a xlink:href="dir_000013_000006.html" target="_top" xlink:title="1">
<text text-anchor="middle" x="230.04" y="-210.65" font-family="Helvetica,sans-Serif" font-size="10.00" fill="#63b8ff">1</text>
</a>
</g>
</g>
<!-- dir_33e04a8098dc3fe87f81eb223d56b845&#45;&gt;dir_a707b3c631222d9e9a8595f4aaa7fbb2 -->
<g id="edge17" class="edge">
<title>dir_33e04a8098dc3fe87f81eb223d56b845&#45;&gt;dir_a707b3c631222d9e9a8595f4aaa7fbb2</title>
<g id="a_edge17"><a xlink:href="dir_000016_000000.html" target="_top">
<path fill="none" stroke="#63b8ff" d="M209.41,-125.75C201.84,-118.03 190.62,-106.6 181.49,-97.28"/>
<polygon fill="#63b8ff" stroke="#63b8ff" points="183.93,-94.78 174.43,-90.09 178.93,-99.68 183.93,-94.78"/>
</a>
</g>
<g id="a_edge17&#45;headlabel"><a xlink:href="dir_000016_000000.html" target="_top" xlink:title="1">
<text text-anchor="middle" x="188.47" y="-92.85" font-family="Helvetica,sans-Serif" font-size="10.00" fill="#63b8ff">1</text>
</a>
</g>
</g>
<!-- dir_33e04a8098dc3fe87f81eb223d56b845&#45;&gt;dir_61e7388386f8079d670ae25d70d0cfb3 -->
<g id="edge16" class="edge">
<title>dir_33e04a8098dc3fe87f81eb223d56b845&#45;&gt;dir_61e7388386f8079d670ae25d70d0cfb3</title>
<g id="a_edge16"><a xlink:href="dir_000016_000006.html" target="_top">
<path fill="none" stroke="#63b8ff" d="M228.32,-145.09C234.18,-152.22 240.88,-162.6 245.58,-171.53"/>
<polygon fill="#63b8ff" stroke="#63b8ff" points="242.48,-173.17 249.88,-180.75 248.82,-170.21 242.48,-173.17"/>
</a>
</g>
<g id="a_edge16&#45;headlabel"><a xlink:href="dir_000016_000006.html" target="_top" xlink:title="1">
<text text-anchor="middle" x="238.39" y="-168.61" font-family="Helvetica,sans-Serif" font-size="10.00" fill="#63b8ff">1</text>
</a>
</g>
</g>
<!-- dir_33e04a8098dc3fe87f81eb223d56b845&#45;&gt;dir_f3b5534f769798fe34f6616e7fe90e4d -->
<g id="edge18" class="edge">
<title>dir_33e04a8098dc3fe87f81eb223d56b845&#45;&gt;dir_f3b5534f769798fe34f6616e7fe90e4d</title>
<g id="a_edge18"><a xlink:href="dir_000016_000011.html" target="_top">
<path fill="none" stroke="#63b8ff" d="M217.23,-125.86C215.82,-113.23 212.1,-89.24 203,-71 197.81,-60.59 189.74,-50.49 182.47,-42.56"/>
<polygon fill="#63b8ff" stroke="#63b8ff" points="184.78,-39.92 175.32,-35.15 179.74,-44.77 184.78,-39.92"/>
</a>
</g>
<g id="a_edge18&#45;headlabel"><a xlink:href="dir_000016_000011.html" target="_top" xlink:title="1">
<text text-anchor="middle" x="189.32" y="-38.04" font-family="Helvetica,sans-Serif" font-size="10.00" fill="#63b8ff">1</text>
</a>
</g>
</g>
<!-- dir_ecb1cd2647fbde066aa42b8902781c17&#45;&gt;dir_37df1cb154487d0b8fa64856285c6c86 -->
<g id="edge19" class="edge">
<title>dir_ecb1cd2647fbde066aa42b8902781c17&#45;&gt;dir_37df1cb154487d0b8fa64856285c6c86</title>
<g id="a_edge19"><a xlink:href="dir_000018_000004.html" target="_top">
<path fill="none" stroke="#63b8ff" d="M237.79,-235.98C226.22,-227.92 208.62,-215.65 194.84,-206.03"/>
<polygon fill="#63b8ff" stroke="#63b8ff" points="196.64,-203.02 186.43,-200.17 192.63,-208.76 196.64,-203.02"/>
</a>
</g>
<g id="a_edge19&#45;headlabel"><a xlink:href="dir_000018_000004.html" target="_top" xlink:title="1">
<text text-anchor="middle" x="201.21" y="-200.25" font-family="Helvetica,sans-Serif" font-size="10.00" fill="#63b8ff">1</text>
</a>
</g>
</g>
<!-- dir_ecb1cd2647fbde066aa42b8902781c17&#45;&gt;dir_61e7388386f8079d670ae25d70d0cfb3 -->
<g id="edge20" class="edge">
<title>dir_ecb1cd2647fbde066aa42b8902781c17&#45;&gt;dir_61e7388386f8079d670ae25d70d0cfb3</title>
<g id="a_edge20"><a xlink:href="dir_000018_000006.html" target="_top">
<path fill="none" stroke="#63b8ff" d="M250,-235.75C250,-228.8 250,-218.85 250,-210.13"/>
<polygon fill="#63b8ff" stroke="#63b8ff" points="253.5,-210.09 250,-200.09 246.5,-210.09 253.5,-210.09"/>
</a>
</g>
<g id="a_edge20&#45;headlabel"><a xlink:href="dir_000018_000006.html" target="_top" xlink:title="2">
<text text-anchor="middle" x="256.34" y="-211.18" font-family="Helvetica,sans-Serif" font-size="10.00" fill="#63b8ff">2</text>
</a>
</g>
</g>
<!-- dir_ecb1cd2647fbde066aa42b8902781c17&#45;&gt;dir_6814b3546391fe00b0986e016a1f5cce -->
<g id="edge21" class="edge">
<title>dir_ecb1cd2647fbde066aa42b8902781c17&#45;&gt;dir_6814b3546391fe00b0986e016a1f5cce</title>
<g id="a_edge21"><a xlink:href="dir_000018_000014.html" target="_top">
<path fill="none" stroke="#63b8ff" d="M261.89,-235.98C273.15,-227.92 290.29,-215.65 303.71,-206.03"/>
<polygon fill="#63b8ff" stroke="#63b8ff" points="305.8,-208.84 311.89,-200.17 301.73,-203.15 305.8,-208.84"/>
</a>
</g>
<g id="a_edge21&#45;headlabel"><a xlink:href="dir_000018_000014.html" target="_top" xlink:title="1">
<text text-anchor="middle" x="304.53" y="-210.74" font-family="Helvetica,sans-Serif" font-size="10.00" fill="#63b8ff">1</text>
</a>
</g>
</g>
<!-- dir_a06002fa8f31776c9dd8916b34795e1d&#45;&gt;dir_f3b5534f769798fe34f6616e7fe90e4d -->
<g id="edge22" class="edge">
<title>dir_a06002fa8f31776c9dd8916b34795e1d&#45;&gt;dir_f3b5534f769798fe34f6616e7fe90e4d</title>
<g id="a_edge22"><a xlink:href="dir_000022_000011.html" target="_top">
<path fill="none" stroke="#63b8ff" d="M325.29,-125.99C315.97,-112.65 296.26,-86.73 274,-71 251.74,-55.27 223.08,-43.79 200.88,-36.44"/>
<polygon fill="#63b8ff" stroke="#63b8ff" points="201.77,-33.05 191.18,-33.34 199.64,-39.72 201.77,-33.05"/>
</a>
</g>
<g id="a_edge22&#45;headlabel"><a xlink:href="dir_000022_000011.html" target="_top" xlink:title="2">
<text text-anchor="middle" x="206.06" y="-28.93" font-family="Helvetica,sans-Serif" font-size="10.00" fill="#63b8ff">2</text>
</a>
</g>
</g>
<!-- dir_2ea744a57f066fc9309ddb5edad689f0 -->
<g id="node13" class="node">
<title>dir_2ea744a57f066fc9309ddb5edad689f0</title>
<g id="a_node13"><a xlink:href="dir_2ea744a57f066fc9309ddb5edad689f0.html" target="_top" xlink:title="Transaction">
<polygon fill="#a2b4d6" stroke="#404040" points="88,-145 16,-145 16,-126 88,-126 88,-145"/>
<text text-anchor="middle" x="52" y="-133" font-family="Helvetica,sans-Serif" font-size="10.00">Transaction</text>
</a>
</g>
</g>
<!-- dir_2ea744a57f066fc9309ddb5edad689f0&#45;&gt;dir_355e6ca098999a5ac175abb2b6fa99c5 -->
<g id="edge23" class="edge">
<title>dir_2ea744a57f066fc9309ddb5edad689f0&#45;&gt;dir_355e6ca098999a5ac175abb2b6fa99c5</title>
<g id="a_edge23"><a xlink:href="dir_000024_000008.html" target="_top">
<path fill="none" stroke="#63b8ff" d="M51.34,-125.75C50.82,-118.8 50.06,-108.85 49.41,-100.13"/>
<polygon fill="#63b8ff" stroke="#63b8ff" points="52.89,-99.8 48.65,-90.09 45.91,-100.32 52.89,-99.8"/>
</a>
</g>
<g id="a_edge23&#45;headlabel"><a xlink:href="dir_000024_000008.html" target="_top" xlink:title="1">
<text text-anchor="middle" x="55.99" y="-100.67" font-family="Helvetica,sans-Serif" font-size="10.00" fill="#63b8ff">1</text>
</a>
</g>
</g>
<!-- dir_2ea744a57f066fc9309ddb5edad689f0&#45;&gt;dir_f3b5534f769798fe34f6616e7fe90e4d -->
<g id="edge24" class="edge">
<title>dir_2ea744a57f066fc9309ddb5edad689f0&#45;&gt;dir_f3b5534f769798fe34f6616e7fe90e4d</title>
<g id="a_edge24"><a xlink:href="dir_000024_000011.html" target="_top">
<path fill="none" stroke="#63b8ff" d="M60.18,-125.63C71.83,-113.12 93.98,-89.75 114,-71 124.84,-60.85 137.49,-50 147.6,-41.56"/>
<polygon fill="#63b8ff" stroke="#63b8ff" points="149.93,-44.17 155.4,-35.1 145.47,-38.78 149.93,-44.17"/>
</a>
</g>
<g id="a_edge24&#45;headlabel"><a xlink:href="dir_000024_000011.html" target="_top" xlink:title="2">
<text text-anchor="middle" x="148.97" y="-46.15" font-family="Helvetica,sans-Serif" font-size="10.00" fill="#63b8ff">2</text>
</a>
</g>
</g>
</g>
</svg>
</svg>

<style type='text/css'>
<![CDATA[
[data-mouse-over-selected='false'] { opacity: 0.7; }
[data-mouse-over-selected='true']  { opacity: 1.0; }
]]>
</style>
<script type="application/ecmascript"><![CDATA[
document.addEventListener('DOMContentLoaded', (event) => {
  highlightEdges();
  highlightAdjacentNodes();
});
]]></script>
</svg>
