<?xml version="1.0" encoding="UTF-8" standalone="no"?>
<!DOCTYPE svg PUBLIC "-//W3C//DTD SVG 1.1//EN"
 "http://www.w3.org/Graphics/SVG/1.1/DTD/svg11.dtd">
<!-- Generated by graphviz version 2.43.0 (0)
 -->
<!-- Title: include/Drivers/driverModel.h Pages: 1 -->
<svg width="1074pt" height="544pt"
 viewBox="0.00 0.00 1073.50 544.00" xmlns="http://www.w3.org/2000/svg" xmlns:xlink="http://www.w3.org/1999/xlink">
<g id="graph0" class="graph" transform="scale(1 1) rotate(0) translate(4 540)">
<title>include/Drivers/driverModel.h</title>
<!-- Node1 -->
<g id="Node000001" class="node">
<title>Node1</title>
<g id="a_Node000001"><a xlink:title=" ">
<polygon fill="#999999" stroke="#666666" points="644.5,-536 483.5,-536 483.5,-517 644.5,-517 644.5,-536"/>
<text text-anchor="middle" x="564" y="-524" font-family="Helvetica,sans-Serif" font-size="10.00">include/Drivers/driverModel.h</text>
</a>
</g>
</g>
<!-- Node2 -->
<g id="Node000002" class="node">
<title>Node2</title>
<g id="a_Node000002"><a xlink:href="driver_8h.html" target="_top" xlink:title=" ">
<polygon fill="white" stroke="#666666" points="673,-184 543,-184 543,-165 673,-165 673,-184"/>
<text text-anchor="middle" x="608" y="-172" font-family="Helvetica,sans-Serif" font-size="10.00">include/Drivers/driver.h</text>
</a>
</g>
</g>
<!-- Node1&#45;&gt;Node2 -->
<g id="edge1_Node000001_Node000002" class="edge">
<title>Node1&#45;&gt;Node2</title>
<g id="a_edge1_Node000001_Node000002"><a xlink:title=" ">
<path fill="none" stroke="#63b8ff" d="M652.87,-514.8C680.97,-508.3 710.94,-497.83 735,-481 759.35,-463.97 764.15,-454.36 773,-426 795.53,-353.75 772.67,-282.21 715,-220 697.9,-201.56 671.99,-190.51 649.95,-184.04"/>
<polygon fill="#63b8ff" stroke="#63b8ff" points="652.05,-511.4 643.02,-516.94 653.53,-518.24 652.05,-511.4"/>
</a>
</g>
</g>
<!-- Node4 -->
<g id="Node000004" class="node">
<title>Node4</title>
<g id="a_Node000004"><a xlink:href="mlvp_8h.html" target="_top" xlink:title=" ">
<polygon fill="white" stroke="#666666" points="470.5,-74 381.5,-74 381.5,-55 470.5,-55 470.5,-74"/>
<text text-anchor="middle" x="426" y="-62" font-family="Helvetica,sans-Serif" font-size="10.00">include/mlvp.h</text>
</a>
</g>
</g>
<!-- Node1&#45;&gt;Node4 -->
<g id="edge35_Node000001_Node000004" class="edge">
<title>Node1&#45;&gt;Node4</title>
<g id="a_edge35_Node000001_Node000004"><a xlink:title=" ">
<path fill="none" stroke="#63b8ff" d="M473.22,-525.71C313.73,-523.61 0,-507.35 0,-412 0,-412 0,-412 0,-173.5 0,-95.49 271.84,-73.19 381.22,-67.38"/>
<polygon fill="#63b8ff" stroke="#63b8ff" points="473.45,-529.21 483.49,-525.83 473.53,-522.21 473.45,-529.21"/>
</a>
</g>
</g>
<!-- Node5 -->
<g id="Node000005" class="node">
<title>Node5</title>
<g id="a_Node000005"><a xlink:href="main_8cpp.html" target="_top" xlink:title=" ">
<polygon fill="white" stroke="#666666" points="887.5,-19 808.5,-19 808.5,0 887.5,0 887.5,-19"/>
<text text-anchor="middle" x="848" y="-7" font-family="Helvetica,sans-Serif" font-size="10.00">src/main.cpp</text>
</a>
</g>
</g>
<!-- Node1&#45;&gt;Node5 -->
<g id="edge37_Node000001_Node000005" class="edge">
<title>Node1&#45;&gt;Node5</title>
<g id="a_edge37_Node000001_Node000005"><a xlink:title=" ">
<path fill="none" stroke="#63b8ff" d="M633.52,-515.33C728.19,-499.49 886,-465.12 886,-412 886,-412 886,-412 886,-118.5 886,-79.54 863.73,-36.93 853.28,-19.1"/>
<polygon fill="#63b8ff" stroke="#63b8ff" points="632.73,-511.91 623.44,-516.99 633.87,-518.82 632.73,-511.91"/>
</a>
</g>
</g>
<!-- Node8 -->
<g id="Node000008" class="node">
<title>Node8</title>
<g id="a_Node000008"><a xlink:href="dutDriver_8h.html" target="_top" xlink:title=" ">
<polygon fill="white" stroke="#666666" points="647.5,-294 500.5,-294 500.5,-275 647.5,-275 647.5,-294"/>
<text text-anchor="middle" x="574" y="-282" font-family="Helvetica,sans-Serif" font-size="10.00">include/Drivers/dutDriver.h</text>
</a>
</g>
</g>
<!-- Node1&#45;&gt;Node8 -->
<g id="edge8_Node000001_Node000008" class="edge">
<title>Node1&#45;&gt;Node8</title>
<g id="a_edge8_Node000001_Node000008"><a xlink:title=" ">
<path fill="none" stroke="#63b8ff" d="M629.64,-514.52C677.46,-502.36 737.2,-477.21 757,-426 773.79,-382.56 751.94,-358.37 715,-330 690.67,-311.32 658.33,-300.38 630.76,-294.03"/>
<polygon fill="#63b8ff" stroke="#63b8ff" points="628.54,-511.18 619.63,-516.92 630.17,-517.99 628.54,-511.18"/>
</a>
</g>
</g>
<!-- Node9 -->
<g id="Node000009" class="node">
<title>Node9</title>
<g id="a_Node000009"><a xlink:href="refDriver_8h.html" target="_top" xlink:title=" ">
<polygon fill="white" stroke="#666666" points="416.5,-239 271.5,-239 271.5,-220 416.5,-220 416.5,-239"/>
<text text-anchor="middle" x="344" y="-227" font-family="Helvetica,sans-Serif" font-size="10.00">include/Drivers/refDriver.h</text>
</a>
</g>
</g>
<!-- Node1&#45;&gt;Node9 -->
<g id="edge16_Node000001_Node000009" class="edge">
<title>Node1&#45;&gt;Node9</title>
<g id="a_edge16_Node000001_Node000009"><a xlink:title=" ">
<path fill="none" stroke="#63b8ff" d="M513.17,-514.58C423.05,-491.97 239.46,-430.3 183,-294 166.18,-253.4 221.13,-238.47 271.33,-233.12"/>
<polygon fill="#63b8ff" stroke="#63b8ff" points="512.35,-517.98 522.9,-516.96 514.02,-511.18 512.35,-517.98"/>
</a>
</g>
</g>
<!-- Node12 -->
<g id="Node000012" class="node">
<title>Node12</title>
<g id="a_Node000012"><a xlink:href="simulatorDriver_8h.html" target="_top" xlink:title=" ">
<polygon fill="white" stroke="#666666" points="580,-426 440,-426 440,-396 580,-396 580,-426"/>
<text text-anchor="start" x="448" y="-414" font-family="Helvetica,sans-Serif" font-size="10.00">include/Drivers/simulator</text>
<text text-anchor="middle" x="510" y="-403" font-family="Helvetica,sans-Serif" font-size="10.00">Driver.h</text>
</a>
</g>
</g>
<!-- Node1&#45;&gt;Node12 -->
<g id="edge17_Node000001_Node000012" class="edge">
<title>Node1&#45;&gt;Node12</title>
<g id="a_edge17_Node000001_Node000012"><a xlink:title=" ">
<path fill="none" stroke="#63b8ff" d="M548.62,-509.22C541.78,-501.23 534.13,-491.16 529,-481 519.98,-463.14 514.79,-440.46 512.18,-426.08"/>
<polygon fill="#63b8ff" stroke="#63b8ff" points="546.04,-511.58 555.31,-516.7 551.25,-506.91 546.04,-511.58"/>
</a>
</g>
</g>
<!-- Node13 -->
<g id="Node000013" class="node">
<title>Node13</title>
<g id="a_Node000013"><a xlink:href="transDriverModel_8h.html" target="_top" xlink:title=" ">
<polygon fill="white" stroke="#666666" points="406,-360 258,-360 258,-330 406,-330 406,-360"/>
<text text-anchor="start" x="266" y="-348" font-family="Helvetica,sans-Serif" font-size="10.00">include/Drivers/transDriver</text>
<text text-anchor="middle" x="332" y="-337" font-family="Helvetica,sans-Serif" font-size="10.00">Model.h</text>
</a>
</g>
</g>
<!-- Node1&#45;&gt;Node13 -->
<g id="edge29_Node000001_Node000013" class="edge">
<title>Node1&#45;&gt;Node13</title>
<g id="a_edge29_Node000001_Node000013"><a xlink:title=" ">
<path fill="none" stroke="#63b8ff" d="M543.79,-510.74C517.57,-491.51 470.5,-456.72 431,-426 401.87,-403.35 368.61,-376.2 349.01,-360.07"/>
<polygon fill="#63b8ff" stroke="#63b8ff" points="542.01,-513.78 552.15,-516.86 546.15,-508.13 542.01,-513.78"/>
</a>
</g>
</g>
<!-- Node16 -->
<g id="Node000016" class="node">
<title>Node16</title>
<g id="a_Node000016"><a xlink:href="ref_8h.html" target="_top" xlink:title=" ">
<polygon fill="white" stroke="#666666" points="147.5,-420.5 28.5,-420.5 28.5,-401.5 147.5,-401.5 147.5,-420.5"/>
<text text-anchor="middle" x="88" y="-408.5" font-family="Helvetica,sans-Serif" font-size="10.00">include/RefPack/ref.h</text>
</a>
</g>
</g>
<!-- Node1&#45;&gt;Node16 -->
<g id="edge30_Node000001_Node000016" class="edge">
<title>Node1&#45;&gt;Node16</title>
<g id="a_edge30_Node000001_Node000016"><a xlink:title=" ">
<path fill="none" stroke="#63b8ff" d="M473.12,-522.06C371.94,-517.08 215.6,-505.6 162,-481 131.67,-467.08 105.6,-435.81 94.17,-420.62"/>
<polygon fill="#63b8ff" stroke="#63b8ff" points="473.19,-525.57 483.34,-522.55 473.52,-518.58 473.19,-525.57"/>
</a>
</g>
</g>
<!-- Node17 -->
<g id="Node000017" class="node">
<title>Node17</title>
<g id="a_Node000017"><a xlink:href="simulator_8h.html" target="_top" xlink:title=" ">
<polygon fill="white" stroke="#666666" points="698,-481 538,-481 538,-462 698,-462 698,-481"/>
<text text-anchor="middle" x="618" y="-469" font-family="Helvetica,sans-Serif" font-size="10.00">include/Simulator/simulator.h</text>
</a>
</g>
</g>
<!-- Node1&#45;&gt;Node17 -->
<g id="edge32_Node000001_Node000017" class="edge">
<title>Node1&#45;&gt;Node17</title>
<g id="a_edge32_Node000001_Node000017"><a xlink:title=" ">
<path fill="none" stroke="#63b8ff" d="M580.28,-509.52C589.8,-500.18 601.44,-488.75 609.25,-481.09"/>
<polygon fill="#63b8ff" stroke="#63b8ff" points="577.6,-507.25 572.92,-516.75 582.51,-512.24 577.6,-507.25"/>
</a>
</g>
</g>
<!-- Node19 -->
<g id="Node000019" class="node">
<title>Node19</title>
<g id="a_Node000019"><a xlink:href="driverModel_8cpp.html" target="_top" xlink:title=" ">
<polygon fill="white" stroke="#666666" points="1065.5,-481 914.5,-481 914.5,-462 1065.5,-462 1065.5,-481"/>
<text text-anchor="middle" x="990" y="-469" font-family="Helvetica,sans-Serif" font-size="10.00">src/Drivers/driverModel.cpp</text>
</a>
</g>
</g>
<!-- Node1&#45;&gt;Node19 -->
<g id="edge36_Node000001_Node000019" class="edge">
<title>Node1&#45;&gt;Node19</title>
<g id="a_edge36_Node000001_Node000019"><a xlink:title=" ">
<path fill="none" stroke="#63b8ff" d="M642.46,-515.74C722.41,-505.79 845.18,-490.52 921.37,-481.04"/>
<polygon fill="#63b8ff" stroke="#63b8ff" points="641.94,-512.28 632.44,-516.98 642.8,-519.22 641.94,-512.28"/>
</a>
</g>
</g>
<!-- Node3 -->
<g id="Node000003" class="node">
<title>Node3</title>
<g id="a_Node000003"><a xlink:href="spreader_8h.html" target="_top" xlink:title=" ">
<polygon fill="white" stroke="#666666" points="820,-129 668,-129 668,-110 820,-110 820,-129"/>
<text text-anchor="middle" x="744" y="-117" font-family="Helvetica,sans-Serif" font-size="10.00">include/Spreader/spreader.h</text>
</a>
</g>
</g>
<!-- Node2&#45;&gt;Node3 -->
<g id="edge2_Node000002_Node000003" class="edge">
<title>Node2&#45;&gt;Node3</title>
<g id="a_edge2_Node000002_Node000003"><a xlink:title=" ">
<path fill="none" stroke="#63b8ff" d="M639.33,-161.29C664.54,-151.47 699.33,-137.91 721.75,-129.17"/>
<polygon fill="#63b8ff" stroke="#63b8ff" points="637.9,-158.09 629.85,-164.98 640.44,-164.61 637.9,-158.09"/>
</a>
</g>
</g>
<!-- Node2&#45;&gt;Node4 -->
<g id="edge6_Node000002_Node000004" class="edge">
<title>Node2&#45;&gt;Node4</title>
<g id="a_edge6_Node000002_Node000004"><a xlink:title=" ">
<path fill="none" stroke="#63b8ff" d="M618.75,-155.65C625.54,-141.81 631.28,-122.88 621,-110 602.54,-86.86 522.17,-74.8 470.55,-69.33"/>
<polygon fill="#63b8ff" stroke="#63b8ff" points="615.55,-154.21 613.83,-164.66 621.69,-157.56 615.55,-154.21"/>
</a>
</g>
</g>
<!-- Node7 -->
<g id="Node000007" class="node">
<title>Node7</title>
<g id="a_Node000007"><a xlink:href="driver_8cpp.html" target="_top" xlink:title=" ">
<polygon fill="white" stroke="#666666" points="612,-129 492,-129 492,-110 612,-110 612,-129"/>
<text text-anchor="middle" x="552" y="-117" font-family="Helvetica,sans-Serif" font-size="10.00">src/Drivers/driver.cpp</text>
</a>
</g>
</g>
<!-- Node2&#45;&gt;Node7 -->
<g id="edge7_Node000002_Node000007" class="edge">
<title>Node2&#45;&gt;Node7</title>
<g id="a_edge7_Node000002_Node000007"><a xlink:title=" ">
<path fill="none" stroke="#63b8ff" d="M591.67,-158.04C581.74,-148.64 569.41,-136.98 561.16,-129.17"/>
<polygon fill="#63b8ff" stroke="#63b8ff" points="589.33,-160.65 599,-164.98 594.15,-155.57 589.33,-160.65"/>
</a>
</g>
</g>
<!-- Node3&#45;&gt;Node4 -->
<g id="edge3_Node000003_Node000004" class="edge">
<title>Node3&#45;&gt;Node4</title>
<g id="a_edge3_Node000003_Node000004"><a xlink:title=" ">
<path fill="none" stroke="#63b8ff" d="M682.84,-108.31C620.7,-97.95 525.92,-82.15 470.55,-72.92"/>
<polygon fill="#63b8ff" stroke="#63b8ff" points="682.47,-111.79 692.91,-109.98 683.62,-104.89 682.47,-111.79"/>
</a>
</g>
</g>
<!-- Node6 -->
<g id="Node000006" class="node">
<title>Node6</title>
<g id="a_Node000006"><a xlink:href="spreader_8cpp.html" target="_top" xlink:title=" ">
<polygon fill="white" stroke="#666666" points="815.5,-74 672.5,-74 672.5,-55 815.5,-55 815.5,-74"/>
<text text-anchor="middle" x="744" y="-62" font-family="Helvetica,sans-Serif" font-size="10.00">src/Spreader/spreader.cpp</text>
</a>
</g>
</g>
<!-- Node3&#45;&gt;Node6 -->
<g id="edge5_Node000003_Node000006" class="edge">
<title>Node3&#45;&gt;Node6</title>
<g id="a_edge5_Node000003_Node000006"><a xlink:title=" ">
<path fill="none" stroke="#63b8ff" d="M744,-99.66C744,-90.93 744,-80.99 744,-74.09"/>
<polygon fill="#63b8ff" stroke="#63b8ff" points="740.5,-99.75 744,-109.75 747.5,-99.75 740.5,-99.75"/>
</a>
</g>
</g>
<!-- Node4&#45;&gt;Node5 -->
<g id="edge4_Node000004_Node000005" class="edge">
<title>Node4&#45;&gt;Node5</title>
<g id="a_edge4_Node000004_Node000005"><a xlink:title=" ">
<path fill="none" stroke="#63b8ff" d="M480.88,-56.61C567.19,-45.77 732.6,-24.99 808.35,-15.48"/>
<polygon fill="#63b8ff" stroke="#63b8ff" points="480.25,-53.16 470.76,-57.88 481.12,-60.1 480.25,-53.16"/>
</a>
</g>
</g>
<!-- Node8&#45;&gt;Node2 -->
<g id="edge9_Node000008_Node000002" class="edge">
<title>Node8&#45;&gt;Node2</title>
<g id="a_edge9_Node000008_Node000002"><a xlink:title=" ">
<path fill="none" stroke="#63b8ff" d="M564.33,-265.69C558.6,-252.63 553.59,-234.69 560,-220 566.82,-204.38 582.13,-191.79 593.63,-184.04"/>
<polygon fill="#63b8ff" stroke="#63b8ff" points="561.33,-267.52 568.88,-274.96 567.62,-264.44 561.33,-267.52"/>
</a>
</g>
</g>
<!-- Node8&#45;&gt;Node4 -->
<g id="edge14_Node000008_Node000004" class="edge">
<title>Node8&#45;&gt;Node4</title>
<g id="a_edge14_Node000008_Node000004"><a xlink:title=" ">
<path fill="none" stroke="#63b8ff" d="M562.48,-266.53C532.74,-222.72 454.14,-106.94 431.92,-74.22"/>
<polygon fill="#63b8ff" stroke="#63b8ff" points="559.69,-268.65 568.2,-274.95 565.48,-264.71 559.69,-268.65"/>
</a>
</g>
</g>
<!-- Node8&#45;&gt;Node9 -->
<g id="edge10_Node000008_Node000009" class="edge">
<title>Node8&#45;&gt;Node9</title>
<g id="a_edge10_Node000008_Node000009"><a xlink:title=" ">
<path fill="none" stroke="#63b8ff" d="M527.09,-272.69C484,-262.76 420.97,-248.24 381.24,-239.08"/>
<polygon fill="#63b8ff" stroke="#63b8ff" points="526.52,-276.15 537.05,-274.98 528.09,-269.33 526.52,-276.15"/>
</a>
</g>
</g>
<!-- Node11 -->
<g id="Node000011" class="node">
<title>Node11</title>
<g id="a_Node000011"><a xlink:href="dutDriver_8cpp.html" target="_top" xlink:title=" ">
<polygon fill="white" stroke="#666666" points="705.5,-239 568.5,-239 568.5,-220 705.5,-220 705.5,-239"/>
<text text-anchor="middle" x="637" y="-227" font-family="Helvetica,sans-Serif" font-size="10.00">src/Drivers/dutDriver.cpp</text>
</a>
</g>
</g>
<!-- Node8&#45;&gt;Node11 -->
<g id="edge15_Node000008_Node000011" class="edge">
<title>Node8&#45;&gt;Node11</title>
<g id="a_edge15_Node000008_Node000011"><a xlink:title=" ">
<path fill="none" stroke="#63b8ff" d="M592.04,-268.32C603.27,-258.87 617.32,-247.06 626.69,-239.17"/>
<polygon fill="#63b8ff" stroke="#63b8ff" points="589.52,-265.87 584.12,-274.98 594.03,-271.23 589.52,-265.87"/>
</a>
</g>
</g>
<!-- Node9&#45;&gt;Node2 -->
<g id="edge11_Node000009_Node000002" class="edge">
<title>Node9&#45;&gt;Node2</title>
<g id="a_edge11_Node000009_Node000002"><a xlink:title=" ">
<path fill="none" stroke="#63b8ff" d="M396.29,-218C445.78,-208.07 519.17,-193.33 565.25,-184.08"/>
<polygon fill="#63b8ff" stroke="#63b8ff" points="395.53,-214.58 386.42,-219.98 396.91,-221.45 395.53,-214.58"/>
</a>
</g>
</g>
<!-- Node9&#45;&gt;Node4 -->
<g id="edge12_Node000009_Node000004" class="edge">
<title>Node9&#45;&gt;Node4</title>
<g id="a_edge12_Node000009_Node000004"><a xlink:title=" ">
<path fill="none" stroke="#63b8ff" d="M354.27,-210.83C358.89,-202.72 364.34,-192.94 369,-184 390.09,-143.5 413.02,-93.96 422.04,-74.22"/>
<polygon fill="#63b8ff" stroke="#63b8ff" points="351.1,-209.31 349.15,-219.73 357.17,-212.8 351.1,-209.31"/>
</a>
</g>
</g>
<!-- Node10 -->
<g id="Node000010" class="node">
<title>Node10</title>
<g id="a_Node000010"><a xlink:href="refDriver_8cpp.html" target="_top" xlink:title=" ">
<polygon fill="white" stroke="#666666" points="359.5,-184 224.5,-184 224.5,-165 359.5,-165 359.5,-184"/>
<text text-anchor="middle" x="292" y="-172" font-family="Helvetica,sans-Serif" font-size="10.00">src/Drivers/refDriver.cpp</text>
</a>
</g>
</g>
<!-- Node9&#45;&gt;Node10 -->
<g id="edge13_Node000009_Node000010" class="edge">
<title>Node9&#45;&gt;Node10</title>
<g id="a_edge13_Node000009_Node000010"><a xlink:title=" ">
<path fill="none" stroke="#63b8ff" d="M328.32,-212.52C319.16,-203.18 307.95,-191.75 300.43,-184.09"/>
<polygon fill="#63b8ff" stroke="#63b8ff" points="325.91,-215.06 335.41,-219.75 330.91,-210.16 325.91,-215.06"/>
</a>
</g>
</g>
<!-- Node12&#45;&gt;Node3 -->
<g id="edge25_Node000012_Node000003" class="edge">
<title>Node12&#45;&gt;Node3</title>
<g id="a_edge25_Node000012_Node000003"><a xlink:title=" ">
<path fill="none" stroke="#63b8ff" d="M590.08,-394.56C643.56,-383.56 705.75,-369.16 715,-360 739.29,-335.96 734,-319.67 734,-285.5 734,-285.5 734,-285.5 734,-228.5 734,-191.4 739.92,-147.45 742.65,-129.15"/>
<polygon fill="#63b8ff" stroke="#63b8ff" points="589.31,-391.15 580.21,-396.57 590.71,-398.01 589.31,-391.15"/>
</a>
</g>
</g>
<!-- Node12&#45;&gt;Node4 -->
<g id="edge26_Node000012_Node000004" class="edge">
<title>Node12&#45;&gt;Node4</title>
<g id="a_edge26_Node000012_Node000004"><a xlink:title=" ">
<path fill="none" stroke="#63b8ff" d="M504.05,-385.58C487.03,-315.81 438.75,-117.78 428.1,-74.1"/>
<polygon fill="#63b8ff" stroke="#63b8ff" points="500.73,-386.75 506.5,-395.64 507.53,-385.09 500.73,-386.75"/>
</a>
</g>
</g>
<!-- Node12&#45;&gt;Node5 -->
<g id="edge28_Node000012_Node000005" class="edge">
<title>Node12&#45;&gt;Node5</title>
<g id="a_edge28_Node000012_Node000005"><a xlink:title=" ">
<path fill="none" stroke="#63b8ff" d="M590.05,-395.57C650.41,-384.16 724.83,-368.74 737,-360 814.72,-304.16 848,-271.2 848,-175.5 848,-175.5 848,-175.5 848,-118.5 848,-81.56 848,-37.52 848,-19.18"/>
<polygon fill="#63b8ff" stroke="#63b8ff" points="589.29,-392.16 580.11,-397.44 590.59,-399.04 589.29,-392.16"/>
</a>
</g>
</g>
<!-- Node12&#45;&gt;Node8 -->
<g id="edge18_Node000012_Node000008" class="edge">
<title>Node12&#45;&gt;Node8</title>
<g id="a_edge18_Node000012_Node000008"><a xlink:title=" ">
<path fill="none" stroke="#63b8ff" d="M512.2,-385.85C514.54,-369.28 519.3,-347.25 529,-330 537.29,-315.25 551.89,-302.14 562.21,-294.04"/>
<polygon fill="#63b8ff" stroke="#63b8ff" points="508.72,-385.5 511,-395.85 515.67,-386.34 508.72,-385.5"/>
</a>
</g>
</g>
<!-- Node12&#45;&gt;Node9 -->
<g id="edge19_Node000012_Node000009" class="edge">
<title>Node12&#45;&gt;Node9</title>
<g id="a_edge19_Node000012_Node000009"><a xlink:title=" ">
<path fill="none" stroke="#63b8ff" d="M486.57,-388.84C477.37,-380.19 466.9,-369.89 458,-360 426.01,-324.44 424.31,-310.26 392,-275 379.87,-261.76 364.43,-247.91 354.38,-239.25"/>
<polygon fill="#63b8ff" stroke="#63b8ff" points="484.23,-391.45 493.94,-395.69 489,-386.32 484.23,-391.45"/>
</a>
</g>
</g>
<!-- Node12&#45;&gt;Node13 -->
<g id="edge20_Node000012_Node000013" class="edge">
<title>Node12&#45;&gt;Node13</title>
<g id="a_edge20_Node000012_Node000013"><a xlink:title=" ">
<path fill="none" stroke="#63b8ff" d="M461.21,-392.46C432.81,-382.25 397.5,-369.55 370.97,-360.01"/>
<polygon fill="#63b8ff" stroke="#63b8ff" points="460.34,-395.86 470.94,-395.95 462.71,-389.28 460.34,-395.86"/>
</a>
</g>
</g>
<!-- Node15 -->
<g id="Node000015" class="node">
<title>Node15</title>
<g id="a_Node000015"><a xlink:href="simulatorDriver_8cpp.html" target="_top" xlink:title=" ">
<polygon fill="white" stroke="#666666" points="706,-354.5 538,-354.5 538,-335.5 706,-335.5 706,-354.5"/>
<text text-anchor="middle" x="622" y="-342.5" font-family="Helvetica,sans-Serif" font-size="10.00">src/Drivers/simulatorDriver.cpp</text>
</a>
</g>
</g>
<!-- Node12&#45;&gt;Node15 -->
<g id="edge27_Node000012_Node000015" class="edge">
<title>Node12&#45;&gt;Node15</title>
<g id="a_edge27_Node000012_Node000015"><a xlink:title=" ">
<path fill="none" stroke="#63b8ff" d="M543.3,-390.97C564.48,-378.87 590.89,-363.78 607.09,-354.52"/>
<polygon fill="#63b8ff" stroke="#63b8ff" points="541.52,-387.95 534.58,-395.95 545,-394.03 541.52,-387.95"/>
</a>
</g>
</g>
<!-- Node13&#45;&gt;Node4 -->
<g id="edge23_Node000013_Node000004" class="edge">
<title>Node13&#45;&gt;Node4</title>
<g id="a_edge23_Node000013_Node000004"><a xlink:title=" ">
<path fill="none" stroke="#63b8ff" d="M248.12,-331.58C191.11,-317.83 126,-289.27 126,-230.5 126,-230.5 126,-230.5 126,-173.5 126,-119.87 297.84,-85.56 381.41,-72.04"/>
<polygon fill="#63b8ff" stroke="#63b8ff" points="247.39,-335 257.92,-333.82 248.95,-328.18 247.39,-335"/>
</a>
</g>
</g>
<!-- Node13&#45;&gt;Node8 -->
<g id="edge21_Node000013_Node000008" class="edge">
<title>Node13&#45;&gt;Node8</title>
<g id="a_edge21_Node000013_Node000008"><a xlink:title=" ">
<path fill="none" stroke="#63b8ff" d="M399.97,-327.57C445.04,-316.67 502.35,-302.82 538.62,-294.05"/>
<polygon fill="#63b8ff" stroke="#63b8ff" points="398.86,-324.24 389.97,-329.99 400.51,-331.04 398.86,-324.24"/>
</a>
</g>
</g>
<!-- Node13&#45;&gt;Node9 -->
<g id="edge22_Node000013_Node000009" class="edge">
<title>Node13&#45;&gt;Node9</title>
<g id="a_edge22_Node000013_Node000009"><a xlink:title=" ">
<path fill="none" stroke="#63b8ff" d="M357.77,-323.06C365.83,-314.93 373.73,-304.94 378,-294 386,-273.5 366.93,-251.17 354.23,-239.22"/>
<polygon fill="#63b8ff" stroke="#63b8ff" points="355.3,-320.57 350.41,-329.97 360.1,-325.67 355.3,-320.57"/>
</a>
</g>
</g>
<!-- Node14 -->
<g id="Node000014" class="node">
<title>Node14</title>
<g id="a_Node000014"><a xlink:href="transDriverModel_8cpp.html" target="_top" xlink:title=" ">
<polygon fill="white" stroke="#666666" points="368.5,-294 191.5,-294 191.5,-275 368.5,-275 368.5,-294"/>
<text text-anchor="middle" x="280" y="-282" font-family="Helvetica,sans-Serif" font-size="10.00">src/Drivers/transDriverModel.cpp</text>
</a>
</g>
</g>
<!-- Node13&#45;&gt;Node14 -->
<g id="edge24_Node000013_Node000014" class="edge">
<title>Node13&#45;&gt;Node14</title>
<g id="a_edge24_Node000013_Node000014"><a xlink:title=" ">
<path fill="none" stroke="#63b8ff" d="M312.52,-322.09C303.93,-312.42 294.32,-301.61 287.79,-294.27"/>
<polygon fill="#63b8ff" stroke="#63b8ff" points="310.15,-324.69 319.41,-329.84 315.38,-320.04 310.15,-324.69"/>
</a>
</g>
</g>
<!-- Node16&#45;&gt;Node4 -->
<g id="edge31_Node000016_Node000004" class="edge">
<title>Node16&#45;&gt;Node4</title>
<g id="a_edge31_Node000016_Node000004"><a xlink:title=" ">
<path fill="none" stroke="#63b8ff" d="M88,-391.24C88,-366.87 88,-323.01 88,-285.5 88,-285.5 88,-285.5 88,-173.5 88,-129.14 124.67,-128.46 165,-110 236.05,-77.48 327.83,-68.53 381.48,-66.18"/>
<polygon fill="#63b8ff" stroke="#63b8ff" points="84.5,-391.25 88,-401.25 91.5,-391.25 84.5,-391.25"/>
</a>
</g>
</g>
<!-- Node17&#45;&gt;Node12 -->
<g id="edge33_Node000017_Node000012" class="edge">
<title>Node17&#45;&gt;Node12</title>
<g id="a_edge33_Node000017_Node000012"><a xlink:title=" ">
<path fill="none" stroke="#63b8ff" d="M593.21,-457.07C576.11,-447.81 553.42,-435.52 536.06,-426.11"/>
<polygon fill="#63b8ff" stroke="#63b8ff" points="591.6,-460.18 602.06,-461.87 594.94,-454.03 591.6,-460.18"/>
</a>
</g>
</g>
<!-- Node18 -->
<g id="Node000018" class="node">
<title>Node18</title>
<g id="a_Node000018"><a xlink:href="simulator_8cpp.html" target="_top" xlink:title=" ">
<polygon fill="white" stroke="#666666" points="748,-420.5 598,-420.5 598,-401.5 748,-401.5 748,-420.5"/>
<text text-anchor="middle" x="673" y="-408.5" font-family="Helvetica,sans-Serif" font-size="10.00">src/Simulator/simulator.cpp</text>
</a>
</g>
</g>
<!-- Node17&#45;&gt;Node18 -->
<g id="edge34_Node000017_Node000018" class="edge">
<title>Node17&#45;&gt;Node18</title>
<g id="a_edge34_Node000017_Node000018"><a xlink:title=" ">
<path fill="none" stroke="#63b8ff" d="M633.26,-454.27C643.49,-443.39 656.55,-429.49 664.85,-420.67"/>
<polygon fill="#63b8ff" stroke="#63b8ff" points="630.42,-452.19 626.12,-461.87 635.52,-456.98 630.42,-452.19"/>
</a>
</g>
</g>
</g>
</svg>
