<?xml version="1.0" encoding="UTF-8" standalone="no"?>
<!DOCTYPE svg PUBLIC "-//W3C//DTD SVG 1.1//EN"
 "http://www.w3.org/Graphics/SVG/1.1/DTD/svg11.dtd">
<!-- Generated by graphviz version 2.43.0 (0)
 -->
<!-- Title: src/Drivers/driverModel.cpp Pages: 1 -->
<!--zoomable 357 -->

<svg id="main" version="1.1" xmlns="http://www.w3.org/2000/svg" xmlns:xlink="http://www.w3.org/1999/xlink" xml:space="preserve" onload="init(evt)">
<style type="text/css"><![CDATA[
.node, .edge {opacity: 0.7;}
.node.selected, .edge.selected {opacity: 1;}
.edge:hover path { stroke: red; }
.edge:hover polygon { stroke: red; fill: red; }
]]></style>

<defs>
  <circle id="rim" cx="0" cy="0" r="7"/>
  <circle id="rim2" cx="0" cy="0" r="3.5"/>
  <g id="zoomPlus">
    <use xlink:href="#rim" fill="#404040"><set attributeName="fill" to="#808080" begin="zoomplus.mouseover" end="zoomplus.mouseout"/></use>
    <path d="M-4,0h8M0,-4v8" fill="none" stroke="white" stroke-width="1.5" pointer-events="none"/>
  </g>
  <g id="zoomMin">
    <use xlink:href="#rim" fill="#404040"><set attributeName="fill" to="#808080" begin="zoomminus.mouseover" end="zoomminus.mouseout"/></use>
    <path d="M-4,0h8" fill="none" stroke="white" stroke-width="1.5" pointer-events="none"/>
  </g>
  <g id="arrowUp" transform="translate(30 24)">
    <use xlink:href="#rim"/>
    <path pointer-events="none" fill="none" stroke="white" stroke-width="1.5" d="M0,-3.0v7 M-2.5,-0.5L0,-3.0L2.5,-0.5"/>
  </g>
  <g id="arrowRight" transform="rotate(90) translate(36 -43)">
    <use xlink:href="#rim"/>
    <path pointer-events="none" fill="none" stroke="white" stroke-width="1.5" d="M0,-3.0v7 M-2.5,-0.5L0,-3.0L2.5,-0.5"/>
  </g>
  <g id="arrowDown" transform="rotate(180) translate(-30 -48)">
    <use xlink:href="#rim"/>
    <path pointer-events="none" fill="none" stroke="white" stroke-width="1.5" d="M0,-3.0v7 M-2.5,-0.5L0,-3.0L2.5,-0.5"/>
  </g>
  <g id="arrowLeft" transform="rotate(270) translate(-36 17)">
    <use xlink:href="#rim"/>
    <path pointer-events="none" fill="none" stroke="white" stroke-width="1.5" d="M0,-3.0v7 M-2.5,-0.5L0,-3.0L2.5,-0.5"/>
  </g>
  <g id="resetDef">
    <use xlink:href="#rim2" fill="#404040"><set attributeName="fill" to="#808080" begin="reset.mouseover" end="reset.mouseout"/></use>
  </g>
</defs>
<script type="application/ecmascript">
var viewWidth = 1020;
var viewHeight = 357;
var sectionId = 'dynsection-0';
</script>
<script type="application/ecmascript" xlink:href="svg.min.js"/>
<svg id="graph" class="graph">
<g id="viewport">
<title>src/Drivers/driverModel.cpp</title>
<!-- Node1 -->
<g id="Node000001" class="node">
<title>Node1</title>
<g id="a_Node000001"><a xlink:title=" ">
<polygon fill="#999999" stroke="#666666" points="663,-349 512,-349 512,-330 663,-330 663,-349"/>
<text text-anchor="middle" x="587.5" y="-337" font-family="Helvetica,sans-Serif" font-size="10.00">src/Drivers/driverModel.cpp</text>
</a>
</g>
</g>
<!-- Node2 -->
<g id="Node000002" class="node">
<title>Node2</title>
<g id="a_Node000002"><a xlink:href="driverModel_8h.html" target="_top" xlink:title=" ">
<polygon fill="white" stroke="#666666" points="648.5,-294 526.5,-294 526.5,-275 648.5,-275 648.5,-294"/>
<text text-anchor="middle" x="587.5" y="-282" font-family="Helvetica,sans-Serif" font-size="10.00">Drivers/driverModel.h</text>
</a>
</g>
</g>
<!-- Node1&#45;&gt;Node2 -->
<g id="edge1_Node000001_Node000002" class="edge">
<title>Node1&#45;&gt;Node2</title>
<g id="a_edge1_Node000001_Node000002"><a xlink:title=" ">
<path fill="none" stroke="#63b8ff" d="M587.5,-329.75C587.5,-322.8 587.5,-312.85 587.5,-304.13"/>
<polygon fill="#63b8ff" stroke="#63b8ff" points="591,-304.09 587.5,-294.09 584,-304.09 591,-304.09"/>
</a>
</g>
</g>
<!-- Node3 -->
<g id="Node000003" class="node">
<title>Node3</title>
<g id="a_Node000003"><a xlink:title=" ">
<polygon fill="#e0e0e0" stroke="#999999" points="894.5,-129 836.5,-129 836.5,-110 894.5,-110 894.5,-129"/>
<text text-anchor="middle" x="865.5" y="-117" font-family="Helvetica,sans-Serif" font-size="10.00">memory</text>
</a>
</g>
</g>
<!-- Node2&#45;&gt;Node3 -->
<g id="edge2_Node000002_Node000003" class="edge">
<title>Node2&#45;&gt;Node3</title>
<g id="a_edge2_Node000002_Node000003"><a xlink:title=" ">
<path fill="none" stroke="#63b8ff" d="M602.95,-274.86C633.42,-257.78 703.38,-218.35 761.5,-184 789.9,-167.22 822.28,-147.32 843.27,-134.33"/>
<polygon fill="#63b8ff" stroke="#63b8ff" points="845.13,-137.29 851.78,-129.05 841.44,-131.35 845.13,-137.29"/>
</a>
</g>
</g>
<!-- Node4 -->
<g id="Node000004" class="node">
<title>Node4</title>
<g id="a_Node000004"><a xlink:title=" ">
<polygon fill="#e0e0e0" stroke="#999999" points="968.5,-129 912.5,-129 912.5,-110 968.5,-110 968.5,-129"/>
<text text-anchor="middle" x="940.5" y="-117" font-family="Helvetica,sans-Serif" font-size="10.00">optional</text>
</a>
</g>
</g>
<!-- Node2&#45;&gt;Node4 -->
<g id="edge3_Node000002_Node000004" class="edge">
<title>Node2&#45;&gt;Node4</title>
<g id="a_edge3_Node000002_Node000004"><a xlink:title=" ">
<path fill="none" stroke="#63b8ff" d="M609.59,-274.85C631.53,-266.14 666.07,-252.17 695.5,-239 776.46,-202.78 870.43,-155.96 914.79,-133.56"/>
<polygon fill="#63b8ff" stroke="#63b8ff" points="916.39,-136.68 923.73,-129.04 913.23,-130.43 916.39,-136.68"/>
</a>
</g>
</g>
<!-- Node5 -->
<g id="Node000005" class="node">
<title>Node5</title>
<g id="a_Node000005"><a xlink:title=" ">
<polygon fill="#e0e0e0" stroke="#999999" points="297.5,-19 253.5,-19 253.5,0 297.5,0 297.5,-19"/>
<text text-anchor="middle" x="275.5" y="-7" font-family="Helvetica,sans-Serif" font-size="10.00">string</text>
</a>
</g>
</g>
<!-- Node2&#45;&gt;Node5 -->
<g id="edge4_Node000002_Node000005" class="edge">
<title>Node2&#45;&gt;Node5</title>
<g id="a_edge4_Node000002_Node000005"><a xlink:title=" ">
<path fill="none" stroke="#63b8ff" d="M526.33,-283.09C392.27,-280.53 84.5,-264.93 84.5,-175.5 84.5,-175.5 84.5,-175.5 84.5,-118.5 84.5,-46.54 188.5,-21.97 243.02,-14.04"/>
<polygon fill="#63b8ff" stroke="#63b8ff" points="243.77,-17.47 253.22,-12.66 242.84,-10.53 243.77,-17.47"/>
</a>
</g>
</g>
<!-- Node6 -->
<g id="Node000006" class="node">
<title>Node6</title>
<g id="a_Node000006"><a xlink:title=" ">
<polygon fill="#e0e0e0" stroke="#999999" points="93,-19 0,-19 0,0 93,0 93,-19"/>
<text text-anchor="middle" x="46.5" y="-7" font-family="Helvetica,sans-Serif" font-size="10.00">unordered_map</text>
</a>
</g>
</g>
<!-- Node2&#45;&gt;Node6 -->
<g id="edge5_Node000002_Node000006" class="edge">
<title>Node2&#45;&gt;Node6</title>
<g id="a_edge5_Node000002_Node000006"><a xlink:title=" ">
<path fill="none" stroke="#63b8ff" d="M526.12,-281.06C416.2,-276.13 190.24,-263.34 115.5,-239 62.92,-221.88 8.5,-230.8 8.5,-175.5 8.5,-175.5 8.5,-175.5 8.5,-118.5 8.5,-85.02 24.95,-48.84 36.2,-28.01"/>
<polygon fill="#63b8ff" stroke="#63b8ff" points="39.37,-29.53 41.22,-19.1 33.26,-26.1 39.37,-29.53"/>
</a>
</g>
</g>
<!-- Node7 -->
<g id="Node000007" class="node">
<title>Node7</title>
<g id="a_Node000007"><a xlink:title=" ">
<polygon fill="#e0e0e0" stroke="#999999" points="708,-74 663,-74 663,-55 708,-55 708,-74"/>
<text text-anchor="middle" x="685.5" y="-62" font-family="Helvetica,sans-Serif" font-size="10.00">utility</text>
</a>
</g>
</g>
<!-- Node2&#45;&gt;Node7 -->
<g id="edge6_Node000002_Node000007" class="edge">
<title>Node2&#45;&gt;Node7</title>
<g id="a_edge6_Node000002_Node000007"><a xlink:title=" ">
<path fill="none" stroke="#63b8ff" d="M648.64,-281.01C741.85,-273.49 916.76,-243.94 993.5,-129 998.19,-121.98 999.07,-116.35 993.5,-110 954.52,-65.61 793.59,-84.09 718.19,-73.59"/>
<polygon fill="#63b8ff" stroke="#63b8ff" points="718.58,-70.1 708.14,-71.9 717.43,-77.01 718.58,-70.1"/>
</a>
</g>
</g>
<!-- Node8 -->
<g id="Node000008" class="node">
<title>Node8</title>
<g id="a_Node000008"><a xlink:title=" ">
<polygon fill="#e0e0e0" stroke="#999999" points="791,-74 726,-74 726,-55 791,-55 791,-74"/>
<text text-anchor="middle" x="758.5" y="-62" font-family="Helvetica,sans-Serif" font-size="10.00">functional</text>
</a>
</g>
</g>
<!-- Node2&#45;&gt;Node8 -->
<g id="edge7_Node000002_Node000008" class="edge">
<title>Node2&#45;&gt;Node8</title>
<g id="a_edge7_Node000002_Node000008"><a xlink:title=" ">
<path fill="none" stroke="#63b8ff" d="M648.66,-281.11C708.57,-277.17 801.67,-266.71 877.5,-239 948.91,-212.9 984.56,-201.16 1008.5,-129 1011.16,-120.99 1013.92,-116.47 1008.5,-110 982.55,-79.03 865.6,-69.59 801.26,-66.73"/>
<polygon fill="#63b8ff" stroke="#63b8ff" points="801.16,-63.23 791.03,-66.32 800.88,-70.22 801.16,-63.23"/>
</a>
</g>
</g>
<!-- Node9 -->
<g id="Node000009" class="node">
<title>Node9</title>
<g id="a_Node000009"><a xlink:href="channel_8h.html" target="_top" xlink:title=" ">
<polygon fill="white" stroke="#666666" points="567,-239 460,-239 460,-220 567,-220 567,-239"/>
<text text-anchor="middle" x="513.5" y="-227" font-family="Helvetica,sans-Serif" font-size="10.00">Channel/channel.h</text>
</a>
</g>
</g>
<!-- Node2&#45;&gt;Node9 -->
<g id="edge8_Node000002_Node000009" class="edge">
<title>Node2&#45;&gt;Node9</title>
<g id="a_edge8_Node000002_Node000009"><a xlink:title=" ">
<path fill="none" stroke="#63b8ff" d="M575.61,-274.98C564.35,-266.92 547.21,-254.65 533.79,-245.03"/>
<polygon fill="#63b8ff" stroke="#63b8ff" points="535.77,-242.15 525.61,-239.17 531.7,-247.84 535.77,-242.15"/>
</a>
</g>
</g>
<!-- Node15 -->
<g id="Node000015" class="node">
<title>Node15</title>
<g id="a_Node000015"><a xlink:href="types_8h.html" target="_top" xlink:title=" ">
<polygon fill="white" stroke="#666666" points="356,-74 267,-74 267,-55 356,-55 356,-74"/>
<text text-anchor="middle" x="311.5" y="-62" font-family="Helvetica,sans-Serif" font-size="10.00">Library/types.h</text>
</a>
</g>
</g>
<!-- Node2&#45;&gt;Node15 -->
<g id="edge44_Node000002_Node000015" class="edge">
<title>Node2&#45;&gt;Node15</title>
<g id="a_edge44_Node000002_Node000015"><a xlink:title=" ">
<path fill="none" stroke="#63b8ff" d="M546.3,-274.9C496.39,-262.59 412.45,-235.49 359.5,-184 338.73,-163.8 335.36,-155.86 324.5,-129 318.63,-114.48 315.3,-96.97 313.48,-84.02"/>
<polygon fill="#63b8ff" stroke="#63b8ff" points="316.94,-83.5 312.25,-74 310,-84.35 316.94,-83.5"/>
</a>
</g>
</g>
<!-- Node16 -->
<g id="Node000016" class="node">
<title>Node16</title>
<g id="a_Node000016"><a xlink:href="transaction_8h_source.html" target="_top" xlink:title=" ">
<polygon fill="white" stroke="#666666" points="715,-184 576,-184 576,-165 715,-165 715,-184"/>
<text text-anchor="middle" x="645.5" y="-172" font-family="Helvetica,sans-Serif" font-size="10.00">Transaction/transaction.h</text>
</a>
</g>
</g>
<!-- Node2&#45;&gt;Node16 -->
<g id="edge43_Node000002_Node000016" class="edge">
<title>Node2&#45;&gt;Node16</title>
<g id="a_edge43_Node000002_Node000016"><a xlink:title=" ">
<path fill="none" stroke="#63b8ff" d="M592.25,-274.66C601.81,-256.85 623.55,-216.37 636.1,-193.01"/>
<polygon fill="#63b8ff" stroke="#63b8ff" points="639.2,-194.62 640.85,-184.16 633.04,-191.31 639.2,-194.62"/>
</a>
</g>
</g>
<!-- Node18 -->
<g id="Node000018" class="node">
<title>Node18</title>
<g id="a_Node000018"><a xlink:href="error_8h.html" target="_top" xlink:title=" ">
<polygon fill="white" stroke="#666666" points="236,-129 151,-129 151,-110 236,-110 236,-129"/>
<text text-anchor="middle" x="193.5" y="-117" font-family="Helvetica,sans-Serif" font-size="10.00">Library/error.h</text>
</a>
</g>
</g>
<!-- Node2&#45;&gt;Node18 -->
<g id="edge45_Node000002_Node000018" class="edge">
<title>Node2&#45;&gt;Node18</title>
<g id="a_edge45_Node000002_Node000018"><a xlink:title=" ">
<path fill="none" stroke="#63b8ff" d="M526.34,-282.27C441.41,-279.42 293.34,-270.03 250.5,-239 217.17,-214.86 202.52,-165.97 196.76,-139.15"/>
<polygon fill="#63b8ff" stroke="#63b8ff" points="200.16,-138.28 194.82,-129.14 193.29,-139.62 200.16,-138.28"/>
</a>
</g>
</g>
<!-- Node9&#45;&gt;Node3 -->
<g id="edge10_Node000009_Node000003" class="edge">
<title>Node9&#45;&gt;Node3</title>
<g id="a_edge10_Node000009_Node000003"><a xlink:title=" ">
<path fill="none" stroke="#63b8ff" d="M567.23,-220.46C610.38,-213.21 672.18,-201.08 724.5,-184 766.51,-170.29 812.78,-147.96 840.48,-133.76"/>
<polygon fill="#63b8ff" stroke="#63b8ff" points="842.19,-136.82 849.46,-129.11 838.97,-130.6 842.19,-136.82"/>
</a>
</g>
</g>
<!-- Node9&#45;&gt;Node5 -->
<g id="edge11_Node000009_Node000005" class="edge">
<title>Node9&#45;&gt;Node5</title>
<g id="a_edge11_Node000009_Node000005"><a xlink:title=" ">
<path fill="none" stroke="#63b8ff" d="M459.78,-222.12C366.35,-209.78 180.17,-179.38 141.5,-129 121.47,-102.91 122.25,-81.67 141.5,-55 164.57,-23.03 211.54,-13.67 243.27,-11.12"/>
<polygon fill="#63b8ff" stroke="#63b8ff" points="243.63,-14.61 253.39,-10.5 243.2,-7.62 243.63,-14.61"/>
</a>
</g>
</g>
<!-- Node9&#45;&gt;Node6 -->
<g id="edge13_Node000009_Node000006" class="edge">
<title>Node9&#45;&gt;Node6</title>
<g id="a_edge13_Node000009_Node000006"><a xlink:title=" ">
<path fill="none" stroke="#63b8ff" d="M459.71,-224.4C382.04,-217.89 242.7,-203.87 196.5,-184 124.28,-152.94 74.24,-66.59 55.12,-28.71"/>
<polygon fill="#63b8ff" stroke="#63b8ff" points="58.1,-26.83 50.56,-19.39 51.81,-29.91 58.1,-26.83"/>
</a>
</g>
</g>
<!-- Node9&#45;&gt;Node7 -->
<g id="edge15_Node000009_Node000007" class="edge">
<title>Node9&#45;&gt;Node7</title>
<g id="a_edge15_Node000009_Node000007"><a xlink:title=" ">
<path fill="none" stroke="#63b8ff" d="M567.29,-225.35C678.51,-217.58 927.57,-193.23 977.5,-129 982.68,-122.33 983.05,-116.37 977.5,-110 940.98,-68.08 789.83,-83.82 718.12,-73.59"/>
<polygon fill="#63b8ff" stroke="#63b8ff" points="718.59,-70.12 708.15,-71.88 717.41,-77.02 718.59,-70.12"/>
</a>
</g>
</g>
<!-- Node10 -->
<g id="Node000010" class="node">
<title>Node10</title>
<g id="a_Node000010"><a xlink:title=" ">
<polygon fill="#e0e0e0" stroke="#999999" points="455,-184 402,-184 402,-165 455,-165 455,-184"/>
<text text-anchor="middle" x="428.5" y="-172" font-family="Helvetica,sans-Serif" font-size="10.00">iterator</text>
</a>
</g>
</g>
<!-- Node9&#45;&gt;Node10 -->
<g id="edge9_Node000009_Node000010" class="edge">
<title>Node9&#45;&gt;Node10</title>
<g id="a_edge9_Node000009_Node000010"><a xlink:title=" ">
<path fill="none" stroke="#63b8ff" d="M499.84,-219.98C486.66,-211.77 466.47,-199.18 450.93,-189.49"/>
<polygon fill="#63b8ff" stroke="#63b8ff" points="452.74,-186.49 442.41,-184.17 449.04,-192.43 452.74,-186.49"/>
</a>
</g>
</g>
<!-- Node11 -->
<g id="Node000011" class="node">
<title>Node11</title>
<g id="a_Node000011"><a xlink:title=" ">
<polygon fill="#e0e0e0" stroke="#999999" points="550,-74 509,-74 509,-55 550,-55 550,-74"/>
<text text-anchor="middle" x="529.5" y="-62" font-family="Helvetica,sans-Serif" font-size="10.00">tuple</text>
</a>
</g>
</g>
<!-- Node9&#45;&gt;Node11 -->
<g id="edge12_Node000009_Node000011" class="edge">
<title>Node9&#45;&gt;Node11</title>
<g id="a_edge12_Node000009_Node000011"><a xlink:title=" ">
<path fill="none" stroke="#63b8ff" d="M517.36,-219.85C521.06,-211.04 526.39,-196.87 528.5,-184 529.87,-175.67 530.35,-173.24 528.5,-165 524.63,-147.73 515.37,-146.27 511.5,-129 509.65,-120.76 509.89,-118.29 511.5,-110 513.29,-100.8 516.98,-91.09 520.56,-83.1"/>
<polygon fill="#63b8ff" stroke="#63b8ff" points="523.73,-84.59 524.88,-74.06 517.41,-81.57 523.73,-84.59"/>
</a>
</g>
</g>
<!-- Node12 -->
<g id="Node000012" class="node">
<title>Node12</title>
<g id="a_Node000012"><a xlink:title=" ">
<polygon fill="#e0e0e0" stroke="#999999" points="473.5,-74 435.5,-74 435.5,-55 473.5,-55 473.5,-74"/>
<text text-anchor="middle" x="454.5" y="-62" font-family="Helvetica,sans-Serif" font-size="10.00">map</text>
</a>
</g>
</g>
<!-- Node9&#45;&gt;Node12 -->
<g id="edge14_Node000009_Node000012" class="edge">
<title>Node9&#45;&gt;Node12</title>
<g id="a_edge14_Node000009_Node000012"><a xlink:title=" ">
<path fill="none" stroke="#63b8ff" d="M459.85,-222.48C435.37,-216.75 408.54,-205.61 393.5,-184 369.53,-149.55 410.14,-104.43 435.86,-81.06"/>
<polygon fill="#63b8ff" stroke="#63b8ff" points="438.38,-83.5 443.58,-74.27 433.76,-78.24 438.38,-83.5"/>
</a>
</g>
</g>
<!-- Node13 -->
<g id="Node000013" class="node">
<title>Node13</title>
<g id="a_Node000013"><a xlink:title=" ">
<polygon fill="#e0e0e0" stroke="#999999" points="750,-19 703,-19 703,0 750,0 750,-19"/>
<text text-anchor="middle" x="726.5" y="-7" font-family="Helvetica,sans-Serif" font-size="10.00">vector</text>
</a>
</g>
</g>
<!-- Node9&#45;&gt;Node13 -->
<g id="edge16_Node000009_Node000013" class="edge">
<title>Node9&#45;&gt;Node13</title>
<g id="a_edge16_Node000009_Node000013"><a xlink:title=" ">
<path fill="none" stroke="#63b8ff" d="M567.07,-225.36C659.36,-219.46 844.31,-205.36 905.5,-184 949.05,-168.8 971.14,-169.34 993.5,-129 1043.84,-38.17 842.81,-16.83 760.34,-11.92"/>
<polygon fill="#63b8ff" stroke="#63b8ff" points="760.39,-8.42 750.21,-11.37 760,-15.41 760.39,-8.42"/>
</a>
</g>
</g>
<!-- Node14 -->
<g id="Node000014" class="node">
<title>Node14</title>
<g id="a_Node000014"><a xlink:title=" ">
<polygon fill="#e0e0e0" stroke="#999999" points="519.5,-184 473.5,-184 473.5,-165 519.5,-165 519.5,-184"/>
<text text-anchor="middle" x="496.5" y="-172" font-family="Helvetica,sans-Serif" font-size="10.00">future</text>
</a>
</g>
</g>
<!-- Node9&#45;&gt;Node14 -->
<g id="edge17_Node000009_Node000014" class="edge">
<title>Node9&#45;&gt;Node14</title>
<g id="a_edge17_Node000009_Node000014"><a xlink:title=" ">
<path fill="none" stroke="#63b8ff" d="M510.69,-219.75C508.44,-212.72 505.2,-202.62 502.38,-193.84"/>
<polygon fill="#63b8ff" stroke="#63b8ff" points="505.64,-192.54 499.25,-184.09 498.98,-194.68 505.64,-192.54"/>
</a>
</g>
</g>
<!-- Node9&#45;&gt;Node15 -->
<g id="edge18_Node000009_Node000015" class="edge">
<title>Node9&#45;&gt;Node15</title>
<g id="a_edge18_Node000009_Node000015"><a xlink:title=" ">
<path fill="none" stroke="#63b8ff" d="M468.73,-219.96C441.96,-213.3 408.26,-202.07 382.5,-184 346.95,-159.06 326.17,-110.13 317.05,-83.61"/>
<polygon fill="#63b8ff" stroke="#63b8ff" points="320.36,-82.47 313.94,-74.05 313.71,-84.64 320.36,-82.47"/>
</a>
</g>
</g>
<!-- Node9&#45;&gt;Node16 -->
<g id="edge22_Node000009_Node000016" class="edge">
<title>Node9&#45;&gt;Node16</title>
<g id="a_edge22_Node000009_Node000016"><a xlink:title=" ">
<path fill="none" stroke="#63b8ff" d="M534.71,-219.98C556.23,-211.34 589.78,-197.87 614.33,-188.02"/>
<polygon fill="#63b8ff" stroke="#63b8ff" points="615.93,-191.14 623.91,-184.17 613.32,-184.65 615.93,-191.14"/>
</a>
</g>
</g>
<!-- Node15&#45;&gt;Node5 -->
<g id="edge21_Node000015_Node000005" class="edge">
<title>Node15&#45;&gt;Node5</title>
<g id="a_edge21_Node000015_Node000005"><a xlink:title=" ">
<path fill="none" stroke="#63b8ff" d="M305.56,-54.75C300.52,-47.34 293.16,-36.5 286.99,-27.41"/>
<polygon fill="#63b8ff" stroke="#63b8ff" points="289.85,-25.39 281.33,-19.09 284.06,-29.33 289.85,-25.39"/>
</a>
</g>
</g>
<!-- Node15&#45;&gt;Node6 -->
<g id="edge20_Node000015_Node000006" class="edge">
<title>Node15&#45;&gt;Node6</title>
<g id="a_edge20_Node000015_Node000006"><a xlink:title=" ">
<path fill="none" stroke="#63b8ff" d="M268.92,-54.98C222.8,-45.76 149.14,-31.03 99.34,-21.07"/>
<polygon fill="#63b8ff" stroke="#63b8ff" points="99.9,-17.61 89.41,-19.08 98.53,-24.48 99.9,-17.61"/>
</a>
</g>
</g>
<!-- Node15&#45;&gt;Node13 -->
<g id="edge19_Node000015_Node000013" class="edge">
<title>Node15&#45;&gt;Node13</title>
<g id="a_edge19_Node000015_Node000013"><a xlink:title=" ">
<path fill="none" stroke="#63b8ff" d="M356.31,-57.78C440.01,-47.09 618.36,-24.31 692.78,-14.81"/>
<polygon fill="#63b8ff" stroke="#63b8ff" points="693.51,-18.24 702.99,-13.5 692.62,-11.3 693.51,-18.24"/>
</a>
</g>
</g>
<!-- Node16&#45;&gt;Node3 -->
<g id="edge26_Node000016_Node000003" class="edge">
<title>Node16&#45;&gt;Node3</title>
<g id="a_edge26_Node000016_Node000003"><a xlink:title=" ">
<path fill="none" stroke="#63b8ff" d="M680.85,-164.98C720.6,-155.41 784.97,-139.9 826.26,-129.95"/>
<polygon fill="#63b8ff" stroke="#63b8ff" points="827.32,-133.3 836.22,-127.55 825.68,-126.49 827.32,-133.3"/>
</a>
</g>
</g>
<!-- Node16&#45;&gt;Node4 -->
<g id="edge29_Node000016_Node000004" class="edge">
<title>Node16&#45;&gt;Node4</title>
<g id="a_edge29_Node000016_Node000004"><a xlink:title=" ">
<path fill="none" stroke="#63b8ff" d="M700.02,-164.99C750.1,-156.97 826.61,-144.21 902.09,-129.19"/>
<polygon fill="#63b8ff" stroke="#63b8ff" points="903.14,-132.56 912.25,-127.16 901.76,-125.69 903.14,-132.56"/>
</a>
</g>
</g>
<!-- Node16&#45;&gt;Node5 -->
<g id="edge23_Node000016_Node000005" class="edge">
<title>Node16&#45;&gt;Node5</title>
<g id="a_edge23_Node000016_Node000005"><a xlink:title=" ">
<path fill="none" stroke="#63b8ff" d="M602.63,-164.98C569.76,-157.65 523.71,-145.61 485.5,-129 427.69,-103.87 419.63,-85.57 364.5,-55 344.23,-43.76 320.76,-32.08 303.02,-23.51"/>
<polygon fill="#63b8ff" stroke="#63b8ff" points="304.33,-20.26 293.8,-19.09 301.31,-26.57 304.33,-20.26"/>
</a>
</g>
</g>
<!-- Node16&#45;&gt;Node7 -->
<g id="edge24_Node000016_Node000007" class="edge">
<title>Node16&#45;&gt;Node7</title>
<g id="a_edge24_Node000016_Node000007"><a xlink:title=" ">
<path fill="none" stroke="#63b8ff" d="M669.28,-164.92C684.93,-157.89 704.17,-146.25 713.5,-129 721.87,-113.52 711.58,-95.04 701.2,-82.02"/>
<polygon fill="#63b8ff" stroke="#63b8ff" points="703.74,-79.61 694.55,-74.34 698.45,-84.19 703.74,-79.61"/>
</a>
</g>
</g>
<!-- Node16&#45;&gt;Node8 -->
<g id="edge30_Node000016_Node000008" class="edge">
<title>Node16&#45;&gt;Node8</title>
<g id="a_edge30_Node000016_Node000008"><a xlink:title=" ">
<path fill="none" stroke="#63b8ff" d="M670.7,-164.9C688.72,-157.68 712.51,-145.83 728.5,-129 740.56,-116.31 748.53,-97.87 753.21,-84.13"/>
<polygon fill="#63b8ff" stroke="#63b8ff" points="756.63,-84.91 756.26,-74.32 749.95,-82.83 756.63,-84.91"/>
</a>
</g>
</g>
<!-- Node16&#45;&gt;Node12 -->
<g id="edge28_Node000016_Node000012" class="edge">
<title>Node16&#45;&gt;Node12</title>
<g id="a_edge28_Node000016_Node000012"><a xlink:title=" ">
<path fill="none" stroke="#63b8ff" d="M601.31,-164.93C573.87,-158.18 538.77,-146.87 511.5,-129 492.8,-116.75 476.33,-96.87 465.97,-82.62"/>
<polygon fill="#63b8ff" stroke="#63b8ff" points="468.68,-80.38 460.08,-74.2 462.95,-84.4 468.68,-80.38"/>
</a>
</g>
</g>
<!-- Node16&#45;&gt;Node13 -->
<g id="edge25_Node000016_Node000013" class="edge">
<title>Node16&#45;&gt;Node13</title>
<g id="a_edge25_Node000016_Node000013"><a xlink:title=" ">
<path fill="none" stroke="#63b8ff" d="M678.05,-164.9C717.19,-152.45 780.17,-125.1 800.5,-74 803.62,-66.15 804.66,-62.35 800.5,-55 791.64,-39.33 774.81,-28.57 759.44,-21.56"/>
<polygon fill="#63b8ff" stroke="#63b8ff" points="760.71,-18.3 750.14,-17.67 758.01,-24.76 760.71,-18.3"/>
</a>
</g>
</g>
<!-- Node16&#45;&gt;Node15 -->
<g id="edge31_Node000016_Node000015" class="edge">
<title>Node16&#45;&gt;Node15</title>
<g id="a_edge31_Node000016_Node000015"><a xlink:title=" ">
<path fill="none" stroke="#63b8ff" d="M575.71,-168.07C504.5,-161.55 399.62,-148.93 364.5,-129 345.44,-118.19 330.28,-97.71 321.13,-82.92"/>
<polygon fill="#63b8ff" stroke="#63b8ff" points="324.09,-81.05 316.01,-74.19 318.05,-84.59 324.09,-81.05"/>
</a>
</g>
</g>
<!-- Node17 -->
<g id="Node000017" class="node">
<title>Node17</title>
<g id="a_Node000017"><a xlink:title=" ">
<polygon fill="#e0e0e0" stroke="#999999" points="568.5,-129 520.5,-129 520.5,-110 568.5,-110 568.5,-129"/>
<text text-anchor="middle" x="544.5" y="-117" font-family="Helvetica,sans-Serif" font-size="10.00">mutex</text>
</a>
</g>
</g>
<!-- Node16&#45;&gt;Node17 -->
<g id="edge27_Node000016_Node000017" class="edge">
<title>Node16&#45;&gt;Node17</title>
<g id="a_edge27_Node000016_Node000017"><a xlink:title=" ">
<path fill="none" stroke="#63b8ff" d="M629.27,-164.98C613.32,-156.61 588.72,-143.7 570.12,-133.95"/>
<polygon fill="#63b8ff" stroke="#63b8ff" points="571.5,-130.72 561.02,-129.17 568.25,-136.92 571.5,-130.72"/>
</a>
</g>
</g>
<!-- Node16&#45;&gt;Node18 -->
<g id="edge32_Node000016_Node000018" class="edge">
<title>Node16&#45;&gt;Node18</title>
<g id="a_edge32_Node000016_Node000018"><a xlink:title=" ">
<path fill="none" stroke="#63b8ff" d="M575.87,-165.33C484.91,-154.67 327.68,-136.23 246.07,-126.66"/>
<polygon fill="#63b8ff" stroke="#63b8ff" points="246.36,-123.17 236.02,-125.49 245.55,-130.13 246.36,-123.17"/>
</a>
</g>
</g>
<!-- Node20 -->
<g id="Node000020" class="node">
<title>Node20</title>
<g id="a_Node000020"><a xlink:href="evaluate_8h.html" target="_top" xlink:title=" ">
<polygon fill="white" stroke="#666666" points="704.5,-129 586.5,-129 586.5,-110 704.5,-110 704.5,-129"/>
<text text-anchor="middle" x="645.5" y="-117" font-family="Helvetica,sans-Serif" font-size="10.00">Evaluator/evaluate.h</text>
</a>
</g>
</g>
<!-- Node16&#45;&gt;Node20 -->
<g id="edge35_Node000016_Node000020" class="edge">
<title>Node16&#45;&gt;Node20</title>
<g id="a_edge35_Node000016_Node000020"><a xlink:title=" ">
<path fill="none" stroke="#63b8ff" d="M645.5,-164.75C645.5,-157.8 645.5,-147.85 645.5,-139.13"/>
<polygon fill="#63b8ff" stroke="#63b8ff" points="649,-139.09 645.5,-129.09 642,-139.09 649,-139.09"/>
</a>
</g>
</g>
<!-- Node18&#45;&gt;Node5 -->
<g id="edge33_Node000018_Node000005" class="edge">
<title>Node18&#45;&gt;Node5</title>
<g id="a_edge33_Node000018_Node000005"><a xlink:title=" ">
<path fill="none" stroke="#63b8ff" d="M200.21,-109.66C213.85,-91.69 245.02,-50.64 262.68,-27.38"/>
<polygon fill="#63b8ff" stroke="#63b8ff" points="265.67,-29.24 268.93,-19.16 260.09,-25.01 265.67,-29.24"/>
</a>
</g>
</g>
<!-- Node19 -->
<g id="Node000019" class="node">
<title>Node19</title>
<g id="a_Node000019"><a xlink:title=" ">
<polygon fill="#e0e0e0" stroke="#999999" points="210.5,-74 150.5,-74 150.5,-55 210.5,-55 210.5,-74"/>
<text text-anchor="middle" x="180.5" y="-62" font-family="Helvetica,sans-Serif" font-size="10.00">iostream</text>
</a>
</g>
</g>
<!-- Node18&#45;&gt;Node19 -->
<g id="edge34_Node000018_Node000019" class="edge">
<title>Node18&#45;&gt;Node19</title>
<g id="a_edge34_Node000018_Node000019"><a xlink:title=" ">
<path fill="none" stroke="#63b8ff" d="M191.35,-109.75C189.63,-102.72 187.15,-92.62 185,-83.84"/>
<polygon fill="#63b8ff" stroke="#63b8ff" points="188.39,-82.97 182.61,-74.09 181.59,-84.63 188.39,-82.97"/>
</a>
</g>
</g>
<!-- Node20&#45;&gt;Node5 -->
<g id="edge38_Node000020_Node000005" class="edge">
<title>Node20&#45;&gt;Node5</title>
<g id="a_edge38_Node000020_Node000005"><a xlink:title=" ">
<path fill="none" stroke="#63b8ff" d="M636.87,-109.84C622.32,-95.8 591.35,-68.31 559.5,-55 473.59,-19.11 362.06,-11.9 307.89,-10.62"/>
<polygon fill="#63b8ff" stroke="#63b8ff" points="307.9,-7.12 297.84,-10.44 307.77,-14.12 307.9,-7.12"/>
</a>
</g>
</g>
<!-- Node20&#45;&gt;Node7 -->
<g id="edge36_Node000020_Node000007" class="edge">
<title>Node20&#45;&gt;Node7</title>
<g id="a_edge36_Node000020_Node000007"><a xlink:title=" ">
<path fill="none" stroke="#63b8ff" d="M652.11,-109.75C657.76,-102.26 666.04,-91.28 672.95,-82.13"/>
<polygon fill="#63b8ff" stroke="#63b8ff" points="675.79,-84.18 679.02,-74.09 670.2,-79.96 675.79,-84.18"/>
</a>
</g>
</g>
<!-- Node20&#45;&gt;Node8 -->
<g id="edge39_Node000020_Node000008" class="edge">
<title>Node20&#45;&gt;Node8</title>
<g id="a_edge39_Node000020_Node000008"><a xlink:title=" ">
<path fill="none" stroke="#63b8ff" d="M663.66,-109.98C681.75,-101.5 709.78,-88.35 730.69,-78.54"/>
<polygon fill="#63b8ff" stroke="#63b8ff" points="732.45,-81.59 740.01,-74.17 729.47,-75.25 732.45,-81.59"/>
</a>
</g>
</g>
<!-- Node20&#45;&gt;Node11 -->
<g id="edge40_Node000020_Node000011" class="edge">
<title>Node20&#45;&gt;Node11</title>
<g id="a_edge40_Node000020_Node000011"><a xlink:title=" ">
<path fill="none" stroke="#63b8ff" d="M626.86,-109.98C608.2,-101.46 579.25,-88.23 557.76,-78.41"/>
<polygon fill="#63b8ff" stroke="#63b8ff" points="559.03,-75.14 548.48,-74.17 556.12,-81.51 559.03,-75.14"/>
</a>
</g>
</g>
<!-- Node20&#45;&gt;Node12 -->
<g id="edge41_Node000020_Node000012" class="edge">
<title>Node20&#45;&gt;Node12</title>
<g id="a_edge41_Node000020_Node000012"><a xlink:title=" ">
<path fill="none" stroke="#63b8ff" d="M614.81,-109.98C578.53,-99.92 518.63,-83.29 483.22,-73.47"/>
<polygon fill="#63b8ff" stroke="#63b8ff" points="484.08,-70.07 473.5,-70.77 482.2,-76.82 484.08,-70.07"/>
</a>
</g>
</g>
<!-- Node20&#45;&gt;Node13 -->
<g id="edge37_Node000020_Node000013" class="edge">
<title>Node20&#45;&gt;Node13</title>
<g id="a_edge37_Node000020_Node000013"><a xlink:title=" ">
<path fill="none" stroke="#63b8ff" d="M644.54,-109.9C643.54,-96.9 643.41,-71.96 654.5,-55 663.8,-40.77 679.39,-30.32 693.7,-23.13"/>
<polygon fill="#63b8ff" stroke="#63b8ff" points="695.24,-26.27 702.83,-18.87 692.29,-19.93 695.24,-26.27"/>
</a>
</g>
</g>
<!-- Node20&#45;&gt;Node15 -->
<g id="edge42_Node000020_Node000015" class="edge">
<title>Node20&#45;&gt;Node15</title>
<g id="a_edge42_Node000020_Node000015"><a xlink:title=" ">
<path fill="none" stroke="#63b8ff" d="M591.84,-109.98C529.91,-100.16 428.63,-84.09 366.25,-74.19"/>
<polygon fill="#63b8ff" stroke="#63b8ff" points="366.63,-70.7 356.2,-72.59 365.53,-77.62 366.63,-70.7"/>
</a>
</g>
</g>
</g>
</svg>

<g id="navigator" transform="translate(0 0)" fill="#404254">
  <rect fill="#f2f5e9" fill-opacity="0.5" stroke="#606060" stroke-width=".5" x="0" y="0" width="60" height="60"/>
  <use id="zoomplus" xlink:href="#zoomPlus" x="17" y="9" onmousedown="handleZoom(evt,'in')"/>
  <use id="zoomminus" xlink:href="#zoomMin" x="42" y="9" onmousedown="handleZoom(evt,'out')"/>
  <use id="reset" xlink:href="#resetDef" x="30" y="36" onmousedown="handleReset()"/>
   <use id="arrowup" xlink:href="#arrowUp" x="0" y="0" onmousedown="handlePan(0,-1)"/>
  <use id="arrowright" xlink:href="#arrowRight" x="0" y="0" onmousedown="handlePan(1,0)"/>
  <use id="arrowdown" xlink:href="#arrowDown" x="0" y="0" onmousedown="handlePan(0,1)"/>
  <use id="arrowleft" xlink:href="#arrowLeft" x="0" y="0" onmousedown="handlePan(-1,0)"/>
</g>
<svg viewBox="0 0 15 15" width="100%" height="30px" preserveAspectRatio="xMaxYMin meet">
 <g id="arrow_out" transform="scale(0.3 0.3)">
  <a xlink:href="driverModel_8cpp__incl_org.svg" target="_base">
   <rect id="button" ry="5" rx="5" y="6" x="6" height="38" width="38"
        fill="#f2f5e9" fill-opacity="0.5" stroke="#606060" stroke-width="1.0"/>
   <path id="arrow"
     d="M 11.500037,31.436501 C 11.940474,20.09759 22.043105,11.32322 32.158766,21.979434 L 37.068811,17.246167 C 37.068811,17.246167 37.088388,32 37.088388,32 L 22.160133,31.978069 C 22.160133,31.978069 26.997745,27.140456 26.997745,27.140456 C 18.528582,18.264221 13.291696,25.230495 11.500037,31.436501 z"
     style="fill:#404040;"/>
  </a>
 </g>
</svg>

<style type='text/css'>
<![CDATA[
[data-mouse-over-selected='false'] { opacity: 0.7; }
[data-mouse-over-selected='true']  { opacity: 1.0; }
]]>
</style>
<script type="application/ecmascript"><![CDATA[
document.addEventListener('DOMContentLoaded', (event) => {
  highlightEdges();
  highlightAdjacentNodes();
});
]]></script>
</svg>
