<?xml version="1.0" encoding="UTF-8" standalone="no"?>
<!DOCTYPE svg PUBLIC "-//W3C//DTD SVG 1.1//EN"
 "http://www.w3.org/Graphics/SVG/1.1/DTD/svg11.dtd">
<!-- Generated by graphviz version 2.43.0 (0)
 -->
<!-- Title: include/Drivers/driverModel.h Pages: 1 -->
<svg width="1072pt" height="489pt"
 viewBox="0.00 0.00 1071.50 489.00" xmlns="http://www.w3.org/2000/svg" xmlns:xlink="http://www.w3.org/1999/xlink">
<g id="graph0" class="graph" transform="scale(1 1) rotate(0) translate(4 485)">
<title>include/Drivers/driverModel.h</title>
<!-- Node1 -->
<g id="Node000001" class="node">
<title>Node1</title>
<g id="a_Node000001"><a xlink:title=" ">
<polygon fill="#999999" stroke="#666666" points="750.5,-481 589.5,-481 589.5,-462 750.5,-462 750.5,-481"/>
<text text-anchor="middle" x="670" y="-469" font-family="Helvetica,sans-Serif" font-size="10.00">include/Drivers/driverModel.h</text>
</a>
</g>
</g>
<!-- Node2 -->
<g id="Node000002" class="node">
<title>Node2</title>
<g id="a_Node000002"><a xlink:href="driver_8h.html" target="_top" xlink:title=" ">
<polygon fill="white" stroke="#666666" points="444,-184 314,-184 314,-165 444,-165 444,-184"/>
<text text-anchor="middle" x="379" y="-172" font-family="Helvetica,sans-Serif" font-size="10.00">include/Drivers/driver.h</text>
</a>
</g>
</g>
<!-- Node1&#45;&gt;Node2 -->
<g id="edge1_Node000001_Node000002" class="edge">
<title>Node1&#45;&gt;Node2</title>
<g id="a_edge1_Node000001_Node000002"><a xlink:title=" ">
<path fill="none" stroke="#63b8ff" d="M665.55,-451.81C653.42,-405.08 615.26,-282.45 536,-220 509.85,-199.4 474.63,-188.33 444.18,-182.39"/>
<polygon fill="#63b8ff" stroke="#63b8ff" points="662.15,-452.66 667.97,-461.52 668.95,-450.97 662.15,-452.66"/>
</a>
</g>
</g>
<!-- Node4 -->
<g id="Node000004" class="node">
<title>Node4</title>
<g id="a_Node000004"><a xlink:href="mlvp_8h.html" target="_top" xlink:title=" ">
<polygon fill="white" stroke="#666666" points="510.5,-74 421.5,-74 421.5,-55 510.5,-55 510.5,-74"/>
<text text-anchor="middle" x="466" y="-62" font-family="Helvetica,sans-Serif" font-size="10.00">include/mlvp.h</text>
</a>
</g>
</g>
<!-- Node1&#45;&gt;Node4 -->
<g id="edge34_Node000001_Node000004" class="edge">
<title>Node1&#45;&gt;Node4</title>
<g id="a_edge34_Node000001_Node000004"><a xlink:title=" ">
<path fill="none" stroke="#63b8ff" d="M679.16,-452.55C690.4,-428.82 708,-385.37 708,-346 708,-346 708,-346 708,-173.5 708,-144.04 710.78,-129.83 689,-110 682.4,-103.99 573.65,-84.23 510.51,-73.17"/>
<polygon fill="#63b8ff" stroke="#63b8ff" points="675.92,-451.2 674.66,-461.72 682.21,-454.29 675.92,-451.2"/>
</a>
</g>
</g>
<!-- Node5 -->
<g id="Node000005" class="node">
<title>Node5</title>
<g id="a_Node000005"><a xlink:href="main_8cpp.html" target="_top" xlink:title=" ">
<polygon fill="white" stroke="#666666" points="505.5,-19 426.5,-19 426.5,0 505.5,0 505.5,-19"/>
<text text-anchor="middle" x="466" y="-7" font-family="Helvetica,sans-Serif" font-size="10.00">src/main.cpp</text>
</a>
</g>
</g>
<!-- Node1&#45;&gt;Node5 -->
<g id="edge36_Node000001_Node000005" class="edge">
<title>Node1&#45;&gt;Node5</title>
<g id="a_edge36_Node000001_Node000005"><a xlink:title=" ">
<path fill="none" stroke="#63b8ff" d="M738.9,-459.86C801.45,-445.82 884,-414.34 884,-346 884,-346 884,-346 884,-118.5 884,-40.83 610.04,-18.14 505.7,-12.31"/>
<polygon fill="#63b8ff" stroke="#63b8ff" points="738.09,-456.45 729.04,-461.96 739.55,-463.29 738.09,-456.45"/>
</a>
</g>
</g>
<!-- Node8 -->
<g id="Node000008" class="node">
<title>Node8</title>
<g id="a_Node000008"><a xlink:href="dutDriver_8h.html" target="_top" xlink:title=" ">
<polygon fill="white" stroke="#666666" points="483.5,-294 336.5,-294 336.5,-275 483.5,-275 483.5,-294"/>
<text text-anchor="middle" x="410" y="-282" font-family="Helvetica,sans-Serif" font-size="10.00">include/Drivers/dutDriver.h</text>
</a>
</g>
</g>
<!-- Node1&#45;&gt;Node8 -->
<g id="edge9_Node000001_Node000008" class="edge">
<title>Node1&#45;&gt;Node8</title>
<g id="a_edge9_Node000001_Node000008"><a xlink:title=" ">
<path fill="none" stroke="#63b8ff" d="M579.01,-468.47C502.14,-461.17 397.39,-436.67 351,-360 344.1,-348.59 345.05,-341.93 351,-330 359.24,-313.46 376.88,-301.45 390.73,-294.1"/>
<polygon fill="#63b8ff" stroke="#63b8ff" points="578.92,-471.98 589.18,-469.36 579.52,-465.01 578.92,-471.98"/>
</a>
</g>
</g>
<!-- Node9 -->
<g id="Node000009" class="node">
<title>Node9</title>
<g id="a_Node000009"><a xlink:href="refDriver_8h.html" target="_top" xlink:title=" ">
<polygon fill="white" stroke="#666666" points="240.5,-239 95.5,-239 95.5,-220 240.5,-220 240.5,-239"/>
<text text-anchor="middle" x="168" y="-227" font-family="Helvetica,sans-Serif" font-size="10.00">include/Drivers/refDriver.h</text>
</a>
</g>
</g>
<!-- Node1&#45;&gt;Node9 -->
<g id="edge18_Node000001_Node000009" class="edge">
<title>Node1&#45;&gt;Node9</title>
<g id="a_edge18_Node000001_Node000009"><a xlink:title=" ">
<path fill="none" stroke="#63b8ff" d="M579.13,-468.91C494.22,-465.52 364.62,-455.42 256,-426 186.88,-407.27 157.04,-413.11 109,-360 82.82,-331.06 67.13,-308.59 87,-275 97.7,-256.91 118.66,-245.68 136.58,-239.03"/>
<polygon fill="#63b8ff" stroke="#63b8ff" points="579.13,-472.41 589.26,-469.29 579.4,-465.42 579.13,-472.41"/>
</a>
</g>
</g>
<!-- Node12 -->
<g id="Node000012" class="node">
<title>Node12</title>
<g id="a_Node000012"><a xlink:href="simulatorDriver_8h.html" target="_top" xlink:title=" ">
<polygon fill="white" stroke="#666666" points="626,-426 486,-426 486,-396 626,-396 626,-426"/>
<text text-anchor="start" x="494" y="-414" font-family="Helvetica,sans-Serif" font-size="10.00">include/Drivers/simulator</text>
<text text-anchor="middle" x="556" y="-403" font-family="Helvetica,sans-Serif" font-size="10.00">Driver.h</text>
</a>
</g>
</g>
<!-- Node1&#45;&gt;Node12 -->
<g id="edge19_Node000001_Node000012" class="edge">
<title>Node1&#45;&gt;Node12</title>
<g id="a_edge19_Node000001_Node000012"><a xlink:title=" ">
<path fill="none" stroke="#63b8ff" d="M643.83,-457.07C625.78,-447.81 601.84,-435.52 583.51,-426.11"/>
<polygon fill="#63b8ff" stroke="#63b8ff" points="642.68,-460.42 653.18,-461.87 645.88,-454.19 642.68,-460.42"/>
</a>
</g>
</g>
<!-- Node13 -->
<g id="Node000013" class="node">
<title>Node13</title>
<g id="a_Node000013"><a xlink:href="transDriverModel_8h.html" target="_top" xlink:title=" ">
<polygon fill="white" stroke="#666666" points="266,-360 118,-360 118,-330 266,-330 266,-360"/>
<text text-anchor="start" x="126" y="-348" font-family="Helvetica,sans-Serif" font-size="10.00">include/Drivers/transDriver</text>
<text text-anchor="middle" x="192" y="-337" font-family="Helvetica,sans-Serif" font-size="10.00">Model.h</text>
</a>
</g>
</g>
<!-- Node1&#45;&gt;Node13 -->
<g id="edge30_Node000001_Node000013" class="edge">
<title>Node1&#45;&gt;Node13</title>
<g id="a_edge30_Node000001_Node000013"><a xlink:title=" ">
<path fill="none" stroke="#63b8ff" d="M579.35,-469.86C506.72,-466.81 403.24,-456.7 318,-426 275.09,-410.55 231.63,-378.53 208.65,-360.03"/>
<polygon fill="#63b8ff" stroke="#63b8ff" points="579.27,-473.36 589.39,-470.25 579.53,-466.37 579.27,-473.36"/>
</a>
</g>
</g>
<!-- Node16 -->
<g id="Node000016" class="node">
<title>Node16</title>
<g id="a_Node000016"><a xlink:href="ref_8h.html" target="_top" xlink:title=" ">
<polygon fill="white" stroke="#666666" points="855.5,-129 736.5,-129 736.5,-110 855.5,-110 855.5,-129"/>
<text text-anchor="middle" x="796" y="-117" font-family="Helvetica,sans-Serif" font-size="10.00">include/RefPack/ref.h</text>
</a>
</g>
</g>
<!-- Node1&#45;&gt;Node16 -->
<g id="edge31_Node000001_Node000016" class="edge">
<title>Node1&#45;&gt;Node16</title>
<g id="a_edge31_Node000001_Node000016"><a xlink:title=" ">
<path fill="none" stroke="#63b8ff" d="M693.06,-456.23C722.87,-435.79 771,-395.19 771,-346 771,-346 771,-346 771,-228.5 771,-190.59 785.8,-147.07 792.63,-129.02"/>
<polygon fill="#63b8ff" stroke="#63b8ff" points="690.88,-453.47 684.47,-461.91 694.74,-459.31 690.88,-453.47"/>
</a>
</g>
</g>
<!-- Node17 -->
<g id="Node000017" class="node">
<title>Node17</title>
<g id="a_Node000017"><a xlink:href="driverModel_8cpp.html" target="_top" xlink:title=" ">
<polygon fill="white" stroke="#666666" points="1063.5,-420.5 912.5,-420.5 912.5,-401.5 1063.5,-401.5 1063.5,-420.5"/>
<text text-anchor="middle" x="988" y="-408.5" font-family="Helvetica,sans-Serif" font-size="10.00">src/Drivers/driverModel.cpp</text>
</a>
</g>
</g>
<!-- Node1&#45;&gt;Node17 -->
<g id="edge35_Node000001_Node000017" class="edge">
<title>Node1&#45;&gt;Node17</title>
<g id="a_edge35_Node000001_Node000017"><a xlink:title=" ">
<path fill="none" stroke="#63b8ff" d="M726.14,-460.17C787.47,-448.89 884.57,-431.03 941.7,-420.52"/>
<polygon fill="#63b8ff" stroke="#63b8ff" points="725.44,-456.74 716.24,-461.99 726.71,-463.63 725.44,-456.74"/>
</a>
</g>
</g>
<!-- Node3 -->
<g id="Node000003" class="node">
<title>Node3</title>
<g id="a_Node000003"><a xlink:href="spreader_8h.html" target="_top" xlink:title=" ">
<polygon fill="white" stroke="#666666" points="680,-129 528,-129 528,-110 680,-110 680,-129"/>
<text text-anchor="middle" x="604" y="-117" font-family="Helvetica,sans-Serif" font-size="10.00">include/Spreader/spreader.h</text>
</a>
</g>
</g>
<!-- Node2&#45;&gt;Node3 -->
<g id="edge2_Node000002_Node000003" class="edge">
<title>Node2&#45;&gt;Node3</title>
<g id="a_edge2_Node000002_Node000003"><a xlink:title=" ">
<path fill="none" stroke="#63b8ff" d="M424.89,-162.69C467.05,-152.76 528.7,-138.24 567.57,-129.08"/>
<polygon fill="#63b8ff" stroke="#63b8ff" points="424.08,-159.28 415.15,-164.98 425.69,-166.1 424.08,-159.28"/>
</a>
</g>
</g>
<!-- Node2&#45;&gt;Node4 -->
<g id="edge6_Node000002_Node000004" class="edge">
<title>Node2&#45;&gt;Node4</title>
<g id="a_edge6_Node000002_Node000004"><a xlink:title=" ">
<path fill="none" stroke="#63b8ff" d="M405.91,-159.9C418.64,-152.3 433.18,-141.78 443,-129 456.01,-112.08 462.14,-87.12 464.61,-74.11"/>
<polygon fill="#63b8ff" stroke="#63b8ff" points="404.03,-156.94 397.04,-164.9 407.47,-163.03 404.03,-156.94"/>
</a>
</g>
</g>
<!-- Node2&#45;&gt;Node5 -->
<g id="edge8_Node000002_Node000005" class="edge">
<title>Node2&#45;&gt;Node5</title>
<g id="a_edge8_Node000002_Node000005"><a xlink:title=" ">
<path fill="none" stroke="#63b8ff" d="M344.57,-161.03C319.79,-149.92 292.72,-132.03 305,-110 332.92,-59.92 397.58,-31.88 435.93,-19.11"/>
<polygon fill="#63b8ff" stroke="#63b8ff" points="343.3,-164.29 353.87,-164.95 346.02,-157.84 343.3,-164.29"/>
</a>
</g>
</g>
<!-- Node7 -->
<g id="Node000007" class="node">
<title>Node7</title>
<g id="a_Node000007"><a xlink:href="driver_8cpp.html" target="_top" xlink:title=" ">
<polygon fill="white" stroke="#666666" points="434,-129 314,-129 314,-110 434,-110 434,-129"/>
<text text-anchor="middle" x="374" y="-117" font-family="Helvetica,sans-Serif" font-size="10.00">src/Drivers/driver.cpp</text>
</a>
</g>
</g>
<!-- Node2&#45;&gt;Node7 -->
<g id="edge7_Node000002_Node000007" class="edge">
<title>Node2&#45;&gt;Node7</title>
<g id="a_edge7_Node000002_Node000007"><a xlink:title=" ">
<path fill="none" stroke="#63b8ff" d="M377.22,-154.66C376.4,-145.93 375.46,-135.99 374.81,-129.09"/>
<polygon fill="#63b8ff" stroke="#63b8ff" points="373.75,-155.12 378.17,-164.75 380.72,-154.46 373.75,-155.12"/>
</a>
</g>
</g>
<!-- Node3&#45;&gt;Node4 -->
<g id="edge3_Node000003_Node000004" class="edge">
<title>Node3&#45;&gt;Node4</title>
<g id="a_edge3_Node000003_Node000004"><a xlink:title=" ">
<path fill="none" stroke="#63b8ff" d="M572.21,-106.29C546.63,-96.47 511.33,-82.91 488.58,-74.17"/>
<polygon fill="#63b8ff" stroke="#63b8ff" points="571.24,-109.67 581.83,-109.98 573.75,-103.13 571.24,-109.67"/>
</a>
</g>
</g>
<!-- Node6 -->
<g id="Node000006" class="node">
<title>Node6</title>
<g id="a_Node000006"><a xlink:href="spreader_8cpp.html" target="_top" xlink:title=" ">
<polygon fill="white" stroke="#666666" points="675.5,-74 532.5,-74 532.5,-55 675.5,-55 675.5,-74"/>
<text text-anchor="middle" x="604" y="-62" font-family="Helvetica,sans-Serif" font-size="10.00">src/Spreader/spreader.cpp</text>
</a>
</g>
</g>
<!-- Node3&#45;&gt;Node6 -->
<g id="edge5_Node000003_Node000006" class="edge">
<title>Node3&#45;&gt;Node6</title>
<g id="a_edge5_Node000003_Node000006"><a xlink:title=" ">
<path fill="none" stroke="#63b8ff" d="M604,-99.66C604,-90.93 604,-80.99 604,-74.09"/>
<polygon fill="#63b8ff" stroke="#63b8ff" points="600.5,-99.75 604,-109.75 607.5,-99.75 600.5,-99.75"/>
</a>
</g>
</g>
<!-- Node4&#45;&gt;Node5 -->
<g id="edge4_Node000004_Node000005" class="edge">
<title>Node4&#45;&gt;Node5</title>
<g id="a_edge4_Node000004_Node000005"><a xlink:title=" ">
<path fill="none" stroke="#63b8ff" d="M466,-44.66C466,-35.93 466,-25.99 466,-19.09"/>
<polygon fill="#63b8ff" stroke="#63b8ff" points="462.5,-44.75 466,-54.75 469.5,-44.75 462.5,-44.75"/>
</a>
</g>
</g>
<!-- Node8&#45;&gt;Node2 -->
<g id="edge10_Node000008_Node000002" class="edge">
<title>Node8&#45;&gt;Node2</title>
<g id="a_edge10_Node000008_Node000002"><a xlink:title=" ">
<path fill="none" stroke="#63b8ff" d="M395.94,-266.73C390.18,-258.84 384.13,-248.97 381,-239 375.11,-220.27 376.45,-196.89 377.8,-184.38"/>
<polygon fill="#63b8ff" stroke="#63b8ff" points="393.25,-268.98 402.16,-274.72 398.77,-264.68 393.25,-268.98"/>
</a>
</g>
</g>
<!-- Node8&#45;&gt;Node4 -->
<g id="edge16_Node000008_Node000004" class="edge">
<title>Node8&#45;&gt;Node4</title>
<g id="a_edge16_Node000008_Node000004"><a xlink:title=" ">
<path fill="none" stroke="#63b8ff" d="M386.14,-269.35C360.57,-252.64 321.44,-222.22 305,-184 292.01,-153.79 285.08,-136.17 305,-110 319.09,-91.48 378.8,-78.69 421.38,-71.73"/>
<polygon fill="#63b8ff" stroke="#63b8ff" points="384.56,-272.49 394.88,-274.88 388.3,-266.57 384.56,-272.49"/>
</a>
</g>
</g>
<!-- Node8&#45;&gt;Node9 -->
<g id="edge11_Node000008_Node000009" class="edge">
<title>Node8&#45;&gt;Node9</title>
<g id="a_edge11_Node000008_Node000009"><a xlink:title=" ">
<path fill="none" stroke="#63b8ff" d="M361.21,-272.82C315.86,-262.88 249.17,-248.28 207.19,-239.08"/>
<polygon fill="#63b8ff" stroke="#63b8ff" points="360.6,-276.26 371.12,-274.98 362.1,-269.43 360.6,-276.26"/>
</a>
</g>
</g>
<!-- Node11 -->
<g id="Node000011" class="node">
<title>Node11</title>
<g id="a_Node000011"><a xlink:href="dutDriver_8cpp.html" target="_top" xlink:title=" ">
<polygon fill="white" stroke="#666666" points="527.5,-239 390.5,-239 390.5,-220 527.5,-220 527.5,-239"/>
<text text-anchor="middle" x="459" y="-227" font-family="Helvetica,sans-Serif" font-size="10.00">src/Drivers/dutDriver.cpp</text>
</a>
</g>
</g>
<!-- Node8&#45;&gt;Node11 -->
<g id="edge17_Node000008_Node000011" class="edge">
<title>Node8&#45;&gt;Node11</title>
<g id="a_edge17_Node000008_Node000011"><a xlink:title=" ">
<path fill="none" stroke="#63b8ff" d="M425.03,-267.24C433.62,-257.95 444.04,-246.68 451.06,-239.09"/>
<polygon fill="#63b8ff" stroke="#63b8ff" points="422.31,-265.03 418.09,-274.75 427.45,-269.78 422.31,-265.03"/>
</a>
</g>
</g>
<!-- Node9&#45;&gt;Node2 -->
<g id="edge12_Node000009_Node000002" class="edge">
<title>Node9&#45;&gt;Node2</title>
<g id="a_edge12_Node000009_Node000002"><a xlink:title=" ">
<path fill="none" stroke="#63b8ff" d="M211.79,-217.5C251.3,-207.58 308.62,-193.18 344.83,-184.08"/>
<polygon fill="#63b8ff" stroke="#63b8ff" points="210.75,-214.15 201.9,-219.98 212.45,-220.94 210.75,-214.15"/>
</a>
</g>
</g>
<!-- Node9&#45;&gt;Node4 -->
<g id="edge13_Node000009_Node000004" class="edge">
<title>Node9&#45;&gt;Node4</title>
<g id="a_edge13_Node000009_Node000004"><a xlink:title=" ">
<path fill="none" stroke="#63b8ff" d="M191.18,-214.48C203.1,-206.52 217.33,-195.81 228,-184 253.65,-155.6 241.08,-132.54 272,-110 315.98,-77.94 379.27,-68.48 421.47,-65.96"/>
<polygon fill="#63b8ff" stroke="#63b8ff" points="189.12,-211.64 182.61,-220 192.91,-217.53 189.12,-211.64"/>
</a>
</g>
</g>
<!-- Node9&#45;&gt;Node5 -->
<g id="edge15_Node000009_Node000005" class="edge">
<title>Node9&#45;&gt;Node5</title>
<g id="a_edge15_Node000009_Node000005"><a xlink:title=" ">
<path fill="none" stroke="#63b8ff" d="M123.23,-216.84C92.24,-206.39 59.18,-189.01 75,-165 154.2,-44.77 343.48,-18.09 426.19,-12.18"/>
<polygon fill="#63b8ff" stroke="#63b8ff" points="122.57,-220.3 133.16,-219.98 124.68,-213.63 122.57,-220.3"/>
</a>
</g>
</g>
<!-- Node10 -->
<g id="Node000010" class="node">
<title>Node10</title>
<g id="a_Node000010"><a xlink:href="refDriver_8cpp.html" target="_top" xlink:title=" ">
<polygon fill="white" stroke="#666666" points="219.5,-184 84.5,-184 84.5,-165 219.5,-165 219.5,-184"/>
<text text-anchor="middle" x="152" y="-172" font-family="Helvetica,sans-Serif" font-size="10.00">src/Drivers/refDriver.cpp</text>
</a>
</g>
</g>
<!-- Node9&#45;&gt;Node10 -->
<g id="edge14_Node000009_Node000010" class="edge">
<title>Node9&#45;&gt;Node10</title>
<g id="a_edge14_Node000009_Node000010"><a xlink:title=" ">
<path fill="none" stroke="#63b8ff" d="M162.4,-209.95C159.74,-201.15 156.7,-191.06 154.59,-184.09"/>
<polygon fill="#63b8ff" stroke="#63b8ff" points="159.12,-211.19 165.36,-219.75 165.82,-209.16 159.12,-211.19"/>
</a>
</g>
</g>
<!-- Node12&#45;&gt;Node3 -->
<g id="edge27_Node000012_Node000003" class="edge">
<title>Node12&#45;&gt;Node3</title>
<g id="a_edge27_Node000012_Node000003"><a xlink:title=" ">
<path fill="none" stroke="#63b8ff" d="M582.65,-389.08C591.73,-380.84 601.28,-370.76 608,-360 626.43,-330.5 632,-320.29 632,-285.5 632,-285.5 632,-285.5 632,-228.5 632,-190.54 615.59,-147.4 607.89,-129.26"/>
<polygon fill="#63b8ff" stroke="#63b8ff" points="580.13,-386.64 574.87,-395.83 584.72,-391.92 580.13,-386.64"/>
</a>
</g>
</g>
<!-- Node12&#45;&gt;Node4 -->
<g id="edge28_Node000012_Node000004" class="edge">
<title>Node12&#45;&gt;Node4</title>
<g id="a_edge28_Node000012_Node000004"><a xlink:title=" ">
<path fill="none" stroke="#63b8ff" d="M558.67,-385.74C559.99,-369.85 560.93,-348.65 559,-330 553.86,-280.32 551.51,-267.48 536,-220 517.16,-162.34 483.31,-97.43 470.81,-74.28"/>
<polygon fill="#63b8ff" stroke="#63b8ff" points="555.18,-385.52 557.73,-395.8 562.15,-386.17 555.18,-385.52"/>
</a>
</g>
</g>
<!-- Node12&#45;&gt;Node8 -->
<g id="edge20_Node000012_Node000008" class="edge">
<title>Node12&#45;&gt;Node8</title>
<g id="a_edge20_Node000012_Node000008"><a xlink:title=" ">
<path fill="none" stroke="#63b8ff" d="M556.14,-385.66C554.96,-368.17 550.61,-345.1 537,-330 520.03,-311.17 494.63,-300.31 471,-294.04"/>
<polygon fill="#63b8ff" stroke="#63b8ff" points="552.64,-385.84 556.51,-395.7 559.64,-385.58 552.64,-385.84"/>
</a>
</g>
</g>
<!-- Node12&#45;&gt;Node9 -->
<g id="edge21_Node000012_Node000009" class="edge">
<title>Node12&#45;&gt;Node9</title>
<g id="a_edge21_Node000012_Node000009"><a xlink:title=" ">
<path fill="none" stroke="#63b8ff" d="M475.6,-403.49C435.46,-397.13 387.76,-384.61 351,-360 312.14,-333.99 326.32,-303.17 289,-275 265.24,-257.07 233.51,-245.76 208.5,-239.03"/>
<polygon fill="#63b8ff" stroke="#63b8ff" points="475.22,-406.97 485.63,-404.97 476.25,-400.04 475.22,-406.97"/>
</a>
</g>
</g>
<!-- Node12&#45;&gt;Node13 -->
<g id="edge22_Node000012_Node000013" class="edge">
<title>Node12&#45;&gt;Node13</title>
<g id="a_edge22_Node000012_Node000013"><a xlink:title=" ">
<path fill="none" stroke="#63b8ff" d="M475.6,-395.86C413.04,-384.86 326.91,-369.72 266.03,-359.02"/>
<polygon fill="#63b8ff" stroke="#63b8ff" points="475.36,-399.38 485.82,-397.66 476.57,-392.48 475.36,-399.38"/>
</a>
</g>
</g>
<!-- Node15 -->
<g id="Node000015" class="node">
<title>Node15</title>
<g id="a_Node000015"><a xlink:href="simulatorDriver_8cpp.html" target="_top" xlink:title=" ">
<polygon fill="white" stroke="#666666" points="528,-354.5 360,-354.5 360,-335.5 528,-335.5 528,-354.5"/>
<text text-anchor="middle" x="444" y="-342.5" font-family="Helvetica,sans-Serif" font-size="10.00">src/Drivers/simulatorDriver.cpp</text>
</a>
</g>
</g>
<!-- Node12&#45;&gt;Node15 -->
<g id="edge29_Node000012_Node000015" class="edge">
<title>Node12&#45;&gt;Node15</title>
<g id="a_edge29_Node000012_Node000015"><a xlink:title=" ">
<path fill="none" stroke="#63b8ff" d="M522.7,-390.97C501.52,-378.87 475.11,-363.78 458.91,-354.52"/>
<polygon fill="#63b8ff" stroke="#63b8ff" points="521,-394.03 531.42,-395.95 524.48,-387.95 521,-394.03"/>
</a>
</g>
</g>
<!-- Node13&#45;&gt;Node4 -->
<g id="edge25_Node000013_Node000004" class="edge">
<title>Node13&#45;&gt;Node4</title>
<g id="a_edge25_Node000013_Node000004"><a xlink:title=" ">
<path fill="none" stroke="#63b8ff" d="M107.86,-328.13C56.25,-312.98 0,-284.16 0,-230.5 0,-230.5 0,-230.5 0,-173.5 0,-87.55 304.68,-69.98 421.32,-66.41"/>
<polygon fill="#63b8ff" stroke="#63b8ff" points="107.2,-331.58 117.77,-330.9 109.08,-324.84 107.2,-331.58"/>
</a>
</g>
</g>
<!-- Node13&#45;&gt;Node8 -->
<g id="edge23_Node000013_Node000008" class="edge">
<title>Node13&#45;&gt;Node8</title>
<g id="a_edge23_Node000013_Node000008"><a xlink:title=" ">
<path fill="none" stroke="#63b8ff" d="M254,-327.36C294.48,-316.5 345.66,-302.77 378.12,-294.05"/>
<polygon fill="#63b8ff" stroke="#63b8ff" points="252.97,-324.02 244.22,-329.99 254.78,-330.78 252.97,-324.02"/>
</a>
</g>
</g>
<!-- Node13&#45;&gt;Node9 -->
<g id="edge24_Node000013_Node000009" class="edge">
<title>Node13&#45;&gt;Node9</title>
<g id="a_edge24_Node000013_Node000009"><a xlink:title=" ">
<path fill="none" stroke="#63b8ff" d="M131.16,-325.7C116.49,-318.28 102.59,-308.03 94,-294 79.06,-269.6 116.09,-249.74 142.99,-239.06"/>
<polygon fill="#63b8ff" stroke="#63b8ff" points="129.81,-328.93 140.35,-329.97 132.76,-322.58 129.81,-328.93"/>
</a>
</g>
</g>
<!-- Node14 -->
<g id="Node000014" class="node">
<title>Node14</title>
<g id="a_Node000014"><a xlink:href="transDriverModel_8cpp.html" target="_top" xlink:title=" ">
<polygon fill="white" stroke="#666666" points="280.5,-294 103.5,-294 103.5,-275 280.5,-275 280.5,-294"/>
<text text-anchor="middle" x="192" y="-282" font-family="Helvetica,sans-Serif" font-size="10.00">src/Drivers/transDriverModel.cpp</text>
</a>
</g>
</g>
<!-- Node13&#45;&gt;Node14 -->
<g id="edge26_Node000013_Node000014" class="edge">
<title>Node13&#45;&gt;Node14</title>
<g id="a_edge26_Node000013_Node000014"><a xlink:title=" ">
<path fill="none" stroke="#63b8ff" d="M192,-319.75C192,-310.72 192,-301.03 192,-294.27"/>
<polygon fill="#63b8ff" stroke="#63b8ff" points="188.5,-319.84 192,-329.84 195.5,-319.84 188.5,-319.84"/>
</a>
</g>
</g>
<!-- Node16&#45;&gt;Node4 -->
<g id="edge32_Node000016_Node000004" class="edge">
<title>Node16&#45;&gt;Node4</title>
<g id="a_edge32_Node000016_Node000004"><a xlink:title=" ">
<path fill="none" stroke="#63b8ff" d="M732.85,-108.36C667.78,-97.91 568,-81.88 510.68,-72.68"/>
<polygon fill="#63b8ff" stroke="#63b8ff" points="732.55,-111.85 742.98,-109.98 733.66,-104.94 732.55,-111.85"/>
</a>
</g>
</g>
<!-- Node16&#45;&gt;Node5 -->
<g id="edge33_Node000016_Node000005" class="edge">
<title>Node16&#45;&gt;Node5</title>
<g id="a_edge33_Node000016_Node000005"><a xlink:title=" ">
<path fill="none" stroke="#63b8ff" d="M775.66,-104.19C754.11,-89.7 718.63,-67.66 685,-55 624.73,-32.31 550.54,-20.33 505.82,-14.72"/>
<polygon fill="#63b8ff" stroke="#63b8ff" points="773.76,-107.14 783.99,-109.9 777.71,-101.36 773.76,-107.14"/>
</a>
</g>
</g>
</g>
</svg>
