<?xml version="1.0" encoding="UTF-8" standalone="no"?>
<!DOCTYPE svg PUBLIC "-//W3C//DTD SVG 1.1//EN"
 "http://www.w3.org/Graphics/SVG/1.1/DTD/svg11.dtd">
<!-- Generated by graphviz version 2.43.0 (0)
 -->
<!-- Title: src/Drivers/driverModel.cpp Pages: 1 -->
<svg width="1182pt" height="357pt"
 viewBox="0.00 0.00 1181.50 357.00" xmlns="http://www.w3.org/2000/svg" xmlns:xlink="http://www.w3.org/1999/xlink">
<g id="graph0" class="graph" transform="scale(1 1) rotate(0) translate(4 353)">
<title>src/Drivers/driverModel.cpp</title>
<!-- Node1 -->
<g id="Node000001" class="node">
<title>Node1</title>
<g id="a_Node000001"><a xlink:title=" ">
<polygon fill="#999999" stroke="#666666" points="539.5,-349 388.5,-349 388.5,-330 539.5,-330 539.5,-349"/>
<text text-anchor="middle" x="464" y="-337" font-family="Helvetica,sans-Serif" font-size="10.00">src/Drivers/driverModel.cpp</text>
</a>
</g>
</g>
<!-- Node2 -->
<g id="Node000002" class="node">
<title>Node2</title>
<g id="a_Node000002"><a xlink:href="driverModel_8h.html" target="_top" xlink:title=" ">
<polygon fill="white" stroke="#666666" points="525,-294 403,-294 403,-275 525,-275 525,-294"/>
<text text-anchor="middle" x="464" y="-282" font-family="Helvetica,sans-Serif" font-size="10.00">Drivers/driverModel.h</text>
</a>
</g>
</g>
<!-- Node1&#45;&gt;Node2 -->
<g id="edge1_Node000001_Node000002" class="edge">
<title>Node1&#45;&gt;Node2</title>
<g id="a_edge1_Node000001_Node000002"><a xlink:title=" ">
<path fill="none" stroke="#63b8ff" d="M464,-329.75C464,-322.8 464,-312.85 464,-304.13"/>
<polygon fill="#63b8ff" stroke="#63b8ff" points="467.5,-304.09 464,-294.09 460.5,-304.09 467.5,-304.09"/>
</a>
</g>
</g>
<!-- Node3 -->
<g id="Node000003" class="node">
<title>Node3</title>
<g id="a_Node000003"><a xlink:title=" ">
<polygon fill="#e0e0e0" stroke="#999999" points="257,-129 199,-129 199,-110 257,-110 257,-129"/>
<text text-anchor="middle" x="228" y="-117" font-family="Helvetica,sans-Serif" font-size="10.00">memory</text>
</a>
</g>
</g>
<!-- Node2&#45;&gt;Node3 -->
<g id="edge2_Node000002_Node000003" class="edge">
<title>Node2&#45;&gt;Node3</title>
<g id="a_edge2_Node000002_Node000003"><a xlink:title=" ">
<path fill="none" stroke="#63b8ff" d="M402.75,-275.67C372.65,-269.49 337.11,-258.5 310,-239 273.4,-212.68 247.7,-164.71 235.69,-138.6"/>
<polygon fill="#63b8ff" stroke="#63b8ff" points="238.76,-136.9 231.51,-129.17 232.36,-139.73 238.76,-136.9"/>
</a>
</g>
</g>
<!-- Node4 -->
<g id="Node000004" class="node">
<title>Node4</title>
<g id="a_Node000004"><a xlink:title=" ">
<polygon fill="#e0e0e0" stroke="#999999" points="1055,-129 999,-129 999,-110 1055,-110 1055,-129"/>
<text text-anchor="middle" x="1027" y="-117" font-family="Helvetica,sans-Serif" font-size="10.00">optional</text>
</a>
</g>
</g>
<!-- Node2&#45;&gt;Node4 -->
<g id="edge3_Node000002_Node000004" class="edge">
<title>Node2&#45;&gt;Node4</title>
<g id="a_edge3_Node000002_Node000004"><a xlink:title=" ">
<path fill="none" stroke="#63b8ff" d="M493.48,-274.97C587.96,-247.61 883.23,-162.12 988.91,-131.53"/>
<polygon fill="#63b8ff" stroke="#63b8ff" points="990.19,-134.8 998.82,-128.66 988.24,-128.08 990.19,-134.8"/>
</a>
</g>
</g>
<!-- Node5 -->
<g id="Node000005" class="node">
<title>Node5</title>
<g id="a_Node000005"><a xlink:title=" ">
<polygon fill="#e0e0e0" stroke="#999999" points="435,-19 391,-19 391,0 435,0 435,-19"/>
<text text-anchor="middle" x="413" y="-7" font-family="Helvetica,sans-Serif" font-size="10.00">string</text>
</a>
</g>
</g>
<!-- Node2&#45;&gt;Node5 -->
<g id="edge4_Node000002_Node000005" class="edge">
<title>Node2&#45;&gt;Node5</title>
<g id="a_edge4_Node000002_Node000005"><a xlink:title=" ">
<path fill="none" stroke="#63b8ff" d="M402.89,-276.47C367.07,-270.39 321.94,-259.24 286,-239 225.48,-204.92 201.72,-193.11 175,-129 165.66,-106.59 186.52,-59.11 191,-55 218.28,-29.95 325.68,-17.67 380.47,-12.93"/>
<polygon fill="#63b8ff" stroke="#63b8ff" points="381.02,-16.4 390.69,-12.08 380.44,-9.42 381.02,-16.4"/>
</a>
</g>
</g>
<!-- Node6 -->
<g id="Node000006" class="node">
<title>Node6</title>
<g id="a_Node000006"><a xlink:title=" ">
<polygon fill="#e0e0e0" stroke="#999999" points="1103.5,-74 1062.5,-74 1062.5,-55 1103.5,-55 1103.5,-74"/>
<text text-anchor="middle" x="1083" y="-62" font-family="Helvetica,sans-Serif" font-size="10.00">tuple</text>
</a>
</g>
</g>
<!-- Node2&#45;&gt;Node6 -->
<g id="edge5_Node000002_Node000006" class="edge">
<title>Node2&#45;&gt;Node6</title>
<g id="a_edge5_Node000002_Node000006"><a xlink:title=" ">
<path fill="none" stroke="#63b8ff" d="M525.12,-284.18C630.79,-282.89 851.77,-269.18 1013,-184 1047.37,-165.84 1063.71,-163.81 1081,-129 1087.83,-115.25 1087.82,-97.67 1086.4,-84.5"/>
<polygon fill="#63b8ff" stroke="#63b8ff" points="1089.81,-83.66 1084.91,-74.27 1082.88,-84.66 1089.81,-83.66"/>
</a>
</g>
</g>
<!-- Node7 -->
<g id="Node000007" class="node">
<title>Node7</title>
<g id="a_Node000007"><a xlink:title=" ">
<polygon fill="#e0e0e0" stroke="#999999" points="103.5,-19 10.5,-19 10.5,0 103.5,0 103.5,-19"/>
<text text-anchor="middle" x="57" y="-7" font-family="Helvetica,sans-Serif" font-size="10.00">unordered_map</text>
</a>
</g>
</g>
<!-- Node2&#45;&gt;Node7 -->
<g id="edge6_Node000002_Node000007" class="edge">
<title>Node2&#45;&gt;Node7</title>
<g id="a_edge6_Node000002_Node000007"><a xlink:title=" ">
<path fill="none" stroke="#63b8ff" d="M402.86,-281.97C276.87,-277.16 0,-257.28 0,-175.5 0,-175.5 0,-175.5 0,-118.5 0,-82.51 25.06,-46.76 41.95,-26.76"/>
<polygon fill="#63b8ff" stroke="#63b8ff" points="44.62,-29.02 48.59,-19.2 39.36,-24.4 44.62,-29.02"/>
</a>
</g>
</g>
<!-- Node8 -->
<g id="Node000008" class="node">
<title>Node8</title>
<g id="a_Node000008"><a xlink:title=" ">
<polygon fill="#e0e0e0" stroke="#999999" points="1173.5,-74 1128.5,-74 1128.5,-55 1173.5,-55 1173.5,-74"/>
<text text-anchor="middle" x="1151" y="-62" font-family="Helvetica,sans-Serif" font-size="10.00">utility</text>
</a>
</g>
</g>
<!-- Node2&#45;&gt;Node8 -->
<g id="edge7_Node000002_Node000008" class="edge">
<title>Node2&#45;&gt;Node8</title>
<g id="a_edge7_Node000002_Node000008"><a xlink:title=" ">
<path fill="none" stroke="#63b8ff" d="M525.04,-283.2C612.51,-281.49 777.96,-273.45 914,-239 975.21,-223.5 993.08,-219.94 1045,-184 1086.05,-155.58 1122.02,-108.16 1139.58,-82.78"/>
<polygon fill="#63b8ff" stroke="#63b8ff" points="1142.67,-84.46 1145.39,-74.21 1136.88,-80.53 1142.67,-84.46"/>
</a>
</g>
</g>
<!-- Node9 -->
<g id="Node000009" class="node">
<title>Node9</title>
<g id="a_Node000009"><a xlink:title=" ">
<polygon fill="#e0e0e0" stroke="#999999" points="899.5,-74 834.5,-74 834.5,-55 899.5,-55 899.5,-74"/>
<text text-anchor="middle" x="867" y="-62" font-family="Helvetica,sans-Serif" font-size="10.00">functional</text>
</a>
</g>
</g>
<!-- Node2&#45;&gt;Node9 -->
<g id="edge8_Node000002_Node000009" class="edge">
<title>Node2&#45;&gt;Node9</title>
<g id="a_edge8_Node000002_Node000009"><a xlink:title=" ">
<path fill="none" stroke="#63b8ff" d="M525.07,-277.19C664.31,-261.42 998.31,-215.19 1064,-129 1104.97,-75.24 979.39,-66.2 909.88,-65.19"/>
<polygon fill="#63b8ff" stroke="#63b8ff" points="909.68,-61.68 899.65,-65.09 909.61,-68.68 909.68,-61.68"/>
</a>
</g>
</g>
<!-- Node10 -->
<g id="Node000010" class="node">
<title>Node10</title>
<g id="a_Node000010"><a xlink:href="channel_8h.html" target="_top" xlink:title=" ">
<polygon fill="white" stroke="#666666" points="517.5,-239 410.5,-239 410.5,-220 517.5,-220 517.5,-239"/>
<text text-anchor="middle" x="464" y="-227" font-family="Helvetica,sans-Serif" font-size="10.00">Channel/channel.h</text>
</a>
</g>
</g>
<!-- Node2&#45;&gt;Node10 -->
<g id="edge9_Node000002_Node000010" class="edge">
<title>Node2&#45;&gt;Node10</title>
<g id="a_edge9_Node000002_Node000010"><a xlink:title=" ">
<path fill="none" stroke="#63b8ff" d="M464,-274.75C464,-267.8 464,-257.85 464,-249.13"/>
<polygon fill="#63b8ff" stroke="#63b8ff" points="467.5,-249.09 464,-239.09 460.5,-249.09 467.5,-249.09"/>
</a>
</g>
</g>
<!-- Node16 -->
<g id="Node000016" class="node">
<title>Node16</title>
<g id="a_Node000016"><a xlink:href="types_8h.html" target="_top" xlink:title=" ">
<polygon fill="white" stroke="#666666" points="494.5,-74 405.5,-74 405.5,-55 494.5,-55 494.5,-74"/>
<text text-anchor="middle" x="450" y="-62" font-family="Helvetica,sans-Serif" font-size="10.00">Library/types.h</text>
</a>
</g>
</g>
<!-- Node2&#45;&gt;Node16 -->
<g id="edge47_Node000002_Node000016" class="edge">
<title>Node2&#45;&gt;Node16</title>
<g id="a_edge47_Node000002_Node000016"><a xlink:title=" ">
<path fill="none" stroke="#63b8ff" d="M445.82,-274.92C431.79,-267.37 412.98,-255.09 402,-239 387.78,-218.16 391.14,-209.03 388,-184 386.95,-175.62 385.68,-173.12 388,-165 397.28,-132.57 420.53,-100.42 435.78,-81.79"/>
<polygon fill="#63b8ff" stroke="#63b8ff" points="438.57,-83.91 442.33,-74 433.21,-79.4 438.57,-83.91"/>
</a>
</g>
</g>
<!-- Node17 -->
<g id="Node000017" class="node">
<title>Node17</title>
<g id="a_Node000017"><a xlink:href="transaction_8h_source.html" target="_top" xlink:title=" ">
<polygon fill="white" stroke="#666666" points="754.5,-184 615.5,-184 615.5,-165 754.5,-165 754.5,-184"/>
<text text-anchor="middle" x="685" y="-172" font-family="Helvetica,sans-Serif" font-size="10.00">Transaction/transaction.h</text>
</a>
</g>
</g>
<!-- Node2&#45;&gt;Node17 -->
<g id="edge46_Node000002_Node000017" class="edge">
<title>Node2&#45;&gt;Node17</title>
<g id="a_edge46_Node000002_Node000017"><a xlink:title=" ">
<path fill="none" stroke="#63b8ff" d="M481.71,-274.84C520.44,-255.92 612.83,-210.77 658.51,-188.45"/>
<polygon fill="#63b8ff" stroke="#63b8ff" points="660.06,-191.58 667.51,-184.05 656.99,-185.29 660.06,-191.58"/>
</a>
</g>
</g>
<!-- Node19 -->
<g id="Node000019" class="node">
<title>Node19</title>
<g id="a_Node000019"><a xlink:href="error_8h.html" target="_top" xlink:title=" ">
<polygon fill="white" stroke="#666666" points="360.5,-129 275.5,-129 275.5,-110 360.5,-110 360.5,-129"/>
<text text-anchor="middle" x="318" y="-117" font-family="Helvetica,sans-Serif" font-size="10.00">Library/error.h</text>
</a>
</g>
</g>
<!-- Node2&#45;&gt;Node19 -->
<g id="edge48_Node000002_Node000019" class="edge">
<title>Node2&#45;&gt;Node19</title>
<g id="a_edge48_Node000002_Node000019"><a xlink:title=" ">
<path fill="none" stroke="#63b8ff" d="M402.76,-279.87C373.88,-274.76 341.73,-263.45 323,-239 300.75,-209.95 306.98,-164.13 312.87,-138.82"/>
<polygon fill="#63b8ff" stroke="#63b8ff" points="316.28,-139.61 315.37,-129.05 309.5,-137.87 316.28,-139.61"/>
</a>
</g>
</g>
<!-- Node10&#45;&gt;Node3 -->
<g id="edge11_Node000010_Node000003" class="edge">
<title>Node10&#45;&gt;Node3</title>
<g id="a_edge11_Node000010_Node000003"><a xlink:title=" ">
<path fill="none" stroke="#63b8ff" d="M443.38,-219.86C422.51,-211.06 389.37,-196.9 361,-184 323.86,-167.12 281.4,-146.64 254.65,-133.59"/>
<polygon fill="#63b8ff" stroke="#63b8ff" points="256.06,-130.38 245.54,-129.13 252.99,-136.67 256.06,-130.38"/>
</a>
</g>
</g>
<!-- Node10&#45;&gt;Node5 -->
<g id="edge12_Node000010_Node000005" class="edge">
<title>Node10&#45;&gt;Node5</title>
<g id="a_edge12_Node000010_Node000005"><a xlink:title=" ">
<path fill="none" stroke="#63b8ff" d="M410.3,-223.53C348.26,-216.96 250.75,-203.85 220,-184 195.04,-167.88 190.85,-157.36 182,-129 155.2,-43.05 310.85,-19.08 380.56,-12.7"/>
<polygon fill="#63b8ff" stroke="#63b8ff" points="380.91,-16.18 390.58,-11.85 380.32,-9.21 380.91,-16.18"/>
</a>
</g>
</g>
<!-- Node10&#45;&gt;Node6 -->
<g id="edge13_Node000010_Node000006" class="edge">
<title>Node10&#45;&gt;Node6</title>
<g id="a_edge13_Node000010_Node000006"><a xlink:title=" ">
<path fill="none" stroke="#63b8ff" d="M517.8,-226.77C649.59,-221.43 983.7,-200.97 1064,-129 1076.44,-117.85 1080.88,-98.92 1082.4,-84.63"/>
<polygon fill="#63b8ff" stroke="#63b8ff" points="1085.91,-84.6 1083.08,-74.39 1078.92,-84.14 1085.91,-84.6"/>
</a>
</g>
</g>
<!-- Node10&#45;&gt;Node7 -->
<g id="edge14_Node000010_Node000007" class="edge">
<title>Node10&#45;&gt;Node7</title>
<g id="a_edge14_Node000010_Node000007"><a xlink:title=" ">
<path fill="none" stroke="#63b8ff" d="M410.48,-224.27C342.51,-218.12 229.75,-205.09 194,-184 129.31,-145.85 83.47,-64.65 65.46,-28.5"/>
<polygon fill="#63b8ff" stroke="#63b8ff" points="68.46,-26.67 60.95,-19.2 62.16,-29.72 68.46,-26.67"/>
</a>
</g>
</g>
<!-- Node10&#45;&gt;Node8 -->
<g id="edge16_Node000010_Node000008" class="edge">
<title>Node10&#45;&gt;Node8</title>
<g id="a_edge16_Node000010_Node000008"><a xlink:title=" ">
<path fill="none" stroke="#63b8ff" d="M517.61,-226.23C629.81,-221.08 885.93,-207.14 970,-184 1024.24,-169.07 1037.7,-160.95 1084,-129 1103.88,-115.28 1123.58,-95.71 1136.41,-81.92"/>
<polygon fill="#63b8ff" stroke="#63b8ff" points="1139.31,-83.94 1143.46,-74.2 1134.13,-79.23 1139.31,-83.94"/>
</a>
</g>
</g>
<!-- Node11 -->
<g id="Node000011" class="node">
<title>Node11</title>
<g id="a_Node000011"><a xlink:title=" ">
<polygon fill="#e0e0e0" stroke="#999999" points="456.5,-184 403.5,-184 403.5,-165 456.5,-165 456.5,-184"/>
<text text-anchor="middle" x="430" y="-172" font-family="Helvetica,sans-Serif" font-size="10.00">iterator</text>
</a>
</g>
</g>
<!-- Node10&#45;&gt;Node11 -->
<g id="edge10_Node000010_Node000011" class="edge">
<title>Node10&#45;&gt;Node11</title>
<g id="a_edge10_Node000010_Node000011"><a xlink:title=" ">
<path fill="none" stroke="#63b8ff" d="M458.39,-219.75C453.68,-212.42 446.83,-201.73 441.03,-192.7"/>
<polygon fill="#63b8ff" stroke="#63b8ff" points="443.86,-190.62 435.51,-184.09 437.96,-194.4 443.86,-190.62"/>
</a>
</g>
</g>
<!-- Node12 -->
<g id="Node000012" class="node">
<title>Node12</title>
<g id="a_Node000012"><a xlink:title=" ">
<polygon fill="#e0e0e0" stroke="#999999" points="627,-74 589,-74 589,-55 627,-55 627,-74"/>
<text text-anchor="middle" x="608" y="-62" font-family="Helvetica,sans-Serif" font-size="10.00">map</text>
</a>
</g>
</g>
<!-- Node10&#45;&gt;Node12 -->
<g id="edge15_Node000010_Node000012" class="edge">
<title>Node10&#45;&gt;Node12</title>
<g id="a_edge15_Node000010_Node000012"><a xlink:title=" ">
<path fill="none" stroke="#63b8ff" d="M499.65,-219.88C520.54,-213.2 546.07,-201.97 563,-184 589.7,-155.67 600.99,-109.9 605.41,-84.33"/>
<polygon fill="#63b8ff" stroke="#63b8ff" points="608.92,-84.56 606.99,-74.14 602,-83.48 608.92,-84.56"/>
</a>
</g>
</g>
<!-- Node13 -->
<g id="Node000013" class="node">
<title>Node13</title>
<g id="a_Node000013"><a xlink:title=" ">
<polygon fill="#e0e0e0" stroke="#999999" points="650.5,-19 603.5,-19 603.5,0 650.5,0 650.5,-19"/>
<text text-anchor="middle" x="627" y="-7" font-family="Helvetica,sans-Serif" font-size="10.00">vector</text>
</a>
</g>
</g>
<!-- Node10&#45;&gt;Node13 -->
<g id="edge17_Node000010_Node000013" class="edge">
<title>Node10&#45;&gt;Node13</title>
<g id="a_edge17_Node000010_Node000013"><a xlink:title=" ">
<path fill="none" stroke="#63b8ff" d="M482.52,-219.96C497.17,-212.36 517.24,-199.98 530,-184 568.36,-135.94 545.73,-106.05 580,-55 587.38,-44 597.94,-33.69 607.17,-25.77"/>
<polygon fill="#63b8ff" stroke="#63b8ff" points="609.65,-28.27 615.16,-19.22 605.21,-22.86 609.65,-28.27"/>
</a>
</g>
</g>
<!-- Node14 -->
<g id="Node000014" class="node">
<title>Node14</title>
<g id="a_Node000014"><a xlink:title=" ">
<polygon fill="#e0e0e0" stroke="#999999" points="521,-184 475,-184 475,-165 521,-165 521,-184"/>
<text text-anchor="middle" x="498" y="-172" font-family="Helvetica,sans-Serif" font-size="10.00">future</text>
</a>
</g>
</g>
<!-- Node10&#45;&gt;Node14 -->
<g id="edge18_Node000010_Node000014" class="edge">
<title>Node10&#45;&gt;Node14</title>
<g id="a_edge18_Node000010_Node000014"><a xlink:title=" ">
<path fill="none" stroke="#63b8ff" d="M469.61,-219.75C474.32,-212.42 481.17,-201.73 486.97,-192.7"/>
<polygon fill="#63b8ff" stroke="#63b8ff" points="490.04,-194.4 492.49,-184.09 484.14,-190.62 490.04,-194.4"/>
</a>
</g>
</g>
<!-- Node15 -->
<g id="Node000015" class="node">
<title>Node15</title>
<g id="a_Node000015"><a xlink:title=" ">
<polygon fill="#e0e0e0" stroke="#999999" points="348,-74 288,-74 288,-55 348,-55 348,-74"/>
<text text-anchor="middle" x="318" y="-62" font-family="Helvetica,sans-Serif" font-size="10.00">iostream</text>
</a>
</g>
</g>
<!-- Node10&#45;&gt;Node15 -->
<g id="edge19_Node000010_Node000015" class="edge">
<title>Node10&#45;&gt;Node15</title>
<g id="a_edge19_Node000010_Node000015"><a xlink:title=" ">
<path fill="none" stroke="#63b8ff" d="M410.29,-226.89C345.04,-221.67 237.78,-201.76 190,-129 166.64,-93.43 232.05,-77.02 277.76,-70.06"/>
<polygon fill="#63b8ff" stroke="#63b8ff" points="278.34,-73.51 287.74,-68.64 277.35,-66.58 278.34,-73.51"/>
</a>
</g>
</g>
<!-- Node10&#45;&gt;Node16 -->
<g id="edge20_Node000010_Node000016" class="edge">
<title>Node10&#45;&gt;Node16</title>
<g id="a_edge20_Node000010_Node000016"><a xlink:title=" ">
<path fill="none" stroke="#63b8ff" d="M439.53,-219.86C423.73,-212.85 404.41,-201.27 395,-184 390.96,-176.59 391.3,-172.59 395,-165 406.37,-141.66 428.02,-151.48 441,-129 448.75,-115.58 450.74,-97.97 450.93,-84.71"/>
<polygon fill="#63b8ff" stroke="#63b8ff" points="454.42,-84.31 450.74,-74.38 447.42,-84.44 454.42,-84.31"/>
</a>
</g>
</g>
<!-- Node10&#45;&gt;Node17 -->
<g id="edge24_Node000010_Node000017" class="edge">
<title>Node10&#45;&gt;Node17</title>
<g id="a_edge24_Node000010_Node000017"><a xlink:title=" ">
<path fill="none" stroke="#63b8ff" d="M499.51,-219.98C537.49,-210.87 597.87,-196.4 639.36,-186.45"/>
<polygon fill="#63b8ff" stroke="#63b8ff" points="640.31,-189.82 649.21,-184.08 638.67,-183.01 640.31,-189.82"/>
</a>
</g>
</g>
<!-- Node16&#45;&gt;Node5 -->
<g id="edge23_Node000016_Node000005" class="edge">
<title>Node16&#45;&gt;Node5</title>
<g id="a_edge23_Node000016_Node000005"><a xlink:title=" ">
<path fill="none" stroke="#63b8ff" d="M443.89,-54.75C438.72,-47.34 431.15,-36.5 424.81,-27.41"/>
<polygon fill="#63b8ff" stroke="#63b8ff" points="427.59,-25.29 419,-19.09 421.85,-29.29 427.59,-25.29"/>
</a>
</g>
</g>
<!-- Node16&#45;&gt;Node7 -->
<g id="edge22_Node000016_Node000007" class="edge">
<title>Node16&#45;&gt;Node7</title>
<g id="a_edge22_Node000016_Node000007"><a xlink:title=" ">
<path fill="none" stroke="#63b8ff" d="M405.3,-57.47C333.58,-47.8 192.88,-28.82 114.02,-18.19"/>
<polygon fill="#63b8ff" stroke="#63b8ff" points="114.17,-14.68 103.79,-16.81 113.23,-21.62 114.17,-14.68"/>
</a>
</g>
</g>
<!-- Node16&#45;&gt;Node13 -->
<g id="edge21_Node000016_Node000013" class="edge">
<title>Node16&#45;&gt;Node13</title>
<g id="a_edge21_Node000016_Node000013"><a xlink:title=" ">
<path fill="none" stroke="#63b8ff" d="M478.44,-54.98C509.88,-45.57 560.46,-30.42 593.72,-20.46"/>
<polygon fill="#63b8ff" stroke="#63b8ff" points="594.87,-23.77 603.45,-17.55 592.86,-17.07 594.87,-23.77"/>
</a>
</g>
</g>
<!-- Node17&#45;&gt;Node3 -->
<g id="edge29_Node000017_Node000003" class="edge">
<title>Node17&#45;&gt;Node3</title>
<g id="a_edge29_Node000017_Node000003"><a xlink:title=" ">
<path fill="none" stroke="#63b8ff" d="M615.35,-168.55C534.06,-162.23 395.43,-149.74 267.38,-129.06"/>
<polygon fill="#63b8ff" stroke="#63b8ff" points="267.83,-125.58 257.39,-127.42 266.7,-132.49 267.83,-125.58"/>
</a>
</g>
</g>
<!-- Node17&#45;&gt;Node4 -->
<g id="edge32_Node000017_Node000004" class="edge">
<title>Node17&#45;&gt;Node4</title>
<g id="a_edge32_Node000017_Node000004"><a xlink:title=" ">
<path fill="none" stroke="#63b8ff" d="M749.24,-164.96C810.09,-156.64 903.96,-143.2 985,-129 986.1,-128.81 987.21,-128.61 988.34,-128.4"/>
<polygon fill="#63b8ff" stroke="#63b8ff" points="989.4,-131.77 998.57,-126.46 988.09,-124.89 989.4,-131.77"/>
</a>
</g>
</g>
<!-- Node17&#45;&gt;Node5 -->
<g id="edge26_Node000017_Node000005" class="edge">
<title>Node17&#45;&gt;Node5</title>
<g id="a_edge26_Node000017_Node000005"><a xlink:title=" ">
<path fill="none" stroke="#63b8ff" d="M673.04,-164.91C644.51,-144.61 569.94,-92.52 504,-55 483.53,-43.35 459.57,-31.71 441.38,-23.26"/>
<polygon fill="#63b8ff" stroke="#63b8ff" points="442.73,-20.03 432.18,-19.03 439.8,-26.39 442.73,-20.03"/>
</a>
</g>
</g>
<!-- Node17&#45;&gt;Node8 -->
<g id="edge27_Node000017_Node000008" class="edge">
<title>Node17&#45;&gt;Node8</title>
<g id="a_edge27_Node000017_Node000008"><a xlink:title=" ">
<path fill="none" stroke="#63b8ff" d="M754.67,-167.63C809.35,-161.67 886.86,-150.18 952,-129 969.96,-123.16 972.37,-116.77 990,-110 1013.41,-101.01 1078.67,-83.86 1118.55,-73.67"/>
<polygon fill="#63b8ff" stroke="#63b8ff" points="1119.51,-77.04 1128.34,-71.18 1117.79,-70.26 1119.51,-77.04"/>
</a>
</g>
</g>
<!-- Node17&#45;&gt;Node9 -->
<g id="edge33_Node000017_Node000009" class="edge">
<title>Node17&#45;&gt;Node9</title>
<g id="a_edge33_Node000017_Node000009"><a xlink:title=" ">
<path fill="none" stroke="#63b8ff" d="M754.85,-169.66C786.97,-164.43 823.33,-153.08 848,-129 859.96,-117.33 864.46,-98.47 866.12,-84.33"/>
<polygon fill="#63b8ff" stroke="#63b8ff" points="869.62,-84.48 866.93,-74.23 862.64,-83.92 869.62,-84.48"/>
</a>
</g>
</g>
<!-- Node17&#45;&gt;Node12 -->
<g id="edge31_Node000017_Node000012" class="edge">
<title>Node17&#45;&gt;Node12</title>
<g id="a_edge31_Node000017_Node000012"><a xlink:title=" ">
<path fill="none" stroke="#63b8ff" d="M678.7,-164.66C665.89,-146.69 636.62,-105.64 620.04,-82.38"/>
<polygon fill="#63b8ff" stroke="#63b8ff" points="622.83,-80.27 614.17,-74.16 617.13,-84.33 622.83,-80.27"/>
</a>
</g>
</g>
<!-- Node17&#45;&gt;Node13 -->
<g id="edge28_Node000017_Node000013" class="edge">
<title>Node17&#45;&gt;Node13</title>
<g id="a_edge28_Node000017_Node000013"><a xlink:title=" ">
<path fill="none" stroke="#63b8ff" d="M681.88,-164.74C672.76,-139.09 645.96,-63.78 633.5,-28.78"/>
<polygon fill="#63b8ff" stroke="#63b8ff" points="636.78,-27.55 630.13,-19.31 630.19,-29.9 636.78,-27.55"/>
</a>
</g>
</g>
<!-- Node17&#45;&gt;Node15 -->
<g id="edge25_Node000017_Node000015" class="edge">
<title>Node17&#45;&gt;Node15</title>
<g id="a_edge25_Node000017_Node000015"><a xlink:title=" ">
<path fill="none" stroke="#63b8ff" d="M655.9,-164.94C590.32,-145.64 430.97,-98.74 356.97,-76.97"/>
<polygon fill="#63b8ff" stroke="#63b8ff" points="357.69,-73.53 347.11,-74.07 355.71,-80.25 357.69,-73.53"/>
</a>
</g>
</g>
<!-- Node17&#45;&gt;Node16 -->
<g id="edge34_Node000017_Node000016" class="edge">
<title>Node17&#45;&gt;Node16</title>
<g id="a_edge34_Node000017_Node000016"><a xlink:title=" ">
<path fill="none" stroke="#63b8ff" d="M666.17,-164.84C624.9,-145.88 526.33,-100.58 477.86,-78.31"/>
<polygon fill="#63b8ff" stroke="#63b8ff" points="479.15,-75.04 468.6,-74.05 476.22,-81.4 479.15,-75.04"/>
</a>
</g>
</g>
<!-- Node18 -->
<g id="Node000018" class="node">
<title>Node18</title>
<g id="a_Node000018"><a xlink:title=" ">
<polygon fill="#e0e0e0" stroke="#999999" points="943,-129 895,-129 895,-110 943,-110 943,-129"/>
<text text-anchor="middle" x="919" y="-117" font-family="Helvetica,sans-Serif" font-size="10.00">mutex</text>
</a>
</g>
</g>
<!-- Node17&#45;&gt;Node18 -->
<g id="edge30_Node000017_Node000018" class="edge">
<title>Node17&#45;&gt;Node18</title>
<g id="a_edge30_Node000017_Node000018"><a xlink:title=" ">
<path fill="none" stroke="#63b8ff" d="M722.6,-164.98C767.45,-154.83 841.78,-137.99 884.98,-128.2"/>
<polygon fill="#63b8ff" stroke="#63b8ff" points="885.77,-131.62 894.75,-125.99 884.22,-124.79 885.77,-131.62"/>
</a>
</g>
</g>
<!-- Node17&#45;&gt;Node19 -->
<g id="edge35_Node000017_Node000019" class="edge">
<title>Node17&#45;&gt;Node19</title>
<g id="a_edge35_Node000017_Node000019"><a xlink:title=" ">
<path fill="none" stroke="#63b8ff" d="M624.98,-164.98C562.52,-156.1 461.88,-141.71 375,-129 373.55,-128.79 372.07,-128.57 370.58,-128.35"/>
<polygon fill="#63b8ff" stroke="#63b8ff" points="371.04,-124.88 360.64,-126.88 370.02,-131.81 371.04,-124.88"/>
</a>
</g>
</g>
<!-- Node20 -->
<g id="Node000020" class="node">
<title>Node20</title>
<g id="a_Node000020"><a xlink:href="evaluate_8h.html" target="_top" xlink:title=" ">
<polygon fill="white" stroke="#666666" points="839,-129 721,-129 721,-110 839,-110 839,-129"/>
<text text-anchor="middle" x="780" y="-117" font-family="Helvetica,sans-Serif" font-size="10.00">Evaluator/evaluate.h</text>
</a>
</g>
</g>
<!-- Node17&#45;&gt;Node20 -->
<g id="edge38_Node000017_Node000020" class="edge">
<title>Node17&#45;&gt;Node20</title>
<g id="a_edge38_Node000017_Node000020"><a xlink:title=" ">
<path fill="none" stroke="#63b8ff" d="M700.26,-164.98C715.13,-156.69 737.98,-143.94 755.42,-134.22"/>
<polygon fill="#63b8ff" stroke="#63b8ff" points="757.43,-137.1 764.46,-129.17 754.02,-130.99 757.43,-137.1"/>
</a>
</g>
</g>
<!-- Node19&#45;&gt;Node5 -->
<g id="edge36_Node000019_Node000005" class="edge">
<title>Node19&#45;&gt;Node5</title>
<g id="a_edge36_Node000019_Node000005"><a xlink:title=" ">
<path fill="none" stroke="#63b8ff" d="M325.77,-109.66C341.72,-91.54 378.33,-49.91 398.69,-26.77"/>
<polygon fill="#63b8ff" stroke="#63b8ff" points="401.41,-28.98 405.38,-19.16 396.15,-24.36 401.41,-28.98"/>
</a>
</g>
</g>
<!-- Node19&#45;&gt;Node15 -->
<g id="edge37_Node000019_Node000015" class="edge">
<title>Node19&#45;&gt;Node15</title>
<g id="a_edge37_Node000019_Node000015"><a xlink:title=" ">
<path fill="none" stroke="#63b8ff" d="M318,-109.75C318,-102.8 318,-92.85 318,-84.13"/>
<polygon fill="#63b8ff" stroke="#63b8ff" points="321.5,-84.09 318,-74.09 314.5,-84.09 321.5,-84.09"/>
</a>
</g>
</g>
<!-- Node20&#45;&gt;Node5 -->
<g id="edge41_Node000020_Node000005" class="edge">
<title>Node20&#45;&gt;Node5</title>
<g id="a_edge41_Node000020_Node000005"><a xlink:title=" ">
<path fill="none" stroke="#63b8ff" d="M763.61,-109.85C737.35,-96.33 683.94,-70.15 636,-55 569.75,-34.06 489.2,-20.88 445.32,-14.69"/>
<polygon fill="#63b8ff" stroke="#63b8ff" points="445.63,-11.2 435.24,-13.3 444.67,-18.13 445.63,-11.2"/>
</a>
</g>
</g>
<!-- Node20&#45;&gt;Node6 -->
<g id="edge43_Node000020_Node000006" class="edge">
<title>Node20&#45;&gt;Node6</title>
<g id="a_edge43_Node000020_Node000006"><a xlink:title=" ">
<path fill="none" stroke="#63b8ff" d="M828.68,-109.98C891.75,-98.95 999.84,-80.05 1052.45,-70.84"/>
<polygon fill="#63b8ff" stroke="#63b8ff" points="1053.25,-74.26 1062.5,-69.09 1052.04,-67.36 1053.25,-74.26"/>
</a>
</g>
</g>
<!-- Node20&#45;&gt;Node8 -->
<g id="edge39_Node000020_Node000008" class="edge">
<title>Node20&#45;&gt;Node8</title>
<g id="a_edge39_Node000020_Node000008"><a xlink:title=" ">
<path fill="none" stroke="#63b8ff" d="M839.19,-112.17C905.96,-104.66 1017.68,-91 1113,-74 1114.69,-73.7 1116.42,-73.37 1118.17,-73.03"/>
<polygon fill="#63b8ff" stroke="#63b8ff" points="1119.08,-76.42 1128.16,-70.95 1117.65,-69.56 1119.08,-76.42"/>
</a>
</g>
</g>
<!-- Node20&#45;&gt;Node9 -->
<g id="edge42_Node000020_Node000009" class="edge">
<title>Node20&#45;&gt;Node9</title>
<g id="a_edge42_Node000020_Node000009"><a xlink:title=" ">
<path fill="none" stroke="#63b8ff" d="M793.98,-109.98C807.47,-101.77 828.13,-89.18 844.04,-79.49"/>
<polygon fill="#63b8ff" stroke="#63b8ff" points="846.05,-82.36 852.77,-74.17 842.41,-76.38 846.05,-82.36"/>
</a>
</g>
</g>
<!-- Node20&#45;&gt;Node12 -->
<g id="edge44_Node000020_Node000012" class="edge">
<title>Node20&#45;&gt;Node12</title>
<g id="a_edge44_Node000020_Node000012"><a xlink:title=" ">
<path fill="none" stroke="#63b8ff" d="M752.37,-109.98C720.66,-100.22 668.92,-84.27 636.75,-74.36"/>
<polygon fill="#63b8ff" stroke="#63b8ff" points="637.63,-70.97 627.05,-71.37 635.57,-77.66 637.63,-70.97"/>
</a>
</g>
</g>
<!-- Node20&#45;&gt;Node13 -->
<g id="edge40_Node000020_Node000013" class="edge">
<title>Node20&#45;&gt;Node13</title>
<g id="a_edge40_Node000020_Node000013"><a xlink:title=" ">
<path fill="none" stroke="#63b8ff" d="M771.06,-109.62C757.79,-96.7 731.75,-72.36 707,-55 690.19,-43.21 669.98,-31.99 654.07,-23.76"/>
<polygon fill="#63b8ff" stroke="#63b8ff" points="655.29,-20.46 644.79,-19.05 652.12,-26.7 655.29,-20.46"/>
</a>
</g>
</g>
<!-- Node20&#45;&gt;Node16 -->
<g id="edge45_Node000020_Node000016" class="edge">
<title>Node20&#45;&gt;Node16</title>
<g id="a_edge45_Node000020_Node000016"><a xlink:title=" ">
<path fill="none" stroke="#63b8ff" d="M726.98,-109.98C665.97,-100.19 566.29,-84.18 504.61,-74.27"/>
<polygon fill="#63b8ff" stroke="#63b8ff" points="505.11,-70.81 494.68,-72.68 504,-77.72 505.11,-70.81"/>
</a>
</g>
</g>
</g>
</svg>
