<?xml version="1.0" encoding="UTF-8" standalone="no"?>
<!DOCTYPE svg PUBLIC "-//W3C//DTD SVG 1.1//EN"
 "http://www.w3.org/Graphics/SVG/1.1/DTD/svg11.dtd">
<!-- Generated by graphviz version 2.43.0 (0)
 -->
<!-- Title: src/Drivers/driverModel.cpp Pages: 1 -->
<svg width="1224pt" height="357pt"
 viewBox="0.00 0.00 1224.00 357.00" xmlns="http://www.w3.org/2000/svg" xmlns:xlink="http://www.w3.org/1999/xlink">
<g id="graph0" class="graph" transform="scale(1 1) rotate(0) translate(4 353)">
<title>src/Drivers/driverModel.cpp</title>
<!-- Node1 -->
<g id="Node000001" class="node">
<title>Node1</title>
<g id="a_Node000001"><a xlink:title=" ">
<polygon fill="#999999" stroke="#666666" points="455.5,-349 304.5,-349 304.5,-330 455.5,-330 455.5,-349"/>
<text text-anchor="middle" x="380" y="-337" font-family="Helvetica,sans-Serif" font-size="10.00">src/Drivers/driverModel.cpp</text>
</a>
</g>
</g>
<!-- Node2 -->
<g id="Node000002" class="node">
<title>Node2</title>
<g id="a_Node000002"><a xlink:href="driverModel_8h.html" target="_top" xlink:title=" ">
<polygon fill="white" stroke="#666666" points="441,-294 319,-294 319,-275 441,-275 441,-294"/>
<text text-anchor="middle" x="380" y="-282" font-family="Helvetica,sans-Serif" font-size="10.00">Drivers/driverModel.h</text>
</a>
</g>
</g>
<!-- Node1&#45;&gt;Node2 -->
<g id="edge1_Node000001_Node000002" class="edge">
<title>Node1&#45;&gt;Node2</title>
<g id="a_edge1_Node000001_Node000002"><a xlink:title=" ">
<path fill="none" stroke="#63b8ff" d="M380,-329.75C380,-322.8 380,-312.85 380,-304.13"/>
<polygon fill="#63b8ff" stroke="#63b8ff" points="383.5,-304.09 380,-294.09 376.5,-304.09 383.5,-304.09"/>
</a>
</g>
</g>
<!-- Node3 -->
<g id="Node000003" class="node">
<title>Node3</title>
<g id="a_Node000003"><a xlink:title=" ">
<polygon fill="#e0e0e0" stroke="#999999" points="352,-129 294,-129 294,-110 352,-110 352,-129"/>
<text text-anchor="middle" x="323" y="-117" font-family="Helvetica,sans-Serif" font-size="10.00">memory</text>
</a>
</g>
</g>
<!-- Node2&#45;&gt;Node3 -->
<g id="edge2_Node000002_Node000003" class="edge">
<title>Node2&#45;&gt;Node3</title>
<g id="a_edge2_Node000002_Node000003"><a xlink:title=" ">
<path fill="none" stroke="#63b8ff" d="M376.94,-274.74C367.97,-249.09 341.63,-173.78 329.39,-138.78"/>
<polygon fill="#63b8ff" stroke="#63b8ff" points="332.68,-137.59 326.08,-129.31 326.08,-139.9 332.68,-137.59"/>
</a>
</g>
</g>
<!-- Node4 -->
<g id="Node000004" class="node">
<title>Node4</title>
<g id="a_Node000004"><a xlink:title=" ">
<polygon fill="#e0e0e0" stroke="#999999" points="464,-129 408,-129 408,-110 464,-110 464,-129"/>
<text text-anchor="middle" x="436" y="-117" font-family="Helvetica,sans-Serif" font-size="10.00">optional</text>
</a>
</g>
</g>
<!-- Node2&#45;&gt;Node4 -->
<g id="edge3_Node000002_Node000004" class="edge">
<title>Node2&#45;&gt;Node4</title>
<g id="a_edge3_Node000002_Node000004"><a xlink:title=" ">
<path fill="none" stroke="#63b8ff" d="M382.6,-274.84C386.31,-262.58 393.41,-239.49 400,-220 409.63,-191.52 421.67,-158.78 429.09,-138.87"/>
<polygon fill="#63b8ff" stroke="#63b8ff" points="432.47,-139.83 432.7,-129.24 425.91,-137.38 432.47,-139.83"/>
</a>
</g>
</g>
<!-- Node5 -->
<g id="Node000005" class="node">
<title>Node5</title>
<g id="a_Node000005"><a xlink:title=" ">
<polygon fill="#e0e0e0" stroke="#999999" points="978,-19 934,-19 934,0 978,0 978,-19"/>
<text text-anchor="middle" x="956" y="-7" font-family="Helvetica,sans-Serif" font-size="10.00">string</text>
</a>
</g>
</g>
<!-- Node2&#45;&gt;Node5 -->
<g id="edge4_Node000002_Node000005" class="edge">
<title>Node2&#45;&gt;Node5</title>
<g id="a_edge4_Node000002_Node000005"><a xlink:title=" ">
<path fill="none" stroke="#63b8ff" d="M441.13,-282.17C610.54,-278.18 1077.8,-264.92 1142,-239 1182.19,-222.77 1216,-218.84 1216,-175.5 1216,-175.5 1216,-175.5 1216,-118.5 1216,-21.07 1058.36,-9.89 988.58,-9.71"/>
<polygon fill="#63b8ff" stroke="#63b8ff" points="988.15,-6.21 978.17,-9.77 988.19,-13.21 988.15,-6.21"/>
</a>
</g>
</g>
<!-- Node6 -->
<g id="Node000006" class="node">
<title>Node6</title>
<g id="a_Node000006"><a xlink:title=" ">
<polygon fill="#e0e0e0" stroke="#999999" points="210.5,-74 169.5,-74 169.5,-55 210.5,-55 210.5,-74"/>
<text text-anchor="middle" x="190" y="-62" font-family="Helvetica,sans-Serif" font-size="10.00">tuple</text>
</a>
</g>
</g>
<!-- Node2&#45;&gt;Node6 -->
<g id="edge5_Node000002_Node000006" class="edge">
<title>Node2&#45;&gt;Node6</title>
<g id="a_edge5_Node000002_Node000006"><a xlink:title=" ">
<path fill="none" stroke="#63b8ff" d="M318.82,-275.39C272.87,-268.08 215.04,-255.88 198,-239 156.45,-197.84 173.26,-119.47 183.86,-83.89"/>
<polygon fill="#63b8ff" stroke="#63b8ff" points="187.21,-84.9 186.87,-74.31 180.53,-82.8 187.21,-84.9"/>
</a>
</g>
</g>
<!-- Node7 -->
<g id="Node000007" class="node">
<title>Node7</title>
<g id="a_Node000007"><a xlink:title=" ">
<polygon fill="#e0e0e0" stroke="#999999" points="122.5,-19 29.5,-19 29.5,0 122.5,0 122.5,-19"/>
<text text-anchor="middle" x="76" y="-7" font-family="Helvetica,sans-Serif" font-size="10.00">unordered_map</text>
</a>
</g>
</g>
<!-- Node2&#45;&gt;Node7 -->
<g id="edge6_Node000002_Node000007" class="edge">
<title>Node2&#45;&gt;Node7</title>
<g id="a_edge6_Node000002_Node000007"><a xlink:title=" ">
<path fill="none" stroke="#63b8ff" d="M318.95,-278.82C211.53,-268.88 0,-241 0,-175.5 0,-175.5 0,-175.5 0,-118.5 0,-79.47 33.61,-44.58 56.13,-25.6"/>
<polygon fill="#63b8ff" stroke="#63b8ff" points="58.56,-28.14 64.12,-19.12 54.15,-22.7 58.56,-28.14"/>
</a>
</g>
</g>
<!-- Node8 -->
<g id="Node000008" class="node">
<title>Node8</title>
<g id="a_Node000008"><a xlink:title=" ">
<polygon fill="#e0e0e0" stroke="#999999" points="393.5,-74 348.5,-74 348.5,-55 393.5,-55 393.5,-74"/>
<text text-anchor="middle" x="371" y="-62" font-family="Helvetica,sans-Serif" font-size="10.00">utility</text>
</a>
</g>
</g>
<!-- Node2&#45;&gt;Node8 -->
<g id="edge7_Node000002_Node000008" class="edge">
<title>Node2&#45;&gt;Node8</title>
<g id="a_edge7_Node000002_Node000008"><a xlink:title=" ">
<path fill="none" stroke="#63b8ff" d="M318.67,-274.96C276.91,-267.74 226.94,-255.87 214,-239 179.1,-193.51 179.43,-155.74 214,-110 228.96,-90.21 296.95,-76.67 338.39,-70.09"/>
<polygon fill="#63b8ff" stroke="#63b8ff" points="338.96,-73.54 348.31,-68.57 337.9,-66.62 338.96,-73.54"/>
</a>
</g>
</g>
<!-- Node9 -->
<g id="Node000009" class="node">
<title>Node9</title>
<g id="a_Node000009"><a xlink:title=" ">
<polygon fill="#e0e0e0" stroke="#999999" points="977.5,-74 912.5,-74 912.5,-55 977.5,-55 977.5,-74"/>
<text text-anchor="middle" x="945" y="-62" font-family="Helvetica,sans-Serif" font-size="10.00">functional</text>
</a>
</g>
</g>
<!-- Node2&#45;&gt;Node9 -->
<g id="edge8_Node000002_Node000009" class="edge">
<title>Node2&#45;&gt;Node9</title>
<g id="a_edge8_Node000002_Node000009"><a xlink:title=" ">
<path fill="none" stroke="#63b8ff" d="M426.67,-274.98C504.1,-260.24 663.52,-227.36 794,-184 852.76,-164.47 879.51,-174.04 922,-129 933.68,-116.62 939.51,-97.85 942.37,-83.93"/>
<polygon fill="#63b8ff" stroke="#63b8ff" points="945.83,-84.47 944.08,-74.02 938.93,-83.28 945.83,-84.47"/>
</a>
</g>
</g>
<!-- Node10 -->
<g id="Node000010" class="node">
<title>Node10</title>
<g id="a_Node000010"><a xlink:href="channel_8h.html" target="_top" xlink:title=" ">
<polygon fill="white" stroke="#666666" points="515.5,-239 408.5,-239 408.5,-220 515.5,-220 515.5,-239"/>
<text text-anchor="middle" x="462" y="-227" font-family="Helvetica,sans-Serif" font-size="10.00">Channel/channel.h</text>
</a>
</g>
</g>
<!-- Node2&#45;&gt;Node10 -->
<g id="edge9_Node000002_Node000010" class="edge">
<title>Node2&#45;&gt;Node10</title>
<g id="a_edge9_Node000002_Node000010"><a xlink:title=" ">
<path fill="none" stroke="#63b8ff" d="M393.17,-274.98C405.77,-266.84 425,-254.41 439.94,-244.76"/>
<polygon fill="#63b8ff" stroke="#63b8ff" points="442.09,-247.54 448.59,-239.17 438.29,-241.66 442.09,-247.54"/>
</a>
</g>
</g>
<!-- Node17 -->
<g id="Node000017" class="node">
<title>Node17</title>
<g id="a_Node000017"><a xlink:href="types_8h.html" target="_top" xlink:title=" ">
<polygon fill="white" stroke="#666666" points="605.5,-74 516.5,-74 516.5,-55 605.5,-55 605.5,-74"/>
<text text-anchor="middle" x="561" y="-62" font-family="Helvetica,sans-Serif" font-size="10.00">Library/types.h</text>
</a>
</g>
</g>
<!-- Node2&#45;&gt;Node17 -->
<g id="edge48_Node000002_Node000017" class="edge">
<title>Node2&#45;&gt;Node17</title>
<g id="a_edge48_Node000002_Node000017"><a xlink:title=" ">
<path fill="none" stroke="#63b8ff" d="M368.36,-274.8C333.92,-248.04 237.79,-165.43 285,-110 299.15,-93.39 429.56,-78.16 505.95,-70.57"/>
<polygon fill="#63b8ff" stroke="#63b8ff" points="506.74,-74.01 516.35,-69.55 506.06,-67.04 506.74,-74.01"/>
</a>
</g>
</g>
<!-- Node18 -->
<g id="Node000018" class="node">
<title>Node18</title>
<g id="a_Node000018"><a xlink:href="transaction_8h_source.html" target="_top" xlink:title=" ">
<polygon fill="white" stroke="#666666" points="759.5,-184 620.5,-184 620.5,-165 759.5,-165 759.5,-184"/>
<text text-anchor="middle" x="690" y="-172" font-family="Helvetica,sans-Serif" font-size="10.00">Transaction/transaction.h</text>
</a>
</g>
</g>
<!-- Node2&#45;&gt;Node18 -->
<g id="edge47_Node000002_Node000018" class="edge">
<title>Node2&#45;&gt;Node18</title>
<g id="a_edge47_Node000002_Node000018"><a xlink:title=" ">
<path fill="none" stroke="#63b8ff" d="M409.91,-274.98C439.37,-266.44 485.55,-252.63 525,-239 572.46,-222.61 626.63,-201.24 659.57,-187.94"/>
<polygon fill="#63b8ff" stroke="#63b8ff" points="661.12,-191.09 669.08,-184.09 658.49,-184.6 661.12,-191.09"/>
</a>
</g>
</g>
<!-- Node19 -->
<g id="Node000019" class="node">
<title>Node19</title>
<g id="a_Node000019"><a xlink:href="error_8h.html" target="_top" xlink:title=" ">
<polygon fill="white" stroke="#666666" points="1187.5,-129 1102.5,-129 1102.5,-110 1187.5,-110 1187.5,-129"/>
<text text-anchor="middle" x="1145" y="-117" font-family="Helvetica,sans-Serif" font-size="10.00">Library/error.h</text>
</a>
</g>
</g>
<!-- Node2&#45;&gt;Node19 -->
<g id="edge49_Node000002_Node000019" class="edge">
<title>Node2&#45;&gt;Node19</title>
<g id="a_edge49_Node000002_Node000019"><a xlink:title=" ">
<path fill="none" stroke="#63b8ff" d="M441.22,-284.02C609.55,-284.88 1070.23,-283.12 1121,-239 1149.43,-214.29 1149.8,-166 1147.47,-139.32"/>
<polygon fill="#63b8ff" stroke="#63b8ff" points="1150.91,-138.61 1146.35,-129.05 1143.96,-139.37 1150.91,-138.61"/>
</a>
</g>
</g>
<!-- Node10&#45;&gt;Node3 -->
<g id="edge11_Node000010_Node000003" class="edge">
<title>Node10&#45;&gt;Node3</title>
<g id="a_edge11_Node000010_Node000003"><a xlink:title=" ">
<path fill="none" stroke="#63b8ff" d="M450.42,-219.67C438.69,-210.72 420.05,-196.44 404,-184 382.79,-167.55 358.59,-148.55 342.21,-135.65"/>
<polygon fill="#63b8ff" stroke="#63b8ff" points="344,-132.6 333.98,-129.16 339.67,-138.1 344,-132.6"/>
</a>
</g>
</g>
<!-- Node10&#45;&gt;Node5 -->
<g id="edge13_Node000010_Node000005" class="edge">
<title>Node10&#45;&gt;Node5</title>
<g id="a_edge13_Node000010_Node000005"><a xlink:title=" ">
<path fill="none" stroke="#63b8ff" d="M515.51,-225.82C581.88,-221.47 698.01,-210.52 794,-184 889.17,-157.71 945.46,-163.57 987,-74 994.54,-57.75 983.39,-39.38 972.42,-26.59"/>
<polygon fill="#63b8ff" stroke="#63b8ff" points="974.81,-24.02 965.44,-19.08 969.68,-28.78 974.81,-24.02"/>
</a>
</g>
</g>
<!-- Node10&#45;&gt;Node6 -->
<g id="edge14_Node000010_Node000006" class="edge">
<title>Node10&#45;&gt;Node6</title>
<g id="a_edge14_Node000010_Node000006"><a xlink:title=" ">
<path fill="none" stroke="#63b8ff" d="M412.65,-219.94C382.43,-213.24 343.77,-201.97 313,-184 266.04,-156.58 223.25,-107.64 202.74,-82.08"/>
<polygon fill="#63b8ff" stroke="#63b8ff" points="205.39,-79.78 196.45,-74.09 199.89,-84.11 205.39,-79.78"/>
</a>
</g>
</g>
<!-- Node10&#45;&gt;Node7 -->
<g id="edge15_Node000010_Node000007" class="edge">
<title>Node10&#45;&gt;Node7</title>
<g id="a_edge15_Node000010_Node000007"><a xlink:title=" ">
<path fill="none" stroke="#63b8ff" d="M408.08,-225.73C357.24,-221.5 279.81,-210.85 218,-184 180.41,-167.67 171.21,-159.64 144,-129 116.14,-97.64 94.33,-53.06 83.5,-28.49"/>
<polygon fill="#63b8ff" stroke="#63b8ff" points="86.58,-26.82 79.43,-19.01 80.15,-29.58 86.58,-26.82"/>
</a>
</g>
</g>
<!-- Node10&#45;&gt;Node8 -->
<g id="edge17_Node000010_Node000008" class="edge">
<title>Node10&#45;&gt;Node8</title>
<g id="a_edge17_Node000010_Node000008"><a xlink:title=" ">
<path fill="none" stroke="#63b8ff" d="M425.13,-219.9C382.52,-207.74 314.48,-180.97 285,-129 270.19,-102.89 308.41,-84.43 338.57,-74.37"/>
<polygon fill="#63b8ff" stroke="#63b8ff" points="339.91,-77.62 348.4,-71.28 337.81,-70.94 339.91,-77.62"/>
</a>
</g>
</g>
<!-- Node11 -->
<g id="Node000011" class="node">
<title>Node11</title>
<g id="a_Node000011"><a xlink:title=" ">
<polygon fill="#e0e0e0" stroke="#999999" points="537.5,-184 484.5,-184 484.5,-165 537.5,-165 537.5,-184"/>
<text text-anchor="middle" x="511" y="-172" font-family="Helvetica,sans-Serif" font-size="10.00">iterator</text>
</a>
</g>
</g>
<!-- Node10&#45;&gt;Node11 -->
<g id="edge10_Node000010_Node000011" class="edge">
<title>Node10&#45;&gt;Node11</title>
<g id="a_edge10_Node000010_Node000011"><a xlink:title=" ">
<path fill="none" stroke="#63b8ff" d="M470.09,-219.75C477.16,-212.11 487.59,-200.82 496.15,-191.56"/>
<polygon fill="#63b8ff" stroke="#63b8ff" points="498.84,-193.81 503.06,-184.09 493.7,-189.06 498.84,-193.81"/>
</a>
</g>
</g>
<!-- Node12 -->
<g id="Node000012" class="node">
<title>Node12</title>
<g id="a_Node000012"><a xlink:title=" ">
<polygon fill="#e0e0e0" stroke="#999999" points="530,-129 482,-129 482,-110 530,-110 530,-129"/>
<text text-anchor="middle" x="506" y="-117" font-family="Helvetica,sans-Serif" font-size="10.00">mutex</text>
</a>
</g>
</g>
<!-- Node10&#45;&gt;Node12 -->
<g id="edge12_Node000010_Node000012" class="edge">
<title>Node10&#45;&gt;Node12</title>
<g id="a_edge12_Node000010_Node000012"><a xlink:title=" ">
<path fill="none" stroke="#63b8ff" d="M462.85,-219.97C464.32,-207.48 467.99,-183.68 476,-165 480.22,-155.17 486.68,-145.21 492.53,-137.21"/>
<polygon fill="#63b8ff" stroke="#63b8ff" points="495.43,-139.19 498.73,-129.12 489.87,-134.93 495.43,-139.19"/>
</a>
</g>
</g>
<!-- Node13 -->
<g id="Node000013" class="node">
<title>Node13</title>
<g id="a_Node000013"><a xlink:title=" ">
<polygon fill="#e0e0e0" stroke="#999999" points="827,-74 789,-74 789,-55 827,-55 827,-74"/>
<text text-anchor="middle" x="808" y="-62" font-family="Helvetica,sans-Serif" font-size="10.00">map</text>
</a>
</g>
</g>
<!-- Node10&#45;&gt;Node13 -->
<g id="edge16_Node000010_Node000013" class="edge">
<title>Node10&#45;&gt;Node13</title>
<g id="a_edge16_Node000010_Node000013"><a xlink:title=" ">
<path fill="none" stroke="#63b8ff" d="M515.54,-225.79C591.92,-221.08 727.54,-209.36 769,-184 794.56,-168.36 798.9,-157.55 808,-129 812.61,-114.54 812.26,-97.27 810.95,-84.39"/>
<polygon fill="#63b8ff" stroke="#63b8ff" points="814.41,-83.85 809.66,-74.39 807.47,-84.75 814.41,-83.85"/>
</a>
</g>
</g>
<!-- Node14 -->
<g id="Node000014" class="node">
<title>Node14</title>
<g id="a_Node000014"><a xlink:title=" ">
<polygon fill="#e0e0e0" stroke="#999999" points="620.5,-19 573.5,-19 573.5,0 620.5,0 620.5,-19"/>
<text text-anchor="middle" x="597" y="-7" font-family="Helvetica,sans-Serif" font-size="10.00">vector</text>
</a>
</g>
</g>
<!-- Node10&#45;&gt;Node14 -->
<g id="edge18_Node000010_Node000014" class="edge">
<title>Node10&#45;&gt;Node14</title>
<g id="a_edge18_Node000010_Node000014"><a xlink:title=" ">
<path fill="none" stroke="#63b8ff" d="M412.55,-219.96C307.71,-199.88 79.14,-144.52 160,-55 186.92,-25.2 465.31,-14.32 563.19,-11.39"/>
<polygon fill="#63b8ff" stroke="#63b8ff" points="563.52,-14.88 573.41,-11.09 563.32,-7.89 563.52,-14.88"/>
</a>
</g>
</g>
<!-- Node15 -->
<g id="Node000015" class="node">
<title>Node15</title>
<g id="a_Node000015"><a xlink:title=" ">
<polygon fill="#e0e0e0" stroke="#999999" points="602,-184 556,-184 556,-165 602,-165 602,-184"/>
<text text-anchor="middle" x="579" y="-172" font-family="Helvetica,sans-Serif" font-size="10.00">future</text>
</a>
</g>
</g>
<!-- Node10&#45;&gt;Node15 -->
<g id="edge19_Node000010_Node000015" class="edge">
<title>Node10&#45;&gt;Node15</title>
<g id="a_edge19_Node000010_Node000015"><a xlink:title=" ">
<path fill="none" stroke="#63b8ff" d="M480.8,-219.98C499.62,-211.46 528.82,-198.23 550.5,-188.41"/>
<polygon fill="#63b8ff" stroke="#63b8ff" points="552.2,-191.48 559.86,-184.17 549.31,-185.11 552.2,-191.48"/>
</a>
</g>
</g>
<!-- Node16 -->
<g id="Node000016" class="node">
<title>Node16</title>
<g id="a_Node000016"><a xlink:title=" ">
<polygon fill="#e0e0e0" stroke="#999999" points="1120,-74 1060,-74 1060,-55 1120,-55 1120,-74"/>
<text text-anchor="middle" x="1090" y="-62" font-family="Helvetica,sans-Serif" font-size="10.00">iostream</text>
</a>
</g>
</g>
<!-- Node10&#45;&gt;Node16 -->
<g id="edge20_Node000010_Node000016" class="edge">
<title>Node10&#45;&gt;Node16</title>
<g id="a_edge20_Node000010_Node000016"><a xlink:title=" ">
<path fill="none" stroke="#63b8ff" d="M515.74,-227.64C651.99,-225.02 1003.18,-215.27 1045,-184 1076.77,-160.25 1086.11,-111.2 1088.86,-84.25"/>
<polygon fill="#63b8ff" stroke="#63b8ff" points="1092.35,-84.44 1089.68,-74.19 1085.38,-83.87 1092.35,-84.44"/>
</a>
</g>
</g>
<!-- Node10&#45;&gt;Node17 -->
<g id="edge21_Node000010_Node000017" class="edge">
<title>Node10&#45;&gt;Node17</title>
<g id="a_edge21_Node000010_Node000017"><a xlink:title=" ">
<path fill="none" stroke="#63b8ff" d="M454.92,-219.94C435.57,-196.09 384.24,-129.36 399,-110 412.11,-92.8 464.38,-80.6 506.05,-73.37"/>
<polygon fill="#63b8ff" stroke="#63b8ff" points="506.83,-76.79 516.11,-71.69 505.67,-69.89 506.83,-76.79"/>
</a>
</g>
</g>
<!-- Node10&#45;&gt;Node18 -->
<g id="edge25_Node000010_Node000018" class="edge">
<title>Node10&#45;&gt;Node18</title>
<g id="a_edge25_Node000010_Node000018"><a xlink:title=" ">
<path fill="none" stroke="#63b8ff" d="M498.63,-219.98C537.91,-210.86 600.37,-196.33 643.19,-186.38"/>
<polygon fill="#63b8ff" stroke="#63b8ff" points="644.13,-189.76 653.08,-184.08 642.55,-182.94 644.13,-189.76"/>
</a>
</g>
</g>
<!-- Node17&#45;&gt;Node5 -->
<g id="edge24_Node000017_Node000005" class="edge">
<title>Node17&#45;&gt;Node5</title>
<g id="a_edge24_Node000017_Node000005"><a xlink:title=" ">
<path fill="none" stroke="#63b8ff" d="M605.54,-57.52C685.95,-46.73 853.53,-24.25 923.84,-14.81"/>
<polygon fill="#63b8ff" stroke="#63b8ff" points="924.43,-18.27 933.88,-13.47 923.5,-11.33 924.43,-18.27"/>
</a>
</g>
</g>
<!-- Node17&#45;&gt;Node7 -->
<g id="edge23_Node000017_Node000007" class="edge">
<title>Node17&#45;&gt;Node7</title>
<g id="a_edge23_Node000017_Node000007"><a xlink:title=" ">
<path fill="none" stroke="#63b8ff" d="M516.24,-58.61C427.68,-48.93 230.27,-27.36 132.75,-16.7"/>
<polygon fill="#63b8ff" stroke="#63b8ff" points="133.1,-13.22 122.78,-15.61 132.34,-20.18 133.1,-13.22"/>
</a>
</g>
</g>
<!-- Node17&#45;&gt;Node14 -->
<g id="edge22_Node000017_Node000014" class="edge">
<title>Node17&#45;&gt;Node14</title>
<g id="a_edge22_Node000017_Node000014"><a xlink:title=" ">
<path fill="none" stroke="#63b8ff" d="M566.94,-54.75C571.98,-47.34 579.34,-36.5 585.51,-27.41"/>
<polygon fill="#63b8ff" stroke="#63b8ff" points="588.44,-29.33 591.17,-19.09 582.65,-25.39 588.44,-29.33"/>
</a>
</g>
</g>
<!-- Node18&#45;&gt;Node3 -->
<g id="edge31_Node000018_Node000003" class="edge">
<title>Node18&#45;&gt;Node3</title>
<g id="a_edge31_Node000018_Node000003"><a xlink:title=" ">
<path fill="none" stroke="#63b8ff" d="M631.04,-164.98C555.6,-154.09 427.01,-135.52 362.45,-126.2"/>
<polygon fill="#63b8ff" stroke="#63b8ff" points="362.68,-122.69 352.28,-124.73 361.68,-129.62 362.68,-122.69"/>
</a>
</g>
</g>
<!-- Node18&#45;&gt;Node4 -->
<g id="edge33_Node000018_Node000004" class="edge">
<title>Node18&#45;&gt;Node4</title>
<g id="a_edge33_Node000018_Node000004"><a xlink:title=" ">
<path fill="none" stroke="#63b8ff" d="M646.71,-164.93C605,-156.61 539.88,-143.44 474.36,-129.26"/>
<polygon fill="#63b8ff" stroke="#63b8ff" points="474.78,-125.77 464.27,-127.07 473.3,-132.61 474.78,-125.77"/>
</a>
</g>
</g>
<!-- Node18&#45;&gt;Node5 -->
<g id="edge28_Node000018_Node000005" class="edge">
<title>Node18&#45;&gt;Node5</title>
<g id="a_edge28_Node000018_Node000005"><a xlink:title=" ">
<path fill="none" stroke="#63b8ff" d="M720.25,-164.99C744.81,-157.41 779.85,-145.04 808,-129 835.43,-113.37 904.87,-54.61 937.95,-26.15"/>
<polygon fill="#63b8ff" stroke="#63b8ff" points="940.6,-28.48 945.89,-19.29 936.03,-23.18 940.6,-28.48"/>
</a>
</g>
</g>
<!-- Node18&#45;&gt;Node8 -->
<g id="edge29_Node000018_Node000008" class="edge">
<title>Node18&#45;&gt;Node8</title>
<g id="a_edge29_Node000018_Node000008"><a xlink:title=" ">
<path fill="none" stroke="#63b8ff" d="M671.72,-164.84C643.64,-151.75 587.99,-126.7 539,-110 492.67,-94.21 437.6,-80.56 403.47,-72.68"/>
<polygon fill="#63b8ff" stroke="#63b8ff" points="404.11,-69.24 393.58,-70.43 402.55,-76.06 404.11,-69.24"/>
</a>
</g>
</g>
<!-- Node18&#45;&gt;Node9 -->
<g id="edge34_Node000018_Node000009" class="edge">
<title>Node18&#45;&gt;Node9</title>
<g id="a_edge34_Node000018_Node000009"><a xlink:title=" ">
<path fill="none" stroke="#63b8ff" d="M759.8,-170.92C802.59,-166.48 856.86,-155.49 898,-129 915.43,-117.78 928.66,-97.67 936.57,-83.09"/>
<polygon fill="#63b8ff" stroke="#63b8ff" points="939.76,-84.55 941.19,-74.05 933.52,-81.36 939.76,-84.55"/>
</a>
</g>
</g>
<!-- Node18&#45;&gt;Node12 -->
<g id="edge27_Node000018_Node000012" class="edge">
<title>Node18&#45;&gt;Node12</title>
<g id="a_edge27_Node000018_Node000012"><a xlink:title=" ">
<path fill="none" stroke="#63b8ff" d="M660.44,-164.98C627.52,-155.5 574.42,-140.21 539.86,-130.25"/>
<polygon fill="#63b8ff" stroke="#63b8ff" points="540.78,-126.88 530.2,-127.47 538.84,-133.6 540.78,-126.88"/>
</a>
</g>
</g>
<!-- Node18&#45;&gt;Node13 -->
<g id="edge32_Node000018_Node000013" class="edge">
<title>Node18&#45;&gt;Node13</title>
<g id="a_edge32_Node000018_Node000013"><a xlink:title=" ">
<path fill="none" stroke="#63b8ff" d="M727.58,-164.86C748.35,-158.27 773.1,-147.14 789,-129 799.78,-116.69 804.45,-98.47 806.47,-84.7"/>
<polygon fill="#63b8ff" stroke="#63b8ff" points="809.98,-84.73 807.61,-74.4 803.03,-83.95 809.98,-84.73"/>
</a>
</g>
</g>
<!-- Node18&#45;&gt;Node14 -->
<g id="edge30_Node000018_Node000014" class="edge">
<title>Node18&#45;&gt;Node14</title>
<g id="a_edge30_Node000018_Node000014"><a xlink:title=" ">
<path fill="none" stroke="#63b8ff" d="M681.64,-164.81C673.63,-156.2 661.53,-142.39 653,-129 641.67,-111.23 617.41,-57.12 604.87,-28.58"/>
<polygon fill="#63b8ff" stroke="#63b8ff" points="608.04,-27.09 600.83,-19.33 601.63,-29.9 608.04,-27.09"/>
</a>
</g>
</g>
<!-- Node18&#45;&gt;Node16 -->
<g id="edge26_Node000018_Node000016" class="edge">
<title>Node18&#45;&gt;Node16</title>
<g id="a_edge26_Node000018_Node000016"><a xlink:title=" ">
<path fill="none" stroke="#63b8ff" d="M749.78,-164.93C797.02,-157.47 864.38,-145.29 922,-129 972.03,-114.86 1028.17,-92.2 1061.22,-78.12"/>
<polygon fill="#63b8ff" stroke="#63b8ff" points="1062.9,-81.2 1070.71,-74.04 1060.14,-74.77 1062.9,-81.2"/>
</a>
</g>
</g>
<!-- Node18&#45;&gt;Node17 -->
<g id="edge35_Node000018_Node000017" class="edge">
<title>Node18&#45;&gt;Node17</title>
<g id="a_edge35_Node000018_Node000017"><a xlink:title=" ">
<path fill="none" stroke="#63b8ff" d="M673.92,-164.85C659.2,-156.58 637.16,-143.28 620,-129 602.92,-114.78 585.92,-95.84 574.58,-82.36"/>
<polygon fill="#63b8ff" stroke="#63b8ff" points="577.07,-79.87 568.01,-74.38 571.67,-84.33 577.07,-79.87"/>
</a>
</g>
</g>
<!-- Node18&#45;&gt;Node19 -->
<g id="edge36_Node000018_Node000019" class="edge">
<title>Node18&#45;&gt;Node19</title>
<g id="a_edge36_Node000018_Node000019"><a xlink:title=" ">
<path fill="none" stroke="#63b8ff" d="M759.6,-165.39C851.15,-154.73 1010.03,-136.22 1092.28,-126.64"/>
<polygon fill="#63b8ff" stroke="#63b8ff" points="1092.87,-130.1 1102.4,-125.46 1092.06,-123.14 1092.87,-130.1"/>
</a>
</g>
</g>
<!-- Node20 -->
<g id="Node000020" class="node">
<title>Node20</title>
<g id="a_Node000020"><a xlink:href="evaluate_8h.html" target="_top" xlink:title=" ">
<polygon fill="white" stroke="#666666" points="780,-129 662,-129 662,-110 780,-110 780,-129"/>
<text text-anchor="middle" x="721" y="-117" font-family="Helvetica,sans-Serif" font-size="10.00">Evaluator/evaluate.h</text>
</a>
</g>
</g>
<!-- Node18&#45;&gt;Node20 -->
<g id="edge39_Node000018_Node000020" class="edge">
<title>Node18&#45;&gt;Node20</title>
<g id="a_edge39_Node000018_Node000020"><a xlink:title=" ">
<path fill="none" stroke="#63b8ff" d="M695.12,-164.75C699.36,-157.49 705.53,-146.95 710.78,-137.98"/>
<polygon fill="#63b8ff" stroke="#63b8ff" points="713.95,-139.49 715.98,-129.09 707.91,-135.95 713.95,-139.49"/>
</a>
</g>
</g>
<!-- Node19&#45;&gt;Node5 -->
<g id="edge37_Node000019_Node000005" class="edge">
<title>Node19&#45;&gt;Node5</title>
<g id="a_edge37_Node000019_Node000005"><a xlink:title=" ">
<path fill="none" stroke="#63b8ff" d="M1145.42,-109.78C1145.57,-96.15 1143.76,-69.83 1129,-55 1109.41,-35.31 1032.52,-21.39 988.12,-14.8"/>
<polygon fill="#63b8ff" stroke="#63b8ff" points="988.51,-11.32 978.12,-13.36 987.51,-18.25 988.51,-11.32"/>
</a>
</g>
</g>
<!-- Node19&#45;&gt;Node16 -->
<g id="edge38_Node000019_Node000016" class="edge">
<title>Node19&#45;&gt;Node16</title>
<g id="a_edge38_Node000019_Node000016"><a xlink:title=" ">
<path fill="none" stroke="#63b8ff" d="M1135.92,-109.75C1127.91,-102.03 1116.04,-90.6 1106.38,-81.28"/>
<polygon fill="#63b8ff" stroke="#63b8ff" points="1108.54,-78.51 1098.91,-74.09 1103.69,-83.55 1108.54,-78.51"/>
</a>
</g>
</g>
<!-- Node20&#45;&gt;Node5 -->
<g id="edge42_Node000020_Node000005" class="edge">
<title>Node20&#45;&gt;Node5</title>
<g id="a_edge42_Node000020_Node000005"><a xlink:title=" ">
<path fill="none" stroke="#63b8ff" d="M726.72,-109.61C736.12,-95.74 756.18,-69.11 780,-55 825.41,-28.1 886.73,-17.35 923.7,-13.13"/>
<polygon fill="#63b8ff" stroke="#63b8ff" points="924.32,-16.59 933.9,-12.07 923.6,-9.62 924.32,-16.59"/>
</a>
</g>
</g>
<!-- Node20&#45;&gt;Node6 -->
<g id="edge44_Node000020_Node000006" class="edge">
<title>Node20&#45;&gt;Node6</title>
<g id="a_edge44_Node000020_Node000006"><a xlink:title=" ">
<path fill="none" stroke="#63b8ff" d="M661.89,-112.6C548.99,-101.33 306.3,-77.11 220.67,-68.56"/>
<polygon fill="#63b8ff" stroke="#63b8ff" points="220.87,-65.06 210.57,-67.55 220.17,-72.03 220.87,-65.06"/>
</a>
</g>
</g>
<!-- Node20&#45;&gt;Node8 -->
<g id="edge40_Node000020_Node000008" class="edge">
<title>Node20&#45;&gt;Node8</title>
<g id="a_edge40_Node000020_Node000008"><a xlink:title=" ">
<path fill="none" stroke="#63b8ff" d="M664.77,-109.98C590.94,-98.8 463.71,-79.54 403.89,-70.48"/>
<polygon fill="#63b8ff" stroke="#63b8ff" points="404.29,-67 393.87,-68.96 403.24,-73.92 404.29,-67"/>
</a>
</g>
</g>
<!-- Node20&#45;&gt;Node9 -->
<g id="edge43_Node000020_Node000009" class="edge">
<title>Node20&#45;&gt;Node9</title>
<g id="a_edge43_Node000020_Node000009"><a xlink:title=" ">
<path fill="none" stroke="#63b8ff" d="M756.99,-109.98C796.63,-100.6 860.34,-85.53 902.43,-75.57"/>
<polygon fill="#63b8ff" stroke="#63b8ff" points="903.45,-78.93 912.38,-73.22 901.84,-72.12 903.45,-78.93"/>
</a>
</g>
</g>
<!-- Node20&#45;&gt;Node13 -->
<g id="edge45_Node000020_Node000013" class="edge">
<title>Node20&#45;&gt;Node13</title>
<g id="a_edge45_Node000020_Node000013"><a xlink:title=" ">
<path fill="none" stroke="#63b8ff" d="M734.98,-109.98C748.47,-101.77 769.13,-89.18 785.04,-79.49"/>
<polygon fill="#63b8ff" stroke="#63b8ff" points="787.05,-82.36 793.77,-74.17 783.41,-76.38 787.05,-82.36"/>
</a>
</g>
</g>
<!-- Node20&#45;&gt;Node14 -->
<g id="edge41_Node000020_Node000014" class="edge">
<title>Node20&#45;&gt;Node14</title>
<g id="a_edge41_Node000020_Node000014"><a xlink:title=" ">
<path fill="none" stroke="#63b8ff" d="M710.85,-109.66C689.77,-91.3 640.99,-48.81 614.64,-25.87"/>
<polygon fill="#63b8ff" stroke="#63b8ff" points="616.78,-23.09 606.94,-19.16 612.18,-28.37 616.78,-23.09"/>
</a>
</g>
</g>
<!-- Node20&#45;&gt;Node17 -->
<g id="edge46_Node000020_Node000017" class="edge">
<title>Node20&#45;&gt;Node17</title>
<g id="a_edge46_Node000020_Node000017"><a xlink:title=" ">
<path fill="none" stroke="#63b8ff" d="M695.29,-109.98C668.55,-101.13 626.47,-87.19 596.55,-77.28"/>
<polygon fill="#63b8ff" stroke="#63b8ff" points="597.5,-73.9 586.91,-74.08 595.3,-80.55 597.5,-73.9"/>
</a>
</g>
</g>
</g>
</svg>
