<?xml version="1.0" encoding="UTF-8" standalone="no"?>
<!DOCTYPE svg PUBLIC "-//W3C//DTD SVG 1.1//EN"
 "http://www.w3.org/Graphics/SVG/1.1/DTD/svg11.dtd">
<!-- Generated by graphviz version 2.43.0 (0)
 -->
<!-- Title: include/Drivers/driverModel.h Pages: 1 -->
<!--zoomable 544 -->

<svg id="main" version="1.1" xmlns="http://www.w3.org/2000/svg" xmlns:xlink="http://www.w3.org/1999/xlink" xml:space="preserve" onload="init(evt)">
<style type="text/css"><![CDATA[
.node, .edge {opacity: 0.7;}
.node.selected, .edge.selected {opacity: 1;}
.edge:hover path { stroke: red; }
.edge:hover polygon { stroke: red; fill: red; }
]]></style>

<defs>
  <circle id="rim" cx="0" cy="0" r="7"/>
  <circle id="rim2" cx="0" cy="0" r="3.5"/>
  <g id="zoomPlus">
    <use xlink:href="#rim" fill="#404040"><set attributeName="fill" to="#808080" begin="zoomplus.mouseover" end="zoomplus.mouseout"/></use>
    <path d="M-4,0h8M0,-4v8" fill="none" stroke="white" stroke-width="1.5" pointer-events="none"/>
  </g>
  <g id="zoomMin">
    <use xlink:href="#rim" fill="#404040"><set attributeName="fill" to="#808080" begin="zoomminus.mouseover" end="zoomminus.mouseout"/></use>
    <path d="M-4,0h8" fill="none" stroke="white" stroke-width="1.5" pointer-events="none"/>
  </g>
  <g id="arrowUp" transform="translate(30 24)">
    <use xlink:href="#rim"/>
    <path pointer-events="none" fill="none" stroke="white" stroke-width="1.5" d="M0,-3.0v7 M-2.5,-0.5L0,-3.0L2.5,-0.5"/>
  </g>
  <g id="arrowRight" transform="rotate(90) translate(36 -43)">
    <use xlink:href="#rim"/>
    <path pointer-events="none" fill="none" stroke="white" stroke-width="1.5" d="M0,-3.0v7 M-2.5,-0.5L0,-3.0L2.5,-0.5"/>
  </g>
  <g id="arrowDown" transform="rotate(180) translate(-30 -48)">
    <use xlink:href="#rim"/>
    <path pointer-events="none" fill="none" stroke="white" stroke-width="1.5" d="M0,-3.0v7 M-2.5,-0.5L0,-3.0L2.5,-0.5"/>
  </g>
  <g id="arrowLeft" transform="rotate(270) translate(-36 17)">
    <use xlink:href="#rim"/>
    <path pointer-events="none" fill="none" stroke="white" stroke-width="1.5" d="M0,-3.0v7 M-2.5,-0.5L0,-3.0L2.5,-0.5"/>
  </g>
  <g id="resetDef">
    <use xlink:href="#rim2" fill="#404040"><set attributeName="fill" to="#808080" begin="reset.mouseover" end="reset.mouseout"/></use>
  </g>
</defs>
<script type="application/ecmascript">
var viewWidth = 1041;
var viewHeight = 544;
var sectionId = 'dynsection-1';
</script>
<script type="application/ecmascript" xlink:href="svg.min.js"/>
<svg id="graph" class="graph">
<g id="viewport">
<title>include/Drivers/driverModel.h</title>
<!-- Node1 -->
<g id="Node000001" class="node">
<title>Node1</title>
<g id="a_Node000001"><a xlink:title=" ">
<polygon fill="#999999" stroke="#666666" points="719.5,-536 558.5,-536 558.5,-517 719.5,-517 719.5,-536"/>
<text text-anchor="middle" x="639" y="-524" font-family="Helvetica,sans-Serif" font-size="10.00">include/Drivers/driverModel.h</text>
</a>
</g>
</g>
<!-- Node2 -->
<g id="Node000002" class="node">
<title>Node2</title>
<g id="a_Node000002"><a xlink:href="driver_8h.html" target="_top" xlink:title=" ">
<polygon fill="white" stroke="#666666" points="608,-184 478,-184 478,-165 608,-165 608,-184"/>
<text text-anchor="middle" x="543" y="-172" font-family="Helvetica,sans-Serif" font-size="10.00">include/Drivers/driver.h</text>
</a>
</g>
</g>
<!-- Node1&#45;&gt;Node2 -->
<g id="edge1_Node000001_Node000002" class="edge">
<title>Node1&#45;&gt;Node2</title>
<g id="a_edge1_Node000001_Node000002"><a xlink:title=" ">
<path fill="none" stroke="#63b8ff" d="M648.69,-507.88C670.46,-465.82 718.63,-356.92 683,-275 661.83,-226.33 602.42,-197.24 568.17,-184.03"/>
<polygon fill="#63b8ff" stroke="#63b8ff" points="645.52,-506.4 643.91,-516.87 651.7,-509.69 645.52,-506.4"/>
</a>
</g>
</g>
<!-- Node4 -->
<g id="Node000004" class="node">
<title>Node4</title>
<g id="a_Node000004"><a xlink:href="mlvp_8h.html" target="_top" xlink:title=" ">
<polygon fill="white" stroke="#666666" points="496.5,-74 407.5,-74 407.5,-55 496.5,-55 496.5,-74"/>
<text text-anchor="middle" x="452" y="-62" font-family="Helvetica,sans-Serif" font-size="10.00">include/mlvp.h</text>
</a>
</g>
</g>
<!-- Node1&#45;&gt;Node4 -->
<g id="edge34_Node000001_Node000004" class="edge">
<title>Node1&#45;&gt;Node4</title>
<g id="a_edge34_Node000001_Node000004"><a xlink:title=" ">
<path fill="none" stroke="#63b8ff" d="M721.98,-514.99C782.15,-502.18 853,-473.95 853,-412 853,-412 853,-412 853,-173.5 853,-100.41 601.47,-75.35 496.83,-68.09"/>
<polygon fill="#63b8ff" stroke="#63b8ff" points="721.16,-511.59 712.05,-516.99 722.54,-518.45 721.16,-511.59"/>
</a>
</g>
</g>
<!-- Node8 -->
<g id="Node000008" class="node">
<title>Node8</title>
<g id="a_Node000008"><a xlink:href="dutDriver_8h.html" target="_top" xlink:title=" ">
<polygon fill="white" stroke="#666666" points="674.5,-294 527.5,-294 527.5,-275 674.5,-275 674.5,-294"/>
<text text-anchor="middle" x="601" y="-282" font-family="Helvetica,sans-Serif" font-size="10.00">include/Drivers/dutDriver.h</text>
</a>
</g>
</g>
<!-- Node1&#45;&gt;Node8 -->
<g id="edge8_Node000001_Node000008" class="edge">
<title>Node1&#45;&gt;Node8</title>
<g id="a_edge8_Node000001_Node000008"><a xlink:title=" ">
<path fill="none" stroke="#63b8ff" d="M636.06,-506.93C628.37,-458.36 607.88,-328.94 602.38,-294.19"/>
<polygon fill="#63b8ff" stroke="#63b8ff" points="632.63,-507.63 637.65,-516.96 639.54,-506.53 632.63,-507.63"/>
</a>
</g>
</g>
<!-- Node9 -->
<g id="Node000009" class="node">
<title>Node9</title>
<g id="a_Node000009"><a xlink:href="refDriver_8h.html" target="_top" xlink:title=" ">
<polygon fill="white" stroke="#666666" points="404.5,-239 259.5,-239 259.5,-220 404.5,-220 404.5,-239"/>
<text text-anchor="middle" x="332" y="-227" font-family="Helvetica,sans-Serif" font-size="10.00">include/Drivers/refDriver.h</text>
</a>
</g>
</g>
<!-- Node1&#45;&gt;Node9 -->
<g id="edge16_Node000001_Node000009" class="edge">
<title>Node1&#45;&gt;Node9</title>
<g id="a_edge16_Node000001_Node000009"><a xlink:title=" ">
<path fill="none" stroke="#63b8ff" d="M548.07,-523.45C402.91,-517.69 135,-495.7 135,-412 135,-412 135,-412 135,-344 135,-279.56 215.11,-251.15 273.16,-239.02"/>
<polygon fill="#63b8ff" stroke="#63b8ff" points="548.18,-526.96 558.3,-523.84 548.44,-519.96 548.18,-526.96"/>
</a>
</g>
</g>
<!-- Node12 -->
<g id="Node000012" class="node">
<title>Node12</title>
<g id="a_Node000012"><a xlink:href="simulatorDriver_8h.html" target="_top" xlink:title=" ">
<polygon fill="white" stroke="#666666" points="405,-426 265,-426 265,-396 405,-396 405,-426"/>
<text text-anchor="start" x="273" y="-414" font-family="Helvetica,sans-Serif" font-size="10.00">include/Drivers/simulator</text>
<text text-anchor="middle" x="335" y="-403" font-family="Helvetica,sans-Serif" font-size="10.00">Driver.h</text>
</a>
</g>
</g>
<!-- Node1&#45;&gt;Node12 -->
<g id="edge17_Node000001_Node000012" class="edge">
<title>Node1&#45;&gt;Node12</title>
<g id="a_edge17_Node000001_Node000012"><a xlink:title=" ">
<path fill="none" stroke="#63b8ff" d="M548.24,-520.94C502.8,-515.59 448.2,-504.36 404,-481 378.84,-467.7 356.99,-442.14 344.93,-426.14"/>
<polygon fill="#63b8ff" stroke="#63b8ff" points="548.07,-524.44 558.39,-522.05 548.83,-517.48 548.07,-524.44"/>
</a>
</g>
</g>
<!-- Node13 -->
<g id="Node000013" class="node">
<title>Node13</title>
<g id="a_Node000013"><a xlink:href="transDriverModel_8h.html" target="_top" xlink:title=" ">
<polygon fill="white" stroke="#666666" points="573,-360 425,-360 425,-330 573,-330 573,-360"/>
<text text-anchor="start" x="433" y="-348" font-family="Helvetica,sans-Serif" font-size="10.00">include/Drivers/transDriver</text>
<text text-anchor="middle" x="499" y="-337" font-family="Helvetica,sans-Serif" font-size="10.00">Model.h</text>
</a>
</g>
</g>
<!-- Node1&#45;&gt;Node13 -->
<g id="edge28_Node000001_Node000013" class="edge">
<title>Node1&#45;&gt;Node13</title>
<g id="a_edge28_Node000001_Node000013"><a xlink:title=" ">
<path fill="none" stroke="#63b8ff" d="M632.44,-506.99C621.03,-475.54 597.31,-413.4 582,-396 568.44,-380.59 548.96,-368.51 532.27,-360.09"/>
<polygon fill="#63b8ff" stroke="#63b8ff" points="629.25,-508.47 635.92,-516.71 635.84,-506.11 629.25,-508.47"/>
</a>
</g>
</g>
<!-- Node16 -->
<g id="Node000016" class="node">
<title>Node16</title>
<g id="a_Node000016"><a xlink:href="ref_8h.html" target="_top" xlink:title=" ">
<polygon fill="white" stroke="#666666" points="824.5,-420.5 705.5,-420.5 705.5,-401.5 824.5,-401.5 824.5,-420.5"/>
<text text-anchor="middle" x="765" y="-408.5" font-family="Helvetica,sans-Serif" font-size="10.00">include/RefPack/ref.h</text>
</a>
</g>
</g>
<!-- Node1&#45;&gt;Node16 -->
<g id="edge29_Node000001_Node000016" class="edge">
<title>Node1&#45;&gt;Node16</title>
<g id="a_edge29_Node000001_Node000016"><a xlink:title=" ">
<path fill="none" stroke="#63b8ff" d="M657.21,-510.24C667.27,-501.74 679.92,-490.9 691,-481 714.84,-459.7 742.19,-433.81 756,-420.62"/>
<polygon fill="#63b8ff" stroke="#63b8ff" points="654.86,-507.64 649.47,-516.76 659.37,-513 654.86,-507.64"/>
</a>
</g>
</g>
<!-- Node17 -->
<g id="Node000017" class="node">
<title>Node17</title>
<g id="a_Node000017"><a xlink:href="simulator_8h.html" target="_top" xlink:title=" ">
<polygon fill="white" stroke="#666666" points="573,-481 413,-481 413,-462 573,-462 573,-481"/>
<text text-anchor="middle" x="493" y="-469" font-family="Helvetica,sans-Serif" font-size="10.00">include/Simulator/simulator.h</text>
</a>
</g>
</g>
<!-- Node1&#45;&gt;Node17 -->
<g id="edge31_Node000001_Node000017" class="edge">
<title>Node1&#45;&gt;Node17</title>
<g id="a_edge31_Node000001_Node000017"><a xlink:title=" ">
<path fill="none" stroke="#63b8ff" d="M606.08,-513.55C578.97,-503.71 541.17,-489.98 516.88,-481.17"/>
<polygon fill="#63b8ff" stroke="#63b8ff" points="604.95,-516.86 615.54,-516.98 607.34,-510.28 604.95,-516.86"/>
</a>
</g>
</g>
<!-- Node19 -->
<g id="Node000019" class="node">
<title>Node19</title>
<g id="a_Node000019"><a xlink:href="driverModel_8cpp.html" target="_top" xlink:title=" ">
<polygon fill="white" stroke="#666666" points="1032.5,-481 881.5,-481 881.5,-462 1032.5,-462 1032.5,-481"/>
<text text-anchor="middle" x="957" y="-469" font-family="Helvetica,sans-Serif" font-size="10.00">src/Drivers/driverModel.cpp</text>
</a>
</g>
</g>
<!-- Node1&#45;&gt;Node19 -->
<g id="edge35_Node000001_Node000019" class="edge">
<title>Node1&#45;&gt;Node19</title>
<g id="a_edge35_Node000001_Node000019"><a xlink:title=" ">
<path fill="none" stroke="#63b8ff" d="M700.14,-515.31C759.86,-505.36 849.7,-490.38 905.77,-481.04"/>
<polygon fill="#63b8ff" stroke="#63b8ff" points="699.38,-511.89 690.09,-516.98 700.53,-518.79 699.38,-511.89"/>
</a>
</g>
</g>
<!-- Node3 -->
<g id="Node000003" class="node">
<title>Node3</title>
<g id="a_Node000003"><a xlink:href="spreader_8h.html" target="_top" xlink:title=" ">
<polygon fill="white" stroke="#666666" points="152,-129 0,-129 0,-110 152,-110 152,-129"/>
<text text-anchor="middle" x="76" y="-117" font-family="Helvetica,sans-Serif" font-size="10.00">include/Spreader/spreader.h</text>
</a>
</g>
</g>
<!-- Node2&#45;&gt;Node3 -->
<g id="edge2_Node000002_Node000003" class="edge">
<title>Node2&#45;&gt;Node3</title>
<g id="a_edge2_Node000002_Node000003"><a xlink:title=" ">
<path fill="none" stroke="#63b8ff" d="M467.49,-164.93C380.36,-155.04 237.95,-138.88 151.02,-129.01"/>
<polygon fill="#63b8ff" stroke="#63b8ff" points="467.24,-168.42 477.57,-166.07 468.03,-161.47 467.24,-168.42"/>
</a>
</g>
</g>
<!-- Node2&#45;&gt;Node4 -->
<g id="edge6_Node000002_Node000004" class="edge">
<title>Node2&#45;&gt;Node4</title>
<g id="a_edge6_Node000002_Node000004"><a xlink:title=" ">
<path fill="none" stroke="#63b8ff" d="M522.42,-158.83C511.96,-150.76 499.5,-140.14 490,-129 475,-111.4 462.31,-87.16 456.09,-74.31"/>
<polygon fill="#63b8ff" stroke="#63b8ff" points="520.52,-161.78 530.62,-164.96 524.71,-156.17 520.52,-161.78"/>
</a>
</g>
</g>
<!-- Node7 -->
<g id="Node000007" class="node">
<title>Node7</title>
<g id="a_Node000007"><a xlink:href="driver_8cpp.html" target="_top" xlink:title=" ">
<polygon fill="white" stroke="#666666" points="619,-129 499,-129 499,-110 619,-110 619,-129"/>
<text text-anchor="middle" x="559" y="-117" font-family="Helvetica,sans-Serif" font-size="10.00">src/Drivers/driver.cpp</text>
</a>
</g>
</g>
<!-- Node2&#45;&gt;Node7 -->
<g id="edge7_Node000002_Node000007" class="edge">
<title>Node2&#45;&gt;Node7</title>
<g id="a_edge7_Node000002_Node000007"><a xlink:title=" ">
<path fill="none" stroke="#63b8ff" d="M548.6,-154.95C551.26,-146.15 554.3,-136.06 556.41,-129.09"/>
<polygon fill="#63b8ff" stroke="#63b8ff" points="545.18,-154.16 545.64,-164.75 551.88,-156.19 545.18,-154.16"/>
</a>
</g>
</g>
<!-- Node3&#45;&gt;Node4 -->
<g id="edge3_Node000003_Node000004" class="edge">
<title>Node3&#45;&gt;Node4</title>
<g id="a_edge3_Node000003_Node000004"><a xlink:title=" ">
<path fill="none" stroke="#63b8ff" d="M146.45,-108.57C222.96,-97.79 342.85,-80.89 407.36,-71.79"/>
<polygon fill="#63b8ff" stroke="#63b8ff" points="145.82,-105.12 136.41,-109.98 146.8,-112.05 145.82,-105.12"/>
</a>
</g>
</g>
<!-- Node6 -->
<g id="Node000006" class="node">
<title>Node6</title>
<g id="a_Node000006"><a xlink:href="spreader_8cpp.html" target="_top" xlink:title=" ">
<polygon fill="white" stroke="#666666" points="147.5,-74 4.5,-74 4.5,-55 147.5,-55 147.5,-74"/>
<text text-anchor="middle" x="76" y="-62" font-family="Helvetica,sans-Serif" font-size="10.00">src/Spreader/spreader.cpp</text>
</a>
</g>
</g>
<!-- Node3&#45;&gt;Node6 -->
<g id="edge5_Node000003_Node000006" class="edge">
<title>Node3&#45;&gt;Node6</title>
<g id="a_edge5_Node000003_Node000006"><a xlink:title=" ">
<path fill="none" stroke="#63b8ff" d="M76,-99.66C76,-90.93 76,-80.99 76,-74.09"/>
<polygon fill="#63b8ff" stroke="#63b8ff" points="72.5,-99.75 76,-109.75 79.5,-99.75 72.5,-99.75"/>
</a>
</g>
</g>
<!-- Node5 -->
<g id="Node000005" class="node">
<title>Node5</title>
<g id="a_Node000005"><a xlink:href="main_8cpp.html" target="_top" xlink:title=" ">
<polygon fill="white" stroke="#666666" points="491.5,-19 412.5,-19 412.5,0 491.5,0 491.5,-19"/>
<text text-anchor="middle" x="452" y="-7" font-family="Helvetica,sans-Serif" font-size="10.00">src/main.cpp</text>
</a>
</g>
</g>
<!-- Node4&#45;&gt;Node5 -->
<g id="edge4_Node000004_Node000005" class="edge">
<title>Node4&#45;&gt;Node5</title>
<g id="a_edge4_Node000004_Node000005"><a xlink:title=" ">
<path fill="none" stroke="#63b8ff" d="M452,-44.66C452,-35.93 452,-25.99 452,-19.09"/>
<polygon fill="#63b8ff" stroke="#63b8ff" points="448.5,-44.75 452,-54.75 455.5,-44.75 448.5,-44.75"/>
</a>
</g>
</g>
<!-- Node8&#45;&gt;Node2 -->
<g id="edge9_Node000008_Node000002" class="edge">
<title>Node8&#45;&gt;Node2</title>
<g id="a_edge9_Node000008_Node000002"><a xlink:title=" ">
<path fill="none" stroke="#63b8ff" d="M607.95,-264.84C611.69,-251.6 614.21,-233.8 607,-220 598.16,-203.09 579.64,-191.31 564.79,-184.13"/>
<polygon fill="#63b8ff" stroke="#63b8ff" points="604.51,-264.11 604.71,-274.7 611.16,-266.3 604.51,-264.11"/>
</a>
</g>
</g>
<!-- Node8&#45;&gt;Node4 -->
<g id="edge14_Node000008_Node000004" class="edge">
<title>Node8&#45;&gt;Node4</title>
<g id="a_edge14_Node000008_Node000004"><a xlink:title=" ">
<path fill="none" stroke="#63b8ff" d="M611.42,-266.04C630.14,-232.13 664.31,-156.63 628,-110 612.03,-89.48 543.53,-76.93 496.85,-70.59"/>
<polygon fill="#63b8ff" stroke="#63b8ff" points="608.33,-264.38 606.41,-274.8 614.41,-267.85 608.33,-264.38"/>
</a>
</g>
</g>
<!-- Node8&#45;&gt;Node9 -->
<g id="edge10_Node000008_Node000009" class="edge">
<title>Node8&#45;&gt;Node9</title>
<g id="a_edge10_Node000008_Node000009"><a xlink:title=" ">
<path fill="none" stroke="#63b8ff" d="M547.72,-273C497.3,-263.07 422.52,-248.33 375.56,-239.08"/>
<polygon fill="#63b8ff" stroke="#63b8ff" points="547.29,-276.49 557.78,-274.98 548.65,-269.62 547.29,-276.49"/>
</a>
</g>
</g>
<!-- Node11 -->
<g id="Node000011" class="node">
<title>Node11</title>
<g id="a_Node000011"><a xlink:href="dutDriver_8cpp.html" target="_top" xlink:title=" ">
<polygon fill="white" stroke="#666666" points="598.5,-239 461.5,-239 461.5,-220 598.5,-220 598.5,-239"/>
<text text-anchor="middle" x="530" y="-227" font-family="Helvetica,sans-Serif" font-size="10.00">src/Drivers/dutDriver.cpp</text>
</a>
</g>
</g>
<!-- Node8&#45;&gt;Node11 -->
<g id="edge15_Node000008_Node000011" class="edge">
<title>Node8&#45;&gt;Node11</title>
<g id="a_edge15_Node000008_Node000011"><a xlink:title=" ">
<path fill="none" stroke="#63b8ff" d="M581.41,-268.88C568.63,-259.34 552.39,-247.21 541.61,-239.17"/>
<polygon fill="#63b8ff" stroke="#63b8ff" points="579.49,-271.81 589.59,-274.98 583.67,-266.2 579.49,-271.81"/>
</a>
</g>
</g>
<!-- Node9&#45;&gt;Node2 -->
<g id="edge11_Node000009_Node000002" class="edge">
<title>Node9&#45;&gt;Node2</title>
<g id="a_edge11_Node000009_Node000002"><a xlink:title=" ">
<path fill="none" stroke="#63b8ff" d="M375.79,-217.5C415.3,-207.58 472.62,-193.18 508.83,-184.08"/>
<polygon fill="#63b8ff" stroke="#63b8ff" points="374.75,-214.15 365.9,-219.98 376.45,-220.94 374.75,-214.15"/>
</a>
</g>
</g>
<!-- Node9&#45;&gt;Node4 -->
<g id="edge12_Node000009_Node000004" class="edge">
<title>Node9&#45;&gt;Node4</title>
<g id="a_edge12_Node000009_Node000004"><a xlink:title=" ">
<path fill="none" stroke="#63b8ff" d="M298.44,-215.81C273.91,-204.46 247.02,-186.34 260,-165 292.38,-111.75 363.5,-85.72 409.5,-74"/>
<polygon fill="#63b8ff" stroke="#63b8ff" points="297.07,-219.03 307.63,-219.82 299.87,-212.61 297.07,-219.03"/>
</a>
</g>
</g>
<!-- Node10 -->
<g id="Node000010" class="node">
<title>Node10</title>
<g id="a_Node000010"><a xlink:href="refDriver_8cpp.html" target="_top" xlink:title=" ">
<polygon fill="white" stroke="#666666" points="404.5,-184 269.5,-184 269.5,-165 404.5,-165 404.5,-184"/>
<text text-anchor="middle" x="337" y="-172" font-family="Helvetica,sans-Serif" font-size="10.00">src/Drivers/refDriver.cpp</text>
</a>
</g>
</g>
<!-- Node9&#45;&gt;Node10 -->
<g id="edge13_Node000009_Node000010" class="edge">
<title>Node9&#45;&gt;Node10</title>
<g id="a_edge13_Node000009_Node000010"><a xlink:title=" ">
<path fill="none" stroke="#63b8ff" d="M333.78,-209.66C334.6,-200.93 335.54,-190.99 336.19,-184.09"/>
<polygon fill="#63b8ff" stroke="#63b8ff" points="330.28,-209.46 332.83,-219.75 337.25,-210.12 330.28,-209.46"/>
</a>
</g>
</g>
<!-- Node12&#45;&gt;Node3 -->
<g id="edge25_Node000012_Node000003" class="edge">
<title>Node12&#45;&gt;Node3</title>
<g id="a_edge25_Node000012_Node000003"><a xlink:title=" ">
<path fill="none" stroke="#63b8ff" d="M254.87,-402.39C183.4,-390.67 90,-360.92 90,-285.5 90,-285.5 90,-285.5 90,-228.5 90,-191.25 81.71,-147.38 77.89,-129.13"/>
<polygon fill="#63b8ff" stroke="#63b8ff" points="254.37,-405.86 264.79,-403.93 255.45,-398.94 254.37,-405.86"/>
</a>
</g>
</g>
<!-- Node12&#45;&gt;Node4 -->
<g id="edge26_Node000012_Node000004" class="edge">
<title>Node12&#45;&gt;Node4</title>
<g id="a_edge26_Node000012_Node000004"><a xlink:title=" ">
<path fill="none" stroke="#63b8ff" d="M254.88,-400.1C230.71,-392.94 206.72,-380.74 192,-360 184.28,-349.13 189.65,-343.12 192,-330 210.82,-224.81 202.58,-172.86 289,-110 323.87,-84.63 372.44,-73.73 407.48,-69.04"/>
<polygon fill="#63b8ff" stroke="#63b8ff" points="254.29,-403.57 264.86,-402.78 256.11,-396.81 254.29,-403.57"/>
</a>
</g>
</g>
<!-- Node12&#45;&gt;Node8 -->
<g id="edge18_Node000012_Node000008" class="edge">
<title>Node12&#45;&gt;Node8</title>
<g id="a_edge18_Node000012_Node000008"><a xlink:title=" ">
<path fill="none" stroke="#63b8ff" d="M415.06,-394.83C486,-381.23 578.88,-362.97 582,-360 600.38,-342.52 601.94,-309.95 601.53,-294.32"/>
<polygon fill="#63b8ff" stroke="#63b8ff" points="414.37,-391.4 405.2,-396.72 415.68,-398.27 414.37,-391.4"/>
</a>
</g>
</g>
<!-- Node12&#45;&gt;Node9 -->
<g id="edge19_Node000012_Node000009" class="edge">
<title>Node12&#45;&gt;Node9</title>
<g id="a_edge19_Node000012_Node000009"><a xlink:title=" ">
<path fill="none" stroke="#63b8ff" d="M359.54,-388.71C375.89,-371.93 392.01,-348.38 378,-330 341.4,-281.98 283.6,-342.02 247,-294 228.18,-269.32 270.96,-249.62 302.4,-239.03"/>
<polygon fill="#63b8ff" stroke="#63b8ff" points="356.87,-386.43 352.12,-395.9 361.74,-391.46 356.87,-386.43"/>
</a>
</g>
</g>
<!-- Node12&#45;&gt;Node13 -->
<g id="edge20_Node000012_Node000013" class="edge">
<title>Node12&#45;&gt;Node13</title>
<g id="a_edge20_Node000012_Node000013"><a xlink:title=" ">
<path fill="none" stroke="#63b8ff" d="M380.64,-392.19C406.69,-382.02 438.87,-369.47 463.09,-360.01"/>
<polygon fill="#63b8ff" stroke="#63b8ff" points="379.03,-389.06 370.99,-395.95 381.58,-395.58 379.03,-389.06"/>
</a>
</g>
</g>
<!-- Node15 -->
<g id="Node000015" class="node">
<title>Node15</title>
<g id="a_Node000015"><a xlink:href="simulatorDriver_8cpp.html" target="_top" xlink:title=" ">
<polygon fill="white" stroke="#666666" points="369,-354.5 201,-354.5 201,-335.5 369,-335.5 369,-354.5"/>
<text text-anchor="middle" x="285" y="-342.5" font-family="Helvetica,sans-Serif" font-size="10.00">src/Drivers/simulatorDriver.cpp</text>
</a>
</g>
</g>
<!-- Node12&#45;&gt;Node15 -->
<g id="edge27_Node000012_Node000015" class="edge">
<title>Node12&#45;&gt;Node15</title>
<g id="a_edge27_Node000012_Node000015"><a xlink:title=" ">
<path fill="none" stroke="#63b8ff" d="M317.51,-387.61C308.69,-376.32 298.5,-363.28 291.91,-354.84"/>
<polygon fill="#63b8ff" stroke="#63b8ff" points="314.99,-390.07 323.9,-395.8 320.5,-385.76 314.99,-390.07"/>
</a>
</g>
</g>
<!-- Node13&#45;&gt;Node4 -->
<g id="edge23_Node000013_Node000004" class="edge">
<title>Node13&#45;&gt;Node4</title>
<g id="a_edge23_Node000013_Node000004"><a xlink:title=" ">
<path fill="none" stroke="#63b8ff" d="M487.87,-320.53C474.55,-292.24 453.8,-247.43 452,-239 438.79,-177.14 447.25,-100.02 450.72,-74.3"/>
<polygon fill="#63b8ff" stroke="#63b8ff" points="484.79,-322.22 492.23,-329.76 491.12,-319.23 484.79,-322.22"/>
</a>
</g>
</g>
<!-- Node13&#45;&gt;Node8 -->
<g id="edge21_Node000013_Node000008" class="edge">
<title>Node13&#45;&gt;Node8</title>
<g id="a_edge21_Node000013_Node000008"><a xlink:title=" ">
<path fill="none" stroke="#63b8ff" d="M532.51,-324.78C550.55,-314.43 571.92,-302.18 585.94,-294.14"/>
<polygon fill="#63b8ff" stroke="#63b8ff" points="530.36,-321.98 523.43,-329.99 533.85,-328.05 530.36,-321.98"/>
</a>
</g>
</g>
<!-- Node13&#45;&gt;Node9 -->
<g id="edge22_Node000013_Node000009" class="edge">
<title>Node13&#45;&gt;Node9</title>
<g id="a_edge22_Node000013_Node000009"><a xlink:title=" ">
<path fill="none" stroke="#63b8ff" d="M484.55,-321.17C474.21,-306.36 459.13,-287.55 442,-275 418.74,-257.95 388.02,-246.24 364.96,-239.13"/>
<polygon fill="#63b8ff" stroke="#63b8ff" points="481.86,-323.45 490.35,-329.79 487.67,-319.54 481.86,-323.45"/>
</a>
</g>
</g>
<!-- Node14 -->
<g id="Node000014" class="node">
<title>Node14</title>
<g id="a_Node000014"><a xlink:href="transDriverModel_8cpp.html" target="_top" xlink:title=" ">
<polygon fill="white" stroke="#666666" points="433.5,-294 256.5,-294 256.5,-275 433.5,-275 433.5,-294"/>
<text text-anchor="middle" x="345" y="-282" font-family="Helvetica,sans-Serif" font-size="10.00">src/Drivers/transDriverModel.cpp</text>
</a>
</g>
</g>
<!-- Node13&#45;&gt;Node14 -->
<g id="edge24_Node000013_Node000014" class="edge">
<title>Node13&#45;&gt;Node14</title>
<g id="a_edge24_Node000013_Node000014"><a xlink:title=" ">
<path fill="none" stroke="#63b8ff" d="M452.49,-326.33C424.45,-315.68 389.97,-302.58 367.74,-294.14"/>
<polygon fill="#63b8ff" stroke="#63b8ff" points="451.52,-329.71 462.11,-329.99 454.01,-323.16 451.52,-329.71"/>
</a>
</g>
</g>
<!-- Node16&#45;&gt;Node4 -->
<g id="edge30_Node000016_Node000004" class="edge">
<title>Node16&#45;&gt;Node4</title>
<g id="a_edge30_Node000016_Node000004"><a xlink:title=" ">
<path fill="none" stroke="#63b8ff" d="M762.07,-391.29C758.51,-366.98 753,-323.18 753,-285.5 753,-285.5 753,-285.5 753,-173.5 753,-119.72 580.59,-85.48 496.74,-72.01"/>
<polygon fill="#63b8ff" stroke="#63b8ff" points="758.62,-391.91 763.58,-401.27 765.54,-390.86 758.62,-391.91"/>
</a>
</g>
</g>
<!-- Node17&#45;&gt;Node12 -->
<g id="edge32_Node000017_Node000012" class="edge">
<title>Node17&#45;&gt;Node12</title>
<g id="a_edge32_Node000017_Node000012"><a xlink:title=" ">
<path fill="none" stroke="#63b8ff" d="M460.48,-458.46C435.06,-449.05 399.7,-435.95 372.99,-426.06"/>
<polygon fill="#63b8ff" stroke="#63b8ff" points="459.43,-461.8 470.03,-461.99 461.86,-455.24 459.43,-461.8"/>
</a>
</g>
</g>
<!-- Node18 -->
<g id="Node000018" class="node">
<title>Node18</title>
<g id="a_Node000018"><a xlink:href="simulator_8cpp.html" target="_top" xlink:title=" ">
<polygon fill="white" stroke="#666666" points="573,-420.5 423,-420.5 423,-401.5 573,-401.5 573,-420.5"/>
<text text-anchor="middle" x="498" y="-408.5" font-family="Helvetica,sans-Serif" font-size="10.00">src/Simulator/simulator.cpp</text>
</a>
</g>
</g>
<!-- Node17&#45;&gt;Node18 -->
<g id="edge33_Node000017_Node000018" class="edge">
<title>Node17&#45;&gt;Node18</title>
<g id="a_edge33_Node000017_Node000018"><a xlink:title=" ">
<path fill="none" stroke="#63b8ff" d="M494.61,-451.66C495.5,-441.24 496.56,-428.8 497.26,-420.67"/>
<polygon fill="#63b8ff" stroke="#63b8ff" points="491.1,-451.61 493.74,-461.87 498.08,-452.2 491.1,-451.61"/>
</a>
</g>
</g>
</g>
</svg>

<g id="navigator" transform="translate(0 0)" fill="#404254">
  <rect fill="#f2f5e9" fill-opacity="0.5" stroke="#606060" stroke-width=".5" x="0" y="0" width="60" height="60"/>
  <use id="zoomplus" xlink:href="#zoomPlus" x="17" y="9" onmousedown="handleZoom(evt,'in')"/>
  <use id="zoomminus" xlink:href="#zoomMin" x="42" y="9" onmousedown="handleZoom(evt,'out')"/>
  <use id="reset" xlink:href="#resetDef" x="30" y="36" onmousedown="handleReset()"/>
   <use id="arrowup" xlink:href="#arrowUp" x="0" y="0" onmousedown="handlePan(0,-1)"/>
  <use id="arrowright" xlink:href="#arrowRight" x="0" y="0" onmousedown="handlePan(1,0)"/>
  <use id="arrowdown" xlink:href="#arrowDown" x="0" y="0" onmousedown="handlePan(0,1)"/>
  <use id="arrowleft" xlink:href="#arrowLeft" x="0" y="0" onmousedown="handlePan(-1,0)"/>
</g>
<svg viewBox="0 0 15 15" width="100%" height="30px" preserveAspectRatio="xMaxYMin meet">
 <g id="arrow_out" transform="scale(0.3 0.3)">
  <a xlink:href="driverModel_8h__dep__incl_org.svg" target="_base">
   <rect id="button" ry="5" rx="5" y="6" x="6" height="38" width="38"
        fill="#f2f5e9" fill-opacity="0.5" stroke="#606060" stroke-width="1.0"/>
   <path id="arrow"
     d="M 11.500037,31.436501 C 11.940474,20.09759 22.043105,11.32322 32.158766,21.979434 L 37.068811,17.246167 C 37.068811,17.246167 37.088388,32 37.088388,32 L 22.160133,31.978069 C 22.160133,31.978069 26.997745,27.140456 26.997745,27.140456 C 18.528582,18.264221 13.291696,25.230495 11.500037,31.436501 z"
     style="fill:#404040;"/>
  </a>
 </g>
</svg>

<style type='text/css'>
<![CDATA[
[data-mouse-over-selected='false'] { opacity: 0.7; }
[data-mouse-over-selected='true']  { opacity: 1.0; }
]]>
</style>
<script type="application/ecmascript"><![CDATA[
document.addEventListener('DOMContentLoaded', (event) => {
  highlightEdges();
  highlightAdjacentNodes();
});
]]></script>
</svg>
