<?xml version="1.0" encoding="UTF-8" standalone="no"?>
<!DOCTYPE svg PUBLIC "-//W3C//DTD SVG 1.1//EN"
 "http://www.w3.org/Graphics/SVG/1.1/DTD/svg11.dtd">
<!-- Generated by graphviz version 2.43.0 (0)
 -->
<!-- Title: include/Drivers/driverModel.h Pages: 1 -->
<svg width="1005pt" height="544pt"
 viewBox="0.00 0.00 1005.00 544.00" xmlns="http://www.w3.org/2000/svg" xmlns:xlink="http://www.w3.org/1999/xlink">
<g id="graph0" class="graph" transform="scale(1 1) rotate(0) translate(4 540)">
<title>include/Drivers/driverModel.h</title>
<!-- Node1 -->
<g id="Node000001" class="node">
<title>Node1</title>
<g id="a_Node000001"><a xlink:title=" ">
<polygon fill="#999999" stroke="#666666" points="678,-536 517,-536 517,-517 678,-517 678,-536"/>
<text text-anchor="middle" x="597.5" y="-524" font-family="Helvetica,sans-Serif" font-size="10.00">include/Drivers/driverModel.h</text>
</a>
</g>
</g>
<!-- Node2 -->
<g id="Node000002" class="node">
<title>Node2</title>
<g id="a_Node000002"><a xlink:href="driver_8h.html" target="_top" xlink:title=" ">
<polygon fill="white" stroke="#666666" points="606.5,-184 476.5,-184 476.5,-165 606.5,-165 606.5,-184"/>
<text text-anchor="middle" x="541.5" y="-172" font-family="Helvetica,sans-Serif" font-size="10.00">include/Drivers/driver.h</text>
</a>
</g>
</g>
<!-- Node1&#45;&gt;Node2 -->
<g id="edge1_Node000001_Node000002" class="edge">
<title>Node1&#45;&gt;Node2</title>
<g id="a_edge1_Node000001_Node000002"><a xlink:title=" ">
<path fill="none" stroke="#63b8ff" d="M655.99,-514.49C709.21,-500.69 779.5,-471.24 779.5,-412 779.5,-412 779.5,-412 779.5,-283.5 779.5,-207.27 677,-184.58 606.53,-177.99"/>
<polygon fill="#63b8ff" stroke="#63b8ff" points="655.14,-511.09 646.27,-516.89 656.82,-517.89 655.14,-511.09"/>
</a>
</g>
</g>
<!-- Node4 -->
<g id="Node000004" class="node">
<title>Node4</title>
<g id="a_Node000004"><a xlink:href="mlvp_8h.html" target="_top" xlink:title=" ">
<polygon fill="white" stroke="#666666" points="468,-74 379,-74 379,-55 468,-55 468,-74"/>
<text text-anchor="middle" x="423.5" y="-62" font-family="Helvetica,sans-Serif" font-size="10.00">include/mlvp.h</text>
</a>
</g>
</g>
<!-- Node1&#45;&gt;Node4 -->
<g id="edge35_Node000001_Node000004" class="edge">
<title>Node1&#45;&gt;Node4</title>
<g id="a_edge35_Node000001_Node000004"><a xlink:title=" ">
<path fill="none" stroke="#63b8ff" d="M686.4,-514.99C747.45,-502.24 817.5,-474.08 817.5,-412 817.5,-412 817.5,-412 817.5,-283.5 817.5,-205.32 844.99,-164.04 788.5,-110 765.7,-88.18 560.33,-73.52 468.05,-67.97"/>
<polygon fill="#63b8ff" stroke="#63b8ff" points="685.44,-511.62 676.3,-516.98 686.79,-518.48 685.44,-511.62"/>
</a>
</g>
</g>
<!-- Node8 -->
<g id="Node000008" class="node">
<title>Node8</title>
<g id="a_Node000008"><a xlink:href="dutDriver_8h.html" target="_top" xlink:title=" ">
<polygon fill="white" stroke="#666666" points="631,-294 484,-294 484,-275 631,-275 631,-294"/>
<text text-anchor="middle" x="557.5" y="-282" font-family="Helvetica,sans-Serif" font-size="10.00">include/Drivers/dutDriver.h</text>
</a>
</g>
</g>
<!-- Node1&#45;&gt;Node8 -->
<g id="edge8_Node000001_Node000008" class="edge">
<title>Node1&#45;&gt;Node8</title>
<g id="a_edge8_Node000001_Node000008"><a xlink:title=" ">
<path fill="none" stroke="#63b8ff" d="M610.3,-508.6C627.09,-484.44 653.65,-438.24 646.5,-396 641.32,-365.37 642.46,-354.61 623.5,-330 611.1,-313.91 591.18,-301.62 576.46,-294.08"/>
<polygon fill="#63b8ff" stroke="#63b8ff" points="607.44,-506.58 604.43,-516.73 613.12,-510.67 607.44,-506.58"/>
</a>
</g>
</g>
<!-- Node9 -->
<g id="Node000009" class="node">
<title>Node9</title>
<g id="a_Node000009"><a xlink:href="refDriver_8h.html" target="_top" xlink:title=" ">
<polygon fill="white" stroke="#666666" points="423,-239 278,-239 278,-220 423,-220 423,-239"/>
<text text-anchor="middle" x="350.5" y="-227" font-family="Helvetica,sans-Serif" font-size="10.00">include/Drivers/refDriver.h</text>
</a>
</g>
</g>
<!-- Node1&#45;&gt;Node9 -->
<g id="edge16_Node000001_Node000009" class="edge">
<title>Node1&#45;&gt;Node9</title>
<g id="a_edge16_Node000001_Node000009"><a xlink:title=" ">
<path fill="none" stroke="#63b8ff" d="M506.72,-520.93C375.27,-511.79 147.5,-485.37 147.5,-412 147.5,-412 147.5,-412 147.5,-344 147.5,-279.19 227.29,-251.04 286.83,-239.04"/>
<polygon fill="#63b8ff" stroke="#63b8ff" points="506.58,-524.43 516.79,-521.61 507.05,-517.44 506.58,-524.43"/>
</a>
</g>
</g>
<!-- Node12 -->
<g id="Node000012" class="node">
<title>Node12</title>
<g id="a_Node000012"><a xlink:href="simulatorDriver_8h.html" target="_top" xlink:title=" ">
<polygon fill="white" stroke="#666666" points="637.5,-426 497.5,-426 497.5,-396 637.5,-396 637.5,-426"/>
<text text-anchor="start" x="505.5" y="-414" font-family="Helvetica,sans-Serif" font-size="10.00">include/Drivers/simulator</text>
<text text-anchor="middle" x="567.5" y="-403" font-family="Helvetica,sans-Serif" font-size="10.00">Driver.h</text>
</a>
</g>
</g>
<!-- Node1&#45;&gt;Node12 -->
<g id="edge17_Node000001_Node000012" class="edge">
<title>Node1&#45;&gt;Node12</title>
<g id="a_edge17_Node000001_Node000012"><a xlink:title=" ">
<path fill="none" stroke="#63b8ff" d="M592.68,-507.27C586.71,-484.69 576.67,-446.7 571.25,-426.18"/>
<polygon fill="#63b8ff" stroke="#63b8ff" points="589.31,-508.2 595.25,-516.97 596.07,-506.41 589.31,-508.2"/>
</a>
</g>
</g>
<!-- Node13 -->
<g id="Node000013" class="node">
<title>Node13</title>
<g id="a_Node000013"><a xlink:href="transDriverModel_8h.html" target="_top" xlink:title=" ">
<polygon fill="white" stroke="#666666" points="375.5,-360 227.5,-360 227.5,-330 375.5,-330 375.5,-360"/>
<text text-anchor="start" x="235.5" y="-348" font-family="Helvetica,sans-Serif" font-size="10.00">include/Drivers/transDriver</text>
<text text-anchor="middle" x="301.5" y="-337" font-family="Helvetica,sans-Serif" font-size="10.00">Model.h</text>
</a>
</g>
</g>
<!-- Node1&#45;&gt;Node13 -->
<g id="edge29_Node000001_Node000013" class="edge">
<title>Node1&#45;&gt;Node13</title>
<g id="a_edge29_Node000001_Node000013"><a xlink:title=" ">
<path fill="none" stroke="#63b8ff" d="M520.88,-515.16C483.51,-508.39 438.53,-497.63 400.5,-481 360.97,-463.71 344.89,-461.59 320.5,-426 306.78,-405.98 302.9,-377.27 301.85,-360.24"/>
<polygon fill="#63b8ff" stroke="#63b8ff" points="520.75,-518.69 531.21,-516.97 521.96,-511.8 520.75,-518.69"/>
</a>
</g>
</g>
<!-- Node16 -->
<g id="Node000016" class="node">
<title>Node16</title>
<g id="a_Node000016"><a xlink:href="ref_8h.html" target="_top" xlink:title=" ">
<polygon fill="white" stroke="#666666" points="119,-420.5 0,-420.5 0,-401.5 119,-401.5 119,-420.5"/>
<text text-anchor="middle" x="59.5" y="-408.5" font-family="Helvetica,sans-Serif" font-size="10.00">include/RefPack/ref.h</text>
</a>
</g>
</g>
<!-- Node1&#45;&gt;Node16 -->
<g id="edge30_Node000001_Node000016" class="edge">
<title>Node1&#45;&gt;Node16</title>
<g id="a_edge30_Node000001_Node000016"><a xlink:title=" ">
<path fill="none" stroke="#63b8ff" d="M506.39,-523.67C390.58,-520.16 197.97,-510.02 133.5,-481 103.07,-467.3 77.05,-435.93 65.65,-420.66"/>
<polygon fill="#63b8ff" stroke="#63b8ff" points="506.56,-527.17 516.66,-523.97 506.76,-520.18 506.56,-527.17"/>
</a>
</g>
</g>
<!-- Node17 -->
<g id="Node000017" class="node">
<title>Node17</title>
<g id="a_Node000017"><a xlink:href="simulator_8h.html" target="_top" xlink:title=" ">
<polygon fill="white" stroke="#666666" points="569.5,-481 409.5,-481 409.5,-462 569.5,-462 569.5,-481"/>
<text text-anchor="middle" x="489.5" y="-469" font-family="Helvetica,sans-Serif" font-size="10.00">include/Simulator/simulator.h</text>
</a>
</g>
</g>
<!-- Node1&#45;&gt;Node17 -->
<g id="edge32_Node000001_Node000017" class="edge">
<title>Node1&#45;&gt;Node17</title>
<g id="a_edge32_Node000001_Node000017"><a xlink:title=" ">
<path fill="none" stroke="#63b8ff" d="M571.01,-512.5C551.14,-502.75 524.5,-489.68 507.17,-481.17"/>
<polygon fill="#63b8ff" stroke="#63b8ff" points="569.63,-515.72 580.15,-516.98 572.71,-509.44 569.63,-515.72"/>
</a>
</g>
</g>
<!-- Node19 -->
<g id="Node000019" class="node">
<title>Node19</title>
<g id="a_Node000019"><a xlink:href="driverModel_8cpp.html" target="_top" xlink:title=" ">
<polygon fill="white" stroke="#666666" points="997,-481 846,-481 846,-462 997,-462 997,-481"/>
<text text-anchor="middle" x="921.5" y="-469" font-family="Helvetica,sans-Serif" font-size="10.00">src/Drivers/driverModel.cpp</text>
</a>
</g>
</g>
<!-- Node1&#45;&gt;Node19 -->
<g id="edge36_Node000001_Node000019" class="edge">
<title>Node1&#45;&gt;Node19</title>
<g id="a_edge36_Node000001_Node000019"><a xlink:title=" ">
<path fill="none" stroke="#63b8ff" d="M659.79,-515.31C720.64,-505.36 812.18,-490.38 869.3,-481.04"/>
<polygon fill="#63b8ff" stroke="#63b8ff" points="658.86,-511.92 649.56,-516.98 659.99,-518.82 658.86,-511.92"/>
</a>
</g>
</g>
<!-- Node3 -->
<g id="Node000003" class="node">
<title>Node3</title>
<g id="a_Node000003"><a xlink:href="spreader_8h.html" target="_top" xlink:title=" ">
<polygon fill="white" stroke="#666666" points="779.5,-129 627.5,-129 627.5,-110 779.5,-110 779.5,-129"/>
<text text-anchor="middle" x="703.5" y="-117" font-family="Helvetica,sans-Serif" font-size="10.00">include/Spreader/spreader.h</text>
</a>
</g>
</g>
<!-- Node2&#45;&gt;Node3 -->
<g id="edge2_Node000002_Node000003" class="edge">
<title>Node2&#45;&gt;Node3</title>
<g id="a_edge2_Node000002_Node000003"><a xlink:title=" ">
<path fill="none" stroke="#63b8ff" d="M577.27,-161.8C607.5,-151.91 650.11,-137.97 677.27,-129.08"/>
<polygon fill="#63b8ff" stroke="#63b8ff" points="575.94,-158.55 567.53,-164.98 578.12,-165.2 575.94,-158.55"/>
</a>
</g>
</g>
<!-- Node2&#45;&gt;Node4 -->
<g id="edge6_Node000002_Node000004" class="edge">
<title>Node2&#45;&gt;Node4</title>
<g id="a_edge6_Node000002_Node000004"><a xlink:title=" ">
<path fill="none" stroke="#63b8ff" d="M519.28,-158.96C507.32,-150.73 492.59,-139.93 480.5,-129 460.71,-111.12 440.57,-86.99 430.36,-74.24"/>
<polygon fill="#63b8ff" stroke="#63b8ff" points="517.55,-162.01 527.79,-164.71 521.47,-156.21 517.55,-162.01"/>
</a>
</g>
</g>
<!-- Node7 -->
<g id="Node000007" class="node">
<title>Node7</title>
<g id="a_Node000007"><a xlink:href="driver_8cpp.html" target="_top" xlink:title=" ">
<polygon fill="white" stroke="#666666" points="609.5,-129 489.5,-129 489.5,-110 609.5,-110 609.5,-129"/>
<text text-anchor="middle" x="549.5" y="-117" font-family="Helvetica,sans-Serif" font-size="10.00">src/Drivers/driver.cpp</text>
</a>
</g>
</g>
<!-- Node2&#45;&gt;Node7 -->
<g id="edge7_Node000002_Node000007" class="edge">
<title>Node2&#45;&gt;Node7</title>
<g id="a_edge7_Node000002_Node000007"><a xlink:title=" ">
<path fill="none" stroke="#63b8ff" d="M544.34,-154.66C545.66,-145.93 547.16,-135.99 548.2,-129.09"/>
<polygon fill="#63b8ff" stroke="#63b8ff" points="540.85,-154.34 542.82,-164.75 547.77,-155.38 540.85,-154.34"/>
</a>
</g>
</g>
<!-- Node3&#45;&gt;Node4 -->
<g id="edge3_Node000003_Node000004" class="edge">
<title>Node3&#45;&gt;Node4</title>
<g id="a_edge3_Node000003_Node000004"><a xlink:title=" ">
<path fill="none" stroke="#63b8ff" d="M648.67,-108.12C596.01,-98.15 517.42,-83.28 468.38,-73.99"/>
<polygon fill="#63b8ff" stroke="#63b8ff" points="648.04,-111.56 658.51,-109.98 649.34,-104.69 648.04,-111.56"/>
</a>
</g>
</g>
<!-- Node6 -->
<g id="Node000006" class="node">
<title>Node6</title>
<g id="a_Node000006"><a xlink:href="spreader_8cpp.html" target="_top" xlink:title=" ">
<polygon fill="white" stroke="#666666" points="775,-74 632,-74 632,-55 775,-55 775,-74"/>
<text text-anchor="middle" x="703.5" y="-62" font-family="Helvetica,sans-Serif" font-size="10.00">src/Spreader/spreader.cpp</text>
</a>
</g>
</g>
<!-- Node3&#45;&gt;Node6 -->
<g id="edge5_Node000003_Node000006" class="edge">
<title>Node3&#45;&gt;Node6</title>
<g id="a_edge5_Node000003_Node000006"><a xlink:title=" ">
<path fill="none" stroke="#63b8ff" d="M703.5,-99.66C703.5,-90.93 703.5,-80.99 703.5,-74.09"/>
<polygon fill="#63b8ff" stroke="#63b8ff" points="700,-99.75 703.5,-109.75 707,-99.75 700,-99.75"/>
</a>
</g>
</g>
<!-- Node5 -->
<g id="Node000005" class="node">
<title>Node5</title>
<g id="a_Node000005"><a xlink:href="main_8cpp.html" target="_top" xlink:title=" ">
<polygon fill="white" stroke="#666666" points="674,-19 595,-19 595,0 674,0 674,-19"/>
<text text-anchor="middle" x="634.5" y="-7" font-family="Helvetica,sans-Serif" font-size="10.00">src/main.cpp</text>
</a>
</g>
</g>
<!-- Node4&#45;&gt;Node5 -->
<g id="edge4_Node000004_Node000005" class="edge">
<title>Node4&#45;&gt;Node5</title>
<g id="a_edge4_Node000004_Node000005"><a xlink:title=" ">
<path fill="none" stroke="#63b8ff" d="M467.29,-52.5C506.8,-42.58 564.12,-28.18 600.33,-19.08"/>
<polygon fill="#63b8ff" stroke="#63b8ff" points="466.25,-49.15 457.4,-54.98 467.95,-55.94 466.25,-49.15"/>
</a>
</g>
</g>
<!-- Node8&#45;&gt;Node2 -->
<g id="edge9_Node000008_Node000002" class="edge">
<title>Node8&#45;&gt;Node2</title>
<g id="a_edge9_Node000008_Node000002"><a xlink:title=" ">
<path fill="none" stroke="#63b8ff" d="M543.78,-266.71C538.18,-258.8 532.37,-248.94 529.5,-239 523.97,-219.81 531.93,-196.61 537.3,-184.25"/>
<polygon fill="#63b8ff" stroke="#63b8ff" points="541,-268.84 549.83,-274.7 546.58,-264.61 541,-268.84"/>
</a>
</g>
</g>
<!-- Node8&#45;&gt;Node4 -->
<g id="edge14_Node000008_Node000004" class="edge">
<title>Node8&#45;&gt;Node4</title>
<g id="a_edge14_Node000008_Node000004"><a xlink:title=" ">
<path fill="none" stroke="#63b8ff" d="M540.06,-268.13C520.17,-249.8 487.78,-217.43 467.5,-184 444.5,-146.1 430.4,-94.23 425.48,-74.03"/>
<polygon fill="#63b8ff" stroke="#63b8ff" points="537.74,-270.75 547.5,-274.87 542.44,-265.56 537.74,-270.75"/>
</a>
</g>
</g>
<!-- Node8&#45;&gt;Node9 -->
<g id="edge10_Node000008_Node000009" class="edge">
<title>Node8&#45;&gt;Node9</title>
<g id="a_edge10_Node000008_Node000009"><a xlink:title=" ">
<path fill="none" stroke="#63b8ff" d="M514.29,-272.44C475.54,-262.52 419.47,-248.16 384.02,-239.08"/>
<polygon fill="#63b8ff" stroke="#63b8ff" points="513.69,-275.89 524.24,-274.98 515.42,-269.11 513.69,-275.89"/>
</a>
</g>
</g>
<!-- Node11 -->
<g id="Node000011" class="node">
<title>Node11</title>
<g id="a_Node000011"><a xlink:href="dutDriver_8cpp.html" target="_top" xlink:title=" ">
<polygon fill="white" stroke="#666666" points="675,-239 538,-239 538,-220 675,-220 675,-239"/>
<text text-anchor="middle" x="606.5" y="-227" font-family="Helvetica,sans-Serif" font-size="10.00">src/Drivers/dutDriver.cpp</text>
</a>
</g>
</g>
<!-- Node8&#45;&gt;Node11 -->
<g id="edge15_Node000008_Node000011" class="edge">
<title>Node8&#45;&gt;Node11</title>
<g id="a_edge15_Node000008_Node000011"><a xlink:title=" ">
<path fill="none" stroke="#63b8ff" d="M572.53,-267.24C581.12,-257.95 591.54,-246.68 598.56,-239.09"/>
<polygon fill="#63b8ff" stroke="#63b8ff" points="569.81,-265.03 565.59,-274.75 574.95,-269.78 569.81,-265.03"/>
</a>
</g>
</g>
<!-- Node9&#45;&gt;Node2 -->
<g id="edge11_Node000009_Node000002" class="edge">
<title>Node9&#45;&gt;Node2</title>
<g id="a_edge11_Node000009_Node000002"><a xlink:title=" ">
<path fill="none" stroke="#63b8ff" d="M391.28,-217.18C427,-207.27 478.13,-193.08 510.57,-184.08"/>
<polygon fill="#63b8ff" stroke="#63b8ff" points="389.89,-213.94 381.19,-219.98 391.76,-220.68 389.89,-213.94"/>
</a>
</g>
</g>
<!-- Node9&#45;&gt;Node4 -->
<g id="edge12_Node000009_Node000004" class="edge">
<title>Node9&#45;&gt;Node4</title>
<g id="a_edge12_Node000009_Node000004"><a xlink:title=" ">
<path fill="none" stroke="#63b8ff" d="M358.66,-210.28C374.32,-175.32 408.04,-100.01 419.56,-74.31"/>
<polygon fill="#63b8ff" stroke="#63b8ff" points="355.32,-209.18 354.42,-219.74 361.71,-212.04 355.32,-209.18"/>
</a>
</g>
</g>
<!-- Node10 -->
<g id="Node000010" class="node">
<title>Node10</title>
<g id="a_Node000010"><a xlink:href="refDriver_8cpp.html" target="_top" xlink:title=" ">
<polygon fill="white" stroke="#666666" points="357,-184 222,-184 222,-165 357,-165 357,-184"/>
<text text-anchor="middle" x="289.5" y="-172" font-family="Helvetica,sans-Serif" font-size="10.00">src/Drivers/refDriver.cpp</text>
</a>
</g>
</g>
<!-- Node9&#45;&gt;Node10 -->
<g id="edge13_Node000009_Node000010" class="edge">
<title>Node9&#45;&gt;Node10</title>
<g id="a_edge13_Node000009_Node000010"><a xlink:title=" ">
<path fill="none" stroke="#63b8ff" d="M333.03,-213.32C322.16,-203.87 308.56,-192.06 299.48,-184.17"/>
<polygon fill="#63b8ff" stroke="#63b8ff" points="330.85,-216.07 340.7,-219.98 335.45,-210.78 330.85,-216.07"/>
</a>
</g>
</g>
<!-- Node12&#45;&gt;Node3 -->
<g id="edge25_Node000012_Node000003" class="edge">
<title>Node12&#45;&gt;Node3</title>
<g id="a_edge25_Node000012_Node000003"><a xlink:title=" ">
<path fill="none" stroke="#63b8ff" d="M611.9,-391.54C651.58,-371.73 703.5,-336.13 703.5,-285.5 703.5,-285.5 703.5,-285.5 703.5,-228.5 703.5,-191.56 703.5,-147.52 703.5,-129.18"/>
<polygon fill="#63b8ff" stroke="#63b8ff" points="610.37,-388.39 602.88,-395.88 613.41,-394.69 610.37,-388.39"/>
</a>
</g>
</g>
<!-- Node12&#45;&gt;Node4 -->
<g id="edge26_Node000012_Node000004" class="edge">
<title>Node12&#45;&gt;Node4</title>
<g id="a_edge26_Node000012_Node000004"><a xlink:title=" ">
<path fill="none" stroke="#63b8ff" d="M487.34,-395.92C366.85,-378.75 328.56,-402.19 218.5,-360 163.71,-339 109.5,-344.18 109.5,-285.5 109.5,-285.5 109.5,-285.5 109.5,-173.5 109.5,-124.91 153.89,-129.26 198.5,-110 257.73,-84.44 332.1,-73.41 378.73,-68.75"/>
<polygon fill="#63b8ff" stroke="#63b8ff" points="486.91,-399.39 497.31,-397.4 487.94,-392.47 486.91,-399.39"/>
</a>
</g>
</g>
<!-- Node12&#45;&gt;Node5 -->
<g id="edge28_Node000012_Node000005" class="edge">
<title>Node12&#45;&gt;Node5</title>
<g id="a_edge28_Node000012_Node000005"><a xlink:title=" ">
<path fill="none" stroke="#63b8ff" d="M635.59,-392.35C654.52,-384.84 673.87,-374.38 688.5,-360 768.26,-281.56 765.81,-238.55 788.5,-129 792.49,-109.74 790.13,-62 784.5,-55 758.19,-22.3 709,-12.86 674.14,-10.52"/>
<polygon fill="#63b8ff" stroke="#63b8ff" points="634.2,-389.13 626.06,-395.91 636.65,-395.69 634.2,-389.13"/>
</a>
</g>
</g>
<!-- Node12&#45;&gt;Node8 -->
<g id="edge18_Node000012_Node000008" class="edge">
<title>Node12&#45;&gt;Node8</title>
<g id="a_edge18_Node000012_Node000008"><a xlink:title=" ">
<path fill="none" stroke="#63b8ff" d="M590.4,-388.71C597.63,-380.52 604.72,-370.57 608.5,-360 612.99,-347.45 614.02,-342.14 608.5,-330 601.3,-314.17 585.38,-301.77 573.23,-294.12"/>
<polygon fill="#63b8ff" stroke="#63b8ff" points="587.85,-386.32 583.53,-395.99 592.94,-391.12 587.85,-386.32"/>
</a>
</g>
</g>
<!-- Node12&#45;&gt;Node9 -->
<g id="edge19_Node000012_Node000009" class="edge">
<title>Node12&#45;&gt;Node9</title>
<g id="a_edge19_Node000012_Node000009"><a xlink:title=" ">
<path fill="none" stroke="#63b8ff" d="M496.28,-393.21C464.65,-384.26 432.34,-372.52 422.5,-360 399.05,-330.17 433.63,-307.77 414.5,-275 404.74,-258.29 385.92,-246.36 371.2,-239.09"/>
<polygon fill="#63b8ff" stroke="#63b8ff" points="495.47,-396.62 506.04,-395.9 497.33,-389.87 495.47,-396.62"/>
</a>
</g>
</g>
<!-- Node12&#45;&gt;Node13 -->
<g id="edge20_Node000012_Node000013" class="edge">
<title>Node12&#45;&gt;Node13</title>
<g id="a_edge20_Node000012_Node000013"><a xlink:title=" ">
<path fill="none" stroke="#63b8ff" d="M499.27,-393.58C456.08,-383.19 400.85,-369.9 359.74,-360.01"/>
<polygon fill="#63b8ff" stroke="#63b8ff" points="498.58,-397.02 509.13,-395.95 500.22,-390.21 498.58,-397.02"/>
</a>
</g>
</g>
<!-- Node15 -->
<g id="Node000015" class="node">
<title>Node15</title>
<g id="a_Node000015"><a xlink:href="simulatorDriver_8cpp.html" target="_top" xlink:title=" ">
<polygon fill="white" stroke="#666666" points="599.5,-354.5 431.5,-354.5 431.5,-335.5 599.5,-335.5 599.5,-354.5"/>
<text text-anchor="middle" x="515.5" y="-342.5" font-family="Helvetica,sans-Serif" font-size="10.00">src/Drivers/simulatorDriver.cpp</text>
</a>
</g>
</g>
<!-- Node12&#45;&gt;Node15 -->
<g id="edge27_Node000012_Node000015" class="edge">
<title>Node12&#45;&gt;Node15</title>
<g id="a_edge27_Node000012_Node000015"><a xlink:title=" ">
<path fill="none" stroke="#63b8ff" d="M549.58,-387.94C540.35,-376.58 529.6,-363.36 522.69,-354.84"/>
<polygon fill="#63b8ff" stroke="#63b8ff" points="546.94,-390.24 555.96,-395.8 552.37,-385.83 546.94,-390.24"/>
</a>
</g>
</g>
<!-- Node13&#45;&gt;Node4 -->
<g id="edge23_Node000013_Node000004" class="edge">
<title>Node13&#45;&gt;Node4</title>
<g id="a_edge23_Node000013_Node000004"><a xlink:title=" ">
<path fill="none" stroke="#63b8ff" d="M246.72,-325.75C230.86,-318.12 214.8,-307.76 203.5,-294 184.88,-271.33 185.5,-259.83 185.5,-230.5 185.5,-230.5 185.5,-230.5 185.5,-173.5 185.5,-89.56 309.79,-70.54 378.73,-66.44"/>
<polygon fill="#63b8ff" stroke="#63b8ff" points="245.44,-329.01 256,-329.92 248.32,-322.63 245.44,-329.01"/>
</a>
</g>
</g>
<!-- Node13&#45;&gt;Node8 -->
<g id="edge21_Node000013_Node000008" class="edge">
<title>Node13&#45;&gt;Node8</title>
<g id="a_edge21_Node000013_Node000008"><a xlink:title=" ">
<path fill="none" stroke="#63b8ff" d="M372.8,-327.71C420.57,-316.79 481.54,-302.86 520.07,-294.05"/>
<polygon fill="#63b8ff" stroke="#63b8ff" points="371.79,-324.35 362.82,-329.99 373.35,-331.17 371.79,-324.35"/>
</a>
</g>
</g>
<!-- Node13&#45;&gt;Node9 -->
<g id="edge22_Node000013_Node000009" class="edge">
<title>Node13&#45;&gt;Node9</title>
<g id="a_edge22_Node000013_Node000009"><a xlink:title=" ">
<path fill="none" stroke="#63b8ff" d="M361.52,-325.68C376.12,-318.25 389.97,-308 398.5,-294 411.16,-273.23 383.72,-251.01 365.34,-239.14"/>
<polygon fill="#63b8ff" stroke="#63b8ff" points="359.96,-322.55 352.38,-329.95 362.92,-328.89 359.96,-322.55"/>
</a>
</g>
</g>
<!-- Node14 -->
<g id="Node000014" class="node">
<title>Node14</title>
<g id="a_Node000014"><a xlink:href="transDriverModel_8cpp.html" target="_top" xlink:title=" ">
<polygon fill="white" stroke="#666666" points="390,-294 213,-294 213,-275 390,-275 390,-294"/>
<text text-anchor="middle" x="301.5" y="-282" font-family="Helvetica,sans-Serif" font-size="10.00">src/Drivers/transDriverModel.cpp</text>
</a>
</g>
</g>
<!-- Node13&#45;&gt;Node14 -->
<g id="edge24_Node000013_Node000014" class="edge">
<title>Node13&#45;&gt;Node14</title>
<g id="a_edge24_Node000013_Node000014"><a xlink:title=" ">
<path fill="none" stroke="#63b8ff" d="M301.5,-319.75C301.5,-310.72 301.5,-301.03 301.5,-294.27"/>
<polygon fill="#63b8ff" stroke="#63b8ff" points="298,-319.84 301.5,-329.84 305,-319.84 298,-319.84"/>
</a>
</g>
</g>
<!-- Node16&#45;&gt;Node4 -->
<g id="edge31_Node000016_Node000004" class="edge">
<title>Node16&#45;&gt;Node4</title>
<g id="a_edge31_Node000016_Node000004"><a xlink:title=" ">
<path fill="none" stroke="#63b8ff" d="M60.97,-391.25C62.74,-366.89 65.5,-323.05 65.5,-285.5 65.5,-285.5 65.5,-285.5 65.5,-173.5 65.5,-129.82 100.79,-128.18 140.5,-110 218.96,-74.09 321.06,-66.41 378.72,-65.2"/>
<polygon fill="#63b8ff" stroke="#63b8ff" points="57.47,-391.02 60.21,-401.25 64.45,-391.54 57.47,-391.02"/>
</a>
</g>
</g>
<!-- Node17&#45;&gt;Node12 -->
<g id="edge33_Node000017_Node000012" class="edge">
<title>Node17&#45;&gt;Node12</title>
<g id="a_edge33_Node000017_Node000012"><a xlink:title=" ">
<path fill="none" stroke="#63b8ff" d="M509.14,-455.77C521.26,-446.68 536.72,-435.09 548.68,-426.11"/>
<polygon fill="#63b8ff" stroke="#63b8ff" points="506.91,-453.07 501.01,-461.87 511.11,-458.67 506.91,-453.07"/>
</a>
</g>
</g>
<!-- Node18 -->
<g id="Node000018" class="node">
<title>Node18</title>
<g id="a_Node000018"><a xlink:href="simulator_8cpp.html" target="_top" xlink:title=" ">
<polygon fill="white" stroke="#666666" points="479.5,-420.5 329.5,-420.5 329.5,-401.5 479.5,-401.5 479.5,-420.5"/>
<text text-anchor="middle" x="404.5" y="-408.5" font-family="Helvetica,sans-Serif" font-size="10.00">src/Simulator/simulator.cpp</text>
</a>
</g>
</g>
<!-- Node17&#45;&gt;Node18 -->
<g id="edge34_Node000017_Node000018" class="edge">
<title>Node17&#45;&gt;Node18</title>
<g id="a_edge34_Node000017_Node000018"><a xlink:title=" ">
<path fill="none" stroke="#63b8ff" d="M468.66,-456.16C452.51,-445.05 430.67,-430.01 417.09,-420.67"/>
<polygon fill="#63b8ff" stroke="#63b8ff" points="466.74,-459.08 476.96,-461.87 470.7,-453.32 466.74,-459.08"/>
</a>
</g>
</g>
</g>
</svg>
