<?xml version="1.0" encoding="UTF-8" standalone="no"?>
<!DOCTYPE svg PUBLIC "-//W3C//DTD SVG 1.1//EN"
 "http://www.w3.org/Graphics/SVG/1.1/DTD/svg11.dtd">
<!-- Generated by graphviz version 2.43.0 (0)
 -->
<!-- Title: src/Drivers/driverModel.cpp Pages: 1 -->
<!--zoomable 357 -->

<svg id="main" version="1.1" xmlns="http://www.w3.org/2000/svg" xmlns:xlink="http://www.w3.org/1999/xlink" xml:space="preserve" onload="init(evt)">
<style type="text/css"><![CDATA[
.node, .edge {opacity: 0.7;}
.node.selected, .edge.selected {opacity: 1;}
.edge:hover path { stroke: red; }
.edge:hover polygon { stroke: red; fill: red; }
]]></style>

<defs>
  <circle id="rim" cx="0" cy="0" r="7"/>
  <circle id="rim2" cx="0" cy="0" r="3.5"/>
  <g id="zoomPlus">
    <use xlink:href="#rim" fill="#404040"><set attributeName="fill" to="#808080" begin="zoomplus.mouseover" end="zoomplus.mouseout"/></use>
    <path d="M-4,0h8M0,-4v8" fill="none" stroke="white" stroke-width="1.5" pointer-events="none"/>
  </g>
  <g id="zoomMin">
    <use xlink:href="#rim" fill="#404040"><set attributeName="fill" to="#808080" begin="zoomminus.mouseover" end="zoomminus.mouseout"/></use>
    <path d="M-4,0h8" fill="none" stroke="white" stroke-width="1.5" pointer-events="none"/>
  </g>
  <g id="arrowUp" transform="translate(30 24)">
    <use xlink:href="#rim"/>
    <path pointer-events="none" fill="none" stroke="white" stroke-width="1.5" d="M0,-3.0v7 M-2.5,-0.5L0,-3.0L2.5,-0.5"/>
  </g>
  <g id="arrowRight" transform="rotate(90) translate(36 -43)">
    <use xlink:href="#rim"/>
    <path pointer-events="none" fill="none" stroke="white" stroke-width="1.5" d="M0,-3.0v7 M-2.5,-0.5L0,-3.0L2.5,-0.5"/>
  </g>
  <g id="arrowDown" transform="rotate(180) translate(-30 -48)">
    <use xlink:href="#rim"/>
    <path pointer-events="none" fill="none" stroke="white" stroke-width="1.5" d="M0,-3.0v7 M-2.5,-0.5L0,-3.0L2.5,-0.5"/>
  </g>
  <g id="arrowLeft" transform="rotate(270) translate(-36 17)">
    <use xlink:href="#rim"/>
    <path pointer-events="none" fill="none" stroke="white" stroke-width="1.5" d="M0,-3.0v7 M-2.5,-0.5L0,-3.0L2.5,-0.5"/>
  </g>
  <g id="resetDef">
    <use xlink:href="#rim2" fill="#404040"><set attributeName="fill" to="#808080" begin="reset.mouseover" end="reset.mouseout"/></use>
  </g>
</defs>
<script type="application/ecmascript">
var viewWidth = 1193;
var viewHeight = 357;
var sectionId = 'dynsection-0';
</script>
<script type="application/ecmascript" xlink:href="svg.min.js"/>
<svg id="graph" class="graph">
<g id="viewport">
<title>src/Drivers/driverModel.cpp</title>
<!-- Node1 -->
<g id="Node000001" class="node">
<title>Node1</title>
<g id="a_Node000001"><a xlink:title=" ">
<polygon fill="#999999" stroke="#666666" points="867.31,-349 716.31,-349 716.31,-330 867.31,-330 867.31,-349"/>
<text text-anchor="middle" x="791.81" y="-337" font-family="Helvetica,sans-Serif" font-size="10.00">src/Drivers/driverModel.cpp</text>
</a>
</g>
</g>
<!-- Node2 -->
<g id="Node000002" class="node">
<title>Node2</title>
<g id="a_Node000002"><a xlink:href="driverModel_8h.html" target="_top" xlink:title=" ">
<polygon fill="white" stroke="#666666" points="852.81,-294 730.81,-294 730.81,-275 852.81,-275 852.81,-294"/>
<text text-anchor="middle" x="791.81" y="-282" font-family="Helvetica,sans-Serif" font-size="10.00">Drivers/driverModel.h</text>
</a>
</g>
</g>
<!-- Node1&#45;&gt;Node2 -->
<g id="edge1_Node000001_Node000002" class="edge">
<title>Node1&#45;&gt;Node2</title>
<g id="a_edge1_Node000001_Node000002"><a xlink:title=" ">
<path fill="none" stroke="#63b8ff" d="M791.81,-329.75C791.81,-322.8 791.81,-312.85 791.81,-304.13"/>
<polygon fill="#63b8ff" stroke="#63b8ff" points="795.31,-304.09 791.81,-294.09 788.31,-304.09 795.31,-304.09"/>
</a>
</g>
</g>
<!-- Node3 -->
<g id="Node000003" class="node">
<title>Node3</title>
<g id="a_Node000003"><a xlink:title=" ">
<polygon fill="#e0e0e0" stroke="#999999" points="702.81,-129 644.81,-129 644.81,-110 702.81,-110 702.81,-129"/>
<text text-anchor="middle" x="673.81" y="-117" font-family="Helvetica,sans-Serif" font-size="10.00">memory</text>
</a>
</g>
</g>
<!-- Node2&#45;&gt;Node3 -->
<g id="edge2_Node000002_Node000003" class="edge">
<title>Node2&#45;&gt;Node3</title>
<g id="a_edge2_Node000002_Node000003"><a xlink:title=" ">
<path fill="none" stroke="#63b8ff" d="M766.97,-274.92C732.68,-261.57 672.2,-232.22 646.81,-184 638.66,-168.52 648.59,-150.04 658.63,-137.02"/>
<polygon fill="#63b8ff" stroke="#63b8ff" points="661.32,-139.26 665.05,-129.34 655.95,-134.77 661.32,-139.26"/>
</a>
</g>
</g>
<!-- Node4 -->
<g id="Node000004" class="node">
<title>Node4</title>
<g id="a_Node000004"><a xlink:title=" ">
<polygon fill="#e0e0e0" stroke="#999999" points="776.81,-129 720.81,-129 720.81,-110 776.81,-110 776.81,-129"/>
<text text-anchor="middle" x="748.81" y="-117" font-family="Helvetica,sans-Serif" font-size="10.00">optional</text>
</a>
</g>
</g>
<!-- Node2&#45;&gt;Node4 -->
<g id="edge3_Node000002_Node000004" class="edge">
<title>Node2&#45;&gt;Node4</title>
<g id="a_edge3_Node000002_Node000004"><a xlink:title=" ">
<path fill="none" stroke="#63b8ff" d="M812.33,-275C826.83,-267.77 845.16,-255.86 853.81,-239 857.66,-231.49 855.89,-228.18 853.81,-220 846.93,-193.02 843.14,-185.04 823.81,-165 811.13,-151.86 793.76,-141.22 778.92,-133.65"/>
<polygon fill="#63b8ff" stroke="#63b8ff" points="780.14,-130.35 769.62,-129.12 777.08,-136.64 780.14,-130.35"/>
</a>
</g>
</g>
<!-- Node5 -->
<g id="Node000005" class="node">
<title>Node5</title>
<g id="a_Node000005"><a xlink:title=" ">
<polygon fill="#e0e0e0" stroke="#999999" points="333.81,-19 289.81,-19 289.81,0 333.81,0 333.81,-19"/>
<text text-anchor="middle" x="311.81" y="-7" font-family="Helvetica,sans-Serif" font-size="10.00">string</text>
</a>
</g>
</g>
<!-- Node2&#45;&gt;Node5 -->
<g id="edge4_Node000002_Node000005" class="edge">
<title>Node2&#45;&gt;Node5</title>
<g id="a_edge4_Node000002_Node000005"><a xlink:title=" ">
<path fill="none" stroke="#63b8ff" d="M730.58,-282.04C591.06,-278.27 253.07,-266.51 142.81,-239 75.73,-222.27 0.81,-244.63 0.81,-175.5 0.81,-175.5 0.81,-175.5 0.81,-118.5 0.81,-89.04 -2.42,-74.33 19.81,-55 58.1,-21.71 211.71,-13.29 279.44,-11.19"/>
<polygon fill="#63b8ff" stroke="#63b8ff" points="279.65,-14.69 289.55,-10.9 279.45,-7.69 279.65,-14.69"/>
</a>
</g>
</g>
<!-- Node6 -->
<g id="Node000006" class="node">
<title>Node6</title>
<g id="a_Node000006"><a xlink:title=" ">
<polygon fill="#e0e0e0" stroke="#999999" points="962.31,-74 921.31,-74 921.31,-55 962.31,-55 962.31,-74"/>
<text text-anchor="middle" x="941.81" y="-62" font-family="Helvetica,sans-Serif" font-size="10.00">tuple</text>
</a>
</g>
</g>
<!-- Node2&#45;&gt;Node6 -->
<g id="edge5_Node000002_Node000006" class="edge">
<title>Node2&#45;&gt;Node6</title>
<g id="a_edge5_Node000002_Node000006"><a xlink:title=" ">
<path fill="none" stroke="#63b8ff" d="M840.29,-274.94C862.61,-268.6 887.67,-257.69 903.81,-239 942.38,-194.34 944.52,-119.5 943.14,-84.55"/>
<polygon fill="#63b8ff" stroke="#63b8ff" points="946.62,-84.13 942.59,-74.33 939.63,-84.51 946.62,-84.13"/>
</a>
</g>
</g>
<!-- Node7 -->
<g id="Node000007" class="node">
<title>Node7</title>
<g id="a_Node000007"><a xlink:title=" ">
<polygon fill="#e0e0e0" stroke="#999999" points="1155.31,-19 1062.31,-19 1062.31,0 1155.31,0 1155.31,-19"/>
<text text-anchor="middle" x="1108.81" y="-7" font-family="Helvetica,sans-Serif" font-size="10.00">unordered_map</text>
</a>
</g>
</g>
<!-- Node2&#45;&gt;Node7 -->
<g id="edge6_Node000002_Node000007" class="edge">
<title>Node2&#45;&gt;Node7</title>
<g id="a_edge6_Node000002_Node000007"><a xlink:title=" ">
<path fill="none" stroke="#63b8ff" d="M853.21,-279.36C963.75,-270.21 1184.81,-243.43 1184.81,-175.5 1184.81,-175.5 1184.81,-175.5 1184.81,-118.5 1184.81,-79.47 1151.19,-44.58 1128.68,-25.6"/>
<polygon fill="#63b8ff" stroke="#63b8ff" points="1130.66,-22.7 1120.68,-19.12 1126.25,-28.14 1130.66,-22.7"/>
</a>
</g>
</g>
<!-- Node8 -->
<g id="Node000008" class="node">
<title>Node8</title>
<g id="a_Node000008"><a xlink:title=" ">
<polygon fill="#e0e0e0" stroke="#999999" points="903.31,-74 858.31,-74 858.31,-55 903.31,-55 903.31,-74"/>
<text text-anchor="middle" x="880.81" y="-62" font-family="Helvetica,sans-Serif" font-size="10.00">utility</text>
</a>
</g>
</g>
<!-- Node2&#45;&gt;Node8 -->
<g id="edge7_Node000002_Node000008" class="edge">
<title>Node2&#45;&gt;Node8</title>
<g id="a_edge7_Node000002_Node000008"><a xlink:title=" ">
<path fill="none" stroke="#63b8ff" d="M832.29,-274.9C851.95,-268.48 873.86,-257.5 885.81,-239 917.08,-190.57 898.82,-117.64 887.6,-83.87"/>
<polygon fill="#63b8ff" stroke="#63b8ff" points="890.88,-82.64 884.27,-74.36 884.27,-84.95 890.88,-82.64"/>
</a>
</g>
</g>
<!-- Node9 -->
<g id="Node000009" class="node">
<title>Node9</title>
<g id="a_Node000009"><a xlink:title=" ">
<polygon fill="#e0e0e0" stroke="#999999" points="279.31,-74 214.31,-74 214.31,-55 279.31,-55 279.31,-74"/>
<text text-anchor="middle" x="246.81" y="-62" font-family="Helvetica,sans-Serif" font-size="10.00">functional</text>
</a>
</g>
</g>
<!-- Node2&#45;&gt;Node9 -->
<g id="edge8_Node000002_Node000009" class="edge">
<title>Node2&#45;&gt;Node9</title>
<g id="a_edge8_Node000002_Node000009"><a xlink:title=" ">
<path fill="none" stroke="#63b8ff" d="M730.66,-283.3C639.06,-280.22 464.04,-263.39 342.81,-184 302.54,-157.63 271.06,-108.96 256.18,-82.96"/>
<polygon fill="#63b8ff" stroke="#63b8ff" points="259.23,-81.24 251.31,-74.19 253.11,-84.64 259.23,-81.24"/>
</a>
</g>
</g>
<!-- Node10 -->
<g id="Node000010" class="node">
<title>Node10</title>
<g id="a_Node000010"><a xlink:href="channel_8h.html" target="_top" xlink:title=" ">
<polygon fill="white" stroke="#666666" points="845.31,-239 738.31,-239 738.31,-220 845.31,-220 845.31,-239"/>
<text text-anchor="middle" x="791.81" y="-227" font-family="Helvetica,sans-Serif" font-size="10.00">Channel/channel.h</text>
</a>
</g>
</g>
<!-- Node2&#45;&gt;Node10 -->
<g id="edge9_Node000002_Node000010" class="edge">
<title>Node2&#45;&gt;Node10</title>
<g id="a_edge9_Node000002_Node000010"><a xlink:title=" ">
<path fill="none" stroke="#63b8ff" d="M791.81,-274.75C791.81,-267.8 791.81,-257.85 791.81,-249.13"/>
<polygon fill="#63b8ff" stroke="#63b8ff" points="795.31,-249.09 791.81,-239.09 788.31,-249.09 795.31,-249.09"/>
</a>
</g>
</g>
<!-- Node15 -->
<g id="Node000015" class="node">
<title>Node15</title>
<g id="a_Node000015"><a xlink:href="types_8h.html" target="_top" xlink:title=" ">
<polygon fill="white" stroke="#666666" points="840.31,-74 751.31,-74 751.31,-55 840.31,-55 840.31,-74"/>
<text text-anchor="middle" x="795.81" y="-62" font-family="Helvetica,sans-Serif" font-size="10.00">Library/types.h</text>
</a>
</g>
</g>
<!-- Node2&#45;&gt;Node15 -->
<g id="edge45_Node000002_Node000015" class="edge">
<title>Node2&#45;&gt;Node15</title>
<g id="a_edge45_Node000002_Node000015"><a xlink:title=" ">
<path fill="none" stroke="#63b8ff" d="M820.94,-274.87C838.16,-268.1 858.54,-256.79 868.81,-239 900.44,-184.18 842.42,-112.99 812.3,-81.59"/>
<polygon fill="#63b8ff" stroke="#63b8ff" points="814.49,-78.83 804.98,-74.16 809.51,-83.74 814.49,-78.83"/>
</a>
</g>
</g>
<!-- Node16 -->
<g id="Node000016" class="node">
<title>Node16</title>
<g id="a_Node000016"><a xlink:href="transaction_8h_source.html" target="_top" xlink:title=" ">
<polygon fill="white" stroke="#666666" points="561.31,-184 422.31,-184 422.31,-165 561.31,-165 561.31,-184"/>
<text text-anchor="middle" x="491.81" y="-172" font-family="Helvetica,sans-Serif" font-size="10.00">Transaction/transaction.h</text>
</a>
</g>
</g>
<!-- Node2&#45;&gt;Node16 -->
<g id="edge44_Node000002_Node000016" class="edge">
<title>Node2&#45;&gt;Node16</title>
<g id="a_edge44_Node000002_Node000016"><a xlink:title=" ">
<path fill="none" stroke="#63b8ff" d="M730.48,-277.66C686.73,-271.86 627.31,-260.56 578.81,-239 552.03,-227.1 525.44,-205.98 508.84,-191.38"/>
<polygon fill="#63b8ff" stroke="#63b8ff" points="510.89,-188.52 501.12,-184.43 506.21,-193.72 510.89,-188.52"/>
</a>
</g>
</g>
<!-- Node18 -->
<g id="Node000018" class="node">
<title>Node18</title>
<g id="a_Node000018"><a xlink:href="error_8h.html" target="_top" xlink:title=" ">
<polygon fill="white" stroke="#666666" points="120.31,-129 35.31,-129 35.31,-110 120.31,-110 120.31,-129"/>
<text text-anchor="middle" x="77.81" y="-117" font-family="Helvetica,sans-Serif" font-size="10.00">Library/error.h</text>
</a>
</g>
</g>
<!-- Node2&#45;&gt;Node18 -->
<g id="edge46_Node000002_Node000018" class="edge">
<title>Node2&#45;&gt;Node18</title>
<g id="a_edge46_Node000002_Node000018"><a xlink:title=" ">
<path fill="none" stroke="#63b8ff" d="M730.78,-281.88C584.31,-277.59 221.37,-264.49 172.81,-239 129.95,-216.5 99.71,-165.35 86.03,-138.2"/>
<polygon fill="#63b8ff" stroke="#63b8ff" points="89.12,-136.54 81.61,-129.07 82.82,-139.6 89.12,-136.54"/>
</a>
</g>
</g>
<!-- Node10&#45;&gt;Node3 -->
<g id="edge11_Node000010_Node000003" class="edge">
<title>Node10&#45;&gt;Node3</title>
<g id="a_edge11_Node000010_Node000003"><a xlink:title=" ">
<path fill="none" stroke="#63b8ff" d="M738.11,-225.78C708.41,-221.19 673.77,-210.1 654.81,-184 644.81,-170.23 652.7,-151.18 661.15,-137.55"/>
<polygon fill="#63b8ff" stroke="#63b8ff" points="664.16,-139.34 666.88,-129.1 658.37,-135.41 664.16,-139.34"/>
</a>
</g>
</g>
<!-- Node10&#45;&gt;Node5 -->
<g id="edge12_Node000010_Node000005" class="edge">
<title>Node10&#45;&gt;Node5</title>
<g id="a_edge12_Node000010_Node000005"><a xlink:title=" ">
<path fill="none" stroke="#63b8ff" d="M742.96,-219.95C722.3,-213.65 700.19,-202.77 687.81,-184 657.75,-138.44 820.21,-152.37 785.81,-110 729.62,-40.79 441.29,-17.97 343.95,-12.17"/>
<polygon fill="#63b8ff" stroke="#63b8ff" points="344.02,-8.67 333.83,-11.59 343.62,-15.66 344.02,-8.67"/>
</a>
</g>
</g>
<!-- Node10&#45;&gt;Node6 -->
<g id="edge13_Node000010_Node000006" class="edge">
<title>Node10&#45;&gt;Node6</title>
<g id="a_edge13_Node000010_Node000006"><a xlink:title=" ">
<path fill="none" stroke="#63b8ff" d="M807.37,-219.95C821.29,-211.84 841.75,-198.73 856.81,-184 889.1,-152.41 917.67,-107.29 932.02,-82.85"/>
<polygon fill="#63b8ff" stroke="#63b8ff" points="935.15,-84.42 937.11,-74.01 929.08,-80.93 935.15,-84.42"/>
</a>
</g>
</g>
<!-- Node10&#45;&gt;Node7 -->
<g id="edge14_Node000010_Node000007" class="edge">
<title>Node10&#45;&gt;Node7</title>
<g id="a_edge14_Node000010_Node000007"><a xlink:title=" ">
<path fill="none" stroke="#63b8ff" d="M828.74,-219.96C855.68,-212.78 892.47,-200.94 921.81,-184 997.14,-140.49 1066.97,-61.59 1095.39,-27.24"/>
<polygon fill="#63b8ff" stroke="#63b8ff" points="1098.37,-29.11 1101.99,-19.15 1092.95,-24.68 1098.37,-29.11"/>
</a>
</g>
</g>
<!-- Node10&#45;&gt;Node8 -->
<g id="edge16_Node000010_Node000008" class="edge">
<title>Node10&#45;&gt;Node8</title>
<g id="a_edge16_Node000010_Node000008"><a xlink:title=" ">
<path fill="none" stroke="#63b8ff" d="M803.75,-219.84C814.28,-211.66 829.37,-198.51 838.81,-184 859.56,-152.09 871.53,-108.67 877.05,-84.22"/>
<polygon fill="#63b8ff" stroke="#63b8ff" points="880.53,-84.67 879.2,-74.16 873.69,-83.21 880.53,-84.67"/>
</a>
</g>
</g>
<!-- Node11 -->
<g id="Node000011" class="node">
<title>Node11</title>
<g id="a_Node000011"><a xlink:title=" ">
<polygon fill="#e0e0e0" stroke="#999999" points="750.31,-184 697.31,-184 697.31,-165 750.31,-165 750.31,-184"/>
<text text-anchor="middle" x="723.81" y="-172" font-family="Helvetica,sans-Serif" font-size="10.00">iterator</text>
</a>
</g>
</g>
<!-- Node10&#45;&gt;Node11 -->
<g id="edge10_Node000010_Node000011" class="edge">
<title>Node10&#45;&gt;Node11</title>
<g id="a_edge10_Node000010_Node000011"><a xlink:title=" ">
<path fill="none" stroke="#63b8ff" d="M780.88,-219.98C770.73,-212.07 755.39,-200.11 743.16,-190.58"/>
<polygon fill="#63b8ff" stroke="#63b8ff" points="744.97,-187.56 734.93,-184.17 740.67,-193.08 744.97,-187.56"/>
</a>
</g>
</g>
<!-- Node12 -->
<g id="Node000012" class="node">
<title>Node12</title>
<g id="a_Node000012"><a xlink:title=" ">
<polygon fill="#e0e0e0" stroke="#999999" points="335.81,-74 297.81,-74 297.81,-55 335.81,-55 335.81,-74"/>
<text text-anchor="middle" x="316.81" y="-62" font-family="Helvetica,sans-Serif" font-size="10.00">map</text>
</a>
</g>
</g>
<!-- Node10&#45;&gt;Node12 -->
<g id="edge15_Node000010_Node000012" class="edge">
<title>Node10&#45;&gt;Node12</title>
<g id="a_edge15_Node000010_Node000012"><a xlink:title=" ">
<path fill="none" stroke="#63b8ff" d="M738.11,-228.36C663.48,-226.8 524.93,-218.89 412.81,-184 362.88,-168.46 335.79,-173.79 308.81,-129 300.57,-115.33 304.1,-97.02 308.77,-83.57"/>
<polygon fill="#63b8ff" stroke="#63b8ff" points="312.13,-84.59 312.57,-74.01 305.63,-82.01 312.13,-84.59"/>
</a>
</g>
</g>
<!-- Node13 -->
<g id="Node000013" class="node">
<title>Node13</title>
<g id="a_Node000013"><a xlink:title=" ">
<polygon fill="#e0e0e0" stroke="#999999" points="782.31,-19 735.31,-19 735.31,0 782.31,0 782.31,-19"/>
<text text-anchor="middle" x="758.81" y="-7" font-family="Helvetica,sans-Serif" font-size="10.00">vector</text>
</a>
</g>
</g>
<!-- Node10&#45;&gt;Node13 -->
<g id="edge17_Node000010_Node000013" class="edge">
<title>Node10&#45;&gt;Node13</title>
<g id="a_edge17_Node000010_Node000013"><a xlink:title=" ">
<path fill="none" stroke="#63b8ff" d="M814.42,-219.88C874.33,-195.81 1028.74,-125.06 971.81,-55 949.64,-27.72 847.15,-16.59 792.82,-12.54"/>
<polygon fill="#63b8ff" stroke="#63b8ff" points="792.86,-9.03 782.64,-11.82 792.37,-16.02 792.86,-9.03"/>
</a>
</g>
</g>
<!-- Node14 -->
<g id="Node000014" class="node">
<title>Node14</title>
<g id="a_Node000014"><a xlink:title=" ">
<polygon fill="#e0e0e0" stroke="#999999" points="814.81,-184 768.81,-184 768.81,-165 814.81,-165 814.81,-184"/>
<text text-anchor="middle" x="791.81" y="-172" font-family="Helvetica,sans-Serif" font-size="10.00">future</text>
</a>
</g>
</g>
<!-- Node10&#45;&gt;Node14 -->
<g id="edge18_Node000010_Node000014" class="edge">
<title>Node10&#45;&gt;Node14</title>
<g id="a_edge18_Node000010_Node000014"><a xlink:title=" ">
<path fill="none" stroke="#63b8ff" d="M791.81,-219.75C791.81,-212.8 791.81,-202.85 791.81,-194.13"/>
<polygon fill="#63b8ff" stroke="#63b8ff" points="795.31,-194.09 791.81,-184.09 788.31,-194.09 795.31,-194.09"/>
</a>
</g>
</g>
<!-- Node10&#45;&gt;Node15 -->
<g id="edge19_Node000010_Node000015" class="edge">
<title>Node10&#45;&gt;Node15</title>
<g id="a_edge19_Node000010_Node000015"><a xlink:title=" ">
<path fill="none" stroke="#63b8ff" d="M800.56,-219.9C808.37,-211.56 819.26,-198.13 823.81,-184 828.48,-169.5 824.96,-131.09 818.81,-110 816.07,-100.62 811.31,-90.91 806.82,-82.95"/>
<polygon fill="#63b8ff" stroke="#63b8ff" points="809.77,-81.07 801.65,-74.27 803.76,-84.65 809.77,-81.07"/>
</a>
</g>
</g>
<!-- Node10&#45;&gt;Node16 -->
<g id="edge23_Node000010_Node000016" class="edge">
<title>Node10&#45;&gt;Node16</title>
<g id="a_edge23_Node000010_Node000016"><a xlink:title=" ">
<path fill="none" stroke="#63b8ff" d="M743.61,-219.98C691.06,-210.7 606.96,-195.84 550.58,-185.88"/>
<polygon fill="#63b8ff" stroke="#63b8ff" points="550.84,-182.38 540.39,-184.08 549.62,-189.27 550.84,-182.38"/>
</a>
</g>
</g>
<!-- Node15&#45;&gt;Node5 -->
<g id="edge22_Node000015_Node000005" class="edge">
<title>Node15&#45;&gt;Node5</title>
<g id="a_edge22_Node000015_Node000005"><a xlink:title=" ">
<path fill="none" stroke="#63b8ff" d="M751.14,-58.61C654.53,-48.03 428.08,-23.23 343.99,-14.02"/>
<polygon fill="#63b8ff" stroke="#63b8ff" points="344.32,-10.54 334,-12.93 343.56,-17.5 344.32,-10.54"/>
</a>
</g>
</g>
<!-- Node15&#45;&gt;Node7 -->
<g id="edge21_Node000015_Node000007" class="edge">
<title>Node15&#45;&gt;Node7</title>
<g id="a_edge21_Node000015_Node000007"><a xlink:title=" ">
<path fill="none" stroke="#63b8ff" d="M840.32,-55.96C895.92,-46.55 991.13,-30.43 1051.95,-20.13"/>
<polygon fill="#63b8ff" stroke="#63b8ff" points="1052.88,-23.52 1062.15,-18.4 1051.71,-16.62 1052.88,-23.52"/>
</a>
</g>
</g>
<!-- Node15&#45;&gt;Node13 -->
<g id="edge20_Node000015_Node000013" class="edge">
<title>Node15&#45;&gt;Node13</title>
<g id="a_edge20_Node000015_Node000013"><a xlink:title=" ">
<path fill="none" stroke="#63b8ff" d="M789.7,-54.75C784.53,-47.34 776.96,-36.5 770.61,-27.41"/>
<polygon fill="#63b8ff" stroke="#63b8ff" points="773.4,-25.29 764.8,-19.09 767.66,-29.29 773.4,-25.29"/>
</a>
</g>
</g>
<!-- Node16&#45;&gt;Node3 -->
<g id="edge27_Node000016_Node000003" class="edge">
<title>Node16&#45;&gt;Node3</title>
<g id="a_edge27_Node000016_Node000003"><a xlink:title=" ">
<path fill="none" stroke="#63b8ff" d="M521.05,-164.98C551.96,-155.98 600.87,-141.74 635,-131.8"/>
<polygon fill="#63b8ff" stroke="#63b8ff" points="636.02,-135.15 644.64,-128.99 634.06,-128.43 636.02,-135.15"/>
</a>
</g>
</g>
<!-- Node16&#45;&gt;Node4 -->
<g id="edge30_Node000016_Node000004" class="edge">
<title>Node16&#45;&gt;Node4</title>
<g id="a_edge30_Node000016_Node000004"><a xlink:title=" ">
<path fill="none" stroke="#63b8ff" d="M535.71,-164.97C578.08,-156.66 644.29,-143.47 710.74,-129.19"/>
<polygon fill="#63b8ff" stroke="#63b8ff" points="711.51,-132.6 720.54,-127.07 710.03,-125.76 711.51,-132.6"/>
</a>
</g>
</g>
<!-- Node16&#45;&gt;Node5 -->
<g id="edge24_Node000016_Node000005" class="edge">
<title>Node16&#45;&gt;Node5</title>
<g id="a_edge24_Node000016_Node000005"><a xlink:title=" ">
<path fill="none" stroke="#63b8ff" d="M422.2,-166.47C379.67,-160.35 324.97,-149.16 279.81,-129 242.06,-112.15 223.49,-110.87 204.81,-74 187.98,-40.8 242.28,-23.53 279.58,-15.78"/>
<polygon fill="#63b8ff" stroke="#63b8ff" points="280.42,-19.18 289.58,-13.84 279.09,-12.31 280.42,-19.18"/>
</a>
</g>
</g>
<!-- Node16&#45;&gt;Node8 -->
<g id="edge25_Node000016_Node000008" class="edge">
<title>Node16&#45;&gt;Node8</title>
<g id="a_edge25_Node000016_Node000008"><a xlink:title=" ">
<path fill="none" stroke="#63b8ff" d="M513.51,-164.88C535.06,-156.2 568.97,-142.25 597.81,-129 614.97,-121.12 617.86,-115.86 635.81,-110 724.05,-81.19 753.06,-93.45 848.11,-73.92"/>
<polygon fill="#63b8ff" stroke="#63b8ff" points="849.09,-77.29 858.14,-71.8 847.64,-70.45 849.09,-77.29"/>
</a>
</g>
</g>
<!-- Node16&#45;&gt;Node9 -->
<g id="edge31_Node000016_Node000009" class="edge">
<title>Node16&#45;&gt;Node9</title>
<g id="a_edge31_Node000016_Node000009"><a xlink:title=" ">
<path fill="none" stroke="#63b8ff" d="M421.93,-165.84C386.3,-159.69 343.32,-148.67 308.81,-129 288.41,-117.38 270.33,-97.09 259.03,-82.58"/>
<polygon fill="#63b8ff" stroke="#63b8ff" points="261.71,-80.32 252.92,-74.41 256.11,-84.51 261.71,-80.32"/>
</a>
</g>
</g>
<!-- Node16&#45;&gt;Node12 -->
<g id="edge29_Node000016_Node000012" class="edge">
<title>Node16&#45;&gt;Node12</title>
<g id="a_edge29_Node000016_Node000012"><a xlink:title=" ">
<path fill="none" stroke="#63b8ff" d="M428.08,-165C385.03,-157.83 333.62,-146 319.81,-129 309.7,-116.56 310.09,-97.81 312.33,-83.9"/>
<polygon fill="#63b8ff" stroke="#63b8ff" points="315.78,-84.5 314.35,-74 308.92,-83.1 315.78,-84.5"/>
</a>
</g>
</g>
<!-- Node16&#45;&gt;Node13 -->
<g id="edge26_Node000016_Node000013" class="edge">
<title>Node16&#45;&gt;Node13</title>
<g id="a_edge26_Node000016_Node000013"><a xlink:title=" ">
<path fill="none" stroke="#63b8ff" d="M469.75,-164.88C444.06,-153.55 407.15,-132.44 423.81,-110 460.25,-60.92 646.91,-27.45 724.7,-15.43"/>
<polygon fill="#63b8ff" stroke="#63b8ff" points="725.57,-18.84 734.93,-13.88 724.52,-11.92 725.57,-18.84"/>
</a>
</g>
</g>
<!-- Node16&#45;&gt;Node15 -->
<g id="edge32_Node000016_Node000015" class="edge">
<title>Node16&#45;&gt;Node15</title>
<g id="a_edge32_Node000016_Node000015"><a xlink:title=" ">
<path fill="none" stroke="#63b8ff" d="M504.18,-164.79C524.07,-151.18 564.77,-124.89 602.81,-110 647.88,-92.36 701.73,-80.66 741.08,-73.71"/>
<polygon fill="#63b8ff" stroke="#63b8ff" points="741.75,-77.15 751.01,-72 740.56,-70.25 741.75,-77.15"/>
</a>
</g>
</g>
<!-- Node17 -->
<g id="Node000017" class="node">
<title>Node17</title>
<g id="a_Node000017"><a xlink:title=" ">
<polygon fill="#e0e0e0" stroke="#999999" points="376.81,-129 328.81,-129 328.81,-110 376.81,-110 376.81,-129"/>
<text text-anchor="middle" x="352.81" y="-117" font-family="Helvetica,sans-Serif" font-size="10.00">mutex</text>
</a>
</g>
</g>
<!-- Node16&#45;&gt;Node17 -->
<g id="edge28_Node000016_Node000017" class="edge">
<title>Node16&#45;&gt;Node17</title>
<g id="a_edge28_Node000016_Node000017"><a xlink:title=" ">
<path fill="none" stroke="#63b8ff" d="M469.48,-164.98C446.61,-156.27 410.85,-142.63 384.95,-132.75"/>
<polygon fill="#63b8ff" stroke="#63b8ff" points="386.14,-129.46 375.55,-129.17 383.64,-136 386.14,-129.46"/>
</a>
</g>
</g>
<!-- Node16&#45;&gt;Node18 -->
<g id="edge33_Node000016_Node000018" class="edge">
<title>Node16&#45;&gt;Node18</title>
<g id="a_edge33_Node000016_Node000018"><a xlink:title=" ">
<path fill="none" stroke="#63b8ff" d="M422.3,-165.34C350.31,-156.76 234.59,-142.66 134.81,-129 133.35,-128.8 131.88,-128.6 130.39,-128.39"/>
<polygon fill="#63b8ff" stroke="#63b8ff" points="130.83,-124.92 120.43,-126.97 129.84,-131.85 130.83,-124.92"/>
</a>
</g>
</g>
<!-- Node20 -->
<g id="Node000020" class="node">
<title>Node20</title>
<g id="a_Node000020"><a xlink:href="evaluate_8h.html" target="_top" xlink:title=" ">
<polygon fill="white" stroke="#666666" points="550.81,-129 432.81,-129 432.81,-110 550.81,-110 550.81,-129"/>
<text text-anchor="middle" x="491.81" y="-117" font-family="Helvetica,sans-Serif" font-size="10.00">Evaluator/evaluate.h</text>
</a>
</g>
</g>
<!-- Node16&#45;&gt;Node20 -->
<g id="edge36_Node000016_Node000020" class="edge">
<title>Node16&#45;&gt;Node20</title>
<g id="a_edge36_Node000016_Node000020"><a xlink:title=" ">
<path fill="none" stroke="#63b8ff" d="M491.81,-164.75C491.81,-157.8 491.81,-147.85 491.81,-139.13"/>
<polygon fill="#63b8ff" stroke="#63b8ff" points="495.31,-139.09 491.81,-129.09 488.31,-139.09 495.31,-139.09"/>
</a>
</g>
</g>
<!-- Node18&#45;&gt;Node5 -->
<g id="edge34_Node000018_Node000005" class="edge">
<title>Node18&#45;&gt;Node5</title>
<g id="a_edge34_Node000018_Node000005"><a xlink:title=" ">
<path fill="none" stroke="#63b8ff" d="M84.08,-109.64C94.33,-95.82 116.04,-69.25 140.81,-55 184.79,-29.7 243.31,-18.52 279.23,-13.77"/>
<polygon fill="#63b8ff" stroke="#63b8ff" points="280.12,-17.19 289.62,-12.5 279.26,-10.24 280.12,-17.19"/>
</a>
</g>
</g>
<!-- Node19 -->
<g id="Node000019" class="node">
<title>Node19</title>
<g id="a_Node000019"><a xlink:title=" ">
<polygon fill="#e0e0e0" stroke="#999999" points="88.81,-74 28.81,-74 28.81,-55 88.81,-55 88.81,-74"/>
<text text-anchor="middle" x="58.81" y="-62" font-family="Helvetica,sans-Serif" font-size="10.00">iostream</text>
</a>
</g>
</g>
<!-- Node18&#45;&gt;Node19 -->
<g id="edge35_Node000018_Node000019" class="edge">
<title>Node18&#45;&gt;Node19</title>
<g id="a_edge35_Node000018_Node000019"><a xlink:title=" ">
<path fill="none" stroke="#63b8ff" d="M74.67,-109.75C72.12,-102.65 68.45,-92.4 65.28,-83.56"/>
<polygon fill="#63b8ff" stroke="#63b8ff" points="68.56,-82.32 61.89,-74.09 61.97,-84.68 68.56,-82.32"/>
</a>
</g>
</g>
<!-- Node20&#45;&gt;Node5 -->
<g id="edge39_Node000020_Node000005" class="edge">
<title>Node20&#45;&gt;Node5</title>
<g id="a_edge39_Node000020_Node000005"><a xlink:title=" ">
<path fill="none" stroke="#63b8ff" d="M477.38,-109.84C446.31,-91.2 372.83,-47.11 335.08,-24.46"/>
<polygon fill="#63b8ff" stroke="#63b8ff" points="336.68,-21.34 326.3,-19.2 333.08,-27.34 336.68,-21.34"/>
</a>
</g>
</g>
<!-- Node20&#45;&gt;Node6 -->
<g id="edge41_Node000020_Node000006" class="edge">
<title>Node20&#45;&gt;Node6</title>
<g id="a_edge41_Node000020_Node000006"><a xlink:title=" ">
<path fill="none" stroke="#63b8ff" d="M550.88,-115.61C630.79,-110.96 777.79,-99.8 911.03,-74.04"/>
<polygon fill="#63b8ff" stroke="#63b8ff" points="911.87,-77.45 921.01,-72.08 910.52,-70.58 911.87,-77.45"/>
</a>
</g>
</g>
<!-- Node20&#45;&gt;Node8 -->
<g id="edge37_Node000020_Node000008" class="edge">
<title>Node20&#45;&gt;Node8</title>
<g id="a_edge37_Node000020_Node000008"><a xlink:title=" ">
<path fill="none" stroke="#63b8ff" d="M550.94,-113.6C619.99,-107.34 737.73,-94.94 848.19,-73.85"/>
<polygon fill="#63b8ff" stroke="#63b8ff" points="849.02,-77.26 858.17,-71.92 847.69,-70.38 849.02,-77.26"/>
</a>
</g>
</g>
<!-- Node20&#45;&gt;Node9 -->
<g id="edge40_Node000020_Node000009" class="edge">
<title>Node20&#45;&gt;Node9</title>
<g id="a_edge40_Node000020_Node000009"><a xlink:title=" ">
<path fill="none" stroke="#63b8ff" d="M452.44,-109.98C407.8,-100.33 335.27,-84.64 289.35,-74.7"/>
<polygon fill="#63b8ff" stroke="#63b8ff" points="289.93,-71.25 279.41,-72.55 288.45,-78.09 289.93,-71.25"/>
</a>
</g>
</g>
<!-- Node20&#45;&gt;Node12 -->
<g id="edge42_Node000020_Node000012" class="edge">
<title>Node20&#45;&gt;Node12</title>
<g id="a_edge42_Node000020_Node000012"><a xlink:title=" ">
<path fill="none" stroke="#63b8ff" d="M463.69,-109.98C431.43,-100.22 378.79,-84.27 346.06,-74.36"/>
<polygon fill="#63b8ff" stroke="#63b8ff" points="346.77,-70.92 336.19,-71.37 344.74,-77.62 346.77,-70.92"/>
</a>
</g>
</g>
<!-- Node20&#45;&gt;Node13 -->
<g id="edge38_Node000020_Node000013" class="edge">
<title>Node20&#45;&gt;Node13</title>
<g id="a_edge38_Node000020_Node000013"><a xlink:title=" ">
<path fill="none" stroke="#63b8ff" d="M513.21,-109.84C560.39,-90.76 673.49,-45.01 728.18,-22.89"/>
<polygon fill="#63b8ff" stroke="#63b8ff" points="729.72,-26.04 737.68,-19.05 727.1,-19.55 729.72,-26.04"/>
</a>
</g>
</g>
<!-- Node20&#45;&gt;Node15 -->
<g id="edge43_Node000020_Node000015" class="edge">
<title>Node20&#45;&gt;Node15</title>
<g id="a_edge43_Node000020_Node000015"><a xlink:title=" ">
<path fill="none" stroke="#63b8ff" d="M540.65,-109.98C595.43,-100.43 684.07,-84.98 741.13,-75.03"/>
<polygon fill="#63b8ff" stroke="#63b8ff" points="741.8,-78.47 751.05,-73.3 740.6,-71.57 741.8,-78.47"/>
</a>
</g>
</g>
</g>
</svg>

<g id="navigator" transform="translate(0 0)" fill="#404254">
  <rect fill="#f2f5e9" fill-opacity="0.5" stroke="#606060" stroke-width=".5" x="0" y="0" width="60" height="60"/>
  <use id="zoomplus" xlink:href="#zoomPlus" x="17" y="9" onmousedown="handleZoom(evt,'in')"/>
  <use id="zoomminus" xlink:href="#zoomMin" x="42" y="9" onmousedown="handleZoom(evt,'out')"/>
  <use id="reset" xlink:href="#resetDef" x="30" y="36" onmousedown="handleReset()"/>
   <use id="arrowup" xlink:href="#arrowUp" x="0" y="0" onmousedown="handlePan(0,-1)"/>
  <use id="arrowright" xlink:href="#arrowRight" x="0" y="0" onmousedown="handlePan(1,0)"/>
  <use id="arrowdown" xlink:href="#arrowDown" x="0" y="0" onmousedown="handlePan(0,1)"/>
  <use id="arrowleft" xlink:href="#arrowLeft" x="0" y="0" onmousedown="handlePan(-1,0)"/>
</g>
<svg viewBox="0 0 15 15" width="100%" height="30px" preserveAspectRatio="xMaxYMin meet">
 <g id="arrow_out" transform="scale(0.3 0.3)">
  <a xlink:href="driverModel_8cpp__incl_org.svg" target="_base">
   <rect id="button" ry="5" rx="5" y="6" x="6" height="38" width="38"
        fill="#f2f5e9" fill-opacity="0.5" stroke="#606060" stroke-width="1.0"/>
   <path id="arrow"
     d="M 11.500037,31.436501 C 11.940474,20.09759 22.043105,11.32322 32.158766,21.979434 L 37.068811,17.246167 C 37.068811,17.246167 37.088388,32 37.088388,32 L 22.160133,31.978069 C 22.160133,31.978069 26.997745,27.140456 26.997745,27.140456 C 18.528582,18.264221 13.291696,25.230495 11.500037,31.436501 z"
     style="fill:#404040;"/>
  </a>
 </g>
</svg>

<style type='text/css'>
<![CDATA[
[data-mouse-over-selected='false'] { opacity: 0.7; }
[data-mouse-over-selected='true']  { opacity: 1.0; }
]]>
</style>
<script type="application/ecmascript"><![CDATA[
document.addEventListener('DOMContentLoaded', (event) => {
  highlightEdges();
  highlightAdjacentNodes();
});
]]></script>
</svg>
