<?xml version="1.0" encoding="UTF-8" standalone="no"?>
<!DOCTYPE svg PUBLIC "-//W3C//DTD SVG 1.1//EN"
 "http://www.w3.org/Graphics/SVG/1.1/DTD/svg11.dtd">
<!-- Generated by graphviz version 2.43.0 (0)
 -->
<!-- Title: src/Drivers/driverModel.cpp Pages: 1 -->
<!--zoomable 357 -->

<svg id="main" version="1.1" xmlns="http://www.w3.org/2000/svg" xmlns:xlink="http://www.w3.org/1999/xlink" xml:space="preserve" onload="init(evt)">
<style type="text/css"><![CDATA[
.node, .edge {opacity: 0.7;}
.node.selected, .edge.selected {opacity: 1;}
.edge:hover path { stroke: red; }
.edge:hover polygon { stroke: red; fill: red; }
]]></style>

<defs>
  <circle id="rim" cx="0" cy="0" r="7"/>
  <circle id="rim2" cx="0" cy="0" r="3.5"/>
  <g id="zoomPlus">
    <use xlink:href="#rim" fill="#404040"><set attributeName="fill" to="#808080" begin="zoomplus.mouseover" end="zoomplus.mouseout"/></use>
    <path d="M-4,0h8M0,-4v8" fill="none" stroke="white" stroke-width="1.5" pointer-events="none"/>
  </g>
  <g id="zoomMin">
    <use xlink:href="#rim" fill="#404040"><set attributeName="fill" to="#808080" begin="zoomminus.mouseover" end="zoomminus.mouseout"/></use>
    <path d="M-4,0h8" fill="none" stroke="white" stroke-width="1.5" pointer-events="none"/>
  </g>
  <g id="arrowUp" transform="translate(30 24)">
    <use xlink:href="#rim"/>
    <path pointer-events="none" fill="none" stroke="white" stroke-width="1.5" d="M0,-3.0v7 M-2.5,-0.5L0,-3.0L2.5,-0.5"/>
  </g>
  <g id="arrowRight" transform="rotate(90) translate(36 -43)">
    <use xlink:href="#rim"/>
    <path pointer-events="none" fill="none" stroke="white" stroke-width="1.5" d="M0,-3.0v7 M-2.5,-0.5L0,-3.0L2.5,-0.5"/>
  </g>
  <g id="arrowDown" transform="rotate(180) translate(-30 -48)">
    <use xlink:href="#rim"/>
    <path pointer-events="none" fill="none" stroke="white" stroke-width="1.5" d="M0,-3.0v7 M-2.5,-0.5L0,-3.0L2.5,-0.5"/>
  </g>
  <g id="arrowLeft" transform="rotate(270) translate(-36 17)">
    <use xlink:href="#rim"/>
    <path pointer-events="none" fill="none" stroke="white" stroke-width="1.5" d="M0,-3.0v7 M-2.5,-0.5L0,-3.0L2.5,-0.5"/>
  </g>
  <g id="resetDef">
    <use xlink:href="#rim2" fill="#404040"><set attributeName="fill" to="#808080" begin="reset.mouseover" end="reset.mouseout"/></use>
  </g>
</defs>
<script type="application/ecmascript">
var viewWidth = 1142;
var viewHeight = 357;
var sectionId = 'dynsection-0';
</script>
<script type="application/ecmascript" xlink:href="svg.min.js"/>
<svg id="graph" class="graph">
<g id="viewport">
<title>src/Drivers/driverModel.cpp</title>
<!-- Node1 -->
<g id="Node000001" class="node">
<title>Node1</title>
<g id="a_Node000001"><a xlink:title=" ">
<polygon fill="#999999" stroke="#666666" points="688.5,-349 537.5,-349 537.5,-330 688.5,-330 688.5,-349"/>
<text text-anchor="middle" x="613" y="-337" font-family="Helvetica,sans-Serif" font-size="10.00">src/Drivers/driverModel.cpp</text>
</a>
</g>
</g>
<!-- Node2 -->
<g id="Node000002" class="node">
<title>Node2</title>
<g id="a_Node000002"><a xlink:href="driverModel_8h.html" target="_top" xlink:title=" ">
<polygon fill="white" stroke="#666666" points="674,-294 552,-294 552,-275 674,-275 674,-294"/>
<text text-anchor="middle" x="613" y="-282" font-family="Helvetica,sans-Serif" font-size="10.00">Drivers/driverModel.h</text>
</a>
</g>
</g>
<!-- Node1&#45;&gt;Node2 -->
<g id="edge1_Node000001_Node000002" class="edge">
<title>Node1&#45;&gt;Node2</title>
<g id="a_edge1_Node000001_Node000002"><a xlink:title=" ">
<path fill="none" stroke="#63b8ff" d="M613,-329.75C613,-322.8 613,-312.85 613,-304.13"/>
<polygon fill="#63b8ff" stroke="#63b8ff" points="616.5,-304.09 613,-294.09 609.5,-304.09 616.5,-304.09"/>
</a>
</g>
</g>
<!-- Node3 -->
<g id="Node000003" class="node">
<title>Node3</title>
<g id="a_Node000003"><a xlink:title=" ">
<polygon fill="#e0e0e0" stroke="#999999" points="232,-129 174,-129 174,-110 232,-110 232,-129"/>
<text text-anchor="middle" x="203" y="-117" font-family="Helvetica,sans-Serif" font-size="10.00">memory</text>
</a>
</g>
</g>
<!-- Node2&#45;&gt;Node3 -->
<g id="edge2_Node000002_Node000003" class="edge">
<title>Node2&#45;&gt;Node3</title>
<g id="a_edge2_Node000002_Node000003"><a xlink:title=" ">
<path fill="none" stroke="#63b8ff" d="M551.9,-280.47C465.07,-275.38 310.96,-263.2 261,-239 229.6,-223.79 219,-215.95 205,-184 198.84,-169.94 198.79,-152.39 200.02,-139.31"/>
<polygon fill="#63b8ff" stroke="#63b8ff" points="203.52,-139.52 201.32,-129.16 196.58,-138.63 203.52,-139.52"/>
</a>
</g>
</g>
<!-- Node4 -->
<g id="Node000004" class="node">
<title>Node4</title>
<g id="a_Node000004"><a xlink:title=" ">
<polygon fill="#e0e0e0" stroke="#999999" points="964,-129 908,-129 908,-110 964,-110 964,-129"/>
<text text-anchor="middle" x="936" y="-117" font-family="Helvetica,sans-Serif" font-size="10.00">optional</text>
</a>
</g>
</g>
<!-- Node2&#45;&gt;Node4 -->
<g id="edge3_Node000002_Node000004" class="edge">
<title>Node2&#45;&gt;Node4</title>
<g id="a_edge3_Node000002_Node000004"><a xlink:title=" ">
<path fill="none" stroke="#63b8ff" d="M635.03,-274.92C675.64,-258.84 764.66,-222.3 836,-184 864.44,-168.73 895.6,-148.31 915.45,-134.8"/>
<polygon fill="#63b8ff" stroke="#63b8ff" points="917.46,-137.67 923.72,-129.12 913.5,-131.9 917.46,-137.67"/>
</a>
</g>
</g>
<!-- Node5 -->
<g id="Node000005" class="node">
<title>Node5</title>
<g id="a_Node000005"><a xlink:title=" ">
<polygon fill="#e0e0e0" stroke="#999999" points="746,-19 702,-19 702,0 746,0 746,-19"/>
<text text-anchor="middle" x="724" y="-7" font-family="Helvetica,sans-Serif" font-size="10.00">string</text>
</a>
</g>
</g>
<!-- Node2&#45;&gt;Node5 -->
<g id="edge4_Node000002_Node000005" class="edge">
<title>Node2&#45;&gt;Node5</title>
<g id="a_edge4_Node000002_Node000005"><a xlink:title=" ">
<path fill="none" stroke="#63b8ff" d="M674.04,-283.55C811.62,-282.02 1134,-268.51 1134,-175.5 1134,-175.5 1134,-175.5 1134,-118.5 1134,-86.9 1127.89,-73.12 1102,-55 1046.43,-16.11 836.92,-10.98 756.09,-10.47"/>
<polygon fill="#63b8ff" stroke="#63b8ff" points="756.02,-6.97 746,-10.43 755.99,-13.97 756.02,-6.97"/>
</a>
</g>
</g>
<!-- Node6 -->
<g id="Node000006" class="node">
<title>Node6</title>
<g id="a_Node000006"><a xlink:title=" ">
<polygon fill="#e0e0e0" stroke="#999999" points="154.5,-19 61.5,-19 61.5,0 154.5,0 154.5,-19"/>
<text text-anchor="middle" x="108" y="-7" font-family="Helvetica,sans-Serif" font-size="10.00">unordered_map</text>
</a>
</g>
</g>
<!-- Node2&#45;&gt;Node6 -->
<g id="edge5_Node000002_Node000006" class="edge">
<title>Node2&#45;&gt;Node6</title>
<g id="a_edge5_Node000002_Node000006"><a xlink:title=" ">
<path fill="none" stroke="#63b8ff" d="M551.98,-279.12C396.93,-267.17 0,-231.15 0,-175.5 0,-175.5 0,-175.5 0,-118.5 0,-73.37 47.74,-40.51 79.74,-23.55"/>
<polygon fill="#63b8ff" stroke="#63b8ff" points="81.36,-26.65 88.69,-19 78.19,-20.41 81.36,-26.65"/>
</a>
</g>
</g>
<!-- Node7 -->
<g id="Node000007" class="node">
<title>Node7</title>
<g id="a_Node000007"><a xlink:title=" ">
<polygon fill="#e0e0e0" stroke="#999999" points="548.5,-74 503.5,-74 503.5,-55 548.5,-55 548.5,-74"/>
<text text-anchor="middle" x="526" y="-62" font-family="Helvetica,sans-Serif" font-size="10.00">utility</text>
</a>
</g>
</g>
<!-- Node2&#45;&gt;Node7 -->
<g id="edge6_Node000002_Node000007" class="edge">
<title>Node2&#45;&gt;Node7</title>
<g id="a_edge6_Node000002_Node000007"><a xlink:title=" ">
<path fill="none" stroke="#63b8ff" d="M606.33,-274.72C589.58,-252.09 545.85,-189.28 529,-129 524.95,-114.51 524.36,-97.46 524.7,-84.67"/>
<polygon fill="#63b8ff" stroke="#63b8ff" points="528.21,-84.48 525.19,-74.32 521.22,-84.14 528.21,-84.48"/>
</a>
</g>
</g>
<!-- Node8 -->
<g id="Node000008" class="node">
<title>Node8</title>
<g id="a_Node000008"><a xlink:title=" ">
<polygon fill="#e0e0e0" stroke="#999999" points="785.5,-74 720.5,-74 720.5,-55 785.5,-55 785.5,-74"/>
<text text-anchor="middle" x="753" y="-62" font-family="Helvetica,sans-Serif" font-size="10.00">functional</text>
</a>
</g>
</g>
<!-- Node2&#45;&gt;Node8 -->
<g id="edge7_Node000002_Node000008" class="edge">
<title>Node2&#45;&gt;Node8</title>
<g id="a_edge7_Node000002_Node000008"><a xlink:title=" ">
<path fill="none" stroke="#63b8ff" d="M674.26,-278.13C759.26,-266.95 909.66,-232.77 973,-129 977.4,-121.79 978.35,-116.54 973,-110 951.05,-83.17 853.34,-72.14 795.78,-67.9"/>
<polygon fill="#63b8ff" stroke="#63b8ff" points="795.75,-64.39 785.53,-67.19 795.26,-71.38 795.75,-64.39"/>
</a>
</g>
</g>
<!-- Node9 -->
<g id="Node000009" class="node">
<title>Node9</title>
<g id="a_Node000009"><a xlink:href="channel_8h.html" target="_top" xlink:title=" ">
<polygon fill="white" stroke="#666666" points="376.5,-239 269.5,-239 269.5,-220 376.5,-220 376.5,-239"/>
<text text-anchor="middle" x="323" y="-227" font-family="Helvetica,sans-Serif" font-size="10.00">Channel/channel.h</text>
</a>
</g>
</g>
<!-- Node2&#45;&gt;Node9 -->
<g id="edge8_Node000002_Node000009" class="edge">
<title>Node2&#45;&gt;Node9</title>
<g id="a_edge8_Node000002_Node000009"><a xlink:title=" ">
<path fill="none" stroke="#63b8ff" d="M566.41,-274.98C515.61,-265.7 434.31,-250.84 379.81,-240.88"/>
<polygon fill="#63b8ff" stroke="#63b8ff" points="380.43,-237.44 369.96,-239.08 379.17,-244.32 380.43,-237.44"/>
</a>
</g>
</g>
<!-- Node14 -->
<g id="Node000014" class="node">
<title>Node14</title>
<g id="a_Node000014"><a xlink:href="types_8h.html" target="_top" xlink:title=" ">
<polygon fill="white" stroke="#666666" points="349.5,-74 260.5,-74 260.5,-55 349.5,-55 349.5,-74"/>
<text text-anchor="middle" x="305" y="-62" font-family="Helvetica,sans-Serif" font-size="10.00">Library/types.h</text>
</a>
</g>
</g>
<!-- Node2&#45;&gt;Node14 -->
<g id="edge43_Node000002_Node000014" class="edge">
<title>Node2&#45;&gt;Node14</title>
<g id="a_edge43_Node000002_Node000014"><a xlink:title=" ">
<path fill="none" stroke="#63b8ff" d="M551.64,-283.21C455.99,-281.66 276.95,-273.99 225,-239 172.56,-203.67 127.67,-161.04 165,-110 184.41,-83.46 219.78,-72.37 250.11,-67.89"/>
<polygon fill="#63b8ff" stroke="#63b8ff" points="250.69,-71.35 260.17,-66.61 249.81,-64.4 250.69,-71.35"/>
</a>
</g>
</g>
<!-- Node15 -->
<g id="Node000015" class="node">
<title>Node15</title>
<g id="a_Node000015"><a xlink:href="transaction_8h_source.html" target="_top" xlink:title=" ">
<polygon fill="white" stroke="#666666" points="826.5,-184 687.5,-184 687.5,-165 826.5,-165 826.5,-184"/>
<text text-anchor="middle" x="757" y="-172" font-family="Helvetica,sans-Serif" font-size="10.00">Transaction/transaction.h</text>
</a>
</g>
</g>
<!-- Node2&#45;&gt;Node15 -->
<g id="edge42_Node000002_Node000015" class="edge">
<title>Node2&#45;&gt;Node15</title>
<g id="a_edge42_Node000002_Node000015"><a xlink:title=" ">
<path fill="none" stroke="#63b8ff" d="M624.78,-274.66C649.48,-256.14 706.9,-213.08 737.3,-190.28"/>
<polygon fill="#63b8ff" stroke="#63b8ff" points="739.56,-192.96 745.46,-184.16 735.36,-187.36 739.56,-192.96"/>
</a>
</g>
</g>
<!-- Node17 -->
<g id="Node000017" class="node">
<title>Node17</title>
<g id="a_Node000017"><a xlink:href="error_8h.html" target="_top" xlink:title=" ">
<polygon fill="white" stroke="#666666" points="1105.5,-129 1020.5,-129 1020.5,-110 1105.5,-110 1105.5,-129"/>
<text text-anchor="middle" x="1063" y="-117" font-family="Helvetica,sans-Serif" font-size="10.00">Library/error.h</text>
</a>
</g>
</g>
<!-- Node2&#45;&gt;Node17 -->
<g id="edge44_Node000002_Node000017" class="edge">
<title>Node2&#45;&gt;Node17</title>
<g id="a_edge44_Node000002_Node000017"><a xlink:title=" ">
<path fill="none" stroke="#63b8ff" d="M674.19,-283.63C771.05,-282.68 954.08,-275.88 1006,-239 1039.55,-215.17 1054.11,-166.15 1059.79,-139.23"/>
<polygon fill="#63b8ff" stroke="#63b8ff" points="1063.27,-139.66 1061.71,-129.18 1056.4,-138.34 1063.27,-139.66"/>
</a>
</g>
</g>
<!-- Node9&#45;&gt;Node3 -->
<g id="edge9_Node000009_Node000003" class="edge">
<title>Node9&#45;&gt;Node3</title>
<g id="a_edge9_Node000009_Node000003"><a xlink:title=" ">
<path fill="none" stroke="#63b8ff" d="M282.19,-219.95C260.84,-213.47 235.91,-202.43 220,-184 209.39,-171.72 205.33,-153.49 203.8,-139.71"/>
<polygon fill="#63b8ff" stroke="#63b8ff" points="207.27,-139.12 203.04,-129.41 200.29,-139.64 207.27,-139.12"/>
</a>
</g>
</g>
<!-- Node9&#45;&gt;Node5 -->
<g id="edge10_Node000009_Node000005" class="edge">
<title>Node9&#45;&gt;Node5</title>
<g id="a_edge10_Node000009_Node000005"><a xlink:title=" ">
<path fill="none" stroke="#63b8ff" d="M329.24,-219.88C346.72,-195.87 396.13,-128.76 416,-110 447.1,-80.63 455.6,-71.66 495,-55 561.48,-26.89 646.38,-16.35 691.83,-12.54"/>
<polygon fill="#63b8ff" stroke="#63b8ff" points="692.28,-16.02 701.98,-11.75 691.73,-9.04 692.28,-16.02"/>
</a>
</g>
</g>
<!-- Node9&#45;&gt;Node6 -->
<g id="edge12_Node000009_Node000006" class="edge">
<title>Node9&#45;&gt;Node6</title>
<g id="a_edge12_Node000009_Node000006"><a xlink:title=" ">
<path fill="none" stroke="#63b8ff" d="M269.22,-224.58C237.37,-219.62 198.25,-208.55 172,-184 126.92,-141.83 113.45,-65.14 109.54,-29.57"/>
<polygon fill="#63b8ff" stroke="#63b8ff" points="112.99,-28.81 108.55,-19.19 106.02,-29.48 112.99,-28.81"/>
</a>
</g>
</g>
<!-- Node9&#45;&gt;Node7 -->
<g id="edge14_Node000009_Node000007" class="edge">
<title>Node9&#45;&gt;Node7</title>
<g id="a_edge14_Node000009_Node000007"><a xlink:title=" ">
<path fill="none" stroke="#63b8ff" d="M339,-219.96C353.03,-211.95 373.39,-198.98 388,-184 415.37,-155.94 406.72,-136.06 436,-110 452.78,-95.07 475.46,-83.9 493.86,-76.48"/>
<polygon fill="#63b8ff" stroke="#63b8ff" points="495.23,-79.7 503.31,-72.84 492.72,-73.17 495.23,-79.7"/>
</a>
</g>
</g>
<!-- Node10 -->
<g id="Node000010" class="node">
<title>Node10</title>
<g id="a_Node000010"><a xlink:title=" ">
<polygon fill="#e0e0e0" stroke="#999999" points="408.5,-74 367.5,-74 367.5,-55 408.5,-55 408.5,-74"/>
<text text-anchor="middle" x="388" y="-62" font-family="Helvetica,sans-Serif" font-size="10.00">tuple</text>
</a>
</g>
</g>
<!-- Node9&#45;&gt;Node10 -->
<g id="edge11_Node000009_Node000010" class="edge">
<title>Node9&#45;&gt;Node10</title>
<g id="a_edge11_Node000009_Node000010"><a xlink:title=" ">
<path fill="none" stroke="#63b8ff" d="M313.18,-219.67C301.01,-207.59 282.81,-185.13 291,-165 306.07,-127.95 342.32,-97.15 365.98,-80.05"/>
<polygon fill="#63b8ff" stroke="#63b8ff" points="368.18,-82.78 374.36,-74.18 364.16,-77.05 368.18,-82.78"/>
</a>
</g>
</g>
<!-- Node11 -->
<g id="Node000011" class="node">
<title>Node11</title>
<g id="a_Node000011"><a xlink:title=" ">
<polygon fill="#e0e0e0" stroke="#999999" points="702,-74 664,-74 664,-55 702,-55 702,-74"/>
<text text-anchor="middle" x="683" y="-62" font-family="Helvetica,sans-Serif" font-size="10.00">map</text>
</a>
</g>
</g>
<!-- Node9&#45;&gt;Node11 -->
<g id="edge13_Node000009_Node000011" class="edge">
<title>Node9&#45;&gt;Node11</title>
<g id="a_edge13_Node000009_Node000011"><a xlink:title=" ">
<path fill="none" stroke="#63b8ff" d="M376.71,-221.37C467.1,-208.17 643.45,-176.82 681,-129 690.78,-116.54 690.22,-98.08 687.84,-84.27"/>
<polygon fill="#63b8ff" stroke="#63b8ff" points="691.24,-83.43 685.7,-74.39 684.4,-84.91 691.24,-83.43"/>
</a>
</g>
</g>
<!-- Node12 -->
<g id="Node000012" class="node">
<title>Node12</title>
<g id="a_Node000012"><a xlink:title=" ">
<polygon fill="#e0e0e0" stroke="#999999" points="394.5,-19 347.5,-19 347.5,0 394.5,0 394.5,-19"/>
<text text-anchor="middle" x="371" y="-7" font-family="Helvetica,sans-Serif" font-size="10.00">vector</text>
</a>
</g>
</g>
<!-- Node9&#45;&gt;Node12 -->
<g id="edge15_Node000009_Node000012" class="edge">
<title>Node9&#45;&gt;Node12</title>
<g id="a_edge15_Node000009_Node000012"><a xlink:title=" ">
<path fill="none" stroke="#63b8ff" d="M289.33,-219.94C234.22,-204.1 133.81,-166.61 165,-110 199.73,-46.96 288.5,-23.31 337.41,-14.87"/>
<polygon fill="#63b8ff" stroke="#63b8ff" points="338.18,-18.3 347.5,-13.25 337.07,-11.38 338.18,-18.3"/>
</a>
</g>
</g>
<!-- Node13 -->
<g id="Node000013" class="node">
<title>Node13</title>
<g id="a_Node000013"><a xlink:title=" ">
<polygon fill="#e0e0e0" stroke="#999999" points="346,-184 300,-184 300,-165 346,-165 346,-184"/>
<text text-anchor="middle" x="323" y="-172" font-family="Helvetica,sans-Serif" font-size="10.00">future</text>
</a>
</g>
</g>
<!-- Node9&#45;&gt;Node13 -->
<g id="edge16_Node000009_Node000013" class="edge">
<title>Node9&#45;&gt;Node13</title>
<g id="a_edge16_Node000009_Node000013"><a xlink:title=" ">
<path fill="none" stroke="#63b8ff" d="M323,-219.75C323,-212.8 323,-202.85 323,-194.13"/>
<polygon fill="#63b8ff" stroke="#63b8ff" points="326.5,-194.09 323,-184.09 319.5,-194.09 326.5,-194.09"/>
</a>
</g>
</g>
<!-- Node9&#45;&gt;Node14 -->
<g id="edge17_Node000009_Node000014" class="edge">
<title>Node9&#45;&gt;Node14</title>
<g id="a_edge17_Node000009_Node000014"><a xlink:title=" ">
<path fill="none" stroke="#63b8ff" d="M300.88,-219.95C285.8,-212.82 266.99,-201.06 258,-184 239.52,-148.95 269.87,-104.98 289.79,-81.7"/>
<polygon fill="#63b8ff" stroke="#63b8ff" points="292.51,-83.9 296.55,-74.11 287.29,-79.25 292.51,-83.9"/>
</a>
</g>
</g>
<!-- Node9&#45;&gt;Node15 -->
<g id="edge21_Node000009_Node000015" class="edge">
<title>Node9&#45;&gt;Node15</title>
<g id="a_edge21_Node000009_Node000015"><a xlink:title=" ">
<path fill="none" stroke="#63b8ff" d="M376.65,-221.95C452.02,-212.74 589.8,-195.92 677.21,-185.24"/>
<polygon fill="#63b8ff" stroke="#63b8ff" points="677.85,-188.69 687.35,-184.01 677,-181.74 677.85,-188.69"/>
</a>
</g>
</g>
<!-- Node14&#45;&gt;Node5 -->
<g id="edge20_Node000014_Node000005" class="edge">
<title>Node14&#45;&gt;Node5</title>
<g id="a_edge20_Node000014_Node000005"><a xlink:title=" ">
<path fill="none" stroke="#63b8ff" d="M349.77,-56.33C352.89,-55.87 355.99,-55.42 359,-55 481.52,-37.89 627.7,-21.19 691.52,-14.08"/>
<polygon fill="#63b8ff" stroke="#63b8ff" points="692.19,-17.52 701.75,-12.94 691.42,-10.57 692.19,-17.52"/>
</a>
</g>
</g>
<!-- Node14&#45;&gt;Node6 -->
<g id="edge19_Node000014_Node000006" class="edge">
<title>Node14&#45;&gt;Node6</title>
<g id="a_edge19_Node000014_Node000006"><a xlink:title=" ">
<path fill="none" stroke="#63b8ff" d="M273.35,-54.98C239.84,-45.97 186.8,-31.7 149.86,-21.76"/>
<polygon fill="#63b8ff" stroke="#63b8ff" points="150.47,-18.3 139.9,-19.08 148.65,-25.06 150.47,-18.3"/>
</a>
</g>
</g>
<!-- Node14&#45;&gt;Node12 -->
<g id="edge18_Node000014_Node000012" class="edge">
<title>Node14&#45;&gt;Node12</title>
<g id="a_edge18_Node000014_Node000012"><a xlink:title=" ">
<path fill="none" stroke="#63b8ff" d="M315.6,-54.98C325.46,-47.07 340.35,-35.11 352.22,-25.58"/>
<polygon fill="#63b8ff" stroke="#63b8ff" points="354.6,-28.16 360.2,-19.17 350.21,-22.7 354.6,-28.16"/>
</a>
</g>
</g>
<!-- Node15&#45;&gt;Node3 -->
<g id="edge25_Node000015_Node000003" class="edge">
<title>Node15&#45;&gt;Node3</title>
<g id="a_edge25_Node000015_Node000003"><a xlink:title=" ">
<path fill="none" stroke="#63b8ff" d="M687.4,-166.84C569.73,-155.58 335.23,-133.15 242.28,-124.26"/>
<polygon fill="#63b8ff" stroke="#63b8ff" points="242.46,-120.76 232.17,-123.29 241.79,-127.73 242.46,-120.76"/>
</a>
</g>
</g>
<!-- Node15&#45;&gt;Node4 -->
<g id="edge28_Node000015_Node000004" class="edge">
<title>Node15&#45;&gt;Node4</title>
<g id="a_edge28_Node000015_Node000004"><a xlink:title=" ">
<path fill="none" stroke="#63b8ff" d="M785.76,-164.98C816.21,-155.97 864.42,-141.69 897.99,-131.75"/>
<polygon fill="#63b8ff" stroke="#63b8ff" points="899.31,-135.01 907.9,-128.82 897.32,-128.3 899.31,-135.01"/>
</a>
</g>
</g>
<!-- Node15&#45;&gt;Node5 -->
<g id="edge22_Node000015_Node000005" class="edge">
<title>Node15&#45;&gt;Node5</title>
<g id="a_edge22_Node000015_Node000005"><a xlink:title=" ">
<path fill="none" stroke="#63b8ff" d="M764.42,-164.7C780.61,-144.38 816.03,-93 795,-55 786.51,-39.65 770.26,-28.89 755.45,-21.8"/>
<polygon fill="#63b8ff" stroke="#63b8ff" points="756.59,-18.47 746.02,-17.66 753.77,-24.88 756.59,-18.47"/>
</a>
</g>
</g>
<!-- Node15&#45;&gt;Node7 -->
<g id="edge23_Node000015_Node000007" class="edge">
<title>Node15&#45;&gt;Node7</title>
<g id="a_edge23_Node000015_Node000007"><a xlink:title=" ">
<path fill="none" stroke="#63b8ff" d="M687.39,-166.58C633.83,-159.89 565.59,-147.93 545,-129 532.7,-117.69 528.24,-98.79 526.69,-84.54"/>
<polygon fill="#63b8ff" stroke="#63b8ff" points="530.16,-84.07 525.96,-74.34 523.18,-84.56 530.16,-84.07"/>
</a>
</g>
</g>
<!-- Node15&#45;&gt;Node8 -->
<g id="edge29_Node000015_Node000008" class="edge">
<title>Node15&#45;&gt;Node8</title>
<g id="a_edge29_Node000015_Node000008"><a xlink:title=" ">
<path fill="none" stroke="#63b8ff" d="M756.67,-164.66C756.02,-147.17 754.57,-107.8 753.7,-84.27"/>
<polygon fill="#63b8ff" stroke="#63b8ff" points="757.19,-84.02 753.32,-74.16 750.19,-84.28 757.19,-84.02"/>
</a>
</g>
</g>
<!-- Node15&#45;&gt;Node11 -->
<g id="edge27_Node000015_Node000011" class="edge">
<title>Node15&#45;&gt;Node11</title>
<g id="a_edge27_Node000015_Node000011"><a xlink:title=" ">
<path fill="none" stroke="#63b8ff" d="M751.19,-164.85C742.97,-152.6 727.42,-129.53 714,-110 707.73,-100.86 700.67,-90.72 694.87,-82.43"/>
<polygon fill="#63b8ff" stroke="#63b8ff" points="697.58,-80.19 688.98,-74.01 691.84,-84.21 697.58,-80.19"/>
</a>
</g>
</g>
<!-- Node15&#45;&gt;Node12 -->
<g id="edge24_Node000015_Node000012" class="edge">
<title>Node15&#45;&gt;Node12</title>
<g id="a_edge24_Node000015_Node000012"><a xlink:title=" ">
<path fill="none" stroke="#63b8ff" d="M687.48,-168.11C641.01,-162.56 579.4,-151.39 529,-129 470.5,-103.01 413.3,-51.91 386.61,-26.14"/>
<polygon fill="#63b8ff" stroke="#63b8ff" points="388.93,-23.51 379.34,-19.01 384.03,-28.51 388.93,-23.51"/>
</a>
</g>
</g>
<!-- Node15&#45;&gt;Node14 -->
<g id="edge30_Node000015_Node000014" class="edge">
<title>Node15&#45;&gt;Node14</title>
<g id="a_edge30_Node000015_Node000014"><a xlink:title=" ">
<path fill="none" stroke="#63b8ff" d="M687.27,-166.54C629.49,-159.82 545.54,-147.85 474,-129 423.19,-115.61 366.44,-92.52 333.33,-78.18"/>
<polygon fill="#63b8ff" stroke="#63b8ff" points="334.41,-74.83 323.85,-74.03 331.61,-81.25 334.41,-74.83"/>
</a>
</g>
</g>
<!-- Node16 -->
<g id="Node000016" class="node">
<title>Node16</title>
<g id="a_Node000016"><a xlink:title=" ">
<polygon fill="#e0e0e0" stroke="#999999" points="890,-129 842,-129 842,-110 890,-110 890,-129"/>
<text text-anchor="middle" x="866" y="-117" font-family="Helvetica,sans-Serif" font-size="10.00">mutex</text>
</a>
</g>
</g>
<!-- Node15&#45;&gt;Node16 -->
<g id="edge26_Node000015_Node000016" class="edge">
<title>Node15&#45;&gt;Node16</title>
<g id="a_edge26_Node000015_Node000016"><a xlink:title=" ">
<path fill="none" stroke="#63b8ff" d="M774.51,-164.98C791.97,-156.5 819.01,-143.35 839.17,-133.54"/>
<polygon fill="#63b8ff" stroke="#63b8ff" points="840.71,-136.69 848.17,-129.17 837.64,-130.4 840.71,-136.69"/>
</a>
</g>
</g>
<!-- Node15&#45;&gt;Node17 -->
<g id="edge31_Node000015_Node000017" class="edge">
<title>Node15&#45;&gt;Node17</title>
<g id="a_edge31_Node000015_Node000017"><a xlink:title=" ">
<path fill="none" stroke="#63b8ff" d="M806.16,-164.98C862.1,-155.3 953.11,-139.53 1010.43,-129.61"/>
<polygon fill="#63b8ff" stroke="#63b8ff" points="1011.12,-133.04 1020.37,-127.88 1009.92,-126.14 1011.12,-133.04"/>
</a>
</g>
</g>
<!-- Node19 -->
<g id="Node000019" class="node">
<title>Node19</title>
<g id="a_Node000019"><a xlink:href="evaluate_8h.html" target="_top" xlink:title=" ">
<polygon fill="white" stroke="#666666" points="672,-129 554,-129 554,-110 672,-110 672,-129"/>
<text text-anchor="middle" x="613" y="-117" font-family="Helvetica,sans-Serif" font-size="10.00">Evaluator/evaluate.h</text>
</a>
</g>
</g>
<!-- Node15&#45;&gt;Node19 -->
<g id="edge34_Node000015_Node000019" class="edge">
<title>Node15&#45;&gt;Node19</title>
<g id="a_edge34_Node000015_Node000019"><a xlink:title=" ">
<path fill="none" stroke="#63b8ff" d="M733.86,-164.98C710.18,-156.27 673.13,-142.63 646.29,-132.75"/>
<polygon fill="#63b8ff" stroke="#63b8ff" points="647.15,-129.34 636.56,-129.17 644.73,-135.91 647.15,-129.34"/>
</a>
</g>
</g>
<!-- Node17&#45;&gt;Node5 -->
<g id="edge32_Node000017_Node000005" class="edge">
<title>Node17&#45;&gt;Node5</title>
<g id="a_edge32_Node000017_Node000005"><a xlink:title=" ">
<path fill="none" stroke="#63b8ff" d="M1036.12,-109.94C974.43,-90.28 822.9,-42.01 756.3,-20.79"/>
<polygon fill="#63b8ff" stroke="#63b8ff" points="756.96,-17.33 746.37,-17.63 754.83,-24 756.96,-17.33"/>
</a>
</g>
</g>
<!-- Node18 -->
<g id="Node000018" class="node">
<title>Node18</title>
<g id="a_Node000018"><a xlink:title=" ">
<polygon fill="#e0e0e0" stroke="#999999" points="1093,-74 1033,-74 1033,-55 1093,-55 1093,-74"/>
<text text-anchor="middle" x="1063" y="-62" font-family="Helvetica,sans-Serif" font-size="10.00">iostream</text>
</a>
</g>
</g>
<!-- Node17&#45;&gt;Node18 -->
<g id="edge33_Node000017_Node000018" class="edge">
<title>Node17&#45;&gt;Node18</title>
<g id="a_edge33_Node000017_Node000018"><a xlink:title=" ">
<path fill="none" stroke="#63b8ff" d="M1063,-109.75C1063,-102.8 1063,-92.85 1063,-84.13"/>
<polygon fill="#63b8ff" stroke="#63b8ff" points="1066.5,-84.09 1063,-74.09 1059.5,-84.09 1066.5,-84.09"/>
</a>
</g>
</g>
<!-- Node19&#45;&gt;Node5 -->
<g id="edge37_Node000019_Node000005" class="edge">
<title>Node19&#45;&gt;Node5</title>
<g id="a_edge37_Node000019_Node000005"><a xlink:title=" ">
<path fill="none" stroke="#63b8ff" d="M617.21,-109.89C623.88,-96.87 637.89,-71.91 655,-55 667.52,-42.62 684.02,-31.83 697.74,-23.98"/>
<polygon fill="#63b8ff" stroke="#63b8ff" points="699.65,-26.92 706.72,-19.02 696.27,-20.79 699.65,-26.92"/>
</a>
</g>
</g>
<!-- Node19&#45;&gt;Node7 -->
<g id="edge35_Node000019_Node000007" class="edge">
<title>Node19&#45;&gt;Node7</title>
<g id="a_edge35_Node000019_Node000007"><a xlink:title=" ">
<path fill="none" stroke="#63b8ff" d="M599.02,-109.98C585.53,-101.77 564.87,-89.18 548.96,-79.49"/>
<polygon fill="#63b8ff" stroke="#63b8ff" points="550.59,-76.38 540.23,-74.17 546.95,-82.36 550.59,-76.38"/>
</a>
</g>
</g>
<!-- Node19&#45;&gt;Node8 -->
<g id="edge38_Node000019_Node000008" class="edge">
<title>Node19&#45;&gt;Node8</title>
<g id="a_edge38_Node000019_Node000008"><a xlink:title=" ">
<path fill="none" stroke="#63b8ff" d="M635.49,-109.98C658.52,-101.27 694.54,-87.63 720.63,-77.75"/>
<polygon fill="#63b8ff" stroke="#63b8ff" points="721.98,-80.98 730.1,-74.17 719.51,-74.44 721.98,-80.98"/>
</a>
</g>
</g>
<!-- Node19&#45;&gt;Node10 -->
<g id="edge39_Node000019_Node000010" class="edge">
<title>Node19&#45;&gt;Node10</title>
<g id="a_edge39_Node000019_Node000010"><a xlink:title=" ">
<path fill="none" stroke="#63b8ff" d="M576.85,-109.98C532.97,-99.65 459.74,-82.4 418.55,-72.7"/>
<polygon fill="#63b8ff" stroke="#63b8ff" points="419.1,-69.23 408.56,-70.34 417.49,-76.04 419.1,-69.23"/>
</a>
</g>
</g>
<!-- Node19&#45;&gt;Node11 -->
<g id="edge40_Node000019_Node000011" class="edge">
<title>Node19&#45;&gt;Node11</title>
<g id="a_edge40_Node000019_Node000011"><a xlink:title=" ">
<path fill="none" stroke="#63b8ff" d="M624.25,-109.98C634.8,-102 650.8,-89.88 663.44,-80.31"/>
<polygon fill="#63b8ff" stroke="#63b8ff" points="665.69,-83 671.55,-74.17 661.46,-77.42 665.69,-83"/>
</a>
</g>
</g>
<!-- Node19&#45;&gt;Node12 -->
<g id="edge36_Node000019_Node000012" class="edge">
<title>Node19&#45;&gt;Node12</title>
<g id="a_edge36_Node000019_Node000012"><a xlink:title=" ">
<path fill="none" stroke="#63b8ff" d="M607.84,-109.56C599.32,-95.63 580.94,-68.92 558,-55 509.91,-25.83 444.08,-15.78 404.72,-12.32"/>
<polygon fill="#63b8ff" stroke="#63b8ff" points="404.84,-8.82 394.6,-11.52 404.29,-15.79 404.84,-8.82"/>
</a>
</g>
</g>
<!-- Node19&#45;&gt;Node14 -->
<g id="edge41_Node000019_Node000014" class="edge">
<title>Node19&#45;&gt;Node14</title>
<g id="a_edge41_Node000019_Node000014"><a xlink:title=" ">
<path fill="none" stroke="#63b8ff" d="M563.51,-109.98C507.85,-100.41 417.69,-84.89 359.9,-74.95"/>
<polygon fill="#63b8ff" stroke="#63b8ff" points="360.3,-71.47 349.86,-73.22 359.12,-78.36 360.3,-71.47"/>
</a>
</g>
</g>
</g>
</svg>

<g id="navigator" transform="translate(0 0)" fill="#404254">
  <rect fill="#f2f5e9" fill-opacity="0.5" stroke="#606060" stroke-width=".5" x="0" y="0" width="60" height="60"/>
  <use id="zoomplus" xlink:href="#zoomPlus" x="17" y="9" onmousedown="handleZoom(evt,'in')"/>
  <use id="zoomminus" xlink:href="#zoomMin" x="42" y="9" onmousedown="handleZoom(evt,'out')"/>
  <use id="reset" xlink:href="#resetDef" x="30" y="36" onmousedown="handleReset()"/>
   <use id="arrowup" xlink:href="#arrowUp" x="0" y="0" onmousedown="handlePan(0,-1)"/>
  <use id="arrowright" xlink:href="#arrowRight" x="0" y="0" onmousedown="handlePan(1,0)"/>
  <use id="arrowdown" xlink:href="#arrowDown" x="0" y="0" onmousedown="handlePan(0,1)"/>
  <use id="arrowleft" xlink:href="#arrowLeft" x="0" y="0" onmousedown="handlePan(-1,0)"/>
</g>
<svg viewBox="0 0 15 15" width="100%" height="30px" preserveAspectRatio="xMaxYMin meet">
 <g id="arrow_out" transform="scale(0.3 0.3)">
  <a xlink:href="driverModel_8cpp__incl_org.svg" target="_base">
   <rect id="button" ry="5" rx="5" y="6" x="6" height="38" width="38"
        fill="#f2f5e9" fill-opacity="0.5" stroke="#606060" stroke-width="1.0"/>
   <path id="arrow"
     d="M 11.500037,31.436501 C 11.940474,20.09759 22.043105,11.32322 32.158766,21.979434 L 37.068811,17.246167 C 37.068811,17.246167 37.088388,32 37.088388,32 L 22.160133,31.978069 C 22.160133,31.978069 26.997745,27.140456 26.997745,27.140456 C 18.528582,18.264221 13.291696,25.230495 11.500037,31.436501 z"
     style="fill:#404040;"/>
  </a>
 </g>
</svg>

<style type='text/css'>
<![CDATA[
[data-mouse-over-selected='false'] { opacity: 0.7; }
[data-mouse-over-selected='true']  { opacity: 1.0; }
]]>
</style>
<script type="application/ecmascript"><![CDATA[
document.addEventListener('DOMContentLoaded', (event) => {
  highlightEdges();
  highlightAdjacentNodes();
});
]]></script>
</svg>
