<?xml version="1.0" encoding="UTF-8" standalone="no"?>
<!DOCTYPE svg PUBLIC "-//W3C//DTD SVG 1.1//EN"
 "http://www.w3.org/Graphics/SVG/1.1/DTD/svg11.dtd">
<!-- Generated by graphviz version 2.43.0 (0)
 -->
<!-- Title: include/Drivers/driverModel.h Pages: 1 -->
<svg width="1328pt" height="302pt"
 viewBox="0.00 0.00 1328.00 302.00" xmlns="http://www.w3.org/2000/svg" xmlns:xlink="http://www.w3.org/1999/xlink">
<g id="graph0" class="graph" transform="scale(1 1) rotate(0) translate(4 298)">
<title>include/Drivers/driverModel.h</title>
<!-- Node1 -->
<g id="Node000001" class="node">
<title>Node1</title>
<g id="a_Node000001"><a xlink:title=" ">
<polygon fill="#999999" stroke="#666666" points="517.5,-294 356.5,-294 356.5,-275 517.5,-275 517.5,-294"/>
<text text-anchor="middle" x="437" y="-282" font-family="Helvetica,sans-Serif" font-size="10.00">include/Drivers/driverModel.h</text>
</a>
</g>
</g>
<!-- Node2 -->
<g id="Node000002" class="node">
<title>Node2</title>
<g id="a_Node000002"><a xlink:title=" ">
<polygon fill="#e0e0e0" stroke="#999999" points="352,-129 294,-129 294,-110 352,-110 352,-129"/>
<text text-anchor="middle" x="323" y="-117" font-family="Helvetica,sans-Serif" font-size="10.00">memory</text>
</a>
</g>
</g>
<!-- Node1&#45;&gt;Node2 -->
<g id="edge1_Node000001_Node000002" class="edge">
<title>Node1&#45;&gt;Node2</title>
<g id="a_edge1_Node000001_Node000002"><a xlink:title=" ">
<path fill="none" stroke="#63b8ff" d="M421.17,-274.95C407.61,-267.02 388.23,-254.18 375,-239 349.02,-209.18 334.18,-164.34 327.45,-139.23"/>
<polygon fill="#63b8ff" stroke="#63b8ff" points="330.76,-138.05 324.91,-129.21 323.97,-139.77 330.76,-138.05"/>
</a>
</g>
</g>
<!-- Node3 -->
<g id="Node000003" class="node">
<title>Node3</title>
<g id="a_Node000003"><a xlink:title=" ">
<polygon fill="#e0e0e0" stroke="#999999" points="1036,-129 980,-129 980,-110 1036,-110 1036,-129"/>
<text text-anchor="middle" x="1008" y="-117" font-family="Helvetica,sans-Serif" font-size="10.00">optional</text>
</a>
</g>
</g>
<!-- Node1&#45;&gt;Node3 -->
<g id="edge2_Node000001_Node000003" class="edge">
<title>Node1&#45;&gt;Node3</title>
<g id="a_edge2_Node000001_Node000003"><a xlink:title=" ">
<path fill="none" stroke="#63b8ff" d="M466.9,-274.97C562.93,-247.55 863.49,-161.75 970.06,-131.33"/>
<polygon fill="#63b8ff" stroke="#63b8ff" points="971.1,-134.67 979.76,-128.56 969.18,-127.94 971.1,-134.67"/>
</a>
</g>
</g>
<!-- Node4 -->
<g id="Node000004" class="node">
<title>Node4</title>
<g id="a_Node000004"><a xlink:title=" ">
<polygon fill="#e0e0e0" stroke="#999999" points="1053,-19 1009,-19 1009,0 1053,0 1053,-19"/>
<text text-anchor="middle" x="1031" y="-7" font-family="Helvetica,sans-Serif" font-size="10.00">string</text>
</a>
</g>
</g>
<!-- Node1&#45;&gt;Node4 -->
<g id="edge3_Node000001_Node000004" class="edge">
<title>Node1&#45;&gt;Node4</title>
<g id="a_edge3_Node000001_Node000004"><a xlink:title=" ">
<path fill="none" stroke="#63b8ff" d="M517.7,-282.02C735.68,-276.96 1320,-255.91 1320,-175.5 1320,-175.5 1320,-175.5 1320,-118.5 1320,-77.15 1288.77,-73.91 1252,-55 1190.26,-23.25 1107.98,-14.14 1063.26,-11.53"/>
<polygon fill="#63b8ff" stroke="#63b8ff" points="1063.17,-8.02 1053,-11.01 1062.81,-15.01 1063.17,-8.02"/>
</a>
</g>
</g>
<!-- Node5 -->
<g id="Node000005" class="node">
<title>Node5</title>
<g id="a_Node000005"><a xlink:title=" ">
<polygon fill="#e0e0e0" stroke="#999999" points="210.5,-74 169.5,-74 169.5,-55 210.5,-55 210.5,-74"/>
<text text-anchor="middle" x="190" y="-62" font-family="Helvetica,sans-Serif" font-size="10.00">tuple</text>
</a>
</g>
</g>
<!-- Node1&#45;&gt;Node5 -->
<g id="edge4_Node000001_Node000005" class="edge">
<title>Node1&#45;&gt;Node5</title>
<g id="a_edge4_Node000001_Node000005"><a xlink:title=" ">
<path fill="none" stroke="#63b8ff" d="M356.34,-283.61C273.51,-281.79 152.65,-273.14 123,-239 81.43,-191.12 143.05,-114.62 174.02,-81.57"/>
<polygon fill="#63b8ff" stroke="#63b8ff" points="176.74,-83.78 181.15,-74.15 171.7,-78.93 176.74,-83.78"/>
</a>
</g>
</g>
<!-- Node6 -->
<g id="Node000006" class="node">
<title>Node6</title>
<g id="a_Node000006"><a xlink:title=" ">
<polygon fill="#e0e0e0" stroke="#999999" points="122.5,-19 29.5,-19 29.5,0 122.5,0 122.5,-19"/>
<text text-anchor="middle" x="76" y="-7" font-family="Helvetica,sans-Serif" font-size="10.00">unordered_map</text>
</a>
</g>
</g>
<!-- Node1&#45;&gt;Node6 -->
<g id="edge5_Node000001_Node000006" class="edge">
<title>Node1&#45;&gt;Node6</title>
<g id="a_edge5_Node000001_Node000006"><a xlink:title=" ">
<path fill="none" stroke="#63b8ff" d="M356.34,-279.96C230.07,-272.19 0,-248.08 0,-175.5 0,-175.5 0,-175.5 0,-118.5 0,-79.47 33.61,-44.58 56.13,-25.6"/>
<polygon fill="#63b8ff" stroke="#63b8ff" points="58.56,-28.14 64.12,-19.12 54.15,-22.7 58.56,-28.14"/>
</a>
</g>
</g>
<!-- Node7 -->
<g id="Node000007" class="node">
<title>Node7</title>
<g id="a_Node000007"><a xlink:title=" ">
<polygon fill="#e0e0e0" stroke="#999999" points="635.5,-74 590.5,-74 590.5,-55 635.5,-55 635.5,-74"/>
<text text-anchor="middle" x="613" y="-62" font-family="Helvetica,sans-Serif" font-size="10.00">utility</text>
</a>
</g>
</g>
<!-- Node1&#45;&gt;Node7 -->
<g id="edge6_Node000001_Node000007" class="edge">
<title>Node1&#45;&gt;Node7</title>
<g id="a_edge6_Node000001_Node000007"><a xlink:title=" ">
<path fill="none" stroke="#63b8ff" d="M419,-274.98C367.9,-249.73 229.09,-173.09 285,-110 327.2,-62.38 500.9,-84.68 580.3,-73.79"/>
<polygon fill="#63b8ff" stroke="#63b8ff" points="581.11,-77.2 590.4,-72.11 579.97,-70.29 581.11,-77.2"/>
</a>
</g>
</g>
<!-- Node8 -->
<g id="Node000008" class="node">
<title>Node8</title>
<g id="a_Node000008"><a xlink:title=" ">
<polygon fill="#e0e0e0" stroke="#999999" points="900.5,-74 835.5,-74 835.5,-55 900.5,-55 900.5,-74"/>
<text text-anchor="middle" x="868" y="-62" font-family="Helvetica,sans-Serif" font-size="10.00">functional</text>
</a>
</g>
</g>
<!-- Node1&#45;&gt;Node8 -->
<g id="edge7_Node000001_Node000008" class="edge">
<title>Node1&#45;&gt;Node8</title>
<g id="a_edge7_Node000001_Node000008"><a xlink:title=" ">
<path fill="none" stroke="#63b8ff" d="M517.73,-275.75C671.02,-259.17 994.87,-214.62 1061,-129 1101.4,-76.69 979.26,-66.94 910.87,-65.47"/>
<polygon fill="#63b8ff" stroke="#63b8ff" points="910.85,-61.96 900.8,-65.3 910.74,-68.96 910.85,-61.96"/>
</a>
</g>
</g>
<!-- Node9 -->
<g id="Node000009" class="node">
<title>Node9</title>
<g id="a_Node000009"><a xlink:href="channel_8h.html" target="_top" xlink:title=" ">
<polygon fill="white" stroke="#666666" points="490.5,-239 383.5,-239 383.5,-220 490.5,-220 490.5,-239"/>
<text text-anchor="middle" x="437" y="-227" font-family="Helvetica,sans-Serif" font-size="10.00">Channel/channel.h</text>
</a>
</g>
</g>
<!-- Node1&#45;&gt;Node9 -->
<g id="edge8_Node000001_Node000009" class="edge">
<title>Node1&#45;&gt;Node9</title>
<g id="a_edge8_Node000001_Node000009"><a xlink:title=" ">
<path fill="none" stroke="#63b8ff" d="M437,-274.75C437,-267.8 437,-257.85 437,-249.13"/>
<polygon fill="#63b8ff" stroke="#63b8ff" points="440.5,-249.09 437,-239.09 433.5,-249.09 440.5,-249.09"/>
</a>
</g>
</g>
<!-- Node17 -->
<g id="Node000017" class="node">
<title>Node17</title>
<g id="a_Node000017"><a xlink:href="types_8h.html" target="_top" xlink:title=" ">
<polygon fill="white" stroke="#666666" points="572.5,-74 483.5,-74 483.5,-55 572.5,-55 572.5,-74"/>
<text text-anchor="middle" x="528" y="-62" font-family="Helvetica,sans-Serif" font-size="10.00">Library/types.h</text>
</a>
</g>
</g>
<!-- Node1&#45;&gt;Node17 -->
<g id="edge49_Node000001_Node000017" class="edge">
<title>Node1&#45;&gt;Node17</title>
<g id="a_edge49_Node000001_Node000017"><a xlink:title=" ">
<path fill="none" stroke="#63b8ff" d="M356.16,-282.91C277.43,-280.41 165.67,-271.1 138,-239 116.52,-214.09 123.04,-194.29 138,-165 156.96,-127.87 175.34,-125.61 214,-110 299.97,-75.3 408.69,-67 473.04,-65.38"/>
<polygon fill="#63b8ff" stroke="#63b8ff" points="473.43,-68.87 483.36,-65.16 473.29,-61.87 473.43,-68.87"/>
</a>
</g>
</g>
<!-- Node18 -->
<g id="Node000018" class="node">
<title>Node18</title>
<g id="a_Node000018"><a xlink:href="transaction_8h_source.html" target="_top" xlink:title=" ">
<polygon fill="white" stroke="#666666" points="758.5,-184 619.5,-184 619.5,-165 758.5,-165 758.5,-184"/>
<text text-anchor="middle" x="689" y="-172" font-family="Helvetica,sans-Serif" font-size="10.00">Transaction/transaction.h</text>
</a>
</g>
</g>
<!-- Node1&#45;&gt;Node18 -->
<g id="edge48_Node000001_Node000018" class="edge">
<title>Node1&#45;&gt;Node18</title>
<g id="a_edge48_Node000001_Node000018"><a xlink:title=" ">
<path fill="none" stroke="#63b8ff" d="M457.2,-274.84C501.63,-255.8 608.04,-210.2 659.77,-188.03"/>
<polygon fill="#63b8ff" stroke="#63b8ff" points="661.24,-191.2 669.06,-184.05 658.49,-184.77 661.24,-191.2"/>
</a>
</g>
</g>
<!-- Node19 -->
<g id="Node000019" class="node">
<title>Node19</title>
<g id="a_Node000019"><a xlink:href="error_8h.html" target="_top" xlink:title=" ">
<polygon fill="white" stroke="#666666" points="1291.5,-129 1206.5,-129 1206.5,-110 1291.5,-110 1291.5,-129"/>
<text text-anchor="middle" x="1249" y="-117" font-family="Helvetica,sans-Serif" font-size="10.00">Library/error.h</text>
</a>
</g>
</g>
<!-- Node1&#45;&gt;Node19 -->
<g id="edge50_Node000001_Node000019" class="edge">
<title>Node1&#45;&gt;Node19</title>
<g id="a_edge50_Node000001_Node000019"><a xlink:title=" ">
<path fill="none" stroke="#63b8ff" d="M517.78,-281.15C685.85,-275.84 1062.1,-261.58 1116,-239 1169.05,-216.78 1215.21,-164.31 1236.5,-137.26"/>
<polygon fill="#63b8ff" stroke="#63b8ff" points="1239.42,-139.21 1242.74,-129.14 1233.87,-134.94 1239.42,-139.21"/>
</a>
</g>
</g>
<!-- Node9&#45;&gt;Node2 -->
<g id="edge10_Node000009_Node000002" class="edge">
<title>Node9&#45;&gt;Node2</title>
<g id="a_edge10_Node000009_Node000002"><a xlink:title=" ">
<path fill="none" stroke="#63b8ff" d="M418.94,-219.88C403.67,-212 381.8,-199.26 366,-184 351.97,-170.46 339.92,-151.63 332.18,-137.99"/>
<polygon fill="#63b8ff" stroke="#63b8ff" points="335.2,-136.23 327.33,-129.13 329.06,-139.58 335.2,-136.23"/>
</a>
</g>
</g>
<!-- Node9&#45;&gt;Node4 -->
<g id="edge12_Node000009_Node000004" class="edge">
<title>Node9&#45;&gt;Node4</title>
<g id="a_edge12_Node000009_Node000004"><a xlink:title=" ">
<path fill="none" stroke="#63b8ff" d="M490.66,-227.34C608.48,-224.26 886.32,-213.96 975,-184 1017.98,-169.48 1039.21,-168.8 1061,-129 1079.09,-95.95 1057.66,-51.75 1042.83,-27.76"/>
<polygon fill="#63b8ff" stroke="#63b8ff" points="1045.57,-25.56 1037.19,-19.07 1039.7,-29.37 1045.57,-25.56"/>
</a>
</g>
</g>
<!-- Node9&#45;&gt;Node5 -->
<g id="edge13_Node000009_Node000005" class="edge">
<title>Node9&#45;&gt;Node5</title>
<g id="a_edge13_Node000009_Node000005"><a xlink:title=" ">
<path fill="none" stroke="#63b8ff" d="M384.97,-219.93C355.9,-213.39 319.99,-202.3 292,-184 250.7,-157 216.62,-108.6 200.34,-82.8"/>
<polygon fill="#63b8ff" stroke="#63b8ff" points="203.21,-80.79 194.99,-74.11 197.25,-84.46 203.21,-80.79"/>
</a>
</g>
</g>
<!-- Node9&#45;&gt;Node6 -->
<g id="edge14_Node000009_Node000006" class="edge">
<title>Node9&#45;&gt;Node6</title>
<g id="a_edge14_Node000009_Node000006"><a xlink:title=" ">
<path fill="none" stroke="#63b8ff" d="M383.48,-223.55C339.63,-218.03 276.76,-206.68 226,-184 188.26,-167.13 179.21,-159.21 151,-129 121.63,-97.55 97.06,-53.04 84.67,-28.49"/>
<polygon fill="#63b8ff" stroke="#63b8ff" points="87.69,-26.71 80.12,-19.3 81.41,-29.81 87.69,-26.71"/>
</a>
</g>
</g>
<!-- Node9&#45;&gt;Node7 -->
<g id="edge16_Node000009_Node000007" class="edge">
<title>Node9&#45;&gt;Node7</title>
<g id="a_edge16_Node000009_Node000007"><a xlink:title=" ">
<path fill="none" stroke="#63b8ff" d="M429.21,-219.72C411.36,-198.54 371.14,-143.87 399,-110 449.65,-48.42 497.52,-89.55 580.36,-74.03"/>
<polygon fill="#63b8ff" stroke="#63b8ff" points="581.3,-77.41 590.36,-71.91 579.85,-70.56 581.3,-77.41"/>
</a>
</g>
</g>
<!-- Node10 -->
<g id="Node000010" class="node">
<title>Node10</title>
<g id="a_Node000010"><a xlink:title=" ">
<polygon fill="#e0e0e0" stroke="#999999" points="601.5,-184 548.5,-184 548.5,-165 601.5,-165 601.5,-184"/>
<text text-anchor="middle" x="575" y="-172" font-family="Helvetica,sans-Serif" font-size="10.00">iterator</text>
</a>
</g>
</g>
<!-- Node9&#45;&gt;Node10 -->
<g id="edge9_Node000009_Node000010" class="edge">
<title>Node9&#45;&gt;Node10</title>
<g id="a_edge9_Node000009_Node000010"><a xlink:title=" ">
<path fill="none" stroke="#63b8ff" d="M459.17,-219.98C481.77,-211.3 517.06,-197.75 542.75,-187.88"/>
<polygon fill="#63b8ff" stroke="#63b8ff" points="544.34,-191.02 552.42,-184.17 541.83,-184.49 544.34,-191.02"/>
</a>
</g>
</g>
<!-- Node11 -->
<g id="Node000011" class="node">
<title>Node11</title>
<g id="a_Node000011"><a xlink:title=" ">
<polygon fill="#e0e0e0" stroke="#999999" points="560,-129 512,-129 512,-110 560,-110 560,-129"/>
<text text-anchor="middle" x="536" y="-117" font-family="Helvetica,sans-Serif" font-size="10.00">mutex</text>
</a>
</g>
</g>
<!-- Node9&#45;&gt;Node11 -->
<g id="edge11_Node000009_Node000011" class="edge">
<title>Node9&#45;&gt;Node11</title>
<g id="a_edge11_Node000009_Node000011"><a xlink:title=" ">
<path fill="none" stroke="#63b8ff" d="M440.74,-219.98C446.68,-207.08 459.24,-182.27 475,-165 485.78,-153.2 500.12,-142.54 512.2,-134.62"/>
<polygon fill="#63b8ff" stroke="#63b8ff" points="514.31,-137.43 520.89,-129.12 510.57,-131.51 514.31,-137.43"/>
</a>
</g>
</g>
<!-- Node12 -->
<g id="Node000012" class="node">
<title>Node12</title>
<g id="a_Node000012"><a xlink:title=" ">
<polygon fill="#e0e0e0" stroke="#999999" points="817,-74 779,-74 779,-55 817,-55 817,-74"/>
<text text-anchor="middle" x="798" y="-62" font-family="Helvetica,sans-Serif" font-size="10.00">map</text>
</a>
</g>
</g>
<!-- Node9&#45;&gt;Node12 -->
<g id="edge15_Node000009_Node000012" class="edge">
<title>Node9&#45;&gt;Node12</title>
<g id="a_edge15_Node000009_Node000012"><a xlink:title=" ">
<path fill="none" stroke="#63b8ff" d="M490.5,-228.33C625.7,-226.63 975.26,-213.94 1045,-129 1050.36,-122.47 1050.46,-116.44 1045,-110 1013.23,-72.56 874.87,-84.93 827,-74 826.9,-73.98 826.8,-73.95 826.7,-73.93"/>
<polygon fill="#63b8ff" stroke="#63b8ff" points="827.81,-70.6 817.26,-71.5 826.07,-77.38 827.81,-70.6"/>
</a>
</g>
</g>
<!-- Node13 -->
<g id="Node000013" class="node">
<title>Node13</title>
<g id="a_Node000013"><a xlink:title=" ">
<polygon fill="#e0e0e0" stroke="#999999" points="619.5,-19 572.5,-19 572.5,0 619.5,0 619.5,-19"/>
<text text-anchor="middle" x="596" y="-7" font-family="Helvetica,sans-Serif" font-size="10.00">vector</text>
</a>
</g>
</g>
<!-- Node9&#45;&gt;Node13 -->
<g id="edge17_Node000009_Node000013" class="edge">
<title>Node9&#45;&gt;Node13</title>
<g id="a_edge17_Node000009_Node000013"><a xlink:title=" ">
<path fill="none" stroke="#63b8ff" d="M383.33,-222.58C347.57,-216.8 300.6,-205.57 264,-184 200.56,-146.6 110.64,-109.65 160,-55 186.85,-25.27 464.61,-14.34 562.27,-11.4"/>
<polygon fill="#63b8ff" stroke="#63b8ff" points="562.57,-14.89 572.47,-11.1 562.37,-7.89 562.57,-14.89"/>
</a>
</g>
</g>
<!-- Node14 -->
<g id="Node000014" class="node">
<title>Node14</title>
<g id="a_Node000014"><a xlink:title=" ">
<polygon fill="#e0e0e0" stroke="#999999" points="530,-184 484,-184 484,-165 530,-165 530,-184"/>
<text text-anchor="middle" x="507" y="-172" font-family="Helvetica,sans-Serif" font-size="10.00">future</text>
</a>
</g>
</g>
<!-- Node9&#45;&gt;Node14 -->
<g id="edge18_Node000009_Node000014" class="edge">
<title>Node9&#45;&gt;Node14</title>
<g id="a_edge18_Node000009_Node000014"><a xlink:title=" ">
<path fill="none" stroke="#63b8ff" d="M448.25,-219.98C458.8,-212 474.8,-199.88 487.44,-190.31"/>
<polygon fill="#63b8ff" stroke="#63b8ff" points="489.69,-193 495.55,-184.17 485.46,-187.42 489.69,-193"/>
</a>
</g>
</g>
<!-- Node15 -->
<g id="Node000015" class="node">
<title>Node15</title>
<g id="a_Node000015"><a xlink:title=" ">
<polygon fill="#e0e0e0" stroke="#999999" points="1224,-74 1164,-74 1164,-55 1224,-55 1224,-74"/>
<text text-anchor="middle" x="1194" y="-62" font-family="Helvetica,sans-Serif" font-size="10.00">iostream</text>
</a>
</g>
</g>
<!-- Node9&#45;&gt;Node15 -->
<g id="edge19_Node000009_Node000015" class="edge">
<title>Node9&#45;&gt;Node15</title>
<g id="a_edge19_Node000009_Node000015"><a xlink:title=" ">
<path fill="none" stroke="#63b8ff" d="M490.55,-228.57C648.02,-228.3 1101.74,-224.03 1154,-184 1185.07,-160.2 1192.22,-111.17 1193.73,-84.23"/>
<polygon fill="#63b8ff" stroke="#63b8ff" points="1197.23,-84.3 1194.08,-74.18 1190.23,-84.05 1197.23,-84.3"/>
</a>
</g>
</g>
<!-- Node16 -->
<g id="Node000016" class="node">
<title>Node16</title>
<g id="a_Node000016"><a xlink:title=" ">
<polygon fill="#e0e0e0" stroke="#999999" points="494,-129 408,-129 408,-110 494,-110 494,-129"/>
<text text-anchor="middle" x="451" y="-117" font-family="Helvetica,sans-Serif" font-size="10.00">shared_mutex</text>
</a>
</g>
</g>
<!-- Node9&#45;&gt;Node16 -->
<g id="edge20_Node000009_Node000016" class="edge">
<title>Node9&#45;&gt;Node16</title>
<g id="a_edge20_Node000009_Node000016"><a xlink:title=" ">
<path fill="none" stroke="#63b8ff" d="M437.35,-219.84C437.92,-207.58 439.27,-184.49 442,-165 443.19,-156.51 444.99,-147.2 446.67,-139.31"/>
<polygon fill="#63b8ff" stroke="#63b8ff" points="450.14,-139.83 448.89,-129.31 443.31,-138.32 450.14,-139.83"/>
</a>
</g>
</g>
<!-- Node9&#45;&gt;Node17 -->
<g id="edge21_Node000009_Node000017" class="edge">
<title>Node9&#45;&gt;Node17</title>
<g id="a_edge21_Node000009_Node000017"><a xlink:title=" ">
<path fill="none" stroke="#63b8ff" d="M407.68,-219.92C352.72,-202.42 243.33,-159.99 285,-110 308.44,-81.87 408.71,-71.47 472.9,-67.66"/>
<polygon fill="#63b8ff" stroke="#63b8ff" points="473.47,-71.13 483.26,-67.08 473.08,-64.14 473.47,-71.13"/>
</a>
</g>
</g>
<!-- Node9&#45;&gt;Node18 -->
<g id="edge25_Node000009_Node000018" class="edge">
<title>Node9&#45;&gt;Node18</title>
<g id="a_edge25_Node000009_Node000018"><a xlink:title=" ">
<path fill="none" stroke="#63b8ff" d="M477.49,-219.98C521.17,-210.8 590.81,-196.15 638.15,-186.19"/>
<polygon fill="#63b8ff" stroke="#63b8ff" points="639.13,-189.57 648.19,-184.08 637.69,-182.72 639.13,-189.57"/>
</a>
</g>
</g>
<!-- Node17&#45;&gt;Node4 -->
<g id="edge24_Node000017_Node000004" class="edge">
<title>Node17&#45;&gt;Node4</title>
<g id="a_edge24_Node000017_Node000004"><a xlink:title=" ">
<path fill="none" stroke="#63b8ff" d="M572.76,-56.25C575.88,-55.81 578.99,-55.39 582,-55 737.89,-35.02 925.21,-19.03 998.95,-13.04"/>
<polygon fill="#63b8ff" stroke="#63b8ff" points="999.3,-16.52 1008.99,-12.23 998.74,-9.55 999.3,-16.52"/>
</a>
</g>
</g>
<!-- Node17&#45;&gt;Node6 -->
<g id="edge23_Node000017_Node000006" class="edge">
<title>Node17&#45;&gt;Node6</title>
<g id="a_edge23_Node000017_Node000006"><a xlink:title=" ">
<path fill="none" stroke="#63b8ff" d="M483.42,-58.27C400.75,-48.58 223.81,-27.83 132.74,-17.15"/>
<polygon fill="#63b8ff" stroke="#63b8ff" points="132.94,-13.65 122.6,-15.96 132.12,-20.6 132.94,-13.65"/>
</a>
</g>
</g>
<!-- Node17&#45;&gt;Node13 -->
<g id="edge22_Node000017_Node000013" class="edge">
<title>Node17&#45;&gt;Node13</title>
<g id="a_edge22_Node000017_Node000013"><a xlink:title=" ">
<path fill="none" stroke="#63b8ff" d="M538.93,-54.98C549.08,-47.07 564.42,-35.11 576.65,-25.58"/>
<polygon fill="#63b8ff" stroke="#63b8ff" points="579.14,-28.08 584.88,-19.17 574.84,-22.56 579.14,-28.08"/>
</a>
</g>
</g>
<!-- Node18&#45;&gt;Node2 -->
<g id="edge32_Node000018_Node000002" class="edge">
<title>Node18&#45;&gt;Node2</title>
<g id="a_edge32_Node000018_Node000002"><a xlink:title=" ">
<path fill="none" stroke="#63b8ff" d="M630.2,-164.98C554.97,-154.09 426.73,-135.52 362.34,-126.2"/>
<polygon fill="#63b8ff" stroke="#63b8ff" points="362.6,-122.7 352.2,-124.73 361.6,-129.63 362.6,-122.7"/>
</a>
</g>
</g>
<!-- Node18&#45;&gt;Node3 -->
<g id="edge34_Node000018_Node000003" class="edge">
<title>Node18&#45;&gt;Node3</title>
<g id="a_edge34_Node000018_Node000003"><a xlink:title=" ">
<path fill="none" stroke="#63b8ff" d="M746.41,-164.97C802.51,-156.47 890.28,-142.74 966,-129 967.1,-128.8 968.21,-128.6 969.33,-128.39"/>
<polygon fill="#63b8ff" stroke="#63b8ff" points="970.41,-131.74 979.56,-126.42 969.08,-124.87 970.41,-131.74"/>
</a>
</g>
</g>
<!-- Node18&#45;&gt;Node4 -->
<g id="edge29_Node000018_Node000004" class="edge">
<title>Node18&#45;&gt;Node4</title>
<g id="a_edge29_Node000018_Node000004"><a xlink:title=" ">
<path fill="none" stroke="#63b8ff" d="M737.98,-164.95C772.08,-157.94 818.05,-146.3 856,-129 918.29,-100.6 982.74,-50.65 1013.12,-25.65"/>
<polygon fill="#63b8ff" stroke="#63b8ff" points="1015.63,-28.11 1021.08,-19.02 1011.15,-22.73 1015.63,-28.11"/>
</a>
</g>
</g>
<!-- Node18&#45;&gt;Node7 -->
<g id="edge30_Node000018_Node000007" class="edge">
<title>Node18&#45;&gt;Node7</title>
<g id="a_edge30_Node000018_Node000007"><a xlink:title=" ">
<path fill="none" stroke="#63b8ff" d="M680.4,-164.72C672.11,-156.04 659.48,-142.18 650,-129 639.31,-114.14 628.99,-96 621.97,-82.92"/>
<polygon fill="#63b8ff" stroke="#63b8ff" points="625.05,-81.26 617.3,-74.04 618.86,-84.52 625.05,-81.26"/>
</a>
</g>
</g>
<!-- Node18&#45;&gt;Node8 -->
<g id="edge35_Node000018_Node000008" class="edge">
<title>Node18&#45;&gt;Node8</title>
<g id="a_edge35_Node000018_Node000008"><a xlink:title=" ">
<path fill="none" stroke="#63b8ff" d="M754.69,-164.94C781.93,-158.67 812.38,-147.81 835,-129 849.01,-117.35 857.79,-98.22 862.75,-83.99"/>
<polygon fill="#63b8ff" stroke="#63b8ff" points="866.14,-84.86 865.81,-74.27 859.46,-82.76 866.14,-84.86"/>
</a>
</g>
</g>
<!-- Node18&#45;&gt;Node11 -->
<g id="edge27_Node000018_Node000011" class="edge">
<title>Node18&#45;&gt;Node11</title>
<g id="a_edge27_Node000018_Node000011"><a xlink:title=" ">
<path fill="none" stroke="#63b8ff" d="M664.42,-164.98C638.73,-156.09 598.24,-142.06 569.61,-132.14"/>
<polygon fill="#63b8ff" stroke="#63b8ff" points="570.61,-128.79 560.02,-128.82 568.32,-135.4 570.61,-128.79"/>
</a>
</g>
</g>
<!-- Node18&#45;&gt;Node12 -->
<g id="edge33_Node000018_Node000012" class="edge">
<title>Node18&#45;&gt;Node12</title>
<g id="a_edge33_Node000018_Node000012"><a xlink:title=" ">
<path fill="none" stroke="#63b8ff" d="M758.51,-165.96C781.57,-159.77 804.92,-148.7 819,-129 828.98,-115.03 820.43,-96.01 811.42,-82.44"/>
<polygon fill="#63b8ff" stroke="#63b8ff" points="814.03,-80.08 805.33,-74.04 808.36,-84.19 814.03,-80.08"/>
</a>
</g>
</g>
<!-- Node18&#45;&gt;Node13 -->
<g id="edge31_Node000018_Node000013" class="edge">
<title>Node18&#45;&gt;Node13</title>
<g id="a_edge31_Node000018_Node000013"><a xlink:title=" ">
<path fill="none" stroke="#63b8ff" d="M687.27,-164.81C682.87,-144.27 669.83,-91.72 645,-55 637.33,-43.66 626.19,-33.24 616.47,-25.34"/>
<polygon fill="#63b8ff" stroke="#63b8ff" points="618.46,-22.45 608.42,-19.08 614.17,-27.98 618.46,-22.45"/>
</a>
</g>
</g>
<!-- Node18&#45;&gt;Node15 -->
<g id="edge26_Node000018_Node000015" class="edge">
<title>Node18&#45;&gt;Node15</title>
<g id="a_edge26_Node000018_Node000015"><a xlink:title=" ">
<path fill="none" stroke="#63b8ff" d="M758.01,-164.98C806.31,-157.97 871.95,-146.34 928,-129 947.96,-122.82 951.08,-116.3 971,-110 1033.5,-90.22 1108.75,-77.38 1153.91,-70.79"/>
<polygon fill="#63b8ff" stroke="#63b8ff" points="1154.49,-74.25 1163.9,-69.37 1153.5,-67.32 1154.49,-74.25"/>
</a>
</g>
</g>
<!-- Node18&#45;&gt;Node16 -->
<g id="edge28_Node000018_Node000016" class="edge">
<title>Node18&#45;&gt;Node16</title>
<g id="a_edge28_Node000018_Node000016"><a xlink:title=" ">
<path fill="none" stroke="#63b8ff" d="M650.76,-164.98C609.59,-155.82 544.01,-141.21 499.3,-131.26"/>
<polygon fill="#63b8ff" stroke="#63b8ff" points="500.06,-127.84 489.54,-129.08 498.54,-134.67 500.06,-127.84"/>
</a>
</g>
</g>
<!-- Node18&#45;&gt;Node17 -->
<g id="edge36_Node000018_Node000017" class="edge">
<title>Node18&#45;&gt;Node17</title>
<g id="a_edge36_Node000018_Node000017"><a xlink:title=" ">
<path fill="none" stroke="#63b8ff" d="M676.1,-164.84C648.54,-146.36 583.69,-102.86 549.68,-80.05"/>
<polygon fill="#63b8ff" stroke="#63b8ff" points="551.22,-76.86 540.96,-74.2 547.32,-82.67 551.22,-76.86"/>
</a>
</g>
</g>
<!-- Node18&#45;&gt;Node19 -->
<g id="edge37_Node000018_Node000019" class="edge">
<title>Node18&#45;&gt;Node19</title>
<g id="a_edge37_Node000018_Node000019"><a xlink:title=" ">
<path fill="none" stroke="#63b8ff" d="M758.51,-166.92C872.07,-156.17 1094.88,-135.09 1196.38,-125.48"/>
<polygon fill="#63b8ff" stroke="#63b8ff" points="1196.77,-128.96 1206.4,-124.53 1196.11,-121.99 1196.77,-128.96"/>
</a>
</g>
</g>
<!-- Node20 -->
<g id="Node000020" class="node">
<title>Node20</title>
<g id="a_Node000020"><a xlink:href="evaluate_8h.html" target="_top" xlink:title=" ">
<polygon fill="white" stroke="#666666" points="810,-129 692,-129 692,-110 810,-110 810,-129"/>
<text text-anchor="middle" x="751" y="-117" font-family="Helvetica,sans-Serif" font-size="10.00">Evaluator/evaluate.h</text>
</a>
</g>
</g>
<!-- Node18&#45;&gt;Node20 -->
<g id="edge40_Node000018_Node000020" class="edge">
<title>Node18&#45;&gt;Node20</title>
<g id="a_edge40_Node000018_Node000020"><a xlink:title=" ">
<path fill="none" stroke="#63b8ff" d="M698.96,-164.98C708.13,-157.15 721.94,-145.34 733.03,-135.86"/>
<polygon fill="#63b8ff" stroke="#63b8ff" points="735.53,-138.33 740.86,-129.17 730.98,-133.01 735.53,-138.33"/>
</a>
</g>
</g>
<!-- Node19&#45;&gt;Node4 -->
<g id="edge38_Node000019_Node000004" class="edge">
<title>Node19&#45;&gt;Node4</title>
<g id="a_edge38_Node000019_Node000004"><a xlink:title=" ">
<path fill="none" stroke="#63b8ff" d="M1249.48,-109.71C1249.71,-96 1248.01,-69.57 1233,-55 1209.12,-31.83 1113.96,-18.88 1063.23,-13.5"/>
<polygon fill="#63b8ff" stroke="#63b8ff" points="1063.43,-10.01 1053.12,-12.47 1062.72,-16.97 1063.43,-10.01"/>
</a>
</g>
</g>
<!-- Node19&#45;&gt;Node15 -->
<g id="edge39_Node000019_Node000015" class="edge">
<title>Node19&#45;&gt;Node15</title>
<g id="a_edge39_Node000019_Node000015"><a xlink:title=" ">
<path fill="none" stroke="#63b8ff" d="M1239.92,-109.75C1231.91,-102.03 1220.04,-90.6 1210.38,-81.28"/>
<polygon fill="#63b8ff" stroke="#63b8ff" points="1212.54,-78.51 1202.91,-74.09 1207.69,-83.55 1212.54,-78.51"/>
</a>
</g>
</g>
<!-- Node20&#45;&gt;Node4 -->
<g id="edge43_Node000020_Node000004" class="edge">
<title>Node20&#45;&gt;Node4</title>
<g id="a_edge43_Node000020_Node000004"><a xlink:title=" ">
<path fill="none" stroke="#63b8ff" d="M750.9,-109.59C751.27,-95.7 754.14,-69.03 770,-55 803.43,-25.41 936.42,-15.1 998.62,-11.85"/>
<polygon fill="#63b8ff" stroke="#63b8ff" points="998.85,-15.35 1008.67,-11.36 998.51,-8.35 998.85,-15.35"/>
</a>
</g>
</g>
<!-- Node20&#45;&gt;Node5 -->
<g id="edge45_Node000020_Node000005" class="edge">
<title>Node20&#45;&gt;Node5</title>
<g id="a_edge45_Node000020_Node000005"><a xlink:title=" ">
<path fill="none" stroke="#63b8ff" d="M691.76,-112.9C573.21,-101.7 310.5,-76.88 220.75,-68.41"/>
<polygon fill="#63b8ff" stroke="#63b8ff" points="220.97,-64.91 210.68,-67.45 220.31,-71.88 220.97,-64.91"/>
</a>
</g>
</g>
<!-- Node20&#45;&gt;Node7 -->
<g id="edge41_Node000020_Node000007" class="edge">
<title>Node20&#45;&gt;Node7</title>
<g id="a_edge41_Node000020_Node000007"><a xlink:title=" ">
<path fill="none" stroke="#63b8ff" d="M728.83,-109.98C706.23,-101.3 670.94,-87.75 645.25,-77.88"/>
<polygon fill="#63b8ff" stroke="#63b8ff" points="646.17,-74.49 635.58,-74.17 643.66,-81.02 646.17,-74.49"/>
</a>
</g>
</g>
<!-- Node20&#45;&gt;Node8 -->
<g id="edge44_Node000020_Node000008" class="edge">
<title>Node20&#45;&gt;Node8</title>
<g id="a_edge44_Node000020_Node000008"><a xlink:title=" ">
<path fill="none" stroke="#63b8ff" d="M769.8,-109.98C788.62,-101.46 817.82,-88.23 839.5,-78.41"/>
<polygon fill="#63b8ff" stroke="#63b8ff" points="841.2,-81.48 848.86,-74.17 838.31,-75.11 841.2,-81.48"/>
</a>
</g>
</g>
<!-- Node20&#45;&gt;Node12 -->
<g id="edge46_Node000020_Node000012" class="edge">
<title>Node20&#45;&gt;Node12</title>
<g id="a_edge46_Node000020_Node000012"><a xlink:title=" ">
<path fill="none" stroke="#63b8ff" d="M758.76,-109.75C765.47,-102.18 775.34,-91.05 783.51,-81.84"/>
<polygon fill="#63b8ff" stroke="#63b8ff" points="786.37,-83.89 790.38,-74.09 781.13,-79.25 786.37,-83.89"/>
</a>
</g>
</g>
<!-- Node20&#45;&gt;Node13 -->
<g id="edge42_Node000020_Node000013" class="edge">
<title>Node20&#45;&gt;Node13</title>
<g id="a_edge42_Node000020_Node000013"><a xlink:title=" ">
<path fill="none" stroke="#63b8ff" d="M742.09,-109.59C728.84,-96.63 702.84,-72.24 678,-55 660.76,-43.04 639.96,-31.78 623.63,-23.59"/>
<polygon fill="#63b8ff" stroke="#63b8ff" points="625.1,-20.41 614.59,-19.13 622.01,-26.69 625.1,-20.41"/>
</a>
</g>
</g>
<!-- Node20&#45;&gt;Node17 -->
<g id="edge47_Node000020_Node000017" class="edge">
<title>Node20&#45;&gt;Node17</title>
<g id="a_edge47_Node000020_Node000017"><a xlink:title=" ">
<path fill="none" stroke="#63b8ff" d="M715.17,-109.98C676.84,-100.87 615.92,-86.4 574.05,-76.45"/>
<polygon fill="#63b8ff" stroke="#63b8ff" points="574.65,-72.99 564.11,-74.08 573.03,-79.8 574.65,-72.99"/>
</a>
</g>
</g>
</g>
</svg>
