<?xml version="1.0" encoding="UTF-8" standalone="no"?>
<!DOCTYPE svg PUBLIC "-//W3C//DTD SVG 1.1//EN"
 "http://www.w3.org/Graphics/SVG/1.1/DTD/svg11.dtd">
<!-- Generated by graphviz version 2.43.0 (0)
 -->
<!-- Title: src/Drivers/dutDriver.cpp Pages: 1 -->
<!--zoomable 522 -->

<svg id="main" version="1.1" xmlns="http://www.w3.org/2000/svg" xmlns:xlink="http://www.w3.org/1999/xlink" xml:space="preserve" onload="init(evt)">
<style type="text/css"><![CDATA[
.node, .edge {opacity: 0.7;}
.node.selected, .edge.selected {opacity: 1;}
.edge:hover path { stroke: red; }
.edge:hover polygon { stroke: red; fill: red; }
]]></style>

<defs>
  <circle id="rim" cx="0" cy="0" r="7"/>
  <circle id="rim2" cx="0" cy="0" r="3.5"/>
  <g id="zoomPlus">
    <use xlink:href="#rim" fill="#404040"><set attributeName="fill" to="#808080" begin="zoomplus.mouseover" end="zoomplus.mouseout"/></use>
    <path d="M-4,0h8M0,-4v8" fill="none" stroke="white" stroke-width="1.5" pointer-events="none"/>
  </g>
  <g id="zoomMin">
    <use xlink:href="#rim" fill="#404040"><set attributeName="fill" to="#808080" begin="zoomminus.mouseover" end="zoomminus.mouseout"/></use>
    <path d="M-4,0h8" fill="none" stroke="white" stroke-width="1.5" pointer-events="none"/>
  </g>
  <g id="arrowUp" transform="translate(30 24)">
    <use xlink:href="#rim"/>
    <path pointer-events="none" fill="none" stroke="white" stroke-width="1.5" d="M0,-3.0v7 M-2.5,-0.5L0,-3.0L2.5,-0.5"/>
  </g>
  <g id="arrowRight" transform="rotate(90) translate(36 -43)">
    <use xlink:href="#rim"/>
    <path pointer-events="none" fill="none" stroke="white" stroke-width="1.5" d="M0,-3.0v7 M-2.5,-0.5L0,-3.0L2.5,-0.5"/>
  </g>
  <g id="arrowDown" transform="rotate(180) translate(-30 -48)">
    <use xlink:href="#rim"/>
    <path pointer-events="none" fill="none" stroke="white" stroke-width="1.5" d="M0,-3.0v7 M-2.5,-0.5L0,-3.0L2.5,-0.5"/>
  </g>
  <g id="arrowLeft" transform="rotate(270) translate(-36 17)">
    <use xlink:href="#rim"/>
    <path pointer-events="none" fill="none" stroke="white" stroke-width="1.5" d="M0,-3.0v7 M-2.5,-0.5L0,-3.0L2.5,-0.5"/>
  </g>
  <g id="resetDef">
    <use xlink:href="#rim2" fill="#404040"><set attributeName="fill" to="#808080" begin="reset.mouseover" end="reset.mouseout"/></use>
  </g>
</defs>
<script type="application/ecmascript">
var viewWidth = 1704;
var viewHeight = 522;
var sectionId = 'dynsection-0';
</script>
<script type="application/ecmascript" xlink:href="svg.min.js"/>
<svg id="graph" class="graph">
<g id="viewport">
<title>src/Drivers/dutDriver.cpp</title>
<!-- Node1 -->
<g id="Node000001" class="node">
<title>Node1</title>
<g id="a_Node000001"><a xlink:title=" ">
<polygon fill="#999999" stroke="#666666" points="1346.5,-514 1209.5,-514 1209.5,-495 1346.5,-495 1346.5,-514"/>
<text text-anchor="middle" x="1278" y="-502" font-family="Helvetica,sans-Serif" font-size="10.00">src/Drivers/dutDriver.cpp</text>
</a>
</g>
</g>
<!-- Node2 -->
<g id="Node000002" class="node">
<title>Node2</title>
<g id="a_Node000002"><a xlink:href="dutDriver_8h.html" target="_top" xlink:title=" ">
<polygon fill="white" stroke="#666666" points="1332.5,-459 1223.5,-459 1223.5,-440 1332.5,-440 1332.5,-459"/>
<text text-anchor="middle" x="1278" y="-447" font-family="Helvetica,sans-Serif" font-size="10.00">Drivers/dutDriver.h</text>
</a>
</g>
</g>
<!-- Node1&#45;&gt;Node2 -->
<g id="edge1_Node000001_Node000002" class="edge">
<title>Node1&#45;&gt;Node2</title>
<g id="a_edge1_Node000001_Node000002"><a xlink:title=" ">
<path fill="none" stroke="#63b8ff" d="M1278,-494.75C1278,-487.8 1278,-477.85 1278,-469.13"/>
<polygon fill="#63b8ff" stroke="#63b8ff" points="1281.5,-469.09 1278,-459.09 1274.5,-469.09 1281.5,-469.09"/>
</a>
</g>
</g>
<!-- Node3 -->
<g id="Node000003" class="node">
<title>Node3</title>
<g id="a_Node000003"><a xlink:title=" ">
<polygon fill="#e0e0e0" stroke="#999999" points="409,-19 365,-19 365,0 409,0 409,-19"/>
<text text-anchor="middle" x="387" y="-7" font-family="Helvetica,sans-Serif" font-size="10.00">string</text>
</a>
</g>
</g>
<!-- Node2&#45;&gt;Node3 -->
<g id="edge2_Node000002_Node000003" class="edge">
<title>Node2&#45;&gt;Node3</title>
<g id="a_edge2_Node000002_Node000003"><a xlink:title=" ">
<path fill="none" stroke="#63b8ff" d="M1223.24,-447.54C1042.83,-444.13 468.26,-431.36 285,-404 172.9,-387.26 38,-453.85 38,-340.5 38,-340.5 38,-340.5 38,-283.5 38,-123.28 269.02,-43.06 355.14,-18.72"/>
<polygon fill="#63b8ff" stroke="#63b8ff" points="356.19,-22.06 364.9,-16.03 354.33,-15.31 356.19,-22.06"/>
</a>
</g>
</g>
<!-- Node4 -->
<g id="Node000004" class="node">
<title>Node4</title>
<g id="a_Node000004"><a xlink:title=" ">
<polygon fill="#e0e0e0" stroke="#999999" points="376,-129 318,-129 318,-110 376,-110 376,-129"/>
<text text-anchor="middle" x="347" y="-117" font-family="Helvetica,sans-Serif" font-size="10.00">memory</text>
</a>
</g>
</g>
<!-- Node2&#45;&gt;Node4 -->
<g id="edge3_Node000002_Node000004" class="edge">
<title>Node2&#45;&gt;Node4</title>
<g id="a_edge3_Node000002_Node000004"><a xlink:title=" ">
<path fill="none" stroke="#63b8ff" d="M1223.14,-448.74C1005.67,-448.97 216,-442.78 216,-340.5 216,-340.5 216,-340.5 216,-283.5 216,-215.56 286,-159.84 323.66,-134.79"/>
<polygon fill="#63b8ff" stroke="#63b8ff" points="325.98,-137.46 332.48,-129.09 322.18,-131.58 325.98,-137.46"/>
</a>
</g>
</g>
<!-- Node5 -->
<g id="Node000005" class="node">
<title>Node5</title>
<g id="a_Node000005"><a xlink:title=" ">
<polygon fill="#e0e0e0" stroke="#999999" points="1250.5,-74 1205.5,-74 1205.5,-55 1250.5,-55 1250.5,-74"/>
<text text-anchor="middle" x="1228" y="-62" font-family="Helvetica,sans-Serif" font-size="10.00">utility</text>
</a>
</g>
</g>
<!-- Node2&#45;&gt;Node5 -->
<g id="edge4_Node000002_Node000005" class="edge">
<title>Node2&#45;&gt;Node5</title>
<g id="a_edge4_Node000002_Node000005"><a xlink:title=" ">
<path fill="none" stroke="#63b8ff" d="M1289.88,-439.88C1311.25,-423.26 1354,-384.52 1354,-340.5 1354,-340.5 1354,-340.5 1354,-173.5 1354,-124.04 1297.35,-92.35 1260.02,-76.84"/>
<polygon fill="#63b8ff" stroke="#63b8ff" points="1261.11,-73.51 1250.53,-73.07 1258.53,-80.01 1261.11,-73.51"/>
</a>
</g>
</g>
<!-- Node6 -->
<g id="Node000006" class="node">
<title>Node6</title>
<g id="a_Node000006"><a xlink:title=" ">
<polygon fill="#e0e0e0" stroke="#999999" points="1102.5,-19 1055.5,-19 1055.5,0 1102.5,0 1102.5,-19"/>
<text text-anchor="middle" x="1079" y="-7" font-family="Helvetica,sans-Serif" font-size="10.00">vector</text>
</a>
</g>
</g>
<!-- Node2&#45;&gt;Node6 -->
<g id="edge5_Node000002_Node000006" class="edge">
<title>Node2&#45;&gt;Node6</title>
<g id="a_edge5_Node000002_Node000006"><a xlink:title=" ">
<path fill="none" stroke="#63b8ff" d="M1299.18,-439.95C1332.14,-425.06 1392,-391.07 1392,-340.5 1392,-340.5 1392,-340.5 1392,-118.5 1392,-59.91 1193.54,-26.15 1112.68,-14.83"/>
<polygon fill="#63b8ff" stroke="#63b8ff" points="1112.91,-11.32 1102.53,-13.44 1111.96,-18.26 1112.91,-11.32"/>
</a>
</g>
</g>
<!-- Node7 -->
<g id="Node000007" class="node">
<title>Node7</title>
<g id="a_Node000007"><a xlink:title=" ">
<polygon fill="#e0e0e0" stroke="#999999" points="146.5,-19 53.5,-19 53.5,0 146.5,0 146.5,-19"/>
<text text-anchor="middle" x="100" y="-7" font-family="Helvetica,sans-Serif" font-size="10.00">unordered_map</text>
</a>
</g>
</g>
<!-- Node2&#45;&gt;Node7 -->
<g id="edge6_Node000002_Node000007" class="edge">
<title>Node2&#45;&gt;Node7</title>
<g id="a_edge6_Node000002_Node000007"><a xlink:title=" ">
<path fill="none" stroke="#63b8ff" d="M1223.37,-447.84C991.68,-444.89 99.65,-431.74 47,-404 15.94,-387.63 0,-375.61 0,-340.5 0,-340.5 0,-340.5 0,-118.5 0,-75.15 43.91,-41.83 73.54,-24.28"/>
<polygon fill="#63b8ff" stroke="#63b8ff" points="75.61,-27.13 82.58,-19.14 72.16,-21.04 75.61,-27.13"/>
</a>
</g>
</g>
<!-- Node8 -->
<g id="Node000008" class="node">
<title>Node8</title>
<g id="a_Node000008"><a xlink:title=" ">
<polygon fill="#e0e0e0" stroke="#999999" points="1488,-404 1420,-404 1420,-385 1488,-385 1488,-404"/>
<text text-anchor="middle" x="1454" y="-392" font-family="Helvetica,sans-Serif" font-size="10.00">filesystem</text>
</a>
</g>
</g>
<!-- Node2&#45;&gt;Node8 -->
<g id="edge7_Node000002_Node000008" class="edge">
<title>Node2&#45;&gt;Node8</title>
<g id="a_edge7_Node000002_Node000008"><a xlink:title=" ">
<path fill="none" stroke="#63b8ff" d="M1306.28,-439.98C1335.95,-431.05 1382.79,-416.94 1415.75,-407.02"/>
<polygon fill="#63b8ff" stroke="#63b8ff" points="1416.93,-410.32 1425.5,-404.08 1414.92,-403.61 1416.93,-410.32"/>
</a>
</g>
</g>
<!-- Node9 -->
<g id="Node000009" class="node">
<title>Node9</title>
<g id="a_Node000009"><a xlink:title=" ">
<polygon fill="#e0e0e0" stroke="#999999" points="1575.5,-404 1506.5,-404 1506.5,-385 1575.5,-385 1575.5,-404"/>
<text text-anchor="middle" x="1541" y="-392" font-family="Helvetica,sans-Serif" font-size="10.00">verilated.h</text>
</a>
</g>
</g>
<!-- Node2&#45;&gt;Node9 -->
<g id="edge8_Node000002_Node000009" class="edge">
<title>Node2&#45;&gt;Node9</title>
<g id="a_edge8_Node000002_Node000009"><a xlink:title=" ">
<path fill="none" stroke="#63b8ff" d="M1320.26,-439.98C1368.52,-430.26 1447.14,-414.42 1496.37,-404.49"/>
<polygon fill="#63b8ff" stroke="#63b8ff" points="1497.29,-407.88 1506.41,-402.47 1495.91,-401.02 1497.29,-407.88"/>
</a>
</g>
</g>
<!-- Node10 -->
<g id="Node000010" class="node">
<title>Node10</title>
<g id="a_Node000010"><a xlink:title=" ">
<polygon fill="#e0e0e0" stroke="#999999" points="1696,-404 1594,-404 1594,-385 1696,-385 1696,-404"/>
<text text-anchor="middle" x="1645" y="-392" font-family="Helvetica,sans-Serif" font-size="10.00">verilated_vcd_c.h</text>
</a>
</g>
</g>
<!-- Node2&#45;&gt;Node10 -->
<g id="edge9_Node000002_Node000010" class="edge">
<title>Node2&#45;&gt;Node10</title>
<g id="a_edge9_Node000002_Node000010"><a xlink:title=" ">
<path fill="none" stroke="#63b8ff" d="M1332.55,-440.62C1399.73,-430.92 1513.54,-414.48 1583.69,-404.35"/>
<polygon fill="#63b8ff" stroke="#63b8ff" points="1584.31,-407.8 1593.71,-402.91 1583.31,-400.87 1584.31,-407.8"/>
</a>
</g>
</g>
<!-- Node11 -->
<g id="Node000011" class="node">
<title>Node11</title>
<g id="a_Node000011"><a xlink:href="driverModel_8h.html" target="_top" xlink:title=" ">
<polygon fill="white" stroke="#666666" points="921,-294 799,-294 799,-275 921,-275 921,-294"/>
<text text-anchor="middle" x="860" y="-282" font-family="Helvetica,sans-Serif" font-size="10.00">Drivers/driverModel.h</text>
</a>
</g>
</g>
<!-- Node2&#45;&gt;Node11 -->
<g id="edge10_Node000002_Node000011" class="edge">
<title>Node2&#45;&gt;Node11</title>
<g id="a_edge10_Node000002_Node000011"><a xlink:title=" ">
<path fill="none" stroke="#63b8ff" d="M1223.36,-440.9C1181.78,-434.08 1123.63,-422.29 1075,-404 999.61,-375.64 918.36,-324.57 880.99,-299.78"/>
<polygon fill="#63b8ff" stroke="#63b8ff" points="882.72,-296.73 872.46,-294.07 878.82,-302.54 882.72,-296.73"/>
</a>
</g>
</g>
<!-- Node14 -->
<g id="Node000014" class="node">
<title>Node14</title>
<g id="a_Node000014"><a xlink:href="channel_8h.html" target="_top" xlink:title=" ">
<polygon fill="white" stroke="#666666" points="656.5,-239 549.5,-239 549.5,-220 656.5,-220 656.5,-239"/>
<text text-anchor="middle" x="603" y="-227" font-family="Helvetica,sans-Serif" font-size="10.00">Channel/channel.h</text>
</a>
</g>
</g>
<!-- Node2&#45;&gt;Node14 -->
<g id="edge65_Node000002_Node000014" class="edge">
<title>Node2&#45;&gt;Node14</title>
<g id="a_edge65_Node000002_Node000014"><a xlink:title=" ">
<path fill="none" stroke="#63b8ff" d="M1277.56,-439.78C1276.48,-426.63 1272.77,-401.49 1260,-385 1230.37,-346.73 1210.97,-347.92 1166,-330 994,-261.46 773.73,-239.98 666.87,-233.36"/>
<polygon fill="#63b8ff" stroke="#63b8ff" points="666.76,-229.85 656.57,-232.75 666.35,-236.84 666.76,-229.85"/>
</a>
</g>
</g>
<!-- Node19 -->
<g id="Node000019" class="node">
<title>Node19</title>
<g id="a_Node000019"><a xlink:href="transaction_8h_source.html" target="_top" xlink:title=" ">
<polygon fill="white" stroke="#666666" points="929.5,-184 790.5,-184 790.5,-165 929.5,-165 929.5,-184"/>
<text text-anchor="middle" x="860" y="-172" font-family="Helvetica,sans-Serif" font-size="10.00">Transaction/transaction.h</text>
</a>
</g>
</g>
<!-- Node2&#45;&gt;Node19 -->
<g id="edge63_Node000002_Node000019" class="edge">
<title>Node2&#45;&gt;Node19</title>
<g id="a_edge63_Node000002_Node000019"><a xlink:title=" ">
<path fill="none" stroke="#63b8ff" d="M1283.28,-439.9C1293.73,-422.07 1316,-379.46 1316,-340.5 1316,-340.5 1316,-340.5 1316,-283.5 1316,-207.16 1070.94,-184.71 940.12,-178.16"/>
<polygon fill="#63b8ff" stroke="#63b8ff" points="939.91,-174.65 929.75,-177.66 939.57,-181.64 939.91,-174.65"/>
</a>
</g>
</g>
<!-- Node24 -->
<g id="Node000024" class="node">
<title>Node24</title>
<g id="a_Node000024"><a xlink:href="transDriverModel_8h.html" target="_top" xlink:title=" ">
<polygon fill="white" stroke="#666666" points="1250.5,-404 1101.5,-404 1101.5,-385 1250.5,-385 1250.5,-404"/>
<text text-anchor="middle" x="1176" y="-392" font-family="Helvetica,sans-Serif" font-size="10.00">Drivers/transDriverModel.h</text>
</a>
</g>
</g>
<!-- Node2&#45;&gt;Node24 -->
<g id="edge54_Node000002_Node000024" class="edge">
<title>Node2&#45;&gt;Node24</title>
<g id="a_edge54_Node000002_Node000024"><a xlink:title=" ">
<path fill="none" stroke="#63b8ff" d="M1261.61,-439.98C1245.43,-431.57 1220.43,-418.59 1201.62,-408.81"/>
<polygon fill="#63b8ff" stroke="#63b8ff" points="1203.17,-405.68 1192.69,-404.17 1199.95,-411.89 1203.17,-405.68"/>
</a>
</g>
</g>
<!-- Node25 -->
<g id="Node000025" class="node">
<title>Node25</title>
<g id="a_Node000025"><a xlink:href="simulatorDriver_8h.html" target="_top" xlink:title=" ">
<polygon fill="white" stroke="#666666" points="1136,-349 996,-349 996,-330 1136,-330 1136,-349"/>
<text text-anchor="middle" x="1066" y="-337" font-family="Helvetica,sans-Serif" font-size="10.00">Drivers/simulatorDriver.h</text>
</a>
</g>
</g>
<!-- Node2&#45;&gt;Node25 -->
<g id="edge64_Node000002_Node000025" class="edge">
<title>Node2&#45;&gt;Node25</title>
<g id="a_edge64_Node000002_Node000025"><a xlink:title=" ">
<path fill="none" stroke="#63b8ff" d="M1223.18,-448.01C1182.93,-444.9 1129.18,-434.63 1093,-404 1079.72,-392.76 1072.82,-373.85 1069.33,-359.58"/>
<polygon fill="#63b8ff" stroke="#63b8ff" points="1072.67,-358.44 1067.21,-349.36 1065.82,-359.87 1072.67,-358.44"/>
</a>
</g>
</g>
<!-- Node11&#45;&gt;Node3 -->
<g id="edge13_Node000011_Node000003" class="edge">
<title>Node11&#45;&gt;Node3</title>
<g id="a_edge13_Node000011_Node000003"><a xlink:title=" ">
<path fill="none" stroke="#63b8ff" d="M798.87,-282.09C689.47,-278.83 464.9,-268.66 393,-239 327.42,-211.95 290.79,-180.46 299,-110 301.91,-85.05 297.13,-75.24 312,-55 322.91,-40.15 340.41,-29.36 355.75,-22.13"/>
<polygon fill="#63b8ff" stroke="#63b8ff" points="357.21,-25.31 364.96,-18.08 354.39,-18.9 357.21,-25.31"/>
</a>
</g>
</g>
<!-- Node11&#45;&gt;Node4 -->
<g id="edge11_Node000011_Node000004" class="edge">
<title>Node11&#45;&gt;Node4</title>
<g id="a_edge11_Node000011_Node000004"><a xlink:title=" ">
<path fill="none" stroke="#63b8ff" d="M798.94,-281.1C705.1,-276.63 530.34,-265.03 474,-239 423.33,-215.59 379.55,-164.09 359.18,-137.36"/>
<polygon fill="#63b8ff" stroke="#63b8ff" points="361.97,-135.24 353.19,-129.31 356.35,-139.43 361.97,-135.24"/>
</a>
</g>
</g>
<!-- Node11&#45;&gt;Node5 -->
<g id="edge15_Node000011_Node000005" class="edge">
<title>Node11&#45;&gt;Node5</title>
<g id="a_edge15_Node000011_Node000005"><a xlink:title=" ">
<path fill="none" stroke="#63b8ff" d="M907.3,-274.95C980.78,-259.2 1122.1,-218.65 1201,-129 1212.37,-116.09 1219.48,-97.68 1223.53,-84"/>
<polygon fill="#63b8ff" stroke="#63b8ff" points="1226.94,-84.81 1226.15,-74.25 1220.18,-83 1226.94,-84.81"/>
</a>
</g>
</g>
<!-- Node11&#45;&gt;Node7 -->
<g id="edge14_Node000011_Node000007" class="edge">
<title>Node11&#45;&gt;Node7</title>
<g id="a_edge14_Node000011_Node000007"><a xlink:title=" ">
<path fill="none" stroke="#63b8ff" d="M798.78,-280.13C672.55,-272.88 391.7,-255.18 351,-239 242.31,-195.8 225.85,-159.46 146,-74 132.54,-59.59 119.58,-41.16 110.87,-27.87"/>
<polygon fill="#63b8ff" stroke="#63b8ff" points="113.68,-25.76 105.33,-19.23 107.79,-29.54 113.68,-25.76"/>
</a>
</g>
</g>
<!-- Node12 -->
<g id="Node000012" class="node">
<title>Node12</title>
<g id="a_Node000012"><a xlink:title=" ">
<polygon fill="#e0e0e0" stroke="#999999" points="1098,-129 1042,-129 1042,-110 1098,-110 1098,-129"/>
<text text-anchor="middle" x="1070" y="-117" font-family="Helvetica,sans-Serif" font-size="10.00">optional</text>
</a>
</g>
</g>
<!-- Node11&#45;&gt;Node12 -->
<g id="edge12_Node000011_Node000012" class="edge">
<title>Node11&#45;&gt;Node12</title>
<g id="a_edge12_Node000011_Node000012"><a xlink:title=" ">
<path fill="none" stroke="#63b8ff" d="M870.99,-274.97C904.87,-248.68 1007.92,-168.69 1050.88,-135.34"/>
<polygon fill="#63b8ff" stroke="#63b8ff" points="1053.11,-138.04 1058.86,-129.15 1048.81,-132.51 1053.11,-138.04"/>
</a>
</g>
</g>
<!-- Node13 -->
<g id="Node000013" class="node">
<title>Node13</title>
<g id="a_Node000013"><a xlink:title=" ">
<polygon fill="#e0e0e0" stroke="#999999" points="965.5,-74 900.5,-74 900.5,-55 965.5,-55 965.5,-74"/>
<text text-anchor="middle" x="933" y="-62" font-family="Helvetica,sans-Serif" font-size="10.00">functional</text>
</a>
</g>
</g>
<!-- Node11&#45;&gt;Node13 -->
<g id="edge16_Node000011_Node000013" class="edge">
<title>Node11&#45;&gt;Node13</title>
<g id="a_edge16_Node000011_Node000013"><a xlink:title=" ">
<path fill="none" stroke="#63b8ff" d="M891.77,-274.9C947.62,-257.83 1061.77,-213.79 1107,-129 1134.41,-77.61 1035.93,-67.15 975.98,-65.43"/>
<polygon fill="#63b8ff" stroke="#63b8ff" points="975.71,-61.92 965.64,-65.21 975.56,-68.92 975.71,-61.92"/>
</a>
</g>
</g>
<!-- Node11&#45;&gt;Node14 -->
<g id="edge17_Node000011_Node000014" class="edge">
<title>Node11&#45;&gt;Node14</title>
<g id="a_edge17_Node000011_Node000014"><a xlink:title=" ">
<path fill="none" stroke="#63b8ff" d="M818.71,-274.98C774.07,-265.78 702.84,-251.09 654.55,-241.13"/>
<polygon fill="#63b8ff" stroke="#63b8ff" points="655.12,-237.67 644.62,-239.08 653.7,-244.53 655.12,-237.67"/>
</a>
</g>
</g>
<!-- Node18 -->
<g id="Node000018" class="node">
<title>Node18</title>
<g id="a_Node000018"><a xlink:href="types_8h.html" target="_top" xlink:title=" ">
<polygon fill="white" stroke="#666666" points="431.5,-74 342.5,-74 342.5,-55 431.5,-55 431.5,-74"/>
<text text-anchor="middle" x="387" y="-62" font-family="Helvetica,sans-Serif" font-size="10.00">Library/types.h</text>
</a>
</g>
</g>
<!-- Node11&#45;&gt;Node18 -->
<g id="edge52_Node000011_Node000018" class="edge">
<title>Node11&#45;&gt;Node18</title>
<g id="a_edge52_Node000011_Node000018"><a xlink:title=" ">
<path fill="none" stroke="#63b8ff" d="M798.91,-281.45C698.23,-277.33 502.28,-266.04 439,-239 369.4,-209.26 340.84,-197.66 309,-129 298.32,-105.96 324.94,-88.61 349.93,-77.91"/>
<polygon fill="#63b8ff" stroke="#63b8ff" points="351.37,-81.11 359.35,-74.14 348.77,-74.61 351.37,-81.11"/>
</a>
</g>
</g>
<!-- Node11&#45;&gt;Node19 -->
<g id="edge51_Node000011_Node000019" class="edge">
<title>Node11&#45;&gt;Node19</title>
<g id="a_edge51_Node000011_Node000019"><a xlink:title=" ">
<path fill="none" stroke="#63b8ff" d="M860,-274.66C860,-257.17 860,-217.8 860,-194.27"/>
<polygon fill="#63b8ff" stroke="#63b8ff" points="863.5,-194.16 860,-184.16 856.5,-194.16 863.5,-194.16"/>
</a>
</g>
</g>
<!-- Node21 -->
<g id="Node000021" class="node">
<title>Node21</title>
<g id="a_Node000021"><a xlink:href="error_8h.html" target="_top" xlink:title=" ">
<polygon fill="white" stroke="#666666" points="555.5,-129 470.5,-129 470.5,-110 555.5,-110 555.5,-129"/>
<text text-anchor="middle" x="513" y="-117" font-family="Helvetica,sans-Serif" font-size="10.00">Library/error.h</text>
</a>
</g>
</g>
<!-- Node11&#45;&gt;Node21 -->
<g id="edge53_Node000011_Node000021" class="edge">
<title>Node11&#45;&gt;Node21</title>
<g id="a_edge53_Node000011_Node000021"><a xlink:title=" ">
<path fill="none" stroke="#63b8ff" d="M798.6,-279.69C688.34,-271.3 464.55,-246.76 425,-184 410.2,-160.52 441.59,-143.03 470.9,-132.42"/>
<polygon fill="#63b8ff" stroke="#63b8ff" points="472.35,-135.62 480.69,-129.08 470.1,-128.99 472.35,-135.62"/>
</a>
</g>
</g>
<!-- Node14&#45;&gt;Node3 -->
<g id="edge19_Node000014_Node000003" class="edge">
<title>Node14&#45;&gt;Node3</title>
<g id="a_edge19_Node000014_Node000003"><a xlink:title=" ">
<path fill="none" stroke="#63b8ff" d="M549.37,-228.89C479.31,-226.07 359.63,-209.04 309,-129 285.03,-91.11 334.59,-47.19 365.22,-24.97"/>
<polygon fill="#63b8ff" stroke="#63b8ff" points="367.48,-27.66 373.66,-19.05 363.46,-21.94 367.48,-27.66"/>
</a>
</g>
</g>
<!-- Node14&#45;&gt;Node4 -->
<g id="edge18_Node000014_Node000004" class="edge">
<title>Node14&#45;&gt;Node4</title>
<g id="a_edge18_Node000014_Node000004"><a xlink:title=" ">
<path fill="none" stroke="#63b8ff" d="M589.77,-219.95C568.98,-206.79 527.09,-181.37 489,-165 455.14,-150.44 414.91,-138.29 385.93,-130.38"/>
<polygon fill="#63b8ff" stroke="#63b8ff" points="386.75,-126.98 376.18,-127.77 384.93,-133.74 386.75,-126.98"/>
</a>
</g>
</g>
<!-- Node14&#45;&gt;Node5 -->
<g id="edge23_Node000014_Node000005" class="edge">
<title>Node14&#45;&gt;Node5</title>
<g id="a_edge23_Node000014_Node000005"><a xlink:title=" ">
<path fill="none" stroke="#63b8ff" d="M656.65,-229.38C743.79,-229.48 920.75,-224.09 1064,-184 1118.17,-168.84 1134.14,-164.23 1178,-129 1194.18,-116.01 1208.35,-96.84 1217.43,-82.96"/>
<polygon fill="#63b8ff" stroke="#63b8ff" points="1220.5,-84.67 1222.87,-74.34 1214.58,-80.93 1220.5,-84.67"/>
</a>
</g>
</g>
<!-- Node14&#45;&gt;Node6 -->
<g id="edge24_Node000014_Node000006" class="edge">
<title>Node14&#45;&gt;Node6</title>
<g id="a_edge24_Node000014_Node000006"><a xlink:title=" ">
<path fill="none" stroke="#63b8ff" d="M656.84,-226.69C775.79,-221.37 1054.59,-201.3 1107,-129 1129.23,-98.33 1106.62,-52.53 1091.05,-27.81"/>
<polygon fill="#63b8ff" stroke="#63b8ff" points="1093.77,-25.58 1085.34,-19.17 1087.93,-29.44 1093.77,-25.58"/>
</a>
</g>
</g>
<!-- Node14&#45;&gt;Node7 -->
<g id="edge21_Node000014_Node000007" class="edge">
<title>Node14&#45;&gt;Node7</title>
<g id="a_edge21_Node000014_Node000007"><a xlink:title=" ">
<path fill="none" stroke="#63b8ff" d="M549.46,-226.71C494.47,-223.24 407.34,-213.17 338,-184 243.79,-144.37 151.6,-60.86 115.71,-26.14"/>
<polygon fill="#63b8ff" stroke="#63b8ff" points="118.16,-23.64 108.56,-19.15 113.26,-28.64 118.16,-23.64"/>
</a>
</g>
</g>
<!-- Node15 -->
<g id="Node000015" class="node">
<title>Node15</title>
<g id="a_Node000015"><a xlink:title=" ">
<polygon fill="#e0e0e0" stroke="#999999" points="617.5,-74 576.5,-74 576.5,-55 617.5,-55 617.5,-74"/>
<text text-anchor="middle" x="597" y="-62" font-family="Helvetica,sans-Serif" font-size="10.00">tuple</text>
</a>
</g>
</g>
<!-- Node14&#45;&gt;Node15 -->
<g id="edge20_Node000014_Node000015" class="edge">
<title>Node14&#45;&gt;Node15</title>
<g id="a_edge20_Node000014_Node000015"><a xlink:title=" ">
<path fill="none" stroke="#63b8ff" d="M602.68,-219.74C601.74,-194.31 599.01,-120.08 597.71,-84.69"/>
<polygon fill="#63b8ff" stroke="#63b8ff" points="601.19,-84.17 597.32,-74.31 594.19,-84.43 601.19,-84.17"/>
</a>
</g>
</g>
<!-- Node16 -->
<g id="Node000016" class="node">
<title>Node16</title>
<g id="a_Node000016"><a xlink:title=" ">
<polygon fill="#e0e0e0" stroke="#999999" points="679,-74 641,-74 641,-55 679,-55 679,-74"/>
<text text-anchor="middle" x="660" y="-62" font-family="Helvetica,sans-Serif" font-size="10.00">map</text>
</a>
</g>
</g>
<!-- Node14&#45;&gt;Node16 -->
<g id="edge22_Node000014_Node000016" class="edge">
<title>Node14&#45;&gt;Node16</title>
<g id="a_edge22_Node000014_Node000016"><a xlink:title=" ">
<path fill="none" stroke="#63b8ff" d="M606.06,-219.74C615.03,-194.09 641.37,-118.78 653.61,-83.78"/>
<polygon fill="#63b8ff" stroke="#63b8ff" points="656.92,-84.9 656.92,-74.31 650.32,-82.59 656.92,-84.9"/>
</a>
</g>
</g>
<!-- Node17 -->
<g id="Node000017" class="node">
<title>Node17</title>
<g id="a_Node000017"><a xlink:title=" ">
<polygon fill="#e0e0e0" stroke="#999999" points="480,-184 434,-184 434,-165 480,-165 480,-184"/>
<text text-anchor="middle" x="457" y="-172" font-family="Helvetica,sans-Serif" font-size="10.00">future</text>
</a>
</g>
</g>
<!-- Node14&#45;&gt;Node17 -->
<g id="edge25_Node000014_Node000017" class="edge">
<title>Node14&#45;&gt;Node17</title>
<g id="a_edge25_Node000014_Node000017"><a xlink:title=" ">
<path fill="none" stroke="#63b8ff" d="M579.54,-219.98C555.28,-211.18 517.18,-197.35 489.91,-187.45"/>
<polygon fill="#63b8ff" stroke="#63b8ff" points="490.99,-184.12 480.4,-183.99 488.6,-190.7 490.99,-184.12"/>
</a>
</g>
</g>
<!-- Node14&#45;&gt;Node18 -->
<g id="edge26_Node000014_Node000018" class="edge">
<title>Node14&#45;&gt;Node18</title>
<g id="a_edge26_Node000014_Node000018"><a xlink:title=" ">
<path fill="none" stroke="#63b8ff" d="M593.85,-219.65C579.66,-206.31 551.06,-180.94 523,-165 483.74,-142.7 463.11,-157.39 428,-129 412.89,-116.79 401.54,-97.46 394.66,-83.33"/>
<polygon fill="#63b8ff" stroke="#63b8ff" points="397.8,-81.77 390.45,-74.14 391.43,-84.69 397.8,-81.77"/>
</a>
</g>
</g>
<!-- Node14&#45;&gt;Node19 -->
<g id="edge30_Node000014_Node000019" class="edge">
<title>Node14&#45;&gt;Node19</title>
<g id="a_edge30_Node000014_Node000019"><a xlink:title=" ">
<path fill="none" stroke="#63b8ff" d="M644.29,-219.98C688.93,-210.78 760.16,-196.09 808.45,-186.13"/>
<polygon fill="#63b8ff" stroke="#63b8ff" points="809.3,-189.53 818.38,-184.08 807.88,-182.67 809.3,-189.53"/>
</a>
</g>
</g>
<!-- Node18&#45;&gt;Node3 -->
<g id="edge29_Node000018_Node000003" class="edge">
<title>Node18&#45;&gt;Node3</title>
<g id="a_edge29_Node000018_Node000003"><a xlink:title=" ">
<path fill="none" stroke="#63b8ff" d="M387,-54.75C387,-47.8 387,-37.85 387,-29.13"/>
<polygon fill="#63b8ff" stroke="#63b8ff" points="390.5,-29.09 387,-19.09 383.5,-29.09 390.5,-29.09"/>
</a>
</g>
</g>
<!-- Node18&#45;&gt;Node6 -->
<g id="edge27_Node000018_Node000006" class="edge">
<title>Node18&#45;&gt;Node6</title>
<g id="a_edge27_Node000018_Node000006"><a xlink:title=" ">
<path fill="none" stroke="#63b8ff" d="M431.91,-59.19C446.88,-57.79 463.65,-56.28 479,-55 694.53,-37.05 953.91,-19.03 1045.22,-12.79"/>
<polygon fill="#63b8ff" stroke="#63b8ff" points="1045.52,-16.28 1055.26,-12.11 1045.05,-9.29 1045.52,-16.28"/>
</a>
</g>
</g>
<!-- Node18&#45;&gt;Node7 -->
<g id="edge28_Node000018_Node000007" class="edge">
<title>Node18&#45;&gt;Node7</title>
<g id="a_edge28_Node000018_Node000007"><a xlink:title=" ">
<path fill="none" stroke="#63b8ff" d="M342.47,-55.28C292.22,-46 210.41,-30.89 155.91,-20.82"/>
<polygon fill="#63b8ff" stroke="#63b8ff" points="156.53,-17.38 146.06,-19.01 155.26,-24.26 156.53,-17.38"/>
</a>
</g>
</g>
<!-- Node19&#45;&gt;Node3 -->
<g id="edge31_Node000019_Node000003" class="edge">
<title>Node19&#45;&gt;Node3</title>
<g id="a_edge31_Node000019_Node000003"><a xlink:title=" ">
<path fill="none" stroke="#63b8ff" d="M855.49,-164.75C848.35,-151.56 833.35,-126.37 815,-110 777.15,-76.23 763.17,-70.9 715,-55 610.71,-20.57 479.34,-12.75 419.44,-10.99"/>
<polygon fill="#63b8ff" stroke="#63b8ff" points="419.2,-7.49 409.11,-10.73 419.02,-14.48 419.2,-7.49"/>
</a>
</g>
</g>
<!-- Node19&#45;&gt;Node4 -->
<g id="edge34_Node000019_Node000004" class="edge">
<title>Node19&#45;&gt;Node4</title>
<g id="a_edge34_Node000019_Node000004"><a xlink:title=" ">
<path fill="none" stroke="#63b8ff" d="M790.41,-166.37C705.03,-157.62 555.86,-142.29 428,-129 414.46,-127.59 399.65,-126.04 386.44,-124.65"/>
<polygon fill="#63b8ff" stroke="#63b8ff" points="386.55,-121.15 376.24,-123.58 385.82,-128.11 386.55,-121.15"/>
</a>
</g>
</g>
<!-- Node19&#45;&gt;Node5 -->
<g id="edge32_Node000019_Node000005" class="edge">
<title>Node19&#45;&gt;Node5</title>
<g id="a_edge32_Node000019_Node000005"><a xlink:title=" ">
<path fill="none" stroke="#63b8ff" d="M887.14,-164.97C913.61,-156.47 954.9,-142.73 990,-129 1009.46,-121.39 1013.17,-116.58 1033,-110 1088.85,-91.48 1156.21,-77.98 1195.36,-70.97"/>
<polygon fill="#63b8ff" stroke="#63b8ff" points="1196.15,-74.38 1205.39,-69.2 1194.94,-67.49 1196.15,-74.38"/>
</a>
</g>
</g>
<!-- Node19&#45;&gt;Node6 -->
<g id="edge33_Node000019_Node000006" class="edge">
<title>Node19&#45;&gt;Node6</title>
<g id="a_edge33_Node000019_Node000006"><a xlink:title=" ">
<path fill="none" stroke="#63b8ff" d="M876.96,-164.96C893.13,-156.56 917.92,-143 938,-129 985.82,-95.67 1037.02,-49.73 1062.55,-26.03"/>
<polygon fill="#63b8ff" stroke="#63b8ff" points="1064.98,-28.55 1069.9,-19.16 1060.2,-23.43 1064.98,-28.55"/>
</a>
</g>
</g>
<!-- Node19&#45;&gt;Node12 -->
<g id="edge37_Node000019_Node000012" class="edge">
<title>Node19&#45;&gt;Node12</title>
<g id="a_edge37_Node000019_Node000012"><a xlink:title=" ">
<path fill="none" stroke="#63b8ff" d="M893.74,-164.98C931.5,-155.46 992.53,-140.05 1031.95,-130.1"/>
<polygon fill="#63b8ff" stroke="#63b8ff" points="1032.89,-133.48 1041.73,-127.63 1031.18,-126.69 1032.89,-133.48"/>
</a>
</g>
</g>
<!-- Node19&#45;&gt;Node13 -->
<g id="edge38_Node000019_Node000013" class="edge">
<title>Node19&#45;&gt;Node13</title>
<g id="a_edge38_Node000019_Node000013"><a xlink:title=" ">
<path fill="none" stroke="#63b8ff" d="M877.16,-164.95C890.62,-157.35 908.74,-144.98 919,-129 927.59,-115.63 930.96,-97.76 932.26,-84.39"/>
<polygon fill="#63b8ff" stroke="#63b8ff" points="935.78,-84.23 932.95,-74.02 928.8,-83.76 935.78,-84.23"/>
</a>
</g>
</g>
<!-- Node19&#45;&gt;Node16 -->
<g id="edge36_Node000019_Node000016" class="edge">
<title>Node19&#45;&gt;Node16</title>
<g id="a_edge36_Node000019_Node000016"><a xlink:title=" ">
<path fill="none" stroke="#63b8ff" d="M797.94,-164.93C752.58,-157.47 696.11,-145.28 679,-129 666.9,-117.48 662.41,-98.61 660.79,-84.42"/>
<polygon fill="#63b8ff" stroke="#63b8ff" points="664.27,-83.99 660.02,-74.28 657.29,-84.52 664.27,-83.99"/>
</a>
</g>
</g>
<!-- Node19&#45;&gt;Node18 -->
<g id="edge39_Node000019_Node000018" class="edge">
<title>Node19&#45;&gt;Node18</title>
<g id="a_edge39_Node000019_Node000018"><a xlink:title=" ">
<path fill="none" stroke="#63b8ff" d="M790.18,-170.66C691.93,-165.82 518.45,-153.98 461,-129 436.64,-118.41 414.33,-96.94 400.72,-81.91"/>
<polygon fill="#63b8ff" stroke="#63b8ff" points="403.31,-79.55 394.1,-74.33 398.04,-84.16 403.31,-79.55"/>
</a>
</g>
</g>
<!-- Node20 -->
<g id="Node000020" class="node">
<title>Node20</title>
<g id="a_Node000020"><a xlink:title=" ">
<polygon fill="#e0e0e0" stroke="#999999" points="910,-129 862,-129 862,-110 910,-110 910,-129"/>
<text text-anchor="middle" x="886" y="-117" font-family="Helvetica,sans-Serif" font-size="10.00">mutex</text>
</a>
</g>
</g>
<!-- Node19&#45;&gt;Node20 -->
<g id="edge35_Node000019_Node000020" class="edge">
<title>Node19&#45;&gt;Node20</title>
<g id="a_edge35_Node000019_Node000020"><a xlink:title=" ">
<path fill="none" stroke="#63b8ff" d="M864.29,-164.75C867.81,-157.57 872.91,-147.18 877.28,-138.27"/>
<polygon fill="#63b8ff" stroke="#63b8ff" points="880.52,-139.61 881.79,-129.09 874.24,-136.53 880.52,-139.61"/>
</a>
</g>
</g>
<!-- Node19&#45;&gt;Node21 -->
<g id="edge40_Node000019_Node000021" class="edge">
<title>Node19&#45;&gt;Node21</title>
<g id="a_edge40_Node000019_Node000021"><a xlink:title=" ">
<path fill="none" stroke="#63b8ff" d="M804.25,-164.98C738.51,-154.94 630.07,-138.38 565.69,-128.55"/>
<polygon fill="#63b8ff" stroke="#63b8ff" points="566.16,-125.08 555.75,-127.03 565.11,-132 566.16,-125.08"/>
</a>
</g>
</g>
<!-- Node23 -->
<g id="Node000023" class="node">
<title>Node23</title>
<g id="a_Node000023"><a xlink:href="evaluate_8h.html" target="_top" xlink:title=" ">
<polygon fill="white" stroke="#666666" points="806,-129 688,-129 688,-110 806,-110 806,-129"/>
<text text-anchor="middle" x="747" y="-117" font-family="Helvetica,sans-Serif" font-size="10.00">Evaluator/evaluate.h</text>
</a>
</g>
</g>
<!-- Node19&#45;&gt;Node23 -->
<g id="edge43_Node000019_Node000023" class="edge">
<title>Node19&#45;&gt;Node23</title>
<g id="a_edge43_Node000019_Node000023"><a xlink:title=" ">
<path fill="none" stroke="#63b8ff" d="M841.84,-164.98C823.75,-156.5 795.72,-143.35 774.81,-133.54"/>
<polygon fill="#63b8ff" stroke="#63b8ff" points="776.03,-130.25 765.49,-129.17 773.05,-136.59 776.03,-130.25"/>
</a>
</g>
</g>
<!-- Node21&#45;&gt;Node3 -->
<g id="edge41_Node000021_Node000003" class="edge">
<title>Node21&#45;&gt;Node3</title>
<g id="a_edge41_Node000021_Node000003"><a xlink:title=" ">
<path fill="none" stroke="#63b8ff" d="M503.13,-109.82C489.14,-97.54 462.73,-74.43 440,-55 428.58,-45.24 415.68,-34.4 405.46,-25.87"/>
<polygon fill="#63b8ff" stroke="#63b8ff" points="407.53,-23.03 397.6,-19.31 403.04,-28.4 407.53,-23.03"/>
</a>
</g>
</g>
<!-- Node22 -->
<g id="Node000022" class="node">
<title>Node22</title>
<g id="a_Node000022"><a xlink:title=" ">
<polygon fill="#e0e0e0" stroke="#999999" points="548,-74 488,-74 488,-55 548,-55 548,-74"/>
<text text-anchor="middle" x="518" y="-62" font-family="Helvetica,sans-Serif" font-size="10.00">iostream</text>
</a>
</g>
</g>
<!-- Node21&#45;&gt;Node22 -->
<g id="edge42_Node000021_Node000022" class="edge">
<title>Node21&#45;&gt;Node22</title>
<g id="a_edge42_Node000021_Node000022"><a xlink:title=" ">
<path fill="none" stroke="#63b8ff" d="M513.83,-109.75C514.48,-102.8 515.42,-92.85 516.24,-84.13"/>
<polygon fill="#63b8ff" stroke="#63b8ff" points="519.73,-84.37 517.19,-74.09 512.77,-83.72 519.73,-84.37"/>
</a>
</g>
</g>
<!-- Node23&#45;&gt;Node3 -->
<g id="edge46_Node000023_Node000003" class="edge">
<title>Node23&#45;&gt;Node3</title>
<g id="a_edge46_Node000023_Node000003"><a xlink:title=" ">
<path fill="none" stroke="#63b8ff" d="M741.73,-109.78C732.69,-95.65 712.77,-68.04 688,-55 641.74,-30.66 487.11,-17.36 419.31,-12.57"/>
<polygon fill="#63b8ff" stroke="#63b8ff" points="419.43,-9.07 409.21,-11.88 418.95,-16.06 419.43,-9.07"/>
</a>
</g>
</g>
<!-- Node23&#45;&gt;Node5 -->
<g id="edge44_Node000023_Node000005" class="edge">
<title>Node23&#45;&gt;Node5</title>
<g id="a_edge44_Node000023_Node000005"><a xlink:title=" ">
<path fill="none" stroke="#63b8ff" d="M806.46,-111.95C908.94,-100.66 1115.5,-77.9 1195.4,-69.09"/>
<polygon fill="#63b8ff" stroke="#63b8ff" points="1195.82,-72.57 1205.38,-67.99 1195.06,-65.61 1195.82,-72.57"/>
</a>
</g>
</g>
<!-- Node23&#45;&gt;Node6 -->
<g id="edge45_Node000023_Node000006" class="edge">
<title>Node23&#45;&gt;Node6</title>
<g id="a_edge45_Node000023_Node000006"><a xlink:title=" ">
<path fill="none" stroke="#63b8ff" d="M763.89,-109.84C790.38,-96.52 843.6,-70.91 891,-55 943.9,-37.24 1007.44,-23.77 1045.45,-16.52"/>
<polygon fill="#63b8ff" stroke="#63b8ff" points="1046.28,-19.92 1055.46,-14.64 1044.99,-13.04 1046.28,-19.92"/>
</a>
</g>
</g>
<!-- Node23&#45;&gt;Node13 -->
<g id="edge47_Node000023_Node000013" class="edge">
<title>Node23&#45;&gt;Node13</title>
<g id="a_edge47_Node000023_Node000013"><a xlink:title=" ">
<path fill="none" stroke="#63b8ff" d="M776.88,-109.98C808.38,-101.01 858.17,-86.82 893.03,-76.89"/>
<polygon fill="#63b8ff" stroke="#63b8ff" points="894.22,-80.19 902.88,-74.08 892.31,-73.46 894.22,-80.19"/>
</a>
</g>
</g>
<!-- Node23&#45;&gt;Node15 -->
<g id="edge48_Node000023_Node000015" class="edge">
<title>Node23&#45;&gt;Node15</title>
<g id="a_edge48_Node000023_Node000015"><a xlink:title=" ">
<path fill="none" stroke="#63b8ff" d="M722.9,-109.98C696.94,-100.81 655.57,-86.19 627.39,-76.24"/>
<polygon fill="#63b8ff" stroke="#63b8ff" points="628.25,-72.83 617.66,-72.8 625.92,-79.43 628.25,-72.83"/>
</a>
</g>
</g>
<!-- Node23&#45;&gt;Node16 -->
<g id="edge49_Node000023_Node000016" class="edge">
<title>Node23&#45;&gt;Node16</title>
<g id="a_edge49_Node000023_Node000016"><a xlink:title=" ">
<path fill="none" stroke="#63b8ff" d="M733.02,-109.98C719.53,-101.77 698.87,-89.18 682.96,-79.49"/>
<polygon fill="#63b8ff" stroke="#63b8ff" points="684.59,-76.38 674.23,-74.17 680.95,-82.36 684.59,-76.38"/>
</a>
</g>
</g>
<!-- Node23&#45;&gt;Node18 -->
<g id="edge50_Node000023_Node000018" class="edge">
<title>Node23&#45;&gt;Node18</title>
<g id="a_edge50_Node000023_Node000018"><a xlink:title=" ">
<path fill="none" stroke="#63b8ff" d="M689.16,-109.98C620.91,-99.94 508.3,-83.36 441.53,-73.53"/>
<polygon fill="#63b8ff" stroke="#63b8ff" points="442.02,-70.06 431.62,-72.07 441,-76.99 442.02,-70.06"/>
</a>
</g>
</g>
<!-- Node24&#45;&gt;Node6 -->
<g id="edge62_Node000024_Node000006" class="edge">
<title>Node24&#45;&gt;Node6</title>
<g id="a_edge62_Node000024_Node000006"><a xlink:title=" ">
<path fill="none" stroke="#63b8ff" d="M1182.88,-384.81C1214.9,-343.25 1344.24,-162.46 1260,-55 1242.04,-32.09 1159.94,-19.41 1112.72,-13.89"/>
<polygon fill="#63b8ff" stroke="#63b8ff" points="1112.97,-10.39 1102.64,-12.76 1112.19,-17.35 1112.97,-10.39"/>
</a>
</g>
</g>
<!-- Node24&#45;&gt;Node11 -->
<g id="edge55_Node000024_Node000011" class="edge">
<title>Node24&#45;&gt;Node11</title>
<g id="a_edge55_Node000024_Node000011"><a xlink:title=" ">
<path fill="none" stroke="#63b8ff" d="M1174.43,-384.89C1171.41,-370.93 1163.36,-343.55 1145,-330 1111.95,-305.61 1004.24,-294.21 931.12,-289.16"/>
<polygon fill="#63b8ff" stroke="#63b8ff" points="931.25,-285.66 921.04,-288.49 930.79,-292.65 931.25,-285.66"/>
</a>
</g>
</g>
<!-- Node24&#45;&gt;Node19 -->
<g id="edge61_Node000024_Node000019" class="edge">
<title>Node24&#45;&gt;Node19</title>
<g id="a_edge61_Node000024_Node000019"><a xlink:title=" ">
<path fill="none" stroke="#63b8ff" d="M1176.97,-384.76C1177.97,-371.59 1177.96,-346.42 1166,-330 1104.2,-245.19 982.36,-203.91 912.51,-186.44"/>
<polygon fill="#63b8ff" stroke="#63b8ff" points="913.14,-182.99 902.59,-184.03 911.49,-189.79 913.14,-182.99"/>
</a>
</g>
</g>
<!-- Node24&#45;&gt;Node25 -->
<g id="edge56_Node000024_Node000025" class="edge">
<title>Node24&#45;&gt;Node25</title>
<g id="a_edge56_Node000024_Node000025"><a xlink:title=" ">
<path fill="none" stroke="#63b8ff" d="M1158.33,-384.98C1140.71,-376.5 1113.42,-363.35 1093.07,-353.54"/>
<polygon fill="#63b8ff" stroke="#63b8ff" points="1094.52,-350.36 1083.99,-349.17 1091.48,-356.66 1094.52,-350.36"/>
</a>
</g>
</g>
<!-- Node25&#45;&gt;Node5 -->
<g id="edge57_Node000025_Node000005" class="edge">
<title>Node25&#45;&gt;Node5</title>
<g id="a_edge57_Node000025_Node000005"><a xlink:title=" ">
<path fill="none" stroke="#63b8ff" d="M1075.06,-329.98C1102.68,-303.37 1186.01,-218.31 1221,-129 1226.63,-114.62 1228.21,-97.1 1228.48,-84.11"/>
<polygon fill="#63b8ff" stroke="#63b8ff" points="1231.98,-84.04 1228.44,-74.05 1224.98,-84.06 1231.98,-84.04"/>
</a>
</g>
</g>
<!-- Node25&#45;&gt;Node11 -->
<g id="edge58_Node000025_Node000011" class="edge">
<title>Node25&#45;&gt;Node11</title>
<g id="a_edge58_Node000025_Node000011"><a xlink:title=" ">
<path fill="none" stroke="#63b8ff" d="M1032.9,-329.98C997.72,-320.93 941.93,-306.58 903.28,-296.64"/>
<polygon fill="#63b8ff" stroke="#63b8ff" points="903.91,-293.18 893.36,-294.08 902.17,-299.96 903.91,-293.18"/>
</a>
</g>
</g>
<!-- Node26 -->
<g id="Node000026" class="node">
<title>Node26</title>
<g id="a_Node000026"><a xlink:href="simulator_8h.html" target="_top" xlink:title=" ">
<polygon fill="white" stroke="#666666" points="188,-239 66,-239 66,-220 188,-220 188,-239"/>
<text text-anchor="middle" x="127" y="-227" font-family="Helvetica,sans-Serif" font-size="10.00">Simulator/simulator.h</text>
</a>
</g>
</g>
<!-- Node25&#45;&gt;Node26 -->
<g id="edge59_Node000025_Node000026" class="edge">
<title>Node25&#45;&gt;Node26</title>
<g id="a_edge59_Node000025_Node000026"><a xlink:title=" ">
<path fill="none" stroke="#63b8ff" d="M995.81,-330.43C822.04,-310.44 373.27,-258.82 198.32,-238.7"/>
<polygon fill="#63b8ff" stroke="#63b8ff" points="198.53,-235.2 188.2,-237.54 197.73,-242.16 198.53,-235.2"/>
</a>
</g>
</g>
<!-- Node26&#45;&gt;Node18 -->
<g id="edge60_Node000026_Node000018" class="edge">
<title>Node26&#45;&gt;Node18</title>
<g id="a_edge60_Node000026_Node000018"><a xlink:title=" ">
<path fill="none" stroke="#63b8ff" d="M136.06,-219.7C158.29,-198.47 217.99,-143.72 276,-110 299.35,-96.43 327.63,-85.16 349.8,-77.36"/>
<polygon fill="#63b8ff" stroke="#63b8ff" points="351.19,-80.58 359.52,-74.02 348.92,-73.96 351.19,-80.58"/>
</a>
</g>
</g>
</g>
</svg>

<g id="navigator" transform="translate(0 0)" fill="#404254">
  <rect fill="#f2f5e9" fill-opacity="0.5" stroke="#606060" stroke-width=".5" x="0" y="0" width="60" height="60"/>
  <use id="zoomplus" xlink:href="#zoomPlus" x="17" y="9" onmousedown="handleZoom(evt,'in')"/>
  <use id="zoomminus" xlink:href="#zoomMin" x="42" y="9" onmousedown="handleZoom(evt,'out')"/>
  <use id="reset" xlink:href="#resetDef" x="30" y="36" onmousedown="handleReset()"/>
   <use id="arrowup" xlink:href="#arrowUp" x="0" y="0" onmousedown="handlePan(0,-1)"/>
  <use id="arrowright" xlink:href="#arrowRight" x="0" y="0" onmousedown="handlePan(1,0)"/>
  <use id="arrowdown" xlink:href="#arrowDown" x="0" y="0" onmousedown="handlePan(0,1)"/>
  <use id="arrowleft" xlink:href="#arrowLeft" x="0" y="0" onmousedown="handlePan(-1,0)"/>
</g>
<svg viewBox="0 0 15 15" width="100%" height="30px" preserveAspectRatio="xMaxYMin meet">
 <g id="arrow_out" transform="scale(0.3 0.3)">
  <a xlink:href="dutDriver_8cpp__incl_org.svg" target="_base">
   <rect id="button" ry="5" rx="5" y="6" x="6" height="38" width="38"
        fill="#f2f5e9" fill-opacity="0.5" stroke="#606060" stroke-width="1.0"/>
   <path id="arrow"
     d="M 11.500037,31.436501 C 11.940474,20.09759 22.043105,11.32322 32.158766,21.979434 L 37.068811,17.246167 C 37.068811,17.246167 37.088388,32 37.088388,32 L 22.160133,31.978069 C 22.160133,31.978069 26.997745,27.140456 26.997745,27.140456 C 18.528582,18.264221 13.291696,25.230495 11.500037,31.436501 z"
     style="fill:#404040;"/>
  </a>
 </g>
</svg>

<style type='text/css'>
<![CDATA[
[data-mouse-over-selected='false'] { opacity: 0.7; }
[data-mouse-over-selected='true']  { opacity: 1.0; }
]]>
</style>
<script type="application/ecmascript"><![CDATA[
document.addEventListener('DOMContentLoaded', (event) => {
  highlightEdges();
  highlightAdjacentNodes();
});
]]></script>
</svg>
