<?xml version="1.0" encoding="UTF-8" standalone="no"?>
<!DOCTYPE svg PUBLIC "-//W3C//DTD SVG 1.1//EN"
 "http://www.w3.org/Graphics/SVG/1.1/DTD/svg11.dtd">
<!-- Generated by graphviz version 2.43.0 (0)
 -->
<!-- Title: include/Drivers/dutDriver.h Pages: 1 -->
<svg width="1794pt" height="522pt"
 viewBox="0.00 0.00 1794.00 522.00" xmlns="http://www.w3.org/2000/svg" xmlns:xlink="http://www.w3.org/1999/xlink">
<g id="graph0" class="graph" transform="scale(1 1) rotate(0) translate(4 518)">
<title>include/Drivers/dutDriver.h</title>
<!-- Node1 -->
<g id="Node000001" class="node">
<title>Node1</title>
<g id="a_Node000001"><a xlink:title=" ">
<polygon fill="#999999" stroke="#666666" points="1441.5,-514 1294.5,-514 1294.5,-495 1441.5,-495 1441.5,-514"/>
<text text-anchor="middle" x="1368" y="-502" font-family="Helvetica,sans-Serif" font-size="10.00">include/Drivers/dutDriver.h</text>
</a>
</g>
</g>
<!-- Node2 -->
<g id="Node000002" class="node">
<title>Node2</title>
<g id="a_Node000002"><a xlink:title=" ">
<polygon fill="#e0e0e0" stroke="#999999" points="238,-19 194,-19 194,0 238,0 238,-19"/>
<text text-anchor="middle" x="216" y="-7" font-family="Helvetica,sans-Serif" font-size="10.00">string</text>
</a>
</g>
</g>
<!-- Node1&#45;&gt;Node2 -->
<g id="edge1_Node000001_Node000002" class="edge">
<title>Node1&#45;&gt;Node2</title>
<g id="a_edge1_Node000001_Node000002"><a xlink:title=" ">
<path fill="none" stroke="#63b8ff" d="M1294.42,-502.05C1085.49,-497.69 491.33,-483.44 298,-459 163.65,-442.02 0,-530.92 0,-395.5 0,-395.5 0,-395.5 0,-118.5 0,-37.42 123.26,-17.21 183.56,-12.17"/>
<polygon fill="#63b8ff" stroke="#63b8ff" points="183.98,-15.65 193.7,-11.42 183.47,-8.67 183.98,-15.65"/>
</a>
</g>
</g>
<!-- Node3 -->
<g id="Node000003" class="node">
<title>Node3</title>
<g id="a_Node000003"><a xlink:title=" ">
<polygon fill="#e0e0e0" stroke="#999999" points="998,-129 940,-129 940,-110 998,-110 998,-129"/>
<text text-anchor="middle" x="969" y="-117" font-family="Helvetica,sans-Serif" font-size="10.00">memory</text>
</a>
</g>
</g>
<!-- Node1&#45;&gt;Node3 -->
<g id="edge2_Node000001_Node000003" class="edge">
<title>Node1&#45;&gt;Node3</title>
<g id="a_edge2_Node000001_Node000003"><a xlink:title=" ">
<path fill="none" stroke="#63b8ff" d="M1368,-494.82C1368,-476.48 1368,-432.44 1368,-395.5 1368,-395.5 1368,-395.5 1368,-338.5 1368,-175.54 1108.52,-133.64 1008.07,-123.52"/>
<polygon fill="#63b8ff" stroke="#63b8ff" points="1008.3,-120.03 998.02,-122.57 1007.64,-127 1008.3,-120.03"/>
</a>
</g>
</g>
<!-- Node4 -->
<g id="Node000004" class="node">
<title>Node4</title>
<g id="a_Node000004"><a xlink:title=" ">
<polygon fill="#e0e0e0" stroke="#999999" points="1251.5,-74 1206.5,-74 1206.5,-55 1251.5,-55 1251.5,-74"/>
<text text-anchor="middle" x="1229" y="-62" font-family="Helvetica,sans-Serif" font-size="10.00">utility</text>
</a>
</g>
</g>
<!-- Node1&#45;&gt;Node4 -->
<g id="edge3_Node000001_Node000004" class="edge">
<title>Node1&#45;&gt;Node4</title>
<g id="a_edge3_Node000001_Node000004"><a xlink:title=" ">
<path fill="none" stroke="#63b8ff" d="M1373.28,-494.9C1383.73,-477.07 1406,-434.46 1406,-395.5 1406,-395.5 1406,-395.5 1406,-228.5 1406,-150.6 1312.08,-99.7 1261.07,-77.8"/>
<polygon fill="#63b8ff" stroke="#63b8ff" points="1262.35,-74.54 1251.78,-73.93 1259.66,-81 1262.35,-74.54"/>
</a>
</g>
</g>
<!-- Node5 -->
<g id="Node000005" class="node">
<title>Node5</title>
<g id="a_Node000005"><a xlink:title=" ">
<polygon fill="#e0e0e0" stroke="#999999" points="854.5,-19 807.5,-19 807.5,0 854.5,0 854.5,-19"/>
<text text-anchor="middle" x="831" y="-7" font-family="Helvetica,sans-Serif" font-size="10.00">vector</text>
</a>
</g>
</g>
<!-- Node1&#45;&gt;Node5 -->
<g id="edge4_Node000001_Node000005" class="edge">
<title>Node1&#45;&gt;Node5</title>
<g id="a_edge4_Node000001_Node000005"><a xlink:title=" ">
<path fill="none" stroke="#63b8ff" d="M1379.88,-494.88C1401.25,-478.26 1444,-439.52 1444,-395.5 1444,-395.5 1444,-395.5 1444,-118.5 1444,-32.41 1345.04,-73.67 1261,-55 1116.05,-22.81 938.32,-13.79 865.05,-11.36"/>
<polygon fill="#63b8ff" stroke="#63b8ff" points="864.71,-7.85 854.61,-11.04 864.5,-14.85 864.71,-7.85"/>
</a>
</g>
</g>
<!-- Node6 -->
<g id="Node000006" class="node">
<title>Node6</title>
<g id="a_Node000006"><a xlink:title=" ">
<polygon fill="#e0e0e0" stroke="#999999" points="1338.5,-19 1245.5,-19 1245.5,0 1338.5,0 1338.5,-19"/>
<text text-anchor="middle" x="1292" y="-7" font-family="Helvetica,sans-Serif" font-size="10.00">unordered_map</text>
</a>
</g>
</g>
<!-- Node1&#45;&gt;Node6 -->
<g id="edge5_Node000001_Node000006" class="edge">
<title>Node1&#45;&gt;Node6</title>
<g id="a_edge5_Node000001_Node000006"><a xlink:title=" ">
<path fill="none" stroke="#63b8ff" d="M1398.29,-494.91C1417.67,-488.02 1442.08,-476.56 1458,-459 1478.27,-436.65 1482,-425.67 1482,-395.5 1482,-395.5 1482,-395.5 1482,-118.5 1482,-88.33 1480.37,-75.25 1458,-55 1428.3,-28.12 1384.1,-17.19 1348.78,-12.88"/>
<polygon fill="#63b8ff" stroke="#63b8ff" points="1348.91,-9.38 1338.6,-11.79 1348.17,-16.34 1348.91,-9.38"/>
</a>
</g>
</g>
<!-- Node7 -->
<g id="Node000007" class="node">
<title>Node7</title>
<g id="a_Node000007"><a xlink:title=" ">
<polygon fill="#e0e0e0" stroke="#999999" points="1578,-459 1510,-459 1510,-440 1578,-440 1578,-459"/>
<text text-anchor="middle" x="1544" y="-447" font-family="Helvetica,sans-Serif" font-size="10.00">filesystem</text>
</a>
</g>
</g>
<!-- Node1&#45;&gt;Node7 -->
<g id="edge6_Node000001_Node000007" class="edge">
<title>Node1&#45;&gt;Node7</title>
<g id="a_edge6_Node000001_Node000007"><a xlink:title=" ">
<path fill="none" stroke="#63b8ff" d="M1396.28,-494.98C1425.95,-486.05 1472.79,-471.94 1505.75,-462.02"/>
<polygon fill="#63b8ff" stroke="#63b8ff" points="1506.93,-465.32 1515.5,-459.08 1504.92,-458.61 1506.93,-465.32"/>
</a>
</g>
</g>
<!-- Node8 -->
<g id="Node000008" class="node">
<title>Node8</title>
<g id="a_Node000008"><a xlink:title=" ">
<polygon fill="#e0e0e0" stroke="#999999" points="1665.5,-459 1596.5,-459 1596.5,-440 1665.5,-440 1665.5,-459"/>
<text text-anchor="middle" x="1631" y="-447" font-family="Helvetica,sans-Serif" font-size="10.00">verilated.h</text>
</a>
</g>
</g>
<!-- Node1&#45;&gt;Node8 -->
<g id="edge7_Node000001_Node000008" class="edge">
<title>Node1&#45;&gt;Node8</title>
<g id="a_edge7_Node000001_Node000008"><a xlink:title=" ">
<path fill="none" stroke="#63b8ff" d="M1410.26,-494.98C1458.52,-485.26 1537.14,-469.42 1586.37,-459.49"/>
<polygon fill="#63b8ff" stroke="#63b8ff" points="1587.29,-462.88 1596.41,-457.47 1585.91,-456.02 1587.29,-462.88"/>
</a>
</g>
</g>
<!-- Node9 -->
<g id="Node000009" class="node">
<title>Node9</title>
<g id="a_Node000009"><a xlink:title=" ">
<polygon fill="#e0e0e0" stroke="#999999" points="1786,-459 1684,-459 1684,-440 1786,-440 1786,-459"/>
<text text-anchor="middle" x="1735" y="-447" font-family="Helvetica,sans-Serif" font-size="10.00">verilated_vcd_c.h</text>
</a>
</g>
</g>
<!-- Node1&#45;&gt;Node9 -->
<g id="edge8_Node000001_Node000009" class="edge">
<title>Node1&#45;&gt;Node9</title>
<g id="a_edge8_Node000001_Node000009"><a xlink:title=" ">
<path fill="none" stroke="#63b8ff" d="M1426.96,-494.98C1494.61,-485.22 1605.01,-469.27 1673.65,-459.36"/>
<polygon fill="#63b8ff" stroke="#63b8ff" points="1674.48,-462.78 1683.88,-457.88 1673.48,-455.85 1674.48,-462.78"/>
</a>
</g>
</g>
<!-- Node10 -->
<g id="Node000010" class="node">
<title>Node10</title>
<g id="a_Node000010"><a xlink:href="driverModel_8h.html" target="_top" xlink:title=" ">
<polygon fill="white" stroke="#666666" points="755,-294 633,-294 633,-275 755,-275 755,-294"/>
<text text-anchor="middle" x="694" y="-282" font-family="Helvetica,sans-Serif" font-size="10.00">Drivers/driverModel.h</text>
</a>
</g>
</g>
<!-- Node1&#45;&gt;Node10 -->
<g id="edge9_Node000001_Node000010" class="edge">
<title>Node1&#45;&gt;Node10</title>
<g id="a_edge9_Node000001_Node000010"><a xlink:title=" ">
<path fill="none" stroke="#63b8ff" d="M1294.21,-502.94C1203.09,-500.74 1043.97,-491.95 912,-459 849.94,-443.5 829.12,-443.74 779,-404 743.43,-375.8 715.99,-328.97 702.74,-303.44"/>
<polygon fill="#63b8ff" stroke="#63b8ff" points="705.71,-301.57 698.09,-294.21 699.46,-304.72 705.71,-301.57"/>
</a>
</g>
</g>
<!-- Node13 -->
<g id="Node000013" class="node">
<title>Node13</title>
<g id="a_Node000013"><a xlink:href="channel_8h.html" target="_top" xlink:title=" ">
<polygon fill="white" stroke="#666666" points="956.5,-239 849.5,-239 849.5,-220 956.5,-220 956.5,-239"/>
<text text-anchor="middle" x="903" y="-227" font-family="Helvetica,sans-Serif" font-size="10.00">Channel/channel.h</text>
</a>
</g>
</g>
<!-- Node1&#45;&gt;Node13 -->
<g id="edge71_Node000001_Node000013" class="edge">
<title>Node1&#45;&gt;Node13</title>
<g id="a_edge71_Node000001_Node000013"><a xlink:title=" ">
<path fill="none" stroke="#63b8ff" d="M1294.27,-498.77C1178.21,-489.27 966,-462.71 966,-395.5 966,-395.5 966,-395.5 966,-338.5 966,-301.49 938.05,-265.87 919.39,-246.21"/>
<polygon fill="#63b8ff" stroke="#63b8ff" points="921.81,-243.68 912.3,-239.03 916.83,-248.6 921.81,-243.68"/>
</a>
</g>
</g>
<!-- Node19 -->
<g id="Node000019" class="node">
<title>Node19</title>
<g id="a_Node000019"><a xlink:href="transaction_8h_source.html" target="_top" xlink:title=" ">
<polygon fill="white" stroke="#666666" points="553.5,-184 414.5,-184 414.5,-165 553.5,-165 553.5,-184"/>
<text text-anchor="middle" x="484" y="-172" font-family="Helvetica,sans-Serif" font-size="10.00">Transaction/transaction.h</text>
</a>
</g>
</g>
<!-- Node1&#45;&gt;Node19 -->
<g id="edge69_Node000001_Node000019" class="edge">
<title>Node1&#45;&gt;Node19</title>
<g id="a_edge69_Node000001_Node000019"><a xlink:title=" ">
<path fill="none" stroke="#63b8ff" d="M1294.15,-502.19C1081.69,-497.44 484,-476.87 484,-395.5 484,-395.5 484,-395.5 484,-283.5 484,-252.19 484,-215.77 484,-194.23"/>
<polygon fill="#63b8ff" stroke="#63b8ff" points="487.5,-194.18 484,-184.18 480.5,-194.18 487.5,-194.18"/>
</a>
</g>
</g>
<!-- Node24 -->
<g id="Node000024" class="node">
<title>Node24</title>
<g id="a_Node000024"><a xlink:href="transDriverModel_8h.html" target="_top" xlink:title=" ">
<polygon fill="white" stroke="#666666" points="456.5,-459 307.5,-459 307.5,-440 456.5,-440 456.5,-459"/>
<text text-anchor="middle" x="382" y="-447" font-family="Helvetica,sans-Serif" font-size="10.00">Drivers/transDriverModel.h</text>
</a>
</g>
</g>
<!-- Node1&#45;&gt;Node24 -->
<g id="edge54_Node000001_Node000024" class="edge">
<title>Node1&#45;&gt;Node24</title>
<g id="a_edge54_Node000001_Node000024"><a xlink:title=" ">
<path fill="none" stroke="#63b8ff" d="M1294.3,-501.02C1140.82,-495.59 775.72,-481.33 470,-459 469.06,-458.93 468.12,-458.86 467.17,-458.79"/>
<polygon fill="#63b8ff" stroke="#63b8ff" points="467.12,-455.27 456.87,-457.97 466.56,-462.25 467.12,-455.27"/>
</a>
</g>
</g>
<!-- Node25 -->
<g id="Node000025" class="node">
<title>Node25</title>
<g id="a_Node000025"><a xlink:href="simulatorDriver_8h.html" target="_top" xlink:title=" ">
<polygon fill="white" stroke="#666666" points="928,-404 788,-404 788,-385 928,-385 928,-404"/>
<text text-anchor="middle" x="858" y="-392" font-family="Helvetica,sans-Serif" font-size="10.00">Drivers/simulatorDriver.h</text>
</a>
</g>
</g>
<!-- Node1&#45;&gt;Node25 -->
<g id="edge70_Node000001_Node000025" class="edge">
<title>Node1&#45;&gt;Node25</title>
<g id="a_edge70_Node000001_Node000025"><a xlink:title=" ">
<path fill="none" stroke="#63b8ff" d="M1294.31,-499.9C1192.12,-494.18 1013.06,-481.31 952,-459 922.27,-448.14 892.83,-425.89 875.02,-410.83"/>
<polygon fill="#63b8ff" stroke="#63b8ff" points="877.11,-408.01 867.27,-404.1 872.52,-413.3 877.11,-408.01"/>
</a>
</g>
</g>
<!-- Node10&#45;&gt;Node2 -->
<g id="edge12_Node000010_Node000002" class="edge">
<title>Node10&#45;&gt;Node2</title>
<g id="a_edge12_Node000010_Node000002"><a xlink:title=" ">
<path fill="none" stroke="#63b8ff" d="M632.85,-280.48C521.46,-274.54 289.77,-260.06 212,-239 147.61,-221.56 76,-242.21 76,-175.5 76,-175.5 76,-175.5 76,-118.5 76,-64.19 142.86,-33.37 184.17,-19.5"/>
<polygon fill="#63b8ff" stroke="#63b8ff" points="185.36,-22.8 193.82,-16.42 183.23,-16.13 185.36,-22.8"/>
</a>
</g>
</g>
<!-- Node10&#45;&gt;Node3 -->
<g id="edge10_Node000010_Node000003" class="edge">
<title>Node10&#45;&gt;Node3</title>
<g id="a_edge10_Node000010_Node000003"><a xlink:title=" ">
<path fill="none" stroke="#63b8ff" d="M699.2,-274.78C712.8,-252.76 751.74,-194.54 800,-165 811.15,-158.18 883.89,-140.37 930.23,-129.46"/>
<polygon fill="#63b8ff" stroke="#63b8ff" points="931.04,-132.87 939.97,-127.18 929.44,-126.05 931.04,-132.87"/>
</a>
</g>
</g>
<!-- Node10&#45;&gt;Node4 -->
<g id="edge14_Node000010_Node000004" class="edge">
<title>Node10&#45;&gt;Node4</title>
<g id="a_edge14_Node000010_Node000004"><a xlink:title=" ">
<path fill="none" stroke="#63b8ff" d="M755,-278.18C810.83,-272.22 895.25,-260.45 966,-239 1022.53,-221.86 1036.98,-215.43 1087,-184 1136.8,-152.71 1188.04,-105.53 1213.15,-81.22"/>
<polygon fill="#63b8ff" stroke="#63b8ff" points="1215.65,-83.67 1220.36,-74.17 1210.76,-78.66 1215.65,-83.67"/>
</a>
</g>
</g>
<!-- Node10&#45;&gt;Node6 -->
<g id="edge13_Node000010_Node000006" class="edge">
<title>Node10&#45;&gt;Node6</title>
<g id="a_edge13_Node000010_Node000006"><a xlink:title=" ">
<path fill="none" stroke="#63b8ff" d="M755.04,-280.83C819.12,-276.65 922.14,-266 1007,-239 1135.28,-198.19 1175.18,-177.71 1261,-74 1272.23,-60.43 1280.62,-42.1 1285.82,-28.62"/>
<polygon fill="#63b8ff" stroke="#63b8ff" points="1289.17,-29.63 1289.29,-19.04 1282.59,-27.24 1289.17,-29.63"/>
</a>
</g>
</g>
<!-- Node11 -->
<g id="Node000011" class="node">
<title>Node11</title>
<g id="a_Node000011"><a xlink:title=" ">
<polygon fill="#e0e0e0" stroke="#999999" points="340,-129 284,-129 284,-110 340,-110 340,-129"/>
<text text-anchor="middle" x="312" y="-117" font-family="Helvetica,sans-Serif" font-size="10.00">optional</text>
</a>
</g>
</g>
<!-- Node10&#45;&gt;Node11 -->
<g id="edge11_Node000010_Node000011" class="edge">
<title>Node10&#45;&gt;Node11</title>
<g id="a_edge11_Node000010_Node000011"><a xlink:title=" ">
<path fill="none" stroke="#63b8ff" d="M659.89,-274.95C604.59,-260.4 492.73,-228.05 405,-184 377.52,-170.2 348.71,-149.39 330.57,-135.39"/>
<polygon fill="#63b8ff" stroke="#63b8ff" points="332.6,-132.54 322.57,-129.13 328.29,-138.05 332.6,-132.54"/>
</a>
</g>
</g>
<!-- Node12 -->
<g id="Node000012" class="node">
<title>Node12</title>
<g id="a_Node000012"><a xlink:title=" ">
<polygon fill="#e0e0e0" stroke="#999999" points="438.5,-74 373.5,-74 373.5,-55 438.5,-55 438.5,-74"/>
<text text-anchor="middle" x="406" y="-62" font-family="Helvetica,sans-Serif" font-size="10.00">functional</text>
</a>
</g>
</g>
<!-- Node10&#45;&gt;Node12 -->
<g id="edge15_Node000010_Node000012" class="edge">
<title>Node10&#45;&gt;Node12</title>
<g id="a_edge15_Node000010_Node000012"><a xlink:title=" ">
<path fill="none" stroke="#63b8ff" d="M632.85,-283.2C534.91,-278.9 346.64,-253.93 275,-129 253.78,-92 317.45,-76.19 363.32,-69.71"/>
<polygon fill="#63b8ff" stroke="#63b8ff" points="363.91,-73.16 373.38,-68.39 363.01,-66.22 363.91,-73.16"/>
</a>
</g>
</g>
<!-- Node10&#45;&gt;Node13 -->
<g id="edge16_Node000010_Node000013" class="edge">
<title>Node10&#45;&gt;Node13</title>
<g id="a_edge16_Node000010_Node000013"><a xlink:title=" ">
<path fill="none" stroke="#63b8ff" d="M727.58,-274.98C763.35,-265.91 820.12,-251.52 859.34,-241.57"/>
<polygon fill="#63b8ff" stroke="#63b8ff" points="860.32,-244.93 869.16,-239.08 858.6,-238.15 860.32,-244.93"/>
</a>
</g>
</g>
<!-- Node18 -->
<g id="Node000018" class="node">
<title>Node18</title>
<g id="a_Node000018"><a xlink:href="types_8h.html" target="_top" xlink:title=" ">
<polygon fill="white" stroke="#666666" points="946.5,-74 857.5,-74 857.5,-55 946.5,-55 946.5,-74"/>
<text text-anchor="middle" x="902" y="-62" font-family="Helvetica,sans-Serif" font-size="10.00">Library/types.h</text>
</a>
</g>
</g>
<!-- Node10&#45;&gt;Node18 -->
<g id="edge52_Node000010_Node000018" class="edge">
<title>Node10&#45;&gt;Node18</title>
<g id="a_edge52_Node000010_Node000018"><a xlink:title=" ">
<path fill="none" stroke="#63b8ff" d="M696.46,-274.81C700.3,-262.12 708.46,-238.07 720,-220 737.94,-191.9 746.3,-187.39 771,-165 807.34,-132.06 853.88,-98.53 880.58,-80.03"/>
<polygon fill="#63b8ff" stroke="#63b8ff" points="882.89,-82.69 889.15,-74.14 878.93,-76.92 882.89,-82.69"/>
</a>
</g>
</g>
<!-- Node10&#45;&gt;Node19 -->
<g id="edge51_Node000010_Node000019" class="edge">
<title>Node10&#45;&gt;Node19</title>
<g id="a_edge51_Node000010_Node000019"><a xlink:title=" ">
<path fill="none" stroke="#63b8ff" d="M677.17,-274.84C640.52,-256 553.31,-211.14 509.72,-188.73"/>
<polygon fill="#63b8ff" stroke="#63b8ff" points="511.11,-185.51 500.62,-184.05 507.91,-191.73 511.11,-185.51"/>
</a>
</g>
</g>
<!-- Node21 -->
<g id="Node000021" class="node">
<title>Node21</title>
<g id="a_Node000021"><a xlink:href="error_8h.html" target="_top" xlink:title=" ">
<polygon fill="white" stroke="#666666" points="189.5,-129 104.5,-129 104.5,-110 189.5,-110 189.5,-129"/>
<text text-anchor="middle" x="147" y="-117" font-family="Helvetica,sans-Serif" font-size="10.00">Library/error.h</text>
</a>
</g>
</g>
<!-- Node10&#45;&gt;Node21 -->
<g id="edge53_Node000010_Node000021" class="edge">
<title>Node10&#45;&gt;Node21</title>
<g id="a_edge53_Node000010_Node000021"><a xlink:title=" ">
<path fill="none" stroke="#63b8ff" d="M632.92,-283.27C525.51,-281.93 307.95,-274.74 242,-239 199.45,-215.94 169.08,-165.03 155.3,-138.06"/>
<polygon fill="#63b8ff" stroke="#63b8ff" points="158.39,-136.43 150.83,-129 152.11,-139.52 158.39,-136.43"/>
</a>
</g>
</g>
<!-- Node13&#45;&gt;Node2 -->
<g id="edge19_Node000013_Node000002" class="edge">
<title>Node13&#45;&gt;Node2</title>
<g id="a_edge19_Node000013_Node000002"><a xlink:title=" ">
<path fill="none" stroke="#63b8ff" d="M849.1,-223.84C799.89,-218.33 725.79,-206.85 665,-184 559.62,-144.38 552.27,-94.9 447,-55 378.94,-29.2 293.69,-17.76 248.17,-13.18"/>
<polygon fill="#63b8ff" stroke="#63b8ff" points="248.31,-9.68 238.02,-12.21 247.64,-16.65 248.31,-9.68"/>
</a>
</g>
</g>
<!-- Node13&#45;&gt;Node3 -->
<g id="edge18_Node000013_Node000003" class="edge">
<title>Node13&#45;&gt;Node3</title>
<g id="a_edge18_Node000013_Node000003"><a xlink:title=" ">
<path fill="none" stroke="#63b8ff" d="M894.23,-219.86C882.52,-207.23 864.5,-183.24 876,-165 887.92,-146.09 910.34,-135.04 930.19,-128.68"/>
<polygon fill="#63b8ff" stroke="#63b8ff" points="931.33,-131.99 939.96,-125.84 929.38,-125.27 931.33,-131.99"/>
</a>
</g>
</g>
<!-- Node13&#45;&gt;Node4 -->
<g id="edge23_Node000013_Node000004" class="edge">
<title>Node13&#45;&gt;Node4</title>
<g id="a_edge23_Node000013_Node000004"><a xlink:title=" ">
<path fill="none" stroke="#63b8ff" d="M939.6,-219.93C968.89,-212.39 1010.61,-200.1 1045,-184 1109.16,-153.96 1177.48,-104.81 1209.85,-80.33"/>
<polygon fill="#63b8ff" stroke="#63b8ff" points="1212.17,-82.96 1218,-74.11 1207.92,-77.4 1212.17,-82.96"/>
</a>
</g>
</g>
<!-- Node13&#45;&gt;Node5 -->
<g id="edge24_Node000013_Node000005" class="edge">
<title>Node13&#45;&gt;Node5</title>
<g id="a_edge24_Node000013_Node000005"><a xlink:title=" ">
<path fill="none" stroke="#63b8ff" d="M956.82,-226.59C987.97,-222.37 1024.89,-211.38 1045,-184 1050,-177.19 1046.6,-173.29 1045,-165 1033.11,-103.25 1010.74,-85.96 956,-55 926.79,-38.48 890.35,-26.35 864.37,-18.97"/>
<polygon fill="#63b8ff" stroke="#63b8ff" points="865.18,-15.56 854.61,-16.28 863.32,-22.31 865.18,-15.56"/>
</a>
</g>
</g>
<!-- Node13&#45;&gt;Node6 -->
<g id="edge21_Node000013_Node000006" class="edge">
<title>Node13&#45;&gt;Node6</title>
<g id="a_edge21_Node000013_Node000006"><a xlink:title=" ">
<path fill="none" stroke="#63b8ff" d="M956.35,-219.93C987.94,-213.3 1027.93,-202.11 1060,-184 1133.11,-142.72 1128.56,-102.19 1198,-55 1217.2,-41.95 1240.83,-30.78 1259.59,-22.9"/>
<polygon fill="#63b8ff" stroke="#63b8ff" points="1260.98,-26.11 1268.91,-19.08 1258.33,-19.63 1260.98,-26.11"/>
</a>
</g>
</g>
<!-- Node14 -->
<g id="Node000014" class="node">
<title>Node14</title>
<g id="a_Node000014"><a xlink:title=" ">
<polygon fill="#e0e0e0" stroke="#999999" points="971.5,-184 918.5,-184 918.5,-165 971.5,-165 971.5,-184"/>
<text text-anchor="middle" x="945" y="-172" font-family="Helvetica,sans-Serif" font-size="10.00">iterator</text>
</a>
</g>
</g>
<!-- Node13&#45;&gt;Node14 -->
<g id="edge17_Node000013_Node000014" class="edge">
<title>Node13&#45;&gt;Node14</title>
<g id="a_edge17_Node000013_Node000014"><a xlink:title=" ">
<path fill="none" stroke="#63b8ff" d="M909.94,-219.75C915.87,-212.26 924.57,-201.28 931.82,-192.13"/>
<polygon fill="#63b8ff" stroke="#63b8ff" points="934.73,-194.1 938.19,-184.09 929.24,-189.75 934.73,-194.1"/>
</a>
</g>
</g>
<!-- Node15 -->
<g id="Node000015" class="node">
<title>Node15</title>
<g id="a_Node000015"><a xlink:title=" ">
<polygon fill="#e0e0e0" stroke="#999999" points="829.5,-74 788.5,-74 788.5,-55 829.5,-55 829.5,-74"/>
<text text-anchor="middle" x="809" y="-62" font-family="Helvetica,sans-Serif" font-size="10.00">tuple</text>
</a>
</g>
</g>
<!-- Node13&#45;&gt;Node15 -->
<g id="edge20_Node000013_Node000015" class="edge">
<title>Node13&#45;&gt;Node15</title>
<g id="a_edge20_Node000013_Node000015"><a xlink:title=" ">
<path fill="none" stroke="#63b8ff" d="M895.19,-219.7C887.69,-211 876.3,-197.12 868,-184 846.58,-150.15 826.98,-107.46 816.65,-83.66"/>
<polygon fill="#63b8ff" stroke="#63b8ff" points="819.73,-81.97 812.58,-74.15 813.29,-84.72 819.73,-81.97"/>
</a>
</g>
</g>
<!-- Node16 -->
<g id="Node000016" class="node">
<title>Node16</title>
<g id="a_Node000016"><a xlink:title=" ">
<polygon fill="#e0e0e0" stroke="#999999" points="614,-74 576,-74 576,-55 614,-55 614,-74"/>
<text text-anchor="middle" x="595" y="-62" font-family="Helvetica,sans-Serif" font-size="10.00">map</text>
</a>
</g>
</g>
<!-- Node13&#45;&gt;Node16 -->
<g id="edge22_Node000013_Node000016" class="edge">
<title>Node13&#45;&gt;Node16</title>
<g id="a_edge22_Node000013_Node000016"><a xlink:title=" ">
<path fill="none" stroke="#63b8ff" d="M860.47,-219.96C786.41,-204.2 638.48,-168.55 605,-129 594.64,-116.75 592.76,-98.24 593.1,-84.36"/>
<polygon fill="#63b8ff" stroke="#63b8ff" points="596.62,-84.23 593.78,-74.02 589.63,-83.77 596.62,-84.23"/>
</a>
</g>
</g>
<!-- Node17 -->
<g id="Node000017" class="node">
<title>Node17</title>
<g id="a_Node000017"><a xlink:title=" ">
<polygon fill="#e0e0e0" stroke="#999999" points="1036,-184 990,-184 990,-165 1036,-165 1036,-184"/>
<text text-anchor="middle" x="1013" y="-172" font-family="Helvetica,sans-Serif" font-size="10.00">future</text>
</a>
</g>
</g>
<!-- Node13&#45;&gt;Node17 -->
<g id="edge25_Node000013_Node000017" class="edge">
<title>Node13&#45;&gt;Node17</title>
<g id="a_edge25_Node000013_Node000017"><a xlink:title=" ">
<path fill="none" stroke="#63b8ff" d="M920.67,-219.98C938.29,-211.5 965.58,-198.35 985.93,-188.54"/>
<polygon fill="#63b8ff" stroke="#63b8ff" points="987.52,-191.66 995.01,-184.17 984.48,-185.36 987.52,-191.66"/>
</a>
</g>
</g>
<!-- Node13&#45;&gt;Node18 -->
<g id="edge26_Node000013_Node000018" class="edge">
<title>Node13&#45;&gt;Node18</title>
<g id="a_edge26_Node000013_Node000018"><a xlink:title=" ">
<path fill="none" stroke="#63b8ff" d="M901.3,-219.64C899.28,-206.3 897.58,-180.91 910,-165 940.49,-125.93 1034.37,-151.32 1007,-110 995.5,-92.63 975.71,-82.02 956.39,-75.55"/>
<polygon fill="#63b8ff" stroke="#63b8ff" points="957.27,-72.16 946.69,-72.61 955.24,-78.86 957.27,-72.16"/>
</a>
</g>
</g>
<!-- Node13&#45;&gt;Node19 -->
<g id="edge30_Node000013_Node000019" class="edge">
<title>Node13&#45;&gt;Node19</title>
<g id="a_edge30_Node000013_Node000019"><a xlink:title=" ">
<path fill="none" stroke="#63b8ff" d="M849.08,-221.68C775.91,-212.42 644.74,-195.83 561.16,-185.26"/>
<polygon fill="#63b8ff" stroke="#63b8ff" points="561.57,-181.78 551.21,-184 560.69,-188.73 561.57,-181.78"/>
</a>
</g>
</g>
<!-- Node18&#45;&gt;Node2 -->
<g id="edge29_Node000018_Node000002" class="edge">
<title>Node18&#45;&gt;Node2</title>
<g id="a_edge29_Node000018_Node000002"><a xlink:title=" ">
<path fill="none" stroke="#63b8ff" d="M857.3,-57.12C851.16,-56.34 844.93,-55.61 839,-55 613.33,-31.74 340.42,-16.78 248.2,-12.08"/>
<polygon fill="#63b8ff" stroke="#63b8ff" points="248.28,-8.58 238.12,-11.58 247.93,-15.58 248.28,-8.58"/>
</a>
</g>
</g>
<!-- Node18&#45;&gt;Node5 -->
<g id="edge27_Node000018_Node000005" class="edge">
<title>Node18&#45;&gt;Node5</title>
<g id="a_edge27_Node000018_Node000005"><a xlink:title=" ">
<path fill="none" stroke="#63b8ff" d="M890.59,-54.98C879.89,-47 863.66,-34.88 850.84,-25.31"/>
<polygon fill="#63b8ff" stroke="#63b8ff" points="852.72,-22.35 842.61,-19.17 848.53,-27.96 852.72,-22.35"/>
</a>
</g>
</g>
<!-- Node18&#45;&gt;Node6 -->
<g id="edge28_Node000018_Node000006" class="edge">
<title>Node18&#45;&gt;Node6</title>
<g id="a_edge28_Node000018_Node000006"><a xlink:title=" ">
<path fill="none" stroke="#63b8ff" d="M946.74,-57.42C1017.97,-47.74 1157.07,-28.84 1235.22,-18.22"/>
<polygon fill="#63b8ff" stroke="#63b8ff" points="1235.93,-21.65 1245.37,-16.84 1234.99,-14.72 1235.93,-21.65"/>
</a>
</g>
</g>
<!-- Node19&#45;&gt;Node2 -->
<g id="edge31_Node000019_Node000002" class="edge">
<title>Node19&#45;&gt;Node2</title>
<g id="a_edge31_Node000019_Node000002"><a xlink:title=" ">
<path fill="none" stroke="#63b8ff" d="M469.97,-164.97C426.38,-138.46 293.02,-57.35 239.04,-24.52"/>
<polygon fill="#63b8ff" stroke="#63b8ff" points="240.58,-21.35 230.22,-19.15 236.94,-27.33 240.58,-21.35"/>
</a>
</g>
</g>
<!-- Node19&#45;&gt;Node3 -->
<g id="edge34_Node000019_Node000003" class="edge">
<title>Node19&#45;&gt;Node3</title>
<g id="a_edge34_Node000019_Node000003"><a xlink:title=" ">
<path fill="none" stroke="#63b8ff" d="M553.75,-165.88C657.08,-154.59 847.47,-133.78 929.59,-124.81"/>
<polygon fill="#63b8ff" stroke="#63b8ff" points="930.19,-128.26 939.75,-123.7 929.43,-121.3 930.19,-128.26"/>
</a>
</g>
</g>
<!-- Node19&#45;&gt;Node4 -->
<g id="edge32_Node000019_Node000004" class="edge">
<title>Node19&#45;&gt;Node4</title>
<g id="a_edge32_Node000019_Node000004"><a xlink:title=" ">
<path fill="none" stroke="#63b8ff" d="M549.82,-164.97C615.9,-156.31 720.59,-142.31 811,-129 864.42,-121.14 877.63,-118.21 931,-110 1027.21,-95.2 1141.02,-78.4 1196,-70.33"/>
<polygon fill="#63b8ff" stroke="#63b8ff" points="1196.8,-73.75 1206.18,-68.84 1195.78,-66.83 1196.8,-73.75"/>
</a>
</g>
</g>
<!-- Node19&#45;&gt;Node5 -->
<g id="edge33_Node000019_Node000005" class="edge">
<title>Node19&#45;&gt;Node5</title>
<g id="a_edge33_Node000019_Node000005"><a xlink:title=" ">
<path fill="none" stroke="#63b8ff" d="M553.57,-168.35C619.21,-162.28 711.79,-150.23 741,-129 771.07,-107.14 756.94,-84.16 780,-55 788.68,-44.02 800.33,-33.63 810.3,-25.65"/>
<polygon fill="#63b8ff" stroke="#63b8ff" points="812.73,-28.19 818.51,-19.3 808.46,-22.65 812.73,-28.19"/>
</a>
</g>
</g>
<!-- Node19&#45;&gt;Node11 -->
<g id="edge37_Node000019_Node000011" class="edge">
<title>Node19&#45;&gt;Node11</title>
<g id="a_edge37_Node000019_Node000011"><a xlink:title=" ">
<path fill="none" stroke="#63b8ff" d="M456.37,-164.98C427.49,-156.09 381.99,-142.07 349.8,-132.15"/>
<polygon fill="#63b8ff" stroke="#63b8ff" points="350.44,-128.68 339.85,-129.08 348.38,-135.37 350.44,-128.68"/>
</a>
</g>
</g>
<!-- Node19&#45;&gt;Node12 -->
<g id="edge38_Node000019_Node000012" class="edge">
<title>Node19&#45;&gt;Node12</title>
<g id="a_edge38_Node000019_Node000012"><a xlink:title=" ">
<path fill="none" stroke="#63b8ff" d="M467.41,-164.9C454.11,-157.19 435.91,-144.69 425,-129 415.66,-115.57 410.83,-97.47 408.39,-84.03"/>
<polygon fill="#63b8ff" stroke="#63b8ff" points="411.83,-83.39 406.85,-74.04 404.91,-84.46 411.83,-83.39"/>
</a>
</g>
</g>
<!-- Node19&#45;&gt;Node16 -->
<g id="edge36_Node000019_Node000016" class="edge">
<title>Node19&#45;&gt;Node16</title>
<g id="a_edge36_Node000019_Node000016"><a xlink:title=" ">
<path fill="none" stroke="#63b8ff" d="M493.08,-164.66C511.88,-146.38 555.24,-104.18 578.9,-81.17"/>
<polygon fill="#63b8ff" stroke="#63b8ff" points="581.37,-83.64 586.1,-74.16 576.49,-78.62 581.37,-83.64"/>
</a>
</g>
</g>
<!-- Node19&#45;&gt;Node18 -->
<g id="edge39_Node000019_Node000018" class="edge">
<title>Node19&#45;&gt;Node18</title>
<g id="a_edge39_Node000019_Node000018"><a xlink:title=" ">
<path fill="none" stroke="#63b8ff" d="M553.63,-168.86C613.24,-163.47 700.79,-152.16 774,-129 813.01,-116.66 854.88,-93.86 879.74,-79.21"/>
<polygon fill="#63b8ff" stroke="#63b8ff" points="881.61,-82.17 888.39,-74.03 878.01,-76.16 881.61,-82.17"/>
</a>
</g>
</g>
<!-- Node20 -->
<g id="Node000020" class="node">
<title>Node20</title>
<g id="a_Node000020"><a xlink:title=" ">
<polygon fill="#e0e0e0" stroke="#999999" points="482,-129 434,-129 434,-110 482,-110 482,-129"/>
<text text-anchor="middle" x="458" y="-117" font-family="Helvetica,sans-Serif" font-size="10.00">mutex</text>
</a>
</g>
</g>
<!-- Node19&#45;&gt;Node20 -->
<g id="edge35_Node000019_Node000020" class="edge">
<title>Node19&#45;&gt;Node20</title>
<g id="a_edge35_Node000019_Node000020"><a xlink:title=" ">
<path fill="none" stroke="#63b8ff" d="M479.71,-164.75C476.19,-157.57 471.09,-147.18 466.72,-138.27"/>
<polygon fill="#63b8ff" stroke="#63b8ff" points="469.76,-136.53 462.21,-129.09 463.48,-139.61 469.76,-136.53"/>
</a>
</g>
</g>
<!-- Node19&#45;&gt;Node21 -->
<g id="edge40_Node000019_Node000021" class="edge">
<title>Node19&#45;&gt;Node21</title>
<g id="a_edge40_Node000019_Node000021"><a xlink:title=" ">
<path fill="none" stroke="#63b8ff" d="M429.86,-164.98C366.49,-155.02 262.29,-138.63 199.6,-128.77"/>
<polygon fill="#63b8ff" stroke="#63b8ff" points="199.95,-125.28 189.53,-127.19 198.87,-132.2 199.95,-125.28"/>
</a>
</g>
</g>
<!-- Node23 -->
<g id="Node000023" class="node">
<title>Node23</title>
<g id="a_Node000023"><a xlink:href="evaluate_8h.html" target="_top" xlink:title=" ">
<polygon fill="white" stroke="#666666" points="732,-129 614,-129 614,-110 732,-110 732,-129"/>
<text text-anchor="middle" x="673" y="-117" font-family="Helvetica,sans-Serif" font-size="10.00">Evaluator/evaluate.h</text>
</a>
</g>
</g>
<!-- Node19&#45;&gt;Node23 -->
<g id="edge43_Node000019_Node000023" class="edge">
<title>Node19&#45;&gt;Node23</title>
<g id="a_edge43_Node000019_Node000023"><a xlink:title=" ">
<path fill="none" stroke="#63b8ff" d="M514.37,-164.98C546.37,-156.01 596.96,-141.82 632.38,-131.89"/>
<polygon fill="#63b8ff" stroke="#63b8ff" points="633.71,-135.15 642.4,-129.08 631.82,-128.41 633.71,-135.15"/>
</a>
</g>
</g>
<!-- Node21&#45;&gt;Node2 -->
<g id="edge41_Node000021_Node000002" class="edge">
<title>Node21&#45;&gt;Node2</title>
<g id="a_edge41_Node000021_Node000002"><a xlink:title=" ">
<path fill="none" stroke="#63b8ff" d="M148.09,-109.65C150,-96.77 154.87,-72.47 166,-55 173.34,-43.48 184.48,-33.15 194.39,-25.36"/>
<polygon fill="#63b8ff" stroke="#63b8ff" points="196.73,-27.98 202.65,-19.19 192.54,-22.37 196.73,-27.98"/>
</a>
</g>
</g>
<!-- Node22 -->
<g id="Node000022" class="node">
<title>Node22</title>
<g id="a_Node000022"><a xlink:title=" ">
<polygon fill="#e0e0e0" stroke="#999999" points="235,-74 175,-74 175,-55 235,-55 235,-74"/>
<text text-anchor="middle" x="205" y="-62" font-family="Helvetica,sans-Serif" font-size="10.00">iostream</text>
</a>
</g>
</g>
<!-- Node21&#45;&gt;Node22 -->
<g id="edge42_Node000021_Node000022" class="edge">
<title>Node21&#45;&gt;Node22</title>
<g id="a_edge42_Node000021_Node000022"><a xlink:title=" ">
<path fill="none" stroke="#63b8ff" d="M156.32,-109.98C164.81,-102.23 177.56,-90.58 187.88,-81.14"/>
<polygon fill="#63b8ff" stroke="#63b8ff" points="190.49,-83.5 195.51,-74.17 185.77,-78.33 190.49,-83.5"/>
</a>
</g>
</g>
<!-- Node23&#45;&gt;Node2 -->
<g id="edge46_Node000023_Node000002" class="edge">
<title>Node23&#45;&gt;Node2</title>
<g id="a_edge46_Node000023_Node000002"><a xlink:title=" ">
<path fill="none" stroke="#63b8ff" d="M668.95,-109.69C661.88,-95.44 645.82,-67.66 623,-55 558.69,-19.34 332.48,-12.25 248.07,-10.85"/>
<polygon fill="#63b8ff" stroke="#63b8ff" points="248.1,-7.35 238.05,-10.7 247.99,-14.35 248.1,-7.35"/>
</a>
</g>
</g>
<!-- Node23&#45;&gt;Node4 -->
<g id="edge44_Node000023_Node000004" class="edge">
<title>Node23&#45;&gt;Node4</title>
<g id="a_edge44_Node000023_Node000004"><a xlink:title=" ">
<path fill="none" stroke="#63b8ff" d="M732.24,-112.85C849.05,-101.72 1105.64,-77.26 1196.4,-68.61"/>
<polygon fill="#63b8ff" stroke="#63b8ff" points="1196.76,-72.09 1206.38,-67.66 1196.09,-65.12 1196.76,-72.09"/>
</a>
</g>
</g>
<!-- Node23&#45;&gt;Node5 -->
<g id="edge45_Node000023_Node000005" class="edge">
<title>Node23&#45;&gt;Node5</title>
<g id="a_edge45_Node000023_Node000005"><a xlink:title=" ">
<path fill="none" stroke="#63b8ff" d="M681.44,-109.97C694.51,-97.06 720.75,-72.24 746,-55 763.82,-42.83 785.38,-31.58 802.32,-23.44"/>
<polygon fill="#63b8ff" stroke="#63b8ff" points="804.15,-26.44 811.7,-19.02 801.17,-20.11 804.15,-26.44"/>
</a>
</g>
</g>
<!-- Node23&#45;&gt;Node12 -->
<g id="edge47_Node000023_Node000012" class="edge">
<title>Node23&#45;&gt;Node12</title>
<g id="a_edge47_Node000023_Node000012"><a xlink:title=" ">
<path fill="none" stroke="#63b8ff" d="M630.1,-109.98C580.28,-100.1 498.59,-83.88 448.81,-74"/>
<polygon fill="#63b8ff" stroke="#63b8ff" points="449.18,-70.5 438.69,-71.99 447.82,-77.37 449.18,-70.5"/>
</a>
</g>
</g>
<!-- Node23&#45;&gt;Node15 -->
<g id="edge48_Node000023_Node000015" class="edge">
<title>Node23&#45;&gt;Node15</title>
<g id="a_edge48_Node000023_Node000015"><a xlink:title=" ">
<path fill="none" stroke="#63b8ff" d="M694.85,-109.98C717.52,-101.15 753.15,-87.27 778.57,-77.36"/>
<polygon fill="#63b8ff" stroke="#63b8ff" points="780.05,-80.54 788.1,-73.65 777.51,-74.02 780.05,-80.54"/>
</a>
</g>
</g>
<!-- Node23&#45;&gt;Node16 -->
<g id="edge49_Node000023_Node000016" class="edge">
<title>Node23&#45;&gt;Node16</title>
<g id="a_edge49_Node000023_Node000016"><a xlink:title=" ">
<path fill="none" stroke="#63b8ff" d="M660.47,-109.98C648.6,-101.92 630.54,-89.65 616.39,-80.03"/>
<polygon fill="#63b8ff" stroke="#63b8ff" points="618,-76.9 607.76,-74.17 614.06,-82.69 618,-76.9"/>
</a>
</g>
</g>
<!-- Node23&#45;&gt;Node18 -->
<g id="edge50_Node000023_Node000018" class="edge">
<title>Node23&#45;&gt;Node18</title>
<g id="a_edge50_Node000023_Node000018"><a xlink:title=" ">
<path fill="none" stroke="#63b8ff" d="M709.79,-109.98C749.24,-100.86 811.98,-86.33 854.98,-76.38"/>
<polygon fill="#63b8ff" stroke="#63b8ff" points="855.97,-79.75 864.92,-74.08 854.39,-72.93 855.97,-79.75"/>
</a>
</g>
</g>
<!-- Node24&#45;&gt;Node2 -->
<g id="edge55_Node000024_Node000002" class="edge">
<title>Node24&#45;&gt;Node2</title>
<g id="a_edge55_Node000024_Node000002"><a xlink:title=" ">
<path fill="none" stroke="#63b8ff" d="M307.36,-440.27C206.18,-427 38,-396.52 38,-340.5 38,-340.5 38,-340.5 38,-118.5 38,-51.04 132.61,-24.54 183.88,-15.13"/>
<polygon fill="#63b8ff" stroke="#63b8ff" points="184.55,-18.57 193.82,-13.42 183.37,-11.67 184.55,-18.57"/>
</a>
</g>
</g>
<!-- Node24&#45;&gt;Node5 -->
<g id="edge56_Node000024_Node000005" class="edge">
<title>Node24&#45;&gt;Node5</title>
<g id="a_edge56_Node000024_Node000005"><a xlink:title=" ">
<path fill="none" stroke="#63b8ff" d="M339.77,-439.97C291.17,-427.4 218,-398.8 218,-340.5 218,-340.5 218,-340.5 218,-173.5 218,-89.93 284.29,-80.13 364,-55 445.06,-29.45 704.34,-15.98 797.37,-11.88"/>
<polygon fill="#63b8ff" stroke="#63b8ff" points="797.53,-15.38 807.37,-11.45 797.23,-8.38 797.53,-15.38"/>
</a>
</g>
</g>
<!-- Node24&#45;&gt;Node10 -->
<g id="edge57_Node000024_Node000010" class="edge">
<title>Node24&#45;&gt;Node10</title>
<g id="a_edge57_Node000024_Node000010"><a xlink:title=" ">
<path fill="none" stroke="#63b8ff" d="M398.34,-439.97C449.39,-413.29 606.26,-331.34 668.33,-298.91"/>
<polygon fill="#63b8ff" stroke="#63b8ff" points="670.21,-301.88 677.45,-294.15 666.97,-295.67 670.21,-301.88"/>
</a>
</g>
</g>
<!-- Node24&#45;&gt;Node19 -->
<g id="edge68_Node000024_Node000019" class="edge">
<title>Node24&#45;&gt;Node19</title>
<g id="a_edge68_Node000024_Node000019"><a xlink:title=" ">
<path fill="none" stroke="#63b8ff" d="M383.75,-439.86C387.3,-421.6 395,-377.7 395,-340.5 395,-340.5 395,-340.5 395,-283.5 395,-242.03 434.57,-207.84 460.94,-189.67"/>
<polygon fill="#63b8ff" stroke="#63b8ff" points="462.9,-192.57 469.3,-184.13 459.03,-186.73 462.9,-192.57"/>
</a>
</g>
</g>
<!-- Node24&#45;&gt;Node25 -->
<g id="edge58_Node000024_Node000025" class="edge">
<title>Node24&#45;&gt;Node25</title>
<g id="a_edge58_Node000024_Node000025"><a xlink:title=" ">
<path fill="none" stroke="#63b8ff" d="M456.64,-440.19C543.93,-430.47 687.89,-414.44 777.6,-404.45"/>
<polygon fill="#63b8ff" stroke="#63b8ff" points="778.17,-407.91 787.72,-403.33 777.39,-400.95 778.17,-407.91"/>
</a>
</g>
</g>
<!-- Node25&#45;&gt;Node4 -->
<g id="edge59_Node000025_Node000004" class="edge">
<title>Node25&#45;&gt;Node4</title>
<g id="a_edge59_Node000025_Node000004"><a xlink:title=" ">
<path fill="none" stroke="#63b8ff" d="M928.15,-391.89C1059.64,-386.97 1330,-366.94 1330,-285.5 1330,-285.5 1330,-285.5 1330,-173.5 1330,-129.76 1285.26,-96.41 1255.34,-78.99"/>
<polygon fill="#63b8ff" stroke="#63b8ff" points="1257.03,-75.92 1246.59,-74.1 1253.61,-82.03 1257.03,-75.92"/>
</a>
</g>
</g>
<!-- Node25&#45;&gt;Node10 -->
<g id="edge60_Node000025_Node000010" class="edge">
<title>Node25&#45;&gt;Node10</title>
<g id="a_edge60_Node000025_Node000010"><a xlink:title=" ">
<path fill="none" stroke="#63b8ff" d="M844.25,-384.91C830.08,-376.03 807.39,-361.71 788,-349 762.66,-332.39 733.83,-312.82 714.86,-299.83"/>
<polygon fill="#63b8ff" stroke="#63b8ff" points="716.62,-296.8 706.39,-294.03 712.66,-302.57 716.62,-296.8"/>
</a>
</g>
</g>
<!-- Node26 -->
<g id="Node000026" class="node">
<title>Node26</title>
<g id="a_Node000026"><a xlink:href="simulator_8h.html" target="_top" xlink:title=" ">
<polygon fill="white" stroke="#666666" points="919,-349 797,-349 797,-330 919,-330 919,-349"/>
<text text-anchor="middle" x="858" y="-337" font-family="Helvetica,sans-Serif" font-size="10.00">Simulator/simulator.h</text>
</a>
</g>
</g>
<!-- Node25&#45;&gt;Node26 -->
<g id="edge61_Node000025_Node000026" class="edge">
<title>Node25&#45;&gt;Node26</title>
<g id="a_edge61_Node000025_Node000026"><a xlink:title=" ">
<path fill="none" stroke="#63b8ff" d="M858,-384.75C858,-377.8 858,-367.85 858,-359.13"/>
<polygon fill="#63b8ff" stroke="#63b8ff" points="861.5,-359.09 858,-349.09 854.5,-359.09 861.5,-359.09"/>
</a>
</g>
</g>
<!-- Node26&#45;&gt;Node3 -->
<g id="edge62_Node000026_Node000003" class="edge">
<title>Node26&#45;&gt;Node3</title>
<g id="a_edge62_Node000026_Node000003"><a xlink:title=" ">
<path fill="none" stroke="#63b8ff" d="M854.57,-329.78C847.26,-310.04 831.6,-260.49 841,-220 847.16,-193.47 848.35,-183.85 868,-165 885.23,-148.47 909.62,-137.49 930.11,-130.57"/>
<polygon fill="#63b8ff" stroke="#63b8ff" points="931.33,-133.85 939.81,-127.49 929.22,-127.18 931.33,-133.85"/>
</a>
</g>
</g>
<!-- Node26&#45;&gt;Node4 -->
<g id="edge63_Node000026_Node000004" class="edge">
<title>Node26&#45;&gt;Node4</title>
<g id="a_edge63_Node000026_Node000004"><a xlink:title=" ">
<path fill="none" stroke="#63b8ff" d="M919.26,-335.97C1038.89,-329.36 1292,-306.4 1292,-230.5 1292,-230.5 1292,-230.5 1292,-173.5 1292,-136.49 1264.05,-100.87 1245.39,-81.21"/>
<polygon fill="#63b8ff" stroke="#63b8ff" points="1247.81,-78.68 1238.3,-74.03 1242.83,-83.6 1247.81,-78.68"/>
</a>
</g>
</g>
<!-- Node26&#45;&gt;Node10 -->
<g id="edge65_Node000026_Node000010" class="edge">
<title>Node26&#45;&gt;Node10</title>
<g id="a_edge65_Node000026_Node000010"><a xlink:title=" ">
<path fill="none" stroke="#63b8ff" d="M831.65,-329.98C804.24,-321.13 761.11,-307.19 730.44,-297.28"/>
<polygon fill="#63b8ff" stroke="#63b8ff" points="731.15,-293.83 720.56,-294.08 729,-300.49 731.15,-293.83"/>
</a>
</g>
</g>
<!-- Node26&#45;&gt;Node13 -->
<g id="edge66_Node000026_Node000013" class="edge">
<title>Node26&#45;&gt;Node13</title>
<g id="a_edge66_Node000026_Node000013"><a xlink:title=" ">
<path fill="none" stroke="#63b8ff" d="M861.68,-329.66C869.04,-312.01 885.67,-272.09 895.44,-248.64"/>
<polygon fill="#63b8ff" stroke="#63b8ff" points="898.78,-249.74 899.39,-239.16 892.32,-247.04 898.78,-249.74"/>
</a>
</g>
</g>
<!-- Node26&#45;&gt;Node18 -->
<g id="edge64_Node000026_Node000018" class="edge">
<title>Node26&#45;&gt;Node18</title>
<g id="a_edge64_Node000026_Node000018"><a xlink:title=" ">
<path fill="none" stroke="#63b8ff" d="M876.98,-329.92C917.04,-310.6 1009.47,-259.44 1045,-184 1056.55,-159.48 1026.54,-113.44 1023,-110 1004.89,-92.39 979.22,-81.66 956.19,-75.16"/>
<polygon fill="#63b8ff" stroke="#63b8ff" points="957.07,-71.77 946.51,-72.63 955.3,-78.54 957.07,-71.77"/>
</a>
</g>
</g>
<!-- Node26&#45;&gt;Node19 -->
<g id="edge67_Node000026_Node000019" class="edge">
<title>Node26&#45;&gt;Node19</title>
<g id="a_edge67_Node000026_Node000019"><a xlink:title=" ">
<path fill="none" stroke="#63b8ff" d="M847.28,-329.92C830.38,-316.72 796.17,-291.25 764,-275 683.37,-234.27 582.04,-202.71 526.06,-186.83"/>
<polygon fill="#63b8ff" stroke="#63b8ff" points="526.72,-183.38 516.15,-184.04 524.83,-190.12 526.72,-183.38"/>
</a>
</g>
</g>
</g>
</svg>
