<?xml version="1.0" encoding="UTF-8" standalone="no"?>
<!DOCTYPE svg PUBLIC "-//W3C//DTD SVG 1.1//EN"
 "http://www.w3.org/Graphics/SVG/1.1/DTD/svg11.dtd">
<!-- Generated by graphviz version 2.43.0 (0)
 -->
<!-- Title: include/Drivers/dutDriver.h Pages: 1 -->
<!--zoomable 522 -->

<svg id="main" version="1.1" xmlns="http://www.w3.org/2000/svg" xmlns:xlink="http://www.w3.org/1999/xlink" xml:space="preserve" onload="init(evt)">
<style type="text/css"><![CDATA[
.node, .edge {opacity: 0.7;}
.node.selected, .edge.selected {opacity: 1;}
.edge:hover path { stroke: red; }
.edge:hover polygon { stroke: red; fill: red; }
]]></style>

<defs>
  <circle id="rim" cx="0" cy="0" r="7"/>
  <circle id="rim2" cx="0" cy="0" r="3.5"/>
  <g id="zoomPlus">
    <use xlink:href="#rim" fill="#404040"><set attributeName="fill" to="#808080" begin="zoomplus.mouseover" end="zoomplus.mouseout"/></use>
    <path d="M-4,0h8M0,-4v8" fill="none" stroke="white" stroke-width="1.5" pointer-events="none"/>
  </g>
  <g id="zoomMin">
    <use xlink:href="#rim" fill="#404040"><set attributeName="fill" to="#808080" begin="zoomminus.mouseover" end="zoomminus.mouseout"/></use>
    <path d="M-4,0h8" fill="none" stroke="white" stroke-width="1.5" pointer-events="none"/>
  </g>
  <g id="arrowUp" transform="translate(30 24)">
    <use xlink:href="#rim"/>
    <path pointer-events="none" fill="none" stroke="white" stroke-width="1.5" d="M0,-3.0v7 M-2.5,-0.5L0,-3.0L2.5,-0.5"/>
  </g>
  <g id="arrowRight" transform="rotate(90) translate(36 -43)">
    <use xlink:href="#rim"/>
    <path pointer-events="none" fill="none" stroke="white" stroke-width="1.5" d="M0,-3.0v7 M-2.5,-0.5L0,-3.0L2.5,-0.5"/>
  </g>
  <g id="arrowDown" transform="rotate(180) translate(-30 -48)">
    <use xlink:href="#rim"/>
    <path pointer-events="none" fill="none" stroke="white" stroke-width="1.5" d="M0,-3.0v7 M-2.5,-0.5L0,-3.0L2.5,-0.5"/>
  </g>
  <g id="arrowLeft" transform="rotate(270) translate(-36 17)">
    <use xlink:href="#rim"/>
    <path pointer-events="none" fill="none" stroke="white" stroke-width="1.5" d="M0,-3.0v7 M-2.5,-0.5L0,-3.0L2.5,-0.5"/>
  </g>
  <g id="resetDef">
    <use xlink:href="#rim2" fill="#404040"><set attributeName="fill" to="#808080" begin="reset.mouseover" end="reset.mouseout"/></use>
  </g>
</defs>
<script type="application/ecmascript">
var viewWidth = 1893;
var viewHeight = 522;
var sectionId = 'dynsection-0';
</script>
<script type="application/ecmascript" xlink:href="svg.min.js"/>
<svg id="graph" class="graph">
<g id="viewport">
<title>include/Drivers/dutDriver.h</title>
<!-- Node1 -->
<g id="Node000001" class="node">
<title>Node1</title>
<g id="a_Node000001"><a xlink:title=" ">
<polygon fill="#999999" stroke="#666666" points="1464.5,-514 1317.5,-514 1317.5,-495 1464.5,-495 1464.5,-514"/>
<text text-anchor="middle" x="1391" y="-502" font-family="Helvetica,sans-Serif" font-size="10.00">include/Drivers/dutDriver.h</text>
</a>
</g>
</g>
<!-- Node2 -->
<g id="Node000002" class="node">
<title>Node2</title>
<g id="a_Node000002"><a xlink:title=" ">
<polygon fill="#e0e0e0" stroke="#999999" points="364,-19 320,-19 320,0 364,0 364,-19"/>
<text text-anchor="middle" x="342" y="-7" font-family="Helvetica,sans-Serif" font-size="10.00">string</text>
</a>
</g>
</g>
<!-- Node1&#45;&gt;Node2 -->
<g id="edge1_Node000001_Node000002" class="edge">
<title>Node1&#45;&gt;Node2</title>
<g id="a_edge1_Node000001_Node000002"><a xlink:title=" ">
<path fill="none" stroke="#63b8ff" d="M1317.45,-502.9C1096.51,-500.75 440.91,-491.71 230,-459 125.21,-442.75 0,-501.55 0,-395.5 0,-395.5 0,-395.5 0,-118.5 0,-53.94 224.43,-23.1 309.68,-13.72"/>
<polygon fill="#63b8ff" stroke="#63b8ff" points="310.25,-17.18 319.82,-12.63 309.51,-10.22 310.25,-17.18"/>
</a>
</g>
</g>
<!-- Node3 -->
<g id="Node000003" class="node">
<title>Node3</title>
<g id="a_Node000003"><a xlink:title=" ">
<polygon fill="#e0e0e0" stroke="#999999" points="1378,-129 1320,-129 1320,-110 1378,-110 1378,-129"/>
<text text-anchor="middle" x="1349" y="-117" font-family="Helvetica,sans-Serif" font-size="10.00">memory</text>
</a>
</g>
</g>
<!-- Node1&#45;&gt;Node3 -->
<g id="edge2_Node000001_Node000003" class="edge">
<title>Node1&#45;&gt;Node3</title>
<g id="a_edge2_Node000001_Node000003"><a xlink:title=" ">
<path fill="none" stroke="#63b8ff" d="M1396.28,-494.9C1406.73,-477.07 1429,-434.46 1429,-395.5 1429,-395.5 1429,-395.5 1429,-228.5 1429,-188.81 1393.68,-154.18 1369.97,-135.41"/>
<polygon fill="#63b8ff" stroke="#63b8ff" points="1371.93,-132.5 1361.85,-129.23 1367.69,-138.07 1371.93,-132.5"/>
</a>
</g>
</g>
<!-- Node4 -->
<g id="Node000004" class="node">
<title>Node4</title>
<g id="a_Node000004"><a xlink:title=" ">
<polygon fill="#e0e0e0" stroke="#999999" points="250.5,-74 205.5,-74 205.5,-55 250.5,-55 250.5,-74"/>
<text text-anchor="middle" x="228" y="-62" font-family="Helvetica,sans-Serif" font-size="10.00">utility</text>
</a>
</g>
</g>
<!-- Node1&#45;&gt;Node4 -->
<g id="edge3_Node000001_Node000004" class="edge">
<title>Node1&#45;&gt;Node4</title>
<g id="a_edge3_Node000001_Node000004"><a xlink:title=" ">
<path fill="none" stroke="#63b8ff" d="M1317.3,-501.51C1034.96,-493.41 38,-460.23 38,-395.5 38,-395.5 38,-395.5 38,-173.5 38,-102 140.95,-77.24 195.28,-69.16"/>
<polygon fill="#63b8ff" stroke="#63b8ff" points="196.03,-72.59 205.46,-67.75 195.07,-65.65 196.03,-72.59"/>
</a>
</g>
</g>
<!-- Node5 -->
<g id="Node000005" class="node">
<title>Node5</title>
<g id="a_Node000005"><a xlink:title=" ">
<polygon fill="#e0e0e0" stroke="#999999" points="1258.5,-19 1211.5,-19 1211.5,0 1258.5,0 1258.5,-19"/>
<text text-anchor="middle" x="1235" y="-7" font-family="Helvetica,sans-Serif" font-size="10.00">vector</text>
</a>
</g>
</g>
<!-- Node1&#45;&gt;Node5 -->
<g id="edge4_Node000001_Node000005" class="edge">
<title>Node1&#45;&gt;Node5</title>
<g id="a_edge4_Node000001_Node000005"><a xlink:title=" ">
<path fill="none" stroke="#63b8ff" d="M1427.02,-494.92C1471.97,-481.82 1543,-452.15 1543,-395.5 1543,-395.5 1543,-395.5 1543,-173.5 1543,-50.46 1348.62,-20.04 1268.7,-12.73"/>
<polygon fill="#63b8ff" stroke="#63b8ff" points="1268.92,-9.24 1258.66,-11.88 1268.33,-16.22 1268.92,-9.24"/>
</a>
</g>
</g>
<!-- Node6 -->
<g id="Node000006" class="node">
<title>Node6</title>
<g id="a_Node000006"><a xlink:title=" ">
<polygon fill="#e0e0e0" stroke="#999999" points="1507.5,-19 1414.5,-19 1414.5,0 1507.5,0 1507.5,-19"/>
<text text-anchor="middle" x="1461" y="-7" font-family="Helvetica,sans-Serif" font-size="10.00">unordered_map</text>
</a>
</g>
</g>
<!-- Node1&#45;&gt;Node6 -->
<g id="edge5_Node000001_Node000006" class="edge">
<title>Node1&#45;&gt;Node6</title>
<g id="a_edge5_Node000001_Node000006"><a xlink:title=" ">
<path fill="none" stroke="#63b8ff" d="M1464.71,-498.61C1496.42,-493.05 1531.89,-481.73 1557,-459 1579.37,-438.75 1581,-425.67 1581,-395.5 1581,-395.5 1581,-395.5 1581,-118.5 1581,-71.36 1529.2,-39.54 1493.67,-23.26"/>
<polygon fill="#63b8ff" stroke="#63b8ff" points="1494.7,-19.89 1484.14,-19.09 1491.89,-26.31 1494.7,-19.89"/>
</a>
</g>
</g>
<!-- Node7 -->
<g id="Node000007" class="node">
<title>Node7</title>
<g id="a_Node000007"><a xlink:title=" ">
<polygon fill="#e0e0e0" stroke="#999999" points="1677,-459 1609,-459 1609,-440 1677,-440 1677,-459"/>
<text text-anchor="middle" x="1643" y="-447" font-family="Helvetica,sans-Serif" font-size="10.00">filesystem</text>
</a>
</g>
</g>
<!-- Node1&#45;&gt;Node7 -->
<g id="edge6_Node000001_Node000007" class="edge">
<title>Node1&#45;&gt;Node7</title>
<g id="a_edge6_Node000001_Node000007"><a xlink:title=" ">
<path fill="none" stroke="#63b8ff" d="M1431.49,-494.98C1477.24,-485.36 1551.48,-469.75 1598.74,-459.81"/>
<polygon fill="#63b8ff" stroke="#63b8ff" points="1599.62,-463.2 1608.68,-457.72 1598.18,-456.35 1599.62,-463.2"/>
</a>
</g>
</g>
<!-- Node8 -->
<g id="Node000008" class="node">
<title>Node8</title>
<g id="a_Node000008"><a xlink:title=" ">
<polygon fill="#e0e0e0" stroke="#999999" points="1764.5,-459 1695.5,-459 1695.5,-440 1764.5,-440 1764.5,-459"/>
<text text-anchor="middle" x="1730" y="-447" font-family="Helvetica,sans-Serif" font-size="10.00">verilated.h</text>
</a>
</g>
</g>
<!-- Node1&#45;&gt;Node8 -->
<g id="edge7_Node000001_Node000008" class="edge">
<title>Node1&#45;&gt;Node8</title>
<g id="a_edge7_Node000001_Node000008"><a xlink:title=" ">
<path fill="none" stroke="#63b8ff" d="M1452.42,-494.99C1509.96,-486.84 1598.6,-473.85 1685.41,-459.04"/>
<polygon fill="#63b8ff" stroke="#63b8ff" points="1686.17,-462.46 1695.44,-457.32 1684.99,-455.56 1686.17,-462.46"/>
</a>
</g>
</g>
<!-- Node9 -->
<g id="Node000009" class="node">
<title>Node9</title>
<g id="a_Node000009"><a xlink:title=" ">
<polygon fill="#e0e0e0" stroke="#999999" points="1885,-459 1783,-459 1783,-440 1885,-440 1885,-459"/>
<text text-anchor="middle" x="1834" y="-447" font-family="Helvetica,sans-Serif" font-size="10.00">verilated_vcd_c.h</text>
</a>
</g>
</g>
<!-- Node1&#45;&gt;Node9 -->
<g id="edge8_Node000001_Node000009" class="edge">
<title>Node1&#45;&gt;Node9</title>
<g id="a_edge8_Node000001_Node000009"><a xlink:title=" ">
<path fill="none" stroke="#63b8ff" d="M1464.85,-495.48C1539.77,-487.21 1659.35,-473.67 1772.7,-459.14"/>
<polygon fill="#63b8ff" stroke="#63b8ff" points="1773.48,-462.57 1782.95,-457.82 1772.58,-455.63 1773.48,-462.57"/>
</a>
</g>
</g>
<!-- Node10 -->
<g id="Node000010" class="node">
<title>Node10</title>
<g id="a_Node000010"><a xlink:href="driverModel_8h.html" target="_top" xlink:title=" ">
<polygon fill="white" stroke="#666666" points="664,-294 542,-294 542,-275 664,-275 664,-294"/>
<text text-anchor="middle" x="603" y="-282" font-family="Helvetica,sans-Serif" font-size="10.00">Drivers/driverModel.h</text>
</a>
</g>
</g>
<!-- Node1&#45;&gt;Node10 -->
<g id="edge9_Node000001_Node000010" class="edge">
<title>Node1&#45;&gt;Node10</title>
<g id="a_edge9_Node000001_Node000010"><a xlink:title=" ">
<path fill="none" stroke="#63b8ff" d="M1317.32,-503.44C1150.99,-502.64 750.91,-496.71 622,-459 574.06,-444.98 549.24,-447.1 524,-404 501.37,-365.35 550.31,-322.08 580.87,-300.06"/>
<polygon fill="#63b8ff" stroke="#63b8ff" points="583.09,-302.78 589.3,-294.19 579.09,-297.04 583.09,-302.78"/>
</a>
</g>
</g>
<!-- Node14 -->
<g id="Node000014" class="node">
<title>Node14</title>
<g id="a_Node000014"><a xlink:href="channel_8h.html" target="_top" xlink:title=" ">
<polygon fill="white" stroke="#666666" points="1097.5,-239 990.5,-239 990.5,-220 1097.5,-220 1097.5,-239"/>
<text text-anchor="middle" x="1044" y="-227" font-family="Helvetica,sans-Serif" font-size="10.00">Channel/channel.h</text>
</a>
</g>
</g>
<!-- Node1&#45;&gt;Node14 -->
<g id="edge75_Node000001_Node000014" class="edge">
<title>Node1&#45;&gt;Node14</title>
<g id="a_edge75_Node000001_Node000014"><a xlink:title=" ">
<path fill="none" stroke="#63b8ff" d="M1391,-494.82C1391,-476.48 1391,-432.44 1391,-395.5 1391,-395.5 1391,-395.5 1391,-338.5 1391,-279.87 1208.08,-249.44 1107.86,-237.17"/>
<polygon fill="#63b8ff" stroke="#63b8ff" points="1108.18,-233.69 1097.84,-235.97 1107.35,-240.64 1108.18,-233.69"/>
</a>
</g>
</g>
<!-- Node21 -->
<g id="Node000021" class="node">
<title>Node21</title>
<g id="a_Node000021"><a xlink:href="transaction_8h_source.html" target="_top" xlink:title=" ">
<polygon fill="white" stroke="#666666" points="808.5,-184 669.5,-184 669.5,-165 808.5,-165 808.5,-184"/>
<text text-anchor="middle" x="739" y="-172" font-family="Helvetica,sans-Serif" font-size="10.00">Transaction/transaction.h</text>
</a>
</g>
</g>
<!-- Node1&#45;&gt;Node21 -->
<g id="edge73_Node000001_Node000021" class="edge">
<title>Node1&#45;&gt;Node21</title>
<g id="a_edge73_Node000001_Node000021"><a xlink:title=" ">
<path fill="none" stroke="#63b8ff" d="M1373.9,-494.9C1284.76,-450.05 873.4,-243.11 765.16,-188.66"/>
<polygon fill="#63b8ff" stroke="#63b8ff" points="766.43,-185.38 755.93,-184.01 763.29,-191.64 766.43,-185.38"/>
</a>
</g>
</g>
<!-- Node24 -->
<g id="Node000024" class="node">
<title>Node24</title>
<g id="a_Node000024"><a xlink:href="transDriverModel_8h.html" target="_top" xlink:title=" ">
<polygon fill="white" stroke="#666666" points="804.5,-459 655.5,-459 655.5,-440 804.5,-440 804.5,-459"/>
<text text-anchor="middle" x="730" y="-447" font-family="Helvetica,sans-Serif" font-size="10.00">Drivers/transDriverModel.h</text>
</a>
</g>
</g>
<!-- Node1&#45;&gt;Node24 -->
<g id="edge58_Node000001_Node000024" class="edge">
<title>Node1&#45;&gt;Node24</title>
<g id="a_edge58_Node000001_Node000024"><a xlink:title=" ">
<path fill="none" stroke="#63b8ff" d="M1317.42,-497.6C1193.9,-487.7 945.57,-467.78 814.88,-457.31"/>
<polygon fill="#63b8ff" stroke="#63b8ff" points="814.77,-453.79 804.52,-456.48 814.21,-460.76 814.77,-453.79"/>
</a>
</g>
</g>
<!-- Node25 -->
<g id="Node000025" class="node">
<title>Node25</title>
<g id="a_Node000025"><a xlink:href="simulatorDriver_8h.html" target="_top" xlink:title=" ">
<polygon fill="white" stroke="#666666" points="673,-404 533,-404 533,-385 673,-385 673,-404"/>
<text text-anchor="middle" x="603" y="-392" font-family="Helvetica,sans-Serif" font-size="10.00">Drivers/simulatorDriver.h</text>
</a>
</g>
</g>
<!-- Node1&#45;&gt;Node25 -->
<g id="edge74_Node000001_Node000025" class="edge">
<title>Node1&#45;&gt;Node25</title>
<g id="a_edge74_Node000001_Node000025"><a xlink:title=" ">
<path fill="none" stroke="#63b8ff" d="M1317.2,-502.72C1140.67,-500.35 704.38,-491.27 647,-459 629.33,-449.06 617.19,-428.73 610.21,-413.74"/>
<polygon fill="#63b8ff" stroke="#63b8ff" points="613.36,-412.21 606.19,-404.4 606.93,-414.97 613.36,-412.21"/>
</a>
</g>
</g>
<!-- Node10&#45;&gt;Node2 -->
<g id="edge12_Node000010_Node000002" class="edge">
<title>Node10&#45;&gt;Node2</title>
<g id="a_edge12_Node000010_Node000002"><a xlink:title=" ">
<path fill="none" stroke="#63b8ff" d="M541.56,-282.7C410.23,-279.33 114,-262.12 114,-175.5 114,-175.5 114,-175.5 114,-118.5 114,-33 246.57,-15.1 309.53,-11.41"/>
<polygon fill="#63b8ff" stroke="#63b8ff" points="309.91,-14.9 319.72,-10.91 309.56,-7.91 309.91,-14.9"/>
</a>
</g>
</g>
<!-- Node10&#45;&gt;Node3 -->
<g id="edge10_Node000010_Node000003" class="edge">
<title>Node10&#45;&gt;Node3</title>
<g id="a_edge10_Node000010_Node000003"><a xlink:title=" ">
<path fill="none" stroke="#63b8ff" d="M664.11,-282.32C759.52,-279.55 949.31,-270.22 1107,-239 1187.39,-223.08 1212.48,-225.75 1283,-184 1303.85,-171.66 1323.26,-151.51 1335.56,-137.22"/>
<polygon fill="#63b8ff" stroke="#63b8ff" points="1338.53,-139.13 1342.25,-129.21 1333.16,-134.64 1338.53,-139.13"/>
</a>
</g>
</g>
<!-- Node10&#45;&gt;Node4 -->
<g id="edge15_Node000010_Node000004" class="edge">
<title>Node10&#45;&gt;Node4</title>
<g id="a_edge15_Node000010_Node000004"><a xlink:title=" ">
<path fill="none" stroke="#63b8ff" d="M559.85,-274.99C488.29,-258.76 344.58,-216.87 260,-129 247.71,-116.23 239.13,-97.8 233.98,-84.09"/>
<polygon fill="#63b8ff" stroke="#63b8ff" points="237.16,-82.59 230.57,-74.29 230.55,-84.89 237.16,-82.59"/>
</a>
</g>
</g>
<!-- Node10&#45;&gt;Node6 -->
<g id="edge14_Node000010_Node000006" class="edge">
<title>Node10&#45;&gt;Node6</title>
<g id="a_edge14_Node000010_Node000006"><a xlink:title=" ">
<path fill="none" stroke="#63b8ff" d="M664.41,-283.61C769.06,-282.69 988.18,-276.02 1169,-239 1243.9,-223.66 1263.93,-218.82 1332,-184 1395.54,-151.5 1420.7,-139.52 1449,-74 1455.19,-59.66 1458.2,-42.14 1459.65,-29.13"/>
<polygon fill="#63b8ff" stroke="#63b8ff" points="1463.15,-29.34 1460.57,-19.06 1456.18,-28.71 1463.15,-29.34"/>
</a>
</g>
</g>
<!-- Node11 -->
<g id="Node000011" class="node">
<title>Node11</title>
<g id="a_Node000011"><a xlink:title=" ">
<polygon fill="#e0e0e0" stroke="#999999" points="644,-129 588,-129 588,-110 644,-110 644,-129"/>
<text text-anchor="middle" x="616" y="-117" font-family="Helvetica,sans-Serif" font-size="10.00">optional</text>
</a>
</g>
</g>
<!-- Node10&#45;&gt;Node11 -->
<g id="edge11_Node000010_Node000011" class="edge">
<title>Node10&#45;&gt;Node11</title>
<g id="a_edge11_Node000010_Node000011"><a xlink:title=" ">
<path fill="none" stroke="#63b8ff" d="M603.7,-274.74C605.73,-249.31 611.65,-175.08 614.47,-139.69"/>
<polygon fill="#63b8ff" stroke="#63b8ff" points="617.99,-139.55 615.3,-129.31 611.01,-139 617.99,-139.55"/>
</a>
</g>
</g>
<!-- Node12 -->
<g id="Node000012" class="node">
<title>Node12</title>
<g id="a_Node000012"><a xlink:title=" ">
<polygon fill="#e0e0e0" stroke="#999999" points="806.5,-74 765.5,-74 765.5,-55 806.5,-55 806.5,-74"/>
<text text-anchor="middle" x="786" y="-62" font-family="Helvetica,sans-Serif" font-size="10.00">tuple</text>
</a>
</g>
</g>
<!-- Node10&#45;&gt;Node12 -->
<g id="edge13_Node000010_Node000012" class="edge">
<title>Node10&#45;&gt;Node12</title>
<g id="a_edge13_Node000010_Node000012"><a xlink:title=" ">
<path fill="none" stroke="#63b8ff" d="M597.73,-274.71C581.87,-246.97 538.07,-160.2 579,-110 629.17,-48.45 676.71,-92.2 754,-74 754.46,-73.89 754.93,-73.78 755.39,-73.67"/>
<polygon fill="#63b8ff" stroke="#63b8ff" points="756.54,-76.99 765.39,-71.16 754.84,-70.2 756.54,-76.99"/>
</a>
</g>
</g>
<!-- Node13 -->
<g id="Node000013" class="node">
<title>Node13</title>
<g id="a_Node000013"><a xlink:title=" ">
<polygon fill="#e0e0e0" stroke="#999999" points="744.5,-74 679.5,-74 679.5,-55 744.5,-55 744.5,-74"/>
<text text-anchor="middle" x="712" y="-62" font-family="Helvetica,sans-Serif" font-size="10.00">functional</text>
</a>
</g>
</g>
<!-- Node10&#45;&gt;Node13 -->
<g id="edge16_Node000010_Node000013" class="edge">
<title>Node10&#45;&gt;Node13</title>
<g id="a_edge16_Node000010_Node000013"><a xlink:title=" ">
<path fill="none" stroke="#63b8ff" d="M564.99,-274.85C545.88,-268.37 524.4,-257.36 513,-239 495.65,-211.06 504.22,-196.7 513,-165 520.61,-137.53 523.24,-127.16 546,-110 555.94,-102.5 623.46,-85.87 669.27,-75.2"/>
<polygon fill="#63b8ff" stroke="#63b8ff" points="670.3,-78.55 679.25,-72.89 668.72,-71.73 670.3,-78.55"/>
</a>
</g>
</g>
<!-- Node10&#45;&gt;Node14 -->
<g id="edge17_Node000010_Node000014" class="edge">
<title>Node10&#45;&gt;Node14</title>
<g id="a_edge17_Node000010_Node000014"><a xlink:title=" ">
<path fill="none" stroke="#63b8ff" d="M664.32,-276.13C747.67,-266.11 896,-248.29 980.48,-238.13"/>
<polygon fill="#63b8ff" stroke="#63b8ff" points="980.94,-241.6 990.46,-236.94 980.11,-234.65 980.94,-241.6"/>
</a>
</g>
</g>
<!-- Node20 -->
<g id="Node000020" class="node">
<title>Node20</title>
<g id="a_Node000020"><a xlink:href="types_8h.html" target="_top" xlink:title=" ">
<polygon fill="white" stroke="#666666" points="1170.5,-74 1081.5,-74 1081.5,-55 1170.5,-55 1170.5,-74"/>
<text text-anchor="middle" x="1126" y="-62" font-family="Helvetica,sans-Serif" font-size="10.00">Library/types.h</text>
</a>
</g>
</g>
<!-- Node10&#45;&gt;Node20 -->
<g id="edge56_Node000010_Node000020" class="edge">
<title>Node10&#45;&gt;Node20</title>
<g id="a_edge56_Node000010_Node000020"><a xlink:title=" ">
<path fill="none" stroke="#63b8ff" d="M626.42,-274.97C680.8,-255.2 819.95,-204.91 937,-165 985.69,-148.4 1001.77,-153.51 1047,-129 1071.02,-115.98 1094.96,-95.4 1110.08,-81.22"/>
<polygon fill="#63b8ff" stroke="#63b8ff" points="1112.73,-83.53 1117.52,-74.08 1107.88,-78.48 1112.73,-83.53"/>
</a>
</g>
</g>
<!-- Node10&#45;&gt;Node21 -->
<g id="edge55_Node000010_Node000021" class="edge">
<title>Node10&#45;&gt;Node21</title>
<g id="a_edge55_Node000010_Node000021"><a xlink:title=" ">
<path fill="none" stroke="#63b8ff" d="M614.13,-274.66C637.36,-256.22 691.22,-213.45 720.02,-190.57"/>
<polygon fill="#63b8ff" stroke="#63b8ff" points="722.44,-193.12 728.1,-184.16 718.09,-187.64 722.44,-193.12"/>
</a>
</g>
</g>
<!-- Node22 -->
<g id="Node000022" class="node">
<title>Node22</title>
<g id="a_Node000022"><a xlink:href="error_8h.html" target="_top" xlink:title=" ">
<polygon fill="white" stroke="#666666" points="493.5,-129 408.5,-129 408.5,-110 493.5,-110 493.5,-129"/>
<text text-anchor="middle" x="451" y="-117" font-family="Helvetica,sans-Serif" font-size="10.00">Library/error.h</text>
</a>
</g>
</g>
<!-- Node10&#45;&gt;Node22 -->
<g id="edge57_Node000010_Node000022" class="edge">
<title>Node10&#45;&gt;Node22</title>
<g id="a_edge57_Node000010_Node000022"><a xlink:title=" ">
<path fill="none" stroke="#63b8ff" d="M541.87,-275.52C517.82,-269.35 491.95,-258.4 475,-239 450.57,-211.03 448.44,-165.13 449.46,-139.44"/>
<polygon fill="#63b8ff" stroke="#63b8ff" points="452.97,-139.38 450.08,-129.19 445.98,-138.96 452.97,-139.38"/>
</a>
</g>
</g>
<!-- Node14&#45;&gt;Node2 -->
<g id="edge21_Node000014_Node000002" class="edge">
<title>Node14&#45;&gt;Node2</title>
<g id="a_edge21_Node000014_Node000002"><a xlink:title=" ">
<path fill="none" stroke="#63b8ff" d="M990.29,-223.44C840.5,-208.94 425.92,-165.85 377,-129 346.12,-105.74 341.37,-56.48 341.27,-29.38"/>
<polygon fill="#63b8ff" stroke="#63b8ff" points="344.77,-29.31 341.44,-19.25 337.77,-29.19 344.77,-29.31"/>
</a>
</g>
</g>
<!-- Node14&#45;&gt;Node3 -->
<g id="edge19_Node000014_Node000003" class="edge">
<title>Node14&#45;&gt;Node3</title>
<g id="a_edge19_Node000014_Node000003"><a xlink:title=" ">
<path fill="none" stroke="#63b8ff" d="M1097.61,-222.7C1140.84,-216.71 1202.54,-205.16 1253,-184 1282.43,-171.66 1312.5,-150 1330.96,-135.46"/>
<polygon fill="#63b8ff" stroke="#63b8ff" points="1333.21,-138.14 1338.81,-129.14 1328.82,-132.68 1333.21,-138.14"/>
</a>
</g>
</g>
<!-- Node14&#45;&gt;Node4 -->
<g id="edge25_Node000014_Node000004" class="edge">
<title>Node14&#45;&gt;Node4</title>
<g id="a_edge25_Node000014_Node000004"><a xlink:title=" ">
<path fill="none" stroke="#63b8ff" d="M990.28,-226.15C839.03,-218.79 412.63,-192.78 290,-129 268.94,-118.05 250.78,-97.29 239.65,-82.49"/>
<polygon fill="#63b8ff" stroke="#63b8ff" points="242.35,-80.25 233.67,-74.18 236.67,-84.34 242.35,-80.25"/>
</a>
</g>
</g>
<!-- Node14&#45;&gt;Node5 -->
<g id="edge26_Node000014_Node000005" class="edge">
<title>Node14&#45;&gt;Node5</title>
<g id="a_edge26_Node000014_Node000005"><a xlink:title=" ">
<path fill="none" stroke="#63b8ff" d="M1081.87,-219.96C1116.49,-211.45 1164.33,-197.72 1178,-184 1221.04,-140.83 1231.58,-64.64 1234.16,-29.38"/>
<polygon fill="#63b8ff" stroke="#63b8ff" points="1237.67,-29.29 1234.77,-19.1 1230.69,-28.87 1237.67,-29.29"/>
</a>
</g>
</g>
<!-- Node14&#45;&gt;Node6 -->
<g id="edge23_Node000014_Node000006" class="edge">
<title>Node14&#45;&gt;Node6</title>
<g id="a_edge23_Node000014_Node000006"><a xlink:title=" ">
<path fill="none" stroke="#63b8ff" d="M1097.62,-227.36C1171.94,-222.92 1306.21,-204.19 1387,-129 1418.69,-99.5 1442.17,-53.53 1453.47,-28.4"/>
<polygon fill="#63b8ff" stroke="#63b8ff" points="1456.78,-29.57 1457.56,-19.01 1450.36,-26.78 1456.78,-29.57"/>
</a>
</g>
</g>
<!-- Node14&#45;&gt;Node12 -->
<g id="edge22_Node000014_Node000012" class="edge">
<title>Node14&#45;&gt;Node12</title>
<g id="a_edge22_Node000014_Node000012"><a xlink:title=" ">
<path fill="none" stroke="#63b8ff" d="M1015.19,-219.92C958.29,-202.45 834.41,-161.64 805,-129 793.93,-116.71 789.3,-98.2 787.37,-84.33"/>
<polygon fill="#63b8ff" stroke="#63b8ff" points="790.81,-83.6 786.3,-74.01 783.85,-84.32 790.81,-83.6"/>
</a>
</g>
</g>
<!-- Node15 -->
<g id="Node000015" class="node">
<title>Node15</title>
<g id="a_Node000015"><a xlink:title=" ">
<polygon fill="#e0e0e0" stroke="#999999" points="1070.5,-184 1017.5,-184 1017.5,-165 1070.5,-165 1070.5,-184"/>
<text text-anchor="middle" x="1044" y="-172" font-family="Helvetica,sans-Serif" font-size="10.00">iterator</text>
</a>
</g>
</g>
<!-- Node14&#45;&gt;Node15 -->
<g id="edge18_Node000014_Node000015" class="edge">
<title>Node14&#45;&gt;Node15</title>
<g id="a_edge18_Node000014_Node000015"><a xlink:title=" ">
<path fill="none" stroke="#63b8ff" d="M1044,-219.75C1044,-212.8 1044,-202.85 1044,-194.13"/>
<polygon fill="#63b8ff" stroke="#63b8ff" points="1047.5,-194.09 1044,-184.09 1040.5,-194.09 1047.5,-194.09"/>
</a>
</g>
</g>
<!-- Node16 -->
<g id="Node000016" class="node">
<title>Node16</title>
<g id="a_Node000016"><a xlink:title=" ">
<polygon fill="#e0e0e0" stroke="#999999" points="1150,-129 1102,-129 1102,-110 1150,-110 1150,-129"/>
<text text-anchor="middle" x="1126" y="-117" font-family="Helvetica,sans-Serif" font-size="10.00">mutex</text>
</a>
</g>
</g>
<!-- Node14&#45;&gt;Node16 -->
<g id="edge20_Node000014_Node000016" class="edge">
<title>Node14&#45;&gt;Node16</title>
<g id="a_edge20_Node000014_Node000016"><a xlink:title=" ">
<path fill="none" stroke="#63b8ff" d="M1089.46,-219.96C1109.77,-213.64 1131.84,-202.72 1144,-184 1153.04,-170.08 1146.09,-151.58 1138.35,-138.15"/>
<polygon fill="#63b8ff" stroke="#63b8ff" points="1141.1,-135.96 1132.79,-129.39 1135.19,-139.71 1141.1,-135.96"/>
</a>
</g>
</g>
<!-- Node17 -->
<g id="Node000017" class="node">
<title>Node17</title>
<g id="a_Node000017"><a xlink:title=" ">
<polygon fill="#e0e0e0" stroke="#999999" points="970,-74 932,-74 932,-55 970,-55 970,-74"/>
<text text-anchor="middle" x="951" y="-62" font-family="Helvetica,sans-Serif" font-size="10.00">map</text>
</a>
</g>
</g>
<!-- Node14&#45;&gt;Node17 -->
<g id="edge24_Node000014_Node000017" class="edge">
<title>Node14&#45;&gt;Node17</title>
<g id="a_edge24_Node000014_Node000017"><a xlink:title=" ">
<path fill="none" stroke="#63b8ff" d="M1097.72,-221.55C1120.9,-215.59 1145.89,-204.53 1160,-184 1168.3,-171.92 1181.56,-137.38 1159,-110 1136.64,-82.86 1032.43,-71.47 980.53,-67.42"/>
<polygon fill="#63b8ff" stroke="#63b8ff" points="980.53,-63.91 970.3,-66.66 980.01,-70.89 980.53,-63.91"/>
</a>
</g>
</g>
<!-- Node18 -->
<g id="Node000018" class="node">
<title>Node18</title>
<g id="a_Node000018"><a xlink:title=" ">
<polygon fill="#e0e0e0" stroke="#999999" points="1135,-184 1089,-184 1089,-165 1135,-165 1135,-184"/>
<text text-anchor="middle" x="1112" y="-172" font-family="Helvetica,sans-Serif" font-size="10.00">future</text>
</a>
</g>
</g>
<!-- Node14&#45;&gt;Node18 -->
<g id="edge27_Node000014_Node000018" class="edge">
<title>Node14&#45;&gt;Node18</title>
<g id="a_edge27_Node000014_Node000018"><a xlink:title=" ">
<path fill="none" stroke="#63b8ff" d="M1054.93,-219.98C1065.08,-212.07 1080.42,-200.11 1092.65,-190.58"/>
<polygon fill="#63b8ff" stroke="#63b8ff" points="1095.14,-193.08 1100.88,-184.17 1090.84,-187.56 1095.14,-193.08"/>
</a>
</g>
</g>
<!-- Node19 -->
<g id="Node000019" class="node">
<title>Node19</title>
<g id="a_Node000019"><a xlink:title=" ">
<polygon fill="#e0e0e0" stroke="#999999" points="661,-74 601,-74 601,-55 661,-55 661,-74"/>
<text text-anchor="middle" x="631" y="-62" font-family="Helvetica,sans-Serif" font-size="10.00">iostream</text>
</a>
</g>
</g>
<!-- Node14&#45;&gt;Node19 -->
<g id="edge28_Node000014_Node000019" class="edge">
<title>Node14&#45;&gt;Node19</title>
<g id="a_edge28_Node000014_Node000019"><a xlink:title=" ">
<path fill="none" stroke="#63b8ff" d="M995.01,-219.98C957.38,-212.65 904.49,-200.61 860,-184 839.03,-176.17 711.07,-108.25 656.08,-78.91"/>
<polygon fill="#63b8ff" stroke="#63b8ff" points="657.47,-75.69 647,-74.06 654.17,-81.86 657.47,-75.69"/>
</a>
</g>
</g>
<!-- Node14&#45;&gt;Node20 -->
<g id="edge29_Node000014_Node000020" class="edge">
<title>Node14&#45;&gt;Node20</title>
<g id="a_edge29_Node000014_Node000020"><a xlink:title=" ">
<path fill="none" stroke="#63b8ff" d="M1032.77,-219.66C1017.76,-206.78 994.61,-182.5 1009,-165 1061.65,-100.98 1139.35,-193.02 1192,-129 1207.6,-110.03 1180.34,-90.83 1156.26,-78.58"/>
<polygon fill="#63b8ff" stroke="#63b8ff" points="1157.48,-75.29 1146.95,-74.09 1154.44,-81.59 1157.48,-75.29"/>
</a>
</g>
</g>
<!-- Node14&#45;&gt;Node21 -->
<g id="edge33_Node000014_Node000021" class="edge">
<title>Node14&#45;&gt;Node21</title>
<g id="a_edge33_Node000014_Node000021"><a xlink:title=" ">
<path fill="none" stroke="#63b8ff" d="M995,-219.98C941.38,-210.67 855.46,-195.74 798.14,-185.78"/>
<polygon fill="#63b8ff" stroke="#63b8ff" points="798.59,-182.3 788.13,-184.04 797.39,-189.2 798.59,-182.3"/>
</a>
</g>
</g>
<!-- Node20&#45;&gt;Node2 -->
<g id="edge32_Node000020_Node000002" class="edge">
<title>Node20&#45;&gt;Node2</title>
<g id="a_edge32_Node000020_Node000002"><a xlink:title=" ">
<path fill="none" stroke="#63b8ff" d="M1081.32,-60.48C938.88,-50.85 497.64,-21.02 374.31,-12.68"/>
<polygon fill="#63b8ff" stroke="#63b8ff" points="374.25,-9.17 364.03,-11.99 373.77,-16.16 374.25,-9.17"/>
</a>
</g>
</g>
<!-- Node20&#45;&gt;Node5 -->
<g id="edge30_Node000020_Node000005" class="edge">
<title>Node20&#45;&gt;Node5</title>
<g id="a_edge30_Node000020_Node000005"><a xlink:title=" ">
<path fill="none" stroke="#63b8ff" d="M1143.51,-54.98C1160.97,-46.5 1188.01,-33.35 1208.17,-23.54"/>
<polygon fill="#63b8ff" stroke="#63b8ff" points="1209.71,-26.69 1217.17,-19.17 1206.64,-20.4 1209.71,-26.69"/>
</a>
</g>
</g>
<!-- Node20&#45;&gt;Node6 -->
<g id="edge31_Node000020_Node000006" class="edge">
<title>Node20&#45;&gt;Node6</title>
<g id="a_edge31_Node000020_Node000006"><a xlink:title=" ">
<path fill="none" stroke="#63b8ff" d="M1170.83,-56.41C1231.08,-46.88 1338.2,-29.93 1404.07,-19.51"/>
<polygon fill="#63b8ff" stroke="#63b8ff" points="1404.95,-22.91 1414.28,-17.89 1403.86,-16 1404.95,-22.91"/>
</a>
</g>
</g>
<!-- Node21&#45;&gt;Node2 -->
<g id="edge36_Node000021_Node000002" class="edge">
<title>Node21&#45;&gt;Node2</title>
<g id="a_edge36_Node000021_Node000002"><a xlink:title=" ">
<path fill="none" stroke="#63b8ff" d="M669.17,-166.04C573.13,-155.52 410.82,-136.77 400,-129 366.47,-104.91 351.4,-56 345.42,-29.16"/>
<polygon fill="#63b8ff" stroke="#63b8ff" points="348.81,-28.25 343.39,-19.14 341.95,-29.64 348.81,-28.25"/>
</a>
</g>
</g>
<!-- Node21&#45;&gt;Node3 -->
<g id="edge39_Node000021_Node000003" class="edge">
<title>Node21&#45;&gt;Node3</title>
<g id="a_edge39_Node000021_Node000003"><a xlink:title=" ">
<path fill="none" stroke="#63b8ff" d="M808.68,-167.45C937.45,-156.26 1208.76,-132.69 1309.9,-123.9"/>
<polygon fill="#63b8ff" stroke="#63b8ff" points="1310.32,-127.37 1319.98,-123.02 1309.72,-120.4 1310.32,-127.37"/>
</a>
</g>
</g>
<!-- Node21&#45;&gt;Node4 -->
<g id="edge37_Node000021_Node000004" class="edge">
<title>Node21&#45;&gt;Node4</title>
<g id="a_edge37_Node000021_Node000004"><a xlink:title=" ">
<path fill="none" stroke="#63b8ff" d="M669.45,-167.81C577.71,-159.86 421.39,-144.63 366,-129 323.95,-117.14 278.54,-94.04 251.72,-79.21"/>
<polygon fill="#63b8ff" stroke="#63b8ff" points="253.15,-76 242.72,-74.16 249.73,-82.11 253.15,-76"/>
</a>
</g>
</g>
<!-- Node21&#45;&gt;Node5 -->
<g id="edge38_Node000021_Node000005" class="edge">
<title>Node21&#45;&gt;Node5</title>
<g id="a_edge38_Node000021_Node000005"><a xlink:title=" ">
<path fill="none" stroke="#63b8ff" d="M808.83,-166.19C853.08,-159.92 910.84,-148.67 959,-129 1014.92,-106.16 1017.89,-79.74 1073,-55 1115.38,-35.98 1167.73,-23.4 1201.24,-16.61"/>
<polygon fill="#63b8ff" stroke="#63b8ff" points="1202.28,-19.97 1211.42,-14.61 1200.93,-13.1 1202.28,-19.97"/>
</a>
</g>
</g>
<!-- Node21&#45;&gt;Node11 -->
<g id="edge41_Node000021_Node000011" class="edge">
<title>Node21&#45;&gt;Node11</title>
<g id="a_edge41_Node000021_Node000011"><a xlink:title=" ">
<path fill="none" stroke="#63b8ff" d="M719.24,-164.98C699.27,-156.38 668.2,-142.99 645.35,-133.15"/>
<polygon fill="#63b8ff" stroke="#63b8ff" points="646.69,-129.91 636.12,-129.17 643.92,-136.34 646.69,-129.91"/>
</a>
</g>
</g>
<!-- Node21&#45;&gt;Node13 -->
<g id="edge42_Node000021_Node000013" class="edge">
<title>Node21&#45;&gt;Node13</title>
<g id="a_edge42_Node000021_Node000013"><a xlink:title=" ">
<path fill="none" stroke="#63b8ff" d="M736.79,-164.66C732.4,-147.09 722.49,-107.45 716.61,-83.95"/>
<polygon fill="#63b8ff" stroke="#63b8ff" points="719.99,-83.01 714.16,-74.16 713.19,-84.71 719.99,-83.01"/>
</a>
</g>
</g>
<!-- Node21&#45;&gt;Node16 -->
<g id="edge35_Node000021_Node000016" class="edge">
<title>Node21&#45;&gt;Node16</title>
<g id="a_edge35_Node000021_Node000016"><a xlink:title=" ">
<path fill="none" stroke="#63b8ff" d="M801.18,-164.98C883.55,-153.7 1026.05,-134.19 1091.42,-125.24"/>
<polygon fill="#63b8ff" stroke="#63b8ff" points="1092.16,-128.67 1101.59,-123.84 1091.21,-121.73 1092.16,-128.67"/>
</a>
</g>
</g>
<!-- Node21&#45;&gt;Node17 -->
<g id="edge40_Node000021_Node000017" class="edge">
<title>Node21&#45;&gt;Node17</title>
<g id="a_edge40_Node000021_Node000017"><a xlink:title=" ">
<path fill="none" stroke="#63b8ff" d="M808.62,-166.52C859.64,-159.92 923,-148.12 941,-129 952.1,-117.2 953.83,-98.36 953.24,-84.26"/>
<polygon fill="#63b8ff" stroke="#63b8ff" points="956.72,-83.87 952.41,-74.19 949.75,-84.45 956.72,-83.87"/>
</a>
</g>
</g>
<!-- Node21&#45;&gt;Node19 -->
<g id="edge34_Node000021_Node000019" class="edge">
<title>Node21&#45;&gt;Node19</title>
<g id="a_edge34_Node000021_Node000019"><a xlink:title=" ">
<path fill="none" stroke="#63b8ff" d="M730.16,-164.66C711.96,-146.46 670.05,-104.55 646.97,-81.47"/>
<polygon fill="#63b8ff" stroke="#63b8ff" points="649.2,-78.75 639.66,-74.16 644.25,-83.7 649.2,-78.75"/>
</a>
</g>
</g>
<!-- Node21&#45;&gt;Node20 -->
<g id="edge43_Node000021_Node000020" class="edge">
<title>Node21&#45;&gt;Node20</title>
<g id="a_edge43_Node000021_Node000020"><a xlink:title=" ">
<path fill="none" stroke="#63b8ff" d="M808.78,-168.81C864.94,-163.47 945.22,-152.24 1012,-129 1046.82,-116.88 1083.44,-94.51 1105.5,-79.81"/>
<polygon fill="#63b8ff" stroke="#63b8ff" points="1107.71,-82.55 1114.02,-74.04 1103.78,-76.76 1107.71,-82.55"/>
</a>
</g>
</g>
<!-- Node21&#45;&gt;Node22 -->
<g id="edge44_Node000021_Node000022" class="edge">
<title>Node21&#45;&gt;Node22</title>
<g id="a_edge44_Node000021_Node000022"><a xlink:title=" ">
<path fill="none" stroke="#63b8ff" d="M692.73,-164.98C641.19,-155.5 558.04,-140.2 503.95,-130.24"/>
<polygon fill="#63b8ff" stroke="#63b8ff" points="504.33,-126.76 493.87,-128.39 503.07,-133.64 504.33,-126.76"/>
</a>
</g>
</g>
<!-- Node23 -->
<g id="Node000023" class="node">
<title>Node23</title>
<g id="a_Node000023"><a xlink:href="evaluate_8h.html" target="_top" xlink:title=" ">
<polygon fill="white" stroke="#666666" points="932,-129 814,-129 814,-110 932,-110 932,-129"/>
<text text-anchor="middle" x="873" y="-117" font-family="Helvetica,sans-Serif" font-size="10.00">Evaluator/evaluate.h</text>
</a>
</g>
</g>
<!-- Node21&#45;&gt;Node23 -->
<g id="edge47_Node000021_Node000023" class="edge">
<title>Node21&#45;&gt;Node23</title>
<g id="a_edge47_Node000021_Node000023"><a xlink:title=" ">
<path fill="none" stroke="#63b8ff" d="M760.53,-164.98C782.47,-156.3 816.74,-142.75 841.69,-132.88"/>
<polygon fill="#63b8ff" stroke="#63b8ff" points="843.07,-136.1 851.08,-129.17 840.49,-129.59 843.07,-136.1"/>
</a>
</g>
</g>
<!-- Node22&#45;&gt;Node2 -->
<g id="edge45_Node000022_Node000002" class="edge">
<title>Node22&#45;&gt;Node2</title>
<g id="a_edge45_Node000022_Node000002"><a xlink:title=" ">
<path fill="none" stroke="#63b8ff" d="M443.96,-109.96C433.51,-97.46 413.08,-73.63 394,-55 383.51,-44.75 371.04,-34.04 360.95,-25.7"/>
<polygon fill="#63b8ff" stroke="#63b8ff" points="363.08,-22.92 353.12,-19.3 358.65,-28.34 363.08,-22.92"/>
</a>
</g>
</g>
<!-- Node22&#45;&gt;Node19 -->
<g id="edge46_Node000022_Node000019" class="edge">
<title>Node22&#45;&gt;Node19</title>
<g id="a_edge46_Node000022_Node000019"><a xlink:title=" ">
<path fill="none" stroke="#63b8ff" d="M479.92,-109.98C510.27,-101.05 558.17,-86.94 591.88,-77.02"/>
<polygon fill="#63b8ff" stroke="#63b8ff" points="593.25,-80.26 601.85,-74.08 591.27,-73.55 593.25,-80.26"/>
</a>
</g>
</g>
<!-- Node23&#45;&gt;Node2 -->
<g id="edge50_Node000023_Node000002" class="edge">
<title>Node23&#45;&gt;Node2</title>
<g id="a_edge50_Node000023_Node000002"><a xlink:title=" ">
<path fill="none" stroke="#63b8ff" d="M868.07,-109.63C859.55,-95.3 840.61,-67.39 816,-55 738.33,-15.89 468.11,-11.01 374.34,-10.51"/>
<polygon fill="#63b8ff" stroke="#63b8ff" points="374.07,-7.01 364.06,-10.47 374.04,-14.01 374.07,-7.01"/>
</a>
</g>
</g>
<!-- Node23&#45;&gt;Node4 -->
<g id="edge48_Node000023_Node000004" class="edge">
<title>Node23&#45;&gt;Node4</title>
<g id="a_edge48_Node000023_Node000004"><a xlink:title=" ">
<path fill="none" stroke="#63b8ff" d="M813.76,-113.63C681.12,-102.73 363.79,-76.66 260.85,-68.2"/>
<polygon fill="#63b8ff" stroke="#63b8ff" points="261,-64.7 250.75,-67.37 260.43,-71.68 261,-64.7"/>
</a>
</g>
</g>
<!-- Node23&#45;&gt;Node5 -->
<g id="edge49_Node000023_Node000005" class="edge">
<title>Node23&#45;&gt;Node5</title>
<g id="a_edge49_Node000023_Node000005"><a xlink:title=" ">
<path fill="none" stroke="#63b8ff" d="M877.1,-109.78C884.24,-95.65 900.39,-68.03 923,-55 969.9,-27.98 1130.65,-16.14 1201.27,-12.16"/>
<polygon fill="#63b8ff" stroke="#63b8ff" points="1201.61,-15.65 1211.41,-11.61 1201.23,-8.66 1201.61,-15.65"/>
</a>
</g>
</g>
<!-- Node23&#45;&gt;Node12 -->
<g id="edge52_Node000023_Node000012" class="edge">
<title>Node23&#45;&gt;Node12</title>
<g id="a_edge52_Node000023_Node000012"><a xlink:title=" ">
<path fill="none" stroke="#63b8ff" d="M859.02,-109.98C845.53,-101.77 824.87,-89.18 808.96,-79.49"/>
<polygon fill="#63b8ff" stroke="#63b8ff" points="810.59,-76.38 800.23,-74.17 806.95,-82.36 810.59,-76.38"/>
</a>
</g>
</g>
<!-- Node23&#45;&gt;Node13 -->
<g id="edge51_Node000023_Node000013" class="edge">
<title>Node23&#45;&gt;Node13</title>
<g id="a_edge51_Node000023_Node000013"><a xlink:title=" ">
<path fill="none" stroke="#63b8ff" d="M847.13,-109.98C820.22,-101.13 777.88,-87.19 747.77,-77.28"/>
<polygon fill="#63b8ff" stroke="#63b8ff" points="748.66,-73.88 738.07,-74.08 746.47,-80.53 748.66,-73.88"/>
</a>
</g>
</g>
<!-- Node23&#45;&gt;Node17 -->
<g id="edge53_Node000023_Node000017" class="edge">
<title>Node23&#45;&gt;Node17</title>
<g id="a_edge53_Node000023_Node000017"><a xlink:title=" ">
<path fill="none" stroke="#63b8ff" d="M885.53,-109.98C897.4,-101.92 915.46,-89.65 929.61,-80.03"/>
<polygon fill="#63b8ff" stroke="#63b8ff" points="931.94,-82.69 938.24,-74.17 928,-76.9 931.94,-82.69"/>
</a>
</g>
</g>
<!-- Node23&#45;&gt;Node20 -->
<g id="edge54_Node000023_Node000020" class="edge">
<title>Node23&#45;&gt;Node20</title>
<g id="a_edge54_Node000023_Node000020"><a xlink:title=" ">
<path fill="none" stroke="#63b8ff" d="M913.65,-109.98C957.5,-100.8 1027.42,-86.15 1074.95,-76.19"/>
<polygon fill="#63b8ff" stroke="#63b8ff" points="1075.96,-79.56 1085.03,-74.08 1074.53,-72.71 1075.96,-79.56"/>
</a>
</g>
</g>
<!-- Node24&#45;&gt;Node2 -->
<g id="edge59_Node000024_Node000002" class="edge">
<title>Node24&#45;&gt;Node2</title>
<g id="a_edge59_Node000024_Node000002"><a xlink:title=" ">
<path fill="none" stroke="#63b8ff" d="M655.45,-441.94C525.16,-429.33 262.62,-398.49 186,-349 154.03,-328.34 76,-206.53 76,-175.5 76,-175.5 76,-175.5 76,-118.5 76,-82.58 95.44,-73.88 126,-55 183.77,-19.3 265.18,-11.71 309.74,-10.41"/>
<polygon fill="#63b8ff" stroke="#63b8ff" points="310.05,-13.91 319.98,-10.21 309.91,-6.91 310.05,-13.91"/>
</a>
</g>
</g>
<!-- Node24&#45;&gt;Node5 -->
<g id="edge60_Node000024_Node000005" class="edge">
<title>Node24&#45;&gt;Node5</title>
<g id="a_edge60_Node000024_Node000005"><a xlink:title=" ">
<path fill="none" stroke="#63b8ff" d="M804.64,-441.96C955.52,-423.99 1290.65,-358.68 1387,-129 1411.03,-71.72 1320.29,-35.21 1268.59,-19.46"/>
<polygon fill="#63b8ff" stroke="#63b8ff" points="1269.4,-16.05 1258.82,-16.58 1267.43,-22.76 1269.4,-16.05"/>
</a>
</g>
</g>
<!-- Node24&#45;&gt;Node10 -->
<g id="edge61_Node000024_Node000010" class="edge">
<title>Node24&#45;&gt;Node10</title>
<g id="a_edge61_Node000024_Node000010"><a xlink:title=" ">
<path fill="none" stroke="#63b8ff" d="M723.54,-439.82C714.39,-427.55 697.07,-404.45 682,-385 659.27,-355.67 632.3,-321.92 616.48,-302.22"/>
<polygon fill="#63b8ff" stroke="#63b8ff" points="619.04,-299.83 610.05,-294.23 613.59,-304.21 619.04,-299.83"/>
</a>
</g>
</g>
<!-- Node24&#45;&gt;Node21 -->
<g id="edge72_Node000024_Node000021" class="edge">
<title>Node24&#45;&gt;Node21</title>
<g id="a_edge72_Node000024_Node000021"><a xlink:title=" ">
<path fill="none" stroke="#63b8ff" d="M731.21,-439.84C733.67,-421.54 739,-377.57 739,-340.5 739,-340.5 739,-340.5 739,-283.5 739,-252.19 739,-215.77 739,-194.23"/>
<polygon fill="#63b8ff" stroke="#63b8ff" points="742.5,-194.18 739,-184.18 735.5,-194.18 742.5,-194.18"/>
</a>
</g>
</g>
<!-- Node24&#45;&gt;Node25 -->
<g id="edge62_Node000024_Node000025" class="edge">
<title>Node24&#45;&gt;Node25</title>
<g id="a_edge62_Node000024_Node000025"><a xlink:title=" ">
<path fill="none" stroke="#63b8ff" d="M709.6,-439.98C688.98,-431.38 656.89,-417.99 633.31,-408.15"/>
<polygon fill="#63b8ff" stroke="#63b8ff" points="634.35,-404.79 623.78,-404.17 631.66,-411.25 634.35,-404.79"/>
</a>
</g>
</g>
<!-- Node25&#45;&gt;Node4 -->
<g id="edge63_Node000025_Node000004" class="edge">
<title>Node25&#45;&gt;Node4</title>
<g id="a_edge63_Node000025_Node000004"><a xlink:title=" ">
<path fill="none" stroke="#63b8ff" d="M532.53,-391.12C405.69,-384.9 152,-362.79 152,-285.5 152,-285.5 152,-285.5 152,-173.5 152,-134.47 185.61,-99.58 208.13,-80.6"/>
<polygon fill="#63b8ff" stroke="#63b8ff" points="210.56,-83.14 216.12,-74.12 206.15,-77.7 210.56,-83.14"/>
</a>
</g>
</g>
<!-- Node25&#45;&gt;Node10 -->
<g id="edge64_Node000025_Node000010" class="edge">
<title>Node25&#45;&gt;Node10</title>
<g id="a_edge64_Node000025_Node000010"><a xlink:title=" ">
<path fill="none" stroke="#63b8ff" d="M603,-384.66C603,-367.17 603,-327.8 603,-304.27"/>
<polygon fill="#63b8ff" stroke="#63b8ff" points="606.5,-304.16 603,-294.16 599.5,-304.16 606.5,-304.16"/>
</a>
</g>
</g>
<!-- Node26 -->
<g id="Node000026" class="node">
<title>Node26</title>
<g id="a_Node000026"><a xlink:href="simulator_8h.html" target="_top" xlink:title=" ">
<polygon fill="white" stroke="#666666" points="889,-349 767,-349 767,-330 889,-330 889,-349"/>
<text text-anchor="middle" x="828" y="-337" font-family="Helvetica,sans-Serif" font-size="10.00">Simulator/simulator.h</text>
</a>
</g>
</g>
<!-- Node25&#45;&gt;Node26 -->
<g id="edge65_Node000025_Node000026" class="edge">
<title>Node25&#45;&gt;Node26</title>
<g id="a_edge65_Node000025_Node000026"><a xlink:title=" ">
<path fill="none" stroke="#63b8ff" d="M639.15,-384.98C677.91,-375.86 739.55,-361.33 781.8,-351.38"/>
<polygon fill="#63b8ff" stroke="#63b8ff" points="782.64,-354.78 791.57,-349.08 781.03,-347.97 782.64,-354.78"/>
</a>
</g>
</g>
<!-- Node26&#45;&gt;Node3 -->
<g id="edge66_Node000026_Node000003" class="edge">
<title>Node26&#45;&gt;Node3</title>
<g id="a_edge66_Node000026_Node000003"><a xlink:title=" ">
<path fill="none" stroke="#63b8ff" d="M889.23,-333.36C987.95,-322.17 1183.84,-287.61 1309,-184 1323.86,-171.7 1334.91,-152.38 1341.59,-138.29"/>
<polygon fill="#63b8ff" stroke="#63b8ff" points="1344.8,-139.67 1345.67,-129.12 1338.41,-136.83 1344.8,-139.67"/>
</a>
</g>
</g>
<!-- Node26&#45;&gt;Node4 -->
<g id="edge67_Node000026_Node000004" class="edge">
<title>Node26&#45;&gt;Node4</title>
<g id="a_edge67_Node000026_Node000004"><a xlink:title=" ">
<path fill="none" stroke="#63b8ff" d="M766.83,-334.53C607.14,-323.37 190,-288.64 190,-230.5 190,-230.5 190,-230.5 190,-173.5 190,-140.02 206.45,-103.84 217.7,-83.01"/>
<polygon fill="#63b8ff" stroke="#63b8ff" points="220.87,-84.53 222.72,-74.1 214.76,-81.1 220.87,-84.53"/>
</a>
</g>
</g>
<!-- Node26&#45;&gt;Node10 -->
<g id="edge69_Node000026_Node000010" class="edge">
<title>Node26&#45;&gt;Node10</title>
<g id="a_edge69_Node000026_Node000010"><a xlink:title=" ">
<path fill="none" stroke="#63b8ff" d="M791.85,-329.98C753.09,-320.86 691.45,-306.33 649.2,-296.38"/>
<polygon fill="#63b8ff" stroke="#63b8ff" points="649.97,-292.97 639.43,-294.08 648.36,-299.78 649.97,-292.97"/>
</a>
</g>
</g>
<!-- Node26&#45;&gt;Node14 -->
<g id="edge70_Node000026_Node000014" class="edge">
<title>Node26&#45;&gt;Node14</title>
<g id="a_edge70_Node000026_Node000014"><a xlink:title=" ">
<path fill="none" stroke="#63b8ff" d="M875.9,-329.94C906.03,-323.18 944.94,-311.85 976,-294 997.54,-281.62 1017.74,-261.19 1030.44,-246.86"/>
<polygon fill="#63b8ff" stroke="#63b8ff" points="1033.14,-249.09 1037,-239.23 1027.83,-244.53 1033.14,-249.09"/>
</a>
</g>
</g>
<!-- Node26&#45;&gt;Node20 -->
<g id="edge68_Node000026_Node000020" class="edge">
<title>Node26&#45;&gt;Node20</title>
<g id="a_edge68_Node000026_Node000020"><a xlink:title=" ">
<path fill="none" stroke="#63b8ff" d="M833.69,-329.98C853.14,-301.54 920.24,-209.21 1000,-165 1063.37,-129.87 1113.78,-185.61 1159,-129 1170.67,-114.39 1157.22,-95.02 1144.15,-81.53"/>
<polygon fill="#63b8ff" stroke="#63b8ff" points="1146.32,-78.76 1136.69,-74.35 1141.46,-83.8 1146.32,-78.76"/>
</a>
</g>
</g>
<!-- Node26&#45;&gt;Node21 -->
<g id="edge71_Node000026_Node000021" class="edge">
<title>Node26&#45;&gt;Node21</title>
<g id="a_edge71_Node000026_Node000021"><a xlink:title=" ">
<path fill="none" stroke="#63b8ff" d="M823.21,-329.74C809.15,-303.98 767.74,-228.13 748.73,-193.33"/>
<polygon fill="#63b8ff" stroke="#63b8ff" points="751.67,-191.41 743.81,-184.31 745.53,-194.76 751.67,-191.41"/>
</a>
</g>
</g>
</g>
</svg>

<g id="navigator" transform="translate(0 0)" fill="#404254">
  <rect fill="#f2f5e9" fill-opacity="0.5" stroke="#606060" stroke-width=".5" x="0" y="0" width="60" height="60"/>
  <use id="zoomplus" xlink:href="#zoomPlus" x="17" y="9" onmousedown="handleZoom(evt,'in')"/>
  <use id="zoomminus" xlink:href="#zoomMin" x="42" y="9" onmousedown="handleZoom(evt,'out')"/>
  <use id="reset" xlink:href="#resetDef" x="30" y="36" onmousedown="handleReset()"/>
   <use id="arrowup" xlink:href="#arrowUp" x="0" y="0" onmousedown="handlePan(0,-1)"/>
  <use id="arrowright" xlink:href="#arrowRight" x="0" y="0" onmousedown="handlePan(1,0)"/>
  <use id="arrowdown" xlink:href="#arrowDown" x="0" y="0" onmousedown="handlePan(0,1)"/>
  <use id="arrowleft" xlink:href="#arrowLeft" x="0" y="0" onmousedown="handlePan(-1,0)"/>
</g>
<svg viewBox="0 0 15 15" width="100%" height="30px" preserveAspectRatio="xMaxYMin meet">
 <g id="arrow_out" transform="scale(0.3 0.3)">
  <a xlink:href="dutDriver_8h__incl_org.svg" target="_base">
   <rect id="button" ry="5" rx="5" y="6" x="6" height="38" width="38"
        fill="#f2f5e9" fill-opacity="0.5" stroke="#606060" stroke-width="1.0"/>
   <path id="arrow"
     d="M 11.500037,31.436501 C 11.940474,20.09759 22.043105,11.32322 32.158766,21.979434 L 37.068811,17.246167 C 37.068811,17.246167 37.088388,32 37.088388,32 L 22.160133,31.978069 C 22.160133,31.978069 26.997745,27.140456 26.997745,27.140456 C 18.528582,18.264221 13.291696,25.230495 11.500037,31.436501 z"
     style="fill:#404040;"/>
  </a>
 </g>
</svg>

<style type='text/css'>
<![CDATA[
[data-mouse-over-selected='false'] { opacity: 0.7; }
[data-mouse-over-selected='true']  { opacity: 1.0; }
]]>
</style>
<script type="application/ecmascript"><![CDATA[
document.addEventListener('DOMContentLoaded', (event) => {
  highlightEdges();
  highlightAdjacentNodes();
});
]]></script>
</svg>
