<?xml version="1.0" encoding="UTF-8" standalone="no"?>
<!DOCTYPE svg PUBLIC "-//W3C//DTD SVG 1.1//EN"
 "http://www.w3.org/Graphics/SVG/1.1/DTD/svg11.dtd">
<!-- Generated by graphviz version 2.43.0 (0)
 -->
<!-- Title: src/Drivers/dutDriver.cpp Pages: 1 -->
<svg width="1832pt" height="577pt"
 viewBox="0.00 0.00 1832.00 577.00" xmlns="http://www.w3.org/2000/svg" xmlns:xlink="http://www.w3.org/1999/xlink">
<g id="graph0" class="graph" transform="scale(1 1) rotate(0) translate(4 573)">
<title>src/Drivers/dutDriver.cpp</title>
<!-- Node1 -->
<g id="Node000001" class="node">
<title>Node1</title>
<g id="a_Node000001"><a xlink:title=" ">
<polygon fill="#999999" stroke="#666666" points="1474.5,-569 1337.5,-569 1337.5,-550 1474.5,-550 1474.5,-569"/>
<text text-anchor="middle" x="1406" y="-557" font-family="Helvetica,sans-Serif" font-size="10.00">src/Drivers/dutDriver.cpp</text>
</a>
</g>
</g>
<!-- Node2 -->
<g id="Node000002" class="node">
<title>Node2</title>
<g id="a_Node000002"><a xlink:href="dutDriver_8h.html" target="_top" xlink:title=" ">
<polygon fill="white" stroke="#666666" points="1460.5,-514 1351.5,-514 1351.5,-495 1460.5,-495 1460.5,-514"/>
<text text-anchor="middle" x="1406" y="-502" font-family="Helvetica,sans-Serif" font-size="10.00">Drivers/dutDriver.h</text>
</a>
</g>
</g>
<!-- Node1&#45;&gt;Node2 -->
<g id="edge1_Node000001_Node000002" class="edge">
<title>Node1&#45;&gt;Node2</title>
<g id="a_edge1_Node000001_Node000002"><a xlink:title=" ">
<path fill="none" stroke="#63b8ff" d="M1406,-549.75C1406,-542.8 1406,-532.85 1406,-524.13"/>
<polygon fill="#63b8ff" stroke="#63b8ff" points="1409.5,-524.09 1406,-514.09 1402.5,-524.09 1409.5,-524.09"/>
</a>
</g>
</g>
<!-- Node3 -->
<g id="Node000003" class="node">
<title>Node3</title>
<g id="a_Node000003"><a xlink:title=" ">
<polygon fill="#e0e0e0" stroke="#999999" points="218,-19 174,-19 174,0 218,0 218,-19"/>
<text text-anchor="middle" x="196" y="-7" font-family="Helvetica,sans-Serif" font-size="10.00">string</text>
</a>
</g>
</g>
<!-- Node2&#45;&gt;Node3 -->
<g id="edge2_Node000002_Node000003" class="edge">
<title>Node2&#45;&gt;Node3</title>
<g id="a_edge2_Node000002_Node000003"><a xlink:title=" ">
<path fill="none" stroke="#63b8ff" d="M1351.31,-502.22C1092.14,-495.78 0,-464.55 0,-395.5 0,-395.5 0,-395.5 0,-118.5 0,-44.59 108.24,-20.89 163.84,-13.59"/>
<polygon fill="#63b8ff" stroke="#63b8ff" points="164.39,-17.05 173.9,-12.37 163.55,-10.1 164.39,-17.05"/>
</a>
</g>
</g>
<!-- Node4 -->
<g id="Node000004" class="node">
<title>Node4</title>
<g id="a_Node000004"><a xlink:title=" ">
<polygon fill="#e0e0e0" stroke="#999999" points="1226,-129 1168,-129 1168,-110 1226,-110 1226,-129"/>
<text text-anchor="middle" x="1197" y="-117" font-family="Helvetica,sans-Serif" font-size="10.00">memory</text>
</a>
</g>
</g>
<!-- Node2&#45;&gt;Node4 -->
<g id="edge3_Node000002_Node000004" class="edge">
<title>Node2&#45;&gt;Node4</title>
<g id="a_edge3_Node000002_Node000004"><a xlink:title=" ">
<path fill="none" stroke="#63b8ff" d="M1406,-494.82C1406,-476.48 1406,-432.44 1406,-395.5 1406,-395.5 1406,-395.5 1406,-283.5 1406,-198.07 1296.07,-150.82 1235.66,-131.3"/>
<polygon fill="#63b8ff" stroke="#63b8ff" points="1236.65,-127.95 1226.06,-128.3 1234.56,-134.63 1236.65,-127.95"/>
</a>
</g>
</g>
<!-- Node5 -->
<g id="Node000005" class="node">
<title>Node5</title>
<g id="a_Node000005"><a xlink:title=" ">
<polygon fill="#e0e0e0" stroke="#999999" points="1352.5,-74 1307.5,-74 1307.5,-55 1352.5,-55 1352.5,-74"/>
<text text-anchor="middle" x="1330" y="-62" font-family="Helvetica,sans-Serif" font-size="10.00">utility</text>
</a>
</g>
</g>
<!-- Node2&#45;&gt;Node5 -->
<g id="edge4_Node000002_Node000005" class="edge">
<title>Node2&#45;&gt;Node5</title>
<g id="a_edge4_Node000002_Node000005"><a xlink:title=" ">
<path fill="none" stroke="#63b8ff" d="M1411.28,-494.9C1421.73,-477.07 1444,-434.46 1444,-395.5 1444,-395.5 1444,-395.5 1444,-173.5 1444,-127.47 1394.42,-95.18 1360.65,-78.53"/>
<polygon fill="#63b8ff" stroke="#63b8ff" points="1361.71,-75.16 1351.18,-74.05 1358.72,-81.49 1361.71,-75.16"/>
</a>
</g>
</g>
<!-- Node6 -->
<g id="Node000006" class="node">
<title>Node6</title>
<g id="a_Node000006"><a xlink:title=" ">
<polygon fill="#e0e0e0" stroke="#999999" points="794.5,-19 747.5,-19 747.5,0 794.5,0 794.5,-19"/>
<text text-anchor="middle" x="771" y="-7" font-family="Helvetica,sans-Serif" font-size="10.00">vector</text>
</a>
</g>
</g>
<!-- Node2&#45;&gt;Node6 -->
<g id="edge5_Node000002_Node000006" class="edge">
<title>Node2&#45;&gt;Node6</title>
<g id="a_edge5_Node000002_Node000006"><a xlink:title=" ">
<path fill="none" stroke="#63b8ff" d="M1417.88,-494.88C1439.25,-478.26 1482,-439.52 1482,-395.5 1482,-395.5 1482,-395.5 1482,-118.5 1482,-58.16 1419.97,-71.73 1362,-55 1256.16,-24.46 913.92,-13.88 804.78,-11.23"/>
<polygon fill="#63b8ff" stroke="#63b8ff" points="804.75,-7.73 794.67,-10.99 804.58,-14.73 804.75,-7.73"/>
</a>
</g>
</g>
<!-- Node7 -->
<g id="Node000007" class="node">
<title>Node7</title>
<g id="a_Node000007"><a xlink:title=" ">
<polygon fill="#e0e0e0" stroke="#999999" points="1167.5,-19 1074.5,-19 1074.5,0 1167.5,0 1167.5,-19"/>
<text text-anchor="middle" x="1121" y="-7" font-family="Helvetica,sans-Serif" font-size="10.00">unordered_map</text>
</a>
</g>
</g>
<!-- Node2&#45;&gt;Node7 -->
<g id="edge6_Node000002_Node000007" class="edge">
<title>Node2&#45;&gt;Node7</title>
<g id="a_edge6_Node000002_Node000007"><a xlink:title=" ">
<path fill="none" stroke="#63b8ff" d="M1436.29,-494.91C1455.67,-488.02 1480.08,-476.56 1496,-459 1516.27,-436.65 1520,-425.67 1520,-395.5 1520,-395.5 1520,-395.5 1520,-118.5 1520,-88.33 1519.76,-73.59 1496,-55 1447.72,-17.24 1269.9,-10.9 1177.53,-10.22"/>
<polygon fill="#63b8ff" stroke="#63b8ff" points="1177.54,-6.73 1167.52,-10.17 1177.5,-13.72 1177.54,-6.73"/>
</a>
</g>
</g>
<!-- Node8 -->
<g id="Node000008" class="node">
<title>Node8</title>
<g id="a_Node000008"><a xlink:title=" ">
<polygon fill="#e0e0e0" stroke="#999999" points="1616,-459 1548,-459 1548,-440 1616,-440 1616,-459"/>
<text text-anchor="middle" x="1582" y="-447" font-family="Helvetica,sans-Serif" font-size="10.00">filesystem</text>
</a>
</g>
</g>
<!-- Node2&#45;&gt;Node8 -->
<g id="edge7_Node000002_Node000008" class="edge">
<title>Node2&#45;&gt;Node8</title>
<g id="a_edge7_Node000002_Node000008"><a xlink:title=" ">
<path fill="none" stroke="#63b8ff" d="M1434.28,-494.98C1463.95,-486.05 1510.79,-471.94 1543.75,-462.02"/>
<polygon fill="#63b8ff" stroke="#63b8ff" points="1544.93,-465.32 1553.5,-459.08 1542.92,-458.61 1544.93,-465.32"/>
</a>
</g>
</g>
<!-- Node9 -->
<g id="Node000009" class="node">
<title>Node9</title>
<g id="a_Node000009"><a xlink:title=" ">
<polygon fill="#e0e0e0" stroke="#999999" points="1703.5,-459 1634.5,-459 1634.5,-440 1703.5,-440 1703.5,-459"/>
<text text-anchor="middle" x="1669" y="-447" font-family="Helvetica,sans-Serif" font-size="10.00">verilated.h</text>
</a>
</g>
</g>
<!-- Node2&#45;&gt;Node9 -->
<g id="edge8_Node000002_Node000009" class="edge">
<title>Node2&#45;&gt;Node9</title>
<g id="a_edge8_Node000002_Node000009"><a xlink:title=" ">
<path fill="none" stroke="#63b8ff" d="M1448.26,-494.98C1496.52,-485.26 1575.14,-469.42 1624.37,-459.49"/>
<polygon fill="#63b8ff" stroke="#63b8ff" points="1625.29,-462.88 1634.41,-457.47 1623.91,-456.02 1625.29,-462.88"/>
</a>
</g>
</g>
<!-- Node10 -->
<g id="Node000010" class="node">
<title>Node10</title>
<g id="a_Node000010"><a xlink:title=" ">
<polygon fill="#e0e0e0" stroke="#999999" points="1824,-459 1722,-459 1722,-440 1824,-440 1824,-459"/>
<text text-anchor="middle" x="1773" y="-447" font-family="Helvetica,sans-Serif" font-size="10.00">verilated_vcd_c.h</text>
</a>
</g>
</g>
<!-- Node2&#45;&gt;Node10 -->
<g id="edge9_Node000002_Node000010" class="edge">
<title>Node2&#45;&gt;Node10</title>
<g id="a_edge9_Node000002_Node000010"><a xlink:title=" ">
<path fill="none" stroke="#63b8ff" d="M1460.55,-495.62C1527.73,-485.92 1641.54,-469.48 1711.69,-459.35"/>
<polygon fill="#63b8ff" stroke="#63b8ff" points="1712.31,-462.8 1721.71,-457.91 1711.31,-455.87 1712.31,-462.8"/>
</a>
</g>
</g>
<!-- Node11 -->
<g id="Node000011" class="node">
<title>Node11</title>
<g id="a_Node000011"><a xlink:href="driverModel_8h.html" target="_top" xlink:title=" ">
<polygon fill="white" stroke="#666666" points="1008,-294 886,-294 886,-275 1008,-275 1008,-294"/>
<text text-anchor="middle" x="947" y="-282" font-family="Helvetica,sans-Serif" font-size="10.00">Drivers/driverModel.h</text>
</a>
</g>
</g>
<!-- Node2&#45;&gt;Node11 -->
<g id="edge10_Node000002_Node000011" class="edge">
<title>Node2&#45;&gt;Node11</title>
<g id="a_edge10_Node000002_Node000011"><a xlink:title=" ">
<path fill="none" stroke="#63b8ff" d="M1366.56,-494.99C1307.09,-481.2 1191.98,-450.71 1103,-404 1047.33,-374.77 990.71,-325.96 963.54,-301.09"/>
<polygon fill="#63b8ff" stroke="#63b8ff" points="965.81,-298.42 956.09,-294.19 961.05,-303.55 965.81,-298.42"/>
</a>
</g>
</g>
<!-- Node15 -->
<g id="Node000015" class="node">
<title>Node15</title>
<g id="a_Node000015"><a xlink:href="channel_8h.html" target="_top" xlink:title=" ">
<polygon fill="white" stroke="#666666" points="959.5,-239 852.5,-239 852.5,-220 959.5,-220 959.5,-239"/>
<text text-anchor="middle" x="906" y="-227" font-family="Helvetica,sans-Serif" font-size="10.00">Channel/channel.h</text>
</a>
</g>
</g>
<!-- Node2&#45;&gt;Node15 -->
<g id="edge73_Node000002_Node000015" class="edge">
<title>Node2&#45;&gt;Node15</title>
<g id="a_edge73_Node000002_Node000015"><a xlink:title=" ">
<path fill="none" stroke="#63b8ff" d="M1351.45,-504.18C1212.84,-504.45 858,-495.38 858,-395.5 858,-395.5 858,-395.5 858,-338.5 858,-303.8 878.94,-267.82 893.16,-247.39"/>
<polygon fill="#63b8ff" stroke="#63b8ff" points="896.09,-249.31 899.12,-239.16 890.42,-245.21 896.09,-249.31"/>
</a>
</g>
</g>
<!-- Node20 -->
<g id="Node000020" class="node">
<title>Node20</title>
<g id="a_Node000020"><a xlink:href="transaction_8h_source.html" target="_top" xlink:title=" ">
<polygon fill="white" stroke="#666666" points="671.5,-184 532.5,-184 532.5,-165 671.5,-165 671.5,-184"/>
<text text-anchor="middle" x="602" y="-172" font-family="Helvetica,sans-Serif" font-size="10.00">Transaction/transaction.h</text>
</a>
</g>
</g>
<!-- Node2&#45;&gt;Node20 -->
<g id="edge71_Node000002_Node000020" class="edge">
<title>Node2&#45;&gt;Node20</title>
<g id="a_edge71_Node000002_Node000020"><a xlink:title=" ">
<path fill="none" stroke="#63b8ff" d="M1351.33,-502.5C1159.99,-498.77 527.34,-484.63 440,-459 393.19,-445.26 375.41,-442.15 345,-404 308.49,-358.19 295.34,-329.02 318,-275 331.5,-242.83 343.13,-236.25 374,-220 419.7,-195.94 476.74,-184.82 522.33,-179.71"/>
<polygon fill="#63b8ff" stroke="#63b8ff" points="522.88,-183.17 532.47,-178.65 522.16,-176.21 522.88,-183.17"/>
</a>
</g>
</g>
<!-- Node25 -->
<g id="Node000025" class="node">
<title>Node25</title>
<g id="a_Node000025"><a xlink:href="transDriverModel_8h.html" target="_top" xlink:title=" ">
<polygon fill="white" stroke="#666666" points="598.5,-459 449.5,-459 449.5,-440 598.5,-440 598.5,-459"/>
<text text-anchor="middle" x="524" y="-447" font-family="Helvetica,sans-Serif" font-size="10.00">Drivers/transDriverModel.h</text>
</a>
</g>
</g>
<!-- Node2&#45;&gt;Node25 -->
<g id="edge56_Node000002_Node000025" class="edge">
<title>Node2&#45;&gt;Node25</title>
<g id="a_edge56_Node000002_Node000025"><a xlink:title=" ">
<path fill="none" stroke="#63b8ff" d="M1351.49,-500.22C1202.65,-491.28 788.45,-466.39 608.86,-455.6"/>
<polygon fill="#63b8ff" stroke="#63b8ff" points="608.86,-452.09 598.67,-454.99 608.44,-459.08 608.86,-452.09"/>
</a>
</g>
</g>
<!-- Node26 -->
<g id="Node000026" class="node">
<title>Node26</title>
<g id="a_Node000026"><a xlink:href="simulatorDriver_8h.html" target="_top" xlink:title=" ">
<polygon fill="white" stroke="#666666" points="1252,-404 1112,-404 1112,-385 1252,-385 1252,-404"/>
<text text-anchor="middle" x="1182" y="-392" font-family="Helvetica,sans-Serif" font-size="10.00">Drivers/simulatorDriver.h</text>
</a>
</g>
</g>
<!-- Node2&#45;&gt;Node26 -->
<g id="edge72_Node000002_Node000026" class="edge">
<title>Node2&#45;&gt;Node26</title>
<g id="a_edge72_Node000002_Node000026"><a xlink:title=" ">
<path fill="none" stroke="#63b8ff" d="M1388.05,-494.84C1348.79,-475.92 1255.15,-430.77 1208.85,-408.45"/>
<polygon fill="#63b8ff" stroke="#63b8ff" points="1210.25,-405.24 1199.73,-404.05 1207.21,-411.54 1210.25,-405.24"/>
</a>
</g>
</g>
<!-- Node11&#45;&gt;Node3 -->
<g id="edge13_Node000011_Node000003" class="edge">
<title>Node11&#45;&gt;Node3</title>
<g id="a_edge13_Node000011_Node000003"><a xlink:title=" ">
<path fill="none" stroke="#63b8ff" d="M885.95,-282.74C733.44,-280.37 338.93,-271.23 212,-239 147.34,-222.58 76,-242.21 76,-175.5 76,-175.5 76,-175.5 76,-118.5 76,-70.85 128.93,-38.85 164.48,-22.74"/>
<polygon fill="#63b8ff" stroke="#63b8ff" points="166.21,-25.81 173.99,-18.62 163.42,-19.38 166.21,-25.81"/>
</a>
</g>
</g>
<!-- Node11&#45;&gt;Node4 -->
<g id="edge11_Node000011_Node000004" class="edge">
<title>Node11&#45;&gt;Node4</title>
<g id="a_edge11_Node000011_Node000004"><a xlink:title=" ">
<path fill="none" stroke="#63b8ff" d="M1008.06,-277.91C1042.29,-272.34 1084.33,-261.22 1116,-239 1152.75,-213.21 1177.9,-165.02 1189.56,-138.74"/>
<polygon fill="#63b8ff" stroke="#63b8ff" points="1192.91,-139.81 1193.62,-129.24 1186.47,-137.07 1192.91,-139.81"/>
</a>
</g>
</g>
<!-- Node11&#45;&gt;Node5 -->
<g id="edge16_Node000011_Node000005" class="edge">
<title>Node11&#45;&gt;Node5</title>
<g id="a_edge16_Node000011_Node000005"><a xlink:title=" ">
<path fill="none" stroke="#63b8ff" d="M1008.04,-277.53C1047.47,-271.77 1098.9,-260.57 1140,-239 1218.03,-198.05 1288.63,-117.18 1316.91,-82.23"/>
<polygon fill="#63b8ff" stroke="#63b8ff" points="1319.67,-84.39 1323.17,-74.39 1314.2,-80.02 1319.67,-84.39"/>
</a>
</g>
</g>
<!-- Node11&#45;&gt;Node7 -->
<g id="edge15_Node000011_Node000007" class="edge">
<title>Node11&#45;&gt;Node7</title>
<g id="a_edge15_Node000011_Node000007"><a xlink:title=" ">
<path fill="none" stroke="#63b8ff" d="M984.52,-274.92C1030.39,-261.95 1102,-232.57 1102,-175.5 1102,-175.5 1102,-175.5 1102,-118.5 1102,-86.56 1110.16,-50.1 1115.78,-28.77"/>
<polygon fill="#63b8ff" stroke="#63b8ff" points="1119.17,-29.66 1118.44,-19.09 1112.42,-27.81 1119.17,-29.66"/>
</a>
</g>
</g>
<!-- Node12 -->
<g id="Node000012" class="node">
<title>Node12</title>
<g id="a_Node000012"><a xlink:title=" ">
<polygon fill="#e0e0e0" stroke="#999999" points="960,-129 904,-129 904,-110 960,-110 960,-129"/>
<text text-anchor="middle" x="932" y="-117" font-family="Helvetica,sans-Serif" font-size="10.00">optional</text>
</a>
</g>
</g>
<!-- Node11&#45;&gt;Node12 -->
<g id="edge12_Node000011_Node000012" class="edge">
<title>Node11&#45;&gt;Node12</title>
<g id="a_edge12_Node000011_Node000012"><a xlink:title=" ">
<path fill="none" stroke="#63b8ff" d="M952.58,-274.72C957.74,-266.03 965.05,-252.17 968,-239 969.85,-230.76 969.46,-228.32 968,-220 962.78,-190.25 949.41,-157.66 940.52,-138.16"/>
<polygon fill="#63b8ff" stroke="#63b8ff" points="943.64,-136.58 936.23,-129 937.3,-139.55 943.64,-136.58"/>
</a>
</g>
</g>
<!-- Node13 -->
<g id="Node000013" class="node">
<title>Node13</title>
<g id="a_Node000013"><a xlink:title=" ">
<polygon fill="#e0e0e0" stroke="#999999" points="361.5,-74 320.5,-74 320.5,-55 361.5,-55 361.5,-74"/>
<text text-anchor="middle" x="341" y="-62" font-family="Helvetica,sans-Serif" font-size="10.00">tuple</text>
</a>
</g>
</g>
<!-- Node11&#45;&gt;Node13 -->
<g id="edge14_Node000011_Node000013" class="edge">
<title>Node11&#45;&gt;Node13</title>
<g id="a_edge14_Node000011_Node000013"><a xlink:title=" ">
<path fill="none" stroke="#63b8ff" d="M885.93,-280.39C817.84,-275.79 704.93,-264.73 611,-239 550.89,-222.53 537.47,-212.41 482,-184 439.94,-162.46 426.41,-160.29 391,-129 375.45,-115.26 361.18,-96.21 351.9,-82.56"/>
<polygon fill="#63b8ff" stroke="#63b8ff" points="354.75,-80.53 346.32,-74.11 348.91,-84.38 354.75,-80.53"/>
</a>
</g>
</g>
<!-- Node14 -->
<g id="Node000014" class="node">
<title>Node14</title>
<g id="a_Node000014"><a xlink:title=" ">
<polygon fill="#e0e0e0" stroke="#999999" points="501.5,-74 436.5,-74 436.5,-55 501.5,-55 501.5,-74"/>
<text text-anchor="middle" x="469" y="-62" font-family="Helvetica,sans-Serif" font-size="10.00">functional</text>
</a>
</g>
</g>
<!-- Node11&#45;&gt;Node14 -->
<g id="edge17_Node000011_Node000014" class="edge">
<title>Node11&#45;&gt;Node14</title>
<g id="a_edge17_Node000011_Node000014"><a xlink:title=" ">
<path fill="none" stroke="#63b8ff" d="M885.79,-277.94C800.63,-268.29 643.32,-243.45 523,-184 488.15,-166.78 471.74,-164.08 455,-129 448.02,-114.39 453.26,-96.21 459.21,-83.06"/>
<polygon fill="#63b8ff" stroke="#63b8ff" points="462.34,-84.62 463.72,-74.12 456.09,-81.48 462.34,-84.62"/>
</a>
</g>
</g>
<!-- Node11&#45;&gt;Node15 -->
<g id="edge18_Node000011_Node000015" class="edge">
<title>Node11&#45;&gt;Node15</title>
<g id="a_edge18_Node000011_Node000015"><a xlink:title=" ">
<path fill="none" stroke="#63b8ff" d="M940.23,-274.75C934.44,-267.26 925.94,-256.28 918.86,-247.13"/>
<polygon fill="#63b8ff" stroke="#63b8ff" points="921.53,-244.86 912.64,-239.09 915.99,-249.14 921.53,-244.86"/>
</a>
</g>
</g>
<!-- Node19 -->
<g id="Node000019" class="node">
<title>Node19</title>
<g id="a_Node000019"><a xlink:href="types_8h.html" target="_top" xlink:title=" ">
<polygon fill="white" stroke="#666666" points="862.5,-74 773.5,-74 773.5,-55 862.5,-55 862.5,-74"/>
<text text-anchor="middle" x="818" y="-62" font-family="Helvetica,sans-Serif" font-size="10.00">Library/types.h</text>
</a>
</g>
</g>
<!-- Node11&#45;&gt;Node19 -->
<g id="edge54_Node000011_Node000019" class="edge">
<title>Node11&#45;&gt;Node19</title>
<g id="a_edge54_Node000011_Node000019"><a xlink:title=" ">
<path fill="none" stroke="#63b8ff" d="M957.16,-274.81C965.9,-266.6 977.9,-253.43 983,-239 996,-202.25 1025.16,-175.95 969,-110 945.39,-82.28 905.47,-71.36 872.6,-67.26"/>
<polygon fill="#63b8ff" stroke="#63b8ff" points="872.96,-63.78 862.65,-66.2 872.22,-70.74 872.96,-63.78"/>
</a>
</g>
</g>
<!-- Node11&#45;&gt;Node20 -->
<g id="edge53_Node000011_Node000020" class="edge">
<title>Node11&#45;&gt;Node20</title>
<g id="a_edge53_Node000011_Node000020"><a xlink:title=" ">
<path fill="none" stroke="#63b8ff" d="M919.64,-274.94C858.12,-255.68 708.81,-208.94 639.06,-187.1"/>
<polygon fill="#63b8ff" stroke="#63b8ff" points="639.95,-183.71 629.36,-184.07 637.86,-190.39 639.95,-183.71"/>
</a>
</g>
</g>
<!-- Node22 -->
<g id="Node000022" class="node">
<title>Node22</title>
<g id="a_Node000022"><a xlink:href="error_8h.html" target="_top" xlink:title=" ">
<polygon fill="white" stroke="#666666" points="189.5,-129 104.5,-129 104.5,-110 189.5,-110 189.5,-129"/>
<text text-anchor="middle" x="147" y="-117" font-family="Helvetica,sans-Serif" font-size="10.00">Library/error.h</text>
</a>
</g>
</g>
<!-- Node11&#45;&gt;Node22 -->
<g id="edge55_Node000011_Node000022" class="edge">
<title>Node11&#45;&gt;Node22</title>
<g id="a_edge55_Node000011_Node000022"><a xlink:title=" ">
<path fill="none" stroke="#63b8ff" d="M885.88,-282.45C725.02,-279.31 298.36,-268.27 242,-239 199.05,-216.69 168.85,-165.45 155.2,-138.24"/>
<polygon fill="#63b8ff" stroke="#63b8ff" points="158.28,-136.58 150.79,-129.1 151.98,-139.62 158.28,-136.58"/>
</a>
</g>
</g>
<!-- Node15&#45;&gt;Node3 -->
<g id="edge21_Node000015_Node000003" class="edge">
<title>Node15&#45;&gt;Node3</title>
<g id="a_edge21_Node000015_Node000003"><a xlink:title=" ">
<path fill="none" stroke="#63b8ff" d="M852.11,-225.91C752.88,-220.65 545.13,-207.2 477,-184 367.83,-146.82 256.74,-60.96 214.14,-25.86"/>
<polygon fill="#63b8ff" stroke="#63b8ff" points="216.26,-23.07 206.34,-19.37 211.78,-28.45 216.26,-23.07"/>
</a>
</g>
</g>
<!-- Node15&#45;&gt;Node4 -->
<g id="edge20_Node000015_Node000004" class="edge">
<title>Node15&#45;&gt;Node4</title>
<g id="a_edge20_Node000015_Node000004"><a xlink:title=" ">
<path fill="none" stroke="#63b8ff" d="M929.32,-219.84C980.96,-200.68 1105.04,-154.63 1164.35,-132.62"/>
<polygon fill="#63b8ff" stroke="#63b8ff" points="1165.81,-135.81 1173.97,-129.05 1163.38,-129.25 1165.81,-135.81"/>
</a>
</g>
</g>
<!-- Node15&#45;&gt;Node5 -->
<g id="edge25_Node000015_Node000005" class="edge">
<title>Node15&#45;&gt;Node5</title>
<g id="a_edge25_Node000015_Node000005"><a xlink:title=" ">
<path fill="none" stroke="#63b8ff" d="M921.87,-219.92C945.29,-207.36 990.58,-183.47 1030,-165 1086.44,-138.56 1100.01,-130.13 1159,-110 1206.23,-93.89 1262.48,-80.28 1297.22,-72.51"/>
<polygon fill="#63b8ff" stroke="#63b8ff" points="1298.27,-75.86 1307.28,-70.28 1296.76,-69.02 1298.27,-75.86"/>
</a>
</g>
</g>
<!-- Node15&#45;&gt;Node6 -->
<g id="edge26_Node000015_Node000006" class="edge">
<title>Node15&#45;&gt;Node6</title>
<g id="a_edge26_Node000015_Node000006"><a xlink:title=" ">
<path fill="none" stroke="#63b8ff" d="M917.11,-219.74C940.85,-199.92 992.54,-150.21 969,-110 934.21,-50.58 851.3,-25.61 804.55,-15.97"/>
<polygon fill="#63b8ff" stroke="#63b8ff" points="805.08,-12.51 794.6,-14.03 803.75,-19.38 805.08,-12.51"/>
</a>
</g>
</g>
<!-- Node15&#45;&gt;Node7 -->
<g id="edge23_Node000015_Node000007" class="edge">
<title>Node15&#45;&gt;Node7</title>
<g id="a_edge23_Node000015_Node000007"><a xlink:title=" ">
<path fill="none" stroke="#63b8ff" d="M928.23,-219.87C973.08,-201.12 1073.71,-151.99 1116,-74 1123.34,-60.47 1124.17,-42.87 1123.41,-29.64"/>
<polygon fill="#63b8ff" stroke="#63b8ff" points="1126.86,-28.97 1122.45,-19.34 1119.89,-29.62 1126.86,-28.97"/>
</a>
</g>
</g>
<!-- Node15&#45;&gt;Node13 -->
<g id="edge22_Node000015_Node000013" class="edge">
<title>Node15&#45;&gt;Node13</title>
<g id="a_edge22_Node000015_Node000013"><a xlink:title=" ">
<path fill="none" stroke="#63b8ff" d="M852.2,-229C776.74,-228.19 636.02,-221.2 523,-184 455.24,-161.7 388.22,-107.63 357.86,-80.93"/>
<polygon fill="#63b8ff" stroke="#63b8ff" points="360.09,-78.23 350.3,-74.18 355.43,-83.45 360.09,-78.23"/>
</a>
</g>
</g>
<!-- Node16 -->
<g id="Node000016" class="node">
<title>Node16</title>
<g id="a_Node000016"><a xlink:title=" ">
<polygon fill="#e0e0e0" stroke="#999999" points="781.5,-184 728.5,-184 728.5,-165 781.5,-165 781.5,-184"/>
<text text-anchor="middle" x="755" y="-172" font-family="Helvetica,sans-Serif" font-size="10.00">iterator</text>
</a>
</g>
</g>
<!-- Node15&#45;&gt;Node16 -->
<g id="edge19_Node000015_Node000016" class="edge">
<title>Node15&#45;&gt;Node16</title>
<g id="a_edge19_Node000015_Node000016"><a xlink:title=" ">
<path fill="none" stroke="#63b8ff" d="M881.74,-219.98C856.68,-211.19 817.37,-197.39 789.17,-187.49"/>
<polygon fill="#63b8ff" stroke="#63b8ff" points="790.3,-184.18 779.7,-184.17 787.98,-190.78 790.3,-184.18"/>
</a>
</g>
</g>
<!-- Node17 -->
<g id="Node000017" class="node">
<title>Node17</title>
<g id="a_Node000017"><a xlink:title=" ">
<polygon fill="#e0e0e0" stroke="#999999" points="639,-74 601,-74 601,-55 639,-55 639,-74"/>
<text text-anchor="middle" x="620" y="-62" font-family="Helvetica,sans-Serif" font-size="10.00">map</text>
</a>
</g>
</g>
<!-- Node15&#45;&gt;Node17 -->
<g id="edge24_Node000015_Node000017" class="edge">
<title>Node15&#45;&gt;Node17</title>
<g id="a_edge24_Node000015_Node000017"><a xlink:title=" ">
<path fill="none" stroke="#63b8ff" d="M858.33,-219.93C806.19,-210.14 728.68,-194.14 719,-184 695.89,-159.79 724.93,-136.89 705,-110 691.3,-91.51 667.63,-80.02 648.74,-73.35"/>
<polygon fill="#63b8ff" stroke="#63b8ff" points="649.7,-69.98 639.1,-70.21 647.53,-76.64 649.7,-69.98"/>
</a>
</g>
</g>
<!-- Node18 -->
<g id="Node000018" class="node">
<title>Node18</title>
<g id="a_Node000018"><a xlink:title=" ">
<polygon fill="#e0e0e0" stroke="#999999" points="846,-184 800,-184 800,-165 846,-165 846,-184"/>
<text text-anchor="middle" x="823" y="-172" font-family="Helvetica,sans-Serif" font-size="10.00">future</text>
</a>
</g>
</g>
<!-- Node15&#45;&gt;Node18 -->
<g id="edge27_Node000015_Node000018" class="edge">
<title>Node15&#45;&gt;Node18</title>
<g id="a_edge27_Node000015_Node000018"><a xlink:title=" ">
<path fill="none" stroke="#63b8ff" d="M892.66,-219.98C879.91,-211.84 860.45,-199.41 845.33,-189.76"/>
<polygon fill="#63b8ff" stroke="#63b8ff" points="846.89,-186.6 836.58,-184.17 843.12,-192.5 846.89,-186.6"/>
</a>
</g>
</g>
<!-- Node15&#45;&gt;Node19 -->
<g id="edge28_Node000015_Node000019" class="edge">
<title>Node15&#45;&gt;Node19</title>
<g id="a_edge28_Node000015_Node000019"><a xlink:title=" ">
<path fill="none" stroke="#63b8ff" d="M901.27,-219.74C887.36,-193.98 846.42,-118.13 827.62,-83.33"/>
<polygon fill="#63b8ff" stroke="#63b8ff" points="830.59,-81.44 822.75,-74.31 824.43,-84.77 830.59,-81.44"/>
</a>
</g>
</g>
<!-- Node15&#45;&gt;Node20 -->
<g id="edge32_Node000015_Node000020" class="edge">
<title>Node15&#45;&gt;Node20</title>
<g id="a_edge32_Node000015_Node000020"><a xlink:title=" ">
<path fill="none" stroke="#63b8ff" d="M857.16,-219.98C803.72,-210.67 718.08,-195.74 660.94,-185.78"/>
<polygon fill="#63b8ff" stroke="#63b8ff" points="661.43,-182.31 650.97,-184.04 660.22,-189.2 661.43,-182.31"/>
</a>
</g>
</g>
<!-- Node19&#45;&gt;Node3 -->
<g id="edge31_Node000019_Node000003" class="edge">
<title>Node19&#45;&gt;Node3</title>
<g id="a_edge31_Node000019_Node000003"><a xlink:title=" ">
<path fill="none" stroke="#63b8ff" d="M773.27,-59.69C654.22,-49.54 331.7,-22.06 228.34,-13.26"/>
<polygon fill="#63b8ff" stroke="#63b8ff" points="228.47,-9.75 218.21,-12.39 227.88,-16.73 228.47,-9.75"/>
</a>
</g>
</g>
<!-- Node19&#45;&gt;Node6 -->
<g id="edge29_Node000019_Node000006" class="edge">
<title>Node19&#45;&gt;Node6</title>
<g id="a_edge29_Node000019_Node000006"><a xlink:title=" ">
<path fill="none" stroke="#63b8ff" d="M810.24,-54.75C803.53,-47.18 793.66,-36.05 785.49,-26.84"/>
<polygon fill="#63b8ff" stroke="#63b8ff" points="787.87,-24.25 778.62,-19.09 782.63,-28.89 787.87,-24.25"/>
</a>
</g>
</g>
<!-- Node19&#45;&gt;Node7 -->
<g id="edge30_Node000019_Node000007" class="edge">
<title>Node19&#45;&gt;Node7</title>
<g id="a_edge30_Node000019_Node000007"><a xlink:title=" ">
<path fill="none" stroke="#63b8ff" d="M862.71,-55.68C916.13,-46.34 1005.59,-30.69 1063.95,-20.48"/>
<polygon fill="#63b8ff" stroke="#63b8ff" points="1064.87,-23.87 1074.11,-18.7 1063.66,-16.98 1064.87,-23.87"/>
</a>
</g>
</g>
<!-- Node20&#45;&gt;Node3 -->
<g id="edge33_Node000020_Node000003" class="edge">
<title>Node20&#45;&gt;Node3</title>
<g id="a_edge33_Node000020_Node000003"><a xlink:title=" ">
<path fill="none" stroke="#63b8ff" d="M556.63,-164.98C526.53,-158.1 486.85,-146.61 455,-129 411.17,-104.76 414.35,-78.28 370,-55 324.02,-30.86 264.21,-19.3 228.04,-14.16"/>
<polygon fill="#63b8ff" stroke="#63b8ff" points="228.43,-10.68 218.05,-12.82 227.5,-17.62 228.43,-10.68"/>
</a>
</g>
</g>
<!-- Node20&#45;&gt;Node4 -->
<g id="edge36_Node000020_Node000004" class="edge">
<title>Node20&#45;&gt;Node4</title>
<g id="a_edge36_Node000020_Node000004"><a xlink:title=" ">
<path fill="none" stroke="#63b8ff" d="M671.71,-167.29C797.55,-156.08 1058.76,-132.81 1157.79,-123.99"/>
<polygon fill="#63b8ff" stroke="#63b8ff" points="1158.3,-127.46 1167.95,-123.09 1157.68,-120.49 1158.3,-127.46"/>
</a>
</g>
</g>
<!-- Node20&#45;&gt;Node5 -->
<g id="edge34_Node000020_Node000005" class="edge">
<title>Node20&#45;&gt;Node5</title>
<g id="a_edge34_Node000020_Node000005"><a xlink:title=" ">
<path fill="none" stroke="#63b8ff" d="M635.61,-164.94C689.84,-151.41 800.16,-125.08 895,-110 1044.04,-86.3 1223.92,-72.57 1296.87,-67.62"/>
<polygon fill="#63b8ff" stroke="#63b8ff" points="1297.5,-71.09 1307.24,-66.93 1297.03,-64.1 1297.5,-71.09"/>
</a>
</g>
</g>
<!-- Node20&#45;&gt;Node6 -->
<g id="edge35_Node000020_Node000006" class="edge">
<title>Node20&#45;&gt;Node6</title>
<g id="a_edge35_Node000020_Node000006"><a xlink:title=" ">
<path fill="none" stroke="#63b8ff" d="M636.21,-164.9C657.92,-158.05 685.5,-146.64 705,-129 736.18,-100.81 755.96,-54.32 765.09,-28.75"/>
<polygon fill="#63b8ff" stroke="#63b8ff" points="768.43,-29.79 768.35,-19.19 761.81,-27.53 768.43,-29.79"/>
</a>
</g>
</g>
<!-- Node20&#45;&gt;Node12 -->
<g id="edge39_Node000020_Node000012" class="edge">
<title>Node20&#45;&gt;Node12</title>
<g id="a_edge39_Node000020_Node000012"><a xlink:title=" ">
<path fill="none" stroke="#63b8ff" d="M662.54,-164.98C720.91,-156.57 811.68,-142.97 890,-129 891.1,-128.8 892.21,-128.6 893.34,-128.39"/>
<polygon fill="#63b8ff" stroke="#63b8ff" points="894.4,-131.75 903.57,-126.44 893.09,-124.88 894.4,-131.75"/>
</a>
</g>
</g>
<!-- Node20&#45;&gt;Node14 -->
<g id="edge40_Node000020_Node000014" class="edge">
<title>Node20&#45;&gt;Node14</title>
<g id="a_edge40_Node000020_Node000014"><a xlink:title=" ">
<path fill="none" stroke="#63b8ff" d="M532.42,-167.74C507,-161.87 480.66,-150.55 465,-129 455.68,-116.17 458.07,-97.75 461.97,-84.05"/>
<polygon fill="#63b8ff" stroke="#63b8ff" points="465.39,-84.87 465.23,-74.27 458.75,-82.66 465.39,-84.87"/>
</a>
</g>
</g>
<!-- Node20&#45;&gt;Node17 -->
<g id="edge38_Node000020_Node000017" class="edge">
<title>Node20&#45;&gt;Node17</title>
<g id="a_edge38_Node000020_Node000017"><a xlink:title=" ">
<path fill="none" stroke="#63b8ff" d="M603.47,-164.66C606.39,-147.17 612.95,-107.8 616.87,-84.27"/>
<polygon fill="#63b8ff" stroke="#63b8ff" points="620.37,-84.6 618.56,-74.16 613.46,-83.45 620.37,-84.6"/>
</a>
</g>
</g>
<!-- Node20&#45;&gt;Node19 -->
<g id="edge41_Node000020_Node000019" class="edge">
<title>Node20&#45;&gt;Node19</title>
<g id="a_edge41_Node000020_Node000019"><a xlink:title=" ">
<path fill="none" stroke="#63b8ff" d="M639.81,-164.98C667.95,-157.74 706.71,-145.83 738,-129 762.24,-115.96 786.5,-95.38 801.85,-81.2"/>
<polygon fill="#63b8ff" stroke="#63b8ff" points="804.53,-83.49 809.39,-74.08 799.72,-78.4 804.53,-83.49"/>
</a>
</g>
</g>
<!-- Node21 -->
<g id="Node000021" class="node">
<title>Node21</title>
<g id="a_Node000021"><a xlink:title=" ">
<polygon fill="#e0e0e0" stroke="#999999" points="696,-129 648,-129 648,-110 696,-110 696,-129"/>
<text text-anchor="middle" x="672" y="-117" font-family="Helvetica,sans-Serif" font-size="10.00">mutex</text>
</a>
</g>
</g>
<!-- Node20&#45;&gt;Node21 -->
<g id="edge37_Node000020_Node000021" class="edge">
<title>Node20&#45;&gt;Node21</title>
<g id="a_edge37_Node000020_Node000021"><a xlink:title=" ">
<path fill="none" stroke="#63b8ff" d="M613.25,-164.98C623.8,-157 639.8,-144.88 652.44,-135.31"/>
<polygon fill="#63b8ff" stroke="#63b8ff" points="654.69,-138 660.55,-129.17 650.46,-132.42 654.69,-138"/>
</a>
</g>
</g>
<!-- Node20&#45;&gt;Node22 -->
<g id="edge42_Node000020_Node000022" class="edge">
<title>Node20&#45;&gt;Node22</title>
<g id="a_edge42_Node000020_Node000022"><a xlink:title=" ">
<path fill="none" stroke="#63b8ff" d="M532.4,-165.39C440.85,-154.73 281.97,-136.22 199.72,-126.64"/>
<polygon fill="#63b8ff" stroke="#63b8ff" points="199.94,-123.14 189.6,-125.46 199.13,-130.1 199.94,-123.14"/>
</a>
</g>
</g>
<!-- Node24 -->
<g id="Node000024" class="node">
<title>Node24</title>
<g id="a_Node000024"><a xlink:href="evaluate_8h.html" target="_top" xlink:title=" ">
<polygon fill="white" stroke="#666666" points="592,-129 474,-129 474,-110 592,-110 592,-129"/>
<text text-anchor="middle" x="533" y="-117" font-family="Helvetica,sans-Serif" font-size="10.00">Evaluator/evaluate.h</text>
</a>
</g>
</g>
<!-- Node20&#45;&gt;Node24 -->
<g id="edge45_Node000020_Node000024" class="edge">
<title>Node20&#45;&gt;Node24</title>
<g id="a_edge45_Node000020_Node000024"><a xlink:title=" ">
<path fill="none" stroke="#63b8ff" d="M590.91,-164.98C580.51,-157 564.74,-144.88 552.28,-135.31"/>
<polygon fill="#63b8ff" stroke="#63b8ff" points="554.35,-132.49 544.29,-129.17 550.09,-138.04 554.35,-132.49"/>
</a>
</g>
</g>
<!-- Node22&#45;&gt;Node3 -->
<g id="edge43_Node000022_Node000003" class="edge">
<title>Node22&#45;&gt;Node3</title>
<g id="a_edge43_Node000022_Node000003"><a xlink:title=" ">
<path fill="none" stroke="#63b8ff" d="M146.87,-109.84C147,-97.2 148.48,-73.19 157,-55 162.03,-44.25 170.46,-34.15 178.2,-26.29"/>
<polygon fill="#63b8ff" stroke="#63b8ff" points="180.76,-28.69 185.55,-19.24 175.91,-23.63 180.76,-28.69"/>
</a>
</g>
</g>
<!-- Node23 -->
<g id="Node000023" class="node">
<title>Node23</title>
<g id="a_Node000023"><a xlink:title=" ">
<polygon fill="#e0e0e0" stroke="#999999" points="226,-74 166,-74 166,-55 226,-55 226,-74"/>
<text text-anchor="middle" x="196" y="-62" font-family="Helvetica,sans-Serif" font-size="10.00">iostream</text>
</a>
</g>
</g>
<!-- Node22&#45;&gt;Node23 -->
<g id="edge44_Node000022_Node000023" class="edge">
<title>Node22&#45;&gt;Node23</title>
<g id="a_edge44_Node000022_Node000023"><a xlink:title=" ">
<path fill="none" stroke="#63b8ff" d="M155.09,-109.75C162.16,-102.11 172.59,-90.82 181.15,-81.56"/>
<polygon fill="#63b8ff" stroke="#63b8ff" points="183.84,-83.81 188.06,-74.09 178.7,-79.06 183.84,-83.81"/>
</a>
</g>
</g>
<!-- Node24&#45;&gt;Node3 -->
<g id="edge48_Node000024_Node000003" class="edge">
<title>Node24&#45;&gt;Node3</title>
<g id="a_edge48_Node000024_Node000003"><a xlink:title=" ">
<path fill="none" stroke="#63b8ff" d="M532.58,-109.94C531.4,-96.04 526.93,-68.75 510,-55 467.31,-20.34 300.08,-12.67 228.64,-10.98"/>
<polygon fill="#63b8ff" stroke="#63b8ff" points="228.5,-7.48 218.42,-10.76 228.35,-14.48 228.5,-7.48"/>
</a>
</g>
</g>
<!-- Node24&#45;&gt;Node5 -->
<g id="edge46_Node000024_Node000005" class="edge">
<title>Node24&#45;&gt;Node5</title>
<g id="a_edge46_Node000024_Node000005"><a xlink:title=" ">
<path fill="none" stroke="#63b8ff" d="M592.14,-113.59C607.4,-112.37 623.81,-111.1 639,-110 892.35,-91.69 1198.23,-73.29 1297.33,-67.42"/>
<polygon fill="#63b8ff" stroke="#63b8ff" points="1297.55,-70.91 1307.32,-66.83 1297.14,-63.93 1297.55,-70.91"/>
</a>
</g>
</g>
<!-- Node24&#45;&gt;Node6 -->
<g id="edge47_Node000024_Node000006" class="edge">
<title>Node24&#45;&gt;Node6</title>
<g id="a_edge47_Node000024_Node000006"><a xlink:title=" ">
<path fill="none" stroke="#63b8ff" d="M538.72,-109.59C548.1,-95.72 568.15,-69.07 592,-55 637.89,-27.94 699.73,-17.25 737.41,-13.09"/>
<polygon fill="#63b8ff" stroke="#63b8ff" points="737.76,-16.57 747.36,-12.08 737.06,-9.61 737.76,-16.57"/>
</a>
</g>
</g>
<!-- Node24&#45;&gt;Node13 -->
<g id="edge50_Node000024_Node000013" class="edge">
<title>Node24&#45;&gt;Node13</title>
<g id="a_edge50_Node000024_Node000013"><a xlink:title=" ">
<path fill="none" stroke="#63b8ff" d="M502.15,-109.98C466.26,-100.08 407.37,-83.82 371.59,-73.94"/>
<polygon fill="#63b8ff" stroke="#63b8ff" points="372.28,-70.5 361.71,-71.22 370.42,-77.25 372.28,-70.5"/>
</a>
</g>
</g>
<!-- Node24&#45;&gt;Node14 -->
<g id="edge49_Node000024_Node000014" class="edge">
<title>Node24&#45;&gt;Node14</title>
<g id="a_edge49_Node000024_Node000014"><a xlink:title=" ">
<path fill="none" stroke="#63b8ff" d="M522.72,-109.98C513.16,-102.07 498.72,-90.11 487.22,-80.58"/>
<polygon fill="#63b8ff" stroke="#63b8ff" points="489.4,-77.85 479.47,-74.17 484.94,-83.24 489.4,-77.85"/>
</a>
</g>
</g>
<!-- Node24&#45;&gt;Node17 -->
<g id="edge51_Node000024_Node000017" class="edge">
<title>Node24&#45;&gt;Node17</title>
<g id="a_edge51_Node000024_Node000017"><a xlink:title=" ">
<path fill="none" stroke="#63b8ff" d="M546.98,-109.98C560.47,-101.77 581.13,-89.18 597.04,-79.49"/>
<polygon fill="#63b8ff" stroke="#63b8ff" points="599.05,-82.36 605.77,-74.17 595.41,-76.38 599.05,-82.36"/>
</a>
</g>
</g>
<!-- Node24&#45;&gt;Node19 -->
<g id="edge52_Node000024_Node000019" class="edge">
<title>Node24&#45;&gt;Node19</title>
<g id="a_edge52_Node000024_Node000019"><a xlink:title=" ">
<path fill="none" stroke="#63b8ff" d="M578.79,-109.98C629.05,-100.64 709.7,-85.64 763.26,-75.68"/>
<polygon fill="#63b8ff" stroke="#63b8ff" points="764.07,-79.09 773.26,-73.82 762.79,-72.21 764.07,-79.09"/>
</a>
</g>
</g>
<!-- Node25&#45;&gt;Node3 -->
<g id="edge57_Node000025_Node000003" class="edge">
<title>Node25&#45;&gt;Node3</title>
<g id="a_edge57_Node000025_Node000003"><a xlink:title=" ">
<path fill="none" stroke="#63b8ff" d="M449.36,-440.45C376.17,-431.97 270.07,-417.93 231,-404 105.78,-359.37 38,-308.43 38,-175.5 38,-175.5 38,-175.5 38,-118.5 38,-58.11 117.64,-29.03 163.84,-17.24"/>
<polygon fill="#63b8ff" stroke="#63b8ff" points="164.8,-20.61 173.7,-14.86 163.16,-13.81 164.8,-20.61"/>
</a>
</g>
</g>
<!-- Node25&#45;&gt;Node6 -->
<g id="edge58_Node000025_Node000006" class="edge">
<title>Node25&#45;&gt;Node6</title>
<g id="a_edge58_Node000025_Node000006"><a xlink:title=" ">
<path fill="none" stroke="#63b8ff" d="M476.01,-439.99C373.41,-421.15 142,-374.83 142,-340.5 142,-340.5 142,-340.5 142,-283.5 142,-157.19 201.08,-117.24 311,-55 383.94,-13.7 644.26,-10.17 737.49,-10.27"/>
<polygon fill="#63b8ff" stroke="#63b8ff" points="737.49,-13.77 747.5,-10.3 737.51,-6.77 737.49,-13.77"/>
</a>
</g>
</g>
<!-- Node25&#45;&gt;Node11 -->
<g id="edge59_Node000025_Node000011" class="edge">
<title>Node25&#45;&gt;Node11</title>
<g id="a_edge59_Node000025_Node000011"><a xlink:title=" ">
<path fill="none" stroke="#63b8ff" d="M546.15,-439.97C616.23,-412.96 833.39,-329.28 915.3,-297.72"/>
<polygon fill="#63b8ff" stroke="#63b8ff" points="916.75,-300.91 924.82,-294.05 914.23,-294.38 916.75,-300.91"/>
</a>
</g>
</g>
<!-- Node25&#45;&gt;Node20 -->
<g id="edge70_Node000025_Node000020" class="edge">
<title>Node25&#45;&gt;Node20</title>
<g id="a_edge70_Node000025_Node000020"><a xlink:title=" ">
<path fill="none" stroke="#63b8ff" d="M462.46,-439.98C406.3,-428.33 332,-401.41 332,-340.5 332,-340.5 332,-340.5 332,-283.5 332,-237.75 467.34,-202.64 546.38,-186.04"/>
<polygon fill="#63b8ff" stroke="#63b8ff" points="547.11,-189.47 556.2,-184.02 545.7,-182.61 547.11,-189.47"/>
</a>
</g>
</g>
<!-- Node25&#45;&gt;Node26 -->
<g id="edge60_Node000025_Node000026" class="edge">
<title>Node25&#45;&gt;Node26</title>
<g id="a_edge60_Node000025_Node000026"><a xlink:title=" ">
<path fill="none" stroke="#63b8ff" d="M598.52,-442.5C723.17,-432.46 972.92,-412.34 1101.47,-401.99"/>
<polygon fill="#63b8ff" stroke="#63b8ff" points="1101.95,-405.46 1111.64,-401.17 1101.39,-398.48 1101.95,-405.46"/>
</a>
</g>
</g>
<!-- Node26&#45;&gt;Node5 -->
<g id="edge61_Node000026_Node000005" class="edge">
<title>Node26&#45;&gt;Node5</title>
<g id="a_edge61_Node000026_Node000005"><a xlink:title=" ">
<path fill="none" stroke="#63b8ff" d="M1199.86,-384.89C1214.95,-377.01 1236.52,-364.27 1252,-349 1292.26,-309.27 1295.18,-291.59 1316,-239 1337.5,-184.7 1348.06,-167.97 1341,-110 1339.94,-101.31 1337.76,-91.87 1335.62,-83.93"/>
<polygon fill="#63b8ff" stroke="#63b8ff" points="1338.96,-82.89 1332.83,-74.25 1332.23,-84.83 1338.96,-82.89"/>
</a>
</g>
</g>
<!-- Node26&#45;&gt;Node11 -->
<g id="edge62_Node000026_Node000011" class="edge">
<title>Node26&#45;&gt;Node11</title>
<g id="a_edge62_Node000026_Node000011"><a xlink:title=" ">
<path fill="none" stroke="#63b8ff" d="M1163.17,-384.84C1121.9,-365.88 1023.33,-320.58 974.86,-298.31"/>
<polygon fill="#63b8ff" stroke="#63b8ff" points="976.15,-295.04 965.6,-294.05 973.22,-301.4 976.15,-295.04"/>
</a>
</g>
</g>
<!-- Node27 -->
<g id="Node000027" class="node">
<title>Node27</title>
<g id="a_Node000027"><a xlink:href="simulator_8h.html" target="_top" xlink:title=" ">
<polygon fill="white" stroke="#666666" points="1243,-349 1121,-349 1121,-330 1243,-330 1243,-349"/>
<text text-anchor="middle" x="1182" y="-337" font-family="Helvetica,sans-Serif" font-size="10.00">Simulator/simulator.h</text>
</a>
</g>
</g>
<!-- Node26&#45;&gt;Node27 -->
<g id="edge63_Node000026_Node000027" class="edge">
<title>Node26&#45;&gt;Node27</title>
<g id="a_edge63_Node000026_Node000027"><a xlink:title=" ">
<path fill="none" stroke="#63b8ff" d="M1182,-384.75C1182,-377.8 1182,-367.85 1182,-359.13"/>
<polygon fill="#63b8ff" stroke="#63b8ff" points="1185.5,-359.09 1182,-349.09 1178.5,-359.09 1185.5,-359.09"/>
</a>
</g>
</g>
<!-- Node27&#45;&gt;Node4 -->
<g id="edge64_Node000027_Node000004" class="edge">
<title>Node27&#45;&gt;Node4</title>
<g id="a_edge64_Node000027_Node000004"><a xlink:title=" ">
<path fill="none" stroke="#63b8ff" d="M1182.59,-329.95C1184.79,-297.95 1192.58,-184.68 1195.7,-139.4"/>
<polygon fill="#63b8ff" stroke="#63b8ff" points="1199.2,-139.44 1196.4,-129.22 1192.22,-138.96 1199.2,-139.44"/>
</a>
</g>
</g>
<!-- Node27&#45;&gt;Node5 -->
<g id="edge65_Node000027_Node000005" class="edge">
<title>Node27&#45;&gt;Node5</title>
<g id="a_edge65_Node000027_Node000005"><a xlink:title=" ">
<path fill="none" stroke="#63b8ff" d="M1211.92,-329.91C1230.61,-323.07 1253.75,-311.66 1268,-294 1319.68,-229.97 1328.45,-126.36 1329.81,-84.22"/>
<polygon fill="#63b8ff" stroke="#63b8ff" points="1333.32,-84.12 1330.03,-74.05 1326.32,-83.97 1333.32,-84.12"/>
</a>
</g>
</g>
<!-- Node27&#45;&gt;Node11 -->
<g id="edge67_Node000027_Node000011" class="edge">
<title>Node27&#45;&gt;Node11</title>
<g id="a_edge67_Node000027_Node000011"><a xlink:title=" ">
<path fill="none" stroke="#63b8ff" d="M1144.24,-329.98C1103.68,-320.84 1039.11,-306.27 994.97,-296.32"/>
<polygon fill="#63b8ff" stroke="#63b8ff" points="995.58,-292.87 985.05,-294.08 994.04,-299.7 995.58,-292.87"/>
</a>
</g>
</g>
<!-- Node27&#45;&gt;Node15 -->
<g id="edge68_Node000027_Node000015" class="edge">
<title>Node27&#45;&gt;Node15</title>
<g id="a_edge68_Node000027_Node000015"><a xlink:title=" ">
<path fill="none" stroke="#63b8ff" d="M1166.09,-329.89C1141.62,-316.87 1093.08,-291.91 1050,-275 1016.45,-261.83 977.31,-249.95 948.31,-241.78"/>
<polygon fill="#63b8ff" stroke="#63b8ff" points="949.07,-238.36 938.5,-239.05 947.2,-245.1 949.07,-238.36"/>
</a>
</g>
</g>
<!-- Node27&#45;&gt;Node19 -->
<g id="edge66_Node000027_Node000019" class="edge">
<title>Node27&#45;&gt;Node19</title>
<g id="a_edge66_Node000027_Node000019"><a xlink:title=" ">
<path fill="none" stroke="#63b8ff" d="M1192.94,-330C1213.08,-313.29 1254,-273.99 1254,-230.5 1254,-230.5 1254,-230.5 1254,-173.5 1254,-144.04 1257.66,-128.82 1235,-110 1207.7,-87.32 980.02,-73.37 873.09,-68.01"/>
<polygon fill="#63b8ff" stroke="#63b8ff" points="872.98,-64.5 862.82,-67.51 872.63,-71.49 872.98,-64.5"/>
</a>
</g>
</g>
<!-- Node27&#45;&gt;Node20 -->
<g id="edge69_Node000027_Node000020" class="edge">
<title>Node27&#45;&gt;Node20</title>
<g id="a_edge69_Node000027_Node000020"><a xlink:title=" ">
<path fill="none" stroke="#63b8ff" d="M1151.2,-330C1124.03,-322.05 1083.62,-309.17 1050,-294 1034.57,-287.04 1032.82,-281.01 1017,-275 943.18,-246.94 919.09,-260.15 843,-239 818.49,-232.19 813.41,-227.18 789,-220 743.64,-206.66 691.21,-194.46 653.43,-186.22"/>
<polygon fill="#63b8ff" stroke="#63b8ff" points="653.7,-182.69 643.18,-184 652.22,-189.54 653.7,-182.69"/>
</a>
</g>
</g>
</g>
</svg>
