<?xml version="1.0" encoding="UTF-8" standalone="no"?>
<!DOCTYPE svg PUBLIC "-//W3C//DTD SVG 1.1//EN"
 "http://www.w3.org/Graphics/SVG/1.1/DTD/svg11.dtd">
<!-- Generated by graphviz version 2.43.0 (0)
 -->
<!-- Title: include/Drivers/dutDriver.h Pages: 1 -->
<!--zoomable 302 -->

<svg id="main" version="1.1" xmlns="http://www.w3.org/2000/svg" xmlns:xlink="http://www.w3.org/1999/xlink" xml:space="preserve" onload="init(evt)">
<style type="text/css"><![CDATA[
.node, .edge {opacity: 0.7;}
.node.selected, .edge.selected {opacity: 1;}
.edge:hover path { stroke: red; }
.edge:hover polygon { stroke: red; fill: red; }
]]></style>

<defs>
  <circle id="rim" cx="0" cy="0" r="7"/>
  <circle id="rim2" cx="0" cy="0" r="3.5"/>
  <g id="zoomPlus">
    <use xlink:href="#rim" fill="#404040"><set attributeName="fill" to="#808080" begin="zoomplus.mouseover" end="zoomplus.mouseout"/></use>
    <path d="M-4,0h8M0,-4v8" fill="none" stroke="white" stroke-width="1.5" pointer-events="none"/>
  </g>
  <g id="zoomMin">
    <use xlink:href="#rim" fill="#404040"><set attributeName="fill" to="#808080" begin="zoomminus.mouseover" end="zoomminus.mouseout"/></use>
    <path d="M-4,0h8" fill="none" stroke="white" stroke-width="1.5" pointer-events="none"/>
  </g>
  <g id="arrowUp" transform="translate(30 24)">
    <use xlink:href="#rim"/>
    <path pointer-events="none" fill="none" stroke="white" stroke-width="1.5" d="M0,-3.0v7 M-2.5,-0.5L0,-3.0L2.5,-0.5"/>
  </g>
  <g id="arrowRight" transform="rotate(90) translate(36 -43)">
    <use xlink:href="#rim"/>
    <path pointer-events="none" fill="none" stroke="white" stroke-width="1.5" d="M0,-3.0v7 M-2.5,-0.5L0,-3.0L2.5,-0.5"/>
  </g>
  <g id="arrowDown" transform="rotate(180) translate(-30 -48)">
    <use xlink:href="#rim"/>
    <path pointer-events="none" fill="none" stroke="white" stroke-width="1.5" d="M0,-3.0v7 M-2.5,-0.5L0,-3.0L2.5,-0.5"/>
  </g>
  <g id="arrowLeft" transform="rotate(270) translate(-36 17)">
    <use xlink:href="#rim"/>
    <path pointer-events="none" fill="none" stroke="white" stroke-width="1.5" d="M0,-3.0v7 M-2.5,-0.5L0,-3.0L2.5,-0.5"/>
  </g>
  <g id="resetDef">
    <use xlink:href="#rim2" fill="#404040"><set attributeName="fill" to="#808080" begin="reset.mouseover" end="reset.mouseout"/></use>
  </g>
</defs>
<script type="application/ecmascript">
var viewWidth = 722;
var viewHeight = 302;
var sectionId = 'dynsection-1';
</script>
<script type="application/ecmascript" xlink:href="svg.min.js"/>
<svg id="graph" class="graph">
<g id="viewport">
<title>include/Drivers/dutDriver.h</title>
<!-- Node1 -->
<g id="Node000001" class="node">
<title>Node1</title>
<g id="a_Node000001"><a xlink:title=" ">
<polygon fill="#999999" stroke="#666666" points="549.5,-294 402.5,-294 402.5,-275 549.5,-275 549.5,-294"/>
<text text-anchor="middle" x="476" y="-282" font-family="Helvetica,sans-Serif" font-size="10.00">include/Drivers/dutDriver.h</text>
</a>
</g>
</g>
<!-- Node2 -->
<g id="Node000002" class="node">
<title>Node2</title>
<g id="a_Node000002"><a xlink:href="driver_8h.html" target="_top" xlink:title=" ">
<polygon fill="white" stroke="#666666" points="328,-184 198,-184 198,-165 328,-165 328,-184"/>
<text text-anchor="middle" x="263" y="-172" font-family="Helvetica,sans-Serif" font-size="10.00">include/Drivers/driver.h</text>
</a>
</g>
</g>
<!-- Node1&#45;&gt;Node2 -->
<g id="edge1_Node000001_Node000002" class="edge">
<title>Node1&#45;&gt;Node2</title>
<g id="a_edge1_Node000001_Node000002"><a xlink:title=" ">
<path fill="none" stroke="#63b8ff" d="M430.51,-272.3C404.31,-264.85 371.27,-253.72 344,-239 315.07,-223.38 285.88,-197.41 271.75,-184.04"/>
<polygon fill="#63b8ff" stroke="#63b8ff" points="429.62,-275.69 440.19,-274.98 431.48,-268.94 429.62,-275.69"/>
</a>
</g>
</g>
<!-- Node4 -->
<g id="Node000004" class="node">
<title>Node4</title>
<g id="a_Node000004"><a xlink:href="mlvp_8h.html" target="_top" xlink:title=" ">
<polygon fill="white" stroke="#666666" points="396.5,-74 307.5,-74 307.5,-55 396.5,-55 396.5,-74"/>
<text text-anchor="middle" x="352" y="-62" font-family="Helvetica,sans-Serif" font-size="10.00">include/mlvp.h</text>
</a>
</g>
</g>
<!-- Node1&#45;&gt;Node4 -->
<g id="edge12_Node000001_Node000004" class="edge">
<title>Node1&#45;&gt;Node4</title>
<g id="a_edge12_Node000001_Node000004"><a xlink:title=" ">
<path fill="none" stroke="#63b8ff" d="M492.73,-267.55C515.04,-244.28 549.46,-199.98 529,-165 498.65,-113.12 430.21,-86.21 387.89,-74.02"/>
<polygon fill="#63b8ff" stroke="#63b8ff" points="490.03,-265.3 485.46,-274.86 494.99,-270.24 490.03,-265.3"/>
</a>
</g>
</g>
<!-- Node8 -->
<g id="Node000008" class="node">
<title>Node8</title>
<g id="a_Node000008"><a xlink:href="refDriver_8h.html" target="_top" xlink:title=" ">
<polygon fill="white" stroke="#666666" points="498.5,-239 353.5,-239 353.5,-220 498.5,-220 498.5,-239"/>
<text text-anchor="middle" x="426" y="-227" font-family="Helvetica,sans-Serif" font-size="10.00">include/Drivers/refDriver.h</text>
</a>
</g>
</g>
<!-- Node1&#45;&gt;Node8 -->
<g id="edge8_Node000001_Node000008" class="edge">
<title>Node1&#45;&gt;Node8</title>
<g id="a_edge8_Node000001_Node000008"><a xlink:title=" ">
<path fill="none" stroke="#63b8ff" d="M460.66,-267.24C451.9,-257.95 441.26,-246.68 434.1,-239.09"/>
<polygon fill="#63b8ff" stroke="#63b8ff" points="458.34,-269.88 467.74,-274.75 463.43,-265.07 458.34,-269.88"/>
</a>
</g>
</g>
<!-- Node10 -->
<g id="Node000010" class="node">
<title>Node10</title>
<g id="a_Node000010"><a xlink:href="dutDriver_8cpp.html" target="_top" xlink:title=" ">
<polygon fill="white" stroke="#666666" points="713.5,-239 576.5,-239 576.5,-220 713.5,-220 713.5,-239"/>
<text text-anchor="middle" x="645" y="-227" font-family="Helvetica,sans-Serif" font-size="10.00">src/Drivers/dutDriver.cpp</text>
</a>
</g>
</g>
<!-- Node1&#45;&gt;Node10 -->
<g id="edge13_Node000001_Node000010" class="edge">
<title>Node1&#45;&gt;Node10</title>
<g id="a_edge13_Node000001_Node000010"><a xlink:title=" ">
<path fill="none" stroke="#63b8ff" d="M512.9,-271.93C544.47,-262.03 589.18,-248.01 617.63,-239.08"/>
<polygon fill="#63b8ff" stroke="#63b8ff" points="511.65,-268.65 503.15,-274.98 513.74,-275.33 511.65,-268.65"/>
</a>
</g>
</g>
<!-- Node3 -->
<g id="Node000003" class="node">
<title>Node3</title>
<g id="a_Node000003"><a xlink:href="spreader_8h.html" target="_top" xlink:title=" ">
<polygon fill="white" stroke="#666666" points="290,-129 138,-129 138,-110 290,-110 290,-129"/>
<text text-anchor="middle" x="214" y="-117" font-family="Helvetica,sans-Serif" font-size="10.00">include/Spreader/spreader.h</text>
</a>
</g>
</g>
<!-- Node2&#45;&gt;Node3 -->
<g id="edge2_Node000002_Node000003" class="edge">
<title>Node2&#45;&gt;Node3</title>
<g id="a_edge2_Node000002_Node000003"><a xlink:title=" ">
<path fill="none" stroke="#63b8ff" d="M247.97,-157.24C239.38,-147.95 228.96,-136.68 221.94,-129.09"/>
<polygon fill="#63b8ff" stroke="#63b8ff" points="245.55,-159.78 254.91,-164.75 250.69,-155.03 245.55,-159.78"/>
</a>
</g>
</g>
<!-- Node2&#45;&gt;Node4 -->
<g id="edge6_Node000002_Node000004" class="edge">
<title>Node2&#45;&gt;Node4</title>
<g id="a_edge6_Node000002_Node000004"><a xlink:title=" ">
<path fill="none" stroke="#63b8ff" d="M276.85,-156.69C296.07,-133.37 330.12,-92.05 344.86,-74.16"/>
<polygon fill="#63b8ff" stroke="#63b8ff" points="273.94,-154.72 270.28,-164.66 279.34,-159.17 273.94,-154.72"/>
</a>
</g>
</g>
<!-- Node7 -->
<g id="Node000007" class="node">
<title>Node7</title>
<g id="a_Node000007"><a xlink:href="driver_8cpp.html" target="_top" xlink:title=" ">
<polygon fill="white" stroke="#666666" points="120,-129 0,-129 0,-110 120,-110 120,-129"/>
<text text-anchor="middle" x="60" y="-117" font-family="Helvetica,sans-Serif" font-size="10.00">src/Drivers/driver.cpp</text>
</a>
</g>
</g>
<!-- Node2&#45;&gt;Node7 -->
<g id="edge7_Node000002_Node000007" class="edge">
<title>Node2&#45;&gt;Node7</title>
<g id="a_edge7_Node000002_Node000007"><a xlink:title=" ">
<path fill="none" stroke="#63b8ff" d="M220.63,-162.44C182.63,-152.52 127.64,-138.16 92.87,-129.08"/>
<polygon fill="#63b8ff" stroke="#63b8ff" points="219.82,-165.84 230.38,-164.98 221.59,-159.07 219.82,-165.84"/>
</a>
</g>
</g>
<!-- Node3&#45;&gt;Node4 -->
<g id="edge3_Node000003_Node000004" class="edge">
<title>Node3&#45;&gt;Node4</title>
<g id="a_edge3_Node000003_Node000004"><a xlink:title=" ">
<path fill="none" stroke="#63b8ff" d="M245.79,-106.29C271.37,-96.47 306.67,-82.91 329.42,-74.17"/>
<polygon fill="#63b8ff" stroke="#63b8ff" points="244.25,-103.13 236.17,-109.98 246.76,-109.67 244.25,-103.13"/>
</a>
</g>
</g>
<!-- Node6 -->
<g id="Node000006" class="node">
<title>Node6</title>
<g id="a_Node000006"><a xlink:href="spreader_8cpp.html" target="_top" xlink:title=" ">
<polygon fill="white" stroke="#666666" points="285.5,-74 142.5,-74 142.5,-55 285.5,-55 285.5,-74"/>
<text text-anchor="middle" x="214" y="-62" font-family="Helvetica,sans-Serif" font-size="10.00">src/Spreader/spreader.cpp</text>
</a>
</g>
</g>
<!-- Node3&#45;&gt;Node6 -->
<g id="edge5_Node000003_Node000006" class="edge">
<title>Node3&#45;&gt;Node6</title>
<g id="a_edge5_Node000003_Node000006"><a xlink:title=" ">
<path fill="none" stroke="#63b8ff" d="M214,-99.66C214,-90.93 214,-80.99 214,-74.09"/>
<polygon fill="#63b8ff" stroke="#63b8ff" points="210.5,-99.75 214,-109.75 217.5,-99.75 210.5,-99.75"/>
</a>
</g>
</g>
<!-- Node5 -->
<g id="Node000005" class="node">
<title>Node5</title>
<g id="a_Node000005"><a xlink:href="main_8cpp.html" target="_top" xlink:title=" ">
<polygon fill="white" stroke="#666666" points="391.5,-19 312.5,-19 312.5,0 391.5,0 391.5,-19"/>
<text text-anchor="middle" x="352" y="-7" font-family="Helvetica,sans-Serif" font-size="10.00">src/main.cpp</text>
</a>
</g>
</g>
<!-- Node4&#45;&gt;Node5 -->
<g id="edge4_Node000004_Node000005" class="edge">
<title>Node4&#45;&gt;Node5</title>
<g id="a_edge4_Node000004_Node000005"><a xlink:title=" ">
<path fill="none" stroke="#63b8ff" d="M352,-44.66C352,-35.93 352,-25.99 352,-19.09"/>
<polygon fill="#63b8ff" stroke="#63b8ff" points="348.5,-44.75 352,-54.75 355.5,-44.75 348.5,-44.75"/>
</a>
</g>
</g>
<!-- Node8&#45;&gt;Node2 -->
<g id="edge9_Node000008_Node000002" class="edge">
<title>Node8&#45;&gt;Node2</title>
<g id="a_edge9_Node000008_Node000002"><a xlink:title=" ">
<path fill="none" stroke="#63b8ff" d="M390.01,-216.8C359.59,-206.91 316.72,-192.97 289.39,-184.08"/>
<polygon fill="#63b8ff" stroke="#63b8ff" points="389.22,-220.22 399.81,-219.98 391.38,-213.56 389.22,-220.22"/>
</a>
</g>
</g>
<!-- Node8&#45;&gt;Node4 -->
<g id="edge10_Node000008_Node000004" class="edge">
<title>Node8&#45;&gt;Node4</title>
<g id="a_edge10_Node000008_Node000004"><a xlink:title=" ">
<path fill="none" stroke="#63b8ff" d="M403.34,-213.96C393.14,-206.27 381.87,-195.93 375,-184 353.87,-147.32 351.77,-94.74 351.82,-74.2"/>
<polygon fill="#63b8ff" stroke="#63b8ff" points="401.36,-216.85 411.53,-219.79 405.41,-211.14 401.36,-216.85"/>
</a>
</g>
</g>
<!-- Node9 -->
<g id="Node000009" class="node">
<title>Node9</title>
<g id="a_Node000009"><a xlink:href="refDriver_8cpp.html" target="_top" xlink:title=" ">
<polygon fill="white" stroke="#666666" points="519.5,-184 384.5,-184 384.5,-165 519.5,-165 519.5,-184"/>
<text text-anchor="middle" x="452" y="-172" font-family="Helvetica,sans-Serif" font-size="10.00">src/Drivers/refDriver.cpp</text>
</a>
</g>
</g>
<!-- Node8&#45;&gt;Node9 -->
<g id="edge11_Node000008_Node000009" class="edge">
<title>Node8&#45;&gt;Node9</title>
<g id="a_edge11_Node000008_Node000009"><a xlink:title=" ">
<path fill="none" stroke="#63b8ff" d="M434.82,-210.53C439.2,-201.6 444.29,-191.22 447.79,-184.09"/>
<polygon fill="#63b8ff" stroke="#63b8ff" points="431.56,-209.23 430.29,-219.75 437.84,-212.31 431.56,-209.23"/>
</a>
</g>
</g>
</g>
</svg>

<g id="navigator" transform="translate(0 0)" fill="#404254">
  <rect fill="#f2f5e9" fill-opacity="0.5" stroke="#606060" stroke-width=".5" x="0" y="0" width="60" height="60"/>
  <use id="zoomplus" xlink:href="#zoomPlus" x="17" y="9" onmousedown="handleZoom(evt,'in')"/>
  <use id="zoomminus" xlink:href="#zoomMin" x="42" y="9" onmousedown="handleZoom(evt,'out')"/>
  <use id="reset" xlink:href="#resetDef" x="30" y="36" onmousedown="handleReset()"/>
   <use id="arrowup" xlink:href="#arrowUp" x="0" y="0" onmousedown="handlePan(0,-1)"/>
  <use id="arrowright" xlink:href="#arrowRight" x="0" y="0" onmousedown="handlePan(1,0)"/>
  <use id="arrowdown" xlink:href="#arrowDown" x="0" y="0" onmousedown="handlePan(0,1)"/>
  <use id="arrowleft" xlink:href="#arrowLeft" x="0" y="0" onmousedown="handlePan(-1,0)"/>
</g>
<svg viewBox="0 0 15 15" width="100%" height="30px" preserveAspectRatio="xMaxYMin meet">
 <g id="arrow_out" transform="scale(0.3 0.3)">
  <a xlink:href="dutDriver_8h__dep__incl_org.svg" target="_base">
   <rect id="button" ry="5" rx="5" y="6" x="6" height="38" width="38"
        fill="#f2f5e9" fill-opacity="0.5" stroke="#606060" stroke-width="1.0"/>
   <path id="arrow"
     d="M 11.500037,31.436501 C 11.940474,20.09759 22.043105,11.32322 32.158766,21.979434 L 37.068811,17.246167 C 37.068811,17.246167 37.088388,32 37.088388,32 L 22.160133,31.978069 C 22.160133,31.978069 26.997745,27.140456 26.997745,27.140456 C 18.528582,18.264221 13.291696,25.230495 11.500037,31.436501 z"
     style="fill:#404040;"/>
  </a>
 </g>
</svg>

<style type='text/css'>
<![CDATA[
[data-mouse-over-selected='false'] { opacity: 0.7; }
[data-mouse-over-selected='true']  { opacity: 1.0; }
]]>
</style>
<script type="application/ecmascript"><![CDATA[
document.addEventListener('DOMContentLoaded', (event) => {
  highlightEdges();
  highlightAdjacentNodes();
});
]]></script>
</svg>
