<?xml version="1.0" encoding="UTF-8" standalone="no"?>
<!DOCTYPE svg PUBLIC "-//W3C//DTD SVG 1.1//EN"
 "http://www.w3.org/Graphics/SVG/1.1/DTD/svg11.dtd">
<!-- Generated by graphviz version 2.43.0 (0)
 -->
<!-- Title: include/Drivers/dutDriver.h Pages: 1 -->
<svg width="722pt" height="302pt"
 viewBox="0.00 0.00 721.50 302.00" xmlns="http://www.w3.org/2000/svg" xmlns:xlink="http://www.w3.org/1999/xlink">
<g id="graph0" class="graph" transform="scale(1 1) rotate(0) translate(4 298)">
<title>include/Drivers/dutDriver.h</title>
<!-- Node1 -->
<g id="Node000001" class="node">
<title>Node1</title>
<g id="a_Node000001"><a xlink:title=" ">
<polygon fill="#999999" stroke="#666666" points="549.5,-294 402.5,-294 402.5,-275 549.5,-275 549.5,-294"/>
<text text-anchor="middle" x="476" y="-282" font-family="Helvetica,sans-Serif" font-size="10.00">include/Drivers/dutDriver.h</text>
</a>
</g>
</g>
<!-- Node2 -->
<g id="Node000002" class="node">
<title>Node2</title>
<g id="a_Node000002"><a xlink:href="driver_8h.html" target="_top" xlink:title=" ">
<polygon fill="white" stroke="#666666" points="328,-184 198,-184 198,-165 328,-165 328,-184"/>
<text text-anchor="middle" x="263" y="-172" font-family="Helvetica,sans-Serif" font-size="10.00">include/Drivers/driver.h</text>
</a>
</g>
</g>
<!-- Node1&#45;&gt;Node2 -->
<g id="edge1_Node000001_Node000002" class="edge">
<title>Node1&#45;&gt;Node2</title>
<g id="a_edge1_Node000001_Node000002"><a xlink:title=" ">
<path fill="none" stroke="#63b8ff" d="M430.51,-272.3C404.31,-264.85 371.27,-253.72 344,-239 315.07,-223.38 285.88,-197.41 271.75,-184.04"/>
<polygon fill="#63b8ff" stroke="#63b8ff" points="429.62,-275.69 440.19,-274.98 431.48,-268.94 429.62,-275.69"/>
</a>
</g>
</g>
<!-- Node4 -->
<g id="Node000004" class="node">
<title>Node4</title>
<g id="a_Node000004"><a xlink:href="mlvp_8h.html" target="_top" xlink:title=" ">
<polygon fill="white" stroke="#666666" points="396.5,-74 307.5,-74 307.5,-55 396.5,-55 396.5,-74"/>
<text text-anchor="middle" x="352" y="-62" font-family="Helvetica,sans-Serif" font-size="10.00">include/mlvp.h</text>
</a>
</g>
</g>
<!-- Node1&#45;&gt;Node4 -->
<g id="edge12_Node000001_Node000004" class="edge">
<title>Node1&#45;&gt;Node4</title>
<g id="a_edge12_Node000001_Node000004"><a xlink:title=" ">
<path fill="none" stroke="#63b8ff" d="M492.73,-267.55C515.04,-244.28 549.46,-199.98 529,-165 498.65,-113.12 430.21,-86.21 387.89,-74.02"/>
<polygon fill="#63b8ff" stroke="#63b8ff" points="490.03,-265.3 485.46,-274.86 494.99,-270.24 490.03,-265.3"/>
</a>
</g>
</g>
<!-- Node8 -->
<g id="Node000008" class="node">
<title>Node8</title>
<g id="a_Node000008"><a xlink:href="refDriver_8h.html" target="_top" xlink:title=" ">
<polygon fill="white" stroke="#666666" points="498.5,-239 353.5,-239 353.5,-220 498.5,-220 498.5,-239"/>
<text text-anchor="middle" x="426" y="-227" font-family="Helvetica,sans-Serif" font-size="10.00">include/Drivers/refDriver.h</text>
</a>
</g>
</g>
<!-- Node1&#45;&gt;Node8 -->
<g id="edge8_Node000001_Node000008" class="edge">
<title>Node1&#45;&gt;Node8</title>
<g id="a_edge8_Node000001_Node000008"><a xlink:title=" ">
<path fill="none" stroke="#63b8ff" d="M460.66,-267.24C451.9,-257.95 441.26,-246.68 434.1,-239.09"/>
<polygon fill="#63b8ff" stroke="#63b8ff" points="458.34,-269.88 467.74,-274.75 463.43,-265.07 458.34,-269.88"/>
</a>
</g>
</g>
<!-- Node10 -->
<g id="Node000010" class="node">
<title>Node10</title>
<g id="a_Node000010"><a xlink:href="dutDriver_8cpp.html" target="_top" xlink:title=" ">
<polygon fill="white" stroke="#666666" points="713.5,-239 576.5,-239 576.5,-220 713.5,-220 713.5,-239"/>
<text text-anchor="middle" x="645" y="-227" font-family="Helvetica,sans-Serif" font-size="10.00">src/Drivers/dutDriver.cpp</text>
</a>
</g>
</g>
<!-- Node1&#45;&gt;Node10 -->
<g id="edge13_Node000001_Node000010" class="edge">
<title>Node1&#45;&gt;Node10</title>
<g id="a_edge13_Node000001_Node000010"><a xlink:title=" ">
<path fill="none" stroke="#63b8ff" d="M512.9,-271.93C544.47,-262.03 589.18,-248.01 617.63,-239.08"/>
<polygon fill="#63b8ff" stroke="#63b8ff" points="511.65,-268.65 503.15,-274.98 513.74,-275.33 511.65,-268.65"/>
</a>
</g>
</g>
<!-- Node3 -->
<g id="Node000003" class="node">
<title>Node3</title>
<g id="a_Node000003"><a xlink:href="spreader_8h.html" target="_top" xlink:title=" ">
<polygon fill="white" stroke="#666666" points="290,-129 138,-129 138,-110 290,-110 290,-129"/>
<text text-anchor="middle" x="214" y="-117" font-family="Helvetica,sans-Serif" font-size="10.00">include/Spreader/spreader.h</text>
</a>
</g>
</g>
<!-- Node2&#45;&gt;Node3 -->
<g id="edge2_Node000002_Node000003" class="edge">
<title>Node2&#45;&gt;Node3</title>
<g id="a_edge2_Node000002_Node000003"><a xlink:title=" ">
<path fill="none" stroke="#63b8ff" d="M247.97,-157.24C239.38,-147.95 228.96,-136.68 221.94,-129.09"/>
<polygon fill="#63b8ff" stroke="#63b8ff" points="245.55,-159.78 254.91,-164.75 250.69,-155.03 245.55,-159.78"/>
</a>
</g>
</g>
<!-- Node2&#45;&gt;Node4 -->
<g id="edge6_Node000002_Node000004" class="edge">
<title>Node2&#45;&gt;Node4</title>
<g id="a_edge6_Node000002_Node000004"><a xlink:title=" ">
<path fill="none" stroke="#63b8ff" d="M276.85,-156.69C296.07,-133.37 330.12,-92.05 344.86,-74.16"/>
<polygon fill="#63b8ff" stroke="#63b8ff" points="273.94,-154.72 270.28,-164.66 279.34,-159.17 273.94,-154.72"/>
</a>
</g>
</g>
<!-- Node7 -->
<g id="Node000007" class="node">
<title>Node7</title>
<g id="a_Node000007"><a xlink:href="driver_8cpp.html" target="_top" xlink:title=" ">
<polygon fill="white" stroke="#666666" points="120,-129 0,-129 0,-110 120,-110 120,-129"/>
<text text-anchor="middle" x="60" y="-117" font-family="Helvetica,sans-Serif" font-size="10.00">src/Drivers/driver.cpp</text>
</a>
</g>
</g>
<!-- Node2&#45;&gt;Node7 -->
<g id="edge7_Node000002_Node000007" class="edge">
<title>Node2&#45;&gt;Node7</title>
<g id="a_edge7_Node000002_Node000007"><a xlink:title=" ">
<path fill="none" stroke="#63b8ff" d="M220.63,-162.44C182.63,-152.52 127.64,-138.16 92.87,-129.08"/>
<polygon fill="#63b8ff" stroke="#63b8ff" points="219.82,-165.84 230.38,-164.98 221.59,-159.07 219.82,-165.84"/>
</a>
</g>
</g>
<!-- Node3&#45;&gt;Node4 -->
<g id="edge3_Node000003_Node000004" class="edge">
<title>Node3&#45;&gt;Node4</title>
<g id="a_edge3_Node000003_Node000004"><a xlink:title=" ">
<path fill="none" stroke="#63b8ff" d="M245.79,-106.29C271.37,-96.47 306.67,-82.91 329.42,-74.17"/>
<polygon fill="#63b8ff" stroke="#63b8ff" points="244.25,-103.13 236.17,-109.98 246.76,-109.67 244.25,-103.13"/>
</a>
</g>
</g>
<!-- Node6 -->
<g id="Node000006" class="node">
<title>Node6</title>
<g id="a_Node000006"><a xlink:href="spreader_8cpp.html" target="_top" xlink:title=" ">
<polygon fill="white" stroke="#666666" points="285.5,-74 142.5,-74 142.5,-55 285.5,-55 285.5,-74"/>
<text text-anchor="middle" x="214" y="-62" font-family="Helvetica,sans-Serif" font-size="10.00">src/Spreader/spreader.cpp</text>
</a>
</g>
</g>
<!-- Node3&#45;&gt;Node6 -->
<g id="edge5_Node000003_Node000006" class="edge">
<title>Node3&#45;&gt;Node6</title>
<g id="a_edge5_Node000003_Node000006"><a xlink:title=" ">
<path fill="none" stroke="#63b8ff" d="M214,-99.66C214,-90.93 214,-80.99 214,-74.09"/>
<polygon fill="#63b8ff" stroke="#63b8ff" points="210.5,-99.75 214,-109.75 217.5,-99.75 210.5,-99.75"/>
</a>
</g>
</g>
<!-- Node5 -->
<g id="Node000005" class="node">
<title>Node5</title>
<g id="a_Node000005"><a xlink:href="main_8cpp.html" target="_top" xlink:title=" ">
<polygon fill="white" stroke="#666666" points="391.5,-19 312.5,-19 312.5,0 391.5,0 391.5,-19"/>
<text text-anchor="middle" x="352" y="-7" font-family="Helvetica,sans-Serif" font-size="10.00">src/main.cpp</text>
</a>
</g>
</g>
<!-- Node4&#45;&gt;Node5 -->
<g id="edge4_Node000004_Node000005" class="edge">
<title>Node4&#45;&gt;Node5</title>
<g id="a_edge4_Node000004_Node000005"><a xlink:title=" ">
<path fill="none" stroke="#63b8ff" d="M352,-44.66C352,-35.93 352,-25.99 352,-19.09"/>
<polygon fill="#63b8ff" stroke="#63b8ff" points="348.5,-44.75 352,-54.75 355.5,-44.75 348.5,-44.75"/>
</a>
</g>
</g>
<!-- Node8&#45;&gt;Node2 -->
<g id="edge9_Node000008_Node000002" class="edge">
<title>Node8&#45;&gt;Node2</title>
<g id="a_edge9_Node000008_Node000002"><a xlink:title=" ">
<path fill="none" stroke="#63b8ff" d="M390.01,-216.8C359.59,-206.91 316.72,-192.97 289.39,-184.08"/>
<polygon fill="#63b8ff" stroke="#63b8ff" points="389.22,-220.22 399.81,-219.98 391.38,-213.56 389.22,-220.22"/>
</a>
</g>
</g>
<!-- Node8&#45;&gt;Node4 -->
<g id="edge10_Node000008_Node000004" class="edge">
<title>Node8&#45;&gt;Node4</title>
<g id="a_edge10_Node000008_Node000004"><a xlink:title=" ">
<path fill="none" stroke="#63b8ff" d="M403.34,-213.96C393.14,-206.27 381.87,-195.93 375,-184 353.87,-147.32 351.77,-94.74 351.82,-74.2"/>
<polygon fill="#63b8ff" stroke="#63b8ff" points="401.36,-216.85 411.53,-219.79 405.41,-211.14 401.36,-216.85"/>
</a>
</g>
</g>
<!-- Node9 -->
<g id="Node000009" class="node">
<title>Node9</title>
<g id="a_Node000009"><a xlink:href="refDriver_8cpp.html" target="_top" xlink:title=" ">
<polygon fill="white" stroke="#666666" points="519.5,-184 384.5,-184 384.5,-165 519.5,-165 519.5,-184"/>
<text text-anchor="middle" x="452" y="-172" font-family="Helvetica,sans-Serif" font-size="10.00">src/Drivers/refDriver.cpp</text>
</a>
</g>
</g>
<!-- Node8&#45;&gt;Node9 -->
<g id="edge11_Node000008_Node000009" class="edge">
<title>Node8&#45;&gt;Node9</title>
<g id="a_edge11_Node000008_Node000009"><a xlink:title=" ">
<path fill="none" stroke="#63b8ff" d="M434.82,-210.53C439.2,-201.6 444.29,-191.22 447.79,-184.09"/>
<polygon fill="#63b8ff" stroke="#63b8ff" points="431.56,-209.23 430.29,-219.75 437.84,-212.31 431.56,-209.23"/>
</a>
</g>
</g>
</g>
</svg>
