<?xml version="1.0" encoding="UTF-8" standalone="no"?>
<!DOCTYPE svg PUBLIC "-//W3C//DTD SVG 1.1//EN"
 "http://www.w3.org/Graphics/SVG/1.1/DTD/svg11.dtd">
<!-- Generated by graphviz version 2.43.0 (0)
 -->
<!-- Title: src/Drivers/dutDriver.cpp Pages: 1 -->
<!--zoomable 577 -->

<svg id="main" version="1.1" xmlns="http://www.w3.org/2000/svg" xmlns:xlink="http://www.w3.org/1999/xlink" xml:space="preserve" onload="init(evt)">
<style type="text/css"><![CDATA[
.node, .edge {opacity: 0.7;}
.node.selected, .edge.selected {opacity: 1;}
.edge:hover path { stroke: red; }
.edge:hover polygon { stroke: red; fill: red; }
]]></style>

<defs>
  <circle id="rim" cx="0" cy="0" r="7"/>
  <circle id="rim2" cx="0" cy="0" r="3.5"/>
  <g id="zoomPlus">
    <use xlink:href="#rim" fill="#404040"><set attributeName="fill" to="#808080" begin="zoomplus.mouseover" end="zoomplus.mouseout"/></use>
    <path d="M-4,0h8M0,-4v8" fill="none" stroke="white" stroke-width="1.5" pointer-events="none"/>
  </g>
  <g id="zoomMin">
    <use xlink:href="#rim" fill="#404040"><set attributeName="fill" to="#808080" begin="zoomminus.mouseover" end="zoomminus.mouseout"/></use>
    <path d="M-4,0h8" fill="none" stroke="white" stroke-width="1.5" pointer-events="none"/>
  </g>
  <g id="arrowUp" transform="translate(30 24)">
    <use xlink:href="#rim"/>
    <path pointer-events="none" fill="none" stroke="white" stroke-width="1.5" d="M0,-3.0v7 M-2.5,-0.5L0,-3.0L2.5,-0.5"/>
  </g>
  <g id="arrowRight" transform="rotate(90) translate(36 -43)">
    <use xlink:href="#rim"/>
    <path pointer-events="none" fill="none" stroke="white" stroke-width="1.5" d="M0,-3.0v7 M-2.5,-0.5L0,-3.0L2.5,-0.5"/>
  </g>
  <g id="arrowDown" transform="rotate(180) translate(-30 -48)">
    <use xlink:href="#rim"/>
    <path pointer-events="none" fill="none" stroke="white" stroke-width="1.5" d="M0,-3.0v7 M-2.5,-0.5L0,-3.0L2.5,-0.5"/>
  </g>
  <g id="arrowLeft" transform="rotate(270) translate(-36 17)">
    <use xlink:href="#rim"/>
    <path pointer-events="none" fill="none" stroke="white" stroke-width="1.5" d="M0,-3.0v7 M-2.5,-0.5L0,-3.0L2.5,-0.5"/>
  </g>
  <g id="resetDef">
    <use xlink:href="#rim2" fill="#404040"><set attributeName="fill" to="#808080" begin="reset.mouseover" end="reset.mouseout"/></use>
  </g>
</defs>
<script type="application/ecmascript">
var viewWidth = 1670;
var viewHeight = 577;
var sectionId = 'dynsection-0';
</script>
<script type="application/ecmascript" xlink:href="svg.min.js"/>
<svg id="graph" class="graph">
<g id="viewport">
<title>src/Drivers/dutDriver.cpp</title>
<!-- Node1 -->
<g id="Node000001" class="node">
<title>Node1</title>
<g id="a_Node000001"><a xlink:title=" ">
<polygon fill="#999999" stroke="#666666" points="1299.5,-569 1162.5,-569 1162.5,-550 1299.5,-550 1299.5,-569"/>
<text text-anchor="middle" x="1231" y="-557" font-family="Helvetica,sans-Serif" font-size="10.00">src/Drivers/dutDriver.cpp</text>
</a>
</g>
</g>
<!-- Node2 -->
<g id="Node000002" class="node">
<title>Node2</title>
<g id="a_Node000002"><a xlink:href="dutDriver_8h.html" target="_top" xlink:title=" ">
<polygon fill="white" stroke="#666666" points="1285.5,-514 1176.5,-514 1176.5,-495 1285.5,-495 1285.5,-514"/>
<text text-anchor="middle" x="1231" y="-502" font-family="Helvetica,sans-Serif" font-size="10.00">Drivers/dutDriver.h</text>
</a>
</g>
</g>
<!-- Node1&#45;&gt;Node2 -->
<g id="edge1_Node000001_Node000002" class="edge">
<title>Node1&#45;&gt;Node2</title>
<g id="a_edge1_Node000001_Node000002"><a xlink:title=" ">
<path fill="none" stroke="#63b8ff" d="M1231,-549.75C1231,-542.8 1231,-532.85 1231,-524.13"/>
<polygon fill="#63b8ff" stroke="#63b8ff" points="1234.5,-524.09 1231,-514.09 1227.5,-524.09 1234.5,-524.09"/>
</a>
</g>
</g>
<!-- Node3 -->
<g id="Node000003" class="node">
<title>Node3</title>
<g id="a_Node000003"><a xlink:title=" ">
<polygon fill="#e0e0e0" stroke="#999999" points="550,-19 506,-19 506,0 550,0 550,-19"/>
<text text-anchor="middle" x="528" y="-7" font-family="Helvetica,sans-Serif" font-size="10.00">string</text>
</a>
</g>
</g>
<!-- Node2&#45;&gt;Node3 -->
<g id="edge2_Node000002_Node000003" class="edge">
<title>Node2&#45;&gt;Node3</title>
<g id="a_edge2_Node000002_Node000003"><a xlink:title=" ">
<path fill="none" stroke="#63b8ff" d="M1285.59,-502.19C1341.9,-499.11 1431.23,-489.34 1502,-459 1545.01,-440.56 1586,-442.3 1586,-395.5 1586,-395.5 1586,-395.5 1586,-118.5 1586,-58.16 1524.2,-70.92 1466,-55 1290.14,-6.88 705.52,-8.88 560.68,-10.15"/>
<polygon fill="#63b8ff" stroke="#63b8ff" points="560.24,-6.65 550.27,-10.24 560.3,-13.65 560.24,-6.65"/>
</a>
</g>
</g>
<!-- Node4 -->
<g id="Node000004" class="node">
<title>Node4</title>
<g id="a_Node000004"><a xlink:title=" ">
<polygon fill="#e0e0e0" stroke="#999999" points="1330,-129 1272,-129 1272,-110 1330,-110 1330,-129"/>
<text text-anchor="middle" x="1301" y="-117" font-family="Helvetica,sans-Serif" font-size="10.00">memory</text>
</a>
</g>
</g>
<!-- Node2&#45;&gt;Node4 -->
<g id="edge3_Node000002_Node000004" class="edge">
<title>Node2&#45;&gt;Node4</title>
<g id="a_edge3_Node000002_Node000004"><a xlink:title=" ">
<path fill="none" stroke="#63b8ff" d="M1285.69,-502.18C1356.79,-497.22 1472,-476.65 1472,-395.5 1472,-395.5 1472,-395.5 1472,-283.5 1472,-206.98 1381.18,-155.42 1331.92,-133.08"/>
<polygon fill="#63b8ff" stroke="#63b8ff" points="1333.22,-129.83 1322.66,-129.01 1330.4,-136.24 1333.22,-129.83"/>
</a>
</g>
</g>
<!-- Node5 -->
<g id="Node000005" class="node">
<title>Node5</title>
<g id="a_Node000005"><a xlink:title=" ">
<polygon fill="#e0e0e0" stroke="#999999" points="1456.5,-74 1411.5,-74 1411.5,-55 1456.5,-55 1456.5,-74"/>
<text text-anchor="middle" x="1434" y="-62" font-family="Helvetica,sans-Serif" font-size="10.00">utility</text>
</a>
</g>
</g>
<!-- Node2&#45;&gt;Node5 -->
<g id="edge4_Node000002_Node000005" class="edge">
<title>Node2&#45;&gt;Node5</title>
<g id="a_edge4_Node000002_Node000005"><a xlink:title=" ">
<path fill="none" stroke="#63b8ff" d="M1285.77,-499.82C1333.9,-495.01 1404.96,-484.01 1462,-459 1505.51,-439.92 1548,-443.01 1548,-395.5 1548,-395.5 1548,-395.5 1548,-173.5 1548,-127.47 1498.42,-95.18 1464.65,-78.53"/>
<polygon fill="#63b8ff" stroke="#63b8ff" points="1465.71,-75.16 1455.18,-74.05 1462.72,-81.49 1465.71,-75.16"/>
</a>
</g>
</g>
<!-- Node6 -->
<g id="Node000006" class="node">
<title>Node6</title>
<g id="a_Node000006"><a xlink:title=" ">
<polygon fill="#e0e0e0" stroke="#999999" points="446.5,-19 399.5,-19 399.5,0 446.5,0 446.5,-19"/>
<text text-anchor="middle" x="423" y="-7" font-family="Helvetica,sans-Serif" font-size="10.00">vector</text>
</a>
</g>
</g>
<!-- Node2&#45;&gt;Node6 -->
<g id="edge5_Node000002_Node000006" class="edge">
<title>Node2&#45;&gt;Node6</title>
<g id="a_edge5_Node000002_Node000006"><a xlink:title=" ">
<path fill="none" stroke="#63b8ff" d="M1176.12,-501.6C937.23,-492.99 0,-455.4 0,-395.5 0,-395.5 0,-395.5 0,-118.5 0,-79.37 26,-72.51 61,-55 118.19,-26.39 310.52,-15.22 389.11,-11.79"/>
<polygon fill="#63b8ff" stroke="#63b8ff" points="389.57,-15.27 399.42,-11.35 389.28,-8.27 389.57,-15.27"/>
</a>
</g>
</g>
<!-- Node7 -->
<g id="Node000007" class="node">
<title>Node7</title>
<g id="a_Node000007"><a xlink:title=" ">
<polygon fill="#e0e0e0" stroke="#999999" points="1424.5,-19 1331.5,-19 1331.5,0 1424.5,0 1424.5,-19"/>
<text text-anchor="middle" x="1378" y="-7" font-family="Helvetica,sans-Serif" font-size="10.00">unordered_map</text>
</a>
</g>
</g>
<!-- Node2&#45;&gt;Node7 -->
<g id="edge6_Node000002_Node000007" class="edge">
<title>Node2&#45;&gt;Node7</title>
<g id="a_edge6_Node000002_Node000007"><a xlink:title=" ">
<path fill="none" stroke="#63b8ff" d="M1285.54,-501.35C1374.41,-497.11 1545.98,-485.68 1600,-459 1635.37,-441.54 1662,-434.94 1662,-395.5 1662,-395.5 1662,-395.5 1662,-118.5 1662,-83.39 1644.76,-73.64 1615,-55 1585.61,-36.59 1495.01,-23.37 1434.73,-16.34"/>
<polygon fill="#63b8ff" stroke="#63b8ff" points="1434.92,-12.84 1424.59,-15.18 1434.12,-19.79 1434.92,-12.84"/>
</a>
</g>
</g>
<!-- Node8 -->
<g id="Node000008" class="node">
<title>Node8</title>
<g id="a_Node000008"><a xlink:title=" ">
<polygon fill="#e0e0e0" stroke="#999999" points="1178,-459 1110,-459 1110,-440 1178,-440 1178,-459"/>
<text text-anchor="middle" x="1144" y="-447" font-family="Helvetica,sans-Serif" font-size="10.00">filesystem</text>
</a>
</g>
</g>
<!-- Node2&#45;&gt;Node8 -->
<g id="edge7_Node000002_Node000008" class="edge">
<title>Node2&#45;&gt;Node8</title>
<g id="a_edge7_Node000002_Node000008"><a xlink:title=" ">
<path fill="none" stroke="#63b8ff" d="M1217.02,-494.98C1203.53,-486.77 1182.87,-474.18 1166.96,-464.49"/>
<polygon fill="#63b8ff" stroke="#63b8ff" points="1168.59,-461.38 1158.23,-459.17 1164.95,-467.36 1168.59,-461.38"/>
</a>
</g>
</g>
<!-- Node9 -->
<g id="Node000009" class="node">
<title>Node9</title>
<g id="a_Node000009"><a xlink:title=" ">
<polygon fill="#e0e0e0" stroke="#999999" points="1265.5,-459 1196.5,-459 1196.5,-440 1265.5,-440 1265.5,-459"/>
<text text-anchor="middle" x="1231" y="-447" font-family="Helvetica,sans-Serif" font-size="10.00">verilated.h</text>
</a>
</g>
</g>
<!-- Node2&#45;&gt;Node9 -->
<g id="edge8_Node000002_Node000009" class="edge">
<title>Node2&#45;&gt;Node9</title>
<g id="a_edge8_Node000002_Node000009"><a xlink:title=" ">
<path fill="none" stroke="#63b8ff" d="M1231,-494.75C1231,-487.8 1231,-477.85 1231,-469.13"/>
<polygon fill="#63b8ff" stroke="#63b8ff" points="1234.5,-469.09 1231,-459.09 1227.5,-469.09 1234.5,-469.09"/>
</a>
</g>
</g>
<!-- Node10 -->
<g id="Node000010" class="node">
<title>Node10</title>
<g id="a_Node000010"><a xlink:title=" ">
<polygon fill="#e0e0e0" stroke="#999999" points="1386,-459 1284,-459 1284,-440 1386,-440 1386,-459"/>
<text text-anchor="middle" x="1335" y="-447" font-family="Helvetica,sans-Serif" font-size="10.00">verilated_vcd_c.h</text>
</a>
</g>
</g>
<!-- Node2&#45;&gt;Node10 -->
<g id="edge9_Node000002_Node000010" class="edge">
<title>Node2&#45;&gt;Node10</title>
<g id="a_edge9_Node000002_Node000010"><a xlink:title=" ">
<path fill="none" stroke="#63b8ff" d="M1247.71,-494.98C1264.21,-486.57 1289.7,-473.59 1308.88,-463.81"/>
<polygon fill="#63b8ff" stroke="#63b8ff" points="1310.67,-466.83 1317.99,-459.17 1307.49,-460.59 1310.67,-466.83"/>
</a>
</g>
</g>
<!-- Node11 -->
<g id="Node000011" class="node">
<title>Node11</title>
<g id="a_Node000011"><a xlink:href="driverModel_8h.html" target="_top" xlink:title=" ">
<polygon fill="white" stroke="#666666" points="1142,-294 1020,-294 1020,-275 1142,-275 1142,-294"/>
<text text-anchor="middle" x="1081" y="-282" font-family="Helvetica,sans-Serif" font-size="10.00">Drivers/driverModel.h</text>
</a>
</g>
</g>
<!-- Node2&#45;&gt;Node11 -->
<g id="edge10_Node000002_Node000011" class="edge">
<title>Node2&#45;&gt;Node11</title>
<g id="a_edge10_Node000002_Node000011"><a xlink:title=" ">
<path fill="none" stroke="#63b8ff" d="M1176.44,-498.32C1149.63,-492.84 1119.25,-481.67 1101,-459 1064.61,-413.8 1071.45,-339.23 1077.22,-304.45"/>
<polygon fill="#63b8ff" stroke="#63b8ff" points="1080.73,-304.75 1079.08,-294.28 1073.84,-303.49 1080.73,-304.75"/>
</a>
</g>
</g>
<!-- Node15 -->
<g id="Node000015" class="node">
<title>Node15</title>
<g id="a_Node000015"><a xlink:href="channel_8h.html" target="_top" xlink:title=" ">
<polygon fill="white" stroke="#666666" points="639.5,-239 532.5,-239 532.5,-220 639.5,-220 639.5,-239"/>
<text text-anchor="middle" x="586" y="-227" font-family="Helvetica,sans-Serif" font-size="10.00">Channel/channel.h</text>
</a>
</g>
</g>
<!-- Node2&#45;&gt;Node15 -->
<g id="edge78_Node000002_Node000015" class="edge">
<title>Node2&#45;&gt;Node15</title>
<g id="a_edge78_Node000002_Node000015"><a xlink:title=" ">
<path fill="none" stroke="#63b8ff" d="M1176.35,-500.63C1088.2,-495.37 918.95,-482.51 864,-459 745.24,-408.18 636.98,-290.4 599.72,-246.97"/>
<polygon fill="#63b8ff" stroke="#63b8ff" points="602.18,-244.47 593.05,-239.1 596.84,-248.99 602.18,-244.47"/>
</a>
</g>
</g>
<!-- Node23 -->
<g id="Node000023" class="node">
<title>Node23</title>
<g id="a_Node000023"><a xlink:href="transaction_8h_source.html" target="_top" xlink:title=" ">
<polygon fill="white" stroke="#666666" points="948.5,-184 809.5,-184 809.5,-165 948.5,-165 948.5,-184"/>
<text text-anchor="middle" x="879" y="-172" font-family="Helvetica,sans-Serif" font-size="10.00">Transaction/transaction.h</text>
</a>
</g>
</g>
<!-- Node2&#45;&gt;Node23 -->
<g id="edge76_Node000002_Node000023" class="edge">
<title>Node2&#45;&gt;Node23</title>
<g id="a_edge76_Node000002_Node000023"><a xlink:title=" ">
<path fill="none" stroke="#63b8ff" d="M1176.44,-503.31C1092.44,-501.88 936.87,-494.37 896,-459 873.82,-439.81 878,-424.83 878,-395.5 878,-395.5 878,-395.5 878,-283.5 878,-252.19 878.43,-215.77 878.72,-194.23"/>
<polygon fill="#63b8ff" stroke="#63b8ff" points="882.22,-194.23 878.87,-184.18 875.22,-194.13 882.22,-194.23"/>
</a>
</g>
</g>
<!-- Node26 -->
<g id="Node000026" class="node">
<title>Node26</title>
<g id="a_Node000026"><a xlink:href="transDriverModel_8h.html" target="_top" xlink:title=" ">
<polygon fill="white" stroke="#666666" points="1054.5,-459 905.5,-459 905.5,-440 1054.5,-440 1054.5,-459"/>
<text text-anchor="middle" x="980" y="-447" font-family="Helvetica,sans-Serif" font-size="10.00">Drivers/transDriverModel.h</text>
</a>
</g>
</g>
<!-- Node2&#45;&gt;Node26 -->
<g id="edge61_Node000002_Node000026" class="edge">
<title>Node2&#45;&gt;Node26</title>
<g id="a_edge61_Node000002_Node000026"><a xlink:title=" ">
<path fill="none" stroke="#63b8ff" d="M1190.67,-494.98C1147.16,-485.8 1077.8,-471.15 1030.65,-461.19"/>
<polygon fill="#63b8ff" stroke="#63b8ff" points="1031.15,-457.72 1020.64,-459.08 1029.7,-464.57 1031.15,-457.72"/>
</a>
</g>
</g>
<!-- Node27 -->
<g id="Node000027" class="node">
<title>Node27</title>
<g id="a_Node000027"><a xlink:href="simulatorDriver_8h.html" target="_top" xlink:title=" ">
<polygon fill="white" stroke="#666666" points="1334,-404 1194,-404 1194,-385 1334,-385 1334,-404"/>
<text text-anchor="middle" x="1264" y="-392" font-family="Helvetica,sans-Serif" font-size="10.00">Drivers/simulatorDriver.h</text>
</a>
</g>
</g>
<!-- Node2&#45;&gt;Node27 -->
<g id="edge77_Node000002_Node000027" class="edge">
<title>Node2&#45;&gt;Node27</title>
<g id="a_edge77_Node000002_Node000027"><a xlink:title=" ">
<path fill="none" stroke="#63b8ff" d="M1285.58,-495.9C1327.92,-488.75 1381.6,-476.52 1395,-459 1416.04,-431.49 1377.03,-415.24 1336.23,-406.07"/>
<polygon fill="#63b8ff" stroke="#63b8ff" points="1336.91,-402.64 1326.41,-404 1335.47,-409.49 1336.91,-402.64"/>
</a>
</g>
</g>
<!-- Node11&#45;&gt;Node3 -->
<g id="edge13_Node000011_Node000003" class="edge">
<title>Node11&#45;&gt;Node3</title>
<g id="a_edge13_Node000011_Node000003"><a xlink:title=" ">
<path fill="none" stroke="#63b8ff" d="M1019.8,-282.9C859.69,-280.87 431.38,-272.4 294,-239 226.82,-222.67 152,-244.63 152,-175.5 152,-175.5 152,-175.5 152,-118.5 152,-61.28 210.08,-74.16 264,-55 306.25,-39.99 434.74,-22.33 495.5,-14.54"/>
<polygon fill="#63b8ff" stroke="#63b8ff" points="496.2,-17.98 505.68,-13.25 495.32,-11.04 496.2,-17.98"/>
</a>
</g>
</g>
<!-- Node11&#45;&gt;Node4 -->
<g id="edge11_Node000011_Node000004" class="edge">
<title>Node11&#45;&gt;Node4</title>
<g id="a_edge11_Node000011_Node000004"><a xlink:title=" ">
<path fill="none" stroke="#63b8ff" d="M1092.54,-274.84C1118.71,-255.2 1184.58,-205.86 1240,-165 1253.45,-155.08 1268.64,-144 1280.49,-135.38"/>
<polygon fill="#63b8ff" stroke="#63b8ff" points="1282.79,-138.04 1288.82,-129.33 1278.67,-132.38 1282.79,-138.04"/>
</a>
</g>
</g>
<!-- Node11&#45;&gt;Node5 -->
<g id="edge16_Node000011_Node000005" class="edge">
<title>Node11&#45;&gt;Node5</title>
<g id="a_edge16_Node000011_Node000005"><a xlink:title=" ">
<path fill="none" stroke="#63b8ff" d="M1142.14,-275.05C1180.54,-268.35 1230.47,-257.04 1272,-239 1312.25,-221.51 1322.92,-214.98 1354,-184 1385.36,-152.73 1411.87,-107.49 1425.05,-82.94"/>
<polygon fill="#63b8ff" stroke="#63b8ff" points="1428.16,-84.54 1429.72,-74.06 1421.97,-81.28 1428.16,-84.54"/>
</a>
</g>
</g>
<!-- Node11&#45;&gt;Node7 -->
<g id="edge15_Node000011_Node000007" class="edge">
<title>Node11&#45;&gt;Node7</title>
<g id="a_edge15_Node000011_Node000007"><a xlink:title=" ">
<path fill="none" stroke="#63b8ff" d="M1142.14,-281.1C1257.68,-272.79 1505.01,-235.98 1600,-74 1604.27,-66.72 1605.35,-61.53 1600,-55 1579.49,-29.97 1493.56,-18.73 1434.83,-13.9"/>
<polygon fill="#63b8ff" stroke="#63b8ff" points="1434.81,-10.38 1424.56,-13.09 1434.26,-17.36 1434.81,-10.38"/>
</a>
</g>
</g>
<!-- Node12 -->
<g id="Node000012" class="node">
<title>Node12</title>
<g id="a_Node000012"><a xlink:title=" ">
<polygon fill="#e0e0e0" stroke="#999999" points="1216,-129 1160,-129 1160,-110 1216,-110 1216,-129"/>
<text text-anchor="middle" x="1188" y="-117" font-family="Helvetica,sans-Serif" font-size="10.00">optional</text>
</a>
</g>
</g>
<!-- Node11&#45;&gt;Node12 -->
<g id="edge12_Node000011_Node000012" class="edge">
<title>Node11&#45;&gt;Node12</title>
<g id="a_edge12_Node000011_Node000012"><a xlink:title=" ">
<path fill="none" stroke="#63b8ff" d="M1086.75,-274.74C1103.73,-248.87 1153.88,-172.48 1176.59,-137.88"/>
<polygon fill="#63b8ff" stroke="#63b8ff" points="1179.66,-139.59 1182.22,-129.31 1173.81,-135.75 1179.66,-139.59"/>
</a>
</g>
</g>
<!-- Node13 -->
<g id="Node000013" class="node">
<title>Node13</title>
<g id="a_Node000013"><a xlink:title=" ">
<polygon fill="#e0e0e0" stroke="#999999" points="855.5,-74 814.5,-74 814.5,-55 855.5,-55 855.5,-74"/>
<text text-anchor="middle" x="835" y="-62" font-family="Helvetica,sans-Serif" font-size="10.00">tuple</text>
</a>
</g>
</g>
<!-- Node11&#45;&gt;Node13 -->
<g id="edge14_Node000011_Node000013" class="edge">
<title>Node11&#45;&gt;Node13</title>
<g id="a_edge14_Node000011_Node000013"><a xlink:title=" ">
<path fill="none" stroke="#63b8ff" d="M1074.52,-274.84C1057.69,-252.96 1010.14,-195.04 957,-165 904.06,-135.08 861.91,-177.33 825,-129 815.18,-116.14 819.69,-97.47 825.45,-83.7"/>
<polygon fill="#63b8ff" stroke="#63b8ff" points="828.79,-84.84 829.89,-74.3 822.45,-81.86 828.79,-84.84"/>
</a>
</g>
</g>
<!-- Node14 -->
<g id="Node000014" class="node">
<title>Node14</title>
<g id="a_Node000014"><a xlink:title=" ">
<polygon fill="#e0e0e0" stroke="#999999" points="739.5,-74 674.5,-74 674.5,-55 739.5,-55 739.5,-74"/>
<text text-anchor="middle" x="707" y="-62" font-family="Helvetica,sans-Serif" font-size="10.00">functional</text>
</a>
</g>
</g>
<!-- Node11&#45;&gt;Node14 -->
<g id="edge17_Node000011_Node000014" class="edge">
<title>Node11&#45;&gt;Node14</title>
<g id="a_edge17_Node000011_Node000014"><a xlink:title=" ">
<path fill="none" stroke="#63b8ff" d="M1019.84,-284.41C916.22,-284.67 700.12,-279.68 523,-239 457.44,-223.94 419.95,-239.54 382,-184 312.72,-82.61 561.46,-67.59 664.39,-65.65"/>
<polygon fill="#63b8ff" stroke="#63b8ff" points="664.51,-69.15 674.46,-65.49 664.4,-62.15 664.51,-69.15"/>
</a>
</g>
</g>
<!-- Node11&#45;&gt;Node15 -->
<g id="edge18_Node000011_Node000015" class="edge">
<title>Node11&#45;&gt;Node15</title>
<g id="a_edge18_Node000011_Node000015"><a xlink:title=" ">
<path fill="none" stroke="#63b8ff" d="M1019.81,-276.95C925.59,-266.86 745.89,-247.62 650,-237.35"/>
<polygon fill="#63b8ff" stroke="#63b8ff" points="650.18,-233.85 639.87,-236.27 649.44,-240.81 650.18,-233.85"/>
</a>
</g>
</g>
<!-- Node22 -->
<g id="Node000022" class="node">
<title>Node22</title>
<g id="a_Node000022"><a xlink:href="types_8h.html" target="_top" xlink:title=" ">
<polygon fill="white" stroke="#666666" points="1100.5,-74 1011.5,-74 1011.5,-55 1100.5,-55 1100.5,-74"/>
<text text-anchor="middle" x="1056" y="-62" font-family="Helvetica,sans-Serif" font-size="10.00">Library/types.h</text>
</a>
</g>
</g>
<!-- Node11&#45;&gt;Node22 -->
<g id="edge59_Node000011_Node000022" class="edge">
<title>Node11&#45;&gt;Node22</title>
<g id="a_edge59_Node000011_Node000022"><a xlink:title=" ">
<path fill="none" stroke="#63b8ff" d="M1118.75,-274.98C1206.25,-253.58 1410.21,-193.28 1339,-110 1310.21,-76.33 1184.48,-67.97 1110.64,-66"/>
<polygon fill="#63b8ff" stroke="#63b8ff" points="1110.66,-62.5 1100.58,-65.76 1110.5,-69.5 1110.66,-62.5"/>
</a>
</g>
</g>
<!-- Node11&#45;&gt;Node23 -->
<g id="edge58_Node000011_Node000023" class="edge">
<title>Node11&#45;&gt;Node23</title>
<g id="a_edge58_Node000011_Node000023"><a xlink:title=" ">
<path fill="none" stroke="#63b8ff" d="M1064.81,-274.84C1029.63,-256.04 946.02,-211.33 904,-188.87"/>
<polygon fill="#63b8ff" stroke="#63b8ff" points="905.45,-185.68 894.99,-184.05 902.15,-191.85 905.45,-185.68"/>
</a>
</g>
</g>
<!-- Node24 -->
<g id="Node000024" class="node">
<title>Node24</title>
<g id="a_Node000024"><a xlink:href="error_8h.html" target="_top" xlink:title=" ">
<polygon fill="white" stroke="#666666" points="303.5,-129 218.5,-129 218.5,-110 303.5,-110 303.5,-129"/>
<text text-anchor="middle" x="261" y="-117" font-family="Helvetica,sans-Serif" font-size="10.00">Library/error.h</text>
</a>
</g>
</g>
<!-- Node11&#45;&gt;Node24 -->
<g id="edge60_Node000011_Node000024" class="edge">
<title>Node11&#45;&gt;Node24</title>
<g id="a_edge60_Node000011_Node000024"><a xlink:title=" ">
<path fill="none" stroke="#63b8ff" d="M1019.73,-283.46C848.83,-282.84 375.66,-277.64 318,-239 283.82,-216.09 269.51,-166.7 264.04,-139.47"/>
<polygon fill="#63b8ff" stroke="#63b8ff" points="267.42,-138.52 262.2,-129.3 260.54,-139.76 267.42,-138.52"/>
</a>
</g>
</g>
<!-- Node15&#45;&gt;Node3 -->
<g id="edge22_Node000015_Node000003" class="edge">
<title>Node15&#45;&gt;Node3</title>
<g id="a_edge22_Node000015_Node000003"><a xlink:title=" ">
<path fill="none" stroke="#63b8ff" d="M532.44,-222.56C437.74,-210.81 247.11,-181.11 209,-129 172.55,-79.17 408.25,-31.72 496.01,-15.98"/>
<polygon fill="#63b8ff" stroke="#63b8ff" points="496.72,-19.41 505.95,-14.22 495.49,-12.51 496.72,-19.41"/>
</a>
</g>
</g>
<!-- Node15&#45;&gt;Node4 -->
<g id="edge20_Node000015_Node000004" class="edge">
<title>Node15&#45;&gt;Node4</title>
<g id="a_edge20_Node000015_Node000004"><a xlink:title=" ">
<path fill="none" stroke="#63b8ff" d="M639.55,-226.6C728.94,-222.75 913.98,-211.88 1068,-184 1139.34,-171.09 1220.61,-146.65 1265.85,-132.14"/>
<polygon fill="#63b8ff" stroke="#63b8ff" points="1267.04,-135.44 1275.48,-129.03 1264.88,-128.78 1267.04,-135.44"/>
</a>
</g>
</g>
<!-- Node15&#45;&gt;Node5 -->
<g id="edge26_Node000015_Node000005" class="edge">
<title>Node15&#45;&gt;Node5</title>
<g id="a_edge26_Node000015_Node000005"><a xlink:title=" ">
<path fill="none" stroke="#63b8ff" d="M639.81,-229.33C724.53,-229.25 893.45,-223.53 1030,-184 1048.14,-178.75 1050.23,-171.38 1068,-165 1135.38,-140.82 1157.62,-153.18 1225,-129 1242.77,-122.62 1245.32,-116.64 1263,-110 1309.85,-92.41 1366.42,-79.17 1401.31,-71.88"/>
<polygon fill="#63b8ff" stroke="#63b8ff" points="1402.31,-75.24 1411.4,-69.81 1400.9,-68.39 1402.31,-75.24"/>
</a>
</g>
</g>
<!-- Node15&#45;&gt;Node6 -->
<g id="edge27_Node000015_Node000006" class="edge">
<title>Node15&#45;&gt;Node6</title>
<g id="a_edge27_Node000015_Node000006"><a xlink:title=" ">
<path fill="none" stroke="#63b8ff" d="M532.23,-224.81C453.37,-218.76 310.67,-205.26 264,-184 196.35,-153.18 168.76,-141.68 138,-74 134.51,-66.31 132.51,-61.42 138,-55 169.99,-17.62 320.77,-11.41 389.14,-10.54"/>
<polygon fill="#63b8ff" stroke="#63b8ff" points="389.41,-14.03 399.38,-10.44 389.34,-7.03 389.41,-14.03"/>
</a>
</g>
</g>
<!-- Node15&#45;&gt;Node7 -->
<g id="edge24_Node000015_Node000007" class="edge">
<title>Node15&#45;&gt;Node7</title>
<g id="a_edge24_Node000015_Node000007"><a xlink:title=" ">
<path fill="none" stroke="#63b8ff" d="M639.54,-227.85C717.37,-225.72 865.73,-217.2 987,-184 991.82,-182.68 1146.43,-112.03 1151,-110 1221.94,-78.45 1305.66,-41.94 1348.89,-23.14"/>
<polygon fill="#63b8ff" stroke="#63b8ff" points="1350.46,-26.28 1358.23,-19.08 1347.67,-19.86 1350.46,-26.28"/>
</a>
</g>
</g>
<!-- Node15&#45;&gt;Node13 -->
<g id="edge23_Node000015_Node000013" class="edge">
<title>Node15&#45;&gt;Node13</title>
<g id="a_edge23_Node000015_Node000013"><a xlink:title=" ">
<path fill="none" stroke="#63b8ff" d="M572.83,-219.83C543.93,-200.49 476.62,-153.59 465,-129 461.39,-121.36 459.35,-116.28 465,-110 513.93,-55.61 714.7,-85.94 804.57,-73.46"/>
<polygon fill="#63b8ff" stroke="#63b8ff" points="805.16,-76.91 814.45,-71.82 804.02,-70.01 805.16,-76.91"/>
</a>
</g>
</g>
<!-- Node16 -->
<g id="Node000016" class="node">
<title>Node16</title>
<g id="a_Node000016"><a xlink:title=" ">
<polygon fill="#e0e0e0" stroke="#999999" points="667.5,-184 614.5,-184 614.5,-165 667.5,-165 667.5,-184"/>
<text text-anchor="middle" x="641" y="-172" font-family="Helvetica,sans-Serif" font-size="10.00">iterator</text>
</a>
</g>
</g>
<!-- Node15&#45;&gt;Node16 -->
<g id="edge19_Node000015_Node000016" class="edge">
<title>Node15&#45;&gt;Node16</title>
<g id="a_edge19_Node000015_Node000016"><a xlink:title=" ">
<path fill="none" stroke="#63b8ff" d="M595.08,-219.75C603.09,-212.03 614.96,-200.6 624.62,-191.28"/>
<polygon fill="#63b8ff" stroke="#63b8ff" points="627.31,-193.55 632.09,-184.09 622.46,-188.51 627.31,-193.55"/>
</a>
</g>
</g>
<!-- Node17 -->
<g id="Node000017" class="node">
<title>Node17</title>
<g id="a_Node000017"><a xlink:title=" ">
<polygon fill="#e0e0e0" stroke="#999999" points="522,-129 474,-129 474,-110 522,-110 522,-129"/>
<text text-anchor="middle" x="498" y="-117" font-family="Helvetica,sans-Serif" font-size="10.00">mutex</text>
</a>
</g>
</g>
<!-- Node15&#45;&gt;Node17 -->
<g id="edge21_Node000015_Node000017" class="edge">
<title>Node15&#45;&gt;Node17</title>
<g id="a_edge21_Node000015_Node000017"><a xlink:title=" ">
<path fill="none" stroke="#63b8ff" d="M578.8,-219.66C564.09,-201.61 530.41,-160.28 511.51,-137.08"/>
<polygon fill="#63b8ff" stroke="#63b8ff" points="514.09,-134.7 505.05,-129.16 508.66,-139.12 514.09,-134.7"/>
</a>
</g>
</g>
<!-- Node18 -->
<g id="Node000018" class="node">
<title>Node18</title>
<g id="a_Node000018"><a xlink:title=" ">
<polygon fill="#e0e0e0" stroke="#999999" points="796,-74 758,-74 758,-55 796,-55 796,-74"/>
<text text-anchor="middle" x="777" y="-62" font-family="Helvetica,sans-Serif" font-size="10.00">map</text>
</a>
</g>
</g>
<!-- Node15&#45;&gt;Node18 -->
<g id="edge25_Node000015_Node000018" class="edge">
<title>Node15&#45;&gt;Node18</title>
<g id="a_edge25_Node000015_Node000018"><a xlink:title=" ">
<path fill="none" stroke="#63b8ff" d="M532.03,-223.77C480,-217.96 406.62,-206.05 389,-184 383.73,-177.4 386.25,-172.98 389,-165 399.11,-135.66 404.93,-125.16 432,-110 555.34,-40.95 609.44,-101.98 748,-74 748.1,-73.98 748.2,-73.96 748.3,-73.94"/>
<polygon fill="#63b8ff" stroke="#63b8ff" points="748.88,-77.4 757.77,-71.64 747.23,-70.6 748.88,-77.4"/>
</a>
</g>
</g>
<!-- Node19 -->
<g id="Node000019" class="node">
<title>Node19</title>
<g id="a_Node000019"><a xlink:title=" ">
<polygon fill="#e0e0e0" stroke="#999999" points="444,-184 398,-184 398,-165 444,-165 444,-184"/>
<text text-anchor="middle" x="421" y="-172" font-family="Helvetica,sans-Serif" font-size="10.00">future</text>
</a>
</g>
</g>
<!-- Node15&#45;&gt;Node19 -->
<g id="edge28_Node000015_Node000019" class="edge">
<title>Node15&#45;&gt;Node19</title>
<g id="a_edge28_Node000015_Node000019"><a xlink:title=" ">
<path fill="none" stroke="#63b8ff" d="M559.49,-219.98C530.84,-210.78 485.15,-196.1 454.15,-186.15"/>
<polygon fill="#63b8ff" stroke="#63b8ff" points="454.84,-182.69 444.24,-182.97 452.69,-189.36 454.84,-182.69"/>
</a>
</g>
</g>
<!-- Node20 -->
<g id="Node000020" class="node">
<title>Node20</title>
<g id="a_Node000020"><a xlink:title=" ">
<polygon fill="#e0e0e0" stroke="#999999" points="438,-74 378,-74 378,-55 438,-55 438,-74"/>
<text text-anchor="middle" x="408" y="-62" font-family="Helvetica,sans-Serif" font-size="10.00">iostream</text>
</a>
</g>
</g>
<!-- Node15&#45;&gt;Node20 -->
<g id="edge29_Node000015_Node000020" class="edge">
<title>Node15&#45;&gt;Node20</title>
<g id="a_edge29_Node000015_Node000020"><a xlink:title=" ">
<path fill="none" stroke="#63b8ff" d="M562.32,-219.92C528,-206.22 464.97,-176.06 432,-129 422.49,-115.43 416.19,-97.6 412.44,-84.3"/>
<polygon fill="#63b8ff" stroke="#63b8ff" points="415.76,-83.18 409.87,-74.37 408.98,-84.93 415.76,-83.18"/>
</a>
</g>
</g>
<!-- Node21 -->
<g id="Node000021" class="node">
<title>Node21</title>
<g id="a_Node000021"><a xlink:title=" ">
<polygon fill="#e0e0e0" stroke="#999999" points="626,-129 540,-129 540,-110 626,-110 626,-129"/>
<text text-anchor="middle" x="583" y="-117" font-family="Helvetica,sans-Serif" font-size="10.00">shared_mutex</text>
</a>
</g>
</g>
<!-- Node15&#45;&gt;Node21 -->
<g id="edge30_Node000015_Node000021" class="edge">
<title>Node15&#45;&gt;Node21</title>
<g id="a_edge30_Node000015_Node000021"><a xlink:title=" ">
<path fill="none" stroke="#63b8ff" d="M585.75,-219.66C585.27,-202.17 584.18,-162.8 583.52,-139.27"/>
<polygon fill="#63b8ff" stroke="#63b8ff" points="587.02,-139.06 583.24,-129.16 580.02,-139.25 587.02,-139.06"/>
</a>
</g>
</g>
<!-- Node15&#45;&gt;Node22 -->
<g id="edge31_Node000015_Node000022" class="edge">
<title>Node15&#45;&gt;Node22</title>
<g id="a_edge31_Node000015_Node000022"><a xlink:title=" ">
<path fill="none" stroke="#63b8ff" d="M639.54,-225.96C728.24,-221.1 901.43,-208.72 957,-184 990.96,-168.89 996.5,-157.8 1020,-129 1031.49,-114.92 1041.41,-96.68 1047.91,-83.37"/>
<polygon fill="#63b8ff" stroke="#63b8ff" points="1051.08,-84.83 1052.18,-74.29 1044.75,-81.85 1051.08,-84.83"/>
</a>
</g>
</g>
<!-- Node15&#45;&gt;Node23 -->
<g id="edge35_Node000015_Node000023" class="edge">
<title>Node15&#45;&gt;Node23</title>
<g id="a_edge35_Node000015_Node000023"><a xlink:title=" ">
<path fill="none" stroke="#63b8ff" d="M633.08,-219.98C684.4,-210.7 766.54,-195.84 821.6,-185.88"/>
<polygon fill="#63b8ff" stroke="#63b8ff" points="822.34,-189.31 831.56,-184.08 821.09,-182.42 822.34,-189.31"/>
</a>
</g>
</g>
<!-- Node22&#45;&gt;Node3 -->
<g id="edge34_Node000022_Node000003" class="edge">
<title>Node22&#45;&gt;Node3</title>
<g id="a_edge34_Node000022_Node000003"><a xlink:title=" ">
<path fill="none" stroke="#63b8ff" d="M1011.33,-57.15C1005.5,-56.39 999.61,-55.65 994,-55 831.65,-36.13 636.79,-19.44 560.69,-13.16"/>
<polygon fill="#63b8ff" stroke="#63b8ff" points="560.6,-9.64 550.35,-12.31 560.02,-16.61 560.6,-9.64"/>
</a>
</g>
</g>
<!-- Node22&#45;&gt;Node6 -->
<g id="edge32_Node000022_Node000006" class="edge">
<title>Node22&#45;&gt;Node6</title>
<g id="a_edge32_Node000022_Node000006"><a xlink:title=" ">
<path fill="none" stroke="#63b8ff" d="M1011.39,-60.48C916.6,-53.95 688.13,-37.58 497,-19 483.83,-17.72 469.36,-16.1 456.74,-14.63"/>
<polygon fill="#63b8ff" stroke="#63b8ff" points="456.98,-11.13 446.64,-13.43 456.16,-18.08 456.98,-11.13"/>
</a>
</g>
</g>
<!-- Node22&#45;&gt;Node7 -->
<g id="edge33_Node000022_Node000007" class="edge">
<title>Node22&#45;&gt;Node7</title>
<g id="a_edge33_Node000022_Node000007"><a xlink:title=" ">
<path fill="none" stroke="#63b8ff" d="M1100.77,-56.13C1158.31,-46.66 1258.26,-30.21 1321.12,-19.86"/>
<polygon fill="#63b8ff" stroke="#63b8ff" points="1321.96,-23.27 1331.26,-18.19 1320.82,-16.36 1321.96,-23.27"/>
</a>
</g>
</g>
<!-- Node23&#45;&gt;Node3 -->
<g id="edge39_Node000023_Node000003" class="edge">
<title>Node23&#45;&gt;Node3</title>
<g id="a_edge39_Node000023_Node000003"><a xlink:title=" ">
<path fill="none" stroke="#63b8ff" d="M911.21,-164.92C929.25,-158.29 950.23,-147.09 961,-129 981.26,-94.96 926.42,-60.69 916,-55 854.91,-21.66 642.3,-13.17 560.46,-11.12"/>
<polygon fill="#63b8ff" stroke="#63b8ff" points="560.33,-7.62 550.25,-10.88 560.17,-14.62 560.33,-7.62"/>
</a>
</g>
</g>
<!-- Node23&#45;&gt;Node4 -->
<g id="edge42_Node000023_Node000004" class="edge">
<title>Node23&#45;&gt;Node4</title>
<g id="a_edge42_Node000023_Node000004"><a xlink:title=" ">
<path fill="none" stroke="#63b8ff" d="M946.8,-164.98C1036.07,-153.77 1190.09,-134.43 1261.96,-125.4"/>
<polygon fill="#63b8ff" stroke="#63b8ff" points="1262.46,-128.87 1271.95,-124.15 1261.59,-121.92 1262.46,-128.87"/>
</a>
</g>
</g>
<!-- Node23&#45;&gt;Node5 -->
<g id="edge40_Node000023_Node000005" class="edge">
<title>Node23&#45;&gt;Node5</title>
<g id="a_edge40_Node000023_Node000005"><a xlink:title=" ">
<path fill="none" stroke="#63b8ff" d="M911.91,-164.99C962.89,-152 1064.14,-126.94 1151,-110 1240.97,-92.45 1348.07,-77.1 1401.01,-69.89"/>
<polygon fill="#63b8ff" stroke="#63b8ff" points="1401.72,-73.32 1411.16,-68.51 1400.78,-66.39 1401.72,-73.32"/>
</a>
</g>
</g>
<!-- Node23&#45;&gt;Node6 -->
<g id="edge41_Node000023_Node000006" class="edge">
<title>Node23&#45;&gt;Node6</title>
<g id="a_edge41_Node000023_Node000006"><a xlink:title=" ">
<path fill="none" stroke="#63b8ff" d="M853.75,-164.92C827.71,-156.04 785.96,-141.72 750,-129 642.1,-90.84 514.73,-44.23 455.86,-22.6"/>
<polygon fill="#63b8ff" stroke="#63b8ff" points="456.94,-19.27 446.35,-19.1 454.53,-25.84 456.94,-19.27"/>
</a>
</g>
</g>
<!-- Node23&#45;&gt;Node12 -->
<g id="edge44_Node000023_Node000012" class="edge">
<title>Node23&#45;&gt;Node12</title>
<g id="a_edge44_Node000023_Node000012"><a xlink:title=" ">
<path fill="none" stroke="#63b8ff" d="M928.65,-164.98C990.19,-154.43 1093.76,-136.66 1149.59,-127.09"/>
<polygon fill="#63b8ff" stroke="#63b8ff" points="1150.49,-130.48 1159.76,-125.34 1149.31,-123.58 1150.49,-130.48"/>
</a>
</g>
</g>
<!-- Node23&#45;&gt;Node14 -->
<g id="edge45_Node000023_Node000014" class="edge">
<title>Node23&#45;&gt;Node14</title>
<g id="a_edge45_Node000023_Node000014"><a xlink:title=" ">
<path fill="none" stroke="#63b8ff" d="M854.1,-164.85C833.2,-157.03 802.99,-144.4 779,-129 757.66,-115.3 736.26,-95.46 722.4,-81.61"/>
<polygon fill="#63b8ff" stroke="#63b8ff" points="724.67,-78.93 715.17,-74.24 719.68,-83.83 724.67,-78.93"/>
</a>
</g>
</g>
<!-- Node23&#45;&gt;Node17 -->
<g id="edge37_Node000023_Node000017" class="edge">
<title>Node23&#45;&gt;Node17</title>
<g id="a_edge37_Node000023_Node000017"><a xlink:title=" ">
<path fill="none" stroke="#63b8ff" d="M809.27,-167.17C740.92,-160.38 633.67,-148.16 531.9,-128.95"/>
<polygon fill="#63b8ff" stroke="#63b8ff" points="532.55,-125.51 522.07,-127.07 531.24,-132.39 532.55,-125.51"/>
</a>
</g>
</g>
<!-- Node23&#45;&gt;Node18 -->
<g id="edge43_Node000023_Node000018" class="edge">
<title>Node23&#45;&gt;Node18</title>
<g id="a_edge43_Node000023_Node000018"><a xlink:title=" ">
<path fill="none" stroke="#63b8ff" d="M847.69,-164.85C828.86,-158.07 805.92,-146.76 792,-129 782.06,-116.33 778.54,-98.14 777.37,-84.48"/>
<polygon fill="#63b8ff" stroke="#63b8ff" points="780.85,-84.09 776.85,-74.28 773.86,-84.45 780.85,-84.09"/>
</a>
</g>
</g>
<!-- Node23&#45;&gt;Node20 -->
<g id="edge36_Node000023_Node000020" class="edge">
<title>Node23&#45;&gt;Node20</title>
<g id="a_edge36_Node000023_Node000020"><a xlink:title=" ">
<path fill="none" stroke="#63b8ff" d="M827.44,-165C786.39,-157.53 727.75,-145.32 678,-129 658.15,-122.49 654.93,-116.27 635,-110 571.21,-89.93 494.35,-77.14 448.42,-70.65"/>
<polygon fill="#63b8ff" stroke="#63b8ff" points="448.66,-67.15 438.28,-69.25 447.7,-74.09 448.66,-67.15"/>
</a>
</g>
</g>
<!-- Node23&#45;&gt;Node21 -->
<g id="edge38_Node000023_Node000021" class="edge">
<title>Node23&#45;&gt;Node21</title>
<g id="a_edge38_Node000023_Node000021"><a xlink:title=" ">
<path fill="none" stroke="#63b8ff" d="M831.44,-164.98C778.06,-155.43 691.66,-139.96 636.11,-130.01"/>
<polygon fill="#63b8ff" stroke="#63b8ff" points="636.57,-126.54 626.11,-128.22 635.33,-133.43 636.57,-126.54"/>
</a>
</g>
</g>
<!-- Node23&#45;&gt;Node22 -->
<g id="edge46_Node000023_Node000022" class="edge">
<title>Node23&#45;&gt;Node22</title>
<g id="a_edge46_Node000023_Node000022"><a xlink:title=" ">
<path fill="none" stroke="#63b8ff" d="M911.5,-165C935.56,-157.77 968.45,-145.86 994,-129 1013.6,-116.07 1031.83,-96.03 1043.38,-81.93"/>
<polygon fill="#63b8ff" stroke="#63b8ff" points="1046.18,-84.04 1049.66,-74.04 1040.7,-79.69 1046.18,-84.04"/>
</a>
</g>
</g>
<!-- Node23&#45;&gt;Node24 -->
<g id="edge47_Node000023_Node000024" class="edge">
<title>Node23&#45;&gt;Node24</title>
<g id="a_edge47_Node000023_Node000024"><a xlink:title=" ">
<path fill="none" stroke="#63b8ff" d="M809.31,-167.52C684.41,-156.81 425.13,-134.58 313.73,-125.02"/>
<polygon fill="#63b8ff" stroke="#63b8ff" points="314,-121.53 303.74,-124.17 313.4,-128.51 314,-121.53"/>
</a>
</g>
</g>
<!-- Node25 -->
<g id="Node000025" class="node">
<title>Node25</title>
<g id="a_Node000025"><a xlink:href="evaluate_8h.html" target="_top" xlink:title=" ">
<polygon fill="white" stroke="#666666" points="952,-129 834,-129 834,-110 952,-110 952,-129"/>
<text text-anchor="middle" x="893" y="-117" font-family="Helvetica,sans-Serif" font-size="10.00">Evaluator/evaluate.h</text>
</a>
</g>
</g>
<!-- Node23&#45;&gt;Node25 -->
<g id="edge50_Node000023_Node000025" class="edge">
<title>Node23&#45;&gt;Node25</title>
<g id="a_edge50_Node000023_Node000025"><a xlink:title=" ">
<path fill="none" stroke="#63b8ff" d="M881.31,-164.75C883.17,-157.72 885.84,-147.62 888.15,-138.84"/>
<polygon fill="#63b8ff" stroke="#63b8ff" points="891.56,-139.65 890.73,-129.09 884.79,-137.86 891.56,-139.65"/>
</a>
</g>
</g>
<!-- Node24&#45;&gt;Node3 -->
<g id="edge48_Node000024_Node000003" class="edge">
<title>Node24&#45;&gt;Node3</title>
<g id="a_edge48_Node000024_Node000003"><a xlink:title=" ">
<path fill="none" stroke="#63b8ff" d="M273.08,-109.97C292.49,-96.62 332.17,-70.67 369,-55 411.37,-36.98 463.16,-24.05 495.87,-16.92"/>
<polygon fill="#63b8ff" stroke="#63b8ff" points="496.74,-20.32 505.79,-14.81 495.28,-13.47 496.74,-20.32"/>
</a>
</g>
</g>
<!-- Node24&#45;&gt;Node20 -->
<g id="edge49_Node000024_Node000020" class="edge">
<title>Node24&#45;&gt;Node20</title>
<g id="a_edge49_Node000024_Node000020"><a xlink:title=" ">
<path fill="none" stroke="#63b8ff" d="M284.62,-109.98C308.9,-101.23 346.95,-87.51 374.37,-77.62"/>
<polygon fill="#63b8ff" stroke="#63b8ff" points="375.73,-80.85 383.95,-74.17 373.36,-74.27 375.73,-80.85"/>
</a>
</g>
</g>
<!-- Node25&#45;&gt;Node3 -->
<g id="edge53_Node000025_Node000003" class="edge">
<title>Node25&#45;&gt;Node3</title>
<g id="a_edge53_Node000025_Node000003"><a xlink:title=" ">
<path fill="none" stroke="#63b8ff" d="M897.17,-109.87C903.01,-96.37 911.5,-70.22 898,-55 875.72,-29.88 646.21,-16.23 560.26,-11.98"/>
<polygon fill="#63b8ff" stroke="#63b8ff" points="560.21,-8.47 550.05,-11.48 559.87,-15.46 560.21,-8.47"/>
</a>
</g>
</g>
<!-- Node25&#45;&gt;Node5 -->
<g id="edge51_Node000025_Node000005" class="edge">
<title>Node25&#45;&gt;Node5</title>
<g id="a_edge51_Node000025_Node000005"><a xlink:title=" ">
<path fill="none" stroke="#63b8ff" d="M952.18,-112.7C1066.13,-101.54 1312.56,-77.4 1401.31,-68.7"/>
<polygon fill="#63b8ff" stroke="#63b8ff" points="1401.72,-72.18 1411.33,-67.72 1401.04,-65.21 1401.72,-72.18"/>
</a>
</g>
</g>
<!-- Node25&#45;&gt;Node6 -->
<g id="edge52_Node000025_Node000006" class="edge">
<title>Node25&#45;&gt;Node6</title>
<g id="a_edge52_Node000025_Node000006"><a xlink:title=" ">
<path fill="none" stroke="#63b8ff" d="M891.8,-109.79C889.34,-95.68 882.35,-68.1 864,-55 797.31,-7.38 578.49,-27.68 497,-19 483.84,-17.6 469.37,-15.96 456.75,-14.5"/>
<polygon fill="#63b8ff" stroke="#63b8ff" points="456.99,-11 446.65,-13.32 456.18,-17.95 456.99,-11"/>
</a>
</g>
</g>
<!-- Node25&#45;&gt;Node13 -->
<g id="edge55_Node000025_Node000013" class="edge">
<title>Node25&#45;&gt;Node13</title>
<g id="a_edge55_Node000025_Node000013"><a xlink:title=" ">
<path fill="none" stroke="#63b8ff" d="M883.68,-109.98C875.19,-102.23 862.44,-90.58 852.12,-81.14"/>
<polygon fill="#63b8ff" stroke="#63b8ff" points="854.23,-78.33 844.49,-74.17 849.51,-83.5 854.23,-78.33"/>
</a>
</g>
</g>
<!-- Node25&#45;&gt;Node14 -->
<g id="edge54_Node000025_Node000014" class="edge">
<title>Node25&#45;&gt;Node14</title>
<g id="a_edge54_Node000025_Node000014"><a xlink:title=" ">
<path fill="none" stroke="#63b8ff" d="M863.12,-109.98C831.62,-101.01 781.83,-86.82 746.97,-76.89"/>
<polygon fill="#63b8ff" stroke="#63b8ff" points="747.69,-73.46 737.12,-74.08 745.78,-80.19 747.69,-73.46"/>
</a>
</g>
</g>
<!-- Node25&#45;&gt;Node18 -->
<g id="edge56_Node000025_Node000018" class="edge">
<title>Node25&#45;&gt;Node18</title>
<g id="a_edge56_Node000025_Node000018"><a xlink:title=" ">
<path fill="none" stroke="#63b8ff" d="M874.36,-109.98C855.7,-101.46 826.75,-88.23 805.26,-78.41"/>
<polygon fill="#63b8ff" stroke="#63b8ff" points="806.53,-75.14 795.98,-74.17 803.62,-81.51 806.53,-75.14"/>
</a>
</g>
</g>
<!-- Node25&#45;&gt;Node22 -->
<g id="edge57_Node000025_Node000022" class="edge">
<title>Node25&#45;&gt;Node22</title>
<g id="a_edge57_Node000025_Node000022"><a xlink:title=" ">
<path fill="none" stroke="#63b8ff" d="M919.19,-109.98C946.44,-101.13 989.3,-87.19 1019.78,-77.28"/>
<polygon fill="#63b8ff" stroke="#63b8ff" points="1021.18,-80.5 1029.61,-74.08 1019.01,-73.85 1021.18,-80.5"/>
</a>
</g>
</g>
<!-- Node26&#45;&gt;Node3 -->
<g id="edge62_Node000026_Node000003" class="edge">
<title>Node26&#45;&gt;Node3</title>
<g id="a_edge62_Node000026_Node000003"><a xlink:title=" ">
<path fill="none" stroke="#63b8ff" d="M905.25,-442.9C688.67,-425.67 76,-369.52 76,-285.5 76,-285.5 76,-285.5 76,-118.5 76,-63.58 130.11,-72.99 182,-55 196.77,-49.88 412.74,-24.08 495.79,-14.28"/>
<polygon fill="#63b8ff" stroke="#63b8ff" points="496.4,-17.73 505.92,-13.09 495.58,-10.78 496.4,-17.73"/>
</a>
</g>
</g>
<!-- Node26&#45;&gt;Node6 -->
<g id="edge63_Node000026_Node000006" class="edge">
<title>Node26&#45;&gt;Node6</title>
<g id="a_edge63_Node000026_Node000006"><a xlink:title=" ">
<path fill="none" stroke="#63b8ff" d="M905.27,-446.06C793.09,-441.67 574.74,-430.33 391,-404 274.51,-387.31 240.31,-395.01 132,-349 85.6,-329.29 38,-335.92 38,-285.5 38,-285.5 38,-285.5 38,-118.5 38,-77.79 67.39,-72.79 104,-55 153.75,-30.82 317.13,-17.44 388.79,-12.6"/>
<polygon fill="#63b8ff" stroke="#63b8ff" points="389.33,-16.08 399.08,-11.93 388.87,-9.09 389.33,-16.08"/>
</a>
</g>
</g>
<!-- Node26&#45;&gt;Node11 -->
<g id="edge64_Node000026_Node000011" class="edge">
<title>Node26&#45;&gt;Node11</title>
<g id="a_edge64_Node000026_Node000011"><a xlink:title=" ">
<path fill="none" stroke="#63b8ff" d="M985.43,-439.74C1001.46,-413.87 1048.79,-337.48 1070.23,-302.88"/>
<polygon fill="#63b8ff" stroke="#63b8ff" points="1073.25,-304.65 1075.54,-294.31 1067.3,-300.96 1073.25,-304.65"/>
</a>
</g>
</g>
<!-- Node26&#45;&gt;Node23 -->
<g id="edge75_Node000026_Node000023" class="edge">
<title>Node26&#45;&gt;Node23</title>
<g id="a_edge75_Node000026_Node000023"><a xlink:title=" ">
<path fill="none" stroke="#63b8ff" d="M973.55,-439.77C961.11,-422.04 935,-380.11 935,-340.5 935,-340.5 935,-340.5 935,-283.5 935,-247.65 910.38,-211.86 893.79,-191.81"/>
<polygon fill="#63b8ff" stroke="#63b8ff" points="896.44,-189.52 887.26,-184.23 891.13,-194.09 896.44,-189.52"/>
</a>
</g>
</g>
<!-- Node26&#45;&gt;Node27 -->
<g id="edge65_Node000026_Node000027" class="edge">
<title>Node26&#45;&gt;Node27</title>
<g id="a_edge65_Node000026_Node000027"><a xlink:title=" ">
<path fill="none" stroke="#63b8ff" d="M1025.63,-439.98C1075.27,-430.72 1154.66,-415.9 1208.03,-405.94"/>
<polygon fill="#63b8ff" stroke="#63b8ff" points="1208.82,-409.36 1218.01,-404.08 1207.54,-402.48 1208.82,-409.36"/>
</a>
</g>
</g>
<!-- Node27&#45;&gt;Node5 -->
<g id="edge66_Node000027_Node000005" class="edge">
<title>Node27&#45;&gt;Node5</title>
<g id="a_edge66_Node000027_Node000005"><a xlink:title=" ">
<path fill="none" stroke="#63b8ff" d="M1334.16,-391.52C1406.88,-385.28 1510,-362.81 1510,-285.5 1510,-285.5 1510,-285.5 1510,-173.5 1510,-134.47 1476.39,-99.58 1453.87,-80.6"/>
<polygon fill="#63b8ff" stroke="#63b8ff" points="1455.85,-77.7 1445.88,-74.12 1451.44,-83.14 1455.85,-77.7"/>
</a>
</g>
</g>
<!-- Node27&#45;&gt;Node11 -->
<g id="edge67_Node000027_Node000011" class="edge">
<title>Node27&#45;&gt;Node11</title>
<g id="a_edge67_Node000027_Node000011"><a xlink:title=" ">
<path fill="none" stroke="#63b8ff" d="M1249.33,-384.84C1217.67,-366.16 1142.67,-321.9 1104.38,-299.3"/>
<polygon fill="#63b8ff" stroke="#63b8ff" points="1105.87,-296.12 1095.48,-294.05 1102.32,-302.14 1105.87,-296.12"/>
</a>
</g>
</g>
<!-- Node28 -->
<g id="Node000028" class="node">
<title>Node28</title>
<g id="a_Node000028"><a xlink:href="simulator_8h.html" target="_top" xlink:title=" ">
<polygon fill="white" stroke="#666666" points="1325,-349 1203,-349 1203,-330 1325,-330 1325,-349"/>
<text text-anchor="middle" x="1264" y="-337" font-family="Helvetica,sans-Serif" font-size="10.00">Simulator/simulator.h</text>
</a>
</g>
</g>
<!-- Node27&#45;&gt;Node28 -->
<g id="edge68_Node000027_Node000028" class="edge">
<title>Node27&#45;&gt;Node28</title>
<g id="a_edge68_Node000027_Node000028"><a xlink:title=" ">
<path fill="none" stroke="#63b8ff" d="M1264,-384.75C1264,-377.8 1264,-367.85 1264,-359.13"/>
<polygon fill="#63b8ff" stroke="#63b8ff" points="1267.5,-359.09 1264,-349.09 1260.5,-359.09 1267.5,-359.09"/>
</a>
</g>
</g>
<!-- Node28&#45;&gt;Node4 -->
<g id="edge69_Node000028_Node000004" class="edge">
<title>Node28&#45;&gt;Node4</title>
<g id="a_edge69_Node000028_Node000004"><a xlink:title=" ">
<path fill="none" stroke="#63b8ff" d="M1265.45,-329.95C1270.89,-297.88 1290.19,-184.2 1297.84,-139.12"/>
<polygon fill="#63b8ff" stroke="#63b8ff" points="1301.3,-139.67 1299.52,-129.22 1294.4,-138.5 1301.3,-139.67"/>
</a>
</g>
</g>
<!-- Node28&#45;&gt;Node5 -->
<g id="edge70_Node000028_Node000005" class="edge">
<title>Node28&#45;&gt;Node5</title>
<g id="a_edge70_Node000028_Node000005"><a xlink:title=" ">
<path fill="none" stroke="#63b8ff" d="M1303.83,-329.95C1326.25,-323.38 1353.38,-312.24 1372,-294 1431.17,-236.03 1435.6,-127.73 1434.81,-84.26"/>
<polygon fill="#63b8ff" stroke="#63b8ff" points="1438.3,-83.92 1434.5,-74.03 1431.31,-84.13 1438.3,-83.92"/>
</a>
</g>
</g>
<!-- Node28&#45;&gt;Node11 -->
<g id="edge72_Node000028_Node000011" class="edge">
<title>Node28&#45;&gt;Node11</title>
<g id="a_edge72_Node000028_Node000011"><a xlink:title=" ">
<path fill="none" stroke="#63b8ff" d="M1234.6,-329.98C1203.61,-321.01 1154.62,-306.82 1120.33,-296.89"/>
<polygon fill="#63b8ff" stroke="#63b8ff" points="1121.21,-293.5 1110.63,-294.08 1119.26,-300.23 1121.21,-293.5"/>
</a>
</g>
</g>
<!-- Node28&#45;&gt;Node15 -->
<g id="edge73_Node000028_Node000015" class="edge">
<title>Node28&#45;&gt;Node15</title>
<g id="a_edge73_Node000028_Node000015"><a xlink:title=" ">
<path fill="none" stroke="#63b8ff" d="M1210.52,-329.98C1086.94,-310.3 782.05,-261.73 649.38,-240.6"/>
<polygon fill="#63b8ff" stroke="#63b8ff" points="649.79,-237.12 639.36,-239 648.69,-244.03 649.79,-237.12"/>
</a>
</g>
</g>
<!-- Node28&#45;&gt;Node22 -->
<g id="edge71_Node000028_Node000022" class="edge">
<title>Node28&#45;&gt;Node22</title>
<g id="a_edge71_Node000028_Node000022"><a xlink:title=" ">
<path fill="none" stroke="#63b8ff" d="M1273.64,-329.57C1307.98,-296.71 1419.11,-180.78 1358,-110 1326.68,-73.72 1188.85,-66.49 1110.66,-65.38"/>
<polygon fill="#63b8ff" stroke="#63b8ff" points="1110.54,-61.87 1100.5,-65.26 1110.46,-68.87 1110.54,-61.87"/>
</a>
</g>
</g>
<!-- Node28&#45;&gt;Node23 -->
<g id="edge74_Node000028_Node000023" class="edge">
<title>Node28&#45;&gt;Node23</title>
<g id="a_edge74_Node000028_Node000023"><a xlink:title=" ">
<path fill="none" stroke="#63b8ff" d="M1250.46,-329.94C1229.62,-316.99 1188.21,-292.12 1151,-275 1069.68,-237.58 969.92,-204.08 916.7,-187.15"/>
<polygon fill="#63b8ff" stroke="#63b8ff" points="917.59,-183.77 907,-184.09 915.48,-190.44 917.59,-183.77"/>
</a>
</g>
</g>
</g>
</svg>

<g id="navigator" transform="translate(0 0)" fill="#404254">
  <rect fill="#f2f5e9" fill-opacity="0.5" stroke="#606060" stroke-width=".5" x="0" y="0" width="60" height="60"/>
  <use id="zoomplus" xlink:href="#zoomPlus" x="17" y="9" onmousedown="handleZoom(evt,'in')"/>
  <use id="zoomminus" xlink:href="#zoomMin" x="42" y="9" onmousedown="handleZoom(evt,'out')"/>
  <use id="reset" xlink:href="#resetDef" x="30" y="36" onmousedown="handleReset()"/>
   <use id="arrowup" xlink:href="#arrowUp" x="0" y="0" onmousedown="handlePan(0,-1)"/>
  <use id="arrowright" xlink:href="#arrowRight" x="0" y="0" onmousedown="handlePan(1,0)"/>
  <use id="arrowdown" xlink:href="#arrowDown" x="0" y="0" onmousedown="handlePan(0,1)"/>
  <use id="arrowleft" xlink:href="#arrowLeft" x="0" y="0" onmousedown="handlePan(-1,0)"/>
</g>
<svg viewBox="0 0 15 15" width="100%" height="30px" preserveAspectRatio="xMaxYMin meet">
 <g id="arrow_out" transform="scale(0.3 0.3)">
  <a xlink:href="dutDriver_8cpp__incl_org.svg" target="_base">
   <rect id="button" ry="5" rx="5" y="6" x="6" height="38" width="38"
        fill="#f2f5e9" fill-opacity="0.5" stroke="#606060" stroke-width="1.0"/>
   <path id="arrow"
     d="M 11.500037,31.436501 C 11.940474,20.09759 22.043105,11.32322 32.158766,21.979434 L 37.068811,17.246167 C 37.068811,17.246167 37.088388,32 37.088388,32 L 22.160133,31.978069 C 22.160133,31.978069 26.997745,27.140456 26.997745,27.140456 C 18.528582,18.264221 13.291696,25.230495 11.500037,31.436501 z"
     style="fill:#404040;"/>
  </a>
 </g>
</svg>

<style type='text/css'>
<![CDATA[
[data-mouse-over-selected='false'] { opacity: 0.7; }
[data-mouse-over-selected='true']  { opacity: 1.0; }
]]>
</style>
<script type="application/ecmascript"><![CDATA[
document.addEventListener('DOMContentLoaded', (event) => {
  highlightEdges();
  highlightAdjacentNodes();
});
]]></script>
</svg>
