<?xml version="1.0" encoding="UTF-8" standalone="no"?>
<!DOCTYPE svg PUBLIC "-//W3C//DTD SVG 1.1//EN"
 "http://www.w3.org/Graphics/SVG/1.1/DTD/svg11.dtd">
<!-- Generated by graphviz version 2.43.0 (0)
 -->
<!-- Title: include/Drivers/dutDriver.h Pages: 1 -->
<svg width="731pt" height="302pt"
 viewBox="0.00 0.00 730.50 302.00" xmlns="http://www.w3.org/2000/svg" xmlns:xlink="http://www.w3.org/1999/xlink">
<g id="graph0" class="graph" transform="scale(1 1) rotate(0) translate(4 298)">
<title>include/Drivers/dutDriver.h</title>
<!-- Node1 -->
<g id="Node000001" class="node">
<title>Node1</title>
<g id="a_Node000001"><a xlink:title=" ">
<polygon fill="#999999" stroke="#666666" points="517.5,-294 370.5,-294 370.5,-275 517.5,-275 517.5,-294"/>
<text text-anchor="middle" x="444" y="-282" font-family="Helvetica,sans-Serif" font-size="10.00">include/Drivers/dutDriver.h</text>
</a>
</g>
</g>
<!-- Node2 -->
<g id="Node000002" class="node">
<title>Node2</title>
<g id="a_Node000002"><a xlink:href="driver_8h.html" target="_top" xlink:title=" ">
<polygon fill="white" stroke="#666666" points="342,-184 212,-184 212,-165 342,-165 342,-184"/>
<text text-anchor="middle" x="277" y="-172" font-family="Helvetica,sans-Serif" font-size="10.00">include/Drivers/driver.h</text>
</a>
</g>
</g>
<!-- Node1&#45;&gt;Node2 -->
<g id="edge1_Node000001_Node000002" class="edge">
<title>Node1&#45;&gt;Node2</title>
<g id="a_edge1_Node000001_Node000002"><a xlink:title=" ">
<path fill="none" stroke="#63b8ff" d="M422.04,-269.3C386.93,-246.59 319.21,-202.8 290.45,-184.2"/>
<polygon fill="#63b8ff" stroke="#63b8ff" points="420.32,-272.35 430.62,-274.84 424.12,-266.48 420.32,-272.35"/>
</a>
</g>
</g>
<!-- Node4 -->
<g id="Node000004" class="node">
<title>Node4</title>
<g id="a_Node000004"><a xlink:href="mlvp_8h.html" target="_top" xlink:title=" ">
<polygon fill="white" stroke="#666666" points="434.5,-74 345.5,-74 345.5,-55 434.5,-55 434.5,-74"/>
<text text-anchor="middle" x="390" y="-62" font-family="Helvetica,sans-Serif" font-size="10.00">include/mlvp.h</text>
</a>
</g>
</g>
<!-- Node1&#45;&gt;Node4 -->
<g id="edge14_Node000001_Node000004" class="edge">
<title>Node1&#45;&gt;Node4</title>
<g id="a_edge14_Node000001_Node000004"><a xlink:title=" ">
<path fill="none" stroke="#63b8ff" d="M430.17,-266.94C424.25,-258.97 417.82,-248.99 414,-239 391.08,-179.07 389.64,-100.07 389.84,-74.14"/>
<polygon fill="#63b8ff" stroke="#63b8ff" points="427.56,-269.27 436.49,-274.97 433.06,-264.95 427.56,-269.27"/>
</a>
</g>
</g>
<!-- Node8 -->
<g id="Node000008" class="node">
<title>Node8</title>
<g id="a_Node000008"><a xlink:href="refDriver_8h.html" target="_top" xlink:title=" ">
<polygon fill="white" stroke="#666666" points="567.5,-239 422.5,-239 422.5,-220 567.5,-220 567.5,-239"/>
<text text-anchor="middle" x="495" y="-227" font-family="Helvetica,sans-Serif" font-size="10.00">include/Drivers/refDriver.h</text>
</a>
</g>
</g>
<!-- Node1&#45;&gt;Node8 -->
<g id="edge9_Node000001_Node000008" class="edge">
<title>Node1&#45;&gt;Node8</title>
<g id="a_edge9_Node000001_Node000008"><a xlink:title=" ">
<path fill="none" stroke="#63b8ff" d="M459.38,-267.52C468.37,-258.18 479.36,-246.75 486.74,-239.09"/>
<polygon fill="#63b8ff" stroke="#63b8ff" points="456.83,-265.12 452.42,-274.75 461.88,-269.97 456.83,-265.12"/>
</a>
</g>
</g>
<!-- Node10 -->
<g id="Node000010" class="node">
<title>Node10</title>
<g id="a_Node000010"><a xlink:href="dutDriver_8cpp.html" target="_top" xlink:title=" ">
<polygon fill="white" stroke="#666666" points="722.5,-239 585.5,-239 585.5,-220 722.5,-220 722.5,-239"/>
<text text-anchor="middle" x="654" y="-227" font-family="Helvetica,sans-Serif" font-size="10.00">src/Drivers/dutDriver.cpp</text>
</a>
</g>
</g>
<!-- Node1&#45;&gt;Node10 -->
<g id="edge15_Node000001_Node000010" class="edge">
<title>Node1&#45;&gt;Node10</title>
<g id="a_edge15_Node000001_Node000010"><a xlink:title=" ">
<path fill="none" stroke="#63b8ff" d="M487.58,-272.5C526.9,-262.58 583.95,-248.18 620,-239.08"/>
<polygon fill="#63b8ff" stroke="#63b8ff" points="486.58,-269.14 477.74,-274.98 488.29,-275.93 486.58,-269.14"/>
</a>
</g>
</g>
<!-- Node3 -->
<g id="Node000003" class="node">
<title>Node3</title>
<g id="a_Node000003"><a xlink:href="spreader_8h.html" target="_top" xlink:title=" ">
<polygon fill="white" stroke="#666666" points="328,-129 176,-129 176,-110 328,-110 328,-129"/>
<text text-anchor="middle" x="252" y="-117" font-family="Helvetica,sans-Serif" font-size="10.00">include/Spreader/spreader.h</text>
</a>
</g>
</g>
<!-- Node2&#45;&gt;Node3 -->
<g id="edge2_Node000002_Node000003" class="edge">
<title>Node2&#45;&gt;Node3</title>
<g id="a_edge2_Node000002_Node000003"><a xlink:title=" ">
<path fill="none" stroke="#63b8ff" d="M268.52,-155.53C264.31,-146.6 259.41,-136.22 256.05,-129.09"/>
<polygon fill="#63b8ff" stroke="#63b8ff" points="265.44,-157.2 272.87,-164.75 271.77,-154.21 265.44,-157.2"/>
</a>
</g>
</g>
<!-- Node2&#45;&gt;Node4 -->
<g id="edge6_Node000002_Node000004" class="edge">
<title>Node2&#45;&gt;Node4</title>
<g id="a_edge6_Node000002_Node000004"><a xlink:title=" ">
<path fill="none" stroke="#63b8ff" d="M298.99,-159.08C310.79,-150.88 325.28,-140.07 337,-129 355.79,-111.25 374.36,-87.07 383.73,-74.27"/>
<polygon fill="#63b8ff" stroke="#63b8ff" points="296.88,-156.28 290.58,-164.79 300.82,-162.07 296.88,-156.28"/>
</a>
</g>
</g>
<!-- Node5 -->
<g id="Node000005" class="node">
<title>Node5</title>
<g id="a_Node000005"><a xlink:href="main_8cpp.html" target="_top" xlink:title=" ">
<polygon fill="white" stroke="#666666" points="429.5,-19 350.5,-19 350.5,0 429.5,0 429.5,-19"/>
<text text-anchor="middle" x="390" y="-7" font-family="Helvetica,sans-Serif" font-size="10.00">src/main.cpp</text>
</a>
</g>
</g>
<!-- Node2&#45;&gt;Node5 -->
<g id="edge8_Node000002_Node000005" class="edge">
<title>Node2&#45;&gt;Node5</title>
<g id="a_edge8_Node000002_Node000005"><a xlink:title=" ">
<path fill="none" stroke="#63b8ff" d="M212.92,-161.63C195.09,-155.06 177.69,-144.85 167,-129 157.84,-115.41 150.36,-78.47 171,-55 194.13,-28.71 293.51,-17.37 350.13,-12.97"/>
<polygon fill="#63b8ff" stroke="#63b8ff" points="212.24,-165.09 222.84,-164.92 214.45,-158.45 212.24,-165.09"/>
</a>
</g>
</g>
<!-- Node7 -->
<g id="Node000007" class="node">
<title>Node7</title>
<g id="a_Node000007"><a xlink:href="driver_8cpp.html" target="_top" xlink:title=" ">
<polygon fill="white" stroke="#666666" points="120,-129 0,-129 0,-110 120,-110 120,-129"/>
<text text-anchor="middle" x="60" y="-117" font-family="Helvetica,sans-Serif" font-size="10.00">src/Drivers/driver.cpp</text>
</a>
</g>
</g>
<!-- Node2&#45;&gt;Node7 -->
<g id="edge7_Node000002_Node000007" class="edge">
<title>Node2&#45;&gt;Node7</title>
<g id="a_edge7_Node000002_Node000007"><a xlink:title=" ">
<path fill="none" stroke="#63b8ff" d="M232.23,-162.56C191.58,-152.64 132.47,-138.2 95.14,-129.08"/>
<polygon fill="#63b8ff" stroke="#63b8ff" points="231.59,-166.01 242.14,-164.98 233.25,-159.21 231.59,-166.01"/>
</a>
</g>
</g>
<!-- Node3&#45;&gt;Node4 -->
<g id="edge3_Node000003_Node000004" class="edge">
<title>Node3&#45;&gt;Node4</title>
<g id="a_edge3_Node000003_Node000004"><a xlink:title=" ">
<path fill="none" stroke="#63b8ff" d="M283.79,-106.29C309.37,-96.47 344.67,-82.91 367.42,-74.17"/>
<polygon fill="#63b8ff" stroke="#63b8ff" points="282.25,-103.13 274.17,-109.98 284.76,-109.67 282.25,-103.13"/>
</a>
</g>
</g>
<!-- Node6 -->
<g id="Node000006" class="node">
<title>Node6</title>
<g id="a_Node000006"><a xlink:href="spreader_8cpp.html" target="_top" xlink:title=" ">
<polygon fill="white" stroke="#666666" points="323.5,-74 180.5,-74 180.5,-55 323.5,-55 323.5,-74"/>
<text text-anchor="middle" x="252" y="-62" font-family="Helvetica,sans-Serif" font-size="10.00">src/Spreader/spreader.cpp</text>
</a>
</g>
</g>
<!-- Node3&#45;&gt;Node6 -->
<g id="edge5_Node000003_Node000006" class="edge">
<title>Node3&#45;&gt;Node6</title>
<g id="a_edge5_Node000003_Node000006"><a xlink:title=" ">
<path fill="none" stroke="#63b8ff" d="M252,-99.66C252,-90.93 252,-80.99 252,-74.09"/>
<polygon fill="#63b8ff" stroke="#63b8ff" points="248.5,-99.75 252,-109.75 255.5,-99.75 248.5,-99.75"/>
</a>
</g>
</g>
<!-- Node4&#45;&gt;Node5 -->
<g id="edge4_Node000004_Node000005" class="edge">
<title>Node4&#45;&gt;Node5</title>
<g id="a_edge4_Node000004_Node000005"><a xlink:title=" ">
<path fill="none" stroke="#63b8ff" d="M390,-44.66C390,-35.93 390,-25.99 390,-19.09"/>
<polygon fill="#63b8ff" stroke="#63b8ff" points="386.5,-44.75 390,-54.75 393.5,-44.75 386.5,-44.75"/>
</a>
</g>
</g>
<!-- Node8&#45;&gt;Node2 -->
<g id="edge10_Node000008_Node000002" class="edge">
<title>Node8&#45;&gt;Node2</title>
<g id="a_edge10_Node000008_Node000002"><a xlink:title=" ">
<path fill="none" stroke="#63b8ff" d="M450.02,-217.56C409.19,-207.64 349.8,-193.2 312.3,-184.08"/>
<polygon fill="#63b8ff" stroke="#63b8ff" points="449.43,-221.02 459.97,-219.98 451.08,-214.22 449.43,-221.02"/>
</a>
</g>
</g>
<!-- Node8&#45;&gt;Node4 -->
<g id="edge11_Node000008_Node000004" class="edge">
<title>Node8&#45;&gt;Node4</title>
<g id="a_edge11_Node000008_Node000004"><a xlink:title=" ">
<path fill="none" stroke="#63b8ff" d="M477.82,-212.96C469.42,-204.84 459.53,-194.43 452,-184 424.55,-145.97 401.82,-94.18 393.45,-74.02"/>
<polygon fill="#63b8ff" stroke="#63b8ff" points="475.6,-215.68 485.29,-219.98 480.4,-210.58 475.6,-215.68"/>
</a>
</g>
</g>
<!-- Node8&#45;&gt;Node5 -->
<g id="edge13_Node000008_Node000005" class="edge">
<title>Node8&#45;&gt;Node5</title>
<g id="a_edge13_Node000008_Node000005"><a xlink:title=" ">
<path fill="none" stroke="#63b8ff" d="M553.49,-217.42C586.54,-208.06 618.74,-191.79 605,-165 564.1,-85.24 460.76,-37.35 413.84,-19.05"/>
<polygon fill="#63b8ff" stroke="#63b8ff" points="552.5,-214.06 543.72,-219.99 554.28,-220.83 552.5,-214.06"/>
</a>
</g>
</g>
<!-- Node9 -->
<g id="Node000009" class="node">
<title>Node9</title>
<g id="a_Node000009"><a xlink:href="refDriver_8cpp.html" target="_top" xlink:title=" ">
<polygon fill="white" stroke="#666666" points="595.5,-184 460.5,-184 460.5,-165 595.5,-165 595.5,-184"/>
<text text-anchor="middle" x="528" y="-172" font-family="Helvetica,sans-Serif" font-size="10.00">src/Drivers/refDriver.cpp</text>
</a>
</g>
</g>
<!-- Node8&#45;&gt;Node9 -->
<g id="edge12_Node000008_Node000009" class="edge">
<title>Node8&#45;&gt;Node9</title>
<g id="a_edge12_Node000008_Node000009"><a xlink:title=" ">
<path fill="none" stroke="#63b8ff" d="M505.83,-211.1C511.47,-202.04 518.12,-191.37 522.65,-184.09"/>
<polygon fill="#63b8ff" stroke="#63b8ff" points="502.76,-209.41 500.45,-219.75 508.71,-213.11 502.76,-209.41"/>
</a>
</g>
</g>
</g>
</svg>
