<?xml version="1.0" encoding="UTF-8" standalone="no"?>
<!DOCTYPE svg PUBLIC "-//W3C//DTD SVG 1.1//EN"
 "http://www.w3.org/Graphics/SVG/1.1/DTD/svg11.dtd">
<!-- Generated by graphviz version 2.43.0 (0)
 -->
<!-- Title: src/Drivers/dutDriver.cpp Pages: 1 -->
<svg width="1575pt" height="577pt"
 viewBox="0.00 0.00 1575.00 577.00" xmlns="http://www.w3.org/2000/svg" xmlns:xlink="http://www.w3.org/1999/xlink">
<g id="graph0" class="graph" transform="scale(1 1) rotate(0) translate(4 573)">
<title>src/Drivers/dutDriver.cpp</title>
<!-- Node1 -->
<g id="Node000001" class="node">
<title>Node1</title>
<g id="a_Node000001"><a xlink:title=" ">
<polygon fill="#999999" stroke="#666666" points="909.5,-569 772.5,-569 772.5,-550 909.5,-550 909.5,-569"/>
<text text-anchor="middle" x="841" y="-557" font-family="Helvetica,sans-Serif" font-size="10.00">src/Drivers/dutDriver.cpp</text>
</a>
</g>
</g>
<!-- Node2 -->
<g id="Node000002" class="node">
<title>Node2</title>
<g id="a_Node000002"><a xlink:href="dutDriver_8h.html" target="_top" xlink:title=" ">
<polygon fill="white" stroke="#666666" points="895.5,-514 786.5,-514 786.5,-495 895.5,-495 895.5,-514"/>
<text text-anchor="middle" x="841" y="-502" font-family="Helvetica,sans-Serif" font-size="10.00">Drivers/dutDriver.h</text>
</a>
</g>
</g>
<!-- Node1&#45;&gt;Node2 -->
<g id="edge1_Node000001_Node000002" class="edge">
<title>Node1&#45;&gt;Node2</title>
<g id="a_edge1_Node000001_Node000002"><a xlink:title=" ">
<path fill="none" stroke="#63b8ff" d="M841,-549.75C841,-542.8 841,-532.85 841,-524.13"/>
<polygon fill="#63b8ff" stroke="#63b8ff" points="844.5,-524.09 841,-514.09 837.5,-524.09 844.5,-524.09"/>
</a>
</g>
</g>
<!-- Node3 -->
<g id="Node000003" class="node">
<title>Node3</title>
<g id="a_Node000003"><a xlink:title=" ">
<polygon fill="#e0e0e0" stroke="#999999" points="1086,-19 1042,-19 1042,0 1086,0 1086,-19"/>
<text text-anchor="middle" x="1064" y="-7" font-family="Helvetica,sans-Serif" font-size="10.00">string</text>
</a>
</g>
</g>
<!-- Node2&#45;&gt;Node3 -->
<g id="edge2_Node000002_Node000003" class="edge">
<title>Node2&#45;&gt;Node3</title>
<g id="a_edge2_Node000002_Node000003"><a xlink:title=" ">
<path fill="none" stroke="#63b8ff" d="M895.57,-501.13C1064.41,-493.06 1567,-463.36 1567,-395.5 1567,-395.5 1567,-395.5 1567,-118.5 1567,-21.91 1207.92,-11.44 1096.54,-10.52"/>
<polygon fill="#63b8ff" stroke="#63b8ff" points="1096.28,-7.02 1086.26,-10.45 1096.24,-14.02 1096.28,-7.02"/>
</a>
</g>
</g>
<!-- Node4 -->
<g id="Node000004" class="node">
<title>Node4</title>
<g id="a_Node000004"><a xlink:title=" ">
<polygon fill="#e0e0e0" stroke="#999999" points="1226,-129 1168,-129 1168,-110 1226,-110 1226,-129"/>
<text text-anchor="middle" x="1197" y="-117" font-family="Helvetica,sans-Serif" font-size="10.00">memory</text>
</a>
</g>
</g>
<!-- Node2&#45;&gt;Node4 -->
<g id="edge3_Node000002_Node000004" class="edge">
<title>Node2&#45;&gt;Node4</title>
<g id="a_edge3_Node000002_Node000004"><a xlink:title=" ">
<path fill="none" stroke="#63b8ff" d="M895.57,-502.1C1017.42,-497.5 1301,-477.94 1301,-395.5 1301,-395.5 1301,-395.5 1301,-283.5 1301,-220.6 1245.28,-162.45 1215.41,-135.8"/>
<polygon fill="#63b8ff" stroke="#63b8ff" points="1217.58,-133.05 1207.74,-129.14 1212.99,-138.34 1217.58,-133.05"/>
</a>
</g>
</g>
<!-- Node5 -->
<g id="Node000005" class="node">
<title>Node5</title>
<g id="a_Node000005"><a xlink:title=" ">
<polygon fill="#e0e0e0" stroke="#999999" points="1276.5,-74 1231.5,-74 1231.5,-55 1276.5,-55 1276.5,-74"/>
<text text-anchor="middle" x="1254" y="-62" font-family="Helvetica,sans-Serif" font-size="10.00">utility</text>
</a>
</g>
</g>
<!-- Node2&#45;&gt;Node5 -->
<g id="edge4_Node000002_Node000005" class="edge">
<title>Node2&#45;&gt;Node5</title>
<g id="a_edge4_Node000002_Node000005"><a xlink:title=" ">
<path fill="none" stroke="#63b8ff" d="M895.52,-501.94C993.06,-498.44 1193.12,-487.89 1256,-459 1377.84,-403.02 1453,-364.59 1453,-230.5 1453,-230.5 1453,-230.5 1453,-173.5 1453,-98.9 1343.65,-75.56 1287.07,-68.47"/>
<polygon fill="#63b8ff" stroke="#63b8ff" points="1287.16,-64.96 1276.83,-67.29 1286.36,-71.91 1287.16,-64.96"/>
</a>
</g>
</g>
<!-- Node6 -->
<g id="Node000006" class="node">
<title>Node6</title>
<g id="a_Node000006"><a xlink:title=" ">
<polygon fill="#e0e0e0" stroke="#999999" points="289.5,-19 242.5,-19 242.5,0 289.5,0 289.5,-19"/>
<text text-anchor="middle" x="266" y="-7" font-family="Helvetica,sans-Serif" font-size="10.00">vector</text>
</a>
</g>
</g>
<!-- Node2&#45;&gt;Node6 -->
<g id="edge5_Node000002_Node000006" class="edge">
<title>Node2&#45;&gt;Node6</title>
<g id="a_edge5_Node000002_Node000006"><a xlink:title=" ">
<path fill="none" stroke="#63b8ff" d="M786.49,-503.16C640.55,-501.78 243.48,-494.75 118,-459 60.72,-442.68 0,-455.06 0,-395.5 0,-395.5 0,-395.5 0,-118.5 0,-68.86 161.06,-31.08 232.53,-16.76"/>
<polygon fill="#63b8ff" stroke="#63b8ff" points="233.26,-20.18 242.39,-14.82 231.91,-13.31 233.26,-20.18"/>
</a>
</g>
</g>
<!-- Node7 -->
<g id="Node000007" class="node">
<title>Node7</title>
<g id="a_Node000007"><a xlink:title=" ">
<polygon fill="#e0e0e0" stroke="#999999" points="440.5,-19 347.5,-19 347.5,0 440.5,0 440.5,-19"/>
<text text-anchor="middle" x="394" y="-7" font-family="Helvetica,sans-Serif" font-size="10.00">unordered_map</text>
</a>
</g>
</g>
<!-- Node2&#45;&gt;Node7 -->
<g id="edge6_Node000002_Node000007" class="edge">
<title>Node2&#45;&gt;Node7</title>
<g id="a_edge6_Node000002_Node000007"><a xlink:title=" ">
<path fill="none" stroke="#63b8ff" d="M895.81,-500.73C992.86,-495.3 1190.85,-481.79 1256,-459 1391.7,-411.53 1529,-429.26 1529,-285.5 1529,-285.5 1529,-285.5 1529,-228.5 1529,-95.8 1416.18,-80.77 1286,-55 1125.11,-23.15 620.98,-13.55 450.78,-11.18"/>
<polygon fill="#63b8ff" stroke="#63b8ff" points="450.82,-7.68 440.77,-11.04 450.72,-14.68 450.82,-7.68"/>
</a>
</g>
</g>
<!-- Node8 -->
<g id="Node000008" class="node">
<title>Node8</title>
<g id="a_Node000008"><a xlink:title=" ">
<polygon fill="#e0e0e0" stroke="#999999" points="788,-459 720,-459 720,-440 788,-440 788,-459"/>
<text text-anchor="middle" x="754" y="-447" font-family="Helvetica,sans-Serif" font-size="10.00">filesystem</text>
</a>
</g>
</g>
<!-- Node2&#45;&gt;Node8 -->
<g id="edge7_Node000002_Node000008" class="edge">
<title>Node2&#45;&gt;Node8</title>
<g id="a_edge7_Node000002_Node000008"><a xlink:title=" ">
<path fill="none" stroke="#63b8ff" d="M827.02,-494.98C813.53,-486.77 792.87,-474.18 776.96,-464.49"/>
<polygon fill="#63b8ff" stroke="#63b8ff" points="778.59,-461.38 768.23,-459.17 774.95,-467.36 778.59,-461.38"/>
</a>
</g>
</g>
<!-- Node9 -->
<g id="Node000009" class="node">
<title>Node9</title>
<g id="a_Node000009"><a xlink:title=" ">
<polygon fill="#e0e0e0" stroke="#999999" points="875.5,-459 806.5,-459 806.5,-440 875.5,-440 875.5,-459"/>
<text text-anchor="middle" x="841" y="-447" font-family="Helvetica,sans-Serif" font-size="10.00">verilated.h</text>
</a>
</g>
</g>
<!-- Node2&#45;&gt;Node9 -->
<g id="edge8_Node000002_Node000009" class="edge">
<title>Node2&#45;&gt;Node9</title>
<g id="a_edge8_Node000002_Node000009"><a xlink:title=" ">
<path fill="none" stroke="#63b8ff" d="M841,-494.75C841,-487.8 841,-477.85 841,-469.13"/>
<polygon fill="#63b8ff" stroke="#63b8ff" points="844.5,-469.09 841,-459.09 837.5,-469.09 844.5,-469.09"/>
</a>
</g>
</g>
<!-- Node10 -->
<g id="Node000010" class="node">
<title>Node10</title>
<g id="a_Node000010"><a xlink:title=" ">
<polygon fill="#e0e0e0" stroke="#999999" points="996,-459 894,-459 894,-440 996,-440 996,-459"/>
<text text-anchor="middle" x="945" y="-447" font-family="Helvetica,sans-Serif" font-size="10.00">verilated_vcd_c.h</text>
</a>
</g>
</g>
<!-- Node2&#45;&gt;Node10 -->
<g id="edge9_Node000002_Node000010" class="edge">
<title>Node2&#45;&gt;Node10</title>
<g id="a_edge9_Node000002_Node000010"><a xlink:title=" ">
<path fill="none" stroke="#63b8ff" d="M857.71,-494.98C874.21,-486.57 899.7,-473.59 918.88,-463.81"/>
<polygon fill="#63b8ff" stroke="#63b8ff" points="920.67,-466.83 927.99,-459.17 917.49,-460.59 920.67,-466.83"/>
</a>
</g>
</g>
<!-- Node11 -->
<g id="Node000011" class="node">
<title>Node11</title>
<g id="a_Node000011"><a xlink:href="driverModel_8h.html" target="_top" xlink:title=" ">
<polygon fill="white" stroke="#666666" points="727,-294 605,-294 605,-275 727,-275 727,-294"/>
<text text-anchor="middle" x="666" y="-282" font-family="Helvetica,sans-Serif" font-size="10.00">Drivers/driverModel.h</text>
</a>
</g>
</g>
<!-- Node2&#45;&gt;Node11 -->
<g id="edge10_Node000002_Node000011" class="edge">
<title>Node2&#45;&gt;Node11</title>
<g id="a_edge10_Node000002_Node000011"><a xlink:title=" ">
<path fill="none" stroke="#63b8ff" d="M786.39,-496.94C760.24,-491.09 730.46,-480 711,-459 670.33,-415.12 665.37,-339.29 665.42,-304.25"/>
<polygon fill="#63b8ff" stroke="#63b8ff" points="668.92,-304.09 665.58,-294.03 661.92,-303.98 668.92,-304.09"/>
</a>
</g>
</g>
<!-- Node15 -->
<g id="Node000015" class="node">
<title>Node15</title>
<g id="a_Node000015"><a xlink:href="channel_8h.html" target="_top" xlink:title=" ">
<polygon fill="white" stroke="#666666" points="844.5,-239 737.5,-239 737.5,-220 844.5,-220 844.5,-239"/>
<text text-anchor="middle" x="791" y="-227" font-family="Helvetica,sans-Serif" font-size="10.00">Channel/channel.h</text>
</a>
</g>
</g>
<!-- Node2&#45;&gt;Node15 -->
<g id="edge75_Node000002_Node000015" class="edge">
<title>Node2&#45;&gt;Node15</title>
<g id="a_edge75_Node000002_Node000015"><a xlink:title=" ">
<path fill="none" stroke="#63b8ff" d="M786.49,-500.14C696.32,-494.02 524.17,-479.74 506,-459 455.77,-401.65 223.14,-557.22 596,-275 633.52,-246.6 685.96,-235.8 727.01,-231.92"/>
<polygon fill="#63b8ff" stroke="#63b8ff" points="727.51,-235.39 737.19,-231.08 726.93,-228.42 727.51,-235.39"/>
</a>
</g>
</g>
<!-- Node21 -->
<g id="Node000021" class="node">
<title>Node21</title>
<g id="a_Node000021"><a xlink:href="transaction_8h_source.html" target="_top" xlink:title=" ">
<polygon fill="white" stroke="#666666" points="680.5,-184 541.5,-184 541.5,-165 680.5,-165 680.5,-184"/>
<text text-anchor="middle" x="611" y="-172" font-family="Helvetica,sans-Serif" font-size="10.00">Transaction/transaction.h</text>
</a>
</g>
</g>
<!-- Node2&#45;&gt;Node21 -->
<g id="edge73_Node000002_Node000021" class="edge">
<title>Node2&#45;&gt;Node21</title>
<g id="a_edge73_Node000002_Node000021"><a xlink:title=" ">
<path fill="none" stroke="#63b8ff" d="M786.44,-501.92C605.7,-495.95 38,-471.2 38,-395.5 38,-395.5 38,-395.5 38,-283.5 38,-233.91 373.7,-196.96 531.2,-182.35"/>
<polygon fill="#63b8ff" stroke="#63b8ff" points="531.67,-185.83 541.31,-181.42 531.03,-178.86 531.67,-185.83"/>
</a>
</g>
</g>
<!-- Node25 -->
<g id="Node000025" class="node">
<title>Node25</title>
<g id="a_Node000025"><a xlink:href="transDriverModel_8h.html" target="_top" xlink:title=" ">
<polygon fill="white" stroke="#666666" points="664.5,-459 515.5,-459 515.5,-440 664.5,-440 664.5,-459"/>
<text text-anchor="middle" x="590" y="-447" font-family="Helvetica,sans-Serif" font-size="10.00">Drivers/transDriverModel.h</text>
</a>
</g>
</g>
<!-- Node2&#45;&gt;Node25 -->
<g id="edge58_Node000002_Node000025" class="edge">
<title>Node2&#45;&gt;Node25</title>
<g id="a_edge58_Node000002_Node000025"><a xlink:title=" ">
<path fill="none" stroke="#63b8ff" d="M800.67,-494.98C757.16,-485.8 687.8,-471.15 640.65,-461.19"/>
<polygon fill="#63b8ff" stroke="#63b8ff" points="641.15,-457.72 630.64,-459.08 639.7,-464.57 641.15,-457.72"/>
</a>
</g>
</g>
<!-- Node26 -->
<g id="Node000026" class="node">
<title>Node26</title>
<g id="a_Node000026"><a xlink:href="simulatorDriver_8h.html" target="_top" xlink:title=" ">
<polygon fill="white" stroke="#666666" points="1043,-404 903,-404 903,-385 1043,-385 1043,-404"/>
<text text-anchor="middle" x="973" y="-392" font-family="Helvetica,sans-Serif" font-size="10.00">Drivers/simulatorDriver.h</text>
</a>
</g>
</g>
<!-- Node2&#45;&gt;Node26 -->
<g id="edge74_Node000002_Node000026" class="edge">
<title>Node2&#45;&gt;Node26</title>
<g id="a_edge74_Node000002_Node000026"><a xlink:title=" ">
<path fill="none" stroke="#63b8ff" d="M895.58,-495.9C937.92,-488.75 991.6,-476.52 1005,-459 1016.28,-444.25 1003.25,-424.9 990.58,-411.45"/>
<polygon fill="#63b8ff" stroke="#63b8ff" points="992.93,-408.85 983.36,-404.3 988,-413.82 992.93,-408.85"/>
</a>
</g>
</g>
<!-- Node11&#45;&gt;Node3 -->
<g id="edge13_Node000011_Node000003" class="edge">
<title>Node11&#45;&gt;Node3</title>
<g id="a_edge13_Node000011_Node000003"><a xlink:title=" ">
<path fill="none" stroke="#63b8ff" d="M727.22,-279.92C796.47,-274.88 912.2,-263.4 1009,-239 1075.43,-222.25 1090.72,-212.54 1153,-184 1199.82,-162.54 1218.24,-165.08 1255,-129 1280.45,-104.02 1308.6,-82.58 1286,-55 1262.36,-26.15 1151.78,-15.62 1096.14,-12.1"/>
<polygon fill="#63b8ff" stroke="#63b8ff" points="1096.3,-8.6 1086.11,-11.51 1095.88,-15.59 1096.3,-8.6"/>
</a>
</g>
</g>
<!-- Node11&#45;&gt;Node4 -->
<g id="edge11_Node000011_Node000004" class="edge">
<title>Node11&#45;&gt;Node4</title>
<g id="a_edge11_Node000011_Node000004"><a xlink:title=" ">
<path fill="none" stroke="#63b8ff" d="M727.09,-277.37C780.61,-270.99 860.07,-259.06 927,-239 1020.85,-210.87 1125.28,-158.57 1172.02,-133.96"/>
<polygon fill="#63b8ff" stroke="#63b8ff" points="1173.9,-136.93 1181.09,-129.15 1170.62,-130.74 1173.9,-136.93"/>
</a>
</g>
</g>
<!-- Node11&#45;&gt;Node5 -->
<g id="edge16_Node000011_Node000005" class="edge">
<title>Node11&#45;&gt;Node5</title>
<g id="a_edge16_Node000011_Node000005"><a xlink:title=" ">
<path fill="none" stroke="#63b8ff" d="M727.03,-278.8C788.66,-273.06 886.17,-261.23 968,-239 1030.92,-221.9 1043.72,-208.84 1104,-184 1162.38,-159.94 1192.8,-175.97 1235,-129 1246.06,-116.7 1250.69,-98.19 1252.62,-84.32"/>
<polygon fill="#63b8ff" stroke="#63b8ff" points="1256.14,-84.31 1253.69,-74.01 1249.18,-83.59 1256.14,-84.31"/>
</a>
</g>
</g>
<!-- Node11&#45;&gt;Node7 -->
<g id="edge15_Node000011_Node000007" class="edge">
<title>Node11&#45;&gt;Node7</title>
<g id="a_edge15_Node000011_Node000007"><a xlink:title=" ">
<path fill="none" stroke="#63b8ff" d="M604.69,-282.04C505.87,-278.83 316.43,-268.87 257,-239 227.21,-224.03 222.19,-213.14 206,-184 189.71,-154.66 173.92,-138.89 191,-110 221.74,-58.01 288.89,-32.57 337.55,-20.55"/>
<polygon fill="#63b8ff" stroke="#63b8ff" points="338.4,-23.94 347.33,-18.25 336.8,-17.13 338.4,-23.94"/>
</a>
</g>
</g>
<!-- Node12 -->
<g id="Node000012" class="node">
<title>Node12</title>
<g id="a_Node000012"><a xlink:title=" ">
<polygon fill="#e0e0e0" stroke="#999999" points="274,-129 218,-129 218,-110 274,-110 274,-129"/>
<text text-anchor="middle" x="246" y="-117" font-family="Helvetica,sans-Serif" font-size="10.00">optional</text>
</a>
</g>
</g>
<!-- Node11&#45;&gt;Node12 -->
<g id="edge12_Node000011_Node000012" class="edge">
<title>Node11&#45;&gt;Node12</title>
<g id="a_edge12_Node000011_Node000012"><a xlink:title=" ">
<path fill="none" stroke="#63b8ff" d="M604.72,-280.64C524.91,-274.16 384.24,-252.99 288,-184 272.09,-172.6 260.54,-153.14 253.62,-138.77"/>
<polygon fill="#63b8ff" stroke="#63b8ff" points="256.7,-137.07 249.41,-129.38 250.31,-139.94 256.7,-137.07"/>
</a>
</g>
</g>
<!-- Node13 -->
<g id="Node000013" class="node">
<title>Node13</title>
<g id="a_Node000013"><a xlink:title=" ">
<polygon fill="#e0e0e0" stroke="#999999" points="350.5,-74 309.5,-74 309.5,-55 350.5,-55 350.5,-74"/>
<text text-anchor="middle" x="330" y="-62" font-family="Helvetica,sans-Serif" font-size="10.00">tuple</text>
</a>
</g>
</g>
<!-- Node11&#45;&gt;Node13 -->
<g id="edge14_Node000011_Node000013" class="edge">
<title>Node11&#45;&gt;Node13</title>
<g id="a_edge14_Node000011_Node000013"><a xlink:title=" ">
<path fill="none" stroke="#63b8ff" d="M604.78,-279.96C514.95,-274.11 352.24,-260.86 298,-239 260.32,-223.82 249.93,-216.08 225,-184 203.87,-156.8 182.04,-138.07 202,-110 223.95,-79.13 268.93,-69.49 299.28,-66.58"/>
<polygon fill="#63b8ff" stroke="#63b8ff" points="299.64,-70.06 309.34,-65.81 299.11,-63.09 299.64,-70.06"/>
</a>
</g>
</g>
<!-- Node14 -->
<g id="Node000014" class="node">
<title>Node14</title>
<g id="a_Node000014"><a xlink:title=" ">
<polygon fill="#e0e0e0" stroke="#999999" points="472.5,-74 407.5,-74 407.5,-55 472.5,-55 472.5,-74"/>
<text text-anchor="middle" x="440" y="-62" font-family="Helvetica,sans-Serif" font-size="10.00">functional</text>
</a>
</g>
</g>
<!-- Node11&#45;&gt;Node14 -->
<g id="edge17_Node000011_Node000014" class="edge">
<title>Node11&#45;&gt;Node14</title>
<g id="a_edge17_Node000011_Node000014"><a xlink:title=" ">
<path fill="none" stroke="#63b8ff" d="M604.95,-282.75C539.84,-280.17 434.65,-270.85 350,-239 275.61,-211.02 240.07,-202.16 209,-129 205.7,-121.23 203.62,-116.51 209,-110 220.89,-95.61 333.61,-79.08 397.08,-70.8"/>
<polygon fill="#63b8ff" stroke="#63b8ff" points="397.72,-74.25 407.2,-69.5 396.83,-67.3 397.72,-74.25"/>
</a>
</g>
</g>
<!-- Node11&#45;&gt;Node15 -->
<g id="edge18_Node000011_Node000015" class="edge">
<title>Node11&#45;&gt;Node15</title>
<g id="a_edge18_Node000011_Node000015"><a xlink:title=" ">
<path fill="none" stroke="#63b8ff" d="M686.08,-274.98C706.37,-266.38 737.96,-252.99 761.17,-243.15"/>
<polygon fill="#63b8ff" stroke="#63b8ff" points="762.71,-246.3 770.55,-239.17 759.98,-239.85 762.71,-246.3"/>
</a>
</g>
</g>
<!-- Node20 -->
<g id="Node000020" class="node">
<title>Node20</title>
<g id="a_Node000020"><a xlink:href="types_8h.html" target="_top" xlink:title=" ">
<polygon fill="white" stroke="#666666" points="787.5,-74 698.5,-74 698.5,-55 787.5,-55 787.5,-74"/>
<text text-anchor="middle" x="743" y="-62" font-family="Helvetica,sans-Serif" font-size="10.00">Library/types.h</text>
</a>
</g>
</g>
<!-- Node11&#45;&gt;Node20 -->
<g id="edge56_Node000011_Node000020" class="edge">
<title>Node11&#45;&gt;Node20</title>
<g id="a_edge56_Node000011_Node000020"><a xlink:title=" ">
<path fill="none" stroke="#63b8ff" d="M669.02,-274.95C680.37,-242.81 720.67,-128.72 736.53,-83.83"/>
<polygon fill="#63b8ff" stroke="#63b8ff" points="739.89,-84.82 739.92,-74.22 733.29,-82.49 739.89,-84.82"/>
</a>
</g>
</g>
<!-- Node11&#45;&gt;Node21 -->
<g id="edge55_Node000011_Node000021" class="edge">
<title>Node11&#45;&gt;Node21</title>
<g id="a_edge55_Node000011_Node000021"><a xlink:title=" ">
<path fill="none" stroke="#63b8ff" d="M661.5,-274.66C652.47,-256.93 632,-216.73 620.07,-193.32"/>
<polygon fill="#63b8ff" stroke="#63b8ff" points="623.07,-191.48 615.41,-184.16 616.83,-194.66 623.07,-191.48"/>
</a>
</g>
</g>
<!-- Node23 -->
<g id="Node000023" class="node">
<title>Node23</title>
<g id="a_Node000023"><a xlink:href="error_8h.html" target="_top" xlink:title=" ">
<polygon fill="white" stroke="#666666" points="997.5,-129 912.5,-129 912.5,-110 997.5,-110 997.5,-129"/>
<text text-anchor="middle" x="955" y="-117" font-family="Helvetica,sans-Serif" font-size="10.00">Library/error.h</text>
</a>
</g>
</g>
<!-- Node11&#45;&gt;Node23 -->
<g id="edge57_Node000011_Node000023" class="edge">
<title>Node11&#45;&gt;Node23</title>
<g id="a_edge57_Node000011_Node000023"><a xlink:title=" ">
<path fill="none" stroke="#63b8ff" d="M727.11,-283.63C797.62,-279.97 909.76,-261.47 956,-184 964.04,-170.54 962.84,-152.44 960.18,-139.01"/>
<polygon fill="#63b8ff" stroke="#63b8ff" points="963.52,-137.93 957.78,-129.03 956.72,-139.57 963.52,-137.93"/>
</a>
</g>
</g>
<!-- Node15&#45;&gt;Node3 -->
<g id="edge21_Node000015_Node000003" class="edge">
<title>Node15&#45;&gt;Node3</title>
<g id="a_edge21_Node000015_Node000003"><a xlink:title=" ">
<path fill="none" stroke="#63b8ff" d="M841.84,-219.93C875.39,-213.06 919.69,-201.6 956,-184 992.88,-166.13 1002.29,-159.19 1030,-129 1049.43,-107.83 1056.15,-101.64 1064,-74 1068.15,-59.4 1067.83,-42.14 1066.66,-29.3"/>
<polygon fill="#63b8ff" stroke="#63b8ff" points="1070.13,-28.86 1065.49,-19.34 1063.18,-29.67 1070.13,-28.86"/>
</a>
</g>
</g>
<!-- Node15&#45;&gt;Node4 -->
<g id="edge20_Node000015_Node000004" class="edge">
<title>Node15&#45;&gt;Node4</title>
<g id="a_edge20_Node000015_Node000004"><a xlink:title=" ">
<path fill="none" stroke="#63b8ff" d="M844.71,-222.96C897.48,-216.65 979.93,-204.47 1049,-184 1093.56,-170.8 1142.64,-147.97 1171.6,-133.58"/>
<polygon fill="#63b8ff" stroke="#63b8ff" points="1173.24,-136.67 1180.61,-129.05 1170.1,-130.42 1173.24,-136.67"/>
</a>
</g>
</g>
<!-- Node15&#45;&gt;Node5 -->
<g id="edge25_Node000015_Node000005" class="edge">
<title>Node15&#45;&gt;Node5</title>
<g id="a_edge25_Node000015_Node000005"><a xlink:title=" ">
<path fill="none" stroke="#63b8ff" d="M844.95,-221.65C890.14,-214.96 955.92,-202.97 1011,-184 1011.14,-183.95 1158.87,-110.06 1159,-110 1181.47,-99.12 1207.12,-87.13 1226.1,-78.34"/>
<polygon fill="#63b8ff" stroke="#63b8ff" points="1227.76,-81.43 1235.37,-74.06 1224.82,-75.08 1227.76,-81.43"/>
</a>
</g>
</g>
<!-- Node15&#45;&gt;Node6 -->
<g id="edge26_Node000015_Node000006" class="edge">
<title>Node15&#45;&gt;Node6</title>
<g id="a_edge26_Node000015_Node000006"><a xlink:title=" ">
<path fill="none" stroke="#63b8ff" d="M737.13,-228.09C605.42,-225.78 273.15,-211.73 209,-129 183.5,-96.12 223.21,-49.99 248.2,-26.14"/>
<polygon fill="#63b8ff" stroke="#63b8ff" points="250.71,-28.58 255.69,-19.23 245.97,-23.44 250.71,-28.58"/>
</a>
</g>
</g>
<!-- Node15&#45;&gt;Node7 -->
<g id="edge23_Node000015_Node000007" class="edge">
<title>Node15&#45;&gt;Node7</title>
<g id="a_edge23_Node000015_Node000007"><a xlink:title=" ">
<path fill="none" stroke="#63b8ff" d="M737.47,-226.88C673,-223.6 562.14,-213.74 472,-184 423.46,-167.99 413.79,-156.96 371,-129 332.85,-104.06 275.62,-93.51 300,-55 309.85,-39.44 326.77,-29.22 343.56,-22.55"/>
<polygon fill="#63b8ff" stroke="#63b8ff" points="345.16,-25.69 353.38,-19.01 342.79,-19.1 345.16,-25.69"/>
</a>
</g>
</g>
<!-- Node15&#45;&gt;Node13 -->
<g id="edge22_Node000015_Node000013" class="edge">
<title>Node15&#45;&gt;Node13</title>
<g id="a_edge22_Node000015_Node000013"><a xlink:title=" ">
<path fill="none" stroke="#63b8ff" d="M737.36,-225.49C657.73,-218.8 506.13,-197.37 399,-129 378.12,-115.68 357.69,-95.76 344.55,-81.8"/>
<polygon fill="#63b8ff" stroke="#63b8ff" points="347.05,-79.35 337.7,-74.35 341.9,-84.08 347.05,-79.35"/>
</a>
</g>
</g>
<!-- Node16 -->
<g id="Node000016" class="node">
<title>Node16</title>
<g id="a_Node000016"><a xlink:title=" ">
<polygon fill="#e0e0e0" stroke="#999999" points="866.5,-184 813.5,-184 813.5,-165 866.5,-165 866.5,-184"/>
<text text-anchor="middle" x="840" y="-172" font-family="Helvetica,sans-Serif" font-size="10.00">iterator</text>
</a>
</g>
</g>
<!-- Node15&#45;&gt;Node16 -->
<g id="edge19_Node000015_Node000016" class="edge">
<title>Node15&#45;&gt;Node16</title>
<g id="a_edge19_Node000015_Node000016"><a xlink:title=" ">
<path fill="none" stroke="#63b8ff" d="M799.09,-219.75C806.16,-212.11 816.59,-200.82 825.15,-191.56"/>
<polygon fill="#63b8ff" stroke="#63b8ff" points="827.84,-193.81 832.06,-184.09 822.7,-189.06 827.84,-193.81"/>
</a>
</g>
</g>
<!-- Node17 -->
<g id="Node000017" class="node">
<title>Node17</title>
<g id="a_Node000017"><a xlink:title=" ">
<polygon fill="#e0e0e0" stroke="#999999" points="609,-74 571,-74 571,-55 609,-55 609,-74"/>
<text text-anchor="middle" x="590" y="-62" font-family="Helvetica,sans-Serif" font-size="10.00">map</text>
</a>
</g>
</g>
<!-- Node15&#45;&gt;Node17 -->
<g id="edge24_Node000015_Node000017" class="edge">
<title>Node15&#45;&gt;Node17</title>
<g id="a_edge24_Node000015_Node000017"><a xlink:title=" ">
<path fill="none" stroke="#63b8ff" d="M784.17,-219.85C767.36,-198.95 721.9,-144.86 675,-110 657.57,-97.04 635.84,-85.74 618.71,-77.77"/>
<polygon fill="#63b8ff" stroke="#63b8ff" points="619.78,-74.41 609.23,-73.47 616.89,-80.78 619.78,-74.41"/>
</a>
</g>
</g>
<!-- Node18 -->
<g id="Node000018" class="node">
<title>Node18</title>
<g id="a_Node000018"><a xlink:title=" ">
<polygon fill="#e0e0e0" stroke="#999999" points="931,-184 885,-184 885,-165 931,-165 931,-184"/>
<text text-anchor="middle" x="908" y="-172" font-family="Helvetica,sans-Serif" font-size="10.00">future</text>
</a>
</g>
</g>
<!-- Node15&#45;&gt;Node18 -->
<g id="edge27_Node000015_Node000018" class="edge">
<title>Node15&#45;&gt;Node18</title>
<g id="a_edge27_Node000015_Node000018"><a xlink:title=" ">
<path fill="none" stroke="#63b8ff" d="M809.8,-219.98C828.62,-211.46 857.82,-198.23 879.5,-188.41"/>
<polygon fill="#63b8ff" stroke="#63b8ff" points="881.2,-191.48 888.86,-184.17 878.31,-185.11 881.2,-191.48"/>
</a>
</g>
</g>
<!-- Node19 -->
<g id="Node000019" class="node">
<title>Node19</title>
<g id="a_Node000019"><a xlink:title=" ">
<polygon fill="#e0e0e0" stroke="#999999" points="914,-74 854,-74 854,-55 914,-55 914,-74"/>
<text text-anchor="middle" x="884" y="-62" font-family="Helvetica,sans-Serif" font-size="10.00">iostream</text>
</a>
</g>
</g>
<!-- Node15&#45;&gt;Node19 -->
<g id="edge28_Node000015_Node000019" class="edge">
<title>Node15&#45;&gt;Node19</title>
<g id="a_edge28_Node000015_Node000019"><a xlink:title=" ">
<path fill="none" stroke="#63b8ff" d="M844.8,-227.66C877.98,-224 918.23,-213.23 940,-184 960.4,-156.61 904.7,-130.16 904,-129 895.57,-115.1 890.37,-97.31 887.39,-84.1"/>
<polygon fill="#63b8ff" stroke="#63b8ff" points="890.81,-83.37 885.39,-74.26 883.95,-84.76 890.81,-83.37"/>
</a>
</g>
</g>
<!-- Node15&#45;&gt;Node20 -->
<g id="edge29_Node000015_Node000020" class="edge">
<title>Node15&#45;&gt;Node20</title>
<g id="a_edge29_Node000015_Node000020"><a xlink:title=" ">
<path fill="none" stroke="#63b8ff" d="M792.3,-219.7C794.27,-207.29 798.51,-184.02 805,-165 810.72,-148.26 818.13,-146.27 822,-129 823.85,-120.76 826.26,-117.29 822,-110 813.32,-95.14 797.65,-84.86 782.54,-77.95"/>
<polygon fill="#63b8ff" stroke="#63b8ff" points="783.85,-74.71 773.27,-74.08 781.15,-81.17 783.85,-74.71"/>
</a>
</g>
</g>
<!-- Node15&#45;&gt;Node21 -->
<g id="edge33_Node000015_Node000021" class="edge">
<title>Node15&#45;&gt;Node21</title>
<g id="a_edge33_Node000015_Node000021"><a xlink:title=" ">
<path fill="none" stroke="#63b8ff" d="M762.08,-219.98C731.73,-211.05 683.83,-196.94 650.12,-187.02"/>
<polygon fill="#63b8ff" stroke="#63b8ff" points="650.73,-183.55 640.15,-184.08 648.75,-190.26 650.73,-183.55"/>
</a>
</g>
</g>
<!-- Node20&#45;&gt;Node3 -->
<g id="edge32_Node000020_Node000003" class="edge">
<title>Node20&#45;&gt;Node3</title>
<g id="a_edge32_Node000020_Node000003"><a xlink:title=" ">
<path fill="none" stroke="#63b8ff" d="M787.63,-56.13C853.31,-45.29 974.43,-25.29 1031.99,-15.78"/>
<polygon fill="#63b8ff" stroke="#63b8ff" points="1032.68,-19.22 1041.98,-14.14 1031.54,-12.31 1032.68,-19.22"/>
</a>
</g>
</g>
<!-- Node20&#45;&gt;Node6 -->
<g id="edge30_Node000020_Node000006" class="edge">
<title>Node20&#45;&gt;Node6</title>
<g id="a_edge30_Node000020_Node000006"><a xlink:title=" ">
<path fill="none" stroke="#63b8ff" d="M698.34,-58.71C623.7,-50.68 468.9,-33.92 338,-19 325.52,-17.58 311.83,-15.97 299.77,-14.54"/>
<polygon fill="#63b8ff" stroke="#63b8ff" points="300.01,-11.05 289.67,-13.34 299.18,-18 300.01,-11.05"/>
</a>
</g>
</g>
<!-- Node20&#45;&gt;Node7 -->
<g id="edge31_Node000020_Node000007" class="edge">
<title>Node20&#45;&gt;Node7</title>
<g id="a_edge31_Node000020_Node000007"><a xlink:title=" ">
<path fill="none" stroke="#63b8ff" d="M698.44,-56.73C635.35,-47.15 519.95,-29.63 450.78,-19.12"/>
<polygon fill="#63b8ff" stroke="#63b8ff" points="450.92,-15.6 440.51,-17.56 449.87,-22.53 450.92,-15.6"/>
</a>
</g>
</g>
<!-- Node21&#45;&gt;Node3 -->
<g id="edge35_Node000021_Node000003" class="edge">
<title>Node21&#45;&gt;Node3</title>
<g id="a_edge35_Node000021_Node000003"><a xlink:title=" ">
<path fill="none" stroke="#63b8ff" d="M680.76,-169.32C787.3,-162.39 981.01,-147.44 1007,-129 1040.56,-105.19 1055.12,-56.16 1060.8,-29.23"/>
<polygon fill="#63b8ff" stroke="#63b8ff" points="1064.28,-29.66 1062.72,-19.18 1057.4,-28.35 1064.28,-29.66"/>
</a>
</g>
</g>
<!-- Node21&#45;&gt;Node4 -->
<g id="edge38_Node000021_Node000004" class="edge">
<title>Node21&#45;&gt;Node4</title>
<g id="a_edge38_Node000021_Node000004"><a xlink:title=" ">
<path fill="none" stroke="#63b8ff" d="M680.52,-167.21C804.55,-155.99 1060.11,-132.88 1157.83,-124.04"/>
<polygon fill="#63b8ff" stroke="#63b8ff" points="1158.22,-127.52 1167.87,-123.14 1157.59,-120.55 1158.22,-127.52"/>
</a>
</g>
</g>
<!-- Node21&#45;&gt;Node5 -->
<g id="edge36_Node000021_Node000005" class="edge">
<title>Node21&#45;&gt;Node5</title>
<g id="a_edge36_Node000021_Node000005"><a xlink:title=" ">
<path fill="none" stroke="#63b8ff" d="M680.69,-170.24C766.06,-165.34 914.77,-153.85 1040,-129 1105.67,-115.97 1180.16,-91.61 1221.66,-77.14"/>
<polygon fill="#63b8ff" stroke="#63b8ff" points="1222.96,-80.4 1231.23,-73.78 1220.64,-73.79 1222.96,-80.4"/>
</a>
</g>
</g>
<!-- Node21&#45;&gt;Node6 -->
<g id="edge37_Node000021_Node000006" class="edge">
<title>Node21&#45;&gt;Node6</title>
<g id="a_edge37_Node000021_Node000006"><a xlink:title=" ">
<path fill="none" stroke="#63b8ff" d="M541.39,-166.98C504.72,-161.13 460.2,-150.04 425,-129 387.17,-106.39 394.23,-81.47 359,-55 340.81,-41.33 317.74,-30.26 299.14,-22.58"/>
<polygon fill="#63b8ff" stroke="#63b8ff" points="300.17,-19.23 289.59,-18.77 297.58,-25.73 300.17,-19.23"/>
</a>
</g>
</g>
<!-- Node21&#45;&gt;Node12 -->
<g id="edge41_Node000021_Node000012" class="edge">
<title>Node21&#45;&gt;Node12</title>
<g id="a_edge41_Node000021_Node000012"><a xlink:title=" ">
<path fill="none" stroke="#63b8ff" d="M552.36,-164.98C476.95,-154.04 348.14,-135.33 284.26,-126.06"/>
<polygon fill="#63b8ff" stroke="#63b8ff" points="284.61,-122.57 274.21,-124.6 283.61,-129.5 284.61,-122.57"/>
</a>
</g>
</g>
<!-- Node21&#45;&gt;Node14 -->
<g id="edge42_Node000021_Node000014" class="edge">
<title>Node21&#45;&gt;Node14</title>
<g id="a_edge42_Node000021_Node000014"><a xlink:title=" ">
<path fill="none" stroke="#63b8ff" d="M542.75,-164.94C499.19,-157.92 448.46,-146.28 435,-129 425.15,-116.35 428.06,-97.65 432.44,-83.82"/>
<polygon fill="#63b8ff" stroke="#63b8ff" points="435.75,-84.96 435.89,-74.37 429.17,-82.56 435.75,-84.96"/>
</a>
</g>
</g>
<!-- Node21&#45;&gt;Node17 -->
<g id="edge40_Node000021_Node000017" class="edge">
<title>Node21&#45;&gt;Node17</title>
<g id="a_edge40_Node000021_Node000017"><a xlink:title=" ">
<path fill="none" stroke="#63b8ff" d="M609.28,-164.66C605.88,-147.17 598.23,-107.8 593.65,-84.27"/>
<polygon fill="#63b8ff" stroke="#63b8ff" points="597.03,-83.31 591.68,-74.16 590.16,-84.64 597.03,-83.31"/>
</a>
</g>
</g>
<!-- Node21&#45;&gt;Node19 -->
<g id="edge34_Node000021_Node000019" class="edge">
<title>Node21&#45;&gt;Node19</title>
<g id="a_edge34_Node000021_Node000019"><a xlink:title=" ">
<path fill="none" stroke="#63b8ff" d="M632.88,-164.84C681.22,-145.72 797.25,-99.82 853.03,-77.75"/>
<polygon fill="#63b8ff" stroke="#63b8ff" points="854.38,-80.98 862.4,-74.05 851.81,-74.47 854.38,-80.98"/>
</a>
</g>
</g>
<!-- Node21&#45;&gt;Node20 -->
<g id="edge43_Node000021_Node000020" class="edge">
<title>Node21&#45;&gt;Node20</title>
<g id="a_edge43_Node000021_Node000020"><a xlink:title=" ">
<path fill="none" stroke="#63b8ff" d="M624.39,-165C637.63,-156.41 658.26,-142.52 675,-129 693.73,-113.87 713.7,-94.83 727.12,-81.56"/>
<polygon fill="#63b8ff" stroke="#63b8ff" points="729.96,-83.68 734.56,-74.14 725.01,-78.73 729.96,-83.68"/>
</a>
</g>
</g>
<!-- Node22 -->
<g id="Node000022" class="node">
<title>Node22</title>
<g id="a_Node000022"><a xlink:title=" ">
<polygon fill="#e0e0e0" stroke="#999999" points="666,-129 618,-129 618,-110 666,-110 666,-129"/>
<text text-anchor="middle" x="642" y="-117" font-family="Helvetica,sans-Serif" font-size="10.00">mutex</text>
</a>
</g>
</g>
<!-- Node21&#45;&gt;Node22 -->
<g id="edge39_Node000021_Node000022" class="edge">
<title>Node21&#45;&gt;Node22</title>
<g id="a_edge39_Node000021_Node000022"><a xlink:title=" ">
<path fill="none" stroke="#63b8ff" d="M616.12,-164.75C620.36,-157.49 626.53,-146.95 631.78,-137.98"/>
<polygon fill="#63b8ff" stroke="#63b8ff" points="634.95,-139.49 636.98,-129.09 628.91,-135.95 634.95,-139.49"/>
</a>
</g>
</g>
<!-- Node21&#45;&gt;Node23 -->
<g id="edge44_Node000021_Node000023" class="edge">
<title>Node21&#45;&gt;Node23</title>
<g id="a_edge44_Node000021_Node000023"><a xlink:title=" ">
<path fill="none" stroke="#63b8ff" d="M666.27,-164.98C731.22,-154.98 838.21,-138.49 902.11,-128.65"/>
<polygon fill="#63b8ff" stroke="#63b8ff" points="903.01,-132.05 912.36,-127.07 901.95,-125.13 903.01,-132.05"/>
</a>
</g>
</g>
<!-- Node24 -->
<g id="Node000024" class="node">
<title>Node24</title>
<g id="a_Node000024"><a xlink:href="evaluate_8h.html" target="_top" xlink:title=" ">
<polygon fill="white" stroke="#666666" points="562,-129 444,-129 444,-110 562,-110 562,-129"/>
<text text-anchor="middle" x="503" y="-117" font-family="Helvetica,sans-Serif" font-size="10.00">Evaluator/evaluate.h</text>
</a>
</g>
</g>
<!-- Node21&#45;&gt;Node24 -->
<g id="edge47_Node000021_Node000024" class="edge">
<title>Node21&#45;&gt;Node24</title>
<g id="a_edge47_Node000021_Node000024"><a xlink:title=" ">
<path fill="none" stroke="#63b8ff" d="M593.65,-164.98C576.43,-156.54 549.8,-143.47 529.85,-133.68"/>
<polygon fill="#63b8ff" stroke="#63b8ff" points="531.19,-130.43 520.67,-129.17 528.1,-136.72 531.19,-130.43"/>
</a>
</g>
</g>
<!-- Node23&#45;&gt;Node3 -->
<g id="edge45_Node000023_Node000003" class="edge">
<title>Node23&#45;&gt;Node3</title>
<g id="a_edge45_Node000023_Node000003"><a xlink:title=" ">
<path fill="none" stroke="#63b8ff" d="M962.04,-109.96C972.49,-97.46 992.92,-73.63 1012,-55 1022.49,-44.75 1034.96,-34.04 1045.05,-25.7"/>
<polygon fill="#63b8ff" stroke="#63b8ff" points="1047.35,-28.34 1052.88,-19.3 1042.92,-22.92 1047.35,-28.34"/>
</a>
</g>
</g>
<!-- Node23&#45;&gt;Node19 -->
<g id="edge46_Node000023_Node000019" class="edge">
<title>Node23&#45;&gt;Node19</title>
<g id="a_edge46_Node000023_Node000019"><a xlink:title=" ">
<path fill="none" stroke="#63b8ff" d="M943.59,-109.98C932.89,-102 916.66,-89.88 903.84,-80.31"/>
<polygon fill="#63b8ff" stroke="#63b8ff" points="905.72,-77.35 895.61,-74.17 901.53,-82.96 905.72,-77.35"/>
</a>
</g>
</g>
<!-- Node24&#45;&gt;Node3 -->
<g id="edge50_Node000024_Node000003" class="edge">
<title>Node24&#45;&gt;Node3</title>
<g id="a_edge50_Node000024_Node000003"><a xlink:title=" ">
<path fill="none" stroke="#63b8ff" d="M508.18,-109.61C517.11,-95.25 536.86,-67.31 562,-55 645.22,-14.26 934.38,-10.47 1031.73,-10.38"/>
<polygon fill="#63b8ff" stroke="#63b8ff" points="1031.85,-13.88 1041.85,-10.38 1031.85,-6.88 1031.85,-13.88"/>
</a>
</g>
</g>
<!-- Node24&#45;&gt;Node5 -->
<g id="edge48_Node000024_Node000005" class="edge">
<title>Node24&#45;&gt;Node5</title>
<g id="a_edge48_Node000024_Node000005"><a xlink:title=" ">
<path fill="none" stroke="#63b8ff" d="M562.14,-113.64C577.4,-112.42 593.81,-111.13 609,-110 843.69,-92.49 1126.61,-73.81 1221.33,-67.62"/>
<polygon fill="#63b8ff" stroke="#63b8ff" points="1221.68,-71.11 1231.43,-66.97 1221.22,-64.12 1221.68,-71.11"/>
</a>
</g>
</g>
<!-- Node24&#45;&gt;Node6 -->
<g id="edge49_Node000024_Node000006" class="edge">
<title>Node24&#45;&gt;Node6</title>
<g id="a_edge49_Node000024_Node000006"><a xlink:title=" ">
<path fill="none" stroke="#63b8ff" d="M502.59,-109.62C501.44,-95.77 497.13,-69.17 481,-55 467.45,-43.1 356.47,-24.48 299.49,-15.58"/>
<polygon fill="#63b8ff" stroke="#63b8ff" points="299.93,-12.1 289.51,-14.03 298.86,-19.02 299.93,-12.1"/>
</a>
</g>
</g>
<!-- Node24&#45;&gt;Node13 -->
<g id="edge52_Node000024_Node000013" class="edge">
<title>Node24&#45;&gt;Node13</title>
<g id="a_edge52_Node000024_Node000013"><a xlink:title=" ">
<path fill="none" stroke="#63b8ff" d="M475.2,-109.98C443.83,-100.37 392.95,-84.79 360.51,-74.85"/>
<polygon fill="#63b8ff" stroke="#63b8ff" points="361.26,-71.41 350.67,-71.83 359.21,-78.11 361.26,-71.41"/>
</a>
</g>
</g>
<!-- Node24&#45;&gt;Node14 -->
<g id="edge51_Node000024_Node000014" class="edge">
<title>Node24&#45;&gt;Node14</title>
<g id="a_edge51_Node000024_Node000014"><a xlink:title=" ">
<path fill="none" stroke="#63b8ff" d="M492.88,-109.98C483.56,-102.15 469.53,-90.34 458.26,-80.86"/>
<polygon fill="#63b8ff" stroke="#63b8ff" points="460.21,-77.93 450.31,-74.17 455.71,-83.29 460.21,-77.93"/>
</a>
</g>
</g>
<!-- Node24&#45;&gt;Node17 -->
<g id="edge53_Node000024_Node000017" class="edge">
<title>Node24&#45;&gt;Node17</title>
<g id="a_edge53_Node000024_Node000017"><a xlink:title=" ">
<path fill="none" stroke="#63b8ff" d="M516.98,-109.98C530.47,-101.77 551.13,-89.18 567.04,-79.49"/>
<polygon fill="#63b8ff" stroke="#63b8ff" points="569.05,-82.36 575.77,-74.17 565.41,-76.38 569.05,-82.36"/>
</a>
</g>
</g>
<!-- Node24&#45;&gt;Node20 -->
<g id="edge54_Node000024_Node000020" class="edge">
<title>Node24&#45;&gt;Node20</title>
<g id="a_edge54_Node000024_Node000020"><a xlink:title=" ">
<path fill="none" stroke="#63b8ff" d="M541.56,-109.98C583.07,-100.82 649.21,-86.21 694.29,-76.26"/>
<polygon fill="#63b8ff" stroke="#63b8ff" points="695.13,-79.66 704.14,-74.08 693.62,-72.82 695.13,-79.66"/>
</a>
</g>
</g>
<!-- Node25&#45;&gt;Node3 -->
<g id="edge59_Node000025_Node000003" class="edge">
<title>Node25&#45;&gt;Node3</title>
<g id="a_edge59_Node000025_Node000003"><a xlink:title=" ">
<path fill="none" stroke="#63b8ff" d="M664.61,-443.01C756.11,-435.9 915.82,-422.2 1052,-404 1195.47,-384.83 1244.45,-415.53 1373,-349 1403.7,-333.11 1409.55,-323.23 1428,-294 1471.76,-224.67 1500.68,-166.21 1441,-110 1390.36,-62.31 1178.05,-27.06 1096.29,-15.02"/>
<polygon fill="#63b8ff" stroke="#63b8ff" points="1096.49,-11.51 1086.09,-13.54 1095.48,-18.44 1096.49,-11.51"/>
</a>
</g>
</g>
<!-- Node25&#45;&gt;Node6 -->
<g id="edge60_Node000025_Node000006" class="edge">
<title>Node25&#45;&gt;Node6</title>
<g id="a_edge60_Node000025_Node000006"><a xlink:title=" ">
<path fill="none" stroke="#63b8ff" d="M515.43,-441.05C427.35,-431.81 290.07,-415.82 269,-404 241.46,-388.54 237.5,-377.55 224,-349 177.84,-251.35 155.57,-215.21 180,-110 186.16,-83.47 189.66,-75.99 207,-55 216.9,-43.02 230.64,-32.41 242.37,-24.56"/>
<polygon fill="#63b8ff" stroke="#63b8ff" points="244.32,-27.47 250.85,-19.12 240.54,-21.58 244.32,-27.47"/>
</a>
</g>
</g>
<!-- Node25&#45;&gt;Node11 -->
<g id="edge61_Node000025_Node000011" class="edge">
<title>Node25&#45;&gt;Node11</title>
<g id="a_edge61_Node000025_Node000011"><a xlink:title=" ">
<path fill="none" stroke="#63b8ff" d="M594.09,-439.74C606.05,-414.09 641.16,-338.78 657.48,-303.78"/>
<polygon fill="#63b8ff" stroke="#63b8ff" points="660.84,-304.85 661.89,-294.31 654.5,-301.89 660.84,-304.85"/>
</a>
</g>
</g>
<!-- Node25&#45;&gt;Node21 -->
<g id="edge72_Node000025_Node000021" class="edge">
<title>Node25&#45;&gt;Node21</title>
<g id="a_edge72_Node000025_Node000021"><a xlink:title=" ">
<path fill="none" stroke="#63b8ff" d="M515.43,-441.46C409.46,-429.35 228,-399.94 228,-340.5 228,-340.5 228,-340.5 228,-283.5 228,-221.11 418.64,-193 530.92,-181.85"/>
<polygon fill="#63b8ff" stroke="#63b8ff" points="531.58,-185.3 541.2,-180.86 530.91,-178.34 531.58,-185.3"/>
</a>
</g>
</g>
<!-- Node25&#45;&gt;Node26 -->
<g id="edge62_Node000025_Node000026" class="edge">
<title>Node25&#45;&gt;Node26</title>
<g id="a_edge62_Node000025_Node000026"><a xlink:title=" ">
<path fill="none" stroke="#63b8ff" d="M651.54,-439.98C719.56,-430.57 829,-415.43 900.96,-405.47"/>
<polygon fill="#63b8ff" stroke="#63b8ff" points="901.87,-408.88 911.3,-404.04 900.91,-401.94 901.87,-408.88"/>
</a>
</g>
</g>
<!-- Node26&#45;&gt;Node5 -->
<g id="edge63_Node000026_Node000005" class="edge">
<title>Node26&#45;&gt;Node5</title>
<g id="a_edge63_Node000026_Node000005"><a xlink:title=" ">
<path fill="none" stroke="#63b8ff" d="M1043.04,-390.79C1167.67,-384.05 1415,-361.14 1415,-285.5 1415,-285.5 1415,-285.5 1415,-173.5 1415,-112.2 1333.5,-83.46 1286.48,-71.97"/>
<polygon fill="#63b8ff" stroke="#63b8ff" points="1287.26,-68.56 1276.73,-69.72 1285.68,-75.38 1287.26,-68.56"/>
</a>
</g>
</g>
<!-- Node26&#45;&gt;Node11 -->
<g id="edge64_Node000026_Node000011" class="edge">
<title>Node26&#45;&gt;Node11</title>
<g id="a_edge64_Node000026_Node000011"><a xlink:title=" ">
<path fill="none" stroke="#63b8ff" d="M948.65,-384.94C894.25,-365.79 762.68,-319.51 700.13,-297.51"/>
<polygon fill="#63b8ff" stroke="#63b8ff" points="700.94,-294.08 690.35,-294.07 698.62,-300.69 700.94,-294.08"/>
</a>
</g>
</g>
<!-- Node27 -->
<g id="Node000027" class="node">
<title>Node27</title>
<g id="a_Node000027"><a xlink:href="simulator_8h.html" target="_top" xlink:title=" ">
<polygon fill="white" stroke="#666666" points="1034,-349 912,-349 912,-330 1034,-330 1034,-349"/>
<text text-anchor="middle" x="973" y="-337" font-family="Helvetica,sans-Serif" font-size="10.00">Simulator/simulator.h</text>
</a>
</g>
</g>
<!-- Node26&#45;&gt;Node27 -->
<g id="edge65_Node000026_Node000027" class="edge">
<title>Node26&#45;&gt;Node27</title>
<g id="a_edge65_Node000026_Node000027"><a xlink:title=" ">
<path fill="none" stroke="#63b8ff" d="M973,-384.75C973,-377.8 973,-367.85 973,-359.13"/>
<polygon fill="#63b8ff" stroke="#63b8ff" points="976.5,-359.09 973,-349.09 969.5,-359.09 976.5,-359.09"/>
</a>
</g>
</g>
<!-- Node27&#45;&gt;Node4 -->
<g id="edge66_Node000027_Node000004" class="edge">
<title>Node27&#45;&gt;Node4</title>
<g id="a_edge66_Node000027_Node000004"><a xlink:title=" ">
<path fill="none" stroke="#63b8ff" d="M981.78,-329.95C1015.44,-297.2 1136.54,-179.34 1180.72,-136.34"/>
<polygon fill="#63b8ff" stroke="#63b8ff" points="1183.31,-138.71 1188.04,-129.22 1178.43,-133.69 1183.31,-138.71"/>
</a>
</g>
</g>
<!-- Node27&#45;&gt;Node5 -->
<g id="edge67_Node000027_Node000005" class="edge">
<title>Node27&#45;&gt;Node5</title>
<g id="a_edge67_Node000027_Node000005"><a xlink:title=" ">
<path fill="none" stroke="#63b8ff" d="M1013.4,-329.96C1064.95,-317.38 1154.66,-289.71 1215,-239 1239.62,-218.31 1250.87,-214.17 1262,-184 1274.39,-150.43 1266.31,-107.93 1259.81,-84.02"/>
<polygon fill="#63b8ff" stroke="#63b8ff" points="1263.1,-82.79 1256.94,-74.17 1256.38,-84.76 1263.1,-82.79"/>
</a>
</g>
</g>
<!-- Node27&#45;&gt;Node11 -->
<g id="edge69_Node000027_Node000011" class="edge">
<title>Node27&#45;&gt;Node11</title>
<g id="a_edge69_Node000027_Node000011"><a xlink:title=" ">
<path fill="none" stroke="#63b8ff" d="M923.68,-329.98C869.71,-320.67 783.22,-305.74 725.52,-295.78"/>
<polygon fill="#63b8ff" stroke="#63b8ff" points="725.91,-292.29 715.46,-294.04 724.72,-299.19 725.91,-292.29"/>
</a>
</g>
</g>
<!-- Node27&#45;&gt;Node15 -->
<g id="edge70_Node000027_Node000015" class="edge">
<title>Node27&#45;&gt;Node15</title>
<g id="a_edge70_Node000027_Node000015"><a xlink:title=" ">
<path fill="none" stroke="#63b8ff" d="M958.41,-329.84C926.92,-311.16 852.33,-266.9 814.25,-244.3"/>
<polygon fill="#63b8ff" stroke="#63b8ff" points="815.79,-241.14 805.4,-239.05 812.22,-247.16 815.79,-241.14"/>
</a>
</g>
</g>
<!-- Node27&#45;&gt;Node20 -->
<g id="edge68_Node000027_Node000020" class="edge">
<title>Node27&#45;&gt;Node20</title>
<g id="a_edge68_Node000027_Node000020"><a xlink:title=" ">
<path fill="none" stroke="#63b8ff" d="M998.31,-329.97C1079.37,-301.41 1322.32,-205.58 1235,-110 1233.17,-107.99 925.6,-81.25 797.75,-70.21"/>
<polygon fill="#63b8ff" stroke="#63b8ff" points="798.03,-66.72 787.77,-69.35 797.43,-73.7 798.03,-66.72"/>
</a>
</g>
</g>
<!-- Node27&#45;&gt;Node21 -->
<g id="edge71_Node000027_Node000021" class="edge">
<title>Node27&#45;&gt;Node21</title>
<g id="a_edge71_Node000027_Node000021"><a xlink:title=" ">
<path fill="none" stroke="#63b8ff" d="M949.77,-329.97C905.98,-313.69 808.45,-276.45 729,-239 695.52,-223.22 658.09,-202.53 634.54,-189.13"/>
<polygon fill="#63b8ff" stroke="#63b8ff" points="636.06,-185.97 625.64,-184.03 632.58,-192.04 636.06,-185.97"/>
</a>
</g>
</g>
</g>
</svg>
