<?xml version="1.0" encoding="UTF-8" standalone="no"?>
<!DOCTYPE svg PUBLIC "-//W3C//DTD SVG 1.1//EN"
 "http://www.w3.org/Graphics/SVG/1.1/DTD/svg11.dtd">
<!-- Generated by graphviz version 2.43.0 (0)
 -->
<!-- Title: include/Library/error.h Pages: 1 -->
<svg width="2037pt" height="742pt"
 viewBox="0.00 0.00 2036.75 742.00" xmlns="http://www.w3.org/2000/svg" xmlns:xlink="http://www.w3.org/1999/xlink">
<g id="graph0" class="graph" transform="scale(1 1) rotate(0) translate(4 738)">
<title>include/Library/error.h</title>
<!-- Node1 -->
<g id="Node000001" class="node">
<title>Node1</title>
<g id="a_Node000001"><a xlink:title=" ">
<polygon fill="#999999" stroke="#666666" points="904.5,-734 781.5,-734 781.5,-715 904.5,-715 904.5,-734"/>
<text text-anchor="middle" x="843" y="-722" font-family="Helvetica,sans-Serif" font-size="10.00">include/Library/error.h</text>
</a>
</g>
</g>
<!-- Node2 -->
<g id="Node000002" class="node">
<title>Node2</title>
<g id="a_Node000002"><a xlink:href="driverModel_8h.html" target="_top" xlink:title=" ">
<polygon fill="white" stroke="#666666" points="739.5,-558 578.5,-558 578.5,-539 739.5,-539 739.5,-558"/>
<text text-anchor="middle" x="659" y="-546" font-family="Helvetica,sans-Serif" font-size="10.00">include/Drivers/driverModel.h</text>
</a>
</g>
</g>
<!-- Node1&#45;&gt;Node2 -->
<g id="edge1_Node000001_Node000002" class="edge">
<title>Node1&#45;&gt;Node2</title>
<g id="a_edge1_Node000001_Node000002"><a xlink:title=" ">
<path fill="none" stroke="#63b8ff" d="M820.31,-709.45C807.66,-701.2 791.9,-690.22 779,-679 731.81,-637.98 683.63,-580.1 666,-558.28"/>
<polygon fill="#63b8ff" stroke="#63b8ff" points="818.57,-712.49 828.88,-714.94 822.35,-706.6 818.57,-712.49"/>
</a>
</g>
</g>
<!-- Node5 -->
<g id="Node000005" class="node">
<title>Node5</title>
<g id="a_Node000005"><a xlink:href="mlvp_8h.html" target="_top" xlink:title=" ">
<polygon fill="white" stroke="#666666" points="857.5,-74 768.5,-74 768.5,-55 857.5,-55 857.5,-74"/>
<text text-anchor="middle" x="813" y="-62" font-family="Helvetica,sans-Serif" font-size="10.00">include/mlvp.h</text>
</a>
</g>
</g>
<!-- Node1&#45;&gt;Node5 -->
<g id="edge74_Node000001_Node000005" class="edge">
<title>Node1&#45;&gt;Node5</title>
<g id="a_edge74_Node000001_Node000005"><a xlink:title=" ">
<path fill="none" stroke="#63b8ff" d="M771.35,-720.88C567.69,-712.49 0,-682.13 0,-604.5 0,-604.5 0,-604.5 0,-190 0,-138.12 37.38,-130.59 85,-110 147.54,-82.96 619.59,-69.93 768.29,-66.47"/>
<polygon fill="#63b8ff" stroke="#63b8ff" points="771.22,-724.38 781.35,-721.29 771.5,-717.38 771.22,-724.38"/>
</a>
</g>
</g>
<!-- Node21 -->
<g id="Node000021" class="node">
<title>Node21</title>
<g id="a_Node000021"><a xlink:href="generatorHelper_8h.html" target="_top" xlink:title=" ">
<polygon fill="white" stroke="#666666" points="1872.5,-206 1749.5,-206 1749.5,-176 1872.5,-176 1872.5,-206"/>
<text text-anchor="start" x="1757.5" y="-194" font-family="Helvetica,sans-Serif" font-size="10.00">include/TestGenerator</text>
<text text-anchor="middle" x="1811" y="-183" font-family="Helvetica,sans-Serif" font-size="10.00">/generatorHelper.h</text>
</a>
</g>
</g>
<!-- Node1&#45;&gt;Node21 -->
<g id="edge39_Node000001_Node000021" class="edge">
<title>Node1&#45;&gt;Node21</title>
<g id="a_edge39_Node000001_Node000021"><a xlink:title=" ">
<path fill="none" stroke="#63b8ff" d="M915.13,-722.97C1153.53,-720.29 1901,-703.93 1901,-604.5 1901,-604.5 1901,-604.5 1901,-547.5 1901,-465.95 1863,-449.55 1863,-368 1863,-368 1863,-368 1863,-305.5 1863,-266.7 1837.58,-226.67 1822.28,-206.1"/>
<polygon fill="#63b8ff" stroke="#63b8ff" points="914.81,-719.48 904.84,-723.08 914.88,-726.48 914.81,-719.48"/>
</a>
</g>
</g>
<!-- Node23 -->
<g id="Node000023" class="node">
<title>Node23</title>
<g id="a_Node000023"><a xlink:href="transaction_8h_source.html" target="_top" xlink:title=" ">
<polygon fill="white" stroke="#666666" points="898,-679 788,-679 788,-649 898,-649 898,-679"/>
<text text-anchor="start" x="796" y="-667" font-family="Helvetica,sans-Serif" font-size="10.00">include/Transaction</text>
<text text-anchor="middle" x="843" y="-656" font-family="Helvetica,sans-Serif" font-size="10.00">/transaction.h</text>
</a>
</g>
</g>
<!-- Node1&#45;&gt;Node23 -->
<g id="edge42_Node000001_Node000023" class="edge">
<title>Node1&#45;&gt;Node23</title>
<g id="a_edge42_Node000001_Node000023"><a xlink:title=" ">
<path fill="none" stroke="#63b8ff" d="M843,-704.65C843,-696.36 843,-686.78 843,-679.11"/>
<polygon fill="#63b8ff" stroke="#63b8ff" points="839.5,-704.87 843,-714.87 846.5,-704.87 839.5,-704.87"/>
</a>
</g>
</g>
<!-- Node29 -->
<g id="Node000029" class="node">
<title>Node29</title>
<g id="a_Node000029"><a xlink:href="transaction_8cpp.html" target="_top" xlink:title=" ">
<polygon fill="white" stroke="#666666" points="2014.5,-134.5 1847.5,-134.5 1847.5,-115.5 2014.5,-115.5 2014.5,-134.5"/>
<text text-anchor="middle" x="1931" y="-122.5" font-family="Helvetica,sans-Serif" font-size="10.00">src/Transaction/transaction.cpp</text>
</a>
</g>
</g>
<!-- Node1&#45;&gt;Node29 -->
<g id="edge75_Node000001_Node000029" class="edge">
<title>Node1&#45;&gt;Node29</title>
<g id="a_edge75_Node000001_Node000029"><a xlink:title=" ">
<path fill="none" stroke="#63b8ff" d="M914.77,-723.61C1104.13,-723.34 1613.82,-718.82 1777,-679 1853.99,-660.21 1939,-683.75 1939,-604.5 1939,-604.5 1939,-604.5 1939,-250.5 1939,-206.97 1934.07,-155.04 1931.95,-134.74"/>
<polygon fill="#63b8ff" stroke="#63b8ff" points="914.65,-720.11 904.65,-723.62 914.65,-727.11 914.65,-720.11"/>
</a>
</g>
</g>
<!-- Node3 -->
<g id="Node000003" class="node">
<title>Node3</title>
<g id="a_Node000003"><a xlink:href="driver_8h.html" target="_top" xlink:title=" ">
<polygon fill="white" stroke="#666666" points="262,-200.5 132,-200.5 132,-181.5 262,-181.5 262,-200.5"/>
<text text-anchor="middle" x="197" y="-188.5" font-family="Helvetica,sans-Serif" font-size="10.00">include/Drivers/driver.h</text>
</a>
</g>
</g>
<!-- Node2&#45;&gt;Node3 -->
<g id="edge2_Node000002_Node000003" class="edge">
<title>Node2&#45;&gt;Node3</title>
<g id="a_edge2_Node000002_Node000003"><a xlink:title=" ">
<path fill="none" stroke="#63b8ff" d="M567.98,-544.02C507.4,-539.3 426.93,-528.33 360,-503 256.92,-464 152,-478.21 152,-368 152,-368 152,-368 152,-305.5 152,-263.74 178.65,-219.04 190.93,-200.65"/>
<polygon fill="#63b8ff" stroke="#63b8ff" points="568.06,-547.54 578.29,-544.78 568.58,-540.55 568.06,-547.54"/>
</a>
</g>
</g>
<!-- Node2&#45;&gt;Node5 -->
<g id="edge36_Node000002_Node000005" class="edge">
<title>Node2&#45;&gt;Node5</title>
<g id="a_edge36_Node000002_Node000005"><a xlink:title=" ">
<path fill="none" stroke="#63b8ff" d="M672.09,-530.71C693.02,-504.58 736.12,-453.47 780,-418 804.18,-398.45 820.71,-406.39 840,-382 916.98,-284.68 837.79,-113.94 817.48,-74.02"/>
<polygon fill="#63b8ff" stroke="#63b8ff" points="669.11,-528.84 665.65,-538.85 674.6,-533.18 669.11,-528.84"/>
</a>
</g>
</g>
<!-- Node6 -->
<g id="Node000006" class="node">
<title>Node6</title>
<g id="a_Node000006"><a xlink:href="main_8cpp.html" target="_top" xlink:title=" ">
<polygon fill="white" stroke="#666666" points="1240.5,-19 1161.5,-19 1161.5,0 1240.5,0 1240.5,-19"/>
<text text-anchor="middle" x="1201" y="-7" font-family="Helvetica,sans-Serif" font-size="10.00">src/main.cpp</text>
</a>
</g>
</g>
<!-- Node2&#45;&gt;Node6 -->
<g id="edge38_Node000002_Node000006" class="edge">
<title>Node2&#45;&gt;Node6</title>
<g id="a_edge38_Node000002_Node000006"><a xlink:title=" ">
<path fill="none" stroke="#63b8ff" d="M679.07,-532.65C690.36,-524.16 704.64,-513.19 717,-503 760.97,-466.74 768.66,-453.8 813,-418 834.03,-401.03 842.94,-401.16 862,-382 935.6,-308 1000,-296.37 1000,-192 1000,-192 1000,-192 1000,-124 1000,-91.53 1000.05,-76.92 1024,-55 1061.51,-20.66 1121.56,-11.89 1161.14,-10.12"/>
<polygon fill="#63b8ff" stroke="#63b8ff" points="676.66,-530.08 670.74,-538.87 680.85,-535.69 676.66,-530.08"/>
</a>
</g>
</g>
<!-- Node9 -->
<g id="Node000009" class="node">
<title>Node9</title>
<g id="a_Node000009"><a xlink:href="dutDriver_8h.html" target="_top" xlink:title=" ">
<polygon fill="white" stroke="#666666" points="327.5,-316 180.5,-316 180.5,-297 327.5,-297 327.5,-316"/>
<text text-anchor="middle" x="254" y="-304" font-family="Helvetica,sans-Serif" font-size="10.00">include/Drivers/dutDriver.h</text>
</a>
</g>
</g>
<!-- Node2&#45;&gt;Node9 -->
<g id="edge9_Node000002_Node000009" class="edge">
<title>Node2&#45;&gt;Node9</title>
<g id="a_edge9_Node000002_Node000009"><a xlink:title=" ">
<path fill="none" stroke="#63b8ff" d="M568.2,-538.65C503.69,-531.17 423.49,-519.1 394,-503 330.21,-468.18 322.63,-443.57 284,-382 270.22,-360.03 260.63,-330.66 256.41,-316.24"/>
<polygon fill="#63b8ff" stroke="#63b8ff" points="568.08,-542.16 578.41,-539.81 568.87,-535.2 568.08,-542.16"/>
</a>
</g>
</g>
<!-- Node10 -->
<g id="Node000010" class="node">
<title>Node10</title>
<g id="a_Node000010"><a xlink:href="refDriver_8h.html" target="_top" xlink:title=" ">
<polygon fill="white" stroke="#666666" points="695.5,-261 550.5,-261 550.5,-242 695.5,-242 695.5,-261"/>
<text text-anchor="middle" x="623" y="-249" font-family="Helvetica,sans-Serif" font-size="10.00">include/Drivers/refDriver.h</text>
</a>
</g>
</g>
<!-- Node2&#45;&gt;Node10 -->
<g id="edge17_Node000002_Node000010" class="edge">
<title>Node2&#45;&gt;Node10</title>
<g id="a_edge17_Node000002_Node000010"><a xlink:title=" ">
<path fill="none" stroke="#63b8ff" d="M643.75,-531.34C622.45,-508.32 585.62,-466.81 579,-448 564.58,-407.05 573.57,-388.55 597,-352 610.45,-331.02 629.45,-338.58 640,-316 648.69,-297.39 636.76,-273.56 628.9,-261.05"/>
<polygon fill="#63b8ff" stroke="#63b8ff" points="641.43,-533.98 650.82,-538.9 646.55,-529.21 641.43,-533.98"/>
</a>
</g>
</g>
<!-- Node13 -->
<g id="Node000013" class="node">
<title>Node13</title>
<g id="a_Node000013"><a xlink:href="simulatorDriver_8h.html" target="_top" xlink:title=" ">
<polygon fill="white" stroke="#666666" points="728,-448 588,-448 588,-418 728,-418 728,-448"/>
<text text-anchor="start" x="596" y="-436" font-family="Helvetica,sans-Serif" font-size="10.00">include/Drivers/simulator</text>
<text text-anchor="middle" x="658" y="-425" font-family="Helvetica,sans-Serif" font-size="10.00">Driver.h</text>
</a>
</g>
</g>
<!-- Node2&#45;&gt;Node13 -->
<g id="edge18_Node000002_Node000013" class="edge">
<title>Node2&#45;&gt;Node13</title>
<g id="a_edge18_Node000002_Node000013"><a xlink:title=" ">
<path fill="none" stroke="#63b8ff" d="M658.84,-528.96C658.64,-506.34 658.3,-468.61 658.12,-448.18"/>
<polygon fill="#63b8ff" stroke="#63b8ff" points="655.34,-529 658.92,-538.97 662.34,-528.94 655.34,-529"/>
</a>
</g>
</g>
<!-- Node14 -->
<g id="Node000014" class="node">
<title>Node14</title>
<g id="a_Node000014"><a xlink:href="transDriverModel_8h.html" target="_top" xlink:title=" ">
<polygon fill="white" stroke="#666666" points="482,-382 334,-382 334,-352 482,-352 482,-382"/>
<text text-anchor="start" x="342" y="-370" font-family="Helvetica,sans-Serif" font-size="10.00">include/Drivers/transDriver</text>
<text text-anchor="middle" x="408" y="-359" font-family="Helvetica,sans-Serif" font-size="10.00">Model.h</text>
</a>
</g>
</g>
<!-- Node2&#45;&gt;Node14 -->
<g id="edge30_Node000002_Node000014" class="edge">
<title>Node2&#45;&gt;Node14</title>
<g id="a_edge30_Node000002_Node000014"><a xlink:title=" ">
<path fill="none" stroke="#63b8ff" d="M638.66,-532.95C591.41,-499.16 474.69,-415.69 427.89,-382.22"/>
<polygon fill="#63b8ff" stroke="#63b8ff" points="636.72,-535.87 646.89,-538.84 640.8,-530.18 636.72,-535.87"/>
</a>
</g>
</g>
<!-- Node17 -->
<g id="Node000017" class="node">
<title>Node17</title>
<g id="a_Node000017"><a xlink:href="ref_8h.html" target="_top" xlink:title=" ">
<polygon fill="white" stroke="#666666" points="1147.5,-503 1028.5,-503 1028.5,-484 1147.5,-484 1147.5,-503"/>
<text text-anchor="middle" x="1088" y="-491" font-family="Helvetica,sans-Serif" font-size="10.00">include/RefPack/ref.h</text>
</a>
</g>
</g>
<!-- Node2&#45;&gt;Node17 -->
<g id="edge31_Node000002_Node000017" class="edge">
<title>Node2&#45;&gt;Node17</title>
<g id="a_edge31_Node000002_Node000017"><a xlink:title=" ">
<path fill="none" stroke="#63b8ff" d="M737.91,-537.75C821.78,-527.39 952.51,-511.24 1028.24,-501.88"/>
<polygon fill="#63b8ff" stroke="#63b8ff" points="737.42,-534.28 727.93,-538.98 738.28,-541.23 737.42,-534.28"/>
</a>
</g>
</g>
<!-- Node18 -->
<g id="Node000018" class="node">
<title>Node18</title>
<g id="a_Node000018"><a xlink:href="simulator_8h.html" target="_top" xlink:title=" ">
<polygon fill="white" stroke="#666666" points="972,-503 812,-503 812,-484 972,-484 972,-503"/>
<text text-anchor="middle" x="892" y="-491" font-family="Helvetica,sans-Serif" font-size="10.00">include/Simulator/simulator.h</text>
</a>
</g>
</g>
<!-- Node2&#45;&gt;Node18 -->
<g id="edge33_Node000002_Node000018" class="edge">
<title>Node2&#45;&gt;Node18</title>
<g id="a_edge33_Node000002_Node000018"><a xlink:title=" ">
<path fill="none" stroke="#63b8ff" d="M706.25,-536.75C749.91,-526.82 813.94,-512.26 854.27,-503.08"/>
<polygon fill="#63b8ff" stroke="#63b8ff" points="705.41,-533.35 696.44,-538.98 706.96,-540.18 705.41,-533.35"/>
</a>
</g>
</g>
<!-- Node20 -->
<g id="Node000020" class="node">
<title>Node20</title>
<g id="a_Node000020"><a xlink:href="driverModel_8cpp.html" target="_top" xlink:title=" ">
<polygon fill="white" stroke="#666666" points="554.5,-503 403.5,-503 403.5,-484 554.5,-484 554.5,-503"/>
<text text-anchor="middle" x="479" y="-491" font-family="Helvetica,sans-Serif" font-size="10.00">src/Drivers/driverModel.cpp</text>
</a>
</g>
</g>
<!-- Node2&#45;&gt;Node20 -->
<g id="edge37_Node000002_Node000020" class="edge">
<title>Node2&#45;&gt;Node20</title>
<g id="a_edge37_Node000002_Node000020"><a xlink:title=" ">
<path fill="none" stroke="#63b8ff" d="M620.13,-536.06C586.49,-526.15 538.58,-512.04 508.15,-503.08"/>
<polygon fill="#63b8ff" stroke="#63b8ff" points="619.5,-539.52 630.08,-538.98 621.48,-532.8 619.5,-539.52"/>
</a>
</g>
</g>
<!-- Node4 -->
<g id="Node000004" class="node">
<title>Node4</title>
<g id="a_Node000004"><a xlink:href="spreader_8h.html" target="_top" xlink:title=" ">
<polygon fill="white" stroke="#666666" points="1180,-134.5 1028,-134.5 1028,-115.5 1180,-115.5 1180,-134.5"/>
<text text-anchor="middle" x="1104" y="-122.5" font-family="Helvetica,sans-Serif" font-size="10.00">include/Spreader/spreader.h</text>
</a>
</g>
</g>
<!-- Node3&#45;&gt;Node4 -->
<g id="edge3_Node000003_Node000004" class="edge">
<title>Node3&#45;&gt;Node4</title>
<g id="a_edge3_Node000003_Node000004"><a xlink:title=" ">
<path fill="none" stroke="#63b8ff" d="M272.37,-184.68C442.82,-172.65 856.41,-143.47 1027.72,-131.38"/>
<polygon fill="#63b8ff" stroke="#63b8ff" points="271.96,-181.2 262.23,-185.4 272.45,-188.18 271.96,-181.2"/>
</a>
</g>
</g>
<!-- Node3&#45;&gt;Node5 -->
<g id="edge7_Node000003_Node000005" class="edge">
<title>Node3&#45;&gt;Node5</title>
<g id="a_edge7_Node000003_Node000005"><a xlink:title=" ">
<path fill="none" stroke="#63b8ff" d="M172.76,-176.18C146.95,-159.8 112.44,-131.95 133,-110 176.35,-63.72 623.94,-63.75 768.35,-64.98"/>
<polygon fill="#63b8ff" stroke="#63b8ff" points="171.06,-179.25 181.42,-181.47 174.71,-173.27 171.06,-179.25"/>
</a>
</g>
</g>
<!-- Node8 -->
<g id="Node000008" class="node">
<title>Node8</title>
<g id="a_Node000008"><a xlink:href="driver_8cpp.html" target="_top" xlink:title=" ">
<polygon fill="white" stroke="#666666" points="262,-134.5 142,-134.5 142,-115.5 262,-115.5 262,-134.5"/>
<text text-anchor="middle" x="202" y="-122.5" font-family="Helvetica,sans-Serif" font-size="10.00">src/Drivers/driver.cpp</text>
</a>
</g>
</g>
<!-- Node3&#45;&gt;Node8 -->
<g id="edge8_Node000003_Node000008" class="edge">
<title>Node3&#45;&gt;Node8</title>
<g id="a_edge8_Node000003_Node000008"><a xlink:title=" ">
<path fill="none" stroke="#63b8ff" d="M198.48,-171.08C199.41,-159.13 200.58,-144.22 201.3,-134.91"/>
<polygon fill="#63b8ff" stroke="#63b8ff" points="194.96,-171.13 197.67,-181.37 201.94,-171.67 194.96,-171.13"/>
</a>
</g>
</g>
<!-- Node4&#45;&gt;Node5 -->
<g id="edge4_Node000004_Node000005" class="edge">
<title>Node4&#45;&gt;Node5</title>
<g id="a_edge4_Node000004_Node000005"><a xlink:title=" ">
<path fill="none" stroke="#63b8ff" d="M1051.58,-113.46C995.41,-102.17 907.33,-84.46 855.36,-74.02"/>
<polygon fill="#63b8ff" stroke="#63b8ff" points="1051.19,-116.95 1061.69,-115.49 1052.57,-110.09 1051.19,-116.95"/>
</a>
</g>
</g>
<!-- Node7 -->
<g id="Node000007" class="node">
<title>Node7</title>
<g id="a_Node000007"><a xlink:href="spreader_8cpp.html" target="_top" xlink:title=" ">
<polygon fill="white" stroke="#666666" points="1175.5,-74 1032.5,-74 1032.5,-55 1175.5,-55 1175.5,-74"/>
<text text-anchor="middle" x="1104" y="-62" font-family="Helvetica,sans-Serif" font-size="10.00">src/Spreader/spreader.cpp</text>
</a>
</g>
</g>
<!-- Node4&#45;&gt;Node7 -->
<g id="edge6_Node000004_Node000007" class="edge">
<title>Node4&#45;&gt;Node7</title>
<g id="a_edge6_Node000004_Node000007"><a xlink:title=" ">
<path fill="none" stroke="#63b8ff" d="M1104,-105.16C1104,-94.74 1104,-82.3 1104,-74.17"/>
<polygon fill="#63b8ff" stroke="#63b8ff" points="1100.5,-105.37 1104,-115.37 1107.5,-105.37 1100.5,-105.37"/>
</a>
</g>
</g>
<!-- Node5&#45;&gt;Node6 -->
<g id="edge5_Node000005_Node000006" class="edge">
<title>Node5&#45;&gt;Node6</title>
<g id="a_edge5_Node000005_Node000006"><a xlink:title=" ">
<path fill="none" stroke="#63b8ff" d="M868.07,-55.55C869.39,-55.37 870.7,-55.18 872,-55 976.46,-40.41 1099.7,-23.94 1161.48,-15.73"/>
<polygon fill="#63b8ff" stroke="#63b8ff" points="867.18,-52.14 857.77,-57.01 868.16,-59.07 867.18,-52.14"/>
</a>
</g>
</g>
<!-- Node9&#45;&gt;Node3 -->
<g id="edge10_Node000009_Node000003" class="edge">
<title>Node9&#45;&gt;Node3</title>
<g id="a_edge10_Node000009_Node000003"><a xlink:title=" ">
<path fill="none" stroke="#63b8ff" d="M245.21,-287.99C232.81,-263.3 210.66,-219.21 201.33,-200.63"/>
<polygon fill="#63b8ff" stroke="#63b8ff" points="242.1,-289.6 249.72,-296.97 248.36,-286.46 242.1,-289.6"/>
</a>
</g>
</g>
<!-- Node9&#45;&gt;Node5 -->
<g id="edge15_Node000009_Node000005" class="edge">
<title>Node9&#45;&gt;Node5</title>
<g id="a_edge15_Node000009_Node000005"><a xlink:title=" ">
<path fill="none" stroke="#63b8ff" d="M256.63,-286.64C259.18,-273.3 264.03,-255.47 273,-242 324.28,-164.98 348.84,-146.19 434,-110 493.37,-84.77 681.75,-72.17 768.49,-67.59"/>
<polygon fill="#63b8ff" stroke="#63b8ff" points="253.17,-286.16 254.99,-296.59 260.07,-287.29 253.17,-286.16"/>
</a>
</g>
</g>
<!-- Node9&#45;&gt;Node10 -->
<g id="edge11_Node000009_Node000010" class="edge">
<title>Node9&#45;&gt;Node10</title>
<g id="a_edge11_Node000009_Node000010"><a xlink:title=" ">
<path fill="none" stroke="#63b8ff" d="M323.24,-295.56C392.51,-285.61 497.96,-270.46 563.56,-261.04"/>
<polygon fill="#63b8ff" stroke="#63b8ff" points="322.69,-292.1 313.29,-296.98 323.68,-299.03 322.69,-292.1"/>
</a>
</g>
</g>
<!-- Node12 -->
<g id="Node000012" class="node">
<title>Node12</title>
<g id="a_Node000012"><a xlink:href="dutDriver_8cpp.html" target="_top" xlink:title=" ">
<polygon fill="white" stroke="#666666" points="419.5,-261 282.5,-261 282.5,-242 419.5,-242 419.5,-261"/>
<text text-anchor="middle" x="351" y="-249" font-family="Helvetica,sans-Serif" font-size="10.00">src/Drivers/dutDriver.cpp</text>
</a>
</g>
</g>
<!-- Node9&#45;&gt;Node12 -->
<g id="edge16_Node000009_Node000012" class="edge">
<title>Node9&#45;&gt;Node12</title>
<g id="a_edge16_Node000009_Node000012"><a xlink:title=" ">
<path fill="none" stroke="#63b8ff" d="M278.77,-291.97C296.5,-282.28 319.85,-269.52 335.13,-261.17"/>
<polygon fill="#63b8ff" stroke="#63b8ff" points="276.68,-289.12 269.58,-296.98 280.04,-295.26 276.68,-289.12"/>
</a>
</g>
</g>
<!-- Node10&#45;&gt;Node3 -->
<g id="edge12_Node000010_Node000003" class="edge">
<title>Node10&#45;&gt;Node3</title>
<g id="a_edge12_Node000010_Node000003"><a xlink:title=" ">
<path fill="none" stroke="#63b8ff" d="M551.08,-240.62C469.14,-229.37 336.59,-211.17 259.02,-200.52"/>
<polygon fill="#63b8ff" stroke="#63b8ff" points="550.67,-244.1 561.06,-241.99 551.63,-237.17 550.67,-244.1"/>
</a>
</g>
</g>
<!-- Node10&#45;&gt;Node5 -->
<g id="edge13_Node000010_Node000005" class="edge">
<title>Node10&#45;&gt;Node5</title>
<g id="a_edge13_Node000010_Node000005"><a xlink:title=" ">
<path fill="none" stroke="#63b8ff" d="M622.49,-231.56C622.94,-215.48 625.79,-192.45 637,-176 674.17,-121.43 748.13,-88.41 787.3,-74.02"/>
<polygon fill="#63b8ff" stroke="#63b8ff" points="618.99,-231.85 622.49,-241.85 625.99,-231.85 618.99,-231.85"/>
</a>
</g>
</g>
<!-- Node11 -->
<g id="Node000011" class="node">
<title>Node11</title>
<g id="a_Node000011"><a xlink:href="refDriver_8cpp.html" target="_top" xlink:title=" ">
<polygon fill="white" stroke="#666666" points="781.5,-200.5 646.5,-200.5 646.5,-181.5 781.5,-181.5 781.5,-200.5"/>
<text text-anchor="middle" x="714" y="-188.5" font-family="Helvetica,sans-Serif" font-size="10.00">src/Drivers/refDriver.cpp</text>
</a>
</g>
</g>
<!-- Node10&#45;&gt;Node11 -->
<g id="edge14_Node000010_Node000011" class="edge">
<title>Node10&#45;&gt;Node11</title>
<g id="a_edge14_Node000010_Node000011"><a xlink:title=" ">
<path fill="none" stroke="#63b8ff" d="M645.31,-236.16C662.6,-225.05 685.98,-210.01 700.52,-200.67"/>
<polygon fill="#63b8ff" stroke="#63b8ff" points="642.95,-233.52 636.43,-241.87 646.73,-239.4 642.95,-233.52"/>
</a>
</g>
</g>
<!-- Node13&#45;&gt;Node4 -->
<g id="edge26_Node000013_Node000004" class="edge">
<title>Node13&#45;&gt;Node4</title>
<g id="a_edge26_Node000013_Node000004"><a xlink:title=" ">
<path fill="none" stroke="#63b8ff" d="M738.23,-417.17C785.81,-407.45 840.85,-394.3 862,-382 979.36,-313.72 1075.16,-171.35 1098.54,-134.73"/>
<polygon fill="#63b8ff" stroke="#63b8ff" points="737.31,-413.79 728.2,-419.19 738.7,-420.65 737.31,-413.79"/>
</a>
</g>
</g>
<!-- Node13&#45;&gt;Node5 -->
<g id="edge27_Node000013_Node000005" class="edge">
<title>Node13&#45;&gt;Node5</title>
<g id="a_edge27_Node000013_Node000005"><a xlink:title=" ">
<path fill="none" stroke="#63b8ff" d="M737.97,-415.8C757.61,-408.4 777,-397.63 791,-382 813.8,-356.55 810,-341.67 810,-307.5 810,-307.5 810,-307.5 810,-190 810,-146.54 811.85,-94.58 812.64,-74.25"/>
<polygon fill="#63b8ff" stroke="#63b8ff" points="736.61,-412.57 728.33,-419.17 738.92,-419.18 736.61,-412.57"/>
</a>
</g>
</g>
<!-- Node13&#45;&gt;Node6 -->
<g id="edge29_Node000013_Node000006" class="edge">
<title>Node13&#45;&gt;Node6</title>
<g id="a_edge29_Node000013_Node000006"><a xlink:title=" ">
<path fill="none" stroke="#63b8ff" d="M727.62,-415.35C762.33,-405.92 799.71,-393.7 813,-382 840.46,-357.83 848,-344.08 848,-307.5 848,-307.5 848,-307.5 848,-250.5 848,-144.14 897.04,-113.3 986,-55 1039.56,-19.9 1115.42,-11.7 1161.24,-10.22"/>
<polygon fill="#63b8ff" stroke="#63b8ff" points="726.68,-411.97 717.92,-417.93 728.48,-418.74 726.68,-411.97"/>
</a>
</g>
</g>
<!-- Node13&#45;&gt;Node9 -->
<g id="edge19_Node000013_Node000009" class="edge">
<title>Node13&#45;&gt;Node9</title>
<g id="a_edge19_Node000013_Node000009"><a xlink:title=" ">
<path fill="none" stroke="#63b8ff" d="M577.6,-425.94C493.46,-418.55 367.74,-404.21 325,-382 294.56,-366.18 269.84,-332.18 259.39,-316.17"/>
<polygon fill="#63b8ff" stroke="#63b8ff" points="577.38,-429.44 587.65,-426.81 577.99,-422.46 577.38,-429.44"/>
</a>
</g>
</g>
<!-- Node13&#45;&gt;Node10 -->
<g id="edge20_Node000013_Node000010" class="edge">
<title>Node13&#45;&gt;Node10</title>
<g id="a_edge20_Node000013_Node000010"><a xlink:title=" ">
<path fill="none" stroke="#63b8ff" d="M629.65,-411.58C611.01,-395.53 592.22,-372.55 605,-352 624.1,-321.28 658.9,-346.72 678,-316 682.46,-308.83 681.64,-304.62 678,-297 670.28,-280.82 653.47,-268.62 640.46,-261.12"/>
<polygon fill="#63b8ff" stroke="#63b8ff" points="627.57,-414.4 637.54,-418 631.99,-408.97 627.57,-414.4"/>
</a>
</g>
</g>
<!-- Node13&#45;&gt;Node14 -->
<g id="edge21_Node000013_Node000014" class="edge">
<title>Node13&#45;&gt;Node14</title>
<g id="a_edge21_Node000013_Node000014"><a xlink:title=" ">
<path fill="none" stroke="#63b8ff" d="M593.36,-415.45C552.85,-405.08 501.21,-391.86 462.74,-382.01"/>
<polygon fill="#63b8ff" stroke="#63b8ff" points="592.58,-418.87 603.14,-417.95 594.32,-412.08 592.58,-418.87"/>
</a>
</g>
</g>
<!-- Node16 -->
<g id="Node000016" class="node">
<title>Node16</title>
<g id="a_Node000016"><a xlink:href="simulatorDriver_8cpp.html" target="_top" xlink:title=" ">
<polygon fill="white" stroke="#666666" points="782,-376.5 614,-376.5 614,-357.5 782,-357.5 782,-376.5"/>
<text text-anchor="middle" x="698" y="-364.5" font-family="Helvetica,sans-Serif" font-size="10.00">src/Drivers/simulatorDriver.cpp</text>
</a>
</g>
</g>
<!-- Node13&#45;&gt;Node16 -->
<g id="edge28_Node000013_Node000016" class="edge">
<title>Node13&#45;&gt;Node16</title>
<g id="a_edge28_Node000013_Node000016"><a xlink:title=" ">
<path fill="none" stroke="#63b8ff" d="M672.2,-409.28C679.21,-398.07 687.25,-385.19 692.47,-376.84"/>
<polygon fill="#63b8ff" stroke="#63b8ff" points="669.21,-407.46 666.88,-417.8 675.15,-411.17 669.21,-407.46"/>
</a>
</g>
</g>
<!-- Node14&#45;&gt;Node5 -->
<g id="edge24_Node000014_Node000005" class="edge">
<title>Node14&#45;&gt;Node5</title>
<g id="a_edge24_Node000014_Node000005"><a xlink:title=" ">
<path fill="none" stroke="#63b8ff" d="M386.05,-344.27C374.94,-330.56 365.44,-312.55 374,-297 376.34,-292.75 664.6,-112.03 669,-110 703.93,-93.88 746.22,-81.6 775.91,-74.07"/>
<polygon fill="#63b8ff" stroke="#63b8ff" points="383.42,-346.59 392.65,-351.8 388.69,-341.97 383.42,-346.59"/>
</a>
</g>
</g>
<!-- Node14&#45;&gt;Node9 -->
<g id="edge22_Node000014_Node000009" class="edge">
<title>Node14&#45;&gt;Node9</title>
<g id="a_edge22_Node000014_Node000009"><a xlink:title=" ">
<path fill="none" stroke="#63b8ff" d="M361.49,-348.33C333.45,-337.68 298.97,-324.58 276.74,-316.14"/>
<polygon fill="#63b8ff" stroke="#63b8ff" points="360.52,-351.71 371.11,-351.99 363.01,-345.16 360.52,-351.71"/>
</a>
</g>
</g>
<!-- Node14&#45;&gt;Node10 -->
<g id="edge23_Node000014_Node000010" class="edge">
<title>Node14&#45;&gt;Node10</title>
<g id="a_edge23_Node000014_Node000010"><a xlink:title=" ">
<path fill="none" stroke="#63b8ff" d="M492.24,-349.48C518.24,-341.93 546.04,-331.16 569,-316 591.22,-301.33 609.4,-274.94 617.86,-261.26"/>
<polygon fill="#63b8ff" stroke="#63b8ff" points="491.08,-346.17 482.38,-352.23 492.96,-352.92 491.08,-346.17"/>
</a>
</g>
</g>
<!-- Node15 -->
<g id="Node000015" class="node">
<title>Node15</title>
<g id="a_Node000015"><a xlink:href="transDriverModel_8cpp.html" target="_top" xlink:title=" ">
<polygon fill="white" stroke="#666666" points="560.5,-316 383.5,-316 383.5,-297 560.5,-297 560.5,-316"/>
<text text-anchor="middle" x="472" y="-304" font-family="Helvetica,sans-Serif" font-size="10.00">src/Drivers/transDriverModel.cpp</text>
</a>
</g>
</g>
<!-- Node14&#45;&gt;Node15 -->
<g id="edge25_Node000014_Node000015" class="edge">
<title>Node14&#45;&gt;Node15</title>
<g id="a_edge25_Node000014_Node000015"><a xlink:title=" ">
<path fill="none" stroke="#63b8ff" d="M431.02,-344.96C441.83,-335.07 454.13,-323.83 462.41,-316.27"/>
<polygon fill="#63b8ff" stroke="#63b8ff" points="428.51,-342.51 423.49,-351.84 433.24,-347.68 428.51,-342.51"/>
</a>
</g>
</g>
<!-- Node17&#45;&gt;Node5 -->
<g id="edge32_Node000017_Node000005" class="edge">
<title>Node17&#45;&gt;Node5</title>
<g id="a_edge32_Node000017_Node000005"><a xlink:title=" ">
<path fill="none" stroke="#63b8ff" d="M1081.83,-474.22C1057.26,-401.77 966.26,-137.38 938,-110 916.33,-89 884.1,-77.84 857.8,-71.95"/>
<polygon fill="#63b8ff" stroke="#63b8ff" points="1078.56,-475.45 1085.08,-483.8 1085.19,-473.21 1078.56,-475.45"/>
</a>
</g>
</g>
<!-- Node18&#45;&gt;Node13 -->
<g id="edge34_Node000018_Node000013" class="edge">
<title>Node18&#45;&gt;Node13</title>
<g id="a_edge34_Node000018_Node000013"><a xlink:title=" ">
<path fill="none" stroke="#63b8ff" d="M848.26,-481.56C810.39,-472.1 755.39,-458.35 714.26,-448.06"/>
<polygon fill="#63b8ff" stroke="#63b8ff" points="847.42,-484.96 857.97,-483.99 849.12,-478.17 847.42,-484.96"/>
</a>
</g>
</g>
<!-- Node19 -->
<g id="Node000019" class="node">
<title>Node19</title>
<g id="a_Node000019"><a xlink:href="simulator_8cpp.html" target="_top" xlink:title=" ">
<polygon fill="white" stroke="#666666" points="972,-442.5 822,-442.5 822,-423.5 972,-423.5 972,-442.5"/>
<text text-anchor="middle" x="897" y="-430.5" font-family="Helvetica,sans-Serif" font-size="10.00">src/Simulator/simulator.cpp</text>
</a>
</g>
</g>
<!-- Node18&#45;&gt;Node19 -->
<g id="edge35_Node000018_Node000019" class="edge">
<title>Node18&#45;&gt;Node19</title>
<g id="a_edge35_Node000018_Node000019"><a xlink:title=" ">
<path fill="none" stroke="#63b8ff" d="M893.61,-473.66C894.5,-463.24 895.56,-450.8 896.26,-442.67"/>
<polygon fill="#63b8ff" stroke="#63b8ff" points="890.1,-473.61 892.74,-483.87 897.08,-474.2 890.1,-473.61"/>
</a>
</g>
</g>
<!-- Node21&#45;&gt;Node5 -->
<g id="edge40_Node000021_Node000005" class="edge">
<title>Node21&#45;&gt;Node5</title>
<g id="a_edge40_Node000021_Node000005"><a xlink:title=" ">
<path fill="none" stroke="#63b8ff" d="M1815.41,-165.6C1817.13,-147.53 1815.89,-123.75 1801,-110 1796.61,-105.94 1050.17,-75.19 857.8,-67.33"/>
<polygon fill="#63b8ff" stroke="#63b8ff" points="1811.91,-165.35 1814.09,-175.72 1818.85,-166.26 1811.91,-165.35"/>
</a>
</g>
</g>
<!-- Node22 -->
<g id="Node000022" class="node">
<title>Node22</title>
<g id="a_Node000022"><a xlink:href="generatorHelper_8cpp.html" target="_top" xlink:title=" ">
<polygon fill="white" stroke="#666666" points="1791.5,-140 1672.5,-140 1672.5,-110 1791.5,-110 1791.5,-140"/>
<text text-anchor="start" x="1680.5" y="-128" font-family="Helvetica,sans-Serif" font-size="10.00">src/TestGenerator/src</text>
<text text-anchor="middle" x="1732" y="-117" font-family="Helvetica,sans-Serif" font-size="10.00">/generatorHelper.cpp</text>
</a>
</g>
</g>
<!-- Node21&#45;&gt;Node22 -->
<g id="edge41_Node000021_Node000022" class="edge">
<title>Node21&#45;&gt;Node22</title>
<g id="a_edge41_Node000021_Node000022"><a xlink:title=" ">
<path fill="none" stroke="#63b8ff" d="M1785.67,-169.48C1773.86,-159.91 1760.11,-148.77 1749.48,-140.16"/>
<polygon fill="#63b8ff" stroke="#63b8ff" points="1783.49,-172.22 1793.47,-175.8 1787.9,-166.78 1783.49,-172.22"/>
</a>
</g>
</g>
<!-- Node23&#45;&gt;Node2 -->
<g id="edge59_Node000023_Node000002" class="edge">
<title>Node23&#45;&gt;Node2</title>
<g id="a_edge59_Node000023_Node000002"><a xlink:title=" ">
<path fill="none" stroke="#63b8ff" d="M808.58,-643.83C792.48,-634.71 773.13,-623.51 756,-613 725.3,-594.15 690.11,-570.61 671.71,-558.16"/>
<polygon fill="#63b8ff" stroke="#63b8ff" points="807.22,-647.08 817.65,-648.94 810.66,-640.98 807.22,-647.08"/>
</a>
</g>
</g>
<!-- Node23&#45;&gt;Node3 -->
<g id="edge58_Node000023_Node000003" class="edge">
<title>Node23&#45;&gt;Node3</title>
<g id="a_edge58_Node000023_Node000003"><a xlink:title=" ">
<path fill="none" stroke="#63b8ff" d="M777.85,-659.67C599.06,-649.67 114,-616.37 114,-549.5 114,-549.5 114,-549.5 114,-305.5 114,-258.39 161.18,-217.8 184.39,-200.68"/>
<polygon fill="#63b8ff" stroke="#63b8ff" points="777.73,-663.17 787.91,-660.23 778.12,-656.18 777.73,-663.17"/>
</a>
</g>
</g>
<!-- Node23&#45;&gt;Node4 -->
<g id="edge70_Node000023_Node000004" class="edge">
<title>Node23&#45;&gt;Node4</title>
<g id="a_edge70_Node000023_Node000004"><a xlink:title=" ">
<path fill="none" stroke="#63b8ff" d="M908.14,-656.57C1014.57,-644.25 1214,-612.71 1214,-549.5 1214,-549.5 1214,-549.5 1214,-432 1214,-307.24 1132.02,-169.84 1109.61,-134.6"/>
<polygon fill="#63b8ff" stroke="#63b8ff" points="907.68,-653.1 898.14,-657.71 908.47,-660.06 907.68,-653.1"/>
</a>
</g>
</g>
<!-- Node23&#45;&gt;Node5 -->
<g id="edge71_Node000023_Node000005" class="edge">
<title>Node23&#45;&gt;Node5</title>
<g id="a_edge71_Node000023_Node000005"><a xlink:title=" ">
<path fill="none" stroke="#63b8ff" d="M777.66,-661.14C636.69,-656.61 308.1,-643.09 201,-613 141.01,-596.15 76,-611.81 76,-549.5 76,-549.5 76,-549.5 76,-190 76,-148.76 87.89,-131.63 123,-110 177.75,-76.28 624.15,-67.83 768.3,-65.97"/>
<polygon fill="#63b8ff" stroke="#63b8ff" points="777.78,-664.65 787.88,-661.47 778,-657.65 777.78,-664.65"/>
</a>
</g>
</g>
<!-- Node23&#45;&gt;Node6 -->
<g id="edge73_Node000023_Node000006" class="edge">
<title>Node23&#45;&gt;Node6</title>
<g id="a_edge73_Node000023_Node000006"><a xlink:title=" ">
<path fill="none" stroke="#63b8ff" d="M908.32,-662.94C1086.6,-662.21 1578.61,-656.22 1734,-613 1971.57,-546.93 1972.76,-381.21 2024,-140 2026.77,-126.96 2032.84,-119.98 2024,-110 1971.31,-50.56 1397.53,-19.65 1240.52,-12.26"/>
<polygon fill="#63b8ff" stroke="#63b8ff" points="908.28,-659.44 898.29,-662.98 908.31,-666.44 908.28,-659.44"/>
</a>
</g>
</g>
<!-- Node23&#45;&gt;Node9 -->
<g id="edge60_Node000023_Node000009" class="edge">
<title>Node23&#45;&gt;Node9</title>
<g id="a_edge60_Node000023_Node000009"><a xlink:title=" ">
<path fill="none" stroke="#63b8ff" d="M777.62,-660.11C650.64,-653.96 380.04,-638.08 346,-613 245.21,-538.75 250.68,-357.5 253.34,-316.04"/>
<polygon fill="#63b8ff" stroke="#63b8ff" points="777.83,-663.62 787.98,-660.6 778.16,-656.63 777.83,-663.62"/>
</a>
</g>
</g>
<!-- Node23&#45;&gt;Node10 -->
<g id="edge61_Node000023_Node000010" class="edge">
<title>Node23&#45;&gt;Node10</title>
<g id="a_edge61_Node000023_Node000010"><a xlink:title=" ">
<path fill="none" stroke="#63b8ff" d="M777.54,-661.7C675.68,-655.7 481.84,-627.55 394,-503 389.13,-496.1 390.43,-491.65 394,-484 443.03,-378.78 523.72,-408.4 594,-316 607.21,-298.64 616.18,-274.3 620.34,-261.38"/>
<polygon fill="#63b8ff" stroke="#63b8ff" points="777.53,-665.2 787.7,-662.24 777.91,-658.21 777.53,-665.2"/>
</a>
</g>
</g>
<!-- Node23&#45;&gt;Node14 -->
<g id="edge62_Node000023_Node000014" class="edge">
<title>Node23&#45;&gt;Node14</title>
<g id="a_edge62_Node000023_Node000014"><a xlink:title=" ">
<path fill="none" stroke="#63b8ff" d="M777.72,-660.99C652.48,-656.46 388.4,-643.39 361,-613 299.95,-545.29 371.08,-423.28 398.29,-382.05"/>
<polygon fill="#63b8ff" stroke="#63b8ff" points="777.82,-664.5 787.94,-661.35 778.07,-657.5 777.82,-664.5"/>
</a>
</g>
</g>
<!-- Node23&#45;&gt;Node17 -->
<g id="edge63_Node000023_Node000017" class="edge">
<title>Node23&#45;&gt;Node17</title>
<g id="a_edge63_Node000023_Node000017"><a xlink:title=" ">
<path fill="none" stroke="#63b8ff" d="M907.9,-651.63C937.63,-644.16 972.14,-632.11 999,-613 1041.98,-582.42 1073.19,-524.83 1083.93,-503.09"/>
<polygon fill="#63b8ff" stroke="#63b8ff" points="906.93,-648.27 898.01,-654 908.55,-655.08 906.93,-648.27"/>
</a>
</g>
</g>
<!-- Node23&#45;&gt;Node18 -->
<g id="edge69_Node000023_Node000018" class="edge">
<title>Node23&#45;&gt;Node18</title>
<g id="a_edge69_Node000023_Node000018"><a xlink:title=" ">
<path fill="none" stroke="#63b8ff" d="M821.48,-641.45C798.53,-615.78 768.27,-572.19 790,-539 802.28,-520.25 824.37,-509.36 844.86,-503.05"/>
<polygon fill="#63b8ff" stroke="#63b8ff" points="818.93,-643.86 828.3,-648.81 824.07,-639.1 818.93,-643.86"/>
</a>
</g>
</g>
<!-- Node24 -->
<g id="Node000024" class="node">
<title>Node24</title>
<g id="a_Node000024"><a xlink:href="channel_8h.html" target="_top" xlink:title=" ">
<polygon fill="white" stroke="#666666" points="989.5,-613 844.5,-613 844.5,-594 989.5,-594 989.5,-613"/>
<text text-anchor="middle" x="917" y="-601" font-family="Helvetica,sans-Serif" font-size="10.00">include/Channel/channel.h</text>
</a>
</g>
</g>
<!-- Node23&#45;&gt;Node24 -->
<g id="edge43_Node000023_Node000024" class="edge">
<title>Node23&#45;&gt;Node24</title>
<g id="a_edge43_Node000023_Node000024"><a xlink:title=" ">
<path fill="none" stroke="#63b8ff" d="M868.89,-642.53C881.57,-632.51 896.15,-620.98 905.91,-613.27"/>
<polygon fill="#63b8ff" stroke="#63b8ff" points="866.59,-639.89 860.91,-648.84 870.93,-645.38 866.59,-639.89"/>
</a>
</g>
</g>
<!-- Node26 -->
<g id="Node000026" class="node">
<title>Node26</title>
<g id="a_Node000026"><a xlink:href="database_8h.html" target="_top" xlink:title=" ">
<polygon fill="white" stroke="#666666" points="1588,-200.5 1430,-200.5 1430,-181.5 1588,-181.5 1588,-200.5"/>
<text text-anchor="middle" x="1509" y="-188.5" font-family="Helvetica,sans-Serif" font-size="10.00">include/Database/database.h</text>
</a>
</g>
</g>
<!-- Node23&#45;&gt;Node26 -->
<g id="edge51_Node000023_Node000026" class="edge">
<title>Node23&#45;&gt;Node26</title>
<g id="a_edge51_Node000023_Node000026"><a xlink:title=" ">
<path fill="none" stroke="#63b8ff" d="M908.55,-658.06C1070.22,-645 1475,-606.6 1475,-549.5 1475,-549.5 1475,-549.5 1475,-305.5 1475,-264.77 1495.34,-219.15 1504.56,-200.57"/>
<polygon fill="#63b8ff" stroke="#63b8ff" points="907.94,-654.6 898.26,-658.88 908.5,-661.57 907.94,-654.6"/>
</a>
</g>
</g>
<!-- Node23&#45;&gt;Node29 -->
<g id="edge72_Node000023_Node000029" class="edge">
<title>Node23&#45;&gt;Node29</title>
<g id="a_edge72_Node000023_Node000029"><a xlink:title=" ">
<path fill="none" stroke="#63b8ff" d="M908.34,-662.33C1127.83,-659.22 1825,-642.05 1825,-549.5 1825,-549.5 1825,-549.5 1825,-432 1825,-307.75 1904,-169.98 1925.6,-134.63"/>
<polygon fill="#63b8ff" stroke="#63b8ff" points="908.21,-658.83 898.25,-662.47 908.3,-665.83 908.21,-658.83"/>
</a>
</g>
</g>
<!-- Node30 -->
<g id="Node000030" class="node">
<title>Node30</title>
<g id="a_Node000030"><a xlink:href="reporter_8h.html" target="_top" xlink:title=" ">
<polygon fill="white" stroke="#666666" points="1373.5,-200.5 1226.5,-200.5 1226.5,-181.5 1373.5,-181.5 1373.5,-200.5"/>
<text text-anchor="middle" x="1300" y="-188.5" font-family="Helvetica,sans-Serif" font-size="10.00">include/Reporter/reporter.h</text>
</a>
</g>
</g>
<!-- Node23&#45;&gt;Node30 -->
<g id="edge64_Node000023_Node000030" class="edge">
<title>Node23&#45;&gt;Node30</title>
<g id="a_edge64_Node000023_Node000030"><a xlink:title=" ">
<path fill="none" stroke="#63b8ff" d="M908.19,-660.58C1003.44,-656.04 1175.07,-643.75 1228,-613 1258.59,-595.23 1276,-584.88 1276,-549.5 1276,-549.5 1276,-549.5 1276,-305.5 1276,-265.62 1290.36,-219.53 1296.86,-200.7"/>
<polygon fill="#63b8ff" stroke="#63b8ff" points="907.92,-657.09 898.1,-661.04 908.25,-664.08 907.92,-657.09"/>
</a>
</g>
</g>
<!-- Node24&#45;&gt;Node2 -->
<g id="edge44_Node000024_Node000002" class="edge">
<title>Node24&#45;&gt;Node2</title>
<g id="a_edge44_Node000024_Node000002"><a xlink:title=" ">
<path fill="none" stroke="#63b8ff" d="M865.6,-591.94C817.24,-582.01 745.72,-567.31 700.78,-558.08"/>
<polygon fill="#63b8ff" stroke="#63b8ff" points="865.05,-595.4 875.55,-593.98 866.46,-588.54 865.05,-595.4"/>
</a>
</g>
</g>
<!-- Node24&#45;&gt;Node5 -->
<g id="edge48_Node000024_Node000005" class="edge">
<title>Node24&#45;&gt;Node5</title>
<g id="a_edge48_Node000024_Node000005"><a xlink:title=" ">
<path fill="none" stroke="#63b8ff" d="M938.44,-588.01C963.03,-569.48 1000,-534.9 1000,-494.5 1000,-494.5 1000,-494.5 1000,-432 1000,-274.87 940.78,-241 854,-110 844.95,-96.34 831.7,-82.8 822.74,-74.31"/>
<polygon fill="#63b8ff" stroke="#63b8ff" points="936.38,-585.18 930.34,-593.88 940.49,-590.85 936.38,-585.18"/>
</a>
</g>
</g>
<!-- Node24&#45;&gt;Node6 -->
<g id="edge50_Node000024_Node000006" class="edge">
<title>Node24&#45;&gt;Node6</title>
<g id="a_edge50_Node000024_Node000006"><a xlink:title=" ">
<path fill="none" stroke="#63b8ff" d="M999.88,-601.14C1075.65,-594.96 1176,-572.13 1176,-494.5 1176,-494.5 1176,-494.5 1176,-432 1176,-295.79 1333.65,-332.95 1383,-206 1398.46,-166.23 1404.76,-146.7 1383,-110 1351.96,-57.65 1282.59,-31.06 1239.02,-19.03"/>
<polygon fill="#63b8ff" stroke="#63b8ff" points="999.55,-597.65 989.84,-601.87 1000.06,-604.63 999.55,-597.65"/>
</a>
</g>
</g>
<!-- Node24&#45;&gt;Node9 -->
<g id="edge45_Node000024_Node000009" class="edge">
<title>Node24&#45;&gt;Node9</title>
<g id="a_edge45_Node000024_Node000009"><a xlink:title=" ">
<path fill="none" stroke="#63b8ff" d="M834.08,-594.44C699.35,-580.24 439.89,-547.95 360,-503 300.65,-469.61 288.41,-446.31 266,-382 257.98,-358.99 255.28,-330.09 254.4,-316"/>
<polygon fill="#63b8ff" stroke="#63b8ff" points="834.04,-597.96 844.35,-595.52 834.77,-591 834.04,-597.96"/>
</a>
</g>
</g>
<!-- Node24&#45;&gt;Node17 -->
<g id="edge46_Node000024_Node000017" class="edge">
<title>Node24&#45;&gt;Node17</title>
<g id="a_edge46_Node000024_Node000017"><a xlink:title=" ">
<path fill="none" stroke="#63b8ff" d="M949.61,-590.22C969.01,-582.27 993.71,-570.99 1014,-558 1039.95,-541.38 1066.4,-516.3 1079.53,-503.18"/>
<polygon fill="#63b8ff" stroke="#63b8ff" points="948.26,-586.99 940.28,-593.95 950.86,-593.49 948.26,-586.99"/>
</a>
</g>
</g>
<!-- Node24&#45;&gt;Node18 -->
<g id="edge47_Node000024_Node000018" class="edge">
<title>Node24&#45;&gt;Node18</title>
<g id="a_edge47_Node000024_Node000018"><a xlink:title=" ">
<path fill="none" stroke="#63b8ff" d="M931.53,-585.81C940.91,-572.91 950.13,-554.68 943,-539 935.8,-523.17 919.88,-510.77 907.73,-503.12"/>
<polygon fill="#63b8ff" stroke="#63b8ff" points="928.68,-583.77 925.21,-593.78 934.17,-588.12 928.68,-583.77"/>
</a>
</g>
</g>
<!-- Node25 -->
<g id="Node000025" class="node">
<title>Node25</title>
<g id="a_Node000025"><a xlink:href="channel_8cpp.html" target="_top" xlink:title=" ">
<polygon fill="white" stroke="#666666" points="933.5,-558 798.5,-558 798.5,-539 933.5,-539 933.5,-558"/>
<text text-anchor="middle" x="866" y="-546" font-family="Helvetica,sans-Serif" font-size="10.00">src/Channel/channel.cpp</text>
</a>
</g>
</g>
<!-- Node24&#45;&gt;Node25 -->
<g id="edge49_Node000024_Node000025" class="edge">
<title>Node24&#45;&gt;Node25</title>
<g id="a_edge49_Node000024_Node000025"><a xlink:title=" ">
<path fill="none" stroke="#63b8ff" d="M901.62,-586.52C892.63,-577.18 881.64,-565.75 874.26,-558.09"/>
<polygon fill="#63b8ff" stroke="#63b8ff" points="899.12,-588.97 908.58,-593.75 904.17,-584.12 899.12,-588.97"/>
</a>
</g>
</g>
<!-- Node26&#45;&gt;Node4 -->
<g id="edge52_Node000026_Node000004" class="edge">
<title>Node26&#45;&gt;Node4</title>
<g id="a_edge52_Node000026_Node000004"><a xlink:title=" ">
<path fill="none" stroke="#63b8ff" d="M1444.45,-179.8C1365.13,-167.26 1231.97,-146.22 1157.88,-134.51"/>
<polygon fill="#63b8ff" stroke="#63b8ff" points="1444.38,-183.33 1454.8,-181.44 1445.47,-176.42 1444.38,-183.33"/>
</a>
</g>
</g>
<!-- Node26&#45;&gt;Node5 -->
<g id="edge53_Node000026_Node000005" class="edge">
<title>Node26&#45;&gt;Node5</title>
<g id="a_edge53_Node000026_Node000005"><a xlink:title=" ">
<path fill="none" stroke="#63b8ff" d="M1491.23,-174.67C1468.07,-155.7 1425.5,-124.17 1383,-110 1333.68,-93.56 983.35,-74.22 857.71,-67.74"/>
<polygon fill="#63b8ff" stroke="#63b8ff" points="1489.2,-177.53 1499.11,-181.26 1493.69,-172.16 1489.2,-177.53"/>
</a>
</g>
</g>
<!-- Node26&#45;&gt;Node22 -->
<g id="edge56_Node000026_Node000022" class="edge">
<title>Node26&#45;&gt;Node22</title>
<g id="a_edge56_Node000026_Node000022"><a xlink:title=" ">
<path fill="none" stroke="#63b8ff" d="M1549.13,-178.48C1586.61,-167.73 1642.66,-151.64 1682.82,-140.12"/>
<polygon fill="#63b8ff" stroke="#63b8ff" points="1547.72,-175.25 1539.07,-181.37 1549.65,-181.97 1547.72,-175.25"/>
</a>
</g>
</g>
<!-- Node27 -->
<g id="Node000027" class="node">
<title>Node27</title>
<g id="a_Node000027"><a xlink:href="database_8cpp.html" target="_top" xlink:title=" ">
<polygon fill="white" stroke="#666666" points="1654.5,-134.5 1505.5,-134.5 1505.5,-115.5 1654.5,-115.5 1654.5,-134.5"/>
<text text-anchor="middle" x="1580" y="-122.5" font-family="Helvetica,sans-Serif" font-size="10.00">src/Database/database.cpp</text>
</a>
</g>
</g>
<!-- Node26&#45;&gt;Node27 -->
<g id="edge54_Node000026_Node000027" class="edge">
<title>Node26&#45;&gt;Node27</title>
<g id="a_edge54_Node000026_Node000027"><a xlink:title=" ">
<path fill="none" stroke="#63b8ff" d="M1526.38,-174.33C1540.13,-161.94 1558.83,-145.09 1570.12,-134.91"/>
<polygon fill="#63b8ff" stroke="#63b8ff" points="1523.66,-172.07 1518.58,-181.37 1528.35,-177.27 1523.66,-172.07"/>
</a>
</g>
</g>
<!-- Node28 -->
<g id="Node000028" class="node">
<title>Node28</title>
<g id="a_Node000028"><a xlink:href="reporter_8cpp.html" target="_top" xlink:title=" ">
<polygon fill="white" stroke="#666666" points="1373.5,-134.5 1236.5,-134.5 1236.5,-115.5 1373.5,-115.5 1373.5,-134.5"/>
<text text-anchor="middle" x="1305" y="-122.5" font-family="Helvetica,sans-Serif" font-size="10.00">src/Reporter/reporter.cpp</text>
</a>
</g>
</g>
<!-- Node26&#45;&gt;Node28 -->
<g id="edge55_Node000026_Node000028" class="edge">
<title>Node26&#45;&gt;Node28</title>
<g id="a_edge55_Node000026_Node000028"><a xlink:title=" ">
<path fill="none" stroke="#63b8ff" d="M1471.78,-178.32C1431.54,-165.7 1368.34,-145.87 1332.4,-134.6"/>
<polygon fill="#63b8ff" stroke="#63b8ff" points="1470.9,-181.71 1481.49,-181.37 1472.99,-175.04 1470.9,-181.71"/>
</a>
</g>
</g>
<!-- Node26&#45;&gt;Node29 -->
<g id="edge57_Node000026_Node000029" class="edge">
<title>Node26&#45;&gt;Node29</title>
<g id="a_edge57_Node000026_Node000029"><a xlink:title=" ">
<path fill="none" stroke="#63b8ff" d="M1575.5,-179.91C1658.06,-167.39 1797.42,-146.26 1874.86,-134.51"/>
<polygon fill="#63b8ff" stroke="#63b8ff" points="1574.84,-176.48 1565.47,-181.44 1575.89,-183.4 1574.84,-176.48"/>
</a>
</g>
</g>
<!-- Node30&#45;&gt;Node4 -->
<g id="edge65_Node000030_Node000004" class="edge">
<title>Node30&#45;&gt;Node4</title>
<g id="a_edge65_Node000030_Node000004"><a xlink:title=" ">
<path fill="none" stroke="#63b8ff" d="M1263.75,-178.16C1225.06,-165.53 1164.71,-145.82 1130.33,-134.6"/>
<polygon fill="#63b8ff" stroke="#63b8ff" points="1262.97,-181.59 1273.57,-181.37 1265.15,-174.94 1262.97,-181.59"/>
</a>
</g>
</g>
<!-- Node30&#45;&gt;Node5 -->
<g id="edge66_Node000030_Node000005" class="edge">
<title>Node30&#45;&gt;Node5</title>
<g id="a_edge66_Node000030_Node000005"><a xlink:title=" ">
<path fill="none" stroke="#63b8ff" d="M1278.85,-175.71C1264.4,-165.85 1244.89,-152.35 1228,-140 1210.35,-127.09 1209.25,-118.25 1189,-110 1129.87,-85.92 943.99,-72.76 857.76,-67.82"/>
<polygon fill="#63b8ff" stroke="#63b8ff" points="1276.88,-178.61 1287.12,-181.33 1280.82,-172.82 1276.88,-178.61"/>
</a>
</g>
</g>
<!-- Node30&#45;&gt;Node6 -->
<g id="edge68_Node000030_Node000006" class="edge">
<title>Node30&#45;&gt;Node6</title>
<g id="a_edge68_Node000030_Node000006"><a xlink:title=" ">
<path fill="none" stroke="#63b8ff" d="M1337.06,-177.5C1354.27,-169.62 1373.09,-157.55 1383,-140 1389.56,-128.39 1389.8,-121.47 1383,-110 1351.96,-57.65 1282.59,-31.06 1239.02,-19.03"/>
<polygon fill="#63b8ff" stroke="#63b8ff" points="1335.57,-174.33 1327.73,-181.46 1338.3,-180.78 1335.57,-174.33"/>
</a>
</g>
</g>
<!-- Node30&#45;&gt;Node28 -->
<g id="edge67_Node000030_Node000028" class="edge">
<title>Node30&#45;&gt;Node28</title>
<g id="a_edge67_Node000030_Node000028"><a xlink:title=" ">
<path fill="none" stroke="#63b8ff" d="M1301.48,-171.08C1302.41,-159.13 1303.58,-144.22 1304.3,-134.91"/>
<polygon fill="#63b8ff" stroke="#63b8ff" points="1297.96,-171.13 1300.67,-181.37 1304.94,-171.67 1297.96,-171.13"/>
</a>
</g>
</g>
</g>
</svg>
