<?xml version="1.0" encoding="UTF-8" standalone="no"?>
<!DOCTYPE svg PUBLIC "-//W3C//DTD SVG 1.1//EN"
 "http://www.w3.org/Graphics/SVG/1.1/DTD/svg11.dtd">
<!-- Generated by graphviz version 2.43.0 (0)
 -->
<!-- Title: include/Library/error.h Pages: 1 -->
<svg width="1896pt" height="742pt"
 viewBox="0.00 0.00 1896.00 742.00" xmlns="http://www.w3.org/2000/svg" xmlns:xlink="http://www.w3.org/1999/xlink">
<g id="graph0" class="graph" transform="scale(1 1) rotate(0) translate(4 738)">
<title>include/Library/error.h</title>
<!-- Node1 -->
<g id="Node000001" class="node">
<title>Node1</title>
<g id="a_Node000001"><a xlink:title=" ">
<polygon fill="#999999" stroke="#666666" points="1022.5,-734 899.5,-734 899.5,-715 1022.5,-715 1022.5,-734"/>
<text text-anchor="middle" x="961" y="-722" font-family="Helvetica,sans-Serif" font-size="10.00">include/Library/error.h</text>
</a>
</g>
</g>
<!-- Node2 -->
<g id="Node000002" class="node">
<title>Node2</title>
<g id="a_Node000002"><a xlink:href="driverModel_8h.html" target="_top" xlink:title=" ">
<polygon fill="white" stroke="#666666" points="771.5,-558 610.5,-558 610.5,-539 771.5,-539 771.5,-558"/>
<text text-anchor="middle" x="691" y="-546" font-family="Helvetica,sans-Serif" font-size="10.00">include/Drivers/driverModel.h</text>
</a>
</g>
</g>
<!-- Node1&#45;&gt;Node2 -->
<g id="edge1_Node000001_Node000002" class="edge">
<title>Node1&#45;&gt;Node2</title>
<g id="a_edge1_Node000001_Node000002"><a xlink:title=" ">
<path fill="none" stroke="#63b8ff" d="M932.43,-710.68C892.05,-691.95 816.76,-654.75 759,-613 735.17,-595.78 710.86,-570.95 698.79,-558.03"/>
<polygon fill="#63b8ff" stroke="#63b8ff" points="931.13,-713.93 941.68,-714.93 934.06,-707.57 931.13,-713.93"/>
</a>
</g>
</g>
<!-- Node5 -->
<g id="Node000005" class="node">
<title>Node5</title>
<g id="a_Node000005"><a xlink:href="mlvp_8h.html" target="_top" xlink:title=" ">
<polygon fill="white" stroke="#666666" points="776.5,-74 687.5,-74 687.5,-55 776.5,-55 776.5,-74"/>
<text text-anchor="middle" x="732" y="-62" font-family="Helvetica,sans-Serif" font-size="10.00">include/mlvp.h</text>
</a>
</g>
</g>
<!-- Node1&#45;&gt;Node5 -->
<g id="edge73_Node000001_Node000005" class="edge">
<title>Node1&#45;&gt;Node5</title>
<g id="a_edge73_Node000001_Node000005"><a xlink:title=" ">
<path fill="none" stroke="#63b8ff" d="M889.14,-722.14C666.01,-716.98 0,-694.07 0,-604.5 0,-604.5 0,-604.5 0,-190 0,-145.56 20.93,-131.18 60,-110 114.87,-80.26 545.61,-69.17 687.12,-66.31"/>
<polygon fill="#63b8ff" stroke="#63b8ff" points="889.35,-725.65 899.42,-722.37 889.5,-718.65 889.35,-725.65"/>
</a>
</g>
</g>
<!-- Node21 -->
<g id="Node000021" class="node">
<title>Node21</title>
<g id="a_Node000021"><a xlink:href="generatorHelper_8h.html" target="_top" xlink:title=" ">
<polygon fill="white" stroke="#666666" points="1639.5,-206 1516.5,-206 1516.5,-176 1639.5,-176 1639.5,-206"/>
<text text-anchor="start" x="1524.5" y="-194" font-family="Helvetica,sans-Serif" font-size="10.00">include/TestGenerator</text>
<text text-anchor="middle" x="1578" y="-183" font-family="Helvetica,sans-Serif" font-size="10.00">/generatorHelper.h</text>
</a>
</g>
</g>
<!-- Node1&#45;&gt;Node21 -->
<g id="edge39_Node000001_Node000021" class="edge">
<title>Node1&#45;&gt;Node21</title>
<g id="a_edge39_Node000001_Node000021"><a xlink:title=" ">
<path fill="none" stroke="#63b8ff" d="M1032.75,-718.2C1205.44,-704.48 1630,-664.65 1630,-604.5 1630,-604.5 1630,-604.5 1630,-305.5 1630,-266.7 1604.58,-226.67 1589.28,-206.1"/>
<polygon fill="#63b8ff" stroke="#63b8ff" points="1032.43,-714.71 1022.74,-718.99 1032.98,-721.69 1032.43,-714.71"/>
</a>
</g>
</g>
<!-- Node23 -->
<g id="Node000023" class="node">
<title>Node23</title>
<g id="a_Node000023"><a xlink:href="transaction_8h_source.html" target="_top" xlink:title=" ">
<polygon fill="white" stroke="#666666" points="1016,-679 906,-679 906,-649 1016,-649 1016,-679"/>
<text text-anchor="start" x="914" y="-667" font-family="Helvetica,sans-Serif" font-size="10.00">include/Transaction</text>
<text text-anchor="middle" x="961" y="-656" font-family="Helvetica,sans-Serif" font-size="10.00">/transaction.h</text>
</a>
</g>
</g>
<!-- Node1&#45;&gt;Node23 -->
<g id="edge42_Node000001_Node000023" class="edge">
<title>Node1&#45;&gt;Node23</title>
<g id="a_edge42_Node000001_Node000023"><a xlink:title=" ">
<path fill="none" stroke="#63b8ff" d="M961,-704.65C961,-696.36 961,-686.78 961,-679.11"/>
<polygon fill="#63b8ff" stroke="#63b8ff" points="957.5,-704.87 961,-714.87 964.5,-704.87 957.5,-704.87"/>
</a>
</g>
</g>
<!-- Node29 -->
<g id="Node000029" class="node">
<title>Node29</title>
<g id="a_Node000029"><a xlink:href="transaction_8cpp.html" target="_top" xlink:title=" ">
<polygon fill="white" stroke="#666666" points="1860.5,-134.5 1693.5,-134.5 1693.5,-115.5 1860.5,-115.5 1860.5,-134.5"/>
<text text-anchor="middle" x="1777" y="-122.5" font-family="Helvetica,sans-Serif" font-size="10.00">src/Transaction/transaction.cpp</text>
</a>
</g>
</g>
<!-- Node1&#45;&gt;Node29 -->
<g id="edge74_Node000001_Node000029" class="edge">
<title>Node1&#45;&gt;Node29</title>
<g id="a_edge74_Node000001_Node000029"><a xlink:title=" ">
<path fill="none" stroke="#63b8ff" d="M1032.88,-721.41C1244.41,-714.29 1850,-686.75 1850,-604.5 1850,-604.5 1850,-604.5 1850,-250.5 1850,-200.89 1806.33,-153.54 1786.54,-134.64"/>
<polygon fill="#63b8ff" stroke="#63b8ff" points="1032.69,-717.91 1022.81,-721.74 1032.92,-724.91 1032.69,-717.91"/>
</a>
</g>
</g>
<!-- Node3 -->
<g id="Node000003" class="node">
<title>Node3</title>
<g id="a_Node000003"><a xlink:href="driver_8h.html" target="_top" xlink:title=" ">
<polygon fill="white" stroke="#666666" points="335,-200.5 205,-200.5 205,-181.5 335,-181.5 335,-200.5"/>
<text text-anchor="middle" x="270" y="-188.5" font-family="Helvetica,sans-Serif" font-size="10.00">include/Drivers/driver.h</text>
</a>
</g>
</g>
<!-- Node2&#45;&gt;Node3 -->
<g id="edge2_Node000002_Node000003" class="edge">
<title>Node2&#45;&gt;Node3</title>
<g id="a_edge2_Node000002_Node000003"><a xlink:title=" ">
<path fill="none" stroke="#63b8ff" d="M600.11,-540.27C479.56,-530.35 280.32,-512.64 267,-503 186.91,-445.02 149.47,-390.02 183,-297 198.33,-254.46 239.22,-216.95 258.99,-200.64"/>
<polygon fill="#63b8ff" stroke="#63b8ff" points="599.84,-543.76 610.09,-541.09 600.41,-536.78 599.84,-543.76"/>
</a>
</g>
</g>
<!-- Node2&#45;&gt;Node5 -->
<g id="edge36_Node000002_Node000005" class="edge">
<title>Node2&#45;&gt;Node5</title>
<g id="a_edge36_Node000002_Node000005"><a xlink:title=" ">
<path fill="none" stroke="#63b8ff" d="M715.74,-533.37C727.26,-525.69 740.32,-515.26 749,-503 763.87,-482.01 762.95,-473.4 767,-448 790.68,-299.5 745.49,-115.83 734.38,-74.17"/>
<polygon fill="#63b8ff" stroke="#63b8ff" points="713.53,-530.63 706.94,-538.92 717.26,-536.55 713.53,-530.63"/>
</a>
</g>
</g>
<!-- Node6 -->
<g id="Node000006" class="node">
<title>Node6</title>
<g id="a_Node000006"><a xlink:href="main_8cpp.html" target="_top" xlink:title=" ">
<polygon fill="white" stroke="#666666" points="1131.5,-19 1052.5,-19 1052.5,0 1131.5,0 1131.5,-19"/>
<text text-anchor="middle" x="1092" y="-7" font-family="Helvetica,sans-Serif" font-size="10.00">src/main.cpp</text>
</a>
</g>
</g>
<!-- Node2&#45;&gt;Node6 -->
<g id="edge38_Node000002_Node000006" class="edge">
<title>Node2&#45;&gt;Node6</title>
<g id="a_edge38_Node000002_Node000006"><a xlink:title=" ">
<path fill="none" stroke="#63b8ff" d="M715.69,-534.02C731.17,-525.43 751.44,-513.89 769,-503 966.07,-380.77 1023.36,-358.58 1198,-206 1213.98,-192.04 1258.66,-159.51 1267,-140 1294.99,-74.48 1186.88,-35.24 1127.92,-19.1"/>
<polygon fill="#63b8ff" stroke="#63b8ff" points="713.8,-531.07 706.74,-538.97 717.18,-537.2 713.8,-531.07"/>
</a>
</g>
</g>
<!-- Node9 -->
<g id="Node000009" class="node">
<title>Node9</title>
<g id="a_Node000009"><a xlink:href="dutDriver_8h.html" target="_top" xlink:title=" ">
<polygon fill="white" stroke="#666666" points="339.5,-316 192.5,-316 192.5,-297 339.5,-297 339.5,-316"/>
<text text-anchor="middle" x="266" y="-304" font-family="Helvetica,sans-Serif" font-size="10.00">include/Drivers/dutDriver.h</text>
</a>
</g>
</g>
<!-- Node2&#45;&gt;Node9 -->
<g id="edge9_Node000002_Node000009" class="edge">
<title>Node2&#45;&gt;Node9</title>
<g id="a_edge9_Node000002_Node000009"><a xlink:title=" ">
<path fill="none" stroke="#63b8ff" d="M600.28,-540.45C484,-530.99 295.97,-514.11 285,-503 233,-450.35 255.5,-346.49 263.57,-316.06"/>
<polygon fill="#63b8ff" stroke="#63b8ff" points="600.01,-543.94 610.26,-541.26 600.57,-536.96 600.01,-543.94"/>
</a>
</g>
</g>
<!-- Node10 -->
<g id="Node000010" class="node">
<title>Node10</title>
<g id="a_Node000010"><a xlink:href="refDriver_8h.html" target="_top" xlink:title=" ">
<polygon fill="white" stroke="#666666" points="706.5,-261 561.5,-261 561.5,-242 706.5,-242 706.5,-261"/>
<text text-anchor="middle" x="634" y="-249" font-family="Helvetica,sans-Serif" font-size="10.00">include/Drivers/refDriver.h</text>
</a>
</g>
</g>
<!-- Node2&#45;&gt;Node10 -->
<g id="edge17_Node000002_Node000010" class="edge">
<title>Node2&#45;&gt;Node10</title>
<g id="a_edge17_Node000002_Node000010"><a xlink:title=" ">
<path fill="none" stroke="#63b8ff" d="M707.06,-531.29C728.74,-507.37 763.33,-460.81 751,-418 730.94,-348.34 667.4,-283.63 643.35,-261"/>
<polygon fill="#63b8ff" stroke="#63b8ff" points="704.33,-529.08 700.03,-538.76 709.43,-533.88 704.33,-529.08"/>
</a>
</g>
</g>
<!-- Node13 -->
<g id="Node000013" class="node">
<title>Node13</title>
<g id="a_Node000013"><a xlink:href="simulatorDriver_8h.html" target="_top" xlink:title=" ">
<polygon fill="white" stroke="#666666" points="742,-448 602,-448 602,-418 742,-418 742,-448"/>
<text text-anchor="start" x="610" y="-436" font-family="Helvetica,sans-Serif" font-size="10.00">include/Drivers/simulator</text>
<text text-anchor="middle" x="672" y="-425" font-family="Helvetica,sans-Serif" font-size="10.00">Driver.h</text>
</a>
</g>
</g>
<!-- Node2&#45;&gt;Node13 -->
<g id="edge18_Node000002_Node000013" class="edge">
<title>Node2&#45;&gt;Node13</title>
<g id="a_edge18_Node000002_Node000013"><a xlink:title=" ">
<path fill="none" stroke="#63b8ff" d="M687.9,-528.96C684.11,-506.34 677.79,-468.61 674.37,-448.18"/>
<polygon fill="#63b8ff" stroke="#63b8ff" points="684.47,-529.68 689.57,-538.97 691.37,-528.53 684.47,-529.68"/>
</a>
</g>
</g>
<!-- Node14 -->
<g id="Node000014" class="node">
<title>Node14</title>
<g id="a_Node000014"><a xlink:href="transDriverModel_8h.html" target="_top" xlink:title=" ">
<polygon fill="white" stroke="#666666" points="480,-382 332,-382 332,-352 480,-352 480,-382"/>
<text text-anchor="start" x="340" y="-370" font-family="Helvetica,sans-Serif" font-size="10.00">include/Drivers/transDriver</text>
<text text-anchor="middle" x="406" y="-359" font-family="Helvetica,sans-Serif" font-size="10.00">Model.h</text>
</a>
</g>
</g>
<!-- Node2&#45;&gt;Node14 -->
<g id="edge30_Node000002_Node000014" class="edge">
<title>Node2&#45;&gt;Node14</title>
<g id="a_edge30_Node000002_Node000014"><a xlink:title=" ">
<path fill="none" stroke="#63b8ff" d="M625.08,-537.09C585.98,-529.83 535.84,-518.63 493,-503 489.88,-501.86 388.72,-450.83 387,-448 374.47,-427.38 386.76,-399.12 396.57,-382.3"/>
<polygon fill="#63b8ff" stroke="#63b8ff" points="624.82,-540.6 635.28,-538.94 626.07,-533.71 624.82,-540.6"/>
</a>
</g>
</g>
<!-- Node17 -->
<g id="Node000017" class="node">
<title>Node17</title>
<g id="a_Node000017"><a xlink:href="ref_8h.html" target="_top" xlink:title=" ">
<polygon fill="white" stroke="#666666" points="951.5,-503 832.5,-503 832.5,-484 951.5,-484 951.5,-503"/>
<text text-anchor="middle" x="892" y="-491" font-family="Helvetica,sans-Serif" font-size="10.00">include/RefPack/ref.h</text>
</a>
</g>
</g>
<!-- Node2&#45;&gt;Node17 -->
<g id="edge31_Node000002_Node000017" class="edge">
<title>Node2&#45;&gt;Node17</title>
<g id="a_edge31_Node000002_Node000017"><a xlink:title=" ">
<path fill="none" stroke="#63b8ff" d="M733.43,-536.31C771.04,-526.39 825.17,-512.12 859.45,-503.08"/>
<polygon fill="#63b8ff" stroke="#63b8ff" points="732.07,-533.05 723.29,-538.98 733.86,-539.82 732.07,-533.05"/>
</a>
</g>
</g>
<!-- Node18 -->
<g id="Node000018" class="node">
<title>Node18</title>
<g id="a_Node000018"><a xlink:href="simulator_8h.html" target="_top" xlink:title=" ">
<polygon fill="white" stroke="#666666" points="662,-503 502,-503 502,-484 662,-484 662,-503"/>
<text text-anchor="middle" x="582" y="-491" font-family="Helvetica,sans-Serif" font-size="10.00">include/Simulator/simulator.h</text>
</a>
</g>
</g>
<!-- Node2&#45;&gt;Node18 -->
<g id="edge33_Node000002_Node000018" class="edge">
<title>Node2&#45;&gt;Node18</title>
<g id="a_edge33_Node000002_Node000018"><a xlink:title=" ">
<path fill="none" stroke="#63b8ff" d="M664.27,-534.5C644.21,-524.75 617.32,-511.68 599.83,-503.17"/>
<polygon fill="#63b8ff" stroke="#63b8ff" points="662.96,-537.76 673.49,-538.98 666.02,-531.46 662.96,-537.76"/>
</a>
</g>
</g>
<!-- Node20 -->
<g id="Node000020" class="node">
<title>Node20</title>
<g id="a_Node000020"><a xlink:href="driverModel_8cpp.html" target="_top" xlink:title=" ">
<polygon fill="white" stroke="#666666" points="445.5,-503 294.5,-503 294.5,-484 445.5,-484 445.5,-503"/>
<text text-anchor="middle" x="370" y="-491" font-family="Helvetica,sans-Serif" font-size="10.00">src/Drivers/driverModel.cpp</text>
</a>
</g>
</g>
<!-- Node2&#45;&gt;Node20 -->
<g id="edge37_Node000002_Node000020" class="edge">
<title>Node2&#45;&gt;Node20</title>
<g id="a_edge37_Node000002_Node000020"><a xlink:title=" ">
<path fill="none" stroke="#63b8ff" d="M629.28,-537.31C569,-527.36 478.31,-512.38 421.71,-503.04"/>
<polygon fill="#63b8ff" stroke="#63b8ff" points="628.99,-540.81 639.43,-538.98 630.13,-533.9 628.99,-540.81"/>
</a>
</g>
</g>
<!-- Node4 -->
<g id="Node000004" class="node">
<title>Node4</title>
<g id="a_Node000004"><a xlink:href="spreader_8h.html" target="_top" xlink:title=" ">
<polygon fill="white" stroke="#666666" points="1026,-134.5 874,-134.5 874,-115.5 1026,-115.5 1026,-134.5"/>
<text text-anchor="middle" x="950" y="-122.5" font-family="Helvetica,sans-Serif" font-size="10.00">include/Spreader/spreader.h</text>
</a>
</g>
</g>
<!-- Node3&#45;&gt;Node4 -->
<g id="edge3_Node000003_Node000004" class="edge">
<title>Node3&#45;&gt;Node4</title>
<g id="a_edge3_Node000003_Node000004"><a xlink:title=" ">
<path fill="none" stroke="#63b8ff" d="M345.51,-182.89C476.15,-170.6 742.91,-145.49 873.93,-133.16"/>
<polygon fill="#63b8ff" stroke="#63b8ff" points="344.83,-179.44 335.2,-183.86 345.49,-186.41 344.83,-179.44"/>
</a>
</g>
</g>
<!-- Node3&#45;&gt;Node5 -->
<g id="edge7_Node000003_Node000005" class="edge">
<title>Node3&#45;&gt;Node5</title>
<g id="a_edge7_Node000003_Node000005"><a xlink:title=" ">
<path fill="none" stroke="#63b8ff" d="M289.58,-175.31C315.3,-156.82 362.55,-125.62 408,-110 503.85,-77.07 623.56,-68.43 687.25,-66.21"/>
<polygon fill="#63b8ff" stroke="#63b8ff" points="287.43,-172.54 281.42,-181.27 291.56,-178.2 287.43,-172.54"/>
</a>
</g>
</g>
<!-- Node8 -->
<g id="Node000008" class="node">
<title>Node8</title>
<g id="a_Node000008"><a xlink:href="driver_8cpp.html" target="_top" xlink:title=" ">
<polygon fill="white" stroke="#666666" points="330,-134.5 210,-134.5 210,-115.5 330,-115.5 330,-134.5"/>
<text text-anchor="middle" x="270" y="-122.5" font-family="Helvetica,sans-Serif" font-size="10.00">src/Drivers/driver.cpp</text>
</a>
</g>
</g>
<!-- Node3&#45;&gt;Node8 -->
<g id="edge8_Node000003_Node000008" class="edge">
<title>Node3&#45;&gt;Node8</title>
<g id="a_edge8_Node000003_Node000008"><a xlink:title=" ">
<path fill="none" stroke="#63b8ff" d="M270,-171.08C270,-159.13 270,-144.22 270,-134.91"/>
<polygon fill="#63b8ff" stroke="#63b8ff" points="266.5,-171.37 270,-181.37 273.5,-171.37 266.5,-171.37"/>
</a>
</g>
</g>
<!-- Node4&#45;&gt;Node5 -->
<g id="edge4_Node000004_Node000005" class="edge">
<title>Node4&#45;&gt;Node5</title>
<g id="a_edge4_Node000004_Node000005"><a xlink:title=" ">
<path fill="none" stroke="#63b8ff" d="M908.62,-112.9C866.47,-101.58 802.02,-84.29 763.74,-74.02"/>
<polygon fill="#63b8ff" stroke="#63b8ff" points="907.74,-116.28 918.3,-115.49 909.55,-109.52 907.74,-116.28"/>
</a>
</g>
</g>
<!-- Node7 -->
<g id="Node000007" class="node">
<title>Node7</title>
<g id="a_Node000007"><a xlink:href="spreader_8cpp.html" target="_top" xlink:title=" ">
<polygon fill="white" stroke="#666666" points="1021.5,-74 878.5,-74 878.5,-55 1021.5,-55 1021.5,-74"/>
<text text-anchor="middle" x="950" y="-62" font-family="Helvetica,sans-Serif" font-size="10.00">src/Spreader/spreader.cpp</text>
</a>
</g>
</g>
<!-- Node4&#45;&gt;Node7 -->
<g id="edge6_Node000004_Node000007" class="edge">
<title>Node4&#45;&gt;Node7</title>
<g id="a_edge6_Node000004_Node000007"><a xlink:title=" ">
<path fill="none" stroke="#63b8ff" d="M950,-105.16C950,-94.74 950,-82.3 950,-74.17"/>
<polygon fill="#63b8ff" stroke="#63b8ff" points="946.5,-105.37 950,-115.37 953.5,-105.37 946.5,-105.37"/>
</a>
</g>
</g>
<!-- Node5&#45;&gt;Node6 -->
<g id="edge5_Node000005_Node000006" class="edge">
<title>Node5&#45;&gt;Node6</title>
<g id="a_edge5_Node000005_Node000006"><a xlink:title=" ">
<path fill="none" stroke="#63b8ff" d="M786.44,-55.49C859.52,-44.73 987.64,-25.86 1052.29,-16.35"/>
<polygon fill="#63b8ff" stroke="#63b8ff" points="785.89,-52.03 776.5,-56.95 786.91,-58.95 785.89,-52.03"/>
</a>
</g>
</g>
<!-- Node9&#45;&gt;Node3 -->
<g id="edge10_Node000009_Node000003" class="edge">
<title>Node9&#45;&gt;Node3</title>
<g id="a_edge10_Node000009_Node000003"><a xlink:title=" ">
<path fill="none" stroke="#63b8ff" d="M255.77,-288.02C249.6,-275.37 243.54,-257.79 247,-242 250.35,-226.69 258.85,-210.48 264.52,-200.8"/>
<polygon fill="#63b8ff" stroke="#63b8ff" points="252.76,-289.81 260.56,-296.98 258.93,-286.51 252.76,-289.81"/>
</a>
</g>
</g>
<!-- Node9&#45;&gt;Node5 -->
<g id="edge15_Node000009_Node000005" class="edge">
<title>Node9&#45;&gt;Node5</title>
<g id="a_edge15_Node000009_Node000005"><a xlink:title=" ">
<path fill="none" stroke="#63b8ff" d="M250.78,-288.8C218.61,-251.51 150.63,-160.78 201,-110 234.96,-75.77 565.83,-67.78 687.45,-65.99"/>
<polygon fill="#63b8ff" stroke="#63b8ff" points="248.51,-291.51 257.75,-296.69 253.75,-286.88 248.51,-291.51"/>
</a>
</g>
</g>
<!-- Node9&#45;&gt;Node10 -->
<g id="edge11_Node000009_Node000010" class="edge">
<title>Node9&#45;&gt;Node10</title>
<g id="a_edge11_Node000009_Node000010"><a xlink:title=" ">
<path fill="none" stroke="#63b8ff" d="M335.05,-295.56C404.14,-285.61 509.3,-270.46 574.72,-261.04"/>
<polygon fill="#63b8ff" stroke="#63b8ff" points="334.52,-292.09 325.13,-296.98 335.52,-299.02 334.52,-292.09"/>
</a>
</g>
</g>
<!-- Node12 -->
<g id="Node000012" class="node">
<title>Node12</title>
<g id="a_Node000012"><a xlink:href="dutDriver_8cpp.html" target="_top" xlink:title=" ">
<polygon fill="white" stroke="#666666" points="393.5,-261 256.5,-261 256.5,-242 393.5,-242 393.5,-261"/>
<text text-anchor="middle" x="325" y="-249" font-family="Helvetica,sans-Serif" font-size="10.00">src/Drivers/dutDriver.cpp</text>
</a>
</g>
</g>
<!-- Node9&#45;&gt;Node12 -->
<g id="edge16_Node000009_Node000012" class="edge">
<title>Node9&#45;&gt;Node12</title>
<g id="a_edge16_Node000009_Node000012"><a xlink:title=" ">
<path fill="none" stroke="#63b8ff" d="M283.2,-290.04C293.67,-280.64 306.65,-268.98 315.35,-261.17"/>
<polygon fill="#63b8ff" stroke="#63b8ff" points="280.58,-287.7 275.48,-296.98 285.26,-292.91 280.58,-287.7"/>
</a>
</g>
</g>
<!-- Node10&#45;&gt;Node3 -->
<g id="edge12_Node000010_Node000003" class="edge">
<title>Node10&#45;&gt;Node3</title>
<g id="a_edge12_Node000010_Node000003"><a xlink:title=" ">
<path fill="none" stroke="#63b8ff" d="M571.04,-240.38C500.92,-229.11 388.8,-211.09 322.99,-200.52"/>
<polygon fill="#63b8ff" stroke="#63b8ff" points="570.64,-243.86 581.07,-241.99 571.75,-236.95 570.64,-243.86"/>
</a>
</g>
</g>
<!-- Node10&#45;&gt;Node5 -->
<g id="edge13_Node000010_Node000005" class="edge">
<title>Node10&#45;&gt;Node5</title>
<g id="a_edge13_Node000010_Node000005"><a xlink:title=" ">
<path fill="none" stroke="#63b8ff" d="M650.84,-234.49C658.61,-226.46 667.52,-216.29 674,-206 688.97,-182.22 719.18,-100.75 728.91,-74.05"/>
<polygon fill="#63b8ff" stroke="#63b8ff" points="648.21,-232.18 643.59,-241.71 653.15,-237.13 648.21,-232.18"/>
</a>
</g>
</g>
<!-- Node11 -->
<g id="Node000011" class="node">
<title>Node11</title>
<g id="a_Node000011"><a xlink:href="refDriver_8cpp.html" target="_top" xlink:title=" ">
<polygon fill="white" stroke="#666666" points="665.5,-200.5 530.5,-200.5 530.5,-181.5 665.5,-181.5 665.5,-200.5"/>
<text text-anchor="middle" x="598" y="-188.5" font-family="Helvetica,sans-Serif" font-size="10.00">src/Drivers/refDriver.cpp</text>
</a>
</g>
</g>
<!-- Node10&#45;&gt;Node11 -->
<g id="edge14_Node000010_Node000011" class="edge">
<title>Node10&#45;&gt;Node11</title>
<g id="a_edge14_Node000010_Node000011"><a xlink:title=" ">
<path fill="none" stroke="#63b8ff" d="M623.42,-233.3C616.82,-222.58 608.61,-209.23 603.33,-200.67"/>
<polygon fill="#63b8ff" stroke="#63b8ff" points="620.47,-235.19 628.69,-241.87 626.43,-231.52 620.47,-235.19"/>
</a>
</g>
</g>
<!-- Node13&#45;&gt;Node4 -->
<g id="edge26_Node000013_Node000004" class="edge">
<title>Node13&#45;&gt;Node4</title>
<g id="a_edge26_Node000013_Node000004"><a xlink:title=" ">
<path fill="none" stroke="#63b8ff" d="M752.43,-427.51C789.23,-421.58 830.99,-408.83 860,-382 936.79,-310.99 948.08,-170.62 949.72,-134.59"/>
<polygon fill="#63b8ff" stroke="#63b8ff" points="751.58,-424.1 742.2,-429.01 752.6,-431.03 751.58,-424.1"/>
</a>
</g>
</g>
<!-- Node13&#45;&gt;Node5 -->
<g id="edge27_Node000013_Node000005" class="edge">
<title>Node13&#45;&gt;Node5</title>
<g id="a_edge27_Node000013_Node000005"><a xlink:title=" ">
<path fill="none" stroke="#63b8ff" d="M681.29,-408.34C684.33,-400.09 687.55,-390.71 690,-382 704.89,-329.14 707.05,-315.34 715,-261 725.5,-189.2 730.3,-101.54 731.61,-74.12"/>
<polygon fill="#63b8ff" stroke="#63b8ff" points="678.01,-407.14 677.75,-417.73 684.55,-409.62 678.01,-407.14"/>
</a>
</g>
</g>
<!-- Node13&#45;&gt;Node6 -->
<g id="edge29_Node000013_Node000006" class="edge">
<title>Node13&#45;&gt;Node6</title>
<g id="a_edge29_Node000013_Node000006"><a xlink:title=" ">
<path fill="none" stroke="#63b8ff" d="M735.86,-414.63C785.51,-396.8 846,-363.57 846,-307.5 846,-307.5 846,-307.5 846,-124 846,-91.67 844.76,-76.39 869,-55 895.72,-31.43 995.62,-18.97 1052.22,-13.68"/>
<polygon fill="#63b8ff" stroke="#63b8ff" points="734.42,-411.43 726.1,-418 736.7,-418.05 734.42,-411.43"/>
</a>
</g>
</g>
<!-- Node13&#45;&gt;Node9 -->
<g id="edge19_Node000013_Node000009" class="edge">
<title>Node13&#45;&gt;Node9</title>
<g id="a_edge19_Node000013_Node000009"><a xlink:title=" ">
<path fill="none" stroke="#63b8ff" d="M591.92,-422.08C492.5,-409.53 334.52,-388.75 323,-382 296.02,-366.19 277.45,-332.19 269.85,-316.18"/>
<polygon fill="#63b8ff" stroke="#63b8ff" points="591.59,-425.56 601.95,-423.34 592.46,-418.62 591.59,-425.56"/>
</a>
</g>
</g>
<!-- Node13&#45;&gt;Node10 -->
<g id="edge20_Node000013_Node000010" class="edge">
<title>Node13&#45;&gt;Node10</title>
<g id="a_edge20_Node000013_Node000010"><a xlink:title=" ">
<path fill="none" stroke="#63b8ff" d="M673.76,-407.59C674.27,-399.45 674.75,-390.34 675,-382 675.4,-368.67 677.59,-365.08 675,-352 668,-316.63 648.25,-278.04 638.95,-261.19"/>
<polygon fill="#63b8ff" stroke="#63b8ff" points="670.27,-407.36 673.1,-417.57 677.25,-407.82 670.27,-407.36"/>
</a>
</g>
</g>
<!-- Node13&#45;&gt;Node14 -->
<g id="edge21_Node000013_Node000014" class="edge">
<title>Node13&#45;&gt;Node14</title>
<g id="a_edge21_Node000013_Node000014"><a xlink:title=" ">
<path fill="none" stroke="#63b8ff" d="M603.77,-415.58C560.58,-405.19 505.35,-391.9 464.24,-382.01"/>
<polygon fill="#63b8ff" stroke="#63b8ff" points="603.08,-419.02 613.63,-417.95 604.72,-412.21 603.08,-419.02"/>
</a>
</g>
</g>
<!-- Node16 -->
<g id="Node000016" class="node">
<title>Node16</title>
<g id="a_Node000016"><a xlink:href="simulatorDriver_8cpp.html" target="_top" xlink:title=" ">
<polygon fill="white" stroke="#666666" points="666,-376.5 498,-376.5 498,-357.5 666,-357.5 666,-376.5"/>
<text text-anchor="middle" x="582" y="-364.5" font-family="Helvetica,sans-Serif" font-size="10.00">src/Drivers/simulatorDriver.cpp</text>
</a>
</g>
</g>
<!-- Node13&#45;&gt;Node16 -->
<g id="edge28_Node000013_Node000016" class="edge">
<title>Node13&#45;&gt;Node16</title>
<g id="a_edge28_Node000013_Node000016"><a xlink:title=" ">
<path fill="none" stroke="#63b8ff" d="M643.7,-411.87C627.04,-400.03 606.82,-385.65 594.18,-376.66"/>
<polygon fill="#63b8ff" stroke="#63b8ff" points="641.85,-414.85 652.03,-417.8 645.9,-409.15 641.85,-414.85"/>
</a>
</g>
</g>
<!-- Node14&#45;&gt;Node5 -->
<g id="edge24_Node000014_Node000005" class="edge">
<title>Node14&#45;&gt;Node5</title>
<g id="a_edge24_Node000014_Node000005"><a xlink:title=" ">
<path fill="none" stroke="#63b8ff" d="M400.64,-341.86C398.74,-328.21 398.29,-311.11 404,-297 432.05,-227.65 461.1,-220.81 521,-176 584.24,-128.69 670.57,-90.46 710.33,-74.1"/>
<polygon fill="#63b8ff" stroke="#63b8ff" points="397.23,-342.68 402.39,-351.94 404.13,-341.49 397.23,-342.68"/>
</a>
</g>
</g>
<!-- Node14&#45;&gt;Node9 -->
<g id="edge22_Node000014_Node000009" class="edge">
<title>Node14&#45;&gt;Node9</title>
<g id="a_edge22_Node000014_Node000009"><a xlink:title=" ">
<path fill="none" stroke="#63b8ff" d="M363.05,-348.05C337.68,-337.45 306.7,-324.51 286.68,-316.14"/>
<polygon fill="#63b8ff" stroke="#63b8ff" points="361.89,-351.36 372.47,-351.99 364.59,-344.9 361.89,-351.36"/>
</a>
</g>
</g>
<!-- Node14&#45;&gt;Node10 -->
<g id="edge23_Node000014_Node000010" class="edge">
<title>Node14&#45;&gt;Node10</title>
<g id="a_edge23_Node000014_Node000010"><a xlink:title=" ">
<path fill="none" stroke="#63b8ff" d="M490.03,-351.05C533.73,-341.96 581.59,-329.52 599,-316 617.29,-301.79 627.37,-275.2 631.59,-261.37"/>
<polygon fill="#63b8ff" stroke="#63b8ff" points="489.3,-347.63 480.2,-353.06 490.7,-354.49 489.3,-347.63"/>
</a>
</g>
</g>
<!-- Node15 -->
<g id="Node000015" class="node">
<title>Node15</title>
<g id="a_Node000015"><a xlink:href="transDriverModel_8cpp.html" target="_top" xlink:title=" ">
<polygon fill="white" stroke="#666666" points="590.5,-316 413.5,-316 413.5,-297 590.5,-297 590.5,-316"/>
<text text-anchor="middle" x="502" y="-304" font-family="Helvetica,sans-Serif" font-size="10.00">src/Drivers/transDriverModel.cpp</text>
</a>
</g>
</g>
<!-- Node14&#45;&gt;Node15 -->
<g id="edge25_Node000014_Node000015" class="edge">
<title>Node14&#45;&gt;Node15</title>
<g id="a_edge25_Node000014_Node000015"><a xlink:title=" ">
<path fill="none" stroke="#63b8ff" d="M437.78,-346.64C454.74,-336.3 474.77,-324.09 487.9,-316.09"/>
<polygon fill="#63b8ff" stroke="#63b8ff" points="435.96,-343.65 429.24,-351.84 439.6,-349.62 435.96,-343.65"/>
</a>
</g>
</g>
<!-- Node17&#45;&gt;Node5 -->
<g id="edge32_Node000017_Node000005" class="edge">
<title>Node17&#45;&gt;Node5</title>
<g id="a_edge32_Node000017_Node000005"><a xlink:title=" ">
<path fill="none" stroke="#63b8ff" d="M891.15,-473.69C887.6,-414.52 869.86,-229.13 784,-110 773.44,-95.35 757.09,-82.41 745.54,-74.31"/>
<polygon fill="#63b8ff" stroke="#63b8ff" points="887.66,-473.98 891.68,-483.78 894.65,-473.61 887.66,-473.98"/>
</a>
</g>
</g>
<!-- Node18&#45;&gt;Node13 -->
<g id="edge34_Node000018_Node000013" class="edge">
<title>Node18&#45;&gt;Node13</title>
<g id="a_edge34_Node000018_Node000013"><a xlink:title=" ">
<path fill="none" stroke="#63b8ff" d="M603.86,-478.29C617.95,-469.13 636.22,-457.26 650.29,-448.11"/>
<polygon fill="#63b8ff" stroke="#63b8ff" points="601.76,-475.48 595.28,-483.87 605.57,-481.35 601.76,-475.48"/>
</a>
</g>
</g>
<!-- Node19 -->
<g id="Node000019" class="node">
<title>Node19</title>
<g id="a_Node000019"><a xlink:href="simulator_8cpp.html" target="_top" xlink:title=" ">
<polygon fill="white" stroke="#666666" points="546,-442.5 396,-442.5 396,-423.5 546,-423.5 546,-442.5"/>
<text text-anchor="middle" x="471" y="-430.5" font-family="Helvetica,sans-Serif" font-size="10.00">src/Simulator/simulator.cpp</text>
</a>
</g>
</g>
<!-- Node18&#45;&gt;Node19 -->
<g id="edge35_Node000018_Node000019" class="edge">
<title>Node18&#45;&gt;Node19</title>
<g id="a_edge35_Node000018_Node000019"><a xlink:title=" ">
<path fill="none" stroke="#63b8ff" d="M556.53,-479.08C535.29,-467.88 505.67,-452.27 487.45,-442.67"/>
<polygon fill="#63b8ff" stroke="#63b8ff" points="555.14,-482.3 565.62,-483.87 558.41,-476.11 555.14,-482.3"/>
</a>
</g>
</g>
<!-- Node21&#45;&gt;Node5 -->
<g id="edge40_Node000021_Node000005" class="edge">
<title>Node21&#45;&gt;Node5</title>
<g id="a_edge40_Node000021_Node000005"><a xlink:title=" ">
<path fill="none" stroke="#63b8ff" d="M1613.45,-170.46C1639.03,-153.96 1666,-129.9 1647,-110 1617.12,-78.71 912.21,-76.34 869,-74 838.18,-72.33 803.49,-70.18 776.72,-68.45"/>
<polygon fill="#63b8ff" stroke="#63b8ff" points="1611.55,-167.51 1604.89,-175.75 1615.24,-173.47 1611.55,-167.51"/>
</a>
</g>
</g>
<!-- Node22 -->
<g id="Node000022" class="node">
<title>Node22</title>
<g id="a_Node000022"><a xlink:href="generatorHelper_8cpp.html" target="_top" xlink:title=" ">
<polygon fill="white" stroke="#666666" points="1637.5,-140 1518.5,-140 1518.5,-110 1637.5,-110 1637.5,-140"/>
<text text-anchor="start" x="1526.5" y="-128" font-family="Helvetica,sans-Serif" font-size="10.00">src/TestGenerator/src</text>
<text text-anchor="middle" x="1578" y="-117" font-family="Helvetica,sans-Serif" font-size="10.00">/generatorHelper.cpp</text>
</a>
</g>
</g>
<!-- Node21&#45;&gt;Node22 -->
<g id="edge41_Node000021_Node000022" class="edge">
<title>Node21&#45;&gt;Node22</title>
<g id="a_edge41_Node000021_Node000022"><a xlink:title=" ">
<path fill="none" stroke="#63b8ff" d="M1578,-165.54C1578,-156.96 1578,-147.61 1578,-140.16"/>
<polygon fill="#63b8ff" stroke="#63b8ff" points="1574.5,-165.8 1578,-175.8 1581.5,-165.8 1574.5,-165.8"/>
</a>
</g>
</g>
<!-- Node23&#45;&gt;Node2 -->
<g id="edge58_Node000023_Node000002" class="edge">
<title>Node23&#45;&gt;Node2</title>
<g id="a_edge58_Node000023_Node000002"><a xlink:title=" ">
<path fill="none" stroke="#63b8ff" d="M895.97,-646.44C866.15,-637.93 830.69,-626.5 800,-613 763.31,-596.87 723.38,-571.35 703.59,-558.11"/>
<polygon fill="#63b8ff" stroke="#63b8ff" points="895.27,-649.88 905.85,-649.21 897.17,-643.14 895.27,-649.88"/>
</a>
</g>
</g>
<!-- Node23&#45;&gt;Node3 -->
<g id="edge57_Node000023_Node000003" class="edge">
<title>Node23&#45;&gt;Node3</title>
<g id="a_edge57_Node000023_Node000003"><a xlink:title=" ">
<path fill="none" stroke="#63b8ff" d="M895.68,-661.48C691.05,-655.88 76,-632.15 76,-549.5 76,-549.5 76,-549.5 76,-305.5 76,-241.31 156.1,-212.75 213.37,-200.53"/>
<polygon fill="#63b8ff" stroke="#63b8ff" points="895.88,-664.99 905.97,-661.76 896.07,-657.99 895.88,-664.99"/>
</a>
</g>
</g>
<!-- Node23&#45;&gt;Node4 -->
<g id="edge69_Node000023_Node000004" class="edge">
<title>Node23&#45;&gt;Node4</title>
<g id="a_edge69_Node000023_Node000004"><a xlink:title=" ">
<path fill="none" stroke="#63b8ff" d="M981.24,-641.21C987.89,-632.94 994.67,-623.07 999,-613 1008.78,-590.24 1005.99,-582.69 1008,-558 1021.92,-386.79 965.55,-179.54 952.6,-134.78"/>
<polygon fill="#63b8ff" stroke="#63b8ff" points="978.52,-639.01 974.73,-648.9 983.86,-643.53 978.52,-639.01"/>
</a>
</g>
</g>
<!-- Node23&#45;&gt;Node5 -->
<g id="edge70_Node000023_Node000005" class="edge">
<title>Node23&#45;&gt;Node5</title>
<g id="a_edge70_Node000023_Node000005"><a xlink:title=" ">
<path fill="none" stroke="#63b8ff" d="M895.59,-662.83C728.13,-661.77 287.34,-654.96 148,-613 93.95,-596.72 38,-605.95 38,-549.5 38,-549.5 38,-549.5 38,-190 38,-135.81 79.98,-130.84 130,-110 230.73,-68.03 565.95,-64.9 687.49,-65.19"/>
<polygon fill="#63b8ff" stroke="#63b8ff" points="895.72,-666.33 905.74,-662.89 895.76,-659.33 895.72,-666.33"/>
</a>
</g>
</g>
<!-- Node23&#45;&gt;Node6 -->
<g id="edge72_Node000023_Node000006" class="edge">
<title>Node23&#45;&gt;Node6</title>
<g id="a_edge72_Node000023_Node000006"><a xlink:title=" ">
<path fill="none" stroke="#63b8ff" d="M1026.22,-658.06C1237.27,-641.23 1888,-582.21 1888,-494.5 1888,-494.5 1888,-494.5 1888,-124 1888,-46.74 1292.76,-18.23 1131.75,-11.93"/>
<polygon fill="#63b8ff" stroke="#63b8ff" points="1025.9,-654.58 1016.21,-658.86 1026.46,-661.56 1025.9,-654.58"/>
</a>
</g>
</g>
<!-- Node23&#45;&gt;Node9 -->
<g id="edge59_Node000023_Node000009" class="edge">
<title>Node23&#45;&gt;Node9</title>
<g id="a_edge59_Node000023_Node000009"><a xlink:title=" ">
<path fill="none" stroke="#63b8ff" d="M895.86,-659.51C806.07,-653.89 639.55,-640.55 500,-613 413.75,-595.97 386.82,-600.74 310,-558 257.63,-528.86 240.95,-507.26 232,-448 225.61,-405.67 226.34,-392.58 240,-352 244.51,-338.6 253.36,-324.79 259.47,-316.18"/>
<polygon fill="#63b8ff" stroke="#63b8ff" points="895.7,-663.01 905.89,-660.12 896.12,-656.02 895.7,-663.01"/>
</a>
</g>
</g>
<!-- Node23&#45;&gt;Node10 -->
<g id="edge60_Node000023_Node000010" class="edge">
<title>Node23&#45;&gt;Node10</title>
<g id="a_edge60_Node000023_Node000010"><a xlink:title=" ">
<path fill="none" stroke="#63b8ff" d="M971.77,-639.38C986.4,-603.51 1007.84,-534.2 981,-484 911.26,-353.56 731.91,-283.9 662.26,-261.06"/>
<polygon fill="#63b8ff" stroke="#63b8ff" points="968.38,-638.4 967.69,-648.97 974.82,-641.14 968.38,-638.4"/>
</a>
</g>
</g>
<!-- Node23&#45;&gt;Node14 -->
<g id="edge61_Node000023_Node000014" class="edge">
<title>Node23&#45;&gt;Node14</title>
<g id="a_edge61_Node000023_Node000014"><a xlink:title=" ">
<path fill="none" stroke="#63b8ff" d="M969.82,-638.91C982.07,-600.75 998.66,-526.4 960,-484 904.79,-423.45 669.01,-478.63 593,-448 573.04,-439.96 573.92,-428.24 555,-418 526.08,-402.35 491.38,-390.36 462.74,-382.04"/>
<polygon fill="#63b8ff" stroke="#63b8ff" points="966.41,-638.06 966.53,-648.66 973.05,-640.3 966.41,-638.06"/>
</a>
</g>
</g>
<!-- Node23&#45;&gt;Node17 -->
<g id="edge62_Node000023_Node000017" class="edge">
<title>Node23&#45;&gt;Node17</title>
<g id="a_edge62_Node000023_Node000017"><a xlink:title=" ">
<path fill="none" stroke="#63b8ff" d="M951.44,-639.66C935.92,-601.74 905.9,-528.45 895.59,-503.25"/>
<polygon fill="#63b8ff" stroke="#63b8ff" points="948.21,-641 955.24,-648.92 954.69,-638.34 948.21,-641"/>
</a>
</g>
</g>
<!-- Node23&#45;&gt;Node18 -->
<g id="edge68_Node000023_Node000018" class="edge">
<title>Node23&#45;&gt;Node18</title>
<g id="a_edge68_Node000023_Node000018"><a xlink:title=" ">
<path fill="none" stroke="#63b8ff" d="M937.07,-642.12C904.02,-614.39 841.49,-565.79 780,-539 738.17,-520.78 687.99,-509.6 648.62,-503.01"/>
<polygon fill="#63b8ff" stroke="#63b8ff" points="934.93,-644.9 944.82,-648.7 939.46,-639.56 934.93,-644.9"/>
</a>
</g>
</g>
<!-- Node24 -->
<g id="Node000024" class="node">
<title>Node24</title>
<g id="a_Node000024"><a xlink:href="channel_8h.html" target="_top" xlink:title=" ">
<polygon fill="white" stroke="#666666" points="654.5,-613 509.5,-613 509.5,-594 654.5,-594 654.5,-613"/>
<text text-anchor="middle" x="582" y="-601" font-family="Helvetica,sans-Serif" font-size="10.00">include/Channel/channel.h</text>
</a>
</g>
</g>
<!-- Node23&#45;&gt;Node24 -->
<g id="edge43_Node000023_Node000024" class="edge">
<title>Node23&#45;&gt;Node24</title>
<g id="a_edge43_Node000023_Node000024"><a xlink:title=" ">
<path fill="none" stroke="#63b8ff" d="M895.89,-652.95C822.91,-641.69 705.84,-623.61 637.18,-613.02"/>
<polygon fill="#63b8ff" stroke="#63b8ff" points="895.47,-656.43 905.89,-654.49 896.54,-649.51 895.47,-656.43"/>
</a>
</g>
</g>
<!-- Node26 -->
<g id="Node000026" class="node">
<title>Node26</title>
<g id="a_Node000026"><a xlink:href="database_8h.html" target="_top" xlink:title=" ">
<polygon fill="white" stroke="#666666" points="1403,-200.5 1245,-200.5 1245,-181.5 1403,-181.5 1403,-200.5"/>
<text text-anchor="middle" x="1324" y="-188.5" font-family="Helvetica,sans-Serif" font-size="10.00">include/Database/database.h</text>
</a>
</g>
</g>
<!-- Node23&#45;&gt;Node26 -->
<g id="edge50_Node000023_Node000026" class="edge">
<title>Node23&#45;&gt;Node26</title>
<g id="a_edge50_Node000023_Node000026"><a xlink:title=" ">
<path fill="none" stroke="#63b8ff" d="M1026.16,-653.48C1119.98,-637.92 1282,-603.25 1282,-549.5 1282,-549.5 1282,-549.5 1282,-305.5 1282,-264.11 1306.87,-219.21 1318.34,-200.71"/>
<polygon fill="#63b8ff" stroke="#63b8ff" points="1025.49,-650.05 1016.18,-655.11 1026.61,-656.95 1025.49,-650.05"/>
</a>
</g>
</g>
<!-- Node23&#45;&gt;Node29 -->
<g id="edge71_Node000023_Node000029" class="edge">
<title>Node23&#45;&gt;Node29</title>
<g id="a_edge71_Node000023_Node000029"><a xlink:title=" ">
<path fill="none" stroke="#63b8ff" d="M1026.29,-656.01C1201.35,-635.48 1668,-568.17 1668,-434 1668,-434 1668,-434 1668,-250.5 1668,-194.77 1730.6,-152.01 1760.92,-134.56"/>
<polygon fill="#63b8ff" stroke="#63b8ff" points="1025.71,-652.56 1016.18,-657.18 1026.52,-659.51 1025.71,-652.56"/>
</a>
</g>
</g>
<!-- Node30 -->
<g id="Node000030" class="node">
<title>Node30</title>
<g id="a_Node000030"><a xlink:href="reporter_8h.html" target="_top" xlink:title=" ">
<polygon fill="white" stroke="#666666" points="1188.5,-200.5 1041.5,-200.5 1041.5,-181.5 1188.5,-181.5 1188.5,-200.5"/>
<text text-anchor="middle" x="1115" y="-188.5" font-family="Helvetica,sans-Serif" font-size="10.00">include/Reporter/reporter.h</text>
</a>
</g>
</g>
<!-- Node23&#45;&gt;Node30 -->
<g id="edge63_Node000023_Node000030" class="edge">
<title>Node23&#45;&gt;Node30</title>
<g id="a_edge63_Node000023_Node000030"><a xlink:title=" ">
<path fill="none" stroke="#63b8ff" d="M1020.81,-645.41C1064.08,-628.58 1115,-598.39 1115,-549.5 1115,-549.5 1115,-549.5 1115,-305.5 1115,-266.29 1115,-219.45 1115,-200.54"/>
<polygon fill="#63b8ff" stroke="#63b8ff" points="1019.58,-642.14 1011.43,-648.91 1022.02,-648.7 1019.58,-642.14"/>
</a>
</g>
</g>
<!-- Node24&#45;&gt;Node2 -->
<g id="edge44_Node000024_Node000002" class="edge">
<title>Node24&#45;&gt;Node2</title>
<g id="a_edge44_Node000024_Node000002"><a xlink:title=" ">
<path fill="none" stroke="#63b8ff" d="M608.73,-589.5C628.79,-579.75 655.68,-566.68 673.17,-558.17"/>
<polygon fill="#63b8ff" stroke="#63b8ff" points="606.98,-586.46 599.51,-593.98 610.04,-592.76 606.98,-586.46"/>
</a>
</g>
</g>
<!-- Node24&#45;&gt;Node5 -->
<g id="edge48_Node000024_Node000005" class="edge">
<title>Node24&#45;&gt;Node5</title>
<g id="a_edge48_Node000024_Node000005"><a xlink:title=" ">
<path fill="none" stroke="#63b8ff" d="M499.16,-597.6C444.08,-592.27 370.95,-581.16 310,-558 213.64,-521.39 114,-537.08 114,-434 114,-434 114,-434 114,-190 114,-143.62 139.8,-131.3 181,-110 225.49,-87 563.8,-71.92 687.16,-67.14"/>
<polygon fill="#63b8ff" stroke="#63b8ff" points="498.95,-601.1 509.23,-598.53 499.59,-594.13 498.95,-601.1"/>
</a>
</g>
</g>
<!-- Node24&#45;&gt;Node9 -->
<g id="edge45_Node000024_Node000009" class="edge">
<title>Node24&#45;&gt;Node9</title>
<g id="a_edge45_Node000024_Node000009"><a xlink:title=" ">
<path fill="none" stroke="#63b8ff" d="M499.01,-598.02C427.75,-589.7 327.27,-566.57 267,-503 220.5,-453.95 236.74,-418.46 249,-352 251.4,-338.99 257.44,-324.86 261.63,-316.09"/>
<polygon fill="#63b8ff" stroke="#63b8ff" points="498.98,-601.54 509.3,-599.14 499.74,-594.58 498.98,-601.54"/>
</a>
</g>
</g>
<!-- Node24&#45;&gt;Node17 -->
<g id="edge46_Node000024_Node000017" class="edge">
<title>Node24&#45;&gt;Node17</title>
<g id="a_edge46_Node000024_Node000017"><a xlink:title=" ">
<path fill="none" stroke="#63b8ff" d="M651.08,-592.13C689.8,-585.06 738.51,-574.02 780,-558 818.58,-543.11 859.89,-516.58 879.84,-503.01"/>
<polygon fill="#63b8ff" stroke="#63b8ff" points="650.18,-588.74 640.95,-593.94 651.41,-595.63 650.18,-588.74"/>
</a>
</g>
</g>
<!-- Node24&#45;&gt;Node18 -->
<g id="edge47_Node000024_Node000018" class="edge">
<title>Node24&#45;&gt;Node18</title>
<g id="a_edge47_Node000024_Node000018"><a xlink:title=" ">
<path fill="none" stroke="#63b8ff" d="M582,-583.48C582,-559.84 582,-520.5 582,-503.16"/>
<polygon fill="#63b8ff" stroke="#63b8ff" points="578.5,-583.66 582,-593.66 585.5,-583.66 578.5,-583.66"/>
</a>
</g>
</g>
<!-- Node25 -->
<g id="Node000025" class="node">
<title>Node25</title>
<g id="a_Node000025"><a xlink:href="channel_8cpp.html" target="_top" xlink:title=" ">
<polygon fill="white" stroke="#666666" points="553.5,-558 418.5,-558 418.5,-539 553.5,-539 553.5,-558"/>
<text text-anchor="middle" x="486" y="-546" font-family="Helvetica,sans-Serif" font-size="10.00">src/Channel/channel.cpp</text>
</a>
</g>
</g>
<!-- Node24&#45;&gt;Node25 -->
<g id="edge49_Node000024_Node000025" class="edge">
<title>Node24&#45;&gt;Node25</title>
<g id="a_edge49_Node000024_Node000025"><a xlink:title=" ">
<path fill="none" stroke="#63b8ff" d="M557.48,-588.97C539.94,-579.28 516.83,-566.52 501.7,-558.17"/>
<polygon fill="#63b8ff" stroke="#63b8ff" points="556.13,-592.22 566.58,-593.98 559.51,-586.09 556.13,-592.22"/>
</a>
</g>
</g>
<!-- Node26&#45;&gt;Node4 -->
<g id="edge51_Node000026_Node000004" class="edge">
<title>Node26&#45;&gt;Node4</title>
<g id="a_edge51_Node000026_Node000004"><a xlink:title=" ">
<path fill="none" stroke="#63b8ff" d="M1263.94,-179.72C1190.64,-167.18 1068.04,-146.2 999.75,-134.51"/>
<polygon fill="#63b8ff" stroke="#63b8ff" points="1263.5,-183.2 1273.95,-181.44 1264.68,-176.3 1263.5,-183.2"/>
</a>
</g>
</g>
<!-- Node26&#45;&gt;Node5 -->
<g id="edge52_Node000026_Node000005" class="edge">
<title>Node26&#45;&gt;Node5</title>
<g id="a_edge52_Node000026_Node000005"><a xlink:title=" ">
<path fill="none" stroke="#63b8ff" d="M1316.71,-171.97C1307.97,-152.96 1291.39,-123.88 1267,-110 1245.81,-97.94 901.82,-75.87 776.89,-68.2"/>
<polygon fill="#63b8ff" stroke="#63b8ff" points="1313.58,-173.55 1320.76,-181.34 1320,-170.77 1313.58,-173.55"/>
</a>
</g>
</g>
<!-- Node26&#45;&gt;Node22 -->
<g id="edge55_Node000026_Node000022" class="edge">
<title>Node26&#45;&gt;Node22</title>
<g id="a_edge55_Node000026_Node000022"><a xlink:title=" ">
<path fill="none" stroke="#63b8ff" d="M1367.83,-178.96C1410.62,-168.17 1475.9,-151.73 1522.34,-140.02"/>
<polygon fill="#63b8ff" stroke="#63b8ff" points="1366.83,-175.6 1357.99,-181.44 1368.54,-182.39 1366.83,-175.6"/>
</a>
</g>
</g>
<!-- Node27 -->
<g id="Node000027" class="node">
<title>Node27</title>
<g id="a_Node000027"><a xlink:href="database_8cpp.html" target="_top" xlink:title=" ">
<polygon fill="white" stroke="#666666" points="1500.5,-134.5 1351.5,-134.5 1351.5,-115.5 1500.5,-115.5 1500.5,-134.5"/>
<text text-anchor="middle" x="1426" y="-122.5" font-family="Helvetica,sans-Serif" font-size="10.00">src/Database/database.cpp</text>
</a>
</g>
</g>
<!-- Node26&#45;&gt;Node27 -->
<g id="edge53_Node000026_Node000027" class="edge">
<title>Node26&#45;&gt;Node27</title>
<g id="a_edge53_Node000026_Node000027"><a xlink:title=" ">
<path fill="none" stroke="#63b8ff" d="M1346.28,-176.02C1366.34,-163.43 1395.2,-145.32 1412.14,-134.7"/>
<polygon fill="#63b8ff" stroke="#63b8ff" points="1344.37,-173.09 1337.76,-181.37 1348.09,-179.02 1344.37,-173.09"/>
</a>
</g>
</g>
<!-- Node28 -->
<g id="Node000028" class="node">
<title>Node28</title>
<g id="a_Node000028"><a xlink:href="reporter_8cpp.html" target="_top" xlink:title=" ">
<polygon fill="white" stroke="#666666" points="1257.5,-134.5 1120.5,-134.5 1120.5,-115.5 1257.5,-115.5 1257.5,-134.5"/>
<text text-anchor="middle" x="1189" y="-122.5" font-family="Helvetica,sans-Serif" font-size="10.00">src/Reporter/reporter.cpp</text>
</a>
</g>
</g>
<!-- Node26&#45;&gt;Node28 -->
<g id="edge54_Node000026_Node000028" class="edge">
<title>Node26&#45;&gt;Node28</title>
<g id="a_edge54_Node000026_Node000028"><a xlink:title=" ">
<path fill="none" stroke="#63b8ff" d="M1296.64,-177.03C1270.03,-164.42 1230.37,-145.61 1207.35,-134.7"/>
<polygon fill="#63b8ff" stroke="#63b8ff" points="1295.26,-180.25 1305.79,-181.37 1298.26,-173.92 1295.26,-180.25"/>
</a>
</g>
</g>
<!-- Node26&#45;&gt;Node29 -->
<g id="edge56_Node000026_Node000029" class="edge">
<title>Node26&#45;&gt;Node29</title>
<g id="a_edge56_Node000026_Node000029"><a xlink:title=" ">
<path fill="none" stroke="#63b8ff" d="M1394.58,-180.03C1483.1,-167.52 1633.36,-146.29 1716.74,-134.51"/>
<polygon fill="#63b8ff" stroke="#63b8ff" points="1394.04,-176.57 1384.62,-181.44 1395.01,-183.5 1394.04,-176.57"/>
</a>
</g>
</g>
<!-- Node30&#45;&gt;Node4 -->
<g id="edge64_Node000030_Node000004" class="edge">
<title>Node30&#45;&gt;Node4</title>
<g id="a_edge64_Node000030_Node000004"><a xlink:title=" ">
<path fill="none" stroke="#63b8ff" d="M1083.23,-177.68C1050.62,-165.03 1000.74,-145.68 972.16,-134.6"/>
<polygon fill="#63b8ff" stroke="#63b8ff" points="1082.16,-181.02 1092.75,-181.37 1084.69,-174.49 1082.16,-181.02"/>
</a>
</g>
</g>
<!-- Node30&#45;&gt;Node5 -->
<g id="edge65_Node000030_Node000005" class="edge">
<title>Node30&#45;&gt;Node5</title>
<g id="a_edge65_Node000030_Node000005"><a xlink:title=" ">
<path fill="none" stroke="#63b8ff" d="M1103.49,-173.25C1089.6,-154.49 1064.41,-124.78 1035,-110 990.64,-87.71 849.76,-74.26 776.78,-68.61"/>
<polygon fill="#63b8ff" stroke="#63b8ff" points="1100.7,-175.37 1109.37,-181.47 1106.39,-171.3 1100.7,-175.37"/>
</a>
</g>
</g>
<!-- Node30&#45;&gt;Node6 -->
<g id="edge67_Node000030_Node000006" class="edge">
<title>Node30&#45;&gt;Node6</title>
<g id="a_edge67_Node000030_Node000006"><a xlink:title=" ">
<path fill="none" stroke="#63b8ff" d="M1112.57,-171.03C1107.64,-132.52 1096.61,-46.49 1093.1,-19.07"/>
<polygon fill="#63b8ff" stroke="#63b8ff" points="1109.15,-171.87 1113.89,-181.34 1116.09,-170.98 1109.15,-171.87"/>
</a>
</g>
</g>
<!-- Node30&#45;&gt;Node28 -->
<g id="edge66_Node000030_Node000028" class="edge">
<title>Node30&#45;&gt;Node28</title>
<g id="a_edge66_Node000030_Node000028"><a xlink:title=" ">
<path fill="none" stroke="#63b8ff" d="M1132.71,-174.68C1147.08,-162.26 1166.82,-145.18 1178.7,-134.91"/>
<polygon fill="#63b8ff" stroke="#63b8ff" points="1130.25,-172.18 1124.98,-181.37 1134.83,-177.47 1130.25,-172.18"/>
</a>
</g>
</g>
</g>
</svg>
