<?xml version="1.0" encoding="UTF-8" standalone="no"?>
<!DOCTYPE svg PUBLIC "-//W3C//DTD SVG 1.1//EN"
 "http://www.w3.org/Graphics/SVG/1.1/DTD/svg11.dtd">
<!-- Generated by graphviz version 2.43.0 (0)
 -->
<!-- Title: include/Library/error.h Pages: 1 -->
<!--zoomable 687 -->

<svg id="main" version="1.1" xmlns="http://www.w3.org/2000/svg" xmlns:xlink="http://www.w3.org/1999/xlink" xml:space="preserve" onload="init(evt)">
<style type="text/css"><![CDATA[
.node, .edge {opacity: 0.7;}
.node.selected, .edge.selected {opacity: 1;}
.edge:hover path { stroke: red; }
.edge:hover polygon { stroke: red; fill: red; }
]]></style>

<defs>
  <circle id="rim" cx="0" cy="0" r="7"/>
  <circle id="rim2" cx="0" cy="0" r="3.5"/>
  <g id="zoomPlus">
    <use xlink:href="#rim" fill="#404040"><set attributeName="fill" to="#808080" begin="zoomplus.mouseover" end="zoomplus.mouseout"/></use>
    <path d="M-4,0h8M0,-4v8" fill="none" stroke="white" stroke-width="1.5" pointer-events="none"/>
  </g>
  <g id="zoomMin">
    <use xlink:href="#rim" fill="#404040"><set attributeName="fill" to="#808080" begin="zoomminus.mouseover" end="zoomminus.mouseout"/></use>
    <path d="M-4,0h8" fill="none" stroke="white" stroke-width="1.5" pointer-events="none"/>
  </g>
  <g id="arrowUp" transform="translate(30 24)">
    <use xlink:href="#rim"/>
    <path pointer-events="none" fill="none" stroke="white" stroke-width="1.5" d="M0,-3.0v7 M-2.5,-0.5L0,-3.0L2.5,-0.5"/>
  </g>
  <g id="arrowRight" transform="rotate(90) translate(36 -43)">
    <use xlink:href="#rim"/>
    <path pointer-events="none" fill="none" stroke="white" stroke-width="1.5" d="M0,-3.0v7 M-2.5,-0.5L0,-3.0L2.5,-0.5"/>
  </g>
  <g id="arrowDown" transform="rotate(180) translate(-30 -48)">
    <use xlink:href="#rim"/>
    <path pointer-events="none" fill="none" stroke="white" stroke-width="1.5" d="M0,-3.0v7 M-2.5,-0.5L0,-3.0L2.5,-0.5"/>
  </g>
  <g id="arrowLeft" transform="rotate(270) translate(-36 17)">
    <use xlink:href="#rim"/>
    <path pointer-events="none" fill="none" stroke="white" stroke-width="1.5" d="M0,-3.0v7 M-2.5,-0.5L0,-3.0L2.5,-0.5"/>
  </g>
  <g id="resetDef">
    <use xlink:href="#rim2" fill="#404040"><set attributeName="fill" to="#808080" begin="reset.mouseover" end="reset.mouseout"/></use>
  </g>
</defs>
<script type="application/ecmascript">
var viewWidth = 1793;
var viewHeight = 687;
var sectionId = 'dynsection-1';
</script>
<script type="application/ecmascript" xlink:href="svg.min.js"/>
<svg id="graph" class="graph">
<g id="viewport">
<title>include/Library/error.h</title>
<!-- Node1 -->
<g id="Node000001" class="node">
<title>Node1</title>
<g id="a_Node000001"><a xlink:title=" ">
<polygon fill="#999999" stroke="#666666" points="1239.5,-679 1116.5,-679 1116.5,-660 1239.5,-660 1239.5,-679"/>
<text text-anchor="middle" x="1178" y="-667" font-family="Helvetica,sans-Serif" font-size="10.00">include/Library/error.h</text>
</a>
</g>
</g>
<!-- Node2 -->
<g id="Node000002" class="node">
<title>Node2</title>
<g id="a_Node000002"><a xlink:href="driverModel_8h.html" target="_top" xlink:title=" ">
<polygon fill="white" stroke="#666666" points="502.5,-486.5 341.5,-486.5 341.5,-467.5 502.5,-467.5 502.5,-486.5"/>
<text text-anchor="middle" x="422" y="-474.5" font-family="Helvetica,sans-Serif" font-size="10.00">include/Drivers/driverModel.h</text>
</a>
</g>
</g>
<!-- Node1&#45;&gt;Node2 -->
<g id="edge1_Node000001_Node000002" class="edge">
<title>Node1&#45;&gt;Node2</title>
<g id="a_edge1_Node000001_Node000002"><a xlink:title=" ">
<path fill="none" stroke="#63b8ff" d="M1106.17,-662.48C955.32,-648.92 611.02,-612.79 508,-558 473.07,-539.42 441.69,-503.06 428.54,-486.54"/>
<polygon fill="#63b8ff" stroke="#63b8ff" points="1105.98,-665.98 1116.25,-663.38 1106.6,-659.01 1105.98,-665.98"/>
</a>
</g>
</g>
<!-- Node19 -->
<g id="Node000019" class="node">
<title>Node19</title>
<g id="a_Node000019"><a xlink:href="generatorHelper_8h.html" target="_top" xlink:title=" ">
<polygon fill="white" stroke="#666666" points="1540.5,-558 1417.5,-558 1417.5,-528 1540.5,-528 1540.5,-558"/>
<text text-anchor="start" x="1425.5" y="-546" font-family="Helvetica,sans-Serif" font-size="10.00">include/TestGenerator</text>
<text text-anchor="middle" x="1479" y="-535" font-family="Helvetica,sans-Serif" font-size="10.00">/generatorHelper.h</text>
</a>
</g>
</g>
<!-- Node1&#45;&gt;Node19 -->
<g id="edge38_Node000001_Node000019" class="edge">
<title>Node1&#45;&gt;Node19</title>
<g id="a_edge38_Node000001_Node000019"><a xlink:title=" ">
<path fill="none" stroke="#63b8ff" d="M1208.11,-656.05C1264.44,-632.75 1385.43,-582.7 1444.76,-558.16"/>
<polygon fill="#63b8ff" stroke="#63b8ff" points="1206.59,-652.89 1198.69,-659.94 1209.27,-659.35 1206.59,-652.89"/>
</a>
</g>
</g>
<!-- Node21 -->
<g id="Node000021" class="node">
<title>Node21</title>
<g id="a_Node000021"><a xlink:href="transaction_8h_source.html" target="_top" xlink:title=" ">
<polygon fill="white" stroke="#666666" points="911,-624 801,-624 801,-594 911,-594 911,-624"/>
<text text-anchor="start" x="809" y="-612" font-family="Helvetica,sans-Serif" font-size="10.00">include/Transaction</text>
<text text-anchor="middle" x="856" y="-601" font-family="Helvetica,sans-Serif" font-size="10.00">/transaction.h</text>
</a>
</g>
</g>
<!-- Node1&#45;&gt;Node21 -->
<g id="edge41_Node000001_Node000021" class="edge">
<title>Node1&#45;&gt;Node21</title>
<g id="a_edge41_Node000001_Node000021"><a xlink:title=" ">
<path fill="none" stroke="#63b8ff" d="M1121.25,-658.19C1062.06,-647.44 969.88,-630.69 911.25,-620.04"/>
<polygon fill="#63b8ff" stroke="#63b8ff" points="1120.71,-661.65 1131.18,-659.99 1121.97,-654.76 1120.71,-661.65"/>
</a>
</g>
</g>
<!-- Node27 -->
<g id="Node000027" class="node">
<title>Node27</title>
<g id="a_Node000027"><a xlink:href="transaction_8cpp.html" target="_top" xlink:title=" ">
<polygon fill="white" stroke="#666666" points="1719.5,-486.5 1552.5,-486.5 1552.5,-467.5 1719.5,-467.5 1719.5,-486.5"/>
<text text-anchor="middle" x="1636" y="-474.5" font-family="Helvetica,sans-Serif" font-size="10.00">src/Transaction/transaction.cpp</text>
</a>
</g>
</g>
<!-- Node1&#45;&gt;Node27 -->
<g id="edge69_Node000001_Node000027" class="edge">
<title>Node1&#45;&gt;Node27</title>
<g id="a_edge69_Node000001_Node000027"><a xlink:title=" ">
<path fill="none" stroke="#63b8ff" d="M1246.33,-658.19C1324.02,-644.27 1452.67,-614.45 1550,-558 1583.87,-538.36 1615.31,-503.18 1628.91,-486.82"/>
<polygon fill="#63b8ff" stroke="#63b8ff" points="1245.43,-654.79 1236.18,-659.97 1246.63,-661.69 1245.43,-654.79"/>
</a>
</g>
</g>
<!-- Node3 -->
<g id="Node000003" class="node">
<title>Node3</title>
<g id="a_Node000003"><a xlink:href="driver_8h.html" target="_top" xlink:title=" ">
<polygon fill="white" stroke="#666666" points="765,-184 635,-184 635,-165 765,-165 765,-184"/>
<text text-anchor="middle" x="700" y="-172" font-family="Helvetica,sans-Serif" font-size="10.00">include/Drivers/driver.h</text>
</a>
</g>
</g>
<!-- Node2&#45;&gt;Node3 -->
<g id="edge2_Node000002_Node000003" class="edge">
<title>Node2&#45;&gt;Node3</title>
<g id="a_edge2_Node000002_Node000003"><a xlink:title=" ">
<path fill="none" stroke="#63b8ff" d="M480.36,-465.11C512.5,-457.41 552.2,-445.01 584,-426 655.76,-383.12 685.72,-371.11 718,-294 734.15,-255.42 713.84,-204.37 704.37,-184.22"/>
<polygon fill="#63b8ff" stroke="#63b8ff" points="479.17,-461.79 470.21,-467.45 480.75,-468.61 479.17,-461.79"/>
</a>
</g>
</g>
<!-- Node5 -->
<g id="Node000005" class="node">
<title>Node5</title>
<g id="a_Node000005"><a xlink:href="mlvp_8h.html" target="_top" xlink:title=" ">
<polygon fill="white" stroke="#666666" points="771.5,-74 682.5,-74 682.5,-55 771.5,-55 771.5,-74"/>
<text text-anchor="middle" x="727" y="-62" font-family="Helvetica,sans-Serif" font-size="10.00">include/mlvp.h</text>
</a>
</g>
</g>
<!-- Node2&#45;&gt;Node5 -->
<g id="edge35_Node000002_Node000005" class="edge">
<title>Node2&#45;&gt;Node5</title>
<g id="a_edge35_Node000002_Node000005"><a xlink:title=" ">
<path fill="none" stroke="#63b8ff" d="M330.94,-469.96C217.38,-456.92 38,-415.71 38,-285.5 38,-285.5 38,-285.5 38,-228.5 38,-95.59 529.64,-70.92 682.32,-66.46"/>
<polygon fill="#63b8ff" stroke="#63b8ff" points="330.71,-473.46 341.03,-471.07 331.47,-466.5 330.71,-473.46"/>
</a>
</g>
</g>
<!-- Node6 -->
<g id="Node000006" class="node">
<title>Node6</title>
<g id="a_Node000006"><a xlink:href="main_8cpp.html" target="_top" xlink:title=" ">
<polygon fill="white" stroke="#666666" points="946.5,-19 867.5,-19 867.5,0 946.5,0 946.5,-19"/>
<text text-anchor="middle" x="907" y="-7" font-family="Helvetica,sans-Serif" font-size="10.00">src/main.cpp</text>
</a>
</g>
</g>
<!-- Node2&#45;&gt;Node6 -->
<g id="edge37_Node000002_Node000006" class="edge">
<title>Node2&#45;&gt;Node6</title>
<g id="a_edge37_Node000002_Node000006"><a xlink:title=" ">
<path fill="none" stroke="#63b8ff" d="M498.31,-465.62C537.18,-458.24 584.28,-445.97 623,-426 703.12,-384.67 722.73,-365.98 777,-294 849.37,-198.02 893.98,-55.31 904.56,-19.09"/>
<polygon fill="#63b8ff" stroke="#63b8ff" points="497.31,-462.25 488.1,-467.49 498.56,-469.13 497.31,-462.25"/>
</a>
</g>
</g>
<!-- Node9 -->
<g id="Node000009" class="node">
<title>Node9</title>
<g id="a_Node000009"><a xlink:href="dutDriver_8h.html" target="_top" xlink:title=" ">
<polygon fill="white" stroke="#666666" points="708.5,-294 561.5,-294 561.5,-275 708.5,-275 708.5,-294"/>
<text text-anchor="middle" x="635" y="-282" font-family="Helvetica,sans-Serif" font-size="10.00">include/Drivers/dutDriver.h</text>
</a>
</g>
</g>
<!-- Node2&#45;&gt;Node9 -->
<g id="edge10_Node000002_Node000009" class="edge">
<title>Node2&#45;&gt;Node9</title>
<g id="a_edge10_Node000002_Node000009"><a xlink:title=" ">
<path fill="none" stroke="#63b8ff" d="M476.12,-464.8C502.43,-457.25 533.21,-445.08 556,-426 600.84,-388.45 625.12,-318.57 632.52,-294.17"/>
<polygon fill="#63b8ff" stroke="#63b8ff" points="475.02,-461.47 466.28,-467.47 476.85,-468.23 475.02,-461.47"/>
</a>
</g>
</g>
<!-- Node10 -->
<g id="Node000010" class="node">
<title>Node10</title>
<g id="a_Node000010"><a xlink:href="refDriver_8h.html" target="_top" xlink:title=" ">
<polygon fill="white" stroke="#666666" points="244.5,-239 99.5,-239 99.5,-220 244.5,-220 244.5,-239"/>
<text text-anchor="middle" x="172" y="-227" font-family="Helvetica,sans-Serif" font-size="10.00">include/Drivers/refDriver.h</text>
</a>
</g>
</g>
<!-- Node2&#45;&gt;Node10 -->
<g id="edge19_Node000002_Node000010" class="edge">
<title>Node2&#45;&gt;Node10</title>
<g id="a_edge19_Node000002_Node000010"><a xlink:title=" ">
<path fill="none" stroke="#63b8ff" d="M331.13,-467.13C292.25,-460.22 247.7,-447.91 212,-426 179.21,-405.88 169.8,-395.91 156,-360 142.44,-324.73 146.78,-312.09 154,-275 156.55,-261.91 162.94,-247.8 167.38,-239.06"/>
<polygon fill="#63b8ff" stroke="#63b8ff" points="330.96,-470.66 341.4,-468.86 332.12,-463.75 330.96,-470.66"/>
</a>
</g>
</g>
<!-- Node13 -->
<g id="Node000013" class="node">
<title>Node13</title>
<g id="a_Node000013"><a xlink:href="simulatorDriver_8h.html" target="_top" xlink:title=" ">
<polygon fill="white" stroke="#666666" points="361,-426 221,-426 221,-396 361,-396 361,-426"/>
<text text-anchor="start" x="229" y="-414" font-family="Helvetica,sans-Serif" font-size="10.00">include/Drivers/simulator</text>
<text text-anchor="middle" x="291" y="-403" font-family="Helvetica,sans-Serif" font-size="10.00">Driver.h</text>
</a>
</g>
</g>
<!-- Node2&#45;&gt;Node13 -->
<g id="edge20_Node000002_Node000013" class="edge">
<title>Node2&#45;&gt;Node13</title>
<g id="a_edge20_Node000002_Node000013"><a xlink:title=" ">
<path fill="none" stroke="#63b8ff" d="M395.25,-462.93C373.33,-452.22 342.38,-437.1 319.89,-426.12"/>
<polygon fill="#63b8ff" stroke="#63b8ff" points="393.81,-466.12 404.33,-467.37 396.88,-459.83 393.81,-466.12"/>
</a>
</g>
</g>
<!-- Node14 -->
<g id="Node000014" class="node">
<title>Node14</title>
<g id="a_Node000014"><a xlink:href="transDriverModel_8h.html" target="_top" xlink:title=" ">
<polygon fill="white" stroke="#666666" points="552,-360 404,-360 404,-330 552,-330 552,-360"/>
<text text-anchor="start" x="412" y="-348" font-family="Helvetica,sans-Serif" font-size="10.00">include/Drivers/transDriver</text>
<text text-anchor="middle" x="478" y="-337" font-family="Helvetica,sans-Serif" font-size="10.00">Model.h</text>
</a>
</g>
</g>
<!-- Node2&#45;&gt;Node14 -->
<g id="edge31_Node000002_Node000014" class="edge">
<title>Node2&#45;&gt;Node14</title>
<g id="a_edge31_Node000002_Node000014"><a xlink:title=" ">
<path fill="none" stroke="#63b8ff" d="M483.07,-464.43C504.45,-457.13 526.28,-445.26 539,-426 546.35,-414.87 544.7,-408.05 539,-396 531.79,-380.78 517.43,-368.64 504.45,-360.14"/>
<polygon fill="#63b8ff" stroke="#63b8ff" points="481.82,-461.16 473.31,-467.48 483.9,-467.84 481.82,-461.16"/>
</a>
</g>
</g>
<!-- Node17 -->
<g id="Node000017" class="node">
<title>Node17</title>
<g id="a_Node000017"><a xlink:href="ref_8h.html" target="_top" xlink:title=" ">
<polygon fill="white" stroke="#666666" points="984.5,-420.5 865.5,-420.5 865.5,-401.5 984.5,-401.5 984.5,-420.5"/>
<text text-anchor="middle" x="925" y="-408.5" font-family="Helvetica,sans-Serif" font-size="10.00">include/RefPack/ref.h</text>
</a>
</g>
</g>
<!-- Node2&#45;&gt;Node17 -->
<g id="edge32_Node000002_Node000017" class="edge">
<title>Node2&#45;&gt;Node17</title>
<g id="a_edge32_Node000002_Node000017"><a xlink:title=" ">
<path fill="none" stroke="#63b8ff" d="M499.17,-466.18C599.95,-453.36 774.25,-431.18 865.46,-419.58"/>
<polygon fill="#63b8ff" stroke="#63b8ff" points="498.53,-462.73 489.05,-467.47 499.42,-469.68 498.53,-462.73"/>
</a>
</g>
</g>
<!-- Node18 -->
<g id="Node000018" class="node">
<title>Node18</title>
<g id="a_Node000018"><a xlink:href="driverModel_8cpp.html" target="_top" xlink:title=" ">
<polygon fill="white" stroke="#666666" points="530.5,-420.5 379.5,-420.5 379.5,-401.5 530.5,-401.5 530.5,-420.5"/>
<text text-anchor="middle" x="455" y="-408.5" font-family="Helvetica,sans-Serif" font-size="10.00">src/Drivers/driverModel.cpp</text>
</a>
</g>
</g>
<!-- Node2&#45;&gt;Node18 -->
<g id="edge36_Node000002_Node000018" class="edge">
<title>Node2&#45;&gt;Node18</title>
<g id="a_edge36_Node000002_Node000018"><a xlink:title=" ">
<path fill="none" stroke="#63b8ff" d="M431.19,-458.18C437.44,-446.05 445.46,-430.51 450.41,-420.91"/>
<polygon fill="#63b8ff" stroke="#63b8ff" points="427.92,-456.88 426.45,-467.37 434.14,-460.08 427.92,-456.88"/>
</a>
</g>
</g>
<!-- Node4 -->
<g id="Node000004" class="node">
<title>Node4</title>
<g id="a_Node000004"><a xlink:href="spreader_8h.html" target="_top" xlink:title=" ">
<polygon fill="white" stroke="#666666" points="1087,-129 935,-129 935,-110 1087,-110 1087,-129"/>
<text text-anchor="middle" x="1011" y="-117" font-family="Helvetica,sans-Serif" font-size="10.00">include/Spreader/spreader.h</text>
</a>
</g>
</g>
<!-- Node3&#45;&gt;Node4 -->
<g id="edge3_Node000003_Node000004" class="edge">
<title>Node3&#45;&gt;Node4</title>
<g id="a_edge3_Node000003_Node000004"><a xlink:title=" ">
<path fill="none" stroke="#63b8ff" d="M760.16,-163.25C818.56,-153.3 906.18,-138.36 960.9,-129.04"/>
<polygon fill="#63b8ff" stroke="#63b8ff" points="759.24,-159.85 749.97,-164.98 760.41,-166.75 759.24,-159.85"/>
</a>
</g>
</g>
<!-- Node3&#45;&gt;Node5 -->
<g id="edge7_Node000003_Node000005" class="edge">
<title>Node3&#45;&gt;Node5</title>
<g id="a_edge7_Node000003_Node000005"><a xlink:title=" ">
<path fill="none" stroke="#63b8ff" d="M704.67,-154.8C710.57,-131.2 720.48,-91.58 724.84,-74.16"/>
<polygon fill="#63b8ff" stroke="#63b8ff" points="701.24,-154.11 702.21,-164.66 708.03,-155.81 701.24,-154.11"/>
</a>
</g>
</g>
<!-- Node3&#45;&gt;Node6 -->
<g id="edge9_Node000003_Node000006" class="edge">
<title>Node3&#45;&gt;Node6</title>
<g id="a_edge9_Node000003_Node000006"><a xlink:title=" ">
<path fill="none" stroke="#63b8ff" d="M718.93,-158.59C761.27,-125.25 862.51,-45.53 896.02,-19.15"/>
<polygon fill="#63b8ff" stroke="#63b8ff" points="716.53,-156.03 710.84,-164.97 720.86,-161.53 716.53,-156.03"/>
</a>
</g>
</g>
<!-- Node8 -->
<g id="Node000008" class="node">
<title>Node8</title>
<g id="a_Node000008"><a xlink:href="driver_8cpp.html" target="_top" xlink:title=" ">
<polygon fill="white" stroke="#666666" points="699,-129 579,-129 579,-110 699,-110 699,-129"/>
<text text-anchor="middle" x="639" y="-117" font-family="Helvetica,sans-Serif" font-size="10.00">src/Drivers/driver.cpp</text>
</a>
</g>
</g>
<!-- Node3&#45;&gt;Node8 -->
<g id="edge8_Node000003_Node000008" class="edge">
<title>Node3&#45;&gt;Node8</title>
<g id="a_edge8_Node000003_Node000008"><a xlink:title=" ">
<path fill="none" stroke="#63b8ff" d="M682.53,-158.32C671.66,-148.87 658.06,-137.06 648.98,-129.17"/>
<polygon fill="#63b8ff" stroke="#63b8ff" points="680.35,-161.07 690.2,-164.98 684.95,-155.78 680.35,-161.07"/>
</a>
</g>
</g>
<!-- Node4&#45;&gt;Node5 -->
<g id="edge4_Node000004_Node000005" class="edge">
<title>Node4&#45;&gt;Node5</title>
<g id="a_edge4_Node000004_Node000005"><a xlink:title=" ">
<path fill="none" stroke="#63b8ff" d="M955.32,-108.11C901.58,-98.08 821.24,-83.09 771.58,-73.82"/>
<polygon fill="#63b8ff" stroke="#63b8ff" points="954.9,-111.59 965.37,-109.98 956.18,-104.71 954.9,-111.59"/>
</a>
</g>
</g>
<!-- Node7 -->
<g id="Node000007" class="node">
<title>Node7</title>
<g id="a_Node000007"><a xlink:href="spreader_8cpp.html" target="_top" xlink:title=" ">
<polygon fill="white" stroke="#666666" points="1082.5,-74 939.5,-74 939.5,-55 1082.5,-55 1082.5,-74"/>
<text text-anchor="middle" x="1011" y="-62" font-family="Helvetica,sans-Serif" font-size="10.00">src/Spreader/spreader.cpp</text>
</a>
</g>
</g>
<!-- Node4&#45;&gt;Node7 -->
<g id="edge6_Node000004_Node000007" class="edge">
<title>Node4&#45;&gt;Node7</title>
<g id="a_edge6_Node000004_Node000007"><a xlink:title=" ">
<path fill="none" stroke="#63b8ff" d="M1011,-99.66C1011,-90.93 1011,-80.99 1011,-74.09"/>
<polygon fill="#63b8ff" stroke="#63b8ff" points="1007.5,-99.75 1011,-109.75 1014.5,-99.75 1007.5,-99.75"/>
</a>
</g>
</g>
<!-- Node5&#45;&gt;Node6 -->
<g id="edge5_Node000005_Node000006" class="edge">
<title>Node5&#45;&gt;Node6</title>
<g id="a_edge5_Node000005_Node000006"><a xlink:title=" ">
<path fill="none" stroke="#63b8ff" d="M765.87,-52.06C799.51,-42.15 847.42,-28.04 877.85,-19.08"/>
<polygon fill="#63b8ff" stroke="#63b8ff" points="764.52,-48.8 755.92,-54.98 766.5,-55.52 764.52,-48.8"/>
</a>
</g>
</g>
<!-- Node9&#45;&gt;Node3 -->
<g id="edge11_Node000009_Node000003" class="edge">
<title>Node9&#45;&gt;Node3</title>
<g id="a_edge11_Node000009_Node000003"><a xlink:title=" ">
<path fill="none" stroke="#63b8ff" d="M654.26,-268.28C663.17,-260.37 673.25,-250.06 680,-239 690.84,-221.24 696.32,-197.06 698.62,-184.27"/>
<polygon fill="#63b8ff" stroke="#63b8ff" points="651.91,-265.68 646.54,-274.81 656.43,-271.02 651.91,-265.68"/>
</a>
</g>
</g>
<!-- Node9&#45;&gt;Node5 -->
<g id="edge17_Node000009_Node000005" class="edge">
<title>Node9&#45;&gt;Node5</title>
<g id="a_edge17_Node000009_Node000005"><a xlink:title=" ">
<path fill="none" stroke="#63b8ff" d="M570.11,-271.67C552.2,-265.1 534.75,-254.89 524,-239 519.27,-232.01 522.34,-228.28 524,-220 534.43,-168.04 530.35,-145.16 570,-110 601.05,-82.46 647.98,-71.87 682.44,-67.85"/>
<polygon fill="#63b8ff" stroke="#63b8ff" points="569.47,-275.15 580.07,-274.96 571.67,-268.5 569.47,-275.15"/>
</a>
</g>
</g>
<!-- Node9&#45;&gt;Node10 -->
<g id="edge12_Node000009_Node000010" class="edge">
<title>Node9&#45;&gt;Node10</title>
<g id="a_edge12_Node000009_Node000010"><a xlink:title=" ">
<path fill="none" stroke="#63b8ff" d="M551.21,-273.91C463.65,-263.89 327.67,-248.32 244.55,-238.81"/>
<polygon fill="#63b8ff" stroke="#63b8ff" points="551.05,-277.41 561.38,-275.07 551.84,-270.46 551.05,-277.41"/>
</a>
</g>
</g>
<!-- Node12 -->
<g id="Node000012" class="node">
<title>Node12</title>
<g id="a_Node000012"><a xlink:href="dutDriver_8cpp.html" target="_top" xlink:title=" ">
<polygon fill="white" stroke="#666666" points="670.5,-239 533.5,-239 533.5,-220 670.5,-220 670.5,-239"/>
<text text-anchor="middle" x="602" y="-227" font-family="Helvetica,sans-Serif" font-size="10.00">src/Drivers/dutDriver.cpp</text>
</a>
</g>
</g>
<!-- Node9&#45;&gt;Node12 -->
<g id="edge18_Node000009_Node000012" class="edge">
<title>Node9&#45;&gt;Node12</title>
<g id="a_edge18_Node000009_Node000012"><a xlink:title=" ">
<path fill="none" stroke="#63b8ff" d="M624.17,-266.1C618.53,-257.04 611.88,-246.37 607.35,-239.09"/>
<polygon fill="#63b8ff" stroke="#63b8ff" points="621.29,-268.11 629.55,-274.75 627.24,-264.41 621.29,-268.11"/>
</a>
</g>
</g>
<!-- Node10&#45;&gt;Node3 -->
<g id="edge13_Node000010_Node000003" class="edge">
<title>Node10&#45;&gt;Node3</title>
<g id="a_edge13_Node000010_Node000003"><a xlink:title=" ">
<path fill="none" stroke="#63b8ff" d="M254.83,-220.19C359.92,-209.64 538.98,-191.66 634.86,-182.04"/>
<polygon fill="#63b8ff" stroke="#63b8ff" points="254.19,-216.73 244.59,-221.21 254.88,-223.7 254.19,-216.73"/>
</a>
</g>
</g>
<!-- Node10&#45;&gt;Node5 -->
<g id="edge14_Node000010_Node000005" class="edge">
<title>Node10&#45;&gt;Node5</title>
<g id="a_edge14_Node000010_Node000005"><a xlink:title=" ">
<path fill="none" stroke="#63b8ff" d="M202.01,-215.38C217.06,-207.76 234.83,-197.08 248,-184 275.15,-157.03 259.75,-130.59 292,-110 355.91,-69.2 584.92,-64.98 682.48,-65.09"/>
<polygon fill="#63b8ff" stroke="#63b8ff" points="200.07,-212.43 192.59,-219.94 203.12,-218.73 200.07,-212.43"/>
</a>
</g>
</g>
<!-- Node10&#45;&gt;Node6 -->
<g id="edge16_Node000010_Node000006" class="edge">
<title>Node10&#45;&gt;Node6</title>
<g id="a_edge16_Node000010_Node000006"><a xlink:title=" ">
<path fill="none" stroke="#63b8ff" d="M136.76,-216.2C109.69,-204.76 79.36,-186.31 95,-165 188.08,-38.18 717.32,-15.26 867.36,-11.3"/>
<polygon fill="#63b8ff" stroke="#63b8ff" points="135.54,-219.48 146.12,-219.95 138.14,-212.99 135.54,-219.48"/>
</a>
</g>
</g>
<!-- Node11 -->
<g id="Node000011" class="node">
<title>Node11</title>
<g id="a_Node000011"><a xlink:href="refDriver_8cpp.html" target="_top" xlink:title=" ">
<polygon fill="white" stroke="#666666" points="239.5,-184 104.5,-184 104.5,-165 239.5,-165 239.5,-184"/>
<text text-anchor="middle" x="172" y="-172" font-family="Helvetica,sans-Serif" font-size="10.00">src/Drivers/refDriver.cpp</text>
</a>
</g>
</g>
<!-- Node10&#45;&gt;Node11 -->
<g id="edge15_Node000010_Node000011" class="edge">
<title>Node10&#45;&gt;Node11</title>
<g id="a_edge15_Node000010_Node000011"><a xlink:title=" ">
<path fill="none" stroke="#63b8ff" d="M172,-209.66C172,-200.93 172,-190.99 172,-184.09"/>
<polygon fill="#63b8ff" stroke="#63b8ff" points="168.5,-209.75 172,-219.75 175.5,-209.75 168.5,-209.75"/>
</a>
</g>
</g>
<!-- Node13&#45;&gt;Node4 -->
<g id="edge28_Node000013_Node000004" class="edge">
<title>Node13&#45;&gt;Node4</title>
<g id="a_edge28_Node000013_Node000004"><a xlink:title=" ">
<path fill="none" stroke="#63b8ff" d="M371.16,-395.87C471.75,-379.95 502.05,-391.38 595,-360 769.89,-300.96 953.57,-164.79 999.9,-129.16"/>
<polygon fill="#63b8ff" stroke="#63b8ff" points="370.5,-392.43 361.2,-397.5 371.63,-399.34 370.5,-392.43"/>
</a>
</g>
</g>
<!-- Node13&#45;&gt;Node5 -->
<g id="edge29_Node000013_Node000005" class="edge">
<title>Node13&#45;&gt;Node5</title>
<g id="a_edge29_Node000013_Node000005"><a xlink:title=" ">
<path fill="none" stroke="#63b8ff" d="M328.77,-390.41C339.95,-382.57 350.83,-372.41 357,-360 373.87,-326.06 342.54,-312.16 350,-275 361.26,-218.88 373.87,-202.64 417,-165 452.9,-133.68 464.59,-127.23 509,-110 566.62,-87.65 637.37,-75.85 682.33,-70.15"/>
<polygon fill="#63b8ff" stroke="#63b8ff" points="326.72,-387.56 320.25,-395.95 330.54,-393.43 326.72,-387.56"/>
</a>
</g>
</g>
<!-- Node13&#45;&gt;Node9 -->
<g id="edge21_Node000013_Node000009" class="edge">
<title>Node13&#45;&gt;Node9</title>
<g id="a_edge21_Node000013_Node000009"><a xlink:title=" ">
<path fill="none" stroke="#63b8ff" d="M371.44,-395.69C449.46,-381.73 556.73,-362.26 561,-360 591.95,-343.65 618.1,-309.92 629.24,-294.08"/>
<polygon fill="#63b8ff" stroke="#63b8ff" points="370.34,-392.33 361.12,-397.54 371.58,-399.22 370.34,-392.33"/>
</a>
</g>
</g>
<!-- Node13&#45;&gt;Node10 -->
<g id="edge22_Node000013_Node000010" class="edge">
<title>Node13&#45;&gt;Node10</title>
<g id="a_edge22_Node000013_Node000010"><a xlink:title=" ">
<path fill="none" stroke="#63b8ff" d="M211.38,-392.15C195.46,-384.83 180.68,-374.52 171,-360 145.43,-321.65 161.45,-261.68 168.85,-239.3"/>
<polygon fill="#63b8ff" stroke="#63b8ff" points="210.27,-395.48 220.85,-396.12 212.98,-389.03 210.27,-395.48"/>
</a>
</g>
</g>
<!-- Node13&#45;&gt;Node14 -->
<g id="edge23_Node000013_Node000014" class="edge">
<title>Node13&#45;&gt;Node14</title>
<g id="a_edge23_Node000013_Node000014"><a xlink:title=" ">
<path fill="none" stroke="#63b8ff" d="M341.87,-392.59C371.77,-382.36 409.07,-369.59 437.06,-360.01"/>
<polygon fill="#63b8ff" stroke="#63b8ff" points="340.37,-389.41 332.04,-395.95 342.63,-396.03 340.37,-389.41"/>
</a>
</g>
</g>
<!-- Node16 -->
<g id="Node000016" class="node">
<title>Node16</title>
<g id="a_Node000016"><a xlink:href="simulatorDriver_8cpp.html" target="_top" xlink:title=" ">
<polygon fill="white" stroke="#666666" points="348,-354.5 180,-354.5 180,-335.5 348,-335.5 348,-354.5"/>
<text text-anchor="middle" x="264" y="-342.5" font-family="Helvetica,sans-Serif" font-size="10.00">src/Drivers/simulatorDriver.cpp</text>
</a>
</g>
</g>
<!-- Node13&#45;&gt;Node16 -->
<g id="edge30_Node000013_Node000016" class="edge">
<title>Node13&#45;&gt;Node16</title>
<g id="a_edge30_Node000013_Node000016"><a xlink:title=" ">
<path fill="none" stroke="#63b8ff" d="M280.99,-386.28C276.36,-375.31 271.15,-362.94 267.73,-354.84"/>
<polygon fill="#63b8ff" stroke="#63b8ff" points="277.9,-387.94 285.01,-395.8 284.35,-385.22 277.9,-387.94"/>
</a>
</g>
</g>
<!-- Node14&#45;&gt;Node5 -->
<g id="edge26_Node000014_Node000005" class="edge">
<title>Node14&#45;&gt;Node5</title>
<g id="a_edge26_Node000014_Node000005"><a xlink:title=" ">
<path fill="none" stroke="#63b8ff" d="M395.75,-326.53C367.6,-316 345.7,-299.7 357,-275 403.68,-172.99 448.4,-161.61 548,-110 590.65,-87.9 644.77,-76.42 682.28,-70.7"/>
<polygon fill="#63b8ff" stroke="#63b8ff" points="394.9,-329.94 405.49,-329.88 397.17,-323.32 394.9,-329.94"/>
</a>
</g>
</g>
<!-- Node14&#45;&gt;Node9 -->
<g id="edge24_Node000014_Node000009" class="edge">
<title>Node14&#45;&gt;Node9</title>
<g id="a_edge24_Node000014_Node000009"><a xlink:title=" ">
<path fill="none" stroke="#63b8ff" d="M525.04,-326.47C553.7,-315.79 589.06,-302.62 611.81,-294.14"/>
<polygon fill="#63b8ff" stroke="#63b8ff" points="523.75,-323.22 515.61,-329.99 526.2,-329.78 523.75,-323.22"/>
</a>
</g>
</g>
<!-- Node14&#45;&gt;Node10 -->
<g id="edge25_Node000014_Node000010" class="edge">
<title>Node14&#45;&gt;Node10</title>
<g id="a_edge25_Node000014_Node000010"><a xlink:title=" ">
<path fill="none" stroke="#63b8ff" d="M422.22,-326.91C393.06,-317.7 356.9,-305.81 325,-294 276.18,-275.92 219.91,-251.67 191.13,-239"/>
<polygon fill="#63b8ff" stroke="#63b8ff" points="421.23,-330.27 431.82,-329.93 423.33,-323.6 421.23,-330.27"/>
</a>
</g>
</g>
<!-- Node15 -->
<g id="Node000015" class="node">
<title>Node15</title>
<g id="a_Node000015"><a xlink:href="transDriverModel_8cpp.html" target="_top" xlink:title=" ">
<polygon fill="white" stroke="#666666" points="543.5,-294 366.5,-294 366.5,-275 543.5,-275 543.5,-294"/>
<text text-anchor="middle" x="455" y="-282" font-family="Helvetica,sans-Serif" font-size="10.00">src/Drivers/transDriverModel.cpp</text>
</a>
</g>
</g>
<!-- Node14&#45;&gt;Node15 -->
<g id="edge27_Node000014_Node000015" class="edge">
<title>Node14&#45;&gt;Node15</title>
<g id="a_edge27_Node000014_Node000015"><a xlink:title=" ">
<path fill="none" stroke="#63b8ff" d="M468.7,-320.34C465.08,-311.14 461.16,-301.17 458.45,-294.27"/>
<polygon fill="#63b8ff" stroke="#63b8ff" points="465.52,-321.81 472.43,-329.84 472.03,-319.25 465.52,-321.81"/>
</a>
</g>
</g>
<!-- Node17&#45;&gt;Node5 -->
<g id="edge33_Node000017_Node000005" class="edge">
<title>Node17&#45;&gt;Node5</title>
<g id="a_edge33_Node000017_Node000005"><a xlink:title=" ">
<path fill="none" stroke="#63b8ff" d="M926.42,-390.9C928.27,-355.52 928.7,-278.12 903,-220 876.75,-160.66 857.44,-150.82 807,-110 788.22,-94.8 763.54,-81.96 746.58,-74.04"/>
<polygon fill="#63b8ff" stroke="#63b8ff" points="922.9,-390.99 925.77,-401.19 929.89,-391.43 922.9,-390.99"/>
</a>
</g>
</g>
<!-- Node17&#45;&gt;Node6 -->
<g id="edge34_Node000017_Node000006" class="edge">
<title>Node17&#45;&gt;Node6</title>
<g id="a_edge34_Node000017_Node000006"><a xlink:title=" ">
<path fill="none" stroke="#63b8ff" d="M939.66,-393.53C975.06,-352.49 1064.62,-240.91 1096,-129 1098.28,-120.87 1096.31,-118.44 1096,-110 1095.11,-85.51 1107.86,-73.69 1092,-55 1073.51,-33.21 995.53,-20.55 946.9,-14.63"/>
<polygon fill="#63b8ff" stroke="#63b8ff" points="936.91,-391.35 932.96,-401.19 942.18,-395.96 936.91,-391.35"/>
</a>
</g>
</g>
<!-- Node19&#45;&gt;Node5 -->
<g id="edge39_Node000019_Node000005" class="edge">
<title>Node19&#45;&gt;Node5</title>
<g id="a_edge39_Node000019_Node000005"><a xlink:title=" ">
<path fill="none" stroke="#63b8ff" d="M1550.68,-536.28C1615.37,-529.64 1704.09,-516.32 1729,-492 1755.08,-466.54 1747,-448.44 1747,-412 1747,-412 1747,-412 1747,-283.5 1747,6.07 1403.29,-165.06 1119,-110 994.43,-85.88 844.88,-73.36 771.73,-68.29"/>
<polygon fill="#63b8ff" stroke="#63b8ff" points="1550.12,-532.82 1540.52,-537.29 1550.82,-539.79 1550.12,-532.82"/>
</a>
</g>
</g>
<!-- Node20 -->
<g id="Node000020" class="node">
<title>Node20</title>
<g id="a_Node000020"><a xlink:href="generatorHelper_8cpp.html" target="_top" xlink:title=" ">
<polygon fill="white" stroke="#666666" points="1534.5,-492 1415.5,-492 1415.5,-462 1534.5,-462 1534.5,-492"/>
<text text-anchor="start" x="1423.5" y="-480" font-family="Helvetica,sans-Serif" font-size="10.00">src/TestGenerator/src</text>
<text text-anchor="middle" x="1475" y="-469" font-family="Helvetica,sans-Serif" font-size="10.00">/generatorHelper.cpp</text>
</a>
</g>
</g>
<!-- Node19&#45;&gt;Node20 -->
<g id="edge40_Node000019_Node000020" class="edge">
<title>Node19&#45;&gt;Node20</title>
<g id="a_edge40_Node000019_Node000020"><a xlink:title=" ">
<path fill="none" stroke="#63b8ff" d="M1477.47,-517.54C1476.94,-508.96 1476.35,-499.61 1475.89,-492.16"/>
<polygon fill="#63b8ff" stroke="#63b8ff" points="1474,-518.03 1478.11,-527.8 1480.98,-517.6 1474,-518.03"/>
</a>
</g>
</g>
<!-- Node21&#45;&gt;Node2 -->
<g id="edge57_Node000021_Node000002" class="edge">
<title>Node21&#45;&gt;Node2</title>
<g id="a_edge57_Node000021_Node000002"><a xlink:title=" ">
<path fill="none" stroke="#63b8ff" d="M791,-601.81C733.77,-595.08 648.78,-581.92 578,-558 522.35,-539.19 461.94,-503.27 435.58,-486.73"/>
<polygon fill="#63b8ff" stroke="#63b8ff" points="790.66,-605.3 800.99,-602.96 791.46,-598.34 790.66,-605.3"/>
</a>
</g>
</g>
<!-- Node21&#45;&gt;Node3 -->
<g id="edge56_Node000021_Node000003" class="edge">
<title>Node21&#45;&gt;Node3</title>
<g id="a_edge56_Node000021_Node000003"><a xlink:title=" ">
<path fill="none" stroke="#63b8ff" d="M858.03,-583.58C861.2,-533.73 863.63,-417.62 827,-330 799.81,-264.97 735.89,-205.92 710.58,-184.26"/>
<polygon fill="#63b8ff" stroke="#63b8ff" points="854.53,-583.49 857.31,-593.71 861.51,-583.98 854.53,-583.49"/>
</a>
</g>
</g>
<!-- Node21&#45;&gt;Node4 -->
<g id="edge65_Node000021_Node000004" class="edge">
<title>Node21&#45;&gt;Node4</title>
<g id="a_edge65_Node000021_Node000004"><a xlink:title=" ">
<path fill="none" stroke="#63b8ff" d="M877.33,-586.34C907.83,-554.14 963.58,-490.46 994,-426 1009.6,-392.95 1013,-382.54 1013,-346 1013,-346 1013,-346 1013,-228.5 1013,-191.56 1011.82,-147.52 1011.27,-129.18"/>
<polygon fill="#63b8ff" stroke="#63b8ff" points="874.54,-584.19 870.15,-593.83 879.6,-589.04 874.54,-584.19"/>
</a>
</g>
</g>
<!-- Node21&#45;&gt;Node5 -->
<g id="edge66_Node000021_Node000005" class="edge">
<title>Node21&#45;&gt;Node5</title>
<g id="a_edge66_Node000021_Node000005"><a xlink:title=" ">
<path fill="none" stroke="#63b8ff" d="M790.7,-606.31C642.63,-601.98 285.25,-588.6 169,-558 88.64,-536.85 0,-561.1 0,-478 0,-478 0,-478 0,-173.5 0,-92.43 91.84,-127.51 171,-110 357.74,-68.69 587.27,-64.63 682.42,-64.94"/>
<polygon fill="#63b8ff" stroke="#63b8ff" points="790.89,-609.81 800.99,-606.6 791.1,-602.82 790.89,-609.81"/>
</a>
</g>
</g>
<!-- Node21&#45;&gt;Node6 -->
<g id="edge68_Node000021_Node000006" class="edge">
<title>Node21&#45;&gt;Node6</title>
<g id="a_edge68_Node000021_Node000006"><a xlink:title=" ">
<path fill="none" stroke="#63b8ff" d="M921.11,-608.6C1044.86,-608.57 1322.04,-602.93 1550,-558 1658.25,-536.67 1785,-588.33 1785,-478 1785,-478 1785,-478 1785,-118.5 1785,-32.83 1118.02,-14.45 946.72,-11.15"/>
<polygon fill="#63b8ff" stroke="#63b8ff" points="921.04,-605.1 911.04,-608.59 921.04,-612.1 921.04,-605.1"/>
</a>
</g>
</g>
<!-- Node21&#45;&gt;Node9 -->
<g id="edge58_Node000021_Node000009" class="edge">
<title>Node21&#45;&gt;Node9</title>
<g id="a_edge58_Node000021_Node000009"><a xlink:title=" ">
<path fill="none" stroke="#63b8ff" d="M840.51,-585.4C796.09,-520.58 669.6,-335.99 640.86,-294.05"/>
<polygon fill="#63b8ff" stroke="#63b8ff" points="837.68,-587.46 846.22,-593.73 843.45,-583.5 837.68,-587.46"/>
</a>
</g>
</g>
<!-- Node21&#45;&gt;Node10 -->
<g id="edge59_Node000021_Node000010" class="edge">
<title>Node21&#45;&gt;Node10</title>
<g id="a_edge59_Node000021_Node000010"><a xlink:title=" ">
<path fill="none" stroke="#63b8ff" d="M790.84,-603.99C603.38,-591.58 76,-550.25 76,-478 76,-478 76,-478 76,-344 76,-294.71 129.44,-255.79 156.58,-239.2"/>
<polygon fill="#63b8ff" stroke="#63b8ff" points="790.63,-607.48 800.84,-604.64 791.09,-600.5 790.63,-607.48"/>
</a>
</g>
</g>
<!-- Node21&#45;&gt;Node14 -->
<g id="edge60_Node000021_Node000014" class="edge">
<title>Node21&#45;&gt;Node14</title>
<g id="a_edge60_Node000021_Node000014"><a xlink:title=" ">
<path fill="none" stroke="#63b8ff" d="M790.65,-602.86C720.09,-596.32 604.79,-582.79 508,-558 427.07,-537.27 407.91,-526.89 332,-492 276.69,-466.58 242.98,-478.39 212,-426 205.21,-414.52 203.49,-406.26 212,-396 224.26,-381.22 329.36,-364.92 403.71,-355.08"/>
<polygon fill="#63b8ff" stroke="#63b8ff" points="790.46,-606.35 800.73,-603.77 791.09,-599.38 790.46,-606.35"/>
</a>
</g>
</g>
<!-- Node21&#45;&gt;Node17 -->
<g id="edge61_Node000021_Node000017" class="edge">
<title>Node21&#45;&gt;Node17</title>
<g id="a_edge61_Node000021_Node000017"><a xlink:title=" ">
<path fill="none" stroke="#63b8ff" d="M861.6,-583.8C868.74,-554.44 882.2,-503.69 899,-462 905.07,-446.94 914.2,-430.38 919.87,-420.61"/>
<polygon fill="#63b8ff" stroke="#63b8ff" points="858.18,-583.06 859.26,-593.6 864.99,-584.68 858.18,-583.06"/>
</a>
</g>
</g>
<!-- Node22 -->
<g id="Node000022" class="node">
<title>Node22</title>
<g id="a_Node000022"><a xlink:href="channel_8h.html" target="_top" xlink:title=" ">
<polygon fill="white" stroke="#666666" points="732.5,-552.5 587.5,-552.5 587.5,-533.5 732.5,-533.5 732.5,-552.5"/>
<text text-anchor="middle" x="660" y="-540.5" font-family="Helvetica,sans-Serif" font-size="10.00">include/Channel/channel.h</text>
</a>
</g>
</g>
<!-- Node21&#45;&gt;Node22 -->
<g id="edge42_Node000021_Node000022" class="edge">
<title>Node21&#45;&gt;Node22</title>
<g id="a_edge42_Node000021_Node000022"><a xlink:title=" ">
<path fill="none" stroke="#63b8ff" d="M803.13,-590.74C765.24,-578.36 715.83,-562.23 686.08,-552.52"/>
<polygon fill="#63b8ff" stroke="#63b8ff" points="802.39,-594.18 812.99,-593.95 804.57,-587.52 802.39,-594.18"/>
</a>
</g>
</g>
<!-- Node24 -->
<g id="Node000024" class="node">
<title>Node24</title>
<g id="a_Node000024"><a xlink:href="database_8h.html" target="_top" xlink:title=" ">
<polygon fill="white" stroke="#666666" points="1361,-552.5 1203,-552.5 1203,-533.5 1361,-533.5 1361,-552.5"/>
<text text-anchor="middle" x="1282" y="-540.5" font-family="Helvetica,sans-Serif" font-size="10.00">include/Database/database.h</text>
</a>
</g>
</g>
<!-- Node21&#45;&gt;Node24 -->
<g id="edge49_Node000021_Node000024" class="edge">
<title>Node21&#45;&gt;Node24</title>
<g id="a_edge49_Node000021_Node000024"><a xlink:title=" ">
<path fill="none" stroke="#63b8ff" d="M921.33,-598.19C1004.37,-585.71 1146.37,-564.38 1225.15,-552.54"/>
<polygon fill="#63b8ff" stroke="#63b8ff" points="920.62,-594.75 911.26,-599.7 921.66,-601.67 920.62,-594.75"/>
</a>
</g>
</g>
<!-- Node21&#45;&gt;Node27 -->
<g id="edge67_Node000021_Node000027" class="edge">
<title>Node21&#45;&gt;Node27</title>
<g id="a_edge67_Node000021_Node000027"><a xlink:title=" ">
<path fill="none" stroke="#63b8ff" d="M921.48,-606.11C1041.09,-601.93 1289.99,-589.62 1370,-558 1390.34,-549.96 1389.18,-537.24 1409,-528 1439.77,-513.66 1528.15,-496.57 1585.12,-486.54"/>
<polygon fill="#63b8ff" stroke="#63b8ff" points="921.23,-602.62 911.36,-606.46 921.47,-609.61 921.23,-602.62"/>
</a>
</g>
</g>
<!-- Node28 -->
<g id="Node000028" class="node">
<title>Node28</title>
<g id="a_Node000028"><a xlink:href="reporter_8h.html" target="_top" xlink:title=" ">
<polygon fill="white" stroke="#666666" points="1088.5,-552.5 941.5,-552.5 941.5,-533.5 1088.5,-533.5 1088.5,-552.5"/>
<text text-anchor="middle" x="1015" y="-540.5" font-family="Helvetica,sans-Serif" font-size="10.00">include/Reporter/reporter.h</text>
</a>
</g>
</g>
<!-- Node21&#45;&gt;Node28 -->
<g id="edge62_Node000021_Node000028" class="edge">
<title>Node21&#45;&gt;Node28</title>
<g id="a_edge62_Node000021_Node000028"><a xlink:title=" ">
<path fill="none" stroke="#63b8ff" d="M900.47,-590.1C930.99,-577.82 970.12,-562.06 993.84,-552.52"/>
<polygon fill="#63b8ff" stroke="#63b8ff" points="898.86,-586.97 890.89,-593.95 901.48,-593.47 898.86,-586.97"/>
</a>
</g>
</g>
<!-- Node22&#45;&gt;Node2 -->
<g id="edge43_Node000022_Node000002" class="edge">
<title>Node22&#45;&gt;Node2</title>
<g id="a_edge43_Node000022_Node000002"><a xlink:title=" ">
<path fill="none" stroke="#63b8ff" d="M618.06,-530.72C571.19,-518.12 496.34,-497.99 453.97,-486.6"/>
<polygon fill="#63b8ff" stroke="#63b8ff" points="617.34,-534.15 627.9,-533.37 619.15,-527.39 617.34,-534.15"/>
</a>
</g>
</g>
<!-- Node22&#45;&gt;Node5 -->
<g id="edge46_Node000022_Node000005" class="edge">
<title>Node22&#45;&gt;Node5</title>
<g id="a_edge46_Node000022_Node000005"><a xlink:title=" ">
<path fill="none" stroke="#63b8ff" d="M628.75,-528.88C613.52,-520.69 596.64,-508.53 588,-492 581.82,-480.19 580.65,-473.13 588,-462 651.65,-365.63 763.35,-456.37 827,-360 893.21,-259.75 768.79,-111.3 735.09,-74.16"/>
<polygon fill="#63b8ff" stroke="#63b8ff" points="627.43,-532.13 637.94,-533.47 630.56,-525.87 627.43,-532.13"/>
</a>
</g>
</g>
<!-- Node22&#45;&gt;Node6 -->
<g id="edge48_Node000022_Node000006" class="edge">
<title>Node22&#45;&gt;Node6</title>
<g id="a_edge48_Node000022_Node000006"><a xlink:title=" ">
<path fill="none" stroke="#63b8ff" d="M742.75,-533.23C841.2,-517.69 1000.23,-475.17 1064,-360 1130.37,-240.13 1195.8,-161.02 1109,-55 1088.81,-30.34 999.51,-18.48 946.64,-13.53"/>
<polygon fill="#63b8ff" stroke="#63b8ff" points="742.19,-529.77 732.83,-534.73 743.24,-536.69 742.19,-529.77"/>
</a>
</g>
</g>
<!-- Node22&#45;&gt;Node9 -->
<g id="edge44_Node000022_Node000009" class="edge">
<title>Node22&#45;&gt;Node9</title>
<g id="a_edge44_Node000022_Node000009"><a xlink:title=" ">
<path fill="none" stroke="#63b8ff" d="M608.58,-530.27C588.27,-522.85 566.96,-510.94 555,-492 547.88,-480.73 550.57,-474.57 555,-462 561.83,-442.62 571.93,-442.63 584,-426 604.56,-397.67 615.25,-392.98 627,-360 635.12,-337.21 635.66,-308.21 635.35,-294.05"/>
<polygon fill="#63b8ff" stroke="#63b8ff" points="607.52,-533.61 618.12,-533.47 609.75,-526.97 607.52,-533.61"/>
</a>
</g>
</g>
<!-- Node22&#45;&gt;Node17 -->
<g id="edge45_Node000022_Node000017" class="edge">
<title>Node22&#45;&gt;Node17</title>
<g id="a_edge45_Node000022_Node000017"><a xlink:title=" ">
<path fill="none" stroke="#63b8ff" d="M686.68,-528.91C740.82,-502.35 862.27,-442.77 907.55,-420.56"/>
<polygon fill="#63b8ff" stroke="#63b8ff" points="684.82,-525.92 677.39,-533.47 687.91,-532.21 684.82,-525.92"/>
</a>
</g>
</g>
<!-- Node23 -->
<g id="Node000023" class="node">
<title>Node23</title>
<g id="a_Node000023"><a xlink:href="channel_8cpp.html" target="_top" xlink:title=" ">
<polygon fill="white" stroke="#666666" points="732.5,-486.5 597.5,-486.5 597.5,-467.5 732.5,-467.5 732.5,-486.5"/>
<text text-anchor="middle" x="665" y="-474.5" font-family="Helvetica,sans-Serif" font-size="10.00">src/Channel/channel.cpp</text>
</a>
</g>
</g>
<!-- Node22&#45;&gt;Node23 -->
<g id="edge47_Node000022_Node000023" class="edge">
<title>Node22&#45;&gt;Node23</title>
<g id="a_edge47_Node000022_Node000023"><a xlink:title=" ">
<path fill="none" stroke="#63b8ff" d="M661.48,-523.08C662.41,-511.13 663.58,-496.22 664.3,-486.91"/>
<polygon fill="#63b8ff" stroke="#63b8ff" points="657.96,-523.13 660.67,-533.37 664.94,-523.67 657.96,-523.13"/>
</a>
</g>
</g>
<!-- Node24&#45;&gt;Node4 -->
<g id="edge50_Node000024_Node000004" class="edge">
<title>Node24&#45;&gt;Node4</title>
<g id="a_edge50_Node000024_Node000004"><a xlink:title=" ">
<path fill="none" stroke="#63b8ff" d="M1321.94,-529.44C1339.65,-521.66 1358.77,-509.68 1369,-492 1375.68,-480.46 1374.25,-474.26 1369,-462 1294.97,-289.07 1085.61,-162.09 1026.63,-129"/>
<polygon fill="#63b8ff" stroke="#63b8ff" points="1320.26,-526.35 1312.31,-533.35 1322.89,-532.84 1320.26,-526.35"/>
</a>
</g>
</g>
<!-- Node24&#45;&gt;Node5 -->
<g id="edge51_Node000024_Node000005" class="edge">
<title>Node24&#45;&gt;Node5</title>
<g id="a_edge51_Node000024_Node000005"><a xlink:title=" ">
<path fill="none" stroke="#63b8ff" d="M1250.04,-528.92C1233.47,-520.62 1214.21,-508.35 1202,-492 1096.58,-350.83 1229.61,-224.86 1096,-110 1071.78,-89.18 864.29,-73.95 771.51,-68.11"/>
<polygon fill="#63b8ff" stroke="#63b8ff" points="1248.87,-532.24 1259.41,-533.34 1251.86,-525.91 1248.87,-532.24"/>
</a>
</g>
</g>
<!-- Node24&#45;&gt;Node20 -->
<g id="edge54_Node000024_Node000020" class="edge">
<title>Node24&#45;&gt;Node20</title>
<g id="a_edge54_Node000024_Node000020"><a xlink:title=" ">
<path fill="none" stroke="#63b8ff" d="M1317.56,-530.21C1350,-519.45 1397.97,-503.54 1432.43,-492.12"/>
<polygon fill="#63b8ff" stroke="#63b8ff" points="1316.42,-526.9 1308.03,-533.37 1318.62,-533.54 1316.42,-526.9"/>
</a>
</g>
</g>
<!-- Node25 -->
<g id="Node000025" class="node">
<title>Node25</title>
<g id="a_Node000025"><a xlink:href="database_8cpp.html" target="_top" xlink:title=" ">
<polygon fill="white" stroke="#666666" points="1359.5,-486.5 1210.5,-486.5 1210.5,-467.5 1359.5,-467.5 1359.5,-486.5"/>
<text text-anchor="middle" x="1285" y="-474.5" font-family="Helvetica,sans-Serif" font-size="10.00">src/Database/database.cpp</text>
</a>
</g>
</g>
<!-- Node24&#45;&gt;Node25 -->
<g id="edge52_Node000024_Node000025" class="edge">
<title>Node24&#45;&gt;Node25</title>
<g id="a_edge52_Node000024_Node000025"><a xlink:title=" ">
<path fill="none" stroke="#63b8ff" d="M1282.89,-523.08C1283.45,-511.13 1284.15,-496.22 1284.58,-486.91"/>
<polygon fill="#63b8ff" stroke="#63b8ff" points="1279.38,-523.22 1282.4,-533.37 1286.37,-523.54 1279.38,-523.22"/>
</a>
</g>
</g>
<!-- Node26 -->
<g id="Node000026" class="node">
<title>Node26</title>
<g id="a_Node000026"><a xlink:href="reporter_8cpp.html" target="_top" xlink:title=" ">
<polygon fill="white" stroke="#666666" points="1154.5,-486.5 1017.5,-486.5 1017.5,-467.5 1154.5,-467.5 1154.5,-486.5"/>
<text text-anchor="middle" x="1086" y="-474.5" font-family="Helvetica,sans-Serif" font-size="10.00">src/Reporter/reporter.cpp</text>
</a>
</g>
</g>
<!-- Node24&#45;&gt;Node26 -->
<g id="edge53_Node000024_Node000026" class="edge">
<title>Node24&#45;&gt;Node26</title>
<g id="a_edge53_Node000024_Node000026"><a xlink:title=" ">
<path fill="none" stroke="#63b8ff" d="M1245.75,-530.16C1207.06,-517.53 1146.71,-497.82 1112.33,-486.6"/>
<polygon fill="#63b8ff" stroke="#63b8ff" points="1244.97,-533.59 1255.57,-533.37 1247.15,-526.94 1244.97,-533.59"/>
</a>
</g>
</g>
<!-- Node24&#45;&gt;Node27 -->
<g id="edge55_Node000024_Node000027" class="edge">
<title>Node24&#45;&gt;Node27</title>
<g id="a_edge55_Node000024_Node000027"><a xlink:title=" ">
<path fill="none" stroke="#63b8ff" d="M1339.27,-531.65C1408.7,-519.09 1524.41,-498.17 1588.91,-486.51"/>
<polygon fill="#63b8ff" stroke="#63b8ff" points="1338.59,-528.21 1329.37,-533.44 1339.84,-535.1 1338.59,-528.21"/>
</a>
</g>
</g>
<!-- Node28&#45;&gt;Node4 -->
<g id="edge63_Node000028_Node000004" class="edge">
<title>Node28&#45;&gt;Node4</title>
<g id="a_edge63_Node000028_Node000004"><a xlink:title=" ">
<path fill="none" stroke="#63b8ff" d="M1010.47,-523.56C1007.19,-507.18 1004.11,-482.71 1009,-462 1013.11,-444.59 1020.41,-442.63 1027,-426 1040.68,-391.49 1051,-383.12 1051,-346 1051,-346 1051,-346 1051,-228.5 1051,-189.31 1027.55,-146.82 1016.56,-129.06"/>
<polygon fill="#63b8ff" stroke="#63b8ff" points="1007.09,-524.46 1012.68,-533.46 1013.92,-522.94 1007.09,-524.46"/>
</a>
</g>
</g>
<!-- Node28&#45;&gt;Node26 -->
<g id="edge64_Node000028_Node000026" class="edge">
<title>Node28&#45;&gt;Node26</title>
<g id="a_edge64_Node000028_Node000026"><a xlink:title=" ">
<path fill="none" stroke="#63b8ff" d="M1032.38,-526.33C1046.13,-513.94 1064.83,-497.09 1076.12,-486.91"/>
<polygon fill="#63b8ff" stroke="#63b8ff" points="1029.66,-524.07 1024.58,-533.37 1034.35,-529.27 1029.66,-524.07"/>
</a>
</g>
</g>
</g>
</svg>

<g id="navigator" transform="translate(0 0)" fill="#404254">
  <rect fill="#f2f5e9" fill-opacity="0.5" stroke="#606060" stroke-width=".5" x="0" y="0" width="60" height="60"/>
  <use id="zoomplus" xlink:href="#zoomPlus" x="17" y="9" onmousedown="handleZoom(evt,'in')"/>
  <use id="zoomminus" xlink:href="#zoomMin" x="42" y="9" onmousedown="handleZoom(evt,'out')"/>
  <use id="reset" xlink:href="#resetDef" x="30" y="36" onmousedown="handleReset()"/>
   <use id="arrowup" xlink:href="#arrowUp" x="0" y="0" onmousedown="handlePan(0,-1)"/>
  <use id="arrowright" xlink:href="#arrowRight" x="0" y="0" onmousedown="handlePan(1,0)"/>
  <use id="arrowdown" xlink:href="#arrowDown" x="0" y="0" onmousedown="handlePan(0,1)"/>
  <use id="arrowleft" xlink:href="#arrowLeft" x="0" y="0" onmousedown="handlePan(-1,0)"/>
</g>
<svg viewBox="0 0 15 15" width="100%" height="30px" preserveAspectRatio="xMaxYMin meet">
 <g id="arrow_out" transform="scale(0.3 0.3)">
  <a xlink:href="error_8h__dep__incl_org.svg" target="_base">
   <rect id="button" ry="5" rx="5" y="6" x="6" height="38" width="38"
        fill="#f2f5e9" fill-opacity="0.5" stroke="#606060" stroke-width="1.0"/>
   <path id="arrow"
     d="M 11.500037,31.436501 C 11.940474,20.09759 22.043105,11.32322 32.158766,21.979434 L 37.068811,17.246167 C 37.068811,17.246167 37.088388,32 37.088388,32 L 22.160133,31.978069 C 22.160133,31.978069 26.997745,27.140456 26.997745,27.140456 C 18.528582,18.264221 13.291696,25.230495 11.500037,31.436501 z"
     style="fill:#404040;"/>
  </a>
 </g>
</svg>

<style type='text/css'>
<![CDATA[
[data-mouse-over-selected='false'] { opacity: 0.7; }
[data-mouse-over-selected='true']  { opacity: 1.0; }
]]>
</style>
<script type="application/ecmascript"><![CDATA[
document.addEventListener('DOMContentLoaded', (event) => {
  highlightEdges();
  highlightAdjacentNodes();
});
]]></script>
</svg>
