<?xml version="1.0" encoding="UTF-8" standalone="no"?>
<!DOCTYPE svg PUBLIC "-//W3C//DTD SVG 1.1//EN"
 "http://www.w3.org/Graphics/SVG/1.1/DTD/svg11.dtd">
<!-- Generated by graphviz version 2.43.0 (0)
 -->
<!-- Title: include/Library/error.h Pages: 1 -->
<svg width="1987pt" height="742pt"
 viewBox="0.00 0.00 1986.76 742.00" xmlns="http://www.w3.org/2000/svg" xmlns:xlink="http://www.w3.org/1999/xlink">
<g id="graph0" class="graph" transform="scale(1 1) rotate(0) translate(4 738)">
<title>include/Library/error.h</title>
<!-- Node1 -->
<g id="Node000001" class="node">
<title>Node1</title>
<g id="a_Node000001"><a xlink:title=" ">
<polygon fill="#999999" stroke="#666666" points="1012.5,-734 889.5,-734 889.5,-715 1012.5,-715 1012.5,-734"/>
<text text-anchor="middle" x="951" y="-722" font-family="Helvetica,sans-Serif" font-size="10.00">include/Library/error.h</text>
</a>
</g>
</g>
<!-- Node2 -->
<g id="Node000002" class="node">
<title>Node2</title>
<g id="a_Node000002"><a xlink:href="driverModel_8h.html" target="_top" xlink:title=" ">
<polygon fill="white" stroke="#666666" points="578.5,-558 417.5,-558 417.5,-539 578.5,-539 578.5,-558"/>
<text text-anchor="middle" x="498" y="-546" font-family="Helvetica,sans-Serif" font-size="10.00">include/Drivers/driverModel.h</text>
</a>
</g>
</g>
<!-- Node1&#45;&gt;Node2 -->
<g id="edge1_Node000001_Node000002" class="edge">
<title>Node1&#45;&gt;Node2</title>
<g id="a_edge1_Node000001_Node000002"><a xlink:title=" ">
<path fill="none" stroke="#63b8ff" d="M879.19,-719.54C747.07,-710.59 473.65,-683.77 416,-613 396.61,-589.2 439.42,-568.93 470.18,-558.05"/>
<polygon fill="#63b8ff" stroke="#63b8ff" points="879.01,-723.03 889.22,-720.2 879.48,-716.05 879.01,-723.03"/>
</a>
</g>
</g>
<!-- Node5 -->
<g id="Node000005" class="node">
<title>Node5</title>
<g id="a_Node000005"><a xlink:href="mlvp_8h.html" target="_top" xlink:title=" ">
<polygon fill="white" stroke="#666666" points="875.5,-74 786.5,-74 786.5,-55 875.5,-55 875.5,-74"/>
<text text-anchor="middle" x="831" y="-62" font-family="Helvetica,sans-Serif" font-size="10.00">include/mlvp.h</text>
</a>
</g>
</g>
<!-- Node1&#45;&gt;Node5 -->
<g id="edge72_Node000001_Node000005" class="edge">
<title>Node1&#45;&gt;Node5</title>
<g id="a_edge72_Node000001_Node000005"><a xlink:title=" ">
<path fill="none" stroke="#63b8ff" d="M879.12,-722.05C657.56,-716.62 0,-693.05 0,-604.5 0,-604.5 0,-604.5 0,-190 0,-145.56 20.84,-131.01 60,-110 123.98,-75.67 631.75,-67.58 786.43,-65.9"/>
<polygon fill="#63b8ff" stroke="#63b8ff" points="879.25,-725.55 889.33,-722.29 879.42,-718.55 879.25,-725.55"/>
</a>
</g>
</g>
<!-- Node21 -->
<g id="Node000021" class="node">
<title>Node21</title>
<g id="a_Node000021"><a xlink:href="generatorHelper_8h.html" target="_top" xlink:title=" ">
<polygon fill="white" stroke="#666666" points="1815.5,-206 1692.5,-206 1692.5,-176 1815.5,-176 1815.5,-206"/>
<text text-anchor="start" x="1700.5" y="-194" font-family="Helvetica,sans-Serif" font-size="10.00">include/TestGenerator</text>
<text text-anchor="middle" x="1754" y="-183" font-family="Helvetica,sans-Serif" font-size="10.00">/generatorHelper.h</text>
</a>
</g>
</g>
<!-- Node1&#45;&gt;Node21 -->
<g id="edge38_Node000001_Node000021" class="edge">
<title>Node1&#45;&gt;Node21</title>
<g id="a_edge38_Node000001_Node000021"><a xlink:title=" ">
<path fill="none" stroke="#63b8ff" d="M1022.64,-718.9C1214.41,-705.92 1728.51,-666.43 1782,-613 1838.79,-556.27 1806,-514.27 1806,-434 1806,-434 1806,-434 1806,-305.5 1806,-266.7 1780.58,-226.67 1765.28,-206.1"/>
<polygon fill="#63b8ff" stroke="#63b8ff" points="1022.41,-715.41 1012.66,-719.57 1022.88,-722.39 1022.41,-715.41"/>
</a>
</g>
</g>
<!-- Node23 -->
<g id="Node000023" class="node">
<title>Node23</title>
<g id="a_Node000023"><a xlink:href="transaction_8h_source.html" target="_top" xlink:title=" ">
<polygon fill="white" stroke="#666666" points="1006,-679 896,-679 896,-649 1006,-649 1006,-679"/>
<text text-anchor="start" x="904" y="-667" font-family="Helvetica,sans-Serif" font-size="10.00">include/Transaction</text>
<text text-anchor="middle" x="951" y="-656" font-family="Helvetica,sans-Serif" font-size="10.00">/transaction.h</text>
</a>
</g>
</g>
<!-- Node1&#45;&gt;Node23 -->
<g id="edge41_Node000001_Node000023" class="edge">
<title>Node1&#45;&gt;Node23</title>
<g id="a_edge41_Node000001_Node000023"><a xlink:title=" ">
<path fill="none" stroke="#63b8ff" d="M951,-704.65C951,-696.36 951,-686.78 951,-679.11"/>
<polygon fill="#63b8ff" stroke="#63b8ff" points="947.5,-704.87 951,-714.87 954.5,-704.87 947.5,-704.87"/>
</a>
</g>
</g>
<!-- Node29 -->
<g id="Node000029" class="node">
<title>Node29</title>
<g id="a_Node000029"><a xlink:href="transaction_8cpp.html" target="_top" xlink:title=" ">
<polygon fill="white" stroke="#666666" points="1964.5,-134.5 1797.5,-134.5 1797.5,-115.5 1964.5,-115.5 1964.5,-134.5"/>
<text text-anchor="middle" x="1881" y="-122.5" font-family="Helvetica,sans-Serif" font-size="10.00">src/Transaction/transaction.cpp</text>
</a>
</g>
</g>
<!-- Node1&#45;&gt;Node29 -->
<g id="edge73_Node000001_Node000029" class="edge">
<title>Node1&#45;&gt;Node29</title>
<g id="a_edge73_Node000001_Node000029"><a xlink:title=" ">
<path fill="none" stroke="#63b8ff" d="M1022.88,-721.85C1241.24,-715.88 1882,-691.02 1882,-604.5 1882,-604.5 1882,-604.5 1882,-250.5 1882,-207.05 1881.38,-155.08 1881.12,-134.75"/>
<polygon fill="#63b8ff" stroke="#63b8ff" points="1022.71,-718.35 1012.81,-722.12 1022.9,-725.35 1022.71,-718.35"/>
</a>
</g>
</g>
<!-- Node3 -->
<g id="Node000003" class="node">
<title>Node3</title>
<g id="a_Node000003"><a xlink:href="driver_8h.html" target="_top" xlink:title=" ">
<polygon fill="white" stroke="#666666" points="852,-200.5 722,-200.5 722,-181.5 852,-181.5 852,-200.5"/>
<text text-anchor="middle" x="787" y="-188.5" font-family="Helvetica,sans-Serif" font-size="10.00">include/Drivers/driver.h</text>
</a>
</g>
</g>
<!-- Node2&#45;&gt;Node3 -->
<g id="edge2_Node000002_Node000003" class="edge">
<title>Node2&#45;&gt;Node3</title>
<g id="a_edge2_Node000002_Node000003"><a xlink:title=" ">
<path fill="none" stroke="#63b8ff" d="M502.11,-528.89C510.78,-492.5 533.45,-410.37 573,-352 613.4,-292.37 633.19,-283.57 692,-242 716.35,-224.79 747.37,-209.56 767.21,-200.56"/>
<polygon fill="#63b8ff" stroke="#63b8ff" points="498.7,-528.11 499.87,-538.64 505.52,-529.68 498.7,-528.11"/>
</a>
</g>
</g>
<!-- Node2&#45;&gt;Node5 -->
<g id="edge36_Node000002_Node000005" class="edge">
<title>Node2&#45;&gt;Node5</title>
<g id="a_edge36_Node000002_Node000005"><a xlink:title=" ">
<path fill="none" stroke="#63b8ff" d="M407.23,-539.44C353,-532.82 290.89,-521.45 271,-503 247.68,-481.37 252,-465.81 252,-434 252,-434 252,-434 252,-190 252,-141.26 283.18,-131.32 327,-110 407.37,-70.89 678.44,-65.84 786.24,-65.41"/>
<polygon fill="#63b8ff" stroke="#63b8ff" points="406.91,-542.93 417.25,-540.62 407.73,-535.98 406.91,-542.93"/>
</a>
</g>
</g>
<!-- Node9 -->
<g id="Node000009" class="node">
<title>Node9</title>
<g id="a_Node000009"><a xlink:href="dutDriver_8h.html" target="_top" xlink:title=" ">
<polygon fill="white" stroke="#666666" points="859.5,-316 712.5,-316 712.5,-297 859.5,-297 859.5,-316"/>
<text text-anchor="middle" x="786" y="-304" font-family="Helvetica,sans-Serif" font-size="10.00">include/Drivers/dutDriver.h</text>
</a>
</g>
</g>
<!-- Node2&#45;&gt;Node9 -->
<g id="edge9_Node000002_Node000009" class="edge">
<title>Node2&#45;&gt;Node9</title>
<g id="a_edge9_Node000002_Node000009"><a xlink:title=" ">
<path fill="none" stroke="#63b8ff" d="M520.09,-532.98C530.45,-525.19 542.2,-514.76 550,-503 588.91,-444.3 546.37,-399.88 598,-352 615.83,-335.47 673.78,-323.38 720.67,-316.02"/>
<polygon fill="#63b8ff" stroke="#63b8ff" points="517.93,-530.22 511.83,-538.89 522,-535.92 517.93,-530.22"/>
</a>
</g>
</g>
<!-- Node10 -->
<g id="Node000010" class="node">
<title>Node10</title>
<g id="a_Node000010"><a xlink:href="refDriver_8h.html" target="_top" xlink:title=" ">
<polygon fill="white" stroke="#666666" points="613.5,-261 468.5,-261 468.5,-242 613.5,-242 613.5,-261"/>
<text text-anchor="middle" x="541" y="-249" font-family="Helvetica,sans-Serif" font-size="10.00">include/Drivers/refDriver.h</text>
</a>
</g>
</g>
<!-- Node2&#45;&gt;Node10 -->
<g id="edge17_Node000002_Node000010" class="edge">
<title>Node2&#45;&gt;Node10</title>
<g id="a_edge17_Node000002_Node000010"><a xlink:title=" ">
<path fill="none" stroke="#63b8ff" d="M483.47,-531.45C446.71,-490.79 352.76,-386.62 351,-382 346.26,-369.54 347.62,-364.9 351,-352 358.12,-324.86 359.92,-314.32 382,-297 406.58,-277.71 439.06,-266.78 468.25,-260.59"/>
<polygon fill="#63b8ff" stroke="#63b8ff" points="480.9,-533.83 490.21,-538.9 486.1,-529.13 480.9,-533.83"/>
</a>
</g>
</g>
<!-- Node13 -->
<g id="Node000013" class="node">
<title>Node13</title>
<g id="a_Node000013"><a xlink:href="simulatorDriver_8h.html" target="_top" xlink:title=" ">
<polygon fill="white" stroke="#666666" points="818,-448 678,-448 678,-418 818,-418 818,-448"/>
<text text-anchor="start" x="686" y="-436" font-family="Helvetica,sans-Serif" font-size="10.00">include/Drivers/simulator</text>
<text text-anchor="middle" x="748" y="-425" font-family="Helvetica,sans-Serif" font-size="10.00">Driver.h</text>
</a>
</g>
</g>
<!-- Node2&#45;&gt;Node13 -->
<g id="edge18_Node000002_Node000013" class="edge">
<title>Node2&#45;&gt;Node13</title>
<g id="a_edge18_Node000002_Node000013"><a xlink:title=" ">
<path fill="none" stroke="#63b8ff" d="M526.08,-534.75C573.16,-513.38 667.66,-470.47 716.76,-448.18"/>
<polygon fill="#63b8ff" stroke="#63b8ff" points="524.45,-531.65 516.79,-538.97 527.34,-538.02 524.45,-531.65"/>
</a>
</g>
</g>
<!-- Node14 -->
<g id="Node000014" class="node">
<title>Node14</title>
<g id="a_Node000014"><a xlink:href="transDriverModel_8h.html" target="_top" xlink:title=" ">
<polygon fill="white" stroke="#666666" points="508,-382 360,-382 360,-352 508,-352 508,-382"/>
<text text-anchor="start" x="368" y="-370" font-family="Helvetica,sans-Serif" font-size="10.00">include/Drivers/transDriver</text>
<text text-anchor="middle" x="434" y="-359" font-family="Helvetica,sans-Serif" font-size="10.00">Model.h</text>
</a>
</g>
</g>
<!-- Node2&#45;&gt;Node14 -->
<g id="edge30_Node000002_Node000014" class="edge">
<title>Node2&#45;&gt;Node14</title>
<g id="a_edge30_Node000002_Node000014"><a xlink:title=" ">
<path fill="none" stroke="#63b8ff" d="M491.47,-529.19C478.68,-493.33 450.58,-414.51 439.07,-382.22"/>
<polygon fill="#63b8ff" stroke="#63b8ff" points="488.26,-530.6 494.91,-538.84 494.85,-528.25 488.26,-530.6"/>
</a>
</g>
</g>
<!-- Node17 -->
<g id="Node000017" class="node">
<title>Node17</title>
<g id="a_Node000017"><a xlink:href="ref_8h.html" target="_top" xlink:title=" ">
<polygon fill="white" stroke="#666666" points="185.5,-503 66.5,-503 66.5,-484 185.5,-484 185.5,-503"/>
<text text-anchor="middle" x="126" y="-491" font-family="Helvetica,sans-Serif" font-size="10.00">include/RefPack/ref.h</text>
</a>
</g>
</g>
<!-- Node2&#45;&gt;Node17 -->
<g id="edge31_Node000002_Node000017" class="edge">
<title>Node2&#45;&gt;Node17</title>
<g id="a_edge31_Node000002_Node000017"><a xlink:title=" ">
<path fill="none" stroke="#63b8ff" d="M428.19,-537.55C358.24,-527.59 251.72,-512.41 185.62,-502.99"/>
<polygon fill="#63b8ff" stroke="#63b8ff" points="427.84,-541.04 438.23,-538.98 428.83,-534.11 427.84,-541.04"/>
</a>
</g>
</g>
<!-- Node18 -->
<g id="Node000018" class="node">
<title>Node18</title>
<g id="a_Node000018"><a xlink:href="simulator_8h.html" target="_top" xlink:title=" ">
<polygon fill="white" stroke="#666666" points="914,-503 754,-503 754,-484 914,-484 914,-503"/>
<text text-anchor="middle" x="834" y="-491" font-family="Helvetica,sans-Serif" font-size="10.00">include/Simulator/simulator.h</text>
</a>
</g>
</g>
<!-- Node2&#45;&gt;Node18 -->
<g id="edge33_Node000002_Node000018" class="edge">
<title>Node2&#45;&gt;Node18</title>
<g id="a_edge33_Node000002_Node000018"><a xlink:title=" ">
<path fill="none" stroke="#63b8ff" d="M562.21,-537.37C625.3,-527.42 720.51,-512.4 779.87,-503.04"/>
<polygon fill="#63b8ff" stroke="#63b8ff" points="561.32,-533.97 551.98,-538.98 562.41,-540.88 561.32,-533.97"/>
</a>
</g>
</g>
<!-- Node20 -->
<g id="Node000020" class="node">
<title>Node20</title>
<g id="a_Node000020"><a xlink:href="driverModel_8cpp.html" target="_top" xlink:title=" ">
<polygon fill="white" stroke="#666666" points="431.5,-503 280.5,-503 280.5,-484 431.5,-484 431.5,-503"/>
<text text-anchor="middle" x="356" y="-491" font-family="Helvetica,sans-Serif" font-size="10.00">src/Drivers/driverModel.cpp</text>
</a>
</g>
</g>
<!-- Node2&#45;&gt;Node20 -->
<g id="edge37_Node000002_Node000020" class="edge">
<title>Node2&#45;&gt;Node20</title>
<g id="a_edge37_Node000002_Node000020"><a xlink:title=" ">
<path fill="none" stroke="#63b8ff" d="M465.64,-535.42C439.29,-525.59 402.74,-511.95 379.23,-503.17"/>
<polygon fill="#63b8ff" stroke="#63b8ff" points="464.59,-538.77 475.19,-538.98 467.04,-532.21 464.59,-538.77"/>
</a>
</g>
</g>
<!-- Node4 -->
<g id="Node000004" class="node">
<title>Node4</title>
<g id="a_Node000004"><a xlink:href="spreader_8h.html" target="_top" xlink:title=" ">
<polygon fill="white" stroke="#666666" points="1168,-134.5 1016,-134.5 1016,-115.5 1168,-115.5 1168,-134.5"/>
<text text-anchor="middle" x="1092" y="-122.5" font-family="Helvetica,sans-Serif" font-size="10.00">include/Spreader/spreader.h</text>
</a>
</g>
</g>
<!-- Node3&#45;&gt;Node4 -->
<g id="edge3_Node000003_Node000004" class="edge">
<title>Node3&#45;&gt;Node4</title>
<g id="a_edge3_Node000003_Node000004"><a xlink:title=" ">
<path fill="none" stroke="#63b8ff" d="M837.82,-179.34C897.8,-166.75 996.31,-146.08 1051.42,-134.51"/>
<polygon fill="#63b8ff" stroke="#63b8ff" points="836.89,-175.96 827.82,-181.44 838.32,-182.81 836.89,-175.96"/>
</a>
</g>
</g>
<!-- Node3&#45;&gt;Node5 -->
<g id="edge7_Node000003_Node000005" class="edge">
<title>Node3&#45;&gt;Node5</title>
<g id="a_edge7_Node000003_Node000005"><a xlink:title=" ">
<path fill="none" stroke="#63b8ff" d="M796.83,-172.64C801.88,-163.21 807.83,-151.2 812,-140 820.58,-116.99 826.64,-88.57 829.37,-74.4"/>
<polygon fill="#63b8ff" stroke="#63b8ff" points="793.76,-170.95 792.01,-181.4 799.9,-174.33 793.76,-170.95"/>
</a>
</g>
</g>
<!-- Node8 -->
<g id="Node000008" class="node">
<title>Node8</title>
<g id="a_Node000008"><a xlink:href="driver_8cpp.html" target="_top" xlink:title=" ">
<polygon fill="white" stroke="#666666" points="803,-134.5 683,-134.5 683,-115.5 803,-115.5 803,-134.5"/>
<text text-anchor="middle" x="743" y="-122.5" font-family="Helvetica,sans-Serif" font-size="10.00">src/Drivers/driver.cpp</text>
</a>
</g>
</g>
<!-- Node3&#45;&gt;Node8 -->
<g id="edge8_Node000003_Node000008" class="edge">
<title>Node3&#45;&gt;Node8</title>
<g id="a_edge8_Node000003_Node000008"><a xlink:title=" ">
<path fill="none" stroke="#63b8ff" d="M775.25,-172.91C766.84,-160.68 755.86,-144.7 749.12,-134.91"/>
<polygon fill="#63b8ff" stroke="#63b8ff" points="772.52,-175.11 781.07,-181.37 778.28,-171.15 772.52,-175.11"/>
</a>
</g>
</g>
<!-- Node4&#45;&gt;Node5 -->
<g id="edge4_Node000004_Node000005" class="edge">
<title>Node4&#45;&gt;Node5</title>
<g id="a_edge4_Node000004_Node000005"><a xlink:title=" ">
<path fill="none" stroke="#63b8ff" d="M1044.04,-113.25C993.62,-101.95 915.31,-84.4 869,-74.02"/>
<polygon fill="#63b8ff" stroke="#63b8ff" points="1043.52,-116.72 1054.05,-115.49 1045.06,-109.89 1043.52,-116.72"/>
</a>
</g>
</g>
<!-- Node7 -->
<g id="Node000007" class="node">
<title>Node7</title>
<g id="a_Node000007"><a xlink:href="spreader_8cpp.html" target="_top" xlink:title=" ">
<polygon fill="white" stroke="#666666" points="1163.5,-74 1020.5,-74 1020.5,-55 1163.5,-55 1163.5,-74"/>
<text text-anchor="middle" x="1092" y="-62" font-family="Helvetica,sans-Serif" font-size="10.00">src/Spreader/spreader.cpp</text>
</a>
</g>
</g>
<!-- Node4&#45;&gt;Node7 -->
<g id="edge6_Node000004_Node000007" class="edge">
<title>Node4&#45;&gt;Node7</title>
<g id="a_edge6_Node000004_Node000007"><a xlink:title=" ">
<path fill="none" stroke="#63b8ff" d="M1092,-105.16C1092,-94.74 1092,-82.3 1092,-74.17"/>
<polygon fill="#63b8ff" stroke="#63b8ff" points="1088.5,-105.37 1092,-115.37 1095.5,-105.37 1088.5,-105.37"/>
</a>
</g>
</g>
<!-- Node6 -->
<g id="Node000006" class="node">
<title>Node6</title>
<g id="a_Node000006"><a xlink:href="main_8cpp.html" target="_top" xlink:title=" ">
<polygon fill="white" stroke="#666666" points="1150.5,-19 1071.5,-19 1071.5,0 1150.5,0 1150.5,-19"/>
<text text-anchor="middle" x="1111" y="-7" font-family="Helvetica,sans-Serif" font-size="10.00">src/main.cpp</text>
</a>
</g>
</g>
<!-- Node5&#45;&gt;Node6 -->
<g id="edge5_Node000005_Node000006" class="edge">
<title>Node5&#45;&gt;Node6</title>
<g id="a_edge5_Node000005_Node000006"><a xlink:title=" ">
<path fill="none" stroke="#63b8ff" d="M885.53,-53.18C940.14,-42.84 1022.86,-27.18 1071.46,-17.98"/>
<polygon fill="#63b8ff" stroke="#63b8ff" points="884.85,-49.74 875.68,-55.04 886.15,-56.62 884.85,-49.74"/>
</a>
</g>
</g>
<!-- Node9&#45;&gt;Node3 -->
<g id="edge10_Node000009_Node000003" class="edge">
<title>Node9&#45;&gt;Node3</title>
<g id="a_edge10_Node000009_Node000003"><a xlink:title=" ">
<path fill="none" stroke="#63b8ff" d="M744.53,-293.67C715.87,-283.14 685.18,-265.74 699,-242 711.29,-220.89 736.17,-207.96 756.36,-200.56"/>
<polygon fill="#63b8ff" stroke="#63b8ff" points="743.51,-297.02 754.11,-296.97 745.8,-290.4 743.51,-297.02"/>
</a>
</g>
</g>
<!-- Node9&#45;&gt;Node5 -->
<g id="edge15_Node000009_Node000005" class="edge">
<title>Node9&#45;&gt;Node5</title>
<g id="a_edge15_Node000009_Node000005"><a xlink:title=" ">
<path fill="none" stroke="#63b8ff" d="M817.2,-292.46C830.7,-285.2 845.37,-274.8 854,-261 892.96,-198.71 850.26,-103.15 835.58,-74.14"/>
<polygon fill="#63b8ff" stroke="#63b8ff" points="815.51,-289.39 808.12,-296.99 818.63,-295.66 815.51,-289.39"/>
</a>
</g>
</g>
<!-- Node9&#45;&gt;Node10 -->
<g id="edge11_Node000009_Node000010" class="edge">
<title>Node9&#45;&gt;Node10</title>
<g id="a_edge11_Node000009_Node000010"><a xlink:title=" ">
<path fill="none" stroke="#63b8ff" d="M736.61,-294.82C690.7,-284.88 623.17,-270.28 580.67,-261.08"/>
<polygon fill="#63b8ff" stroke="#63b8ff" points="736.12,-298.29 746.64,-296.98 737.6,-291.45 736.12,-298.29"/>
</a>
</g>
</g>
<!-- Node12 -->
<g id="Node000012" class="node">
<title>Node12</title>
<g id="a_Node000012"><a xlink:href="dutDriver_8cpp.html" target="_top" xlink:title=" ">
<polygon fill="white" stroke="#666666" points="845.5,-261 708.5,-261 708.5,-242 845.5,-242 845.5,-261"/>
<text text-anchor="middle" x="777" y="-249" font-family="Helvetica,sans-Serif" font-size="10.00">src/Drivers/dutDriver.cpp</text>
</a>
</g>
</g>
<!-- Node9&#45;&gt;Node12 -->
<g id="edge16_Node000009_Node000012" class="edge">
<title>Node9&#45;&gt;Node12</title>
<g id="a_edge16_Node000009_Node000012"><a xlink:title=" ">
<path fill="none" stroke="#63b8ff" d="M782.8,-286.66C781.32,-277.93 779.63,-267.99 778.46,-261.09"/>
<polygon fill="#63b8ff" stroke="#63b8ff" points="779.39,-287.48 784.51,-296.75 786.29,-286.3 779.39,-287.48"/>
</a>
</g>
</g>
<!-- Node10&#45;&gt;Node3 -->
<g id="edge12_Node000010_Node000003" class="edge">
<title>Node10&#45;&gt;Node3</title>
<g id="a_edge12_Node000010_Node000003"><a xlink:title=" ">
<path fill="none" stroke="#63b8ff" d="M586.8,-239.61C634.34,-228.3 707.71,-210.85 751.19,-200.52"/>
<polygon fill="#63b8ff" stroke="#63b8ff" points="585.69,-236.27 576.77,-241.99 587.31,-243.09 585.69,-236.27"/>
</a>
</g>
</g>
<!-- Node10&#45;&gt;Node5 -->
<g id="edge13_Node000010_Node000005" class="edge">
<title>Node10&#45;&gt;Node5</title>
<g id="a_edge13_Node000010_Node000005"><a xlink:title=" ">
<path fill="none" stroke="#63b8ff" d="M541.51,-231.39C542.83,-215.19 546.92,-192.1 559,-176 613.58,-103.21 724.29,-78.21 786.32,-69.74"/>
<polygon fill="#63b8ff" stroke="#63b8ff" points="537.99,-231.59 540.96,-241.76 544.98,-231.96 537.99,-231.59"/>
</a>
</g>
</g>
<!-- Node11 -->
<g id="Node000011" class="node">
<title>Node11</title>
<g id="a_Node000011"><a xlink:href="refDriver_8cpp.html" target="_top" xlink:title=" ">
<polygon fill="white" stroke="#666666" points="703.5,-200.5 568.5,-200.5 568.5,-181.5 703.5,-181.5 703.5,-200.5"/>
<text text-anchor="middle" x="636" y="-188.5" font-family="Helvetica,sans-Serif" font-size="10.00">src/Drivers/refDriver.cpp</text>
</a>
</g>
</g>
<!-- Node10&#45;&gt;Node11 -->
<g id="edge14_Node000010_Node000011" class="edge">
<title>Node10&#45;&gt;Node11</title>
<g id="a_edge14_Node000010_Node000011"><a xlink:title=" ">
<path fill="none" stroke="#63b8ff" d="M563.79,-236.47C581.88,-225.32 606.61,-210.1 621.92,-200.67"/>
<polygon fill="#63b8ff" stroke="#63b8ff" points="561.7,-233.64 555.02,-241.87 565.37,-239.6 561.7,-233.64"/>
</a>
</g>
</g>
<!-- Node13&#45;&gt;Node4 -->
<g id="edge26_Node000013_Node000004" class="edge">
<title>Node13&#45;&gt;Node4</title>
<g id="a_edge26_Node000013_Node000004"><a xlink:title=" ">
<path fill="none" stroke="#63b8ff" d="M828.43,-418.01C888.85,-410.32 1007.45,-413.49 1040,-382 1112.36,-311.99 1098.32,-170.89 1093.32,-134.64"/>
<polygon fill="#63b8ff" stroke="#63b8ff" points="827.59,-414.6 818.21,-419.53 828.61,-421.53 827.59,-414.6"/>
</a>
</g>
</g>
<!-- Node13&#45;&gt;Node5 -->
<g id="edge27_Node000013_Node000005" class="edge">
<title>Node13&#45;&gt;Node5</title>
<g id="a_edge27_Node000013_Node000005"><a xlink:title=" ">
<path fill="none" stroke="#63b8ff" d="M820.49,-415.36C856.7,-405.93 895.77,-393.71 910,-382 939.02,-358.12 950,-345.08 950,-307.5 950,-307.5 950,-307.5 950,-190 950,-132.44 882.71,-91.05 849.33,-74.06"/>
<polygon fill="#63b8ff" stroke="#63b8ff" points="819.2,-412.07 810.38,-417.94 820.94,-418.86 819.2,-412.07"/>
</a>
</g>
</g>
<!-- Node13&#45;&gt;Node6 -->
<g id="edge29_Node000013_Node000006" class="edge">
<title>Node13&#45;&gt;Node6</title>
<g id="a_edge29_Node000013_Node000006"><a xlink:title=" ">
<path fill="none" stroke="#63b8ff" d="M823.22,-415.76C872.72,-404.49 929.99,-390.1 939,-382 1049.73,-282.43 920.1,-172.17 1012,-55 1026.54,-36.47 1050.48,-25.42 1071.18,-18.97"/>
<polygon fill="#63b8ff" stroke="#63b8ff" points="822.42,-412.36 813.44,-417.97 823.96,-419.18 822.42,-412.36"/>
</a>
</g>
</g>
<!-- Node13&#45;&gt;Node9 -->
<g id="edge19_Node000013_Node000009" class="edge">
<title>Node13&#45;&gt;Node9</title>
<g id="a_edge19_Node000013_Node000009"><a xlink:title=" ">
<path fill="none" stroke="#63b8ff" d="M820.82,-415.29C852.22,-406.47 883.86,-394.82 893,-382 900.74,-371.14 900.4,-363.09 893,-352 880.44,-333.17 858.25,-322.3 837.33,-316.02"/>
<polygon fill="#63b8ff" stroke="#63b8ff" points="819.83,-411.93 811.1,-417.93 821.67,-418.68 819.83,-411.93"/>
</a>
</g>
</g>
<!-- Node13&#45;&gt;Node10 -->
<g id="edge20_Node000013_Node000010" class="edge">
<title>Node13&#45;&gt;Node10</title>
<g id="a_edge20_Node000013_Node000010"><a xlink:title=" ">
<path fill="none" stroke="#63b8ff" d="M730.19,-409.98C706.54,-381.63 662.54,-331.86 618,-297 599.28,-282.34 575.22,-269.22 559.01,-261.08"/>
<polygon fill="#63b8ff" stroke="#63b8ff" points="727.51,-412.24 736.58,-417.72 732.91,-407.78 727.51,-412.24"/>
</a>
</g>
</g>
<!-- Node13&#45;&gt;Node14 -->
<g id="edge21_Node000013_Node000014" class="edge">
<title>Node13&#45;&gt;Node14</title>
<g id="a_edge21_Node000013_Node000014"><a xlink:title=" ">
<path fill="none" stroke="#63b8ff" d="M669.06,-415.91C617.85,-405.47 551.79,-392.01 502.75,-382.01"/>
<polygon fill="#63b8ff" stroke="#63b8ff" points="668.59,-419.39 679.09,-417.95 669.99,-412.53 668.59,-419.39"/>
</a>
</g>
</g>
<!-- Node16 -->
<g id="Node000016" class="node">
<title>Node16</title>
<g id="a_Node000016"><a xlink:href="simulatorDriver_8cpp.html" target="_top" xlink:title=" ">
<polygon fill="white" stroke="#666666" points="884,-376.5 716,-376.5 716,-357.5 884,-357.5 884,-376.5"/>
<text text-anchor="middle" x="800" y="-364.5" font-family="Helvetica,sans-Serif" font-size="10.00">src/Drivers/simulatorDriver.cpp</text>
</a>
</g>
</g>
<!-- Node13&#45;&gt;Node16 -->
<g id="edge28_Node000013_Node000016" class="edge">
<title>Node13&#45;&gt;Node16</title>
<g id="a_edge28_Node000013_Node000016"><a xlink:title=" ">
<path fill="none" stroke="#63b8ff" d="M765.92,-409.94C775.15,-398.58 785.9,-385.36 792.81,-376.84"/>
<polygon fill="#63b8ff" stroke="#63b8ff" points="763.13,-407.83 759.54,-417.8 768.56,-412.24 763.13,-407.83"/>
</a>
</g>
</g>
<!-- Node14&#45;&gt;Node5 -->
<g id="edge24_Node000014_Node000005" class="edge">
<title>Node14&#45;&gt;Node5</title>
<g id="a_edge24_Node000014_Node000005"><a xlink:title=" ">
<path fill="none" stroke="#63b8ff" d="M382.22,-348.03C342.35,-330.52 294,-299.57 294,-252.5 294,-252.5 294,-252.5 294,-190 294,-89.27 657.08,-70.02 786.14,-66.35"/>
<polygon fill="#63b8ff" stroke="#63b8ff" points="381.04,-351.33 391.62,-351.99 383.76,-344.88 381.04,-351.33"/>
</a>
</g>
</g>
<!-- Node14&#45;&gt;Node9 -->
<g id="edge22_Node000014_Node000009" class="edge">
<title>Node14&#45;&gt;Node9</title>
<g id="a_edge22_Node000014_Node000009"><a xlink:title=" ">
<path fill="none" stroke="#63b8ff" d="M518.39,-351.97C585.75,-340.78 677.94,-325.46 734.65,-316.03"/>
<polygon fill="#63b8ff" stroke="#63b8ff" points="517.51,-348.57 508.22,-353.67 518.66,-355.48 517.51,-348.57"/>
</a>
</g>
</g>
<!-- Node14&#45;&gt;Node10 -->
<g id="edge23_Node000014_Node000010" class="edge">
<title>Node14&#45;&gt;Node10</title>
<g id="a_edge23_Node000014_Node000010"><a xlink:title=" ">
<path fill="none" stroke="#63b8ff" d="M406.51,-345.01C391.62,-331.05 378.41,-312.5 390,-297 408.25,-272.6 439.25,-261.01 468.43,-255.7"/>
<polygon fill="#63b8ff" stroke="#63b8ff" points="404.5,-347.9 414.33,-351.85 409.11,-342.63 404.5,-347.9"/>
</a>
</g>
</g>
<!-- Node15 -->
<g id="Node000015" class="node">
<title>Node15</title>
<g id="a_Node000015"><a xlink:href="transDriverModel_8cpp.html" target="_top" xlink:title=" ">
<polygon fill="white" stroke="#666666" points="576.5,-316 399.5,-316 399.5,-297 576.5,-297 576.5,-316"/>
<text text-anchor="middle" x="488" y="-304" font-family="Helvetica,sans-Serif" font-size="10.00">src/Drivers/transDriverModel.cpp</text>
</a>
</g>
</g>
<!-- Node14&#45;&gt;Node15 -->
<g id="edge25_Node000014_Node000015" class="edge">
<title>Node14&#45;&gt;Node15</title>
<g id="a_edge25_Node000014_Node000015"><a xlink:title=" ">
<path fill="none" stroke="#63b8ff" d="M453.96,-344.38C462.95,-334.64 473.06,-323.69 479.91,-316.27"/>
<polygon fill="#63b8ff" stroke="#63b8ff" points="451.28,-342.12 447.07,-351.84 456.43,-346.86 451.28,-342.12"/>
</a>
</g>
</g>
<!-- Node17&#45;&gt;Node5 -->
<g id="edge32_Node000017_Node000005" class="edge">
<title>Node17&#45;&gt;Node5</title>
<g id="a_edge32_Node000017_Node000005"><a xlink:title=" ">
<path fill="none" stroke="#63b8ff" d="M132.01,-474.3C139.41,-450.24 151,-406.43 151,-368 151,-368 151,-368 151,-190 151,-148.31 164.36,-131.64 200,-110 249.81,-79.75 650.78,-69.07 786.38,-66.3"/>
<polygon fill="#63b8ff" stroke="#63b8ff" points="128.66,-473.27 128.97,-483.87 135.33,-475.4 128.66,-473.27"/>
</a>
</g>
</g>
<!-- Node18&#45;&gt;Node13 -->
<g id="edge34_Node000018_Node000013" class="edge">
<title>Node18&#45;&gt;Node13</title>
<g id="a_edge34_Node000018_Node000013"><a xlink:title=" ">
<path fill="none" stroke="#63b8ff" d="M812.73,-478.03C799.31,-468.9 782.07,-457.17 768.75,-448.11"/>
<polygon fill="#63b8ff" stroke="#63b8ff" points="811.07,-481.14 821.31,-483.87 815.01,-475.35 811.07,-481.14"/>
</a>
</g>
</g>
<!-- Node19 -->
<g id="Node000019" class="node">
<title>Node19</title>
<g id="a_Node000019"><a xlink:href="simulator_8cpp.html" target="_top" xlink:title=" ">
<polygon fill="white" stroke="#666666" points="986,-442.5 836,-442.5 836,-423.5 986,-423.5 986,-442.5"/>
<text text-anchor="middle" x="911" y="-430.5" font-family="Helvetica,sans-Serif" font-size="10.00">src/Simulator/simulator.cpp</text>
</a>
</g>
</g>
<!-- Node18&#45;&gt;Node19 -->
<g id="edge35_Node000018_Node000019" class="edge">
<title>Node18&#45;&gt;Node19</title>
<g id="a_edge35_Node000018_Node000019"><a xlink:title=" ">
<path fill="none" stroke="#63b8ff" d="M853.69,-477.54C868.23,-466.49 887.52,-451.84 899.59,-442.67"/>
<polygon fill="#63b8ff" stroke="#63b8ff" points="851.21,-475.03 845.36,-483.87 855.44,-480.61 851.21,-475.03"/>
</a>
</g>
</g>
<!-- Node21&#45;&gt;Node5 -->
<g id="edge39_Node000021_Node000005" class="edge">
<title>Node21&#45;&gt;Node5</title>
<g id="a_edge39_Node000021_Node000005"><a xlink:title=" ">
<path fill="none" stroke="#63b8ff" d="M1760.76,-166.17C1764.25,-148.24 1765.22,-124.37 1751,-110 1750.03,-109.01 1059.67,-76.31 875.63,-67.61"/>
<polygon fill="#63b8ff" stroke="#63b8ff" points="1757.35,-165.4 1758.51,-175.93 1764.17,-166.97 1757.35,-165.4"/>
</a>
</g>
</g>
<!-- Node22 -->
<g id="Node000022" class="node">
<title>Node22</title>
<g id="a_Node000022"><a xlink:href="generatorHelper_8cpp.html" target="_top" xlink:title=" ">
<polygon fill="white" stroke="#666666" points="1741.5,-140 1622.5,-140 1622.5,-110 1741.5,-110 1741.5,-140"/>
<text text-anchor="start" x="1630.5" y="-128" font-family="Helvetica,sans-Serif" font-size="10.00">src/TestGenerator/src</text>
<text text-anchor="middle" x="1682" y="-117" font-family="Helvetica,sans-Serif" font-size="10.00">/generatorHelper.cpp</text>
</a>
</g>
</g>
<!-- Node21&#45;&gt;Node22 -->
<g id="edge40_Node000021_Node000022" class="edge">
<title>Node21&#45;&gt;Node22</title>
<g id="a_edge40_Node000021_Node000022"><a xlink:title=" ">
<path fill="none" stroke="#63b8ff" d="M1730.29,-168.92C1719.67,-159.49 1707.43,-148.61 1697.93,-140.16"/>
<polygon fill="#63b8ff" stroke="#63b8ff" points="1728.22,-171.77 1738.02,-175.8 1732.87,-166.54 1728.22,-171.77"/>
</a>
</g>
</g>
<!-- Node23&#45;&gt;Node2 -->
<g id="edge57_Node000023_Node000002" class="edge">
<title>Node23&#45;&gt;Node2</title>
<g id="a_edge57_Node000023_Node000002"><a xlink:title=" ">
<path fill="none" stroke="#63b8ff" d="M885.77,-655.56C826.45,-647.9 736.85,-634.08 661,-613 607.16,-598.04 546.51,-571.78 516.65,-558.19"/>
<polygon fill="#63b8ff" stroke="#63b8ff" points="885.4,-659.04 895.76,-656.83 886.28,-652.1 885.4,-659.04"/>
</a>
</g>
</g>
<!-- Node23&#45;&gt;Node3 -->
<g id="edge56_Node000023_Node000003" class="edge">
<title>Node23&#45;&gt;Node3</title>
<g id="a_edge56_Node000023_Node000003"><a xlink:title=" ">
<path fill="none" stroke="#63b8ff" d="M990.22,-643.87C1022.85,-624.9 1064,-592.45 1064,-549.5 1064,-549.5 1064,-549.5 1064,-432 1064,-300.29 882.89,-224.66 813.56,-200.54"/>
<polygon fill="#63b8ff" stroke="#63b8ff" points="988.31,-640.93 981.28,-648.87 991.72,-647.04 988.31,-640.93"/>
</a>
</g>
</g>
<!-- Node23&#45;&gt;Node4 -->
<g id="edge68_Node000023_Node000004" class="edge">
<title>Node23&#45;&gt;Node4</title>
<g id="a_edge68_Node000023_Node000004"><a xlink:title=" ">
<path fill="none" stroke="#63b8ff" d="M1016.33,-657.78C1083.4,-648.42 1178,-622.32 1178,-549.5 1178,-549.5 1178,-549.5 1178,-432 1178,-310.05 1113.91,-170.61 1096.38,-134.76"/>
<polygon fill="#63b8ff" stroke="#63b8ff" points="1015.71,-654.33 1006.24,-659.09 1016.61,-661.27 1015.71,-654.33"/>
</a>
</g>
</g>
<!-- Node23&#45;&gt;Node5 -->
<g id="edge69_Node000023_Node000005" class="edge">
<title>Node23&#45;&gt;Node5</title>
<g id="a_edge69_Node000023_Node000005"><a xlink:title=" ">
<path fill="none" stroke="#63b8ff" d="M885.73,-661.75C676.8,-656.88 38,-635.01 38,-549.5 38,-549.5 38,-549.5 38,-190 38,-124.79 99.13,-130.61 161,-110 277.41,-71.23 655.38,-66.13 786.06,-65.54"/>
<polygon fill="#63b8ff" stroke="#63b8ff" points="885.87,-665.25 895.94,-661.98 886.03,-658.25 885.87,-665.25"/>
</a>
</g>
</g>
<!-- Node23&#45;&gt;Node6 -->
<g id="edge71_Node000023_Node000006" class="edge">
<title>Node23&#45;&gt;Node6</title>
<g id="a_edge71_Node000023_Node000006"><a xlink:title=" ">
<path fill="none" stroke="#63b8ff" d="M1016.34,-661.39C1167.98,-657.16 1540.09,-643.88 1661,-613 1905.24,-550.63 1921.8,-386.62 1974,-140 1976.76,-126.96 1982.87,-119.95 1974,-110 1918.43,-47.65 1312.95,-18.71 1150.77,-12.04"/>
<polygon fill="#63b8ff" stroke="#63b8ff" points="1016.14,-657.89 1006.24,-661.66 1016.33,-664.89 1016.14,-657.89"/>
</a>
</g>
</g>
<!-- Node23&#45;&gt;Node9 -->
<g id="edge58_Node000023_Node000009" class="edge">
<title>Node23&#45;&gt;Node9</title>
<g id="a_edge58_Node000023_Node000009"><a xlink:title=" ">
<path fill="none" stroke="#63b8ff" d="M971.69,-641.42C990.05,-619.92 1014,-585.07 1014,-549.5 1014,-549.5 1014,-549.5 1014,-492.5 1014,-414.81 978.09,-389.41 910,-352 880.53,-335.81 844.02,-323.54 818.27,-316.03"/>
<polygon fill="#63b8ff" stroke="#63b8ff" points="969,-639.18 964.98,-648.98 974.24,-643.82 969,-639.18"/>
</a>
</g>
</g>
<!-- Node23&#45;&gt;Node10 -->
<g id="edge59_Node000023_Node000010" class="edge">
<title>Node23&#45;&gt;Node10</title>
<g id="a_edge59_Node000023_Node000010"><a xlink:title=" ">
<path fill="none" stroke="#63b8ff" d="M917.08,-643.58C860.19,-609.71 744.38,-535.08 669,-448 618.74,-389.94 631.09,-358.43 585,-297 574.7,-283.27 560.35,-269.54 550.88,-261.03"/>
<polygon fill="#63b8ff" stroke="#63b8ff" points="915.63,-646.78 926.02,-648.85 919.19,-640.75 915.63,-646.78"/>
</a>
</g>
</g>
<!-- Node23&#45;&gt;Node14 -->
<g id="edge60_Node000023_Node000014" class="edge">
<title>Node23&#45;&gt;Node14</title>
<g id="a_edge60_Node000023_Node000014"><a xlink:title=" ">
<path fill="none" stroke="#63b8ff" d="M885.69,-658.42C835.9,-652.83 766.79,-640.44 712,-613 590.34,-552.07 479.95,-424.59 445.25,-382.11"/>
<polygon fill="#63b8ff" stroke="#63b8ff" points="885.38,-661.91 895.7,-659.48 886.12,-654.95 885.38,-661.91"/>
</a>
</g>
</g>
<!-- Node23&#45;&gt;Node17 -->
<g id="edge61_Node000023_Node000017" class="edge">
<title>Node23&#45;&gt;Node17</title>
<g id="a_edge61_Node000023_Node000017"><a xlink:title=" ">
<path fill="none" stroke="#63b8ff" d="M885.59,-659.51C784.44,-653.53 584.18,-639.33 416,-613 304.03,-595.47 260.06,-622.69 167,-558 146.96,-544.07 134.4,-516.86 129.02,-503.02"/>
<polygon fill="#63b8ff" stroke="#63b8ff" points="885.47,-663.01 895.65,-660.1 885.87,-656.02 885.47,-663.01"/>
</a>
</g>
</g>
<!-- Node23&#45;&gt;Node18 -->
<g id="edge67_Node000023_Node000018" class="edge">
<title>Node23&#45;&gt;Node18</title>
<g id="a_edge67_Node000023_Node000018"><a xlink:title=" ">
<path fill="none" stroke="#63b8ff" d="M935.46,-640.63C909.34,-603 857.72,-528.66 840.08,-503.25"/>
<polygon fill="#63b8ff" stroke="#63b8ff" points="932.65,-642.71 941.23,-648.92 938.4,-638.71 932.65,-642.71"/>
</a>
</g>
</g>
<!-- Node24 -->
<g id="Node000024" class="node">
<title>Node24</title>
<g id="a_Node000024"><a xlink:href="channel_8h.html" target="_top" xlink:title=" ">
<polygon fill="white" stroke="#666666" points="570.5,-613 425.5,-613 425.5,-594 570.5,-594 570.5,-613"/>
<text text-anchor="middle" x="498" y="-601" font-family="Helvetica,sans-Serif" font-size="10.00">include/Channel/channel.h</text>
</a>
</g>
</g>
<!-- Node23&#45;&gt;Node24 -->
<g id="edge42_Node000023_Node000024" class="edge">
<title>Node23&#45;&gt;Node24</title>
<g id="a_edge42_Node000023_Node000024"><a xlink:title=" ">
<path fill="none" stroke="#63b8ff" d="M885.78,-654.58C800.03,-643.5 650.22,-624.16 564.06,-613.03"/>
<polygon fill="#63b8ff" stroke="#63b8ff" points="885.54,-658.08 895.91,-655.89 886.44,-651.13 885.54,-658.08"/>
</a>
</g>
</g>
<!-- Node26 -->
<g id="Node000026" class="node">
<title>Node26</title>
<g id="a_Node000026"><a xlink:href="database_8h.html" target="_top" xlink:title=" ">
<polygon fill="white" stroke="#666666" points="1507,-200.5 1349,-200.5 1349,-181.5 1507,-181.5 1507,-200.5"/>
<text text-anchor="middle" x="1428" y="-188.5" font-family="Helvetica,sans-Serif" font-size="10.00">include/Database/database.h</text>
</a>
</g>
</g>
<!-- Node23&#45;&gt;Node26 -->
<g id="edge49_Node000023_Node000026" class="edge">
<title>Node23&#45;&gt;Node26</title>
<g id="a_edge49_Node000023_Node000026"><a xlink:title=" ">
<path fill="none" stroke="#63b8ff" d="M1016.14,-656.57C1122.57,-644.25 1322,-612.71 1322,-549.5 1322,-549.5 1322,-549.5 1322,-305.5 1322,-254.27 1380.39,-216.57 1410.5,-200.53"/>
<polygon fill="#63b8ff" stroke="#63b8ff" points="1015.68,-653.1 1006.14,-657.71 1016.47,-660.06 1015.68,-653.1"/>
</a>
</g>
</g>
<!-- Node23&#45;&gt;Node29 -->
<g id="edge70_Node000023_Node000029" class="edge">
<title>Node23&#45;&gt;Node29</title>
<g id="a_edge70_Node000023_Node000029"><a xlink:title=" ">
<path fill="none" stroke="#63b8ff" d="M1016.23,-660.78C1209.88,-653.32 1768,-625.25 1768,-549.5 1768,-549.5 1768,-549.5 1768,-492.5 1768,-403.61 1844,-396.39 1844,-307.5 1844,-307.5 1844,-307.5 1844,-250.5 1844,-205.4 1866.58,-154.78 1876.46,-134.79"/>
<polygon fill="#63b8ff" stroke="#63b8ff" points="1016.05,-657.28 1006.19,-661.16 1016.32,-664.28 1016.05,-657.28"/>
</a>
</g>
</g>
<!-- Node30 -->
<g id="Node000030" class="node">
<title>Node30</title>
<g id="a_Node000030"><a xlink:href="reporter_8h.html" target="_top" xlink:title=" ">
<polygon fill="white" stroke="#666666" points="1311.5,-200.5 1164.5,-200.5 1164.5,-181.5 1311.5,-181.5 1311.5,-200.5"/>
<text text-anchor="middle" x="1238" y="-188.5" font-family="Helvetica,sans-Serif" font-size="10.00">include/Reporter/reporter.h</text>
</a>
</g>
</g>
<!-- Node23&#45;&gt;Node30 -->
<g id="edge62_Node000023_Node000030" class="edge">
<title>Node23&#45;&gt;Node30</title>
<g id="a_edge62_Node000023_Node000030"><a xlink:title=" ">
<path fill="none" stroke="#63b8ff" d="M1016.19,-651.61C1070.84,-637.87 1140,-608.77 1140,-549.5 1140,-549.5 1140,-549.5 1140,-432 1140,-334.79 1209.77,-230.76 1231.57,-200.63"/>
<polygon fill="#63b8ff" stroke="#63b8ff" points="1015.09,-648.27 1006.17,-654 1016.71,-655.08 1015.09,-648.27"/>
</a>
</g>
</g>
<!-- Node24&#45;&gt;Node2 -->
<g id="edge43_Node000024_Node000002" class="edge">
<title>Node24&#45;&gt;Node2</title>
<g id="a_edge43_Node000024_Node000002"><a xlink:title=" ">
<path fill="none" stroke="#63b8ff" d="M498,-583.66C498,-574.93 498,-564.99 498,-558.09"/>
<polygon fill="#63b8ff" stroke="#63b8ff" points="494.5,-583.75 498,-593.75 501.5,-583.75 494.5,-583.75"/>
</a>
</g>
</g>
<!-- Node24&#45;&gt;Node5 -->
<g id="edge47_Node000024_Node000005" class="edge">
<title>Node24&#45;&gt;Node5</title>
<g id="a_edge47_Node000024_Node000005"><a xlink:title=" ">
<path fill="none" stroke="#63b8ff" d="M470.28,-589.7C441.27,-576.46 394.29,-555.45 353,-539 309.12,-521.52 289.1,-533.47 253,-503 226.08,-480.28 214,-469.23 214,-434 214,-434 214,-434 214,-190 214,-146.6 232.33,-131.55 270,-110 314.36,-84.62 661.02,-71 786.15,-66.87"/>
<polygon fill="#63b8ff" stroke="#63b8ff" points="468.85,-592.89 479.4,-593.87 471.77,-586.53 468.85,-592.89"/>
</a>
</g>
</g>
<!-- Node24&#45;&gt;Node9 -->
<g id="edge44_Node000024_Node000009" class="edge">
<title>Node24&#45;&gt;Node9</title>
<g id="a_edge44_Node000024_Node000009"><a xlink:title=" ">
<path fill="none" stroke="#63b8ff" d="M533.95,-590.14C551.44,-582.81 571.9,-572.16 587,-558 664.28,-485.51 631.54,-426.38 707,-352 723.37,-335.87 746.76,-323.66 763.84,-316.15"/>
<polygon fill="#63b8ff" stroke="#63b8ff" points="532.58,-586.92 524.59,-593.87 535.17,-593.42 532.58,-586.92"/>
</a>
</g>
</g>
<!-- Node24&#45;&gt;Node17 -->
<g id="edge45_Node000024_Node000017" class="edge">
<title>Node24&#45;&gt;Node17</title>
<g id="a_edge45_Node000024_Node000017"><a xlink:title=" ">
<path fill="none" stroke="#63b8ff" d="M415.19,-602.34C353.37,-599.38 268.16,-589.15 200,-558 171.36,-544.91 145.27,-517.32 133.15,-503.21"/>
<polygon fill="#63b8ff" stroke="#63b8ff" points="415.15,-605.84 425.29,-602.77 415.45,-598.84 415.15,-605.84"/>
</a>
</g>
</g>
<!-- Node24&#45;&gt;Node18 -->
<g id="edge46_Node000024_Node000018" class="edge">
<title>Node24&#45;&gt;Node18</title>
<g id="a_edge46_Node000024_Node000018"><a xlink:title=" ">
<path fill="none" stroke="#63b8ff" d="M539.18,-591.14C570.08,-582.46 613.35,-570 651,-558 708.83,-539.57 776.09,-515.56 810.73,-503"/>
<polygon fill="#63b8ff" stroke="#63b8ff" points="537.89,-587.86 529.2,-593.93 539.78,-594.6 537.89,-587.86"/>
</a>
</g>
</g>
<!-- Node25 -->
<g id="Node000025" class="node">
<title>Node25</title>
<g id="a_Node000025"><a xlink:href="channel_8cpp.html" target="_top" xlink:title=" ">
<polygon fill="white" stroke="#666666" points="344.5,-558 209.5,-558 209.5,-539 344.5,-539 344.5,-558"/>
<text text-anchor="middle" x="277" y="-546" font-family="Helvetica,sans-Serif" font-size="10.00">src/Channel/channel.cpp</text>
</a>
</g>
</g>
<!-- Node24&#45;&gt;Node25 -->
<g id="edge48_Node000024_Node000025" class="edge">
<title>Node24&#45;&gt;Node25</title>
<g id="a_edge48_Node000024_Node000025"><a xlink:title=" ">
<path fill="none" stroke="#63b8ff" d="M452.66,-591.63C411.26,-581.7 350.88,-567.22 312.79,-558.08"/>
<polygon fill="#63b8ff" stroke="#63b8ff" points="451.95,-595.06 462.49,-593.98 453.58,-588.25 451.95,-595.06"/>
</a>
</g>
</g>
<!-- Node26&#45;&gt;Node4 -->
<g id="edge50_Node000026_Node000004" class="edge">
<title>Node26&#45;&gt;Node4</title>
<g id="a_edge50_Node000026_Node000004"><a xlink:title=" ">
<path fill="none" stroke="#63b8ff" d="M1372.83,-179.49C1306.84,-166.92 1197.67,-146.13 1136.7,-134.51"/>
<polygon fill="#63b8ff" stroke="#63b8ff" points="1372.56,-183 1383.03,-181.44 1373.87,-176.13 1372.56,-183"/>
</a>
</g>
</g>
<!-- Node26&#45;&gt;Node5 -->
<g id="edge51_Node000026_Node000005" class="edge">
<title>Node26&#45;&gt;Node5</title>
<g id="a_edge51_Node000026_Node000005"><a xlink:title=" ">
<path fill="none" stroke="#63b8ff" d="M1429.31,-171.18C1429.47,-152.61 1426.43,-124.9 1409,-110 1388.8,-92.73 1008.35,-73.66 875.96,-67.52"/>
<polygon fill="#63b8ff" stroke="#63b8ff" points="1425.81,-171.23 1428.9,-181.36 1432.8,-171.51 1425.81,-171.23"/>
</a>
</g>
</g>
<!-- Node26&#45;&gt;Node22 -->
<g id="edge54_Node000026_Node000022" class="edge">
<title>Node26&#45;&gt;Node22</title>
<g id="a_edge54_Node000026_Node000022"><a xlink:title=" ">
<path fill="none" stroke="#63b8ff" d="M1471.83,-178.96C1514.62,-168.17 1579.9,-151.73 1626.34,-140.02"/>
<polygon fill="#63b8ff" stroke="#63b8ff" points="1470.83,-175.6 1461.99,-181.44 1472.54,-182.39 1470.83,-175.6"/>
</a>
</g>
</g>
<!-- Node27 -->
<g id="Node000027" class="node">
<title>Node27</title>
<g id="a_Node000027"><a xlink:href="database_8cpp.html" target="_top" xlink:title=" ">
<polygon fill="white" stroke="#666666" points="1604.5,-134.5 1455.5,-134.5 1455.5,-115.5 1604.5,-115.5 1604.5,-134.5"/>
<text text-anchor="middle" x="1530" y="-122.5" font-family="Helvetica,sans-Serif" font-size="10.00">src/Database/database.cpp</text>
</a>
</g>
</g>
<!-- Node26&#45;&gt;Node27 -->
<g id="edge52_Node000026_Node000027" class="edge">
<title>Node26&#45;&gt;Node27</title>
<g id="a_edge52_Node000026_Node000027"><a xlink:title=" ">
<path fill="none" stroke="#63b8ff" d="M1450.28,-176.02C1470.34,-163.43 1499.2,-145.32 1516.14,-134.7"/>
<polygon fill="#63b8ff" stroke="#63b8ff" points="1448.37,-173.09 1441.76,-181.37 1452.09,-179.02 1448.37,-173.09"/>
</a>
</g>
</g>
<!-- Node28 -->
<g id="Node000028" class="node">
<title>Node28</title>
<g id="a_Node000028"><a xlink:href="reporter_8cpp.html" target="_top" xlink:title=" ">
<polygon fill="white" stroke="#666666" points="1399.5,-134.5 1262.5,-134.5 1262.5,-115.5 1399.5,-115.5 1399.5,-134.5"/>
<text text-anchor="middle" x="1331" y="-122.5" font-family="Helvetica,sans-Serif" font-size="10.00">src/Reporter/reporter.cpp</text>
</a>
</g>
</g>
<!-- Node26&#45;&gt;Node28 -->
<g id="edge53_Node000026_Node000028" class="edge">
<title>Node26&#45;&gt;Node28</title>
<g id="a_edge53_Node000026_Node000028"><a xlink:title=" ">
<path fill="none" stroke="#63b8ff" d="M1406.55,-175.85C1387.49,-163.27 1360.21,-145.28 1344.18,-134.7"/>
<polygon fill="#63b8ff" stroke="#63b8ff" points="1404.64,-178.78 1414.92,-181.37 1408.5,-172.94 1404.64,-178.78"/>
</a>
</g>
</g>
<!-- Node26&#45;&gt;Node29 -->
<g id="edge55_Node000026_Node000029" class="edge">
<title>Node26&#45;&gt;Node29</title>
<g id="a_edge55_Node000026_Node000029"><a xlink:title=" ">
<path fill="none" stroke="#63b8ff" d="M1498.58,-180.03C1587.1,-167.52 1737.36,-146.29 1820.74,-134.51"/>
<polygon fill="#63b8ff" stroke="#63b8ff" points="1498.04,-176.57 1488.62,-181.44 1499.01,-183.5 1498.04,-176.57"/>
</a>
</g>
</g>
<!-- Node30&#45;&gt;Node4 -->
<g id="edge63_Node000030_Node000004" class="edge">
<title>Node30&#45;&gt;Node4</title>
<g id="a_edge63_Node000030_Node000004"><a xlink:title=" ">
<path fill="none" stroke="#63b8ff" d="M1208.79,-177.19C1180.01,-164.58 1136.85,-145.66 1111.84,-134.7"/>
<polygon fill="#63b8ff" stroke="#63b8ff" points="1207.75,-180.56 1218.31,-181.37 1210.56,-174.15 1207.75,-180.56"/>
</a>
</g>
</g>
<!-- Node30&#45;&gt;Node5 -->
<g id="edge64_Node000030_Node000005" class="edge">
<title>Node30&#45;&gt;Node5</title>
<g id="a_edge64_Node000030_Node000005"><a xlink:title=" ">
<path fill="none" stroke="#63b8ff" d="M1229.87,-172.42C1220.15,-153.58 1202,-124.44 1177,-110 1126.65,-80.93 957.2,-70.43 875.62,-67"/>
<polygon fill="#63b8ff" stroke="#63b8ff" points="1226.74,-174 1234.28,-181.44 1233.03,-170.92 1226.74,-174"/>
</a>
</g>
</g>
<!-- Node30&#45;&gt;Node6 -->
<g id="edge66_Node000030_Node000006" class="edge">
<title>Node30&#45;&gt;Node6</title>
<g id="a_edge66_Node000030_Node000006"><a xlink:title=" ">
<path fill="none" stroke="#63b8ff" d="M1232.99,-171.75C1224.55,-143.8 1205.21,-89.96 1173,-55 1159.27,-40.09 1139.8,-27.11 1126.36,-19.07"/>
<polygon fill="#63b8ff" stroke="#63b8ff" points="1229.64,-172.77 1235.78,-181.41 1236.37,-170.83 1229.64,-172.77"/>
</a>
</g>
</g>
<!-- Node30&#45;&gt;Node28 -->
<g id="edge65_Node000030_Node000028" class="edge">
<title>Node30&#45;&gt;Node28</title>
<g id="a_edge65_Node000030_Node000028"><a xlink:title=" ">
<path fill="none" stroke="#63b8ff" d="M1258.81,-175.68C1277.08,-163.11 1303.06,-145.23 1318.36,-134.7"/>
<polygon fill="#63b8ff" stroke="#63b8ff" points="1256.8,-172.82 1250.54,-181.37 1260.76,-178.58 1256.8,-172.82"/>
</a>
</g>
</g>
</g>
</svg>
