<?xml version="1.0" encoding="UTF-8" standalone="no"?>
<!DOCTYPE svg PUBLIC "-//W3C//DTD SVG 1.1//EN"
 "http://www.w3.org/Graphics/SVG/1.1/DTD/svg11.dtd">
<!-- Generated by graphviz version 2.43.0 (0)
 -->
<!-- Title: include/Library/error.h Pages: 1 -->
<!--zoomable 742 -->

<svg id="main" version="1.1" xmlns="http://www.w3.org/2000/svg" xmlns:xlink="http://www.w3.org/1999/xlink" xml:space="preserve" onload="init(evt)">
<style type="text/css"><![CDATA[
.node, .edge {opacity: 0.7;}
.node.selected, .edge.selected {opacity: 1;}
.edge:hover path { stroke: red; }
.edge:hover polygon { stroke: red; fill: red; }
]]></style>

<defs>
  <circle id="rim" cx="0" cy="0" r="7"/>
  <circle id="rim2" cx="0" cy="0" r="3.5"/>
  <g id="zoomPlus">
    <use xlink:href="#rim" fill="#404040"><set attributeName="fill" to="#808080" begin="zoomplus.mouseover" end="zoomplus.mouseout"/></use>
    <path d="M-4,0h8M0,-4v8" fill="none" stroke="white" stroke-width="1.5" pointer-events="none"/>
  </g>
  <g id="zoomMin">
    <use xlink:href="#rim" fill="#404040"><set attributeName="fill" to="#808080" begin="zoomminus.mouseover" end="zoomminus.mouseout"/></use>
    <path d="M-4,0h8" fill="none" stroke="white" stroke-width="1.5" pointer-events="none"/>
  </g>
  <g id="arrowUp" transform="translate(30 24)">
    <use xlink:href="#rim"/>
    <path pointer-events="none" fill="none" stroke="white" stroke-width="1.5" d="M0,-3.0v7 M-2.5,-0.5L0,-3.0L2.5,-0.5"/>
  </g>
  <g id="arrowRight" transform="rotate(90) translate(36 -43)">
    <use xlink:href="#rim"/>
    <path pointer-events="none" fill="none" stroke="white" stroke-width="1.5" d="M0,-3.0v7 M-2.5,-0.5L0,-3.0L2.5,-0.5"/>
  </g>
  <g id="arrowDown" transform="rotate(180) translate(-30 -48)">
    <use xlink:href="#rim"/>
    <path pointer-events="none" fill="none" stroke="white" stroke-width="1.5" d="M0,-3.0v7 M-2.5,-0.5L0,-3.0L2.5,-0.5"/>
  </g>
  <g id="arrowLeft" transform="rotate(270) translate(-36 17)">
    <use xlink:href="#rim"/>
    <path pointer-events="none" fill="none" stroke="white" stroke-width="1.5" d="M0,-3.0v7 M-2.5,-0.5L0,-3.0L2.5,-0.5"/>
  </g>
  <g id="resetDef">
    <use xlink:href="#rim2" fill="#404040"><set attributeName="fill" to="#808080" begin="reset.mouseover" end="reset.mouseout"/></use>
  </g>
</defs>
<script type="application/ecmascript">
var viewWidth = 1695;
var viewHeight = 742;
var sectionId = 'dynsection-1';
</script>
<script type="application/ecmascript" xlink:href="svg.min.js"/>
<svg id="graph" class="graph">
<g id="viewport">
<title>include/Library/error.h</title>
<!-- Node1 -->
<g id="Node000001" class="node">
<title>Node1</title>
<g id="a_Node000001"><a xlink:title=" ">
<polygon fill="#999999" stroke="#666666" points="949.5,-734 826.5,-734 826.5,-715 949.5,-715 949.5,-734"/>
<text text-anchor="middle" x="888" y="-722" font-family="Helvetica,sans-Serif" font-size="10.00">include/Library/error.h</text>
</a>
</g>
</g>
<!-- Node2 -->
<g id="Node000002" class="node">
<title>Node2</title>
<g id="a_Node000002"><a xlink:href="driverModel_8h.html" target="_top" xlink:title=" ">
<polygon fill="white" stroke="#666666" points="596.5,-541.5 435.5,-541.5 435.5,-522.5 596.5,-522.5 596.5,-541.5"/>
<text text-anchor="middle" x="516" y="-529.5" font-family="Helvetica,sans-Serif" font-size="10.00">include/Drivers/driverModel.h</text>
</a>
</g>
</g>
<!-- Node1&#45;&gt;Node2 -->
<g id="edge1_Node000001_Node000002" class="edge">
<title>Node1&#45;&gt;Node2</title>
<g id="a_edge1_Node000001_Node000002"><a xlink:title=" ">
<path fill="none" stroke="#63b8ff" d="M816.46,-721.01C768.55,-716.73 705.45,-705.88 656,-679 590.9,-643.61 538.01,-567.37 521.42,-541.67"/>
<polygon fill="#63b8ff" stroke="#63b8ff" points="816.19,-724.5 826.45,-721.83 816.76,-717.52 816.19,-724.5"/>
</a>
</g>
</g>
<!-- Node5 -->
<g id="Node000005" class="node">
<title>Node5</title>
<g id="a_Node000005"><a xlink:href="mlvp_8h.html" target="_top" xlink:title=" ">
<polygon fill="white" stroke="#666666" points="973.5,-74 884.5,-74 884.5,-55 973.5,-55 973.5,-74"/>
<text text-anchor="middle" x="929" y="-62" font-family="Helvetica,sans-Serif" font-size="10.00">include/mlvp.h</text>
</a>
</g>
</g>
<!-- Node1&#45;&gt;Node5 -->
<g id="edge69_Node000001_Node000005" class="edge">
<title>Node1&#45;&gt;Node5</title>
<g id="a_edge69_Node000001_Node000005"><a xlink:title=" ">
<path fill="none" stroke="#63b8ff" d="M959.91,-719.81C1156.27,-708.79 1687,-672.23 1687,-599 1687,-599 1687,-599 1687,-173.5 1687,-113.94 1626.21,-126.55 1569,-110 1512.23,-93.58 1109.65,-73.8 973.71,-67.52"/>
<polygon fill="#63b8ff" stroke="#63b8ff" points="959.49,-716.33 949.7,-720.38 959.88,-723.32 959.49,-716.33"/>
</a>
</g>
</g>
<!-- Node21 -->
<g id="Node000021" class="node">
<title>Node21</title>
<g id="a_Node000021"><a xlink:href="generatorHelper_8h.html" target="_top" xlink:title=" ">
<polygon fill="white" stroke="#666666" points="1533.5,-613 1410.5,-613 1410.5,-583 1533.5,-583 1533.5,-613"/>
<text text-anchor="start" x="1418.5" y="-601" font-family="Helvetica,sans-Serif" font-size="10.00">include/TestGenerator</text>
<text text-anchor="middle" x="1472" y="-590" font-family="Helvetica,sans-Serif" font-size="10.00">/generatorHelper.h</text>
</a>
</g>
</g>
<!-- Node1&#45;&gt;Node21 -->
<g id="edge37_Node000001_Node000021" class="edge">
<title>Node1&#45;&gt;Node21</title>
<g id="a_edge37_Node000001_Node000021"><a xlink:title=" ">
<path fill="none" stroke="#63b8ff" d="M938,-712.84C1044.61,-690.11 1294,-636.95 1410.27,-612.16"/>
<polygon fill="#63b8ff" stroke="#63b8ff" points="937.19,-709.43 928.14,-714.94 938.65,-716.28 937.19,-709.43"/>
</a>
</g>
</g>
<!-- Node23 -->
<g id="Node000023" class="node">
<title>Node23</title>
<g id="a_Node000023"><a xlink:href="transaction_8h_source.html" target="_top" xlink:title=" ">
<polygon fill="white" stroke="#666666" points="775,-679 665,-679 665,-649 775,-649 775,-679"/>
<text text-anchor="start" x="673" y="-667" font-family="Helvetica,sans-Serif" font-size="10.00">include/Transaction</text>
<text text-anchor="middle" x="720" y="-656" font-family="Helvetica,sans-Serif" font-size="10.00">/transaction.h</text>
</a>
</g>
</g>
<!-- Node1&#45;&gt;Node23 -->
<g id="edge40_Node000001_Node000023" class="edge">
<title>Node1&#45;&gt;Node23</title>
<g id="a_edge40_Node000001_Node000023"><a xlink:title=" ">
<path fill="none" stroke="#63b8ff" d="M853.78,-711.58C826.73,-702.16 788.92,-689 760.39,-679.06"/>
<polygon fill="#63b8ff" stroke="#63b8ff" points="852.98,-715.01 863.57,-714.99 855.28,-708.4 852.98,-715.01"/>
</a>
</g>
</g>
<!-- Node29 -->
<g id="Node000029" class="node">
<title>Node29</title>
<g id="a_Node000029"><a xlink:href="transaction_8cpp.html" target="_top" xlink:title=" ">
<polygon fill="white" stroke="#666666" points="971.5,-541.5 804.5,-541.5 804.5,-522.5 971.5,-522.5 971.5,-541.5"/>
<text text-anchor="middle" x="888" y="-529.5" font-family="Helvetica,sans-Serif" font-size="10.00">src/Transaction/transaction.cpp</text>
</a>
</g>
</g>
<!-- Node1&#45;&gt;Node29 -->
<g id="edge70_Node000001_Node000029" class="edge">
<title>Node1&#45;&gt;Node29</title>
<g id="a_edge70_Node000001_Node000029"><a xlink:title=" ">
<path fill="none" stroke="#63b8ff" d="M888,-704.75C888,-664.43 888,-570.75 888,-541.73"/>
<polygon fill="#63b8ff" stroke="#63b8ff" points="884.5,-704.82 888,-714.82 891.5,-704.82 884.5,-704.82"/>
</a>
</g>
</g>
<!-- Node3 -->
<g id="Node000003" class="node">
<title>Node3</title>
<g id="a_Node000003"><a xlink:href="driver_8h.html" target="_top" xlink:title=" ">
<polygon fill="white" stroke="#666666" points="518,-184 388,-184 388,-165 518,-165 518,-184"/>
<text text-anchor="middle" x="453" y="-172" font-family="Helvetica,sans-Serif" font-size="10.00">include/Drivers/driver.h</text>
</a>
</g>
</g>
<!-- Node2&#45;&gt;Node3 -->
<g id="edge2_Node000002_Node000003" class="edge">
<title>Node2&#45;&gt;Node3</title>
<g id="a_edge2_Node000002_Node000003"><a xlink:title=" ">
<path fill="none" stroke="#63b8ff" d="M474.84,-518.83C456.49,-511.12 436.65,-499.1 426,-481 395.29,-428.8 440.48,-228.11 450.93,-184.08"/>
<polygon fill="#63b8ff" stroke="#63b8ff" points="473.65,-522.12 484.24,-522.47 476.18,-515.6 473.65,-522.12"/>
</a>
</g>
</g>
<!-- Node2&#45;&gt;Node5 -->
<g id="edge35_Node000002_Node000005" class="edge">
<title>Node2&#45;&gt;Node5</title>
<g id="a_edge35_Node000002_Node000005"><a xlink:title=" ">
<path fill="none" stroke="#63b8ff" d="M452.77,-520.92C444.11,-519.58 435.34,-518.24 427,-517 370.18,-508.54 214.44,-518.6 171,-481 102.56,-421.77 114,-376.01 114,-285.5 114,-285.5 114,-285.5 114,-173.5 114,-95.13 713.85,-71.74 884.31,-66.68"/>
<polygon fill="#63b8ff" stroke="#63b8ff" points="452.42,-524.41 462.84,-522.49 453.5,-517.49 452.42,-524.41"/>
</a>
</g>
</g>
<!-- Node9 -->
<g id="Node000009" class="node">
<title>Node9</title>
<g id="a_Node000009"><a xlink:href="dutDriver_8h.html" target="_top" xlink:title=" ">
<polygon fill="white" stroke="#666666" points="410.5,-294 263.5,-294 263.5,-275 410.5,-275 410.5,-294"/>
<text text-anchor="middle" x="337" y="-282" font-family="Helvetica,sans-Serif" font-size="10.00">include/Drivers/dutDriver.h</text>
</a>
</g>
</g>
<!-- Node2&#45;&gt;Node9 -->
<g id="edge9_Node000002_Node000009" class="edge">
<title>Node2&#45;&gt;Node9</title>
<g id="a_edge9_Node000002_Node000009"><a xlink:title=" ">
<path fill="none" stroke="#63b8ff" d="M458.35,-519.54C434.85,-512.16 409.22,-500.21 392,-481 341.16,-424.29 336.96,-324.1 336.89,-294.17"/>
<polygon fill="#63b8ff" stroke="#63b8ff" points="457.68,-522.99 468.26,-522.43 459.64,-516.27 457.68,-522.99"/>
</a>
</g>
</g>
<!-- Node10 -->
<g id="Node000010" class="node">
<title>Node10</title>
<g id="a_Node000010"><a xlink:href="refDriver_8h.html" target="_top" xlink:title=" ">
<polygon fill="white" stroke="#666666" points="787.5,-239 642.5,-239 642.5,-220 787.5,-220 787.5,-239"/>
<text text-anchor="middle" x="715" y="-227" font-family="Helvetica,sans-Serif" font-size="10.00">include/Drivers/refDriver.h</text>
</a>
</g>
</g>
<!-- Node2&#45;&gt;Node10 -->
<g id="edge17_Node000002_Node000010" class="edge">
<title>Node2&#45;&gt;Node10</title>
<g id="a_edge17_Node000002_Node000010"><a xlink:title=" ">
<path fill="none" stroke="#63b8ff" d="M554.28,-519.45C585.02,-509.9 629.15,-495.59 667,-481 686.5,-473.49 690.08,-468.3 710,-462 788.21,-437.28 838.97,-489.4 891,-426 952.57,-350.98 790.65,-265.8 733.85,-239.02"/>
<polygon fill="#63b8ff" stroke="#63b8ff" points="552.92,-516.2 544.4,-522.49 554.98,-522.89 552.92,-516.2"/>
</a>
</g>
</g>
<!-- Node13 -->
<g id="Node000013" class="node">
<title>Node13</title>
<g id="a_Node000013"><a xlink:href="simulatorDriver_8h.html" target="_top" xlink:title=" ">
<polygon fill="white" stroke="#666666" points="882,-426 742,-426 742,-396 882,-396 882,-426"/>
<text text-anchor="start" x="750" y="-414" font-family="Helvetica,sans-Serif" font-size="10.00">include/Drivers/simulator</text>
<text text-anchor="middle" x="812" y="-403" font-family="Helvetica,sans-Serif" font-size="10.00">Driver.h</text>
</a>
</g>
</g>
<!-- Node2&#45;&gt;Node13 -->
<g id="edge18_Node000002_Node000013" class="edge">
<title>Node2&#45;&gt;Node13</title>
<g id="a_edge18_Node000002_Node000013"><a xlink:title=" ">
<path fill="none" stroke="#63b8ff" d="M544.22,-518.27C576.03,-504.06 629.4,-480.6 676,-462 708.01,-449.23 744.71,-435.8 771.91,-426.09"/>
<polygon fill="#63b8ff" stroke="#63b8ff" points="542.76,-515.09 535.07,-522.37 545.63,-521.48 542.76,-515.09"/>
</a>
</g>
</g>
<!-- Node14 -->
<g id="Node000014" class="node">
<title>Node14</title>
<g id="a_Node000014"><a xlink:href="transDriverModel_8h.html" target="_top" xlink:title=" ">
<polygon fill="white" stroke="#666666" points="620,-360 472,-360 472,-330 620,-330 620,-360"/>
<text text-anchor="start" x="480" y="-348" font-family="Helvetica,sans-Serif" font-size="10.00">include/Drivers/transDriver</text>
<text text-anchor="middle" x="546" y="-337" font-family="Helvetica,sans-Serif" font-size="10.00">Model.h</text>
</a>
</g>
</g>
<!-- Node2&#45;&gt;Node14 -->
<g id="edge29_Node000002_Node000014" class="edge">
<title>Node2&#45;&gt;Node14</title>
<g id="a_edge29_Node000002_Node000014"><a xlink:title=" ">
<path fill="none" stroke="#63b8ff" d="M551.09,-518.18C567.55,-510.19 585.58,-498.12 595,-481 617.85,-439.5 579.79,-385.24 558.65,-360.02"/>
<polygon fill="#63b8ff" stroke="#63b8ff" points="549.35,-515.13 541.66,-522.42 552.22,-521.51 549.35,-515.13"/>
</a>
</g>
</g>
<!-- Node17 -->
<g id="Node000017" class="node">
<title>Node17</title>
<g id="a_Node000017"><a xlink:href="ref_8h.html" target="_top" xlink:title=" ">
<polygon fill="white" stroke="#666666" points="837.5,-481 718.5,-481 718.5,-462 837.5,-462 837.5,-481"/>
<text text-anchor="middle" x="778" y="-469" font-family="Helvetica,sans-Serif" font-size="10.00">include/RefPack/ref.h</text>
</a>
</g>
</g>
<!-- Node2&#45;&gt;Node17 -->
<g id="edge30_Node000002_Node000017" class="edge">
<title>Node2&#45;&gt;Node17</title>
<g id="a_edge30_Node000002_Node000017"><a xlink:title=" ">
<path fill="none" stroke="#63b8ff" d="M564.14,-520.25C614.75,-508.95 693.36,-491.4 739.86,-481.02"/>
<polygon fill="#63b8ff" stroke="#63b8ff" points="563.09,-516.9 554.1,-522.49 564.62,-523.73 563.09,-516.9"/>
</a>
</g>
</g>
<!-- Node18 -->
<g id="Node000018" class="node">
<title>Node18</title>
<g id="a_Node000018"><a xlink:href="simulator_8h.html" target="_top" xlink:title=" ">
<polygon fill="white" stroke="#666666" points="340,-481 180,-481 180,-462 340,-462 340,-481"/>
<text text-anchor="middle" x="260" y="-469" font-family="Helvetica,sans-Serif" font-size="10.00">include/Simulator/simulator.h</text>
</a>
</g>
</g>
<!-- Node2&#45;&gt;Node18 -->
<g id="edge32_Node000002_Node000018" class="edge">
<title>Node2&#45;&gt;Node18</title>
<g id="a_edge32_Node000002_Node000018"><a xlink:title=" ">
<path fill="none" stroke="#63b8ff" d="M468.96,-520.25C419.51,-508.95 342.7,-491.4 297.27,-481.02"/>
<polygon fill="#63b8ff" stroke="#63b8ff" points="468.25,-523.68 478.78,-522.49 469.81,-516.85 468.25,-523.68"/>
</a>
</g>
</g>
<!-- Node20 -->
<g id="Node000020" class="node">
<title>Node20</title>
<g id="a_Node000020"><a xlink:href="driverModel_8cpp.html" target="_top" xlink:title=" ">
<polygon fill="white" stroke="#666666" points="585.5,-481 434.5,-481 434.5,-462 585.5,-462 585.5,-481"/>
<text text-anchor="middle" x="510" y="-469" font-family="Helvetica,sans-Serif" font-size="10.00">src/Drivers/driverModel.cpp</text>
</a>
</g>
</g>
<!-- Node2&#45;&gt;Node20 -->
<g id="edge36_Node000002_Node000020" class="edge">
<title>Node2&#45;&gt;Node20</title>
<g id="a_edge36_Node000002_Node000020"><a xlink:title=" ">
<path fill="none" stroke="#63b8ff" d="M514.07,-512.16C513,-501.74 511.72,-489.3 510.89,-481.17"/>
<polygon fill="#63b8ff" stroke="#63b8ff" points="510.61,-512.78 515.11,-522.37 517.58,-512.06 510.61,-512.78"/>
</a>
</g>
</g>
<!-- Node4 -->
<g id="Node000004" class="node">
<title>Node4</title>
<g id="a_Node000004"><a xlink:href="spreader_8h.html" target="_top" xlink:title=" ">
<polygon fill="white" stroke="#666666" points="1280,-129 1128,-129 1128,-110 1280,-110 1280,-129"/>
<text text-anchor="middle" x="1204" y="-117" font-family="Helvetica,sans-Serif" font-size="10.00">include/Spreader/spreader.h</text>
</a>
</g>
</g>
<!-- Node3&#45;&gt;Node4 -->
<g id="edge3_Node000003_Node000004" class="edge">
<title>Node3&#45;&gt;Node4</title>
<g id="a_edge3_Node000003_Node000004"><a xlink:title=" ">
<path fill="none" stroke="#63b8ff" d="M528.05,-168.2C671.6,-158.07 983.64,-136.05 1127.96,-125.87"/>
<polygon fill="#63b8ff" stroke="#63b8ff" points="527.73,-164.72 518.01,-168.91 528.23,-171.7 527.73,-164.72"/>
</a>
</g>
</g>
<!-- Node3&#45;&gt;Node5 -->
<g id="edge7_Node000003_Node000005" class="edge">
<title>Node3&#45;&gt;Node5</title>
<g id="a_edge7_Node000003_Node000005"><a xlink:title=" ">
<path fill="none" stroke="#63b8ff" d="M453.3,-154.54C454.63,-140.03 458.96,-120.73 472,-110 503.43,-84.13 775.62,-71.22 884.38,-67.05"/>
<polygon fill="#63b8ff" stroke="#63b8ff" points="449.79,-154.74 452.78,-164.9 456.78,-155.09 449.79,-154.74"/>
</a>
</g>
</g>
<!-- Node8 -->
<g id="Node000008" class="node">
<title>Node8</title>
<g id="a_Node000008"><a xlink:href="driver_8cpp.html" target="_top" xlink:title=" ">
<polygon fill="white" stroke="#666666" points="601,-129 481,-129 481,-110 601,-110 601,-129"/>
<text text-anchor="middle" x="541" y="-117" font-family="Helvetica,sans-Serif" font-size="10.00">src/Drivers/driver.cpp</text>
</a>
</g>
</g>
<!-- Node3&#45;&gt;Node8 -->
<g id="edge8_Node000003_Node000008" class="edge">
<title>Node3&#45;&gt;Node8</title>
<g id="a_edge8_Node000003_Node000008"><a xlink:title=" ">
<path fill="none" stroke="#63b8ff" d="M475.92,-159.7C491.95,-150.04 512.87,-137.44 526.6,-129.17"/>
<polygon fill="#63b8ff" stroke="#63b8ff" points="473.9,-156.83 467.14,-164.98 477.51,-162.82 473.9,-156.83"/>
</a>
</g>
</g>
<!-- Node4&#45;&gt;Node5 -->
<g id="edge4_Node000004_Node000005" class="edge">
<title>Node4&#45;&gt;Node5</title>
<g id="a_edge4_Node000004_Node000005"><a xlink:title=" ">
<path fill="none" stroke="#63b8ff" d="M1149.86,-108.07C1098.3,-98.13 1021.64,-83.35 973.53,-74.08"/>
<polygon fill="#63b8ff" stroke="#63b8ff" points="1149.33,-111.53 1159.82,-109.98 1150.66,-104.66 1149.33,-111.53"/>
</a>
</g>
</g>
<!-- Node7 -->
<g id="Node000007" class="node">
<title>Node7</title>
<g id="a_Node000007"><a xlink:href="spreader_8cpp.html" target="_top" xlink:title=" ">
<polygon fill="white" stroke="#666666" points="1275.5,-74 1132.5,-74 1132.5,-55 1275.5,-55 1275.5,-74"/>
<text text-anchor="middle" x="1204" y="-62" font-family="Helvetica,sans-Serif" font-size="10.00">src/Spreader/spreader.cpp</text>
</a>
</g>
</g>
<!-- Node4&#45;&gt;Node7 -->
<g id="edge6_Node000004_Node000007" class="edge">
<title>Node4&#45;&gt;Node7</title>
<g id="a_edge6_Node000004_Node000007"><a xlink:title=" ">
<path fill="none" stroke="#63b8ff" d="M1204,-99.66C1204,-90.93 1204,-80.99 1204,-74.09"/>
<polygon fill="#63b8ff" stroke="#63b8ff" points="1200.5,-99.75 1204,-109.75 1207.5,-99.75 1200.5,-99.75"/>
</a>
</g>
</g>
<!-- Node6 -->
<g id="Node000006" class="node">
<title>Node6</title>
<g id="a_Node000006"><a xlink:href="main_8cpp.html" target="_top" xlink:title=" ">
<polygon fill="white" stroke="#666666" points="968.5,-19 889.5,-19 889.5,0 968.5,0 968.5,-19"/>
<text text-anchor="middle" x="929" y="-7" font-family="Helvetica,sans-Serif" font-size="10.00">src/main.cpp</text>
</a>
</g>
</g>
<!-- Node5&#45;&gt;Node6 -->
<g id="edge5_Node000005_Node000006" class="edge">
<title>Node5&#45;&gt;Node6</title>
<g id="a_edge5_Node000005_Node000006"><a xlink:title=" ">
<path fill="none" stroke="#63b8ff" d="M929,-44.66C929,-35.93 929,-25.99 929,-19.09"/>
<polygon fill="#63b8ff" stroke="#63b8ff" points="925.5,-44.75 929,-54.75 932.5,-44.75 925.5,-44.75"/>
</a>
</g>
</g>
<!-- Node9&#45;&gt;Node3 -->
<g id="edge10_Node000009_Node000003" class="edge">
<title>Node9&#45;&gt;Node3</title>
<g id="a_edge10_Node000009_Node000003"><a xlink:title=" ">
<path fill="none" stroke="#63b8ff" d="M307.35,-270.51C283.75,-258.34 256.96,-239.18 272,-220 286.37,-201.66 341.85,-189.88 387.63,-183.07"/>
<polygon fill="#63b8ff" stroke="#63b8ff" points="305.96,-273.73 316.48,-274.98 309.03,-267.44 305.96,-273.73"/>
</a>
</g>
</g>
<!-- Node9&#45;&gt;Node5 -->
<g id="edge15_Node000009_Node000005" class="edge">
<title>Node9&#45;&gt;Node5</title>
<g id="a_edge15_Node000009_Node000005"><a xlink:title=" ">
<path fill="none" stroke="#63b8ff" d="M302.38,-270.92C277.48,-259.75 250.35,-241.82 263,-220 312.31,-134.91 361.25,-139.71 455,-110 534.38,-84.84 782.46,-71.72 884.49,-67.27"/>
<polygon fill="#63b8ff" stroke="#63b8ff" points="301.15,-274.2 311.72,-274.87 303.87,-267.76 301.15,-274.2"/>
</a>
</g>
</g>
<!-- Node9&#45;&gt;Node10 -->
<g id="edge11_Node000009_Node000010" class="edge">
<title>Node9&#45;&gt;Node10</title>
<g id="a_edge11_Node000009_Node000010"><a xlink:title=" ">
<path fill="none" stroke="#63b8ff" d="M407.92,-273.56C478.89,-263.61 586.91,-248.46 654.11,-239.04"/>
<polygon fill="#63b8ff" stroke="#63b8ff" points="407.15,-270.13 397.73,-274.98 408.12,-277.06 407.15,-270.13"/>
</a>
</g>
</g>
<!-- Node12 -->
<g id="Node000012" class="node">
<title>Node12</title>
<g id="a_Node000012"><a xlink:href="dutDriver_8cpp.html" target="_top" xlink:title=" ">
<polygon fill="white" stroke="#666666" points="417.5,-239 280.5,-239 280.5,-220 417.5,-220 417.5,-239"/>
<text text-anchor="middle" x="349" y="-227" font-family="Helvetica,sans-Serif" font-size="10.00">src/Drivers/dutDriver.cpp</text>
</a>
</g>
</g>
<!-- Node9&#45;&gt;Node12 -->
<g id="edge16_Node000009_Node000012" class="edge">
<title>Node9&#45;&gt;Node12</title>
<g id="a_edge16_Node000009_Node000012"><a xlink:title=" ">
<path fill="none" stroke="#63b8ff" d="M341.2,-264.95C343.19,-256.15 345.48,-246.06 347.06,-239.09"/>
<polygon fill="#63b8ff" stroke="#63b8ff" points="337.78,-264.22 338.98,-274.75 344.6,-265.77 337.78,-264.22"/>
</a>
</g>
</g>
<!-- Node10&#45;&gt;Node3 -->
<g id="edge12_Node000010_Node000003" class="edge">
<title>Node10&#45;&gt;Node3</title>
<g id="a_edge12_Node000010_Node000003"><a xlink:title=" ">
<path fill="none" stroke="#63b8ff" d="M662.8,-217.94C613.69,-208.01 541.07,-193.31 495.42,-184.08"/>
<polygon fill="#63b8ff" stroke="#63b8ff" points="662.41,-221.43 672.91,-219.98 663.8,-214.57 662.41,-221.43"/>
</a>
</g>
</g>
<!-- Node10&#45;&gt;Node5 -->
<g id="edge13_Node000010_Node000005" class="edge">
<title>Node10&#45;&gt;Node5</title>
<g id="a_edge13_Node000010_Node000005"><a xlink:title=" ">
<path fill="none" stroke="#63b8ff" d="M689.94,-214.6C670.74,-202.11 649.5,-183 662,-165 712.37,-92.47 822.31,-72.71 884.25,-67.4"/>
<polygon fill="#63b8ff" stroke="#63b8ff" points="688.13,-217.6 698.48,-219.85 691.79,-211.64 688.13,-217.6"/>
</a>
</g>
</g>
<!-- Node11 -->
<g id="Node000011" class="node">
<title>Node11</title>
<g id="a_Node000011"><a xlink:href="refDriver_8cpp.html" target="_top" xlink:title=" ">
<polygon fill="white" stroke="#666666" points="805.5,-184 670.5,-184 670.5,-165 805.5,-165 805.5,-184"/>
<text text-anchor="middle" x="738" y="-172" font-family="Helvetica,sans-Serif" font-size="10.00">src/Drivers/refDriver.cpp</text>
</a>
</g>
</g>
<!-- Node10&#45;&gt;Node11 -->
<g id="edge14_Node000010_Node000011" class="edge">
<title>Node10&#45;&gt;Node11</title>
<g id="a_edge14_Node000010_Node000011"><a xlink:title=" ">
<path fill="none" stroke="#63b8ff" d="M722.8,-210.53C726.68,-201.6 731.18,-191.22 734.27,-184.09"/>
<polygon fill="#63b8ff" stroke="#63b8ff" points="719.57,-209.18 718.8,-219.75 725.99,-211.97 719.57,-209.18"/>
</a>
</g>
</g>
<!-- Node13&#45;&gt;Node4 -->
<g id="edge26_Node000013_Node000004" class="edge">
<title>Node13&#45;&gt;Node4</title>
<g id="a_edge26_Node000013_Node000004"><a xlink:title=" ">
<path fill="none" stroke="#63b8ff" d="M842.05,-390.2C855.59,-381.15 871.71,-370.2 886,-360 1008.36,-272.67 1152.35,-160.85 1192.89,-129.2"/>
<polygon fill="#63b8ff" stroke="#63b8ff" points="839.96,-387.39 833.57,-395.85 843.84,-393.22 839.96,-387.39"/>
</a>
</g>
</g>
<!-- Node13&#45;&gt;Node5 -->
<g id="edge27_Node000013_Node000005" class="edge">
<title>Node13&#45;&gt;Node5</title>
<g id="a_edge27_Node000013_Node000005"><a xlink:title=" ">
<path fill="none" stroke="#63b8ff" d="M830.3,-387.73C847.95,-363.95 872,-324.39 872,-285.5 872,-285.5 872,-285.5 872,-173.5 872,-132.37 904.73,-91.56 920.59,-74.2"/>
<polygon fill="#63b8ff" stroke="#63b8ff" points="827.45,-385.69 824.14,-395.75 833.01,-389.95 827.45,-385.69"/>
</a>
</g>
</g>
<!-- Node13&#45;&gt;Node9 -->
<g id="edge19_Node000013_Node000009" class="edge">
<title>Node13&#45;&gt;Node9</title>
<g id="a_edge19_Node000013_Node000009"><a xlink:title=" ">
<path fill="none" stroke="#63b8ff" d="M731.52,-407.36C659.39,-402.93 551.61,-391.16 463,-360 416.97,-343.81 369.11,-310 348.06,-294.11"/>
<polygon fill="#63b8ff" stroke="#63b8ff" points="731.71,-410.87 741.89,-407.96 732.11,-403.89 731.71,-410.87"/>
</a>
</g>
</g>
<!-- Node13&#45;&gt;Node10 -->
<g id="edge20_Node000013_Node000010" class="edge">
<title>Node13&#45;&gt;Node10</title>
<g id="a_edge20_Node000013_Node000010"><a xlink:title=" ">
<path fill="none" stroke="#63b8ff" d="M818.03,-385.9C820.92,-369.51 822.35,-347.69 815,-330 797.42,-287.71 752.17,-254.11 729.05,-239.07"/>
<polygon fill="#63b8ff" stroke="#63b8ff" points="814.58,-385.28 816,-395.78 821.44,-386.69 814.58,-385.28"/>
</a>
</g>
</g>
<!-- Node13&#45;&gt;Node14 -->
<g id="edge21_Node000013_Node000014" class="edge">
<title>Node13&#45;&gt;Node14</title>
<g id="a_edge21_Node000013_Node000014"><a xlink:title=" ">
<path fill="none" stroke="#63b8ff" d="M743.77,-393.58C700.58,-383.19 645.35,-369.9 604.24,-360.01"/>
<polygon fill="#63b8ff" stroke="#63b8ff" points="743.08,-397.02 753.63,-395.95 744.72,-390.21 743.08,-397.02"/>
</a>
</g>
</g>
<!-- Node16 -->
<g id="Node000016" class="node">
<title>Node16</title>
<g id="a_Node000016"><a xlink:href="simulatorDriver_8cpp.html" target="_top" xlink:title=" ">
<polygon fill="white" stroke="#666666" points="806,-354.5 638,-354.5 638,-335.5 806,-335.5 806,-354.5"/>
<text text-anchor="middle" x="722" y="-342.5" font-family="Helvetica,sans-Serif" font-size="10.00">src/Drivers/simulatorDriver.cpp</text>
</a>
</g>
</g>
<!-- Node13&#45;&gt;Node16 -->
<g id="edge28_Node000013_Node000016" class="edge">
<title>Node13&#45;&gt;Node16</title>
<g id="a_edge28_Node000013_Node000016"><a xlink:title=" ">
<path fill="none" stroke="#63b8ff" d="M783.7,-389.87C767.04,-378.03 746.82,-363.65 734.18,-354.66"/>
<polygon fill="#63b8ff" stroke="#63b8ff" points="781.85,-392.85 792.03,-395.8 785.9,-387.15 781.85,-392.85"/>
</a>
</g>
</g>
<!-- Node14&#45;&gt;Node5 -->
<g id="edge24_Node000014_Node000005" class="edge">
<title>Node14&#45;&gt;Node5</title>
<g id="a_edge24_Node000014_Node000005"><a xlink:title=" ">
<path fill="none" stroke="#63b8ff" d="M630.1,-327.8C715.1,-308.96 834,-274.7 834,-230.5 834,-230.5 834,-230.5 834,-173.5 834,-143.33 838.89,-133.34 858,-110 871.36,-93.68 892.37,-81.57 908.07,-74.14"/>
<polygon fill="#63b8ff" stroke="#63b8ff" points="629.19,-324.42 620.17,-329.97 630.68,-331.26 629.19,-324.42"/>
</a>
</g>
</g>
<!-- Node14&#45;&gt;Node9 -->
<g id="edge22_Node000014_Node000009" class="edge">
<title>Node14&#45;&gt;Node9</title>
<g id="a_edge22_Node000014_Node000009"><a xlink:title=" ">
<path fill="none" stroke="#63b8ff" d="M485.82,-327.16C447.13,-316.33 398.49,-302.71 367.56,-294.05"/>
<polygon fill="#63b8ff" stroke="#63b8ff" points="485.37,-330.66 495.94,-329.99 487.25,-323.92 485.37,-330.66"/>
</a>
</g>
</g>
<!-- Node14&#45;&gt;Node10 -->
<g id="edge23_Node000014_Node000010" class="edge">
<title>Node14&#45;&gt;Node10</title>
<g id="a_edge23_Node000014_Node000010"><a xlink:title=" ">
<path fill="none" stroke="#63b8ff" d="M593.68,-326.1C612.96,-317.78 634.89,-306.85 653,-294 675.87,-277.77 697.56,-252.52 708.19,-239.28"/>
<polygon fill="#63b8ff" stroke="#63b8ff" points="592.32,-322.88 584.45,-329.98 595.03,-329.33 592.32,-322.88"/>
</a>
</g>
</g>
<!-- Node15 -->
<g id="Node000015" class="node">
<title>Node15</title>
<g id="a_Node000015"><a xlink:href="transDriverModel_8cpp.html" target="_top" xlink:title=" ">
<polygon fill="white" stroke="#666666" points="643.5,-294 466.5,-294 466.5,-275 643.5,-275 643.5,-294"/>
<text text-anchor="middle" x="555" y="-282" font-family="Helvetica,sans-Serif" font-size="10.00">src/Drivers/transDriverModel.cpp</text>
</a>
</g>
</g>
<!-- Node14&#45;&gt;Node15 -->
<g id="edge25_Node000014_Node000015" class="edge">
<title>Node14&#45;&gt;Node15</title>
<g id="a_edge25_Node000014_Node000015"><a xlink:title=" ">
<path fill="none" stroke="#63b8ff" d="M549.73,-319.75C551.12,-310.72 552.61,-301.03 553.65,-294.27"/>
<polygon fill="#63b8ff" stroke="#63b8ff" points="546.24,-319.42 548.18,-329.84 553.16,-320.49 546.24,-319.42"/>
</a>
</g>
</g>
<!-- Node17&#45;&gt;Node5 -->
<g id="edge31_Node000017_Node000005" class="edge">
<title>Node17&#45;&gt;Node5</title>
<g id="a_edge31_Node000017_Node000005"><a xlink:title=" ">
<path fill="none" stroke="#63b8ff" d="M847.46,-459.52C870.03,-452.98 893.69,-442.58 911,-426 978.22,-361.64 986,-323.56 986,-230.5 986,-230.5 986,-230.5 986,-173.5 986,-132.37 953.27,-91.56 937.41,-74.2"/>
<polygon fill="#63b8ff" stroke="#63b8ff" points="846.29,-456.2 837.53,-462.17 848.1,-462.97 846.29,-456.2"/>
</a>
</g>
</g>
<!-- Node18&#45;&gt;Node13 -->
<g id="edge33_Node000018_Node000013" class="edge">
<title>Node18&#45;&gt;Node13</title>
<g id="a_edge33_Node000018_Node000013"><a xlink:title=" ">
<path fill="none" stroke="#63b8ff" d="M350.3,-460.93C459.82,-449.32 642.09,-430.01 741.7,-419.45"/>
<polygon fill="#63b8ff" stroke="#63b8ff" points="349.84,-457.46 340.27,-461.99 350.58,-464.42 349.84,-457.46"/>
</a>
</g>
</g>
<!-- Node19 -->
<g id="Node000019" class="node">
<title>Node19</title>
<g id="a_Node000019"><a xlink:href="simulator_8cpp.html" target="_top" xlink:title=" ">
<polygon fill="white" stroke="#666666" points="335,-420.5 185,-420.5 185,-401.5 335,-401.5 335,-420.5"/>
<text text-anchor="middle" x="260" y="-408.5" font-family="Helvetica,sans-Serif" font-size="10.00">src/Simulator/simulator.cpp</text>
</a>
</g>
</g>
<!-- Node18&#45;&gt;Node19 -->
<g id="edge34_Node000018_Node000019" class="edge">
<title>Node18&#45;&gt;Node19</title>
<g id="a_edge34_Node000018_Node000019"><a xlink:title=" ">
<path fill="none" stroke="#63b8ff" d="M260,-451.66C260,-441.24 260,-428.8 260,-420.67"/>
<polygon fill="#63b8ff" stroke="#63b8ff" points="256.5,-451.87 260,-461.87 263.5,-451.87 256.5,-451.87"/>
</a>
</g>
</g>
<!-- Node21&#45;&gt;Node5 -->
<g id="edge38_Node000021_Node000005" class="edge">
<title>Node21&#45;&gt;Node5</title>
<g id="a_edge38_Node000021_Node000005"><a xlink:title=" ">
<path fill="none" stroke="#63b8ff" d="M1528.82,-578.82C1545.02,-571.23 1561.4,-560.86 1573,-547 1650.69,-454.2 1649,-406.53 1649,-285.5 1649,-285.5 1649,-285.5 1649,-173.5 1649,-94.92 1560.62,-127.43 1484,-110 1387.04,-87.94 1087.43,-72.6 973.55,-67.42"/>
<polygon fill="#63b8ff" stroke="#63b8ff" points="1527.1,-575.75 1519.34,-582.97 1529.91,-582.16 1527.1,-575.75"/>
</a>
</g>
</g>
<!-- Node22 -->
<g id="Node000022" class="node">
<title>Node22</title>
<g id="a_Node000022"><a xlink:href="generatorHelper_8cpp.html" target="_top" xlink:title=" ">
<polygon fill="white" stroke="#666666" points="1506.5,-547 1387.5,-547 1387.5,-517 1506.5,-517 1506.5,-547"/>
<text text-anchor="start" x="1395.5" y="-535" font-family="Helvetica,sans-Serif" font-size="10.00">src/TestGenerator/src</text>
<text text-anchor="middle" x="1447" y="-524" font-family="Helvetica,sans-Serif" font-size="10.00">/generatorHelper.cpp</text>
</a>
</g>
</g>
<!-- Node21&#45;&gt;Node22 -->
<g id="edge39_Node000021_Node000022" class="edge">
<title>Node21&#45;&gt;Node22</title>
<g id="a_edge39_Node000021_Node000022"><a xlink:title=" ">
<path fill="none" stroke="#63b8ff" d="M1462.78,-573.39C1459.34,-564.59 1455.54,-554.86 1452.53,-547.16"/>
<polygon fill="#63b8ff" stroke="#63b8ff" points="1459.55,-574.76 1466.45,-582.8 1466.07,-572.21 1459.55,-574.76"/>
</a>
</g>
</g>
<!-- Node23&#45;&gt;Node2 -->
<g id="edge56_Node000023_Node000002" class="edge">
<title>Node23&#45;&gt;Node2</title>
<g id="a_edge56_Node000023_Node000002"><a xlink:title=" ">
<path fill="none" stroke="#63b8ff" d="M689.27,-643.42C644.13,-614.65 561.75,-562.15 529.48,-541.59"/>
<polygon fill="#63b8ff" stroke="#63b8ff" points="687.47,-646.42 697.78,-648.84 691.23,-640.51 687.47,-646.42"/>
</a>
</g>
</g>
<!-- Node23&#45;&gt;Node3 -->
<g id="edge55_Node000023_Node000003" class="edge">
<title>Node23&#45;&gt;Node3</title>
<g id="a_edge55_Node000023_Node000003"><a xlink:title=" ">
<path fill="none" stroke="#63b8ff" d="M654.26,-662.21C517.24,-659.82 205.67,-650.33 107,-613 51.46,-591.99 0,-592.38 0,-533 0,-533 0,-533 0,-470.5 0,-280.92 282.05,-206.85 401.04,-184.03"/>
<polygon fill="#63b8ff" stroke="#63b8ff" points="654.55,-665.71 664.61,-662.38 654.67,-658.72 654.55,-665.71"/>
</a>
</g>
</g>
<!-- Node23&#45;&gt;Node4 -->
<g id="edge66_Node000023_Node000004" class="edge">
<title>Node23&#45;&gt;Node4</title>
<g id="a_edge66_Node000023_Node000004"><a xlink:title=" ">
<path fill="none" stroke="#63b8ff" d="M785.45,-661.2C967.78,-655.87 1472.77,-638.92 1543,-613 1598.37,-592.56 1649,-592.02 1649,-533 1649,-533 1649,-533 1649,-470.5 1649,-288.11 1544.17,-233.16 1375,-165 1333.88,-148.43 1284.7,-136.39 1249.66,-129.04"/>
<polygon fill="#63b8ff" stroke="#63b8ff" points="785.09,-657.7 775.2,-661.49 785.29,-664.7 785.09,-657.7"/>
</a>
</g>
</g>
<!-- Node23&#45;&gt;Node5 -->
<g id="edge67_Node000023_Node000005" class="edge">
<title>Node23&#45;&gt;Node5</title>
<g id="a_edge67_Node000023_Node000005"><a xlink:title=" ">
<path fill="none" stroke="#63b8ff" d="M729.83,-639.38C745.49,-602.74 776.31,-534.56 796,-517 829.39,-487.22 853.27,-506.54 890,-481 985.02,-414.94 1062,-401.23 1062,-285.5 1062,-285.5 1062,-285.5 1062,-173.5 1062,-119.66 995.51,-87.97 956.56,-74.02"/>
<polygon fill="#63b8ff" stroke="#63b8ff" points="726.52,-638.24 725.84,-648.82 732.96,-640.97 726.52,-638.24"/>
</a>
</g>
</g>
<!-- Node23&#45;&gt;Node9 -->
<g id="edge57_Node000023_Node000009" class="edge">
<title>Node23&#45;&gt;Node9</title>
<g id="a_edge57_Node000023_Node000009"><a xlink:title=" ">
<path fill="none" stroke="#63b8ff" d="M654.39,-663.5C490.44,-662.99 76,-650.12 76,-533 76,-533 76,-533 76,-470.5 76,-363.17 224.73,-312.46 297.64,-294.05"/>
<polygon fill="#63b8ff" stroke="#63b8ff" points="654.81,-667 664.81,-663.52 654.82,-660 654.81,-667"/>
</a>
</g>
</g>
<!-- Node23&#45;&gt;Node10 -->
<g id="edge58_Node000023_Node000010" class="edge">
<title>Node23&#45;&gt;Node10</title>
<g id="a_edge58_Node000023_Node000010"><a xlink:title=" ">
<path fill="none" stroke="#63b8ff" d="M720.64,-638.67C722.77,-606.7 731.17,-550.66 763,-517 795.74,-482.37 824.75,-508.03 864,-481 890.48,-462.76 899.87,-456.17 911,-426 915.62,-413.49 912.2,-409.28 911,-396 908.32,-366.31 914.48,-355.48 899,-330 878.28,-295.88 862.7,-294.73 828,-275 800.51,-259.36 766.44,-246.77 742.94,-239.03"/>
<polygon fill="#63b8ff" stroke="#63b8ff" points="717.13,-638.74 720.12,-648.9 724.12,-639.09 717.13,-638.74"/>
</a>
</g>
</g>
<!-- Node23&#45;&gt;Node14 -->
<g id="edge59_Node000023_Node000014" class="edge">
<title>Node23&#45;&gt;Node14</title>
<g id="a_edge59_Node000023_Node000014"><a xlink:title=" ">
<path fill="none" stroke="#63b8ff" d="M713.05,-639.04C705.48,-607.55 697.79,-552.13 725,-517 761.42,-469.98 882.16,-509.97 847,-462 815.59,-419.14 782.82,-444.47 733,-426 676.88,-405.19 613.1,-376.87 576.4,-360.1"/>
<polygon fill="#63b8ff" stroke="#63b8ff" points="709.66,-639.94 715.56,-648.74 716.44,-638.18 709.66,-639.94"/>
</a>
</g>
</g>
<!-- Node23&#45;&gt;Node17 -->
<g id="edge60_Node000023_Node000017" class="edge">
<title>Node23&#45;&gt;Node17</title>
<g id="a_edge60_Node000023_Node000017"><a xlink:title=" ">
<path fill="none" stroke="#63b8ff" d="M701.23,-640.63C695.5,-632.46 689.94,-622.8 687,-613 674.73,-572.14 664.41,-553.2 687,-517 698.55,-498.5 720.26,-487.48 739.58,-481.04"/>
<polygon fill="#63b8ff" stroke="#63b8ff" points="698.59,-642.95 707.39,-648.85 704.19,-638.75 698.59,-642.95"/>
</a>
</g>
</g>
<!-- Node23&#45;&gt;Node18 -->
<g id="edge65_Node000023_Node000018" class="edge">
<title>Node23&#45;&gt;Node18</title>
<g id="a_edge65_Node000023_Node000018"><a xlink:title=" ">
<path fill="none" stroke="#63b8ff" d="M654.96,-660.08C536.79,-654.15 296.48,-639.02 269,-613 231.73,-577.71 249.55,-505.77 257.16,-481.06"/>
<polygon fill="#63b8ff" stroke="#63b8ff" points="654.81,-663.57 664.97,-660.57 655.15,-656.58 654.81,-663.57"/>
</a>
</g>
</g>
<!-- Node24 -->
<g id="Node000024" class="node">
<title>Node24</title>
<g id="a_Node000024"><a xlink:href="channel_8h.html" target="_top" xlink:title=" ">
<polygon fill="white" stroke="#666666" points="422.5,-607.5 277.5,-607.5 277.5,-588.5 422.5,-588.5 422.5,-607.5"/>
<text text-anchor="middle" x="350" y="-595.5" font-family="Helvetica,sans-Serif" font-size="10.00">include/Channel/channel.h</text>
</a>
</g>
</g>
<!-- Node23&#45;&gt;Node24 -->
<g id="edge41_Node000023_Node000024" class="edge">
<title>Node23&#45;&gt;Node24</title>
<g id="a_edge41_Node000023_Node000024"><a xlink:title=" ">
<path fill="none" stroke="#63b8ff" d="M654.6,-651.69C581.56,-639.05 464.98,-618.89 399.25,-607.52"/>
<polygon fill="#63b8ff" stroke="#63b8ff" points="654.16,-655.16 664.61,-653.42 655.35,-648.27 654.16,-655.16"/>
</a>
</g>
</g>
<!-- Node26 -->
<g id="Node000026" class="node">
<title>Node26</title>
<g id="a_Node000026"><a xlink:href="database_8h.html" target="_top" xlink:title=" ">
<polygon fill="white" stroke="#666666" points="1227,-607.5 1069,-607.5 1069,-588.5 1227,-588.5 1227,-607.5"/>
<text text-anchor="middle" x="1148" y="-595.5" font-family="Helvetica,sans-Serif" font-size="10.00">include/Database/database.h</text>
</a>
</g>
</g>
<!-- Node23&#45;&gt;Node26 -->
<g id="edge48_Node000023_Node000026" class="edge">
<title>Node23&#45;&gt;Node26</title>
<g id="a_edge48_Node000023_Node000026"><a xlink:title=" ">
<path fill="none" stroke="#63b8ff" d="M785.2,-653.25C868.64,-640.77 1011.85,-619.36 1091.09,-607.51"/>
<polygon fill="#63b8ff" stroke="#63b8ff" points="784.45,-649.82 775.08,-654.76 785.48,-656.75 784.45,-649.82"/>
</a>
</g>
</g>
<!-- Node23&#45;&gt;Node29 -->
<g id="edge68_Node000023_Node000029" class="edge">
<title>Node23&#45;&gt;Node29</title>
<g id="a_edge68_Node000023_Node000029"><a xlink:title=" ">
<path fill="none" stroke="#63b8ff" d="M749.33,-643.09C762.27,-634.11 777.56,-623.25 791,-613 823.63,-588.11 860.65,-556.63 878.01,-541.67"/>
<polygon fill="#63b8ff" stroke="#63b8ff" points="747.05,-640.41 740.8,-648.97 751.02,-646.17 747.05,-640.41"/>
</a>
</g>
</g>
<!-- Node30 -->
<g id="Node000030" class="node">
<title>Node30</title>
<g id="a_Node000030"><a xlink:href="reporter_8h.html" target="_top" xlink:title=" ">
<polygon fill="white" stroke="#666666" points="1392.5,-607.5 1245.5,-607.5 1245.5,-588.5 1392.5,-588.5 1392.5,-607.5"/>
<text text-anchor="middle" x="1319" y="-595.5" font-family="Helvetica,sans-Serif" font-size="10.00">include/Reporter/reporter.h</text>
</a>
</g>
</g>
<!-- Node23&#45;&gt;Node30 -->
<g id="edge61_Node000023_Node000030" class="edge">
<title>Node23&#45;&gt;Node30</title>
<g id="a_edge61_Node000023_Node000030"><a xlink:title=" ">
<path fill="none" stroke="#63b8ff" d="M785.18,-658.17C883.24,-650.56 1074.43,-634.43 1236,-613 1247.73,-611.44 1260.35,-609.47 1272.12,-607.5"/>
<polygon fill="#63b8ff" stroke="#63b8ff" points="784.83,-654.68 775.13,-658.94 785.37,-661.66 784.83,-654.68"/>
</a>
</g>
</g>
<!-- Node24&#45;&gt;Node2 -->
<g id="edge42_Node000024_Node000002" class="edge">
<title>Node24&#45;&gt;Node2</title>
<g id="a_edge42_Node000024_Node000002"><a xlink:title=" ">
<path fill="none" stroke="#63b8ff" d="M381.97,-584.68C414.77,-572.03 464.96,-552.68 493.7,-541.6"/>
<polygon fill="#63b8ff" stroke="#63b8ff" points="380.46,-581.51 372.39,-588.37 382.98,-588.04 380.46,-581.51"/>
</a>
</g>
</g>
<!-- Node24&#45;&gt;Node5 -->
<g id="edge46_Node000024_Node000005" class="edge">
<title>Node24&#45;&gt;Node5</title>
<g id="a_edge46_Node000024_Node000005"><a xlink:title=" ">
<path fill="none" stroke="#63b8ff" d="M278.15,-586.66C186.01,-568.88 38,-523.04 38,-412 38,-412 38,-412 38,-173.5 38,-98.23 121.59,-126.61 195,-110 327.3,-80.07 745.71,-69.17 884.08,-66.33"/>
<polygon fill="#63b8ff" stroke="#63b8ff" points="277.51,-590.1 287.99,-588.5 278.8,-583.22 277.51,-590.1"/>
</a>
</g>
</g>
<!-- Node24&#45;&gt;Node9 -->
<g id="edge43_Node000024_Node000009" class="edge">
<title>Node24&#45;&gt;Node9</title>
<g id="a_edge43_Node000024_Node000009"><a xlink:title=" ">
<path fill="none" stroke="#63b8ff" d="M311.11,-585.13C267.33,-569.37 198.71,-536.81 171,-481 162.81,-464.51 154.78,-432.86 176,-396 207.04,-342.09 276.3,-308.69 313.04,-294.1"/>
<polygon fill="#63b8ff" stroke="#63b8ff" points="309.99,-588.45 320.59,-588.42 312.29,-581.84 309.99,-588.45"/>
</a>
</g>
</g>
<!-- Node24&#45;&gt;Node17 -->
<g id="edge44_Node000024_Node000017" class="edge">
<title>Node24&#45;&gt;Node17</title>
<g id="a_edge44_Node000024_Node000017"><a xlink:title=" ">
<path fill="none" stroke="#63b8ff" d="M432.77,-589.66C484.2,-582.98 550.79,-570.41 606,-547 627.45,-537.9 628.23,-527.57 649,-517 680.36,-501.05 718.74,-488.63 745.45,-481.01"/>
<polygon fill="#63b8ff" stroke="#63b8ff" points="432.19,-586.21 422.7,-590.92 433.06,-593.15 432.19,-586.21"/>
</a>
</g>
</g>
<!-- Node24&#45;&gt;Node18 -->
<g id="edge45_Node000024_Node000018" class="edge">
<title>Node24&#45;&gt;Node18</title>
<g id="a_edge45_Node000024_Node000018"><a xlink:title=" ">
<path fill="none" stroke="#63b8ff" d="M319.09,-583.94C303.19,-575.65 284.9,-563.38 274,-547 260.29,-526.4 259.17,-495.88 259.54,-481.12"/>
<polygon fill="#63b8ff" stroke="#63b8ff" points="317.58,-587.1 328.1,-588.36 320.67,-580.82 317.58,-587.1"/>
</a>
</g>
</g>
<!-- Node25 -->
<g id="Node000025" class="node">
<title>Node25</title>
<g id="a_Node000025"><a xlink:href="channel_8cpp.html" target="_top" xlink:title=" ">
<polygon fill="white" stroke="#666666" points="417.5,-541.5 282.5,-541.5 282.5,-522.5 417.5,-522.5 417.5,-541.5"/>
<text text-anchor="middle" x="350" y="-529.5" font-family="Helvetica,sans-Serif" font-size="10.00">src/Channel/channel.cpp</text>
</a>
</g>
</g>
<!-- Node24&#45;&gt;Node25 -->
<g id="edge47_Node000024_Node000025" class="edge">
<title>Node24&#45;&gt;Node25</title>
<g id="a_edge47_Node000024_Node000025"><a xlink:title=" ">
<path fill="none" stroke="#63b8ff" d="M350,-578.08C350,-566.13 350,-551.22 350,-541.91"/>
<polygon fill="#63b8ff" stroke="#63b8ff" points="346.5,-578.37 350,-588.37 353.5,-578.37 346.5,-578.37"/>
</a>
</g>
</g>
<!-- Node26&#45;&gt;Node4 -->
<g id="edge49_Node000026_Node000004" class="edge">
<title>Node26&#45;&gt;Node4</title>
<g id="a_edge49_Node000026_Node000004"><a xlink:title=" ">
<path fill="none" stroke="#63b8ff" d="M1161.08,-580.22C1177.63,-557.26 1204,-514.14 1204,-472.5 1204,-472.5 1204,-472.5 1204,-228.5 1204,-191.56 1204,-147.52 1204,-129.18"/>
<polygon fill="#63b8ff" stroke="#63b8ff" points="1158.26,-578.14 1155.09,-588.25 1163.88,-582.32 1158.26,-578.14"/>
</a>
</g>
</g>
<!-- Node26&#45;&gt;Node5 -->
<g id="edge50_Node000026_Node000005" class="edge">
<title>Node26&#45;&gt;Node5</title>
<g id="a_edge50_Node000026_Node000005"><a xlink:title=" ">
<path fill="none" stroke="#63b8ff" d="M1151.74,-578.02C1164.67,-506.44 1200.15,-249.86 1076,-110 1050.42,-81.18 1006.88,-70.72 973.81,-67.07"/>
<polygon fill="#63b8ff" stroke="#63b8ff" points="1148.24,-577.72 1149.82,-588.2 1155.11,-579.02 1148.24,-577.72"/>
</a>
</g>
</g>
<!-- Node26&#45;&gt;Node22 -->
<g id="edge53_Node000026_Node000022" class="edge">
<title>Node26&#45;&gt;Node22</title>
<g id="a_edge53_Node000026_Node000022"><a xlink:title=" ">
<path fill="none" stroke="#63b8ff" d="M1198.03,-586.29C1250.19,-575.13 1331.9,-557.64 1387.37,-545.76"/>
<polygon fill="#63b8ff" stroke="#63b8ff" points="1197.06,-582.92 1188.01,-588.44 1198.53,-589.76 1197.06,-582.92"/>
</a>
</g>
</g>
<!-- Node27 -->
<g id="Node000027" class="node">
<title>Node27</title>
<g id="a_Node000027"><a xlink:href="database_8cpp.html" target="_top" xlink:title=" ">
<polygon fill="white" stroke="#666666" points="1138.5,-541.5 989.5,-541.5 989.5,-522.5 1138.5,-522.5 1138.5,-541.5"/>
<text text-anchor="middle" x="1064" y="-529.5" font-family="Helvetica,sans-Serif" font-size="10.00">src/Database/database.cpp</text>
</a>
</g>
</g>
<!-- Node26&#45;&gt;Node27 -->
<g id="edge51_Node000026_Node000027" class="edge">
<title>Node26&#45;&gt;Node27</title>
<g id="a_edge51_Node000026_Node000027"><a xlink:title=" ">
<path fill="none" stroke="#63b8ff" d="M1128.3,-581.99C1111.85,-569.46 1088.99,-552.04 1075.42,-541.7"/>
<polygon fill="#63b8ff" stroke="#63b8ff" points="1126.6,-585.09 1136.67,-588.37 1130.84,-579.52 1126.6,-585.09"/>
</a>
</g>
</g>
<!-- Node28 -->
<g id="Node000028" class="node">
<title>Node28</title>
<g id="a_Node000028"><a xlink:href="reporter_8cpp.html" target="_top" xlink:title=" ">
<polygon fill="white" stroke="#666666" points="1369.5,-541.5 1232.5,-541.5 1232.5,-522.5 1369.5,-522.5 1369.5,-541.5"/>
<text text-anchor="middle" x="1301" y="-529.5" font-family="Helvetica,sans-Serif" font-size="10.00">src/Reporter/reporter.cpp</text>
</a>
</g>
</g>
<!-- Node26&#45;&gt;Node28 -->
<g id="edge52_Node000026_Node000028" class="edge">
<title>Node26&#45;&gt;Node28</title>
<g id="a_edge52_Node000026_Node000028"><a xlink:title=" ">
<path fill="none" stroke="#63b8ff" d="M1178.22,-584.36C1208.37,-571.75 1253.89,-552.71 1280.2,-541.7"/>
<polygon fill="#63b8ff" stroke="#63b8ff" points="1176.51,-581.28 1168.63,-588.37 1179.21,-587.74 1176.51,-581.28"/>
</a>
</g>
</g>
<!-- Node26&#45;&gt;Node29 -->
<g id="edge54_Node000026_Node000029" class="edge">
<title>Node26&#45;&gt;Node29</title>
<g id="a_edge54_Node000026_Node000029"><a xlink:title=" ">
<path fill="none" stroke="#63b8ff" d="M1103.4,-586.02C1052.16,-573.41 969.18,-552.98 922.59,-541.51"/>
<polygon fill="#63b8ff" stroke="#63b8ff" points="1102.66,-589.44 1113.21,-588.44 1104.33,-582.65 1102.66,-589.44"/>
</a>
</g>
</g>
<!-- Node30&#45;&gt;Node4 -->
<g id="edge62_Node000030_Node000004" class="edge">
<title>Node30&#45;&gt;Node4</title>
<g id="a_edge62_Node000030_Node000004"><a xlink:title=" ">
<path fill="none" stroke="#63b8ff" d="M1373.39,-586.59C1439.3,-573.77 1542.44,-552.95 1549,-547 1574.77,-523.63 1573,-507.29 1573,-472.5 1573,-472.5 1573,-472.5 1573,-410 1573,-240.02 1327.64,-154.76 1237.07,-129.07"/>
<polygon fill="#63b8ff" stroke="#63b8ff" points="1372.7,-583.16 1363.55,-588.5 1374.03,-590.03 1372.7,-583.16"/>
</a>
</g>
</g>
<!-- Node30&#45;&gt;Node5 -->
<g id="edge63_Node000030_Node000005" class="edge">
<title>Node30&#45;&gt;Node5</title>
<g id="a_edge63_Node000030_Node000005"><a xlink:title=" ">
<path fill="none" stroke="#63b8ff" d="M1372.33,-586.38C1427.08,-575.03 1505.72,-557.27 1516,-547 1540.18,-522.85 1535,-506.67 1535,-472.5 1535,-472.5 1535,-472.5 1535,-410 1535,-323.37 1611,-317.13 1611,-230.5 1611,-230.5 1611,-230.5 1611,-173.5 1611,-108.77 1125.47,-76.38 973.75,-67.84"/>
<polygon fill="#63b8ff" stroke="#63b8ff" points="1371.49,-582.98 1362.41,-588.43 1372.91,-589.84 1371.49,-582.98"/>
</a>
</g>
</g>
<!-- Node30&#45;&gt;Node28 -->
<g id="edge64_Node000030_Node000028" class="edge">
<title>Node30&#45;&gt;Node28</title>
<g id="a_edge64_Node000030_Node000028"><a xlink:title=" ">
<path fill="none" stroke="#63b8ff" d="M1313.78,-578.45C1310.4,-566.43 1306.15,-551.32 1303.5,-541.91"/>
<polygon fill="#63b8ff" stroke="#63b8ff" points="1310.5,-579.69 1316.57,-588.37 1317.23,-577.79 1310.5,-579.69"/>
</a>
</g>
</g>
</g>
</svg>

<g id="navigator" transform="translate(0 0)" fill="#404254">
  <rect fill="#f2f5e9" fill-opacity="0.5" stroke="#606060" stroke-width=".5" x="0" y="0" width="60" height="60"/>
  <use id="zoomplus" xlink:href="#zoomPlus" x="17" y="9" onmousedown="handleZoom(evt,'in')"/>
  <use id="zoomminus" xlink:href="#zoomMin" x="42" y="9" onmousedown="handleZoom(evt,'out')"/>
  <use id="reset" xlink:href="#resetDef" x="30" y="36" onmousedown="handleReset()"/>
   <use id="arrowup" xlink:href="#arrowUp" x="0" y="0" onmousedown="handlePan(0,-1)"/>
  <use id="arrowright" xlink:href="#arrowRight" x="0" y="0" onmousedown="handlePan(1,0)"/>
  <use id="arrowdown" xlink:href="#arrowDown" x="0" y="0" onmousedown="handlePan(0,1)"/>
  <use id="arrowleft" xlink:href="#arrowLeft" x="0" y="0" onmousedown="handlePan(-1,0)"/>
</g>
<svg viewBox="0 0 15 15" width="100%" height="30px" preserveAspectRatio="xMaxYMin meet">
 <g id="arrow_out" transform="scale(0.3 0.3)">
  <a xlink:href="error_8h__dep__incl_org.svg" target="_base">
   <rect id="button" ry="5" rx="5" y="6" x="6" height="38" width="38"
        fill="#f2f5e9" fill-opacity="0.5" stroke="#606060" stroke-width="1.0"/>
   <path id="arrow"
     d="M 11.500037,31.436501 C 11.940474,20.09759 22.043105,11.32322 32.158766,21.979434 L 37.068811,17.246167 C 37.068811,17.246167 37.088388,32 37.088388,32 L 22.160133,31.978069 C 22.160133,31.978069 26.997745,27.140456 26.997745,27.140456 C 18.528582,18.264221 13.291696,25.230495 11.500037,31.436501 z"
     style="fill:#404040;"/>
  </a>
 </g>
</svg>

<style type='text/css'>
<![CDATA[
[data-mouse-over-selected='false'] { opacity: 0.7; }
[data-mouse-over-selected='true']  { opacity: 1.0; }
]]>
</style>
<script type="application/ecmascript"><![CDATA[
document.addEventListener('DOMContentLoaded', (event) => {
  highlightEdges();
  highlightAdjacentNodes();
});
]]></script>
</svg>
