<?xml version="1.0" encoding="UTF-8" standalone="no"?>
<!DOCTYPE svg PUBLIC "-//W3C//DTD SVG 1.1//EN"
 "http://www.w3.org/Graphics/SVG/1.1/DTD/svg11.dtd">
<!-- Generated by graphviz version 2.43.0 (0)
 -->
<!-- Title: include/Library/error.h Pages: 1 -->
<svg width="2129pt" height="742pt"
 viewBox="0.00 0.00 2129.18 742.00" xmlns="http://www.w3.org/2000/svg" xmlns:xlink="http://www.w3.org/1999/xlink">
<g id="graph0" class="graph" transform="scale(1 1) rotate(0) translate(4 738)">
<title>include/Library/error.h</title>
<!-- Node1 -->
<g id="Node000001" class="node">
<title>Node1</title>
<g id="a_Node000001"><a xlink:title=" ">
<polygon fill="#999999" stroke="#666666" points="1584.5,-734 1461.5,-734 1461.5,-715 1584.5,-715 1584.5,-734"/>
<text text-anchor="middle" x="1523" y="-722" font-family="Helvetica,sans-Serif" font-size="10.00">include/Library/error.h</text>
</a>
</g>
</g>
<!-- Node2 -->
<g id="Node000002" class="node">
<title>Node2</title>
<g id="a_Node000002"><a xlink:href="driverModel_8h.html" target="_top" xlink:title=" ">
<polygon fill="white" stroke="#666666" points="722.5,-541.5 561.5,-541.5 561.5,-522.5 722.5,-522.5 722.5,-541.5"/>
<text text-anchor="middle" x="642" y="-529.5" font-family="Helvetica,sans-Serif" font-size="10.00">include/Drivers/driverModel.h</text>
</a>
</g>
</g>
<!-- Node1&#45;&gt;Node2 -->
<g id="edge1_Node000001_Node000002" class="edge">
<title>Node1&#45;&gt;Node2</title>
<g id="a_edge1_Node000001_Node000002"><a xlink:title=" ">
<path fill="none" stroke="#63b8ff" d="M1451.29,-724.01C1298.8,-724.27 947.2,-720.21 836,-679 752.21,-647.94 674.15,-568.2 649.8,-541.7"/>
<polygon fill="#63b8ff" stroke="#63b8ff" points="1451.49,-727.51 1461.48,-723.99 1451.47,-720.51 1451.49,-727.51"/>
</a>
</g>
</g>
<!-- Node5 -->
<g id="Node000005" class="node">
<title>Node5</title>
<g id="a_Node000005"><a xlink:href="mlvp_8h.html" target="_top" xlink:title=" ">
<polygon fill="white" stroke="#666666" points="974.5,-74 885.5,-74 885.5,-55 974.5,-55 974.5,-74"/>
<text text-anchor="middle" x="930" y="-62" font-family="Helvetica,sans-Serif" font-size="10.00">include/mlvp.h</text>
</a>
</g>
</g>
<!-- Node1&#45;&gt;Node5 -->
<g id="edge70_Node000001_Node000005" class="edge">
<title>Node1&#45;&gt;Node5</title>
<g id="a_edge70_Node000001_Node000005"><a xlink:title=" ">
<path fill="none" stroke="#63b8ff" d="M1594.54,-713.95C1697.49,-698.56 1879.36,-664.67 1918,-613 1958.08,-559.41 2387.17,-725.03 1862,-165 1776.74,-74.08 1710.55,-126.47 1587,-110 1526.73,-101.97 1112.88,-76.55 974.76,-68.19"/>
<polygon fill="#63b8ff" stroke="#63b8ff" points="1593.91,-710.5 1584.52,-715.42 1594.93,-717.43 1593.91,-710.5"/>
</a>
</g>
</g>
<!-- Node21 -->
<g id="Node000021" class="node">
<title>Node21</title>
<g id="a_Node000021"><a xlink:href="generatorHelper_8h.html" target="_top" xlink:title=" ">
<polygon fill="white" stroke="#666666" points="1908.5,-613 1785.5,-613 1785.5,-583 1908.5,-583 1908.5,-613"/>
<text text-anchor="start" x="1793.5" y="-601" font-family="Helvetica,sans-Serif" font-size="10.00">include/TestGenerator</text>
<text text-anchor="middle" x="1847" y="-590" font-family="Helvetica,sans-Serif" font-size="10.00">/generatorHelper.h</text>
</a>
</g>
</g>
<!-- Node1&#45;&gt;Node21 -->
<g id="edge37_Node000001_Node000021" class="edge">
<title>Node1&#45;&gt;Node21</title>
<g id="a_edge37_Node000001_Node000021"><a xlink:title=" ">
<path fill="none" stroke="#63b8ff" d="M1554.67,-711.33C1615.07,-688.12 1746.38,-637.66 1810.41,-613.06"/>
<polygon fill="#63b8ff" stroke="#63b8ff" points="1553.35,-708.09 1545.27,-714.94 1555.86,-714.62 1553.35,-708.09"/>
</a>
</g>
</g>
<!-- Node23 -->
<g id="Node000023" class="node">
<title>Node23</title>
<g id="a_Node000023"><a xlink:href="transaction_8h_source.html" target="_top" xlink:title=" ">
<polygon fill="white" stroke="#666666" points="955,-679 845,-679 845,-649 955,-649 955,-679"/>
<text text-anchor="start" x="853" y="-667" font-family="Helvetica,sans-Serif" font-size="10.00">include/Transaction</text>
<text text-anchor="middle" x="900" y="-656" font-family="Helvetica,sans-Serif" font-size="10.00">/transaction.h</text>
</a>
</g>
</g>
<!-- Node1&#45;&gt;Node23 -->
<g id="edge40_Node000001_Node000023" class="edge">
<title>Node1&#45;&gt;Node23</title>
<g id="a_edge40_Node000001_Node000023"><a xlink:title=" ">
<path fill="none" stroke="#63b8ff" d="M1450.98,-716.74C1325.13,-704.92 1067.87,-680.76 955.07,-670.17"/>
<polygon fill="#63b8ff" stroke="#63b8ff" points="1450.99,-720.25 1461.27,-717.7 1451.64,-713.28 1450.99,-720.25"/>
</a>
</g>
</g>
<!-- Node29 -->
<g id="Node000029" class="node">
<title>Node29</title>
<g id="a_Node000029"><a xlink:href="transaction_8cpp.html" target="_top" xlink:title=" ">
<polygon fill="white" stroke="#666666" points="1606.5,-541.5 1439.5,-541.5 1439.5,-522.5 1606.5,-522.5 1606.5,-541.5"/>
<text text-anchor="middle" x="1523" y="-529.5" font-family="Helvetica,sans-Serif" font-size="10.00">src/Transaction/transaction.cpp</text>
</a>
</g>
</g>
<!-- Node1&#45;&gt;Node29 -->
<g id="edge71_Node000001_Node000029" class="edge">
<title>Node1&#45;&gt;Node29</title>
<g id="a_edge71_Node000001_Node000029"><a xlink:title=" ">
<path fill="none" stroke="#63b8ff" d="M1523,-704.75C1523,-664.43 1523,-570.75 1523,-541.73"/>
<polygon fill="#63b8ff" stroke="#63b8ff" points="1519.5,-704.82 1523,-714.82 1526.5,-704.82 1519.5,-704.82"/>
</a>
</g>
</g>
<!-- Node3 -->
<g id="Node000003" class="node">
<title>Node3</title>
<g id="a_Node000003"><a xlink:href="driver_8h.html" target="_top" xlink:title=" ">
<polygon fill="white" stroke="#666666" points="424,-184 294,-184 294,-165 424,-165 424,-184"/>
<text text-anchor="middle" x="359" y="-172" font-family="Helvetica,sans-Serif" font-size="10.00">include/Drivers/driver.h</text>
</a>
</g>
</g>
<!-- Node2&#45;&gt;Node3 -->
<g id="edge2_Node000002_Node000003" class="edge">
<title>Node2&#45;&gt;Node3</title>
<g id="a_edge2_Node000002_Node000003"><a xlink:title=" ">
<path fill="none" stroke="#63b8ff" d="M691.65,-519.61C716.69,-511.93 746.27,-499.71 768,-481 819.5,-436.66 821.46,-391.24 792,-330 758.15,-259.63 727.88,-248.03 655,-220 579.22,-190.85 485.67,-180.7 424.28,-177.23"/>
<polygon fill="#63b8ff" stroke="#63b8ff" points="690.57,-516.28 681.94,-522.43 692.52,-523 690.57,-516.28"/>
</a>
</g>
</g>
<!-- Node2&#45;&gt;Node5 -->
<g id="edge35_Node000002_Node000005" class="edge">
<title>Node2&#45;&gt;Node5</title>
<g id="a_edge35_Node000002_Node000005"><a xlink:title=" ">
<path fill="none" stroke="#63b8ff" d="M604.01,-518.96C580.36,-510.44 549.99,-497.59 526,-481 482.83,-451.14 489.72,-421.79 444,-396 316.61,-324.12 134,-431.77 134,-285.5 134,-285.5 134,-285.5 134,-173.5 134,-105.99 206.57,-126.66 272,-110 388.5,-80.33 756.64,-69.39 885.18,-66.42"/>
<polygon fill="#63b8ff" stroke="#63b8ff" points="603.1,-522.35 613.69,-522.34 605.41,-515.74 603.1,-522.35"/>
</a>
</g>
</g>
<!-- Node9 -->
<g id="Node000009" class="node">
<title>Node9</title>
<g id="a_Node000009"><a xlink:href="dutDriver_8h.html" target="_top" xlink:title=" ">
<polygon fill="white" stroke="#666666" points="356.5,-294 209.5,-294 209.5,-275 356.5,-275 356.5,-294"/>
<text text-anchor="middle" x="283" y="-282" font-family="Helvetica,sans-Serif" font-size="10.00">include/Drivers/dutDriver.h</text>
</a>
</g>
</g>
<!-- Node2&#45;&gt;Node9 -->
<g id="edge9_Node000002_Node000009" class="edge">
<title>Node2&#45;&gt;Node9</title>
<g id="a_edge9_Node000002_Node000009"><a xlink:title=" ">
<path fill="none" stroke="#63b8ff" d="M610.34,-518.32C590.86,-509.59 566.06,-496.74 547,-481 509.7,-450.19 520.21,-421.34 479,-396 412.47,-355.1 365.06,-412.24 307,-360 287.71,-342.64 283.84,-309.71 283.12,-294.11"/>
<polygon fill="#63b8ff" stroke="#63b8ff" points="609.14,-521.61 619.71,-522.38 611.93,-515.19 609.14,-521.61"/>
</a>
</g>
</g>
<!-- Node10 -->
<g id="Node000010" class="node">
<title>Node10</title>
<g id="a_Node000010"><a xlink:href="refDriver_8h.html" target="_top" xlink:title=" ">
<polygon fill="white" stroke="#666666" points="645.5,-239 500.5,-239 500.5,-220 645.5,-220 645.5,-239"/>
<text text-anchor="middle" x="573" y="-227" font-family="Helvetica,sans-Serif" font-size="10.00">include/Drivers/refDriver.h</text>
</a>
</g>
</g>
<!-- Node2&#45;&gt;Node10 -->
<g id="edge17_Node000002_Node000010" class="edge">
<title>Node2&#45;&gt;Node10</title>
<g id="a_edge17_Node000002_Node000010"><a xlink:title=" ">
<path fill="none" stroke="#63b8ff" d="M689.64,-519.18C710.56,-511.61 733.59,-499.61 748,-481 789.56,-427.33 806.63,-387.78 771,-330 737.88,-276.3 665.94,-250.57 618.5,-239.01"/>
<polygon fill="#63b8ff" stroke="#63b8ff" points="688.27,-515.94 679.9,-522.44 690.5,-522.58 688.27,-515.94"/>
</a>
</g>
</g>
<!-- Node13 -->
<g id="Node000013" class="node">
<title>Node13</title>
<g id="a_Node000013"><a xlink:href="simulatorDriver_8h.html" target="_top" xlink:title=" ">
<polygon fill="white" stroke="#666666" points="712,-426 572,-426 572,-396 712,-396 712,-426"/>
<text text-anchor="start" x="580" y="-414" font-family="Helvetica,sans-Serif" font-size="10.00">include/Drivers/simulator</text>
<text text-anchor="middle" x="642" y="-403" font-family="Helvetica,sans-Serif" font-size="10.00">Driver.h</text>
</a>
</g>
</g>
<!-- Node2&#45;&gt;Node13 -->
<g id="edge18_Node000002_Node000013" class="edge">
<title>Node2&#45;&gt;Node13</title>
<g id="a_edge18_Node000002_Node000013"><a xlink:title=" ">
<path fill="none" stroke="#63b8ff" d="M684.01,-518.77C702.45,-511.09 722.29,-499.1 733,-481 747.49,-456.51 717.14,-437.8 687.67,-426.08"/>
<polygon fill="#63b8ff" stroke="#63b8ff" points="682.63,-515.55 674.56,-522.41 685.15,-522.09 682.63,-515.55"/>
</a>
</g>
</g>
<!-- Node14 -->
<g id="Node000014" class="node">
<title>Node14</title>
<g id="a_Node000014"><a xlink:href="transDriverModel_8h.html" target="_top" xlink:title=" ">
<polygon fill="white" stroke="#666666" points="500,-360 352,-360 352,-330 500,-330 500,-360"/>
<text text-anchor="start" x="360" y="-348" font-family="Helvetica,sans-Serif" font-size="10.00">include/Drivers/transDriver</text>
<text text-anchor="middle" x="426" y="-337" font-family="Helvetica,sans-Serif" font-size="10.00">Model.h</text>
</a>
</g>
</g>
<!-- Node2&#45;&gt;Node14 -->
<g id="edge29_Node000002_Node000014" class="edge">
<title>Node2&#45;&gt;Node14</title>
<g id="a_edge29_Node000002_Node000014"><a xlink:title=" ">
<path fill="none" stroke="#63b8ff" d="M613.63,-517.8C597.28,-509.12 577.21,-496.5 563,-481 534.25,-449.65 548.84,-426.31 519,-396 503.57,-380.32 482.17,-368.36 463.79,-360.07"/>
<polygon fill="#63b8ff" stroke="#63b8ff" points="612.25,-521.03 622.75,-522.45 615.43,-514.79 612.25,-521.03"/>
</a>
</g>
</g>
<!-- Node17 -->
<g id="Node000017" class="node">
<title>Node17</title>
<g id="a_Node000017"><a xlink:href="ref_8h.html" target="_top" xlink:title=" ">
<polygon fill="white" stroke="#666666" points="223.5,-481 104.5,-481 104.5,-462 223.5,-462 223.5,-481"/>
<text text-anchor="middle" x="164" y="-469" font-family="Helvetica,sans-Serif" font-size="10.00">include/RefPack/ref.h</text>
</a>
</g>
</g>
<!-- Node2&#45;&gt;Node17 -->
<g id="edge30_Node000002_Node000017" class="edge">
<title>Node2&#45;&gt;Node17</title>
<g id="a_edge30_Node000002_Node000017"><a xlink:title=" ">
<path fill="none" stroke="#63b8ff" d="M576.88,-521.02C567.21,-519.62 557.35,-518.24 548,-517 433.4,-501.83 299.17,-486.93 223.61,-478.8"/>
<polygon fill="#63b8ff" stroke="#63b8ff" points="576.47,-524.5 586.87,-522.48 577.48,-517.57 576.47,-524.5"/>
</a>
</g>
</g>
<!-- Node18 -->
<g id="Node000018" class="node">
<title>Node18</title>
<g id="a_Node000018"><a xlink:href="simulator_8h.html" target="_top" xlink:title=" ">
<polygon fill="white" stroke="#666666" points="440,-481 280,-481 280,-462 440,-462 440,-481"/>
<text text-anchor="middle" x="360" y="-469" font-family="Helvetica,sans-Serif" font-size="10.00">include/Simulator/simulator.h</text>
</a>
</g>
</g>
<!-- Node2&#45;&gt;Node18 -->
<g id="edge32_Node000002_Node000018" class="edge">
<title>Node2&#45;&gt;Node18</title>
<g id="a_edge32_Node000002_Node000018"><a xlink:title=" ">
<path fill="none" stroke="#63b8ff" d="M590.87,-520.39C536.41,-509.1 451.31,-491.44 401.05,-481.02"/>
<polygon fill="#63b8ff" stroke="#63b8ff" points="590.49,-523.89 600.99,-522.49 591.91,-517.04 590.49,-523.89"/>
</a>
</g>
</g>
<!-- Node20 -->
<g id="Node000020" class="node">
<title>Node20</title>
<g id="a_Node000020"><a xlink:href="driverModel_8cpp.html" target="_top" xlink:title=" ">
<polygon fill="white" stroke="#666666" points="723.5,-481 572.5,-481 572.5,-462 723.5,-462 723.5,-481"/>
<text text-anchor="middle" x="648" y="-469" font-family="Helvetica,sans-Serif" font-size="10.00">src/Drivers/driverModel.cpp</text>
</a>
</g>
</g>
<!-- Node2&#45;&gt;Node20 -->
<g id="edge36_Node000002_Node000020" class="edge">
<title>Node2&#45;&gt;Node20</title>
<g id="a_edge36_Node000002_Node000020"><a xlink:title=" ">
<path fill="none" stroke="#63b8ff" d="M643.93,-512.16C645,-501.74 646.28,-489.3 647.11,-481.17"/>
<polygon fill="#63b8ff" stroke="#63b8ff" points="640.42,-512.06 642.89,-522.37 647.39,-512.78 640.42,-512.06"/>
</a>
</g>
</g>
<!-- Node4 -->
<g id="Node000004" class="node">
<title>Node4</title>
<g id="a_Node000004"><a xlink:href="spreader_8h.html" target="_top" xlink:title=" ">
<polygon fill="white" stroke="#666666" points="1245,-129 1093,-129 1093,-110 1245,-110 1245,-129"/>
<text text-anchor="middle" x="1169" y="-117" font-family="Helvetica,sans-Serif" font-size="10.00">include/Spreader/spreader.h</text>
</a>
</g>
</g>
<!-- Node3&#45;&gt;Node4 -->
<g id="edge3_Node000003_Node000004" class="edge">
<title>Node3&#45;&gt;Node4</title>
<g id="a_edge3_Node000003_Node000004"><a xlink:title=" ">
<path fill="none" stroke="#63b8ff" d="M434.57,-168.56C588.75,-158.47 938.04,-135.61 1092.77,-125.49"/>
<polygon fill="#63b8ff" stroke="#63b8ff" points="434.01,-165.08 424.26,-169.23 434.46,-172.07 434.01,-165.08"/>
</a>
</g>
</g>
<!-- Node3&#45;&gt;Node5 -->
<g id="edge7_Node000003_Node000005" class="edge">
<title>Node3&#45;&gt;Node5</title>
<g id="a_edge7_Node000003_Node000005"><a xlink:title=" ">
<path fill="none" stroke="#63b8ff" d="M329.83,-160.24C305.85,-147.6 278.32,-127.89 295,-110 335.08,-67.01 747.11,-64.74 885.18,-65.2"/>
<polygon fill="#63b8ff" stroke="#63b8ff" points="328.57,-163.52 339.08,-164.88 331.71,-157.27 328.57,-163.52"/>
</a>
</g>
</g>
<!-- Node8 -->
<g id="Node000008" class="node">
<title>Node8</title>
<g id="a_Node000008"><a xlink:href="driver_8cpp.html" target="_top" xlink:title=" ">
<polygon fill="white" stroke="#666666" points="424,-129 304,-129 304,-110 424,-110 424,-129"/>
<text text-anchor="middle" x="364" y="-117" font-family="Helvetica,sans-Serif" font-size="10.00">src/Drivers/driver.cpp</text>
</a>
</g>
</g>
<!-- Node3&#45;&gt;Node8 -->
<g id="edge8_Node000003_Node000008" class="edge">
<title>Node3&#45;&gt;Node8</title>
<g id="a_edge8_Node000003_Node000008"><a xlink:title=" ">
<path fill="none" stroke="#63b8ff" d="M360.78,-154.66C361.6,-145.93 362.54,-135.99 363.19,-129.09"/>
<polygon fill="#63b8ff" stroke="#63b8ff" points="357.28,-154.46 359.83,-164.75 364.25,-155.12 357.28,-154.46"/>
</a>
</g>
</g>
<!-- Node4&#45;&gt;Node5 -->
<g id="edge4_Node000004_Node000005" class="edge">
<title>Node4&#45;&gt;Node5</title>
<g id="a_edge4_Node000004_Node000005"><a xlink:title=" ">
<path fill="none" stroke="#63b8ff" d="M1120.82,-107.82C1076.03,-97.88 1010.16,-83.28 968.7,-74.08"/>
<polygon fill="#63b8ff" stroke="#63b8ff" points="1120.08,-111.24 1130.6,-109.98 1121.6,-104.4 1120.08,-111.24"/>
</a>
</g>
</g>
<!-- Node7 -->
<g id="Node000007" class="node">
<title>Node7</title>
<g id="a_Node000007"><a xlink:href="spreader_8cpp.html" target="_top" xlink:title=" ">
<polygon fill="white" stroke="#666666" points="1240.5,-74 1097.5,-74 1097.5,-55 1240.5,-55 1240.5,-74"/>
<text text-anchor="middle" x="1169" y="-62" font-family="Helvetica,sans-Serif" font-size="10.00">src/Spreader/spreader.cpp</text>
</a>
</g>
</g>
<!-- Node4&#45;&gt;Node7 -->
<g id="edge6_Node000004_Node000007" class="edge">
<title>Node4&#45;&gt;Node7</title>
<g id="a_edge6_Node000004_Node000007"><a xlink:title=" ">
<path fill="none" stroke="#63b8ff" d="M1169,-99.66C1169,-90.93 1169,-80.99 1169,-74.09"/>
<polygon fill="#63b8ff" stroke="#63b8ff" points="1165.5,-99.75 1169,-109.75 1172.5,-99.75 1165.5,-99.75"/>
</a>
</g>
</g>
<!-- Node6 -->
<g id="Node000006" class="node">
<title>Node6</title>
<g id="a_Node000006"><a xlink:href="main_8cpp.html" target="_top" xlink:title=" ">
<polygon fill="white" stroke="#666666" points="1450.5,-19 1371.5,-19 1371.5,0 1450.5,0 1450.5,-19"/>
<text text-anchor="middle" x="1411" y="-7" font-family="Helvetica,sans-Serif" font-size="10.00">src/main.cpp</text>
</a>
</g>
</g>
<!-- Node5&#45;&gt;Node6 -->
<g id="edge5_Node000005_Node000006" class="edge">
<title>Node5&#45;&gt;Node6</title>
<g id="a_edge5_Node000005_Node000006"><a xlink:title=" ">
<path fill="none" stroke="#63b8ff" d="M984.81,-57.46C1082.72,-46.67 1285.43,-24.34 1371.24,-14.88"/>
<polygon fill="#63b8ff" stroke="#63b8ff" points="984.38,-53.99 974.82,-58.56 985.14,-60.95 984.38,-53.99"/>
</a>
</g>
</g>
<!-- Node9&#45;&gt;Node3 -->
<g id="edge10_Node000009_Node000003" class="edge">
<title>Node9&#45;&gt;Node3</title>
<g id="a_edge10_Node000009_Node000003"><a xlink:title=" ">
<path fill="none" stroke="#63b8ff" d="M275.84,-265.43C271.75,-251.98 268.87,-233.67 277,-220 287.77,-201.91 308.75,-190.71 326.79,-184.08"/>
<polygon fill="#63b8ff" stroke="#63b8ff" points="272.59,-266.72 279.2,-274.99 279.19,-264.4 272.59,-266.72"/>
</a>
</g>
</g>
<!-- Node9&#45;&gt;Node5 -->
<g id="edge15_Node000009_Node000005" class="edge">
<title>Node9&#45;&gt;Node5</title>
<g id="a_edge15_Node000009_Node000005"><a xlink:title=" ">
<path fill="none" stroke="#63b8ff" d="M275.44,-265.49C272.49,-257.53 269.47,-247.95 268,-239 260.52,-193.42 267.51,-126.84 286,-110 330.12,-69.81 746.65,-65.69 885.33,-65.44"/>
<polygon fill="#63b8ff" stroke="#63b8ff" points="272.21,-266.84 279.14,-274.85 278.72,-264.26 272.21,-266.84"/>
</a>
</g>
</g>
<!-- Node9&#45;&gt;Node10 -->
<g id="edge11_Node000009_Node000010" class="edge">
<title>Node9&#45;&gt;Node10</title>
<g id="a_edge11_Node000009_Node000010"><a xlink:title=" ">
<path fill="none" stroke="#63b8ff" d="M339.76,-273.13C394.13,-263.19 475.21,-248.37 526.04,-239.08"/>
<polygon fill="#63b8ff" stroke="#63b8ff" points="338.8,-269.74 329.59,-274.98 340.06,-276.63 338.8,-269.74"/>
</a>
</g>
</g>
<!-- Node12 -->
<g id="Node000012" class="node">
<title>Node12</title>
<g id="a_Node000012"><a xlink:href="dutDriver_8cpp.html" target="_top" xlink:title=" ">
<polygon fill="white" stroke="#666666" points="423.5,-239 286.5,-239 286.5,-220 423.5,-220 423.5,-239"/>
<text text-anchor="middle" x="355" y="-227" font-family="Helvetica,sans-Serif" font-size="10.00">src/Drivers/dutDriver.cpp</text>
</a>
</g>
</g>
<!-- Node9&#45;&gt;Node12 -->
<g id="edge16_Node000009_Node000012" class="edge">
<title>Node9&#45;&gt;Node12</title>
<g id="a_edge16_Node000009_Node000012"><a xlink:title=" ">
<path fill="none" stroke="#63b8ff" d="M302.87,-268.88C315.82,-259.34 332.3,-247.21 343.22,-239.17"/>
<polygon fill="#63b8ff" stroke="#63b8ff" points="300.55,-266.24 294.57,-274.98 304.7,-271.88 300.55,-266.24"/>
</a>
</g>
</g>
<!-- Node10&#45;&gt;Node3 -->
<g id="edge12_Node000010_Node000003" class="edge">
<title>Node10&#45;&gt;Node3</title>
<g id="a_edge12_Node000010_Node000003"><a xlink:title=" ">
<path fill="none" stroke="#63b8ff" d="M528.84,-217.56C488.76,-207.64 430.46,-193.2 393.65,-184.08"/>
<polygon fill="#63b8ff" stroke="#63b8ff" points="528.07,-220.98 538.62,-219.98 529.75,-214.18 528.07,-220.98"/>
</a>
</g>
</g>
<!-- Node10&#45;&gt;Node5 -->
<g id="edge13_Node000010_Node000005" class="edge">
<title>Node10&#45;&gt;Node5</title>
<g id="a_edge13_Node000010_Node000005"><a xlink:title=" ">
<path fill="none" stroke="#63b8ff" d="M547.83,-214.53C528.57,-201.99 507.29,-182.85 520,-165 562.44,-105.41 788.27,-78.24 885.46,-69.17"/>
<polygon fill="#63b8ff" stroke="#63b8ff" points="546.06,-217.55 556.41,-219.8 549.72,-211.59 546.06,-217.55"/>
</a>
</g>
</g>
<!-- Node11 -->
<g id="Node000011" class="node">
<title>Node11</title>
<g id="a_Node000011"><a xlink:href="refDriver_8cpp.html" target="_top" xlink:title=" ">
<polygon fill="white" stroke="#666666" points="664.5,-184 529.5,-184 529.5,-165 664.5,-165 664.5,-184"/>
<text text-anchor="middle" x="597" y="-172" font-family="Helvetica,sans-Serif" font-size="10.00">src/Drivers/refDriver.cpp</text>
</a>
</g>
</g>
<!-- Node10&#45;&gt;Node11 -->
<g id="edge14_Node000010_Node000011" class="edge">
<title>Node10&#45;&gt;Node11</title>
<g id="a_edge14_Node000010_Node000011"><a xlink:title=" ">
<path fill="none" stroke="#63b8ff" d="M581.14,-210.53C585.18,-201.6 589.88,-191.22 593.11,-184.09"/>
<polygon fill="#63b8ff" stroke="#63b8ff" points="577.9,-209.19 576.96,-219.75 584.28,-212.08 577.9,-209.19"/>
</a>
</g>
</g>
<!-- Node13&#45;&gt;Node4 -->
<g id="edge26_Node000013_Node000004" class="edge">
<title>Node13&#45;&gt;Node4</title>
<g id="a_edge26_Node000013_Node000004"><a xlink:title=" ">
<path fill="none" stroke="#63b8ff" d="M693.09,-392.5C717.14,-383.68 745.98,-372.26 771,-360 929.58,-282.27 1108.11,-162.26 1156.4,-129.19"/>
<polygon fill="#63b8ff" stroke="#63b8ff" points="691.65,-389.3 683.44,-395.99 694.03,-395.88 691.65,-389.3"/>
</a>
</g>
</g>
<!-- Node13&#45;&gt;Node5 -->
<g id="edge27_Node000013_Node000005" class="edge">
<title>Node13&#45;&gt;Node5</title>
<g id="a_edge27_Node000013_Node000005"><a xlink:title=" ">
<path fill="none" stroke="#63b8ff" d="M609.64,-389.72C599.86,-381.76 590.3,-371.71 585,-360 579.5,-347.85 578.19,-341.47 585,-330 602.06,-301.27 626.39,-316.6 651,-294 675.92,-271.11 693,-264.34 693,-230.5 693,-230.5 693,-230.5 693,-173.5 693,-89.85 816.77,-70.7 885.42,-66.51"/>
<polygon fill="#63b8ff" stroke="#63b8ff" points="607.74,-392.67 617.83,-395.9 611.96,-387.08 607.74,-392.67"/>
</a>
</g>
</g>
<!-- Node13&#45;&gt;Node9 -->
<g id="edge19_Node000013_Node000009" class="edge">
<title>Node13&#45;&gt;Node9</title>
<g id="a_edge19_Node000013_Node000009"><a xlink:title=" ">
<path fill="none" stroke="#63b8ff" d="M561.71,-399.57C479.66,-388.43 361.67,-370.92 343,-360 315.48,-343.9 295.49,-310.04 287.21,-294.12"/>
<polygon fill="#63b8ff" stroke="#63b8ff" points="561.4,-403.06 571.78,-400.93 562.34,-396.12 561.4,-403.06"/>
</a>
</g>
</g>
<!-- Node13&#45;&gt;Node10 -->
<g id="edge20_Node000013_Node000010" class="edge">
<title>Node13&#45;&gt;Node10</title>
<g id="a_edge20_Node000013_Node000010"><a xlink:title=" ">
<path fill="none" stroke="#63b8ff" d="M587.18,-391.33C573.28,-383.84 560.03,-373.65 552,-360 545.24,-348.51 544.66,-341.13 552,-330 574.36,-296.09 613.64,-327.91 636,-294 650.79,-271.57 616.82,-250.46 593.24,-239.12"/>
<polygon fill="#63b8ff" stroke="#63b8ff" points="585.84,-394.57 596.35,-395.87 588.95,-388.3 585.84,-394.57"/>
</a>
</g>
</g>
<!-- Node13&#45;&gt;Node14 -->
<g id="edge21_Node000013_Node000014" class="edge">
<title>Node13&#45;&gt;Node14</title>
<g id="a_edge21_Node000013_Node000014"><a xlink:title=" ">
<path fill="none" stroke="#63b8ff" d="M584.59,-392.99C549.83,-382.69 506.05,-369.72 473.29,-360.01"/>
<polygon fill="#63b8ff" stroke="#63b8ff" points="584.02,-396.47 594.6,-395.95 586,-389.76 584.02,-396.47"/>
</a>
</g>
</g>
<!-- Node16 -->
<g id="Node000016" class="node">
<title>Node16</title>
<g id="a_Node000016"><a xlink:href="simulatorDriver_8cpp.html" target="_top" xlink:title=" ">
<polygon fill="white" stroke="#666666" points="762,-354.5 594,-354.5 594,-335.5 762,-335.5 762,-354.5"/>
<text text-anchor="middle" x="678" y="-342.5" font-family="Helvetica,sans-Serif" font-size="10.00">src/Drivers/simulatorDriver.cpp</text>
</a>
</g>
</g>
<!-- Node13&#45;&gt;Node16 -->
<g id="edge28_Node000013_Node000016" class="edge">
<title>Node13&#45;&gt;Node16</title>
<g id="a_edge28_Node000013_Node000016"><a xlink:title=" ">
<path fill="none" stroke="#63b8ff" d="M654.97,-386.95C661.23,-375.81 668.38,-363.11 673.03,-354.84"/>
<polygon fill="#63b8ff" stroke="#63b8ff" points="651.84,-385.36 649.99,-395.8 657.94,-388.8 651.84,-385.36"/>
</a>
</g>
</g>
<!-- Node14&#45;&gt;Node5 -->
<g id="edge24_Node000014_Node000005" class="edge">
<title>Node14&#45;&gt;Node5</title>
<g id="a_edge24_Node000014_Node000005"><a xlink:title=" ">
<path fill="none" stroke="#63b8ff" d="M422.63,-319.79C421.66,-306.24 421.97,-289.26 427,-275 459.56,-182.65 484.12,-151.08 573,-110 627.64,-84.74 802.38,-72.29 885.4,-67.68"/>
<polygon fill="#63b8ff" stroke="#63b8ff" points="419.16,-320.19 423.63,-329.79 426.12,-319.5 419.16,-320.19"/>
</a>
</g>
</g>
<!-- Node14&#45;&gt;Node9 -->
<g id="edge22_Node000014_Node000009" class="edge">
<title>Node14&#45;&gt;Node9</title>
<g id="a_edge22_Node000014_Node000009"><a xlink:title=" ">
<path fill="none" stroke="#63b8ff" d="M382.47,-326.19C356.49,-315.57 324.66,-302.54 304.12,-294.14"/>
<polygon fill="#63b8ff" stroke="#63b8ff" points="381.17,-329.44 391.75,-329.99 383.82,-322.96 381.17,-329.44"/>
</a>
</g>
</g>
<!-- Node14&#45;&gt;Node10 -->
<g id="edge23_Node000014_Node000010" class="edge">
<title>Node14&#45;&gt;Node10</title>
<g id="a_edge23_Node000014_Node000010"><a xlink:title=" ">
<path fill="none" stroke="#63b8ff" d="M425.57,-319.43C426.59,-304.89 430.25,-287.01 441,-275 457.85,-256.17 482.94,-245.29 506.73,-239.02"/>
<polygon fill="#63b8ff" stroke="#63b8ff" points="422.06,-319.65 425.23,-329.76 429.05,-319.88 422.06,-319.65"/>
</a>
</g>
</g>
<!-- Node15 -->
<g id="Node000015" class="node">
<title>Node15</title>
<g id="a_Node000015"><a xlink:href="transDriverModel_8cpp.html" target="_top" xlink:title=" ">
<polygon fill="white" stroke="#666666" points="627.5,-294 450.5,-294 450.5,-275 627.5,-275 627.5,-294"/>
<text text-anchor="middle" x="539" y="-282" font-family="Helvetica,sans-Serif" font-size="10.00">src/Drivers/transDriverModel.cpp</text>
</a>
</g>
</g>
<!-- Node14&#45;&gt;Node15 -->
<g id="edge25_Node000014_Node000015" class="edge">
<title>Node14&#45;&gt;Node15</title>
<g id="a_edge25_Node000014_Node000015"><a xlink:title=" ">
<path fill="none" stroke="#63b8ff" d="M462.03,-325.35C482.24,-314.88 506.5,-302.32 522.31,-294.14"/>
<polygon fill="#63b8ff" stroke="#63b8ff" points="460.34,-322.28 453.07,-329.99 463.56,-328.5 460.34,-322.28"/>
</a>
</g>
</g>
<!-- Node17&#45;&gt;Node5 -->
<g id="edge31_Node000017_Node000005" class="edge">
<title>Node17&#45;&gt;Node5</title>
<g id="a_edge31_Node000017_Node000005"><a xlink:title=" ">
<path fill="none" stroke="#63b8ff" d="M152.87,-453.07C133.58,-421.16 96,-350.62 96,-285.5 96,-285.5 96,-285.5 96,-173.5 96,-143.33 95.66,-127.83 120,-110 181.85,-64.7 724.52,-64.27 885.3,-65.15"/>
<polygon fill="#63b8ff" stroke="#63b8ff" points="149.96,-455.03 158.2,-461.69 155.91,-451.34 149.96,-455.03"/>
</a>
</g>
</g>
<!-- Node18&#45;&gt;Node13 -->
<g id="edge33_Node000018_Node000013" class="edge">
<title>Node18&#45;&gt;Node13</title>
<g id="a_edge33_Node000018_Node000013"><a xlink:title=" ">
<path fill="none" stroke="#63b8ff" d="M411,-459.92C456.76,-450.43 524.25,-436.43 574.48,-426.01"/>
<polygon fill="#63b8ff" stroke="#63b8ff" points="410.09,-456.54 401.01,-461.99 411.51,-463.39 410.09,-456.54"/>
</a>
</g>
</g>
<!-- Node19 -->
<g id="Node000019" class="node">
<title>Node19</title>
<g id="a_Node000019"><a xlink:href="simulator_8cpp.html" target="_top" xlink:title=" ">
<polygon fill="white" stroke="#666666" points="435,-420.5 285,-420.5 285,-401.5 435,-401.5 435,-420.5"/>
<text text-anchor="middle" x="360" y="-408.5" font-family="Helvetica,sans-Serif" font-size="10.00">src/Simulator/simulator.cpp</text>
</a>
</g>
</g>
<!-- Node18&#45;&gt;Node19 -->
<g id="edge34_Node000018_Node000019" class="edge">
<title>Node18&#45;&gt;Node19</title>
<g id="a_edge34_Node000018_Node000019"><a xlink:title=" ">
<path fill="none" stroke="#63b8ff" d="M360,-451.66C360,-441.24 360,-428.8 360,-420.67"/>
<polygon fill="#63b8ff" stroke="#63b8ff" points="356.5,-451.87 360,-461.87 363.5,-451.87 356.5,-451.87"/>
</a>
</g>
</g>
<!-- Node21&#45;&gt;Node5 -->
<g id="edge38_Node000021_Node000005" class="edge">
<title>Node21&#45;&gt;Node5</title>
<g id="a_edge38_Node000021_Node000005"><a xlink:title=" ">
<path fill="none" stroke="#63b8ff" d="M1847.31,-572.74C1847.6,-547.65 1848,-507.33 1848,-472.5 1848,-472.5 1848,-472.5 1848,-173.5 1848,-128.99 1158.43,-80.51 974.59,-68.37"/>
<polygon fill="#63b8ff" stroke="#63b8ff" points="1843.81,-572.77 1847.19,-582.81 1850.81,-572.85 1843.81,-572.77"/>
</a>
</g>
</g>
<!-- Node22 -->
<g id="Node000022" class="node">
<title>Node22</title>
<g id="a_Node000022"><a xlink:href="generatorHelper_8cpp.html" target="_top" xlink:title=" ">
<polygon fill="white" stroke="#666666" points="1743.5,-547 1624.5,-547 1624.5,-517 1743.5,-517 1743.5,-547"/>
<text text-anchor="start" x="1632.5" y="-535" font-family="Helvetica,sans-Serif" font-size="10.00">src/TestGenerator/src</text>
<text text-anchor="middle" x="1684" y="-524" font-family="Helvetica,sans-Serif" font-size="10.00">/generatorHelper.cpp</text>
</a>
</g>
</g>
<!-- Node21&#45;&gt;Node22 -->
<g id="edge39_Node000021_Node000022" class="edge">
<title>Node21&#45;&gt;Node22</title>
<g id="a_edge39_Node000021_Node000022"><a xlink:title=" ">
<path fill="none" stroke="#63b8ff" d="M1801.64,-579.19C1775.75,-569.02 1743.77,-556.47 1719.69,-547.01"/>
<polygon fill="#63b8ff" stroke="#63b8ff" points="1800.64,-582.56 1811.23,-582.95 1803.2,-576.04 1800.64,-582.56"/>
</a>
</g>
</g>
<!-- Node23&#45;&gt;Node2 -->
<g id="edge56_Node000023_Node000002" class="edge">
<title>Node23&#45;&gt;Node2</title>
<g id="a_edge56_Node000023_Node000002"><a xlink:title=" ">
<path fill="none" stroke="#63b8ff" d="M866.54,-643.86C836.99,-627.17 792.57,-602.64 753,-583 721.76,-567.49 684.68,-551.2 662.26,-541.58"/>
<polygon fill="#63b8ff" stroke="#63b8ff" points="865.16,-647.1 875.59,-648.98 868.61,-641.01 865.16,-647.1"/>
</a>
</g>
</g>
<!-- Node23&#45;&gt;Node3 -->
<g id="edge55_Node000023_Node000003" class="edge">
<title>Node23&#45;&gt;Node3</title>
<g id="a_edge55_Node000023_Node000003"><a xlink:title=" ">
<path fill="none" stroke="#63b8ff" d="M834.82,-662.65C647.15,-661.15 114.66,-653.37 48,-613 12.53,-591.52 0,-574.46 0,-533 0,-533 0,-533 0,-470.5 0,-300.69 242.73,-210.68 329.01,-184.05"/>
<polygon fill="#63b8ff" stroke="#63b8ff" points="834.8,-666.15 844.83,-662.72 834.85,-659.15 834.8,-666.15"/>
</a>
</g>
</g>
<!-- Node23&#45;&gt;Node4 -->
<g id="edge66_Node000023_Node000004" class="edge">
<title>Node23&#45;&gt;Node4</title>
<g id="a_edge66_Node000023_Node000004"><a xlink:title=" ">
<path fill="none" stroke="#63b8ff" d="M965.37,-662.11C1149.85,-659.16 1665.54,-647.87 1733,-613 1796.26,-580.3 1810,-543.71 1810,-472.5 1810,-472.5 1810,-472.5 1810,-410 1810,-164.56 1414.84,-126.07 1245.05,-120.86"/>
<polygon fill="#63b8ff" stroke="#63b8ff" points="965.21,-658.61 955.27,-662.26 965.32,-665.61 965.21,-658.61"/>
</a>
</g>
</g>
<!-- Node23&#45;&gt;Node5 -->
<g id="edge67_Node000023_Node000005" class="edge">
<title>Node23&#45;&gt;Node5</title>
<g id="a_edge67_Node000023_Node000005"><a xlink:title=" ">
<path fill="none" stroke="#63b8ff" d="M902.54,-638.67C910.26,-563.17 933.45,-326.08 941,-129 941.32,-120.56 942.02,-118.38 941,-110 939.46,-97.36 935.55,-83.14 932.83,-74.25"/>
<polygon fill="#63b8ff" stroke="#63b8ff" points="899.02,-638.69 901.47,-649 905.98,-639.41 899.02,-638.69"/>
</a>
</g>
</g>
<!-- Node23&#45;&gt;Node6 -->
<g id="edge69_Node000023_Node000006" class="edge">
<title>Node23&#45;&gt;Node6</title>
<g id="a_edge69_Node000023_Node000006"><a xlink:title=" ">
<path fill="none" stroke="#63b8ff" d="M965.23,-663.8C1145.08,-664.57 1641.99,-656.54 1753,-547 1777.32,-523 1772,-506.67 1772,-472.5 1772,-472.5 1772,-472.5 1772,-410 1772,-285.8 1924,-299.7 1924,-175.5 1924,-175.5 1924,-175.5 1924,-118.5 1924,-21.91 1571.36,-11.25 1450.83,-10.42"/>
<polygon fill="#63b8ff" stroke="#63b8ff" points="965.14,-660.3 955.12,-663.75 965.1,-667.3 965.14,-660.3"/>
</a>
</g>
</g>
<!-- Node23&#45;&gt;Node9 -->
<g id="edge57_Node000023_Node000009" class="edge">
<title>Node23&#45;&gt;Node9</title>
<g id="a_edge57_Node000023_Node000009"><a xlink:title=" ">
<path fill="none" stroke="#63b8ff" d="M834.62,-662.35C653.18,-660.07 152.52,-650.43 89,-613 52.67,-591.6 38,-575.17 38,-533 38,-533 38,-533 38,-470.5 38,-388.41 115.85,-402.64 186,-360 220.11,-339.27 256.44,-308.81 273.32,-294.09"/>
<polygon fill="#63b8ff" stroke="#63b8ff" points="834.78,-665.85 844.82,-662.47 834.87,-658.85 834.78,-665.85"/>
</a>
</g>
</g>
<!-- Node23&#45;&gt;Node10 -->
<g id="edge58_Node000023_Node000010" class="edge">
<title>Node23&#45;&gt;Node10</title>
<g id="a_edge58_Node000023_Node000010"><a xlink:title=" ">
<path fill="none" stroke="#63b8ff" d="M896.1,-638.8C886.08,-581.6 855.63,-434.98 792,-330 774.24,-300.7 767.57,-292.29 738,-275 706.37,-256.51 666.85,-245.5 634.43,-239.06"/>
<polygon fill="#63b8ff" stroke="#63b8ff" points="892.66,-639.44 897.79,-648.71 899.56,-638.27 892.66,-639.44"/>
</a>
</g>
</g>
<!-- Node23&#45;&gt;Node14 -->
<g id="edge59_Node000023_Node000014" class="edge">
<title>Node23&#45;&gt;Node14</title>
<g id="a_edge59_Node000023_Node000014"><a xlink:title=" ">
<path fill="none" stroke="#63b8ff" d="M834.88,-662.99C724.15,-661.77 492.63,-653.99 302,-613 197.83,-590.6 76,-639.55 76,-533 76,-533 76,-533 76,-470.5 76,-412.46 249.03,-374.49 351.77,-357.06"/>
<polygon fill="#63b8ff" stroke="#63b8ff" points="834.86,-666.49 844.89,-663.09 834.93,-659.49 834.86,-666.49"/>
</a>
</g>
</g>
<!-- Node23&#45;&gt;Node17 -->
<g id="edge60_Node000023_Node000017" class="edge">
<title>Node23&#45;&gt;Node17</title>
<g id="a_edge60_Node000023_Node000017"><a xlink:title=" ">
<path fill="none" stroke="#63b8ff" d="M834.83,-661.03C711.9,-656.65 450.53,-643.91 366,-613 281.35,-582.05 199.01,-506.67 172.68,-481.13"/>
<polygon fill="#63b8ff" stroke="#63b8ff" points="834.75,-664.53 844.86,-661.38 834.99,-657.54 834.75,-664.53"/>
</a>
</g>
</g>
<!-- Node23&#45;&gt;Node18 -->
<g id="edge65_Node000023_Node000018" class="edge">
<title>Node23&#45;&gt;Node18</title>
<g id="a_edge65_Node000023_Node000018"><a xlink:title=" ">
<path fill="none" stroke="#63b8ff" d="M834.43,-660.72C704.31,-655.59 423.1,-641.35 390,-613 350.22,-578.93 355.52,-506.21 358.7,-481.18"/>
<polygon fill="#63b8ff" stroke="#63b8ff" points="834.53,-664.22 844.66,-661.11 834.8,-657.23 834.53,-664.22"/>
</a>
</g>
</g>
<!-- Node24 -->
<g id="Node000024" class="node">
<title>Node24</title>
<g id="a_Node000024"><a xlink:href="channel_8h.html" target="_top" xlink:title=" ">
<polygon fill="white" stroke="#666666" points="544.5,-607.5 399.5,-607.5 399.5,-588.5 544.5,-588.5 544.5,-607.5"/>
<text text-anchor="middle" x="472" y="-595.5" font-family="Helvetica,sans-Serif" font-size="10.00">include/Channel/channel.h</text>
</a>
</g>
</g>
<!-- Node23&#45;&gt;Node24 -->
<g id="edge41_Node000023_Node000024" class="edge">
<title>Node23&#45;&gt;Node24</title>
<g id="a_edge41_Node000023_Node000024"><a xlink:title=" ">
<path fill="none" stroke="#63b8ff" d="M834.8,-653.25C751.36,-640.77 608.15,-619.36 528.91,-607.51"/>
<polygon fill="#63b8ff" stroke="#63b8ff" points="834.52,-656.75 844.92,-654.76 835.55,-649.82 834.52,-656.75"/>
</a>
</g>
</g>
<!-- Node26 -->
<g id="Node000026" class="node">
<title>Node26</title>
<g id="a_Node000026"><a xlink:href="database_8h.html" target="_top" xlink:title=" ">
<polygon fill="white" stroke="#666666" points="1259,-607.5 1101,-607.5 1101,-588.5 1259,-588.5 1259,-607.5"/>
<text text-anchor="middle" x="1180" y="-595.5" font-family="Helvetica,sans-Serif" font-size="10.00">include/Database/database.h</text>
</a>
</g>
</g>
<!-- Node23&#45;&gt;Node26 -->
<g id="edge48_Node000023_Node000026" class="edge">
<title>Node23&#45;&gt;Node26</title>
<g id="a_edge48_Node000023_Node000026"><a xlink:title=" ">
<path fill="none" stroke="#63b8ff" d="M965.35,-648.06C1020.49,-635.46 1097.46,-617.87 1142.68,-607.53"/>
<polygon fill="#63b8ff" stroke="#63b8ff" points="964.29,-644.72 955.32,-650.36 965.85,-651.54 964.29,-644.72"/>
</a>
</g>
</g>
<!-- Node23&#45;&gt;Node29 -->
<g id="edge68_Node000023_Node000029" class="edge">
<title>Node23&#45;&gt;Node29</title>
<g id="a_edge68_Node000023_Node000029"><a xlink:title=" ">
<path fill="none" stroke="#63b8ff" d="M965.36,-662.67C1091.33,-661.11 1362.65,-653.05 1446,-613 1479.88,-596.72 1506.82,-558.82 1517.74,-541.69"/>
<polygon fill="#63b8ff" stroke="#63b8ff" points="965.05,-659.17 955.09,-662.78 965.13,-666.17 965.05,-659.17"/>
</a>
</g>
</g>
<!-- Node30 -->
<g id="Node000030" class="node">
<title>Node30</title>
<g id="a_Node000030"><a xlink:href="reporter_8h.html" target="_top" xlink:title=" ">
<polygon fill="white" stroke="#666666" points="1436.5,-607.5 1289.5,-607.5 1289.5,-588.5 1436.5,-588.5 1436.5,-607.5"/>
<text text-anchor="middle" x="1363" y="-595.5" font-family="Helvetica,sans-Serif" font-size="10.00">include/Reporter/reporter.h</text>
</a>
</g>
</g>
<!-- Node23&#45;&gt;Node30 -->
<g id="edge61_Node000023_Node000030" class="edge">
<title>Node23&#45;&gt;Node30</title>
<g id="a_edge61_Node000023_Node000030"><a xlink:title=" ">
<path fill="none" stroke="#63b8ff" d="M965.25,-654.36C1038.84,-644.56 1162.06,-628 1268,-613 1280.3,-611.26 1293.48,-609.34 1306,-607.51"/>
<polygon fill="#63b8ff" stroke="#63b8ff" points="964.65,-650.91 955.2,-655.7 965.58,-657.85 964.65,-650.91"/>
</a>
</g>
</g>
<!-- Node24&#45;&gt;Node2 -->
<g id="edge42_Node000024_Node000002" class="edge">
<title>Node24&#45;&gt;Node2</title>
<g id="a_edge42_Node000024_Node000002"><a xlink:title=" ">
<path fill="none" stroke="#63b8ff" d="M504.3,-584.84C537.89,-572.2 589.6,-552.73 619.17,-541.6"/>
<polygon fill="#63b8ff" stroke="#63b8ff" points="503.05,-581.57 494.93,-588.37 505.52,-588.12 503.05,-581.57"/>
</a>
</g>
</g>
<!-- Node24&#45;&gt;Node5 -->
<g id="edge46_Node000024_Node000005" class="edge">
<title>Node24&#45;&gt;Node5</title>
<g id="a_edge46_Node000024_Node000005"><a xlink:title=" ">
<path fill="none" stroke="#63b8ff" d="M554.83,-594.59C608.37,-589.88 677.9,-577.66 732,-547 914.82,-443.37 928.88,-130.82 929.92,-74.31"/>
<polygon fill="#63b8ff" stroke="#63b8ff" points="554.37,-591.11 544.69,-595.41 554.94,-598.09 554.37,-591.11"/>
</a>
</g>
</g>
<!-- Node24&#45;&gt;Node9 -->
<g id="edge43_Node000024_Node000009" class="edge">
<title>Node24&#45;&gt;Node9</title>
<g id="a_edge43_Node000024_Node000009"><a xlink:title=" ">
<path fill="none" stroke="#63b8ff" d="M426.02,-585.62C377.2,-570.75 302.79,-539.44 271,-481 236.22,-417.08 267.97,-323.41 279.33,-294.4"/>
<polygon fill="#63b8ff" stroke="#63b8ff" points="425.14,-589.01 435.72,-588.46 427.11,-582.29 425.14,-589.01"/>
</a>
</g>
</g>
<!-- Node24&#45;&gt;Node17 -->
<g id="edge44_Node000024_Node000017" class="edge">
<title>Node24&#45;&gt;Node17</title>
<g id="a_edge44_Node000024_Node000017"><a xlink:title=" ">
<path fill="none" stroke="#63b8ff" d="M398,-586.71C357.14,-579.2 306.26,-566.8 264,-547 226.55,-529.46 189.32,-496.62 172.82,-481.08"/>
<polygon fill="#63b8ff" stroke="#63b8ff" points="397.43,-590.16 407.89,-588.47 398.65,-583.27 397.43,-590.16"/>
</a>
</g>
</g>
<!-- Node24&#45;&gt;Node18 -->
<g id="edge45_Node000024_Node000018" class="edge">
<title>Node24&#45;&gt;Node18</title>
<g id="a_edge45_Node000024_Node000018"><a xlink:title=" ">
<path fill="none" stroke="#63b8ff" d="M444.14,-583.85C428.13,-575.18 408.57,-562.57 395,-547 377.35,-526.75 366.75,-496.06 362.36,-481.19"/>
<polygon fill="#63b8ff" stroke="#63b8ff" points="442.59,-586.99 453.08,-588.49 445.82,-580.78 442.59,-586.99"/>
</a>
</g>
</g>
<!-- Node25 -->
<g id="Node000025" class="node">
<title>Node25</title>
<g id="a_Node000025"><a xlink:href="channel_8cpp.html" target="_top" xlink:title=" ">
<polygon fill="white" stroke="#666666" points="539.5,-541.5 404.5,-541.5 404.5,-522.5 539.5,-522.5 539.5,-541.5"/>
<text text-anchor="middle" x="472" y="-529.5" font-family="Helvetica,sans-Serif" font-size="10.00">src/Channel/channel.cpp</text>
</a>
</g>
</g>
<!-- Node24&#45;&gt;Node25 -->
<g id="edge47_Node000024_Node000025" class="edge">
<title>Node24&#45;&gt;Node25</title>
<g id="a_edge47_Node000024_Node000025"><a xlink:title=" ">
<path fill="none" stroke="#63b8ff" d="M472,-578.08C472,-566.13 472,-551.22 472,-541.91"/>
<polygon fill="#63b8ff" stroke="#63b8ff" points="468.5,-578.37 472,-588.37 475.5,-578.37 468.5,-578.37"/>
</a>
</g>
</g>
<!-- Node26&#45;&gt;Node4 -->
<g id="edge49_Node000026_Node000004" class="edge">
<title>Node26&#45;&gt;Node4</title>
<g id="a_edge49_Node000026_Node000004"><a xlink:title=" ">
<path fill="none" stroke="#63b8ff" d="M1180,-578.24C1180,-553.87 1180,-510.01 1180,-472.5 1180,-472.5 1180,-472.5 1180,-228.5 1180,-191.37 1173.49,-147.43 1170.48,-129.15"/>
<polygon fill="#63b8ff" stroke="#63b8ff" points="1176.5,-578.25 1180,-588.25 1183.5,-578.25 1176.5,-578.25"/>
</a>
</g>
</g>
<!-- Node26&#45;&gt;Node5 -->
<g id="edge50_Node000026_Node000005" class="edge">
<title>Node26&#45;&gt;Node5</title>
<g id="a_edge50_Node000026_Node000005"><a xlink:title=" ">
<path fill="none" stroke="#63b8ff" d="M1108.51,-586.75C1062.64,-578.55 1009.13,-565.36 995,-547 994.08,-545.81 994.04,-331.51 994,-330 991.11,-232.12 1025.36,-197.8 982,-110 974.21,-94.23 958.05,-81.82 945.8,-74.16"/>
<polygon fill="#63b8ff" stroke="#63b8ff" points="1108.01,-590.21 1118.46,-588.47 1109.2,-583.32 1108.01,-590.21"/>
</a>
</g>
</g>
<!-- Node26&#45;&gt;Node22 -->
<g id="edge53_Node000026_Node000022" class="edge">
<title>Node26&#45;&gt;Node22</title>
<g id="a_edge53_Node000026_Node000022"><a xlink:title=" ">
<path fill="none" stroke="#63b8ff" d="M1249.32,-587.11C1259.92,-585.67 1270.75,-584.26 1281,-583 1429.63,-564.72 1468.05,-570.13 1616,-547 1618.74,-546.57 1621.53,-546.11 1624.35,-545.62"/>
<polygon fill="#63b8ff" stroke="#63b8ff" points="1248.68,-583.66 1239.24,-588.48 1249.62,-590.6 1248.68,-583.66"/>
</a>
</g>
</g>
<!-- Node27 -->
<g id="Node000027" class="node">
<title>Node27</title>
<g id="a_Node000027"><a xlink:href="database_8cpp.html" target="_top" xlink:title=" ">
<polygon fill="white" stroke="#666666" points="1152.5,-541.5 1003.5,-541.5 1003.5,-522.5 1152.5,-522.5 1152.5,-541.5"/>
<text text-anchor="middle" x="1078" y="-529.5" font-family="Helvetica,sans-Serif" font-size="10.00">src/Database/database.cpp</text>
</a>
</g>
</g>
<!-- Node26&#45;&gt;Node27 -->
<g id="edge51_Node000026_Node000027" class="edge">
<title>Node26&#45;&gt;Node27</title>
<g id="a_edge51_Node000026_Node000027"><a xlink:title=" ">
<path fill="none" stroke="#63b8ff" d="M1157.72,-583.02C1137.66,-570.43 1108.8,-552.32 1091.86,-541.7"/>
<polygon fill="#63b8ff" stroke="#63b8ff" points="1155.91,-586.02 1166.24,-588.37 1159.63,-580.09 1155.91,-586.02"/>
</a>
</g>
</g>
<!-- Node28 -->
<g id="Node000028" class="node">
<title>Node28</title>
<g id="a_Node000028"><a xlink:href="reporter_8cpp.html" target="_top" xlink:title=" ">
<polygon fill="white" stroke="#666666" points="1345.5,-541.5 1208.5,-541.5 1208.5,-522.5 1345.5,-522.5 1345.5,-541.5"/>
<text text-anchor="middle" x="1277" y="-529.5" font-family="Helvetica,sans-Serif" font-size="10.00">src/Reporter/reporter.cpp</text>
</a>
</g>
</g>
<!-- Node26&#45;&gt;Node28 -->
<g id="edge52_Node000026_Node000028" class="edge">
<title>Node26&#45;&gt;Node28</title>
<g id="a_edge52_Node000026_Node000028"><a xlink:title=" ">
<path fill="none" stroke="#63b8ff" d="M1201.45,-582.85C1220.51,-570.27 1247.79,-552.28 1263.82,-541.7"/>
<polygon fill="#63b8ff" stroke="#63b8ff" points="1199.5,-579.94 1193.08,-588.37 1203.36,-585.78 1199.5,-579.94"/>
</a>
</g>
</g>
<!-- Node26&#45;&gt;Node29 -->
<g id="edge54_Node000026_Node000029" class="edge">
<title>Node26&#45;&gt;Node29</title>
<g id="a_edge54_Node000026_Node000029"><a xlink:title=" ">
<path fill="none" stroke="#63b8ff" d="M1235.91,-586.57C1303.23,-574.01 1415,-553.15 1477.37,-541.51"/>
<polygon fill="#63b8ff" stroke="#63b8ff" points="1235.09,-583.16 1225.9,-588.44 1236.37,-590.04 1235.09,-583.16"/>
</a>
</g>
</g>
<!-- Node30&#45;&gt;Node4 -->
<g id="edge62_Node000030_Node000004" class="edge">
<title>Node30&#45;&gt;Node4</title>
<g id="a_edge62_Node000030_Node000004"><a xlink:title=" ">
<path fill="none" stroke="#63b8ff" d="M1374.61,-579.7C1389.1,-556.4 1412,-513.15 1412,-472.5 1412,-472.5 1412,-472.5 1412,-228.5 1412,-154.4 1316.48,-130.76 1245.22,-123.44"/>
<polygon fill="#63b8ff" stroke="#63b8ff" points="1371.48,-578.1 1369.01,-588.4 1377.37,-581.89 1371.48,-578.1"/>
</a>
</g>
</g>
<!-- Node30&#45;&gt;Node5 -->
<g id="edge63_Node000030_Node000005" class="edge">
<title>Node30&#45;&gt;Node5</title>
<g id="a_edge63_Node000030_Node000005"><a xlink:title=" ">
<path fill="none" stroke="#63b8ff" d="M1365.69,-578.28C1368.95,-553.96 1374,-510.15 1374,-472.5 1374,-472.5 1374,-472.5 1374,-410 1374,-300.4 1464.56,-254.99 1402,-165 1353.3,-94.95 1083.13,-73.38 974.87,-67.49"/>
<polygon fill="#63b8ff" stroke="#63b8ff" points="1362.21,-577.88 1364.31,-588.27 1369.15,-578.84 1362.21,-577.88"/>
</a>
</g>
</g>
<!-- Node30&#45;&gt;Node28 -->
<g id="edge64_Node000030_Node000028" class="edge">
<title>Node30&#45;&gt;Node28</title>
<g id="a_edge64_Node000030_Node000028"><a xlink:title=" ">
<path fill="none" stroke="#63b8ff" d="M1343.29,-582.33C1326.43,-569.78 1302.71,-552.13 1288.69,-541.7"/>
<polygon fill="#63b8ff" stroke="#63b8ff" points="1341.29,-585.21 1351.4,-588.37 1345.47,-579.59 1341.29,-585.21"/>
</a>
</g>
</g>
</g>
</svg>
