<?xml version="1.0" encoding="UTF-8" standalone="no"?>
<!DOCTYPE svg PUBLIC "-//W3C//DTD SVG 1.1//EN"
 "http://www.w3.org/Graphics/SVG/1.1/DTD/svg11.dtd">
<!-- Generated by graphviz version 2.43.0 (0)
 -->
<!-- Title: include/Evaluator/evaluate.h Pages: 1 -->
<svg width="2046pt" height="676pt"
 viewBox="0.00 0.00 2046.00 676.00" xmlns="http://www.w3.org/2000/svg" xmlns:xlink="http://www.w3.org/1999/xlink">
<g id="graph0" class="graph" transform="scale(1 1) rotate(0) translate(4 672)">
<title>include/Evaluator/evaluate.h</title>
<!-- Node1 -->
<g id="Node000001" class="node">
<title>Node1</title>
<g id="a_Node000001"><a xlink:title=" ">
<polygon fill="#999999" stroke="#666666" points="1279,-668 1123,-668 1123,-649 1279,-649 1279,-668"/>
<text text-anchor="middle" x="1201" y="-656" font-family="Helvetica,sans-Serif" font-size="10.00">include/Evaluator/evaluate.h</text>
</a>
</g>
</g>
<!-- Node2 -->
<g id="Node000002" class="node">
<title>Node2</title>
<g id="a_Node000002"><a xlink:href="transaction_8h_source.html" target="_top" xlink:title=" ">
<polygon fill="white" stroke="#666666" points="1183,-613 1073,-613 1073,-583 1183,-583 1183,-613"/>
<text text-anchor="start" x="1081" y="-601" font-family="Helvetica,sans-Serif" font-size="10.00">include/Transaction</text>
<text text-anchor="middle" x="1128" y="-590" font-family="Helvetica,sans-Serif" font-size="10.00">/transaction.h</text>
</a>
</g>
</g>
<!-- Node1&#45;&gt;Node2 -->
<g id="edge1_Node000001_Node000002" class="edge">
<title>Node1&#45;&gt;Node2</title>
<g id="a_edge1_Node000001_Node000002"><a xlink:title=" ">
<path fill="none" stroke="#63b8ff" d="M1182.28,-642.5C1170.99,-633.45 1156.7,-622 1145.61,-613.11"/>
<polygon fill="#63b8ff" stroke="#63b8ff" points="1180.24,-645.35 1190.23,-648.87 1184.61,-639.88 1180.24,-645.35"/>
</a>
</g>
</g>
<!-- Node28 -->
<g id="Node000028" class="node">
<title>Node28</title>
<g id="a_Node000028"><a xlink:href="evaluate_8cpp.html" target="_top" xlink:title=" ">
<polygon fill="white" stroke="#666666" points="1347,-607.5 1201,-607.5 1201,-588.5 1347,-588.5 1347,-607.5"/>
<text text-anchor="middle" x="1274" y="-595.5" font-family="Helvetica,sans-Serif" font-size="10.00">src/Evaluator/evaluate.cpp</text>
</a>
</g>
</g>
<!-- Node1&#45;&gt;Node28 -->
<g id="edge65_Node000001_Node000028" class="edge">
<title>Node1&#45;&gt;Node28</title>
<g id="a_edge65_Node000001_Node000028"><a xlink:title=" ">
<path fill="none" stroke="#63b8ff" d="M1219.67,-642.54C1233.46,-631.49 1251.74,-616.84 1263.18,-607.67"/>
<polygon fill="#63b8ff" stroke="#63b8ff" points="1217.39,-639.88 1211.77,-648.87 1221.76,-645.35 1217.39,-639.88"/>
</a>
</g>
</g>
<!-- Node3 -->
<g id="Node000003" class="node">
<title>Node3</title>
<g id="a_Node000003"><a xlink:href="channel_8h.html" target="_top" xlink:title=" ">
<polygon fill="white" stroke="#666666" points="277.5,-547 132.5,-547 132.5,-528 277.5,-528 277.5,-547"/>
<text text-anchor="middle" x="205" y="-535" font-family="Helvetica,sans-Serif" font-size="10.00">include/Channel/channel.h</text>
</a>
</g>
</g>
<!-- Node2&#45;&gt;Node3 -->
<g id="edge2_Node000002_Node000003" class="edge">
<title>Node2&#45;&gt;Node3</title>
<g id="a_edge2_Node000002_Node000003"><a xlink:title=" ">
<path fill="none" stroke="#63b8ff" d="M1062.48,-593.92C921.45,-587.11 578.71,-569.57 292,-547 287.31,-546.63 282.48,-546.23 277.61,-545.8"/>
<polygon fill="#63b8ff" stroke="#63b8ff" points="1062.52,-597.43 1072.68,-594.41 1062.86,-590.44 1062.52,-597.43"/>
</a>
</g>
</g>
<!-- Node4 -->
<g id="Node000004" class="node">
<title>Node4</title>
<g id="a_Node000004"><a xlink:href="driverModel_8h.html" target="_top" xlink:title=" ">
<polygon fill="white" stroke="#666666" points="621.5,-486.5 460.5,-486.5 460.5,-467.5 621.5,-467.5 621.5,-486.5"/>
<text text-anchor="middle" x="541" y="-474.5" font-family="Helvetica,sans-Serif" font-size="10.00">include/Drivers/driverModel.h</text>
</a>
</g>
</g>
<!-- Node2&#45;&gt;Node4 -->
<g id="edge53_Node000002_Node000004" class="edge">
<title>Node2&#45;&gt;Node4</title>
<g id="a_edge53_Node000002_Node000004"><a xlink:title=" ">
<path fill="none" stroke="#63b8ff" d="M1062.86,-594.58C947.54,-589.61 712.4,-576.17 636,-547 599.82,-533.19 565.01,-501.87 549.47,-486.64"/>
<polygon fill="#63b8ff" stroke="#63b8ff" points="1062.83,-598.09 1072.97,-595.01 1063.13,-591.09 1062.83,-598.09"/>
</a>
</g>
</g>
<!-- Node5 -->
<g id="Node000005" class="node">
<title>Node5</title>
<g id="a_Node000005"><a xlink:href="driver_8h.html" target="_top" xlink:title=" ">
<polygon fill="white" stroke="#666666" points="634,-184 504,-184 504,-165 634,-165 634,-184"/>
<text text-anchor="middle" x="569" y="-172" font-family="Helvetica,sans-Serif" font-size="10.00">include/Drivers/driver.h</text>
</a>
</g>
</g>
<!-- Node2&#45;&gt;Node5 -->
<g id="edge52_Node000002_Node000005" class="edge">
<title>Node2&#45;&gt;Node5</title>
<g id="a_edge52_Node000002_Node000005"><a xlink:title=" ">
<path fill="none" stroke="#63b8ff" d="M1062.67,-582.17C959.27,-555.4 757.87,-489.37 643,-360 599.03,-310.48 618.59,-280.65 592,-220 586.41,-207.26 578.83,-193.06 573.92,-184.2"/>
<polygon fill="#63b8ff" stroke="#63b8ff" points="1062.12,-585.64 1072.67,-584.71 1063.84,-578.85 1062.12,-585.64"/>
</a>
</g>
</g>
<!-- Node6 -->
<g id="Node000006" class="node">
<title>Node6</title>
<g id="a_Node000006"><a xlink:href="spreader_8h.html" target="_top" xlink:title=" ">
<polygon fill="white" stroke="#666666" points="1331,-129 1179,-129 1179,-110 1331,-110 1331,-129"/>
<text text-anchor="middle" x="1255" y="-117" font-family="Helvetica,sans-Serif" font-size="10.00">include/Spreader/spreader.h</text>
</a>
</g>
</g>
<!-- Node2&#45;&gt;Node6 -->
<g id="edge61_Node000002_Node000006" class="edge">
<title>Node2&#45;&gt;Node6</title>
<g id="a_edge61_Node000002_Node000006"><a xlink:title=" ">
<path fill="none" stroke="#63b8ff" d="M1165.82,-577.61C1199,-557.59 1242,-522.98 1242,-478 1242,-478 1242,-478 1242,-228.5 1242,-191.3 1249.7,-147.4 1253.25,-129.14"/>
<polygon fill="#63b8ff" stroke="#63b8ff" points="1163.66,-574.82 1156.77,-582.87 1167.17,-580.87 1163.66,-574.82"/>
</a>
</g>
</g>
<!-- Node7 -->
<g id="Node000007" class="node">
<title>Node7</title>
<g id="a_Node000007"><a xlink:href="mlvp_8h.html" target="_top" xlink:title=" ">
<polygon fill="white" stroke="#666666" points="687.5,-74 598.5,-74 598.5,-55 687.5,-55 687.5,-74"/>
<text text-anchor="middle" x="643" y="-62" font-family="Helvetica,sans-Serif" font-size="10.00">include/mlvp.h</text>
</a>
</g>
</g>
<!-- Node2&#45;&gt;Node7 -->
<g id="edge62_Node000002_Node000007" class="edge">
<title>Node2&#45;&gt;Node7</title>
<g id="a_edge62_Node000002_Node000007"><a xlink:title=" ">
<path fill="none" stroke="#63b8ff" d="M1140.18,-573.66C1151.3,-550.15 1166,-512.54 1166,-478 1166,-478 1166,-478 1166,-344 1166,-127.97 814.07,-78.96 687.59,-68.32"/>
<polygon fill="#63b8ff" stroke="#63b8ff" points="1136.95,-572.29 1135.69,-582.81 1143.24,-575.38 1136.95,-572.29"/>
</a>
</g>
</g>
<!-- Node8 -->
<g id="Node000008" class="node">
<title>Node8</title>
<g id="a_Node000008"><a xlink:href="main_8cpp.html" target="_top" xlink:title=" ">
<polygon fill="white" stroke="#666666" points="487.5,-19 408.5,-19 408.5,0 487.5,0 487.5,-19"/>
<text text-anchor="middle" x="448" y="-7" font-family="Helvetica,sans-Serif" font-size="10.00">src/main.cpp</text>
</a>
</g>
</g>
<!-- Node2&#45;&gt;Node8 -->
<g id="edge64_Node000002_Node000008" class="edge">
<title>Node2&#45;&gt;Node8</title>
<g id="a_edge64_Node000002_Node000008"><a xlink:title=" ">
<path fill="none" stroke="#63b8ff" d="M1193.25,-583.25C1317.1,-572.48 1910.24,-586.94 1986,-547 2019.97,-529.09 2038,-516.4 2038,-478 2038,-478 2038,-478 2038,-118.5 2038,-38.31 733.56,-14.78 487.7,-11.06"/>
<polygon fill="#63b8ff" stroke="#63b8ff" points="1192.63,-579.8 1183.05,-584.33 1193.37,-586.76 1192.63,-579.8"/>
</a>
</g>
</g>
<!-- Node11 -->
<g id="Node000011" class="node">
<title>Node11</title>
<g id="a_Node000011"><a xlink:href="dutDriver_8h.html" target="_top" xlink:title=" ">
<polygon fill="white" stroke="#666666" points="557.5,-294 410.5,-294 410.5,-275 557.5,-275 557.5,-294"/>
<text text-anchor="middle" x="484" y="-282" font-family="Helvetica,sans-Serif" font-size="10.00">include/Drivers/dutDriver.h</text>
</a>
</g>
</g>
<!-- Node2&#45;&gt;Node11 -->
<g id="edge54_Node000002_Node000011" class="edge">
<title>Node2&#45;&gt;Node11</title>
<g id="a_edge54_Node000002_Node000011"><a xlink:title=" ">
<path fill="none" stroke="#63b8ff" d="M1062.46,-597.51C851.84,-598.61 201.49,-597.84 123,-547 66.55,-510.43 80.56,-438.12 133,-396 214.06,-330.89 333.92,-303.91 410.48,-292.89"/>
<polygon fill="#63b8ff" stroke="#63b8ff" points="1062.76,-601 1072.74,-597.45 1062.72,-594 1062.76,-601"/>
</a>
</g>
</g>
<!-- Node12 -->
<g id="Node000012" class="node">
<title>Node12</title>
<g id="a_Node000012"><a xlink:href="refDriver_8h.html" target="_top" xlink:title=" ">
<polygon fill="white" stroke="#666666" points="985.5,-239 840.5,-239 840.5,-220 985.5,-220 985.5,-239"/>
<text text-anchor="middle" x="913" y="-227" font-family="Helvetica,sans-Serif" font-size="10.00">include/Drivers/refDriver.h</text>
</a>
</g>
</g>
<!-- Node2&#45;&gt;Node12 -->
<g id="edge55_Node000002_Node000012" class="edge">
<title>Node2&#45;&gt;Node12</title>
<g id="a_edge55_Node000002_Node000012"><a xlink:title=" ">
<path fill="none" stroke="#63b8ff" d="M1128,-572.7C1128,-548.65 1128,-510.79 1128,-478 1128,-478 1128,-478 1128,-410 1128,-313.72 999.39,-259 941.11,-239.14"/>
<polygon fill="#63b8ff" stroke="#63b8ff" points="1124.5,-572.71 1128,-582.71 1131.5,-572.71 1124.5,-572.71"/>
</a>
</g>
</g>
<!-- Node16 -->
<g id="Node000016" class="node">
<title>Node16</title>
<g id="a_Node000016"><a xlink:href="transDriverModel_8h.html" target="_top" xlink:title=" ">
<polygon fill="white" stroke="#666666" points="800,-360 652,-360 652,-330 800,-330 800,-360"/>
<text text-anchor="start" x="660" y="-348" font-family="Helvetica,sans-Serif" font-size="10.00">include/Drivers/transDriver</text>
<text text-anchor="middle" x="726" y="-337" font-family="Helvetica,sans-Serif" font-size="10.00">Model.h</text>
</a>
</g>
</g>
<!-- Node2&#45;&gt;Node16 -->
<g id="edge56_Node000002_Node000016" class="edge">
<title>Node2&#45;&gt;Node16</title>
<g id="a_edge56_Node000002_Node000016"><a xlink:title=" ">
<path fill="none" stroke="#63b8ff" d="M1096.62,-577.41C1018.44,-528.59 816.37,-402.42 748.56,-360.09"/>
<polygon fill="#63b8ff" stroke="#63b8ff" points="1095.19,-580.64 1105.53,-582.97 1098.9,-574.7 1095.19,-580.64"/>
</a>
</g>
</g>
<!-- Node19 -->
<g id="Node000019" class="node">
<title>Node19</title>
<g id="a_Node000019"><a xlink:href="ref_8h.html" target="_top" xlink:title=" ">
<polygon fill="white" stroke="#666666" points="261.5,-420.5 142.5,-420.5 142.5,-401.5 261.5,-401.5 261.5,-420.5"/>
<text text-anchor="middle" x="202" y="-408.5" font-family="Helvetica,sans-Serif" font-size="10.00">include/RefPack/ref.h</text>
</a>
</g>
</g>
<!-- Node2&#45;&gt;Node19 -->
<g id="edge57_Node000002_Node000019" class="edge">
<title>Node2&#45;&gt;Node19</title>
<g id="a_edge57_Node000002_Node000019"><a xlink:title=" ">
<path fill="none" stroke="#63b8ff" d="M1062.65,-595.78C961.69,-592.79 762.2,-582.49 597,-547 448.56,-515.11 278.54,-445 221.67,-420.59"/>
<polygon fill="#63b8ff" stroke="#63b8ff" points="1062.6,-599.28 1072.7,-596.06 1062.8,-592.28 1062.6,-599.28"/>
</a>
</g>
</g>
<!-- Node22 -->
<g id="Node000022" class="node">
<title>Node22</title>
<g id="a_Node000022"><a xlink:href="database_8h.html" target="_top" xlink:title=" ">
<polygon fill="white" stroke="#666666" points="1499,-547 1341,-547 1341,-528 1499,-528 1499,-547"/>
<text text-anchor="middle" x="1420" y="-535" font-family="Helvetica,sans-Serif" font-size="10.00">include/Database/database.h</text>
</a>
</g>
</g>
<!-- Node2&#45;&gt;Node22 -->
<g id="edge45_Node000002_Node000022" class="edge">
<title>Node2&#45;&gt;Node22</title>
<g id="a_edge45_Node000002_Node000022"><a xlink:title=" ">
<path fill="none" stroke="#63b8ff" d="M1193.28,-582.76C1262,-568.61 1330.61,-555.4 1374.52,-547.06"/>
<polygon fill="#63b8ff" stroke="#63b8ff" points="1192.23,-579.4 1183.14,-584.86 1193.64,-586.26 1192.23,-579.4"/>
</a>
</g>
</g>
<!-- Node26 -->
<g id="Node000026" class="node">
<title>Node26</title>
<g id="a_Node000026"><a xlink:href="transaction_8cpp.html" target="_top" xlink:title=" ">
<polygon fill="white" stroke="#666666" points="1816.5,-486.5 1649.5,-486.5 1649.5,-467.5 1816.5,-467.5 1816.5,-486.5"/>
<text text-anchor="middle" x="1733" y="-474.5" font-family="Helvetica,sans-Serif" font-size="10.00">src/Transaction/transaction.cpp</text>
</a>
</g>
</g>
<!-- Node2&#45;&gt;Node26 -->
<g id="edge63_Node000002_Node000026" class="edge">
<title>Node2&#45;&gt;Node26</title>
<g id="a_edge63_Node000002_Node000026"><a xlink:title=" ">
<path fill="none" stroke="#63b8ff" d="M1193.34,-582.9C1333.29,-560.59 1372.86,-575.17 1508,-547 1583.4,-531.28 1669.75,-501.3 1710.05,-486.58"/>
<polygon fill="#63b8ff" stroke="#63b8ff" points="1192.4,-579.51 1183.09,-584.58 1193.52,-586.42 1192.4,-579.51"/>
</a>
</g>
</g>
<!-- Node27 -->
<g id="Node000027" class="node">
<title>Node27</title>
<g id="a_Node000027"><a xlink:href="reporter_8h.html" target="_top" xlink:title=" ">
<polygon fill="white" stroke="#666666" points="1976.5,-547 1829.5,-547 1829.5,-528 1976.5,-528 1976.5,-547"/>
<text text-anchor="middle" x="1903" y="-535" font-family="Helvetica,sans-Serif" font-size="10.00">include/Reporter/reporter.h</text>
</a>
</g>
</g>
<!-- Node2&#45;&gt;Node27 -->
<g id="edge58_Node000002_Node000027" class="edge">
<title>Node2&#45;&gt;Node27</title>
<g id="a_edge58_Node000002_Node000027"><a xlink:title=" ">
<path fill="none" stroke="#63b8ff" d="M1193.01,-583.05C1330.86,-565.18 1676.99,-548.48 1829.31,-541.68"/>
<polygon fill="#63b8ff" stroke="#63b8ff" points="1192.5,-579.59 1183.06,-584.4 1193.44,-586.53 1192.5,-579.59"/>
</a>
</g>
</g>
<!-- Node3&#45;&gt;Node4 -->
<g id="edge3_Node000003_Node000004" class="edge">
<title>Node3&#45;&gt;Node4</title>
<g id="a_edge3_Node000003_Node000004"><a xlink:title=" ">
<path fill="none" stroke="#63b8ff" d="M263.91,-526.24C328.69,-514.96 431.59,-497.05 492.08,-486.52"/>
<polygon fill="#63b8ff" stroke="#63b8ff" points="263.11,-522.83 253.86,-527.99 264.31,-529.73 263.11,-522.83"/>
</a>
</g>
</g>
<!-- Node3&#45;&gt;Node7 -->
<g id="edge42_Node000003_Node000007" class="edge">
<title>Node3&#45;&gt;Node7</title>
<g id="a_edge42_Node000003_Node000007"><a xlink:title=" ">
<path fill="none" stroke="#63b8ff" d="M140.92,-524.63C123.09,-518.06 105.69,-507.85 95,-492 87.55,-480.94 91.95,-474.98 95,-462 135.49,-289.97 129.36,-202.42 280,-110 332.43,-77.83 513.42,-68.87 598.35,-66.41"/>
<polygon fill="#63b8ff" stroke="#63b8ff" points="140.24,-528.09 150.84,-527.92 142.45,-521.45 140.24,-528.09"/>
</a>
</g>
</g>
<!-- Node3&#45;&gt;Node8 -->
<g id="edge44_Node000003_Node000008" class="edge">
<title>Node3&#45;&gt;Node8</title>
<g id="a_edge44_Node000003_Node000008"><a xlink:title=" ">
<path fill="none" stroke="#63b8ff" d="M142.36,-525.75C82.07,-511.39 0,-479.45 0,-412 0,-412 0,-412 0,-118.5 0,-34.89 298.6,-15.82 408.24,-11.63"/>
<polygon fill="#63b8ff" stroke="#63b8ff" points="141.68,-529.18 152.21,-527.99 143.23,-522.36 141.68,-529.18"/>
</a>
</g>
</g>
<!-- Node3&#45;&gt;Node11 -->
<g id="edge40_Node000003_Node000011" class="edge">
<title>Node3&#45;&gt;Node11</title>
<g id="a_edge40_Node000003_Node000011"><a xlink:title=" ">
<path fill="none" stroke="#63b8ff" d="M225.22,-522.08C236.8,-513.62 251.49,-502.54 264,-492 350.14,-419.45 446.77,-323.11 475.51,-294.11"/>
<polygon fill="#63b8ff" stroke="#63b8ff" points="223.09,-519.3 217.04,-528 227.2,-524.97 223.09,-519.3"/>
</a>
</g>
</g>
<!-- Node3&#45;&gt;Node19 -->
<g id="edge41_Node000003_Node000019" class="edge">
<title>Node3&#45;&gt;Node19</title>
<g id="a_edge41_Node000003_Node000019"><a xlink:title=" ">
<path fill="none" stroke="#63b8ff" d="M225.24,-521.57C234,-513.84 243.31,-503.59 248,-492 253,-479.64 252.84,-474.42 248,-462 241.23,-444.64 225.29,-429.66 214.08,-420.74"/>
<polygon fill="#63b8ff" stroke="#63b8ff" points="223,-518.88 217.49,-527.93 227.44,-524.29 223,-518.88"/>
</a>
</g>
</g>
<!-- Node21 -->
<g id="Node000021" class="node">
<title>Node21</title>
<g id="a_Node000021"><a xlink:href="channel_8cpp.html" target="_top" xlink:title=" ">
<polygon fill="white" stroke="#666666" points="239.5,-486.5 104.5,-486.5 104.5,-467.5 239.5,-467.5 239.5,-486.5"/>
<text text-anchor="middle" x="172" y="-474.5" font-family="Helvetica,sans-Serif" font-size="10.00">src/Channel/channel.cpp</text>
</a>
</g>
</g>
<!-- Node3&#45;&gt;Node21 -->
<g id="edge43_Node000003_Node000021" class="edge">
<title>Node3&#45;&gt;Node21</title>
<g id="a_edge43_Node000003_Node000021"><a xlink:title=" ">
<path fill="none" stroke="#63b8ff" d="M195.12,-518.98C189.1,-508.31 181.67,-495.15 176.89,-486.67"/>
<polygon fill="#63b8ff" stroke="#63b8ff" points="192.17,-520.88 200.13,-527.87 198.27,-517.44 192.17,-520.88"/>
</a>
</g>
</g>
<!-- Node4&#45;&gt;Node5 -->
<g id="edge4_Node000004_Node000005" class="edge">
<title>Node4&#45;&gt;Node5</title>
<g id="a_edge4_Node000004_Node000005"><a xlink:title=" ">
<path fill="none" stroke="#63b8ff" d="M553.75,-459.19C559.97,-449.93 566.79,-437.92 570,-426 594.63,-334.45 576.59,-217.17 570.69,-184.37"/>
<polygon fill="#63b8ff" stroke="#63b8ff" points="550.84,-457.25 547.89,-467.43 556.54,-461.31 550.84,-457.25"/>
</a>
</g>
</g>
<!-- Node4&#45;&gt;Node7 -->
<g id="edge37_Node000004_Node000007" class="edge">
<title>Node4&#45;&gt;Node7</title>
<g id="a_edge37_Node000004_Node000007"><a xlink:title=" ">
<path fill="none" stroke="#63b8ff" d="M467.3,-465.09C439.01,-457.86 408.01,-445.87 385,-426 332.34,-380.54 316,-355.07 316,-285.5 316,-285.5 316,-285.5 316,-173.5 316,-114.76 508.66,-82.56 598.22,-70.77"/>
<polygon fill="#63b8ff" stroke="#63b8ff" points="466.64,-468.53 477.18,-467.46 468.27,-461.73 466.64,-468.53"/>
</a>
</g>
</g>
<!-- Node4&#45;&gt;Node8 -->
<g id="edge39_Node000004_Node000008" class="edge">
<title>Node4&#45;&gt;Node8</title>
<g id="a_edge39_Node000004_Node000008"><a xlink:title=" ">
<path fill="none" stroke="#63b8ff" d="M452.65,-465.45C418.72,-458.27 380.98,-446.22 351,-426 235.82,-348.31 164,-314.43 164,-175.5 164,-175.5 164,-175.5 164,-118.5 164,-66.87 330.05,-31.05 408.21,-17.05"/>
<polygon fill="#63b8ff" stroke="#63b8ff" points="452.09,-468.91 462.58,-467.44 453.46,-462.04 452.09,-468.91"/>
</a>
</g>
</g>
<!-- Node4&#45;&gt;Node11 -->
<g id="edge12_Node000004_Node000011" class="edge">
<title>Node4&#45;&gt;Node11</title>
<g id="a_edge12_Node000004_Node000011"><a xlink:title=" ">
<path fill="none" stroke="#63b8ff" d="M548.4,-458C554.09,-441.6 560.05,-416.84 554,-396 541.66,-353.47 507.51,-311.62 491.93,-294.09"/>
<polygon fill="#63b8ff" stroke="#63b8ff" points="545.09,-456.85 544.82,-467.44 551.64,-459.33 545.09,-456.85"/>
</a>
</g>
</g>
<!-- Node4&#45;&gt;Node12 -->
<g id="edge21_Node000004_Node000012" class="edge">
<title>Node4&#45;&gt;Node12</title>
<g id="a_edge21_Node000004_Node000012"><a xlink:title=" ">
<path fill="none" stroke="#63b8ff" d="M570.74,-463.53C594.63,-453.48 629.02,-438.95 659,-426 725.87,-397.12 746.58,-397.53 809,-360 827.44,-348.91 829.82,-342.96 847,-330 868.86,-313.51 881.61,-316.65 897,-294 908.63,-276.89 911.81,-252.01 912.68,-239.06"/>
<polygon fill="#63b8ff" stroke="#63b8ff" points="569.36,-460.31 561.5,-467.41 572.08,-466.77 569.36,-460.31"/>
</a>
</g>
</g>
<!-- Node15 -->
<g id="Node000015" class="node">
<title>Node15</title>
<g id="a_Node000015"><a xlink:href="simulatorDriver_8h.html" target="_top" xlink:title=" ">
<polygon fill="white" stroke="#666666" points="1010,-426 870,-426 870,-396 1010,-396 1010,-426"/>
<text text-anchor="start" x="878" y="-414" font-family="Helvetica,sans-Serif" font-size="10.00">include/Drivers/simulator</text>
<text text-anchor="middle" x="940" y="-403" font-family="Helvetica,sans-Serif" font-size="10.00">Driver.h</text>
</a>
</g>
</g>
<!-- Node4&#45;&gt;Node15 -->
<g id="edge22_Node000004_Node000015" class="edge">
<title>Node4&#45;&gt;Node15</title>
<g id="a_edge22_Node000004_Node000015"><a xlink:title=" ">
<path fill="none" stroke="#63b8ff" d="M604.29,-465.85C676.63,-454.24 794.69,-435.31 869.8,-423.26"/>
<polygon fill="#63b8ff" stroke="#63b8ff" points="603.72,-462.4 594.4,-467.44 604.83,-469.31 603.72,-462.4"/>
</a>
</g>
</g>
<!-- Node4&#45;&gt;Node16 -->
<g id="edge33_Node000004_Node000016" class="edge">
<title>Node4&#45;&gt;Node16</title>
<g id="a_edge33_Node000004_Node000016"><a xlink:title=" ">
<path fill="none" stroke="#63b8ff" d="M565.99,-462.55C583.24,-452.96 606.49,-439.44 626,-426 656.94,-404.68 690.61,-376.65 709.92,-360.05"/>
<polygon fill="#63b8ff" stroke="#63b8ff" points="564.16,-459.56 557.08,-467.44 567.53,-465.69 564.16,-459.56"/>
</a>
</g>
</g>
<!-- Node4&#45;&gt;Node19 -->
<g id="edge34_Node000004_Node000019" class="edge">
<title>Node4&#45;&gt;Node19</title>
<g id="a_edge34_Node000004_Node000019"><a xlink:title=" ">
<path fill="none" stroke="#63b8ff" d="M485.53,-465.54C431.91,-455.43 348.39,-439.68 276,-426 266.62,-424.23 256.57,-422.33 247,-420.52"/>
<polygon fill="#63b8ff" stroke="#63b8ff" points="485.04,-469.01 495.51,-467.42 486.34,-462.13 485.04,-469.01"/>
</a>
</g>
</g>
<!-- Node20 -->
<g id="Node000020" class="node">
<title>Node20</title>
<g id="a_Node000020"><a xlink:href="driverModel_8cpp.html" target="_top" xlink:title=" ">
<polygon fill="white" stroke="#666666" points="545.5,-420.5 394.5,-420.5 394.5,-401.5 545.5,-401.5 545.5,-420.5"/>
<text text-anchor="middle" x="470" y="-408.5" font-family="Helvetica,sans-Serif" font-size="10.00">src/Drivers/driverModel.cpp</text>
</a>
</g>
</g>
<!-- Node4&#45;&gt;Node20 -->
<g id="edge38_Node000004_Node000020" class="edge">
<title>Node4&#45;&gt;Node20</title>
<g id="a_edge38_Node000004_Node000020"><a xlink:title=" ">
<path fill="none" stroke="#63b8ff" d="M523.62,-460.33C509.87,-447.94 491.17,-431.09 479.88,-420.91"/>
<polygon fill="#63b8ff" stroke="#63b8ff" points="521.65,-463.27 531.42,-467.37 526.34,-458.07 521.65,-463.27"/>
</a>
</g>
</g>
<!-- Node5&#45;&gt;Node6 -->
<g id="edge5_Node000005_Node000006" class="edge">
<title>Node5&#45;&gt;Node6</title>
<g id="a_edge5_Node000005_Node000006"><a xlink:title=" ">
<path fill="none" stroke="#63b8ff" d="M644.16,-167.69C775.78,-157.52 1046.6,-136.6 1178.89,-126.38"/>
<polygon fill="#63b8ff" stroke="#63b8ff" points="643.86,-164.21 634.16,-168.47 644.4,-171.19 643.86,-164.21"/>
</a>
</g>
</g>
<!-- Node5&#45;&gt;Node7 -->
<g id="edge9_Node000005_Node000007" class="edge">
<title>Node5&#45;&gt;Node7</title>
<g id="a_edge9_Node000005_Node000007"><a xlink:title=" ">
<path fill="none" stroke="#63b8ff" d="M583.12,-157.18C590.01,-148.95 598.24,-138.67 605,-129 618.1,-110.25 631.35,-86.88 638.21,-74.37"/>
<polygon fill="#63b8ff" stroke="#63b8ff" points="580.36,-155.03 576.55,-164.92 585.69,-159.56 580.36,-155.03"/>
</a>
</g>
</g>
<!-- Node5&#45;&gt;Node8 -->
<g id="edge11_Node000005_Node000008" class="edge">
<title>Node5&#45;&gt;Node8</title>
<g id="a_edge11_Node000005_Node000008"><a xlink:title=" ">
<path fill="none" stroke="#63b8ff" d="M516.3,-161.67C498.08,-155 479.19,-144.73 467,-129 440.97,-95.4 444.36,-40.1 446.81,-19.02"/>
<polygon fill="#63b8ff" stroke="#63b8ff" points="515.43,-165.07 526.02,-164.92 517.65,-158.43 515.43,-165.07"/>
</a>
</g>
</g>
<!-- Node10 -->
<g id="Node000010" class="node">
<title>Node10</title>
<g id="a_Node000010"><a xlink:href="driver_8cpp.html" target="_top" xlink:title=" ">
<polygon fill="white" stroke="#666666" points="596,-129 476,-129 476,-110 596,-110 596,-129"/>
<text text-anchor="middle" x="536" y="-117" font-family="Helvetica,sans-Serif" font-size="10.00">src/Drivers/driver.cpp</text>
</a>
</g>
</g>
<!-- Node5&#45;&gt;Node10 -->
<g id="edge10_Node000005_Node000010" class="edge">
<title>Node5&#45;&gt;Node10</title>
<g id="a_edge10_Node000005_Node000010"><a xlink:title=" ">
<path fill="none" stroke="#63b8ff" d="M558.17,-156.1C552.53,-147.04 545.88,-136.37 541.35,-129.09"/>
<polygon fill="#63b8ff" stroke="#63b8ff" points="555.29,-158.11 563.55,-164.75 561.24,-154.41 555.29,-158.11"/>
</a>
</g>
</g>
<!-- Node6&#45;&gt;Node7 -->
<g id="edge6_Node000006_Node000007" class="edge">
<title>Node6&#45;&gt;Node7</title>
<g id="a_edge6_Node000006_Node000007"><a xlink:title=" ">
<path fill="none" stroke="#63b8ff" d="M1168.85,-110.35C1167.56,-110.23 1166.27,-110.11 1165,-110 988.35,-94.13 777.94,-76.62 687.7,-69.17"/>
<polygon fill="#63b8ff" stroke="#63b8ff" points="1168.62,-113.84 1178.9,-111.26 1169.26,-106.87 1168.62,-113.84"/>
</a>
</g>
</g>
<!-- Node9 -->
<g id="Node000009" class="node">
<title>Node9</title>
<g id="a_Node000009"><a xlink:href="spreader_8cpp.html" target="_top" xlink:title=" ">
<polygon fill="white" stroke="#666666" points="1326.5,-74 1183.5,-74 1183.5,-55 1326.5,-55 1326.5,-74"/>
<text text-anchor="middle" x="1255" y="-62" font-family="Helvetica,sans-Serif" font-size="10.00">src/Spreader/spreader.cpp</text>
</a>
</g>
</g>
<!-- Node6&#45;&gt;Node9 -->
<g id="edge8_Node000006_Node000009" class="edge">
<title>Node6&#45;&gt;Node9</title>
<g id="a_edge8_Node000006_Node000009"><a xlink:title=" ">
<path fill="none" stroke="#63b8ff" d="M1255,-99.66C1255,-90.93 1255,-80.99 1255,-74.09"/>
<polygon fill="#63b8ff" stroke="#63b8ff" points="1251.5,-99.75 1255,-109.75 1258.5,-99.75 1251.5,-99.75"/>
</a>
</g>
</g>
<!-- Node7&#45;&gt;Node8 -->
<g id="edge7_Node000007_Node000008" class="edge">
<title>Node7&#45;&gt;Node8</title>
<g id="a_edge7_Node000007_Node000008"><a xlink:title=" ">
<path fill="none" stroke="#63b8ff" d="M601.83,-52.31C565.34,-42.39 512.83,-28.12 479.58,-19.08"/>
<polygon fill="#63b8ff" stroke="#63b8ff" points="601.1,-55.74 611.67,-54.98 602.94,-48.98 601.1,-55.74"/>
</a>
</g>
</g>
<!-- Node11&#45;&gt;Node5 -->
<g id="edge13_Node000011_Node000005" class="edge">
<title>Node11&#45;&gt;Node5</title>
<g id="a_edge13_Node000011_Node000005"><a xlink:title=" ">
<path fill="none" stroke="#63b8ff" d="M501.21,-267.72C509.7,-259.53 519.86,-249.14 528,-239 542.79,-220.58 557.05,-196.67 564.22,-184.1"/>
<polygon fill="#63b8ff" stroke="#63b8ff" points="498.56,-265.41 493.68,-274.81 503.36,-270.5 498.56,-265.41"/>
</a>
</g>
</g>
<!-- Node11&#45;&gt;Node7 -->
<g id="edge19_Node000011_Node000007" class="edge">
<title>Node11&#45;&gt;Node7</title>
<g id="a_edge19_Node000011_Node000007"><a xlink:title=" ">
<path fill="none" stroke="#63b8ff" d="M422.81,-272.25C391.96,-263.12 362.98,-247.16 373,-220 395.27,-159.67 412.37,-143.92 467,-110 507.3,-84.98 561.04,-74 598.5,-69.2"/>
<polygon fill="#63b8ff" stroke="#63b8ff" points="422.28,-275.74 432.85,-274.98 424.12,-268.98 422.28,-275.74"/>
</a>
</g>
</g>
<!-- Node11&#45;&gt;Node12 -->
<g id="edge14_Node000011_Node000012" class="edge">
<title>Node11&#45;&gt;Node12</title>
<g id="a_edge14_Node000011_Node000012"><a xlink:title=" ">
<path fill="none" stroke="#63b8ff" d="M563.01,-273.74C643.53,-263.79 767.16,-248.52 843.89,-239.04"/>
<polygon fill="#63b8ff" stroke="#63b8ff" points="562.42,-270.28 552.93,-274.98 563.28,-277.23 562.42,-270.28"/>
</a>
</g>
</g>
<!-- Node14 -->
<g id="Node000014" class="node">
<title>Node14</title>
<g id="a_Node000014"><a xlink:href="dutDriver_8cpp.html" target="_top" xlink:title=" ">
<polygon fill="white" stroke="#666666" points="519.5,-239 382.5,-239 382.5,-220 519.5,-220 519.5,-239"/>
<text text-anchor="middle" x="451" y="-227" font-family="Helvetica,sans-Serif" font-size="10.00">src/Drivers/dutDriver.cpp</text>
</a>
</g>
</g>
<!-- Node11&#45;&gt;Node14 -->
<g id="edge20_Node000011_Node000014" class="edge">
<title>Node11&#45;&gt;Node14</title>
<g id="a_edge20_Node000011_Node000014"><a xlink:title=" ">
<path fill="none" stroke="#63b8ff" d="M473.17,-266.1C467.53,-257.04 460.88,-246.37 456.35,-239.09"/>
<polygon fill="#63b8ff" stroke="#63b8ff" points="470.29,-268.11 478.55,-274.75 476.24,-264.41 470.29,-268.11"/>
</a>
</g>
</g>
<!-- Node12&#45;&gt;Node5 -->
<g id="edge15_Node000012_Node000005" class="edge">
<title>Node12&#45;&gt;Node5</title>
<g id="a_edge15_Node000012_Node000005"><a xlink:title=" ">
<path fill="none" stroke="#63b8ff" d="M847.66,-218.43C783.07,-208.48 685.32,-193.42 624.42,-184.04"/>
<polygon fill="#63b8ff" stroke="#63b8ff" points="847.31,-221.92 857.73,-219.98 848.38,-215 847.31,-221.92"/>
</a>
</g>
</g>
<!-- Node12&#45;&gt;Node7 -->
<g id="edge16_Node000012_Node000007" class="edge">
<title>Node12&#45;&gt;Node7</title>
<g id="a_edge16_Node000012_Node000007"><a xlink:title=" ">
<path fill="none" stroke="#63b8ff" d="M911.69,-209.61C909.79,-195.71 905.18,-177.19 894,-165 839.2,-105.23 743.84,-80.8 687.76,-71.25"/>
<polygon fill="#63b8ff" stroke="#63b8ff" points="908.25,-210.36 912.73,-219.96 915.21,-209.66 908.25,-210.36"/>
</a>
</g>
</g>
<!-- Node12&#45;&gt;Node8 -->
<g id="edge18_Node000012_Node000008" class="edge">
<title>Node12&#45;&gt;Node8</title>
<g id="a_edge18_Node000012_Node000008"><a xlink:title=" ">
<path fill="none" stroke="#63b8ff" d="M917.03,-209.61C918.89,-196.48 919.46,-178.92 913,-165 897.08,-130.67 880.73,-128.99 848,-110 728.85,-40.86 562.72,-19.44 487.63,-13.07"/>
<polygon fill="#63b8ff" stroke="#63b8ff" points="913.52,-209.33 915.21,-219.79 920.42,-210.57 913.52,-209.33"/>
</a>
</g>
</g>
<!-- Node13 -->
<g id="Node000013" class="node">
<title>Node13</title>
<g id="a_Node000013"><a xlink:href="refDriver_8cpp.html" target="_top" xlink:title=" ">
<polygon fill="white" stroke="#666666" points="884.5,-184 749.5,-184 749.5,-165 884.5,-165 884.5,-184"/>
<text text-anchor="middle" x="817" y="-172" font-family="Helvetica,sans-Serif" font-size="10.00">src/Drivers/refDriver.cpp</text>
</a>
</g>
</g>
<!-- Node12&#45;&gt;Node13 -->
<g id="edge17_Node000012_Node000013" class="edge">
<title>Node12&#45;&gt;Node13</title>
<g id="a_edge17_Node000012_Node000013"><a xlink:title=" ">
<path fill="none" stroke="#63b8ff" d="M888.48,-214.97C870.94,-205.28 847.83,-192.52 832.7,-184.17"/>
<polygon fill="#63b8ff" stroke="#63b8ff" points="887.13,-218.22 897.58,-219.98 890.51,-212.09 887.13,-218.22"/>
</a>
</g>
</g>
<!-- Node15&#45;&gt;Node6 -->
<g id="edge30_Node000015_Node000006" class="edge">
<title>Node15&#45;&gt;Node6</title>
<g id="a_edge30_Node000015_Node000006"><a xlink:title=" ">
<path fill="none" stroke="#63b8ff" d="M1020.33,-405.21C1098,-395.72 1204,-367.7 1204,-285.5 1204,-285.5 1204,-285.5 1204,-228.5 1204,-188.07 1233.59,-146.57 1247.69,-129.09"/>
<polygon fill="#63b8ff" stroke="#63b8ff" points="1019.59,-401.77 1010.05,-406.38 1020.39,-408.73 1019.59,-401.77"/>
</a>
</g>
</g>
<!-- Node15&#45;&gt;Node7 -->
<g id="edge31_Node000015_Node000007" class="edge">
<title>Node15&#45;&gt;Node7</title>
<g id="a_edge31_Node000015_Node000007"><a xlink:title=" ">
<path fill="none" stroke="#63b8ff" d="M1010.32,-391.79C1025.58,-384.45 1039.88,-374.22 1049,-360 1077.43,-315.67 1033.27,-266.15 995,-220 942.91,-157.19 922.24,-143.87 848,-110 819.92,-97.19 739.15,-81.83 687.78,-72.92"/>
<polygon fill="#63b8ff" stroke="#63b8ff" points="1008.47,-388.78 1000.72,-396 1011.28,-395.19 1008.47,-388.78"/>
</a>
</g>
</g>
<!-- Node15&#45;&gt;Node11 -->
<g id="edge23_Node000015_Node000011" class="edge">
<title>Node15&#45;&gt;Node11</title>
<g id="a_edge23_Node000015_Node000011"><a xlink:title=" ">
<path fill="none" stroke="#63b8ff" d="M859.48,-402.43C798.94,-395.3 714.48,-382.31 643,-360 587.42,-342.66 526.27,-309.72 498.8,-294.12"/>
<polygon fill="#63b8ff" stroke="#63b8ff" points="859.4,-405.94 869.74,-403.6 860.2,-398.99 859.4,-405.94"/>
</a>
</g>
</g>
<!-- Node15&#45;&gt;Node12 -->
<g id="edge24_Node000015_Node000012" class="edge">
<title>Node15&#45;&gt;Node12</title>
<g id="a_edge24_Node000015_Node000012"><a xlink:title=" ">
<path fill="none" stroke="#63b8ff" d="M997.4,-391.28C1011.47,-383.84 1024.82,-373.68 1033,-360 1039.84,-348.56 1038.67,-342.07 1033,-330 1011.94,-285.18 959.67,-253.59 931.57,-239.22"/>
<polygon fill="#63b8ff" stroke="#63b8ff" points="995.57,-388.28 988.1,-395.8 998.63,-394.58 995.57,-388.28"/>
</a>
</g>
</g>
<!-- Node15&#45;&gt;Node16 -->
<g id="edge25_Node000015_Node000016" class="edge">
<title>Node15&#45;&gt;Node16</title>
<g id="a_edge25_Node000015_Node000016"><a xlink:title=" ">
<path fill="none" stroke="#63b8ff" d="M883.12,-392.99C848.69,-382.69 805.3,-369.72 772.85,-360.01"/>
<polygon fill="#63b8ff" stroke="#63b8ff" points="882.45,-396.44 893.04,-395.95 884.46,-389.74 882.45,-396.44"/>
</a>
</g>
</g>
<!-- Node18 -->
<g id="Node000018" class="node">
<title>Node18</title>
<g id="a_Node000018"><a xlink:href="simulatorDriver_8cpp.html" target="_top" xlink:title=" ">
<polygon fill="white" stroke="#666666" points="1024,-354.5 856,-354.5 856,-335.5 1024,-335.5 1024,-354.5"/>
<text text-anchor="middle" x="940" y="-342.5" font-family="Helvetica,sans-Serif" font-size="10.00">src/Drivers/simulatorDriver.cpp</text>
</a>
</g>
</g>
<!-- Node15&#45;&gt;Node18 -->
<g id="edge32_Node000015_Node000018" class="edge">
<title>Node15&#45;&gt;Node18</title>
<g id="a_edge32_Node000015_Node000018"><a xlink:title=" ">
<path fill="none" stroke="#63b8ff" d="M940,-385.6C940,-374.8 940,-362.78 940,-354.84"/>
<polygon fill="#63b8ff" stroke="#63b8ff" points="936.5,-385.8 940,-395.8 943.5,-385.8 936.5,-385.8"/>
</a>
</g>
</g>
<!-- Node16&#45;&gt;Node7 -->
<g id="edge28_Node000016_Node000007" class="edge">
<title>Node16&#45;&gt;Node7</title>
<g id="a_edge28_Node000016_Node000007"><a xlink:title=" ">
<path fill="none" stroke="#63b8ff" d="M702.61,-322.28C694.84,-314.05 686.72,-304.19 681,-294 666.57,-268.32 662,-259.96 662,-230.5 662,-230.5 662,-230.5 662,-173.5 662,-136 650.75,-92.26 645.56,-74.09"/>
<polygon fill="#63b8ff" stroke="#63b8ff" points="700.35,-324.97 709.87,-329.63 705.34,-320.05 700.35,-324.97"/>
</a>
</g>
</g>
<!-- Node16&#45;&gt;Node11 -->
<g id="edge26_Node000016_Node000011" class="edge">
<title>Node16&#45;&gt;Node11</title>
<g id="a_edge26_Node000016_Node000011"><a xlink:title=" ">
<path fill="none" stroke="#63b8ff" d="M658.03,-327.57C612.96,-316.67 555.65,-302.82 519.38,-294.05"/>
<polygon fill="#63b8ff" stroke="#63b8ff" points="657.49,-331.04 668.03,-329.99 659.14,-324.24 657.49,-331.04"/>
</a>
</g>
</g>
<!-- Node16&#45;&gt;Node12 -->
<g id="edge27_Node000016_Node000012" class="edge">
<title>Node16&#45;&gt;Node12</title>
<g id="a_edge27_Node000016_Node000012"><a xlink:title=" ">
<path fill="none" stroke="#63b8ff" d="M810.16,-327.55C833.24,-320.1 857.08,-309.38 876,-294 894.22,-279.19 905.36,-252.87 910.19,-239.23"/>
<polygon fill="#63b8ff" stroke="#63b8ff" points="808.88,-324.28 800.33,-330.55 810.92,-330.98 808.88,-324.28"/>
</a>
</g>
</g>
<!-- Node17 -->
<g id="Node000017" class="node">
<title>Node17</title>
<g id="a_Node000017"><a xlink:href="transDriverModel_8cpp.html" target="_top" xlink:title=" ">
<polygon fill="white" stroke="#666666" points="866.5,-294 689.5,-294 689.5,-275 866.5,-275 866.5,-294"/>
<text text-anchor="middle" x="778" y="-282" font-family="Helvetica,sans-Serif" font-size="10.00">src/Drivers/transDriverModel.cpp</text>
</a>
</g>
</g>
<!-- Node16&#45;&gt;Node17 -->
<g id="edge29_Node000016_Node000017" class="edge">
<title>Node16&#45;&gt;Node17</title>
<g id="a_edge29_Node000016_Node000017"><a xlink:title=" ">
<path fill="none" stroke="#63b8ff" d="M745.48,-322.09C754.07,-312.42 763.68,-301.61 770.21,-294.27"/>
<polygon fill="#63b8ff" stroke="#63b8ff" points="742.62,-320.04 738.59,-329.84 747.85,-324.69 742.62,-320.04"/>
</a>
</g>
</g>
<!-- Node19&#45;&gt;Node7 -->
<g id="edge35_Node000019_Node000007" class="edge">
<title>Node19&#45;&gt;Node7</title>
<g id="a_edge35_Node000019_Node000007"><a xlink:title=" ">
<path fill="none" stroke="#63b8ff" d="M201.91,-391.23C202.78,-337.67 213.2,-183.2 302,-110 346.28,-73.5 516.37,-66.72 598.33,-65.61"/>
<polygon fill="#63b8ff" stroke="#63b8ff" points="198.41,-391.3 201.85,-401.32 205.41,-391.35 198.41,-391.3"/>
</a>
</g>
</g>
<!-- Node19&#45;&gt;Node8 -->
<g id="edge36_Node000019_Node000008" class="edge">
<title>Node19&#45;&gt;Node8</title>
<g id="a_edge36_Node000019_Node000008"><a xlink:title=" ">
<path fill="none" stroke="#63b8ff" d="M184.5,-394.31C162.06,-372.37 126,-330.16 126,-285.5 126,-285.5 126,-285.5 126,-118.5 126,-88.33 126.52,-73.94 150,-55 189.03,-23.51 336.78,-14.23 408.49,-11.55"/>
<polygon fill="#63b8ff" stroke="#63b8ff" points="182.39,-397.13 192.06,-401.45 187.19,-392.04 182.39,-397.13"/>
</a>
</g>
</g>
<!-- Node22&#45;&gt;Node6 -->
<g id="edge46_Node000022_Node000006" class="edge">
<title>Node22&#45;&gt;Node6</title>
<g id="a_edge46_Node000022_Node000006"><a xlink:title=" ">
<path fill="none" stroke="#63b8ff" d="M1361,-525.13C1340.54,-518.53 1319.01,-508.18 1304,-492 1278.75,-464.79 1280,-449.12 1280,-412 1280,-412 1280,-412 1280,-228.5 1280,-190.59 1265.2,-147.07 1258.37,-129.02"/>
<polygon fill="#63b8ff" stroke="#63b8ff" points="1360.02,-528.49 1370.6,-527.99 1362.02,-521.78 1360.02,-528.49"/>
</a>
</g>
</g>
<!-- Node22&#45;&gt;Node7 -->
<g id="edge47_Node000022_Node000007" class="edge">
<title>Node22&#45;&gt;Node7</title>
<g id="a_edge47_Node000022_Node000007"><a xlink:title=" ">
<path fill="none" stroke="#63b8ff" d="M1377.43,-524.05C1361.91,-517.22 1345.97,-506.99 1337,-492 1330.15,-480.56 1335.75,-475.27 1337,-462 1341.91,-409.76 1359,-398.47 1359,-346 1359,-346 1359,-346 1359,-173.5 1359,-144.04 1363.06,-128.34 1340,-110 1289.08,-69.5 833.63,-65.63 687.74,-65.44"/>
<polygon fill="#63b8ff" stroke="#63b8ff" points="1376.4,-527.4 1386.98,-527.87 1379,-520.9 1376.4,-527.4"/>
</a>
</g>
</g>
<!-- Node23 -->
<g id="Node000023" class="node">
<title>Node23</title>
<g id="a_Node000023"><a xlink:href="database_8cpp.html" target="_top" xlink:title=" ">
<polygon fill="white" stroke="#666666" points="1494.5,-486.5 1345.5,-486.5 1345.5,-467.5 1494.5,-467.5 1494.5,-486.5"/>
<text text-anchor="middle" x="1420" y="-474.5" font-family="Helvetica,sans-Serif" font-size="10.00">src/Database/database.cpp</text>
</a>
</g>
</g>
<!-- Node22&#45;&gt;Node23 -->
<g id="edge48_Node000022_Node000023" class="edge">
<title>Node22&#45;&gt;Node23</title>
<g id="a_edge48_Node000022_Node000023"><a xlink:title=" ">
<path fill="none" stroke="#63b8ff" d="M1420,-517.66C1420,-507.24 1420,-494.8 1420,-486.67"/>
<polygon fill="#63b8ff" stroke="#63b8ff" points="1416.5,-517.87 1420,-527.87 1423.5,-517.87 1416.5,-517.87"/>
</a>
</g>
</g>
<!-- Node24 -->
<g id="Node000024" class="node">
<title>Node24</title>
<g id="a_Node000024"><a xlink:href="reporter_8cpp.html" target="_top" xlink:title=" ">
<polygon fill="white" stroke="#666666" points="1971.5,-486.5 1834.5,-486.5 1834.5,-467.5 1971.5,-467.5 1971.5,-486.5"/>
<text text-anchor="middle" x="1903" y="-474.5" font-family="Helvetica,sans-Serif" font-size="10.00">src/Reporter/reporter.cpp</text>
</a>
</g>
</g>
<!-- Node22&#45;&gt;Node24 -->
<g id="edge49_Node000022_Node000024" class="edge">
<title>Node22&#45;&gt;Node24</title>
<g id="a_edge49_Node000022_Node000024"><a xlink:title=" ">
<path fill="none" stroke="#63b8ff" d="M1509.26,-528.55C1591.68,-520.77 1717.38,-507.81 1826,-492 1836.76,-490.43 1848.31,-488.48 1859.11,-486.53"/>
<polygon fill="#63b8ff" stroke="#63b8ff" points="1508.81,-525.07 1499.18,-529.49 1509.46,-532.04 1508.81,-525.07"/>
</a>
</g>
</g>
<!-- Node25 -->
<g id="Node000025" class="node">
<title>Node25</title>
<g id="a_Node000025"><a xlink:href="generatorHelper_8cpp.html" target="_top" xlink:title=" ">
<polygon fill="white" stroke="#666666" points="1631.5,-492 1512.5,-492 1512.5,-462 1631.5,-462 1631.5,-492"/>
<text text-anchor="start" x="1520.5" y="-480" font-family="Helvetica,sans-Serif" font-size="10.00">src/TestGenerator/src</text>
<text text-anchor="middle" x="1572" y="-469" font-family="Helvetica,sans-Serif" font-size="10.00">/generatorHelper.cpp</text>
</a>
</g>
</g>
<!-- Node22&#45;&gt;Node25 -->
<g id="edge50_Node000022_Node000025" class="edge">
<title>Node22&#45;&gt;Node25</title>
<g id="a_edge50_Node000022_Node000025"><a xlink:title=" ">
<path fill="none" stroke="#63b8ff" d="M1451.61,-524.33C1476.04,-514.93 1509.87,-501.91 1535.46,-492.06"/>
<polygon fill="#63b8ff" stroke="#63b8ff" points="1450.18,-521.14 1442.1,-527.99 1452.69,-527.67 1450.18,-521.14"/>
</a>
</g>
</g>
<!-- Node22&#45;&gt;Node26 -->
<g id="edge51_Node000022_Node000026" class="edge">
<title>Node22&#45;&gt;Node26</title>
<g id="a_edge51_Node000022_Node000026"><a xlink:title=" ">
<path fill="none" stroke="#63b8ff" d="M1475.63,-526.1C1536.01,-514.82 1631.31,-497.01 1687.43,-486.52"/>
<polygon fill="#63b8ff" stroke="#63b8ff" points="1474.7,-522.72 1465.51,-527.99 1475.99,-529.6 1474.7,-522.72"/>
</a>
</g>
</g>
<!-- Node27&#45;&gt;Node6 -->
<g id="edge59_Node000027_Node000006" class="edge">
<title>Node27&#45;&gt;Node6</title>
<g id="a_edge59_Node000027_Node000006"><a xlink:title=" ">
<path fill="none" stroke="#63b8ff" d="M1942.14,-523.89C1957.03,-516.96 1972.46,-506.71 1981,-492 1987.7,-480.47 1989.57,-472.21 1981,-462 1789.5,-233.9 1321,-643.83 1321,-346 1321,-346 1321,-346 1321,-228.5 1321,-186.09 1283.49,-146.24 1265.02,-129.2"/>
<polygon fill="#63b8ff" stroke="#63b8ff" points="1940.34,-520.85 1932.5,-527.97 1943.08,-527.29 1940.34,-520.85"/>
</a>
</g>
</g>
<!-- Node27&#45;&gt;Node24 -->
<g id="edge60_Node000027_Node000024" class="edge">
<title>Node27&#45;&gt;Node24</title>
<g id="a_edge60_Node000027_Node000024"><a xlink:title=" ">
<path fill="none" stroke="#63b8ff" d="M1903,-517.66C1903,-507.24 1903,-494.8 1903,-486.67"/>
<polygon fill="#63b8ff" stroke="#63b8ff" points="1899.5,-517.87 1903,-527.87 1906.5,-517.87 1899.5,-517.87"/>
</a>
</g>
</g>
</g>
</svg>
