<?xml version="1.0" encoding="UTF-8" standalone="no"?>
<!DOCTYPE svg PUBLIC "-//W3C//DTD SVG 1.1//EN"
 "http://www.w3.org/Graphics/SVG/1.1/DTD/svg11.dtd">
<!-- Generated by graphviz version 2.43.0 (0)
 -->
<!-- Title: include/Evaluator/evaluate.h Pages: 1 -->
<!--zoomable 731 -->

<svg id="main" version="1.1" xmlns="http://www.w3.org/2000/svg" xmlns:xlink="http://www.w3.org/1999/xlink" xml:space="preserve" onload="init(evt)">
<style type="text/css"><![CDATA[
.node, .edge {opacity: 0.7;}
.node.selected, .edge.selected {opacity: 1;}
.edge:hover path { stroke: red; }
.edge:hover polygon { stroke: red; fill: red; }
]]></style>

<defs>
  <circle id="rim" cx="0" cy="0" r="7"/>
  <circle id="rim2" cx="0" cy="0" r="3.5"/>
  <g id="zoomPlus">
    <use xlink:href="#rim" fill="#404040"><set attributeName="fill" to="#808080" begin="zoomplus.mouseover" end="zoomplus.mouseout"/></use>
    <path d="M-4,0h8M0,-4v8" fill="none" stroke="white" stroke-width="1.5" pointer-events="none"/>
  </g>
  <g id="zoomMin">
    <use xlink:href="#rim" fill="#404040"><set attributeName="fill" to="#808080" begin="zoomminus.mouseover" end="zoomminus.mouseout"/></use>
    <path d="M-4,0h8" fill="none" stroke="white" stroke-width="1.5" pointer-events="none"/>
  </g>
  <g id="arrowUp" transform="translate(30 24)">
    <use xlink:href="#rim"/>
    <path pointer-events="none" fill="none" stroke="white" stroke-width="1.5" d="M0,-3.0v7 M-2.5,-0.5L0,-3.0L2.5,-0.5"/>
  </g>
  <g id="arrowRight" transform="rotate(90) translate(36 -43)">
    <use xlink:href="#rim"/>
    <path pointer-events="none" fill="none" stroke="white" stroke-width="1.5" d="M0,-3.0v7 M-2.5,-0.5L0,-3.0L2.5,-0.5"/>
  </g>
  <g id="arrowDown" transform="rotate(180) translate(-30 -48)">
    <use xlink:href="#rim"/>
    <path pointer-events="none" fill="none" stroke="white" stroke-width="1.5" d="M0,-3.0v7 M-2.5,-0.5L0,-3.0L2.5,-0.5"/>
  </g>
  <g id="arrowLeft" transform="rotate(270) translate(-36 17)">
    <use xlink:href="#rim"/>
    <path pointer-events="none" fill="none" stroke="white" stroke-width="1.5" d="M0,-3.0v7 M-2.5,-0.5L0,-3.0L2.5,-0.5"/>
  </g>
  <g id="resetDef">
    <use xlink:href="#rim2" fill="#404040"><set attributeName="fill" to="#808080" begin="reset.mouseover" end="reset.mouseout"/></use>
  </g>
</defs>
<script type="application/ecmascript">
var viewWidth = 1545;
var viewHeight = 731;
var sectionId = 'dynsection-1';
</script>
<script type="application/ecmascript" xlink:href="svg.min.js"/>
<svg id="graph" class="graph">
<g id="viewport">
<title>include/Evaluator/evaluate.h</title>
<!-- Node1 -->
<g id="Node000001" class="node">
<title>Node1</title>
<g id="a_Node000001"><a xlink:title=" ">
<polygon fill="#999999" stroke="#666666" points="779,-723 623,-723 623,-704 779,-704 779,-723"/>
<text text-anchor="middle" x="701" y="-711" font-family="Helvetica,sans-Serif" font-size="10.00">include/Evaluator/evaluate.h</text>
</a>
</g>
</g>
<!-- Node2 -->
<g id="Node000002" class="node">
<title>Node2</title>
<g id="a_Node000002"><a xlink:href="transaction_8h_source.html" target="_top" xlink:title=" ">
<polygon fill="white" stroke="#666666" points="756,-668 646,-668 646,-638 756,-638 756,-668"/>
<text text-anchor="start" x="654" y="-656" font-family="Helvetica,sans-Serif" font-size="10.00">include/Transaction</text>
<text text-anchor="middle" x="701" y="-645" font-family="Helvetica,sans-Serif" font-size="10.00">/transaction.h</text>
</a>
</g>
</g>
<!-- Node1&#45;&gt;Node2 -->
<g id="edge1_Node000001_Node000002" class="edge">
<title>Node1&#45;&gt;Node2</title>
<g id="a_edge1_Node000001_Node000002"><a xlink:title=" ">
<path fill="none" stroke="#63b8ff" d="M701,-693.65C701,-685.36 701,-675.78 701,-668.11"/>
<polygon fill="#63b8ff" stroke="#63b8ff" points="697.5,-693.87 701,-703.87 704.5,-693.87 697.5,-693.87"/>
</a>
</g>
</g>
<!-- Node7 -->
<g id="Node000007" class="node">
<title>Node7</title>
<g id="a_Node000007"><a xlink:href="mlvp_8h.html" target="_top" xlink:title=" ">
<polygon fill="white" stroke="#666666" points="539.5,-74 450.5,-74 450.5,-55 539.5,-55 539.5,-74"/>
<text text-anchor="middle" x="495" y="-62" font-family="Helvetica,sans-Serif" font-size="10.00">include/mlvp.h</text>
</a>
</g>
</g>
<!-- Node1&#45;&gt;Node7 -->
<g id="edge65_Node000001_Node000007" class="edge">
<title>Node1&#45;&gt;Node7</title>
<g id="a_edge65_Node000001_Node000007"><a xlink:title=" ">
<path fill="none" stroke="#63b8ff" d="M612.81,-706.61C424.48,-692.83 0,-654.98 0,-593.5 0,-593.5 0,-593.5 0,-184.5 0,-143.08 19.92,-130.35 56,-110 122.64,-72.41 352.56,-66.39 450.38,-65.56"/>
<polygon fill="#63b8ff" stroke="#63b8ff" points="612.74,-710.11 622.96,-707.34 613.24,-703.13 612.74,-710.11"/>
</a>
</g>
</g>
<!-- Node30 -->
<g id="Node000030" class="node">
<title>Node30</title>
<g id="a_Node000030"><a xlink:href="evaluate_8cpp.html" target="_top" xlink:title=" ">
<polygon fill="white" stroke="#666666" points="920,-662.5 774,-662.5 774,-643.5 920,-643.5 920,-662.5"/>
<text text-anchor="middle" x="847" y="-650.5" font-family="Helvetica,sans-Serif" font-size="10.00">src/Evaluator/evaluate.cpp</text>
</a>
</g>
</g>
<!-- Node1&#45;&gt;Node30 -->
<g id="edge66_Node000001_Node000030" class="edge">
<title>Node1&#45;&gt;Node30</title>
<g id="a_edge66_Node000001_Node000030"><a xlink:title=" ">
<path fill="none" stroke="#63b8ff" d="M731.62,-700.23C759.84,-688.92 800.97,-672.44 825.74,-662.52"/>
<polygon fill="#63b8ff" stroke="#63b8ff" points="730.21,-697.03 722.23,-703.99 732.81,-703.52 730.21,-697.03"/>
</a>
</g>
</g>
<!-- Node3 -->
<g id="Node000003" class="node">
<title>Node3</title>
<g id="a_Node000003"><a xlink:href="channel_8h.html" target="_top" xlink:title=" ">
<polygon fill="white" stroke="#666666" points="592.5,-602 447.5,-602 447.5,-583 592.5,-583 592.5,-602"/>
<text text-anchor="middle" x="520" y="-590" font-family="Helvetica,sans-Serif" font-size="10.00">include/Channel/channel.h</text>
</a>
</g>
</g>
<!-- Node2&#45;&gt;Node3 -->
<g id="edge2_Node000002_Node000003" class="edge">
<title>Node2&#45;&gt;Node3</title>
<g id="a_edge2_Node000002_Node000003"><a xlink:title=" ">
<path fill="none" stroke="#63b8ff" d="M648.03,-634.88C614.66,-624.09 573.02,-610.64 546.47,-602.05"/>
<polygon fill="#63b8ff" stroke="#63b8ff" points="647.05,-638.24 657.65,-637.99 649.21,-631.58 647.05,-638.24"/>
</a>
</g>
</g>
<!-- Node4 -->
<g id="Node000004" class="node">
<title>Node4</title>
<g id="a_Node000004"><a xlink:href="driverModel_8h.html" target="_top" xlink:title=" ">
<polygon fill="white" stroke="#666666" points="709.5,-547 548.5,-547 548.5,-528 709.5,-528 709.5,-547"/>
<text text-anchor="middle" x="629" y="-535" font-family="Helvetica,sans-Serif" font-size="10.00">include/Drivers/driverModel.h</text>
</a>
</g>
</g>
<!-- Node2&#45;&gt;Node4 -->
<g id="edge52_Node000002_Node000004" class="edge">
<title>Node2&#45;&gt;Node4</title>
<g id="a_edge52_Node000002_Node000004"><a xlink:title=" ">
<path fill="none" stroke="#63b8ff" d="M686.43,-629.03C670.42,-603.8 645.53,-564.56 634.54,-547.23"/>
<polygon fill="#63b8ff" stroke="#63b8ff" points="683.57,-631.06 691.88,-637.63 689.48,-627.31 683.57,-631.06"/>
</a>
</g>
</g>
<!-- Node5 -->
<g id="Node000005" class="node">
<title>Node5</title>
<g id="a_Node000005"><a xlink:href="driver_8h.html" target="_top" xlink:title=" ">
<polygon fill="white" stroke="#666666" points="532,-195 402,-195 402,-176 532,-176 532,-195"/>
<text text-anchor="middle" x="467" y="-183" font-family="Helvetica,sans-Serif" font-size="10.00">include/Drivers/driver.h</text>
</a>
</g>
</g>
<!-- Node2&#45;&gt;Node5 -->
<g id="edge51_Node000002_Node000005" class="edge">
<title>Node2&#45;&gt;Node5</title>
<g id="a_edge51_Node000002_Node000005"><a xlink:title=" ">
<path fill="none" stroke="#63b8ff" d="M635.55,-650.33C502.73,-645.15 214,-624.06 214,-538.5 214,-538.5 214,-538.5 214,-294.5 214,-212.83 326.88,-192.08 401.85,-187.3"/>
<polygon fill="#63b8ff" stroke="#63b8ff" points="635.49,-653.83 645.61,-650.7 635.75,-646.83 635.49,-653.83"/>
</a>
</g>
</g>
<!-- Node6 -->
<g id="Node000006" class="node">
<title>Node6</title>
<g id="a_Node000006"><a xlink:href="spreader_8h.html" target="_top" xlink:title=" ">
<polygon fill="white" stroke="#666666" points="1351,-134.5 1199,-134.5 1199,-115.5 1351,-115.5 1351,-134.5"/>
<text text-anchor="middle" x="1275" y="-122.5" font-family="Helvetica,sans-Serif" font-size="10.00">include/Spreader/spreader.h</text>
</a>
</g>
</g>
<!-- Node2&#45;&gt;Node6 -->
<g id="edge62_Node000002_Node000006" class="edge">
<title>Node2&#45;&gt;Node6</title>
<g id="a_edge62_Node000002_Node000006"><a xlink:title=" ">
<path fill="none" stroke="#63b8ff" d="M766.17,-638C951.92,-611.99 1012.39,-667.31 1184,-602 1228.07,-585.23 1269,-585.66 1269,-538.5 1269,-538.5 1269,-538.5 1269,-239.5 1269,-200.23 1272.63,-153.43 1274.24,-134.53"/>
<polygon fill="#63b8ff" stroke="#63b8ff" points="765.46,-634.57 756.07,-639.48 766.47,-641.49 765.46,-634.57"/>
</a>
</g>
</g>
<!-- Node2&#45;&gt;Node7 -->
<g id="edge63_Node000002_Node000007" class="edge">
<title>Node2&#45;&gt;Node7</title>
<g id="a_edge63_Node000002_Node000007"><a xlink:title=" ">
<path fill="none" stroke="#63b8ff" d="M635.61,-652.89C534.72,-652.7 335.82,-646.04 174,-602 109.63,-584.48 38,-605.21 38,-538.5 38,-538.5 38,-538.5 38,-184.5 38,-130.49 84.07,-130.6 134,-110 190.33,-86.76 366.91,-73.27 450.41,-68.04"/>
<polygon fill="#63b8ff" stroke="#63b8ff" points="635.66,-656.39 645.66,-652.89 635.66,-649.39 635.66,-656.39"/>
</a>
</g>
</g>
<!-- Node11 -->
<g id="Node000011" class="node">
<title>Node11</title>
<g id="a_Node000011"><a xlink:href="dutDriver_8h.html" target="_top" xlink:title=" ">
<polygon fill="white" stroke="#666666" points="477.5,-305 330.5,-305 330.5,-286 477.5,-286 477.5,-305"/>
<text text-anchor="middle" x="404" y="-293" font-family="Helvetica,sans-Serif" font-size="10.00">include/Drivers/dutDriver.h</text>
</a>
</g>
</g>
<!-- Node2&#45;&gt;Node11 -->
<g id="edge53_Node000002_Node000011" class="edge">
<title>Node2&#45;&gt;Node11</title>
<g id="a_edge53_Node000002_Node000011"><a xlink:title=" ">
<path fill="none" stroke="#63b8ff" d="M635.77,-649.04C511.27,-641.59 252,-616.7 252,-538.5 252,-538.5 252,-538.5 252,-421 252,-357.55 332.24,-320.58 376.12,-305.1"/>
<polygon fill="#63b8ff" stroke="#63b8ff" points="635.76,-652.54 645.94,-649.62 636.16,-645.55 635.76,-652.54"/>
</a>
</g>
</g>
<!-- Node12 -->
<g id="Node000012" class="node">
<title>Node12</title>
<g id="a_Node000012"><a xlink:href="refDriver_8h.html" target="_top" xlink:title=" ">
<polygon fill="white" stroke="#666666" points="844.5,-250 699.5,-250 699.5,-231 844.5,-231 844.5,-250"/>
<text text-anchor="middle" x="772" y="-238" font-family="Helvetica,sans-Serif" font-size="10.00">include/Drivers/refDriver.h</text>
</a>
</g>
</g>
<!-- Node2&#45;&gt;Node12 -->
<g id="edge54_Node000002_Node000012" class="edge">
<title>Node2&#45;&gt;Node12</title>
<g id="a_edge54_Node000002_Node000012"><a xlink:title=" ">
<path fill="none" stroke="#63b8ff" d="M766.26,-637.14C881.03,-610.55 1107,-555.97 1107,-538.5 1107,-538.5 1107,-538.5 1107,-355 1107,-298.58 934.41,-264.68 836.99,-250.04"/>
<polygon fill="#63b8ff" stroke="#63b8ff" points="765.13,-633.81 756.18,-639.47 766.71,-640.63 765.13,-633.81"/>
</a>
</g>
</g>
<!-- Node16 -->
<g id="Node000016" class="node">
<title>Node16</title>
<g id="a_Node000016"><a xlink:href="transDriverModel_8h.html" target="_top" xlink:title=" ">
<polygon fill="white" stroke="#666666" points="656,-371 508,-371 508,-341 656,-341 656,-371"/>
<text text-anchor="start" x="516" y="-359" font-family="Helvetica,sans-Serif" font-size="10.00">include/Drivers/transDriver</text>
<text text-anchor="middle" x="582" y="-348" font-family="Helvetica,sans-Serif" font-size="10.00">Model.h</text>
</a>
</g>
</g>
<!-- Node2&#45;&gt;Node16 -->
<g id="edge55_Node000002_Node000016" class="edge">
<title>Node2&#45;&gt;Node16</title>
<g id="a_edge55_Node000002_Node000016"><a xlink:title=" ">
<path fill="none" stroke="#63b8ff" d="M710.33,-628.47C718.99,-603.2 729.14,-562.08 719,-528 700.68,-466.44 682.29,-455.33 640,-407 628.27,-393.59 612.93,-380.52 600.97,-371.11"/>
<polygon fill="#63b8ff" stroke="#63b8ff" points="707.01,-627.36 706.89,-637.96 713.59,-629.75 707.01,-627.36"/>
</a>
</g>
</g>
<!-- Node19 -->
<g id="Node000019" class="node">
<title>Node19</title>
<g id="a_Node000019"><a xlink:href="ref_8h.html" target="_top" xlink:title=" ">
<polygon fill="white" stroke="#666666" points="185.5,-492 66.5,-492 66.5,-473 185.5,-473 185.5,-492"/>
<text text-anchor="middle" x="126" y="-480" font-family="Helvetica,sans-Serif" font-size="10.00">include/RefPack/ref.h</text>
</a>
</g>
</g>
<!-- Node2&#45;&gt;Node19 -->
<g id="edge56_Node000002_Node000019" class="edge">
<title>Node2&#45;&gt;Node19</title>
<g id="a_edge56_Node000002_Node000019"><a xlink:title=" ">
<path fill="none" stroke="#63b8ff" d="M635.91,-652.49C517.21,-652.26 271.24,-646.27 200,-602 157.56,-575.63 135.51,-514.97 128.51,-492.28"/>
<polygon fill="#63b8ff" stroke="#63b8ff" points="635.95,-655.99 645.96,-652.5 635.96,-648.99 635.95,-655.99"/>
</a>
</g>
</g>
<!-- Node20 -->
<g id="Node000020" class="node">
<title>Node20</title>
<g id="a_Node000020"><a xlink:href="simulator_8h.html" target="_top" xlink:title=" ">
<polygon fill="white" stroke="#666666" points="1057,-492 897,-492 897,-473 1057,-473 1057,-492"/>
<text text-anchor="middle" x="977" y="-480" font-family="Helvetica,sans-Serif" font-size="10.00">include/Simulator/simulator.h</text>
</a>
</g>
</g>
<!-- Node2&#45;&gt;Node20 -->
<g id="edge61_Node000002_Node000020" class="edge">
<title>Node2&#45;&gt;Node20</title>
<g id="a_edge61_Node000002_Node000020"><a xlink:title=" ">
<path fill="none" stroke="#63b8ff" d="M732.74,-632.62C792.73,-596 920.53,-517.97 962.97,-492.06"/>
<polygon fill="#63b8ff" stroke="#63b8ff" points="730.77,-629.73 724.06,-637.92 734.42,-635.7 730.77,-629.73"/>
</a>
</g>
</g>
<!-- Node24 -->
<g id="Node000024" class="node">
<title>Node24</title>
<g id="a_Node000024"><a xlink:href="database_8h.html" target="_top" xlink:title=" ">
<polygon fill="white" stroke="#666666" points="1022,-195 864,-195 864,-176 1022,-176 1022,-195"/>
<text text-anchor="middle" x="943" y="-183" font-family="Helvetica,sans-Serif" font-size="10.00">include/Database/database.h</text>
</a>
</g>
</g>
<!-- Node2&#45;&gt;Node24 -->
<g id="edge44_Node000002_Node000024" class="edge">
<title>Node2&#45;&gt;Node24</title>
<g id="a_edge44_Node000002_Node000024"><a xlink:title=" ">
<path fill="none" stroke="#63b8ff" d="M766.03,-638.03C877.94,-619.89 1183,-631.09 1183,-538.5 1183,-538.5 1183,-538.5 1183,-294.5 1183,-250.52 1047.3,-211.62 979.97,-195.02"/>
<polygon fill="#63b8ff" stroke="#63b8ff" points="765.35,-634.6 756.13,-639.82 766.6,-641.49 765.35,-634.6"/>
</a>
</g>
</g>
<!-- Node28 -->
<g id="Node000028" class="node">
<title>Node28</title>
<g id="a_Node000028"><a xlink:href="transaction_8cpp.html" target="_top" xlink:title=" ">
<polygon fill="white" stroke="#666666" points="1536.5,-134.5 1369.5,-134.5 1369.5,-115.5 1536.5,-115.5 1536.5,-134.5"/>
<text text-anchor="middle" x="1453" y="-122.5" font-family="Helvetica,sans-Serif" font-size="10.00">src/Transaction/transaction.cpp</text>
</a>
</g>
</g>
<!-- Node2&#45;&gt;Node28 -->
<g id="edge64_Node000002_Node000028" class="edge">
<title>Node2&#45;&gt;Node28</title>
<g id="a_edge64_Node000002_Node000028"><a xlink:title=" ">
<path fill="none" stroke="#63b8ff" d="M766.19,-637.99C969.75,-609.28 1028.36,-647.18 1225,-602 1300.37,-584.68 1387,-615.83 1387,-538.5 1387,-538.5 1387,-538.5 1387,-239.5 1387,-195.05 1425.29,-152.46 1443.54,-134.69"/>
<polygon fill="#63b8ff" stroke="#63b8ff" points="765.47,-634.55 756.07,-639.45 766.47,-641.48 765.47,-634.55"/>
</a>
</g>
</g>
<!-- Node29 -->
<g id="Node000029" class="node">
<title>Node29</title>
<g id="a_Node000029"><a xlink:href="reporter_8h.html" target="_top" xlink:title=" ">
<polygon fill="white" stroke="#666666" points="1187.5,-195 1040.5,-195 1040.5,-176 1187.5,-176 1187.5,-195"/>
<text text-anchor="middle" x="1114" y="-183" font-family="Helvetica,sans-Serif" font-size="10.00">include/Reporter/reporter.h</text>
</a>
</g>
</g>
<!-- Node2&#45;&gt;Node29 -->
<g id="edge57_Node000002_Node000029" class="edge">
<title>Node2&#45;&gt;Node29</title>
<g id="a_edge57_Node000002_Node000029"><a xlink:title=" ">
<path fill="none" stroke="#63b8ff" d="M766.11,-638.11C887.2,-622.97 1221,-639.28 1221,-538.5 1221,-538.5 1221,-538.5 1221,-294.5 1221,-245.14 1163.91,-210.27 1133.13,-195.05"/>
<polygon fill="#63b8ff" stroke="#63b8ff" points="765.5,-634.66 756.08,-639.51 766.47,-641.59 765.5,-634.66"/>
</a>
</g>
</g>
<!-- Node3&#45;&gt;Node4 -->
<g id="edge3_Node000003_Node000004" class="edge">
<title>Node3&#45;&gt;Node4</title>
<g id="a_edge3_Node000003_Node000004"><a xlink:title=" ">
<path fill="none" stroke="#63b8ff" d="M546.73,-578.5C566.79,-568.75 593.68,-555.68 611.17,-547.17"/>
<polygon fill="#63b8ff" stroke="#63b8ff" points="544.98,-575.46 537.51,-582.98 548.04,-581.76 544.98,-575.46"/>
</a>
</g>
</g>
<!-- Node3&#45;&gt;Node7 -->
<g id="edge42_Node000003_Node000007" class="edge">
<title>Node3&#45;&gt;Node7</title>
<g id="a_edge42_Node000003_Node000007"><a xlink:title=" ">
<path fill="none" stroke="#63b8ff" d="M451.44,-581.25C409.77,-573.65 361.82,-562.03 347,-547 234.21,-432.63 279.43,-354.98 265,-195 261.59,-157.16 248,-137.7 274,-110 297.51,-84.96 392.65,-73.34 450.16,-68.51"/>
<polygon fill="#63b8ff" stroke="#63b8ff" points="450.87,-584.7 461.32,-582.99 452.09,-577.81 450.87,-584.7"/>
</a>
</g>
</g>
<!-- Node3&#45;&gt;Node11 -->
<g id="edge39_Node000003_Node000011" class="edge">
<title>Node3&#45;&gt;Node11</title>
<g id="a_edge39_Node000003_Node000011"><a xlink:title=" ">
<path fill="none" stroke="#63b8ff" d="M518.37,-572.38C516.31,-558.65 511.63,-540.44 501,-528 476.98,-499.89 451.87,-518.42 426,-492 407.21,-472.82 407.67,-463.01 401,-437 390.38,-395.62 392.21,-383.56 396,-341 397.12,-328.49 399.96,-314.23 401.94,-305.3"/>
<polygon fill="#63b8ff" stroke="#63b8ff" points="514.94,-573.11 519.57,-582.64 521.89,-572.3 514.94,-573.11"/>
</a>
</g>
</g>
<!-- Node3&#45;&gt;Node19 -->
<g id="edge40_Node000003_Node000019" class="edge">
<title>Node3&#45;&gt;Node19</title>
<g id="a_edge40_Node000003_Node000019"><a xlink:title=" ">
<path fill="none" stroke="#63b8ff" d="M463.46,-581.07C421.83,-572.97 364.02,-560.8 314,-547 253.39,-530.28 183.65,-505.13 148.6,-492.06"/>
<polygon fill="#63b8ff" stroke="#63b8ff" points="462.93,-584.54 473.41,-583 464.25,-577.66 462.93,-584.54"/>
</a>
</g>
</g>
<!-- Node3&#45;&gt;Node20 -->
<g id="edge41_Node000003_Node000020" class="edge">
<title>Node3&#45;&gt;Node20</title>
<g id="a_edge41_Node000003_Node000020"><a xlink:title=" ">
<path fill="none" stroke="#63b8ff" d="M569.17,-580.81C609.48,-571.97 668.01,-558.98 719,-547 799.61,-528.07 894.02,-504.47 943.25,-492.05"/>
<polygon fill="#63b8ff" stroke="#63b8ff" points="568.35,-577.41 559.33,-582.97 569.84,-584.25 568.35,-577.41"/>
</a>
</g>
</g>
<!-- Node23 -->
<g id="Node000023" class="node">
<title>Node23</title>
<g id="a_Node000023"><a xlink:href="channel_8cpp.html" target="_top" xlink:title=" ">
<polygon fill="white" stroke="#666666" points="491.5,-547 356.5,-547 356.5,-528 491.5,-528 491.5,-547"/>
<text text-anchor="middle" x="424" y="-535" font-family="Helvetica,sans-Serif" font-size="10.00">src/Channel/channel.cpp</text>
</a>
</g>
</g>
<!-- Node3&#45;&gt;Node23 -->
<g id="edge43_Node000003_Node000023" class="edge">
<title>Node3&#45;&gt;Node23</title>
<g id="a_edge43_Node000003_Node000023"><a xlink:title=" ">
<path fill="none" stroke="#63b8ff" d="M495.48,-577.97C477.94,-568.28 454.83,-555.52 439.7,-547.17"/>
<polygon fill="#63b8ff" stroke="#63b8ff" points="494.13,-581.22 504.58,-582.98 497.51,-575.09 494.13,-581.22"/>
</a>
</g>
</g>
<!-- Node4&#45;&gt;Node5 -->
<g id="edge4_Node000004_Node000005" class="edge">
<title>Node4&#45;&gt;Node5</title>
<g id="a_edge4_Node000004_Node000005"><a xlink:title=" ">
<path fill="none" stroke="#63b8ff" d="M538.41,-528.9C515.46,-522.38 493.29,-511.14 479,-492 424.19,-418.57 491.98,-377.49 487,-286 485.66,-261.45 486.05,-255.07 481,-231 478.34,-218.32 473.54,-204.11 470.31,-195.23"/>
<polygon fill="#63b8ff" stroke="#63b8ff" points="537.72,-532.33 548.28,-531.41 539.45,-525.55 537.72,-532.33"/>
</a>
</g>
</g>
<!-- Node4&#45;&gt;Node7 -->
<g id="edge37_Node000004_Node000007" class="edge">
<title>Node4&#45;&gt;Node7</title>
<g id="a_edge37_Node000004_Node000007"><a xlink:title=" ">
<path fill="none" stroke="#63b8ff" d="M553.4,-526.43C504.47,-518.7 446.25,-506.84 426,-492 365.88,-447.92 281.13,-268.71 270,-195 263.82,-154.08 274.83,-134.75 308,-110 349.59,-78.97 409.65,-69.22 450.4,-66.34"/>
<polygon fill="#63b8ff" stroke="#63b8ff" points="552.94,-529.9 563.36,-527.97 554.01,-522.98 552.94,-529.9"/>
</a>
</g>
</g>
<!-- Node4&#45;&gt;Node11 -->
<g id="edge11_Node000004_Node000011" class="edge">
<title>Node4&#45;&gt;Node11</title>
<g id="a_edge11_Node000004_Node000011"><a xlink:title=" ">
<path fill="none" stroke="#63b8ff" d="M552.14,-526.29C508.7,-518.95 460.12,-507.59 445,-492 392.85,-438.23 399.51,-336.02 402.87,-305.39"/>
<polygon fill="#63b8ff" stroke="#63b8ff" points="551.75,-529.77 562.18,-527.93 552.88,-522.86 551.75,-529.77"/>
</a>
</g>
</g>
<!-- Node4&#45;&gt;Node12 -->
<g id="edge19_Node000004_Node000012" class="edge">
<title>Node4&#45;&gt;Node12</title>
<g id="a_edge19_Node000004_Node000012"><a xlink:title=" ">
<path fill="none" stroke="#63b8ff" d="M719.73,-526.4C776.63,-514.84 845.84,-490.08 882,-437 921.36,-379.23 884.31,-338.36 838,-286 824.27,-270.47 803.97,-257.86 789.51,-250.08"/>
<polygon fill="#63b8ff" stroke="#63b8ff" points="718.79,-523.01 709.63,-528.34 720.11,-529.89 718.79,-523.01"/>
</a>
</g>
</g>
<!-- Node15 -->
<g id="Node000015" class="node">
<title>Node15</title>
<g id="a_Node000015"><a xlink:href="simulatorDriver_8h.html" target="_top" xlink:title=" ">
<polygon fill="white" stroke="#666666" points="873,-437 733,-437 733,-407 873,-407 873,-437"/>
<text text-anchor="start" x="741" y="-425" font-family="Helvetica,sans-Serif" font-size="10.00">include/Drivers/simulator</text>
<text text-anchor="middle" x="803" y="-414" font-family="Helvetica,sans-Serif" font-size="10.00">Driver.h</text>
</a>
</g>
</g>
<!-- Node4&#45;&gt;Node15 -->
<g id="edge20_Node000004_Node000015" class="edge">
<title>Node4&#45;&gt;Node15</title>
<g id="a_edge20_Node000004_Node000015"><a xlink:title=" ">
<path fill="none" stroke="#63b8ff" d="M650.65,-522.38C684.05,-500.59 747.8,-459.01 781.26,-437.18"/>
<polygon fill="#63b8ff" stroke="#63b8ff" points="648.54,-519.57 642.08,-527.97 652.37,-525.44 648.54,-519.57"/>
</a>
</g>
</g>
<!-- Node4&#45;&gt;Node16 -->
<g id="edge31_Node000004_Node000016" class="edge">
<title>Node4&#45;&gt;Node16</title>
<g id="a_edge31_Node000004_Node000016"><a xlink:title=" ">
<path fill="none" stroke="#63b8ff" d="M639.64,-518.92C646.01,-506.22 652.13,-488.62 648,-473 637.39,-432.9 609.35,-392.17 593.44,-371.29"/>
<polygon fill="#63b8ff" stroke="#63b8ff" points="636.44,-517.48 634.68,-527.92 642.57,-520.86 636.44,-517.48"/>
</a>
</g>
</g>
<!-- Node4&#45;&gt;Node19 -->
<g id="edge32_Node000004_Node000019" class="edge">
<title>Node4&#45;&gt;Node19</title>
<g id="a_edge32_Node000004_Node000019"><a xlink:title=" ">
<path fill="none" stroke="#63b8ff" d="M538.47,-526.96C436.35,-516.2 273.15,-499.01 185.8,-489.8"/>
<polygon fill="#63b8ff" stroke="#63b8ff" points="538.15,-530.45 548.46,-528.01 538.89,-523.49 538.15,-530.45"/>
</a>
</g>
</g>
<!-- Node4&#45;&gt;Node20 -->
<g id="edge34_Node000004_Node000020" class="edge">
<title>Node4&#45;&gt;Node20</title>
<g id="a_edge34_Node000004_Node000020"><a xlink:title=" ">
<path fill="none" stroke="#63b8ff" d="M695.1,-526.43C760.44,-516.48 859.33,-501.42 920.94,-492.04"/>
<polygon fill="#63b8ff" stroke="#63b8ff" points="694.27,-523.02 684.91,-527.98 695.33,-529.94 694.27,-523.02"/>
</a>
</g>
</g>
<!-- Node22 -->
<g id="Node000022" class="node">
<title>Node22</title>
<g id="a_Node000022"><a xlink:href="driverModel_8cpp.html" target="_top" xlink:title=" ">
<polygon fill="white" stroke="#666666" points="638.5,-492 487.5,-492 487.5,-473 638.5,-473 638.5,-492"/>
<text text-anchor="middle" x="563" y="-480" font-family="Helvetica,sans-Serif" font-size="10.00">src/Drivers/driverModel.cpp</text>
</a>
</g>
</g>
<!-- Node4&#45;&gt;Node22 -->
<g id="edge38_Node000004_Node000022" class="edge">
<title>Node4&#45;&gt;Node22</title>
<g id="a_edge38_Node000004_Node000022"><a xlink:title=" ">
<path fill="none" stroke="#63b8ff" d="M610.45,-521.6C598.62,-512.11 583.71,-500.13 573.8,-492.17"/>
<polygon fill="#63b8ff" stroke="#63b8ff" points="608.41,-524.45 618.4,-527.98 612.79,-518.99 608.41,-524.45"/>
</a>
</g>
</g>
<!-- Node5&#45;&gt;Node6 -->
<g id="edge5_Node000005_Node000006" class="edge">
<title>Node5&#45;&gt;Node6</title>
<g id="a_edge5_Node000005_Node000006"><a xlink:title=" ">
<path fill="none" stroke="#63b8ff" d="M542.16,-178.72C554.79,-177.78 567.77,-176.85 580,-176 834.12,-158.45 898.26,-162.41 1152,-140 1169.34,-138.47 1188.02,-136.5 1205.46,-134.54"/>
<polygon fill="#63b8ff" stroke="#63b8ff" points="541.83,-175.23 532.12,-179.46 542.35,-182.21 541.83,-175.23"/>
</a>
</g>
</g>
<!-- Node5&#45;&gt;Node7 -->
<g id="edge9_Node000005_Node000007" class="edge">
<title>Node5&#45;&gt;Node7</title>
<g id="a_edge9_Node000005_Node000007"><a xlink:title=" ">
<path fill="none" stroke="#63b8ff" d="M471.39,-165.86C477.51,-139.81 488.4,-93.56 492.93,-74.3"/>
<polygon fill="#63b8ff" stroke="#63b8ff" points="467.9,-165.41 469.01,-175.94 474.71,-167.01 467.9,-165.41"/>
</a>
</g>
</g>
<!-- Node10 -->
<g id="Node000010" class="node">
<title>Node10</title>
<g id="a_Node000010"><a xlink:href="driver_8cpp.html" target="_top" xlink:title=" ">
<polygon fill="white" stroke="#666666" points="467,-134.5 347,-134.5 347,-115.5 467,-115.5 467,-134.5"/>
<text text-anchor="middle" x="407" y="-122.5" font-family="Helvetica,sans-Serif" font-size="10.00">src/Drivers/driver.cpp</text>
</a>
</g>
</g>
<!-- Node5&#45;&gt;Node10 -->
<g id="edge10_Node000005_Node000010" class="edge">
<title>Node5&#45;&gt;Node10</title>
<g id="a_edge10_Node000005_Node000010"><a xlink:title=" ">
<path fill="none" stroke="#63b8ff" d="M450.68,-168.59C439.48,-157.67 425.03,-143.58 415.89,-134.67"/>
<polygon fill="#63b8ff" stroke="#63b8ff" points="448.54,-171.39 458.15,-175.87 453.43,-166.38 448.54,-171.39"/>
</a>
</g>
</g>
<!-- Node6&#45;&gt;Node7 -->
<g id="edge6_Node000006_Node000007" class="edge">
<title>Node6&#45;&gt;Node7</title>
<g id="a_edge6_Node000006_Node000007"><a xlink:title=" ">
<path fill="none" stroke="#63b8ff" d="M1215.55,-113.98C1205.38,-112.49 1194.9,-111.09 1185,-110 942.18,-83.34 649.39,-70.94 539.52,-66.98"/>
<polygon fill="#63b8ff" stroke="#63b8ff" points="1215.18,-117.46 1225.59,-115.5 1216.23,-110.54 1215.18,-117.46"/>
</a>
</g>
</g>
<!-- Node9 -->
<g id="Node000009" class="node">
<title>Node9</title>
<g id="a_Node000009"><a xlink:href="spreader_8cpp.html" target="_top" xlink:title=" ">
<polygon fill="white" stroke="#666666" points="1346.5,-74 1203.5,-74 1203.5,-55 1346.5,-55 1346.5,-74"/>
<text text-anchor="middle" x="1275" y="-62" font-family="Helvetica,sans-Serif" font-size="10.00">src/Spreader/spreader.cpp</text>
</a>
</g>
</g>
<!-- Node6&#45;&gt;Node9 -->
<g id="edge8_Node000006_Node000009" class="edge">
<title>Node6&#45;&gt;Node9</title>
<g id="a_edge8_Node000006_Node000009"><a xlink:title=" ">
<path fill="none" stroke="#63b8ff" d="M1275,-105.16C1275,-94.74 1275,-82.3 1275,-74.17"/>
<polygon fill="#63b8ff" stroke="#63b8ff" points="1271.5,-105.37 1275,-115.37 1278.5,-105.37 1271.5,-105.37"/>
</a>
</g>
</g>
<!-- Node8 -->
<g id="Node000008" class="node">
<title>Node8</title>
<g id="a_Node000008"><a xlink:href="main_8cpp.html" target="_top" xlink:title=" ">
<polygon fill="white" stroke="#666666" points="534.5,-19 455.5,-19 455.5,0 534.5,0 534.5,-19"/>
<text text-anchor="middle" x="495" y="-7" font-family="Helvetica,sans-Serif" font-size="10.00">src/main.cpp</text>
</a>
</g>
</g>
<!-- Node7&#45;&gt;Node8 -->
<g id="edge7_Node000007_Node000008" class="edge">
<title>Node7&#45;&gt;Node8</title>
<g id="a_edge7_Node000007_Node000008"><a xlink:title=" ">
<path fill="none" stroke="#63b8ff" d="M495,-44.66C495,-35.93 495,-25.99 495,-19.09"/>
<polygon fill="#63b8ff" stroke="#63b8ff" points="491.5,-44.75 495,-54.75 498.5,-44.75 491.5,-44.75"/>
</a>
</g>
</g>
<!-- Node11&#45;&gt;Node5 -->
<g id="edge12_Node000011_Node000005" class="edge">
<title>Node11&#45;&gt;Node5</title>
<g id="a_edge12_Node000011_Node000005"><a xlink:title=" ">
<path fill="none" stroke="#63b8ff" d="M432.8,-280.95C444.99,-273.62 457.97,-263.3 465,-250 474.27,-232.45 471.5,-208.18 469.03,-195.33"/>
<polygon fill="#63b8ff" stroke="#63b8ff" points="430.79,-278.07 423.75,-285.98 434.19,-284.19 430.79,-278.07"/>
</a>
</g>
</g>
<!-- Node11&#45;&gt;Node7 -->
<g id="edge17_Node000011_Node000007" class="edge">
<title>Node11&#45;&gt;Node7</title>
<g id="a_edge17_Node000011_Node000007"><a xlink:title=" ">
<path fill="none" stroke="#63b8ff" d="M352.62,-282.42C335.79,-275.75 318.88,-265.55 309,-250 285.59,-213.18 225.32,-227.39 338,-110 367.04,-79.75 414.97,-69.6 450.25,-66.43"/>
<polygon fill="#63b8ff" stroke="#63b8ff" points="351.88,-285.87 362.47,-285.94 354.24,-279.28 351.88,-285.87"/>
</a>
</g>
</g>
<!-- Node11&#45;&gt;Node12 -->
<g id="edge13_Node000011_Node000012" class="edge">
<title>Node11&#45;&gt;Node12</title>
<g id="a_edge13_Node000011_Node000012"><a xlink:title=" ">
<path fill="none" stroke="#63b8ff" d="M473.05,-284.56C542.14,-274.61 647.3,-259.46 712.72,-250.04"/>
<polygon fill="#63b8ff" stroke="#63b8ff" points="472.52,-281.09 463.13,-285.98 473.52,-288.02 472.52,-281.09"/>
</a>
</g>
</g>
<!-- Node14 -->
<g id="Node000014" class="node">
<title>Node14</title>
<g id="a_Node000014"><a xlink:href="dutDriver_8cpp.html" target="_top" xlink:title=" ">
<polygon fill="white" stroke="#666666" points="455.5,-250 318.5,-250 318.5,-231 455.5,-231 455.5,-250"/>
<text text-anchor="middle" x="387" y="-238" font-family="Helvetica,sans-Serif" font-size="10.00">src/Drivers/dutDriver.cpp</text>
</a>
</g>
</g>
<!-- Node11&#45;&gt;Node14 -->
<g id="edge18_Node000011_Node000014" class="edge">
<title>Node11&#45;&gt;Node14</title>
<g id="a_edge18_Node000011_Node000014"><a xlink:title=" ">
<path fill="none" stroke="#63b8ff" d="M398.05,-275.95C395.23,-267.15 391.99,-257.06 389.75,-250.09"/>
<polygon fill="#63b8ff" stroke="#63b8ff" points="394.81,-277.29 401.19,-285.75 401.47,-275.16 394.81,-277.29"/>
</a>
</g>
</g>
<!-- Node12&#45;&gt;Node5 -->
<g id="edge14_Node000012_Node000005" class="edge">
<title>Node12&#45;&gt;Node5</title>
<g id="a_edge14_Node000012_Node000005"><a xlink:title=" ">
<path fill="none" stroke="#63b8ff" d="M713,-229.25C655.73,-219.3 569.8,-204.36 516.13,-195.04"/>
<polygon fill="#63b8ff" stroke="#63b8ff" points="712.54,-232.72 723,-230.98 713.74,-225.82 712.54,-232.72"/>
</a>
</g>
</g>
<!-- Node12&#45;&gt;Node7 -->
<g id="edge15_Node000012_Node000007" class="edge">
<title>Node12&#45;&gt;Node7</title>
<g id="a_edge15_Node000012_Node000007"><a xlink:title=" ">
<path fill="none" stroke="#63b8ff" d="M765.07,-221.47C758.74,-207.23 748.05,-187.85 733,-176 692.25,-143.92 669.01,-161.91 622,-140 599.2,-129.37 595.63,-122.84 574,-110 552.34,-97.14 526.9,-82.97 510.86,-74.16"/>
<polygon fill="#63b8ff" stroke="#63b8ff" points="761.86,-222.85 768.92,-230.75 768.32,-220.17 761.86,-222.85"/>
</a>
</g>
</g>
<!-- Node13 -->
<g id="Node000013" class="node">
<title>Node13</title>
<g id="a_Node000013"><a xlink:href="refDriver_8cpp.html" target="_top" xlink:title=" ">
<polygon fill="white" stroke="#666666" points="723.5,-195 588.5,-195 588.5,-176 723.5,-176 723.5,-195"/>
<text text-anchor="middle" x="656" y="-183" font-family="Helvetica,sans-Serif" font-size="10.00">src/Drivers/refDriver.cpp</text>
</a>
</g>
</g>
<!-- Node12&#45;&gt;Node13 -->
<g id="edge16_Node000012_Node000013" class="edge">
<title>Node12&#45;&gt;Node13</title>
<g id="a_edge16_Node000012_Node000013"><a xlink:title=" ">
<path fill="none" stroke="#63b8ff" d="M744.13,-226.77C722.73,-216.99 693.76,-203.75 674.98,-195.17"/>
<polygon fill="#63b8ff" stroke="#63b8ff" points="742.81,-230.01 753.36,-230.98 745.72,-223.65 742.81,-230.01"/>
</a>
</g>
</g>
<!-- Node15&#45;&gt;Node6 -->
<g id="edge28_Node000015_Node000006" class="edge">
<title>Node15&#45;&gt;Node6</title>
<g id="a_edge28_Node000015_Node000006"><a xlink:title=" ">
<path fill="none" stroke="#63b8ff" d="M850.53,-403.2C872.66,-394.37 899.1,-383.03 922,-371 1050.47,-303.54 1081.2,-282.45 1197,-195 1223.55,-174.95 1252.23,-148.08 1266.26,-134.55"/>
<polygon fill="#63b8ff" stroke="#63b8ff" points="849.03,-400.03 841.01,-406.96 851.6,-406.55 849.03,-400.03"/>
</a>
</g>
</g>
<!-- Node15&#45;&gt;Node7 -->
<g id="edge29_Node000015_Node000007" class="edge">
<title>Node15&#45;&gt;Node7</title>
<g id="a_edge29_Node000015_Node000007"><a xlink:title=" ">
<path fill="none" stroke="#63b8ff" d="M839.15,-401.03C849.8,-393.18 860.15,-383.1 866,-371 880.8,-340.35 891.16,-286.96 854,-231 799.08,-148.3 737.16,-187.54 650,-140 631.11,-129.7 630.72,-120.61 612,-110 584.02,-94.13 549.29,-81.74 524.96,-74.11"/>
<polygon fill="#63b8ff" stroke="#63b8ff" points="836.91,-398.32 830.62,-406.85 840.85,-404.1 836.91,-398.32"/>
</a>
</g>
</g>
<!-- Node15&#45;&gt;Node11 -->
<g id="edge21_Node000015_Node000011" class="edge">
<title>Node15&#45;&gt;Node11</title>
<g id="a_edge21_Node000015_Node000011"><a xlink:title=" ">
<path fill="none" stroke="#63b8ff" d="M722.6,-418.65C659.46,-414.28 570.55,-402.44 499,-371 462.16,-354.81 427.14,-321 411.94,-305.11"/>
<polygon fill="#63b8ff" stroke="#63b8ff" points="722.7,-422.16 732.9,-419.31 723.14,-415.18 722.7,-422.16"/>
</a>
</g>
</g>
<!-- Node15&#45;&gt;Node12 -->
<g id="edge22_Node000015_Node000012" class="edge">
<title>Node15&#45;&gt;Node12</title>
<g id="a_edge22_Node000015_Node000012"><a xlink:title=" ">
<path fill="none" stroke="#63b8ff" d="M830.25,-399.87C838.53,-391.83 846.6,-381.94 851,-371 855.98,-358.63 855.39,-353.59 851,-341 837.2,-301.43 800.37,-265.79 782.29,-250.04"/>
<polygon fill="#63b8ff" stroke="#63b8ff" points="827.76,-397.41 822.69,-406.72 832.45,-402.6 827.76,-397.41"/>
</a>
</g>
</g>
<!-- Node15&#45;&gt;Node16 -->
<g id="edge23_Node000015_Node000016" class="edge">
<title>Node15&#45;&gt;Node16</title>
<g id="a_edge23_Node000015_Node000016"><a xlink:title=" ">
<path fill="none" stroke="#63b8ff" d="M744.72,-404.12C709.08,-393.8 664.04,-380.76 630.39,-371.01"/>
<polygon fill="#63b8ff" stroke="#63b8ff" points="743.92,-407.54 754.5,-406.95 745.87,-400.81 743.92,-407.54"/>
</a>
</g>
</g>
<!-- Node18 -->
<g id="Node000018" class="node">
<title>Node18</title>
<g id="a_Node000018"><a xlink:href="simulatorDriver_8cpp.html" target="_top" xlink:title=" ">
<polygon fill="white" stroke="#666666" points="842,-365.5 674,-365.5 674,-346.5 842,-346.5 842,-365.5"/>
<text text-anchor="middle" x="758" y="-353.5" font-family="Helvetica,sans-Serif" font-size="10.00">src/Drivers/simulatorDriver.cpp</text>
</a>
</g>
</g>
<!-- Node15&#45;&gt;Node18 -->
<g id="edge30_Node000015_Node000018" class="edge">
<title>Node15&#45;&gt;Node18</title>
<g id="a_edge30_Node000015_Node000018"><a xlink:title=" ">
<path fill="none" stroke="#63b8ff" d="M787.26,-398.61C779.32,-387.32 770.15,-374.28 764.22,-365.84"/>
<polygon fill="#63b8ff" stroke="#63b8ff" points="784.4,-400.63 793.01,-406.8 790.12,-396.6 784.4,-400.63"/>
</a>
</g>
</g>
<!-- Node16&#45;&gt;Node7 -->
<g id="edge26_Node000016_Node000007" class="edge">
<title>Node16&#45;&gt;Node7</title>
<g id="a_edge26_Node000016_Node000007"><a xlink:title=" ">
<path fill="none" stroke="#63b8ff" d="M574.58,-331.02C568.2,-308.22 560,-272.86 560,-241.5 560,-241.5 560,-241.5 560,-184.5 560,-138.12 521.51,-92.65 503.77,-74.16"/>
<polygon fill="#63b8ff" stroke="#63b8ff" points="571.29,-332.21 577.44,-340.84 578.01,-330.26 571.29,-332.21"/>
</a>
</g>
</g>
<!-- Node16&#45;&gt;Node11 -->
<g id="edge24_Node000016_Node000011" class="edge">
<title>Node16&#45;&gt;Node11</title>
<g id="a_edge24_Node000016_Node000011"><a xlink:title=" ">
<path fill="none" stroke="#63b8ff" d="M529.48,-337.74C496.74,-326.98 456.03,-313.6 430.03,-305.05"/>
<polygon fill="#63b8ff" stroke="#63b8ff" points="528.77,-341.19 539.36,-340.99 530.96,-334.54 528.77,-341.19"/>
</a>
</g>
</g>
<!-- Node16&#45;&gt;Node12 -->
<g id="edge25_Node000016_Node000012" class="edge">
<title>Node16&#45;&gt;Node12</title>
<g id="a_edge25_Node000016_Node000012"><a xlink:title=" ">
<path fill="none" stroke="#63b8ff" d="M662.65,-338.81C711.89,-328.1 766.76,-314.37 774,-305 786.28,-289.12 780.09,-263.72 775.48,-250.37"/>
<polygon fill="#63b8ff" stroke="#63b8ff" points="661.61,-335.45 652.57,-340.97 663.08,-342.29 661.61,-335.45"/>
</a>
</g>
</g>
<!-- Node17 -->
<g id="Node000017" class="node">
<title>Node17</title>
<g id="a_Node000017"><a xlink:href="transDriverModel_8cpp.html" target="_top" xlink:title=" ">
<polygon fill="white" stroke="#666666" points="764.5,-305 587.5,-305 587.5,-286 764.5,-286 764.5,-305"/>
<text text-anchor="middle" x="676" y="-293" font-family="Helvetica,sans-Serif" font-size="10.00">src/Drivers/transDriverModel.cpp</text>
</a>
</g>
</g>
<!-- Node16&#45;&gt;Node17 -->
<g id="edge27_Node000016_Node000017" class="edge">
<title>Node16&#45;&gt;Node17</title>
<g id="a_edge27_Node000016_Node000017"><a xlink:title=" ">
<path fill="none" stroke="#63b8ff" d="M613.57,-335.35C630.09,-325.07 649.46,-313.02 662.19,-305.09"/>
<polygon fill="#63b8ff" stroke="#63b8ff" points="611.4,-332.58 604.75,-340.84 615.09,-338.53 611.4,-332.58"/>
</a>
</g>
</g>
<!-- Node19&#45;&gt;Node7 -->
<g id="edge33_Node000019_Node000007" class="edge">
<title>Node19&#45;&gt;Node7</title>
<g id="a_edge33_Node000019_Node000007"><a xlink:title=" ">
<path fill="none" stroke="#63b8ff" d="M127.47,-462.75C129.24,-438.39 132,-394.55 132,-357 132,-357 132,-357 132,-184.5 132,-148.81 133.81,-131.9 162,-110 206.05,-75.79 370.13,-67.86 450.32,-66.03"/>
<polygon fill="#63b8ff" stroke="#63b8ff" points="123.97,-462.52 126.71,-472.75 130.95,-463.04 123.97,-462.52"/>
</a>
</g>
</g>
<!-- Node20&#45;&gt;Node15 -->
<g id="edge35_Node000020_Node000015" class="edge">
<title>Node20&#45;&gt;Node15</title>
<g id="a_edge35_Node000020_Node000015"><a xlink:title=" ">
<path fill="none" stroke="#63b8ff" d="M941.92,-469.71C913.89,-460.28 874.51,-447.04 844.83,-437.06"/>
<polygon fill="#63b8ff" stroke="#63b8ff" points="941.1,-473.12 951.7,-472.99 943.34,-466.49 941.1,-473.12"/>
</a>
</g>
</g>
<!-- Node21 -->
<g id="Node000021" class="node">
<title>Node21</title>
<g id="a_Node000021"><a xlink:href="simulator_8cpp.html" target="_top" xlink:title=" ">
<polygon fill="white" stroke="#666666" points="1079,-431.5 929,-431.5 929,-412.5 1079,-412.5 1079,-431.5"/>
<text text-anchor="middle" x="1004" y="-419.5" font-family="Helvetica,sans-Serif" font-size="10.00">src/Simulator/simulator.cpp</text>
</a>
</g>
</g>
<!-- Node20&#45;&gt;Node21 -->
<g id="edge36_Node000020_Node000021" class="edge">
<title>Node20&#45;&gt;Node21</title>
<g id="a_edge36_Node000020_Node000021"><a xlink:title=" ">
<path fill="none" stroke="#63b8ff" d="M985.24,-463.65C990.13,-453.04 996.13,-440.06 1000,-431.67"/>
<polygon fill="#63b8ff" stroke="#63b8ff" points="982,-462.32 980.98,-472.87 988.35,-465.26 982,-462.32"/>
</a>
</g>
</g>
<!-- Node24&#45;&gt;Node6 -->
<g id="edge45_Node000024_Node000006" class="edge">
<title>Node24&#45;&gt;Node6</title>
<g id="a_edge45_Node000024_Node000006"><a xlink:title=" ">
<path fill="none" stroke="#63b8ff" d="M1001.21,-174.24C1065.22,-162.96 1166.89,-145.05 1226.67,-134.52"/>
<polygon fill="#63b8ff" stroke="#63b8ff" points="1000.52,-170.81 991.28,-175.99 1001.73,-177.71 1000.52,-170.81"/>
</a>
</g>
</g>
<!-- Node24&#45;&gt;Node7 -->
<g id="edge46_Node000024_Node000007" class="edge">
<title>Node24&#45;&gt;Node7</title>
<g id="a_edge46_Node000024_Node000007"><a xlink:title=" ">
<path fill="none" stroke="#63b8ff" d="M854.03,-178.08C805.06,-172.25 744.06,-161.15 693,-140 671.47,-131.08 671.04,-120.02 650,-110 614.23,-92.97 570.65,-81.17 538.82,-74.02"/>
<polygon fill="#63b8ff" stroke="#63b8ff" points="853.64,-181.56 863.97,-179.21 854.43,-174.61 853.64,-181.56"/>
</a>
</g>
</g>
<!-- Node25 -->
<g id="Node000025" class="node">
<title>Node25</title>
<g id="a_Node000025"><a xlink:href="database_8cpp.html" target="_top" xlink:title=" ">
<polygon fill="white" stroke="#666666" points="850.5,-134.5 701.5,-134.5 701.5,-115.5 850.5,-115.5 850.5,-134.5"/>
<text text-anchor="middle" x="776" y="-122.5" font-family="Helvetica,sans-Serif" font-size="10.00">src/Database/database.cpp</text>
</a>
</g>
</g>
<!-- Node24&#45;&gt;Node25 -->
<g id="edge47_Node000024_Node000025" class="edge">
<title>Node24&#45;&gt;Node25</title>
<g id="a_edge47_Node000024_Node000025"><a xlink:title=" ">
<path fill="none" stroke="#63b8ff" d="M909.23,-172.67C876.94,-161.36 829.02,-144.57 800.31,-134.52"/>
<polygon fill="#63b8ff" stroke="#63b8ff" points="908.12,-175.99 918.72,-175.99 910.44,-169.38 908.12,-175.99"/>
</a>
</g>
</g>
<!-- Node26 -->
<g id="Node000026" class="node">
<title>Node26</title>
<g id="a_Node000026"><a xlink:href="reporter_8cpp.html" target="_top" xlink:title=" ">
<polygon fill="white" stroke="#666666" points="1142.5,-134.5 1005.5,-134.5 1005.5,-115.5 1142.5,-115.5 1142.5,-134.5"/>
<text text-anchor="middle" x="1074" y="-122.5" font-family="Helvetica,sans-Serif" font-size="10.00">src/Reporter/reporter.cpp</text>
</a>
</g>
</g>
<!-- Node24&#45;&gt;Node26 -->
<g id="edge48_Node000024_Node000026" class="edge">
<title>Node24&#45;&gt;Node26</title>
<g id="a_edge48_Node000024_Node000026"><a xlink:title=" ">
<path fill="none" stroke="#63b8ff" d="M971.48,-171.78C996.76,-160.49 1032.99,-144.31 1054.93,-134.52"/>
<polygon fill="#63b8ff" stroke="#63b8ff" points="969.75,-168.72 962.05,-175.99 972.61,-175.11 969.75,-168.72"/>
</a>
</g>
</g>
<!-- Node27 -->
<g id="Node000027" class="node">
<title>Node27</title>
<g id="a_Node000027"><a xlink:href="generatorHelper_8cpp.html" target="_top" xlink:title=" ">
<polygon fill="white" stroke="#666666" points="987.5,-140 868.5,-140 868.5,-110 987.5,-110 987.5,-140"/>
<text text-anchor="start" x="876.5" y="-128" font-family="Helvetica,sans-Serif" font-size="10.00">src/TestGenerator/src</text>
<text text-anchor="middle" x="928" y="-117" font-family="Helvetica,sans-Serif" font-size="10.00">/generatorHelper.cpp</text>
</a>
</g>
</g>
<!-- Node24&#45;&gt;Node27 -->
<g id="edge49_Node000024_Node000027" class="edge">
<title>Node24&#45;&gt;Node27</title>
<g id="a_edge49_Node000024_Node000027"><a xlink:title=" ">
<path fill="none" stroke="#63b8ff" d="M938.24,-165.93C936.1,-157.58 933.61,-147.87 931.62,-140.11"/>
<polygon fill="#63b8ff" stroke="#63b8ff" points="934.91,-167.05 940.79,-175.87 941.69,-165.31 934.91,-167.05"/>
</a>
</g>
</g>
<!-- Node24&#45;&gt;Node28 -->
<g id="edge50_Node000024_Node000028" class="edge">
<title>Node24&#45;&gt;Node28</title>
<g id="a_edge50_Node000024_Node000028"><a xlink:title=" ">
<path fill="none" stroke="#63b8ff" d="M1032.51,-175.41C1135.64,-164.85 1298.76,-147.87 1360,-140 1372.63,-138.38 1386.2,-136.44 1398.96,-134.54"/>
<polygon fill="#63b8ff" stroke="#63b8ff" points="1032,-171.94 1022.41,-176.44 1032.71,-178.9 1032,-171.94"/>
</a>
</g>
</g>
<!-- Node29&#45;&gt;Node6 -->
<g id="edge58_Node000029_Node000006" class="edge">
<title>Node29&#45;&gt;Node6</title>
<g id="a_edge58_Node000029_Node000006"><a xlink:title=" ">
<path fill="none" stroke="#63b8ff" d="M1146.96,-172.52C1178.09,-161.21 1224,-144.53 1251.56,-134.52"/>
<polygon fill="#63b8ff" stroke="#63b8ff" points="1145.61,-169.29 1137.41,-175.99 1148,-175.87 1145.61,-169.29"/>
</a>
</g>
</g>
<!-- Node29&#45;&gt;Node7 -->
<g id="edge59_Node000029_Node000007" class="edge">
<title>Node29&#45;&gt;Node7</title>
<g id="a_edge59_Node000029_Node000007"><a xlink:title=" ">
<path fill="none" stroke="#63b8ff" d="M1131.98,-168.82C1148.48,-152.59 1168.1,-127.23 1152,-110 1110.34,-65.42 681.2,-64.25 539.87,-65.09"/>
<polygon fill="#63b8ff" stroke="#63b8ff" points="1129.22,-166.6 1124.3,-175.98 1134,-171.72 1129.22,-166.6"/>
</a>
</g>
</g>
<!-- Node29&#45;&gt;Node26 -->
<g id="edge60_Node000029_Node000026" class="edge">
<title>Node29&#45;&gt;Node26</title>
<g id="a_edge60_Node000029_Node000026"><a xlink:title=" ">
<path fill="none" stroke="#63b8ff" d="M1102.24,-167.3C1094.91,-156.58 1085.78,-143.23 1079.93,-134.67"/>
<polygon fill="#63b8ff" stroke="#63b8ff" points="1099.56,-169.59 1108.1,-175.87 1105.34,-165.64 1099.56,-169.59"/>
</a>
</g>
</g>
</g>
</svg>

<g id="navigator" transform="translate(0 0)" fill="#404254">
  <rect fill="#f2f5e9" fill-opacity="0.5" stroke="#606060" stroke-width=".5" x="0" y="0" width="60" height="60"/>
  <use id="zoomplus" xlink:href="#zoomPlus" x="17" y="9" onmousedown="handleZoom(evt,'in')"/>
  <use id="zoomminus" xlink:href="#zoomMin" x="42" y="9" onmousedown="handleZoom(evt,'out')"/>
  <use id="reset" xlink:href="#resetDef" x="30" y="36" onmousedown="handleReset()"/>
   <use id="arrowup" xlink:href="#arrowUp" x="0" y="0" onmousedown="handlePan(0,-1)"/>
  <use id="arrowright" xlink:href="#arrowRight" x="0" y="0" onmousedown="handlePan(1,0)"/>
  <use id="arrowdown" xlink:href="#arrowDown" x="0" y="0" onmousedown="handlePan(0,1)"/>
  <use id="arrowleft" xlink:href="#arrowLeft" x="0" y="0" onmousedown="handlePan(-1,0)"/>
</g>
<svg viewBox="0 0 15 15" width="100%" height="30px" preserveAspectRatio="xMaxYMin meet">
 <g id="arrow_out" transform="scale(0.3 0.3)">
  <a xlink:href="evaluate_8h__dep__incl_org.svg" target="_base">
   <rect id="button" ry="5" rx="5" y="6" x="6" height="38" width="38"
        fill="#f2f5e9" fill-opacity="0.5" stroke="#606060" stroke-width="1.0"/>
   <path id="arrow"
     d="M 11.500037,31.436501 C 11.940474,20.09759 22.043105,11.32322 32.158766,21.979434 L 37.068811,17.246167 C 37.068811,17.246167 37.088388,32 37.088388,32 L 22.160133,31.978069 C 22.160133,31.978069 26.997745,27.140456 26.997745,27.140456 C 18.528582,18.264221 13.291696,25.230495 11.500037,31.436501 z"
     style="fill:#404040;"/>
  </a>
 </g>
</svg>

<style type='text/css'>
<![CDATA[
[data-mouse-over-selected='false'] { opacity: 0.7; }
[data-mouse-over-selected='true']  { opacity: 1.0; }
]]>
</style>
<script type="application/ecmascript"><![CDATA[
document.addEventListener('DOMContentLoaded', (event) => {
  highlightEdges();
  highlightAdjacentNodes();
});
]]></script>
</svg>
