<?xml version="1.0" encoding="UTF-8" standalone="no"?>
<!DOCTYPE svg PUBLIC "-//W3C//DTD SVG 1.1//EN"
 "http://www.w3.org/Graphics/SVG/1.1/DTD/svg11.dtd">
<!-- Generated by graphviz version 2.43.0 (0)
 -->
<!-- Title: include/Evaluator/evaluate.h Pages: 1 -->
<!--zoomable 731 -->

<svg id="main" version="1.1" xmlns="http://www.w3.org/2000/svg" xmlns:xlink="http://www.w3.org/1999/xlink" xml:space="preserve" onload="init(evt)">
<style type="text/css"><![CDATA[
.node, .edge {opacity: 0.7;}
.node.selected, .edge.selected {opacity: 1;}
.edge:hover path { stroke: red; }
.edge:hover polygon { stroke: red; fill: red; }
]]></style>

<defs>
  <circle id="rim" cx="0" cy="0" r="7"/>
  <circle id="rim2" cx="0" cy="0" r="3.5"/>
  <g id="zoomPlus">
    <use xlink:href="#rim" fill="#404040"><set attributeName="fill" to="#808080" begin="zoomplus.mouseover" end="zoomplus.mouseout"/></use>
    <path d="M-4,0h8M0,-4v8" fill="none" stroke="white" stroke-width="1.5" pointer-events="none"/>
  </g>
  <g id="zoomMin">
    <use xlink:href="#rim" fill="#404040"><set attributeName="fill" to="#808080" begin="zoomminus.mouseover" end="zoomminus.mouseout"/></use>
    <path d="M-4,0h8" fill="none" stroke="white" stroke-width="1.5" pointer-events="none"/>
  </g>
  <g id="arrowUp" transform="translate(30 24)">
    <use xlink:href="#rim"/>
    <path pointer-events="none" fill="none" stroke="white" stroke-width="1.5" d="M0,-3.0v7 M-2.5,-0.5L0,-3.0L2.5,-0.5"/>
  </g>
  <g id="arrowRight" transform="rotate(90) translate(36 -43)">
    <use xlink:href="#rim"/>
    <path pointer-events="none" fill="none" stroke="white" stroke-width="1.5" d="M0,-3.0v7 M-2.5,-0.5L0,-3.0L2.5,-0.5"/>
  </g>
  <g id="arrowDown" transform="rotate(180) translate(-30 -48)">
    <use xlink:href="#rim"/>
    <path pointer-events="none" fill="none" stroke="white" stroke-width="1.5" d="M0,-3.0v7 M-2.5,-0.5L0,-3.0L2.5,-0.5"/>
  </g>
  <g id="arrowLeft" transform="rotate(270) translate(-36 17)">
    <use xlink:href="#rim"/>
    <path pointer-events="none" fill="none" stroke="white" stroke-width="1.5" d="M0,-3.0v7 M-2.5,-0.5L0,-3.0L2.5,-0.5"/>
  </g>
  <g id="resetDef">
    <use xlink:href="#rim2" fill="#404040"><set attributeName="fill" to="#808080" begin="reset.mouseover" end="reset.mouseout"/></use>
  </g>
</defs>
<script type="application/ecmascript">
var viewWidth = 1921;
var viewHeight = 731;
var sectionId = 'dynsection-1';
</script>
<script type="application/ecmascript" xlink:href="svg.min.js"/>
<svg id="graph" class="graph">
<g id="viewport">
<title>include/Evaluator/evaluate.h</title>
<!-- Node1 -->
<g id="Node000001" class="node">
<title>Node1</title>
<g id="a_Node000001"><a xlink:title=" ">
<polygon fill="#999999" stroke="#666666" points="1113,-723 957,-723 957,-704 1113,-704 1113,-723"/>
<text text-anchor="middle" x="1035" y="-711" font-family="Helvetica,sans-Serif" font-size="10.00">include/Evaluator/evaluate.h</text>
</a>
</g>
</g>
<!-- Node2 -->
<g id="Node000002" class="node">
<title>Node2</title>
<g id="a_Node000002"><a xlink:href="transaction_8h_source.html" target="_top" xlink:title=" ">
<polygon fill="white" stroke="#666666" points="1017,-668 907,-668 907,-638 1017,-638 1017,-668"/>
<text text-anchor="start" x="915" y="-656" font-family="Helvetica,sans-Serif" font-size="10.00">include/Transaction</text>
<text text-anchor="middle" x="962" y="-645" font-family="Helvetica,sans-Serif" font-size="10.00">/transaction.h</text>
</a>
</g>
</g>
<!-- Node1&#45;&gt;Node2 -->
<g id="edge1_Node000001_Node000002" class="edge">
<title>Node1&#45;&gt;Node2</title>
<g id="a_edge1_Node000001_Node000002"><a xlink:title=" ">
<path fill="none" stroke="#63b8ff" d="M1016.28,-697.5C1004.99,-688.45 990.7,-677 979.61,-668.11"/>
<polygon fill="#63b8ff" stroke="#63b8ff" points="1014.24,-700.35 1024.23,-703.87 1018.61,-694.88 1014.24,-700.35"/>
</a>
</g>
</g>
<!-- Node30 -->
<g id="Node000030" class="node">
<title>Node30</title>
<g id="a_Node000030"><a xlink:href="evaluate_8cpp.html" target="_top" xlink:title=" ">
<polygon fill="white" stroke="#666666" points="1181,-662.5 1035,-662.5 1035,-643.5 1181,-643.5 1181,-662.5"/>
<text text-anchor="middle" x="1108" y="-650.5" font-family="Helvetica,sans-Serif" font-size="10.00">src/Evaluator/evaluate.cpp</text>
</a>
</g>
</g>
<!-- Node1&#45;&gt;Node30 -->
<g id="edge68_Node000001_Node000030" class="edge">
<title>Node1&#45;&gt;Node30</title>
<g id="a_edge68_Node000001_Node000030"><a xlink:title=" ">
<path fill="none" stroke="#63b8ff" d="M1053.67,-697.54C1067.46,-686.49 1085.74,-671.84 1097.18,-662.67"/>
<polygon fill="#63b8ff" stroke="#63b8ff" points="1051.39,-694.88 1045.77,-703.87 1055.76,-700.35 1051.39,-694.88"/>
</a>
</g>
</g>
<!-- Node3 -->
<g id="Node000003" class="node">
<title>Node3</title>
<g id="a_Node000003"><a xlink:href="channel_8h.html" target="_top" xlink:title=" ">
<polygon fill="white" stroke="#666666" points="948.5,-602 803.5,-602 803.5,-583 948.5,-583 948.5,-602"/>
<text text-anchor="middle" x="876" y="-590" font-family="Helvetica,sans-Serif" font-size="10.00">include/Channel/channel.h</text>
</a>
</g>
</g>
<!-- Node2&#45;&gt;Node3 -->
<g id="edge2_Node000002_Node000003" class="edge">
<title>Node2&#45;&gt;Node3</title>
<g id="a_edge2_Node000002_Node000003"><a xlink:title=" ">
<path fill="none" stroke="#63b8ff" d="M932.69,-632.06C917.68,-621.85 900.18,-609.95 888.63,-602.09"/>
<polygon fill="#63b8ff" stroke="#63b8ff" points="930.94,-635.11 941.18,-637.84 934.88,-629.32 930.94,-635.11"/>
</a>
</g>
</g>
<!-- Node4 -->
<g id="Node000004" class="node">
<title>Node4</title>
<g id="a_Node000004"><a xlink:href="driverModel_8h.html" target="_top" xlink:title=" ">
<polygon fill="white" stroke="#666666" points="675.5,-547 514.5,-547 514.5,-528 675.5,-528 675.5,-547"/>
<text text-anchor="middle" x="595" y="-535" font-family="Helvetica,sans-Serif" font-size="10.00">include/Drivers/driverModel.h</text>
</a>
</g>
</g>
<!-- Node2&#45;&gt;Node4 -->
<g id="edge53_Node000002_Node000004" class="edge">
<title>Node2&#45;&gt;Node4</title>
<g id="a_edge53_Node000002_Node000004"><a xlink:title=" ">
<path fill="none" stroke="#63b8ff" d="M896.54,-647.46C840.1,-641.81 757.33,-629.32 690,-602 655.81,-588.12 621.15,-560.89 604.76,-547.03"/>
<polygon fill="#63b8ff" stroke="#63b8ff" points="896.47,-650.97 906.76,-648.44 897.14,-644 896.47,-650.97"/>
</a>
</g>
</g>
<!-- Node5 -->
<g id="Node000005" class="node">
<title>Node5</title>
<g id="a_Node000005"><a xlink:href="driver_8h.html" target="_top" xlink:title=" ">
<polygon fill="white" stroke="#666666" points="814,-195 684,-195 684,-176 814,-176 814,-195"/>
<text text-anchor="middle" x="749" y="-183" font-family="Helvetica,sans-Serif" font-size="10.00">include/Drivers/driver.h</text>
</a>
</g>
</g>
<!-- Node2&#45;&gt;Node5 -->
<g id="edge52_Node000002_Node000005" class="edge">
<title>Node2&#45;&gt;Node5</title>
<g id="a_edge52_Node000002_Node000005"><a xlink:title=" ">
<path fill="none" stroke="#63b8ff" d="M988.99,-631.57C1028.31,-599.15 1093.87,-533.38 1067,-473 1002.19,-327.38 822.73,-224.65 766.25,-195.17"/>
<polygon fill="#63b8ff" stroke="#63b8ff" points="986.64,-628.97 981.04,-637.97 991.03,-634.42 986.64,-628.97"/>
</a>
</g>
</g>
<!-- Node6 -->
<g id="Node000006" class="node">
<title>Node6</title>
<g id="a_Node000006"><a xlink:href="spreader_8h.html" target="_top" xlink:title=" ">
<polygon fill="white" stroke="#666666" points="1126,-134.5 974,-134.5 974,-115.5 1126,-115.5 1126,-134.5"/>
<text text-anchor="middle" x="1050" y="-122.5" font-family="Helvetica,sans-Serif" font-size="10.00">include/Spreader/spreader.h</text>
</a>
</g>
</g>
<!-- Node2&#45;&gt;Node6 -->
<g id="edge64_Node000002_Node000006" class="edge">
<title>Node2&#45;&gt;Node6</title>
<g id="a_edge64_Node000002_Node000006"><a xlink:title=" ">
<path fill="none" stroke="#63b8ff" d="M1024.51,-635.08C1058.86,-625.03 1097.39,-612.27 1112,-602 1141.39,-581.34 1162,-574.42 1162,-538.5 1162,-538.5 1162,-538.5 1162,-355 1162,-260.29 1083.74,-163.9 1058.05,-134.82"/>
<polygon fill="#63b8ff" stroke="#63b8ff" points="1023.13,-631.84 1014.49,-637.97 1025.07,-638.56 1023.13,-631.84"/>
</a>
</g>
</g>
<!-- Node7 -->
<g id="Node000007" class="node">
<title>Node7</title>
<g id="a_Node000007"><a xlink:href="mlvp_8h.html" target="_top" xlink:title=" ">
<polygon fill="white" stroke="#666666" points="914.5,-74 825.5,-74 825.5,-55 914.5,-55 914.5,-74"/>
<text text-anchor="middle" x="870" y="-62" font-family="Helvetica,sans-Serif" font-size="10.00">include/mlvp.h</text>
</a>
</g>
</g>
<!-- Node2&#45;&gt;Node7 -->
<g id="edge65_Node000002_Node000007" class="edge">
<title>Node2&#45;&gt;Node7</title>
<g id="a_edge65_Node000002_Node000007"><a xlink:title=" ">
<path fill="none" stroke="#63b8ff" d="M896.76,-650.87C729.72,-647.53 289.75,-635.69 148,-602 78.36,-585.45 0,-610.08 0,-538.5 0,-538.5 0,-538.5 0,-421 0,-339.45 38,-323.05 38,-241.5 38,-241.5 38,-241.5 38,-184.5 38,-109.67 116.72,-129.37 189,-110 309.74,-77.65 694.08,-68.4 825.46,-66.14"/>
<polygon fill="#63b8ff" stroke="#63b8ff" points="896.83,-654.37 906.89,-651.07 896.96,-647.38 896.83,-654.37"/>
</a>
</g>
</g>
<!-- Node8 -->
<g id="Node000008" class="node">
<title>Node8</title>
<g id="a_Node000008"><a xlink:href="main_8cpp.html" target="_top" xlink:title=" ">
<polygon fill="white" stroke="#666666" points="1070.5,-19 991.5,-19 991.5,0 1070.5,0 1070.5,-19"/>
<text text-anchor="middle" x="1031" y="-7" font-family="Helvetica,sans-Serif" font-size="10.00">src/main.cpp</text>
</a>
</g>
</g>
<!-- Node2&#45;&gt;Node8 -->
<g id="edge67_Node000002_Node000008" class="edge">
<title>Node2&#45;&gt;Node8</title>
<g id="a_edge67_Node000002_Node000008"><a xlink:title=" ">
<path fill="none" stroke="#63b8ff" d="M1027.32,-637.98C1290.67,-602.46 1362.47,-637.93 1622,-602 1753.13,-583.84 1913,-670.88 1913,-538.5 1913,-538.5 1913,-538.5 1913,-124 1913,-37.83 1242.23,-15.64 1070.61,-11.37"/>
<polygon fill="#63b8ff" stroke="#63b8ff" points="1026.49,-634.56 1017.06,-639.39 1027.44,-641.5 1026.49,-634.56"/>
</a>
</g>
</g>
<!-- Node11 -->
<g id="Node000011" class="node">
<title>Node11</title>
<g id="a_Node000011"><a xlink:href="dutDriver_8h.html" target="_top" xlink:title=" ">
<polygon fill="white" stroke="#666666" points="597.5,-305 450.5,-305 450.5,-286 597.5,-286 597.5,-305"/>
<text text-anchor="middle" x="524" y="-293" font-family="Helvetica,sans-Serif" font-size="10.00">include/Drivers/dutDriver.h</text>
</a>
</g>
</g>
<!-- Node2&#45;&gt;Node11 -->
<g id="edge54_Node000002_Node000011" class="edge">
<title>Node2&#45;&gt;Node11</title>
<g id="a_edge54_Node000002_Node000011"><a xlink:title=" ">
<path fill="none" stroke="#63b8ff" d="M896.77,-645.37C752.45,-629.15 413.84,-582.07 351,-492 314.62,-439.86 250.62,-506.55 434,-341 452.5,-324.3 478.42,-312.37 497.69,-305.09"/>
<polygon fill="#63b8ff" stroke="#63b8ff" points="896.5,-648.86 906.82,-646.48 897.27,-641.9 896.5,-648.86"/>
</a>
</g>
</g>
<!-- Node12 -->
<g id="Node000012" class="node">
<title>Node12</title>
<g id="a_Node000012"><a xlink:href="refDriver_8h.html" target="_top" xlink:title=" ">
<polygon fill="white" stroke="#666666" points="434.5,-250 289.5,-250 289.5,-231 434.5,-231 434.5,-250"/>
<text text-anchor="middle" x="362" y="-238" font-family="Helvetica,sans-Serif" font-size="10.00">include/Drivers/refDriver.h</text>
</a>
</g>
</g>
<!-- Node2&#45;&gt;Node12 -->
<g id="edge55_Node000002_Node000012" class="edge">
<title>Node2&#45;&gt;Node12</title>
<g id="a_edge55_Node000002_Node000012"><a xlink:title=" ">
<path fill="none" stroke="#63b8ff" d="M896.91,-650.5C692.36,-644.93 76,-621.28 76,-538.5 76,-538.5 76,-538.5 76,-355 76,-309.05 112.04,-306.82 153,-286 195.33,-264.49 247.58,-253.36 289.25,-247.61"/>
<polygon fill="#63b8ff" stroke="#63b8ff" points="896.82,-654 906.91,-650.77 897.01,-647 896.82,-654"/>
</a>
</g>
</g>
<!-- Node16 -->
<g id="Node000016" class="node">
<title>Node16</title>
<g id="a_Node000016"><a xlink:href="transDriverModel_8h.html" target="_top" xlink:title=" ">
<polygon fill="white" stroke="#666666" points="328,-371 180,-371 180,-341 328,-341 328,-371"/>
<text text-anchor="start" x="188" y="-359" font-family="Helvetica,sans-Serif" font-size="10.00">include/Drivers/transDriver</text>
<text text-anchor="middle" x="254" y="-348" font-family="Helvetica,sans-Serif" font-size="10.00">Model.h</text>
</a>
</g>
</g>
<!-- Node2&#45;&gt;Node16 -->
<g id="edge56_Node000002_Node000016" class="edge">
<title>Node2&#45;&gt;Node16</title>
<g id="a_edge56_Node000002_Node000016"><a xlink:title=" ">
<path fill="none" stroke="#63b8ff" d="M896.55,-651.12C735.39,-648.39 328.92,-638 280,-602 255.57,-584.02 255,-568.83 255,-538.5 255,-538.5 255,-538.5 255,-481.5 255,-441.51 254.48,-394.3 254.19,-371.19"/>
<polygon fill="#63b8ff" stroke="#63b8ff" points="896.75,-654.62 906.8,-651.29 896.86,-647.62 896.75,-654.62"/>
</a>
</g>
</g>
<!-- Node19 -->
<g id="Node000019" class="node">
<title>Node19</title>
<g id="a_Node000019"><a xlink:href="ref_8h.html" target="_top" xlink:title=" ">
<polygon fill="white" stroke="#666666" points="1057.5,-492 938.5,-492 938.5,-473 1057.5,-473 1057.5,-492"/>
<text text-anchor="middle" x="998" y="-480" font-family="Helvetica,sans-Serif" font-size="10.00">include/RefPack/ref.h</text>
</a>
</g>
</g>
<!-- Node2&#45;&gt;Node19 -->
<g id="edge57_Node000002_Node000019" class="edge">
<title>Node2&#45;&gt;Node19</title>
<g id="a_edge57_Node000002_Node000019"><a xlink:title=" ">
<path fill="none" stroke="#63b8ff" d="M974.21,-628.93C984.46,-608.16 998.33,-576.46 1004,-547 1007.73,-527.64 1003.37,-504.51 1000.37,-492.2"/>
<polygon fill="#63b8ff" stroke="#63b8ff" points="971.05,-627.42 969.65,-637.92 977.29,-630.58 971.05,-627.42"/>
</a>
</g>
</g>
<!-- Node20 -->
<g id="Node000020" class="node">
<title>Node20</title>
<g id="a_Node000020"><a xlink:href="simulator_8h.html" target="_top" xlink:title=" ">
<polygon fill="white" stroke="#666666" points="844,-492 684,-492 684,-473 844,-473 844,-492"/>
<text text-anchor="middle" x="764" y="-480" font-family="Helvetica,sans-Serif" font-size="10.00">include/Simulator/simulator.h</text>
</a>
</g>
</g>
<!-- Node2&#45;&gt;Node20 -->
<g id="edge63_Node000002_Node000020" class="edge">
<title>Node2&#45;&gt;Node20</title>
<g id="a_edge63_Node000002_Node000020"><a xlink:title=" ">
<path fill="none" stroke="#63b8ff" d="M896.82,-643C863.68,-635.97 824.15,-623.6 794,-602 769.64,-584.55 764.1,-575.55 755,-547 748.98,-528.12 755.69,-504.79 760.33,-492.33"/>
<polygon fill="#63b8ff" stroke="#63b8ff" points="896.39,-646.48 906.88,-645.01 897.76,-639.62 896.39,-646.48"/>
</a>
</g>
</g>
<!-- Node24 -->
<g id="Node000024" class="node">
<title>Node24</title>
<g id="a_Node000024"><a xlink:href="database_8h.html" target="_top" xlink:title=" ">
<polygon fill="white" stroke="#666666" points="1465,-195 1307,-195 1307,-176 1465,-176 1465,-195"/>
<text text-anchor="middle" x="1386" y="-183" font-family="Helvetica,sans-Serif" font-size="10.00">include/Database/database.h</text>
</a>
</g>
</g>
<!-- Node2&#45;&gt;Node24 -->
<g id="edge45_Node000002_Node000024" class="edge">
<title>Node2&#45;&gt;Node24</title>
<g id="a_edge45_Node000002_Node000024"><a xlink:title=" ">
<path fill="none" stroke="#63b8ff" d="M1026.8,-637.78C1084.53,-624.96 1161.99,-607.33 1176,-602 1231.3,-580.97 1293,-597.66 1293,-538.5 1293,-538.5 1293,-538.5 1293,-294.5 1293,-247.73 1343.69,-211.15 1370.22,-195.21"/>
<polygon fill="#63b8ff" stroke="#63b8ff" points="1026.01,-634.37 1017,-639.95 1027.52,-641.2 1026.01,-634.37"/>
</a>
</g>
</g>
<!-- Node28 -->
<g id="Node000028" class="node">
<title>Node28</title>
<g id="a_Node000028"><a xlink:href="transaction_8cpp.html" target="_top" xlink:title=" ">
<polygon fill="white" stroke="#666666" points="1885.5,-134.5 1718.5,-134.5 1718.5,-115.5 1885.5,-115.5 1885.5,-134.5"/>
<text text-anchor="middle" x="1802" y="-122.5" font-family="Helvetica,sans-Serif" font-size="10.00">src/Transaction/transaction.cpp</text>
</a>
</g>
</g>
<!-- Node2&#45;&gt;Node28 -->
<g id="edge66_Node000002_Node000028" class="edge">
<title>Node2&#45;&gt;Node28</title>
<g id="a_edge66_Node000002_Node000028"><a xlink:title=" ">
<path fill="none" stroke="#63b8ff" d="M1027,-638.08C1183.88,-614.75 1647,-675.26 1647,-538.5 1647,-538.5 1647,-538.5 1647,-239.5 1647,-179.97 1722.36,-148.27 1767.98,-134.54"/>
<polygon fill="#63b8ff" stroke="#63b8ff" points="1026.4,-634.63 1017.12,-639.74 1027.56,-641.53 1026.4,-634.63"/>
</a>
</g>
</g>
<!-- Node29 -->
<g id="Node000029" class="node">
<title>Node29</title>
<g id="a_Node000029"><a xlink:href="reporter_8h.html" target="_top" xlink:title=" ">
<polygon fill="white" stroke="#666666" points="1261.5,-195 1114.5,-195 1114.5,-176 1261.5,-176 1261.5,-195"/>
<text text-anchor="middle" x="1188" y="-183" font-family="Helvetica,sans-Serif" font-size="10.00">include/Reporter/reporter.h</text>
</a>
</g>
</g>
<!-- Node2&#45;&gt;Node29 -->
<g id="edge58_Node000002_Node000029" class="edge">
<title>Node2&#45;&gt;Node29</title>
<g id="a_edge58_Node000002_Node000029"><a xlink:title=" ">
<path fill="none" stroke="#63b8ff" d="M1026.8,-634.63C1071.9,-618.17 1124,-588.35 1124,-538.5 1124,-538.5 1124,-538.5 1124,-294.5 1124,-252.44 1160.38,-212.41 1178.28,-195.26"/>
<polygon fill="#63b8ff" stroke="#63b8ff" points="1025.59,-631.35 1017.3,-637.95 1027.89,-637.96 1025.59,-631.35"/>
</a>
</g>
</g>
<!-- Node3&#45;&gt;Node4 -->
<g id="edge3_Node000003_Node000004" class="edge">
<title>Node3&#45;&gt;Node4</title>
<g id="a_edge3_Node000003_Node000004"><a xlink:title=" ">
<path fill="none" stroke="#63b8ff" d="M821,-581.13C768.32,-571.19 689.76,-556.37 640.5,-547.08"/>
<polygon fill="#63b8ff" stroke="#63b8ff" points="820.38,-584.57 830.85,-582.98 821.67,-577.69 820.38,-584.57"/>
</a>
</g>
</g>
<!-- Node3&#45;&gt;Node7 -->
<g id="edge43_Node000003_Node000007" class="edge">
<title>Node3&#45;&gt;Node7</title>
<g id="a_edge43_Node000003_Node000007"><a xlink:title=" ">
<path fill="none" stroke="#63b8ff" d="M914.65,-578.77C929.35,-571.83 944.58,-561.59 953,-547 957.22,-539.69 955.37,-536.11 953,-528 947.68,-509.78 936.58,-509.81 930,-492 871.01,-332.45 869.48,-119.65 869.87,-74.25"/>
<polygon fill="#63b8ff" stroke="#63b8ff" points="912.93,-575.7 905.14,-582.87 915.71,-582.13 912.93,-575.7"/>
</a>
</g>
</g>
<!-- Node3&#45;&gt;Node11 -->
<g id="edge40_Node000003_Node000011" class="edge">
<title>Node3&#45;&gt;Node11</title>
<g id="a_edge40_Node000003_Node000011"><a xlink:title=" ">
<path fill="none" stroke="#63b8ff" d="M837.35,-578.77C822.65,-571.83 807.42,-561.59 799,-547 794.78,-539.69 795.02,-535.45 799,-528 812.61,-502.57 839.39,-517.43 853,-492 870.83,-458.69 875.05,-437.67 853,-407 795.05,-326.4 675.43,-303.78 597.51,-297.89"/>
<polygon fill="#63b8ff" stroke="#63b8ff" points="836.29,-582.13 846.86,-582.87 839.07,-575.7 836.29,-582.13"/>
</a>
</g>
</g>
<!-- Node3&#45;&gt;Node19 -->
<g id="edge41_Node000003_Node000019" class="edge">
<title>Node3&#45;&gt;Node19</title>
<g id="a_edge41_Node000003_Node000019"><a xlink:title=" ">
<path fill="none" stroke="#63b8ff" d="M933.92,-579.92C953.1,-573.31 972.87,-563.02 986,-547 998.94,-531.21 999.55,-505.77 998.82,-492.39"/>
<polygon fill="#63b8ff" stroke="#63b8ff" points="932.76,-576.61 924.28,-582.96 934.87,-583.29 932.76,-576.61"/>
</a>
</g>
</g>
<!-- Node3&#45;&gt;Node20 -->
<g id="edge42_Node000003_Node000020" class="edge">
<title>Node3&#45;&gt;Node20</title>
<g id="a_edge42_Node000003_Node000020"><a xlink:title=" ">
<path fill="none" stroke="#63b8ff" d="M813.46,-579.87C795.21,-573.31 777.19,-563.04 766,-547 754.52,-530.53 758.35,-505.39 761.53,-492.22"/>
<polygon fill="#63b8ff" stroke="#63b8ff" points="812.39,-583.21 822.98,-582.98 814.56,-576.55 812.39,-583.21"/>
</a>
</g>
</g>
<!-- Node23 -->
<g id="Node000023" class="node">
<title>Node23</title>
<g id="a_Node000023"><a xlink:href="channel_8cpp.html" target="_top" xlink:title=" ">
<polygon fill="white" stroke="#666666" points="943.5,-547 808.5,-547 808.5,-528 943.5,-528 943.5,-547"/>
<text text-anchor="middle" x="876" y="-535" font-family="Helvetica,sans-Serif" font-size="10.00">src/Channel/channel.cpp</text>
</a>
</g>
</g>
<!-- Node3&#45;&gt;Node23 -->
<g id="edge44_Node000003_Node000023" class="edge">
<title>Node3&#45;&gt;Node23</title>
<g id="a_edge44_Node000003_Node000023"><a xlink:title=" ">
<path fill="none" stroke="#63b8ff" d="M876,-572.66C876,-563.93 876,-553.99 876,-547.09"/>
<polygon fill="#63b8ff" stroke="#63b8ff" points="872.5,-572.75 876,-582.75 879.5,-572.75 872.5,-572.75"/>
</a>
</g>
</g>
<!-- Node4&#45;&gt;Node5 -->
<g id="edge4_Node000004_Node000005" class="edge">
<title>Node4&#45;&gt;Node5</title>
<g id="a_edge4_Node000004_Node000005"><a xlink:title=" ">
<path fill="none" stroke="#63b8ff" d="M599.57,-517.64C606.88,-490.63 623.38,-440.5 652,-407 671.22,-384.5 691.07,-395.27 708,-371 748.17,-313.41 749.83,-223.18 749.3,-195.12"/>
<polygon fill="#63b8ff" stroke="#63b8ff" points="596.09,-517.13 596.99,-527.69 602.87,-518.87 596.09,-517.13"/>
</a>
</g>
</g>
<!-- Node4&#45;&gt;Node7 -->
<g id="edge38_Node000004_Node000007" class="edge">
<title>Node4&#45;&gt;Node7</title>
<g id="a_edge38_Node000004_Node000007"><a xlink:title=" ">
<path fill="none" stroke="#63b8ff" d="M606.83,-519.54C612.61,-511.24 619.67,-501.1 626,-492 652.25,-454.24 653.43,-440.44 685,-407 702.82,-388.12 714.39,-390.95 731,-371 787.47,-303.16 787.42,-275.78 823,-195 842.57,-150.57 860.66,-95.17 867.31,-74.14"/>
<polygon fill="#63b8ff" stroke="#63b8ff" points="603.79,-517.77 600.95,-527.97 609.54,-521.77 603.79,-517.77"/>
</a>
</g>
</g>
<!-- Node4&#45;&gt;Node11 -->
<g id="edge11_Node000004_Node000011" class="edge">
<title>Node4&#45;&gt;Node11</title>
<g id="a_edge11_Node000004_Node000011"><a xlink:title=" ">
<path fill="none" stroke="#63b8ff" d="M578.62,-520.77C563.97,-507.18 541.54,-487.48 520,-473 491.29,-453.71 468.93,-466.58 451,-437 428.88,-400.51 430.11,-378.2 451,-341 460.88,-323.4 480.87,-311.94 497.43,-305.06"/>
<polygon fill="#63b8ff" stroke="#63b8ff" points="576.6,-523.68 586.28,-527.99 581.4,-518.59 576.6,-523.68"/>
</a>
</g>
</g>
<!-- Node4&#45;&gt;Node12 -->
<g id="edge19_Node000004_Node000012" class="edge">
<title>Node4&#45;&gt;Node12</title>
<g id="a_edge19_Node000004_Node000012"><a xlink:title=" ">
<path fill="none" stroke="#63b8ff" d="M503.94,-531.54C374.28,-521.94 152,-494.99 152,-423 152,-423 152,-423 152,-355 152,-323.31 147.28,-308.1 170,-286 187.41,-269.06 244.58,-257.22 292.05,-250.04"/>
<polygon fill="#63b8ff" stroke="#63b8ff" points="504.04,-535.05 514.26,-532.28 504.54,-528.07 504.04,-535.05"/>
</a>
</g>
</g>
<!-- Node15 -->
<g id="Node000015" class="node">
<title>Node15</title>
<g id="a_Node000015"><a xlink:href="simulatorDriver_8h.html" target="_top" xlink:title=" ">
<polygon fill="white" stroke="#666666" points="600,-437 460,-437 460,-407 600,-407 600,-437"/>
<text text-anchor="start" x="468" y="-425" font-family="Helvetica,sans-Serif" font-size="10.00">include/Drivers/simulator</text>
<text text-anchor="middle" x="530" y="-414" font-family="Helvetica,sans-Serif" font-size="10.00">Driver.h</text>
</a>
</g>
</g>
<!-- Node4&#45;&gt;Node15 -->
<g id="edge20_Node000004_Node000015" class="edge">
<title>Node4&#45;&gt;Node15</title>
<g id="a_edge20_Node000004_Node000015"><a xlink:title=" ">
<path fill="none" stroke="#63b8ff" d="M585.08,-519.18C572.22,-496.73 550.03,-457.98 538.12,-437.18"/>
<polygon fill="#63b8ff" stroke="#63b8ff" points="582.11,-521.03 590.11,-527.97 588.18,-517.55 582.11,-521.03"/>
</a>
</g>
</g>
<!-- Node4&#45;&gt;Node16 -->
<g id="edge32_Node000004_Node000016" class="edge">
<title>Node4&#45;&gt;Node16</title>
<g id="a_edge32_Node000004_Node000016"><a xlink:title=" ">
<path fill="none" stroke="#63b8ff" d="M504.19,-527.09C445.78,-519.7 376.24,-507.97 351,-492 303.44,-461.91 272.05,-399.33 259.8,-371.22"/>
<polygon fill="#63b8ff" stroke="#63b8ff" points="503.85,-530.58 514.2,-528.33 504.71,-523.63 503.85,-530.58"/>
</a>
</g>
</g>
<!-- Node4&#45;&gt;Node19 -->
<g id="edge33_Node000004_Node000019" class="edge">
<title>Node4&#45;&gt;Node19</title>
<g id="a_edge33_Node000004_Node000019"><a xlink:title=" ">
<path fill="none" stroke="#63b8ff" d="M669.93,-526.65C747.45,-516.45 866.98,-500.73 938.34,-491.35"/>
<polygon fill="#63b8ff" stroke="#63b8ff" points="669.21,-523.21 659.75,-527.98 670.12,-530.15 669.21,-523.21"/>
</a>
</g>
</g>
<!-- Node4&#45;&gt;Node20 -->
<g id="edge35_Node000004_Node000020" class="edge">
<title>Node4&#45;&gt;Node20</title>
<g id="a_edge35_Node000004_Node000020"><a xlink:title=" ">
<path fill="none" stroke="#63b8ff" d="M631.9,-524.93C663.47,-515.03 708.18,-501.01 736.63,-492.08"/>
<polygon fill="#63b8ff" stroke="#63b8ff" points="630.65,-521.65 622.15,-527.98 632.74,-528.33 630.65,-521.65"/>
</a>
</g>
</g>
<!-- Node22 -->
<g id="Node000022" class="node">
<title>Node22</title>
<g id="a_Node000022"><a xlink:href="driverModel_8cpp.html" target="_top" xlink:title=" ">
<polygon fill="white" stroke="#666666" points="511.5,-492 360.5,-492 360.5,-473 511.5,-473 511.5,-492"/>
<text text-anchor="middle" x="436" y="-480" font-family="Helvetica,sans-Serif" font-size="10.00">src/Drivers/driverModel.cpp</text>
</a>
</g>
</g>
<!-- Node4&#45;&gt;Node22 -->
<g id="edge39_Node000004_Node000022" class="edge">
<title>Node4&#45;&gt;Node22</title>
<g id="a_edge39_Node000004_Node000022"><a xlink:title=" ">
<path fill="none" stroke="#63b8ff" d="M559.9,-524.8C530.22,-514.91 488.4,-500.97 461.75,-492.08"/>
<polygon fill="#63b8ff" stroke="#63b8ff" points="558.86,-528.14 569.45,-527.98 561.07,-521.5 558.86,-528.14"/>
</a>
</g>
</g>
<!-- Node5&#45;&gt;Node6 -->
<g id="edge5_Node000005_Node000006" class="edge">
<title>Node5&#45;&gt;Node6</title>
<g id="a_edge5_Node000005_Node000006"><a xlink:title=" ">
<path fill="none" stroke="#63b8ff" d="M802.86,-174.03C860.94,-162.74 952.32,-144.98 1006.18,-134.52"/>
<polygon fill="#63b8ff" stroke="#63b8ff" points="801.92,-170.65 792.77,-175.99 803.25,-177.52 801.92,-170.65"/>
</a>
</g>
</g>
<!-- Node5&#45;&gt;Node7 -->
<g id="edge9_Node000005_Node000007" class="edge">
<title>Node5&#45;&gt;Node7</title>
<g id="a_edge9_Node000005_Node000007"><a xlink:title=" ">
<path fill="none" stroke="#63b8ff" d="M772.6,-170.6C785.29,-162.52 800.8,-151.66 813,-140 834.9,-119.07 855.07,-89.23 864.46,-74.47"/>
<polygon fill="#63b8ff" stroke="#63b8ff" points="770.6,-167.71 763.94,-175.95 774.29,-173.67 770.6,-167.71"/>
</a>
</g>
</g>
<!-- Node10 -->
<g id="Node000010" class="node">
<title>Node10</title>
<g id="a_Node000010"><a xlink:href="driver_8cpp.html" target="_top" xlink:title=" ">
<polygon fill="white" stroke="#666666" points="804,-134.5 684,-134.5 684,-115.5 804,-115.5 804,-134.5"/>
<text text-anchor="middle" x="744" y="-122.5" font-family="Helvetica,sans-Serif" font-size="10.00">src/Drivers/driver.cpp</text>
</a>
</g>
</g>
<!-- Node5&#45;&gt;Node10 -->
<g id="edge10_Node000005_Node000010" class="edge">
<title>Node5&#45;&gt;Node10</title>
<g id="a_edge10_Node000005_Node000010"><a xlink:title=" ">
<path fill="none" stroke="#63b8ff" d="M747.39,-165.66C746.5,-155.24 745.44,-142.8 744.74,-134.67"/>
<polygon fill="#63b8ff" stroke="#63b8ff" points="743.92,-166.2 748.26,-175.87 750.9,-165.61 743.92,-166.2"/>
</a>
</g>
</g>
<!-- Node6&#45;&gt;Node7 -->
<g id="edge6_Node000006_Node000007" class="edge">
<title>Node6&#45;&gt;Node7</title>
<g id="a_edge6_Node000006_Node000007"><a xlink:title=" ">
<path fill="none" stroke="#63b8ff" d="M1014.05,-112.32C979.24,-101 927.28,-84.12 896.21,-74.02"/>
<polygon fill="#63b8ff" stroke="#63b8ff" points="1013.23,-115.73 1023.83,-115.49 1015.4,-109.07 1013.23,-115.73"/>
</a>
</g>
</g>
<!-- Node9 -->
<g id="Node000009" class="node">
<title>Node9</title>
<g id="a_Node000009"><a xlink:href="spreader_8cpp.html" target="_top" xlink:title=" ">
<polygon fill="white" stroke="#666666" points="1121.5,-74 978.5,-74 978.5,-55 1121.5,-55 1121.5,-74"/>
<text text-anchor="middle" x="1050" y="-62" font-family="Helvetica,sans-Serif" font-size="10.00">src/Spreader/spreader.cpp</text>
</a>
</g>
</g>
<!-- Node6&#45;&gt;Node9 -->
<g id="edge8_Node000006_Node000009" class="edge">
<title>Node6&#45;&gt;Node9</title>
<g id="a_edge8_Node000006_Node000009"><a xlink:title=" ">
<path fill="none" stroke="#63b8ff" d="M1050,-105.16C1050,-94.74 1050,-82.3 1050,-74.17"/>
<polygon fill="#63b8ff" stroke="#63b8ff" points="1046.5,-105.37 1050,-115.37 1053.5,-105.37 1046.5,-105.37"/>
</a>
</g>
</g>
<!-- Node7&#45;&gt;Node8 -->
<g id="edge7_Node000007_Node000008" class="edge">
<title>Node7&#45;&gt;Node8</title>
<g id="a_edge7_Node000007_Node000008"><a xlink:title=" ">
<path fill="none" stroke="#63b8ff" d="M905.55,-51.8C935.59,-41.91 977.94,-27.97 1004.93,-19.08"/>
<polygon fill="#63b8ff" stroke="#63b8ff" points="904.27,-48.53 895.87,-54.98 906.46,-55.18 904.27,-48.53"/>
</a>
</g>
</g>
<!-- Node11&#45;&gt;Node5 -->
<g id="edge12_Node000011_Node000005" class="edge">
<title>Node11&#45;&gt;Node5</title>
<g id="a_edge12_Node000011_Node000005"><a xlink:title=" ">
<path fill="none" stroke="#63b8ff" d="M556.04,-282.33C577.74,-273.84 606.91,-261.94 632,-250 669.77,-232.03 712.62,-207.73 734.48,-195.03"/>
<polygon fill="#63b8ff" stroke="#63b8ff" points="554.7,-279.1 546.64,-285.98 557.23,-285.63 554.7,-279.1"/>
</a>
</g>
</g>
<!-- Node11&#45;&gt;Node7 -->
<g id="edge17_Node000011_Node000007" class="edge">
<title>Node11&#45;&gt;Node7</title>
<g id="a_edge17_Node000011_Node000007"><a xlink:title=" ">
<path fill="none" stroke="#63b8ff" d="M556.05,-281.63C570.68,-274.32 587.12,-263.82 598,-250 638.35,-198.75 593.38,-153.47 642,-110 668.53,-86.28 766.86,-74.11 825.37,-68.85"/>
<polygon fill="#63b8ff" stroke="#63b8ff" points="554.34,-278.57 546.77,-285.99 557.31,-284.91 554.34,-278.57"/>
</a>
</g>
</g>
<!-- Node11&#45;&gt;Node12 -->
<g id="edge13_Node000011_Node000012" class="edge">
<title>Node11&#45;&gt;Node12</title>
<g id="a_edge13_Node000011_Node000012"><a xlink:title=" ">
<path fill="none" stroke="#63b8ff" d="M488.23,-282.8C458,-272.91 415.39,-258.97 388.23,-250.08"/>
<polygon fill="#63b8ff" stroke="#63b8ff" points="487.38,-286.2 497.97,-285.98 489.56,-279.55 487.38,-286.2"/>
</a>
</g>
</g>
<!-- Node14 -->
<g id="Node000014" class="node">
<title>Node14</title>
<g id="a_Node000014"><a xlink:href="dutDriver_8cpp.html" target="_top" xlink:title=" ">
<polygon fill="white" stroke="#666666" points="589.5,-250 452.5,-250 452.5,-231 589.5,-231 589.5,-250"/>
<text text-anchor="middle" x="521" y="-238" font-family="Helvetica,sans-Serif" font-size="10.00">src/Drivers/dutDriver.cpp</text>
</a>
</g>
</g>
<!-- Node11&#45;&gt;Node14 -->
<g id="edge18_Node000011_Node000014" class="edge">
<title>Node11&#45;&gt;Node14</title>
<g id="a_edge18_Node000011_Node000014"><a xlink:title=" ">
<path fill="none" stroke="#63b8ff" d="M522.93,-275.66C522.44,-266.93 521.88,-256.99 521.49,-250.09"/>
<polygon fill="#63b8ff" stroke="#63b8ff" points="519.44,-275.96 523.5,-285.75 526.43,-275.57 519.44,-275.96"/>
</a>
</g>
</g>
<!-- Node12&#45;&gt;Node5 -->
<g id="edge14_Node000012_Node000005" class="edge">
<title>Node12&#45;&gt;Node5</title>
<g id="a_edge14_Node000012_Node000005"><a xlink:title=" ">
<path fill="none" stroke="#63b8ff" d="M434.17,-229.62C506.82,-219.67 617.72,-204.48 686.66,-195.04"/>
<polygon fill="#63b8ff" stroke="#63b8ff" points="433.61,-226.16 424.18,-230.98 434.56,-233.1 433.61,-226.16"/>
</a>
</g>
</g>
<!-- Node12&#45;&gt;Node7 -->
<g id="edge15_Node000012_Node000007" class="edge">
<title>Node12&#45;&gt;Node7</title>
<g id="a_edge15_Node000012_Node000007"><a xlink:title=" ">
<path fill="none" stroke="#63b8ff" d="M385.16,-225.85C436.5,-195.8 558.89,-125.38 604,-110 679.12,-84.39 771.38,-73.19 825.14,-68.54"/>
<polygon fill="#63b8ff" stroke="#63b8ff" points="383.29,-222.89 376.44,-230.97 386.83,-228.93 383.29,-222.89"/>
</a>
</g>
</g>
<!-- Node13 -->
<g id="Node000013" class="node">
<title>Node13</title>
<g id="a_Node000013"><a xlink:href="refDriver_8cpp.html" target="_top" xlink:title=" ">
<polygon fill="white" stroke="#666666" points="429.5,-195 294.5,-195 294.5,-176 429.5,-176 429.5,-195"/>
<text text-anchor="middle" x="362" y="-183" font-family="Helvetica,sans-Serif" font-size="10.00">src/Drivers/refDriver.cpp</text>
</a>
</g>
</g>
<!-- Node12&#45;&gt;Node13 -->
<g id="edge16_Node000012_Node000013" class="edge">
<title>Node12&#45;&gt;Node13</title>
<g id="a_edge16_Node000012_Node000013"><a xlink:title=" ">
<path fill="none" stroke="#63b8ff" d="M362,-220.66C362,-211.93 362,-201.99 362,-195.09"/>
<polygon fill="#63b8ff" stroke="#63b8ff" points="358.5,-220.75 362,-230.75 365.5,-220.75 358.5,-220.75"/>
</a>
</g>
</g>
<!-- Node15&#45;&gt;Node6 -->
<g id="edge28_Node000015_Node000006" class="edge">
<title>Node15&#45;&gt;Node6</title>
<g id="a_edge28_Node000015_Node000006"><a xlink:title=" ">
<path fill="none" stroke="#63b8ff" d="M610.11,-404.8C641.52,-396.84 677.32,-385.73 708,-371 853.5,-301.12 1002.66,-169.3 1040.73,-134.57"/>
<polygon fill="#63b8ff" stroke="#63b8ff" points="608.94,-401.48 600.07,-407.27 610.62,-408.27 608.94,-401.48"/>
</a>
</g>
</g>
<!-- Node15&#45;&gt;Node7 -->
<g id="edge29_Node000015_Node000007" class="edge">
<title>Node15&#45;&gt;Node7</title>
<g id="a_edge29_Node000015_Node000007"><a xlink:title=" ">
<path fill="none" stroke="#63b8ff" d="M609.82,-403.74C626.88,-396.39 643.04,-385.91 654,-371 722.93,-277.23 598.85,-198 675,-110 694.31,-87.68 773.97,-75.38 825.31,-69.64"/>
<polygon fill="#63b8ff" stroke="#63b8ff" points="608.29,-400.58 600.27,-407.51 610.86,-407.09 608.29,-400.58"/>
</a>
</g>
</g>
<!-- Node15&#45;&gt;Node8 -->
<g id="edge31_Node000015_Node000008" class="edge">
<title>Node15&#45;&gt;Node8</title>
<g id="a_edge31_Node000015_Node000008"><a xlink:title=" ">
<path fill="none" stroke="#63b8ff" d="M449.5,-421.28C374.68,-418.91 261.49,-408.54 171,-371 82.94,-334.47 0,-336.83 0,-241.5 0,-241.5 0,-241.5 0,-124 0,-22.37 801.74,-11.72 991.22,-10.62"/>
<polygon fill="#63b8ff" stroke="#63b8ff" points="449.71,-424.79 459.8,-421.56 449.9,-417.79 449.71,-424.79"/>
</a>
</g>
</g>
<!-- Node15&#45;&gt;Node11 -->
<g id="edge21_Node000015_Node000011" class="edge">
<title>Node15&#45;&gt;Node11</title>
<g id="a_edge21_Node000015_Node000011"><a xlink:title=" ">
<path fill="none" stroke="#63b8ff" d="M598.59,-402.76C613.75,-395.41 627.97,-385.18 637,-371 644.16,-359.75 644.5,-352.02 637,-341 624.18,-322.18 602.07,-311.32 580.78,-305.05"/>
<polygon fill="#63b8ff" stroke="#63b8ff" points="596.8,-399.72 589.07,-406.97 599.63,-406.13 596.8,-399.72"/>
</a>
</g>
</g>
<!-- Node15&#45;&gt;Node12 -->
<g id="edge22_Node000015_Node000012" class="edge">
<title>Node15&#45;&gt;Node12</title>
<g id="a_edge22_Node000015_Node000012"><a xlink:title=" ">
<path fill="none" stroke="#63b8ff" d="M492.78,-401.67C478.77,-393.36 463.28,-382.82 451,-371 410.71,-332.21 377.88,-272.5 366.39,-250.25"/>
<polygon fill="#63b8ff" stroke="#63b8ff" points="491.31,-404.86 501.72,-406.81 494.8,-398.79 491.31,-404.86"/>
</a>
</g>
</g>
<!-- Node15&#45;&gt;Node16 -->
<g id="edge23_Node000015_Node000016" class="edge">
<title>Node15&#45;&gt;Node16</title>
<g id="a_edge23_Node000015_Node000016"><a xlink:title=" ">
<path fill="none" stroke="#63b8ff" d="M459.48,-404.65C414.64,-394.25 357.18,-380.93 314.43,-371.01"/>
<polygon fill="#63b8ff" stroke="#63b8ff" points="458.9,-408.11 469.43,-406.95 460.48,-401.29 458.9,-408.11"/>
</a>
</g>
</g>
<!-- Node18 -->
<g id="Node000018" class="node">
<title>Node18</title>
<g id="a_Node000018"><a xlink:href="simulatorDriver_8cpp.html" target="_top" xlink:title=" ">
<polygon fill="white" stroke="#666666" points="628,-365.5 460,-365.5 460,-346.5 628,-346.5 628,-365.5"/>
<text text-anchor="middle" x="544" y="-353.5" font-family="Helvetica,sans-Serif" font-size="10.00">src/Drivers/simulatorDriver.cpp</text>
</a>
</g>
</g>
<!-- Node15&#45;&gt;Node18 -->
<g id="edge30_Node000015_Node000018" class="edge">
<title>Node15&#45;&gt;Node18</title>
<g id="a_edge30_Node000015_Node000018"><a xlink:title=" ">
<path fill="none" stroke="#63b8ff" d="M535.26,-396.94C537.64,-386.06 540.31,-373.86 542.07,-365.84"/>
<polygon fill="#63b8ff" stroke="#63b8ff" points="531.82,-396.28 533.11,-406.8 538.66,-397.78 531.82,-396.28"/>
</a>
</g>
</g>
<!-- Node16&#45;&gt;Node7 -->
<g id="edge26_Node000016_Node000007" class="edge">
<title>Node16&#45;&gt;Node7</title>
<g id="a_edge26_Node000016_Node000007"><a xlink:title=" ">
<path fill="none" stroke="#63b8ff" d="M202.22,-337.03C162.35,-319.52 114,-288.57 114,-241.5 114,-241.5 114,-241.5 114,-184.5 114,-112.05 662.85,-76.67 825.25,-67.79"/>
<polygon fill="#63b8ff" stroke="#63b8ff" points="201.04,-340.33 211.62,-340.99 203.76,-333.88 201.04,-340.33"/>
</a>
</g>
</g>
<!-- Node16&#45;&gt;Node11 -->
<g id="edge24_Node000016_Node000011" class="edge">
<title>Node16&#45;&gt;Node11</title>
<g id="a_edge24_Node000016_Node000011"><a xlink:title=" ">
<path fill="none" stroke="#63b8ff" d="M328.57,-338.84C379.04,-327.91 443.72,-313.89 484.52,-305.05"/>
<polygon fill="#63b8ff" stroke="#63b8ff" points="327.7,-335.45 318.67,-340.99 329.19,-342.29 327.7,-335.45"/>
</a>
</g>
</g>
<!-- Node16&#45;&gt;Node12 -->
<g id="edge25_Node000016_Node000012" class="edge">
<title>Node16&#45;&gt;Node12</title>
<g id="a_edge25_Node000016_Node000012"><a xlink:title=" ">
<path fill="none" stroke="#63b8ff" d="M325.86,-336.92C341.3,-329.58 355.75,-319.32 365,-305 375.9,-288.13 369.79,-263.15 365.34,-250.12"/>
<polygon fill="#63b8ff" stroke="#63b8ff" points="324.46,-333.71 316.68,-340.91 327.25,-340.13 324.46,-333.71"/>
</a>
</g>
</g>
<!-- Node17 -->
<g id="Node000017" class="node">
<title>Node17</title>
<g id="a_Node000017"><a xlink:href="transDriverModel_8cpp.html" target="_top" xlink:title=" ">
<polygon fill="white" stroke="#666666" points="356.5,-305 179.5,-305 179.5,-286 356.5,-286 356.5,-305"/>
<text text-anchor="middle" x="268" y="-293" font-family="Helvetica,sans-Serif" font-size="10.00">src/Drivers/transDriverModel.cpp</text>
</a>
</g>
</g>
<!-- Node16&#45;&gt;Node17 -->
<g id="edge27_Node000016_Node000017" class="edge">
<title>Node16&#45;&gt;Node17</title>
<g id="a_edge27_Node000016_Node000017"><a xlink:title=" ">
<path fill="none" stroke="#63b8ff" d="M259.73,-331.04C261.92,-321.93 264.27,-312.1 265.9,-305.27"/>
<polygon fill="#63b8ff" stroke="#63b8ff" points="256.31,-330.3 257.39,-340.84 263.12,-331.93 256.31,-330.3"/>
</a>
</g>
</g>
<!-- Node19&#45;&gt;Node7 -->
<g id="edge34_Node000019_Node000007" class="edge">
<title>Node19&#45;&gt;Node7</title>
<g id="a_edge34_Node000019_Node000007"><a xlink:title=" ">
<path fill="none" stroke="#63b8ff" d="M998.58,-462.76C999.5,-405.32 995.81,-228.37 922,-110 912.57,-94.88 896.34,-82.2 884.51,-74.29"/>
<polygon fill="#63b8ff" stroke="#63b8ff" points="995.08,-462.8 998.35,-472.88 1002.08,-462.96 995.08,-462.8"/>
</a>
</g>
</g>
<!-- Node20&#45;&gt;Node15 -->
<g id="edge36_Node000020_Node000015" class="edge">
<title>Node20&#45;&gt;Node15</title>
<g id="a_edge36_Node000020_Node000015"><a xlink:title=" ">
<path fill="none" stroke="#63b8ff" d="M720.26,-470.56C682.39,-461.1 627.39,-447.35 586.26,-437.06"/>
<polygon fill="#63b8ff" stroke="#63b8ff" points="719.42,-473.96 729.97,-472.99 721.12,-467.17 719.42,-473.96"/>
</a>
</g>
</g>
<!-- Node21 -->
<g id="Node000021" class="node">
<title>Node21</title>
<g id="a_Node000021"><a xlink:href="simulator_8cpp.html" target="_top" xlink:title=" ">
<polygon fill="white" stroke="#666666" points="844,-431.5 694,-431.5 694,-412.5 844,-412.5 844,-431.5"/>
<text text-anchor="middle" x="769" y="-419.5" font-family="Helvetica,sans-Serif" font-size="10.00">src/Simulator/simulator.cpp</text>
</a>
</g>
</g>
<!-- Node20&#45;&gt;Node21 -->
<g id="edge37_Node000020_Node000021" class="edge">
<title>Node20&#45;&gt;Node21</title>
<g id="a_edge37_Node000020_Node000021"><a xlink:title=" ">
<path fill="none" stroke="#63b8ff" d="M765.61,-462.66C766.5,-452.24 767.56,-439.8 768.26,-431.67"/>
<polygon fill="#63b8ff" stroke="#63b8ff" points="762.1,-462.61 764.74,-472.87 769.08,-463.2 762.1,-462.61"/>
</a>
</g>
</g>
<!-- Node24&#45;&gt;Node6 -->
<g id="edge46_Node000024_Node000006" class="edge">
<title>Node24&#45;&gt;Node6</title>
<g id="a_edge46_Node000024_Node000006"><a xlink:title=" ">
<path fill="none" stroke="#63b8ff" d="M1327.09,-174.24C1262.31,-162.96 1159.41,-145.05 1098.92,-134.52"/>
<polygon fill="#63b8ff" stroke="#63b8ff" points="1326.69,-177.73 1337.14,-175.99 1327.89,-170.83 1326.69,-177.73"/>
</a>
</g>
</g>
<!-- Node24&#45;&gt;Node7 -->
<g id="edge47_Node000024_Node000007" class="edge">
<title>Node24&#45;&gt;Node7</title>
<g id="a_edge47_Node000024_Node000007"><a xlink:title=" ">
<path fill="none" stroke="#63b8ff" d="M1386.84,-165.95C1386.51,-148.69 1383.01,-123.63 1367,-110 1364.85,-108.17 1036.53,-79.8 914.76,-69.34"/>
<polygon fill="#63b8ff" stroke="#63b8ff" points="1383.34,-165.92 1386.69,-175.97 1390.34,-166.03 1383.34,-165.92"/>
</a>
</g>
</g>
<!-- Node25 -->
<g id="Node000025" class="node">
<title>Node25</title>
<g id="a_Node000025"><a xlink:href="database_8cpp.html" target="_top" xlink:title=" ">
<polygon fill="white" stroke="#666666" points="1700.5,-134.5 1551.5,-134.5 1551.5,-115.5 1700.5,-115.5 1700.5,-134.5"/>
<text text-anchor="middle" x="1626" y="-122.5" font-family="Helvetica,sans-Serif" font-size="10.00">src/Database/database.cpp</text>
</a>
</g>
</g>
<!-- Node24&#45;&gt;Node25 -->
<g id="edge48_Node000024_Node000025" class="edge">
<title>Node24&#45;&gt;Node25</title>
<g id="a_edge48_Node000024_Node000025"><a xlink:title=" ">
<path fill="none" stroke="#63b8ff" d="M1430.68,-173.61C1477.06,-162.3 1548.65,-144.85 1591.06,-134.52"/>
<polygon fill="#63b8ff" stroke="#63b8ff" points="1429.78,-170.22 1420.9,-175.99 1431.44,-177.03 1429.78,-170.22"/>
</a>
</g>
</g>
<!-- Node26 -->
<g id="Node000026" class="node">
<title>Node26</title>
<g id="a_Node000026"><a xlink:href="reporter_8cpp.html" target="_top" xlink:title=" ">
<polygon fill="white" stroke="#666666" points="1357.5,-134.5 1220.5,-134.5 1220.5,-115.5 1357.5,-115.5 1357.5,-134.5"/>
<text text-anchor="middle" x="1289" y="-122.5" font-family="Helvetica,sans-Serif" font-size="10.00">src/Reporter/reporter.cpp</text>
</a>
</g>
</g>
<!-- Node24&#45;&gt;Node26 -->
<g id="edge49_Node000024_Node000026" class="edge">
<title>Node24&#45;&gt;Node26</title>
<g id="a_edge49_Node000024_Node000026"><a xlink:title=" ">
<path fill="none" stroke="#63b8ff" d="M1362.98,-170.62C1344.49,-159.46 1319.08,-144.14 1303.37,-134.67"/>
<polygon fill="#63b8ff" stroke="#63b8ff" points="1361.32,-173.7 1371.69,-175.87 1364.93,-167.71 1361.32,-173.7"/>
</a>
</g>
</g>
<!-- Node27 -->
<g id="Node000027" class="node">
<title>Node27</title>
<g id="a_Node000027"><a xlink:href="generatorHelper_8cpp.html" target="_top" xlink:title=" ">
<polygon fill="white" stroke="#666666" points="1533.5,-140 1414.5,-140 1414.5,-110 1533.5,-110 1533.5,-140"/>
<text text-anchor="start" x="1422.5" y="-128" font-family="Helvetica,sans-Serif" font-size="10.00">src/TestGenerator/src</text>
<text text-anchor="middle" x="1474" y="-117" font-family="Helvetica,sans-Serif" font-size="10.00">/generatorHelper.cpp</text>
</a>
</g>
</g>
<!-- Node24&#45;&gt;Node27 -->
<g id="edge50_Node000024_Node000027" class="edge">
<title>Node24&#45;&gt;Node27</title>
<g id="a_edge50_Node000024_Node000027"><a xlink:title=" ">
<path fill="none" stroke="#63b8ff" d="M1407.37,-170.29C1421.16,-161.13 1439.01,-149.26 1452.77,-140.11"/>
<polygon fill="#63b8ff" stroke="#63b8ff" points="1405.37,-167.42 1398.98,-175.87 1409.25,-173.25 1405.37,-167.42"/>
</a>
</g>
</g>
<!-- Node24&#45;&gt;Node28 -->
<g id="edge51_Node000024_Node000028" class="edge">
<title>Node24&#45;&gt;Node28</title>
<g id="a_edge51_Node000024_Node000028"><a xlink:title=" ">
<path fill="none" stroke="#63b8ff" d="M1460.23,-174.62C1525.93,-165.79 1624.39,-152.39 1710,-140 1721.83,-138.29 1734.51,-136.39 1746.56,-134.57"/>
<polygon fill="#63b8ff" stroke="#63b8ff" points="1459.42,-171.19 1449.97,-175.99 1460.35,-178.13 1459.42,-171.19"/>
</a>
</g>
</g>
<!-- Node29&#45;&gt;Node6 -->
<g id="edge59_Node000029_Node000006" class="edge">
<title>Node29&#45;&gt;Node6</title>
<g id="a_edge59_Node000029_Node000006"><a xlink:title=" ">
<path fill="none" stroke="#63b8ff" d="M1158.71,-172.08C1132.05,-160.78 1093.4,-144.4 1070.09,-134.52"/>
<polygon fill="#63b8ff" stroke="#63b8ff" points="1157.36,-175.31 1167.93,-175.99 1160.09,-168.87 1157.36,-175.31"/>
</a>
</g>
</g>
<!-- Node29&#45;&gt;Node7 -->
<g id="edge60_Node000029_Node000007" class="edge">
<title>Node29&#45;&gt;Node7</title>
<g id="a_edge60_Node000029_Node000007"><a xlink:title=" ">
<path fill="none" stroke="#63b8ff" d="M1180.39,-166.78C1171.94,-149.37 1156.59,-123.52 1135,-110 1099.02,-87.47 980.26,-74.48 914.61,-68.86"/>
<polygon fill="#63b8ff" stroke="#63b8ff" points="1177.22,-168.26 1184.56,-175.89 1183.58,-165.34 1177.22,-168.26"/>
</a>
</g>
</g>
<!-- Node29&#45;&gt;Node8 -->
<g id="edge62_Node000029_Node000008" class="edge">
<title>Node29&#45;&gt;Node8</title>
<g id="a_edge62_Node000029_Node000008"><a xlink:title=" ">
<path fill="none" stroke="#63b8ff" d="M1184.8,-165.75C1179.04,-137.68 1164.26,-84.84 1131,-55 1111.62,-37.61 1084.35,-26.09 1063.17,-19.14"/>
<polygon fill="#63b8ff" stroke="#63b8ff" points="1181.41,-166.63 1186.69,-175.82 1188.29,-165.34 1181.41,-166.63"/>
</a>
</g>
</g>
<!-- Node29&#45;&gt;Node26 -->
<g id="edge61_Node000029_Node000026" class="edge">
<title>Node29&#45;&gt;Node26</title>
<g id="a_edge61_Node000029_Node000026"><a xlink:title=" ">
<path fill="none" stroke="#63b8ff" d="M1211.7,-170.77C1230.98,-159.6 1257.6,-144.19 1274.04,-134.67"/>
<polygon fill="#63b8ff" stroke="#63b8ff" points="1209.8,-167.83 1202.9,-175.87 1213.31,-173.88 1209.8,-167.83"/>
</a>
</g>
</g>
</g>
</svg>

<g id="navigator" transform="translate(0 0)" fill="#404254">
  <rect fill="#f2f5e9" fill-opacity="0.5" stroke="#606060" stroke-width=".5" x="0" y="0" width="60" height="60"/>
  <use id="zoomplus" xlink:href="#zoomPlus" x="17" y="9" onmousedown="handleZoom(evt,'in')"/>
  <use id="zoomminus" xlink:href="#zoomMin" x="42" y="9" onmousedown="handleZoom(evt,'out')"/>
  <use id="reset" xlink:href="#resetDef" x="30" y="36" onmousedown="handleReset()"/>
   <use id="arrowup" xlink:href="#arrowUp" x="0" y="0" onmousedown="handlePan(0,-1)"/>
  <use id="arrowright" xlink:href="#arrowRight" x="0" y="0" onmousedown="handlePan(1,0)"/>
  <use id="arrowdown" xlink:href="#arrowDown" x="0" y="0" onmousedown="handlePan(0,1)"/>
  <use id="arrowleft" xlink:href="#arrowLeft" x="0" y="0" onmousedown="handlePan(-1,0)"/>
</g>
<svg viewBox="0 0 15 15" width="100%" height="30px" preserveAspectRatio="xMaxYMin meet">
 <g id="arrow_out" transform="scale(0.3 0.3)">
  <a xlink:href="evaluate_8h__dep__incl_org.svg" target="_base">
   <rect id="button" ry="5" rx="5" y="6" x="6" height="38" width="38"
        fill="#f2f5e9" fill-opacity="0.5" stroke="#606060" stroke-width="1.0"/>
   <path id="arrow"
     d="M 11.500037,31.436501 C 11.940474,20.09759 22.043105,11.32322 32.158766,21.979434 L 37.068811,17.246167 C 37.068811,17.246167 37.088388,32 37.088388,32 L 22.160133,31.978069 C 22.160133,31.978069 26.997745,27.140456 26.997745,27.140456 C 18.528582,18.264221 13.291696,25.230495 11.500037,31.436501 z"
     style="fill:#404040;"/>
  </a>
 </g>
</svg>

<style type='text/css'>
<![CDATA[
[data-mouse-over-selected='false'] { opacity: 0.7; }
[data-mouse-over-selected='true']  { opacity: 1.0; }
]]>
</style>
<script type="application/ecmascript"><![CDATA[
document.addEventListener('DOMContentLoaded', (event) => {
  highlightEdges();
  highlightAdjacentNodes();
});
]]></script>
</svg>
