<?xml version="1.0" encoding="UTF-8" standalone="no"?>
<!DOCTYPE svg PUBLIC "-//W3C//DTD SVG 1.1//EN"
 "http://www.w3.org/Graphics/SVG/1.1/DTD/svg11.dtd">
<!-- Generated by graphviz version 2.43.0 (0)
 -->
<!-- Title: include/Evaluator/evaluate.h Pages: 1 -->
<!--zoomable 731 -->

<svg id="main" version="1.1" xmlns="http://www.w3.org/2000/svg" xmlns:xlink="http://www.w3.org/1999/xlink" xml:space="preserve" onload="init(evt)">
<style type="text/css"><![CDATA[
.node, .edge {opacity: 0.7;}
.node.selected, .edge.selected {opacity: 1;}
.edge:hover path { stroke: red; }
.edge:hover polygon { stroke: red; fill: red; }
]]></style>

<defs>
  <circle id="rim" cx="0" cy="0" r="7"/>
  <circle id="rim2" cx="0" cy="0" r="3.5"/>
  <g id="zoomPlus">
    <use xlink:href="#rim" fill="#404040"><set attributeName="fill" to="#808080" begin="zoomplus.mouseover" end="zoomplus.mouseout"/></use>
    <path d="M-4,0h8M0,-4v8" fill="none" stroke="white" stroke-width="1.5" pointer-events="none"/>
  </g>
  <g id="zoomMin">
    <use xlink:href="#rim" fill="#404040"><set attributeName="fill" to="#808080" begin="zoomminus.mouseover" end="zoomminus.mouseout"/></use>
    <path d="M-4,0h8" fill="none" stroke="white" stroke-width="1.5" pointer-events="none"/>
  </g>
  <g id="arrowUp" transform="translate(30 24)">
    <use xlink:href="#rim"/>
    <path pointer-events="none" fill="none" stroke="white" stroke-width="1.5" d="M0,-3.0v7 M-2.5,-0.5L0,-3.0L2.5,-0.5"/>
  </g>
  <g id="arrowRight" transform="rotate(90) translate(36 -43)">
    <use xlink:href="#rim"/>
    <path pointer-events="none" fill="none" stroke="white" stroke-width="1.5" d="M0,-3.0v7 M-2.5,-0.5L0,-3.0L2.5,-0.5"/>
  </g>
  <g id="arrowDown" transform="rotate(180) translate(-30 -48)">
    <use xlink:href="#rim"/>
    <path pointer-events="none" fill="none" stroke="white" stroke-width="1.5" d="M0,-3.0v7 M-2.5,-0.5L0,-3.0L2.5,-0.5"/>
  </g>
  <g id="arrowLeft" transform="rotate(270) translate(-36 17)">
    <use xlink:href="#rim"/>
    <path pointer-events="none" fill="none" stroke="white" stroke-width="1.5" d="M0,-3.0v7 M-2.5,-0.5L0,-3.0L2.5,-0.5"/>
  </g>
  <g id="resetDef">
    <use xlink:href="#rim2" fill="#404040"><set attributeName="fill" to="#808080" begin="reset.mouseover" end="reset.mouseout"/></use>
  </g>
</defs>
<script type="application/ecmascript">
var viewWidth = 1601;
var viewHeight = 731;
var sectionId = 'dynsection-1';
</script>
<script type="application/ecmascript" xlink:href="svg.min.js"/>
<svg id="graph" class="graph">
<g id="viewport">
<title>include/Evaluator/evaluate.h</title>
<!-- Node1 -->
<g id="Node000001" class="node">
<title>Node1</title>
<g id="a_Node000001"><a xlink:title=" ">
<polygon fill="#999999" stroke="#666666" points="966,-723 810,-723 810,-704 966,-704 966,-723"/>
<text text-anchor="middle" x="888" y="-711" font-family="Helvetica,sans-Serif" font-size="10.00">include/Evaluator/evaluate.h</text>
</a>
</g>
</g>
<!-- Node2 -->
<g id="Node000002" class="node">
<title>Node2</title>
<g id="a_Node000002"><a xlink:href="transaction_8h_source.html" target="_top" xlink:title=" ">
<polygon fill="white" stroke="#666666" points="943,-668 833,-668 833,-638 943,-638 943,-668"/>
<text text-anchor="start" x="841" y="-656" font-family="Helvetica,sans-Serif" font-size="10.00">include/Transaction</text>
<text text-anchor="middle" x="888" y="-645" font-family="Helvetica,sans-Serif" font-size="10.00">/transaction.h</text>
</a>
</g>
</g>
<!-- Node1&#45;&gt;Node2 -->
<g id="edge1_Node000001_Node000002" class="edge">
<title>Node1&#45;&gt;Node2</title>
<g id="a_edge1_Node000001_Node000002"><a xlink:title=" ">
<path fill="none" stroke="#63b8ff" d="M888,-693.65C888,-685.36 888,-675.78 888,-668.11"/>
<polygon fill="#63b8ff" stroke="#63b8ff" points="884.5,-693.87 888,-703.87 891.5,-693.87 884.5,-693.87"/>
</a>
</g>
</g>
<!-- Node7 -->
<g id="Node000007" class="node">
<title>Node7</title>
<g id="a_Node000007"><a xlink:href="mlvp_8h.html" target="_top" xlink:title=" ">
<polygon fill="white" stroke="#666666" points="614.5,-74 525.5,-74 525.5,-55 614.5,-55 614.5,-74"/>
<text text-anchor="middle" x="570" y="-62" font-family="Helvetica,sans-Serif" font-size="10.00">include/mlvp.h</text>
</a>
</g>
</g>
<!-- Node1&#45;&gt;Node7 -->
<g id="edge66_Node000001_Node000007" class="edge">
<title>Node1&#45;&gt;Node7</title>
<g id="a_edge66_Node000001_Node000007"><a xlink:title=" ">
<path fill="none" stroke="#63b8ff" d="M799.88,-709.83C575.46,-701.87 0,-673.64 0,-593.5 0,-593.5 0,-593.5 0,-184.5 0,-138.76 29.8,-129.86 71,-110 150.62,-71.62 418.36,-66.13 525.31,-65.5"/>
<polygon fill="#63b8ff" stroke="#63b8ff" points="799.86,-713.33 809.97,-710.18 800.1,-706.34 799.86,-713.33"/>
</a>
</g>
</g>
<!-- Node30 -->
<g id="Node000030" class="node">
<title>Node30</title>
<g id="a_Node000030"><a xlink:href="evaluate_8cpp.html" target="_top" xlink:title=" ">
<polygon fill="white" stroke="#666666" points="1107,-662.5 961,-662.5 961,-643.5 1107,-643.5 1107,-662.5"/>
<text text-anchor="middle" x="1034" y="-650.5" font-family="Helvetica,sans-Serif" font-size="10.00">src/Evaluator/evaluate.cpp</text>
</a>
</g>
</g>
<!-- Node1&#45;&gt;Node30 -->
<g id="edge67_Node000001_Node000030" class="edge">
<title>Node1&#45;&gt;Node30</title>
<g id="a_edge67_Node000001_Node000030"><a xlink:title=" ">
<path fill="none" stroke="#63b8ff" d="M918.62,-700.23C946.84,-688.92 987.97,-672.44 1012.74,-662.52"/>
<polygon fill="#63b8ff" stroke="#63b8ff" points="917.21,-697.03 909.23,-703.99 919.81,-703.52 917.21,-697.03"/>
</a>
</g>
</g>
<!-- Node3 -->
<g id="Node000003" class="node">
<title>Node3</title>
<g id="a_Node000003"><a xlink:href="channel_8h.html" target="_top" xlink:title=" ">
<polygon fill="white" stroke="#666666" points="403.5,-602 258.5,-602 258.5,-583 403.5,-583 403.5,-602"/>
<text text-anchor="middle" x="331" y="-590" font-family="Helvetica,sans-Serif" font-size="10.00">include/Channel/channel.h</text>
</a>
</g>
</g>
<!-- Node2&#45;&gt;Node3 -->
<g id="edge2_Node000002_Node000003" class="edge">
<title>Node2&#45;&gt;Node3</title>
<g id="a_edge2_Node000002_Node000003"><a xlink:title=" ">
<path fill="none" stroke="#63b8ff" d="M822.69,-645.14C717.93,-634.14 513.05,-612.62 403.76,-601.14"/>
<polygon fill="#63b8ff" stroke="#63b8ff" points="822.5,-648.64 832.81,-646.2 823.23,-641.68 822.5,-648.64"/>
</a>
</g>
</g>
<!-- Node4 -->
<g id="Node000004" class="node">
<title>Node4</title>
<g id="a_Node000004"><a xlink:href="driverModel_8h.html" target="_top" xlink:title=" ">
<polygon fill="white" stroke="#666666" points="612.5,-547 451.5,-547 451.5,-528 612.5,-528 612.5,-547"/>
<text text-anchor="middle" x="532" y="-535" font-family="Helvetica,sans-Serif" font-size="10.00">include/Drivers/driverModel.h</text>
</a>
</g>
</g>
<!-- Node2&#45;&gt;Node4 -->
<g id="edge52_Node000002_Node000004" class="edge">
<title>Node2&#45;&gt;Node4</title>
<g id="a_edge52_Node000002_Node000004"><a xlink:title=" ">
<path fill="none" stroke="#63b8ff" d="M834.45,-634.93C757.31,-610.33 617.76,-565.84 559.11,-547.14"/>
<polygon fill="#63b8ff" stroke="#63b8ff" points="833.4,-638.27 843.99,-637.97 835.53,-631.6 833.4,-638.27"/>
</a>
</g>
</g>
<!-- Node5 -->
<g id="Node000005" class="node">
<title>Node5</title>
<g id="a_Node000005"><a xlink:href="driver_8h.html" target="_top" xlink:title=" ">
<polygon fill="white" stroke="#666666" points="434,-195 304,-195 304,-176 434,-176 434,-195"/>
<text text-anchor="middle" x="369" y="-183" font-family="Helvetica,sans-Serif" font-size="10.00">include/Drivers/driver.h</text>
</a>
</g>
</g>
<!-- Node2&#45;&gt;Node5 -->
<g id="edge51_Node000002_Node000005" class="edge">
<title>Node2&#45;&gt;Node5</title>
<g id="a_edge51_Node000002_Node000005"><a xlink:title=" ">
<path fill="none" stroke="#63b8ff" d="M822.79,-650.48C656.54,-646.18 225.89,-632.22 169,-602 110.63,-570.99 62.33,-530.46 95,-473 144.85,-385.34 290,-457.84 290,-357 290,-357 290,-357 290,-294.5 290,-249.9 334.44,-211.45 356.66,-195.01"/>
<polygon fill="#63b8ff" stroke="#63b8ff" points="822.8,-653.98 832.88,-650.74 822.98,-646.98 822.8,-653.98"/>
</a>
</g>
</g>
<!-- Node6 -->
<g id="Node000006" class="node">
<title>Node6</title>
<g id="a_Node000006"><a xlink:href="spreader_8h.html" target="_top" xlink:title=" ">
<polygon fill="white" stroke="#666666" points="845,-134.5 693,-134.5 693,-115.5 845,-115.5 845,-134.5"/>
<text text-anchor="middle" x="769" y="-122.5" font-family="Helvetica,sans-Serif" font-size="10.00">include/Spreader/spreader.h</text>
</a>
</g>
</g>
<!-- Node2&#45;&gt;Node6 -->
<g id="edge62_Node000002_Node000006" class="edge">
<title>Node2&#45;&gt;Node6</title>
<g id="a_edge62_Node000002_Node000006"><a xlink:title=" ">
<path fill="none" stroke="#63b8ff" d="M953.09,-637.96C1075.83,-617.28 1201,-654.53 1201,-538.5 1201,-538.5 1201,-538.5 1201,-481.5 1201,-273.16 897.71,-164.37 799.38,-134.57"/>
<polygon fill="#63b8ff" stroke="#63b8ff" points="952.34,-634.54 943.13,-639.78 953.59,-641.43 952.34,-634.54"/>
</a>
</g>
</g>
<!-- Node2&#45;&gt;Node7 -->
<g id="edge63_Node000002_Node000007" class="edge">
<title>Node2&#45;&gt;Node7</title>
<g id="a_edge63_Node000002_Node000007"><a xlink:title=" ">
<path fill="none" stroke="#63b8ff" d="M822.77,-651.94C663.91,-651.12 260.73,-644.74 134,-602 85.53,-585.65 38,-589.66 38,-538.5 38,-538.5 38,-538.5 38,-184.5 38,-85.01 396.84,-68.67 525.1,-66.01"/>
<polygon fill="#63b8ff" stroke="#63b8ff" points="822.85,-655.44 832.87,-651.99 822.89,-648.44 822.85,-655.44"/>
</a>
</g>
</g>
<!-- Node8 -->
<g id="Node000008" class="node">
<title>Node8</title>
<g id="a_Node000008"><a xlink:href="main_8cpp.html" target="_top" xlink:title=" ">
<polygon fill="white" stroke="#666666" points="1111.5,-19 1032.5,-19 1032.5,0 1111.5,0 1111.5,-19"/>
<text text-anchor="middle" x="1072" y="-7" font-family="Helvetica,sans-Serif" font-size="10.00">src/main.cpp</text>
</a>
</g>
</g>
<!-- Node2&#45;&gt;Node8 -->
<g id="edge65_Node000002_Node000008" class="edge">
<title>Node2&#45;&gt;Node8</title>
<g id="a_edge65_Node000002_Node000008"><a xlink:title=" ">
<path fill="none" stroke="#63b8ff" d="M953.3,-638.05C1115.04,-615.12 1593,-679.55 1593,-538.5 1593,-538.5 1593,-538.5 1593,-124 1593,-25.53 1233.17,-12.34 1111.59,-10.69"/>
<polygon fill="#63b8ff" stroke="#63b8ff" points="952.42,-634.64 943.11,-639.69 953.54,-641.55 952.42,-634.64"/>
</a>
</g>
</g>
<!-- Node11 -->
<g id="Node000011" class="node">
<title>Node11</title>
<g id="a_Node000011"><a xlink:href="dutDriver_8h.html" target="_top" xlink:title=" ">
<polygon fill="white" stroke="#666666" points="536.5,-305 389.5,-305 389.5,-286 536.5,-286 536.5,-305"/>
<text text-anchor="middle" x="463" y="-293" font-family="Helvetica,sans-Serif" font-size="10.00">include/Drivers/dutDriver.h</text>
</a>
</g>
</g>
<!-- Node2&#45;&gt;Node11 -->
<g id="edge53_Node000002_Node000011" class="edge">
<title>Node2&#45;&gt;Node11</title>
<g id="a_edge53_Node000002_Node000011"><a xlink:title=" ">
<path fill="none" stroke="#63b8ff" d="M822.92,-644.31C713.41,-630.15 498.78,-596.77 443,-547 420.6,-527.02 420,-513.52 420,-483.5 420,-483.5 420,-483.5 420,-421 420,-375.27 446.25,-325 457.73,-305.2"/>
<polygon fill="#63b8ff" stroke="#63b8ff" points="822.49,-647.78 832.86,-645.58 823.38,-640.84 822.49,-647.78"/>
</a>
</g>
</g>
<!-- Node12 -->
<g id="Node000012" class="node">
<title>Node12</title>
<g id="a_Node000012"><a xlink:href="refDriver_8h.html" target="_top" xlink:title=" ">
<polygon fill="white" stroke="#666666" points="876.5,-250 731.5,-250 731.5,-231 876.5,-231 876.5,-250"/>
<text text-anchor="middle" x="804" y="-238" font-family="Helvetica,sans-Serif" font-size="10.00">include/Drivers/refDriver.h</text>
</a>
</g>
</g>
<!-- Node2&#45;&gt;Node12 -->
<g id="edge54_Node000002_Node000012" class="edge">
<title>Node2&#45;&gt;Node12</title>
<g id="a_edge54_Node000002_Node000012"><a xlink:title=" ">
<path fill="none" stroke="#63b8ff" d="M951.96,-634.68C996.89,-618.18 1049,-588.31 1049,-538.5 1049,-538.5 1049,-538.5 1049,-355 1049,-320.2 1039.81,-306.91 1012,-286 990.38,-269.74 925.39,-257.52 873.74,-250.04"/>
<polygon fill="#63b8ff" stroke="#63b8ff" points="950.78,-631.38 942.51,-638 953.1,-637.99 950.78,-631.38"/>
</a>
</g>
</g>
<!-- Node16 -->
<g id="Node000016" class="node">
<title>Node16</title>
<g id="a_Node000016"><a xlink:href="transDriverModel_8h.html" target="_top" xlink:title=" ">
<polygon fill="white" stroke="#666666" points="972,-371 824,-371 824,-341 972,-341 972,-371"/>
<text text-anchor="start" x="832" y="-359" font-family="Helvetica,sans-Serif" font-size="10.00">include/Drivers/transDriver</text>
<text text-anchor="middle" x="898" y="-348" font-family="Helvetica,sans-Serif" font-size="10.00">Model.h</text>
</a>
</g>
</g>
<!-- Node2&#45;&gt;Node16 -->
<g id="edge55_Node000002_Node000016" class="edge">
<title>Node2&#45;&gt;Node16</title>
<g id="a_edge55_Node000002_Node000016"><a xlink:title=" ">
<path fill="none" stroke="#63b8ff" d="M925.06,-632.69C956.32,-613.45 996,-580.71 996,-538.5 996,-538.5 996,-538.5 996,-481.5 996,-446.71 992.89,-434.82 972,-407 960.55,-391.75 943.02,-379.61 927.89,-371.12"/>
<polygon fill="#63b8ff" stroke="#63b8ff" points="922.92,-629.89 916.09,-637.99 926.48,-635.92 922.92,-629.89"/>
</a>
</g>
</g>
<!-- Node19 -->
<g id="Node000019" class="node">
<title>Node19</title>
<g id="a_Node000019"><a xlink:href="ref_8h.html" target="_top" xlink:title=" ">
<polygon fill="white" stroke="#666666" points="223.5,-492 104.5,-492 104.5,-473 223.5,-473 223.5,-492"/>
<text text-anchor="middle" x="164" y="-480" font-family="Helvetica,sans-Serif" font-size="10.00">include/RefPack/ref.h</text>
</a>
</g>
</g>
<!-- Node2&#45;&gt;Node19 -->
<g id="edge56_Node000002_Node000019" class="edge">
<title>Node2&#45;&gt;Node19</title>
<g id="a_edge56_Node000002_Node000019"><a xlink:title=" ">
<path fill="none" stroke="#63b8ff" d="M822.51,-649.89C682.03,-644.88 355.87,-630.48 249,-602 193.87,-587.31 163.5,-595.22 133,-547 121.2,-528.34 141.32,-504.53 154.3,-492.03"/>
<polygon fill="#63b8ff" stroke="#63b8ff" points="822.58,-653.4 832.7,-650.25 822.83,-646.4 822.58,-653.4"/>
</a>
</g>
</g>
<!-- Node20 -->
<g id="Node000020" class="node">
<title>Node20</title>
<g id="a_Node000020"><a xlink:href="simulator_8h.html" target="_top" xlink:title=" ">
<polygon fill="white" stroke="#666666" points="968,-492 808,-492 808,-473 968,-473 968,-492"/>
<text text-anchor="middle" x="888" y="-480" font-family="Helvetica,sans-Serif" font-size="10.00">include/Simulator/simulator.h</text>
</a>
</g>
</g>
<!-- Node2&#45;&gt;Node20 -->
<g id="edge61_Node000002_Node000020" class="edge">
<title>Node2&#45;&gt;Node20</title>
<g id="a_edge61_Node000002_Node000020"><a xlink:title=" ">
<path fill="none" stroke="#63b8ff" d="M888,-627.69C888,-589.5 888,-517.23 888,-492.25"/>
<polygon fill="#63b8ff" stroke="#63b8ff" points="884.5,-627.92 888,-637.92 891.5,-627.92 884.5,-627.92"/>
</a>
</g>
</g>
<!-- Node24 -->
<g id="Node000024" class="node">
<title>Node24</title>
<g id="a_Node000024"><a xlink:href="database_8h.html" target="_top" xlink:title=" ">
<polygon fill="white" stroke="#666666" points="1166,-195 1008,-195 1008,-176 1166,-176 1166,-195"/>
<text text-anchor="middle" x="1087" y="-183" font-family="Helvetica,sans-Serif" font-size="10.00">include/Database/database.h</text>
</a>
</g>
</g>
<!-- Node2&#45;&gt;Node24 -->
<g id="edge44_Node000002_Node000024" class="edge">
<title>Node2&#45;&gt;Node24</title>
<g id="a_edge44_Node000002_Node000024"><a xlink:title=" ">
<path fill="none" stroke="#63b8ff" d="M950.1,-635.04C984.22,-624.98 1022.48,-612.23 1037,-602 1066.36,-581.31 1087,-574.42 1087,-538.5 1087,-538.5 1087,-538.5 1087,-294.5 1087,-257.56 1087,-213.52 1087,-195.18"/>
<polygon fill="#63b8ff" stroke="#63b8ff" points="948.77,-631.79 940.14,-637.94 950.72,-638.51 948.77,-631.79"/>
</a>
</g>
</g>
<!-- Node28 -->
<g id="Node000028" class="node">
<title>Node28</title>
<g id="a_Node000028"><a xlink:href="transaction_8cpp.html" target="_top" xlink:title=" ">
<polygon fill="white" stroke="#666666" points="1371.5,-134.5 1204.5,-134.5 1204.5,-115.5 1371.5,-115.5 1371.5,-134.5"/>
<text text-anchor="middle" x="1288" y="-122.5" font-family="Helvetica,sans-Serif" font-size="10.00">src/Transaction/transaction.cpp</text>
</a>
</g>
</g>
<!-- Node2&#45;&gt;Node28 -->
<g id="edge64_Node000002_Node000028" class="edge">
<title>Node2&#45;&gt;Node28</title>
<g id="a_edge64_Node000002_Node000028"><a xlink:title=" ">
<path fill="none" stroke="#63b8ff" d="M952.95,-637.31C994.91,-627.11 1045.1,-613.36 1064,-602 1097.54,-581.84 1125,-577.63 1125,-538.5 1125,-538.5 1125,-538.5 1125,-421 1125,-292.86 1244.29,-168.07 1278.77,-134.68"/>
<polygon fill="#63b8ff" stroke="#63b8ff" points="951.94,-633.95 943.03,-639.69 953.57,-640.76 951.94,-633.95"/>
</a>
</g>
</g>
<!-- Node29 -->
<g id="Node000029" class="node">
<title>Node29</title>
<g id="a_Node000029"><a xlink:href="reporter_8h.html" target="_top" xlink:title=" ">
<polygon fill="white" stroke="#666666" points="1450.5,-195 1303.5,-195 1303.5,-176 1450.5,-176 1450.5,-195"/>
<text text-anchor="middle" x="1377" y="-183" font-family="Helvetica,sans-Serif" font-size="10.00">include/Reporter/reporter.h</text>
</a>
</g>
</g>
<!-- Node2&#45;&gt;Node29 -->
<g id="edge57_Node000002_Node000029" class="edge">
<title>Node2&#45;&gt;Node29</title>
<g id="a_edge57_Node000002_Node000029"><a xlink:title=" ">
<path fill="none" stroke="#63b8ff" d="M953.14,-637.96C1037.86,-623.47 1076.66,-654.49 1139,-602 1162.08,-582.57 1163,-568.67 1163,-538.5 1163,-538.5 1163,-538.5 1163,-481.5 1163,-343.88 1317.47,-227.17 1363.94,-195.17"/>
<polygon fill="#63b8ff" stroke="#63b8ff" points="952.32,-634.55 943.14,-639.85 953.61,-641.43 952.32,-634.55"/>
</a>
</g>
</g>
<!-- Node3&#45;&gt;Node4 -->
<g id="edge3_Node000003_Node000004" class="edge">
<title>Node3&#45;&gt;Node4</title>
<g id="a_edge3_Node000003_Node000004"><a xlink:title=" ">
<path fill="none" stroke="#63b8ff" d="M373.43,-580.31C411.04,-570.39 465.17,-556.12 499.45,-547.08"/>
<polygon fill="#63b8ff" stroke="#63b8ff" points="372.07,-577.05 363.29,-582.98 373.86,-583.82 372.07,-577.05"/>
</a>
</g>
</g>
<!-- Node3&#45;&gt;Node7 -->
<g id="edge42_Node000003_Node000007" class="edge">
<title>Node3&#45;&gt;Node7</title>
<g id="a_edge42_Node000003_Node000007"><a xlink:title=" ">
<path fill="none" stroke="#63b8ff" d="M325.7,-573.07C321.73,-560.18 315.83,-542.72 309,-528 272.4,-449.14 214,-443.94 214,-357 214,-357 214,-357 214,-184.5 214,-138.14 245.79,-131.23 287,-110 327.73,-89.01 456.43,-75.19 525.37,-69.08"/>
<polygon fill="#63b8ff" stroke="#63b8ff" points="322.34,-574.07 328.55,-582.65 329.05,-572.07 322.34,-574.07"/>
</a>
</g>
</g>
<!-- Node3&#45;&gt;Node11 -->
<g id="edge39_Node000003_Node000011" class="edge">
<title>Node3&#45;&gt;Node11</title>
<g id="a_edge39_Node000003_Node000011"><a xlink:title=" ">
<path fill="none" stroke="#63b8ff" d="M344.44,-575.01C359.55,-554.75 382,-518.72 382,-483.5 382,-483.5 382,-483.5 382,-421 382,-383.88 385.05,-371.64 406,-341 416.63,-325.45 434.37,-312.85 447.24,-305.07"/>
<polygon fill="#63b8ff" stroke="#63b8ff" points="341.67,-572.87 338.31,-582.91 347.2,-577.16 341.67,-572.87"/>
</a>
</g>
</g>
<!-- Node3&#45;&gt;Node19 -->
<g id="edge40_Node000003_Node000019" class="edge">
<title>Node3&#45;&gt;Node19</title>
<g id="a_edge40_Node000003_Node000019"><a xlink:title=" ">
<path fill="none" stroke="#63b8ff" d="M322.52,-573.61C314.99,-559.46 302.74,-540.11 287,-528 263.52,-509.92 232.01,-498.71 206.77,-492.07"/>
<polygon fill="#63b8ff" stroke="#63b8ff" points="319.54,-575.47 327.16,-582.83 325.79,-572.32 319.54,-575.47"/>
</a>
</g>
</g>
<!-- Node3&#45;&gt;Node20 -->
<g id="edge41_Node000003_Node000020" class="edge">
<title>Node3&#45;&gt;Node20</title>
<g id="a_edge41_Node000003_Node000020"><a xlink:title=" ">
<path fill="none" stroke="#63b8ff" d="M407.11,-581.61C466,-573.54 549.45,-561.18 622,-547 707.04,-530.38 806.02,-505.18 855.84,-492.09"/>
<polygon fill="#63b8ff" stroke="#63b8ff" points="406.58,-578.15 397.15,-582.97 407.53,-585.09 406.58,-578.15"/>
</a>
</g>
</g>
<!-- Node23 -->
<g id="Node000023" class="node">
<title>Node23</title>
<g id="a_Node000023"><a xlink:href="channel_8cpp.html" target="_top" xlink:title=" ">
<polygon fill="white" stroke="#666666" points="277.5,-547 142.5,-547 142.5,-528 277.5,-528 277.5,-547"/>
<text text-anchor="middle" x="210" y="-535" font-family="Helvetica,sans-Serif" font-size="10.00">src/Channel/channel.cpp</text>
</a>
</g>
</g>
<!-- Node3&#45;&gt;Node23 -->
<g id="edge43_Node000003_Node000023" class="edge">
<title>Node3&#45;&gt;Node23</title>
<g id="a_edge43_Node000003_Node000023"><a xlink:title=" ">
<path fill="none" stroke="#63b8ff" d="M302.23,-578.9C279.88,-569.11 249.48,-555.79 229.79,-547.17"/>
<polygon fill="#63b8ff" stroke="#63b8ff" points="301,-582.18 311.56,-582.98 303.8,-575.77 301,-582.18"/>
</a>
</g>
</g>
<!-- Node4&#45;&gt;Node5 -->
<g id="edge4_Node000004_Node000005" class="edge">
<title>Node4&#45;&gt;Node5</title>
<g id="a_edge4_Node000004_Node000005"><a xlink:title=" ">
<path fill="none" stroke="#63b8ff" d="M457.49,-525.83C399.21,-512.79 328,-484.3 328,-423 328,-423 328,-423 328,-294.5 328,-255.19 352.03,-212.77 363.3,-195.04"/>
<polygon fill="#63b8ff" stroke="#63b8ff" points="456.94,-529.3 467.45,-527.95 458.4,-522.45 456.94,-529.3"/>
</a>
</g>
</g>
<!-- Node4&#45;&gt;Node7 -->
<g id="edge37_Node000004_Node000007" class="edge">
<title>Node4&#45;&gt;Node7</title>
<g id="a_edge37_Node000004_Node000007"><a xlink:title=" ">
<path fill="none" stroke="#63b8ff" d="M441.28,-528.52C408.76,-522.3 373.19,-511.31 345,-492 284.89,-450.82 252,-429.86 252,-357 252,-357 252,-357 252,-184.5 252,-126.81 437.93,-87.77 525.45,-72.58"/>
<polygon fill="#63b8ff" stroke="#63b8ff" points="440.8,-531.99 451.26,-530.31 442.03,-525.1 440.8,-531.99"/>
</a>
</g>
</g>
<!-- Node4&#45;&gt;Node11 -->
<g id="edge11_Node000004_Node000011" class="edge">
<title>Node4&#45;&gt;Node11</title>
<g id="a_edge11_Node000004_Node000011"><a xlink:title=" ">
<path fill="none" stroke="#63b8ff" d="M526.75,-518.23C512.85,-469.9 475.51,-340.01 465.5,-305.19"/>
<polygon fill="#63b8ff" stroke="#63b8ff" points="523.42,-519.31 529.54,-527.96 530.14,-517.38 523.42,-519.31"/>
</a>
</g>
</g>
<!-- Node4&#45;&gt;Node12 -->
<g id="edge19_Node000004_Node000012" class="edge">
<title>Node4&#45;&gt;Node12</title>
<g id="a_edge19_Node000004_Node000012"><a xlink:title=" ">
<path fill="none" stroke="#63b8ff" d="M607.49,-526.45C658.64,-518.55 720.81,-506.48 743,-492 781.94,-466.59 764.97,-432.27 804,-407 871.39,-363.38 924.83,-428.35 981,-371 1007.7,-343.74 1016.69,-315.91 993,-286 978.4,-267.57 923.59,-256.01 876.73,-249.31"/>
<polygon fill="#63b8ff" stroke="#63b8ff" points="606.79,-523.02 597.42,-527.98 607.83,-529.94 606.79,-523.02"/>
</a>
</g>
</g>
<!-- Node15 -->
<g id="Node000015" class="node">
<title>Node15</title>
<g id="a_Node000015"><a xlink:href="simulatorDriver_8h.html" target="_top" xlink:title=" ">
<polygon fill="white" stroke="#666666" points="714,-437 574,-437 574,-407 714,-407 714,-437"/>
<text text-anchor="start" x="582" y="-425" font-family="Helvetica,sans-Serif" font-size="10.00">include/Drivers/simulator</text>
<text text-anchor="middle" x="644" y="-414" font-family="Helvetica,sans-Serif" font-size="10.00">Driver.h</text>
</a>
</g>
</g>
<!-- Node4&#45;&gt;Node15 -->
<g id="edge20_Node000004_Node000015" class="edge">
<title>Node4&#45;&gt;Node15</title>
<g id="a_edge20_Node000004_Node000015"><a xlink:title=" ">
<path fill="none" stroke="#63b8ff" d="M534.15,-517.53C536.54,-503.87 541.55,-485.68 552,-473 565.29,-456.86 585.21,-445.14 603.11,-437.11"/>
<polygon fill="#63b8ff" stroke="#63b8ff" points="530.64,-517.33 532.69,-527.72 537.57,-518.31 530.64,-517.33"/>
</a>
</g>
</g>
<!-- Node4&#45;&gt;Node16 -->
<g id="edge31_Node000004_Node000016" class="edge">
<title>Node4&#45;&gt;Node16</title>
<g id="a_edge31_Node000004_Node000016"><a xlink:title=" ">
<path fill="none" stroke="#63b8ff" d="M600.51,-526.29C646.48,-518.34 701.98,-506.28 721,-492 755.7,-465.95 736.19,-435.39 769,-407 788.44,-390.18 814.16,-378.69 837.52,-371.01"/>
<polygon fill="#63b8ff" stroke="#63b8ff" points="599.84,-522.85 590.56,-527.97 601,-529.76 599.84,-522.85"/>
</a>
</g>
</g>
<!-- Node4&#45;&gt;Node19 -->
<g id="edge32_Node000004_Node000019" class="edge">
<title>Node4&#45;&gt;Node19</title>
<g id="a_edge32_Node000004_Node000019"><a xlink:title=" ">
<path fill="none" stroke="#63b8ff" d="M462.95,-526.56C393.86,-516.61 288.7,-501.46 223.28,-492.04"/>
<polygon fill="#63b8ff" stroke="#63b8ff" points="462.48,-530.02 472.87,-527.98 463.48,-523.09 462.48,-530.02"/>
</a>
</g>
</g>
<!-- Node4&#45;&gt;Node20 -->
<g id="edge34_Node000004_Node000020" class="edge">
<title>Node4&#45;&gt;Node20</title>
<g id="a_edge34_Node000004_Node000020"><a xlink:title=" ">
<path fill="none" stroke="#63b8ff" d="M599.21,-526.49C666.05,-516.54 767.49,-501.44 830.65,-492.04"/>
<polygon fill="#63b8ff" stroke="#63b8ff" points="598.57,-523.05 589.2,-527.98 599.6,-529.97 598.57,-523.05"/>
</a>
</g>
</g>
<!-- Node22 -->
<g id="Node000022" class="node">
<title>Node22</title>
<g id="a_Node000022"><a xlink:href="driverModel_8cpp.html" target="_top" xlink:title=" ">
<polygon fill="white" stroke="#666666" points="711.5,-492 560.5,-492 560.5,-473 711.5,-473 711.5,-492"/>
<text text-anchor="middle" x="636" y="-480" font-family="Helvetica,sans-Serif" font-size="10.00">src/Drivers/driverModel.cpp</text>
</a>
</g>
</g>
<!-- Node4&#45;&gt;Node22 -->
<g id="edge38_Node000004_Node000022" class="edge">
<title>Node4&#45;&gt;Node22</title>
<g id="a_edge38_Node000004_Node000022"><a xlink:title=" ">
<path fill="none" stroke="#63b8ff" d="M557.77,-523.37C576.87,-513.63 602.37,-500.64 618.99,-492.17"/>
<polygon fill="#63b8ff" stroke="#63b8ff" points="556.03,-520.33 548.71,-527.98 559.21,-526.56 556.03,-520.33"/>
</a>
</g>
</g>
<!-- Node5&#45;&gt;Node6 -->
<g id="edge5_Node000005_Node000006" class="edge">
<title>Node5&#45;&gt;Node6</title>
<g id="a_edge5_Node000005_Node000006"><a xlink:title=" ">
<path fill="none" stroke="#63b8ff" d="M437.24,-174.52C514.23,-163.26 638.15,-145.14 710.77,-134.52"/>
<polygon fill="#63b8ff" stroke="#63b8ff" points="436.55,-171.08 427.16,-175.99 437.56,-178.01 436.55,-171.08"/>
</a>
</g>
</g>
<!-- Node5&#45;&gt;Node7 -->
<g id="edge9_Node000005_Node000007" class="edge">
<title>Node5&#45;&gt;Node7</title>
<g id="a_edge9_Node000005_Node000007"><a xlink:title=" ">
<path fill="none" stroke="#63b8ff" d="M368.68,-165.45C369.47,-148.6 373.36,-124.5 388,-110 407.18,-91 478.02,-77.93 525.45,-71.09"/>
<polygon fill="#63b8ff" stroke="#63b8ff" points="365.18,-165.71 368.54,-175.76 372.18,-165.8 365.18,-165.71"/>
</a>
</g>
</g>
<!-- Node10 -->
<g id="Node000010" class="node">
<title>Node10</title>
<g id="a_Node000010"><a xlink:href="driver_8cpp.html" target="_top" xlink:title=" ">
<polygon fill="white" stroke="#666666" points="517,-134.5 397,-134.5 397,-115.5 517,-115.5 517,-134.5"/>
<text text-anchor="middle" x="457" y="-122.5" font-family="Helvetica,sans-Serif" font-size="10.00">src/Drivers/driver.cpp</text>
</a>
</g>
</g>
<!-- Node5&#45;&gt;Node10 -->
<g id="edge10_Node000005_Node000010" class="edge">
<title>Node5&#45;&gt;Node10</title>
<g id="a_edge10_Node000005_Node000010"><a xlink:title=" ">
<path fill="none" stroke="#63b8ff" d="M390.57,-170.16C407.29,-159.05 429.9,-144.01 443.96,-134.67"/>
<polygon fill="#63b8ff" stroke="#63b8ff" points="388.37,-167.42 381.98,-175.87 392.25,-173.25 388.37,-167.42"/>
</a>
</g>
</g>
<!-- Node6&#45;&gt;Node7 -->
<g id="edge6_Node000006_Node000007" class="edge">
<title>Node6&#45;&gt;Node7</title>
<g id="a_edge6_Node000006_Node000007"><a xlink:title=" ">
<path fill="none" stroke="#63b8ff" d="M730.25,-112.61C691.76,-101.29 633.62,-84.2 598.97,-74.02"/>
<polygon fill="#63b8ff" stroke="#63b8ff" points="729.48,-116.03 740.06,-115.49 731.46,-109.32 729.48,-116.03"/>
</a>
</g>
</g>
<!-- Node9 -->
<g id="Node000009" class="node">
<title>Node9</title>
<g id="a_Node000009"><a xlink:href="spreader_8cpp.html" target="_top" xlink:title=" ">
<polygon fill="white" stroke="#666666" points="840.5,-74 697.5,-74 697.5,-55 840.5,-55 840.5,-74"/>
<text text-anchor="middle" x="769" y="-62" font-family="Helvetica,sans-Serif" font-size="10.00">src/Spreader/spreader.cpp</text>
</a>
</g>
</g>
<!-- Node6&#45;&gt;Node9 -->
<g id="edge8_Node000006_Node000009" class="edge">
<title>Node6&#45;&gt;Node9</title>
<g id="a_edge8_Node000006_Node000009"><a xlink:title=" ">
<path fill="none" stroke="#63b8ff" d="M769,-105.16C769,-94.74 769,-82.3 769,-74.17"/>
<polygon fill="#63b8ff" stroke="#63b8ff" points="765.5,-105.37 769,-115.37 772.5,-105.37 765.5,-105.37"/>
</a>
</g>
</g>
<!-- Node7&#45;&gt;Node8 -->
<g id="edge7_Node000007_Node000008" class="edge">
<title>Node7&#45;&gt;Node8</title>
<g id="a_edge7_Node000007_Node000008"><a xlink:title=" ">
<path fill="none" stroke="#63b8ff" d="M624.63,-57.73C726.53,-46.97 943.33,-24.09 1032.46,-14.67"/>
<polygon fill="#63b8ff" stroke="#63b8ff" points="624.13,-54.27 614.55,-58.8 624.86,-61.23 624.13,-54.27"/>
</a>
</g>
</g>
<!-- Node11&#45;&gt;Node5 -->
<g id="edge12_Node000011_Node000005" class="edge">
<title>Node11&#45;&gt;Node5</title>
<g id="a_edge12_Node000011_Node000005"><a xlink:title=" ">
<path fill="none" stroke="#63b8ff" d="M428.86,-281.87C413.71,-274.67 396.89,-264.21 386,-250 373.36,-233.52 370.1,-208.38 369.27,-195.22"/>
<polygon fill="#63b8ff" stroke="#63b8ff" points="427.44,-285.07 438,-285.94 430.28,-278.68 427.44,-285.07"/>
</a>
</g>
</g>
<!-- Node11&#45;&gt;Node7 -->
<g id="edge17_Node000011_Node000007" class="edge">
<title>Node11&#45;&gt;Node7</title>
<g id="a_edge17_Node000011_Node000007"><a xlink:title=" ">
<path fill="none" stroke="#63b8ff" d="M499.27,-282.01C514.49,-274.95 530.95,-264.56 541,-250 580.42,-192.89 574.2,-102.33 571.1,-74.16"/>
<polygon fill="#63b8ff" stroke="#63b8ff" points="497.83,-278.82 490.03,-285.99 500.6,-285.25 497.83,-278.82"/>
</a>
</g>
</g>
<!-- Node11&#45;&gt;Node12 -->
<g id="edge13_Node000011_Node000012" class="edge">
<title>Node11&#45;&gt;Node12</title>
<g id="a_edge13_Node000011_Node000012"><a xlink:title=" ">
<path fill="none" stroke="#63b8ff" d="M527.77,-284.43C591.8,-274.48 688.69,-259.42 749.07,-250.04"/>
<polygon fill="#63b8ff" stroke="#63b8ff" points="527.13,-280.99 517.79,-285.98 528.21,-287.91 527.13,-280.99"/>
</a>
</g>
</g>
<!-- Node14 -->
<g id="Node000014" class="node">
<title>Node14</title>
<g id="a_Node000014"><a xlink:href="dutDriver_8cpp.html" target="_top" xlink:title=" ">
<polygon fill="white" stroke="#666666" points="531.5,-250 394.5,-250 394.5,-231 531.5,-231 531.5,-250"/>
<text text-anchor="middle" x="463" y="-238" font-family="Helvetica,sans-Serif" font-size="10.00">src/Drivers/dutDriver.cpp</text>
</a>
</g>
</g>
<!-- Node11&#45;&gt;Node14 -->
<g id="edge18_Node000011_Node000014" class="edge">
<title>Node11&#45;&gt;Node14</title>
<g id="a_edge18_Node000011_Node000014"><a xlink:title=" ">
<path fill="none" stroke="#63b8ff" d="M463,-275.66C463,-266.93 463,-256.99 463,-250.09"/>
<polygon fill="#63b8ff" stroke="#63b8ff" points="459.5,-275.75 463,-285.75 466.5,-275.75 459.5,-275.75"/>
</a>
</g>
</g>
<!-- Node12&#45;&gt;Node5 -->
<g id="edge14_Node000012_Node000005" class="edge">
<title>Node12&#45;&gt;Node5</title>
<g id="a_edge14_Node000012_Node000005"><a xlink:title=" ">
<path fill="none" stroke="#63b8ff" d="M724.17,-229.77C640.78,-219.61 511.53,-203.87 434.1,-194.43"/>
<polygon fill="#63b8ff" stroke="#63b8ff" points="723.76,-233.25 734.11,-230.98 724.61,-226.3 723.76,-233.25"/>
</a>
</g>
</g>
<!-- Node12&#45;&gt;Node7 -->
<g id="edge15_Node000012_Node000007" class="edge">
<title>Node12&#45;&gt;Node7</title>
<g id="a_edge15_Node000012_Node000007"><a xlink:title=" ">
<path fill="none" stroke="#63b8ff" d="M822.53,-223.54C835.89,-210.09 849.69,-190.74 838,-176 794.32,-120.93 748.2,-168.62 684,-140 662.72,-130.51 660.43,-122.86 641,-110 621.59,-97.16 598.71,-82.98 584.28,-74.16"/>
<polygon fill="#63b8ff" stroke="#63b8ff" points="819.8,-221.3 814.91,-230.7 824.59,-226.4 819.8,-221.3"/>
</a>
</g>
</g>
<!-- Node13 -->
<g id="Node000013" class="node">
<title>Node13</title>
<g id="a_Node000013"><a xlink:href="refDriver_8cpp.html" target="_top" xlink:title=" ">
<polygon fill="white" stroke="#666666" points="828.5,-195 693.5,-195 693.5,-176 828.5,-176 828.5,-195"/>
<text text-anchor="middle" x="761" y="-183" font-family="Helvetica,sans-Serif" font-size="10.00">src/Drivers/refDriver.cpp</text>
</a>
</g>
</g>
<!-- Node12&#45;&gt;Node13 -->
<g id="edge16_Node000012_Node000013" class="edge">
<title>Node12&#45;&gt;Node13</title>
<g id="a_edge16_Node000012_Node000013"><a xlink:title=" ">
<path fill="none" stroke="#63b8ff" d="M790.58,-222.96C783.09,-213.72 774.06,-202.6 767.97,-195.09"/>
<polygon fill="#63b8ff" stroke="#63b8ff" points="787.88,-225.19 796.9,-230.75 793.32,-220.78 787.88,-225.19"/>
</a>
</g>
</g>
<!-- Node15&#45;&gt;Node6 -->
<g id="edge28_Node000015_Node000006" class="edge">
<title>Node15&#45;&gt;Node6</title>
<g id="a_edge28_Node000015_Node000006"><a xlink:title=" ">
<path fill="none" stroke="#63b8ff" d="M703.01,-402.32C717.23,-394.9 730.7,-384.74 739,-371 785.48,-294.01 640.56,-254.18 685,-176 696.83,-155.2 721.11,-142.14 740.54,-134.61"/>
<polygon fill="#63b8ff" stroke="#63b8ff" points="701.12,-399.35 693.61,-406.82 704.14,-405.67 701.12,-399.35"/>
</a>
</g>
</g>
<!-- Node15&#45;&gt;Node7 -->
<g id="edge29_Node000015_Node000007" class="edge">
<title>Node15&#45;&gt;Node7</title>
<g id="a_edge29_Node000015_Node000007"><a xlink:title=" ">
<path fill="none" stroke="#63b8ff" d="M588.58,-402.45C574.53,-394.97 561.13,-384.75 553,-371 546.21,-359.52 552,-354.3 553,-341 557.9,-275.56 570.1,-260.44 575,-195 577.82,-157.33 577.11,-147.72 575,-110 574.3,-97.43 572.48,-82.95 571.24,-74.01"/>
<polygon fill="#63b8ff" stroke="#63b8ff" points="587.34,-405.74 597.86,-406.99 590.41,-399.45 587.34,-405.74"/>
</a>
</g>
</g>
<!-- Node15&#45;&gt;Node11 -->
<g id="edge21_Node000015_Node000011" class="edge">
<title>Node15&#45;&gt;Node11</title>
<g id="a_edge21_Node000015_Node000011"><a xlink:title=" ">
<path fill="none" stroke="#63b8ff" d="M582.39,-403.52C561.31,-395.7 538.42,-385.02 520,-371 495.38,-352.26 475.91,-320.3 467.5,-305.07"/>
<polygon fill="#63b8ff" stroke="#63b8ff" points="581.32,-406.86 591.92,-406.92 583.67,-400.27 581.32,-406.86"/>
</a>
</g>
</g>
<!-- Node15&#45;&gt;Node12 -->
<g id="edge22_Node000015_Node000012" class="edge">
<title>Node15&#45;&gt;Node12</title>
<g id="a_edge22_Node000015_Node000012"><a xlink:title=" ">
<path fill="none" stroke="#63b8ff" d="M723.59,-404.02C741.82,-396.65 759.49,-386.09 772,-371 796.54,-341.41 777.91,-323.09 788,-286 791.45,-273.32 796.84,-259.11 800.39,-250.23"/>
<polygon fill="#63b8ff" stroke="#63b8ff" points="722.18,-400.82 714.04,-407.6 724.63,-407.37 722.18,-400.82"/>
</a>
</g>
</g>
<!-- Node15&#45;&gt;Node16 -->
<g id="edge23_Node000015_Node000016" class="edge">
<title>Node15&#45;&gt;Node16</title>
<g id="a_edge23_Node000015_Node000016"><a xlink:title=" ">
<path fill="none" stroke="#63b8ff" d="M709.68,-404.45C750.83,-394.08 803.29,-380.86 842.39,-371.01"/>
<polygon fill="#63b8ff" stroke="#63b8ff" points="708.58,-401.12 699.74,-406.95 710.29,-407.91 708.58,-401.12"/>
</a>
</g>
</g>
<!-- Node18 -->
<g id="Node000018" class="node">
<title>Node18</title>
<g id="a_Node000018"><a xlink:href="simulatorDriver_8cpp.html" target="_top" xlink:title=" ">
<polygon fill="white" stroke="#666666" points="730,-365.5 562,-365.5 562,-346.5 730,-346.5 730,-365.5"/>
<text text-anchor="middle" x="646" y="-353.5" font-family="Helvetica,sans-Serif" font-size="10.00">src/Drivers/simulatorDriver.cpp</text>
</a>
</g>
</g>
<!-- Node15&#45;&gt;Node18 -->
<g id="edge30_Node000015_Node000018" class="edge">
<title>Node15&#45;&gt;Node18</title>
<g id="a_edge30_Node000015_Node000018"><a xlink:title=" ">
<path fill="none" stroke="#63b8ff" d="M644.76,-396.6C645.1,-385.8 645.48,-373.78 645.72,-365.84"/>
<polygon fill="#63b8ff" stroke="#63b8ff" points="641.26,-396.69 644.44,-406.8 648.25,-396.91 641.26,-396.69"/>
</a>
</g>
</g>
<!-- Node16&#45;&gt;Node7 -->
<g id="edge26_Node000016_Node000007" class="edge">
<title>Node16&#45;&gt;Node7</title>
<g id="a_edge26_Node000016_Node000007"><a xlink:title=" ">
<path fill="none" stroke="#63b8ff" d="M851.24,-337.12C831.12,-328.58 807.74,-317.5 788,-305 756.03,-284.76 749.63,-276.89 723,-250 660.64,-187.02 596.13,-101.12 576.22,-74.04"/>
<polygon fill="#63b8ff" stroke="#63b8ff" points="849.95,-340.37 860.53,-340.98 852.63,-333.91 849.95,-340.37"/>
</a>
</g>
</g>
<!-- Node16&#45;&gt;Node11 -->
<g id="edge24_Node000016_Node000011" class="edge">
<title>Node16&#45;&gt;Node11</title>
<g id="a_edge24_Node000016_Node000011"><a xlink:title=" ">
<path fill="none" stroke="#63b8ff" d="M813.68,-343.66C729.56,-332.35 602.24,-315.23 526.37,-305.02"/>
<polygon fill="#63b8ff" stroke="#63b8ff" points="813.34,-347.15 823.72,-345.01 814.27,-340.21 813.34,-347.15"/>
</a>
</g>
</g>
<!-- Node16&#45;&gt;Node12 -->
<g id="edge25_Node000016_Node000012" class="edge">
<title>Node16&#45;&gt;Node12</title>
<g id="a_edge25_Node000016_Node000012"><a xlink:title=" ">
<path fill="none" stroke="#63b8ff" d="M835.52,-336.74C820.71,-329.33 806.7,-319.08 798,-305 787.4,-287.86 794.91,-262.99 800.13,-250.05"/>
<polygon fill="#63b8ff" stroke="#63b8ff" points="834.25,-340.01 844.8,-340.99 837.17,-333.65 834.25,-340.01"/>
</a>
</g>
</g>
<!-- Node17 -->
<g id="Node000017" class="node">
<title>Node17</title>
<g id="a_Node000017"><a xlink:href="transDriverModel_8cpp.html" target="_top" xlink:title=" ">
<polygon fill="white" stroke="#666666" points="983.5,-305 806.5,-305 806.5,-286 983.5,-286 983.5,-305"/>
<text text-anchor="middle" x="895" y="-293" font-family="Helvetica,sans-Serif" font-size="10.00">src/Drivers/transDriverModel.cpp</text>
</a>
</g>
</g>
<!-- Node16&#45;&gt;Node17 -->
<g id="edge27_Node000016_Node000017" class="edge">
<title>Node16&#45;&gt;Node17</title>
<g id="a_edge27_Node000016_Node000017"><a xlink:title=" ">
<path fill="none" stroke="#63b8ff" d="M896.76,-330.75C896.29,-321.72 895.8,-312.03 895.45,-305.27"/>
<polygon fill="#63b8ff" stroke="#63b8ff" points="893.27,-331.03 897.27,-340.84 900.26,-330.67 893.27,-331.03"/>
</a>
</g>
</g>
<!-- Node19&#45;&gt;Node7 -->
<g id="edge33_Node000019_Node000007" class="edge">
<title>Node19&#45;&gt;Node7</title>
<g id="a_edge33_Node000019_Node000007"><a xlink:title=" ">
<path fill="none" stroke="#63b8ff" d="M165.47,-462.75C167.24,-438.39 170,-394.55 170,-357 170,-357 170,-357 170,-184.5 170,-148.81 171.67,-131.71 200,-110 250.01,-71.68 438.06,-65.91 525.18,-65.34"/>
<polygon fill="#63b8ff" stroke="#63b8ff" points="161.97,-462.52 164.71,-472.75 168.95,-463.04 161.97,-462.52"/>
</a>
</g>
</g>
<!-- Node20&#45;&gt;Node15 -->
<g id="edge35_Node000020_Node000015" class="edge">
<title>Node20&#45;&gt;Node15</title>
<g id="a_edge35_Node000020_Node000015"><a xlink:title=" ">
<path fill="none" stroke="#63b8ff" d="M842.64,-470.62C803.14,-461.16 745.64,-447.37 702.66,-437.06"/>
<polygon fill="#63b8ff" stroke="#63b8ff" points="841.98,-474.07 852.52,-472.99 843.61,-467.26 841.98,-474.07"/>
</a>
</g>
</g>
<!-- Node21 -->
<g id="Node000021" class="node">
<title>Node21</title>
<g id="a_Node000021"><a xlink:href="simulator_8cpp.html" target="_top" xlink:title=" ">
<polygon fill="white" stroke="#666666" points="963,-431.5 813,-431.5 813,-412.5 963,-412.5 963,-431.5"/>
<text text-anchor="middle" x="888" y="-419.5" font-family="Helvetica,sans-Serif" font-size="10.00">src/Simulator/simulator.cpp</text>
</a>
</g>
</g>
<!-- Node20&#45;&gt;Node21 -->
<g id="edge36_Node000020_Node000021" class="edge">
<title>Node20&#45;&gt;Node21</title>
<g id="a_edge36_Node000020_Node000021"><a xlink:title=" ">
<path fill="none" stroke="#63b8ff" d="M888,-462.66C888,-452.24 888,-439.8 888,-431.67"/>
<polygon fill="#63b8ff" stroke="#63b8ff" points="884.5,-462.87 888,-472.87 891.5,-462.87 884.5,-462.87"/>
</a>
</g>
</g>
<!-- Node24&#45;&gt;Node6 -->
<g id="edge45_Node000024_Node000006" class="edge">
<title>Node24&#45;&gt;Node6</title>
<g id="a_edge45_Node000024_Node000006"><a xlink:title=" ">
<path fill="none" stroke="#63b8ff" d="M1030.86,-174.17C969.53,-162.89 872.43,-145.03 815.3,-134.52"/>
<polygon fill="#63b8ff" stroke="#63b8ff" points="1030.29,-177.63 1040.76,-175.99 1031.56,-170.74 1030.29,-177.63"/>
</a>
</g>
</g>
<!-- Node24&#45;&gt;Node7 -->
<g id="edge46_Node000024_Node000007" class="edge">
<title>Node24&#45;&gt;Node7</title>
<g id="a_edge46_Node000024_Node000007"><a xlink:title=" ">
<path fill="none" stroke="#63b8ff" d="M1005.46,-174.19C969.45,-167.57 927.36,-156.92 892,-140 872.59,-130.71 873.72,-118.61 854,-110 811.92,-91.62 683.62,-76.67 614.77,-69.72"/>
<polygon fill="#63b8ff" stroke="#63b8ff" points="1004.99,-177.66 1015.45,-175.95 1006.21,-170.77 1004.99,-177.66"/>
</a>
</g>
</g>
<!-- Node25 -->
<g id="Node000025" class="node">
<title>Node25</title>
<g id="a_Node000025"><a xlink:href="database_8cpp.html" target="_top" xlink:title=" ">
<polygon fill="white" stroke="#666666" points="1049.5,-134.5 900.5,-134.5 900.5,-115.5 1049.5,-115.5 1049.5,-134.5"/>
<text text-anchor="middle" x="975" y="-122.5" font-family="Helvetica,sans-Serif" font-size="10.00">src/Database/database.cpp</text>
</a>
</g>
</g>
<!-- Node24&#45;&gt;Node25 -->
<g id="edge47_Node000024_Node000025" class="edge">
<title>Node24&#45;&gt;Node25</title>
<g id="a_edge47_Node000024_Node000025"><a xlink:title=" ">
<path fill="none" stroke="#63b8ff" d="M1061.59,-171.23C1040.14,-160.03 1010.07,-144.32 991.59,-134.67"/>
<polygon fill="#63b8ff" stroke="#63b8ff" points="1059.99,-174.34 1070.47,-175.87 1063.23,-168.14 1059.99,-174.34"/>
</a>
</g>
</g>
<!-- Node26 -->
<g id="Node000026" class="node">
<title>Node26</title>
<g id="a_Node000026"><a xlink:href="reporter_8cpp.html" target="_top" xlink:title=" ">
<polygon fill="white" stroke="#666666" points="1526.5,-134.5 1389.5,-134.5 1389.5,-115.5 1526.5,-115.5 1526.5,-134.5"/>
<text text-anchor="middle" x="1458" y="-122.5" font-family="Helvetica,sans-Serif" font-size="10.00">src/Reporter/reporter.cpp</text>
</a>
</g>
</g>
<!-- Node24&#45;&gt;Node26 -->
<g id="edge48_Node000024_Node000026" class="edge">
<title>Node24&#45;&gt;Node26</title>
<g id="a_edge48_Node000024_Node000026"><a xlink:title=" ">
<path fill="none" stroke="#63b8ff" d="M1156.83,-174.53C1216.45,-165.87 1304.46,-152.75 1381,-140 1391.19,-138.3 1402.11,-136.38 1412.44,-134.51"/>
<polygon fill="#63b8ff" stroke="#63b8ff" points="1156.16,-171.09 1146.77,-175.98 1157.17,-178.01 1156.16,-171.09"/>
</a>
</g>
</g>
<!-- Node27 -->
<g id="Node000027" class="node">
<title>Node27</title>
<g id="a_Node000027"><a xlink:href="generatorHelper_8cpp.html" target="_top" xlink:title=" ">
<polygon fill="white" stroke="#666666" points="1186.5,-140 1067.5,-140 1067.5,-110 1186.5,-110 1186.5,-140"/>
<text text-anchor="start" x="1075.5" y="-128" font-family="Helvetica,sans-Serif" font-size="10.00">src/TestGenerator/src</text>
<text text-anchor="middle" x="1127" y="-117" font-family="Helvetica,sans-Serif" font-size="10.00">/generatorHelper.cpp</text>
</a>
</g>
</g>
<!-- Node24&#45;&gt;Node27 -->
<g id="edge49_Node000024_Node000027" class="edge">
<title>Node24&#45;&gt;Node27</title>
<g id="a_edge49_Node000024_Node000027"><a xlink:title=" ">
<path fill="none" stroke="#63b8ff" d="M1098.55,-167.61C1104.51,-158.89 1111.69,-148.39 1117.35,-140.11"/>
<polygon fill="#63b8ff" stroke="#63b8ff" points="1095.66,-165.64 1092.9,-175.87 1101.44,-169.59 1095.66,-165.64"/>
</a>
</g>
</g>
<!-- Node24&#45;&gt;Node28 -->
<g id="edge50_Node000024_Node000028" class="edge">
<title>Node24&#45;&gt;Node28</title>
<g id="a_edge50_Node000024_Node000028"><a xlink:title=" ">
<path fill="none" stroke="#63b8ff" d="M1126.14,-173.11C1165.02,-161.79 1223.74,-144.7 1258.74,-134.52"/>
<polygon fill="#63b8ff" stroke="#63b8ff" points="1124.85,-169.84 1116.23,-175.99 1126.81,-176.56 1124.85,-169.84"/>
</a>
</g>
</g>
<!-- Node29&#45;&gt;Node6 -->
<g id="edge58_Node000029_Node000006" class="edge">
<title>Node29&#45;&gt;Node6</title>
<g id="a_edge58_Node000029_Node000006"><a xlink:title=" ">
<path fill="none" stroke="#63b8ff" d="M1293.4,-177.39C1196.7,-169.03 1032.74,-154.46 892,-140 875.64,-138.32 858.08,-136.39 841.49,-134.52"/>
<polygon fill="#63b8ff" stroke="#63b8ff" points="1293.15,-180.88 1303.41,-178.25 1293.75,-173.9 1293.15,-180.88"/>
</a>
</g>
</g>
<!-- Node29&#45;&gt;Node7 -->
<g id="edge59_Node000029_Node000007" class="edge">
<title>Node29&#45;&gt;Node7</title>
<g id="a_edge59_Node000029_Node000007"><a xlink:title=" ">
<path fill="none" stroke="#63b8ff" d="M1450.41,-174.14C1506.09,-163.41 1568.04,-143.43 1536,-110 1503.41,-76 736.02,-76.68 689,-74 664.39,-72.6 636.95,-70.66 614.62,-68.99"/>
<polygon fill="#63b8ff" stroke="#63b8ff" points="1449.67,-170.72 1440.47,-175.97 1450.94,-177.6 1449.67,-170.72"/>
</a>
</g>
</g>
<!-- Node29&#45;&gt;Node26 -->
<g id="edge60_Node000029_Node000026" class="edge">
<title>Node29&#45;&gt;Node26</title>
<g id="a_edge60_Node000029_Node000026"><a xlink:title=" ">
<path fill="none" stroke="#63b8ff" d="M1397.29,-169.85C1412.63,-158.77 1433.18,-143.93 1446,-134.67"/>
<polygon fill="#63b8ff" stroke="#63b8ff" points="1395.01,-167.18 1388.95,-175.87 1399.11,-172.85 1395.01,-167.18"/>
</a>
</g>
</g>
</g>
</svg>

<g id="navigator" transform="translate(0 0)" fill="#404254">
  <rect fill="#f2f5e9" fill-opacity="0.5" stroke="#606060" stroke-width=".5" x="0" y="0" width="60" height="60"/>
  <use id="zoomplus" xlink:href="#zoomPlus" x="17" y="9" onmousedown="handleZoom(evt,'in')"/>
  <use id="zoomminus" xlink:href="#zoomMin" x="42" y="9" onmousedown="handleZoom(evt,'out')"/>
  <use id="reset" xlink:href="#resetDef" x="30" y="36" onmousedown="handleReset()"/>
   <use id="arrowup" xlink:href="#arrowUp" x="0" y="0" onmousedown="handlePan(0,-1)"/>
  <use id="arrowright" xlink:href="#arrowRight" x="0" y="0" onmousedown="handlePan(1,0)"/>
  <use id="arrowdown" xlink:href="#arrowDown" x="0" y="0" onmousedown="handlePan(0,1)"/>
  <use id="arrowleft" xlink:href="#arrowLeft" x="0" y="0" onmousedown="handlePan(-1,0)"/>
</g>
<svg viewBox="0 0 15 15" width="100%" height="30px" preserveAspectRatio="xMaxYMin meet">
 <g id="arrow_out" transform="scale(0.3 0.3)">
  <a xlink:href="evaluate_8h__dep__incl_org.svg" target="_base">
   <rect id="button" ry="5" rx="5" y="6" x="6" height="38" width="38"
        fill="#f2f5e9" fill-opacity="0.5" stroke="#606060" stroke-width="1.0"/>
   <path id="arrow"
     d="M 11.500037,31.436501 C 11.940474,20.09759 22.043105,11.32322 32.158766,21.979434 L 37.068811,17.246167 C 37.068811,17.246167 37.088388,32 37.088388,32 L 22.160133,31.978069 C 22.160133,31.978069 26.997745,27.140456 26.997745,27.140456 C 18.528582,18.264221 13.291696,25.230495 11.500037,31.436501 z"
     style="fill:#404040;"/>
  </a>
 </g>
</svg>

<style type='text/css'>
<![CDATA[
[data-mouse-over-selected='false'] { opacity: 0.7; }
[data-mouse-over-selected='true']  { opacity: 1.0; }
]]>
</style>
<script type="application/ecmascript"><![CDATA[
document.addEventListener('DOMContentLoaded', (event) => {
  highlightEdges();
  highlightAdjacentNodes();
});
]]></script>
</svg>
