<?xml version="1.0" encoding="UTF-8" standalone="no"?>
<!DOCTYPE svg PUBLIC "-//W3C//DTD SVG 1.1//EN"
 "http://www.w3.org/Graphics/SVG/1.1/DTD/svg11.dtd">
<!-- Generated by graphviz version 2.43.0 (0)
 -->
<!-- Title: include/Evaluator/evaluate.h Pages: 1 -->
<!--zoomable 731 -->

<svg id="main" version="1.1" xmlns="http://www.w3.org/2000/svg" xmlns:xlink="http://www.w3.org/1999/xlink" xml:space="preserve" onload="init(evt)">
<style type="text/css"><![CDATA[
.node, .edge {opacity: 0.7;}
.node.selected, .edge.selected {opacity: 1;}
.edge:hover path { stroke: red; }
.edge:hover polygon { stroke: red; fill: red; }
]]></style>

<defs>
  <circle id="rim" cx="0" cy="0" r="7"/>
  <circle id="rim2" cx="0" cy="0" r="3.5"/>
  <g id="zoomPlus">
    <use xlink:href="#rim" fill="#404040"><set attributeName="fill" to="#808080" begin="zoomplus.mouseover" end="zoomplus.mouseout"/></use>
    <path d="M-4,0h8M0,-4v8" fill="none" stroke="white" stroke-width="1.5" pointer-events="none"/>
  </g>
  <g id="zoomMin">
    <use xlink:href="#rim" fill="#404040"><set attributeName="fill" to="#808080" begin="zoomminus.mouseover" end="zoomminus.mouseout"/></use>
    <path d="M-4,0h8" fill="none" stroke="white" stroke-width="1.5" pointer-events="none"/>
  </g>
  <g id="arrowUp" transform="translate(30 24)">
    <use xlink:href="#rim"/>
    <path pointer-events="none" fill="none" stroke="white" stroke-width="1.5" d="M0,-3.0v7 M-2.5,-0.5L0,-3.0L2.5,-0.5"/>
  </g>
  <g id="arrowRight" transform="rotate(90) translate(36 -43)">
    <use xlink:href="#rim"/>
    <path pointer-events="none" fill="none" stroke="white" stroke-width="1.5" d="M0,-3.0v7 M-2.5,-0.5L0,-3.0L2.5,-0.5"/>
  </g>
  <g id="arrowDown" transform="rotate(180) translate(-30 -48)">
    <use xlink:href="#rim"/>
    <path pointer-events="none" fill="none" stroke="white" stroke-width="1.5" d="M0,-3.0v7 M-2.5,-0.5L0,-3.0L2.5,-0.5"/>
  </g>
  <g id="arrowLeft" transform="rotate(270) translate(-36 17)">
    <use xlink:href="#rim"/>
    <path pointer-events="none" fill="none" stroke="white" stroke-width="1.5" d="M0,-3.0v7 M-2.5,-0.5L0,-3.0L2.5,-0.5"/>
  </g>
  <g id="resetDef">
    <use xlink:href="#rim2" fill="#404040"><set attributeName="fill" to="#808080" begin="reset.mouseover" end="reset.mouseout"/></use>
  </g>
</defs>
<script type="application/ecmascript">
var viewWidth = 2040;
var viewHeight = 731;
var sectionId = 'dynsection-1';
</script>
<script type="application/ecmascript" xlink:href="svg.min.js"/>
<svg id="graph" class="graph">
<g id="viewport">
<title>include/Evaluator/evaluate.h</title>
<!-- Node1 -->
<g id="Node000001" class="node">
<title>Node1</title>
<g id="a_Node000001"><a xlink:title=" ">
<polygon fill="#999999" stroke="#666666" points="1516,-723 1360,-723 1360,-704 1516,-704 1516,-723"/>
<text text-anchor="middle" x="1438" y="-711" font-family="Helvetica,sans-Serif" font-size="10.00">include/Evaluator/evaluate.h</text>
</a>
</g>
</g>
<!-- Node2 -->
<g id="Node000002" class="node">
<title>Node2</title>
<g id="a_Node000002"><a xlink:href="transaction_8h_source.html" target="_top" xlink:title=" ">
<polygon fill="white" stroke="#666666" points="1089,-668 979,-668 979,-638 1089,-638 1089,-668"/>
<text text-anchor="start" x="987" y="-656" font-family="Helvetica,sans-Serif" font-size="10.00">include/Transaction</text>
<text text-anchor="middle" x="1034" y="-645" font-family="Helvetica,sans-Serif" font-size="10.00">/transaction.h</text>
</a>
</g>
</g>
<!-- Node1&#45;&gt;Node2 -->
<g id="edge1_Node000001_Node000002" class="edge">
<title>Node1&#45;&gt;Node2</title>
<g id="a_edge1_Node000001_Node000002"><a xlink:title=" ">
<path fill="none" stroke="#63b8ff" d="M1368.91,-702.5C1289.86,-691.05 1161.98,-672.53 1089.25,-662"/>
<polygon fill="#63b8ff" stroke="#63b8ff" points="1368.86,-706.02 1379.25,-703.99 1369.86,-699.1 1368.86,-706.02"/>
</a>
</g>
</g>
<!-- Node7 -->
<g id="Node000007" class="node">
<title>Node7</title>
<g id="a_Node000007"><a xlink:href="mlvp_8h.html" target="_top" xlink:title=" ">
<polygon fill="white" stroke="#666666" points="738.5,-74 649.5,-74 649.5,-55 738.5,-55 738.5,-74"/>
<text text-anchor="middle" x="694" y="-62" font-family="Helvetica,sans-Serif" font-size="10.00">include/mlvp.h</text>
</a>
</g>
</g>
<!-- Node1&#45;&gt;Node7 -->
<g id="edge70_Node000001_Node000007" class="edge">
<title>Node1&#45;&gt;Node7</title>
<g id="a_edge70_Node000001_Node000007"><a xlink:title=" ">
<path fill="none" stroke="#63b8ff" d="M1349.54,-709.83C1036.51,-699.83 0,-661.56 0,-593.5 0,-593.5 0,-593.5 0,-355 0,-212.45 73.42,-159.78 207,-110 287.45,-80.02 544.75,-69.64 649.25,-66.6"/>
<polygon fill="#63b8ff" stroke="#63b8ff" points="1349.82,-713.35 1359.92,-710.16 1350.04,-706.35 1349.82,-713.35"/>
</a>
</g>
</g>
<!-- Node8 -->
<g id="Node000008" class="node">
<title>Node8</title>
<g id="a_Node000008"><a xlink:href="main_8cpp.html" target="_top" xlink:title=" ">
<polygon fill="white" stroke="#666666" points="892.5,-19 813.5,-19 813.5,0 892.5,0 892.5,-19"/>
<text text-anchor="middle" x="853" y="-7" font-family="Helvetica,sans-Serif" font-size="10.00">src/main.cpp</text>
</a>
</g>
</g>
<!-- Node1&#45;&gt;Node8 -->
<g id="edge72_Node000001_Node000008" class="edge">
<title>Node1&#45;&gt;Node8</title>
<g id="a_edge72_Node000001_Node000008"><a xlink:title=" ">
<path fill="none" stroke="#63b8ff" d="M1526.19,-705.39C1649.37,-692.98 1858,-661.87 1858,-593.5 1858,-593.5 1858,-593.5 1858,-124 1858,-110.27 1902.68,-102.8 1733,-55 1571.77,-9.58 1042.39,-9.3 892.73,-10.17"/>
<polygon fill="#63b8ff" stroke="#63b8ff" points="1525.62,-701.93 1516.01,-706.39 1526.31,-708.89 1525.62,-701.93"/>
</a>
</g>
</g>
<!-- Node30 -->
<g id="Node000030" class="node">
<title>Node30</title>
<g id="a_Node000030"><a xlink:href="evaluate_8cpp.html" target="_top" xlink:title=" ">
<polygon fill="white" stroke="#666666" points="2032,-662.5 1886,-662.5 1886,-643.5 2032,-643.5 2032,-662.5"/>
<text text-anchor="middle" x="1959" y="-650.5" font-family="Helvetica,sans-Serif" font-size="10.00">src/Evaluator/evaluate.cpp</text>
</a>
</g>
</g>
<!-- Node1&#45;&gt;Node30 -->
<g id="edge71_Node000001_Node000030" class="edge">
<title>Node1&#45;&gt;Node30</title>
<g id="a_edge71_Node000001_Node000030"><a xlink:title=" ">
<path fill="none" stroke="#63b8ff" d="M1526.35,-704.94C1614.17,-697.07 1752.63,-683.71 1872,-668 1883.98,-666.42 1896.85,-664.49 1908.93,-662.56"/>
<polygon fill="#63b8ff" stroke="#63b8ff" points="1525.82,-701.47 1516.17,-705.85 1526.44,-708.44 1525.82,-701.47"/>
</a>
</g>
</g>
<!-- Node3 -->
<g id="Node000003" class="node">
<title>Node3</title>
<g id="a_Node000003"><a xlink:href="channel_8h.html" target="_top" xlink:title=" ">
<polygon fill="white" stroke="#666666" points="511.5,-602 366.5,-602 366.5,-583 511.5,-583 511.5,-602"/>
<text text-anchor="middle" x="439" y="-590" font-family="Helvetica,sans-Serif" font-size="10.00">include/Channel/channel.h</text>
</a>
</g>
</g>
<!-- Node2&#45;&gt;Node3 -->
<g id="edge2_Node000002_Node000003" class="edge">
<title>Node2&#45;&gt;Node3</title>
<g id="a_edge2_Node000002_Node000003"><a xlink:title=" ">
<path fill="none" stroke="#63b8ff" d="M968.67,-645.58C856.58,-634.56 628.41,-612.12 511.54,-600.63"/>
<polygon fill="#63b8ff" stroke="#63b8ff" points="968.53,-649.08 978.82,-646.58 969.21,-642.11 968.53,-649.08"/>
</a>
</g>
</g>
<!-- Node4 -->
<g id="Node000004" class="node">
<title>Node4</title>
<g id="a_Node000004"><a xlink:href="driverModel_8h.html" target="_top" xlink:title=" ">
<polygon fill="white" stroke="#666666" points="805.5,-547 644.5,-547 644.5,-528 805.5,-528 805.5,-547"/>
<text text-anchor="middle" x="725" y="-535" font-family="Helvetica,sans-Serif" font-size="10.00">include/Drivers/driverModel.h</text>
</a>
</g>
</g>
<!-- Node2&#45;&gt;Node4 -->
<g id="edge55_Node000002_Node000004" class="edge">
<title>Node2&#45;&gt;Node4</title>
<g id="a_edge55_Node000002_Node000004"><a xlink:title=" ">
<path fill="none" stroke="#63b8ff" d="M986.28,-634.47C919.08,-609.79 799.13,-565.73 748.53,-547.14"/>
<polygon fill="#63b8ff" stroke="#63b8ff" points="985.21,-637.81 995.8,-637.97 987.62,-631.24 985.21,-637.81"/>
</a>
</g>
</g>
<!-- Node5 -->
<g id="Node000005" class="node">
<title>Node5</title>
<g id="a_Node000005"><a xlink:href="driver_8h.html" target="_top" xlink:title=" ">
<polygon fill="white" stroke="#666666" points="566,-195 436,-195 436,-176 566,-176 566,-195"/>
<text text-anchor="middle" x="501" y="-183" font-family="Helvetica,sans-Serif" font-size="10.00">include/Drivers/driver.h</text>
</a>
</g>
</g>
<!-- Node2&#45;&gt;Node5 -->
<g id="edge54_Node000002_Node000005" class="edge">
<title>Node2&#45;&gt;Node5</title>
<g id="a_edge54_Node000002_Node000005"><a xlink:title=" ">
<path fill="none" stroke="#63b8ff" d="M968.82,-652.41C794.92,-652.85 323.24,-649.49 176,-602 125.89,-585.84 76,-591.15 76,-538.5 76,-538.5 76,-538.5 76,-421 76,-258.57 316.93,-207.8 435.99,-192.62"/>
<polygon fill="#63b8ff" stroke="#63b8ff" points="968.86,-655.91 978.85,-652.38 968.84,-648.91 968.86,-655.91"/>
</a>
</g>
</g>
<!-- Node6 -->
<g id="Node000006" class="node">
<title>Node6</title>
<g id="a_Node000006"><a xlink:href="spreader_8h.html" target="_top" xlink:title=" ">
<polygon fill="white" stroke="#666666" points="1560,-134.5 1408,-134.5 1408,-115.5 1560,-115.5 1560,-134.5"/>
<text text-anchor="middle" x="1484" y="-122.5" font-family="Helvetica,sans-Serif" font-size="10.00">include/Spreader/spreader.h</text>
</a>
</g>
</g>
<!-- Node2&#45;&gt;Node6 -->
<g id="edge66_Node000002_Node000006" class="edge">
<title>Node2&#45;&gt;Node6</title>
<g id="a_edge66_Node000002_Node000006"><a xlink:title=" ">
<path fill="none" stroke="#63b8ff" d="M1099.49,-645.03C1203.79,-632.1 1396,-599.93 1396,-538.5 1396,-538.5 1396,-538.5 1396,-239.5 1396,-191.63 1445.5,-151.72 1470.25,-134.76"/>
<polygon fill="#63b8ff" stroke="#63b8ff" points="1098.88,-641.58 1089.37,-646.26 1099.72,-648.53 1098.88,-641.58"/>
</a>
</g>
</g>
<!-- Node2&#45;&gt;Node7 -->
<g id="edge67_Node000002_Node000007" class="edge">
<title>Node2&#45;&gt;Node7</title>
<g id="a_edge67_Node000002_Node000007"><a xlink:title=" ">
<path fill="none" stroke="#63b8ff" d="M968.96,-651.21C770.21,-648.42 179.61,-637.24 101,-602 64.72,-585.74 38,-578.26 38,-538.5 38,-538.5 38,-538.5 38,-355 38,-87.04 501.78,-65.02 649.43,-64.8"/>
<polygon fill="#63b8ff" stroke="#63b8ff" points="968.92,-654.71 978.96,-651.35 969.01,-647.71 968.92,-654.71"/>
</a>
</g>
</g>
<!-- Node2&#45;&gt;Node8 -->
<g id="edge69_Node000002_Node000008" class="edge">
<title>Node2&#45;&gt;Node8</title>
<g id="a_edge69_Node000002_Node000008"><a xlink:title=" ">
<path fill="none" stroke="#63b8ff" d="M1099.33,-649.41C1287.94,-641.07 1820,-611.1 1820,-538.5 1820,-538.5 1820,-538.5 1820,-124 1820,-41.22 1727.82,-72.88 1647,-55 1500.91,-22.68 1033.01,-13.19 892.97,-11.04"/>
<polygon fill="#63b8ff" stroke="#63b8ff" points="1099.11,-645.92 1089.27,-649.85 1099.41,-652.91 1099.11,-645.92"/>
</a>
</g>
</g>
<!-- Node11 -->
<g id="Node000011" class="node">
<title>Node11</title>
<g id="a_Node000011"><a xlink:href="dutDriver_8h.html" target="_top" xlink:title=" ">
<polygon fill="white" stroke="#666666" points="509.5,-305 362.5,-305 362.5,-286 509.5,-286 509.5,-305"/>
<text text-anchor="middle" x="436" y="-293" font-family="Helvetica,sans-Serif" font-size="10.00">include/Drivers/dutDriver.h</text>
</a>
</g>
</g>
<!-- Node2&#45;&gt;Node11 -->
<g id="edge56_Node000002_Node000011" class="edge">
<title>Node2&#45;&gt;Node11</title>
<g id="a_edge56_Node000002_Node000011"><a xlink:title=" ">
<path fill="none" stroke="#63b8ff" d="M968.68,-650.89C810.56,-647.67 410.74,-636.3 282,-602 219.87,-585.45 152,-602.8 152,-538.5 152,-538.5 152,-538.5 152,-481.5 152,-370.28 306.8,-322.45 387.82,-305.03"/>
<polygon fill="#63b8ff" stroke="#63b8ff" points="968.67,-654.39 978.74,-651.09 968.81,-647.39 968.67,-654.39"/>
</a>
</g>
</g>
<!-- Node12 -->
<g id="Node000012" class="node">
<title>Node12</title>
<g id="a_Node000012"><a xlink:href="refDriver_8h.html" target="_top" xlink:title=" ">
<polygon fill="white" stroke="#666666" points="764.5,-250 619.5,-250 619.5,-231 764.5,-231 764.5,-250"/>
<text text-anchor="middle" x="692" y="-238" font-family="Helvetica,sans-Serif" font-size="10.00">include/Drivers/refDriver.h</text>
</a>
</g>
</g>
<!-- Node2&#45;&gt;Node12 -->
<g id="edge57_Node000002_Node000012" class="edge">
<title>Node2&#45;&gt;Node12</title>
<g id="a_edge57_Node000002_Node000012"><a xlink:title=" ">
<path fill="none" stroke="#63b8ff" d="M1039.52,-627.95C1046.44,-592.53 1055.05,-524.94 1034,-473 979.54,-338.6 797.67,-272.07 723.7,-250.06"/>
<polygon fill="#63b8ff" stroke="#63b8ff" points="1036.06,-627.35 1037.45,-637.85 1042.92,-628.78 1036.06,-627.35"/>
</a>
</g>
</g>
<!-- Node16 -->
<g id="Node000016" class="node">
<title>Node16</title>
<g id="a_Node000016"><a xlink:href="transDriverModel_8h.html" target="_top" xlink:title=" ">
<polygon fill="white" stroke="#666666" points="818,-371 670,-371 670,-341 818,-341 818,-371"/>
<text text-anchor="start" x="678" y="-359" font-family="Helvetica,sans-Serif" font-size="10.00">include/Drivers/transDriver</text>
<text text-anchor="middle" x="744" y="-348" font-family="Helvetica,sans-Serif" font-size="10.00">Model.h</text>
</a>
</g>
</g>
<!-- Node2&#45;&gt;Node16 -->
<g id="edge58_Node000002_Node000016" class="edge">
<title>Node2&#45;&gt;Node16</title>
<g id="a_edge58_Node000002_Node000016"><a xlink:title=" ">
<path fill="none" stroke="#63b8ff" d="M1038.54,-627.82C1044.09,-590.66 1048.96,-518.99 1015,-473 968.56,-410.11 881.06,-380.97 818.03,-367.7"/>
<polygon fill="#63b8ff" stroke="#63b8ff" points="1035.07,-627.33 1036.91,-637.76 1041.98,-628.46 1035.07,-627.33"/>
</a>
</g>
</g>
<!-- Node19 -->
<g id="Node000019" class="node">
<title>Node19</title>
<g id="a_Node000019"><a xlink:href="ref_8h.html" target="_top" xlink:title=" ">
<polygon fill="white" stroke="#666666" points="1005.5,-492 886.5,-492 886.5,-473 1005.5,-473 1005.5,-492"/>
<text text-anchor="middle" x="946" y="-480" font-family="Helvetica,sans-Serif" font-size="10.00">include/RefPack/ref.h</text>
</a>
</g>
</g>
<!-- Node2&#45;&gt;Node19 -->
<g id="edge59_Node000002_Node000019" class="edge">
<title>Node2&#45;&gt;Node19</title>
<g id="a_edge59_Node000002_Node000019"><a xlink:title=" ">
<path fill="none" stroke="#63b8ff" d="M1021.81,-628.66C1002.01,-590.74 963.73,-517.45 950.57,-492.25"/>
<polygon fill="#63b8ff" stroke="#63b8ff" points="1018.92,-630.68 1026.65,-637.92 1025.12,-627.44 1018.92,-630.68"/>
</a>
</g>
</g>
<!-- Node20 -->
<g id="Node000020" class="node">
<title>Node20</title>
<g id="a_Node000020"><a xlink:href="simulator_8h.html" target="_top" xlink:title=" ">
<polygon fill="white" stroke="#666666" points="394,-492 234,-492 234,-473 394,-473 394,-492"/>
<text text-anchor="middle" x="314" y="-480" font-family="Helvetica,sans-Serif" font-size="10.00">include/Simulator/simulator.h</text>
</a>
</g>
</g>
<!-- Node2&#45;&gt;Node20 -->
<g id="edge65_Node000002_Node000020" class="edge">
<title>Node2&#45;&gt;Node20</title>
<g id="a_edge65_Node000002_Node000020"><a xlink:title=" ">
<path fill="none" stroke="#63b8ff" d="M968.8,-650.4C822.31,-646.29 471.01,-633.39 357,-602 304.3,-587.49 275.74,-593.5 247,-547 232.59,-523.69 267.33,-503.19 291.98,-492.14"/>
<polygon fill="#63b8ff" stroke="#63b8ff" points="968.9,-653.91 978.99,-650.68 969.09,-646.91 968.9,-653.91"/>
</a>
</g>
</g>
<!-- Node24 -->
<g id="Node000024" class="node">
<title>Node24</title>
<g id="a_Node000024"><a xlink:href="database_8h.html" target="_top" xlink:title=" ">
<polygon fill="white" stroke="#666666" points="1242,-195 1084,-195 1084,-176 1242,-176 1242,-195"/>
<text text-anchor="middle" x="1163" y="-183" font-family="Helvetica,sans-Serif" font-size="10.00">include/Database/database.h</text>
</a>
</g>
</g>
<!-- Node2&#45;&gt;Node24 -->
<g id="edge47_Node000002_Node000024" class="edge">
<title>Node2&#45;&gt;Node24</title>
<g id="a_edge47_Node000002_Node000024"><a xlink:title=" ">
<path fill="none" stroke="#63b8ff" d="M1078.53,-633.39C1114.44,-615.06 1159,-583.3 1159,-538.5 1159,-538.5 1159,-538.5 1159,-294.5 1159,-257.54 1161.37,-213.51 1162.46,-195.18"/>
<polygon fill="#63b8ff" stroke="#63b8ff" points="1076.6,-630.44 1069.15,-637.98 1079.67,-636.73 1076.6,-630.44"/>
</a>
</g>
</g>
<!-- Node28 -->
<g id="Node000028" class="node">
<title>Node28</title>
<g id="a_Node000028"><a xlink:href="transaction_8cpp.html" target="_top" xlink:title=" ">
<polygon fill="white" stroke="#666666" points="1047.5,-134.5 880.5,-134.5 880.5,-115.5 1047.5,-115.5 1047.5,-134.5"/>
<text text-anchor="middle" x="964" y="-122.5" font-family="Helvetica,sans-Serif" font-size="10.00">src/Transaction/transaction.cpp</text>
</a>
</g>
</g>
<!-- Node2&#45;&gt;Node28 -->
<g id="edge68_Node000002_Node000028" class="edge">
<title>Node2&#45;&gt;Node28</title>
<g id="a_edge68_Node000002_Node000028"><a xlink:title=" ">
<path fill="none" stroke="#63b8ff" d="M1047.59,-628.78C1051.71,-620.59 1055.75,-611.14 1058,-602 1063.86,-578.25 1059.56,-571.46 1060,-547 1062.56,-406.38 1066.89,-369.6 1043,-231 1038.75,-206.34 1044.55,-197.03 1031,-176 1018.9,-157.21 997.11,-142.93 981.67,-134.54"/>
<polygon fill="#63b8ff" stroke="#63b8ff" points="1044.44,-627.25 1042.81,-637.72 1050.61,-630.55 1044.44,-627.25"/>
</a>
</g>
</g>
<!-- Node29 -->
<g id="Node000029" class="node">
<title>Node29</title>
<g id="a_Node000029"><a xlink:href="reporter_8h.html" target="_top" xlink:title=" ">
<polygon fill="white" stroke="#666666" points="1720.5,-195 1573.5,-195 1573.5,-176 1720.5,-176 1720.5,-195"/>
<text text-anchor="middle" x="1647" y="-183" font-family="Helvetica,sans-Serif" font-size="10.00">include/Reporter/reporter.h</text>
</a>
</g>
</g>
<!-- Node2&#45;&gt;Node29 -->
<g id="edge60_Node000002_Node000029" class="edge">
<title>Node2&#45;&gt;Node29</title>
<g id="a_edge60_Node000002_Node000029"><a xlink:title=" ">
<path fill="none" stroke="#63b8ff" d="M1099.39,-642.66C1194.03,-627.27 1358,-592.77 1358,-538.5 1358,-538.5 1358,-538.5 1358,-481.5 1358,-327.71 1560.9,-224.53 1626.68,-195.12"/>
<polygon fill="#63b8ff" stroke="#63b8ff" points="1098.65,-639.23 1089.33,-644.26 1099.76,-646.14 1098.65,-639.23"/>
</a>
</g>
</g>
<!-- Node3&#45;&gt;Node4 -->
<g id="edge3_Node000003_Node000004" class="edge">
<title>Node3&#45;&gt;Node4</title>
<g id="a_edge3_Node000003_Node000004"><a xlink:title=" ">
<path fill="none" stroke="#63b8ff" d="M494.97,-581.13C548.59,-571.19 628.55,-556.37 678.69,-547.08"/>
<polygon fill="#63b8ff" stroke="#63b8ff" points="494.15,-577.72 484.95,-582.98 495.42,-584.6 494.15,-577.72"/>
</a>
</g>
</g>
<!-- Node3&#45;&gt;Node7 -->
<g id="edge44_Node000003_Node000007" class="edge">
<title>Node3&#45;&gt;Node7</title>
<g id="a_edge44_Node000003_Node000007"><a xlink:title=" ">
<path fill="none" stroke="#63b8ff" d="M364.12,-581.4C318.12,-573.84 264.72,-562.2 247,-547 198.06,-505.02 191.65,-469.1 209,-407 250.53,-258.34 260.35,-195.28 389,-110 430.87,-82.24 575.38,-71.26 649.45,-67.38"/>
<polygon fill="#63b8ff" stroke="#63b8ff" points="363.68,-584.87 374.11,-583 364.79,-577.96 363.68,-584.87"/>
</a>
</g>
</g>
<!-- Node3&#45;&gt;Node8 -->
<g id="edge46_Node000003_Node000008" class="edge">
<title>Node3&#45;&gt;Node8</title>
<g id="a_edge46_Node000003_Node000008"><a xlink:title=" ">
<path fill="none" stroke="#63b8ff" d="M361.67,-581.48C265.55,-566.82 114,-535.47 114,-483.5 114,-483.5 114,-483.5 114,-421 114,-246.2 94.02,-115.55 258,-55 360.4,-17.19 697.45,-11.48 813.4,-10.64"/>
<polygon fill="#63b8ff" stroke="#63b8ff" points="361.25,-584.96 371.66,-582.98 362.29,-578.04 361.25,-584.96"/>
</a>
</g>
</g>
<!-- Node3&#45;&gt;Node11 -->
<g id="edge41_Node000003_Node000011" class="edge">
<title>Node3&#45;&gt;Node11</title>
<g id="a_edge41_Node000003_Node000011"><a xlink:title=" ">
<path fill="none" stroke="#63b8ff" d="M434.41,-572.97C431.17,-560.25 426.6,-543.02 422,-528 405.2,-473.14 399.17,-459.92 377,-407 370.23,-390.85 364.63,-388.13 361,-371 358.23,-357.96 354.4,-352.59 361,-341 371.11,-323.24 391.42,-311.83 408.35,-305.02"/>
<polygon fill="#63b8ff" stroke="#63b8ff" points="431.05,-573.97 436.88,-582.82 437.84,-572.27 431.05,-573.97"/>
</a>
</g>
</g>
<!-- Node3&#45;&gt;Node19 -->
<g id="edge42_Node000003_Node000019" class="edge">
<title>Node3&#45;&gt;Node19</title>
<g id="a_edge42_Node000003_Node000019"><a xlink:title=" ">
<path fill="none" stroke="#63b8ff" d="M521.96,-589.58C599.22,-585.95 716.88,-575.7 815,-547 860.12,-533.8 908.83,-506.26 932.09,-492.19"/>
<polygon fill="#63b8ff" stroke="#63b8ff" points="521.64,-586.09 511.81,-590.03 521.95,-593.08 521.64,-586.09"/>
</a>
</g>
</g>
<!-- Node3&#45;&gt;Node20 -->
<g id="edge43_Node000003_Node000020" class="edge">
<title>Node3&#45;&gt;Node20</title>
<g id="a_edge43_Node000003_Node000020"><a xlink:title=" ">
<path fill="none" stroke="#63b8ff" d="M431.12,-573.25C424.43,-559.45 413.74,-540.77 400,-528 382.27,-511.52 357.27,-499.5 338.8,-492.14"/>
<polygon fill="#63b8ff" stroke="#63b8ff" points="428.08,-575.03 435.43,-582.67 434.45,-572.12 428.08,-575.03"/>
</a>
</g>
</g>
<!-- Node23 -->
<g id="Node000023" class="node">
<title>Node23</title>
<g id="a_Node000023"><a xlink:href="channel_8cpp.html" target="_top" xlink:title=" ">
<polygon fill="white" stroke="#666666" points="391.5,-547 256.5,-547 256.5,-528 391.5,-528 391.5,-547"/>
<text text-anchor="middle" x="324" y="-535" font-family="Helvetica,sans-Serif" font-size="10.00">src/Channel/channel.cpp</text>
</a>
</g>
</g>
<!-- Node3&#45;&gt;Node23 -->
<g id="edge45_Node000003_Node000023" class="edge">
<title>Node3&#45;&gt;Node23</title>
<g id="a_edge45_Node000003_Node000023"><a xlink:title=" ">
<path fill="none" stroke="#63b8ff" d="M411.37,-578.77C390.16,-568.99 361.44,-555.75 342.81,-547.17"/>
<polygon fill="#63b8ff" stroke="#63b8ff" points="409.98,-581.98 420.52,-582.98 412.91,-575.62 409.98,-581.98"/>
</a>
</g>
</g>
<!-- Node4&#45;&gt;Node5 -->
<g id="edge4_Node000004_Node000005" class="edge">
<title>Node4&#45;&gt;Node5</title>
<g id="a_edge4_Node000004_Node000005"><a xlink:title=" ">
<path fill="none" stroke="#63b8ff" d="M634.2,-528.07C593.78,-521.81 546.5,-510.92 507,-492 430.99,-455.59 401.38,-444.97 361,-371 342.82,-337.69 335.16,-319.49 353,-286 378.91,-237.36 440.34,-208.26 475.37,-195.04"/>
<polygon fill="#63b8ff" stroke="#63b8ff" points="633.91,-531.57 644.31,-529.57 634.93,-524.64 633.91,-531.57"/>
</a>
</g>
</g>
<!-- Node4&#45;&gt;Node7 -->
<g id="edge38_Node000004_Node000007" class="edge">
<title>Node4&#45;&gt;Node7</title>
<g id="a_edge38_Node000004_Node000007"><a xlink:title=" ">
<path fill="none" stroke="#63b8ff" d="M750.44,-522.95C763.97,-515.01 780.37,-504.17 793,-492 814.58,-471.21 820.58,-464.7 832,-437 876.25,-329.64 899.28,-278.12 844,-176 830.44,-150.96 812.94,-158.15 791,-140 776.47,-127.98 775.59,-121.94 761,-110 744.03,-96.12 722.68,-82.52 708.7,-74.09"/>
<polygon fill="#63b8ff" stroke="#63b8ff" points="748.58,-519.98 741.62,-527.96 752.04,-526.07 748.58,-519.98"/>
</a>
</g>
</g>
<!-- Node4&#45;&gt;Node8 -->
<g id="edge40_Node000004_Node000008" class="edge">
<title>Node4&#45;&gt;Node8</title>
<g id="a_edge40_Node000004_Node000008"><a xlink:title=" ">
<path fill="none" stroke="#63b8ff" d="M761.15,-524.2C779.06,-516.84 800.18,-506.14 816,-492 921.18,-397.98 908.17,-334.67 928,-195 929.19,-186.64 932.05,-183.41 928,-176 913.82,-150.03 888.03,-164.87 872,-140 846.76,-100.85 849.76,-41.36 851.96,-19.21"/>
<polygon fill="#63b8ff" stroke="#63b8ff" points="759.62,-521.04 751.58,-527.94 762.17,-527.55 759.62,-521.04"/>
</a>
</g>
</g>
<!-- Node4&#45;&gt;Node11 -->
<g id="edge11_Node000004_Node000011" class="edge">
<title>Node4&#45;&gt;Node11</title>
<g id="a_edge11_Node000004_Node000011"><a xlink:title=" ">
<path fill="none" stroke="#63b8ff" d="M715.58,-518.96C694.04,-480.59 637.38,-388.83 564,-341 537.1,-323.46 502.49,-311.98 476.05,-305.07"/>
<polygon fill="#63b8ff" stroke="#63b8ff" points="712.61,-520.82 720.49,-527.9 718.74,-517.45 712.61,-520.82"/>
</a>
</g>
</g>
<!-- Node4&#45;&gt;Node12 -->
<g id="edge19_Node000004_Node000012" class="edge">
<title>Node4&#45;&gt;Node12</title>
<g id="a_edge19_Node000004_Node000012"><a xlink:title=" ">
<path fill="none" stroke="#63b8ff" d="M743.14,-520.82C777.95,-488.73 848.82,-412.53 827,-341 818.4,-312.82 812.49,-305.03 790,-286 769.89,-268.98 742.2,-257.21 721.39,-250.07"/>
<polygon fill="#63b8ff" stroke="#63b8ff" points="740.63,-518.37 735.53,-527.66 745.31,-523.58 740.63,-518.37"/>
</a>
</g>
</g>
<!-- Node15 -->
<g id="Node000015" class="node">
<title>Node15</title>
<g id="a_Node000015"><a xlink:href="simulatorDriver_8h.html" target="_top" xlink:title=" ">
<polygon fill="white" stroke="#666666" points="602,-437 462,-437 462,-407 602,-407 602,-437"/>
<text text-anchor="start" x="470" y="-425" font-family="Helvetica,sans-Serif" font-size="10.00">include/Drivers/simulator</text>
<text text-anchor="middle" x="532" y="-414" font-family="Helvetica,sans-Serif" font-size="10.00">Driver.h</text>
</a>
</g>
</g>
<!-- Node4&#45;&gt;Node15 -->
<g id="edge20_Node000004_Node000015" class="edge">
<title>Node4&#45;&gt;Node15</title>
<g id="a_edge20_Node000004_Node000015"><a xlink:title=" ">
<path fill="none" stroke="#63b8ff" d="M634.36,-528.21C585.81,-521.7 532.97,-510.52 518,-492 505.33,-476.31 514.81,-452.18 523.15,-437.01"/>
<polygon fill="#63b8ff" stroke="#63b8ff" points="633.95,-531.69 644.32,-529.5 634.85,-524.75 633.95,-531.69"/>
</a>
</g>
</g>
<!-- Node4&#45;&gt;Node16 -->
<g id="edge32_Node000004_Node000016" class="edge">
<title>Node4&#45;&gt;Node16</title>
<g id="a_edge32_Node000004_Node000016"><a xlink:title=" ">
<path fill="none" stroke="#63b8ff" d="M726.99,-517.72C730.81,-481.65 739.09,-403.37 742.49,-371.22"/>
<polygon fill="#63b8ff" stroke="#63b8ff" points="723.49,-517.53 725.92,-527.84 730.45,-518.27 723.49,-517.53"/>
</a>
</g>
</g>
<!-- Node4&#45;&gt;Node19 -->
<g id="edge33_Node000004_Node000019" class="edge">
<title>Node4&#45;&gt;Node19</title>
<g id="a_edge33_Node000004_Node000019"><a xlink:title=" ">
<path fill="none" stroke="#63b8ff" d="M770.34,-525.63C811.74,-515.7 872.12,-501.22 910.21,-492.08"/>
<polygon fill="#63b8ff" stroke="#63b8ff" points="769.42,-522.25 760.51,-527.98 771.05,-529.06 769.42,-522.25"/>
</a>
</g>
</g>
<!-- Node4&#45;&gt;Node20 -->
<g id="edge35_Node000004_Node000020" class="edge">
<title>Node4&#45;&gt;Node20</title>
<g id="a_edge35_Node000004_Node000020"><a xlink:title=" ">
<path fill="none" stroke="#63b8ff" d="M648.83,-526.68C571.69,-516.73 453.58,-501.5 380.21,-492.04"/>
<polygon fill="#63b8ff" stroke="#63b8ff" points="648.6,-530.18 658.97,-527.98 649.5,-523.23 648.6,-530.18"/>
</a>
</g>
</g>
<!-- Node22 -->
<g id="Node000022" class="node">
<title>Node22</title>
<g id="a_Node000022"><a xlink:href="driverModel_8cpp.html" target="_top" xlink:title=" ">
<polygon fill="white" stroke="#666666" points="677.5,-492 526.5,-492 526.5,-473 677.5,-473 677.5,-492"/>
<text text-anchor="middle" x="602" y="-480" font-family="Helvetica,sans-Serif" font-size="10.00">src/Drivers/driverModel.cpp</text>
</a>
</g>
</g>
<!-- Node4&#45;&gt;Node22 -->
<g id="edge39_Node000004_Node000022" class="edge">
<title>Node4&#45;&gt;Node22</title>
<g id="a_edge39_Node000004_Node000022"><a xlink:title=" ">
<path fill="none" stroke="#63b8ff" d="M695.75,-523.9C673.03,-514.11 642.13,-500.79 622.12,-492.17"/>
<polygon fill="#63b8ff" stroke="#63b8ff" points="694.67,-527.24 705.24,-527.98 697.44,-520.81 694.67,-527.24"/>
</a>
</g>
</g>
<!-- Node5&#45;&gt;Node6 -->
<g id="edge5_Node000005_Node000006" class="edge">
<title>Node5&#45;&gt;Node6</title>
<g id="a_edge5_Node000005_Node000006"><a xlink:title=" ">
<path fill="none" stroke="#63b8ff" d="M576.51,-180.79C791.85,-170.19 1393.9,-140.54 1399,-140 1411.79,-138.63 1425.58,-136.61 1438.25,-134.52"/>
<polygon fill="#63b8ff" stroke="#63b8ff" points="576.06,-177.3 566.24,-181.29 576.4,-184.3 576.06,-177.3"/>
</a>
</g>
</g>
<!-- Node5&#45;&gt;Node7 -->
<g id="edge9_Node000005_Node000007" class="edge">
<title>Node5&#45;&gt;Node7</title>
<g id="a_edge9_Node000005_Node000007"><a xlink:title=" ">
<path fill="none" stroke="#63b8ff" d="M523.45,-170.66C563.67,-145.86 646.89,-94.54 679.99,-74.14"/>
<polygon fill="#63b8ff" stroke="#63b8ff" points="521.56,-167.71 514.88,-175.94 525.23,-173.67 521.56,-167.71"/>
</a>
</g>
</g>
<!-- Node10 -->
<g id="Node000010" class="node">
<title>Node10</title>
<g id="a_Node000010"><a xlink:href="driver_8cpp.html" target="_top" xlink:title=" ">
<polygon fill="white" stroke="#666666" points="561,-134.5 441,-134.5 441,-115.5 561,-115.5 561,-134.5"/>
<text text-anchor="middle" x="501" y="-122.5" font-family="Helvetica,sans-Serif" font-size="10.00">src/Drivers/driver.cpp</text>
</a>
</g>
</g>
<!-- Node5&#45;&gt;Node10 -->
<g id="edge10_Node000005_Node000010" class="edge">
<title>Node5&#45;&gt;Node10</title>
<g id="a_edge10_Node000005_Node000010"><a xlink:title=" ">
<path fill="none" stroke="#63b8ff" d="M501,-165.66C501,-155.24 501,-142.8 501,-134.67"/>
<polygon fill="#63b8ff" stroke="#63b8ff" points="497.5,-165.87 501,-175.87 504.5,-165.87 497.5,-165.87"/>
</a>
</g>
</g>
<!-- Node6&#45;&gt;Node7 -->
<g id="edge6_Node000006_Node000007" class="edge">
<title>Node6&#45;&gt;Node7</title>
<g id="a_edge6_Node000006_Node000007"><a xlink:title=" ">
<path fill="none" stroke="#63b8ff" d="M1427.27,-113.85C1417.85,-112.39 1408.17,-111.04 1399,-110 1150.42,-81.75 850.33,-70.27 738.68,-66.77"/>
<polygon fill="#63b8ff" stroke="#63b8ff" points="1426.93,-117.34 1437.35,-115.45 1428.03,-110.42 1426.93,-117.34"/>
</a>
</g>
</g>
<!-- Node9 -->
<g id="Node000009" class="node">
<title>Node9</title>
<g id="a_Node000009"><a xlink:href="spreader_8cpp.html" target="_top" xlink:title=" ">
<polygon fill="white" stroke="#666666" points="1555.5,-74 1412.5,-74 1412.5,-55 1555.5,-55 1555.5,-74"/>
<text text-anchor="middle" x="1484" y="-62" font-family="Helvetica,sans-Serif" font-size="10.00">src/Spreader/spreader.cpp</text>
</a>
</g>
</g>
<!-- Node6&#45;&gt;Node9 -->
<g id="edge8_Node000006_Node000009" class="edge">
<title>Node6&#45;&gt;Node9</title>
<g id="a_edge8_Node000006_Node000009"><a xlink:title=" ">
<path fill="none" stroke="#63b8ff" d="M1484,-105.16C1484,-94.74 1484,-82.3 1484,-74.17"/>
<polygon fill="#63b8ff" stroke="#63b8ff" points="1480.5,-105.37 1484,-115.37 1487.5,-105.37 1480.5,-105.37"/>
</a>
</g>
</g>
<!-- Node7&#45;&gt;Node8 -->
<g id="edge7_Node000007_Node000008" class="edge">
<title>Node7&#45;&gt;Node8</title>
<g id="a_edge7_Node000007_Node000008"><a xlink:title=" ">
<path fill="none" stroke="#63b8ff" d="M729.1,-51.8C758.78,-41.91 800.6,-27.97 827.25,-19.08"/>
<polygon fill="#63b8ff" stroke="#63b8ff" points="727.93,-48.5 719.55,-54.98 730.14,-55.14 727.93,-48.5"/>
</a>
</g>
</g>
<!-- Node11&#45;&gt;Node5 -->
<g id="edge12_Node000011_Node000005" class="edge">
<title>Node11&#45;&gt;Node5</title>
<g id="a_edge12_Node000011_Node000005"><a xlink:title=" ">
<path fill="none" stroke="#63b8ff" d="M439.36,-275.89C442.33,-262.67 447.53,-244.87 456,-231 464.82,-216.56 479.31,-203.39 489.46,-195.19"/>
<polygon fill="#63b8ff" stroke="#63b8ff" points="435.93,-275.23 437.38,-285.73 442.79,-276.62 435.93,-275.23"/>
</a>
</g>
</g>
<!-- Node11&#45;&gt;Node7 -->
<g id="edge17_Node000011_Node000007" class="edge">
<title>Node11&#45;&gt;Node7</title>
<g id="a_edge17_Node000011_Node000007"><a xlink:title=" ">
<path fill="none" stroke="#63b8ff" d="M428.41,-276.32C414.44,-239.64 389.77,-156.34 432,-110 460.48,-78.76 582.43,-69.44 649.45,-66.67"/>
<polygon fill="#63b8ff" stroke="#63b8ff" points="425.2,-277.74 432.15,-285.74 431.71,-275.15 425.2,-277.74"/>
</a>
</g>
</g>
<!-- Node11&#45;&gt;Node12 -->
<g id="edge13_Node000011_Node000012" class="edge">
<title>Node11&#45;&gt;Node12</title>
<g id="a_edge13_Node000011_Node000012"><a xlink:title=" ">
<path fill="none" stroke="#63b8ff" d="M487,-283.94C534.99,-274.01 605.95,-259.31 650.55,-250.08"/>
<polygon fill="#63b8ff" stroke="#63b8ff" points="486.21,-280.53 477.13,-285.98 487.63,-287.38 486.21,-280.53"/>
</a>
</g>
</g>
<!-- Node14 -->
<g id="Node000014" class="node">
<title>Node14</title>
<g id="a_Node000014"><a xlink:href="dutDriver_8cpp.html" target="_top" xlink:title=" ">
<polygon fill="white" stroke="#666666" points="601.5,-250 464.5,-250 464.5,-231 601.5,-231 601.5,-250"/>
<text text-anchor="middle" x="533" y="-238" font-family="Helvetica,sans-Serif" font-size="10.00">src/Drivers/dutDriver.cpp</text>
</a>
</g>
</g>
<!-- Node11&#45;&gt;Node14 -->
<g id="edge18_Node000011_Node000014" class="edge">
<title>Node11&#45;&gt;Node14</title>
<g id="a_edge18_Node000011_Node000014"><a xlink:title=" ">
<path fill="none" stroke="#63b8ff" d="M460.77,-280.97C478.5,-271.28 501.85,-258.52 517.13,-250.17"/>
<polygon fill="#63b8ff" stroke="#63b8ff" points="458.68,-278.12 451.58,-285.98 462.04,-284.26 458.68,-278.12"/>
</a>
</g>
</g>
<!-- Node12&#45;&gt;Node5 -->
<g id="edge14_Node000012_Node000005" class="edge">
<title>Node12&#45;&gt;Node5</title>
<g id="a_edge14_Node000012_Node000005"><a xlink:title=" ">
<path fill="none" stroke="#63b8ff" d="M651.22,-228.18C615.5,-218.27 564.37,-204.08 531.93,-195.08"/>
<polygon fill="#63b8ff" stroke="#63b8ff" points="650.74,-231.68 661.31,-230.98 652.61,-224.94 650.74,-231.68"/>
</a>
</g>
</g>
<!-- Node12&#45;&gt;Node7 -->
<g id="edge15_Node000012_Node000007" class="edge">
<title>Node12&#45;&gt;Node7</title>
<g id="a_edge15_Node000012_Node000007"><a xlink:title=" ">
<path fill="none" stroke="#63b8ff" d="M683.06,-221.9C679.48,-213.91 675.79,-204.2 674,-195 665.18,-149.67 682.92,-94.8 690.65,-74.02"/>
<polygon fill="#63b8ff" stroke="#63b8ff" points="679.91,-223.43 687.38,-230.94 686.23,-220.41 679.91,-223.43"/>
</a>
</g>
</g>
<!-- Node13 -->
<g id="Node000013" class="node">
<title>Node13</title>
<g id="a_Node000013"><a xlink:href="refDriver_8cpp.html" target="_top" xlink:title=" ">
<polygon fill="white" stroke="#666666" points="817.5,-195 682.5,-195 682.5,-176 817.5,-176 817.5,-195"/>
<text text-anchor="middle" x="750" y="-183" font-family="Helvetica,sans-Serif" font-size="10.00">src/Drivers/refDriver.cpp</text>
</a>
</g>
</g>
<!-- Node12&#45;&gt;Node13 -->
<g id="edge16_Node000012_Node000013" class="edge">
<title>Node12&#45;&gt;Node13</title>
<g id="a_edge16_Node000012_Node000013"><a xlink:title=" ">
<path fill="none" stroke="#63b8ff" d="M708.91,-224.04C719.2,-214.64 731.97,-202.98 740.51,-195.17"/>
<polygon fill="#63b8ff" stroke="#63b8ff" points="706.34,-221.66 701.32,-230.98 711.06,-226.82 706.34,-221.66"/>
</a>
</g>
</g>
<!-- Node15&#45;&gt;Node6 -->
<g id="edge28_Node000015_Node000006" class="edge">
<title>Node15&#45;&gt;Node6</title>
<g id="a_edge28_Node000015_Node000006"><a xlink:title=" ">
<path fill="none" stroke="#63b8ff" d="M612.38,-411.55C672.2,-403.52 755.51,-390.2 827,-371 1086.82,-301.21 1387.68,-169.33 1465.09,-134.57"/>
<polygon fill="#63b8ff" stroke="#63b8ff" points="611.69,-408.11 602.24,-412.9 612.61,-415.05 611.69,-408.11"/>
</a>
</g>
</g>
<!-- Node15&#45;&gt;Node7 -->
<g id="edge29_Node000015_Node000007" class="edge">
<title>Node15&#45;&gt;Node7</title>
<g id="a_edge29_Node000015_Node000007"><a xlink:title=" ">
<path fill="none" stroke="#63b8ff" d="M451.75,-416.4C418.89,-410.27 383.39,-397.4 361,-371 300.11,-299.22 398.75,-120.4 411,-110 446.16,-80.13 578.96,-70.19 649.43,-66.97"/>
<polygon fill="#63b8ff" stroke="#63b8ff" points="451.41,-419.89 461.85,-418.09 452.57,-412.99 451.41,-419.89"/>
</a>
</g>
</g>
<!-- Node15&#45;&gt;Node8 -->
<g id="edge31_Node000015_Node000008" class="edge">
<title>Node15&#45;&gt;Node8</title>
<g id="a_edge31_Node000015_Node000008"><a xlink:title=" ">
<path fill="none" stroke="#63b8ff" d="M451.63,-413.86C415.25,-407.31 373.45,-394.81 342,-371 237.71,-292.05 120.83,-209.27 206,-110 285.27,-17.6 685.03,-10.17 813.31,-10.2"/>
<polygon fill="#63b8ff" stroke="#63b8ff" points="451.3,-417.35 461.74,-415.55 452.46,-410.45 451.3,-417.35"/>
</a>
</g>
</g>
<!-- Node15&#45;&gt;Node11 -->
<g id="edge21_Node000015_Node000011" class="edge">
<title>Node15&#45;&gt;Node11</title>
<g id="a_edge21_Node000015_Node000011"><a xlink:title=" ">
<path fill="none" stroke="#63b8ff" d="M544.95,-397.46C552.39,-380.45 558.25,-357.63 547,-341 534.26,-322.17 512.11,-311.31 490.93,-305.04"/>
<polygon fill="#63b8ff" stroke="#63b8ff" points="541.68,-396.19 540.5,-406.72 547.98,-399.22 541.68,-396.19"/>
</a>
</g>
</g>
<!-- Node15&#45;&gt;Node12 -->
<g id="edge22_Node000015_Node000012" class="edge">
<title>Node15&#45;&gt;Node12</title>
<g id="a_edge22_Node000015_Node000012"><a xlink:title=" ">
<path fill="none" stroke="#63b8ff" d="M548.6,-398.42C554.11,-390.12 559.88,-380.43 564,-371 579.6,-335.23 560.47,-315.51 586,-286 602.06,-267.44 627.16,-256.44 648.9,-250.02"/>
<polygon fill="#63b8ff" stroke="#63b8ff" points="545.61,-396.59 542.81,-406.81 551.37,-400.57 545.61,-396.59"/>
</a>
</g>
</g>
<!-- Node15&#45;&gt;Node16 -->
<g id="edge23_Node000015_Node000016" class="edge">
<title>Node15&#45;&gt;Node16</title>
<g id="a_edge23_Node000015_Node000016"><a xlink:title=" ">
<path fill="none" stroke="#63b8ff" d="M588.35,-403.99C622.46,-393.69 665.44,-380.72 697.58,-371.01"/>
<polygon fill="#63b8ff" stroke="#63b8ff" points="587.09,-400.71 578.52,-406.95 589.11,-407.42 587.09,-400.71"/>
</a>
</g>
</g>
<!-- Node18 -->
<g id="Node000018" class="node">
<title>Node18</title>
<g id="a_Node000018"><a xlink:href="simulatorDriver_8cpp.html" target="_top" xlink:title=" ">
<polygon fill="white" stroke="#666666" points="538,-365.5 370,-365.5 370,-346.5 538,-346.5 538,-365.5"/>
<text text-anchor="middle" x="454" y="-353.5" font-family="Helvetica,sans-Serif" font-size="10.00">src/Drivers/simulatorDriver.cpp</text>
</a>
</g>
</g>
<!-- Node15&#45;&gt;Node18 -->
<g id="edge30_Node000015_Node000018" class="edge">
<title>Node15&#45;&gt;Node18</title>
<g id="a_edge30_Node000015_Node000018"><a xlink:title=" ">
<path fill="none" stroke="#63b8ff" d="M506.72,-400.26C492.53,-388.61 475.56,-374.69 464.78,-365.84"/>
<polygon fill="#63b8ff" stroke="#63b8ff" points="504.74,-403.16 514.69,-406.8 509.18,-397.75 504.74,-403.16"/>
</a>
</g>
</g>
<!-- Node16&#45;&gt;Node7 -->
<g id="edge26_Node000016_Node000007" class="edge">
<title>Node16&#45;&gt;Node7</title>
<g id="a_edge26_Node000016_Node000007"><a xlink:title=" ">
<path fill="none" stroke="#63b8ff" d="M767.51,-333.44C801.97,-299.13 858.83,-230.43 827,-176 810.52,-147.83 788.62,-160.22 763,-140 736.98,-119.47 711.97,-88.91 700.51,-74.13"/>
<polygon fill="#63b8ff" stroke="#63b8ff" points="764.86,-331.14 760.12,-340.61 769.74,-336.16 764.86,-331.14"/>
</a>
</g>
</g>
<!-- Node16&#45;&gt;Node11 -->
<g id="edge24_Node000016_Node000011" class="edge">
<title>Node16&#45;&gt;Node11</title>
<g id="a_edge24_Node000016_Node000011"><a xlink:title=" ">
<path fill="none" stroke="#63b8ff" d="M660.38,-339.12C602.59,-328.14 527.97,-313.97 481.03,-305.05"/>
<polygon fill="#63b8ff" stroke="#63b8ff" points="659.75,-342.56 670.23,-340.99 661.06,-335.68 659.75,-342.56"/>
</a>
</g>
</g>
<!-- Node16&#45;&gt;Node12 -->
<g id="edge25_Node000016_Node000012" class="edge">
<title>Node16&#45;&gt;Node12</title>
<g id="a_edge25_Node000016_Node000012"><a xlink:title=" ">
<path fill="none" stroke="#63b8ff" d="M668.46,-338.33C636.44,-329.59 604.35,-318 595,-305 575.84,-278.37 620.41,-259.9 655.31,-250.01"/>
<polygon fill="#63b8ff" stroke="#63b8ff" points="667.8,-341.77 678.37,-340.95 669.59,-335.01 667.8,-341.77"/>
</a>
</g>
</g>
<!-- Node17 -->
<g id="Node000017" class="node">
<title>Node17</title>
<g id="a_Node000017"><a xlink:href="transDriverModel_8cpp.html" target="_top" xlink:title=" ">
<polygon fill="white" stroke="#666666" points="780.5,-305 603.5,-305 603.5,-286 780.5,-286 780.5,-305"/>
<text text-anchor="middle" x="692" y="-293" font-family="Helvetica,sans-Serif" font-size="10.00">src/Drivers/transDriverModel.cpp</text>
</a>
</g>
</g>
<!-- Node16&#45;&gt;Node17 -->
<g id="edge27_Node000016_Node000017" class="edge">
<title>Node16&#45;&gt;Node17</title>
<g id="a_edge27_Node000016_Node000017"><a xlink:title=" ">
<path fill="none" stroke="#63b8ff" d="M724.52,-333.09C715.93,-323.42 706.32,-312.61 699.79,-305.27"/>
<polygon fill="#63b8ff" stroke="#63b8ff" points="722.15,-335.69 731.41,-340.84 727.38,-331.04 722.15,-335.69"/>
</a>
</g>
</g>
<!-- Node19&#45;&gt;Node7 -->
<g id="edge34_Node000019_Node000007" class="edge">
<title>Node19&#45;&gt;Node7</title>
<g id="a_edge34_Node000019_Node000007"><a xlink:title=" ">
<path fill="none" stroke="#63b8ff" d="M949.74,-462.69C958.92,-410.72 977.08,-263.27 908,-176 886.53,-148.88 869.02,-157.18 839,-140 817.16,-127.51 813.15,-121.94 791,-110 765.39,-96.2 734.71,-82.59 714.81,-74.13"/>
<polygon fill="#63b8ff" stroke="#63b8ff" points="946.25,-462.3 947.85,-472.77 953.13,-463.59 946.25,-462.3"/>
</a>
</g>
</g>
<!-- Node20&#45;&gt;Node15 -->
<g id="edge36_Node000020_Node000015" class="edge">
<title>Node20&#45;&gt;Node15</title>
<g id="a_edge36_Node000020_Node000015"><a xlink:title=" ">
<path fill="none" stroke="#63b8ff" d="M355.66,-470.32C390.9,-460.86 441.59,-447.26 479.59,-437.06"/>
<polygon fill="#63b8ff" stroke="#63b8ff" points="354.45,-467.02 345.7,-472.99 356.26,-473.78 354.45,-467.02"/>
</a>
</g>
</g>
<!-- Node21 -->
<g id="Node000021" class="node">
<title>Node21</title>
<g id="a_Node000021"><a xlink:href="simulator_8cpp.html" target="_top" xlink:title=" ">
<polygon fill="white" stroke="#666666" points="368,-431.5 218,-431.5 218,-412.5 368,-412.5 368,-431.5"/>
<text text-anchor="middle" x="293" y="-419.5" font-family="Helvetica,sans-Serif" font-size="10.00">src/Simulator/simulator.cpp</text>
</a>
</g>
</g>
<!-- Node20&#45;&gt;Node21 -->
<g id="edge37_Node000020_Node000021" class="edge">
<title>Node20&#45;&gt;Node21</title>
<g id="a_edge37_Node000020_Node000021"><a xlink:title=" ">
<path fill="none" stroke="#63b8ff" d="M307.47,-463.32C303.69,-452.78 299.09,-439.98 296.11,-431.67"/>
<polygon fill="#63b8ff" stroke="#63b8ff" points="304.23,-464.64 310.9,-472.87 310.82,-462.27 304.23,-464.64"/>
</a>
</g>
</g>
<!-- Node24&#45;&gt;Node6 -->
<g id="edge48_Node000024_Node000006" class="edge">
<title>Node24&#45;&gt;Node6</title>
<g id="a_edge48_Node000024_Node000006"><a xlink:title=" ">
<path fill="none" stroke="#63b8ff" d="M1219.67,-174.17C1281.57,-162.89 1379.59,-145.03 1437.27,-134.52"/>
<polygon fill="#63b8ff" stroke="#63b8ff" points="1218.89,-170.76 1209.68,-175.99 1220.14,-177.64 1218.89,-170.76"/>
</a>
</g>
</g>
<!-- Node24&#45;&gt;Node7 -->
<g id="edge49_Node000024_Node000007" class="edge">
<title>Node24&#45;&gt;Node7</title>
<g id="a_edge49_Node000024_Node000007"><a xlink:title=" ">
<path fill="none" stroke="#63b8ff" d="M1140.62,-170.56C1127.19,-162.02 1109.89,-150.71 1095,-140 1077.54,-127.43 1076.86,-118.28 1057,-110 1000.38,-86.38 822.39,-73.06 738.53,-67.95"/>
<polygon fill="#63b8ff" stroke="#63b8ff" points="1138.89,-173.61 1149.21,-175.98 1142.62,-167.69 1138.89,-173.61"/>
</a>
</g>
</g>
<!-- Node25 -->
<g id="Node000025" class="node">
<title>Node25</title>
<g id="a_Node000025"><a xlink:href="database_8cpp.html" target="_top" xlink:title=" ">
<polygon fill="white" stroke="#666666" points="1389.5,-134.5 1240.5,-134.5 1240.5,-115.5 1389.5,-115.5 1389.5,-134.5"/>
<text text-anchor="middle" x="1315" y="-122.5" font-family="Helvetica,sans-Serif" font-size="10.00">src/Database/database.cpp</text>
</a>
</g>
</g>
<!-- Node24&#45;&gt;Node25 -->
<g id="edge50_Node000024_Node000025" class="edge">
<title>Node24&#45;&gt;Node25</title>
<g id="a_edge50_Node000024_Node000025"><a xlink:title=" ">
<path fill="none" stroke="#63b8ff" d="M1194.5,-172.38C1223.88,-161.07 1266.97,-144.49 1292.87,-134.52"/>
<polygon fill="#63b8ff" stroke="#63b8ff" points="1193.18,-169.14 1185.1,-175.99 1195.69,-175.67 1193.18,-169.14"/>
</a>
</g>
</g>
<!-- Node26 -->
<g id="Node000026" class="node">
<title>Node26</title>
<g id="a_Node000026"><a xlink:href="reporter_8cpp.html" target="_top" xlink:title=" ">
<polygon fill="white" stroke="#666666" points="1715.5,-134.5 1578.5,-134.5 1578.5,-115.5 1715.5,-115.5 1715.5,-134.5"/>
<text text-anchor="middle" x="1647" y="-122.5" font-family="Helvetica,sans-Serif" font-size="10.00">src/Reporter/reporter.cpp</text>
</a>
</g>
</g>
<!-- Node24&#45;&gt;Node26 -->
<g id="edge51_Node000024_Node000026" class="edge">
<title>Node24&#45;&gt;Node26</title>
<g id="a_edge51_Node000024_Node000026"><a xlink:title=" ">
<path fill="none" stroke="#63b8ff" d="M1252.26,-176.49C1334.66,-168.67 1460.36,-155.68 1569,-140 1579.89,-138.43 1591.6,-136.47 1602.54,-134.52"/>
<polygon fill="#63b8ff" stroke="#63b8ff" points="1251.8,-173.02 1242.17,-177.44 1252.46,-179.98 1251.8,-173.02"/>
</a>
</g>
</g>
<!-- Node27 -->
<g id="Node000027" class="node">
<title>Node27</title>
<g id="a_Node000027"><a xlink:href="generatorHelper_8cpp.html" target="_top" xlink:title=" ">
<polygon fill="white" stroke="#666666" points="1222.5,-140 1103.5,-140 1103.5,-110 1222.5,-110 1222.5,-140"/>
<text text-anchor="start" x="1111.5" y="-128" font-family="Helvetica,sans-Serif" font-size="10.00">src/TestGenerator/src</text>
<text text-anchor="middle" x="1163" y="-117" font-family="Helvetica,sans-Serif" font-size="10.00">/generatorHelper.cpp</text>
</a>
</g>
</g>
<!-- Node24&#45;&gt;Node27 -->
<g id="edge52_Node000024_Node000027" class="edge">
<title>Node24&#45;&gt;Node27</title>
<g id="a_edge52_Node000024_Node000027"><a xlink:title=" ">
<path fill="none" stroke="#63b8ff" d="M1163,-165.65C1163,-157.36 1163,-147.78 1163,-140.11"/>
<polygon fill="#63b8ff" stroke="#63b8ff" points="1159.5,-165.87 1163,-175.87 1166.5,-165.87 1159.5,-165.87"/>
</a>
</g>
</g>
<!-- Node24&#45;&gt;Node28 -->
<g id="edge53_Node000024_Node000028" class="edge">
<title>Node24&#45;&gt;Node28</title>
<g id="a_edge53_Node000024_Node000028"><a xlink:title=" ">
<path fill="none" stroke="#63b8ff" d="M1124.25,-173.11C1085.76,-161.79 1027.62,-144.7 992.97,-134.52"/>
<polygon fill="#63b8ff" stroke="#63b8ff" points="1123.48,-176.53 1134.06,-175.99 1125.46,-169.82 1123.48,-176.53"/>
</a>
</g>
</g>
<!-- Node29&#45;&gt;Node6 -->
<g id="edge61_Node000029_Node000006" class="edge">
<title>Node29&#45;&gt;Node6</title>
<g id="a_edge61_Node000029_Node000006"><a xlink:title=" ">
<path fill="none" stroke="#63b8ff" d="M1613.63,-172.52C1582.12,-161.21 1535.63,-144.53 1507.73,-134.52"/>
<polygon fill="#63b8ff" stroke="#63b8ff" points="1612.7,-175.91 1623.3,-175.99 1615.07,-169.32 1612.7,-175.91"/>
</a>
</g>
</g>
<!-- Node29&#45;&gt;Node7 -->
<g id="edge62_Node000029_Node000007" class="edge">
<title>Node29&#45;&gt;Node7</title>
<g id="a_edge62_Node000029_Node000007"><a xlink:title=" ">
<path fill="none" stroke="#63b8ff" d="M1686.14,-171.89C1701.03,-164.96 1716.46,-154.71 1725,-140 1731.7,-128.47 1734.22,-119.63 1725,-110 1690.42,-73.89 932.07,-66.92 738.6,-65.73"/>
<polygon fill="#63b8ff" stroke="#63b8ff" points="1684.34,-168.85 1676.5,-175.97 1687.08,-175.29 1684.34,-168.85"/>
</a>
</g>
</g>
<!-- Node29&#45;&gt;Node8 -->
<g id="edge64_Node000029_Node000008" class="edge">
<title>Node29&#45;&gt;Node8</title>
<g id="a_edge64_Node000029_Node000008"><a xlink:title=" ">
<path fill="none" stroke="#63b8ff" d="M1698.38,-172.42C1715.21,-165.75 1732.12,-155.55 1742,-140 1749.15,-128.75 1749.91,-120.74 1742,-110 1693.15,-43.67 1646.02,-69.9 1565,-55 1434.36,-30.98 1022.78,-15.97 892.77,-11.74"/>
<polygon fill="#63b8ff" stroke="#63b8ff" points="1696.76,-169.28 1688.53,-175.94 1699.12,-175.87 1696.76,-169.28"/>
</a>
</g>
</g>
<!-- Node29&#45;&gt;Node26 -->
<g id="edge63_Node000029_Node000026" class="edge">
<title>Node29&#45;&gt;Node26</title>
<g id="a_edge63_Node000029_Node000026"><a xlink:title=" ">
<path fill="none" stroke="#63b8ff" d="M1647,-165.66C1647,-155.24 1647,-142.8 1647,-134.67"/>
<polygon fill="#63b8ff" stroke="#63b8ff" points="1643.5,-165.87 1647,-175.87 1650.5,-165.87 1643.5,-165.87"/>
</a>
</g>
</g>
</g>
</svg>

<g id="navigator" transform="translate(0 0)" fill="#404254">
  <rect fill="#f2f5e9" fill-opacity="0.5" stroke="#606060" stroke-width=".5" x="0" y="0" width="60" height="60"/>
  <use id="zoomplus" xlink:href="#zoomPlus" x="17" y="9" onmousedown="handleZoom(evt,'in')"/>
  <use id="zoomminus" xlink:href="#zoomMin" x="42" y="9" onmousedown="handleZoom(evt,'out')"/>
  <use id="reset" xlink:href="#resetDef" x="30" y="36" onmousedown="handleReset()"/>
   <use id="arrowup" xlink:href="#arrowUp" x="0" y="0" onmousedown="handlePan(0,-1)"/>
  <use id="arrowright" xlink:href="#arrowRight" x="0" y="0" onmousedown="handlePan(1,0)"/>
  <use id="arrowdown" xlink:href="#arrowDown" x="0" y="0" onmousedown="handlePan(0,1)"/>
  <use id="arrowleft" xlink:href="#arrowLeft" x="0" y="0" onmousedown="handlePan(-1,0)"/>
</g>
<svg viewBox="0 0 15 15" width="100%" height="30px" preserveAspectRatio="xMaxYMin meet">
 <g id="arrow_out" transform="scale(0.3 0.3)">
  <a xlink:href="evaluate_8h__dep__incl_org.svg" target="_base">
   <rect id="button" ry="5" rx="5" y="6" x="6" height="38" width="38"
        fill="#f2f5e9" fill-opacity="0.5" stroke="#606060" stroke-width="1.0"/>
   <path id="arrow"
     d="M 11.500037,31.436501 C 11.940474,20.09759 22.043105,11.32322 32.158766,21.979434 L 37.068811,17.246167 C 37.068811,17.246167 37.088388,32 37.088388,32 L 22.160133,31.978069 C 22.160133,31.978069 26.997745,27.140456 26.997745,27.140456 C 18.528582,18.264221 13.291696,25.230495 11.500037,31.436501 z"
     style="fill:#404040;"/>
  </a>
 </g>
</svg>

<style type='text/css'>
<![CDATA[
[data-mouse-over-selected='false'] { opacity: 0.7; }
[data-mouse-over-selected='true']  { opacity: 1.0; }
]]>
</style>
<script type="application/ecmascript"><![CDATA[
document.addEventListener('DOMContentLoaded', (event) => {
  highlightEdges();
  highlightAdjacentNodes();
});
]]></script>
</svg>
