<?xml version="1.0" encoding="UTF-8" standalone="no"?>
<!DOCTYPE svg PUBLIC "-//W3C//DTD SVG 1.1//EN"
 "http://www.w3.org/Graphics/SVG/1.1/DTD/svg11.dtd">
<!-- Generated by graphviz version 2.43.0 (0)
 -->
<!-- Title: include/TestGenerator/generatorHelper.h Pages: 1 -->
<svg width="234pt" height="159pt"
 viewBox="0.00 0.00 234.00 159.00" xmlns="http://www.w3.org/2000/svg" xmlns:xlink="http://www.w3.org/1999/xlink">
<g id="graph0" class="graph" transform="scale(1 1) rotate(0) translate(4 155)">
<title>include/TestGenerator/generatorHelper.h</title>
<!-- Node1 -->
<g id="Node000001" class="node">
<title>Node1</title>
<g id="a_Node000001"><a xlink:title=" ">
<polygon fill="#999999" stroke="#666666" points="167,-151 44,-151 44,-121 167,-121 167,-151"/>
<text text-anchor="start" x="52" y="-139" font-family="Helvetica,sans-Serif" font-size="10.00">include/TestGenerator</text>
<text text-anchor="middle" x="105.5" y="-128" font-family="Helvetica,sans-Serif" font-size="10.00">/generatorHelper.h</text>
</a>
</g>
</g>
<!-- Node2 -->
<g id="Node000002" class="node">
<title>Node2</title>
<g id="a_Node000002"><a xlink:href="mlvp_8h.html" target="_top" xlink:title=" ">
<polygon fill="white" stroke="#666666" points="89,-79.5 0,-79.5 0,-60.5 89,-60.5 89,-79.5"/>
<text text-anchor="middle" x="44.5" y="-67.5" font-family="Helvetica,sans-Serif" font-size="10.00">include/mlvp.h</text>
</a>
</g>
</g>
<!-- Node1&#45;&gt;Node2 -->
<g id="edge1_Node000001_Node000002" class="edge">
<title>Node1&#45;&gt;Node2</title>
<g id="a_edge1_Node000001_Node000002"><a xlink:title=" ">
<path fill="none" stroke="#63b8ff" d="M84.79,-113.27C73.89,-101.84 61.12,-88.44 52.93,-79.84"/>
<polygon fill="#63b8ff" stroke="#63b8ff" points="82.53,-115.97 91.96,-120.8 87.6,-111.14 82.53,-115.97"/>
</a>
</g>
</g>
<!-- Node4 -->
<g id="Node000004" class="node">
<title>Node4</title>
<g id="a_Node000004"><a xlink:href="generatorHelper_8cpp.html" target="_top" xlink:title=" ">
<polygon fill="white" stroke="#666666" points="226,-85 107,-85 107,-55 226,-55 226,-85"/>
<text text-anchor="start" x="115" y="-73" font-family="Helvetica,sans-Serif" font-size="10.00">src/TestGenerator/src</text>
<text text-anchor="middle" x="166.5" y="-62" font-family="Helvetica,sans-Serif" font-size="10.00">/generatorHelper.cpp</text>
</a>
</g>
</g>
<!-- Node1&#45;&gt;Node4 -->
<g id="edge3_Node000001_Node000004" class="edge">
<title>Node1&#45;&gt;Node4</title>
<g id="a_edge3_Node000001_Node000004"><a xlink:title=" ">
<path fill="none" stroke="#63b8ff" d="M126.12,-113.37C134.99,-104.06 145.11,-93.44 153,-85.16"/>
<polygon fill="#63b8ff" stroke="#63b8ff" points="123.4,-111.14 119.04,-120.8 128.47,-115.97 123.4,-111.14"/>
</a>
</g>
</g>
<!-- Node3 -->
<g id="Node000003" class="node">
<title>Node3</title>
<g id="a_Node000003"><a xlink:href="main_8cpp.html" target="_top" xlink:title=" ">
<polygon fill="white" stroke="#666666" points="84,-19 5,-19 5,0 84,0 84,-19"/>
<text text-anchor="middle" x="44.5" y="-7" font-family="Helvetica,sans-Serif" font-size="10.00">src/main.cpp</text>
</a>
</g>
</g>
<!-- Node2&#45;&gt;Node3 -->
<g id="edge2_Node000002_Node000003" class="edge">
<title>Node2&#45;&gt;Node3</title>
<g id="a_edge2_Node000002_Node000003"><a xlink:title=" ">
<path fill="none" stroke="#63b8ff" d="M44.5,-50.16C44.5,-39.74 44.5,-27.3 44.5,-19.17"/>
<polygon fill="#63b8ff" stroke="#63b8ff" points="41,-50.37 44.5,-60.37 48,-50.37 41,-50.37"/>
</a>
</g>
</g>
</g>
</svg>
