<?xml version="1.0" encoding="UTF-8" standalone="no"?>
<!DOCTYPE svg PUBLIC "-//W3C//DTD SVG 1.1//EN"
 "http://www.w3.org/Graphics/SVG/1.1/DTD/svg11.dtd">
<!-- Generated by graphviz version 2.43.0 (0)
 -->
<!-- Title: src/TestGenerator/src/generatorHelper.cpp Pages: 1 -->
<svg width="1258pt" height="313pt"
 viewBox="0.00 0.00 1257.85 313.00" xmlns="http://www.w3.org/2000/svg" xmlns:xlink="http://www.w3.org/1999/xlink">
<g id="graph0" class="graph" transform="scale(1 1) rotate(0) translate(4 309)">
<title>src/TestGenerator/src/generatorHelper.cpp</title>
<!-- Node1 -->
<g id="Node000001" class="node">
<title>Node1</title>
<g id="a_Node000001"><a xlink:title=" ">
<polygon fill="#999999" stroke="#666666" points="505.35,-305 386.35,-305 386.35,-275 505.35,-275 505.35,-305"/>
<text text-anchor="start" x="394.35" y="-293" font-family="Helvetica,sans-Serif" font-size="10.00">src/TestGenerator/src</text>
<text text-anchor="middle" x="445.85" y="-282" font-family="Helvetica,sans-Serif" font-size="10.00">/generatorHelper.cpp</text>
</a>
</g>
</g>
<!-- Node2 -->
<g id="Node000002" class="node">
<title>Node2</title>
<g id="a_Node000002"><a xlink:href="generatorHelper_8h.html" target="_top" xlink:title=" ">
<polygon fill="white" stroke="#666666" points="385.85,-129 209.85,-129 209.85,-110 385.85,-110 385.85,-129"/>
<text text-anchor="middle" x="297.85" y="-117" font-family="Helvetica,sans-Serif" font-size="10.00">TestGenerator/generatorHelper.h</text>
</a>
</g>
</g>
<!-- Node1&#45;&gt;Node2 -->
<g id="edge1_Node000001_Node000002" class="edge">
<title>Node1&#45;&gt;Node2</title>
<g id="a_edge1_Node000001_Node000002"><a xlink:title=" ">
<path fill="none" stroke="#63b8ff" d="M422.17,-274.87C408.03,-265.73 390.28,-252.97 376.85,-239 346.42,-207.36 320.2,-162.61 306.99,-138.15"/>
<polygon fill="#63b8ff" stroke="#63b8ff" points="310.06,-136.49 302.29,-129.29 303.88,-139.76 310.06,-136.49"/>
</a>
</g>
</g>
<!-- Node3 -->
<g id="Node000003" class="node">
<title>Node3</title>
<g id="a_Node000003"><a xlink:title=" ">
<polygon fill="#e0e0e0" stroke="#999999" points="870.35,-74 825.35,-74 825.35,-55 870.35,-55 870.35,-74"/>
<text text-anchor="middle" x="847.85" y="-62" font-family="Helvetica,sans-Serif" font-size="10.00">utility</text>
</a>
</g>
</g>
<!-- Node1&#45;&gt;Node3 -->
<g id="edge20_Node000001_Node000003" class="edge">
<title>Node1&#45;&gt;Node3</title>
<g id="a_edge20_Node000001_Node000003"><a xlink:title=" ">
<path fill="none" stroke="#63b8ff" d="M505.75,-283.11C611.72,-271.33 825.27,-240.96 869.85,-184 893.07,-154.32 872.73,-107.76 858.63,-82.75"/>
<polygon fill="#63b8ff" stroke="#63b8ff" points="861.56,-80.84 853.46,-74.02 855.54,-84.41 861.56,-80.84"/>
</a>
</g>
</g>
<!-- Node9 -->
<g id="Node000009" class="node">
<title>Node9</title>
<g id="a_Node000009"><a xlink:title=" ">
<polygon fill="#e0e0e0" stroke="#999999" points="953.35,-74 888.35,-74 888.35,-55 953.35,-55 953.35,-74"/>
<text text-anchor="middle" x="920.85" y="-62" font-family="Helvetica,sans-Serif" font-size="10.00">functional</text>
</a>
</g>
</g>
<!-- Node1&#45;&gt;Node9 -->
<g id="edge18_Node000001_Node000009" class="edge">
<title>Node1&#45;&gt;Node9</title>
<g id="a_edge18_Node000001_Node000009"><a xlink:title=" ">
<path fill="none" stroke="#63b8ff" d="M505.41,-287.97C577.06,-285.07 700.04,-274.74 798.85,-239 842.57,-223.18 859.91,-221.17 887.85,-184 910.43,-153.95 917.56,-109.19 919.81,-84.16"/>
<polygon fill="#63b8ff" stroke="#63b8ff" points="923.3,-84.41 920.54,-74.18 916.32,-83.9 923.3,-84.41"/>
</a>
</g>
</g>
<!-- Node13 -->
<g id="Node000013" class="node">
<title>Node13</title>
<g id="a_Node000013"><a xlink:title=" ">
<polygon fill="#e0e0e0" stroke="#999999" points="1241.85,-19 1181.85,-19 1181.85,0 1241.85,0 1241.85,-19"/>
<text text-anchor="middle" x="1211.85" y="-7" font-family="Helvetica,sans-Serif" font-size="10.00">iostream</text>
</a>
</g>
</g>
<!-- Node1&#45;&gt;Node13 -->
<g id="edge19_Node000001_Node000013" class="edge">
<title>Node1&#45;&gt;Node13</title>
<g id="a_edge19_Node000001_Node000013"><a xlink:title=" ">
<path fill="none" stroke="#63b8ff" d="M505.62,-286.85C691.95,-279.36 1249.85,-250.65 1249.85,-175.5 1249.85,-175.5 1249.85,-175.5 1249.85,-118.5 1249.85,-85.02 1233.4,-48.84 1222.14,-28.01"/>
<polygon fill="#63b8ff" stroke="#63b8ff" points="1225.08,-26.1 1217.13,-19.1 1218.98,-29.53 1225.08,-26.1"/>
</a>
</g>
</g>
<!-- Node14 -->
<g id="Node000014" class="node">
<title>Node14</title>
<g id="a_Node000014"><a xlink:href="types_8h.html" target="_top" xlink:title=" ">
<polygon fill="white" stroke="#666666" points="348.35,-74 259.35,-74 259.35,-55 348.35,-55 348.35,-74"/>
<text text-anchor="middle" x="303.85" y="-62" font-family="Helvetica,sans-Serif" font-size="10.00">Library/types.h</text>
</a>
</g>
</g>
<!-- Node1&#45;&gt;Node14 -->
<g id="edge44_Node000001_Node000014" class="edge">
<title>Node1&#45;&gt;Node14</title>
<g id="a_edge44_Node000001_Node000014"><a xlink:title=" ">
<path fill="none" stroke="#63b8ff" d="M400.58,-274.97C341.8,-253.97 241.88,-208.15 200.85,-129 187.35,-102.97 219.18,-86.45 250.93,-76.81"/>
<polygon fill="#63b8ff" stroke="#63b8ff" points="252.06,-80.12 260.73,-74.03 250.15,-73.39 252.06,-80.12"/>
</a>
</g>
</g>
<!-- Node15 -->
<g id="Node000015" class="node">
<title>Node15</title>
<g id="a_Node000015"><a xlink:href="database_8h.html" target="_top" xlink:title=" ">
<polygon fill="white" stroke="#666666" points="505.85,-239 385.85,-239 385.85,-220 505.85,-220 505.85,-239"/>
<text text-anchor="middle" x="445.85" y="-227" font-family="Helvetica,sans-Serif" font-size="10.00">Database/database.h</text>
</a>
</g>
</g>
<!-- Node1&#45;&gt;Node15 -->
<g id="edge21_Node000001_Node000015" class="edge">
<title>Node1&#45;&gt;Node15</title>
<g id="a_edge21_Node000001_Node000015"><a xlink:title=" ">
<path fill="none" stroke="#63b8ff" d="M445.85,-274.84C445.85,-267.21 445.85,-257.7 445.85,-249.45"/>
<polygon fill="#63b8ff" stroke="#63b8ff" points="449.35,-249.27 445.85,-239.27 442.35,-249.27 449.35,-249.27"/>
</a>
</g>
</g>
<!-- Node23 -->
<g id="Node000023" class="node">
<title>Node23</title>
<g id="a_Node000023"><a xlink:href="utils_8h_source.html" target="_top" xlink:title=" ">
<polygon fill="white" stroke="#666666" points="153.35,-129 70.35,-129 70.35,-110 153.35,-110 153.35,-129"/>
<text text-anchor="middle" x="111.85" y="-117" font-family="Helvetica,sans-Serif" font-size="10.00">Library/utils.h</text>
</a>
</g>
</g>
<!-- Node1&#45;&gt;Node23 -->
<g id="edge45_Node000001_Node000023" class="edge">
<title>Node1&#45;&gt;Node23</title>
<g id="a_edge45_Node000001_Node000023"><a xlink:title=" ">
<path fill="none" stroke="#63b8ff" d="M386.2,-284.64C314.98,-278.36 201.28,-264.61 167.85,-239 135.29,-214.06 120.81,-165.49 115.1,-138.93"/>
<polygon fill="#63b8ff" stroke="#63b8ff" points="118.52,-138.17 113.16,-129.03 111.65,-139.52 118.52,-138.17"/>
</a>
</g>
</g>
<!-- Node2&#45;&gt;Node3 -->
<g id="edge2_Node000002_Node000003" class="edge">
<title>Node2&#45;&gt;Node3</title>
<g id="a_edge2_Node000002_Node000003"><a xlink:title=" ">
<path fill="none" stroke="#63b8ff" d="M386.18,-115.82C487.75,-111.64 659.48,-101.19 815.05,-74.02"/>
<polygon fill="#63b8ff" stroke="#63b8ff" points="816.03,-77.4 825.27,-72.2 814.81,-70.5 816.03,-77.4"/>
</a>
</g>
</g>
<!-- Node4 -->
<g id="Node000004" class="node">
<title>Node4</title>
<g id="a_Node000004"><a xlink:title=" ">
<polygon fill="#e0e0e0" stroke="#999999" points="476.35,-19 429.35,-19 429.35,0 476.35,0 476.35,-19"/>
<text text-anchor="middle" x="452.85" y="-7" font-family="Helvetica,sans-Serif" font-size="10.00">vector</text>
</a>
</g>
</g>
<!-- Node2&#45;&gt;Node4 -->
<g id="edge3_Node000002_Node000004" class="edge">
<title>Node2&#45;&gt;Node4</title>
<g id="a_edge3_Node000002_Node000004"><a xlink:title=" ">
<path fill="none" stroke="#63b8ff" d="M310.27,-109.84C336.8,-91.36 399.23,-47.86 431.97,-25.05"/>
<polygon fill="#63b8ff" stroke="#63b8ff" points="434.16,-27.79 440.37,-19.2 430.16,-22.04 434.16,-27.79"/>
</a>
</g>
</g>
<!-- Node5 -->
<g id="Node000005" class="node">
<title>Node5</title>
<g id="a_Node000005"><a xlink:title=" ">
<polygon fill="#e0e0e0" stroke="#999999" points="786.85,-19 742.85,-19 742.85,0 786.85,0 786.85,-19"/>
<text text-anchor="middle" x="764.85" y="-7" font-family="Helvetica,sans-Serif" font-size="10.00">string</text>
</a>
</g>
</g>
<!-- Node2&#45;&gt;Node5 -->
<g id="edge4_Node000002_Node000005" class="edge">
<title>Node2&#45;&gt;Node5</title>
<g id="a_edge4_Node000002_Node000005"><a xlink:title=" ">
<path fill="none" stroke="#63b8ff" d="M315.52,-109.88C349.5,-93.37 421.69,-58.57 433.85,-55 540.18,-23.82 672.21,-14.39 732.32,-11.62"/>
<polygon fill="#63b8ff" stroke="#63b8ff" points="732.84,-15.1 742.68,-11.17 732.54,-8.11 732.84,-15.1"/>
</a>
</g>
</g>
<!-- Node6 -->
<g id="Node000006" class="node">
<title>Node6</title>
<g id="a_Node000006"><a xlink:title=" ">
<polygon fill="#e0e0e0" stroke="#999999" points="500.85,-74 442.85,-74 442.85,-55 500.85,-55 500.85,-74"/>
<text text-anchor="middle" x="471.85" y="-62" font-family="Helvetica,sans-Serif" font-size="10.00">memory</text>
</a>
</g>
</g>
<!-- Node2&#45;&gt;Node6 -->
<g id="edge5_Node000002_Node000006" class="edge">
<title>Node2&#45;&gt;Node6</title>
<g id="a_edge5_Node000002_Node000006"><a xlink:title=" ">
<path fill="none" stroke="#63b8ff" d="M325.8,-109.98C355.14,-101.05 401.44,-86.94 434.03,-77.02"/>
<polygon fill="#63b8ff" stroke="#63b8ff" points="435.13,-80.34 443.67,-74.08 433.09,-73.65 435.13,-80.34"/>
</a>
</g>
</g>
<!-- Node7 -->
<g id="Node000007" class="node">
<title>Node7</title>
<g id="a_Node000007"><a xlink:title=" ">
<polygon fill="#e0e0e0" stroke="#999999" points="68.85,-74 14.85,-74 14.85,-55 68.85,-55 68.85,-74"/>
<text text-anchor="middle" x="41.85" y="-62" font-family="Helvetica,sans-Serif" font-size="10.00">random</text>
</a>
</g>
</g>
<!-- Node2&#45;&gt;Node7 -->
<g id="edge6_Node000002_Node000007" class="edge">
<title>Node2&#45;&gt;Node7</title>
<g id="a_edge6_Node000002_Node000007"><a xlink:title=" ">
<path fill="none" stroke="#63b8ff" d="M253.51,-109.97C211.11,-101.71 145.11,-88.61 78.74,-74.14"/>
<polygon fill="#63b8ff" stroke="#63b8ff" points="79.47,-70.72 68.95,-72 77.97,-77.56 79.47,-70.72"/>
</a>
</g>
</g>
<!-- Node8 -->
<g id="Node000008" class="node">
<title>Node8</title>
<g id="a_Node000008"><a xlink:title=" ">
<polygon fill="#e0e0e0" stroke="#999999" points="277.35,-19 184.35,-19 184.35,0 277.35,0 277.35,-19"/>
<text text-anchor="middle" x="230.85" y="-7" font-family="Helvetica,sans-Serif" font-size="10.00">unordered_map</text>
</a>
</g>
</g>
<!-- Node2&#45;&gt;Node8 -->
<g id="edge7_Node000002_Node000008" class="edge">
<title>Node2&#45;&gt;Node8</title>
<g id="a_edge7_Node000002_Node000008"><a xlink:title=" ">
<path fill="none" stroke="#63b8ff" d="M285.04,-109.69C274.19,-101.6 258.98,-88.66 249.85,-74 241.29,-60.26 236.4,-42.46 233.73,-29.2"/>
<polygon fill="#63b8ff" stroke="#63b8ff" points="237.17,-28.55 231.98,-19.32 230.28,-29.78 237.17,-28.55"/>
</a>
</g>
</g>
<!-- Node2&#45;&gt;Node9 -->
<g id="edge8_Node000002_Node000009" class="edge">
<title>Node2&#45;&gt;Node9</title>
<g id="a_edge8_Node000002_Node000009"><a xlink:title=" ">
<path fill="none" stroke="#63b8ff" d="M385.98,-115.28C498.25,-110.38 698.36,-99.02 878.33,-74.05"/>
<polygon fill="#63b8ff" stroke="#63b8ff" points="878.82,-77.51 888.24,-72.65 877.85,-70.58 878.82,-77.51"/>
</a>
</g>
</g>
<!-- Node10 -->
<g id="Node000010" class="node">
<title>Node10</title>
<g id="a_Node000010"><a xlink:title=" ">
<polygon fill="#e0e0e0" stroke="#999999" points="136.85,-74 86.85,-74 86.85,-55 136.85,-55 136.85,-74"/>
<text text-anchor="middle" x="111.85" y="-62" font-family="Helvetica,sans-Serif" font-size="10.00">chrono</text>
</a>
</g>
</g>
<!-- Node2&#45;&gt;Node10 -->
<g id="edge9_Node000002_Node000010" class="edge">
<title>Node2&#45;&gt;Node10</title>
<g id="a_edge9_Node000002_Node000010"><a xlink:title=" ">
<path fill="none" stroke="#63b8ff" d="M267.96,-109.98C234.88,-100.56 181.61,-85.38 146.66,-75.42"/>
<polygon fill="#63b8ff" stroke="#63b8ff" points="147.46,-72.01 136.89,-72.63 145.54,-78.74 147.46,-72.01"/>
</a>
</g>
</g>
<!-- Node11 -->
<g id="Node000011" class="node">
<title>Node11</title>
<g id="a_Node000011"><a xlink:title=" ">
<polygon fill="#e0e0e0" stroke="#999999" points="202.35,-74 155.35,-74 155.35,-55 202.35,-55 202.35,-74"/>
<text text-anchor="middle" x="178.85" y="-62" font-family="Helvetica,sans-Serif" font-size="10.00">cmath</text>
</a>
</g>
</g>
<!-- Node2&#45;&gt;Node11 -->
<g id="edge10_Node000002_Node000011" class="edge">
<title>Node2&#45;&gt;Node11</title>
<g id="a_edge10_Node000002_Node000011"><a xlink:title=" ">
<path fill="none" stroke="#63b8ff" d="M278.73,-109.98C259.5,-101.42 229.61,-88.11 207.54,-78.28"/>
<polygon fill="#63b8ff" stroke="#63b8ff" points="208.87,-75.04 198.31,-74.17 206.02,-81.44 208.87,-75.04"/>
</a>
</g>
</g>
<!-- Node12 -->
<g id="Node000012" class="node">
<title>Node12</title>
<g id="a_Node000012"><a xlink:href="error_8h.html" target="_top" xlink:title=" ">
<polygon fill="white" stroke="#666666" points="807.35,-74 722.35,-74 722.35,-55 807.35,-55 807.35,-74"/>
<text text-anchor="middle" x="764.85" y="-62" font-family="Helvetica,sans-Serif" font-size="10.00">Library/error.h</text>
</a>
</g>
</g>
<!-- Node2&#45;&gt;Node12 -->
<g id="edge11_Node000002_Node000012" class="edge">
<title>Node2&#45;&gt;Node12</title>
<g id="a_edge11_Node000002_Node000012"><a xlink:title=" ">
<path fill="none" stroke="#63b8ff" d="M372.88,-109.98C467.92,-99.2 629.29,-80.88 712.21,-71.47"/>
<polygon fill="#63b8ff" stroke="#63b8ff" points="712.62,-74.95 722.17,-70.34 711.83,-67.99 712.62,-74.95"/>
</a>
</g>
</g>
<!-- Node2&#45;&gt;Node14 -->
<g id="edge14_Node000002_Node000014" class="edge">
<title>Node2&#45;&gt;Node14</title>
<g id="a_edge14_Node000002_Node000014"><a xlink:title=" ">
<path fill="none" stroke="#63b8ff" d="M298.84,-109.75C299.62,-102.8 300.75,-92.85 301.74,-84.13"/>
<polygon fill="#63b8ff" stroke="#63b8ff" points="305.23,-84.42 302.87,-74.09 298.27,-83.63 305.23,-84.42"/>
</a>
</g>
</g>
<!-- Node12&#45;&gt;Node5 -->
<g id="edge12_Node000012_Node000005" class="edge">
<title>Node12&#45;&gt;Node5</title>
<g id="a_edge12_Node000012_Node000005"><a xlink:title=" ">
<path fill="none" stroke="#63b8ff" d="M764.85,-54.75C764.85,-47.8 764.85,-37.85 764.85,-29.13"/>
<polygon fill="#63b8ff" stroke="#63b8ff" points="768.35,-29.09 764.85,-19.09 761.35,-29.09 768.35,-29.09"/>
</a>
</g>
</g>
<!-- Node12&#45;&gt;Node13 -->
<g id="edge13_Node000012_Node000013" class="edge">
<title>Node12&#45;&gt;Node13</title>
<g id="a_edge13_Node000012_Node000013"><a xlink:title=" ">
<path fill="none" stroke="#63b8ff" d="M807.39,-56.37C810.59,-55.89 813.77,-55.43 816.85,-55 945.92,-37.19 1099.46,-21.45 1171.17,-14.41"/>
<polygon fill="#63b8ff" stroke="#63b8ff" points="1171.94,-17.85 1181.55,-13.39 1171.26,-10.88 1171.94,-17.85"/>
</a>
</g>
</g>
<!-- Node14&#45;&gt;Node4 -->
<g id="edge15_Node000014_Node000004" class="edge">
<title>Node14&#45;&gt;Node4</title>
<g id="a_edge15_Node000014_Node000004"><a xlink:title=" ">
<path fill="none" stroke="#63b8ff" d="M327.79,-54.98C352.55,-46.18 391.43,-32.35 419.26,-22.45"/>
<polygon fill="#63b8ff" stroke="#63b8ff" points="420.72,-25.64 428.97,-18.99 418.37,-19.05 420.72,-25.64"/>
</a>
</g>
</g>
<!-- Node14&#45;&gt;Node5 -->
<g id="edge17_Node000014_Node000005" class="edge">
<title>Node14&#45;&gt;Node5</title>
<g id="a_edge17_Node000014_Node000005"><a xlink:title=" ">
<path fill="none" stroke="#63b8ff" d="M348.47,-58.37C441.02,-47.73 651.98,-23.48 732.66,-14.2"/>
<polygon fill="#63b8ff" stroke="#63b8ff" points="733.18,-17.66 742.71,-13.04 732.38,-10.71 733.18,-17.66"/>
</a>
</g>
</g>
<!-- Node14&#45;&gt;Node8 -->
<g id="edge16_Node000014_Node000008" class="edge">
<title>Node14&#45;&gt;Node8</title>
<g id="a_edge16_Node000014_Node000008"><a xlink:title=" ">
<path fill="none" stroke="#63b8ff" d="M292.12,-54.98C281.11,-47 264.43,-34.88 251.24,-25.31"/>
<polygon fill="#63b8ff" stroke="#63b8ff" points="252.94,-22.21 242.79,-19.17 248.82,-27.88 252.94,-22.21"/>
</a>
</g>
</g>
<!-- Node15&#45;&gt;Node6 -->
<g id="edge22_Node000015_Node000006" class="edge">
<title>Node15&#45;&gt;Node6</title>
<g id="a_edge22_Node000015_Node000006"><a xlink:title=" ">
<path fill="none" stroke="#63b8ff" d="M447.24,-219.74C451.32,-194.2 463.24,-119.43 468.86,-84.23"/>
<polygon fill="#63b8ff" stroke="#63b8ff" points="472.32,-84.73 470.44,-74.31 465.41,-83.63 472.32,-84.73"/>
</a>
</g>
</g>
<!-- Node16 -->
<g id="Node000016" class="node">
<title>Node16</title>
<g id="a_Node000016"><a xlink:href="transaction_8h_source.html" target="_top" xlink:title=" ">
<polygon fill="white" stroke="#666666" points="860.35,-184 721.35,-184 721.35,-165 860.35,-165 860.35,-184"/>
<text text-anchor="middle" x="790.85" y="-172" font-family="Helvetica,sans-Serif" font-size="10.00">Transaction/transaction.h</text>
</a>
</g>
</g>
<!-- Node15&#45;&gt;Node16 -->
<g id="edge23_Node000015_Node000016" class="edge">
<title>Node15&#45;&gt;Node16</title>
<g id="a_edge23_Node000015_Node000016"><a xlink:title=" ">
<path fill="none" stroke="#63b8ff" d="M501.28,-219.98C562.3,-210.61 660.33,-195.55 725.16,-185.59"/>
<polygon fill="#63b8ff" stroke="#63b8ff" points="725.92,-189.02 735.27,-184.04 724.85,-182.1 725.92,-189.02"/>
</a>
</g>
</g>
<!-- Node16&#45;&gt;Node3 -->
<g id="edge28_Node000016_Node000003" class="edge">
<title>Node16&#45;&gt;Node3</title>
<g id="a_edge28_Node000016_Node000003"><a xlink:title=" ">
<path fill="none" stroke="#63b8ff" d="M795.51,-164.66C804.91,-146.85 826.28,-106.37 838.61,-83.01"/>
<polygon fill="#63b8ff" stroke="#63b8ff" points="841.7,-84.64 843.28,-74.16 835.51,-81.37 841.7,-84.64"/>
</a>
</g>
</g>
<!-- Node16&#45;&gt;Node4 -->
<g id="edge29_Node000016_Node000004" class="edge">
<title>Node16&#45;&gt;Node4</title>
<g id="a_edge29_Node000016_Node000004"><a xlink:title=" ">
<path fill="none" stroke="#63b8ff" d="M721.04,-172.48C646.54,-169.73 535.61,-160.32 508.85,-129 487.48,-103.99 524.27,-84.56 509.85,-55 503.55,-42.09 491.49,-31.83 480.09,-24.43"/>
<polygon fill="#63b8ff" stroke="#63b8ff" points="481.58,-21.25 471.2,-19.12 477.98,-27.25 481.58,-21.25"/>
</a>
</g>
</g>
<!-- Node16&#45;&gt;Node5 -->
<g id="edge27_Node000016_Node000005" class="edge">
<title>Node16&#45;&gt;Node5</title>
<g id="a_edge27_Node000016_Node000005"><a xlink:title=" ">
<path fill="none" stroke="#63b8ff" d="M860.65,-172.92C988.69,-169.55 1240.47,-150.95 1154.85,-55 1131.14,-28.43 886.19,-15.58 797.05,-11.76"/>
<polygon fill="#63b8ff" stroke="#63b8ff" points="797.12,-8.26 786.98,-11.34 796.83,-15.26 797.12,-8.26"/>
</a>
</g>
</g>
<!-- Node16&#45;&gt;Node6 -->
<g id="edge30_Node000016_Node000006" class="edge">
<title>Node16&#45;&gt;Node6</title>
<g id="a_edge30_Node000016_Node000006"><a xlink:title=" ">
<path fill="none" stroke="#63b8ff" d="M788.32,-164.85C783.73,-150.84 772.65,-123.38 752.85,-110 714.1,-83.81 578.92,-72.02 511.17,-67.65"/>
<polygon fill="#63b8ff" stroke="#63b8ff" points="511.1,-64.14 500.9,-67.01 510.67,-71.13 511.1,-64.14"/>
</a>
</g>
</g>
<!-- Node16&#45;&gt;Node9 -->
<g id="edge33_Node000016_Node000009" class="edge">
<title>Node16&#45;&gt;Node9</title>
<g id="a_edge33_Node000016_Node000009"><a xlink:title=" ">
<path fill="none" stroke="#63b8ff" d="M801.48,-164.66C823.69,-146.22 875.17,-103.45 902.71,-80.57"/>
<polygon fill="#63b8ff" stroke="#63b8ff" points="904.97,-83.24 910.42,-74.16 900.5,-77.86 904.97,-83.24"/>
</a>
</g>
</g>
<!-- Node16&#45;&gt;Node12 -->
<g id="edge35_Node000016_Node000012" class="edge">
<title>Node16&#45;&gt;Node12</title>
<g id="a_edge35_Node000016_Node000012"><a xlink:title=" ">
<path fill="none" stroke="#63b8ff" d="M791.14,-164.71C791.34,-152.29 790.9,-129.02 785.85,-110 783.38,-100.71 779.02,-90.99 774.92,-83.02"/>
<polygon fill="#63b8ff" stroke="#63b8ff" points="777.87,-81.11 770.01,-74.01 771.72,-84.46 777.87,-81.11"/>
</a>
</g>
</g>
<!-- Node16&#45;&gt;Node13 -->
<g id="edge24_Node000016_Node000013" class="edge">
<title>Node16&#45;&gt;Node13</title>
<g id="a_edge24_Node000016_Node000013"><a xlink:title=" ">
<path fill="none" stroke="#63b8ff" d="M860.65,-173.66C956.04,-172.49 1120.6,-165.1 1166.85,-129 1198.11,-104.59 1207.66,-55.81 1210.57,-29.07"/>
<polygon fill="#63b8ff" stroke="#63b8ff" points="1214.06,-29.37 1211.46,-19.1 1207.09,-28.75 1214.06,-29.37"/>
</a>
</g>
</g>
<!-- Node16&#45;&gt;Node14 -->
<g id="edge34_Node000016_Node000014" class="edge">
<title>Node16&#45;&gt;Node14</title>
<g id="a_edge34_Node000016_Node000014"><a xlink:title=" ">
<path fill="none" stroke="#63b8ff" d="M721.2,-167.96C656.82,-161.83 558.86,-149.93 475.85,-129 423.74,-115.86 365.55,-92.43 331.97,-78"/>
<polygon fill="#63b8ff" stroke="#63b8ff" points="333.34,-74.78 322.77,-74.01 330.55,-81.2 333.34,-74.78"/>
</a>
</g>
</g>
<!-- Node17 -->
<g id="Node000017" class="node">
<title>Node17</title>
<g id="a_Node000017"><a xlink:title=" ">
<polygon fill="#e0e0e0" stroke="#999999" points="565.85,-129 517.85,-129 517.85,-110 565.85,-110 565.85,-129"/>
<text text-anchor="middle" x="541.85" y="-117" font-family="Helvetica,sans-Serif" font-size="10.00">mutex</text>
</a>
</g>
</g>
<!-- Node16&#45;&gt;Node17 -->
<g id="edge25_Node000016_Node000017" class="edge">
<title>Node16&#45;&gt;Node17</title>
<g id="a_edge25_Node000016_Node000017"><a xlink:title=" ">
<path fill="none" stroke="#63b8ff" d="M746.03,-164.93C704.38,-156.82 640.41,-143.98 575.9,-129.16"/>
<polygon fill="#63b8ff" stroke="#63b8ff" points="576.5,-125.7 565.96,-126.86 574.92,-132.52 576.5,-125.7"/>
</a>
</g>
</g>
<!-- Node18 -->
<g id="Node000018" class="node">
<title>Node18</title>
<g id="a_Node000018"><a xlink:title=" ">
<polygon fill="#e0e0e0" stroke="#999999" points="669.85,-129 583.85,-129 583.85,-110 669.85,-110 669.85,-129"/>
<text text-anchor="middle" x="626.85" y="-117" font-family="Helvetica,sans-Serif" font-size="10.00">shared_mutex</text>
</a>
</g>
</g>
<!-- Node16&#45;&gt;Node18 -->
<g id="edge26_Node000016_Node000018" class="edge">
<title>Node16&#45;&gt;Node18</title>
<g id="a_edge26_Node000016_Node000018"><a xlink:title=" ">
<path fill="none" stroke="#63b8ff" d="M764.5,-164.98C737.08,-156.13 693.95,-142.19 663.29,-132.28"/>
<polygon fill="#63b8ff" stroke="#63b8ff" points="663.99,-128.83 653.4,-129.08 661.84,-135.49 663.99,-128.83"/>
</a>
</g>
</g>
<!-- Node19 -->
<g id="Node000019" class="node">
<title>Node19</title>
<g id="a_Node000019"><a xlink:title=" ">
<polygon fill="#e0e0e0" stroke="#999999" points="1145.85,-74 1107.85,-74 1107.85,-55 1145.85,-55 1145.85,-74"/>
<text text-anchor="middle" x="1126.85" y="-62" font-family="Helvetica,sans-Serif" font-size="10.00">map</text>
</a>
</g>
</g>
<!-- Node16&#45;&gt;Node19 -->
<g id="edge31_Node000016_Node000019" class="edge">
<title>Node16&#45;&gt;Node19</title>
<g id="a_edge31_Node000016_Node000019"><a xlink:title=" ">
<path fill="none" stroke="#63b8ff" d="M860.67,-173.4C945.48,-171.72 1081.6,-163.53 1116.85,-129 1128.42,-117.66 1130.08,-98.76 1129.35,-84.52"/>
<polygon fill="#63b8ff" stroke="#63b8ff" points="1132.82,-83.96 1128.4,-74.33 1125.85,-84.62 1132.82,-83.96"/>
</a>
</g>
</g>
<!-- Node20 -->
<g id="Node000020" class="node">
<title>Node20</title>
<g id="a_Node000020"><a xlink:title=" ">
<polygon fill="#e0e0e0" stroke="#999999" points="743.85,-129 687.85,-129 687.85,-110 743.85,-110 743.85,-129"/>
<text text-anchor="middle" x="715.85" y="-117" font-family="Helvetica,sans-Serif" font-size="10.00">optional</text>
</a>
</g>
</g>
<!-- Node16&#45;&gt;Node20 -->
<g id="edge32_Node000016_Node000020" class="edge">
<title>Node16&#45;&gt;Node20</title>
<g id="a_edge32_Node000016_Node000020"><a xlink:title=" ">
<path fill="none" stroke="#63b8ff" d="M778.8,-164.98C767.38,-156.92 750.02,-144.65 736.41,-135.03"/>
<polygon fill="#63b8ff" stroke="#63b8ff" points="738.3,-132.08 728.12,-129.17 734.26,-137.8 738.3,-132.08"/>
</a>
</g>
</g>
<!-- Node21 -->
<g id="Node000021" class="node">
<title>Node21</title>
<g id="a_Node000021"><a xlink:href="evaluate_8h.html" target="_top" xlink:title=" ">
<polygon fill="white" stroke="#666666" points="1107.85,-129 989.85,-129 989.85,-110 1107.85,-110 1107.85,-129"/>
<text text-anchor="middle" x="1048.85" y="-117" font-family="Helvetica,sans-Serif" font-size="10.00">Evaluator/evaluate.h</text>
</a>
</g>
</g>
<!-- Node16&#45;&gt;Node21 -->
<g id="edge36_Node000016_Node000021" class="edge">
<title>Node16&#45;&gt;Node21</title>
<g id="a_edge36_Node000016_Node000021"><a xlink:title=" ">
<path fill="none" stroke="#63b8ff" d="M832.3,-164.98C877.11,-155.78 948.62,-141.09 997.09,-131.13"/>
<polygon fill="#63b8ff" stroke="#63b8ff" points="997.98,-134.52 1007.07,-129.08 996.57,-127.67 997.98,-134.52"/>
</a>
</g>
</g>
<!-- Node21&#45;&gt;Node3 -->
<g id="edge37_Node000021_Node000003" class="edge">
<title>Node21&#45;&gt;Node3</title>
<g id="a_edge37_Node000021_Node000003"><a xlink:title=" ">
<path fill="none" stroke="#63b8ff" d="M1016.44,-109.99C984.41,-101.57 933.74,-88.25 880.53,-74.18"/>
<polygon fill="#63b8ff" stroke="#63b8ff" points="881.13,-70.72 870.57,-71.54 879.34,-77.48 881.13,-70.72"/>
</a>
</g>
</g>
<!-- Node21&#45;&gt;Node4 -->
<g id="edge38_Node000021_Node000004" class="edge">
<title>Node21&#45;&gt;Node4</title>
<g id="a_edge38_Node000021_Node000004"><a xlink:title=" ">
<path fill="none" stroke="#63b8ff" d="M1038.53,-109.76C1019.55,-93.87 979.51,-61.3 962.85,-55 875.22,-21.86 586.05,-13.12 486.71,-11.07"/>
<polygon fill="#63b8ff" stroke="#63b8ff" points="486.69,-7.57 476.62,-10.87 486.55,-14.57 486.69,-7.57"/>
</a>
</g>
</g>
<!-- Node21&#45;&gt;Node5 -->
<g id="edge39_Node000021_Node000005" class="edge">
<title>Node21&#45;&gt;Node5</title>
<g id="a_edge39_Node000021_Node000005"><a xlink:title=" ">
<path fill="none" stroke="#63b8ff" d="M1044.29,-109.9C1036.41,-95.94 1018.85,-68.57 995.85,-55 932.53,-17.66 844.06,-10.83 797.11,-10.06"/>
<polygon fill="#63b8ff" stroke="#63b8ff" points="796.95,-6.56 786.92,-9.98 796.89,-13.56 796.95,-6.56"/>
</a>
</g>
</g>
<!-- Node21&#45;&gt;Node9 -->
<g id="edge40_Node000021_Node000009" class="edge">
<title>Node21&#45;&gt;Node9</title>
<g id="a_edge40_Node000021_Node000009"><a xlink:title=" ">
<path fill="none" stroke="#63b8ff" d="M1028.28,-109.98C1007.41,-101.34 974.88,-87.87 951.07,-78.02"/>
<polygon fill="#63b8ff" stroke="#63b8ff" points="952.36,-74.76 941.79,-74.17 949.69,-81.23 952.36,-74.76"/>
</a>
</g>
</g>
<!-- Node21&#45;&gt;Node14 -->
<g id="edge43_Node000021_Node000014" class="edge">
<title>Node21&#45;&gt;Node14</title>
<g id="a_edge43_Node000021_Node000014"><a xlink:title=" ">
<path fill="none" stroke="#63b8ff" d="M989.76,-114.3C849.06,-104.29 495.69,-79.15 359.02,-69.42"/>
<polygon fill="#63b8ff" stroke="#63b8ff" points="359.01,-65.92 348.78,-68.7 358.51,-72.9 359.01,-65.92"/>
</a>
</g>
</g>
<!-- Node21&#45;&gt;Node19 -->
<g id="edge42_Node000021_Node000019" class="edge">
<title>Node21&#45;&gt;Node19</title>
<g id="a_edge42_Node000021_Node000019"><a xlink:title=" ">
<path fill="none" stroke="#63b8ff" d="M1061.38,-109.98C1073.25,-101.92 1091.31,-89.65 1105.46,-80.03"/>
<polygon fill="#63b8ff" stroke="#63b8ff" points="1107.78,-82.69 1114.09,-74.17 1103.85,-76.9 1107.78,-82.69"/>
</a>
</g>
</g>
<!-- Node22 -->
<g id="Node000022" class="node">
<title>Node22</title>
<g id="a_Node000022"><a xlink:title=" ">
<polygon fill="#e0e0e0" stroke="#999999" points="1089.35,-74 1048.35,-74 1048.35,-55 1089.35,-55 1089.35,-74"/>
<text text-anchor="middle" x="1068.85" y="-62" font-family="Helvetica,sans-Serif" font-size="10.00">tuple</text>
</a>
</g>
</g>
<!-- Node21&#45;&gt;Node22 -->
<g id="edge41_Node000021_Node000022" class="edge">
<title>Node21&#45;&gt;Node22</title>
<g id="a_edge41_Node000021_Node000022"><a xlink:title=" ">
<path fill="none" stroke="#63b8ff" d="M1052.15,-109.75C1054.83,-102.65 1058.7,-92.4 1062.03,-83.56"/>
<polygon fill="#63b8ff" stroke="#63b8ff" points="1065.35,-84.68 1065.61,-74.09 1058.8,-82.21 1065.35,-84.68"/>
</a>
</g>
</g>
<!-- Node23&#45;&gt;Node7 -->
<g id="edge47_Node000023_Node000007" class="edge">
<title>Node23&#45;&gt;Node7</title>
<g id="a_edge47_Node000023_Node000007"><a xlink:title=" ">
<path fill="none" stroke="#63b8ff" d="M100.6,-109.98C90.05,-102 74.05,-89.88 61.4,-80.31"/>
<polygon fill="#63b8ff" stroke="#63b8ff" points="63.38,-77.42 53.3,-74.17 59.16,-83 63.38,-77.42"/>
</a>
</g>
</g>
<!-- Node23&#45;&gt;Node8 -->
<g id="edge49_Node000023_Node000008" class="edge">
<title>Node23&#45;&gt;Node8</title>
<g id="a_edge49_Node000023_Node000008"><a xlink:title=" ">
<path fill="none" stroke="#63b8ff" d="M70.54,-109.96C32.09,-100.15 -16.21,-81.85 5.85,-55 26.76,-29.55 114.6,-18.41 174.14,-13.71"/>
<polygon fill="#63b8ff" stroke="#63b8ff" points="174.46,-17.2 184.17,-12.96 173.93,-10.22 174.46,-17.2"/>
</a>
</g>
</g>
<!-- Node23&#45;&gt;Node10 -->
<g id="edge46_Node000023_Node000010" class="edge">
<title>Node23&#45;&gt;Node10</title>
<g id="a_edge46_Node000023_Node000010"><a xlink:title=" ">
<path fill="none" stroke="#63b8ff" d="M111.85,-109.75C111.85,-102.8 111.85,-92.85 111.85,-84.13"/>
<polygon fill="#63b8ff" stroke="#63b8ff" points="115.35,-84.09 111.85,-74.09 108.35,-84.09 115.35,-84.09"/>
</a>
</g>
</g>
<!-- Node23&#45;&gt;Node11 -->
<g id="edge48_Node000023_Node000011" class="edge">
<title>Node23&#45;&gt;Node11</title>
<g id="a_edge48_Node000023_Node000011"><a xlink:title=" ">
<path fill="none" stroke="#63b8ff" d="M122.61,-109.98C132.61,-102.07 147.73,-90.11 159.78,-80.58"/>
<polygon fill="#63b8ff" stroke="#63b8ff" points="162.21,-83.12 167.89,-74.17 157.87,-77.63 162.21,-83.12"/>
</a>
</g>
</g>
<!-- Node23&#45;&gt;Node14 -->
<g id="edge50_Node000023_Node000014" class="edge">
<title>Node23&#45;&gt;Node14</title>
<g id="a_edge50_Node000023_Node000014"><a xlink:title=" ">
<path fill="none" stroke="#63b8ff" d="M142.69,-109.98C175.35,-100.97 227.04,-86.7 263.05,-76.76"/>
<polygon fill="#63b8ff" stroke="#63b8ff" points="264.05,-80.12 272.76,-74.08 262.19,-73.37 264.05,-80.12"/>
</a>
</g>
</g>
</g>
</svg>
