<?xml version="1.0" encoding="UTF-8" standalone="no"?>
<!DOCTYPE svg PUBLIC "-//W3C//DTD SVG 1.1//EN"
 "http://www.w3.org/Graphics/SVG/1.1/DTD/svg11.dtd">
<!-- Generated by graphviz version 2.43.0 (0)
 -->
<!-- Title: src/TestGenerator/src/generatorHelper.cpp Pages: 1 -->
<!--zoomable 313 -->

<svg id="main" version="1.1" xmlns="http://www.w3.org/2000/svg" xmlns:xlink="http://www.w3.org/1999/xlink" xml:space="preserve" onload="init(evt)">
<style type="text/css"><![CDATA[
.node, .edge {opacity: 0.7;}
.node.selected, .edge.selected {opacity: 1;}
.edge:hover path { stroke: red; }
.edge:hover polygon { stroke: red; fill: red; }
]]></style>

<defs>
  <circle id="rim" cx="0" cy="0" r="7"/>
  <circle id="rim2" cx="0" cy="0" r="3.5"/>
  <g id="zoomPlus">
    <use xlink:href="#rim" fill="#404040"><set attributeName="fill" to="#808080" begin="zoomplus.mouseover" end="zoomplus.mouseout"/></use>
    <path d="M-4,0h8M0,-4v8" fill="none" stroke="white" stroke-width="1.5" pointer-events="none"/>
  </g>
  <g id="zoomMin">
    <use xlink:href="#rim" fill="#404040"><set attributeName="fill" to="#808080" begin="zoomminus.mouseover" end="zoomminus.mouseout"/></use>
    <path d="M-4,0h8" fill="none" stroke="white" stroke-width="1.5" pointer-events="none"/>
  </g>
  <g id="arrowUp" transform="translate(30 24)">
    <use xlink:href="#rim"/>
    <path pointer-events="none" fill="none" stroke="white" stroke-width="1.5" d="M0,-3.0v7 M-2.5,-0.5L0,-3.0L2.5,-0.5"/>
  </g>
  <g id="arrowRight" transform="rotate(90) translate(36 -43)">
    <use xlink:href="#rim"/>
    <path pointer-events="none" fill="none" stroke="white" stroke-width="1.5" d="M0,-3.0v7 M-2.5,-0.5L0,-3.0L2.5,-0.5"/>
  </g>
  <g id="arrowDown" transform="rotate(180) translate(-30 -48)">
    <use xlink:href="#rim"/>
    <path pointer-events="none" fill="none" stroke="white" stroke-width="1.5" d="M0,-3.0v7 M-2.5,-0.5L0,-3.0L2.5,-0.5"/>
  </g>
  <g id="arrowLeft" transform="rotate(270) translate(-36 17)">
    <use xlink:href="#rim"/>
    <path pointer-events="none" fill="none" stroke="white" stroke-width="1.5" d="M0,-3.0v7 M-2.5,-0.5L0,-3.0L2.5,-0.5"/>
  </g>
  <g id="resetDef">
    <use xlink:href="#rim2" fill="#404040"><set attributeName="fill" to="#808080" begin="reset.mouseover" end="reset.mouseout"/></use>
  </g>
</defs>
<script type="application/ecmascript">
var viewWidth = 961;
var viewHeight = 313;
var sectionId = 'dynsection-0';
</script>
<script type="application/ecmascript" xlink:href="svg.min.js"/>
<svg id="graph" class="graph">
<g id="viewport">
<title>src/TestGenerator/src/generatorHelper.cpp</title>
<!-- Node1 -->
<g id="Node000001" class="node">
<title>Node1</title>
<g id="a_Node000001"><a xlink:title=" ">
<polygon fill="#999999" stroke="#666666" points="381.62,-305 262.62,-305 262.62,-275 381.62,-275 381.62,-305"/>
<text text-anchor="start" x="270.62" y="-293" font-family="Helvetica,sans-Serif" font-size="10.00">src/TestGenerator/src</text>
<text text-anchor="middle" x="322.12" y="-282" font-family="Helvetica,sans-Serif" font-size="10.00">/generatorHelper.cpp</text>
</a>
</g>
</g>
<!-- Node2 -->
<g id="Node000002" class="node">
<title>Node2</title>
<g id="a_Node000002"><a xlink:href="generatorHelper_8h.html" target="_top" xlink:title=" ">
<polygon fill="white" stroke="#666666" points="454.12,-129 278.12,-129 278.12,-110 454.12,-110 454.12,-129"/>
<text text-anchor="middle" x="366.12" y="-117" font-family="Helvetica,sans-Serif" font-size="10.00">TestGenerator/generatorHelper.h</text>
</a>
</g>
</g>
<!-- Node1&#45;&gt;Node2 -->
<g id="edge1_Node000001_Node000002" class="edge">
<title>Node1&#45;&gt;Node2</title>
<g id="a_edge1_Node000001_Node000002"><a xlink:title=" ">
<path fill="none" stroke="#63b8ff" d="M330.79,-274.62C336.28,-264.89 343.08,-251.56 347.12,-239 358.15,-204.74 362.95,-162.76 364.9,-139.08"/>
<polygon fill="#63b8ff" stroke="#63b8ff" points="368.4,-139.27 365.65,-129.04 361.42,-138.75 368.4,-139.27"/>
</a>
</g>
</g>
<!-- Node3 -->
<g id="Node000003" class="node">
<title>Node3</title>
<g id="a_Node000003"><a xlink:title=" ">
<polygon fill="#e0e0e0" stroke="#999999" points="733.62,-74 688.62,-74 688.62,-55 733.62,-55 733.62,-74"/>
<text text-anchor="middle" x="711.12" y="-62" font-family="Helvetica,sans-Serif" font-size="10.00">utility</text>
</a>
</g>
</g>
<!-- Node1&#45;&gt;Node3 -->
<g id="edge18_Node000001_Node000003" class="edge">
<title>Node1&#45;&gt;Node3</title>
<g id="a_edge18_Node000001_Node000003"><a xlink:title=" ">
<path fill="none" stroke="#63b8ff" d="M381.71,-282.84C451.71,-272.87 568.06,-247.41 645.12,-184 677.74,-157.16 697.05,-109.76 705.69,-83.78"/>
<polygon fill="#63b8ff" stroke="#63b8ff" points="709.08,-84.67 708.75,-74.08 702.4,-82.57 709.08,-84.67"/>
</a>
</g>
</g>
<!-- Node12 -->
<g id="Node000012" class="node">
<title>Node12</title>
<g id="a_Node000012"><a xlink:title=" ">
<polygon fill="#e0e0e0" stroke="#999999" points="150.12,-19 90.12,-19 90.12,0 150.12,0 150.12,-19"/>
<text text-anchor="middle" x="120.12" y="-7" font-family="Helvetica,sans-Serif" font-size="10.00">iostream</text>
</a>
</g>
</g>
<!-- Node1&#45;&gt;Node12 -->
<g id="edge17_Node000001_Node000012" class="edge">
<title>Node1&#45;&gt;Node12</title>
<g id="a_edge17_Node000001_Node000012"><a xlink:title=" ">
<path fill="none" stroke="#63b8ff" d="M262.31,-280.43C169.19,-265.37 0.12,-230.48 0.12,-175.5 0.12,-175.5 0.12,-175.5 0.12,-118.5 0.12,-89.04 -0.37,-77.08 19.12,-55 35,-37.02 59.5,-25.98 80.39,-19.4"/>
<polygon fill="#63b8ff" stroke="#63b8ff" points="81.38,-22.76 90,-16.6 79.42,-16.04 81.38,-22.76"/>
</a>
</g>
</g>
<!-- Node14 -->
<g id="Node000014" class="node">
<title>Node14</title>
<g id="a_Node000014"><a xlink:href="database_8h.html" target="_top" xlink:title=" ">
<polygon fill="white" stroke="#666666" points="338.12,-239 218.12,-239 218.12,-220 338.12,-220 338.12,-239"/>
<text text-anchor="middle" x="278.12" y="-227" font-family="Helvetica,sans-Serif" font-size="10.00">Database/database.h</text>
</a>
</g>
</g>
<!-- Node1&#45;&gt;Node14 -->
<g id="edge19_Node000001_Node000014" class="edge">
<title>Node1&#45;&gt;Node14</title>
<g id="a_edge19_Node000001_Node000014"><a xlink:title=" ">
<path fill="none" stroke="#63b8ff" d="M311.47,-274.84C305.28,-266.61 297.44,-256.18 290.91,-247.51"/>
<polygon fill="#63b8ff" stroke="#63b8ff" points="293.53,-245.15 284.72,-239.27 287.93,-249.36 293.53,-245.15"/>
</a>
</g>
</g>
<!-- Node2&#45;&gt;Node3 -->
<g id="edge2_Node000002_Node000003" class="edge">
<title>Node2&#45;&gt;Node3</title>
<g id="a_edge2_Node000002_Node000003"><a xlink:title=" ">
<path fill="none" stroke="#63b8ff" d="M446.3,-109.98C507.61,-102.81 594.36,-91.25 678.53,-74.12"/>
<polygon fill="#63b8ff" stroke="#63b8ff" points="679.43,-77.5 688.52,-72.05 678.02,-70.65 679.43,-77.5"/>
</a>
</g>
</g>
<!-- Node4 -->
<g id="Node000004" class="node">
<title>Node4</title>
<g id="a_Node000004"><a xlink:title=" ">
<polygon fill="#e0e0e0" stroke="#999999" points="445.62,-19 398.62,-19 398.62,0 445.62,0 445.62,-19"/>
<text text-anchor="middle" x="422.12" y="-7" font-family="Helvetica,sans-Serif" font-size="10.00">vector</text>
</a>
</g>
</g>
<!-- Node2&#45;&gt;Node4 -->
<g id="edge3_Node000002_Node000004" class="edge">
<title>Node2&#45;&gt;Node4</title>
<g id="a_edge3_Node000002_Node000004"><a xlink:title=" ">
<path fill="none" stroke="#63b8ff" d="M368.56,-109.98C372.3,-97.49 380.1,-73.69 390.12,-55 395.34,-45.27 402.41,-35.22 408.57,-27.14"/>
<polygon fill="#63b8ff" stroke="#63b8ff" points="411.34,-29.27 414.77,-19.25 405.84,-24.94 411.34,-29.27"/>
</a>
</g>
</g>
<!-- Node5 -->
<g id="Node000005" class="node">
<title>Node5</title>
<g id="a_Node000005"><a xlink:title=" ">
<polygon fill="#e0e0e0" stroke="#999999" points="565.12,-19 521.12,-19 521.12,0 565.12,0 565.12,-19"/>
<text text-anchor="middle" x="543.12" y="-7" font-family="Helvetica,sans-Serif" font-size="10.00">string</text>
</a>
</g>
</g>
<!-- Node2&#45;&gt;Node5 -->
<g id="edge4_Node000002_Node000005" class="edge">
<title>Node2&#45;&gt;Node5</title>
<g id="a_edge4_Node000002_Node000005"><a xlink:title=" ">
<path fill="none" stroke="#63b8ff" d="M371.77,-109.89C381,-96.43 400.58,-70.33 423.12,-55 450.09,-36.66 485.58,-24.72 510.96,-17.87"/>
<polygon fill="#63b8ff" stroke="#63b8ff" points="512.01,-21.22 520.82,-15.33 510.27,-14.44 512.01,-21.22"/>
</a>
</g>
</g>
<!-- Node6 -->
<g id="Node000006" class="node">
<title>Node6</title>
<g id="a_Node000006"><a xlink:title=" ">
<polygon fill="#e0e0e0" stroke="#999999" points="480.12,-74 432.12,-74 432.12,-55 480.12,-55 480.12,-74"/>
<text text-anchor="middle" x="456.12" y="-62" font-family="Helvetica,sans-Serif" font-size="10.00">mutex</text>
</a>
</g>
</g>
<!-- Node2&#45;&gt;Node6 -->
<g id="edge5_Node000002_Node000006" class="edge">
<title>Node2&#45;&gt;Node6</title>
<g id="a_edge5_Node000002_Node000006"><a xlink:title=" ">
<path fill="none" stroke="#63b8ff" d="M380.58,-109.98C394.54,-101.77 415.92,-89.18 432.37,-79.49"/>
<polygon fill="#63b8ff" stroke="#63b8ff" points="434.56,-82.26 441.4,-74.17 431.01,-76.23 434.56,-82.26"/>
</a>
</g>
</g>
<!-- Node7 -->
<g id="Node000007" class="node">
<title>Node7</title>
<g id="a_Node000007"><a xlink:title=" ">
<polygon fill="#e0e0e0" stroke="#999999" points="86.12,-74 28.12,-74 28.12,-55 86.12,-55 86.12,-74"/>
<text text-anchor="middle" x="57.12" y="-62" font-family="Helvetica,sans-Serif" font-size="10.00">memory</text>
</a>
</g>
</g>
<!-- Node2&#45;&gt;Node7 -->
<g id="edge6_Node000002_Node000007" class="edge">
<title>Node2&#45;&gt;Node7</title>
<g id="a_edge6_Node000002_Node000007"><a xlink:title=" ">
<path fill="none" stroke="#63b8ff" d="M316.48,-109.98C255.13,-99.46 152.01,-81.78 96.07,-72.18"/>
<polygon fill="#63b8ff" stroke="#63b8ff" points="96.64,-68.73 86.19,-70.49 95.45,-75.63 96.64,-68.73"/>
</a>
</g>
</g>
<!-- Node8 -->
<g id="Node000008" class="node">
<title>Node8</title>
<g id="a_Node000008"><a xlink:title=" ">
<polygon fill="#e0e0e0" stroke="#999999" points="338.12,-74 284.12,-74 284.12,-55 338.12,-55 338.12,-74"/>
<text text-anchor="middle" x="311.12" y="-62" font-family="Helvetica,sans-Serif" font-size="10.00">random</text>
</a>
</g>
</g>
<!-- Node2&#45;&gt;Node8 -->
<g id="edge7_Node000002_Node000008" class="edge">
<title>Node2&#45;&gt;Node8</title>
<g id="a_edge7_Node000002_Node000008"><a xlink:title=" ">
<path fill="none" stroke="#63b8ff" d="M357.04,-109.75C349.03,-102.03 337.17,-90.6 327.5,-81.28"/>
<polygon fill="#63b8ff" stroke="#63b8ff" points="329.67,-78.51 320.04,-74.09 324.81,-83.55 329.67,-78.51"/>
</a>
</g>
</g>
<!-- Node9 -->
<g id="Node000009" class="node">
<title>Node9</title>
<g id="a_Node000009"><a xlink:title=" ">
<polygon fill="#e0e0e0" stroke="#999999" points="341.62,-19 248.62,-19 248.62,0 341.62,0 341.62,-19"/>
<text text-anchor="middle" x="295.12" y="-7" font-family="Helvetica,sans-Serif" font-size="10.00">unordered_map</text>
</a>
</g>
</g>
<!-- Node2&#45;&gt;Node9 -->
<g id="edge8_Node000002_Node000009" class="edge">
<title>Node2&#45;&gt;Node9</title>
<g id="a_edge8_Node000002_Node000009"><a xlink:title=" ">
<path fill="none" stroke="#63b8ff" d="M327.7,-109.96C308.38,-103.52 286.67,-92.5 275.12,-74 266.17,-59.66 273.98,-40.98 282.31,-27.6"/>
<polygon fill="#63b8ff" stroke="#63b8ff" points="285.23,-29.53 287.97,-19.3 279.45,-25.59 285.23,-29.53"/>
</a>
</g>
</g>
<!-- Node10 -->
<g id="Node000010" class="node">
<title>Node10</title>
<g id="a_Node000010"><a xlink:title=" ">
<polygon fill="#e0e0e0" stroke="#999999" points="670.62,-74 605.62,-74 605.62,-55 670.62,-55 670.62,-74"/>
<text text-anchor="middle" x="638.12" y="-62" font-family="Helvetica,sans-Serif" font-size="10.00">functional</text>
</a>
</g>
</g>
<!-- Node2&#45;&gt;Node10 -->
<g id="edge9_Node000002_Node000010" class="edge">
<title>Node2&#45;&gt;Node10</title>
<g id="a_edge9_Node000002_Node000010"><a xlink:title=" ">
<path fill="none" stroke="#63b8ff" d="M411.31,-109.99C455.81,-101.57 525.99,-88.17 595.64,-74.28"/>
<polygon fill="#63b8ff" stroke="#63b8ff" points="596.34,-77.71 605.46,-72.32 594.97,-70.84 596.34,-77.71"/>
</a>
</g>
</g>
<!-- Node11 -->
<g id="Node000011" class="node">
<title>Node11</title>
<g id="a_Node000011"><a xlink:href="error_8h.html" target="_top" xlink:title=" ">
<polygon fill="white" stroke="#666666" points="227.62,-74 142.62,-74 142.62,-55 227.62,-55 227.62,-74"/>
<text text-anchor="middle" x="185.12" y="-62" font-family="Helvetica,sans-Serif" font-size="10.00">Library/error.h</text>
</a>
</g>
</g>
<!-- Node2&#45;&gt;Node11 -->
<g id="edge10_Node000002_Node000011" class="edge">
<title>Node2&#45;&gt;Node11</title>
<g id="a_edge10_Node000002_Node000011"><a xlink:title=" ">
<path fill="none" stroke="#63b8ff" d="M337.04,-109.98C306.52,-101.05 258.36,-86.94 224.46,-77.02"/>
<polygon fill="#63b8ff" stroke="#63b8ff" points="225.01,-73.53 214.43,-74.08 223.05,-80.25 225.01,-73.53"/>
</a>
</g>
</g>
<!-- Node13 -->
<g id="Node000013" class="node">
<title>Node13</title>
<g id="a_Node000013"><a xlink:href="types_8h.html" target="_top" xlink:title=" ">
<polygon fill="white" stroke="#666666" points="587.62,-74 498.62,-74 498.62,-55 587.62,-55 587.62,-74"/>
<text text-anchor="middle" x="543.12" y="-62" font-family="Helvetica,sans-Serif" font-size="10.00">Library/types.h</text>
</a>
</g>
</g>
<!-- Node2&#45;&gt;Node13 -->
<g id="edge13_Node000002_Node000013" class="edge">
<title>Node2&#45;&gt;Node13</title>
<g id="a_edge13_Node000002_Node000013"><a xlink:title=" ">
<path fill="none" stroke="#63b8ff" d="M394.56,-109.98C424.41,-101.05 471.51,-86.94 504.66,-77.02"/>
<polygon fill="#63b8ff" stroke="#63b8ff" points="505.89,-80.3 514.46,-74.08 503.88,-73.6 505.89,-80.3"/>
</a>
</g>
</g>
<!-- Node11&#45;&gt;Node5 -->
<g id="edge11_Node000011_Node000005" class="edge">
<title>Node11&#45;&gt;Node5</title>
<g id="a_edge11_Node000011_Node000005"><a xlink:title=" ">
<path fill="none" stroke="#63b8ff" d="M227.95,-57.16C300.56,-46.41 446.22,-24.85 510.9,-15.27"/>
<polygon fill="#63b8ff" stroke="#63b8ff" points="511.55,-18.71 520.93,-13.79 510.52,-11.79 511.55,-18.71"/>
</a>
</g>
</g>
<!-- Node11&#45;&gt;Node12 -->
<g id="edge12_Node000011_Node000012" class="edge">
<title>Node11&#45;&gt;Node12</title>
<g id="a_edge12_Node000011_Node000012"><a xlink:title=" ">
<path fill="none" stroke="#63b8ff" d="M174.68,-54.98C164.98,-47.07 150.31,-35.11 138.62,-25.58"/>
<polygon fill="#63b8ff" stroke="#63b8ff" points="140.72,-22.78 130.76,-19.17 136.3,-28.2 140.72,-22.78"/>
</a>
</g>
</g>
<!-- Node13&#45;&gt;Node4 -->
<g id="edge14_Node000013_Node000004" class="edge">
<title>Node13&#45;&gt;Node4</title>
<g id="a_edge14_Node000013_Node000004"><a xlink:title=" ">
<path fill="none" stroke="#63b8ff" d="M523.68,-54.98C504.13,-46.42 473.74,-33.11 451.3,-23.28"/>
<polygon fill="#63b8ff" stroke="#63b8ff" points="452.48,-19.98 441.92,-19.17 449.67,-26.39 452.48,-19.98"/>
</a>
</g>
</g>
<!-- Node13&#45;&gt;Node5 -->
<g id="edge16_Node000013_Node000005" class="edge">
<title>Node13&#45;&gt;Node5</title>
<g id="a_edge16_Node000013_Node000005"><a xlink:title=" ">
<path fill="none" stroke="#63b8ff" d="M543.12,-54.75C543.12,-47.8 543.12,-37.85 543.12,-29.13"/>
<polygon fill="#63b8ff" stroke="#63b8ff" points="546.62,-29.09 543.12,-19.09 539.62,-29.09 546.62,-29.09"/>
</a>
</g>
</g>
<!-- Node13&#45;&gt;Node9 -->
<g id="edge15_Node000013_Node000009" class="edge">
<title>Node13&#45;&gt;Node9</title>
<g id="a_edge15_Node000013_Node000009"><a xlink:title=" ">
<path fill="none" stroke="#63b8ff" d="M503.28,-54.98C460.29,-45.8 391.75,-31.15 345.16,-21.19"/>
<polygon fill="#63b8ff" stroke="#63b8ff" points="345.79,-17.75 335.28,-19.08 344.33,-24.59 345.79,-17.75"/>
</a>
</g>
</g>
<!-- Node14&#45;&gt;Node7 -->
<g id="edge20_Node000014_Node000007" class="edge">
<title>Node14&#45;&gt;Node7</title>
<g id="a_edge20_Node000014_Node000007"><a xlink:title=" ">
<path fill="none" stroke="#63b8ff" d="M241.87,-219.93C196.89,-207.46 120.81,-180.02 77.12,-129 66.44,-116.52 61.45,-98.31 59.13,-84.59"/>
<polygon fill="#63b8ff" stroke="#63b8ff" points="62.55,-83.78 57.74,-74.34 55.62,-84.72 62.55,-83.78"/>
</a>
</g>
</g>
<!-- Node15 -->
<g id="Node000015" class="node">
<title>Node15</title>
<g id="a_Node000015"><a xlink:href="transaction_8h_source.html" target="_top" xlink:title=" ">
<polygon fill="white" stroke="#666666" points="635.62,-184 496.62,-184 496.62,-165 635.62,-165 635.62,-184"/>
<text text-anchor="middle" x="566.12" y="-172" font-family="Helvetica,sans-Serif" font-size="10.00">Transaction/transaction.h</text>
</a>
</g>
</g>
<!-- Node14&#45;&gt;Node15 -->
<g id="edge21_Node000014_Node000015" class="edge">
<title>Node14&#45;&gt;Node15</title>
<g id="a_edge21_Node000014_Node000015"><a xlink:title=" ">
<path fill="none" stroke="#63b8ff" d="M324.4,-219.98C374.74,-210.72 455.25,-195.9 509.37,-185.94"/>
<polygon fill="#63b8ff" stroke="#63b8ff" points="510.29,-189.33 519.49,-184.08 509.02,-182.45 510.29,-189.33"/>
</a>
</g>
</g>
<!-- Node15&#45;&gt;Node3 -->
<g id="edge23_Node000015_Node000003" class="edge">
<title>Node15&#45;&gt;Node3</title>
<g id="a_edge23_Node000015_Node000003"><a xlink:title=" ">
<path fill="none" stroke="#63b8ff" d="M578.32,-164.7C590.67,-155.76 610.29,-141.51 627.12,-129 649.37,-112.48 674.72,-93.26 691.7,-80.33"/>
<polygon fill="#63b8ff" stroke="#63b8ff" points="693.93,-83.04 699.76,-74.19 689.68,-77.47 693.93,-83.04"/>
</a>
</g>
</g>
<!-- Node15&#45;&gt;Node4 -->
<g id="edge24_Node000015_Node000004" class="edge">
<title>Node15&#45;&gt;Node4</title>
<g id="a_edge24_Node000015_Node000004"><a xlink:title=" ">
<path fill="none" stroke="#63b8ff" d="M496.31,-171.75C427.54,-168.29 320.28,-158.19 232.12,-129 184.34,-113.18 158.65,-117.38 133.12,-74 128.84,-66.72 127.63,-61.41 133.12,-55 141.39,-45.36 313.4,-23.59 388.05,-14.55"/>
<polygon fill="#63b8ff" stroke="#63b8ff" points="388.82,-17.99 398.32,-13.31 387.98,-11.04 388.82,-17.99"/>
</a>
</g>
</g>
<!-- Node15&#45;&gt;Node5 -->
<g id="edge22_Node000015_Node000005" class="edge">
<title>Node15&#45;&gt;Node5</title>
<g id="a_edge22_Node000015_Node000005"><a xlink:title=" ">
<path fill="none" stroke="#63b8ff" d="M635.87,-173.15C765.33,-170.21 1022.06,-152.37 935.12,-55 911.29,-28.3 665.09,-15.54 575.5,-11.75"/>
<polygon fill="#63b8ff" stroke="#63b8ff" points="575.51,-8.25 565.37,-11.33 575.22,-15.24 575.51,-8.25"/>
</a>
</g>
</g>
<!-- Node15&#45;&gt;Node6 -->
<g id="edge26_Node000015_Node000006" class="edge">
<title>Node15&#45;&gt;Node6</title>
<g id="a_edge26_Node000015_Node000006"><a xlink:title=" ">
<path fill="none" stroke="#63b8ff" d="M570.84,-164.82C577.25,-151.72 586.67,-126.65 575.12,-110 570.01,-102.63 523.35,-86.66 490,-75.99"/>
<polygon fill="#63b8ff" stroke="#63b8ff" points="490.73,-72.55 480.14,-72.87 488.62,-79.22 490.73,-72.55"/>
</a>
</g>
</g>
<!-- Node15&#45;&gt;Node7 -->
<g id="edge25_Node000015_Node000007" class="edge">
<title>Node15&#45;&gt;Node7</title>
<g id="a_edge25_Node000015_Node000007"><a xlink:title=" ">
<path fill="none" stroke="#63b8ff" d="M496.6,-173.99C383.42,-173.63 165.39,-167.72 100.12,-129 82.82,-118.73 70.96,-98.46 64.15,-83.57"/>
<polygon fill="#63b8ff" stroke="#63b8ff" points="67.35,-82.16 60.23,-74.31 60.9,-84.89 67.35,-82.16"/>
</a>
</g>
</g>
<!-- Node15&#45;&gt;Node10 -->
<g id="edge29_Node000015_Node000010" class="edge">
<title>Node15&#45;&gt;Node10</title>
<g id="a_edge29_Node000015_Node000010"><a xlink:title=" ">
<path fill="none" stroke="#63b8ff" d="M576.07,-164.7C585.23,-156.22 598.78,-142.69 608.12,-129 617.89,-114.7 626.05,-96.72 631.39,-83.55"/>
<polygon fill="#63b8ff" stroke="#63b8ff" points="634.67,-84.76 635.03,-74.17 628.14,-82.22 634.67,-84.76"/>
</a>
</g>
</g>
<!-- Node15&#45;&gt;Node11 -->
<g id="edge31_Node000015_Node000011" class="edge">
<title>Node15&#45;&gt;Node11</title>
<g id="a_edge31_Node000015_Node000011"><a xlink:title=" ">
<path fill="none" stroke="#63b8ff" d="M496.59,-172.72C434.68,-169.81 342.78,-159.97 269.12,-129 242.43,-117.78 216.61,-96.13 200.81,-81.26"/>
<polygon fill="#63b8ff" stroke="#63b8ff" points="203.12,-78.63 193.5,-74.19 198.25,-83.66 203.12,-78.63"/>
</a>
</g>
</g>
<!-- Node15&#45;&gt;Node13 -->
<g id="edge30_Node000015_Node000013" class="edge">
<title>Node15&#45;&gt;Node13</title>
<g id="a_edge30_Node000015_Node000013"><a xlink:title=" ">
<path fill="none" stroke="#63b8ff" d="M544,-164.95C528.92,-157.82 510.12,-146.06 501.12,-129 491.97,-111.64 507.57,-93.05 522.28,-80.5"/>
<polygon fill="#63b8ff" stroke="#63b8ff" points="524.56,-83.16 530.2,-74.2 520.2,-77.69 524.56,-83.16"/>
</a>
</g>
</g>
<!-- Node16 -->
<g id="Node000016" class="node">
<title>Node16</title>
<g id="a_Node000016"><a xlink:title=" ">
<polygon fill="#e0e0e0" stroke="#999999" points="926.12,-74 888.12,-74 888.12,-55 926.12,-55 926.12,-74"/>
<text text-anchor="middle" x="907.12" y="-62" font-family="Helvetica,sans-Serif" font-size="10.00">map</text>
</a>
</g>
</g>
<!-- Node15&#45;&gt;Node16 -->
<g id="edge27_Node000015_Node000016" class="edge">
<title>Node15&#45;&gt;Node16</title>
<g id="a_edge27_Node000015_Node000016"><a xlink:title=" ">
<path fill="none" stroke="#63b8ff" d="M635.79,-169.42C711.38,-163.9 826.22,-151.97 863.12,-129 880.33,-118.29 892.56,-98.09 899.69,-83.35"/>
<polygon fill="#63b8ff" stroke="#63b8ff" points="902.89,-84.75 903.8,-74.19 896.51,-81.87 902.89,-84.75"/>
</a>
</g>
</g>
<!-- Node17 -->
<g id="Node000017" class="node">
<title>Node17</title>
<g id="a_Node000017"><a xlink:title=" ">
<polygon fill="#e0e0e0" stroke="#999999" points="566.12,-129 510.12,-129 510.12,-110 566.12,-110 566.12,-129"/>
<text text-anchor="middle" x="538.12" y="-117" font-family="Helvetica,sans-Serif" font-size="10.00">optional</text>
</a>
</g>
</g>
<!-- Node15&#45;&gt;Node17 -->
<g id="edge28_Node000015_Node000017" class="edge">
<title>Node15&#45;&gt;Node17</title>
<g id="a_edge28_Node000015_Node000017"><a xlink:title=" ">
<path fill="none" stroke="#63b8ff" d="M561.5,-164.75C557.67,-157.49 552.1,-146.95 547.36,-137.98"/>
<polygon fill="#63b8ff" stroke="#63b8ff" points="550.43,-136.3 542.66,-129.09 544.24,-139.57 550.43,-136.3"/>
</a>
</g>
</g>
<!-- Node18 -->
<g id="Node000018" class="node">
<title>Node18</title>
<g id="a_Node000018"><a xlink:href="evaluate_8h.html" target="_top" xlink:title=" ">
<polygon fill="white" stroke="#666666" points="854.12,-129 736.12,-129 736.12,-110 854.12,-110 854.12,-129"/>
<text text-anchor="middle" x="795.12" y="-117" font-family="Helvetica,sans-Serif" font-size="10.00">Evaluator/evaluate.h</text>
</a>
</g>
</g>
<!-- Node15&#45;&gt;Node18 -->
<g id="edge32_Node000015_Node000018" class="edge">
<title>Node15&#45;&gt;Node18</title>
<g id="a_edge32_Node000015_Node000018"><a xlink:title=" ">
<path fill="none" stroke="#63b8ff" d="M602.92,-164.98C642.36,-155.86 705.1,-141.33 748.1,-131.38"/>
<polygon fill="#63b8ff" stroke="#63b8ff" points="749.09,-134.75 758.04,-129.08 747.51,-127.93 749.09,-134.75"/>
</a>
</g>
</g>
<!-- Node18&#45;&gt;Node3 -->
<g id="edge33_Node000018_Node000003" class="edge">
<title>Node18&#45;&gt;Node3</title>
<g id="a_edge33_Node000018_Node000003"><a xlink:title=" ">
<path fill="none" stroke="#63b8ff" d="M781.63,-109.98C768.72,-101.84 749.02,-89.41 733.72,-79.76"/>
<polygon fill="#63b8ff" stroke="#63b8ff" points="735.19,-76.55 724.87,-74.17 731.46,-82.47 735.19,-76.55"/>
</a>
</g>
</g>
<!-- Node18&#45;&gt;Node4 -->
<g id="edge34_Node000018_Node000004" class="edge">
<title>Node18&#45;&gt;Node4</title>
<g id="a_edge34_Node000018_Node000004"><a xlink:title=" ">
<path fill="none" stroke="#63b8ff" d="M790.77,-109.76C783.22,-95.61 766.24,-67.97 743.12,-55 718.4,-41.13 533.69,-21.52 456.19,-13.8"/>
<polygon fill="#63b8ff" stroke="#63b8ff" points="456.29,-10.3 445.99,-12.8 455.6,-17.26 456.29,-10.3"/>
</a>
</g>
</g>
<!-- Node18&#45;&gt;Node5 -->
<g id="edge35_Node000018_Node000005" class="edge">
<title>Node18&#45;&gt;Node5</title>
<g id="a_edge35_Node000018_Node000005"><a xlink:title=" ">
<path fill="none" stroke="#63b8ff" d="M809.11,-109.94C827.88,-97.41 857.12,-73.56 841.12,-55 807.1,-15.52 645.48,-10.54 575.53,-10.27"/>
<polygon fill="#63b8ff" stroke="#63b8ff" points="575.51,-6.77 565.51,-10.26 575.51,-13.77 575.51,-6.77"/>
</a>
</g>
</g>
<!-- Node18&#45;&gt;Node10 -->
<g id="edge36_Node000018_Node000010" class="edge">
<title>Node18&#45;&gt;Node10</title>
<g id="a_edge36_Node000018_Node000010"><a xlink:title=" ">
<path fill="none" stroke="#63b8ff" d="M769.9,-109.98C743.77,-101.16 702.73,-87.31 673.39,-77.41"/>
<polygon fill="#63b8ff" stroke="#63b8ff" points="674.14,-73.96 663.55,-74.08 671.9,-80.6 674.14,-73.96"/>
</a>
</g>
</g>
<!-- Node18&#45;&gt;Node13 -->
<g id="edge39_Node000018_Node000013" class="edge">
<title>Node18&#45;&gt;Node13</title>
<g id="a_edge39_Node000018_Node000013"><a xlink:title=" ">
<path fill="none" stroke="#63b8ff" d="M754.64,-109.98C710.95,-100.8 641.31,-86.15 593.97,-76.19"/>
<polygon fill="#63b8ff" stroke="#63b8ff" points="594.44,-72.72 583.93,-74.08 593,-79.57 594.44,-72.72"/>
</a>
</g>
</g>
<!-- Node18&#45;&gt;Node16 -->
<g id="edge38_Node000018_Node000016" class="edge">
<title>Node18&#45;&gt;Node16</title>
<g id="a_edge38_Node000018_Node000016"><a xlink:title=" ">
<path fill="none" stroke="#63b8ff" d="M813.12,-109.98C831.06,-101.5 858.84,-88.35 879.56,-78.54"/>
<polygon fill="#63b8ff" stroke="#63b8ff" points="881.26,-81.61 888.8,-74.17 878.27,-75.28 881.26,-81.61"/>
</a>
</g>
</g>
<!-- Node19 -->
<g id="Node000019" class="node">
<title>Node19</title>
<g id="a_Node000019"><a xlink:title=" ">
<polygon fill="#e0e0e0" stroke="#999999" points="831.62,-74 790.62,-74 790.62,-55 831.62,-55 831.62,-74"/>
<text text-anchor="middle" x="811.12" y="-62" font-family="Helvetica,sans-Serif" font-size="10.00">tuple</text>
</a>
</g>
</g>
<!-- Node18&#45;&gt;Node19 -->
<g id="edge37_Node000018_Node000019" class="edge">
<title>Node18&#45;&gt;Node19</title>
<g id="a_edge37_Node000018_Node000019"><a xlink:title=" ">
<path fill="none" stroke="#63b8ff" d="M797.77,-109.75C799.89,-102.72 802.94,-92.62 805.59,-83.84"/>
<polygon fill="#63b8ff" stroke="#63b8ff" points="808.99,-84.67 808.53,-74.09 802.29,-82.65 808.99,-84.67"/>
</a>
</g>
</g>
</g>
</svg>

<g id="navigator" transform="translate(0 0)" fill="#404254">
  <rect fill="#f2f5e9" fill-opacity="0.5" stroke="#606060" stroke-width=".5" x="0" y="0" width="60" height="60"/>
  <use id="zoomplus" xlink:href="#zoomPlus" x="17" y="9" onmousedown="handleZoom(evt,'in')"/>
  <use id="zoomminus" xlink:href="#zoomMin" x="42" y="9" onmousedown="handleZoom(evt,'out')"/>
  <use id="reset" xlink:href="#resetDef" x="30" y="36" onmousedown="handleReset()"/>
   <use id="arrowup" xlink:href="#arrowUp" x="0" y="0" onmousedown="handlePan(0,-1)"/>
  <use id="arrowright" xlink:href="#arrowRight" x="0" y="0" onmousedown="handlePan(1,0)"/>
  <use id="arrowdown" xlink:href="#arrowDown" x="0" y="0" onmousedown="handlePan(0,1)"/>
  <use id="arrowleft" xlink:href="#arrowLeft" x="0" y="0" onmousedown="handlePan(-1,0)"/>
</g>
<svg viewBox="0 0 15 15" width="100%" height="30px" preserveAspectRatio="xMaxYMin meet">
 <g id="arrow_out" transform="scale(0.3 0.3)">
  <a xlink:href="generatorHelper_8cpp__incl_org.svg" target="_base">
   <rect id="button" ry="5" rx="5" y="6" x="6" height="38" width="38"
        fill="#f2f5e9" fill-opacity="0.5" stroke="#606060" stroke-width="1.0"/>
   <path id="arrow"
     d="M 11.500037,31.436501 C 11.940474,20.09759 22.043105,11.32322 32.158766,21.979434 L 37.068811,17.246167 C 37.068811,17.246167 37.088388,32 37.088388,32 L 22.160133,31.978069 C 22.160133,31.978069 26.997745,27.140456 26.997745,27.140456 C 18.528582,18.264221 13.291696,25.230495 11.500037,31.436501 z"
     style="fill:#404040;"/>
  </a>
 </g>
</svg>

<style type='text/css'>
<![CDATA[
[data-mouse-over-selected='false'] { opacity: 0.7; }
[data-mouse-over-selected='true']  { opacity: 1.0; }
]]>
</style>
<script type="application/ecmascript"><![CDATA[
document.addEventListener('DOMContentLoaded', (event) => {
  highlightEdges();
  highlightAdjacentNodes();
});
]]></script>
</svg>
