<?xml version="1.0" encoding="UTF-8" standalone="no"?>
<!DOCTYPE svg PUBLIC "-//W3C//DTD SVG 1.1//EN"
 "http://www.w3.org/Graphics/SVG/1.1/DTD/svg11.dtd">
<!-- Generated by graphviz version 2.43.0 (0)
 -->
<!-- Title: src/TestGenerator/src/generatorHelper.cpp Pages: 1 -->
<svg width="1106pt" height="313pt"
 viewBox="0.00 0.00 1106.00 313.00" xmlns="http://www.w3.org/2000/svg" xmlns:xlink="http://www.w3.org/1999/xlink">
<g id="graph0" class="graph" transform="scale(1 1) rotate(0) translate(4 309)">
<title>src/TestGenerator/src/generatorHelper.cpp</title>
<!-- Node1 -->
<g id="Node000001" class="node">
<title>Node1</title>
<g id="a_Node000001"><a xlink:title=" ">
<polygon fill="#999999" stroke="#666666" points="671.5,-305 552.5,-305 552.5,-275 671.5,-275 671.5,-305"/>
<text text-anchor="start" x="560.5" y="-293" font-family="Helvetica,sans-Serif" font-size="10.00">src/TestGenerator/src</text>
<text text-anchor="middle" x="612" y="-282" font-family="Helvetica,sans-Serif" font-size="10.00">/generatorHelper.cpp</text>
</a>
</g>
</g>
<!-- Node2 -->
<g id="Node000002" class="node">
<title>Node2</title>
<g id="a_Node000002"><a xlink:href="generatorHelper_8h.html" target="_top" xlink:title=" ">
<polygon fill="white" stroke="#666666" points="426,-129 250,-129 250,-110 426,-110 426,-129"/>
<text text-anchor="middle" x="338" y="-117" font-family="Helvetica,sans-Serif" font-size="10.00">TestGenerator/generatorHelper.h</text>
</a>
</g>
</g>
<!-- Node1&#45;&gt;Node2 -->
<g id="edge1_Node000001_Node000002" class="edge">
<title>Node1&#45;&gt;Node2</title>
<g id="a_edge1_Node000001_Node000002"><a xlink:title=" ">
<path fill="none" stroke="#63b8ff" d="M589.11,-274.92C537.41,-243.13 412.1,-166.07 360.64,-134.42"/>
<polygon fill="#63b8ff" stroke="#63b8ff" points="362.28,-131.32 351.92,-129.06 358.61,-137.28 362.28,-131.32"/>
</a>
</g>
</g>
<!-- Node3 -->
<g id="Node000003" class="node">
<title>Node3</title>
<g id="a_Node000003"><a xlink:title=" ">
<polygon fill="#e0e0e0" stroke="#999999" points="615.5,-74 570.5,-74 570.5,-55 615.5,-55 615.5,-74"/>
<text text-anchor="middle" x="593" y="-62" font-family="Helvetica,sans-Serif" font-size="10.00">utility</text>
</a>
</g>
</g>
<!-- Node1&#45;&gt;Node3 -->
<g id="edge21_Node000001_Node000003" class="edge">
<title>Node1&#45;&gt;Node3</title>
<g id="a_edge21_Node000001_Node000003"><a xlink:title=" ">
<path fill="none" stroke="#63b8ff" d="M602.67,-274.81C596.9,-265.15 590.03,-251.85 587,-239 574.05,-184.14 583.22,-116.83 589.11,-84.55"/>
<polygon fill="#63b8ff" stroke="#63b8ff" points="592.62,-84.81 591.08,-74.33 585.75,-83.48 592.62,-84.81"/>
</a>
</g>
</g>
<!-- Node10 -->
<g id="Node000010" class="node">
<title>Node10</title>
<g id="a_Node000010"><a xlink:title=" ">
<polygon fill="#e0e0e0" stroke="#999999" points="975.5,-74 910.5,-74 910.5,-55 975.5,-55 975.5,-74"/>
<text text-anchor="middle" x="943" y="-62" font-family="Helvetica,sans-Serif" font-size="10.00">functional</text>
</a>
</g>
</g>
<!-- Node1&#45;&gt;Node10 -->
<g id="edge19_Node000001_Node000010" class="edge">
<title>Node1&#45;&gt;Node10</title>
<g id="a_edge19_Node000001_Node000010"><a xlink:title=" ">
<path fill="none" stroke="#63b8ff" d="M659.54,-274.95C724.79,-253.43 842.06,-206.48 913,-129 924.82,-116.09 932.82,-97.68 937.57,-84"/>
<polygon fill="#63b8ff" stroke="#63b8ff" points="940.98,-84.84 940.69,-74.25 934.31,-82.71 940.98,-84.84"/>
</a>
</g>
</g>
<!-- Node14 -->
<g id="Node000014" class="node">
<title>Node14</title>
<g id="a_Node000014"><a xlink:title=" ">
<polygon fill="#e0e0e0" stroke="#999999" points="974,-19 914,-19 914,0 974,0 974,-19"/>
<text text-anchor="middle" x="944" y="-7" font-family="Helvetica,sans-Serif" font-size="10.00">iostream</text>
</a>
</g>
</g>
<!-- Node1&#45;&gt;Node14 -->
<g id="edge20_Node000001_Node000014" class="edge">
<title>Node1&#45;&gt;Node14</title>
<g id="a_edge20_Node000001_Node000014"><a xlink:title=" ">
<path fill="none" stroke="#63b8ff" d="M671.59,-287.52C801.37,-282.68 1098,-262.15 1098,-175.5 1098,-175.5 1098,-175.5 1098,-118.5 1098,-85.84 1085.91,-76.13 1061,-55 1038.93,-36.28 1008.17,-25 983.72,-18.48"/>
<polygon fill="#63b8ff" stroke="#63b8ff" points="984.57,-15.08 974.02,-16.05 982.87,-21.87 984.57,-15.08"/>
</a>
</g>
</g>
<!-- Node16 -->
<g id="Node000016" class="node">
<title>Node16</title>
<g id="a_Node000016"><a xlink:href="database_8h.html" target="_top" xlink:title=" ">
<polygon fill="white" stroke="#666666" points="716,-239 596,-239 596,-220 716,-220 716,-239"/>
<text text-anchor="middle" x="656" y="-227" font-family="Helvetica,sans-Serif" font-size="10.00">Database/database.h</text>
</a>
</g>
</g>
<!-- Node1&#45;&gt;Node16 -->
<g id="edge22_Node000001_Node000016" class="edge">
<title>Node1&#45;&gt;Node16</title>
<g id="a_edge22_Node000001_Node000016"><a xlink:title=" ">
<path fill="none" stroke="#63b8ff" d="M622.65,-274.84C628.84,-266.61 636.69,-256.18 643.21,-247.51"/>
<polygon fill="#63b8ff" stroke="#63b8ff" points="646.19,-249.36 649.41,-239.27 640.6,-245.15 646.19,-249.36"/>
</a>
</g>
</g>
<!-- Node22 -->
<g id="Node000022" class="node">
<title>Node22</title>
<g id="a_Node000022"><a xlink:href="utils_8h_source.html" target="_top" xlink:title=" ">
<polygon fill="white" stroke="#666666" points="193.5,-129 110.5,-129 110.5,-110 193.5,-110 193.5,-129"/>
<text text-anchor="middle" x="152" y="-117" font-family="Helvetica,sans-Serif" font-size="10.00">Library/utils.h</text>
</a>
</g>
</g>
<!-- Node1&#45;&gt;Node22 -->
<g id="edge43_Node000001_Node000022" class="edge">
<title>Node1&#45;&gt;Node22</title>
<g id="a_edge43_Node000001_Node000022"><a xlink:title=" ">
<path fill="none" stroke="#63b8ff" d="M573.57,-274.92C484.97,-242.47 267.63,-162.85 184.79,-132.51"/>
<polygon fill="#63b8ff" stroke="#63b8ff" points="185.97,-129.22 175.38,-129.06 183.56,-135.79 185.97,-129.22"/>
</a>
</g>
</g>
<!-- Node2&#45;&gt;Node3 -->
<g id="edge2_Node000002_Node000003" class="edge">
<title>Node2&#45;&gt;Node3</title>
<g id="a_edge2_Node000002_Node000003"><a xlink:title=" ">
<path fill="none" stroke="#63b8ff" d="M385.17,-109.98C428.31,-101.98 494.1,-89.29 560.52,-73.99"/>
<polygon fill="#63b8ff" stroke="#63b8ff" points="561.37,-77.38 570.32,-71.71 559.79,-70.57 561.37,-77.38"/>
</a>
</g>
</g>
<!-- Node4 -->
<g id="Node000004" class="node">
<title>Node4</title>
<g id="a_Node000004"><a xlink:title=" ">
<polygon fill="#e0e0e0" stroke="#999999" points="407.5,-19 360.5,-19 360.5,0 407.5,0 407.5,-19"/>
<text text-anchor="middle" x="384" y="-7" font-family="Helvetica,sans-Serif" font-size="10.00">vector</text>
</a>
</g>
</g>
<!-- Node2&#45;&gt;Node4 -->
<g id="edge3_Node000002_Node000004" class="edge">
<title>Node2&#45;&gt;Node4</title>
<g id="a_edge3_Node000002_Node000004"><a xlink:title=" ">
<path fill="none" stroke="#63b8ff" d="M341.76,-109.66C349.28,-92.01 366.29,-52.09 376.28,-28.64"/>
<polygon fill="#63b8ff" stroke="#63b8ff" points="379.61,-29.73 380.31,-19.16 373.17,-26.99 379.61,-29.73"/>
</a>
</g>
</g>
<!-- Node5 -->
<g id="Node000005" class="node">
<title>Node5</title>
<g id="a_Node000005"><a xlink:title=" ">
<polygon fill="#e0e0e0" stroke="#999999" points="742,-19 698,-19 698,0 742,0 742,-19"/>
<text text-anchor="middle" x="720" y="-7" font-family="Helvetica,sans-Serif" font-size="10.00">string</text>
</a>
</g>
</g>
<!-- Node2&#45;&gt;Node5 -->
<g id="edge4_Node000002_Node000005" class="edge">
<title>Node2&#45;&gt;Node5</title>
<g id="a_edge4_Node000002_Node000005"><a xlink:title=" ">
<path fill="none" stroke="#63b8ff" d="M346.01,-109.8C359.54,-95.7 388.46,-68.12 419,-55 510.65,-15.62 630.86,-10.12 687.64,-9.95"/>
<polygon fill="#63b8ff" stroke="#63b8ff" points="687.79,-13.45 697.8,-9.98 687.81,-6.45 687.79,-13.45"/>
</a>
</g>
</g>
<!-- Node6 -->
<g id="Node000006" class="node">
<title>Node6</title>
<g id="a_Node000006"><a xlink:title=" ">
<polygon fill="#e0e0e0" stroke="#999999" points="476,-74 428,-74 428,-55 476,-55 476,-74"/>
<text text-anchor="middle" x="452" y="-62" font-family="Helvetica,sans-Serif" font-size="10.00">mutex</text>
</a>
</g>
</g>
<!-- Node2&#45;&gt;Node6 -->
<g id="edge5_Node000002_Node000006" class="edge">
<title>Node2&#45;&gt;Node6</title>
<g id="a_edge5_Node000002_Node000006"><a xlink:title=" ">
<path fill="none" stroke="#63b8ff" d="M356.32,-109.98C374.66,-101.46 403.11,-88.23 424.23,-78.41"/>
<polygon fill="#63b8ff" stroke="#63b8ff" points="425.76,-81.56 433.35,-74.17 422.81,-75.21 425.76,-81.56"/>
</a>
</g>
</g>
<!-- Node7 -->
<g id="Node000007" class="node">
<title>Node7</title>
<g id="a_Node000007"><a xlink:title=" ">
<polygon fill="#e0e0e0" stroke="#999999" points="552,-74 494,-74 494,-55 552,-55 552,-74"/>
<text text-anchor="middle" x="523" y="-62" font-family="Helvetica,sans-Serif" font-size="10.00">memory</text>
</a>
</g>
</g>
<!-- Node2&#45;&gt;Node7 -->
<g id="edge6_Node000002_Node000007" class="edge">
<title>Node2&#45;&gt;Node7</title>
<g id="a_edge6_Node000002_Node000007"><a xlink:title=" ">
<path fill="none" stroke="#63b8ff" d="M367.72,-109.98C399.33,-100.93 449.45,-86.57 484.16,-76.63"/>
<polygon fill="#63b8ff" stroke="#63b8ff" points="485.31,-79.94 493.96,-73.82 483.38,-73.21 485.31,-79.94"/>
</a>
</g>
</g>
<!-- Node8 -->
<g id="Node000008" class="node">
<title>Node8</title>
<g id="a_Node000008"><a xlink:title=" ">
<polygon fill="#e0e0e0" stroke="#999999" points="188,-74 134,-74 134,-55 188,-55 188,-74"/>
<text text-anchor="middle" x="161" y="-62" font-family="Helvetica,sans-Serif" font-size="10.00">random</text>
</a>
</g>
</g>
<!-- Node2&#45;&gt;Node8 -->
<g id="edge7_Node000002_Node000008" class="edge">
<title>Node2&#45;&gt;Node8</title>
<g id="a_edge7_Node000002_Node000008"><a xlink:title=" ">
<path fill="none" stroke="#63b8ff" d="M309.56,-109.98C279.27,-100.92 231.22,-86.53 198,-76.58"/>
<polygon fill="#63b8ff" stroke="#63b8ff" points="198.79,-73.16 188.2,-73.65 196.78,-79.87 198.79,-73.16"/>
</a>
</g>
</g>
<!-- Node9 -->
<g id="Node000009" class="node">
<title>Node9</title>
<g id="a_Node000009"><a xlink:title=" ">
<polygon fill="#e0e0e0" stroke="#999999" points="313.5,-19 220.5,-19 220.5,0 313.5,0 313.5,-19"/>
<text text-anchor="middle" x="267" y="-7" font-family="Helvetica,sans-Serif" font-size="10.00">unordered_map</text>
</a>
</g>
</g>
<!-- Node2&#45;&gt;Node9 -->
<g id="edge8_Node000002_Node000009" class="edge">
<title>Node2&#45;&gt;Node9</title>
<g id="a_edge8_Node000002_Node000009"><a xlink:title=" ">
<path fill="none" stroke="#63b8ff" d="M290.15,-109.99C269.53,-103.7 247.36,-92.8 235,-74 224.89,-58.62 237.41,-39.62 249.62,-26.43"/>
<polygon fill="#63b8ff" stroke="#63b8ff" points="252.4,-28.61 256.99,-19.06 247.44,-23.66 252.4,-28.61"/>
</a>
</g>
</g>
<!-- Node2&#45;&gt;Node10 -->
<g id="edge9_Node000002_Node000010" class="edge">
<title>Node2&#45;&gt;Node10</title>
<g id="a_edge9_Node000002_Node000010"><a xlink:title=" ">
<path fill="none" stroke="#63b8ff" d="M426.3,-114.97C535.52,-109.83 727.27,-98.29 900.33,-74.07"/>
<polygon fill="#63b8ff" stroke="#63b8ff" points="900.98,-77.51 910.39,-72.65 900,-70.58 900.98,-77.51"/>
</a>
</g>
</g>
<!-- Node11 -->
<g id="Node000011" class="node">
<title>Node11</title>
<g id="a_Node000011"><a xlink:title=" ">
<polygon fill="#e0e0e0" stroke="#999999" points="50,-74 0,-74 0,-55 50,-55 50,-74"/>
<text text-anchor="middle" x="25" y="-62" font-family="Helvetica,sans-Serif" font-size="10.00">chrono</text>
</a>
</g>
</g>
<!-- Node2&#45;&gt;Node11 -->
<g id="edge10_Node000002_Node000011" class="edge">
<title>Node2&#45;&gt;Node11</title>
<g id="a_edge10_Node000002_Node000011"><a xlink:title=" ">
<path fill="none" stroke="#63b8ff" d="M274.56,-109.98C220.15,-102.31 139.48,-90.08 60.34,-74.13"/>
<polygon fill="#63b8ff" stroke="#63b8ff" points="60.69,-70.63 50.2,-72.06 59.29,-77.48 60.69,-70.63"/>
</a>
</g>
</g>
<!-- Node12 -->
<g id="Node000012" class="node">
<title>Node12</title>
<g id="a_Node000012"><a xlink:title=" ">
<polygon fill="#e0e0e0" stroke="#999999" points="115.5,-74 68.5,-74 68.5,-55 115.5,-55 115.5,-74"/>
<text text-anchor="middle" x="92" y="-62" font-family="Helvetica,sans-Serif" font-size="10.00">cmath</text>
</a>
</g>
</g>
<!-- Node2&#45;&gt;Node12 -->
<g id="edge11_Node000002_Node000012" class="edge">
<title>Node2&#45;&gt;Node12</title>
<g id="a_edge11_Node000002_Node000012"><a xlink:title=" ">
<path fill="none" stroke="#63b8ff" d="M294.22,-109.97C253.18,-101.83 189.87,-88.93 125.65,-74.06"/>
<polygon fill="#63b8ff" stroke="#63b8ff" points="126.29,-70.62 115.76,-71.76 124.71,-77.44 126.29,-70.62"/>
</a>
</g>
</g>
<!-- Node13 -->
<g id="Node000013" class="node">
<title>Node13</title>
<g id="a_Node000013"><a xlink:href="error_8h.html" target="_top" xlink:title=" ">
<polygon fill="white" stroke="#666666" points="833.5,-74 748.5,-74 748.5,-55 833.5,-55 833.5,-74"/>
<text text-anchor="middle" x="791" y="-62" font-family="Helvetica,sans-Serif" font-size="10.00">Library/error.h</text>
</a>
</g>
</g>
<!-- Node2&#45;&gt;Node13 -->
<g id="edge12_Node000002_Node000013" class="edge">
<title>Node2&#45;&gt;Node13</title>
<g id="a_edge12_Node000002_Node000013"><a xlink:title=" ">
<path fill="none" stroke="#63b8ff" d="M410.78,-109.98C502.4,-99.27 657.56,-81.11 738.43,-71.65"/>
<polygon fill="#63b8ff" stroke="#63b8ff" points="738.86,-75.12 748.39,-70.49 738.05,-68.17 738.86,-75.12"/>
</a>
</g>
</g>
<!-- Node15 -->
<g id="Node000015" class="node">
<title>Node15</title>
<g id="a_Node000015"><a xlink:href="types_8h.html" target="_top" xlink:title=" ">
<polygon fill="white" stroke="#666666" points="333.5,-74 244.5,-74 244.5,-55 333.5,-55 333.5,-74"/>
<text text-anchor="middle" x="289" y="-62" font-family="Helvetica,sans-Serif" font-size="10.00">Library/types.h</text>
</a>
</g>
</g>
<!-- Node2&#45;&gt;Node15 -->
<g id="edge15_Node000002_Node000015" class="edge">
<title>Node2&#45;&gt;Node15</title>
<g id="a_edge15_Node000002_Node000015"><a xlink:title=" ">
<path fill="none" stroke="#63b8ff" d="M329.91,-109.75C322.84,-102.11 312.41,-90.82 303.85,-81.56"/>
<polygon fill="#63b8ff" stroke="#63b8ff" points="306.3,-79.06 296.94,-74.09 301.16,-83.81 306.3,-79.06"/>
</a>
</g>
</g>
<!-- Node13&#45;&gt;Node5 -->
<g id="edge13_Node000013_Node000005" class="edge">
<title>Node13&#45;&gt;Node5</title>
<g id="a_edge13_Node000013_Node000005"><a xlink:title=" ">
<path fill="none" stroke="#63b8ff" d="M779.59,-54.98C768.89,-47 752.66,-34.88 739.84,-25.31"/>
<polygon fill="#63b8ff" stroke="#63b8ff" points="741.72,-22.35 731.61,-19.17 737.53,-27.96 741.72,-22.35"/>
</a>
</g>
</g>
<!-- Node13&#45;&gt;Node14 -->
<g id="edge14_Node000013_Node000014" class="edge">
<title>Node13&#45;&gt;Node14</title>
<g id="a_edge14_Node000013_Node000014"><a xlink:title=" ">
<path fill="none" stroke="#63b8ff" d="M815.58,-54.98C841.05,-46.16 881.04,-32.31 909.63,-22.41"/>
<polygon fill="#63b8ff" stroke="#63b8ff" points="910.92,-25.66 919.23,-19.08 908.63,-19.05 910.92,-25.66"/>
</a>
</g>
</g>
<!-- Node15&#45;&gt;Node4 -->
<g id="edge16_Node000015_Node000004" class="edge">
<title>Node15&#45;&gt;Node4</title>
<g id="a_edge16_Node000015_Node000004"><a xlink:title=" ">
<path fill="none" stroke="#63b8ff" d="M304.26,-54.98C319.13,-46.69 341.98,-33.94 359.42,-24.22"/>
<polygon fill="#63b8ff" stroke="#63b8ff" points="361.43,-27.1 368.46,-19.17 358.02,-20.99 361.43,-27.1"/>
</a>
</g>
</g>
<!-- Node15&#45;&gt;Node5 -->
<g id="edge18_Node000015_Node000005" class="edge">
<title>Node15&#45;&gt;Node5</title>
<g id="a_edge18_Node000015_Node000005"><a xlink:title=" ">
<path fill="none" stroke="#63b8ff" d="M333.5,-58.03C420.6,-47.32 611.7,-23.82 687.8,-14.46"/>
<polygon fill="#63b8ff" stroke="#63b8ff" points="688.26,-17.93 697.75,-13.24 687.4,-10.98 688.26,-17.93"/>
</a>
</g>
</g>
<!-- Node15&#45;&gt;Node9 -->
<g id="edge17_Node000015_Node000009" class="edge">
<title>Node15&#45;&gt;Node9</title>
<g id="a_edge17_Node000015_Node000009"><a xlink:title=" ">
<path fill="none" stroke="#63b8ff" d="M285.37,-54.75C282.42,-47.65 278.17,-37.4 274.49,-28.56"/>
<polygon fill="#63b8ff" stroke="#63b8ff" points="277.63,-26.98 270.57,-19.09 271.17,-29.67 277.63,-26.98"/>
</a>
</g>
</g>
<!-- Node16&#45;&gt;Node7 -->
<g id="edge23_Node000016_Node000007" class="edge">
<title>Node16&#45;&gt;Node7</title>
<g id="a_edge23_Node000016_Node000007"><a xlink:title=" ">
<path fill="none" stroke="#63b8ff" d="M648.85,-219.74C627.65,-193.76 564.88,-116.83 536.82,-82.44"/>
<polygon fill="#63b8ff" stroke="#63b8ff" points="539.22,-79.84 530.19,-74.31 533.8,-84.27 539.22,-79.84"/>
</a>
</g>
</g>
<!-- Node17 -->
<g id="Node000017" class="node">
<title>Node17</title>
<g id="a_Node000017"><a xlink:href="transaction_8h_source.html" target="_top" xlink:title=" ">
<polygon fill="white" stroke="#666666" points="787.5,-184 648.5,-184 648.5,-165 787.5,-165 787.5,-184"/>
<text text-anchor="middle" x="718" y="-172" font-family="Helvetica,sans-Serif" font-size="10.00">Transaction/transaction.h</text>
</a>
</g>
</g>
<!-- Node16&#45;&gt;Node17 -->
<g id="edge24_Node000016_Node000017" class="edge">
<title>Node16&#45;&gt;Node17</title>
<g id="a_edge24_Node000016_Node000017"><a xlink:title=" ">
<path fill="none" stroke="#63b8ff" d="M665.96,-219.98C675.13,-212.15 688.94,-200.34 700.03,-190.86"/>
<polygon fill="#63b8ff" stroke="#63b8ff" points="702.53,-193.33 707.86,-184.17 697.98,-188.01 702.53,-193.33"/>
</a>
</g>
</g>
<!-- Node17&#45;&gt;Node3 -->
<g id="edge26_Node000017_Node000003" class="edge">
<title>Node17&#45;&gt;Node3</title>
<g id="a_edge26_Node000017_Node000003"><a xlink:title=" ">
<path fill="none" stroke="#63b8ff" d="M692.11,-164.96C673.19,-157.71 647.82,-145.79 630,-129 616.53,-116.31 606.45,-97.62 600.24,-83.8"/>
<polygon fill="#63b8ff" stroke="#63b8ff" points="603.37,-82.21 596.25,-74.36 596.92,-84.93 603.37,-82.21"/>
</a>
</g>
</g>
<!-- Node17&#45;&gt;Node4 -->
<g id="edge27_Node000017_Node000004" class="edge">
<title>Node17&#45;&gt;Node4</title>
<g id="a_edge27_Node000017_Node000004"><a xlink:title=" ">
<path fill="none" stroke="#63b8ff" d="M704.45,-164.93C692.41,-156.8 674.93,-143.68 663,-129 639.68,-100.31 654.67,-77.06 625,-55 592.7,-30.98 476.48,-18.15 418.05,-13.1"/>
<polygon fill="#63b8ff" stroke="#63b8ff" points="418.1,-9.59 407.84,-12.25 417.51,-16.57 418.1,-9.59"/>
</a>
</g>
</g>
<!-- Node17&#45;&gt;Node5 -->
<g id="edge25_Node000017_Node000005" class="edge">
<title>Node17&#45;&gt;Node5</title>
<g id="a_edge25_Node000017_Node000005"><a xlink:title=" ">
<path fill="none" stroke="#63b8ff" d="M787.57,-170.92C903.2,-164.21 1115.24,-140.24 1041,-55 1022.21,-33.42 830.58,-18.04 752.67,-12.63"/>
<polygon fill="#63b8ff" stroke="#63b8ff" points="752.68,-9.12 742.46,-11.93 752.2,-16.11 752.68,-9.12"/>
</a>
</g>
</g>
<!-- Node17&#45;&gt;Node6 -->
<g id="edge29_Node000017_Node000006" class="edge">
<title>Node17&#45;&gt;Node6</title>
<g id="a_edge29_Node000017_Node000006"><a xlink:title=" ">
<path fill="none" stroke="#63b8ff" d="M685.83,-164.98C656.9,-156.93 613.48,-143.9 577,-129 540.8,-114.21 500.8,-92.97 476.03,-79.2"/>
<polygon fill="#63b8ff" stroke="#63b8ff" points="477.45,-75.99 467.02,-74.15 474.03,-82.09 477.45,-75.99"/>
</a>
</g>
</g>
<!-- Node17&#45;&gt;Node7 -->
<g id="edge28_Node000017_Node000007" class="edge">
<title>Node17&#45;&gt;Node7</title>
<g id="a_edge28_Node000017_Node000007"><a xlink:title=" ">
<path fill="none" stroke="#63b8ff" d="M692.32,-164.89C669.92,-156.93 636.89,-144.07 610,-129 584.72,-114.84 558.16,-94.55 541.14,-80.74"/>
<polygon fill="#63b8ff" stroke="#63b8ff" points="543.11,-77.83 533.16,-74.18 538.66,-83.24 543.11,-77.83"/>
</a>
</g>
</g>
<!-- Node17&#45;&gt;Node10 -->
<g id="edge32_Node000017_Node000010" class="edge">
<title>Node17&#45;&gt;Node10</title>
<g id="a_edge32_Node000017_Node000010"><a xlink:title=" ">
<path fill="none" stroke="#63b8ff" d="M787.6,-165.26C820.27,-159.01 858.6,-148.07 889,-129 907.5,-117.39 922.96,-97.4 932.53,-82.94"/>
<polygon fill="#63b8ff" stroke="#63b8ff" points="935.55,-84.71 937.94,-74.39 929.64,-80.97 935.55,-84.71"/>
</a>
</g>
</g>
<!-- Node17&#45;&gt;Node13 -->
<g id="edge34_Node000017_Node000013" class="edge">
<title>Node17&#45;&gt;Node13</title>
<g id="a_edge34_Node000017_Node000013"><a xlink:title=" ">
<path fill="none" stroke="#63b8ff" d="M772.45,-164.95C812.02,-157.5 860.7,-145.32 873,-129 889.5,-107.1 857.35,-88.78 828.6,-77.54"/>
<polygon fill="#63b8ff" stroke="#63b8ff" points="829.64,-74.19 819.05,-74 827.21,-80.76 829.64,-74.19"/>
</a>
</g>
</g>
<!-- Node17&#45;&gt;Node15 -->
<g id="edge33_Node000017_Node000015" class="edge">
<title>Node17&#45;&gt;Node15</title>
<g id="a_edge33_Node000017_Node000015"><a xlink:title=" ">
<path fill="none" stroke="#63b8ff" d="M648.02,-172.07C522.09,-168.76 267.85,-158.47 241,-129 226.54,-113.13 247.32,-93.13 265.88,-79.86"/>
<polygon fill="#63b8ff" stroke="#63b8ff" points="268.07,-82.61 274.39,-74.1 264.15,-76.81 268.07,-82.61"/>
</a>
</g>
</g>
<!-- Node18 -->
<g id="Node000018" class="node">
<title>Node18</title>
<g id="a_Node000018"><a xlink:title=" ">
<polygon fill="#e0e0e0" stroke="#999999" points="1032,-74 994,-74 994,-55 1032,-55 1032,-74"/>
<text text-anchor="middle" x="1013" y="-62" font-family="Helvetica,sans-Serif" font-size="10.00">map</text>
</a>
</g>
</g>
<!-- Node17&#45;&gt;Node18 -->
<g id="edge30_Node000017_Node000018" class="edge">
<title>Node17&#45;&gt;Node18</title>
<g id="a_edge30_Node000017_Node000018"><a xlink:title=" ">
<path fill="none" stroke="#63b8ff" d="M779.83,-164.94C819.02,-158.18 870.21,-146.84 913,-129 943.45,-116.3 975.01,-94.58 994.33,-80.13"/>
<polygon fill="#63b8ff" stroke="#63b8ff" points="996.46,-82.91 1002.29,-74.06 992.22,-77.34 996.46,-82.91"/>
</a>
</g>
</g>
<!-- Node19 -->
<g id="Node000019" class="node">
<title>Node19</title>
<g id="a_Node000019"><a xlink:title=" ">
<polygon fill="#e0e0e0" stroke="#999999" points="864,-129 808,-129 808,-110 864,-110 864,-129"/>
<text text-anchor="middle" x="836" y="-117" font-family="Helvetica,sans-Serif" font-size="10.00">optional</text>
</a>
</g>
</g>
<!-- Node17&#45;&gt;Node19 -->
<g id="edge31_Node000017_Node000019" class="edge">
<title>Node17&#45;&gt;Node19</title>
<g id="a_edge31_Node000017_Node000019"><a xlink:title=" ">
<path fill="none" stroke="#63b8ff" d="M736.96,-164.98C756.03,-156.42 785.66,-143.11 807.55,-133.28"/>
<polygon fill="#63b8ff" stroke="#63b8ff" points="809.01,-136.46 816.7,-129.17 806.14,-130.07 809.01,-136.46"/>
</a>
</g>
</g>
<!-- Node20 -->
<g id="Node000020" class="node">
<title>Node20</title>
<g id="a_Node000020"><a xlink:href="evaluate_8h.html" target="_top" xlink:title=" ">
<polygon fill="white" stroke="#666666" points="790,-129 672,-129 672,-110 790,-110 790,-129"/>
<text text-anchor="middle" x="731" y="-117" font-family="Helvetica,sans-Serif" font-size="10.00">Evaluator/evaluate.h</text>
</a>
</g>
</g>
<!-- Node17&#45;&gt;Node20 -->
<g id="edge35_Node000017_Node000020" class="edge">
<title>Node17&#45;&gt;Node20</title>
<g id="a_edge35_Node000017_Node000020"><a xlink:title=" ">
<path fill="none" stroke="#63b8ff" d="M720.15,-164.75C721.87,-157.72 724.35,-147.62 726.5,-138.84"/>
<polygon fill="#63b8ff" stroke="#63b8ff" points="729.91,-139.63 728.89,-129.09 723.11,-137.97 729.91,-139.63"/>
</a>
</g>
</g>
<!-- Node20&#45;&gt;Node3 -->
<g id="edge36_Node000020_Node000003" class="edge">
<title>Node20&#45;&gt;Node3</title>
<g id="a_edge36_Node000020_Node000003"><a xlink:title=" ">
<path fill="none" stroke="#63b8ff" d="M708.83,-109.98C686.23,-101.3 650.94,-87.75 625.25,-77.88"/>
<polygon fill="#63b8ff" stroke="#63b8ff" points="626.17,-74.49 615.58,-74.17 623.66,-81.02 626.17,-74.49"/>
</a>
</g>
</g>
<!-- Node20&#45;&gt;Node4 -->
<g id="edge37_Node000020_Node000004" class="edge">
<title>Node20&#45;&gt;Node4</title>
<g id="a_edge37_Node000020_Node000004"><a xlink:title=" ">
<path fill="none" stroke="#63b8ff" d="M723.96,-109.83C712.01,-95.78 686.29,-68.26 658,-55 577.79,-17.39 471.48,-10.85 417.92,-10.15"/>
<polygon fill="#63b8ff" stroke="#63b8ff" points="417.65,-6.65 407.63,-10.08 417.6,-13.65 417.65,-6.65"/>
</a>
</g>
</g>
<!-- Node20&#45;&gt;Node5 -->
<g id="edge38_Node000020_Node000005" class="edge">
<title>Node20&#45;&gt;Node5</title>
<g id="a_edge38_Node000020_Node000005"><a xlink:title=" ">
<path fill="none" stroke="#63b8ff" d="M730.1,-109.66C728.32,-92.17 724.31,-52.8 721.91,-29.27"/>
<polygon fill="#63b8ff" stroke="#63b8ff" points="725.38,-28.75 720.88,-19.16 718.41,-29.46 725.38,-28.75"/>
</a>
</g>
</g>
<!-- Node20&#45;&gt;Node10 -->
<g id="edge39_Node000020_Node000010" class="edge">
<title>Node20&#45;&gt;Node10</title>
<g id="a_edge39_Node000020_Node000010"><a xlink:title=" ">
<path fill="none" stroke="#63b8ff" d="M765.06,-109.98C801.89,-100.78 860.64,-86.09 900.47,-76.13"/>
<polygon fill="#63b8ff" stroke="#63b8ff" points="901.56,-79.47 910.42,-73.65 899.87,-72.68 901.56,-79.47"/>
</a>
</g>
</g>
<!-- Node20&#45;&gt;Node15 -->
<g id="edge42_Node000020_Node000015" class="edge">
<title>Node20&#45;&gt;Node15</title>
<g id="a_edge42_Node000020_Node000015"><a xlink:title=" ">
<path fill="none" stroke="#63b8ff" d="M671.85,-111.41C585.81,-101.09 427.33,-82.09 343.81,-72.07"/>
<polygon fill="#63b8ff" stroke="#63b8ff" points="344.11,-68.58 333.76,-70.87 343.27,-75.53 344.11,-68.58"/>
</a>
</g>
</g>
<!-- Node20&#45;&gt;Node18 -->
<g id="edge41_Node000020_Node000018" class="edge">
<title>Node20&#45;&gt;Node18</title>
<g id="a_edge41_Node000020_Node000018"><a xlink:title=" ">
<path fill="none" stroke="#63b8ff" d="M790.18,-110.21C839.6,-102.82 912.05,-90.89 983.7,-74.07"/>
<polygon fill="#63b8ff" stroke="#63b8ff" points="984.89,-77.38 993.8,-71.66 983.27,-70.57 984.89,-77.38"/>
</a>
</g>
</g>
<!-- Node21 -->
<g id="Node000021" class="node">
<title>Node21</title>
<g id="a_Node000021"><a xlink:title=" ">
<polygon fill="#e0e0e0" stroke="#999999" points="892.5,-74 851.5,-74 851.5,-55 892.5,-55 892.5,-74"/>
<text text-anchor="middle" x="872" y="-62" font-family="Helvetica,sans-Serif" font-size="10.00">tuple</text>
</a>
</g>
</g>
<!-- Node20&#45;&gt;Node21 -->
<g id="edge40_Node000020_Node000021" class="edge">
<title>Node20&#45;&gt;Node21</title>
<g id="a_edge40_Node000020_Node000021"><a xlink:title=" ">
<path fill="none" stroke="#63b8ff" d="M753.65,-109.98C777.54,-101.01 815.29,-86.82 841.72,-76.88"/>
<polygon fill="#63b8ff" stroke="#63b8ff" points="843.11,-80.1 851.24,-73.3 840.65,-73.55 843.11,-80.1"/>
</a>
</g>
</g>
<!-- Node22&#45;&gt;Node8 -->
<g id="edge45_Node000022_Node000008" class="edge">
<title>Node22&#45;&gt;Node8</title>
<g id="a_edge45_Node000022_Node000008"><a xlink:title=" ">
<path fill="none" stroke="#63b8ff" d="M153.49,-109.75C154.67,-102.8 156.36,-92.85 157.84,-84.13"/>
<polygon fill="#63b8ff" stroke="#63b8ff" points="161.32,-84.53 159.54,-74.09 154.42,-83.36 161.32,-84.53"/>
</a>
</g>
</g>
<!-- Node22&#45;&gt;Node11 -->
<g id="edge44_Node000022_Node000011" class="edge">
<title>Node22&#45;&gt;Node11</title>
<g id="a_edge44_Node000022_Node000011"><a xlink:title=" ">
<path fill="none" stroke="#63b8ff" d="M131.6,-109.98C110.98,-101.38 78.89,-87.99 55.31,-78.15"/>
<polygon fill="#63b8ff" stroke="#63b8ff" points="56.35,-74.79 45.78,-74.17 53.66,-81.25 56.35,-74.79"/>
</a>
</g>
</g>
<!-- Node22&#45;&gt;Node12 -->
<g id="edge46_Node000022_Node000012" class="edge">
<title>Node22&#45;&gt;Node12</title>
<g id="a_edge46_Node000022_Node000012"><a xlink:title=" ">
<path fill="none" stroke="#63b8ff" d="M142.36,-109.98C133.49,-102.15 120.13,-90.34 109.39,-80.86"/>
<polygon fill="#63b8ff" stroke="#63b8ff" points="111.63,-78.17 101.82,-74.17 106.99,-83.41 111.63,-78.17"/>
</a>
</g>
</g>
<!-- Node22&#45;&gt;Node15 -->
<g id="edge47_Node000022_Node000015" class="edge">
<title>Node22&#45;&gt;Node15</title>
<g id="a_edge47_Node000022_Node000015"><a xlink:title=" ">
<path fill="none" stroke="#63b8ff" d="M174.01,-109.98C196.45,-101.3 231.48,-87.75 256.99,-77.88"/>
<polygon fill="#63b8ff" stroke="#63b8ff" points="258.52,-81.04 266.59,-74.17 256,-74.51 258.52,-81.04"/>
</a>
</g>
</g>
</g>
</svg>
