<?xml version="1.0" encoding="UTF-8" standalone="no"?>
<!DOCTYPE svg PUBLIC "-//W3C//DTD SVG 1.1//EN"
 "http://www.w3.org/Graphics/SVG/1.1/DTD/svg11.dtd">
<!-- Generated by graphviz version 2.43.0 (0)
 -->
<!-- Title: src/TestGenerator/src/generatorHelper.cpp Pages: 1 -->
<svg width="1182pt" height="313pt"
 viewBox="0.00 0.00 1182.00 313.00" xmlns="http://www.w3.org/2000/svg" xmlns:xlink="http://www.w3.org/1999/xlink">
<g id="graph0" class="graph" transform="scale(1 1) rotate(0) translate(4 309)">
<title>src/TestGenerator/src/generatorHelper.cpp</title>
<!-- Node1 -->
<g id="Node000001" class="node">
<title>Node1</title>
<g id="a_Node000001"><a xlink:title=" ">
<polygon fill="#999999" stroke="#666666" points="671.5,-305 552.5,-305 552.5,-275 671.5,-275 671.5,-305"/>
<text text-anchor="start" x="560.5" y="-293" font-family="Helvetica,sans-Serif" font-size="10.00">src/TestGenerator/src</text>
<text text-anchor="middle" x="612" y="-282" font-family="Helvetica,sans-Serif" font-size="10.00">/generatorHelper.cpp</text>
</a>
</g>
</g>
<!-- Node2 -->
<g id="Node000002" class="node">
<title>Node2</title>
<g id="a_Node000002"><a xlink:href="generatorHelper_8h.html" target="_top" xlink:title=" ">
<polygon fill="white" stroke="#666666" points="515,-129 339,-129 339,-110 515,-110 515,-129"/>
<text text-anchor="middle" x="427" y="-117" font-family="Helvetica,sans-Serif" font-size="10.00">TestGenerator/generatorHelper.h</text>
</a>
</g>
</g>
<!-- Node1&#45;&gt;Node2 -->
<g id="edge1_Node000001_Node000002" class="edge">
<title>Node1&#45;&gt;Node2</title>
<g id="a_edge1_Node000001_Node000002"><a xlink:title=" ">
<path fill="none" stroke="#63b8ff" d="M590.46,-274.79C576.49,-265.23 558.13,-252.04 543,-239 503.77,-205.18 462.39,-160.37 441.26,-136.72"/>
<polygon fill="#63b8ff" stroke="#63b8ff" points="443.68,-134.18 434.43,-129.02 438.45,-138.83 443.68,-134.18"/>
</a>
</g>
</g>
<!-- Node3 -->
<g id="Node000003" class="node">
<title>Node3</title>
<g id="a_Node000003"><a xlink:title=" ">
<polygon fill="#e0e0e0" stroke="#999999" points="794.5,-74 749.5,-74 749.5,-55 794.5,-55 794.5,-74"/>
<text text-anchor="middle" x="772" y="-62" font-family="Helvetica,sans-Serif" font-size="10.00">utility</text>
</a>
</g>
</g>
<!-- Node1&#45;&gt;Node3 -->
<g id="edge20_Node000001_Node000003" class="edge">
<title>Node1&#45;&gt;Node3</title>
<g id="a_edge20_Node000001_Node000003"><a xlink:title=" ">
<path fill="none" stroke="#63b8ff" d="M660.67,-274.97C702.75,-259.97 760.94,-231.65 788,-184 806.12,-152.09 791.59,-107.76 780.86,-83.36"/>
<polygon fill="#63b8ff" stroke="#63b8ff" points="784,-81.81 776.6,-74.23 777.65,-84.77 784,-81.81"/>
</a>
</g>
</g>
<!-- Node9 -->
<g id="Node000009" class="node">
<title>Node9</title>
<g id="a_Node000009"><a xlink:title=" ">
<polygon fill="#e0e0e0" stroke="#999999" points="1013.5,-74 948.5,-74 948.5,-55 1013.5,-55 1013.5,-74"/>
<text text-anchor="middle" x="981" y="-62" font-family="Helvetica,sans-Serif" font-size="10.00">functional</text>
</a>
</g>
</g>
<!-- Node1&#45;&gt;Node9 -->
<g id="edge18_Node000001_Node000009" class="edge">
<title>Node1&#45;&gt;Node9</title>
<g id="a_edge18_Node000001_Node000009"><a xlink:title=" ">
<path fill="none" stroke="#63b8ff" d="M671.68,-283.47C757.98,-271.84 914.55,-236.3 981,-129 989.25,-115.67 988.34,-97.56 985.89,-84.09"/>
<polygon fill="#63b8ff" stroke="#63b8ff" points="989.25,-83.07 983.65,-74.07 982.42,-84.6 989.25,-83.07"/>
</a>
</g>
</g>
<!-- Node13 -->
<g id="Node000013" class="node">
<title>Node13</title>
<g id="a_Node000013"><a xlink:title=" ">
<polygon fill="#e0e0e0" stroke="#999999" points="1166,-19 1106,-19 1106,0 1166,0 1166,-19"/>
<text text-anchor="middle" x="1136" y="-7" font-family="Helvetica,sans-Serif" font-size="10.00">iostream</text>
</a>
</g>
</g>
<!-- Node1&#45;&gt;Node13 -->
<g id="edge19_Node000001_Node000013" class="edge">
<title>Node1&#45;&gt;Node13</title>
<g id="a_edge19_Node000001_Node000013"><a xlink:title=" ">
<path fill="none" stroke="#63b8ff" d="M671.61,-289.42C816.25,-288.85 1174,-277.15 1174,-175.5 1174,-175.5 1174,-175.5 1174,-118.5 1174,-85.02 1157.55,-48.84 1146.3,-28.01"/>
<polygon fill="#63b8ff" stroke="#63b8ff" points="1149.24,-26.1 1141.28,-19.1 1143.13,-29.53 1149.24,-26.1"/>
</a>
</g>
</g>
<!-- Node14 -->
<g id="Node000014" class="node">
<title>Node14</title>
<g id="a_Node000014"><a xlink:href="types_8h.html" target="_top" xlink:title=" ">
<polygon fill="white" stroke="#666666" points="437.5,-74 348.5,-74 348.5,-55 437.5,-55 437.5,-74"/>
<text text-anchor="middle" x="393" y="-62" font-family="Helvetica,sans-Serif" font-size="10.00">Library/types.h</text>
</a>
</g>
</g>
<!-- Node1&#45;&gt;Node14 -->
<g id="edge43_Node000001_Node000014" class="edge">
<title>Node1&#45;&gt;Node14</title>
<g id="a_edge43_Node000001_Node000014"><a xlink:title=" ">
<path fill="none" stroke="#63b8ff" d="M552.28,-275.4C482.86,-256.04 371.5,-213.13 322,-129 309.49,-107.74 335.67,-89.69 359.7,-78.33"/>
<polygon fill="#63b8ff" stroke="#63b8ff" points="361.35,-81.43 369.06,-74.17 358.5,-75.04 361.35,-81.43"/>
</a>
</g>
</g>
<!-- Node15 -->
<g id="Node000015" class="node">
<title>Node15</title>
<g id="a_Node000015"><a xlink:href="database_8h.html" target="_top" xlink:title=" ">
<polygon fill="white" stroke="#666666" points="672,-239 552,-239 552,-220 672,-220 672,-239"/>
<text text-anchor="middle" x="612" y="-227" font-family="Helvetica,sans-Serif" font-size="10.00">Database/database.h</text>
</a>
</g>
</g>
<!-- Node1&#45;&gt;Node15 -->
<g id="edge21_Node000001_Node000015" class="edge">
<title>Node1&#45;&gt;Node15</title>
<g id="a_edge21_Node000001_Node000015"><a xlink:title=" ">
<path fill="none" stroke="#63b8ff" d="M612,-274.84C612,-267.21 612,-257.7 612,-249.45"/>
<polygon fill="#63b8ff" stroke="#63b8ff" points="615.5,-249.27 612,-239.27 608.5,-249.27 615.5,-249.27"/>
</a>
</g>
</g>
<!-- Node22 -->
<g id="Node000022" class="node">
<title>Node22</title>
<g id="a_Node000022"><a xlink:href="utils_8h_source.html" target="_top" xlink:title=" ">
<polygon fill="white" stroke="#666666" points="242.5,-129 159.5,-129 159.5,-110 242.5,-110 242.5,-129"/>
<text text-anchor="middle" x="201" y="-117" font-family="Helvetica,sans-Serif" font-size="10.00">Library/utils.h</text>
</a>
</g>
</g>
<!-- Node1&#45;&gt;Node22 -->
<g id="edge44_Node000001_Node000022" class="edge">
<title>Node1&#45;&gt;Node22</title>
<g id="a_edge44_Node000001_Node000022"><a xlink:title=" ">
<path fill="none" stroke="#63b8ff" d="M552.35,-287.19C464.2,-283.44 304.64,-272.15 259,-239 225.6,-214.74 210.48,-165.89 204.46,-139.11"/>
<polygon fill="#63b8ff" stroke="#63b8ff" points="207.84,-138.21 202.4,-129.12 200.99,-139.62 207.84,-138.21"/>
</a>
</g>
</g>
<!-- Node2&#45;&gt;Node3 -->
<g id="edge2_Node000002_Node000003" class="edge">
<title>Node2&#45;&gt;Node3</title>
<g id="a_edge2_Node000002_Node000003"><a xlink:title=" ">
<path fill="none" stroke="#63b8ff" d="M507.17,-109.98C568.48,-102.81 655.24,-91.25 739.41,-74.12"/>
<polygon fill="#63b8ff" stroke="#63b8ff" points="740.31,-77.5 749.39,-72.05 738.89,-70.65 740.31,-77.5"/>
</a>
</g>
</g>
<!-- Node4 -->
<g id="Node000004" class="node">
<title>Node4</title>
<g id="a_Node000004"><a xlink:title=" ">
<polygon fill="#e0e0e0" stroke="#999999" points="795.5,-19 748.5,-19 748.5,0 795.5,0 795.5,-19"/>
<text text-anchor="middle" x="772" y="-7" font-family="Helvetica,sans-Serif" font-size="10.00">vector</text>
</a>
</g>
</g>
<!-- Node2&#45;&gt;Node4 -->
<g id="edge3_Node000002_Node000004" class="edge">
<title>Node2&#45;&gt;Node4</title>
<g id="a_edge3_Node000002_Node000004"><a xlink:title=" ">
<path fill="none" stroke="#63b8ff" d="M438.66,-109.91C460.09,-94.28 505.19,-62.13 523,-55 596.31,-25.67 689.48,-15.59 738.44,-12.18"/>
<polygon fill="#63b8ff" stroke="#63b8ff" points="738.72,-15.67 748.48,-11.54 738.27,-8.69 738.72,-15.67"/>
</a>
</g>
</g>
<!-- Node5 -->
<g id="Node000005" class="node">
<title>Node5</title>
<g id="a_Node000005"><a xlink:title=" ">
<polygon fill="#e0e0e0" stroke="#999999" points="640,-19 596,-19 596,0 640,0 640,-19"/>
<text text-anchor="middle" x="618" y="-7" font-family="Helvetica,sans-Serif" font-size="10.00">string</text>
</a>
</g>
</g>
<!-- Node2&#45;&gt;Node5 -->
<g id="edge4_Node000002_Node000005" class="edge">
<title>Node2&#45;&gt;Node5</title>
<g id="a_edge4_Node000002_Node000005"><a xlink:title=" ">
<path fill="none" stroke="#63b8ff" d="M433.41,-109.87C443.85,-96.37 465.82,-70.23 490,-55 520.01,-36.1 559.06,-24.03 586.1,-17.3"/>
<polygon fill="#63b8ff" stroke="#63b8ff" points="586.91,-20.7 595.83,-14.98 585.29,-13.89 586.91,-20.7"/>
</a>
</g>
</g>
<!-- Node6 -->
<g id="Node000006" class="node">
<title>Node6</title>
<g id="a_Node000006"><a xlink:title=" ">
<polygon fill="#e0e0e0" stroke="#999999" points="590,-74 532,-74 532,-55 590,-55 590,-74"/>
<text text-anchor="middle" x="561" y="-62" font-family="Helvetica,sans-Serif" font-size="10.00">memory</text>
</a>
</g>
</g>
<!-- Node2&#45;&gt;Node6 -->
<g id="edge5_Node000002_Node000006" class="edge">
<title>Node2&#45;&gt;Node6</title>
<g id="a_edge5_Node000002_Node000006"><a xlink:title=" ">
<path fill="none" stroke="#63b8ff" d="M448.53,-109.98C470.47,-101.3 504.74,-87.75 529.69,-77.88"/>
<polygon fill="#63b8ff" stroke="#63b8ff" points="531.07,-81.1 539.08,-74.17 528.49,-74.59 531.07,-81.1"/>
</a>
</g>
</g>
<!-- Node7 -->
<g id="Node000007" class="node">
<title>Node7</title>
<g id="a_Node000007"><a xlink:title=" ">
<polygon fill="#e0e0e0" stroke="#999999" points="158,-74 104,-74 104,-55 158,-55 158,-74"/>
<text text-anchor="middle" x="131" y="-62" font-family="Helvetica,sans-Serif" font-size="10.00">random</text>
</a>
</g>
</g>
<!-- Node2&#45;&gt;Node7 -->
<g id="edge6_Node000002_Node000007" class="edge">
<title>Node2&#45;&gt;Node7</title>
<g id="a_edge6_Node000002_Node000007"><a xlink:title=" ">
<path fill="none" stroke="#63b8ff" d="M371.28,-109.99C320.77,-102.05 244.06,-89.41 168.29,-74.16"/>
<polygon fill="#63b8ff" stroke="#63b8ff" points="168.58,-70.65 158.09,-72.09 167.19,-77.51 168.58,-70.65"/>
</a>
</g>
</g>
<!-- Node8 -->
<g id="Node000008" class="node">
<title>Node8</title>
<g id="a_Node000008"><a xlink:title=" ">
<polygon fill="#e0e0e0" stroke="#999999" points="366.5,-19 273.5,-19 273.5,0 366.5,0 366.5,-19"/>
<text text-anchor="middle" x="320" y="-7" font-family="Helvetica,sans-Serif" font-size="10.00">unordered_map</text>
</a>
</g>
</g>
<!-- Node2&#45;&gt;Node8 -->
<g id="edge7_Node000002_Node000008" class="edge">
<title>Node2&#45;&gt;Node8</title>
<g id="a_edge7_Node000002_Node000008"><a xlink:title=" ">
<path fill="none" stroke="#63b8ff" d="M396.55,-109.95C377.49,-103.13 353.83,-91.73 339,-74 328.5,-61.45 323.8,-43.25 321.7,-29.55"/>
<polygon fill="#63b8ff" stroke="#63b8ff" points="325.14,-28.84 320.48,-19.32 318.19,-29.67 325.14,-28.84"/>
</a>
</g>
</g>
<!-- Node2&#45;&gt;Node9 -->
<g id="edge8_Node000002_Node000009" class="edge">
<title>Node2&#45;&gt;Node9</title>
<g id="a_edge8_Node000002_Node000009"><a xlink:title=" ">
<path fill="none" stroke="#63b8ff" d="M515.42,-114C615.74,-108.19 784.4,-96.23 938.27,-74.1"/>
<polygon fill="#63b8ff" stroke="#63b8ff" points="939,-77.53 948.39,-72.62 937.99,-70.6 939,-77.53"/>
</a>
</g>
</g>
<!-- Node10 -->
<g id="Node000010" class="node">
<title>Node10</title>
<g id="a_Node000010"><a xlink:title=" ">
<polygon fill="#e0e0e0" stroke="#999999" points="226,-74 176,-74 176,-55 226,-55 226,-74"/>
<text text-anchor="middle" x="201" y="-62" font-family="Helvetica,sans-Serif" font-size="10.00">chrono</text>
</a>
</g>
</g>
<!-- Node2&#45;&gt;Node10 -->
<g id="edge9_Node000002_Node000010" class="edge">
<title>Node2&#45;&gt;Node10</title>
<g id="a_edge9_Node000002_Node000010"><a xlink:title=" ">
<path fill="none" stroke="#63b8ff" d="M389.43,-109.99C352.73,-101.64 295.05,-88.39 236.09,-74.23"/>
<polygon fill="#63b8ff" stroke="#63b8ff" points="236.78,-70.8 226.24,-71.86 235.14,-77.6 236.78,-70.8"/>
</a>
</g>
</g>
<!-- Node11 -->
<g id="Node000011" class="node">
<title>Node11</title>
<g id="a_Node000011"><a xlink:title=" ">
<polygon fill="#e0e0e0" stroke="#999999" points="291.5,-74 244.5,-74 244.5,-55 291.5,-55 291.5,-74"/>
<text text-anchor="middle" x="268" y="-62" font-family="Helvetica,sans-Serif" font-size="10.00">cmath</text>
</a>
</g>
</g>
<!-- Node2&#45;&gt;Node11 -->
<g id="edge10_Node000002_Node000011" class="edge">
<title>Node2&#45;&gt;Node11</title>
<g id="a_edge10_Node000002_Node000011"><a xlink:title=" ">
<path fill="none" stroke="#63b8ff" d="M401.45,-109.98C374.24,-100.91 331.07,-86.52 301.23,-76.58"/>
<polygon fill="#63b8ff" stroke="#63b8ff" points="302.26,-73.23 291.67,-73.39 300.05,-79.87 302.26,-73.23"/>
</a>
</g>
</g>
<!-- Node12 -->
<g id="Node000012" class="node">
<title>Node12</title>
<g id="a_Node000012"><a xlink:href="error_8h.html" target="_top" xlink:title=" ">
<polygon fill="white" stroke="#666666" points="731.5,-74 646.5,-74 646.5,-55 731.5,-55 731.5,-74"/>
<text text-anchor="middle" x="689" y="-62" font-family="Helvetica,sans-Serif" font-size="10.00">Library/error.h</text>
</a>
</g>
</g>
<!-- Node2&#45;&gt;Node12 -->
<g id="edge11_Node000002_Node000012" class="edge">
<title>Node2&#45;&gt;Node12</title>
<g id="a_edge11_Node000002_Node000012"><a xlink:title=" ">
<path fill="none" stroke="#63b8ff" d="M469.09,-109.98C514.7,-100.76 587.52,-86.03 636.75,-76.07"/>
<polygon fill="#63b8ff" stroke="#63b8ff" points="637.47,-79.5 646.58,-74.08 636.08,-72.63 637.47,-79.5"/>
</a>
</g>
</g>
<!-- Node2&#45;&gt;Node14 -->
<g id="edge14_Node000002_Node000014" class="edge">
<title>Node2&#45;&gt;Node14</title>
<g id="a_edge14_Node000002_Node000014"><a xlink:title=" ">
<path fill="none" stroke="#63b8ff" d="M421.39,-109.75C416.68,-102.42 409.83,-91.73 404.03,-82.7"/>
<polygon fill="#63b8ff" stroke="#63b8ff" points="406.86,-80.62 398.51,-74.09 400.96,-84.4 406.86,-80.62"/>
</a>
</g>
</g>
<!-- Node12&#45;&gt;Node5 -->
<g id="edge12_Node000012_Node000005" class="edge">
<title>Node12&#45;&gt;Node5</title>
<g id="a_edge12_Node000012_Node000005"><a xlink:title=" ">
<path fill="none" stroke="#63b8ff" d="M677.59,-54.98C666.89,-47 650.66,-34.88 637.84,-25.31"/>
<polygon fill="#63b8ff" stroke="#63b8ff" points="639.72,-22.35 629.61,-19.17 635.53,-27.96 639.72,-22.35"/>
</a>
</g>
</g>
<!-- Node12&#45;&gt;Node13 -->
<g id="edge13_Node000012_Node000013" class="edge">
<title>Node12&#45;&gt;Node13</title>
<g id="a_edge13_Node000012_Node000013"><a xlink:title=" ">
<path fill="none" stroke="#63b8ff" d="M731.54,-56.37C734.74,-55.89 737.92,-55.43 741,-55 870.07,-37.19 1023.62,-21.45 1095.33,-14.41"/>
<polygon fill="#63b8ff" stroke="#63b8ff" points="1096.09,-17.85 1105.71,-13.39 1095.41,-10.88 1096.09,-17.85"/>
</a>
</g>
</g>
<!-- Node14&#45;&gt;Node4 -->
<g id="edge15_Node000014_Node000004" class="edge">
<title>Node14&#45;&gt;Node4</title>
<g id="a_edge15_Node000014_Node000004"><a xlink:title=" ">
<path fill="none" stroke="#63b8ff" d="M437.59,-57.26C514.3,-46.54 669.59,-24.82 738.16,-15.23"/>
<polygon fill="#63b8ff" stroke="#63b8ff" points="738.97,-18.65 748.39,-13.8 738,-11.72 738.97,-18.65"/>
</a>
</g>
</g>
<!-- Node14&#45;&gt;Node5 -->
<g id="edge17_Node000014_Node000005" class="edge">
<title>Node14&#45;&gt;Node5</title>
<g id="a_edge17_Node000014_Node000005"><a xlink:title=" ">
<path fill="none" stroke="#63b8ff" d="M429.15,-54.98C472.55,-44.76 544.66,-27.78 586.09,-18.02"/>
<polygon fill="#63b8ff" stroke="#63b8ff" points="586.99,-21.4 595.92,-15.7 585.39,-14.59 586.99,-21.4"/>
</a>
</g>
</g>
<!-- Node14&#45;&gt;Node8 -->
<g id="edge16_Node000014_Node000008" class="edge">
<title>Node14&#45;&gt;Node8</title>
<g id="a_edge16_Node000014_Node000008"><a xlink:title=" ">
<path fill="none" stroke="#63b8ff" d="M381.27,-54.98C370.27,-47 353.58,-34.88 340.4,-25.31"/>
<polygon fill="#63b8ff" stroke="#63b8ff" points="342.09,-22.21 331.94,-19.17 337.98,-27.88 342.09,-22.21"/>
</a>
</g>
</g>
<!-- Node15&#45;&gt;Node6 -->
<g id="edge22_Node000015_Node000006" class="edge">
<title>Node15&#45;&gt;Node6</title>
<g id="a_edge22_Node000015_Node000006"><a xlink:title=" ">
<path fill="none" stroke="#63b8ff" d="M609.26,-219.74C601.27,-194.2 577.87,-119.43 566.86,-84.23"/>
<polygon fill="#63b8ff" stroke="#63b8ff" points="570.08,-82.81 563.76,-74.31 563.4,-84.9 570.08,-82.81"/>
</a>
</g>
</g>
<!-- Node16 -->
<g id="Node000016" class="node">
<title>Node16</title>
<g id="a_Node000016"><a xlink:href="transaction_8h_source.html" target="_top" xlink:title=" ">
<polygon fill="white" stroke="#666666" points="778.5,-184 639.5,-184 639.5,-165 778.5,-165 778.5,-184"/>
<text text-anchor="middle" x="709" y="-172" font-family="Helvetica,sans-Serif" font-size="10.00">Transaction/transaction.h</text>
</a>
</g>
</g>
<!-- Node15&#45;&gt;Node16 -->
<g id="edge23_Node000015_Node000016" class="edge">
<title>Node15&#45;&gt;Node16</title>
<g id="a_edge23_Node000015_Node000016"><a xlink:title=" ">
<path fill="none" stroke="#63b8ff" d="M627.58,-219.98C642.77,-211.69 666.1,-198.94 683.9,-189.22"/>
<polygon fill="#63b8ff" stroke="#63b8ff" points="686.03,-192.04 693.13,-184.17 682.68,-185.89 686.03,-192.04"/>
</a>
</g>
</g>
<!-- Node16&#45;&gt;Node3 -->
<g id="edge27_Node000016_Node000003" class="edge">
<title>Node16&#45;&gt;Node3</title>
<g id="a_edge27_Node000016_Node000003"><a xlink:title=" ">
<path fill="none" stroke="#63b8ff" d="M714.16,-164.66C724.54,-146.85 748.16,-106.37 761.79,-83.01"/>
<polygon fill="#63b8ff" stroke="#63b8ff" points="764.93,-84.56 766.95,-74.16 758.89,-81.03 764.93,-84.56"/>
</a>
</g>
</g>
<!-- Node16&#45;&gt;Node4 -->
<g id="edge28_Node000016_Node000004" class="edge">
<title>Node16&#45;&gt;Node4</title>
<g id="a_edge28_Node000016_Node000004"><a xlink:title=" ">
<path fill="none" stroke="#63b8ff" d="M778.78,-173.02C841.17,-170.32 933.91,-160.62 1008,-129 1044.71,-113.33 1061.43,-109.84 1079,-74 1082.72,-66.42 1084.53,-61.39 1079,-55 1043.97,-14.52 878.22,-10.08 805.89,-10.11"/>
<polygon fill="#63b8ff" stroke="#63b8ff" points="805.51,-6.61 795.52,-10.15 805.53,-13.61 805.51,-6.61"/>
</a>
</g>
</g>
<!-- Node16&#45;&gt;Node5 -->
<g id="edge26_Node000016_Node000005" class="edge">
<title>Node16&#45;&gt;Node5</title>
<g id="a_edge26_Node000016_Node000005"><a xlink:title=" ">
<path fill="none" stroke="#63b8ff" d="M685.79,-164.95C669.78,-157.82 649.4,-146.05 638,-129 617.69,-98.6 615.81,-54.29 616.65,-29.36"/>
<polygon fill="#63b8ff" stroke="#63b8ff" points="620.16,-29.28 617.19,-19.11 613.17,-28.91 620.16,-29.28"/>
</a>
</g>
</g>
<!-- Node16&#45;&gt;Node6 -->
<g id="edge29_Node000016_Node000006" class="edge">
<title>Node16&#45;&gt;Node6</title>
<g id="a_edge29_Node000016_Node000006"><a xlink:title=" ">
<path fill="none" stroke="#63b8ff" d="M676.94,-164.93C654.99,-157.9 626.15,-146.26 605,-129 589.62,-116.44 577.31,-97.17 569.67,-83.15"/>
<polygon fill="#63b8ff" stroke="#63b8ff" points="572.65,-81.31 564.95,-74.04 566.44,-84.53 572.65,-81.31"/>
</a>
</g>
</g>
<!-- Node16&#45;&gt;Node9 -->
<g id="edge32_Node000016_Node000009" class="edge">
<title>Node16&#45;&gt;Node9</title>
<g id="a_edge32_Node000016_Node000009"><a xlink:title=" ">
<path fill="none" stroke="#63b8ff" d="M778.73,-169.35C844.04,-164.06 935.47,-152.6 962,-129 974.48,-117.89 978.92,-98.96 980.42,-84.65"/>
<polygon fill="#63b8ff" stroke="#63b8ff" points="983.93,-84.61 981.09,-74.4 976.94,-84.15 983.93,-84.61"/>
</a>
</g>
</g>
<!-- Node16&#45;&gt;Node12 -->
<g id="edge34_Node000016_Node000012" class="edge">
<title>Node16&#45;&gt;Node12</title>
<g id="a_edge34_Node000016_Node000012"><a xlink:title=" ">
<path fill="none" stroke="#63b8ff" d="M710.96,-164.72C713.38,-152.33 716.64,-129.09 712,-110 709.69,-100.51 704.98,-90.78 700.42,-82.85"/>
<polygon fill="#63b8ff" stroke="#63b8ff" points="703.32,-80.89 695.1,-74.2 697.36,-84.55 703.32,-80.89"/>
</a>
</g>
</g>
<!-- Node16&#45;&gt;Node13 -->
<g id="edge24_Node000016_Node000013" class="edge">
<title>Node16&#45;&gt;Node13</title>
<g id="a_edge24_Node000016_Node000013"><a xlink:title=" ">
<path fill="none" stroke="#63b8ff" d="M778.61,-169.65C862.38,-164.09 997.35,-151.86 1042,-129 1084.9,-107.04 1114.61,-55.65 1127.98,-28.32"/>
<polygon fill="#63b8ff" stroke="#63b8ff" points="1131.21,-29.68 1132.3,-19.14 1124.88,-26.7 1131.21,-29.68"/>
</a>
</g>
</g>
<!-- Node16&#45;&gt;Node14 -->
<g id="edge33_Node000016_Node000014" class="edge">
<title>Node16&#45;&gt;Node14</title>
<g id="a_edge33_Node000016_Node000014"><a xlink:title=" ">
<path fill="none" stroke="#63b8ff" d="M639.46,-170.26C535.66,-164.69 350.17,-151.68 330,-129 313.87,-110.87 340.9,-91.21 364.42,-78.65"/>
<polygon fill="#63b8ff" stroke="#63b8ff" points="366.16,-81.69 373.49,-74.04 362.98,-75.45 366.16,-81.69"/>
</a>
</g>
</g>
<!-- Node17 -->
<g id="Node000017" class="node">
<title>Node17</title>
<g id="a_Node000017"><a xlink:title=" ">
<polygon fill="#e0e0e0" stroke="#999999" points="48,-74 0,-74 0,-55 48,-55 48,-74"/>
<text text-anchor="middle" x="24" y="-62" font-family="Helvetica,sans-Serif" font-size="10.00">mutex</text>
</a>
</g>
</g>
<!-- Node16&#45;&gt;Node17 -->
<g id="edge25_Node000016_Node000017" class="edge">
<title>Node16&#45;&gt;Node17</title>
<g id="a_edge25_Node000016_Node000017"><a xlink:title=" ">
<path fill="none" stroke="#63b8ff" d="M639.29,-171.3C510.49,-166.69 240.17,-154.26 150,-129 111.06,-118.09 69.94,-94.85 45.65,-79.71"/>
<polygon fill="#63b8ff" stroke="#63b8ff" points="47.23,-76.57 36.91,-74.16 43.48,-82.48 47.23,-76.57"/>
</a>
</g>
</g>
<!-- Node18 -->
<g id="Node000018" class="node">
<title>Node18</title>
<g id="a_Node000018"><a xlink:title=" ">
<polygon fill="#e0e0e0" stroke="#999999" points="1070,-74 1032,-74 1032,-55 1070,-55 1070,-74"/>
<text text-anchor="middle" x="1051" y="-62" font-family="Helvetica,sans-Serif" font-size="10.00">map</text>
</a>
</g>
</g>
<!-- Node16&#45;&gt;Node18 -->
<g id="edge30_Node000016_Node000018" class="edge">
<title>Node16&#45;&gt;Node18</title>
<g id="a_edge30_Node000016_Node000018"><a xlink:title=" ">
<path fill="none" stroke="#63b8ff" d="M778.75,-172.88C835.72,-169.9 917,-159.87 981,-129 1003.98,-117.92 1024.87,-96.87 1037.73,-82.05"/>
<polygon fill="#63b8ff" stroke="#63b8ff" points="1040.59,-84.09 1044.33,-74.17 1035.22,-79.59 1040.59,-84.09"/>
</a>
</g>
</g>
<!-- Node19 -->
<g id="Node000019" class="node">
<title>Node19</title>
<g id="a_Node000019"><a xlink:title=" ">
<polygon fill="#e0e0e0" stroke="#999999" points="703,-129 647,-129 647,-110 703,-110 703,-129"/>
<text text-anchor="middle" x="675" y="-117" font-family="Helvetica,sans-Serif" font-size="10.00">optional</text>
</a>
</g>
</g>
<!-- Node16&#45;&gt;Node19 -->
<g id="edge31_Node000016_Node000019" class="edge">
<title>Node16&#45;&gt;Node19</title>
<g id="a_edge31_Node000016_Node000019"><a xlink:title=" ">
<path fill="none" stroke="#63b8ff" d="M703.39,-164.75C698.68,-157.42 691.83,-146.73 686.03,-137.7"/>
<polygon fill="#63b8ff" stroke="#63b8ff" points="688.86,-135.62 680.51,-129.09 682.96,-139.4 688.86,-135.62"/>
</a>
</g>
</g>
<!-- Node20 -->
<g id="Node000020" class="node">
<title>Node20</title>
<g id="a_Node000020"><a xlink:href="evaluate_8h.html" target="_top" xlink:title=" ">
<polygon fill="white" stroke="#666666" points="953,-129 835,-129 835,-110 953,-110 953,-129"/>
<text text-anchor="middle" x="894" y="-117" font-family="Helvetica,sans-Serif" font-size="10.00">Evaluator/evaluate.h</text>
</a>
</g>
</g>
<!-- Node16&#45;&gt;Node20 -->
<g id="edge35_Node000016_Node000020" class="edge">
<title>Node16&#45;&gt;Node20</title>
<g id="a_edge35_Node000016_Node000020"><a xlink:title=" ">
<path fill="none" stroke="#63b8ff" d="M738.72,-164.98C770.05,-156.01 819.57,-141.82 854.24,-131.89"/>
<polygon fill="#63b8ff" stroke="#63b8ff" points="855.39,-135.2 864.04,-129.08 853.47,-128.47 855.39,-135.2"/>
</a>
</g>
</g>
<!-- Node20&#45;&gt;Node3 -->
<g id="edge36_Node000020_Node000003" class="edge">
<title>Node20&#45;&gt;Node3</title>
<g id="a_edge36_Node000020_Node000003"><a xlink:title=" ">
<path fill="none" stroke="#63b8ff" d="M874.4,-109.98C854.68,-101.42 824.05,-88.11 801.42,-78.28"/>
<polygon fill="#63b8ff" stroke="#63b8ff" points="802.52,-74.94 791.96,-74.17 799.74,-81.37 802.52,-74.94"/>
</a>
</g>
</g>
<!-- Node20&#45;&gt;Node4 -->
<g id="edge37_Node000020_Node000004" class="edge">
<title>Node20&#45;&gt;Node4</title>
<g id="a_edge37_Node000020_Node000004"><a xlink:title=" ">
<path fill="none" stroke="#63b8ff" d="M887.21,-109.68C877.09,-96.83 857.05,-72.58 837,-55 824.09,-43.68 808.21,-32.76 795.38,-24.57"/>
<polygon fill="#63b8ff" stroke="#63b8ff" points="797,-21.46 786.66,-19.13 793.29,-27.39 797,-21.46"/>
</a>
</g>
</g>
<!-- Node20&#45;&gt;Node5 -->
<g id="edge38_Node000020_Node000005" class="edge">
<title>Node20&#45;&gt;Node5</title>
<g id="a_edge38_Node000020_Node000005"><a xlink:title=" ">
<path fill="none" stroke="#63b8ff" d="M883.07,-110C862.99,-94.5 820.73,-62.56 804,-55 752.84,-31.87 688.11,-19.88 650.06,-14.41"/>
<polygon fill="#63b8ff" stroke="#63b8ff" points="650.45,-10.93 640.07,-13.03 649.5,-17.86 650.45,-10.93"/>
</a>
</g>
</g>
<!-- Node20&#45;&gt;Node9 -->
<g id="edge39_Node000020_Node000009" class="edge">
<title>Node20&#45;&gt;Node9</title>
<g id="a_edge39_Node000020_Node000009"><a xlink:title=" ">
<path fill="none" stroke="#63b8ff" d="M907.98,-109.98C921.47,-101.77 942.13,-89.18 958.04,-79.49"/>
<polygon fill="#63b8ff" stroke="#63b8ff" points="960.05,-82.36 966.77,-74.17 956.41,-76.38 960.05,-82.36"/>
</a>
</g>
</g>
<!-- Node20&#45;&gt;Node14 -->
<g id="edge42_Node000020_Node000014" class="edge">
<title>Node20&#45;&gt;Node14</title>
<g id="a_edge42_Node000020_Node000014"><a xlink:title=" ">
<path fill="none" stroke="#63b8ff" d="M834.56,-112.21C736.53,-101.84 542.37,-81.3 447.61,-71.28"/>
<polygon fill="#63b8ff" stroke="#63b8ff" points="447.97,-67.8 437.65,-70.22 447.23,-74.76 447.97,-67.8"/>
</a>
</g>
</g>
<!-- Node20&#45;&gt;Node18 -->
<g id="edge41_Node000020_Node000018" class="edge">
<title>Node20&#45;&gt;Node18</title>
<g id="a_edge41_Node000020_Node000018"><a xlink:title=" ">
<path fill="none" stroke="#63b8ff" d="M919.22,-109.98C947.29,-100.51 992.57,-85.23 1022.06,-75.27"/>
<polygon fill="#63b8ff" stroke="#63b8ff" points="1023.42,-78.5 1031.78,-71.99 1021.18,-71.87 1023.42,-78.5"/>
</a>
</g>
</g>
<!-- Node21 -->
<g id="Node000021" class="node">
<title>Node21</title>
<g id="a_Node000021"><a xlink:title=" ">
<polygon fill="#e0e0e0" stroke="#999999" points="930.5,-74 889.5,-74 889.5,-55 930.5,-55 930.5,-74"/>
<text text-anchor="middle" x="910" y="-62" font-family="Helvetica,sans-Serif" font-size="10.00">tuple</text>
</a>
</g>
</g>
<!-- Node20&#45;&gt;Node21 -->
<g id="edge40_Node000020_Node000021" class="edge">
<title>Node20&#45;&gt;Node21</title>
<g id="a_edge40_Node000020_Node000021"><a xlink:title=" ">
<path fill="none" stroke="#63b8ff" d="M896.64,-109.75C898.76,-102.72 901.81,-92.62 904.46,-83.84"/>
<polygon fill="#63b8ff" stroke="#63b8ff" points="907.87,-84.67 907.41,-74.09 901.17,-82.65 907.87,-84.67"/>
</a>
</g>
</g>
<!-- Node22&#45;&gt;Node7 -->
<g id="edge46_Node000022_Node000007" class="edge">
<title>Node22&#45;&gt;Node7</title>
<g id="a_edge46_Node000022_Node000007"><a xlink:title=" ">
<path fill="none" stroke="#63b8ff" d="M189.75,-109.98C179.2,-102 163.2,-89.88 150.56,-80.31"/>
<polygon fill="#63b8ff" stroke="#63b8ff" points="152.54,-77.42 142.45,-74.17 148.31,-83 152.54,-77.42"/>
</a>
</g>
</g>
<!-- Node22&#45;&gt;Node8 -->
<g id="edge49_Node000022_Node000008" class="edge">
<title>Node22&#45;&gt;Node8</title>
<g id="a_edge49_Node000022_Node000008"><a xlink:title=" ">
<path fill="none" stroke="#63b8ff" d="M159.7,-109.96C121.25,-100.15 72.94,-81.85 95,-55 115.91,-29.55 203.75,-18.41 263.29,-13.71"/>
<polygon fill="#63b8ff" stroke="#63b8ff" points="263.61,-17.2 273.32,-12.96 263.09,-10.22 263.61,-17.2"/>
</a>
</g>
</g>
<!-- Node22&#45;&gt;Node10 -->
<g id="edge45_Node000022_Node000010" class="edge">
<title>Node22&#45;&gt;Node10</title>
<g id="a_edge45_Node000022_Node000010"><a xlink:title=" ">
<path fill="none" stroke="#63b8ff" d="M201,-109.75C201,-102.8 201,-92.85 201,-84.13"/>
<polygon fill="#63b8ff" stroke="#63b8ff" points="204.5,-84.09 201,-74.09 197.5,-84.09 204.5,-84.09"/>
</a>
</g>
</g>
<!-- Node22&#45;&gt;Node11 -->
<g id="edge47_Node000022_Node000011" class="edge">
<title>Node22&#45;&gt;Node11</title>
<g id="a_edge47_Node000022_Node000011"><a xlink:title=" ">
<path fill="none" stroke="#63b8ff" d="M211.76,-109.98C221.77,-102.07 236.89,-90.11 248.93,-80.58"/>
<polygon fill="#63b8ff" stroke="#63b8ff" points="251.37,-83.12 257.04,-74.17 247.03,-77.63 251.37,-83.12"/>
</a>
</g>
</g>
<!-- Node22&#45;&gt;Node14 -->
<g id="edge50_Node000022_Node000014" class="edge">
<title>Node22&#45;&gt;Node14</title>
<g id="a_edge50_Node000022_Node000014"><a xlink:title=" ">
<path fill="none" stroke="#63b8ff" d="M231.85,-109.98C264.5,-100.97 316.2,-86.7 352.2,-76.76"/>
<polygon fill="#63b8ff" stroke="#63b8ff" points="353.2,-80.12 361.91,-74.08 351.34,-73.37 353.2,-80.12"/>
</a>
</g>
</g>
<!-- Node22&#45;&gt;Node17 -->
<g id="edge48_Node000022_Node000017" class="edge">
<title>Node22&#45;&gt;Node17</title>
<g id="a_edge48_Node000022_Node000017"><a xlink:title=" ">
<path fill="none" stroke="#63b8ff" d="M172.56,-109.98C141.3,-100.62 91.11,-85.59 57.84,-75.63"/>
<polygon fill="#63b8ff" stroke="#63b8ff" points="58.69,-72.23 48.1,-72.72 56.68,-78.94 58.69,-72.23"/>
</a>
</g>
</g>
</g>
</svg>
