<?xml version="1.0" encoding="UTF-8" standalone="no"?>
<!DOCTYPE svg PUBLIC "-//W3C//DTD SVG 1.1//EN"
 "http://www.w3.org/Graphics/SVG/1.1/DTD/svg11.dtd">
<!-- Generated by graphviz version 2.43.0 (0)
 -->
<!-- Title: include/TestGenerator/generatorHelper.h Pages: 1 -->
<svg width="811pt" height="148pt"
 viewBox="0.00 0.00 811.00 148.00" xmlns="http://www.w3.org/2000/svg" xmlns:xlink="http://www.w3.org/1999/xlink">
<g id="graph0" class="graph" transform="scale(1 1) rotate(0) translate(4 144)">
<title>include/TestGenerator/generatorHelper.h</title>
<!-- Node1 -->
<g id="Node000001" class="node">
<title>Node1</title>
<g id="a_Node000001"><a xlink:title=" ">
<polygon fill="#999999" stroke="#666666" points="467,-140 344,-140 344,-110 467,-110 467,-140"/>
<text text-anchor="start" x="352" y="-128" font-family="Helvetica,sans-Serif" font-size="10.00">include/TestGenerator</text>
<text text-anchor="middle" x="405.5" y="-117" font-family="Helvetica,sans-Serif" font-size="10.00">/generatorHelper.h</text>
</a>
</g>
</g>
<!-- Node2 -->
<g id="Node000002" class="node">
<title>Node2</title>
<g id="a_Node000002"><a xlink:title=" ">
<polygon fill="#e0e0e0" stroke="#999999" points="45,-74 0,-74 0,-55 45,-55 45,-74"/>
<text text-anchor="middle" x="22.5" y="-62" font-family="Helvetica,sans-Serif" font-size="10.00">utility</text>
</a>
</g>
</g>
<!-- Node1&#45;&gt;Node2 -->
<g id="edge1_Node000001_Node000002" class="edge">
<title>Node1&#45;&gt;Node2</title>
<g id="a_edge1_Node000001_Node000002"><a xlink:title=" ">
<path fill="none" stroke="#63b8ff" d="M344,-116.67C274.62,-108.03 158.54,-92.5 59.5,-74 58.04,-73.73 56.55,-73.44 55.05,-73.13"/>
<polygon fill="#63b8ff" stroke="#63b8ff" points="55.65,-69.68 45.14,-71.01 54.18,-76.53 55.65,-69.68"/>
</a>
</g>
</g>
<!-- Node3 -->
<g id="Node000003" class="node">
<title>Node3</title>
<g id="a_Node000003"><a xlink:title=" ">
<polygon fill="#e0e0e0" stroke="#999999" points="134,-19 87,-19 87,0 134,0 134,-19"/>
<text text-anchor="middle" x="110.5" y="-7" font-family="Helvetica,sans-Serif" font-size="10.00">vector</text>
</a>
</g>
</g>
<!-- Node1&#45;&gt;Node3 -->
<g id="edge2_Node000001_Node000003" class="edge">
<title>Node1&#45;&gt;Node3</title>
<g id="a_edge2_Node000001_Node000003"><a xlink:title=" ">
<path fill="none" stroke="#63b8ff" d="M343.85,-123.25C262.02,-120.8 124.15,-111.11 92.5,-74 81.5,-61.11 89.22,-41.92 97.69,-28.02"/>
<polygon fill="#63b8ff" stroke="#63b8ff" points="100.82,-29.63 103.46,-19.37 95,-25.75 100.82,-29.63"/>
</a>
</g>
</g>
<!-- Node4 -->
<g id="Node000004" class="node">
<title>Node4</title>
<g id="a_Node000004"><a xlink:title=" ">
<polygon fill="#e0e0e0" stroke="#999999" points="711.5,-19 667.5,-19 667.5,0 711.5,0 711.5,-19"/>
<text text-anchor="middle" x="689.5" y="-7" font-family="Helvetica,sans-Serif" font-size="10.00">string</text>
</a>
</g>
</g>
<!-- Node1&#45;&gt;Node4 -->
<g id="edge3_Node000001_Node000004" class="edge">
<title>Node1&#45;&gt;Node4</title>
<g id="a_edge3_Node000001_Node000004"><a xlink:title=" ">
<path fill="none" stroke="#63b8ff" d="M467.25,-119.7C535.97,-113.67 641.24,-100.36 670.5,-74 682.91,-62.82 687.36,-43.89 688.88,-29.61"/>
<polygon fill="#63b8ff" stroke="#63b8ff" points="692.39,-29.59 689.57,-19.38 685.4,-29.12 692.39,-29.59"/>
</a>
</g>
</g>
<!-- Node5 -->
<g id="Node000005" class="node">
<title>Node5</title>
<g id="a_Node000005"><a xlink:title=" ">
<polygon fill="#e0e0e0" stroke="#999999" points="257.5,-74 209.5,-74 209.5,-55 257.5,-55 257.5,-74"/>
<text text-anchor="middle" x="233.5" y="-62" font-family="Helvetica,sans-Serif" font-size="10.00">mutex</text>
</a>
</g>
</g>
<!-- Node1&#45;&gt;Node5 -->
<g id="edge4_Node000001_Node000005" class="edge">
<title>Node1&#45;&gt;Node5</title>
<g id="a_edge4_Node000001_Node000005"><a xlink:title=" ">
<path fill="none" stroke="#63b8ff" d="M364.3,-109.99C334.74,-99.93 295.37,-86.54 267.58,-77.09"/>
<polygon fill="#63b8ff" stroke="#63b8ff" points="268.49,-73.71 257.9,-73.8 266.24,-80.33 268.49,-73.71"/>
</a>
</g>
</g>
<!-- Node6 -->
<g id="Node000006" class="node">
<title>Node6</title>
<g id="a_Node000006"><a xlink:title=" ">
<polygon fill="#e0e0e0" stroke="#999999" points="333.5,-74 275.5,-74 275.5,-55 333.5,-55 333.5,-74"/>
<text text-anchor="middle" x="304.5" y="-62" font-family="Helvetica,sans-Serif" font-size="10.00">memory</text>
</a>
</g>
</g>
<!-- Node1&#45;&gt;Node6 -->
<g id="edge5_Node000001_Node000006" class="edge">
<title>Node1&#45;&gt;Node6</title>
<g id="a_edge5_Node000001_Node000006"><a xlink:title=" ">
<path fill="none" stroke="#63b8ff" d="M381.31,-109.99C365.21,-100.66 344.16,-88.47 328.17,-79.21"/>
<polygon fill="#63b8ff" stroke="#63b8ff" points="329.82,-76.12 319.42,-74.14 326.31,-82.18 329.82,-76.12"/>
</a>
</g>
</g>
<!-- Node7 -->
<g id="Node000007" class="node">
<title>Node7</title>
<g id="a_Node000007"><a xlink:title=" ">
<polygon fill="#e0e0e0" stroke="#999999" points="405.5,-74 351.5,-74 351.5,-55 405.5,-55 405.5,-74"/>
<text text-anchor="middle" x="378.5" y="-62" font-family="Helvetica,sans-Serif" font-size="10.00">random</text>
</a>
</g>
</g>
<!-- Node1&#45;&gt;Node7 -->
<g id="edge6_Node000001_Node000007" class="edge">
<title>Node1&#45;&gt;Node7</title>
<g id="a_edge6_Node000001_Node000007"><a xlink:title=" ">
<path fill="none" stroke="#63b8ff" d="M398.96,-109.84C395.32,-101.95 390.76,-92.05 386.86,-83.61"/>
<polygon fill="#63b8ff" stroke="#63b8ff" points="389.91,-81.88 382.55,-74.27 383.56,-84.81 389.91,-81.88"/>
</a>
</g>
</g>
<!-- Node8 -->
<g id="Node000008" class="node">
<title>Node8</title>
<g id="a_Node000008"><a xlink:title=" ">
<polygon fill="#e0e0e0" stroke="#999999" points="363,-19 270,-19 270,0 363,0 363,-19"/>
<text text-anchor="middle" x="316.5" y="-7" font-family="Helvetica,sans-Serif" font-size="10.00">unordered_map</text>
</a>
</g>
</g>
<!-- Node1&#45;&gt;Node8 -->
<g id="edge7_Node000001_Node000008" class="edge">
<title>Node1&#45;&gt;Node8</title>
<g id="a_edge7_Node000001_Node000008"><a xlink:title=" ">
<path fill="none" stroke="#63b8ff" d="M412.42,-109.85C418.6,-95 425.16,-71.55 414.5,-55 404.34,-39.23 387.07,-28.98 369.84,-22.35"/>
<polygon fill="#63b8ff" stroke="#63b8ff" points="370.91,-19.02 360.31,-19.03 368.6,-25.63 370.91,-19.02"/>
</a>
</g>
</g>
<!-- Node9 -->
<g id="Node000009" class="node">
<title>Node9</title>
<g id="a_Node000009"><a xlink:title=" ">
<polygon fill="#e0e0e0" stroke="#999999" points="527,-74 462,-74 462,-55 527,-55 527,-74"/>
<text text-anchor="middle" x="494.5" y="-62" font-family="Helvetica,sans-Serif" font-size="10.00">functional</text>
</a>
</g>
</g>
<!-- Node1&#45;&gt;Node9 -->
<g id="edge8_Node000001_Node000009" class="edge">
<title>Node1&#45;&gt;Node9</title>
<g id="a_edge8_Node000001_Node000009"><a xlink:title=" ">
<path fill="none" stroke="#63b8ff" d="M427.04,-109.84C440.97,-100.68 459.03,-88.82 472.95,-79.66"/>
<polygon fill="#63b8ff" stroke="#63b8ff" points="474.99,-82.51 481.42,-74.09 471.15,-76.66 474.99,-82.51"/>
</a>
</g>
</g>
<!-- Node10 -->
<g id="Node000010" class="node">
<title>Node10</title>
<g id="a_Node000010"><a xlink:title=" ">
<polygon fill="#e0e0e0" stroke="#999999" points="595.5,-74 545.5,-74 545.5,-55 595.5,-55 595.5,-74"/>
<text text-anchor="middle" x="570.5" y="-62" font-family="Helvetica,sans-Serif" font-size="10.00">chrono</text>
</a>
</g>
</g>
<!-- Node1&#45;&gt;Node10 -->
<g id="edge9_Node000001_Node000010" class="edge">
<title>Node1&#45;&gt;Node10</title>
<g id="a_edge9_Node000001_Node000010"><a xlink:title=" ">
<path fill="none" stroke="#63b8ff" d="M445.02,-109.99C472.92,-100.1 509.91,-86.98 536.5,-77.56"/>
<polygon fill="#63b8ff" stroke="#63b8ff" points="537.88,-80.78 546.13,-74.14 535.54,-74.18 537.88,-80.78"/>
</a>
</g>
</g>
<!-- Node11 -->
<g id="Node000011" class="node">
<title>Node11</title>
<g id="a_Node000011"><a xlink:title=" ">
<polygon fill="#e0e0e0" stroke="#999999" points="661,-74 614,-74 614,-55 661,-55 661,-74"/>
<text text-anchor="middle" x="637.5" y="-62" font-family="Helvetica,sans-Serif" font-size="10.00">cmath</text>
</a>
</g>
</g>
<!-- Node1&#45;&gt;Node11 -->
<g id="edge10_Node000001_Node000011" class="edge">
<title>Node1&#45;&gt;Node11</title>
<g id="a_edge10_Node000001_Node000011"><a xlink:title=" ">
<path fill="none" stroke="#63b8ff" d="M461.71,-109.97C499.32,-100.56 550.18,-87.8 603.99,-74.12"/>
<polygon fill="#63b8ff" stroke="#63b8ff" points="604.88,-77.5 613.71,-71.65 603.16,-70.72 604.88,-77.5"/>
</a>
</g>
</g>
<!-- Node12 -->
<g id="Node000012" class="node">
<title>Node12</title>
<g id="a_Node000012"><a xlink:href="error_8h.html" target="_top" xlink:title=" ">
<polygon fill="white" stroke="#666666" points="803,-74 718,-74 718,-55 803,-55 803,-74"/>
<text text-anchor="middle" x="760.5" y="-62" font-family="Helvetica,sans-Serif" font-size="10.00">Library/error.h</text>
</a>
</g>
</g>
<!-- Node1&#45;&gt;Node12 -->
<g id="edge11_Node000001_Node000012" class="edge">
<title>Node1&#45;&gt;Node12</title>
<g id="a_edge11_Node000001_Node000012"><a xlink:title=" ">
<path fill="none" stroke="#63b8ff" d="M467.34,-113.81C535.41,-102.59 643.68,-84.75 707.85,-74.18"/>
<polygon fill="#63b8ff" stroke="#63b8ff" points="708.46,-77.62 717.76,-72.54 707.32,-70.72 708.46,-77.62"/>
</a>
</g>
</g>
<!-- Node14 -->
<g id="Node000014" class="node">
<title>Node14</title>
<g id="a_Node000014"><a xlink:href="types_8h.html" target="_top" xlink:title=" ">
<polygon fill="white" stroke="#666666" points="191,-74 102,-74 102,-55 191,-55 191,-74"/>
<text text-anchor="middle" x="146.5" y="-62" font-family="Helvetica,sans-Serif" font-size="10.00">Library/types.h</text>
</a>
</g>
</g>
<!-- Node1&#45;&gt;Node14 -->
<g id="edge14_Node000001_Node000014" class="edge">
<title>Node1&#45;&gt;Node14</title>
<g id="a_edge14_Node000001_Node000014"><a xlink:title=" ">
<path fill="none" stroke="#63b8ff" d="M343.79,-110.06C298.04,-99.73 236.56,-85.84 194.47,-76.33"/>
<polygon fill="#63b8ff" stroke="#63b8ff" points="194.99,-72.87 184.47,-74.08 193.45,-79.69 194.99,-72.87"/>
</a>
</g>
</g>
<!-- Node12&#45;&gt;Node4 -->
<g id="edge12_Node000012_Node000004" class="edge">
<title>Node12&#45;&gt;Node4</title>
<g id="a_edge12_Node000012_Node000004"><a xlink:title=" ">
<path fill="none" stroke="#63b8ff" d="M749.09,-54.98C738.39,-47 722.16,-34.88 709.34,-25.31"/>
<polygon fill="#63b8ff" stroke="#63b8ff" points="711.22,-22.35 701.11,-19.17 707.03,-27.96 711.22,-22.35"/>
</a>
</g>
</g>
<!-- Node13 -->
<g id="Node000013" class="node">
<title>Node13</title>
<g id="a_Node000013"><a xlink:title=" ">
<polygon fill="#e0e0e0" stroke="#999999" points="790.5,-19 730.5,-19 730.5,0 790.5,0 790.5,-19"/>
<text text-anchor="middle" x="760.5" y="-7" font-family="Helvetica,sans-Serif" font-size="10.00">iostream</text>
</a>
</g>
</g>
<!-- Node12&#45;&gt;Node13 -->
<g id="edge13_Node000012_Node000013" class="edge">
<title>Node12&#45;&gt;Node13</title>
<g id="a_edge13_Node000012_Node000013"><a xlink:title=" ">
<path fill="none" stroke="#63b8ff" d="M760.5,-54.75C760.5,-47.8 760.5,-37.85 760.5,-29.13"/>
<polygon fill="#63b8ff" stroke="#63b8ff" points="764,-29.09 760.5,-19.09 757,-29.09 764,-29.09"/>
</a>
</g>
</g>
<!-- Node14&#45;&gt;Node3 -->
<g id="edge15_Node000014_Node000003" class="edge">
<title>Node14&#45;&gt;Node3</title>
<g id="a_edge15_Node000014_Node000003"><a xlink:title=" ">
<path fill="none" stroke="#63b8ff" d="M140.56,-54.75C135.52,-47.34 128.16,-36.5 121.99,-27.41"/>
<polygon fill="#63b8ff" stroke="#63b8ff" points="124.85,-25.39 116.33,-19.09 119.06,-29.33 124.85,-25.39"/>
</a>
</g>
</g>
<!-- Node14&#45;&gt;Node4 -->
<g id="edge17_Node000014_Node000004" class="edge">
<title>Node14&#45;&gt;Node4</title>
<g id="a_edge17_Node000014_Node000004"><a xlink:title=" ">
<path fill="none" stroke="#63b8ff" d="M191.26,-56.22C194.38,-55.79 197.49,-55.37 200.5,-55 371.79,-33.75 578.02,-18.28 656.77,-12.74"/>
<polygon fill="#63b8ff" stroke="#63b8ff" points="657.29,-16.21 667.02,-12.02 656.8,-9.22 657.29,-16.21"/>
</a>
</g>
</g>
<!-- Node14&#45;&gt;Node8 -->
<g id="edge16_Node000014_Node000008" class="edge">
<title>Node14&#45;&gt;Node8</title>
<g id="a_edge16_Node000014_Node000008"><a xlink:title=" ">
<path fill="none" stroke="#63b8ff" d="M173.81,-54.98C202.35,-46.09 247.33,-32.07 279.14,-22.15"/>
<polygon fill="#63b8ff" stroke="#63b8ff" points="280.47,-25.4 288.97,-19.08 278.38,-18.72 280.47,-25.4"/>
</a>
</g>
</g>
</g>
</svg>
