<?xml version="1.0" encoding="UTF-8" standalone="no"?>
<!DOCTYPE svg PUBLIC "-//W3C//DTD SVG 1.1//EN"
 "http://www.w3.org/Graphics/SVG/1.1/DTD/svg11.dtd">
<!-- Generated by graphviz version 2.43.0 (0)
 -->
<!-- Title: src/TestGenerator/src/generatorHelper.cpp Pages: 1 -->
<svg width="1163pt" height="313pt"
 viewBox="0.00 0.00 1163.42 313.00" xmlns="http://www.w3.org/2000/svg" xmlns:xlink="http://www.w3.org/1999/xlink">
<g id="graph0" class="graph" transform="scale(1 1) rotate(0) translate(4 309)">
<title>src/TestGenerator/src/generatorHelper.cpp</title>
<!-- Node1 -->
<g id="Node000001" class="node">
<title>Node1</title>
<g id="a_Node000001"><a xlink:title=" ">
<polygon fill="#999999" stroke="#666666" points="548.92,-305 429.92,-305 429.92,-275 548.92,-275 548.92,-305"/>
<text text-anchor="start" x="437.92" y="-293" font-family="Helvetica,sans-Serif" font-size="10.00">src/TestGenerator/src</text>
<text text-anchor="middle" x="489.42" y="-282" font-family="Helvetica,sans-Serif" font-size="10.00">/generatorHelper.cpp</text>
</a>
</g>
</g>
<!-- Node2 -->
<g id="Node000002" class="node">
<title>Node2</title>
<g id="a_Node000002"><a xlink:href="generatorHelper_8h.html" target="_top" xlink:title=" ">
<polygon fill="white" stroke="#666666" points="461.42,-129 285.42,-129 285.42,-110 461.42,-110 461.42,-129"/>
<text text-anchor="middle" x="373.42" y="-117" font-family="Helvetica,sans-Serif" font-size="10.00">TestGenerator/generatorHelper.h</text>
</a>
</g>
</g>
<!-- Node1&#45;&gt;Node2 -->
<g id="edge1_Node000001_Node000002" class="edge">
<title>Node1&#45;&gt;Node2</title>
<g id="a_edge1_Node000001_Node000002"><a xlink:title=" ">
<path fill="none" stroke="#63b8ff" d="M479.73,-274.92C458.52,-244.12 408.08,-170.85 385.14,-137.53"/>
<polygon fill="#63b8ff" stroke="#63b8ff" points="388,-135.51 379.44,-129.25 382.23,-139.48 388,-135.51"/>
</a>
</g>
</g>
<!-- Node3 -->
<g id="Node000003" class="node">
<title>Node3</title>
<g id="a_Node000003"><a xlink:title=" ">
<polygon fill="#e0e0e0" stroke="#999999" points="713.92,-74 668.92,-74 668.92,-55 713.92,-55 713.92,-74"/>
<text text-anchor="middle" x="691.42" y="-62" font-family="Helvetica,sans-Serif" font-size="10.00">utility</text>
</a>
</g>
</g>
<!-- Node1&#45;&gt;Node3 -->
<g id="edge21_Node000001_Node000003" class="edge">
<title>Node1&#45;&gt;Node3</title>
<g id="a_edge21_Node000001_Node000003"><a xlink:title=" ">
<path fill="none" stroke="#63b8ff" d="M503.77,-274.75C513.65,-264.85 527,-251.28 538.42,-239 590.91,-182.54 650.7,-113.2 677.34,-82.04"/>
<polygon fill="#63b8ff" stroke="#63b8ff" points="680.11,-84.19 683.94,-74.31 674.78,-79.65 680.11,-84.19"/>
</a>
</g>
</g>
<!-- Node10 -->
<g id="Node000010" class="node">
<title>Node10</title>
<g id="a_Node000010"><a xlink:title=" ">
<polygon fill="#e0e0e0" stroke="#999999" points="650.92,-74 585.92,-74 585.92,-55 650.92,-55 650.92,-74"/>
<text text-anchor="middle" x="618.42" y="-62" font-family="Helvetica,sans-Serif" font-size="10.00">functional</text>
</a>
</g>
</g>
<!-- Node1&#45;&gt;Node10 -->
<g id="edge19_Node000001_Node000010" class="edge">
<title>Node1&#45;&gt;Node10</title>
<g id="a_edge19_Node000001_Node000010"><a xlink:title=" ">
<path fill="none" stroke="#63b8ff" d="M497.68,-274.68C520.38,-235.35 583.63,-125.77 608.34,-82.96"/>
<polygon fill="#63b8ff" stroke="#63b8ff" points="611.41,-84.64 613.38,-74.23 605.35,-81.14 611.41,-84.64"/>
</a>
</g>
</g>
<!-- Node14 -->
<g id="Node000014" class="node">
<title>Node14</title>
<g id="a_Node000014"><a xlink:title=" ">
<polygon fill="#e0e0e0" stroke="#999999" points="1147.42,-19 1087.42,-19 1087.42,0 1147.42,0 1147.42,-19"/>
<text text-anchor="middle" x="1117.42" y="-7" font-family="Helvetica,sans-Serif" font-size="10.00">iostream</text>
</a>
</g>
</g>
<!-- Node1&#45;&gt;Node14 -->
<g id="edge20_Node000001_Node000014" class="edge">
<title>Node1&#45;&gt;Node14</title>
<g id="a_edge20_Node000001_Node000014"><a xlink:title=" ">
<path fill="none" stroke="#63b8ff" d="M549.11,-285.08C712.58,-273.56 1155.42,-236.71 1155.42,-175.5 1155.42,-175.5 1155.42,-175.5 1155.42,-118.5 1155.42,-85.02 1138.97,-48.84 1127.71,-28.01"/>
<polygon fill="#63b8ff" stroke="#63b8ff" points="1130.65,-26.1 1122.7,-19.1 1124.55,-29.53 1130.65,-26.1"/>
</a>
</g>
</g>
<!-- Node15 -->
<g id="Node000015" class="node">
<title>Node15</title>
<g id="a_Node000015"><a xlink:href="types_8h.html" target="_top" xlink:title=" ">
<polygon fill="white" stroke="#666666" points="348.92,-74 259.92,-74 259.92,-55 348.92,-55 348.92,-74"/>
<text text-anchor="middle" x="304.42" y="-62" font-family="Helvetica,sans-Serif" font-size="10.00">Library/types.h</text>
</a>
</g>
</g>
<!-- Node1&#45;&gt;Node15 -->
<g id="edge44_Node000001_Node000015" class="edge">
<title>Node1&#45;&gt;Node15</title>
<g id="a_edge44_Node000001_Node000015"><a xlink:title=" ">
<path fill="none" stroke="#63b8ff" d="M451.76,-274.83C399.27,-252.76 306.17,-204.7 267.42,-129 258.86,-112.29 272.36,-93.81 285.39,-81.12"/>
<polygon fill="#63b8ff" stroke="#63b8ff" points="287.78,-83.68 292.84,-74.37 283.08,-78.49 287.78,-83.68"/>
</a>
</g>
</g>
<!-- Node16 -->
<g id="Node000016" class="node">
<title>Node16</title>
<g id="a_Node000016"><a xlink:href="database_8h.html" target="_top" xlink:title=" ">
<polygon fill="white" stroke="#666666" points="827.42,-239 707.42,-239 707.42,-220 827.42,-220 827.42,-239"/>
<text text-anchor="middle" x="767.42" y="-227" font-family="Helvetica,sans-Serif" font-size="10.00">Database/database.h</text>
</a>
</g>
</g>
<!-- Node1&#45;&gt;Node16 -->
<g id="edge22_Node000001_Node000016" class="edge">
<title>Node1&#45;&gt;Node16</title>
<g id="a_edge22_Node000001_Node000016"><a xlink:title=" ">
<path fill="none" stroke="#63b8ff" d="M549.06,-276.45C599,-265.94 669.49,-251.11 716.74,-241.16"/>
<polygon fill="#63b8ff" stroke="#63b8ff" points="717.69,-244.54 726.75,-239.06 716.25,-237.69 717.69,-244.54"/>
</a>
</g>
</g>
<!-- Node22 -->
<g id="Node000022" class="node">
<title>Node22</title>
<g id="a_Node000022"><a xlink:href="utils_8h_source.html" target="_top" xlink:title=" ">
<polygon fill="white" stroke="#666666" points="169.92,-129 86.92,-129 86.92,-110 169.92,-110 169.92,-129"/>
<text text-anchor="middle" x="128.42" y="-117" font-family="Helvetica,sans-Serif" font-size="10.00">Library/utils.h</text>
</a>
</g>
</g>
<!-- Node1&#45;&gt;Node22 -->
<g id="edge45_Node000001_Node000022" class="edge">
<title>Node1&#45;&gt;Node22</title>
<g id="a_edge45_Node000001_Node000022"><a xlink:title=" ">
<path fill="none" stroke="#63b8ff" d="M429.67,-284.09C357.52,-277.2 241.38,-262.79 205.42,-239 168.37,-214.49 145.21,-165.38 134.83,-138.72"/>
<polygon fill="#63b8ff" stroke="#63b8ff" points="138.02,-137.26 131.26,-129.1 131.45,-139.7 138.02,-137.26"/>
</a>
</g>
</g>
<!-- Node2&#45;&gt;Node3 -->
<g id="edge2_Node000002_Node000003" class="edge">
<title>Node2&#45;&gt;Node3</title>
<g id="a_edge2_Node000002_Node000003"><a xlink:title=" ">
<path fill="none" stroke="#63b8ff" d="M441.39,-109.98C497.18,-102.51 578.41,-90.57 658.5,-73.99"/>
<polygon fill="#63b8ff" stroke="#63b8ff" points="659.69,-77.31 668.76,-71.83 658.26,-70.46 659.69,-77.31"/>
</a>
</g>
</g>
<!-- Node4 -->
<g id="Node000004" class="node">
<title>Node4</title>
<g id="a_Node000004"><a xlink:title=" ">
<polygon fill="#e0e0e0" stroke="#999999" points="582.92,-19 535.92,-19 535.92,0 582.92,0 582.92,-19"/>
<text text-anchor="middle" x="559.42" y="-7" font-family="Helvetica,sans-Serif" font-size="10.00">vector</text>
</a>
</g>
</g>
<!-- Node2&#45;&gt;Node4 -->
<g id="edge3_Node000002_Node000004" class="edge">
<title>Node2&#45;&gt;Node4</title>
<g id="a_edge3_Node000002_Node000004"><a xlink:title=" ">
<path fill="none" stroke="#63b8ff" d="M374.84,-109.71C377.54,-95.98 384.68,-69.53 401.42,-55 436.42,-24.61 490.74,-14.87 525.69,-11.81"/>
<polygon fill="#63b8ff" stroke="#63b8ff" points="526.15,-15.29 535.87,-11.06 525.64,-8.31 526.15,-15.29"/>
</a>
</g>
</g>
<!-- Node5 -->
<g id="Node000005" class="node">
<title>Node5</title>
<g id="a_Node000005"><a xlink:title=" ">
<polygon fill="#e0e0e0" stroke="#999999" points="840.42,-19 796.42,-19 796.42,0 840.42,0 840.42,-19"/>
<text text-anchor="middle" x="818.42" y="-7" font-family="Helvetica,sans-Serif" font-size="10.00">string</text>
</a>
</g>
</g>
<!-- Node2&#45;&gt;Node5 -->
<g id="edge4_Node000002_Node000005" class="edge">
<title>Node2&#45;&gt;Node5</title>
<g id="a_edge4_Node000002_Node000005"><a xlink:title=" ">
<path fill="none" stroke="#63b8ff" d="M378.89,-109.69C388.29,-95.43 408.94,-67.63 434.42,-55 495.99,-24.46 704.81,-14.31 785.88,-11.46"/>
<polygon fill="#63b8ff" stroke="#63b8ff" points="786.12,-14.96 796,-11.12 785.88,-7.96 786.12,-14.96"/>
</a>
</g>
</g>
<!-- Node6 -->
<g id="Node000006" class="node">
<title>Node6</title>
<g id="a_Node000006"><a xlink:title=" ">
<polygon fill="#e0e0e0" stroke="#999999" points="491.42,-74 443.42,-74 443.42,-55 491.42,-55 491.42,-74"/>
<text text-anchor="middle" x="467.42" y="-62" font-family="Helvetica,sans-Serif" font-size="10.00">mutex</text>
</a>
</g>
</g>
<!-- Node2&#45;&gt;Node6 -->
<g id="edge5_Node000002_Node000006" class="edge">
<title>Node2&#45;&gt;Node6</title>
<g id="a_edge5_Node000002_Node000006"><a xlink:title=" ">
<path fill="none" stroke="#63b8ff" d="M388.52,-109.98C403.23,-101.69 425.84,-88.94 443.09,-79.22"/>
<polygon fill="#63b8ff" stroke="#63b8ff" points="445.05,-82.13 452.04,-74.17 441.61,-76.03 445.05,-82.13"/>
</a>
</g>
</g>
<!-- Node7 -->
<g id="Node000007" class="node">
<title>Node7</title>
<g id="a_Node000007"><a xlink:title=" ">
<polygon fill="#e0e0e0" stroke="#999999" points="567.42,-74 509.42,-74 509.42,-55 567.42,-55 567.42,-74"/>
<text text-anchor="middle" x="538.42" y="-62" font-family="Helvetica,sans-Serif" font-size="10.00">memory</text>
</a>
</g>
</g>
<!-- Node2&#45;&gt;Node7 -->
<g id="edge6_Node000002_Node000007" class="edge">
<title>Node2&#45;&gt;Node7</title>
<g id="a_edge6_Node000002_Node000007"><a xlink:title=" ">
<path fill="none" stroke="#63b8ff" d="M399.93,-109.98C427.63,-101.09 471.28,-87.07 502.16,-77.15"/>
<polygon fill="#63b8ff" stroke="#63b8ff" points="503.25,-80.47 511.7,-74.08 501.11,-73.81 503.25,-80.47"/>
</a>
</g>
</g>
<!-- Node8 -->
<g id="Node000008" class="node">
<title>Node8</title>
<g id="a_Node000008"><a xlink:title=" ">
<polygon fill="#e0e0e0" stroke="#999999" points="203.42,-74 149.42,-74 149.42,-55 203.42,-55 203.42,-74"/>
<text text-anchor="middle" x="176.42" y="-62" font-family="Helvetica,sans-Serif" font-size="10.00">random</text>
</a>
</g>
</g>
<!-- Node2&#45;&gt;Node8 -->
<g id="edge7_Node000002_Node000008" class="edge">
<title>Node2&#45;&gt;Node8</title>
<g id="a_edge7_Node000002_Node000008"><a xlink:title=" ">
<path fill="none" stroke="#63b8ff" d="M341.77,-109.98C306.77,-100.57 250.46,-85.42 213.45,-75.46"/>
<polygon fill="#63b8ff" stroke="#63b8ff" points="214.12,-72.02 203.55,-72.8 212.3,-78.78 214.12,-72.02"/>
</a>
</g>
</g>
<!-- Node9 -->
<g id="Node000009" class="node">
<title>Node9</title>
<g id="a_Node000009"><a xlink:title=" ">
<polygon fill="#e0e0e0" stroke="#999999" points="277.92,-19 184.92,-19 184.92,0 277.92,0 277.92,-19"/>
<text text-anchor="middle" x="231.42" y="-7" font-family="Helvetica,sans-Serif" font-size="10.00">unordered_map</text>
</a>
</g>
</g>
<!-- Node2&#45;&gt;Node9 -->
<g id="edge8_Node000002_Node000009" class="edge">
<title>Node2&#45;&gt;Node9</title>
<g id="a_edge8_Node000002_Node000009"><a xlink:title=" ">
<path fill="none" stroke="#63b8ff" d="M318.28,-109.98C294.54,-103.7 268.2,-92.81 250.42,-74 238.94,-61.86 234.37,-43.06 232.56,-29.07"/>
<polygon fill="#63b8ff" stroke="#63b8ff" points="236.05,-28.72 231.63,-19.09 229.08,-29.37 236.05,-28.72"/>
</a>
</g>
</g>
<!-- Node2&#45;&gt;Node10 -->
<g id="edge9_Node000002_Node000010" class="edge">
<title>Node2&#45;&gt;Node10</title>
<g id="a_edge9_Node000002_Node000010"><a xlink:title=" ">
<path fill="none" stroke="#63b8ff" d="M412.78,-109.98C457.42,-100.33 529.96,-84.64 575.88,-74.7"/>
<polygon fill="#63b8ff" stroke="#63b8ff" points="576.78,-78.09 585.81,-72.55 575.3,-71.25 576.78,-78.09"/>
</a>
</g>
</g>
<!-- Node11 -->
<g id="Node000011" class="node">
<title>Node11</title>
<g id="a_Node000011"><a xlink:title=" ">
<polygon fill="#e0e0e0" stroke="#999999" points="65.42,-74 15.42,-74 15.42,-55 65.42,-55 65.42,-74"/>
<text text-anchor="middle" x="40.42" y="-62" font-family="Helvetica,sans-Serif" font-size="10.00">chrono</text>
</a>
</g>
</g>
<!-- Node2&#45;&gt;Node11 -->
<g id="edge10_Node000002_Node000011" class="edge">
<title>Node2&#45;&gt;Node11</title>
<g id="a_edge10_Node000002_Node000011"><a xlink:title=" ">
<path fill="none" stroke="#63b8ff" d="M303,-109.99C244.52,-102.46 158.96,-90.42 75.51,-74.05"/>
<polygon fill="#63b8ff" stroke="#63b8ff" points="76.1,-70.6 65.61,-72.09 74.73,-77.47 76.1,-70.6"/>
</a>
</g>
</g>
<!-- Node12 -->
<g id="Node000012" class="node">
<title>Node12</title>
<g id="a_Node000012"><a xlink:title=" ">
<polygon fill="#e0e0e0" stroke="#999999" points="130.92,-74 83.92,-74 83.92,-55 130.92,-55 130.92,-74"/>
<text text-anchor="middle" x="107.42" y="-62" font-family="Helvetica,sans-Serif" font-size="10.00">cmath</text>
</a>
</g>
</g>
<!-- Node2&#45;&gt;Node12 -->
<g id="edge11_Node000002_Node000012" class="edge">
<title>Node2&#45;&gt;Node12</title>
<g id="a_edge11_Node000002_Node000012"><a xlink:title=" ">
<path fill="none" stroke="#63b8ff" d="M323.69,-109.94C278.6,-101.98 210.1,-89.34 141.32,-74.08"/>
<polygon fill="#63b8ff" stroke="#63b8ff" points="141.69,-70.58 131.17,-71.81 140.16,-77.41 141.69,-70.58"/>
</a>
</g>
</g>
<!-- Node13 -->
<g id="Node000013" class="node">
<title>Node13</title>
<g id="a_Node000013"><a xlink:href="error_8h.html" target="_top" xlink:title=" ">
<polygon fill="white" stroke="#666666" points="990.92,-74 905.92,-74 905.92,-55 990.92,-55 990.92,-74"/>
<text text-anchor="middle" x="948.42" y="-62" font-family="Helvetica,sans-Serif" font-size="10.00">Library/error.h</text>
</a>
</g>
</g>
<!-- Node2&#45;&gt;Node13 -->
<g id="edge12_Node000002_Node000013" class="edge">
<title>Node2&#45;&gt;Node13</title>
<g id="a_edge12_Node000002_Node000013"><a xlink:title=" ">
<path fill="none" stroke="#63b8ff" d="M461.72,-113.18C563.92,-106.52 737.48,-93.71 895.95,-74.09"/>
<polygon fill="#63b8ff" stroke="#63b8ff" points="896.39,-77.57 905.88,-72.85 895.52,-70.62 896.39,-77.57"/>
</a>
</g>
</g>
<!-- Node2&#45;&gt;Node15 -->
<g id="edge15_Node000002_Node000015" class="edge">
<title>Node2&#45;&gt;Node15</title>
<g id="a_edge15_Node000002_Node000015"><a xlink:title=" ">
<path fill="none" stroke="#63b8ff" d="M362.33,-109.98C351.93,-102 336.16,-89.88 323.7,-80.31"/>
<polygon fill="#63b8ff" stroke="#63b8ff" points="325.77,-77.49 315.71,-74.17 321.5,-83.04 325.77,-77.49"/>
</a>
</g>
</g>
<!-- Node13&#45;&gt;Node5 -->
<g id="edge13_Node000013_Node000005" class="edge">
<title>Node13&#45;&gt;Node5</title>
<g id="a_edge13_Node000013_Node000005"><a xlink:title=" ">
<path fill="none" stroke="#63b8ff" d="M927.53,-54.98C906.34,-46.34 873.29,-32.87 849.12,-23.02"/>
<polygon fill="#63b8ff" stroke="#63b8ff" points="850.27,-19.7 839.68,-19.17 847.62,-26.19 850.27,-19.7"/>
</a>
</g>
</g>
<!-- Node13&#45;&gt;Node14 -->
<g id="edge14_Node000013_Node000014" class="edge">
<title>Node13&#45;&gt;Node14</title>
<g id="a_edge14_Node000013_Node000014"><a xlink:title=" ">
<path fill="none" stroke="#63b8ff" d="M975.57,-54.98C1003.94,-46.09 1048.65,-32.07 1080.28,-22.15"/>
<polygon fill="#63b8ff" stroke="#63b8ff" points="1081.56,-25.41 1090.05,-19.08 1079.46,-18.73 1081.56,-25.41"/>
</a>
</g>
</g>
<!-- Node15&#45;&gt;Node4 -->
<g id="edge16_Node000015_Node000004" class="edge">
<title>Node15&#45;&gt;Node4</title>
<g id="a_edge16_Node000015_Node000004"><a xlink:title=" ">
<path fill="none" stroke="#63b8ff" d="M345.39,-54.98C395.52,-44.57 479.44,-27.12 525.9,-17.47"/>
<polygon fill="#63b8ff" stroke="#63b8ff" points="526.69,-20.88 535.77,-15.41 525.27,-14.02 526.69,-20.88"/>
</a>
</g>
</g>
<!-- Node15&#45;&gt;Node5 -->
<g id="edge18_Node000015_Node000005" class="edge">
<title>Node15&#45;&gt;Node5</title>
<g id="a_edge18_Node000015_Node000005"><a xlink:title=" ">
<path fill="none" stroke="#63b8ff" d="M349.13,-58.89C450.88,-48.4 697.71,-22.95 786.19,-13.82"/>
<polygon fill="#63b8ff" stroke="#63b8ff" points="786.58,-17.3 796.17,-12.79 785.87,-10.34 786.58,-17.3"/>
</a>
</g>
</g>
<!-- Node15&#45;&gt;Node9 -->
<g id="edge17_Node000015_Node000009" class="edge">
<title>Node15&#45;&gt;Node9</title>
<g id="a_edge17_Node000015_Node000009"><a xlink:title=" ">
<path fill="none" stroke="#63b8ff" d="M292.69,-54.98C281.69,-47 265,-34.88 251.81,-25.31"/>
<polygon fill="#63b8ff" stroke="#63b8ff" points="253.51,-22.21 243.36,-19.17 249.4,-27.88 253.51,-22.21"/>
</a>
</g>
</g>
<!-- Node16&#45;&gt;Node7 -->
<g id="edge23_Node000016_Node000007" class="edge">
<title>Node16&#45;&gt;Node7</title>
<g id="a_edge23_Node000016_Node000007"><a xlink:title=" ">
<path fill="none" stroke="#63b8ff" d="M753.72,-219.85C739.89,-211.04 717.96,-196.88 699.42,-184 647.49,-147.94 587.95,-103.2 557.92,-80.39"/>
<polygon fill="#63b8ff" stroke="#63b8ff" points="559.66,-77.32 549.58,-74.05 555.42,-82.89 559.66,-77.32"/>
</a>
</g>
</g>
<!-- Node17 -->
<g id="Node000017" class="node">
<title>Node17</title>
<g id="a_Node000017"><a xlink:href="transaction_8h_source.html" target="_top" xlink:title=" ">
<polygon fill="white" stroke="#666666" points="846.92,-184 707.92,-184 707.92,-165 846.92,-165 846.92,-184"/>
<text text-anchor="middle" x="777.42" y="-172" font-family="Helvetica,sans-Serif" font-size="10.00">Transaction/transaction.h</text>
</a>
</g>
</g>
<!-- Node16&#45;&gt;Node17 -->
<g id="edge24_Node000016_Node000017" class="edge">
<title>Node16&#45;&gt;Node17</title>
<g id="a_edge24_Node000016_Node000017"><a xlink:title=" ">
<path fill="none" stroke="#63b8ff" d="M769.07,-219.75C770.38,-212.8 772.26,-202.85 773.9,-194.13"/>
<polygon fill="#63b8ff" stroke="#63b8ff" points="777.38,-194.56 775.8,-184.09 770.5,-193.27 777.38,-194.56"/>
</a>
</g>
</g>
<!-- Node17&#45;&gt;Node3 -->
<g id="edge27_Node000017_Node000003" class="edge">
<title>Node17&#45;&gt;Node3</title>
<g id="a_edge27_Node000017_Node000003"><a xlink:title=" ">
<path fill="none" stroke="#63b8ff" d="M770.48,-165C763.21,-156.06 751.46,-141.58 741.42,-129 728.76,-113.14 714.44,-94.93 704.39,-82.09"/>
<polygon fill="#63b8ff" stroke="#63b8ff" points="707.09,-79.87 698.17,-74.16 701.58,-84.19 707.09,-79.87"/>
</a>
</g>
</g>
<!-- Node17&#45;&gt;Node4 -->
<g id="edge28_Node000017_Node000004" class="edge">
<title>Node17&#45;&gt;Node4</title>
<g id="a_edge28_Node000017_Node000004"><a xlink:title=" ">
<path fill="none" stroke="#63b8ff" d="M776.05,-164.84C772.12,-142.94 758.74,-85 723.42,-55 686.37,-23.54 629.09,-14.14 592.96,-11.44"/>
<polygon fill="#63b8ff" stroke="#63b8ff" points="593.11,-7.94 582.92,-10.82 592.68,-14.93 593.11,-7.94"/>
</a>
</g>
</g>
<!-- Node17&#45;&gt;Node5 -->
<g id="edge26_Node000017_Node000005" class="edge">
<title>Node17&#45;&gt;Node5</title>
<g id="a_edge26_Node000017_Node000005"><a xlink:title=" ">
<path fill="none" stroke="#63b8ff" d="M830.93,-164.93C868.58,-157.88 919.67,-146.21 962.42,-129 1007.32,-110.92 1032.34,-115.99 1056.42,-74 1060.62,-66.67 1061.81,-61.5 1056.42,-55 1030.63,-23.95 909.59,-14.44 850.73,-11.63"/>
<polygon fill="#63b8ff" stroke="#63b8ff" points="850.64,-8.12 840.5,-11.18 850.33,-15.12 850.64,-8.12"/>
</a>
</g>
</g>
<!-- Node17&#45;&gt;Node6 -->
<g id="edge30_Node000017_Node000006" class="edge">
<title>Node17&#45;&gt;Node6</title>
<g id="a_edge30_Node000017_Node000006"><a xlink:title=" ">
<path fill="none" stroke="#63b8ff" d="M750.02,-164.94C722.29,-156.19 678.23,-142.08 640.42,-129 591.02,-111.92 534.21,-90.78 499.57,-77.71"/>
<polygon fill="#63b8ff" stroke="#63b8ff" points="500.58,-74.35 489.99,-74.09 498.11,-80.9 500.58,-74.35"/>
</a>
</g>
</g>
<!-- Node17&#45;&gt;Node7 -->
<g id="edge29_Node000017_Node000007" class="edge">
<title>Node17&#45;&gt;Node7</title>
<g id="a_edge29_Node000017_Node000007"><a xlink:title=" ">
<path fill="none" stroke="#63b8ff" d="M758.26,-164.84C716.21,-145.84 615.62,-100.39 566.45,-78.17"/>
<polygon fill="#63b8ff" stroke="#63b8ff" points="567.89,-74.98 557.33,-74.05 565,-81.35 567.89,-74.98"/>
</a>
</g>
</g>
<!-- Node17&#45;&gt;Node10 -->
<g id="edge33_Node000017_Node000010" class="edge">
<title>Node17&#45;&gt;Node10</title>
<g id="a_edge33_Node000017_Node000010"><a xlink:title=" ">
<path fill="none" stroke="#63b8ff" d="M764.67,-164.84C737.46,-146.36 673.42,-102.86 639.83,-80.05"/>
<polygon fill="#63b8ff" stroke="#63b8ff" points="641.46,-76.92 631.22,-74.2 637.53,-82.71 641.46,-76.92"/>
</a>
</g>
</g>
<!-- Node17&#45;&gt;Node13 -->
<g id="edge35_Node000017_Node000013" class="edge">
<title>Node17&#45;&gt;Node13</title>
<g id="a_edge35_Node000017_Node000013"><a xlink:title=" ">
<path fill="none" stroke="#63b8ff" d="M829.56,-164.99C855.98,-158.59 887.27,-147.61 910.42,-129 925.1,-117.2 935.43,-98.08 941.57,-83.9"/>
<polygon fill="#63b8ff" stroke="#63b8ff" points="944.98,-84.81 945.46,-74.23 938.49,-82.2 944.98,-84.81"/>
</a>
</g>
</g>
<!-- Node17&#45;&gt;Node14 -->
<g id="edge25_Node000017_Node000014" class="edge">
<title>Node17&#45;&gt;Node14</title>
<g id="a_edge25_Node000017_Node000014"><a xlink:title=" ">
<path fill="none" stroke="#63b8ff" d="M847.25,-173.2C930.82,-171.3 1063.84,-162.85 1098.42,-129 1125,-102.97 1123.74,-55.6 1120.55,-29.32"/>
<polygon fill="#63b8ff" stroke="#63b8ff" points="1123.98,-28.58 1119.09,-19.18 1117.05,-29.57 1123.98,-28.58"/>
</a>
</g>
</g>
<!-- Node17&#45;&gt;Node15 -->
<g id="edge34_Node000017_Node000015" class="edge">
<title>Node17&#45;&gt;Node15</title>
<g id="a_edge34_Node000017_Node000015"><a xlink:title=" ">
<path fill="none" stroke="#63b8ff" d="M707.77,-172.42C576.93,-169.65 304.95,-160.18 276.42,-129 264.04,-115.48 276.27,-95.6 288.22,-81.7"/>
<polygon fill="#63b8ff" stroke="#63b8ff" points="290.84,-84.02 295.04,-74.3 285.69,-79.28 290.84,-84.02"/>
</a>
</g>
</g>
<!-- Node18 -->
<g id="Node000018" class="node">
<title>Node18</title>
<g id="a_Node000018"><a xlink:title=" ">
<polygon fill="#e0e0e0" stroke="#999999" points="1047.42,-74 1009.42,-74 1009.42,-55 1047.42,-55 1047.42,-74"/>
<text text-anchor="middle" x="1028.42" y="-62" font-family="Helvetica,sans-Serif" font-size="10.00">map</text>
</a>
</g>
</g>
<!-- Node17&#45;&gt;Node18 -->
<g id="edge31_Node000017_Node000018" class="edge">
<title>Node17&#45;&gt;Node18</title>
<g id="a_edge31_Node000017_Node000018"><a xlink:title=" ">
<path fill="none" stroke="#63b8ff" d="M820.11,-164.94C851.96,-157.68 896.06,-145.76 932.42,-129 961.24,-115.71 991.26,-94.47 1009.89,-80.25"/>
<polygon fill="#63b8ff" stroke="#63b8ff" points="1012.08,-82.99 1017.83,-74.09 1007.78,-77.45 1012.08,-82.99"/>
</a>
</g>
</g>
<!-- Node19 -->
<g id="Node000019" class="node">
<title>Node19</title>
<g id="a_Node000019"><a xlink:title=" ">
<polygon fill="#e0e0e0" stroke="#999999" points="1089.42,-129 1033.42,-129 1033.42,-110 1089.42,-110 1089.42,-129"/>
<text text-anchor="middle" x="1061.42" y="-117" font-family="Helvetica,sans-Serif" font-size="10.00">optional</text>
</a>
</g>
</g>
<!-- Node17&#45;&gt;Node19 -->
<g id="edge32_Node000017_Node000019" class="edge">
<title>Node17&#45;&gt;Node19</title>
<g id="a_edge32_Node000017_Node000019"><a xlink:title=" ">
<path fill="none" stroke="#63b8ff" d="M825.22,-164.97C874.07,-156.19 952.1,-142 1019.42,-129 1020.69,-128.75 1021.99,-128.5 1023.29,-128.25"/>
<polygon fill="#63b8ff" stroke="#63b8ff" points="1024.29,-131.62 1033.42,-126.24 1022.93,-124.75 1024.29,-131.62"/>
</a>
</g>
</g>
<!-- Node20 -->
<g id="Node000020" class="node">
<title>Node20</title>
<g id="a_Node000020"><a xlink:href="evaluate_8h.html" target="_top" xlink:title=" ">
<polygon fill="white" stroke="#666666" points="901.42,-129 783.42,-129 783.42,-110 901.42,-110 901.42,-129"/>
<text text-anchor="middle" x="842.42" y="-117" font-family="Helvetica,sans-Serif" font-size="10.00">Evaluator/evaluate.h</text>
</a>
</g>
</g>
<!-- Node17&#45;&gt;Node20 -->
<g id="edge36_Node000017_Node000020" class="edge">
<title>Node17&#45;&gt;Node20</title>
<g id="a_edge36_Node000017_Node000020"><a xlink:title=" ">
<path fill="none" stroke="#63b8ff" d="M787.86,-164.98C797.56,-157.07 812.23,-145.11 823.92,-135.58"/>
<polygon fill="#63b8ff" stroke="#63b8ff" points="826.25,-138.2 831.78,-129.17 821.82,-132.78 826.25,-138.2"/>
</a>
</g>
</g>
<!-- Node20&#45;&gt;Node3 -->
<g id="edge37_Node000020_Node000003" class="edge">
<title>Node20&#45;&gt;Node3</title>
<g id="a_edge37_Node000020_Node000003"><a xlink:title=" ">
<path fill="none" stroke="#63b8ff" d="M818.16,-109.98C792.5,-100.98 751.91,-86.73 723.59,-76.79"/>
<polygon fill="#63b8ff" stroke="#63b8ff" points="724.73,-73.48 714.14,-73.47 722.41,-80.09 724.73,-73.48"/>
</a>
</g>
</g>
<!-- Node20&#45;&gt;Node4 -->
<g id="edge38_Node000020_Node000004" class="edge">
<title>Node20&#45;&gt;Node4</title>
<g id="a_edge38_Node000020_Node000004"><a xlink:title=" ">
<path fill="none" stroke="#63b8ff" d="M833.2,-109.63C818.31,-95.8 787.47,-69.21 756.42,-55 702.42,-30.29 633.64,-18.8 593.28,-13.85"/>
<polygon fill="#63b8ff" stroke="#63b8ff" points="593.51,-10.35 583.17,-12.68 592.7,-17.31 593.51,-10.35"/>
</a>
</g>
</g>
<!-- Node20&#45;&gt;Node5 -->
<g id="edge39_Node000020_Node000005" class="edge">
<title>Node20&#45;&gt;Node5</title>
<g id="a_edge39_Node000020_Node000005"><a xlink:title=" ">
<path fill="none" stroke="#63b8ff" d="M840.45,-109.66C836.55,-92.09 827.74,-52.45 822.52,-28.95"/>
<polygon fill="#63b8ff" stroke="#63b8ff" points="825.93,-28.16 820.34,-19.16 819.09,-29.68 825.93,-28.16"/>
</a>
</g>
</g>
<!-- Node20&#45;&gt;Node10 -->
<g id="edge40_Node000020_Node000010" class="edge">
<title>Node20&#45;&gt;Node10</title>
<g id="a_edge40_Node000020_Node000010"><a xlink:title=" ">
<path fill="none" stroke="#63b8ff" d="M806.43,-109.98C766.78,-100.6 703.08,-85.53 660.99,-75.57"/>
<polygon fill="#63b8ff" stroke="#63b8ff" points="661.58,-72.12 651.04,-73.22 659.96,-78.93 661.58,-72.12"/>
</a>
</g>
</g>
<!-- Node20&#45;&gt;Node15 -->
<g id="edge43_Node000020_Node000015" class="edge">
<title>Node20&#45;&gt;Node15</title>
<g id="a_edge43_Node000020_Node000015"><a xlink:title=" ">
<path fill="none" stroke="#63b8ff" d="M783.3,-112.68C678.4,-102.34 461.18,-80.94 359.35,-70.91"/>
<polygon fill="#63b8ff" stroke="#63b8ff" points="359.57,-67.42 349.28,-69.92 358.88,-74.38 359.57,-67.42"/>
</a>
</g>
</g>
<!-- Node20&#45;&gt;Node18 -->
<g id="edge42_Node000020_Node000018" class="edge">
<title>Node20&#45;&gt;Node18</title>
<g id="a_edge42_Node000020_Node000018"><a xlink:title=" ">
<path fill="none" stroke="#63b8ff" d="M873.35,-109.99C903.25,-101.71 950.06,-88.65 999.28,-74.29"/>
<polygon fill="#63b8ff" stroke="#63b8ff" points="1000.54,-77.57 1009.15,-71.4 998.57,-70.85 1000.54,-77.57"/>
</a>
</g>
</g>
<!-- Node21 -->
<g id="Node000021" class="node">
<title>Node21</title>
<g id="a_Node000021"><a xlink:title=" ">
<polygon fill="#e0e0e0" stroke="#999999" points="887.92,-74 846.92,-74 846.92,-55 887.92,-55 887.92,-74"/>
<text text-anchor="middle" x="867.42" y="-62" font-family="Helvetica,sans-Serif" font-size="10.00">tuple</text>
</a>
</g>
</g>
<!-- Node20&#45;&gt;Node21 -->
<g id="edge41_Node000020_Node000021" class="edge">
<title>Node20&#45;&gt;Node21</title>
<g id="a_edge41_Node000020_Node000021"><a xlink:title=" ">
<path fill="none" stroke="#63b8ff" d="M846.55,-109.75C849.93,-102.57 854.83,-92.18 859.04,-83.27"/>
<polygon fill="#63b8ff" stroke="#63b8ff" points="862.27,-84.63 863.37,-74.09 855.93,-81.64 862.27,-84.63"/>
</a>
</g>
</g>
<!-- Node22&#45;&gt;Node8 -->
<g id="edge47_Node000022_Node000008" class="edge">
<title>Node22&#45;&gt;Node8</title>
<g id="a_edge47_Node000022_Node000008"><a xlink:title=" ">
<path fill="none" stroke="#63b8ff" d="M136.34,-109.75C143.26,-102.11 153.48,-90.82 161.87,-81.56"/>
<polygon fill="#63b8ff" stroke="#63b8ff" points="164.52,-83.85 168.64,-74.09 159.33,-79.15 164.52,-83.85"/>
</a>
</g>
</g>
<!-- Node22&#45;&gt;Node9 -->
<g id="edge49_Node000022_Node000009" class="edge">
<title>Node22&#45;&gt;Node9</title>
<g id="a_edge49_Node000022_Node000009"><a xlink:title=" ">
<path fill="none" stroke="#63b8ff" d="M86.85,-112.29C42.17,-103.87 -19.2,-86.18 6.42,-55 27.33,-29.55 115.17,-18.41 174.71,-13.71"/>
<polygon fill="#63b8ff" stroke="#63b8ff" points="175.03,-17.2 184.74,-12.96 174.5,-10.22 175.03,-17.2"/>
</a>
</g>
</g>
<!-- Node22&#45;&gt;Node11 -->
<g id="edge46_Node000022_Node000011" class="edge">
<title>Node22&#45;&gt;Node11</title>
<g id="a_edge46_Node000022_Node000011"><a xlink:title=" ">
<path fill="none" stroke="#63b8ff" d="M114.28,-109.98C100.63,-101.77 79.73,-89.18 63.64,-79.49"/>
<polygon fill="#63b8ff" stroke="#63b8ff" points="65.19,-76.33 54.81,-74.17 61.57,-82.33 65.19,-76.33"/>
</a>
</g>
</g>
<!-- Node22&#45;&gt;Node12 -->
<g id="edge48_Node000022_Node000012" class="edge">
<title>Node22&#45;&gt;Node12</title>
<g id="a_edge48_Node000022_Node000012"><a xlink:title=" ">
<path fill="none" stroke="#63b8ff" d="M124.95,-109.75C122.14,-102.65 118.08,-92.4 114.57,-83.56"/>
<polygon fill="#63b8ff" stroke="#63b8ff" points="117.76,-82.1 110.82,-74.09 111.25,-84.68 117.76,-82.1"/>
</a>
</g>
</g>
<!-- Node22&#45;&gt;Node15 -->
<g id="edge50_Node000022_Node000015" class="edge">
<title>Node22&#45;&gt;Node15</title>
<g id="a_edge50_Node000022_Node000015"><a xlink:title=" ">
<path fill="none" stroke="#63b8ff" d="M156.69,-109.98C186.37,-101.05 233.2,-86.94 266.17,-77.02"/>
<polygon fill="#63b8ff" stroke="#63b8ff" points="267.35,-80.32 275.92,-74.08 265.33,-73.61 267.35,-80.32"/>
</a>
</g>
</g>
</g>
</svg>
