<?xml version="1.0" encoding="UTF-8" standalone="no"?>
<!DOCTYPE svg PUBLIC "-//W3C//DTD SVG 1.1//EN"
 "http://www.w3.org/Graphics/SVG/1.1/DTD/svg11.dtd">
<!-- Generated by graphviz version 2.43.0 (0)
 -->
<!-- Title: src/TestGenerator/src/generatorHelper.cpp Pages: 1 -->
<!--zoomable 313 -->

<svg id="main" version="1.1" xmlns="http://www.w3.org/2000/svg" xmlns:xlink="http://www.w3.org/1999/xlink" xml:space="preserve" onload="init(evt)">
<style type="text/css"><![CDATA[
.node, .edge {opacity: 0.7;}
.node.selected, .edge.selected {opacity: 1;}
.edge:hover path { stroke: red; }
.edge:hover polygon { stroke: red; fill: red; }
]]></style>

<defs>
  <circle id="rim" cx="0" cy="0" r="7"/>
  <circle id="rim2" cx="0" cy="0" r="3.5"/>
  <g id="zoomPlus">
    <use xlink:href="#rim" fill="#404040"><set attributeName="fill" to="#808080" begin="zoomplus.mouseover" end="zoomplus.mouseout"/></use>
    <path d="M-4,0h8M0,-4v8" fill="none" stroke="white" stroke-width="1.5" pointer-events="none"/>
  </g>
  <g id="zoomMin">
    <use xlink:href="#rim" fill="#404040"><set attributeName="fill" to="#808080" begin="zoomminus.mouseover" end="zoomminus.mouseout"/></use>
    <path d="M-4,0h8" fill="none" stroke="white" stroke-width="1.5" pointer-events="none"/>
  </g>
  <g id="arrowUp" transform="translate(30 24)">
    <use xlink:href="#rim"/>
    <path pointer-events="none" fill="none" stroke="white" stroke-width="1.5" d="M0,-3.0v7 M-2.5,-0.5L0,-3.0L2.5,-0.5"/>
  </g>
  <g id="arrowRight" transform="rotate(90) translate(36 -43)">
    <use xlink:href="#rim"/>
    <path pointer-events="none" fill="none" stroke="white" stroke-width="1.5" d="M0,-3.0v7 M-2.5,-0.5L0,-3.0L2.5,-0.5"/>
  </g>
  <g id="arrowDown" transform="rotate(180) translate(-30 -48)">
    <use xlink:href="#rim"/>
    <path pointer-events="none" fill="none" stroke="white" stroke-width="1.5" d="M0,-3.0v7 M-2.5,-0.5L0,-3.0L2.5,-0.5"/>
  </g>
  <g id="arrowLeft" transform="rotate(270) translate(-36 17)">
    <use xlink:href="#rim"/>
    <path pointer-events="none" fill="none" stroke="white" stroke-width="1.5" d="M0,-3.0v7 M-2.5,-0.5L0,-3.0L2.5,-0.5"/>
  </g>
  <g id="resetDef">
    <use xlink:href="#rim2" fill="#404040"><set attributeName="fill" to="#808080" begin="reset.mouseover" end="reset.mouseout"/></use>
  </g>
</defs>
<script type="application/ecmascript">
var viewWidth = 1313;
var viewHeight = 313;
var sectionId = 'dynsection-0';
</script>
<script type="application/ecmascript" xlink:href="svg.min.js"/>
<svg id="graph" class="graph">
<g id="viewport">
<title>src/TestGenerator/src/generatorHelper.cpp</title>
<!-- Node1 -->
<g id="Node000001" class="node">
<title>Node1</title>
<g id="a_Node000001"><a xlink:title=" ">
<polygon fill="#999999" stroke="#666666" points="617.75,-305 498.75,-305 498.75,-275 617.75,-275 617.75,-305"/>
<text text-anchor="start" x="506.75" y="-293" font-family="Helvetica,sans-Serif" font-size="10.00">src/TestGenerator/src</text>
<text text-anchor="middle" x="558.25" y="-282" font-family="Helvetica,sans-Serif" font-size="10.00">/generatorHelper.cpp</text>
</a>
</g>
</g>
<!-- Node2 -->
<g id="Node000002" class="node">
<title>Node2</title>
<g id="a_Node000002"><a xlink:href="generatorHelper_8h.html" target="_top" xlink:title=" ">
<polygon fill="white" stroke="#666666" points="984.25,-184 808.25,-184 808.25,-165 984.25,-165 984.25,-184"/>
<text text-anchor="middle" x="896.25" y="-172" font-family="Helvetica,sans-Serif" font-size="10.00">TestGenerator/generatorHelper.h</text>
</a>
</g>
</g>
<!-- Node1&#45;&gt;Node2 -->
<g id="edge1_Node000001_Node000002" class="edge">
<title>Node1&#45;&gt;Node2</title>
<g id="a_edge1_Node000001_Node000002"><a xlink:title=" ">
<path fill="none" stroke="#63b8ff" d="M600.04,-274.97C667.13,-252.44 797.71,-208.59 860.65,-187.46"/>
<polygon fill="#63b8ff" stroke="#63b8ff" points="862.14,-190.65 870.51,-184.14 859.91,-184.01 862.14,-190.65"/>
</a>
</g>
</g>
<!-- Node3 -->
<g id="Node000003" class="node">
<title>Node3</title>
<g id="a_Node000003"><a xlink:title=" ">
<polygon fill="#e0e0e0" stroke="#999999" points="70.75,-74 25.75,-74 25.75,-55 70.75,-55 70.75,-74"/>
<text text-anchor="middle" x="48.25" y="-62" font-family="Helvetica,sans-Serif" font-size="10.00">utility</text>
</a>
</g>
</g>
<!-- Node1&#45;&gt;Node3 -->
<g id="edge20_Node000001_Node000003" class="edge">
<title>Node1&#45;&gt;Node3</title>
<g id="a_edge20_Node000001_Node000003"><a xlink:title=" ">
<path fill="none" stroke="#63b8ff" d="M498.36,-280.57C369.2,-261.02 71.44,-208.15 13.25,-129 2.03,-113.74 16.09,-94.48 29.59,-81.2"/>
<polygon fill="#63b8ff" stroke="#63b8ff" points="32.28,-83.48 37.28,-74.14 27.55,-78.32 32.28,-83.48"/>
</a>
</g>
</g>
<!-- Node9 -->
<g id="Node000009" class="node">
<title>Node9</title>
<g id="a_Node000009"><a xlink:title=" ">
<polygon fill="#e0e0e0" stroke="#999999" points="382.75,-74 317.75,-74 317.75,-55 382.75,-55 382.75,-74"/>
<text text-anchor="middle" x="350.25" y="-62" font-family="Helvetica,sans-Serif" font-size="10.00">functional</text>
</a>
</g>
</g>
<!-- Node1&#45;&gt;Node9 -->
<g id="edge18_Node000001_Node000009" class="edge">
<title>Node1&#45;&gt;Node9</title>
<g id="a_edge18_Node000001_Node000009"><a xlink:title=" ">
<path fill="none" stroke="#63b8ff" d="M498.73,-281.02C444.51,-270 369.09,-244.11 343.25,-184 329.07,-151 337.44,-108 344.23,-83.92"/>
<polygon fill="#63b8ff" stroke="#63b8ff" points="347.6,-84.87 347.16,-74.29 340.9,-82.84 347.6,-84.87"/>
</a>
</g>
</g>
<!-- Node13 -->
<g id="Node000013" class="node">
<title>Node13</title>
<g id="a_Node000013"><a xlink:title=" ">
<polygon fill="#e0e0e0" stroke="#999999" points="585.25,-74 525.25,-74 525.25,-55 585.25,-55 585.25,-74"/>
<text text-anchor="middle" x="555.25" y="-62" font-family="Helvetica,sans-Serif" font-size="10.00">iostream</text>
</a>
</g>
</g>
<!-- Node1&#45;&gt;Node13 -->
<g id="edge19_Node000001_Node000013" class="edge">
<title>Node1&#45;&gt;Node13</title>
<g id="a_edge19_Node000001_Node000013"><a xlink:title=" ">
<path fill="none" stroke="#63b8ff" d="M558.06,-274.68C557.54,-235.76 556.09,-128.07 555.5,-84.33"/>
<polygon fill="#63b8ff" stroke="#63b8ff" points="559,-84.18 555.37,-74.23 552,-84.28 559,-84.18"/>
</a>
</g>
</g>
<!-- Node14 -->
<g id="Node000014" class="node">
<title>Node14</title>
<g id="a_Node000014"><a xlink:href="types_8h.html" target="_top" xlink:title=" ">
<polygon fill="white" stroke="#666666" points="1032.75,-74 943.75,-74 943.75,-55 1032.75,-55 1032.75,-74"/>
<text text-anchor="middle" x="988.25" y="-62" font-family="Helvetica,sans-Serif" font-size="10.00">Library/types.h</text>
</a>
</g>
</g>
<!-- Node1&#45;&gt;Node14 -->
<g id="edge44_Node000001_Node000014" class="edge">
<title>Node1&#45;&gt;Node14</title>
<g id="a_edge44_Node000001_Node000014"><a xlink:title=" ">
<path fill="none" stroke="#63b8ff" d="M617.79,-286.72C781.18,-278.94 1229.13,-247.03 1299.25,-129 1303.56,-121.74 1304.78,-116.38 1299.25,-110 1266.76,-72.53 1123.52,-65.84 1043.25,-65.11"/>
<polygon fill="#63b8ff" stroke="#63b8ff" points="1042.86,-61.6 1032.84,-65.04 1042.82,-68.6 1042.86,-61.6"/>
</a>
</g>
</g>
<!-- Node15 -->
<g id="Node000015" class="node">
<title>Node15</title>
<g id="a_Node000015"><a xlink:href="database_8h.html" target="_top" xlink:title=" ">
<polygon fill="white" stroke="#666666" points="530.25,-239 410.25,-239 410.25,-220 530.25,-220 530.25,-239"/>
<text text-anchor="middle" x="470.25" y="-227" font-family="Helvetica,sans-Serif" font-size="10.00">Database/database.h</text>
</a>
</g>
</g>
<!-- Node1&#45;&gt;Node15 -->
<g id="edge21_Node000001_Node000015" class="edge">
<title>Node1&#45;&gt;Node15</title>
<g id="a_edge21_Node000001_Node000015"><a xlink:title=" ">
<path fill="none" stroke="#63b8ff" d="M536.95,-274.84C523.18,-265.68 505.33,-253.82 491.56,-244.66"/>
<polygon fill="#63b8ff" stroke="#63b8ff" points="493.45,-241.72 483.18,-239.09 489.57,-247.55 493.45,-241.72"/>
</a>
</g>
</g>
<!-- Node23 -->
<g id="Node000023" class="node">
<title>Node23</title>
<g id="a_Node000023"><a xlink:href="utils_8h_source.html" target="_top" xlink:title=" ">
<polygon fill="white" stroke="#666666" points="1188.75,-184 1105.75,-184 1105.75,-165 1188.75,-165 1188.75,-184"/>
<text text-anchor="middle" x="1147.25" y="-172" font-family="Helvetica,sans-Serif" font-size="10.00">Library/utils.h</text>
</a>
</g>
</g>
<!-- Node1&#45;&gt;Node23 -->
<g id="edge45_Node000001_Node000023" class="edge">
<title>Node1&#45;&gt;Node23</title>
<g id="a_edge45_Node000001_Node000023"><a xlink:title=" ">
<path fill="none" stroke="#63b8ff" d="M617.97,-277.49C733.57,-255.22 986.11,-206.55 1095.27,-185.52"/>
<polygon fill="#63b8ff" stroke="#63b8ff" points="1096.22,-188.9 1105.38,-183.57 1094.9,-182.02 1096.22,-188.9"/>
</a>
</g>
</g>
<!-- Node2&#45;&gt;Node3 -->
<g id="edge2_Node000002_Node000003" class="edge">
<title>Node2&#45;&gt;Node3</title>
<g id="a_edge2_Node000002_Node000003"><a xlink:title=" ">
<path fill="none" stroke="#63b8ff" d="M808.23,-172.58C642.35,-170.12 289.61,-161.14 172.25,-129 133.54,-118.4 92.9,-94.85 69.11,-79.6"/>
<polygon fill="#63b8ff" stroke="#63b8ff" points="70.85,-76.56 60.57,-74.02 67.02,-82.42 70.85,-76.56"/>
</a>
</g>
</g>
<!-- Node4 -->
<g id="Node000004" class="node">
<title>Node4</title>
<g id="a_Node000004"><a xlink:title=" ">
<polygon fill="#e0e0e0" stroke="#999999" points="551.75,-19 504.75,-19 504.75,0 551.75,0 551.75,-19"/>
<text text-anchor="middle" x="528.25" y="-7" font-family="Helvetica,sans-Serif" font-size="10.00">vector</text>
</a>
</g>
</g>
<!-- Node2&#45;&gt;Node4 -->
<g id="edge3_Node000002_Node000004" class="edge">
<title>Node2&#45;&gt;Node4</title>
<g id="a_edge3_Node000002_Node000004"><a xlink:title=" ">
<path fill="none" stroke="#63b8ff" d="M893.35,-164.71C888.37,-150.98 876.89,-124.53 858.25,-110 767.28,-39.08 626.2,-18.55 562.05,-12.73"/>
<polygon fill="#63b8ff" stroke="#63b8ff" points="562.34,-9.24 552.08,-11.89 561.75,-16.22 562.34,-9.24"/>
</a>
</g>
</g>
<!-- Node5 -->
<g id="Node000005" class="node">
<title>Node5</title>
<g id="a_Node000005"><a xlink:title=" ">
<polygon fill="#e0e0e0" stroke="#999999" points="899.25,-19 855.25,-19 855.25,0 899.25,0 899.25,-19"/>
<text text-anchor="middle" x="877.25" y="-7" font-family="Helvetica,sans-Serif" font-size="10.00">string</text>
</a>
</g>
</g>
<!-- Node2&#45;&gt;Node5 -->
<g id="edge4_Node000002_Node000005" class="edge">
<title>Node2&#45;&gt;Node5</title>
<g id="a_edge4_Node000002_Node000005"><a xlink:title=" ">
<path fill="none" stroke="#63b8ff" d="M895.74,-164.86C894.98,-152.62 893.4,-129.57 891.25,-110 888.15,-81.75 883.33,-49.15 880.23,-29.19"/>
<polygon fill="#63b8ff" stroke="#63b8ff" points="883.68,-28.6 878.67,-19.26 876.76,-29.68 883.68,-28.6"/>
</a>
</g>
</g>
<!-- Node6 -->
<g id="Node000006" class="node">
<title>Node6</title>
<g id="a_Node000006"><a xlink:title=" ">
<polygon fill="#e0e0e0" stroke="#999999" points="527.25,-129 469.25,-129 469.25,-110 527.25,-110 527.25,-129"/>
<text text-anchor="middle" x="498.25" y="-117" font-family="Helvetica,sans-Serif" font-size="10.00">memory</text>
</a>
</g>
</g>
<!-- Node2&#45;&gt;Node6 -->
<g id="edge5_Node000002_Node000006" class="edge">
<title>Node2&#45;&gt;Node6</title>
<g id="a_edge5_Node000002_Node000006"><a xlink:title=" ">
<path fill="none" stroke="#63b8ff" d="M832.31,-164.98C749.12,-153.91 606.32,-134.89 537.54,-125.73"/>
<polygon fill="#63b8ff" stroke="#63b8ff" points="537.93,-122.25 527.55,-124.4 537,-129.19 537.93,-122.25"/>
</a>
</g>
</g>
<!-- Node7 -->
<g id="Node000007" class="node">
<title>Node7</title>
<g id="a_Node000007"><a xlink:title=" ">
<polygon fill="#e0e0e0" stroke="#999999" points="1139.25,-129 1085.25,-129 1085.25,-110 1139.25,-110 1139.25,-129"/>
<text text-anchor="middle" x="1112.25" y="-117" font-family="Helvetica,sans-Serif" font-size="10.00">random</text>
</a>
</g>
</g>
<!-- Node2&#45;&gt;Node7 -->
<g id="edge6_Node000002_Node000007" class="edge">
<title>Node2&#45;&gt;Node7</title>
<g id="a_edge6_Node000002_Node000007"><a xlink:title=" ">
<path fill="none" stroke="#63b8ff" d="M930.96,-164.98C970.53,-155.27 1034.98,-139.46 1075.42,-129.54"/>
<polygon fill="#63b8ff" stroke="#63b8ff" points="1076.28,-132.93 1085.15,-127.15 1074.61,-126.13 1076.28,-132.93"/>
</a>
</g>
</g>
<!-- Node8 -->
<g id="Node000008" class="node">
<title>Node8</title>
<g id="a_Node000008"><a xlink:title=" ">
<polygon fill="#e0e0e0" stroke="#999999" points="1107.75,-19 1014.75,-19 1014.75,0 1107.75,0 1107.75,-19"/>
<text text-anchor="middle" x="1061.25" y="-7" font-family="Helvetica,sans-Serif" font-size="10.00">unordered_map</text>
</a>
</g>
</g>
<!-- Node2&#45;&gt;Node8 -->
<g id="edge7_Node000002_Node000008" class="edge">
<title>Node2&#45;&gt;Node8</title>
<g id="a_edge7_Node000002_Node000008"><a xlink:title=" ">
<path fill="none" stroke="#63b8ff" d="M943.16,-164.98C967.39,-158.56 996.03,-147.55 1016.25,-129 1045.21,-102.44 1055.67,-55.27 1059.34,-29.17"/>
<polygon fill="#63b8ff" stroke="#63b8ff" points="1062.83,-29.45 1060.56,-19.1 1055.88,-28.61 1062.83,-29.45"/>
</a>
</g>
</g>
<!-- Node2&#45;&gt;Node9 -->
<g id="edge8_Node000002_Node000009" class="edge">
<title>Node2&#45;&gt;Node9</title>
<g id="a_edge8_Node000002_Node000009"><a xlink:title=" ">
<path fill="none" stroke="#63b8ff" d="M831.91,-164.99C774.36,-157 687.85,-144.04 613.25,-129 578.7,-122.03 570.5,-118.32 536.25,-110 487.15,-98.07 430.69,-84.6 392.98,-75.63"/>
<polygon fill="#63b8ff" stroke="#63b8ff" points="393.4,-72.13 382.86,-73.23 391.78,-78.94 393.4,-72.13"/>
</a>
</g>
</g>
<!-- Node10 -->
<g id="Node000010" class="node">
<title>Node10</title>
<g id="a_Node000010"><a xlink:title=" ">
<polygon fill="#e0e0e0" stroke="#999999" points="1207.25,-129 1157.25,-129 1157.25,-110 1207.25,-110 1207.25,-129"/>
<text text-anchor="middle" x="1182.25" y="-117" font-family="Helvetica,sans-Serif" font-size="10.00">chrono</text>
</a>
</g>
</g>
<!-- Node2&#45;&gt;Node10 -->
<g id="edge9_Node000002_Node000010" class="edge">
<title>Node2&#45;&gt;Node10</title>
<g id="a_edge9_Node000002_Node000010"><a xlink:title=" ">
<path fill="none" stroke="#63b8ff" d="M951.03,-164.96C1000.02,-157.07 1073.99,-144.53 1147.19,-129.11"/>
<polygon fill="#63b8ff" stroke="#63b8ff" points="1147.99,-132.51 1157.05,-127.01 1146.54,-125.67 1147.99,-132.51"/>
</a>
</g>
</g>
<!-- Node11 -->
<g id="Node000011" class="node">
<title>Node11</title>
<g id="a_Node000011"><a xlink:title=" ">
<polygon fill="#e0e0e0" stroke="#999999" points="1272.75,-129 1225.75,-129 1225.75,-110 1272.75,-110 1272.75,-129"/>
<text text-anchor="middle" x="1249.25" y="-117" font-family="Helvetica,sans-Serif" font-size="10.00">cmath</text>
</a>
</g>
</g>
<!-- Node2&#45;&gt;Node11 -->
<g id="edge10_Node000002_Node000011" class="edge">
<title>Node2&#45;&gt;Node11</title>
<g id="a_edge10_Node000002_Node000011"><a xlink:title=" ">
<path fill="none" stroke="#63b8ff" d="M975.9,-164.98C1038.55,-157.69 1128.19,-145.95 1215.7,-128.9"/>
<polygon fill="#63b8ff" stroke="#63b8ff" points="1216.4,-132.32 1225.53,-126.95 1215.04,-125.46 1216.4,-132.32"/>
</a>
</g>
</g>
<!-- Node12 -->
<g id="Node000012" class="node">
<title>Node12</title>
<g id="a_Node000012"><a xlink:href="error_8h.html" target="_top" xlink:title=" ">
<polygon fill="white" stroke="#666666" points="706.75,-129 621.75,-129 621.75,-110 706.75,-110 706.75,-129"/>
<text text-anchor="middle" x="664.25" y="-117" font-family="Helvetica,sans-Serif" font-size="10.00">Library/error.h</text>
</a>
</g>
</g>
<!-- Node2&#45;&gt;Node12 -->
<g id="edge11_Node000002_Node000012" class="edge">
<title>Node2&#45;&gt;Node12</title>
<g id="a_edge11_Node000002_Node000012"><a xlink:title=" ">
<path fill="none" stroke="#63b8ff" d="M858.98,-164.98C818.93,-155.84 755.18,-141.27 711.61,-131.32"/>
<polygon fill="#63b8ff" stroke="#63b8ff" points="712.35,-127.9 701.82,-129.08 710.79,-134.72 712.35,-127.9"/>
</a>
</g>
</g>
<!-- Node2&#45;&gt;Node14 -->
<g id="edge14_Node000002_Node000014" class="edge">
<title>Node2&#45;&gt;Node14</title>
<g id="a_edge14_Node000002_Node000014"><a xlink:title=" ">
<path fill="none" stroke="#63b8ff" d="M945.1,-164.95C965.76,-158.65 987.87,-147.77 1000.25,-129 1009.21,-115.42 1004.17,-96.84 998.11,-83.29"/>
<polygon fill="#63b8ff" stroke="#63b8ff" points="1001.1,-81.45 993.5,-74.08 994.85,-84.59 1001.1,-81.45"/>
</a>
</g>
</g>
<!-- Node12&#45;&gt;Node5 -->
<g id="edge12_Node000012_Node000005" class="edge">
<title>Node12&#45;&gt;Node5</title>
<g id="a_edge12_Node000012_Node000005"><a xlink:title=" ">
<path fill="none" stroke="#63b8ff" d="M681.32,-109.84C718.57,-90.96 807.32,-45.96 851.44,-23.59"/>
<polygon fill="#63b8ff" stroke="#63b8ff" points="853.06,-26.69 860.4,-19.05 849.89,-20.45 853.06,-26.69"/>
</a>
</g>
</g>
<!-- Node12&#45;&gt;Node13 -->
<g id="edge13_Node000012_Node000013" class="edge">
<title>Node12&#45;&gt;Node13</title>
<g id="a_edge13_Node000012_Node000013"><a xlink:title=" ">
<path fill="none" stroke="#63b8ff" d="M646.74,-109.98C629.28,-101.5 602.24,-88.35 582.08,-78.54"/>
<polygon fill="#63b8ff" stroke="#63b8ff" points="583.61,-75.4 573.08,-74.17 580.55,-81.69 583.61,-75.4"/>
</a>
</g>
</g>
<!-- Node14&#45;&gt;Node4 -->
<g id="edge15_Node000014_Node000004" class="edge">
<title>Node14&#45;&gt;Node4</title>
<g id="a_edge15_Node000014_Node000004"><a xlink:title=" ">
<path fill="none" stroke="#63b8ff" d="M943.73,-58.37C852.02,-47.8 643.82,-23.82 562.08,-14.4"/>
<polygon fill="#63b8ff" stroke="#63b8ff" points="562.2,-10.89 551.86,-13.22 561.4,-17.84 562.2,-10.89"/>
</a>
</g>
</g>
<!-- Node14&#45;&gt;Node5 -->
<g id="edge17_Node000014_Node000005" class="edge">
<title>Node14&#45;&gt;Node5</title>
<g id="a_edge17_Node000014_Node000005"><a xlink:title=" ">
<path fill="none" stroke="#63b8ff" d="M970.42,-54.98C952.64,-46.5 925.1,-33.35 904.57,-23.54"/>
<polygon fill="#63b8ff" stroke="#63b8ff" points="905.94,-20.32 895.41,-19.17 902.93,-26.64 905.94,-20.32"/>
</a>
</g>
</g>
<!-- Node14&#45;&gt;Node8 -->
<g id="edge16_Node000014_Node000008" class="edge">
<title>Node14&#45;&gt;Node8</title>
<g id="a_edge16_Node000014_Node000008"><a xlink:title=" ">
<path fill="none" stroke="#63b8ff" d="M999.98,-54.98C1010.98,-47 1027.67,-34.88 1040.86,-25.31"/>
<polygon fill="#63b8ff" stroke="#63b8ff" points="1043.27,-27.88 1049.31,-19.17 1039.16,-22.21 1043.27,-27.88"/>
</a>
</g>
</g>
<!-- Node15&#45;&gt;Node6 -->
<g id="edge22_Node000015_Node000006" class="edge">
<title>Node15&#45;&gt;Node6</title>
<g id="a_edge22_Node000015_Node000006"><a xlink:title=" ">
<path fill="none" stroke="#63b8ff" d="M478.73,-219.85C486.3,-211.47 496.85,-198.01 501.25,-184 505.8,-169.5 504.59,-152.23 502.5,-139.37"/>
<polygon fill="#63b8ff" stroke="#63b8ff" points="505.9,-138.52 500.56,-129.37 499.03,-139.86 505.9,-138.52"/>
</a>
</g>
</g>
<!-- Node16 -->
<g id="Node000016" class="node">
<title>Node16</title>
<g id="a_Node000016"><a xlink:href="transaction_8h_source.html" target="_top" xlink:title=" ">
<polygon fill="white" stroke="#666666" points="491.75,-184 352.75,-184 352.75,-165 491.75,-165 491.75,-184"/>
<text text-anchor="middle" x="422.25" y="-172" font-family="Helvetica,sans-Serif" font-size="10.00">Transaction/transaction.h</text>
</a>
</g>
</g>
<!-- Node15&#45;&gt;Node16 -->
<g id="edge23_Node000015_Node000016" class="edge">
<title>Node15&#45;&gt;Node16</title>
<g id="a_edge23_Node000015_Node000016"><a xlink:title=" ">
<path fill="none" stroke="#63b8ff" d="M462.33,-219.75C455.41,-212.11 445.19,-200.82 436.8,-191.56"/>
<polygon fill="#63b8ff" stroke="#63b8ff" points="439.34,-189.15 430.03,-184.09 434.15,-193.85 439.34,-189.15"/>
</a>
</g>
</g>
<!-- Node16&#45;&gt;Node3 -->
<g id="edge28_Node000016_Node000003" class="edge">
<title>Node16&#45;&gt;Node3</title>
<g id="a_edge28_Node000016_Node000003"><a xlink:title=" ">
<path fill="none" stroke="#63b8ff" d="M352.43,-170.71C243.64,-165.63 43.83,-153.11 22.25,-129 10.28,-115.62 21.42,-95.99 32.6,-82.1"/>
<polygon fill="#63b8ff" stroke="#63b8ff" points="35.46,-84.15 39.37,-74.3 30.17,-79.56 35.46,-84.15"/>
</a>
</g>
</g>
<!-- Node16&#45;&gt;Node4 -->
<g id="edge29_Node000016_Node000004" class="edge">
<title>Node16&#45;&gt;Node4</title>
<g id="a_edge29_Node000016_Node000004"><a xlink:title=" ">
<path fill="none" stroke="#63b8ff" d="M352.66,-170.9C241.84,-166.04 35.46,-153.76 13.25,-129 2.45,-116.96 -10.61,-82.74 16.25,-55 49.51,-20.65 386.06,-12.62 494.66,-10.92"/>
<polygon fill="#63b8ff" stroke="#63b8ff" points="494.79,-14.42 504.73,-10.77 494.68,-7.42 494.79,-14.42"/>
</a>
</g>
</g>
<!-- Node16&#45;&gt;Node5 -->
<g id="edge27_Node000016_Node000005" class="edge">
<title>Node16&#45;&gt;Node5</title>
<g id="a_edge27_Node000016_Node000005"><a xlink:title=" ">
<path fill="none" stroke="#63b8ff" d="M422.9,-164.93C424.24,-151.98 428.3,-127.09 440.25,-110 464.15,-75.83 477.45,-70.25 516.25,-55 575.89,-31.56 767.86,-17.32 844.86,-12.42"/>
<polygon fill="#63b8ff" stroke="#63b8ff" points="845.17,-15.91 854.93,-11.79 844.73,-8.92 845.17,-15.91"/>
</a>
</g>
</g>
<!-- Node16&#45;&gt;Node6 -->
<g id="edge30_Node000016_Node000006" class="edge">
<title>Node16&#45;&gt;Node6</title>
<g id="a_edge30_Node000016_Node000006"><a xlink:title=" ">
<path fill="none" stroke="#63b8ff" d="M434.46,-164.98C446.03,-156.92 463.63,-144.65 477.41,-135.03"/>
<polygon fill="#63b8ff" stroke="#63b8ff" points="479.62,-137.76 485.82,-129.17 475.61,-132.02 479.62,-137.76"/>
</a>
</g>
</g>
<!-- Node16&#45;&gt;Node9 -->
<g id="edge33_Node000016_Node000009" class="edge">
<title>Node16&#45;&gt;Node9</title>
<g id="a_edge33_Node000016_Node000009"><a xlink:title=" ">
<path fill="none" stroke="#63b8ff" d="M415.45,-164.8C408.61,-155.94 397.87,-141.75 389.25,-129 378.97,-113.8 368.11,-95.95 360.47,-83.05"/>
<polygon fill="#63b8ff" stroke="#63b8ff" points="363.4,-81.13 355.31,-74.28 357.36,-84.67 363.4,-81.13"/>
</a>
</g>
</g>
<!-- Node16&#45;&gt;Node12 -->
<g id="edge35_Node000016_Node000012" class="edge">
<title>Node16&#45;&gt;Node12</title>
<g id="a_edge35_Node000016_Node000012"><a xlink:title=" ">
<path fill="none" stroke="#63b8ff" d="M461.13,-164.98C502.99,-155.82 569.68,-141.21 615.14,-131.26"/>
<polygon fill="#63b8ff" stroke="#63b8ff" points="616.05,-134.64 625.07,-129.08 614.55,-127.8 616.05,-134.64"/>
</a>
</g>
</g>
<!-- Node16&#45;&gt;Node13 -->
<g id="edge24_Node000016_Node000013" class="edge">
<title>Node16&#45;&gt;Node13</title>
<g id="a_edge24_Node000016_Node000013"><a xlink:title=" ">
<path fill="none" stroke="#63b8ff" d="M425.59,-164.58C431.02,-151.16 442.9,-125.68 460.25,-110 476.36,-95.44 498.07,-84.79 516.67,-77.57"/>
<polygon fill="#63b8ff" stroke="#63b8ff" points="517.9,-80.85 526.06,-74.1 515.47,-74.28 517.9,-80.85"/>
</a>
</g>
</g>
<!-- Node16&#45;&gt;Node14 -->
<g id="edge34_Node000016_Node000014" class="edge">
<title>Node16&#45;&gt;Node14</title>
<g id="a_edge34_Node000016_Node000014"><a xlink:title=" ">
<path fill="none" stroke="#63b8ff" d="M491.96,-169.12C552.42,-163.88 641.7,-152.63 716.25,-129 734.25,-123.29 736.36,-116.04 754.25,-110 813.75,-89.9 885,-77.99 933.12,-71.62"/>
<polygon fill="#63b8ff" stroke="#63b8ff" points="933.86,-75.06 943.33,-70.31 932.96,-68.11 933.86,-75.06"/>
</a>
</g>
</g>
<!-- Node17 -->
<g id="Node000017" class="node">
<title>Node17</title>
<g id="a_Node000017"><a xlink:title=" ">
<polygon fill="#e0e0e0" stroke="#999999" points="991.25,-129 943.25,-129 943.25,-110 991.25,-110 991.25,-129"/>
<text text-anchor="middle" x="967.25" y="-117" font-family="Helvetica,sans-Serif" font-size="10.00">mutex</text>
</a>
</g>
</g>
<!-- Node16&#45;&gt;Node17 -->
<g id="edge25_Node000016_Node000017" class="edge">
<title>Node16&#45;&gt;Node17</title>
<g id="a_edge25_Node000016_Node000017"><a xlink:title=" ">
<path fill="none" stroke="#63b8ff" d="M491.83,-166.73C609.85,-155.26 845.04,-132.39 933,-123.83"/>
<polygon fill="#63b8ff" stroke="#63b8ff" points="933.36,-127.31 942.98,-122.86 932.69,-120.34 933.36,-127.31"/>
</a>
</g>
</g>
<!-- Node18 -->
<g id="Node000018" class="node">
<title>Node18</title>
<g id="a_Node000018"><a xlink:title=" ">
<polygon fill="#e0e0e0" stroke="#999999" points="849.25,-129 763.25,-129 763.25,-110 849.25,-110 849.25,-129"/>
<text text-anchor="middle" x="806.25" y="-117" font-family="Helvetica,sans-Serif" font-size="10.00">shared_mutex</text>
</a>
</g>
</g>
<!-- Node16&#45;&gt;Node18 -->
<g id="edge26_Node000016_Node000018" class="edge">
<title>Node16&#45;&gt;Node18</title>
<g id="a_edge26_Node000016_Node000018"><a xlink:title=" ">
<path fill="none" stroke="#63b8ff" d="M486.81,-164.96C552.8,-156.18 658.22,-141.98 749.25,-129 750.5,-128.82 751.77,-128.64 753.05,-128.46"/>
<polygon fill="#63b8ff" stroke="#63b8ff" points="753.61,-131.91 763,-127.01 752.6,-124.98 753.61,-131.91"/>
</a>
</g>
</g>
<!-- Node19 -->
<g id="Node000019" class="node">
<title>Node19</title>
<g id="a_Node000019"><a xlink:title=" ">
<polygon fill="#e0e0e0" stroke="#999999" points="163.25,-74 125.25,-74 125.25,-55 163.25,-55 163.25,-74"/>
<text text-anchor="middle" x="144.25" y="-62" font-family="Helvetica,sans-Serif" font-size="10.00">map</text>
</a>
</g>
</g>
<!-- Node16&#45;&gt;Node19 -->
<g id="edge31_Node000016_Node000019" class="edge">
<title>Node16&#45;&gt;Node19</title>
<g id="a_edge31_Node000016_Node000019"><a xlink:title=" ">
<path fill="none" stroke="#63b8ff" d="M352.74,-168.42C288.73,-162.46 199.68,-150.55 172.25,-129 158.21,-117.97 151.04,-98.43 147.49,-83.92"/>
<polygon fill="#63b8ff" stroke="#63b8ff" points="150.9,-83.12 145.43,-74.04 144.05,-84.55 150.9,-83.12"/>
</a>
</g>
</g>
<!-- Node20 -->
<g id="Node000020" class="node">
<title>Node20</title>
<g id="a_Node000020"><a xlink:title=" ">
<polygon fill="#e0e0e0" stroke="#999999" points="87.25,-129 31.25,-129 31.25,-110 87.25,-110 87.25,-129"/>
<text text-anchor="middle" x="59.25" y="-117" font-family="Helvetica,sans-Serif" font-size="10.00">optional</text>
</a>
</g>
</g>
<!-- Node16&#45;&gt;Node20 -->
<g id="edge32_Node000016_Node000020" class="edge">
<title>Node16&#45;&gt;Node20</title>
<g id="a_edge32_Node000016_Node000020"><a xlink:title=" ">
<path fill="none" stroke="#63b8ff" d="M352.55,-165.1C287.4,-156.95 187.5,-143.69 101.25,-129 100.15,-128.81 99.04,-128.62 97.91,-128.42"/>
<polygon fill="#63b8ff" stroke="#63b8ff" points="98.15,-124.9 87.67,-126.5 96.86,-131.78 98.15,-124.9"/>
</a>
</g>
</g>
<!-- Node21 -->
<g id="Node000021" class="node">
<title>Node21</title>
<g id="a_Node000021"><a xlink:href="evaluate_8h.html" target="_top" xlink:title=" ">
<polygon fill="white" stroke="#666666" points="299.25,-129 181.25,-129 181.25,-110 299.25,-110 299.25,-129"/>
<text text-anchor="middle" x="240.25" y="-117" font-family="Helvetica,sans-Serif" font-size="10.00">Evaluator/evaluate.h</text>
</a>
</g>
</g>
<!-- Node16&#45;&gt;Node21 -->
<g id="edge36_Node000016_Node000021" class="edge">
<title>Node16&#45;&gt;Node21</title>
<g id="a_edge36_Node000016_Node000021"><a xlink:title=" ">
<path fill="none" stroke="#63b8ff" d="M393.01,-164.98C362.19,-156.01 313.47,-141.82 279.36,-131.89"/>
<polygon fill="#63b8ff" stroke="#63b8ff" points="280.3,-128.52 269.72,-129.08 278.34,-135.24 280.3,-128.52"/>
</a>
</g>
</g>
<!-- Node21&#45;&gt;Node3 -->
<g id="edge37_Node000021_Node000003" class="edge">
<title>Node21&#45;&gt;Node3</title>
<g id="a_edge37_Node000021_Node000003"><a xlink:title=" ">
<path fill="none" stroke="#63b8ff" d="M209.4,-109.98C174.19,-100.26 116.83,-84.43 80.88,-74.51"/>
<polygon fill="#63b8ff" stroke="#63b8ff" points="81.48,-71.04 70.91,-71.75 79.62,-77.79 81.48,-71.04"/>
</a>
</g>
</g>
<!-- Node21&#45;&gt;Node4 -->
<g id="edge38_Node000021_Node000004" class="edge">
<title>Node21&#45;&gt;Node4</title>
<g id="a_edge38_Node000021_Node000004"><a xlink:title=" ">
<path fill="none" stroke="#63b8ff" d="M242.4,-109.91C246.36,-95.97 256.2,-68.62 275.25,-55 309.91,-30.23 433.72,-17.65 494.33,-12.86"/>
<polygon fill="#63b8ff" stroke="#63b8ff" points="494.83,-16.33 504.53,-12.08 494.3,-9.35 494.83,-16.33"/>
</a>
</g>
</g>
<!-- Node21&#45;&gt;Node5 -->
<g id="edge39_Node000021_Node000005" class="edge">
<title>Node21&#45;&gt;Node5</title>
<g id="a_edge39_Node000021_Node000005"><a xlink:title=" ">
<path fill="none" stroke="#63b8ff" d="M246.56,-109.57C257.32,-95.14 280.75,-67.1 308.25,-55 357.45,-33.35 732.08,-16.43 845.08,-11.78"/>
<polygon fill="#63b8ff" stroke="#63b8ff" points="845.33,-15.27 855.18,-11.36 845.05,-8.27 845.33,-15.27"/>
</a>
</g>
</g>
<!-- Node21&#45;&gt;Node9 -->
<g id="edge40_Node000021_Node000009" class="edge">
<title>Node21&#45;&gt;Node9</title>
<g id="a_edge40_Node000021_Node000009"><a xlink:title=" ">
<path fill="none" stroke="#63b8ff" d="M257.92,-109.98C275.54,-101.5 302.83,-88.35 323.18,-78.54"/>
<polygon fill="#63b8ff" stroke="#63b8ff" points="324.77,-81.66 332.26,-74.17 321.73,-75.36 324.77,-81.66"/>
</a>
</g>
</g>
<!-- Node21&#45;&gt;Node14 -->
<g id="edge43_Node000021_Node000014" class="edge">
<title>Node21&#45;&gt;Node14</title>
<g id="a_edge43_Node000021_Node000014"><a xlink:title=" ">
<path fill="none" stroke="#63b8ff" d="M299.26,-114.32C440.47,-104.31 796.28,-79.1 933.29,-69.39"/>
<polygon fill="#63b8ff" stroke="#63b8ff" points="933.81,-72.87 943.54,-68.67 933.32,-65.88 933.81,-72.87"/>
</a>
</g>
</g>
<!-- Node21&#45;&gt;Node19 -->
<g id="edge42_Node000021_Node000019" class="edge">
<title>Node21&#45;&gt;Node19</title>
<g id="a_edge42_Node000021_Node000019"><a xlink:title=" ">
<path fill="none" stroke="#63b8ff" d="M224.83,-109.98C209.8,-101.69 186.71,-88.94 169.09,-79.22"/>
<polygon fill="#63b8ff" stroke="#63b8ff" points="170.4,-75.94 159.96,-74.17 167.02,-82.07 170.4,-75.94"/>
</a>
</g>
</g>
<!-- Node22 -->
<g id="Node000022" class="node">
<title>Node22</title>
<g id="a_Node000022"><a xlink:title=" ">
<polygon fill="#e0e0e0" stroke="#999999" points="222.75,-74 181.75,-74 181.75,-55 222.75,-55 222.75,-74"/>
<text text-anchor="middle" x="202.25" y="-62" font-family="Helvetica,sans-Serif" font-size="10.00">tuple</text>
</a>
</g>
</g>
<!-- Node21&#45;&gt;Node22 -->
<g id="edge41_Node000021_Node000022" class="edge">
<title>Node21&#45;&gt;Node22</title>
<g id="a_edge41_Node000021_Node000022"><a xlink:title=" ">
<path fill="none" stroke="#63b8ff" d="M233.98,-109.75C228.66,-102.34 220.9,-91.5 214.38,-82.41"/>
<polygon fill="#63b8ff" stroke="#63b8ff" points="217.08,-80.18 208.41,-74.09 211.39,-84.26 217.08,-80.18"/>
</a>
</g>
</g>
<!-- Node23&#45;&gt;Node7 -->
<g id="edge47_Node000023_Node000007" class="edge">
<title>Node23&#45;&gt;Node7</title>
<g id="a_edge47_Node000023_Node000007"><a xlink:title=" ">
<path fill="none" stroke="#63b8ff" d="M1141.47,-164.75C1136.63,-157.42 1129.57,-146.73 1123.61,-137.7"/>
<polygon fill="#63b8ff" stroke="#63b8ff" points="1126.35,-135.5 1117.92,-129.09 1120.51,-139.36 1126.35,-135.5"/>
</a>
</g>
</g>
<!-- Node23&#45;&gt;Node8 -->
<g id="edge51_Node000023_Node000008" class="edge">
<title>Node23&#45;&gt;Node8</title>
<g id="a_edge51_Node000023_Node000008"><a xlink:title=" ">
<path fill="none" stroke="#63b8ff" d="M1188.84,-171.21C1242.96,-166.52 1327.46,-152.37 1299.25,-110 1259.1,-49.69 1174.64,-25.87 1117.91,-16.5"/>
<polygon fill="#63b8ff" stroke="#63b8ff" points="1118.43,-13.04 1108.01,-14.97 1117.36,-19.96 1118.43,-13.04"/>
</a>
</g>
</g>
<!-- Node23&#45;&gt;Node10 -->
<g id="edge46_Node000023_Node000010" class="edge">
<title>Node23&#45;&gt;Node10</title>
<g id="a_edge46_Node000023_Node000010"><a xlink:title=" ">
<path fill="none" stroke="#63b8ff" d="M1153.03,-164.75C1157.87,-157.42 1164.93,-146.73 1170.9,-137.7"/>
<polygon fill="#63b8ff" stroke="#63b8ff" points="1173.99,-139.36 1176.58,-129.09 1168.15,-135.5 1173.99,-139.36"/>
</a>
</g>
</g>
<!-- Node23&#45;&gt;Node11 -->
<g id="edge48_Node000023_Node000011" class="edge">
<title>Node23&#45;&gt;Node11</title>
<g id="a_edge48_Node000023_Node000011"><a xlink:title=" ">
<path fill="none" stroke="#63b8ff" d="M1163.64,-164.98C1179.83,-156.57 1204.82,-143.59 1223.63,-133.81"/>
<polygon fill="#63b8ff" stroke="#63b8ff" points="1225.31,-136.89 1232.57,-129.17 1222.08,-130.68 1225.31,-136.89"/>
</a>
</g>
</g>
<!-- Node23&#45;&gt;Node14 -->
<g id="edge52_Node000023_Node000014" class="edge">
<title>Node23&#45;&gt;Node14</title>
<g id="a_edge52_Node000023_Node000014"><a xlink:title=" ">
<path fill="none" stroke="#63b8ff" d="M1188.98,-168.65C1238.71,-161.22 1311.64,-144.17 1282.25,-110 1252.03,-74.86 1119.57,-67.12 1043.16,-65.63"/>
<polygon fill="#63b8ff" stroke="#63b8ff" points="1042.82,-62.13 1032.76,-65.46 1042.71,-69.13 1042.82,-62.13"/>
</a>
</g>
</g>
<!-- Node23&#45;&gt;Node17 -->
<g id="edge49_Node000023_Node000017" class="edge">
<title>Node23&#45;&gt;Node17</title>
<g id="a_edge49_Node000023_Node000017"><a xlink:title=" ">
<path fill="none" stroke="#63b8ff" d="M1118.33,-164.98C1086.45,-155.6 1035.21,-140.51 1001.38,-130.55"/>
<polygon fill="#63b8ff" stroke="#63b8ff" points="1002.06,-127.1 991.48,-127.63 1000.09,-133.82 1002.06,-127.1"/>
</a>
</g>
</g>
<!-- Node23&#45;&gt;Node18 -->
<g id="edge50_Node000023_Node000018" class="edge">
<title>Node23&#45;&gt;Node18</title>
<g id="a_edge50_Node000023_Node000018"><a xlink:title=" ">
<path fill="none" stroke="#63b8ff" d="M1105.44,-167C1043.52,-157.38 927.49,-139.34 859.55,-128.78"/>
<polygon fill="#63b8ff" stroke="#63b8ff" points="859.9,-125.3 849.48,-127.22 858.83,-132.21 859.9,-125.3"/>
</a>
</g>
</g>
</g>
</svg>

<g id="navigator" transform="translate(0 0)" fill="#404254">
  <rect fill="#f2f5e9" fill-opacity="0.5" stroke="#606060" stroke-width=".5" x="0" y="0" width="60" height="60"/>
  <use id="zoomplus" xlink:href="#zoomPlus" x="17" y="9" onmousedown="handleZoom(evt,'in')"/>
  <use id="zoomminus" xlink:href="#zoomMin" x="42" y="9" onmousedown="handleZoom(evt,'out')"/>
  <use id="reset" xlink:href="#resetDef" x="30" y="36" onmousedown="handleReset()"/>
   <use id="arrowup" xlink:href="#arrowUp" x="0" y="0" onmousedown="handlePan(0,-1)"/>
  <use id="arrowright" xlink:href="#arrowRight" x="0" y="0" onmousedown="handlePan(1,0)"/>
  <use id="arrowdown" xlink:href="#arrowDown" x="0" y="0" onmousedown="handlePan(0,1)"/>
  <use id="arrowleft" xlink:href="#arrowLeft" x="0" y="0" onmousedown="handlePan(-1,0)"/>
</g>
<svg viewBox="0 0 15 15" width="100%" height="30px" preserveAspectRatio="xMaxYMin meet">
 <g id="arrow_out" transform="scale(0.3 0.3)">
  <a xlink:href="generatorHelper_8cpp__incl_org.svg" target="_base">
   <rect id="button" ry="5" rx="5" y="6" x="6" height="38" width="38"
        fill="#f2f5e9" fill-opacity="0.5" stroke="#606060" stroke-width="1.0"/>
   <path id="arrow"
     d="M 11.500037,31.436501 C 11.940474,20.09759 22.043105,11.32322 32.158766,21.979434 L 37.068811,17.246167 C 37.068811,17.246167 37.088388,32 37.088388,32 L 22.160133,31.978069 C 22.160133,31.978069 26.997745,27.140456 26.997745,27.140456 C 18.528582,18.264221 13.291696,25.230495 11.500037,31.436501 z"
     style="fill:#404040;"/>
  </a>
 </g>
</svg>

<style type='text/css'>
<![CDATA[
[data-mouse-over-selected='false'] { opacity: 0.7; }
[data-mouse-over-selected='true']  { opacity: 1.0; }
]]>
</style>
<script type="application/ecmascript"><![CDATA[
document.addEventListener('DOMContentLoaded', (event) => {
  highlightEdges();
  highlightAdjacentNodes();
});
]]></script>
</svg>
