<?xml version="1.0" encoding="UTF-8" standalone="no"?>
<!DOCTYPE svg PUBLIC "-//W3C//DTD SVG 1.1//EN"
 "http://www.w3.org/Graphics/SVG/1.1/DTD/svg11.dtd">
<!-- Generated by graphviz version 2.43.0 (0)
 -->
<!-- Title: src/TestGenerator/src/generatorHelper.cpp Pages: 1 -->
<svg width="1112pt" height="313pt"
 viewBox="0.00 0.00 1112.00 313.00" xmlns="http://www.w3.org/2000/svg" xmlns:xlink="http://www.w3.org/1999/xlink">
<g id="graph0" class="graph" transform="scale(1 1) rotate(0) translate(4 309)">
<title>src/TestGenerator/src/generatorHelper.cpp</title>
<!-- Node1 -->
<g id="Node000001" class="node">
<title>Node1</title>
<g id="a_Node000001"><a xlink:title=" ">
<polygon fill="#999999" stroke="#666666" points="615.5,-305 496.5,-305 496.5,-275 615.5,-275 615.5,-305"/>
<text text-anchor="start" x="504.5" y="-293" font-family="Helvetica,sans-Serif" font-size="10.00">src/TestGenerator/src</text>
<text text-anchor="middle" x="556" y="-282" font-family="Helvetica,sans-Serif" font-size="10.00">/generatorHelper.cpp</text>
</a>
</g>
</g>
<!-- Node2 -->
<g id="Node000002" class="node">
<title>Node2</title>
<g id="a_Node000002"><a xlink:href="generatorHelper_8h.html" target="_top" xlink:title=" ">
<polygon fill="white" stroke="#666666" points="448,-129 272,-129 272,-110 448,-110 448,-129"/>
<text text-anchor="middle" x="360" y="-117" font-family="Helvetica,sans-Serif" font-size="10.00">TestGenerator/generatorHelper.h</text>
</a>
</g>
</g>
<!-- Node1&#45;&gt;Node2 -->
<g id="edge1_Node000001_Node000002" class="edge">
<title>Node1&#45;&gt;Node2</title>
<g id="a_edge1_Node000001_Node000002"><a xlink:title=" ">
<path fill="none" stroke="#63b8ff" d="M535.27,-274.98C521.31,-265.3 502.64,-251.88 487,-239 445.15,-204.53 399.44,-160.03 375.93,-136.58"/>
<polygon fill="#63b8ff" stroke="#63b8ff" points="378.13,-133.83 368.59,-129.22 373.17,-138.77 378.13,-133.83"/>
</a>
</g>
</g>
<!-- Node3 -->
<g id="Node000003" class="node">
<title>Node3</title>
<g id="a_Node000003"><a xlink:title=" ">
<polygon fill="#e0e0e0" stroke="#999999" points="1032.5,-74 987.5,-74 987.5,-55 1032.5,-55 1032.5,-74"/>
<text text-anchor="middle" x="1010" y="-62" font-family="Helvetica,sans-Serif" font-size="10.00">utility</text>
</a>
</g>
</g>
<!-- Node1&#45;&gt;Node3 -->
<g id="edge21_Node000001_Node000003" class="edge">
<title>Node1&#45;&gt;Node3</title>
<g id="a_edge21_Node000001_Node000003"><a xlink:title=" ">
<path fill="none" stroke="#63b8ff" d="M615.67,-284.95C710.65,-275.16 895.55,-241.86 994,-129 1004.74,-116.68 1008.47,-98.18 1009.67,-84.32"/>
<polygon fill="#63b8ff" stroke="#63b8ff" points="1013.18,-84.16 1010.18,-74 1006.19,-83.82 1013.18,-84.16"/>
</a>
</g>
</g>
<!-- Node10 -->
<g id="Node000010" class="node">
<title>Node10</title>
<g id="a_Node000010"><a xlink:title=" ">
<polygon fill="#e0e0e0" stroke="#999999" points="776.5,-74 711.5,-74 711.5,-55 776.5,-55 776.5,-74"/>
<text text-anchor="middle" x="744" y="-62" font-family="Helvetica,sans-Serif" font-size="10.00">functional</text>
</a>
</g>
</g>
<!-- Node1&#45;&gt;Node10 -->
<g id="edge19_Node000001_Node000010" class="edge">
<title>Node1&#45;&gt;Node10</title>
<g id="a_edge19_Node000001_Node000010"><a xlink:title=" ">
<path fill="none" stroke="#63b8ff" d="M614.79,-274.94C660.79,-260.5 721.72,-233.02 751,-184 769.69,-152.71 759.22,-108.11 750.96,-83.51"/>
<polygon fill="#63b8ff" stroke="#63b8ff" points="754.22,-82.24 747.53,-74.02 747.63,-84.61 754.22,-82.24"/>
</a>
</g>
</g>
<!-- Node14 -->
<g id="Node000014" class="node">
<title>Node14</title>
<g id="a_Node000014"><a xlink:title=" ">
<polygon fill="#e0e0e0" stroke="#999999" points="871,-19 811,-19 811,0 871,0 871,-19"/>
<text text-anchor="middle" x="841" y="-7" font-family="Helvetica,sans-Serif" font-size="10.00">iostream</text>
</a>
</g>
</g>
<!-- Node1&#45;&gt;Node14 -->
<g id="edge20_Node000001_Node000014" class="edge">
<title>Node1&#45;&gt;Node14</title>
<g id="a_edge20_Node000001_Node000014"><a xlink:title=" ">
<path fill="none" stroke="#63b8ff" d="M615.69,-289.11C757.72,-287.77 1104,-274.36 1104,-175.5 1104,-175.5 1104,-175.5 1104,-118.5 1104,-23.47 955.24,-10.29 881.48,-9.6"/>
<polygon fill="#63b8ff" stroke="#63b8ff" points="881.18,-6.1 871.17,-9.58 881.16,-13.1 881.18,-6.1"/>
</a>
</g>
</g>
<!-- Node15 -->
<g id="Node000015" class="node">
<title>Node15</title>
<g id="a_Node000015"><a xlink:href="types_8h.html" target="_top" xlink:title=" ">
<polygon fill="white" stroke="#666666" points="333.5,-74 244.5,-74 244.5,-55 333.5,-55 333.5,-74"/>
<text text-anchor="middle" x="289" y="-62" font-family="Helvetica,sans-Serif" font-size="10.00">Library/types.h</text>
</a>
</g>
</g>
<!-- Node1&#45;&gt;Node15 -->
<g id="edge43_Node000001_Node000015" class="edge">
<title>Node1&#45;&gt;Node15</title>
<g id="a_edge43_Node000001_Node000015"><a xlink:title=" ">
<path fill="none" stroke="#63b8ff" d="M496.48,-276.79C424.52,-258.49 306.55,-216.31 254,-129 244.34,-112.95 257.73,-94.11 270.65,-81.14"/>
<polygon fill="#63b8ff" stroke="#63b8ff" points="273.1,-83.63 278.01,-74.25 268.32,-78.52 273.1,-83.63"/>
</a>
</g>
</g>
<!-- Node16 -->
<g id="Node000016" class="node">
<title>Node16</title>
<g id="a_Node000016"><a xlink:href="database_8h.html" target="_top" xlink:title=" ">
<polygon fill="white" stroke="#666666" points="616,-239 496,-239 496,-220 616,-220 616,-239"/>
<text text-anchor="middle" x="556" y="-227" font-family="Helvetica,sans-Serif" font-size="10.00">Database/database.h</text>
</a>
</g>
</g>
<!-- Node1&#45;&gt;Node16 -->
<g id="edge22_Node000001_Node000016" class="edge">
<title>Node1&#45;&gt;Node16</title>
<g id="a_edge22_Node000001_Node000016"><a xlink:title=" ">
<path fill="none" stroke="#63b8ff" d="M556,-274.84C556,-267.21 556,-257.7 556,-249.45"/>
<polygon fill="#63b8ff" stroke="#63b8ff" points="559.5,-249.27 556,-239.27 552.5,-249.27 559.5,-249.27"/>
</a>
</g>
</g>
<!-- Node22 -->
<g id="Node000022" class="node">
<title>Node22</title>
<g id="a_Node000022"><a xlink:href="utils_8h_source.html" target="_top" xlink:title=" ">
<polygon fill="white" stroke="#666666" points="177.5,-129 94.5,-129 94.5,-110 177.5,-110 177.5,-129"/>
<text text-anchor="middle" x="136" y="-117" font-family="Helvetica,sans-Serif" font-size="10.00">Library/utils.h</text>
</a>
</g>
</g>
<!-- Node1&#45;&gt;Node22 -->
<g id="edge44_Node000001_Node000022" class="edge">
<title>Node1&#45;&gt;Node22</title>
<g id="a_edge44_Node000001_Node000022"><a xlink:title=" ">
<path fill="none" stroke="#63b8ff" d="M496.31,-287.57C405.75,-284.3 239.19,-273.62 192,-239 158.93,-214.74 144.67,-165.9 139.12,-139.11"/>
<polygon fill="#63b8ff" stroke="#63b8ff" points="142.53,-138.31 137.25,-129.12 135.65,-139.6 142.53,-138.31"/>
</a>
</g>
</g>
<!-- Node2&#45;&gt;Node3 -->
<g id="edge2_Node000002_Node000003" class="edge">
<title>Node2&#45;&gt;Node3</title>
<g id="a_edge2_Node000002_Node000003"><a xlink:title=" ">
<path fill="none" stroke="#63b8ff" d="M448.05,-112.96C561.8,-105.53 765.89,-91.24 940,-74 952.13,-72.8 965.4,-71.25 977.11,-69.8"/>
<polygon fill="#63b8ff" stroke="#63b8ff" points="977.85,-73.23 987.33,-68.51 976.97,-66.29 977.85,-73.23"/>
</a>
</g>
</g>
<!-- Node4 -->
<g id="Node000004" class="node">
<title>Node4</title>
<g id="a_Node000004"><a xlink:title=" ">
<polygon fill="#e0e0e0" stroke="#999999" points="792.5,-19 745.5,-19 745.5,0 792.5,0 792.5,-19"/>
<text text-anchor="middle" x="769" y="-7" font-family="Helvetica,sans-Serif" font-size="10.00">vector</text>
</a>
</g>
</g>
<!-- Node2&#45;&gt;Node4 -->
<g id="edge3_Node000002_Node000004" class="edge">
<title>Node2&#45;&gt;Node4</title>
<g id="a_edge3_Node000002_Node000004"><a xlink:title=" ">
<path fill="none" stroke="#63b8ff" d="M365.24,-109.72C374.24,-95.51 394.1,-67.78 419,-55 473.78,-26.88 658.38,-15.48 735.11,-11.88"/>
<polygon fill="#63b8ff" stroke="#63b8ff" points="735.37,-15.38 745.2,-11.43 735.05,-8.38 735.37,-15.38"/>
</a>
</g>
</g>
<!-- Node5 -->
<g id="Node000005" class="node">
<title>Node5</title>
<g id="a_Node000005"><a xlink:title=" ">
<polygon fill="#e0e0e0" stroke="#999999" points="536,-19 492,-19 492,0 536,0 536,-19"/>
<text text-anchor="middle" x="514" y="-7" font-family="Helvetica,sans-Serif" font-size="10.00">string</text>
</a>
</g>
</g>
<!-- Node2&#45;&gt;Node5 -->
<g id="edge4_Node000002_Node000005" class="edge">
<title>Node2&#45;&gt;Node5</title>
<g id="a_edge4_Node000002_Node000005"><a xlink:title=" ">
<path fill="none" stroke="#63b8ff" d="M361.24,-109.83C363.62,-96.28 370.09,-70.07 386,-55 412.2,-30.18 452.96,-19.13 481.43,-14.25"/>
<polygon fill="#63b8ff" stroke="#63b8ff" points="482.33,-17.66 491.68,-12.67 481.26,-10.74 482.33,-17.66"/>
</a>
</g>
</g>
<!-- Node6 -->
<g id="Node000006" class="node">
<title>Node6</title>
<g id="a_Node000006"><a xlink:title=" ">
<polygon fill="#e0e0e0" stroke="#999999" points="590,-74 542,-74 542,-55 590,-55 590,-74"/>
<text text-anchor="middle" x="566" y="-62" font-family="Helvetica,sans-Serif" font-size="10.00">mutex</text>
</a>
</g>
</g>
<!-- Node2&#45;&gt;Node6 -->
<g id="edge5_Node000002_Node000006" class="edge">
<title>Node2&#45;&gt;Node6</title>
<g id="a_edge5_Node000002_Node000006"><a xlink:title=" ">
<path fill="none" stroke="#63b8ff" d="M393.1,-109.98C431.31,-100.15 493.82,-84.07 532.29,-74.17"/>
<polygon fill="#63b8ff" stroke="#63b8ff" points="533.18,-77.56 541.99,-71.68 531.44,-70.78 533.18,-77.56"/>
</a>
</g>
</g>
<!-- Node7 -->
<g id="Node000007" class="node">
<title>Node7</title>
<g id="a_Node000007"><a xlink:title=" ">
<polygon fill="#e0e0e0" stroke="#999999" points="486,-74 428,-74 428,-55 486,-55 486,-74"/>
<text text-anchor="middle" x="457" y="-62" font-family="Helvetica,sans-Serif" font-size="10.00">memory</text>
</a>
</g>
</g>
<!-- Node2&#45;&gt;Node7 -->
<g id="edge6_Node000002_Node000007" class="edge">
<title>Node2&#45;&gt;Node7</title>
<g id="a_edge6_Node000002_Node000007"><a xlink:title=" ">
<path fill="none" stroke="#63b8ff" d="M375.58,-109.98C390.77,-101.69 414.1,-88.94 431.9,-79.22"/>
<polygon fill="#63b8ff" stroke="#63b8ff" points="434.03,-82.04 441.13,-74.17 430.68,-75.89 434.03,-82.04"/>
</a>
</g>
</g>
<!-- Node8 -->
<g id="Node000008" class="node">
<title>Node8</title>
<g id="a_Node000008"><a xlink:title=" ">
<polygon fill="#e0e0e0" stroke="#999999" points="188,-74 134,-74 134,-55 188,-55 188,-74"/>
<text text-anchor="middle" x="161" y="-62" font-family="Helvetica,sans-Serif" font-size="10.00">random</text>
</a>
</g>
</g>
<!-- Node2&#45;&gt;Node8 -->
<g id="edge7_Node000002_Node000008" class="edge">
<title>Node2&#45;&gt;Node8</title>
<g id="a_edge7_Node000002_Node000008"><a xlink:title=" ">
<path fill="none" stroke="#63b8ff" d="M328.03,-109.98C292.58,-100.54 235.47,-85.33 198.09,-75.38"/>
<polygon fill="#63b8ff" stroke="#63b8ff" points="198.66,-71.91 188.1,-72.72 196.86,-78.67 198.66,-71.91"/>
</a>
</g>
</g>
<!-- Node9 -->
<g id="Node000009" class="node">
<title>Node9</title>
<g id="a_Node000009"><a xlink:title=" ">
<polygon fill="#e0e0e0" stroke="#999999" points="299.5,-19 206.5,-19 206.5,0 299.5,0 299.5,-19"/>
<text text-anchor="middle" x="253" y="-7" font-family="Helvetica,sans-Serif" font-size="10.00">unordered_map</text>
</a>
</g>
</g>
<!-- Node2&#45;&gt;Node9 -->
<g id="edge8_Node000002_Node000009" class="edge">
<title>Node2&#45;&gt;Node9</title>
<g id="a_edge8_Node000002_Node000009"><a xlink:title=" ">
<path fill="none" stroke="#63b8ff" d="M291.78,-109.94C270.04,-103.62 248.21,-92.73 235,-74 225.23,-60.15 232.75,-41.12 240.85,-27.5"/>
<polygon fill="#63b8ff" stroke="#63b8ff" points="243.82,-29.37 246.34,-19.08 237.95,-25.54 243.82,-29.37"/>
</a>
</g>
</g>
<!-- Node2&#45;&gt;Node10 -->
<g id="edge9_Node000002_Node000010" class="edge">
<title>Node2&#45;&gt;Node10</title>
<g id="a_edge9_Node000002_Node000010"><a xlink:title=" ">
<path fill="none" stroke="#63b8ff" d="M438.92,-109.97C506.22,-102.31 605.76,-90.05 701.25,-74.19"/>
<polygon fill="#63b8ff" stroke="#63b8ff" points="702.08,-77.6 711.37,-72.5 700.93,-70.7 702.08,-77.6"/>
</a>
</g>
</g>
<!-- Node11 -->
<g id="Node000011" class="node">
<title>Node11</title>
<g id="a_Node000011"><a xlink:title=" ">
<polygon fill="#e0e0e0" stroke="#999999" points="50,-74 0,-74 0,-55 50,-55 50,-74"/>
<text text-anchor="middle" x="25" y="-62" font-family="Helvetica,sans-Serif" font-size="10.00">chrono</text>
</a>
</g>
</g>
<!-- Node2&#45;&gt;Node11 -->
<g id="edge10_Node000002_Node000011" class="edge">
<title>Node2&#45;&gt;Node11</title>
<g id="a_edge10_Node000002_Node000011"><a xlink:title=" ">
<path fill="none" stroke="#63b8ff" d="M288.81,-109.98C229.94,-102.47 143.96,-90.46 60.13,-74.06"/>
<polygon fill="#63b8ff" stroke="#63b8ff" points="60.68,-70.6 50.19,-72.09 59.32,-77.47 60.68,-70.6"/>
</a>
</g>
</g>
<!-- Node12 -->
<g id="Node000012" class="node">
<title>Node12</title>
<g id="a_Node000012"><a xlink:title=" ">
<polygon fill="#e0e0e0" stroke="#999999" points="115.5,-74 68.5,-74 68.5,-55 115.5,-55 115.5,-74"/>
<text text-anchor="middle" x="92" y="-62" font-family="Helvetica,sans-Serif" font-size="10.00">cmath</text>
</a>
</g>
</g>
<!-- Node2&#45;&gt;Node12 -->
<g id="edge11_Node000002_Node000012" class="edge">
<title>Node2&#45;&gt;Node12</title>
<g id="a_edge11_Node000002_Node000012"><a xlink:title=" ">
<path fill="none" stroke="#63b8ff" d="M309.84,-109.97C264.27,-102.01 194.99,-89.36 125.55,-74"/>
<polygon fill="#63b8ff" stroke="#63b8ff" points="126.27,-70.57 115.75,-71.81 124.75,-77.41 126.27,-70.57"/>
</a>
</g>
</g>
<!-- Node13 -->
<g id="Node000013" class="node">
<title>Node13</title>
<g id="a_Node000013"><a xlink:href="error_8h.html" target="_top" xlink:title=" ">
<polygon fill="white" stroke="#666666" points="693.5,-74 608.5,-74 608.5,-55 693.5,-55 693.5,-74"/>
<text text-anchor="middle" x="651" y="-62" font-family="Helvetica,sans-Serif" font-size="10.00">Library/error.h</text>
</a>
</g>
</g>
<!-- Node2&#45;&gt;Node13 -->
<g id="edge12_Node000002_Node000013" class="edge">
<title>Node2&#45;&gt;Node13</title>
<g id="a_edge12_Node000002_Node000013"><a xlink:title=" ">
<path fill="none" stroke="#63b8ff" d="M406.75,-109.98C458.98,-100.47 543.34,-85.11 597.98,-75.16"/>
<polygon fill="#63b8ff" stroke="#63b8ff" points="598.94,-78.54 608.15,-73.3 597.69,-71.65 598.94,-78.54"/>
</a>
</g>
</g>
<!-- Node2&#45;&gt;Node15 -->
<g id="edge15_Node000002_Node000015" class="edge">
<title>Node2&#45;&gt;Node15</title>
<g id="a_edge15_Node000002_Node000015"><a xlink:title=" ">
<path fill="none" stroke="#63b8ff" d="M348.59,-109.98C337.89,-102 321.66,-89.88 308.84,-80.31"/>
<polygon fill="#63b8ff" stroke="#63b8ff" points="310.72,-77.35 300.61,-74.17 306.53,-82.96 310.72,-77.35"/>
</a>
</g>
</g>
<!-- Node13&#45;&gt;Node5 -->
<g id="edge13_Node000013_Node000005" class="edge">
<title>Node13&#45;&gt;Node5</title>
<g id="a_edge13_Node000013_Node000005"><a xlink:title=" ">
<path fill="none" stroke="#63b8ff" d="M628.99,-54.98C606.55,-46.3 571.52,-32.75 546.01,-22.88"/>
<polygon fill="#63b8ff" stroke="#63b8ff" points="547,-19.51 536.41,-19.17 544.48,-26.04 547,-19.51"/>
</a>
</g>
</g>
<!-- Node13&#45;&gt;Node14 -->
<g id="edge14_Node000013_Node000014" class="edge">
<title>Node13&#45;&gt;Node14</title>
<g id="a_edge14_Node000013_Node000014"><a xlink:title=" ">
<path fill="none" stroke="#63b8ff" d="M681.53,-54.98C713.89,-45.96 765.16,-31.65 800.8,-21.71"/>
<polygon fill="#63b8ff" stroke="#63b8ff" points="802.17,-24.96 810.86,-18.91 800.29,-18.22 802.17,-24.96"/>
</a>
</g>
</g>
<!-- Node15&#45;&gt;Node4 -->
<g id="edge16_Node000015_Node000004" class="edge">
<title>Node15&#45;&gt;Node4</title>
<g id="a_edge16_Node000015_Node000004"><a xlink:title=" ">
<path fill="none" stroke="#63b8ff" d="M333.73,-58.56C429.14,-48.03 650.83,-23.55 735.4,-14.21"/>
<polygon fill="#63b8ff" stroke="#63b8ff" points="735.92,-17.67 745.48,-13.1 735.15,-10.72 735.92,-17.67"/>
</a>
</g>
</g>
<!-- Node15&#45;&gt;Node5 -->
<g id="edge18_Node000015_Node000005" class="edge">
<title>Node15&#45;&gt;Node5</title>
<g id="a_edge18_Node000015_Node000005"><a xlink:title=" ">
<path fill="none" stroke="#63b8ff" d="M325.15,-54.98C368.55,-44.76 440.66,-27.78 482.09,-18.02"/>
<polygon fill="#63b8ff" stroke="#63b8ff" points="482.99,-21.4 491.92,-15.7 481.39,-14.59 482.99,-21.4"/>
</a>
</g>
</g>
<!-- Node15&#45;&gt;Node9 -->
<g id="edge17_Node000015_Node000009" class="edge">
<title>Node15&#45;&gt;Node9</title>
<g id="a_edge17_Node000015_Node000009"><a xlink:title=" ">
<path fill="none" stroke="#63b8ff" d="M283.06,-54.75C278.02,-47.34 270.66,-36.5 264.49,-27.41"/>
<polygon fill="#63b8ff" stroke="#63b8ff" points="267.35,-25.39 258.83,-19.09 261.56,-29.33 267.35,-25.39"/>
</a>
</g>
</g>
<!-- Node16&#45;&gt;Node7 -->
<g id="edge23_Node000016_Node000007" class="edge">
<title>Node16&#45;&gt;Node7</title>
<g id="a_edge23_Node000016_Node000007"><a xlink:title=" ">
<path fill="none" stroke="#63b8ff" d="M550.68,-219.74C534.96,-193.87 488.57,-117.48 467.56,-82.88"/>
<polygon fill="#63b8ff" stroke="#63b8ff" points="470.53,-81.04 462.35,-74.31 464.55,-84.67 470.53,-81.04"/>
</a>
</g>
</g>
<!-- Node17 -->
<g id="Node000017" class="node">
<title>Node17</title>
<g id="a_Node000017"><a xlink:href="transaction_8h_source.html" target="_top" xlink:title=" ">
<polygon fill="white" stroke="#666666" points="741.5,-184 602.5,-184 602.5,-165 741.5,-165 741.5,-184"/>
<text text-anchor="middle" x="672" y="-172" font-family="Helvetica,sans-Serif" font-size="10.00">Transaction/transaction.h</text>
</a>
</g>
</g>
<!-- Node16&#45;&gt;Node17 -->
<g id="edge24_Node000016_Node000017" class="edge">
<title>Node16&#45;&gt;Node17</title>
<g id="a_edge24_Node000016_Node000017"><a xlink:title=" ">
<path fill="none" stroke="#63b8ff" d="M574.64,-219.98C593.3,-211.46 622.25,-198.23 643.74,-188.41"/>
<polygon fill="#63b8ff" stroke="#63b8ff" points="645.38,-191.51 653.02,-184.17 642.47,-185.14 645.38,-191.51"/>
</a>
</g>
</g>
<!-- Node17&#45;&gt;Node3 -->
<g id="edge26_Node000017_Node000003" class="edge">
<title>Node17&#45;&gt;Node3</title>
<g id="a_edge26_Node000017_Node000003"><a xlink:title=" ">
<path fill="none" stroke="#63b8ff" d="M741.69,-169.89C817.99,-164.77 934.38,-153.19 971,-129 987.16,-118.33 997.75,-98.43 1003.77,-83.74"/>
<polygon fill="#63b8ff" stroke="#63b8ff" points="1007.12,-84.76 1007.35,-74.17 1000.56,-82.31 1007.12,-84.76"/>
</a>
</g>
</g>
<!-- Node17&#45;&gt;Node4 -->
<g id="edge27_Node000017_Node000004" class="edge">
<title>Node17&#45;&gt;Node4</title>
<g id="a_edge27_Node000017_Node000004"><a xlink:title=" ">
<path fill="none" stroke="#63b8ff" d="M741.6,-169.58C822.89,-164.01 951.67,-151.87 994,-129 1022.55,-113.58 1030.61,-104.38 1042,-74 1064.89,-12.95 943.19,-44.9 802.86,-18.9"/>
<polygon fill="#63b8ff" stroke="#63b8ff" points="803.21,-15.4 792.73,-16.92 801.87,-22.27 803.21,-15.4"/>
</a>
</g>
</g>
<!-- Node17&#45;&gt;Node5 -->
<g id="edge25_Node000017_Node000005" class="edge">
<title>Node17&#45;&gt;Node5</title>
<g id="a_edge25_Node000017_Node000005"><a xlink:title=" ">
<path fill="none" stroke="#63b8ff" d="M602.43,-166.46C577.09,-160.39 550.42,-149.27 533,-129 508.97,-101.05 509.08,-55.14 511.44,-29.44"/>
<polygon fill="#63b8ff" stroke="#63b8ff" points="514.95,-29.52 512.6,-19.19 508,-28.73 514.95,-29.52"/>
</a>
</g>
</g>
<!-- Node17&#45;&gt;Node6 -->
<g id="edge29_Node000017_Node000006" class="edge">
<title>Node17&#45;&gt;Node6</title>
<g id="a_edge29_Node000017_Node000006"><a xlink:title=" ">
<path fill="none" stroke="#63b8ff" d="M669.36,-164.78C665.01,-151.62 655.28,-126.47 640,-110 627.7,-96.75 610.57,-86.11 595.89,-78.56"/>
<polygon fill="#63b8ff" stroke="#63b8ff" points="597.19,-75.3 586.67,-74.05 594.11,-81.59 597.19,-75.3"/>
</a>
</g>
</g>
<!-- Node17&#45;&gt;Node7 -->
<g id="edge28_Node000017_Node000007" class="edge">
<title>Node17&#45;&gt;Node7</title>
<g id="a_edge28_Node000017_Node000007"><a xlink:title=" ">
<path fill="none" stroke="#63b8ff" d="M665.41,-164.75C654.66,-151.07 632.03,-124.7 607,-110 572.38,-89.67 527.74,-77.98 496.19,-71.73"/>
<polygon fill="#63b8ff" stroke="#63b8ff" points="496.5,-68.23 486.02,-69.82 495.2,-75.11 496.5,-68.23"/>
</a>
</g>
</g>
<!-- Node17&#45;&gt;Node10 -->
<g id="edge32_Node000017_Node000010" class="edge">
<title>Node17&#45;&gt;Node10</title>
<g id="a_edge32_Node000017_Node000010"><a xlink:title=" ">
<path fill="none" stroke="#63b8ff" d="M677.89,-164.66C689.82,-146.77 717,-106 732.54,-82.69"/>
<polygon fill="#63b8ff" stroke="#63b8ff" points="735.59,-84.42 738.23,-74.16 729.77,-80.54 735.59,-84.42"/>
</a>
</g>
</g>
<!-- Node17&#45;&gt;Node13 -->
<g id="edge34_Node000017_Node000013" class="edge">
<title>Node17&#45;&gt;Node13</title>
<g id="a_edge34_Node000017_Node000013"><a xlink:title=" ">
<path fill="none" stroke="#63b8ff" d="M674.81,-164.69C678.33,-152.27 683.31,-128.98 678,-110 675.24,-100.12 669.61,-90.25 664.21,-82.32"/>
<polygon fill="#63b8ff" stroke="#63b8ff" points="666.87,-80.04 658.15,-74.03 661.22,-84.17 666.87,-80.04"/>
</a>
</g>
</g>
<!-- Node17&#45;&gt;Node15 -->
<g id="edge33_Node000017_Node000015" class="edge">
<title>Node17&#45;&gt;Node15</title>
<g id="a_edge33_Node000017_Node000015"><a xlink:title=" ">
<path fill="none" stroke="#63b8ff" d="M602.4,-170.9C491.59,-166.04 285.21,-153.76 263,-129 251.01,-115.64 262.15,-96 273.34,-82.1"/>
<polygon fill="#63b8ff" stroke="#63b8ff" points="276.2,-84.15 280.11,-74.3 270.91,-79.56 276.2,-84.15"/>
</a>
</g>
</g>
<!-- Node18 -->
<g id="Node000018" class="node">
<title>Node18</title>
<g id="a_Node000018"><a xlink:title=" ">
<polygon fill="#e0e0e0" stroke="#999999" points="833,-74 795,-74 795,-55 833,-55 833,-74"/>
<text text-anchor="middle" x="814" y="-62" font-family="Helvetica,sans-Serif" font-size="10.00">map</text>
</a>
</g>
</g>
<!-- Node17&#45;&gt;Node18 -->
<g id="edge30_Node000017_Node000018" class="edge">
<title>Node17&#45;&gt;Node18</title>
<g id="a_edge30_Node000017_Node000018"><a xlink:title=" ">
<path fill="none" stroke="#63b8ff" d="M683.62,-164.66C707.98,-146.14 764.59,-103.08 794.57,-80.28"/>
<polygon fill="#63b8ff" stroke="#63b8ff" points="796.78,-83 802.62,-74.16 792.54,-77.43 796.78,-83"/>
</a>
</g>
</g>
<!-- Node19 -->
<g id="Node000019" class="node">
<title>Node19</title>
<g id="a_Node000019"><a xlink:title=" ">
<polygon fill="#e0e0e0" stroke="#999999" points="598,-129 542,-129 542,-110 598,-110 598,-129"/>
<text text-anchor="middle" x="570" y="-117" font-family="Helvetica,sans-Serif" font-size="10.00">optional</text>
</a>
</g>
</g>
<!-- Node17&#45;&gt;Node19 -->
<g id="edge31_Node000017_Node000019" class="edge">
<title>Node17&#45;&gt;Node19</title>
<g id="a_edge31_Node000017_Node000019"><a xlink:title=" ">
<path fill="none" stroke="#63b8ff" d="M655.61,-164.98C639.43,-156.57 614.43,-143.59 595.62,-133.81"/>
<polygon fill="#63b8ff" stroke="#63b8ff" points="597.17,-130.68 586.69,-129.17 593.95,-136.89 597.17,-130.68"/>
</a>
</g>
</g>
<!-- Node20 -->
<g id="Node000020" class="node">
<title>Node20</title>
<g id="a_Node000020"><a xlink:href="evaluate_8h.html" target="_top" xlink:title=" ">
<polygon fill="white" stroke="#666666" points="962,-129 844,-129 844,-110 962,-110 962,-129"/>
<text text-anchor="middle" x="903" y="-117" font-family="Helvetica,sans-Serif" font-size="10.00">Evaluator/evaluate.h</text>
</a>
</g>
</g>
<!-- Node17&#45;&gt;Node20 -->
<g id="edge35_Node000017_Node000020" class="edge">
<title>Node17&#45;&gt;Node20</title>
<g id="a_edge35_Node000017_Node000020"><a xlink:title=" ">
<path fill="none" stroke="#63b8ff" d="M709.11,-164.98C748.99,-155.84 812.46,-141.27 855.84,-131.32"/>
<polygon fill="#63b8ff" stroke="#63b8ff" points="856.63,-134.73 865.59,-129.08 855.07,-127.91 856.63,-134.73"/>
</a>
</g>
</g>
<!-- Node20&#45;&gt;Node3 -->
<g id="edge36_Node000020_Node000003" class="edge">
<title>Node20&#45;&gt;Node3</title>
<g id="a_edge36_Node000020_Node000003"><a xlink:title=" ">
<path fill="none" stroke="#63b8ff" d="M920.19,-109.98C937.25,-101.54 963.63,-88.47 983.4,-78.68"/>
<polygon fill="#63b8ff" stroke="#63b8ff" points="985.09,-81.75 992.5,-74.17 981.98,-75.47 985.09,-81.75"/>
</a>
</g>
</g>
<!-- Node20&#45;&gt;Node4 -->
<g id="edge37_Node000020_Node000004" class="edge">
<title>Node20&#45;&gt;Node4</title>
<g id="a_edge37_Node000020_Node000004"><a xlink:title=" ">
<path fill="none" stroke="#63b8ff" d="M914.56,-109.84C930.05,-97.18 954.05,-73.17 940,-55 939.73,-54.65 852.12,-31.97 802.42,-19.13"/>
<polygon fill="#63b8ff" stroke="#63b8ff" points="803.29,-15.74 792.73,-16.63 801.54,-22.52 803.29,-15.74"/>
</a>
</g>
</g>
<!-- Node20&#45;&gt;Node5 -->
<g id="edge38_Node000020_Node000005" class="edge">
<title>Node20&#45;&gt;Node5</title>
<g id="a_edge38_Node000020_Node000005"><a xlink:title=" ">
<path fill="none" stroke="#63b8ff" d="M897.5,-109.74C888.06,-95.57 867.35,-67.88 842,-55 790.71,-28.94 619.01,-16.42 546.62,-12.21"/>
<polygon fill="#63b8ff" stroke="#63b8ff" points="546.47,-8.69 536.29,-11.62 546.08,-15.68 546.47,-8.69"/>
</a>
</g>
</g>
<!-- Node20&#45;&gt;Node10 -->
<g id="edge39_Node000020_Node000010" class="edge">
<title>Node20&#45;&gt;Node10</title>
<g id="a_edge39_Node000020_Node000010"><a xlink:title=" ">
<path fill="none" stroke="#63b8ff" d="M877.45,-109.98C850.88,-101.13 809.06,-87.19 779.33,-77.28"/>
<polygon fill="#63b8ff" stroke="#63b8ff" points="780.34,-73.92 769.75,-74.08 778.13,-80.56 780.34,-73.92"/>
</a>
</g>
</g>
<!-- Node20&#45;&gt;Node15 -->
<g id="edge42_Node000020_Node000015" class="edge">
<title>Node20&#45;&gt;Node15</title>
<g id="a_edge42_Node000020_Node000015"><a xlink:title=" ">
<path fill="none" stroke="#63b8ff" d="M843.85,-113.39C724.96,-103.13 458.59,-80.14 343.59,-70.21"/>
<polygon fill="#63b8ff" stroke="#63b8ff" points="343.86,-66.72 333.6,-69.35 343.26,-73.7 343.86,-66.72"/>
</a>
</g>
</g>
<!-- Node20&#45;&gt;Node18 -->
<g id="edge41_Node000020_Node000018" class="edge">
<title>Node20&#45;&gt;Node18</title>
<g id="a_edge41_Node000020_Node000018"><a xlink:title=" ">
<path fill="none" stroke="#63b8ff" d="M888.7,-109.98C874.9,-101.77 853.76,-89.18 837.49,-79.49"/>
<polygon fill="#63b8ff" stroke="#63b8ff" points="838.94,-76.28 828.56,-74.17 835.36,-82.29 838.94,-76.28"/>
</a>
</g>
</g>
<!-- Node21 -->
<g id="Node000021" class="node">
<title>Node21</title>
<g id="a_Node000021"><a xlink:title=" ">
<polygon fill="#e0e0e0" stroke="#999999" points="930.5,-74 889.5,-74 889.5,-55 930.5,-55 930.5,-74"/>
<text text-anchor="middle" x="910" y="-62" font-family="Helvetica,sans-Serif" font-size="10.00">tuple</text>
</a>
</g>
</g>
<!-- Node20&#45;&gt;Node21 -->
<g id="edge40_Node000020_Node000021" class="edge">
<title>Node20&#45;&gt;Node21</title>
<g id="a_edge40_Node000020_Node000021"><a xlink:title=" ">
<path fill="none" stroke="#63b8ff" d="M904.16,-109.75C905.07,-102.8 906.39,-92.85 907.54,-84.13"/>
<polygon fill="#63b8ff" stroke="#63b8ff" points="911.03,-84.46 908.87,-74.09 904.09,-83.54 911.03,-84.46"/>
</a>
</g>
</g>
<!-- Node22&#45;&gt;Node8 -->
<g id="edge46_Node000022_Node000008" class="edge">
<title>Node22&#45;&gt;Node8</title>
<g id="a_edge46_Node000022_Node000008"><a xlink:title=" ">
<path fill="none" stroke="#63b8ff" d="M140.13,-109.75C143.51,-102.57 148.42,-92.18 152.62,-83.27"/>
<polygon fill="#63b8ff" stroke="#63b8ff" points="155.85,-84.63 156.95,-74.09 149.52,-81.64 155.85,-84.63"/>
</a>
</g>
</g>
<!-- Node22&#45;&gt;Node11 -->
<g id="edge45_Node000022_Node000011" class="edge">
<title>Node22&#45;&gt;Node11</title>
<g id="a_edge45_Node000022_Node000011"><a xlink:title=" ">
<path fill="none" stroke="#63b8ff" d="M118.17,-109.98C100.39,-101.5 72.85,-88.35 52.32,-78.54"/>
<polygon fill="#63b8ff" stroke="#63b8ff" points="53.69,-75.32 43.16,-74.17 50.67,-81.64 53.69,-75.32"/>
</a>
</g>
</g>
<!-- Node22&#45;&gt;Node12 -->
<g id="edge47_Node000022_Node000012" class="edge">
<title>Node22&#45;&gt;Node12</title>
<g id="a_edge47_Node000022_Node000012"><a xlink:title=" ">
<path fill="none" stroke="#63b8ff" d="M128.73,-109.75C122.46,-102.18 113.21,-91.05 105.57,-81.84"/>
<polygon fill="#63b8ff" stroke="#63b8ff" points="108.21,-79.55 99.13,-74.09 102.83,-84.02 108.21,-79.55"/>
</a>
</g>
</g>
<!-- Node22&#45;&gt;Node15 -->
<g id="edge48_Node000022_Node000015" class="edge">
<title>Node22&#45;&gt;Node15</title>
<g id="a_edge48_Node000022_Node000015"><a xlink:title=" ">
<path fill="none" stroke="#63b8ff" d="M160.58,-109.98C186.05,-101.16 226.04,-87.31 254.63,-77.41"/>
<polygon fill="#63b8ff" stroke="#63b8ff" points="255.92,-80.66 264.23,-74.08 253.63,-74.05 255.92,-80.66"/>
</a>
</g>
</g>
</g>
</svg>
