<?xml version="1.0" encoding="UTF-8" standalone="no"?>
<!DOCTYPE svg PUBLIC "-//W3C//DTD SVG 1.1//EN"
 "http://www.w3.org/Graphics/SVG/1.1/DTD/svg11.dtd">
<!-- Generated by graphviz version 2.43.0 (0)
 -->
<!-- Title: Graphical Class Hierarchy Pages: 1 -->
<svg width="545pt" height="212pt"
 viewBox="0.00 0.00 545.00 212.00" xmlns="http://www.w3.org/2000/svg" xmlns:xlink="http://www.w3.org/1999/xlink">
<g id="graph0" class="graph" transform="scale(1 1) rotate(0) translate(4 208)">
<title>Graphical Class Hierarchy</title>
<!-- Node0 -->
<g id="Node000000" class="node">
<title>Node0</title>
<g id="a_Node000000"><a xlink:href="classMLVP_1_1Driver_1_1DriverModel.html" target="_top" xlink:title=" ">
<polygon fill="white" stroke="#666666" points="145,-148 0,-148 0,-129 145,-129 145,-148"/>
<text text-anchor="middle" x="72.5" y="-136" font-family="Helvetica,sans-Serif" font-size="10.00">MLVP::Driver::DriverModel</text>
</a>
</g>
</g>
<!-- Node1 -->
<g id="Node000001" class="node">
<title>Node1</title>
<g id="a_Node000001"><a xlink:href="classMLVP_1_1Driver_1_1DutUnitDriver.html" target="_top" xlink:title=" ">
<polygon fill="white" stroke="#666666" points="338,-204 186,-204 186,-185 338,-185 338,-204"/>
<text text-anchor="middle" x="262" y="-192" font-family="Helvetica,sans-Serif" font-size="10.00">MLVP::Driver::DutUnitDriver</text>
</a>
</g>
</g>
<!-- Node0&#45;&gt;Node1 -->
<g id="edge1_Node000000_Node000001" class="edge">
<title>Node0&#45;&gt;Node1</title>
<g id="a_edge1_Node000000_Node000001"><a xlink:title=" ">
<path fill="none" stroke="#63b8ff" d="M107.43,-151.66C128.42,-159.51 156.04,-169.31 181,-176.5 191.67,-179.57 203.26,-182.45 214.23,-184.95"/>
<polygon fill="#63b8ff" stroke="#63b8ff" points="108.59,-148.35 98,-148.09 106.11,-154.9 108.59,-148.35"/>
</a>
</g>
</g>
<!-- Node3 -->
<g id="Node000003" class="node">
<title>Node3</title>
<g id="a_Node000003"><a xlink:href="classMLVP_1_1Driver_1_1RefUnitDriver.html" target="_top" xlink:title=" ">
<polygon fill="white" stroke="#666666" points="338,-167 186,-167 186,-148 338,-148 338,-167"/>
<text text-anchor="middle" x="262" y="-155" font-family="Helvetica,sans-Serif" font-size="10.00">MLVP::Driver::RefUnitDriver</text>
</a>
</g>
</g>
<!-- Node0&#45;&gt;Node3 -->
<g id="edge3_Node000000_Node000003" class="edge">
<title>Node0&#45;&gt;Node3</title>
<g id="a_edge3_Node000000_Node000003"><a xlink:title=" ">
<path fill="none" stroke="#63b8ff" d="M155.29,-146.79C165.48,-147.82 175.85,-148.87 185.93,-149.89"/>
<polygon fill="#63b8ff" stroke="#63b8ff" points="155.49,-143.29 145.19,-145.76 154.78,-150.25 155.49,-143.29"/>
</a>
</g>
</g>
<!-- Node5 -->
<g id="Node000005" class="node">
<title>Node5</title>
<g id="a_Node000005"><a xlink:href="classMLVP_1_1Driver_1_1SimulatorDriver.html" target="_top" xlink:title=" ">
<polygon fill="white" stroke="#666666" points="343,-130 181,-130 181,-111 343,-111 343,-130"/>
<text text-anchor="middle" x="262" y="-118" font-family="Helvetica,sans-Serif" font-size="10.00">MLVP::Driver::SimulatorDriver</text>
</a>
</g>
</g>
<!-- Node0&#45;&gt;Node5 -->
<g id="edge5_Node000000_Node000005" class="edge">
<title>Node0&#45;&gt;Node5</title>
<g id="a_edge5_Node000000_Node000005"><a xlink:title=" ">
<path fill="none" stroke="#63b8ff" d="M155.14,-130.66C163.69,-129.84 172.38,-129.01 180.91,-128.19"/>
<polygon fill="#63b8ff" stroke="#63b8ff" points="154.81,-127.18 145.19,-131.62 155.48,-134.15 154.81,-127.18"/>
</a>
</g>
</g>
<!-- Node8 -->
<g id="Node000008" class="node">
<title>Node8</title>
<g id="a_Node000008"><a xlink:href="classMLVP_1_1Driver_1_1TransDriver.html" target="_top" xlink:title=" ">
<polygon fill="white" stroke="#666666" points="332,-56 192,-56 192,-37 332,-37 332,-56"/>
<text text-anchor="middle" x="262" y="-44" font-family="Helvetica,sans-Serif" font-size="10.00">MLVP::Driver::TransDriver</text>
</a>
</g>
</g>
<!-- Node0&#45;&gt;Node8 -->
<g id="edge8_Node000000_Node000008" class="edge">
<title>Node0&#45;&gt;Node8</title>
<g id="a_edge8_Node000000_Node000008"><a xlink:title=" ">
<path fill="none" stroke="#63b8ff" d="M102.37,-124.33C141,-105.38 208.45,-72.28 241.55,-56.04"/>
<polygon fill="#63b8ff" stroke="#63b8ff" points="100.65,-121.28 93.21,-128.83 103.73,-127.57 100.65,-121.28"/>
</a>
</g>
</g>
<!-- Node2 -->
<g id="Node000002" class="node">
<title>Node2</title>
<g id="a_Node000002"><a xlink:href="classDutCacheDriver.html" target="_top" xlink:title=" ">
<polygon fill="white" stroke="#666666" points="505,-204 411,-204 411,-185 505,-185 505,-204"/>
<text text-anchor="middle" x="458" y="-192" font-family="Helvetica,sans-Serif" font-size="10.00">DutCacheDriver</text>
</a>
</g>
</g>
<!-- Node1&#45;&gt;Node2 -->
<g id="edge2_Node000001_Node000002" class="edge">
<title>Node1&#45;&gt;Node2</title>
<g id="a_edge2_Node000001_Node000002"><a xlink:title=" ">
<path fill="none" stroke="#63b8ff" d="M348.16,-194.5C369.69,-194.5 392.01,-194.5 410.79,-194.5"/>
<polygon fill="#63b8ff" stroke="#63b8ff" points="348.01,-191 338.01,-194.5 348.01,-198 348.01,-191"/>
</a>
</g>
</g>
<!-- Node4 -->
<g id="Node000004" class="node">
<title>Node4</title>
<g id="a_Node000004"><a xlink:href="classRefCacheDriver.html" target="_top" xlink:title="RefUnitDriver, use a ref class cache simulate the dut logic.">
<polygon fill="white" stroke="#666666" points="504.5,-167 411.5,-167 411.5,-148 504.5,-148 504.5,-167"/>
<text text-anchor="middle" x="458" y="-155" font-family="Helvetica,sans-Serif" font-size="10.00">RefCacheDriver</text>
</a>
</g>
</g>
<!-- Node3&#45;&gt;Node4 -->
<g id="edge4_Node000003_Node000004" class="edge">
<title>Node3&#45;&gt;Node4</title>
<g id="a_edge4_Node000003_Node000004"><a xlink:title=" ">
<path fill="none" stroke="#63b8ff" d="M348.25,-157.5C369.97,-157.5 392.48,-157.5 411.35,-157.5"/>
<polygon fill="#63b8ff" stroke="#63b8ff" points="348.01,-154 338.01,-157.5 348.01,-161 348.01,-154"/>
</a>
</g>
</g>
<!-- Node6 -->
<g id="Node000006" class="node">
<title>Node6</title>
<g id="a_Node000006"><a xlink:href="classMMIOSimulatorDriver.html" target="_top" xlink:title=" ">
<polygon fill="white" stroke="#666666" points="519,-130 397,-130 397,-111 519,-111 519,-130"/>
<text text-anchor="middle" x="458" y="-118" font-family="Helvetica,sans-Serif" font-size="10.00">MMIOSimulatorDriver</text>
</a>
</g>
</g>
<!-- Node5&#45;&gt;Node6 -->
<g id="edge6_Node000005_Node000006" class="edge">
<title>Node5&#45;&gt;Node6</title>
<g id="a_edge6_Node000005_Node000006"><a xlink:title=" ">
<path fill="none" stroke="#63b8ff" d="M353.19,-120.5C367.95,-120.5 382.92,-120.5 396.72,-120.5"/>
<polygon fill="#63b8ff" stroke="#63b8ff" points="353.03,-117 343.03,-120.5 353.03,-124 353.03,-117"/>
</a>
</g>
</g>
<!-- Node7 -->
<g id="Node000007" class="node">
<title>Node7</title>
<g id="a_Node000007"><a xlink:href="classMemorySimulatorDriver.html" target="_top" xlink:title=" ">
<polygon fill="white" stroke="#666666" points="525,-93 391,-93 391,-74 525,-74 525,-93"/>
<text text-anchor="middle" x="458" y="-81" font-family="Helvetica,sans-Serif" font-size="10.00">MemorySimulatorDriver</text>
</a>
</g>
</g>
<!-- Node5&#45;&gt;Node7 -->
<g id="edge7_Node000005_Node000007" class="edge">
<title>Node5&#45;&gt;Node7</title>
<g id="a_edge7_Node000005_Node000007"><a xlink:title=" ">
<path fill="none" stroke="#63b8ff" d="M323.03,-109.05C349.92,-103.92 381.26,-97.94 406.87,-93.06"/>
<polygon fill="#63b8ff" stroke="#63b8ff" points="322.13,-105.66 312.96,-110.97 323.44,-112.54 322.13,-105.66"/>
</a>
</g>
</g>
<!-- Node9 -->
<g id="Node000009" class="node">
<title>Node9</title>
<g id="a_Node000009"><a xlink:href="classMLVP_1_1Driver_1_1DutTransDriver.html" target="_top" xlink:title=" ">
<polygon fill="white" stroke="#666666" points="537,-56 379,-56 379,-37 537,-37 537,-56"/>
<text text-anchor="middle" x="458" y="-44" font-family="Helvetica,sans-Serif" font-size="10.00">MLVP::Driver::DutTransDriver</text>
</a>
</g>
</g>
<!-- Node8&#45;&gt;Node9 -->
<g id="edge9_Node000008_Node000009" class="edge">
<title>Node8&#45;&gt;Node9</title>
<g id="a_edge9_Node000008_Node000009"><a xlink:title=" ">
<path fill="none" stroke="#63b8ff" d="M342.27,-46.5C354.36,-46.5 366.83,-46.5 378.9,-46.5"/>
<polygon fill="#63b8ff" stroke="#63b8ff" points="342.22,-43 332.22,-46.5 342.22,-50 342.22,-43"/>
</a>
</g>
</g>
<!-- Node10 -->
<g id="Node000010" class="node">
<title>Node10</title>
<g id="a_Node000010"><a xlink:href="classMLVP_1_1Driver_1_1RefTransDriver.html" target="_top" xlink:title=" ">
<polygon fill="white" stroke="#666666" points="536.5,-19 379.5,-19 379.5,0 536.5,0 536.5,-19"/>
<text text-anchor="middle" x="458" y="-7" font-family="Helvetica,sans-Serif" font-size="10.00">MLVP::Driver::RefTransDriver</text>
</a>
</g>
</g>
<!-- Node8&#45;&gt;Node10 -->
<g id="edge10_Node000008_Node000010" class="edge">
<title>Node8&#45;&gt;Node10</title>
<g id="a_edge10_Node000008_Node000010"><a xlink:title=" ">
<path fill="none" stroke="#63b8ff" d="M323.03,-35.05C349.92,-29.92 381.26,-23.94 406.87,-19.06"/>
<polygon fill="#63b8ff" stroke="#63b8ff" points="322.13,-31.66 312.96,-36.97 323.44,-38.54 322.13,-31.66"/>
</a>
</g>
</g>
</g>
</svg>
