<?xml version="1.0" encoding="UTF-8" standalone="no"?>
<!DOCTYPE svg PUBLIC "-//W3C//DTD SVG 1.1//EN"
 "http://www.w3.org/Graphics/SVG/1.1/DTD/svg11.dtd">
<!-- Generated by graphviz version 2.43.0 (0)
 -->
<!-- Title: Graphical Class Hierarchy Pages: 1 -->
<svg width="545pt" height="138pt"
 viewBox="0.00 0.00 545.00 138.00" xmlns="http://www.w3.org/2000/svg" xmlns:xlink="http://www.w3.org/1999/xlink">
<g id="graph0" class="graph" transform="scale(1 1) rotate(0) translate(4 134)">
<title>Graphical Class Hierarchy</title>
<!-- Node0 -->
<g id="Node000000" class="node">
<title>Node0</title>
<g id="a_Node000000"><a xlink:href="classMLVP_1_1Driver_1_1DriverModel.html" target="_top" xlink:title=" ">
<polygon fill="white" stroke="#666666" points="145,-74 0,-74 0,-55 145,-55 145,-74"/>
<text text-anchor="middle" x="72.5" y="-62" font-family="Helvetica,sans-Serif" font-size="10.00">MLVP::Driver::DriverModel</text>
</a>
</g>
</g>
<!-- Node1 -->
<g id="Node000001" class="node">
<title>Node1</title>
<g id="a_Node000001"><a xlink:href="classMLVP_1_1Driver_1_1DutUnitDriver.html" target="_top" xlink:title=" ">
<polygon fill="white" stroke="#666666" points="338,-130 186,-130 186,-111 338,-111 338,-130"/>
<text text-anchor="middle" x="262" y="-118" font-family="Helvetica,sans-Serif" font-size="10.00">MLVP::Driver::DutUnitDriver</text>
</a>
</g>
</g>
<!-- Node0&#45;&gt;Node1 -->
<g id="edge1_Node000000_Node000001" class="edge">
<title>Node0&#45;&gt;Node1</title>
<g id="a_edge1_Node000000_Node000001"><a xlink:title=" ">
<path fill="none" stroke="#63b8ff" d="M107.43,-77.66C128.42,-85.51 156.04,-95.31 181,-102.5 191.67,-105.57 203.26,-108.45 214.23,-110.95"/>
<polygon fill="#63b8ff" stroke="#63b8ff" points="108.59,-74.35 98,-74.09 106.11,-80.9 108.59,-74.35"/>
</a>
</g>
</g>
<!-- Node3 -->
<g id="Node000003" class="node">
<title>Node3</title>
<g id="a_Node000003"><a xlink:href="classMLVP_1_1Driver_1_1RefUnitDriver.html" target="_top" xlink:title=" ">
<polygon fill="white" stroke="#666666" points="338,-93 186,-93 186,-74 338,-74 338,-93"/>
<text text-anchor="middle" x="262" y="-81" font-family="Helvetica,sans-Serif" font-size="10.00">MLVP::Driver::RefUnitDriver</text>
</a>
</g>
</g>
<!-- Node0&#45;&gt;Node3 -->
<g id="edge3_Node000000_Node000003" class="edge">
<title>Node0&#45;&gt;Node3</title>
<g id="a_edge3_Node000000_Node000003"><a xlink:title=" ">
<path fill="none" stroke="#63b8ff" d="M155.29,-72.79C165.48,-73.82 175.85,-74.87 185.93,-75.89"/>
<polygon fill="#63b8ff" stroke="#63b8ff" points="155.49,-69.29 145.19,-71.76 154.78,-76.25 155.49,-69.29"/>
</a>
</g>
</g>
<!-- Node5 -->
<g id="Node000005" class="node">
<title>Node5</title>
<g id="a_Node000005"><a xlink:href="classMLVP_1_1Driver_1_1SimulatorDriver.html" target="_top" xlink:title=" ">
<polygon fill="white" stroke="#666666" points="343,-56 181,-56 181,-37 343,-37 343,-56"/>
<text text-anchor="middle" x="262" y="-44" font-family="Helvetica,sans-Serif" font-size="10.00">MLVP::Driver::SimulatorDriver</text>
</a>
</g>
</g>
<!-- Node0&#45;&gt;Node5 -->
<g id="edge5_Node000000_Node000005" class="edge">
<title>Node0&#45;&gt;Node5</title>
<g id="a_edge5_Node000000_Node000005"><a xlink:title=" ">
<path fill="none" stroke="#63b8ff" d="M155.14,-56.66C163.69,-55.84 172.38,-55.01 180.91,-54.19"/>
<polygon fill="#63b8ff" stroke="#63b8ff" points="154.81,-53.18 145.19,-57.62 155.48,-60.15 154.81,-53.18"/>
</a>
</g>
</g>
<!-- Node6 -->
<g id="Node000006" class="node">
<title>Node6</title>
<g id="a_Node000006"><a xlink:href="classMLVP_1_1Driver_1_1TransDriver.html" target="_top" xlink:title=" ">
<polygon fill="white" stroke="#666666" points="332,-19 192,-19 192,0 332,0 332,-19"/>
<text text-anchor="middle" x="262" y="-7" font-family="Helvetica,sans-Serif" font-size="10.00">MLVP::Driver::TransDriver</text>
</a>
</g>
</g>
<!-- Node0&#45;&gt;Node6 -->
<g id="edge6_Node000000_Node000006" class="edge">
<title>Node0&#45;&gt;Node6</title>
<g id="a_edge6_Node000000_Node000006"><a xlink:title=" ">
<path fill="none" stroke="#63b8ff" d="M109.48,-51.55C130.24,-44.3 156.93,-35.37 181,-28.5 192.8,-25.13 205.71,-21.88 217.64,-19.05"/>
<polygon fill="#63b8ff" stroke="#63b8ff" points="108.07,-48.33 99.8,-54.96 110.39,-54.94 108.07,-48.33"/>
</a>
</g>
</g>
<!-- Node2 -->
<g id="Node000002" class="node">
<title>Node2</title>
<g id="a_Node000002"><a xlink:href="classDutCacheDriver.html" target="_top" xlink:title=" ">
<polygon fill="white" stroke="#666666" points="505,-130 411,-130 411,-111 505,-111 505,-130"/>
<text text-anchor="middle" x="458" y="-118" font-family="Helvetica,sans-Serif" font-size="10.00">DutCacheDriver</text>
</a>
</g>
</g>
<!-- Node1&#45;&gt;Node2 -->
<g id="edge2_Node000001_Node000002" class="edge">
<title>Node1&#45;&gt;Node2</title>
<g id="a_edge2_Node000001_Node000002"><a xlink:title=" ">
<path fill="none" stroke="#63b8ff" d="M348.16,-120.5C369.69,-120.5 392.01,-120.5 410.79,-120.5"/>
<polygon fill="#63b8ff" stroke="#63b8ff" points="348.01,-117 338.01,-120.5 348.01,-124 348.01,-117"/>
</a>
</g>
</g>
<!-- Node4 -->
<g id="Node000004" class="node">
<title>Node4</title>
<g id="a_Node000004"><a xlink:href="classRefCacheDriver.html" target="_top" xlink:title="RefUnitDriver, use a ref class to simulate the dut logic.">
<polygon fill="white" stroke="#666666" points="504.5,-93 411.5,-93 411.5,-74 504.5,-74 504.5,-93"/>
<text text-anchor="middle" x="458" y="-81" font-family="Helvetica,sans-Serif" font-size="10.00">RefCacheDriver</text>
</a>
</g>
</g>
<!-- Node3&#45;&gt;Node4 -->
<g id="edge4_Node000003_Node000004" class="edge">
<title>Node3&#45;&gt;Node4</title>
<g id="a_edge4_Node000003_Node000004"><a xlink:title=" ">
<path fill="none" stroke="#63b8ff" d="M348.25,-83.5C369.97,-83.5 392.48,-83.5 411.35,-83.5"/>
<polygon fill="#63b8ff" stroke="#63b8ff" points="348.01,-80 338.01,-83.5 348.01,-87 348.01,-80"/>
</a>
</g>
</g>
<!-- Node7 -->
<g id="Node000007" class="node">
<title>Node7</title>
<g id="a_Node000007"><a xlink:href="classMLVP_1_1Driver_1_1DutTransDriver.html" target="_top" xlink:title=" ">
<polygon fill="white" stroke="#666666" points="537,-56 379,-56 379,-37 537,-37 537,-56"/>
<text text-anchor="middle" x="458" y="-44" font-family="Helvetica,sans-Serif" font-size="10.00">MLVP::Driver::DutTransDriver</text>
</a>
</g>
</g>
<!-- Node6&#45;&gt;Node7 -->
<g id="edge7_Node000006_Node000007" class="edge">
<title>Node6&#45;&gt;Node7</title>
<g id="a_edge7_Node000006_Node000007"><a xlink:title=" ">
<path fill="none" stroke="#63b8ff" d="M323.03,-20.95C349.92,-26.08 381.26,-32.06 406.87,-36.94"/>
<polygon fill="#63b8ff" stroke="#63b8ff" points="323.44,-17.46 312.96,-19.03 322.13,-24.34 323.44,-17.46"/>
</a>
</g>
</g>
<!-- Node8 -->
<g id="Node000008" class="node">
<title>Node8</title>
<g id="a_Node000008"><a xlink:href="classMLVP_1_1Driver_1_1RefTransDriver.html" target="_top" xlink:title=" ">
<polygon fill="white" stroke="#666666" points="536.5,-19 379.5,-19 379.5,0 536.5,0 536.5,-19"/>
<text text-anchor="middle" x="458" y="-7" font-family="Helvetica,sans-Serif" font-size="10.00">MLVP::Driver::RefTransDriver</text>
</a>
</g>
</g>
<!-- Node6&#45;&gt;Node8 -->
<g id="edge8_Node000006_Node000008" class="edge">
<title>Node6&#45;&gt;Node8</title>
<g id="a_edge8_Node000006_Node000008"><a xlink:title=" ">
<path fill="none" stroke="#63b8ff" d="M342.34,-9.5C354.52,-9.5 367.08,-9.5 379.23,-9.5"/>
<polygon fill="#63b8ff" stroke="#63b8ff" points="342.22,-6 332.22,-9.5 342.22,-13 342.22,-6"/>
</a>
</g>
</g>
</g>
</svg>
