<?xml version="1.0" encoding="UTF-8" standalone="no"?>
<!DOCTYPE svg PUBLIC "-//W3C//DTD SVG 1.1//EN"
 "http://www.w3.org/Graphics/SVG/1.1/DTD/svg11.dtd">
<!-- Generated by graphviz version 2.43.0 (0)
 -->
<!-- Title: Graphical Class Hierarchy Pages: 1 -->
<svg width="297pt" height="64pt"
 viewBox="0.00 0.00 297.00 64.00" xmlns="http://www.w3.org/2000/svg" xmlns:xlink="http://www.w3.org/1999/xlink">
<g id="graph0" class="graph" transform="scale(1 1) rotate(0) translate(4 60)">
<title>Graphical Class Hierarchy</title>
<!-- Node0 -->
<g id="Node000000" class="node">
<title>Node0</title>
<g id="a_Node000000"><a xlink:href="classMLVP_1_1Simulator_1_1Simulator.html" target="_top" xlink:title=" ">
<polygon fill="white" stroke="#666666" points="149,-37 0,-37 0,-18 149,-18 149,-37"/>
<text text-anchor="middle" x="74.5" y="-25" font-family="Helvetica,sans-Serif" font-size="10.00">MLVP::Simulator::Simulator</text>
</a>
</g>
</g>
<!-- Node1 -->
<g id="Node000001" class="node">
<title>Node1</title>
<g id="a_Node000001"><a xlink:href="classSimulatorMMIO.html" target="_top" xlink:title=" ">
<polygon fill="white" stroke="#666666" points="283,-56 191,-56 191,-37 283,-37 283,-56"/>
<text text-anchor="middle" x="237" y="-44" font-family="Helvetica,sans-Serif" font-size="10.00">SimulatorMMIO</text>
</a>
</g>
</g>
<!-- Node0&#45;&gt;Node1 -->
<g id="edge12_Node000000_Node000001" class="edge">
<title>Node0&#45;&gt;Node1</title>
<g id="a_edge12_Node000000_Node000001"><a xlink:title=" ">
<path fill="none" stroke="#63b8ff" d="M159.16,-37.4C170.04,-38.69 180.83,-39.97 190.74,-41.14"/>
<polygon fill="#63b8ff" stroke="#63b8ff" points="159.52,-33.92 149.17,-36.22 158.69,-40.87 159.52,-33.92"/>
</a>
</g>
</g>
<!-- Node2 -->
<g id="Node000002" class="node">
<title>Node2</title>
<g id="a_Node000002"><a xlink:href="classSimulatorMemory.html" target="_top" xlink:title="Simulator Memory and MMIO, Notice that Ref and Dut reuse same Simulator class.">
<polygon fill="white" stroke="#666666" points="289,-19 185,-19 185,0 289,0 289,-19"/>
<text text-anchor="middle" x="237" y="-7" font-family="Helvetica,sans-Serif" font-size="10.00">SimulatorMemory</text>
</a>
</g>
</g>
<!-- Node0&#45;&gt;Node2 -->
<g id="edge13_Node000000_Node000002" class="edge">
<title>Node0&#45;&gt;Node2</title>
<g id="a_edge13_Node000000_Node000002"><a xlink:title=" ">
<path fill="none" stroke="#63b8ff" d="M159.35,-18.1C168.01,-17.12 176.62,-16.16 184.77,-15.25"/>
<polygon fill="#63b8ff" stroke="#63b8ff" points="158.72,-14.64 149.17,-19.24 159.5,-21.6 158.72,-14.64"/>
</a>
</g>
</g>
</g>
</svg>
