<?xml version="1.0" encoding="UTF-8" standalone="no"?>
<!DOCTYPE svg PUBLIC "-//W3C//DTD SVG 1.1//EN"
 "http://www.w3.org/Graphics/SVG/1.1/DTD/svg11.dtd">
<!-- Generated by graphviz version 2.43.0 (0)
 -->
<!-- Title: include/RefPack/ref.h Pages: 1 -->
<!--zoomable 357 -->

<svg id="main" version="1.1" xmlns="http://www.w3.org/2000/svg" xmlns:xlink="http://www.w3.org/1999/xlink" xml:space="preserve" onload="init(evt)">
<style type="text/css"><![CDATA[
.node, .edge {opacity: 0.7;}
.node.selected, .edge.selected {opacity: 1;}
.edge:hover path { stroke: red; }
.edge:hover polygon { stroke: red; fill: red; }
]]></style>

<defs>
  <circle id="rim" cx="0" cy="0" r="7"/>
  <circle id="rim2" cx="0" cy="0" r="3.5"/>
  <g id="zoomPlus">
    <use xlink:href="#rim" fill="#404040"><set attributeName="fill" to="#808080" begin="zoomplus.mouseover" end="zoomplus.mouseout"/></use>
    <path d="M-4,0h8M0,-4v8" fill="none" stroke="white" stroke-width="1.5" pointer-events="none"/>
  </g>
  <g id="zoomMin">
    <use xlink:href="#rim" fill="#404040"><set attributeName="fill" to="#808080" begin="zoomminus.mouseover" end="zoomminus.mouseout"/></use>
    <path d="M-4,0h8" fill="none" stroke="white" stroke-width="1.5" pointer-events="none"/>
  </g>
  <g id="arrowUp" transform="translate(30 24)">
    <use xlink:href="#rim"/>
    <path pointer-events="none" fill="none" stroke="white" stroke-width="1.5" d="M0,-3.0v7 M-2.5,-0.5L0,-3.0L2.5,-0.5"/>
  </g>
  <g id="arrowRight" transform="rotate(90) translate(36 -43)">
    <use xlink:href="#rim"/>
    <path pointer-events="none" fill="none" stroke="white" stroke-width="1.5" d="M0,-3.0v7 M-2.5,-0.5L0,-3.0L2.5,-0.5"/>
  </g>
  <g id="arrowDown" transform="rotate(180) translate(-30 -48)">
    <use xlink:href="#rim"/>
    <path pointer-events="none" fill="none" stroke="white" stroke-width="1.5" d="M0,-3.0v7 M-2.5,-0.5L0,-3.0L2.5,-0.5"/>
  </g>
  <g id="arrowLeft" transform="rotate(270) translate(-36 17)">
    <use xlink:href="#rim"/>
    <path pointer-events="none" fill="none" stroke="white" stroke-width="1.5" d="M0,-3.0v7 M-2.5,-0.5L0,-3.0L2.5,-0.5"/>
  </g>
  <g id="resetDef">
    <use xlink:href="#rim2" fill="#404040"><set attributeName="fill" to="#808080" begin="reset.mouseover" end="reset.mouseout"/></use>
  </g>
</defs>
<script type="application/ecmascript">
var viewWidth = 1297;
var viewHeight = 357;
var sectionId = 'dynsection-0';
</script>
<script type="application/ecmascript" xlink:href="svg.min.js"/>
<svg id="graph" class="graph">
<g id="viewport">
<title>include/RefPack/ref.h</title>
<!-- Node1 -->
<g id="Node000001" class="node">
<title>Node1</title>
<g id="a_Node000001"><a xlink:title=" ">
<polygon fill="#999999" stroke="#666666" points="1092,-349 973,-349 973,-330 1092,-330 1092,-349"/>
<text text-anchor="middle" x="1032.5" y="-337" font-family="Helvetica,sans-Serif" font-size="10.00">include/RefPack/ref.h</text>
</a>
</g>
</g>
<!-- Node2 -->
<g id="Node000002" class="node">
<title>Node2</title>
<g id="a_Node000002"><a xlink:title=" ">
<polygon fill="#e0e0e0" stroke="#999999" points="1092.5,-19 1048.5,-19 1048.5,0 1092.5,0 1092.5,-19"/>
<text text-anchor="middle" x="1070.5" y="-7" font-family="Helvetica,sans-Serif" font-size="10.00">string</text>
</a>
</g>
</g>
<!-- Node1&#45;&gt;Node2 -->
<g id="edge1_Node000001_Node000002" class="edge">
<title>Node1&#45;&gt;Node2</title>
<g id="a_edge1_Node000001_Node000002"><a xlink:title=" ">
<path fill="none" stroke="#63b8ff" d="M1092.2,-338.31C1167.84,-334.55 1288.5,-315.28 1288.5,-230.5 1288.5,-230.5 1288.5,-230.5 1288.5,-118.5 1288.5,-36.62 1163.49,-16.82 1102.8,-12.03"/>
<polygon fill="#63b8ff" stroke="#63b8ff" points="1102.82,-8.52 1092.6,-11.32 1102.34,-15.5 1102.82,-8.52"/>
</a>
</g>
</g>
<!-- Node3 -->
<g id="Node000003" class="node">
<title>Node3</title>
<g id="a_Node000003"><a xlink:title=" ">
<polygon fill="#e0e0e0" stroke="#999999" points="876.5,-74 838.5,-74 838.5,-55 876.5,-55 876.5,-74"/>
<text text-anchor="middle" x="857.5" y="-62" font-family="Helvetica,sans-Serif" font-size="10.00">map</text>
</a>
</g>
</g>
<!-- Node1&#45;&gt;Node3 -->
<g id="edge2_Node000001_Node000003" class="edge">
<title>Node1&#45;&gt;Node3</title>
<g id="a_edge2_Node000001_Node000003"><a xlink:title=" ">
<path fill="none" stroke="#63b8ff" d="M1046.13,-329.75C1057.74,-321.7 1074.12,-308.78 1084.5,-294 1101.84,-269.31 1108.5,-260.67 1108.5,-230.5 1108.5,-230.5 1108.5,-230.5 1108.5,-173.5 1108.5,-134.06 1080.84,-129.4 1046.5,-110 1019.34,-94.65 932.66,-78.24 886.72,-70.32"/>
<polygon fill="#63b8ff" stroke="#63b8ff" points="887.22,-66.85 876.78,-68.63 886.05,-73.76 887.22,-66.85"/>
</a>
</g>
</g>
<!-- Node4 -->
<g id="Node000004" class="node">
<title>Node4</title>
<g id="a_Node000004"><a xlink:title=" ">
<polygon fill="#e0e0e0" stroke="#999999" points="424.5,-129 366.5,-129 366.5,-110 424.5,-110 424.5,-129"/>
<text text-anchor="middle" x="395.5" y="-117" font-family="Helvetica,sans-Serif" font-size="10.00">memory</text>
</a>
</g>
</g>
<!-- Node1&#45;&gt;Node4 -->
<g id="edge3_Node000001_Node000004" class="edge">
<title>Node1&#45;&gt;Node4</title>
<g id="a_edge3_Node000001_Node000004"><a xlink:title=" ">
<path fill="none" stroke="#63b8ff" d="M972.64,-336.29C841.51,-331.07 537.33,-316.65 496.5,-294 436.84,-260.9 409.36,-176.98 399.74,-139.31"/>
<polygon fill="#63b8ff" stroke="#63b8ff" points="403.05,-138.11 397.31,-129.21 396.24,-139.75 403.05,-138.11"/>
</a>
</g>
</g>
<!-- Node5 -->
<g id="Node000005" class="node">
<title>Node5</title>
<g id="a_Node000005"><a xlink:title=" ">
<polygon fill="#e0e0e0" stroke="#999999" points="714,-74 669,-74 669,-55 714,-55 714,-74"/>
<text text-anchor="middle" x="691.5" y="-62" font-family="Helvetica,sans-Serif" font-size="10.00">utility</text>
</a>
</g>
</g>
<!-- Node1&#45;&gt;Node5 -->
<g id="edge4_Node000001_Node000005" class="edge">
<title>Node1&#45;&gt;Node5</title>
<g id="a_edge4_Node000001_Node000005"><a xlink:title=" ">
<path fill="none" stroke="#63b8ff" d="M1030.2,-329.73C1020.72,-295.42 981.26,-169.27 899.5,-110 846.88,-71.86 768.31,-65.13 724.33,-64.65"/>
<polygon fill="#63b8ff" stroke="#63b8ff" points="724.2,-61.15 714.2,-64.64 724.19,-68.15 724.2,-61.15"/>
</a>
</g>
</g>
<!-- Node6 -->
<g id="Node000006" class="node">
<title>Node6</title>
<g id="a_Node000006"><a xlink:href="channel_8h.html" target="_top" xlink:title=" ">
<polygon fill="white" stroke="#666666" points="335,-239 228,-239 228,-220 335,-220 335,-239"/>
<text text-anchor="middle" x="281.5" y="-227" font-family="Helvetica,sans-Serif" font-size="10.00">Channel/channel.h</text>
</a>
</g>
</g>
<!-- Node1&#45;&gt;Node6 -->
<g id="edge5_Node000001_Node000006" class="edge">
<title>Node1&#45;&gt;Node6</title>
<g id="a_edge5_Node000001_Node000006"><a xlink:title=" ">
<path fill="none" stroke="#63b8ff" d="M972.99,-337.47C836.98,-334.61 506.93,-324.63 400.5,-294 363.51,-283.36 324.97,-260.21 302.11,-244.99"/>
<polygon fill="#63b8ff" stroke="#63b8ff" points="303.84,-241.94 293.6,-239.21 299.91,-247.73 303.84,-241.94"/>
</a>
</g>
</g>
<!-- Node12 -->
<g id="Node000012" class="node">
<title>Node12</title>
<g id="a_Node000012"><a xlink:href="transaction_8h_source.html" target="_top" xlink:title=" ">
<polygon fill="white" stroke="#666666" points="792,-184 653,-184 653,-165 792,-165 792,-184"/>
<text text-anchor="middle" x="722.5" y="-172" font-family="Helvetica,sans-Serif" font-size="10.00">Transaction/transaction.h</text>
</a>
</g>
</g>
<!-- Node1&#45;&gt;Node12 -->
<g id="edge50_Node000001_Node000012" class="edge">
<title>Node1&#45;&gt;Node12</title>
<g id="a_edge50_Node000001_Node000012"><a xlink:title=" ">
<path fill="none" stroke="#63b8ff" d="M1016.27,-329.97C965.54,-303.29 809.68,-221.34 748,-188.91"/>
<polygon fill="#63b8ff" stroke="#63b8ff" points="749.42,-185.7 738.94,-184.15 746.17,-191.9 749.42,-185.7"/>
</a>
</g>
</g>
<!-- Node19 -->
<g id="Node000019" class="node">
<title>Node19</title>
<g id="a_Node000019"><a xlink:href="driverModel_8h.html" target="_top" xlink:title=" ">
<polygon fill="white" stroke="#666666" points="627.5,-294 505.5,-294 505.5,-275 627.5,-275 627.5,-294"/>
<text text-anchor="middle" x="566.5" y="-282" font-family="Helvetica,sans-Serif" font-size="10.00">Drivers/driverModel.h</text>
</a>
</g>
</g>
<!-- Node1&#45;&gt;Node19 -->
<g id="edge39_Node000001_Node000019" class="edge">
<title>Node1&#45;&gt;Node19</title>
<g id="a_edge39_Node000001_Node000019"><a xlink:title=" ">
<path fill="none" stroke="#63b8ff" d="M972.53,-331.68C886.76,-321.92 729.32,-304.02 637.73,-293.6"/>
<polygon fill="#63b8ff" stroke="#63b8ff" points="638.05,-290.12 627.72,-292.46 637.26,-297.07 638.05,-290.12"/>
</a>
</g>
</g>
<!-- Node6&#45;&gt;Node2 -->
<g id="edge7_Node000006_Node000002" class="edge">
<title>Node6&#45;&gt;Node2</title>
<g id="a_edge7_Node000006_Node000002"><a xlink:title=" ">
<path fill="none" stroke="#63b8ff" d="M269.21,-219.85C258.96,-211.85 245.03,-198.97 238.5,-184 225.34,-153.83 219.06,-138.52 235.5,-110 259.87,-67.73 283.78,-69.06 330.5,-55 465.83,-14.26 913.59,-10.67 1038.12,-10.47"/>
<polygon fill="#63b8ff" stroke="#63b8ff" points="1038.49,-13.97 1048.49,-10.46 1038.49,-6.97 1038.49,-13.97"/>
</a>
</g>
</g>
<!-- Node6&#45;&gt;Node3 -->
<g id="edge10_Node000006_Node000003" class="edge">
<title>Node6&#45;&gt;Node3</title>
<g id="a_edge10_Node000006_Node000003"><a xlink:title=" ">
<path fill="none" stroke="#63b8ff" d="M285.85,-219.68C298.47,-194.52 335.55,-123.3 357.5,-110 377.77,-97.72 724.68,-74.17 828.42,-67.38"/>
<polygon fill="#63b8ff" stroke="#63b8ff" points="828.75,-70.87 838.5,-66.72 828.29,-63.88 828.75,-70.87"/>
</a>
</g>
</g>
<!-- Node6&#45;&gt;Node4 -->
<g id="edge6_Node000006_Node000004" class="edge">
<title>Node6&#45;&gt;Node4</title>
<g id="a_edge6_Node000006_Node000004"><a xlink:title=" ">
<path fill="none" stroke="#63b8ff" d="M299.56,-219.88C314.83,-212 336.7,-199.26 352.5,-184 366.53,-170.46 378.58,-151.63 386.32,-137.99"/>
<polygon fill="#63b8ff" stroke="#63b8ff" points="389.44,-139.58 391.17,-129.13 383.3,-136.23 389.44,-139.58"/>
</a>
</g>
</g>
<!-- Node6&#45;&gt;Node5 -->
<g id="edge11_Node000006_Node000005" class="edge">
<title>Node6&#45;&gt;Node5</title>
<g id="a_edge11_Node000006_Node000005"><a xlink:title=" ">
<path fill="none" stroke="#63b8ff" d="M281.74,-219.92C282.87,-197.69 289.21,-138.06 324.5,-110 376.54,-68.63 555.5,-82.01 621.5,-74 633.6,-72.53 646.87,-70.92 658.57,-69.5"/>
<polygon fill="#63b8ff" stroke="#63b8ff" points="659.3,-72.94 668.8,-68.26 658.45,-65.99 659.3,-72.94"/>
</a>
</g>
</g>
<!-- Node7 -->
<g id="Node000007" class="node">
<title>Node7</title>
<g id="a_Node000007"><a xlink:title=" ">
<polygon fill="#e0e0e0" stroke="#999999" points="381,-74 340,-74 340,-55 381,-55 381,-74"/>
<text text-anchor="middle" x="360.5" y="-62" font-family="Helvetica,sans-Serif" font-size="10.00">tuple</text>
</a>
</g>
</g>
<!-- Node6&#45;&gt;Node7 -->
<g id="edge8_Node000006_Node000007" class="edge">
<title>Node6&#45;&gt;Node7</title>
<g id="a_edge8_Node000006_Node000007"><a xlink:title=" ">
<path fill="none" stroke="#63b8ff" d="M272.48,-219.96C264.43,-211.66 253.21,-198.25 248.5,-184 238.18,-152.77 230.03,-137.21 248.5,-110 266.55,-83.41 303.26,-72.71 329.74,-68.4"/>
<polygon fill="#63b8ff" stroke="#63b8ff" points="330.27,-71.86 339.68,-67 329.29,-64.93 330.27,-71.86"/>
</a>
</g>
</g>
<!-- Node8 -->
<g id="Node000008" class="node">
<title>Node8</title>
<g id="a_Node000008"><a xlink:title=" ">
<polygon fill="#e0e0e0" stroke="#999999" points="93,-19 0,-19 0,0 93,0 93,-19"/>
<text text-anchor="middle" x="46.5" y="-7" font-family="Helvetica,sans-Serif" font-size="10.00">unordered_map</text>
</a>
</g>
</g>
<!-- Node6&#45;&gt;Node8 -->
<g id="edge9_Node000006_Node000008" class="edge">
<title>Node6&#45;&gt;Node8</title>
<g id="a_edge9_Node000006_Node000008"><a xlink:title=" ">
<path fill="none" stroke="#63b8ff" d="M227.86,-224.56C171.11,-219.2 86.86,-207.47 65.5,-184 26.12,-140.72 35.34,-64.02 42.24,-28.94"/>
<polygon fill="#63b8ff" stroke="#63b8ff" points="45.68,-29.62 44.34,-19.11 38.83,-28.15 45.68,-29.62"/>
</a>
</g>
</g>
<!-- Node9 -->
<g id="Node000009" class="node">
<title>Node9</title>
<g id="a_Node000009"><a xlink:title=" ">
<polygon fill="#e0e0e0" stroke="#999999" points="627,-19 580,-19 580,0 627,0 627,-19"/>
<text text-anchor="middle" x="603.5" y="-7" font-family="Helvetica,sans-Serif" font-size="10.00">vector</text>
</a>
</g>
</g>
<!-- Node6&#45;&gt;Node9 -->
<g id="edge12_Node000006_Node000009" class="edge">
<title>Node6&#45;&gt;Node9</title>
<g id="a_edge12_Node000006_Node000009"><a xlink:title=" ">
<path fill="none" stroke="#63b8ff" d="M228.38,-219.97C207.33,-213.7 185.15,-202.83 172.5,-184 140.53,-136.41 134.1,-97.57 172.5,-55 199,-25.62 472.98,-14.48 569.82,-11.44"/>
<polygon fill="#63b8ff" stroke="#63b8ff" points="570.05,-14.93 579.94,-11.13 569.84,-7.94 570.05,-14.93"/>
</a>
</g>
</g>
<!-- Node10 -->
<g id="Node000010" class="node">
<title>Node10</title>
<g id="a_Node000010"><a xlink:title=" ">
<polygon fill="#e0e0e0" stroke="#999999" points="120.5,-184 74.5,-184 74.5,-165 120.5,-165 120.5,-184"/>
<text text-anchor="middle" x="97.5" y="-172" font-family="Helvetica,sans-Serif" font-size="10.00">future</text>
</a>
</g>
</g>
<!-- Node6&#45;&gt;Node10 -->
<g id="edge13_Node000006_Node000010" class="edge">
<title>Node6&#45;&gt;Node10</title>
<g id="a_edge13_Node000006_Node000010"><a xlink:title=" ">
<path fill="none" stroke="#63b8ff" d="M251.94,-219.98C218.65,-210.4 164.72,-194.86 130.2,-184.92"/>
<polygon fill="#63b8ff" stroke="#63b8ff" points="131.16,-181.55 120.58,-182.15 129.22,-188.28 131.16,-181.55"/>
</a>
</g>
</g>
<!-- Node11 -->
<g id="Node000011" class="node">
<title>Node11</title>
<g id="a_Node000011"><a xlink:href="types_8h.html" target="_top" xlink:title=" ">
<polygon fill="white" stroke="#666666" points="612,-74 523,-74 523,-55 612,-55 612,-74"/>
<text text-anchor="middle" x="567.5" y="-62" font-family="Helvetica,sans-Serif" font-size="10.00">Library/types.h</text>
</a>
</g>
</g>
<!-- Node6&#45;&gt;Node11 -->
<g id="edge14_Node000006_Node000011" class="edge">
<title>Node6&#45;&gt;Node11</title>
<g id="a_edge14_Node000006_Node000011"><a xlink:title=" ">
<path fill="none" stroke="#63b8ff" d="M278.58,-219.7C271.97,-197.99 258.55,-141.36 286.5,-110 315.63,-77.32 439.17,-68.56 512.39,-66.26"/>
<polygon fill="#63b8ff" stroke="#63b8ff" points="512.92,-69.75 522.82,-65.97 512.72,-62.75 512.92,-69.75"/>
</a>
</g>
</g>
<!-- Node6&#45;&gt;Node12 -->
<g id="edge18_Node000006_Node000012" class="edge">
<title>Node6&#45;&gt;Node12</title>
<g id="a_edge18_Node000006_Node000012"><a xlink:title=" ">
<path fill="none" stroke="#63b8ff" d="M335.13,-222.05C411.94,-212.82 553.8,-195.77 642.88,-185.07"/>
<polygon fill="#63b8ff" stroke="#63b8ff" points="643.43,-188.53 652.94,-183.86 642.59,-181.58 643.43,-188.53"/>
</a>
</g>
</g>
<!-- Node11&#45;&gt;Node2 -->
<g id="edge17_Node000011_Node000002" class="edge">
<title>Node11&#45;&gt;Node2</title>
<g id="a_edge17_Node000011_Node000002"><a xlink:title=" ">
<path fill="none" stroke="#63b8ff" d="M612.14,-58.8C711.96,-48.28 951.29,-23.06 1038.24,-13.9"/>
<polygon fill="#63b8ff" stroke="#63b8ff" points="1038.72,-17.37 1048.3,-12.84 1037.99,-10.41 1038.72,-17.37"/>
</a>
</g>
</g>
<!-- Node11&#45;&gt;Node8 -->
<g id="edge16_Node000011_Node000008" class="edge">
<title>Node11&#45;&gt;Node8</title>
<g id="a_edge16_Node000011_Node000008"><a xlink:title=" ">
<path fill="none" stroke="#63b8ff" d="M522.63,-58.94C427.92,-49.3 207.73,-26.9 103.35,-16.28"/>
<polygon fill="#63b8ff" stroke="#63b8ff" points="103.62,-12.79 93.32,-15.26 102.91,-19.76 103.62,-12.79"/>
</a>
</g>
</g>
<!-- Node11&#45;&gt;Node9 -->
<g id="edge15_Node000011_Node000009" class="edge">
<title>Node11&#45;&gt;Node9</title>
<g id="a_edge15_Node000011_Node000009"><a xlink:title=" ">
<path fill="none" stroke="#63b8ff" d="M573.44,-54.75C578.48,-47.34 585.84,-36.5 592.01,-27.41"/>
<polygon fill="#63b8ff" stroke="#63b8ff" points="594.94,-29.33 597.67,-19.09 589.15,-25.39 594.94,-29.33"/>
</a>
</g>
</g>
<!-- Node12&#45;&gt;Node2 -->
<g id="edge19_Node000012_Node000002" class="edge">
<title>Node12&#45;&gt;Node2</title>
<g id="a_edge19_Node000012_Node000002"><a xlink:title=" ">
<path fill="none" stroke="#63b8ff" d="M792.2,-168.5C836.09,-163.14 892.87,-152.03 938.5,-129 989.38,-103.32 1035.69,-52.83 1057.44,-26.83"/>
<polygon fill="#63b8ff" stroke="#63b8ff" points="1060.21,-28.98 1063.84,-19.02 1054.79,-24.54 1060.21,-28.98"/>
</a>
</g>
</g>
<!-- Node12&#45;&gt;Node3 -->
<g id="edge24_Node000012_Node000003" class="edge">
<title>Node12&#45;&gt;Node3</title>
<g id="a_edge24_Node000012_Node000003"><a xlink:title=" ">
<path fill="none" stroke="#63b8ff" d="M791.13,-164.99C834.94,-157.99 885.96,-146.37 899.5,-129 911.96,-113.02 894.44,-93.41 878.38,-80.25"/>
<polygon fill="#63b8ff" stroke="#63b8ff" points="880.33,-77.34 870.28,-74.01 876.06,-82.88 880.33,-77.34"/>
</a>
</g>
</g>
<!-- Node12&#45;&gt;Node4 -->
<g id="edge22_Node000012_Node000004" class="edge">
<title>Node12&#45;&gt;Node4</title>
<g id="a_edge22_Node000012_Node000004"><a xlink:title=" ">
<path fill="none" stroke="#63b8ff" d="M669.96,-164.98C604.22,-154.33 493.16,-136.33 434.5,-126.82"/>
<polygon fill="#63b8ff" stroke="#63b8ff" points="434.95,-123.35 424.52,-125.2 433.83,-130.26 434.95,-123.35"/>
</a>
</g>
</g>
<!-- Node12&#45;&gt;Node5 -->
<g id="edge20_Node000012_Node000005" class="edge">
<title>Node12&#45;&gt;Node5</title>
<g id="a_edge20_Node000012_Node000005"><a xlink:title=" ">
<path fill="none" stroke="#63b8ff" d="M716.15,-164.8C710.22,-156.18 701.68,-142.36 697.5,-129 693,-114.6 691.59,-97.53 691.25,-84.72"/>
<polygon fill="#63b8ff" stroke="#63b8ff" points="694.75,-84.33 691.19,-74.35 687.75,-84.37 694.75,-84.33"/>
</a>
</g>
</g>
<!-- Node12&#45;&gt;Node9 -->
<g id="edge21_Node000012_Node000009" class="edge">
<title>Node12&#45;&gt;Node9</title>
<g id="a_edge21_Node000012_Node000009"><a xlink:title=" ">
<path fill="none" stroke="#63b8ff" d="M715.65,-164.69C708.72,-155.76 697.76,-141.5 688.5,-129 662.02,-93.23 631.83,-50.71 615.51,-27.58"/>
<polygon fill="#63b8ff" stroke="#63b8ff" points="618.22,-25.35 609.6,-19.19 612.49,-29.38 618.22,-25.35"/>
</a>
</g>
</g>
<!-- Node12&#45;&gt;Node11 -->
<g id="edge27_Node000012_Node000011" class="edge">
<title>Node12&#45;&gt;Node11</title>
<g id="a_edge27_Node000012_Node000011"><a xlink:title=" ">
<path fill="none" stroke="#63b8ff" d="M697.4,-164.95C677.15,-157.35 648.5,-144.98 626.5,-129 608.32,-115.8 591.28,-96.4 580.23,-82.52"/>
<polygon fill="#63b8ff" stroke="#63b8ff" points="582.77,-80.08 573.88,-74.32 577.24,-84.37 582.77,-80.08"/>
</a>
</g>
</g>
<!-- Node13 -->
<g id="Node000013" class="node">
<title>Node13</title>
<g id="a_Node000013"><a xlink:title=" ">
<polygon fill="#e0e0e0" stroke="#999999" points="890.5,-129 842.5,-129 842.5,-110 890.5,-110 890.5,-129"/>
<text text-anchor="middle" x="866.5" y="-117" font-family="Helvetica,sans-Serif" font-size="10.00">mutex</text>
</a>
</g>
</g>
<!-- Node12&#45;&gt;Node13 -->
<g id="edge23_Node000012_Node000013" class="edge">
<title>Node12&#45;&gt;Node13</title>
<g id="a_edge23_Node000012_Node000013"><a xlink:title=" ">
<path fill="none" stroke="#63b8ff" d="M745.64,-164.98C769.32,-156.27 806.37,-142.63 833.21,-132.75"/>
<polygon fill="#63b8ff" stroke="#63b8ff" points="834.77,-135.91 842.94,-129.17 832.35,-129.34 834.77,-135.91"/>
</a>
</g>
</g>
<!-- Node14 -->
<g id="Node000014" class="node">
<title>Node14</title>
<g id="a_Node000014"><a xlink:title=" ">
<polygon fill="#e0e0e0" stroke="#999999" points="574.5,-129 518.5,-129 518.5,-110 574.5,-110 574.5,-129"/>
<text text-anchor="middle" x="546.5" y="-117" font-family="Helvetica,sans-Serif" font-size="10.00">optional</text>
</a>
</g>
</g>
<!-- Node12&#45;&gt;Node14 -->
<g id="edge25_Node000012_Node000014" class="edge">
<title>Node12&#45;&gt;Node14</title>
<g id="a_edge25_Node000012_Node000014"><a xlink:title=" ">
<path fill="none" stroke="#63b8ff" d="M694.22,-164.98C664.46,-156.02 617.43,-141.86 584.46,-131.93"/>
<polygon fill="#63b8ff" stroke="#63b8ff" points="585.29,-128.53 574.71,-128.99 583.27,-135.23 585.29,-128.53"/>
</a>
</g>
</g>
<!-- Node15 -->
<g id="Node000015" class="node">
<title>Node15</title>
<g id="a_Node000015"><a xlink:title=" ">
<polygon fill="#e0e0e0" stroke="#999999" points="989,-74 924,-74 924,-55 989,-55 989,-74"/>
<text text-anchor="middle" x="956.5" y="-62" font-family="Helvetica,sans-Serif" font-size="10.00">functional</text>
</a>
</g>
</g>
<!-- Node12&#45;&gt;Node15 -->
<g id="edge26_Node000012_Node000015" class="edge">
<title>Node12&#45;&gt;Node15</title>
<g id="a_edge26_Node000012_Node000015"><a xlink:title=" ">
<path fill="none" stroke="#63b8ff" d="M792.44,-170.16C831.6,-165.33 879.62,-154.19 915.5,-129 931.58,-117.72 942.87,-97.92 949.48,-83.42"/>
<polygon fill="#63b8ff" stroke="#63b8ff" points="952.79,-84.57 953.46,-74 946.34,-81.85 952.79,-84.57"/>
</a>
</g>
</g>
<!-- Node16 -->
<g id="Node000016" class="node">
<title>Node16</title>
<g id="a_Node000016"><a xlink:href="error_8h.html" target="_top" xlink:title=" ">
<polygon fill="white" stroke="#666666" points="1222,-129 1137,-129 1137,-110 1222,-110 1222,-129"/>
<text text-anchor="middle" x="1179.5" y="-117" font-family="Helvetica,sans-Serif" font-size="10.00">Library/error.h</text>
</a>
</g>
</g>
<!-- Node12&#45;&gt;Node16 -->
<g id="edge28_Node000012_Node000016" class="edge">
<title>Node12&#45;&gt;Node16</title>
<g id="a_edge28_Node000012_Node000016"><a xlink:title=" ">
<path fill="none" stroke="#63b8ff" d="M792.41,-165.39C884.36,-154.73 1043.94,-136.22 1126.55,-126.64"/>
<polygon fill="#63b8ff" stroke="#63b8ff" points="1127.18,-130.09 1136.71,-125.46 1126.37,-123.14 1127.18,-130.09"/>
</a>
</g>
</g>
<!-- Node18 -->
<g id="Node000018" class="node">
<title>Node18</title>
<g id="a_Node000018"><a xlink:href="evaluate_8h.html" target="_top" xlink:title=" ">
<polygon fill="white" stroke="#666666" points="824.5,-129 706.5,-129 706.5,-110 824.5,-110 824.5,-129"/>
<text text-anchor="middle" x="765.5" y="-117" font-family="Helvetica,sans-Serif" font-size="10.00">Evaluator/evaluate.h</text>
</a>
</g>
</g>
<!-- Node12&#45;&gt;Node18 -->
<g id="edge31_Node000012_Node000018" class="edge">
<title>Node12&#45;&gt;Node18</title>
<g id="a_edge31_Node000012_Node000018"><a xlink:title=" ">
<path fill="none" stroke="#63b8ff" d="M729.6,-164.75C735.67,-157.26 744.59,-146.28 752.01,-137.13"/>
<polygon fill="#63b8ff" stroke="#63b8ff" points="754.95,-139.06 758.53,-129.09 749.51,-134.65 754.95,-139.06"/>
</a>
</g>
</g>
<!-- Node16&#45;&gt;Node2 -->
<g id="edge29_Node000016_Node000002" class="edge">
<title>Node16&#45;&gt;Node2</title>
<g id="a_edge29_Node000016_Node000002"><a xlink:title=" ">
<path fill="none" stroke="#63b8ff" d="M1180.22,-109.68C1180.84,-96.39 1180.08,-71.08 1167.5,-55 1151.54,-34.59 1124.07,-23.2 1102.43,-17.06"/>
<polygon fill="#63b8ff" stroke="#63b8ff" points="1103.21,-13.65 1092.65,-14.53 1101.45,-20.43 1103.21,-13.65"/>
</a>
</g>
</g>
<!-- Node17 -->
<g id="Node000017" class="node">
<title>Node17</title>
<g id="a_Node000017"><a xlink:title=" ">
<polygon fill="#e0e0e0" stroke="#999999" points="1158.5,-74 1098.5,-74 1098.5,-55 1158.5,-55 1158.5,-74"/>
<text text-anchor="middle" x="1128.5" y="-62" font-family="Helvetica,sans-Serif" font-size="10.00">iostream</text>
</a>
</g>
</g>
<!-- Node16&#45;&gt;Node17 -->
<g id="edge30_Node000016_Node000017" class="edge">
<title>Node16&#45;&gt;Node17</title>
<g id="a_edge30_Node000016_Node000017"><a xlink:title=" ">
<path fill="none" stroke="#63b8ff" d="M1171.08,-109.75C1163.73,-102.11 1152.87,-90.82 1143.96,-81.56"/>
<polygon fill="#63b8ff" stroke="#63b8ff" points="1146.22,-78.87 1136.76,-74.09 1141.18,-83.72 1146.22,-78.87"/>
</a>
</g>
</g>
<!-- Node18&#45;&gt;Node2 -->
<g id="edge34_Node000018_Node000002" class="edge">
<title>Node18&#45;&gt;Node2</title>
<g id="a_edge34_Node000018_Node000002"><a xlink:title=" ">
<path fill="none" stroke="#63b8ff" d="M771.45,-109.88C781.61,-95.9 803.7,-68.5 829.5,-55 897.84,-19.24 990.25,-11.81 1038.37,-10.52"/>
<polygon fill="#63b8ff" stroke="#63b8ff" points="1038.56,-14.02 1048.49,-10.32 1038.43,-7.02 1038.56,-14.02"/>
</a>
</g>
</g>
<!-- Node18&#45;&gt;Node3 -->
<g id="edge37_Node000018_Node000003" class="edge">
<title>Node18&#45;&gt;Node3</title>
<g id="a_edge37_Node000018_Node000003"><a xlink:title=" ">
<path fill="none" stroke="#63b8ff" d="M780.28,-109.98C794.68,-101.69 816.81,-88.94 833.69,-79.22"/>
<polygon fill="#63b8ff" stroke="#63b8ff" points="835.53,-82.19 842.45,-74.17 832.04,-76.13 835.53,-82.19"/>
</a>
</g>
</g>
<!-- Node18&#45;&gt;Node5 -->
<g id="edge32_Node000018_Node000005" class="edge">
<title>Node18&#45;&gt;Node5</title>
<g id="a_edge32_Node000018_Node000005"><a xlink:title=" ">
<path fill="none" stroke="#63b8ff" d="M753.61,-109.98C742.35,-101.92 725.21,-89.65 711.79,-80.03"/>
<polygon fill="#63b8ff" stroke="#63b8ff" points="713.77,-77.15 703.61,-74.17 709.7,-82.84 713.77,-77.15"/>
</a>
</g>
</g>
<!-- Node18&#45;&gt;Node7 -->
<g id="edge36_Node000018_Node000007" class="edge">
<title>Node18&#45;&gt;Node7</title>
<g id="a_edge36_Node000018_Node000007"><a xlink:title=" ">
<path fill="none" stroke="#63b8ff" d="M706.18,-110.74C618.76,-99.3 458.48,-78.32 391.35,-69.54"/>
<polygon fill="#63b8ff" stroke="#63b8ff" points="391.4,-66.01 381.03,-68.19 390.49,-72.96 391.4,-66.01"/>
</a>
</g>
</g>
<!-- Node18&#45;&gt;Node9 -->
<g id="edge33_Node000018_Node000009" class="edge">
<title>Node18&#45;&gt;Node9</title>
<g id="a_edge33_Node000018_Node000009"><a xlink:title=" ">
<path fill="none" stroke="#63b8ff" d="M761.92,-109.84C755.91,-96.31 742.55,-70.12 723.5,-55 698.26,-34.97 663.11,-23.35 637.37,-17.05"/>
<polygon fill="#63b8ff" stroke="#63b8ff" points="637.85,-13.56 627.32,-14.73 636.28,-20.39 637.85,-13.56"/>
</a>
</g>
</g>
<!-- Node18&#45;&gt;Node11 -->
<g id="edge38_Node000018_Node000011" class="edge">
<title>Node18&#45;&gt;Node11</title>
<g id="a_edge38_Node000018_Node000011"><a xlink:title=" ">
<path fill="none" stroke="#63b8ff" d="M733.69,-109.98C700.01,-100.97 646.7,-86.7 609.58,-76.76"/>
<polygon fill="#63b8ff" stroke="#63b8ff" points="610.13,-73.29 599.56,-74.08 608.32,-80.05 610.13,-73.29"/>
</a>
</g>
</g>
<!-- Node18&#45;&gt;Node15 -->
<g id="edge35_Node000018_Node000015" class="edge">
<title>Node18&#45;&gt;Node15</title>
<g id="a_edge35_Node000018_Node000015"><a xlink:title=" ">
<path fill="none" stroke="#63b8ff" d="M796.19,-109.98C828.67,-100.97 880.1,-86.7 915.91,-76.76"/>
<polygon fill="#63b8ff" stroke="#63b8ff" points="916.87,-80.13 925.57,-74.08 915,-73.38 916.87,-80.13"/>
</a>
</g>
</g>
<!-- Node19&#45;&gt;Node2 -->
<g id="edge42_Node000019_Node000002" class="edge">
<title>Node19&#45;&gt;Node2</title>
<g id="a_edge42_Node000019_Node000002"><a xlink:title=" ">
<path fill="none" stroke="#63b8ff" d="M627.77,-282.04C707.1,-278.93 849.1,-269.24 966.5,-239 1089.99,-207.19 1160.69,-235.06 1231.5,-129 1268.51,-73.57 1159.38,-34.61 1102.55,-18.61"/>
<polygon fill="#63b8ff" stroke="#63b8ff" points="1103.16,-15.15 1092.6,-15.89 1101.32,-21.9 1103.16,-15.15"/>
</a>
</g>
</g>
<!-- Node19&#45;&gt;Node4 -->
<g id="edge40_Node000019_Node000004" class="edge">
<title>Node19&#45;&gt;Node4</title>
<g id="a_edge40_Node000019_Node000004"><a xlink:title=" ">
<path fill="none" stroke="#63b8ff" d="M540.66,-274.98C521.38,-267.68 495.25,-255.69 476.5,-239 447.22,-212.94 450.85,-197.2 428.5,-165 422.06,-155.72 414.58,-145.58 408.37,-137.33"/>
<polygon fill="#63b8ff" stroke="#63b8ff" points="411.07,-135.1 402.24,-129.25 405.49,-139.33 411.07,-135.1"/>
</a>
</g>
</g>
<!-- Node19&#45;&gt;Node5 -->
<g id="edge44_Node000019_Node000005" class="edge">
<title>Node19&#45;&gt;Node5</title>
<g id="a_edge44_Node000019_Node000005"><a xlink:title=" ">
<path fill="none" stroke="#63b8ff" d="M558.69,-274.96C534.95,-247.96 467.8,-163.12 509.5,-110 518.76,-98.21 609.1,-80.32 658.91,-71.23"/>
<polygon fill="#63b8ff" stroke="#63b8ff" points="659.67,-74.65 668.89,-69.43 658.42,-67.76 659.67,-74.65"/>
</a>
</g>
</g>
<!-- Node19&#45;&gt;Node6 -->
<g id="edge46_Node000019_Node000006" class="edge">
<title>Node19&#45;&gt;Node6</title>
<g id="a_edge46_Node000019_Node000006"><a xlink:title=" ">
<path fill="none" stroke="#63b8ff" d="M520.71,-274.98C470.89,-265.72 391.22,-250.9 337.66,-240.94"/>
<polygon fill="#63b8ff" stroke="#63b8ff" points="338.12,-237.47 327.65,-239.08 336.84,-244.35 338.12,-237.47"/>
</a>
</g>
</g>
<!-- Node19&#45;&gt;Node8 -->
<g id="edge43_Node000019_Node000008" class="edge">
<title>Node19&#45;&gt;Node8</title>
<g id="a_edge43_Node000019_Node000008"><a xlink:title=" ">
<path fill="none" stroke="#63b8ff" d="M505.46,-284.4C360.67,-284.91 8.5,-275.84 8.5,-175.5 8.5,-175.5 8.5,-175.5 8.5,-118.5 8.5,-85.02 24.95,-48.84 36.2,-28.01"/>
<polygon fill="#63b8ff" stroke="#63b8ff" points="39.37,-29.53 41.22,-19.1 33.26,-26.1 39.37,-29.53"/>
</a>
</g>
</g>
<!-- Node19&#45;&gt;Node11 -->
<g id="edge48_Node000019_Node000011" class="edge">
<title>Node19&#45;&gt;Node11</title>
<g id="a_edge48_Node000019_Node000011"><a xlink:title=" ">
<path fill="none" stroke="#63b8ff" d="M552.76,-274.83C541.09,-266.82 524.67,-253.93 514.5,-239 480.86,-189.6 444.85,-160.7 476.5,-110 486.15,-94.54 502.91,-84.3 519.43,-77.59"/>
<polygon fill="#63b8ff" stroke="#63b8ff" points="520.9,-80.78 529.08,-74.04 518.48,-74.21 520.9,-80.78"/>
</a>
</g>
</g>
<!-- Node19&#45;&gt;Node12 -->
<g id="edge47_Node000019_Node000012" class="edge">
<title>Node19&#45;&gt;Node12</title>
<g id="a_edge47_Node000019_Node000012"><a xlink:title=" ">
<path fill="none" stroke="#63b8ff" d="M579,-274.84C605.7,-256.36 668.54,-212.86 701.49,-190.05"/>
<polygon fill="#63b8ff" stroke="#63b8ff" points="703.71,-192.77 709.94,-184.2 699.72,-187.01 703.71,-192.77"/>
</a>
</g>
</g>
<!-- Node19&#45;&gt;Node14 -->
<g id="edge41_Node000019_Node000014" class="edge">
<title>Node19&#45;&gt;Node14</title>
<g id="a_edge41_Node000019_Node000014"><a xlink:title=" ">
<path fill="none" stroke="#63b8ff" d="M565.42,-274.74C562.3,-249.31 553.2,-175.08 548.85,-139.69"/>
<polygon fill="#63b8ff" stroke="#63b8ff" points="552.27,-138.81 547.58,-129.31 545.32,-139.66 552.27,-138.81"/>
</a>
</g>
</g>
<!-- Node19&#45;&gt;Node15 -->
<g id="edge45_Node000019_Node000015" class="edge">
<title>Node19&#45;&gt;Node15</title>
<g id="a_edge45_Node000019_Node000015"><a xlink:title=" ">
<path fill="none" stroke="#63b8ff" d="M626.72,-275C709.08,-260.17 856.03,-221.77 938.5,-129 949.44,-116.69 953.77,-98.18 955.46,-84.32"/>
<polygon fill="#63b8ff" stroke="#63b8ff" points="958.98,-84.27 956.35,-74 952.01,-83.67 958.98,-84.27"/>
</a>
</g>
</g>
<!-- Node19&#45;&gt;Node16 -->
<g id="edge49_Node000019_Node000016" class="edge">
<title>Node19&#45;&gt;Node16</title>
<g id="a_edge49_Node000019_Node000016"><a xlink:title=" ">
<path fill="none" stroke="#63b8ff" d="M627.62,-282.12C701.3,-279.09 828.2,-269.46 932.5,-239 955.42,-232.31 1094.38,-163.19 1153.21,-133.71"/>
<polygon fill="#63b8ff" stroke="#63b8ff" points="1154.89,-136.78 1162.26,-129.17 1151.75,-130.53 1154.89,-136.78"/>
</a>
</g>
</g>
</g>
</svg>

<g id="navigator" transform="translate(0 0)" fill="#404254">
  <rect fill="#f2f5e9" fill-opacity="0.5" stroke="#606060" stroke-width=".5" x="0" y="0" width="60" height="60"/>
  <use id="zoomplus" xlink:href="#zoomPlus" x="17" y="9" onmousedown="handleZoom(evt,'in')"/>
  <use id="zoomminus" xlink:href="#zoomMin" x="42" y="9" onmousedown="handleZoom(evt,'out')"/>
  <use id="reset" xlink:href="#resetDef" x="30" y="36" onmousedown="handleReset()"/>
   <use id="arrowup" xlink:href="#arrowUp" x="0" y="0" onmousedown="handlePan(0,-1)"/>
  <use id="arrowright" xlink:href="#arrowRight" x="0" y="0" onmousedown="handlePan(1,0)"/>
  <use id="arrowdown" xlink:href="#arrowDown" x="0" y="0" onmousedown="handlePan(0,1)"/>
  <use id="arrowleft" xlink:href="#arrowLeft" x="0" y="0" onmousedown="handlePan(-1,0)"/>
</g>
<svg viewBox="0 0 15 15" width="100%" height="30px" preserveAspectRatio="xMaxYMin meet">
 <g id="arrow_out" transform="scale(0.3 0.3)">
  <a xlink:href="ref_8h__incl_org.svg" target="_base">
   <rect id="button" ry="5" rx="5" y="6" x="6" height="38" width="38"
        fill="#f2f5e9" fill-opacity="0.5" stroke="#606060" stroke-width="1.0"/>
   <path id="arrow"
     d="M 11.500037,31.436501 C 11.940474,20.09759 22.043105,11.32322 32.158766,21.979434 L 37.068811,17.246167 C 37.068811,17.246167 37.088388,32 37.088388,32 L 22.160133,31.978069 C 22.160133,31.978069 26.997745,27.140456 26.997745,27.140456 C 18.528582,18.264221 13.291696,25.230495 11.500037,31.436501 z"
     style="fill:#404040;"/>
  </a>
 </g>
</svg>

<style type='text/css'>
<![CDATA[
[data-mouse-over-selected='false'] { opacity: 0.7; }
[data-mouse-over-selected='true']  { opacity: 1.0; }
]]>
</style>
<script type="application/ecmascript"><![CDATA[
document.addEventListener('DOMContentLoaded', (event) => {
  highlightEdges();
  highlightAdjacentNodes();
});
]]></script>
</svg>
