<?xml version="1.0" encoding="UTF-8" standalone="no"?>
<!DOCTYPE svg PUBLIC "-//W3C//DTD SVG 1.1//EN"
 "http://www.w3.org/Graphics/SVG/1.1/DTD/svg11.dtd">
<!-- Generated by graphviz version 2.43.0 (0)
 -->
<!-- Title: include/RefPack/ref.h Pages: 1 -->
<svg width="1300pt" height="357pt"
 viewBox="0.00 0.00 1300.00 357.00" xmlns="http://www.w3.org/2000/svg" xmlns:xlink="http://www.w3.org/1999/xlink">
<g id="graph0" class="graph" transform="scale(1 1) rotate(0) translate(4 353)">
<title>include/RefPack/ref.h</title>
<!-- Node1 -->
<g id="Node000001" class="node">
<title>Node1</title>
<g id="a_Node000001"><a xlink:title=" ">
<polygon fill="#999999" stroke="#666666" points="417.5,-349 298.5,-349 298.5,-330 417.5,-330 417.5,-349"/>
<text text-anchor="middle" x="358" y="-337" font-family="Helvetica,sans-Serif" font-size="10.00">include/RefPack/ref.h</text>
</a>
</g>
</g>
<!-- Node2 -->
<g id="Node000002" class="node">
<title>Node2</title>
<g id="a_Node000002"><a xlink:title=" ">
<polygon fill="#e0e0e0" stroke="#999999" points="1129,-19 1085,-19 1085,0 1129,0 1129,-19"/>
<text text-anchor="middle" x="1107" y="-7" font-family="Helvetica,sans-Serif" font-size="10.00">string</text>
</a>
</g>
</g>
<!-- Node1&#45;&gt;Node2 -->
<g id="edge1_Node000001_Node000002" class="edge">
<title>Node1&#45;&gt;Node2</title>
<g id="a_edge1_Node000001_Node000002"><a xlink:title=" ">
<path fill="none" stroke="#63b8ff" d="M417.85,-337.89C623.99,-335.01 1292,-318.85 1292,-230.5 1292,-230.5 1292,-230.5 1292,-118.5 1292,-48.59 1192.26,-23.12 1139.25,-14.52"/>
<polygon fill="#63b8ff" stroke="#63b8ff" points="1139.73,-11.05 1129.32,-13.01 1138.68,-17.97 1139.73,-11.05"/>
</a>
</g>
</g>
<!-- Node3 -->
<g id="Node000003" class="node">
<title>Node3</title>
<g id="a_Node000003"><a xlink:title=" ">
<polygon fill="#e0e0e0" stroke="#999999" points="171,-74 133,-74 133,-55 171,-55 171,-74"/>
<text text-anchor="middle" x="152" y="-62" font-family="Helvetica,sans-Serif" font-size="10.00">map</text>
</a>
</g>
</g>
<!-- Node1&#45;&gt;Node3 -->
<g id="edge2_Node000001_Node000003" class="edge">
<title>Node1&#45;&gt;Node3</title>
<g id="a_edge2_Node000001_Node000003"><a xlink:title=" ">
<path fill="none" stroke="#63b8ff" d="M298.48,-332.92C196.68,-321.71 0,-292.09 0,-230.5 0,-230.5 0,-230.5 0,-173.5 0,-113.86 78.72,-84.13 122.86,-72.14"/>
<polygon fill="#63b8ff" stroke="#63b8ff" points="123.94,-75.48 132.75,-69.6 122.19,-68.7 123.94,-75.48"/>
</a>
</g>
</g>
<!-- Node4 -->
<g id="Node000004" class="node">
<title>Node4</title>
<g id="a_Node000004"><a xlink:title=" ">
<polygon fill="#e0e0e0" stroke="#999999" points="314,-129 256,-129 256,-110 314,-110 314,-129"/>
<text text-anchor="middle" x="285" y="-117" font-family="Helvetica,sans-Serif" font-size="10.00">memory</text>
</a>
</g>
</g>
<!-- Node1&#45;&gt;Node4 -->
<g id="edge3_Node000001_Node000004" class="edge">
<title>Node1&#45;&gt;Node4</title>
<g id="a_edge3_Node000001_Node000004"><a xlink:title=" ">
<path fill="none" stroke="#63b8ff" d="M348.68,-329.9C325.88,-308.16 267.65,-248.13 247,-184 244.41,-175.96 244.08,-172.92 247,-165 251.06,-153.99 259.19,-143.86 266.9,-136.05"/>
<polygon fill="#63b8ff" stroke="#63b8ff" points="269.42,-138.48 274.29,-129.07 264.61,-133.39 269.42,-138.48"/>
</a>
</g>
</g>
<!-- Node5 -->
<g id="Node000005" class="node">
<title>Node5</title>
<g id="a_Node000005"><a xlink:title=" ">
<polygon fill="#e0e0e0" stroke="#999999" points="234.5,-74 189.5,-74 189.5,-55 234.5,-55 234.5,-74"/>
<text text-anchor="middle" x="212" y="-62" font-family="Helvetica,sans-Serif" font-size="10.00">utility</text>
</a>
</g>
</g>
<!-- Node1&#45;&gt;Node5 -->
<g id="edge4_Node000001_Node000005" class="edge">
<title>Node1&#45;&gt;Node5</title>
<g id="a_edge4_Node000001_Node000005"><a xlink:title=" ">
<path fill="none" stroke="#63b8ff" d="M343.32,-329.89C329.92,-321.64 309.99,-308.36 295,-294 250.38,-251.26 233.62,-241.09 210,-184 197.37,-153.47 199.71,-142.87 203,-110 203.85,-101.47 205.61,-92.16 207.34,-84.27"/>
<polygon fill="#63b8ff" stroke="#63b8ff" points="210.8,-84.82 209.68,-74.29 203.99,-83.22 210.8,-84.82"/>
</a>
</g>
</g>
<!-- Node6 -->
<g id="Node000006" class="node">
<title>Node6</title>
<g id="a_Node000006"><a xlink:href="channel_8h.html" target="_top" xlink:title=" ">
<polygon fill="white" stroke="#666666" points="411.5,-239 304.5,-239 304.5,-220 411.5,-220 411.5,-239"/>
<text text-anchor="middle" x="358" y="-227" font-family="Helvetica,sans-Serif" font-size="10.00">Channel/channel.h</text>
</a>
</g>
</g>
<!-- Node1&#45;&gt;Node6 -->
<g id="edge5_Node000001_Node000006" class="edge">
<title>Node1&#45;&gt;Node6</title>
<g id="a_edge5_Node000001_Node000006"><a xlink:title=" ">
<path fill="none" stroke="#63b8ff" d="M358,-329.66C358,-312.17 358,-272.8 358,-249.27"/>
<polygon fill="#63b8ff" stroke="#63b8ff" points="361.5,-249.16 358,-239.16 354.5,-249.16 361.5,-249.16"/>
</a>
</g>
</g>
<!-- Node15 -->
<g id="Node000015" class="node">
<title>Node15</title>
<g id="a_Node000015"><a xlink:href="transaction_8h_source.html" target="_top" xlink:title=" ">
<polygon fill="white" stroke="#666666" points="683.5,-184 544.5,-184 544.5,-165 683.5,-165 683.5,-184"/>
<text text-anchor="middle" x="614" y="-172" font-family="Helvetica,sans-Serif" font-size="10.00">Transaction/transaction.h</text>
</a>
</g>
</g>
<!-- Node1&#45;&gt;Node15 -->
<g id="edge55_Node000001_Node000015" class="edge">
<title>Node1&#45;&gt;Node15</title>
<g id="a_edge55_Node000001_Node000015"><a xlink:title=" ">
<path fill="none" stroke="#63b8ff" d="M371.4,-329.97C412.95,-303.51 539.9,-222.68 591.67,-189.72"/>
<polygon fill="#63b8ff" stroke="#63b8ff" points="593.87,-192.47 600.42,-184.15 590.11,-186.56 593.87,-192.47"/>
</a>
</g>
</g>
<!-- Node20 -->
<g id="Node000020" class="node">
<title>Node20</title>
<g id="a_Node000020"><a xlink:href="driverModel_8h.html" target="_top" xlink:title=" ">
<polygon fill="white" stroke="#666666" points="888,-294 766,-294 766,-275 888,-275 888,-294"/>
<text text-anchor="middle" x="827" y="-282" font-family="Helvetica,sans-Serif" font-size="10.00">Drivers/driverModel.h</text>
</a>
</g>
</g>
<!-- Node1&#45;&gt;Node20 -->
<g id="edge43_Node000001_Node000020" class="edge">
<title>Node1&#45;&gt;Node20</title>
<g id="a_edge43_Node000001_Node000020"><a xlink:title=" ">
<path fill="none" stroke="#63b8ff" d="M417.88,-331.73C504.28,-321.97 663.65,-303.96 755.91,-293.53"/>
<polygon fill="#63b8ff" stroke="#63b8ff" points="756.45,-296.99 766,-292.39 755.67,-290.04 756.45,-296.99"/>
</a>
</g>
</g>
<!-- Node6&#45;&gt;Node2 -->
<g id="edge9_Node000006_Node000002" class="edge">
<title>Node6&#45;&gt;Node2</title>
<g id="a_edge9_Node000006_Node000002"><a xlink:title=" ">
<path fill="none" stroke="#63b8ff" d="M411.67,-228.73C488.87,-227.66 634.96,-220.42 753,-184 870.22,-147.84 885.78,-106.74 997,-55 1022.92,-42.94 1053.05,-30.89 1075.22,-22.37"/>
<polygon fill="#63b8ff" stroke="#63b8ff" points="1076.71,-25.55 1084.8,-18.72 1074.21,-19.01 1076.71,-25.55"/>
</a>
</g>
</g>
<!-- Node6&#45;&gt;Node3 -->
<g id="edge12_Node000006_Node000003" class="edge">
<title>Node6&#45;&gt;Node3</title>
<g id="a_edge12_Node000006_Node000003"><a xlink:title=" ">
<path fill="none" stroke="#63b8ff" d="M306.28,-219.94C279.82,-213.53 248.36,-202.54 225,-184 191.05,-157.06 168.84,-109.69 158.58,-83.75"/>
<polygon fill="#63b8ff" stroke="#63b8ff" points="161.73,-82.18 154.92,-74.07 155.18,-84.66 161.73,-82.18"/>
</a>
</g>
</g>
<!-- Node6&#45;&gt;Node4 -->
<g id="edge7_Node000006_Node000004" class="edge">
<title>Node6&#45;&gt;Node4</title>
<g id="a_edge7_Node000006_Node000004"><a xlink:title=" ">
<path fill="none" stroke="#63b8ff" d="M376.32,-219.83C398.53,-208.11 431.22,-186.24 416,-165 410.41,-157.19 360.66,-141.77 324.12,-131.29"/>
<polygon fill="#63b8ff" stroke="#63b8ff" points="324.78,-127.84 314.21,-128.48 322.87,-134.58 324.78,-127.84"/>
</a>
</g>
</g>
<!-- Node6&#45;&gt;Node5 -->
<g id="edge13_Node000006_Node000005" class="edge">
<title>Node6&#45;&gt;Node5</title>
<g id="a_edge13_Node000006_Node000005"><a xlink:title=" ">
<path fill="none" stroke="#63b8ff" d="M320.3,-219.96C297.16,-213.22 268.02,-201.91 247,-184 225.3,-165.51 222.04,-156.35 214,-129 209.72,-114.43 209.46,-97.17 210.14,-84.32"/>
<polygon fill="#63b8ff" stroke="#63b8ff" points="213.63,-84.58 210.9,-74.35 206.65,-84.05 213.63,-84.58"/>
</a>
</g>
</g>
<!-- Node7 -->
<g id="Node000007" class="node">
<title>Node7</title>
<g id="a_Node000007"><a xlink:title=" ">
<polygon fill="#e0e0e0" stroke="#999999" points="309.5,-184 256.5,-184 256.5,-165 309.5,-165 309.5,-184"/>
<text text-anchor="middle" x="283" y="-172" font-family="Helvetica,sans-Serif" font-size="10.00">iterator</text>
</a>
</g>
</g>
<!-- Node6&#45;&gt;Node7 -->
<g id="edge6_Node000006_Node000007" class="edge">
<title>Node6&#45;&gt;Node7</title>
<g id="a_edge6_Node000006_Node000007"><a xlink:title=" ">
<path fill="none" stroke="#63b8ff" d="M345.95,-219.98C334.54,-211.92 317.17,-199.65 303.57,-190.03"/>
<polygon fill="#63b8ff" stroke="#63b8ff" points="305.46,-187.08 295.27,-184.17 301.42,-192.8 305.46,-187.08"/>
</a>
</g>
</g>
<!-- Node8 -->
<g id="Node000008" class="node">
<title>Node8</title>
<g id="a_Node000008"><a xlink:title=" ">
<polygon fill="#e0e0e0" stroke="#999999" points="380,-129 332,-129 332,-110 380,-110 380,-129"/>
<text text-anchor="middle" x="356" y="-117" font-family="Helvetica,sans-Serif" font-size="10.00">mutex</text>
</a>
</g>
</g>
<!-- Node6&#45;&gt;Node8 -->
<g id="edge8_Node000006_Node000008" class="edge">
<title>Node6&#45;&gt;Node8</title>
<g id="a_edge8_Node000006_Node000008"><a xlink:title=" ">
<path fill="none" stroke="#63b8ff" d="M395.05,-219.93C428.96,-210.19 471.42,-192.05 454,-165 446.54,-153.42 415.17,-140.42 389.9,-131.47"/>
<polygon fill="#63b8ff" stroke="#63b8ff" points="390.83,-128.09 380.23,-128.14 388.55,-134.71 390.83,-128.09"/>
</a>
</g>
</g>
<!-- Node9 -->
<g id="Node000009" class="node">
<title>Node9</title>
<g id="a_Node000009"><a xlink:title=" ">
<polygon fill="#e0e0e0" stroke="#999999" points="815.5,-74 774.5,-74 774.5,-55 815.5,-55 815.5,-74"/>
<text text-anchor="middle" x="795" y="-62" font-family="Helvetica,sans-Serif" font-size="10.00">tuple</text>
</a>
</g>
</g>
<!-- Node6&#45;&gt;Node9 -->
<g id="edge10_Node000006_Node000009" class="edge">
<title>Node6&#45;&gt;Node9</title>
<g id="a_edge10_Node000006_Node000009"><a xlink:title=" ">
<path fill="none" stroke="#63b8ff" d="M411.63,-225.64C478.47,-221.1 595.78,-209.94 693,-184 755.2,-167.4 791.15,-182.47 827,-129 837.25,-113.72 824.71,-94.7 812.45,-81.48"/>
<polygon fill="#63b8ff" stroke="#63b8ff" points="814.6,-78.69 805.06,-74.09 809.65,-83.63 814.6,-78.69"/>
</a>
</g>
</g>
<!-- Node10 -->
<g id="Node000010" class="node">
<title>Node10</title>
<g id="a_Node000010"><a xlink:title=" ">
<polygon fill="#e0e0e0" stroke="#999999" points="685.5,-19 592.5,-19 592.5,0 685.5,0 685.5,-19"/>
<text text-anchor="middle" x="639" y="-7" font-family="Helvetica,sans-Serif" font-size="10.00">unordered_map</text>
</a>
</g>
</g>
<!-- Node6&#45;&gt;Node10 -->
<g id="edge11_Node000006_Node000010" class="edge">
<title>Node6&#45;&gt;Node10</title>
<g id="a_edge11_Node000006_Node000010"><a xlink:title=" ">
<path fill="none" stroke="#63b8ff" d="M304.28,-222.28C272.26,-216.47 232.11,-205.31 202,-184 147.31,-145.29 78.71,-104.37 124,-55 124.96,-53.95 448.89,-26.53 582.45,-15.26"/>
<polygon fill="#63b8ff" stroke="#63b8ff" points="582.82,-18.74 592.49,-14.42 582.23,-11.77 582.82,-18.74"/>
</a>
</g>
</g>
<!-- Node11 -->
<g id="Node000011" class="node">
<title>Node11</title>
<g id="a_Node000011"><a xlink:title=" ">
<polygon fill="#e0e0e0" stroke="#999999" points="526.5,-19 479.5,-19 479.5,0 526.5,0 526.5,-19"/>
<text text-anchor="middle" x="503" y="-7" font-family="Helvetica,sans-Serif" font-size="10.00">vector</text>
</a>
</g>
</g>
<!-- Node6&#45;&gt;Node11 -->
<g id="edge14_Node000006_Node000011" class="edge">
<title>Node6&#45;&gt;Node11</title>
<g id="a_edge14_Node000006_Node000011"><a xlink:title=" ">
<path fill="none" stroke="#63b8ff" d="M304.39,-226.31C250.79,-222.52 166.92,-212.18 100,-184 38.67,-158.17 -20.82,-104.18 24,-55 53.92,-22.17 364.85,-13.18 469.12,-11.07"/>
<polygon fill="#63b8ff" stroke="#63b8ff" points="469.47,-14.56 479.4,-10.87 469.33,-7.57 469.47,-14.56"/>
</a>
</g>
</g>
<!-- Node12 -->
<g id="Node000012" class="node">
<title>Node12</title>
<g id="a_Node000012"><a xlink:title=" ">
<polygon fill="#e0e0e0" stroke="#999999" points="374,-184 328,-184 328,-165 374,-165 374,-184"/>
<text text-anchor="middle" x="351" y="-172" font-family="Helvetica,sans-Serif" font-size="10.00">future</text>
</a>
</g>
</g>
<!-- Node6&#45;&gt;Node12 -->
<g id="edge15_Node000006_Node000012" class="edge">
<title>Node6&#45;&gt;Node12</title>
<g id="a_edge15_Node000006_Node000012"><a xlink:title=" ">
<path fill="none" stroke="#63b8ff" d="M356.84,-219.75C355.93,-212.8 354.61,-202.85 353.46,-194.13"/>
<polygon fill="#63b8ff" stroke="#63b8ff" points="356.91,-193.54 352.13,-184.09 349.97,-194.46 356.91,-193.54"/>
</a>
</g>
</g>
<!-- Node13 -->
<g id="Node000013" class="node">
<title>Node13</title>
<g id="a_Node000013"><a xlink:title=" ">
<polygon fill="#e0e0e0" stroke="#999999" points="1066,-74 1006,-74 1006,-55 1066,-55 1066,-74"/>
<text text-anchor="middle" x="1036" y="-62" font-family="Helvetica,sans-Serif" font-size="10.00">iostream</text>
</a>
</g>
</g>
<!-- Node6&#45;&gt;Node13 -->
<g id="edge16_Node000006_Node000013" class="edge">
<title>Node6&#45;&gt;Node13</title>
<g id="a_edge16_Node000006_Node000013"><a xlink:title=" ">
<path fill="none" stroke="#63b8ff" d="M411.72,-226.72C546.23,-221.94 890.04,-207.54 936,-184 979.98,-161.48 1012.3,-110.33 1027.07,-83.19"/>
<polygon fill="#63b8ff" stroke="#63b8ff" points="1030.31,-84.55 1031.86,-74.07 1024.11,-81.3 1030.31,-84.55"/>
</a>
</g>
</g>
<!-- Node14 -->
<g id="Node000014" class="node">
<title>Node14</title>
<g id="a_Node000014"><a xlink:href="types_8h.html" target="_top" xlink:title=" ">
<polygon fill="white" stroke="#666666" points="683.5,-74 594.5,-74 594.5,-55 683.5,-55 683.5,-74"/>
<text text-anchor="middle" x="639" y="-62" font-family="Helvetica,sans-Serif" font-size="10.00">Library/types.h</text>
</a>
</g>
</g>
<!-- Node6&#45;&gt;Node14 -->
<g id="edge17_Node000006_Node000014" class="edge">
<title>Node6&#45;&gt;Node14</title>
<g id="a_edge17_Node000006_Node000014"><a xlink:title=" ">
<path fill="none" stroke="#63b8ff" d="M366.36,-219.93C377.97,-206.97 396.15,-182.09 383,-165 343.23,-113.33 203.57,-158.63 247,-110 269.05,-85.3 481.43,-72.53 584.04,-67.75"/>
<polygon fill="#63b8ff" stroke="#63b8ff" points="584.38,-71.24 594.21,-67.29 584.06,-64.25 584.38,-71.24"/>
</a>
</g>
</g>
<!-- Node6&#45;&gt;Node15 -->
<g id="edge21_Node000006_Node000015" class="edge">
<title>Node6&#45;&gt;Node15</title>
<g id="a_edge21_Node000006_Node000015"><a xlink:title=" ">
<path fill="none" stroke="#63b8ff" d="M399.13,-219.98C443.6,-210.78 514.55,-196.09 562.65,-186.13"/>
<polygon fill="#63b8ff" stroke="#63b8ff" points="563.46,-189.54 572.55,-184.08 562.04,-182.68 563.46,-189.54"/>
</a>
</g>
</g>
<!-- Node14&#45;&gt;Node2 -->
<g id="edge20_Node000014_Node000002" class="edge">
<title>Node14&#45;&gt;Node2</title>
<g id="a_edge20_Node000014_Node000002"><a xlink:title=" ">
<path fill="none" stroke="#63b8ff" d="M683.87,-58.42C777.8,-47.78 993.17,-23.39 1074.82,-14.14"/>
<polygon fill="#63b8ff" stroke="#63b8ff" points="1075.44,-17.6 1084.98,-12.99 1074.65,-10.64 1075.44,-17.6"/>
</a>
</g>
</g>
<!-- Node14&#45;&gt;Node10 -->
<g id="edge19_Node000014_Node000010" class="edge">
<title>Node14&#45;&gt;Node10</title>
<g id="a_edge19_Node000014_Node000010"><a xlink:title=" ">
<path fill="none" stroke="#63b8ff" d="M639,-54.75C639,-47.8 639,-37.85 639,-29.13"/>
<polygon fill="#63b8ff" stroke="#63b8ff" points="642.5,-29.09 639,-19.09 635.5,-29.09 642.5,-29.09"/>
</a>
</g>
</g>
<!-- Node14&#45;&gt;Node11 -->
<g id="edge18_Node000014_Node000011" class="edge">
<title>Node14&#45;&gt;Node11</title>
<g id="a_edge18_Node000014_Node000011"><a xlink:title=" ">
<path fill="none" stroke="#63b8ff" d="M617.15,-54.98C594.88,-46.3 560.1,-32.75 534.78,-22.88"/>
<polygon fill="#63b8ff" stroke="#63b8ff" points="535.84,-19.54 525.25,-19.17 533.29,-26.06 535.84,-19.54"/>
</a>
</g>
</g>
<!-- Node15&#45;&gt;Node2 -->
<g id="edge24_Node000015_Node000002" class="edge">
<title>Node15&#45;&gt;Node2</title>
<g id="a_edge24_Node000015_Node000002"><a xlink:title=" ">
<path fill="none" stroke="#63b8ff" d="M683.52,-172.96C823.21,-171.16 1127.39,-163.29 1159,-129 1187.03,-98.59 1147.86,-50.64 1123.64,-26.1"/>
<polygon fill="#63b8ff" stroke="#63b8ff" points="1126,-23.51 1116.41,-19.01 1121.1,-28.51 1126,-23.51"/>
</a>
</g>
</g>
<!-- Node15&#45;&gt;Node3 -->
<g id="edge28_Node000015_Node000003" class="edge">
<title>Node15&#45;&gt;Node3</title>
<g id="a_edge28_Node000015_Node000003"><a xlink:title=" ">
<path fill="none" stroke="#63b8ff" d="M557.65,-164.95C518.68,-157.96 466.1,-146.36 422,-129 406.25,-122.8 404.92,-115.75 389,-110 303.29,-79.05 273.68,-94.61 180.97,-73.93"/>
<polygon fill="#63b8ff" stroke="#63b8ff" points="181.73,-70.51 171.19,-71.67 180.15,-77.33 181.73,-70.51"/>
</a>
</g>
</g>
<!-- Node15&#45;&gt;Node4 -->
<g id="edge27_Node000015_Node000004" class="edge">
<title>Node15&#45;&gt;Node4</title>
<g id="a_edge27_Node000015_Node000004"><a xlink:title=" ">
<path fill="none" stroke="#63b8ff" d="M549.92,-164.98C493.07,-157.14 407.54,-144.62 323.93,-129.06"/>
<polygon fill="#63b8ff" stroke="#63b8ff" points="324.48,-125.61 314,-127.2 323.19,-132.49 324.48,-125.61"/>
</a>
</g>
</g>
<!-- Node15&#45;&gt;Node5 -->
<g id="edge25_Node000015_Node000005" class="edge">
<title>Node15&#45;&gt;Node5</title>
<g id="a_edge25_Node000015_Node000005"><a xlink:title=" ">
<path fill="none" stroke="#63b8ff" d="M583.99,-164.96C554.71,-156.46 509,-142.72 470,-129 448.36,-121.39 443.97,-116.62 422,-110 360.46,-91.44 286.51,-77.69 244.82,-70.69"/>
<polygon fill="#63b8ff" stroke="#63b8ff" points="245.13,-67.2 234.69,-69.02 243.99,-74.1 245.13,-67.2"/>
</a>
</g>
</g>
<!-- Node15&#45;&gt;Node8 -->
<g id="edge23_Node000015_Node000008" class="edge">
<title>Node15&#45;&gt;Node8</title>
<g id="a_edge23_Node000015_Node000008"><a xlink:title=" ">
<path fill="none" stroke="#63b8ff" d="M570.53,-164.98C526.12,-156.21 455.17,-142.03 394,-129 392.74,-128.73 391.45,-128.45 390.15,-128.17"/>
<polygon fill="#63b8ff" stroke="#63b8ff" points="390.62,-124.69 380.11,-125.97 389.12,-131.53 390.62,-124.69"/>
</a>
</g>
</g>
<!-- Node15&#45;&gt;Node11 -->
<g id="edge26_Node000015_Node000011" class="edge">
<title>Node15&#45;&gt;Node11</title>
<g id="a_edge26_Node000015_Node000011"><a xlink:title=" ">
<path fill="none" stroke="#63b8ff" d="M559.07,-164.96C537.89,-158.69 515.74,-147.83 503,-129 482.62,-98.87 490.39,-53.82 497.15,-28.84"/>
<polygon fill="#63b8ff" stroke="#63b8ff" points="500.53,-29.77 499.99,-19.19 493.81,-27.79 500.53,-29.77"/>
</a>
</g>
</g>
<!-- Node15&#45;&gt;Node13 -->
<g id="edge22_Node000015_Node000013" class="edge">
<title>Node15&#45;&gt;Node13</title>
<g id="a_edge22_Node000015_Node000013"><a xlink:title=" ">
<path fill="none" stroke="#63b8ff" d="M634.25,-164.92C654.74,-156.16 687.25,-142.04 715,-129 732.09,-120.97 735.02,-115.76 753,-110 836.88,-83.15 940.13,-72.15 995.82,-67.92"/>
<polygon fill="#63b8ff" stroke="#63b8ff" points="996.25,-71.4 1005.97,-67.19 995.75,-64.42 996.25,-71.4"/>
</a>
</g>
</g>
<!-- Node15&#45;&gt;Node14 -->
<g id="edge31_Node000015_Node000014" class="edge">
<title>Node15&#45;&gt;Node14</title>
<g id="a_edge31_Node000015_Node000014"><a xlink:title=" ">
<path fill="none" stroke="#63b8ff" d="M620.63,-164.88C626.76,-156.32 635.46,-142.54 639,-129 642.84,-114.32 642.55,-97.06 641.46,-84.25"/>
<polygon fill="#63b8ff" stroke="#63b8ff" points="644.94,-83.87 640.38,-74.31 637.98,-84.62 644.94,-83.87"/>
</a>
</g>
</g>
<!-- Node16 -->
<g id="Node000016" class="node">
<title>Node16</title>
<g id="a_Node000016"><a xlink:title=" ">
<polygon fill="#e0e0e0" stroke="#999999" points="818,-129 762,-129 762,-110 818,-110 818,-129"/>
<text text-anchor="middle" x="790" y="-117" font-family="Helvetica,sans-Serif" font-size="10.00">optional</text>
</a>
</g>
</g>
<!-- Node15&#45;&gt;Node16 -->
<g id="edge29_Node000015_Node000016" class="edge">
<title>Node15&#45;&gt;Node16</title>
<g id="a_edge29_Node000015_Node000016"><a xlink:title=" ">
<path fill="none" stroke="#63b8ff" d="M642.28,-164.98C672.04,-156.02 719.07,-141.86 752.04,-131.93"/>
<polygon fill="#63b8ff" stroke="#63b8ff" points="753.23,-135.23 761.79,-128.99 751.21,-128.53 753.23,-135.23"/>
</a>
</g>
</g>
<!-- Node17 -->
<g id="Node000017" class="node">
<title>Node17</title>
<g id="a_Node000017"><a xlink:title=" ">
<polygon fill="#e0e0e0" stroke="#999999" points="898.5,-74 833.5,-74 833.5,-55 898.5,-55 898.5,-74"/>
<text text-anchor="middle" x="866" y="-62" font-family="Helvetica,sans-Serif" font-size="10.00">functional</text>
</a>
</g>
</g>
<!-- Node15&#45;&gt;Node17 -->
<g id="edge30_Node000015_Node000017" class="edge">
<title>Node15&#45;&gt;Node17</title>
<g id="a_edge30_Node000015_Node000017"><a xlink:title=" ">
<path fill="none" stroke="#63b8ff" d="M626.19,-164.84C645.37,-151.53 684.12,-125.93 720,-110 753.58,-95.09 793.61,-83.28 823.26,-75.58"/>
<polygon fill="#63b8ff" stroke="#63b8ff" points="824.46,-78.89 833.28,-73.03 822.73,-72.11 824.46,-78.89"/>
</a>
</g>
</g>
<!-- Node18 -->
<g id="Node000018" class="node">
<title>Node18</title>
<g id="a_Node000018"><a xlink:href="error_8h.html" target="_top" xlink:title=" ">
<polygon fill="white" stroke="#666666" points="1149.5,-129 1064.5,-129 1064.5,-110 1149.5,-110 1149.5,-129"/>
<text text-anchor="middle" x="1107" y="-117" font-family="Helvetica,sans-Serif" font-size="10.00">Library/error.h</text>
</a>
</g>
</g>
<!-- Node15&#45;&gt;Node18 -->
<g id="edge32_Node000015_Node000018" class="edge">
<title>Node15&#45;&gt;Node18</title>
<g id="a_edge32_Node000015_Node000018"><a xlink:title=" ">
<path fill="none" stroke="#63b8ff" d="M683.59,-166.02C783.29,-155.3 964.6,-135.81 1054.11,-126.19"/>
<polygon fill="#63b8ff" stroke="#63b8ff" points="1054.73,-129.64 1064.3,-125.09 1053.98,-122.68 1054.73,-129.64"/>
</a>
</g>
</g>
<!-- Node19 -->
<g id="Node000019" class="node">
<title>Node19</title>
<g id="a_Node000019"><a xlink:href="evaluate_8h.html" target="_top" xlink:title=" ">
<polygon fill="white" stroke="#666666" points="630,-129 512,-129 512,-110 630,-110 630,-129"/>
<text text-anchor="middle" x="571" y="-117" font-family="Helvetica,sans-Serif" font-size="10.00">Evaluator/evaluate.h</text>
</a>
</g>
</g>
<!-- Node15&#45;&gt;Node19 -->
<g id="edge35_Node000015_Node000019" class="edge">
<title>Node15&#45;&gt;Node19</title>
<g id="a_edge35_Node000015_Node000019"><a xlink:title=" ">
<path fill="none" stroke="#63b8ff" d="M606.9,-164.75C600.83,-157.26 591.91,-146.28 584.49,-137.13"/>
<polygon fill="#63b8ff" stroke="#63b8ff" points="586.99,-134.65 577.97,-129.09 581.55,-139.06 586.99,-134.65"/>
</a>
</g>
</g>
<!-- Node18&#45;&gt;Node2 -->
<g id="edge33_Node000018_Node000002" class="edge">
<title>Node18&#45;&gt;Node2</title>
<g id="a_edge33_Node000018_Node000002"><a xlink:title=" ">
<path fill="none" stroke="#63b8ff" d="M1107,-109.66C1107,-92.17 1107,-52.8 1107,-29.27"/>
<polygon fill="#63b8ff" stroke="#63b8ff" points="1110.5,-29.16 1107,-19.16 1103.5,-29.16 1110.5,-29.16"/>
</a>
</g>
</g>
<!-- Node18&#45;&gt;Node13 -->
<g id="edge34_Node000018_Node000013" class="edge">
<title>Node18&#45;&gt;Node13</title>
<g id="a_edge34_Node000018_Node000013"><a xlink:title=" ">
<path fill="none" stroke="#63b8ff" d="M1095.59,-109.98C1084.89,-102 1068.66,-89.88 1055.84,-80.31"/>
<polygon fill="#63b8ff" stroke="#63b8ff" points="1057.72,-77.35 1047.61,-74.17 1053.53,-82.96 1057.72,-77.35"/>
</a>
</g>
</g>
<!-- Node19&#45;&gt;Node2 -->
<g id="edge38_Node000019_Node000002" class="edge">
<title>Node19&#45;&gt;Node2</title>
<g id="a_edge38_Node000019_Node000002"><a xlink:title=" ">
<path fill="none" stroke="#63b8ff" d="M592.85,-109.91C628.53,-96.22 701.75,-69.52 766,-55 877.79,-29.73 1013.68,-17.34 1074.66,-12.72"/>
<polygon fill="#63b8ff" stroke="#63b8ff" points="1075.09,-16.19 1084.81,-11.97 1074.58,-9.21 1075.09,-16.19"/>
</a>
</g>
</g>
<!-- Node19&#45;&gt;Node3 -->
<g id="edge41_Node000019_Node000003" class="edge">
<title>Node19&#45;&gt;Node3</title>
<g id="a_edge41_Node000019_Node000003"><a xlink:title=" ">
<path fill="none" stroke="#63b8ff" d="M511.85,-115.12C436.84,-110.09 303.51,-98.67 181.08,-73.86"/>
<polygon fill="#63b8ff" stroke="#63b8ff" points="181.66,-70.41 171.16,-71.82 180.25,-77.26 181.66,-70.41"/>
</a>
</g>
</g>
<!-- Node19&#45;&gt;Node5 -->
<g id="edge36_Node000019_Node000005" class="edge">
<title>Node19&#45;&gt;Node5</title>
<g id="a_edge36_Node000019_Node000005"><a xlink:title=" ">
<path fill="none" stroke="#63b8ff" d="M513.32,-109.98C437.22,-98.75 305.81,-79.35 244.84,-70.35"/>
<polygon fill="#63b8ff" stroke="#63b8ff" points="245.05,-66.84 234.64,-68.84 244.02,-73.77 245.05,-66.84"/>
</a>
</g>
</g>
<!-- Node19&#45;&gt;Node9 -->
<g id="edge40_Node000019_Node000009" class="edge">
<title>Node19&#45;&gt;Node9</title>
<g id="a_edge40_Node000019_Node000009"><a xlink:title=" ">
<path fill="none" stroke="#63b8ff" d="M606.99,-109.98C650.56,-99.67 723.2,-82.49 764.26,-72.77"/>
<polygon fill="#63b8ff" stroke="#63b8ff" points="765.3,-76.12 774.23,-70.41 763.69,-69.31 765.3,-76.12"/>
</a>
</g>
</g>
<!-- Node19&#45;&gt;Node11 -->
<g id="edge37_Node000019_Node000011" class="edge">
<title>Node19&#45;&gt;Node11</title>
<g id="a_edge37_Node000019_Node000011"><a xlink:title=" ">
<path fill="none" stroke="#63b8ff" d="M565.44,-109.66C554.17,-91.77 528.5,-51 513.83,-27.69"/>
<polygon fill="#63b8ff" stroke="#63b8ff" points="516.74,-25.76 508.45,-19.16 510.82,-29.49 516.74,-25.76"/>
</a>
</g>
</g>
<!-- Node19&#45;&gt;Node14 -->
<g id="edge42_Node000019_Node000014" class="edge">
<title>Node19&#45;&gt;Node14</title>
<g id="a_edge42_Node000019_Node000014"><a xlink:title=" ">
<path fill="none" stroke="#63b8ff" d="M581.93,-109.98C592.08,-102.07 607.42,-90.11 619.65,-80.58"/>
<polygon fill="#63b8ff" stroke="#63b8ff" points="622.14,-83.08 627.88,-74.17 617.84,-77.56 622.14,-83.08"/>
</a>
</g>
</g>
<!-- Node19&#45;&gt;Node17 -->
<g id="edge39_Node000019_Node000017" class="edge">
<title>Node19&#45;&gt;Node17</title>
<g id="a_edge39_Node000019_Node000017"><a xlink:title=" ">
<path fill="none" stroke="#63b8ff" d="M622.65,-109.93C671.83,-101.67 748.17,-88.56 823.24,-74.29"/>
<polygon fill="#63b8ff" stroke="#63b8ff" points="824.18,-77.68 833.34,-72.37 822.87,-70.8 824.18,-77.68"/>
</a>
</g>
</g>
<!-- Node20&#45;&gt;Node2 -->
<g id="edge46_Node000020_Node000002" class="edge">
<title>Node20&#45;&gt;Node2</title>
<g id="a_edge46_Node000020_Node000002"><a xlink:title=" ">
<path fill="none" stroke="#63b8ff" d="M888.18,-280.73C1006.25,-273.69 1254,-250.05 1254,-175.5 1254,-175.5 1254,-175.5 1254,-118.5 1254,-61.77 1182.02,-31.55 1138.8,-18.52"/>
<polygon fill="#63b8ff" stroke="#63b8ff" points="1139.58,-15.1 1129.01,-15.71 1137.65,-21.83 1139.58,-15.1"/>
</a>
</g>
</g>
<!-- Node20&#45;&gt;Node4 -->
<g id="edge44_Node000020_Node000004" class="edge">
<title>Node20&#45;&gt;Node4</title>
<g id="a_edge44_Node000020_Node000004"><a xlink:title=" ">
<path fill="none" stroke="#63b8ff" d="M798.62,-274.97C708.09,-247.74 426.04,-162.91 323.1,-131.96"/>
<polygon fill="#63b8ff" stroke="#63b8ff" points="324.01,-128.58 313.42,-129.05 321.99,-135.28 324.01,-128.58"/>
</a>
</g>
</g>
<!-- Node20&#45;&gt;Node5 -->
<g id="edge49_Node000020_Node000005" class="edge">
<title>Node20&#45;&gt;Node5</title>
<g id="a_edge49_Node000020_Node000005"><a xlink:title=" ">
<path fill="none" stroke="#63b8ff" d="M765.57,-282.77C644.43,-280.6 379.2,-272.12 295,-239 258.18,-224.52 247.68,-216.42 225,-184 205.59,-156.27 205.11,-143.79 207,-110 207.48,-101.45 208.47,-92.03 209.45,-84.06"/>
<polygon fill="#63b8ff" stroke="#63b8ff" points="212.93,-84.38 210.76,-74.01 205.99,-83.47 212.93,-84.38"/>
</a>
</g>
</g>
<!-- Node20&#45;&gt;Node6 -->
<g id="edge51_Node000020_Node000006" class="edge">
<title>Node20&#45;&gt;Node6</title>
<g id="a_edge51_Node000020_Node000006"><a xlink:title=" ">
<path fill="none" stroke="#63b8ff" d="M765.69,-276.57C676.63,-266.51 512.27,-247.93 421.82,-237.71"/>
<polygon fill="#63b8ff" stroke="#63b8ff" points="422.03,-234.21 411.7,-236.57 421.25,-241.17 422.03,-234.21"/>
</a>
</g>
</g>
<!-- Node20&#45;&gt;Node9 -->
<g id="edge47_Node000020_Node000009" class="edge">
<title>Node20&#45;&gt;Node9</title>
<g id="a_edge47_Node000020_Node000009"><a xlink:title=" ">
<path fill="none" stroke="#63b8ff" d="M836.02,-274.96C844.07,-266.66 855.29,-253.25 860,-239 862.65,-230.98 860.68,-228.42 860,-220 855.99,-170.62 865.2,-153.77 842,-110 835.81,-98.33 825.4,-87.99 815.94,-80.23"/>
<polygon fill="#63b8ff" stroke="#63b8ff" points="818.06,-77.44 808.01,-74.09 813.78,-82.98 818.06,-77.44"/>
</a>
</g>
</g>
<!-- Node20&#45;&gt;Node10 -->
<g id="edge48_Node000020_Node000010" class="edge">
<title>Node20&#45;&gt;Node10</title>
<g id="a_edge48_Node000020_Node000010"><a xlink:title=" ">
<path fill="none" stroke="#63b8ff" d="M888.21,-279.2C997.76,-269.82 1216,-242.7 1216,-175.5 1216,-175.5 1216,-175.5 1216,-118.5 1216,-49.77 1141.38,-72.83 1075,-55 942.38,-19.38 780.06,-11.86 695.83,-10.53"/>
<polygon fill="#63b8ff" stroke="#63b8ff" points="695.75,-7.03 685.7,-10.4 695.66,-14.03 695.75,-7.03"/>
</a>
</g>
</g>
<!-- Node20&#45;&gt;Node14 -->
<g id="edge53_Node000020_Node000014" class="edge">
<title>Node20&#45;&gt;Node14</title>
<g id="a_edge53_Node000020_Node000014"><a xlink:title=" ">
<path fill="none" stroke="#63b8ff" d="M830.39,-274.7C840.45,-246.95 867.03,-160.14 827,-110 810.51,-89.34 743.04,-77.25 693.63,-71.01"/>
<polygon fill="#63b8ff" stroke="#63b8ff" points="694.05,-67.53 683.7,-69.8 693.2,-74.48 694.05,-67.53"/>
</a>
</g>
</g>
<!-- Node20&#45;&gt;Node15 -->
<g id="edge52_Node000020_Node000015" class="edge">
<title>Node20&#45;&gt;Node15</title>
<g id="a_edge52_Node000020_Node000015"><a xlink:title=" ">
<path fill="none" stroke="#63b8ff" d="M809.93,-274.84C772.68,-255.96 683.93,-210.96 639.81,-188.59"/>
<polygon fill="#63b8ff" stroke="#63b8ff" points="641.36,-185.45 630.86,-184.05 638.19,-191.69 641.36,-185.45"/>
</a>
</g>
</g>
<!-- Node20&#45;&gt;Node16 -->
<g id="edge45_Node000020_Node000016" class="edge">
<title>Node20&#45;&gt;Node16</title>
<g id="a_edge45_Node000020_Node000016"><a xlink:title=" ">
<path fill="none" stroke="#63b8ff" d="M825.01,-274.74C819.21,-249.2 802.24,-174.43 794.25,-139.23"/>
<polygon fill="#63b8ff" stroke="#63b8ff" points="797.63,-138.28 792,-129.31 790.8,-139.83 797.63,-138.28"/>
</a>
</g>
</g>
<!-- Node20&#45;&gt;Node17 -->
<g id="edge50_Node000020_Node000017" class="edge">
<title>Node20&#45;&gt;Node17</title>
<g id="a_edge50_Node000020_Node000017"><a xlink:title=" ">
<path fill="none" stroke="#63b8ff" d="M841.07,-274.89C852.35,-267.1 867.34,-254.48 874,-239 896.59,-186.49 881.34,-116.61 871.9,-83.88"/>
<polygon fill="#63b8ff" stroke="#63b8ff" points="875.24,-82.83 868.99,-74.28 868.54,-84.87 875.24,-82.83"/>
</a>
</g>
</g>
<!-- Node20&#45;&gt;Node18 -->
<g id="edge54_Node000020_Node000018" class="edge">
<title>Node20&#45;&gt;Node18</title>
<g id="a_edge54_Node000020_Node000018"><a xlink:title=" ">
<path fill="none" stroke="#63b8ff" d="M888.1,-277.46C945.18,-270.74 1025.2,-258.24 1050,-239 1082.36,-213.9 1097.35,-165.8 1103.43,-139.25"/>
<polygon fill="#63b8ff" stroke="#63b8ff" points="1106.89,-139.83 1105.52,-129.32 1100.04,-138.39 1106.89,-139.83"/>
</a>
</g>
</g>
</g>
</svg>
