<?xml version="1.0" encoding="UTF-8" standalone="no"?>
<!DOCTYPE svg PUBLIC "-//W3C//DTD SVG 1.1//EN"
 "http://www.w3.org/Graphics/SVG/1.1/DTD/svg11.dtd">
<!-- Generated by graphviz version 2.43.0 (0)
 -->
<!-- Title: include/RefPack/ref.h Pages: 1 -->
<!--zoomable 357 -->

<svg id="main" version="1.1" xmlns="http://www.w3.org/2000/svg" xmlns:xlink="http://www.w3.org/1999/xlink" xml:space="preserve" onload="init(evt)">
<style type="text/css"><![CDATA[
.node, .edge {opacity: 0.7;}
.node.selected, .edge.selected {opacity: 1;}
.edge:hover path { stroke: red; }
.edge:hover polygon { stroke: red; fill: red; }
]]></style>

<defs>
  <circle id="rim" cx="0" cy="0" r="7"/>
  <circle id="rim2" cx="0" cy="0" r="3.5"/>
  <g id="zoomPlus">
    <use xlink:href="#rim" fill="#404040"><set attributeName="fill" to="#808080" begin="zoomplus.mouseover" end="zoomplus.mouseout"/></use>
    <path d="M-4,0h8M0,-4v8" fill="none" stroke="white" stroke-width="1.5" pointer-events="none"/>
  </g>
  <g id="zoomMin">
    <use xlink:href="#rim" fill="#404040"><set attributeName="fill" to="#808080" begin="zoomminus.mouseover" end="zoomminus.mouseout"/></use>
    <path d="M-4,0h8" fill="none" stroke="white" stroke-width="1.5" pointer-events="none"/>
  </g>
  <g id="arrowUp" transform="translate(30 24)">
    <use xlink:href="#rim"/>
    <path pointer-events="none" fill="none" stroke="white" stroke-width="1.5" d="M0,-3.0v7 M-2.5,-0.5L0,-3.0L2.5,-0.5"/>
  </g>
  <g id="arrowRight" transform="rotate(90) translate(36 -43)">
    <use xlink:href="#rim"/>
    <path pointer-events="none" fill="none" stroke="white" stroke-width="1.5" d="M0,-3.0v7 M-2.5,-0.5L0,-3.0L2.5,-0.5"/>
  </g>
  <g id="arrowDown" transform="rotate(180) translate(-30 -48)">
    <use xlink:href="#rim"/>
    <path pointer-events="none" fill="none" stroke="white" stroke-width="1.5" d="M0,-3.0v7 M-2.5,-0.5L0,-3.0L2.5,-0.5"/>
  </g>
  <g id="arrowLeft" transform="rotate(270) translate(-36 17)">
    <use xlink:href="#rim"/>
    <path pointer-events="none" fill="none" stroke="white" stroke-width="1.5" d="M0,-3.0v7 M-2.5,-0.5L0,-3.0L2.5,-0.5"/>
  </g>
  <g id="resetDef">
    <use xlink:href="#rim2" fill="#404040"><set attributeName="fill" to="#808080" begin="reset.mouseover" end="reset.mouseout"/></use>
  </g>
</defs>
<script type="application/ecmascript">
var viewWidth = 1350;
var viewHeight = 357;
var sectionId = 'dynsection-0';
</script>
<script type="application/ecmascript" xlink:href="svg.min.js"/>
<svg id="graph" class="graph">
<g id="viewport">
<title>include/RefPack/ref.h</title>
<!-- Node1 -->
<g id="Node000001" class="node">
<title>Node1</title>
<g id="a_Node000001"><a xlink:title=" ">
<polygon fill="#999999" stroke="#666666" points="527.65,-349 408.65,-349 408.65,-330 527.65,-330 527.65,-349"/>
<text text-anchor="middle" x="468.15" y="-337" font-family="Helvetica,sans-Serif" font-size="10.00">include/RefPack/ref.h</text>
</a>
</g>
</g>
<!-- Node2 -->
<g id="Node000002" class="node">
<title>Node2</title>
<g id="a_Node000002"><a xlink:title=" ">
<polygon fill="#e0e0e0" stroke="#999999" points="882.15,-19 838.15,-19 838.15,0 882.15,0 882.15,-19"/>
<text text-anchor="middle" x="860.15" y="-7" font-family="Helvetica,sans-Serif" font-size="10.00">string</text>
</a>
</g>
</g>
<!-- Node1&#45;&gt;Node2 -->
<g id="edge1_Node000001_Node000002" class="edge">
<title>Node1&#45;&gt;Node2</title>
<g id="a_edge1_Node000001_Node000002"><a xlink:title=" ">
<path fill="none" stroke="#63b8ff" d="M527.88,-337.41C724.97,-333.02 1342.15,-312.73 1342.15,-230.5 1342.15,-230.5 1342.15,-230.5 1342.15,-118.5 1342.15,-75.5 1308.55,-72.23 1269.15,-55 1201.53,-25.44 976.54,-14.6 892.34,-11.53"/>
<polygon fill="#63b8ff" stroke="#63b8ff" points="892.44,-8.03 882.33,-11.17 892.2,-15.02 892.44,-8.03"/>
</a>
</g>
</g>
<!-- Node3 -->
<g id="Node000003" class="node">
<title>Node3</title>
<g id="a_Node000003"><a xlink:title=" ">
<polygon fill="#e0e0e0" stroke="#999999" points="376.15,-74 338.15,-74 338.15,-55 376.15,-55 376.15,-74"/>
<text text-anchor="middle" x="357.15" y="-62" font-family="Helvetica,sans-Serif" font-size="10.00">map</text>
</a>
</g>
</g>
<!-- Node1&#45;&gt;Node3 -->
<g id="edge2_Node000001_Node000003" class="edge">
<title>Node1&#45;&gt;Node3</title>
<g id="a_edge2_Node000001_Node000003"><a xlink:title=" ">
<path fill="none" stroke="#63b8ff" d="M408.61,-335.19C318.27,-326.58 149.18,-295.58 74.15,-184 11.51,-90.84 243.83,-70.75 327.89,-66.57"/>
<polygon fill="#63b8ff" stroke="#63b8ff" points="328.23,-70.05 338.06,-66.1 327.91,-63.06 328.23,-70.05"/>
</a>
</g>
</g>
<!-- Node4 -->
<g id="Node000004" class="node">
<title>Node4</title>
<g id="a_Node000004"><a xlink:title=" ">
<polygon fill="#e0e0e0" stroke="#999999" points="402.15,-129 344.15,-129 344.15,-110 402.15,-110 402.15,-129"/>
<text text-anchor="middle" x="373.15" y="-117" font-family="Helvetica,sans-Serif" font-size="10.00">memory</text>
</a>
</g>
</g>
<!-- Node1&#45;&gt;Node4 -->
<g id="edge3_Node000001_Node000004" class="edge">
<title>Node1&#45;&gt;Node4</title>
<g id="a_edge3_Node000001_Node000004"><a xlink:title=" ">
<path fill="none" stroke="#63b8ff" d="M464.43,-329.95C450.39,-297.74 400.49,-183.23 381.01,-138.55"/>
<polygon fill="#63b8ff" stroke="#63b8ff" points="384.16,-136.99 376.95,-129.22 377.74,-139.79 384.16,-136.99"/>
</a>
</g>
</g>
<!-- Node5 -->
<g id="Node000005" class="node">
<title>Node5</title>
<g id="a_Node000005"><a xlink:title=" ">
<polygon fill="#e0e0e0" stroke="#999999" points="958.65,-74 913.65,-74 913.65,-55 958.65,-55 958.65,-74"/>
<text text-anchor="middle" x="936.15" y="-62" font-family="Helvetica,sans-Serif" font-size="10.00">utility</text>
</a>
</g>
</g>
<!-- Node1&#45;&gt;Node5 -->
<g id="edge4_Node000001_Node000005" class="edge">
<title>Node1&#45;&gt;Node5</title>
<g id="a_edge4_Node000001_Node000005"><a xlink:title=" ">
<path fill="none" stroke="#63b8ff" d="M527.73,-337.8C669.91,-334.84 1023.15,-319.38 1103.15,-239 1143.6,-198.36 1143.81,-150.42 1103.15,-110 1067.42,-74.48 1006.71,-66.41 969.16,-65.06"/>
<polygon fill="#63b8ff" stroke="#63b8ff" points="968.84,-61.56 958.77,-64.84 968.69,-68.55 968.84,-61.56"/>
</a>
</g>
</g>
<!-- Node6 -->
<g id="Node000006" class="node">
<title>Node6</title>
<g id="a_Node000006"><a xlink:href="channel_8h.html" target="_top" xlink:title=" ">
<polygon fill="white" stroke="#666666" points="331.65,-239 224.65,-239 224.65,-220 331.65,-220 331.65,-239"/>
<text text-anchor="middle" x="278.15" y="-227" font-family="Helvetica,sans-Serif" font-size="10.00">Channel/channel.h</text>
</a>
</g>
</g>
<!-- Node1&#45;&gt;Node6 -->
<g id="edge5_Node000001_Node000006" class="edge">
<title>Node1&#45;&gt;Node6</title>
<g id="a_edge5_Node000001_Node000006"><a xlink:title=" ">
<path fill="none" stroke="#63b8ff" d="M449.23,-329.87C430.81,-321.29 402.15,-307.5 378.15,-294 350.17,-278.26 319.14,-258.11 299.17,-244.77"/>
<polygon fill="#63b8ff" stroke="#63b8ff" points="301.08,-241.84 290.83,-239.17 297.18,-247.65 301.08,-241.84"/>
</a>
</g>
</g>
<!-- Node13 -->
<g id="Node000013" class="node">
<title>Node13</title>
<g id="a_Node000013"><a xlink:href="transaction_8h_source.html" target="_top" xlink:title=" ">
<polygon fill="white" stroke="#666666" points="756.65,-184 617.65,-184 617.65,-165 756.65,-165 756.65,-184"/>
<text text-anchor="middle" x="687.15" y="-172" font-family="Helvetica,sans-Serif" font-size="10.00">Transaction/transaction.h</text>
</a>
</g>
</g>
<!-- Node1&#45;&gt;Node13 -->
<g id="edge52_Node000001_Node000013" class="edge">
<title>Node1&#45;&gt;Node13</title>
<g id="a_edge52_Node000001_Node000013"><a xlink:title=" ">
<path fill="none" stroke="#63b8ff" d="M479.62,-329.97C515.01,-303.62 622.86,-223.35 667.49,-190.13"/>
<polygon fill="#63b8ff" stroke="#63b8ff" points="669.6,-192.92 675.53,-184.15 665.42,-187.31 669.6,-192.92"/>
</a>
</g>
</g>
<!-- Node20 -->
<g id="Node000020" class="node">
<title>Node20</title>
<g id="a_Node000020"><a xlink:href="driverModel_8h.html" target="_top" xlink:title=" ">
<polygon fill="white" stroke="#666666" points="896.15,-294 774.15,-294 774.15,-275 896.15,-275 896.15,-294"/>
<text text-anchor="middle" x="835.15" y="-282" font-family="Helvetica,sans-Serif" font-size="10.00">Drivers/driverModel.h</text>
</a>
</g>
</g>
<!-- Node1&#45;&gt;Node20 -->
<g id="edge40_Node000001_Node000020" class="edge">
<title>Node1&#45;&gt;Node20</title>
<g id="a_edge40_Node000001_Node000020"><a xlink:title=" ">
<path fill="none" stroke="#63b8ff" d="M527.12,-329.98C592.29,-320.57 697.17,-305.43 766.12,-295.47"/>
<polygon fill="#63b8ff" stroke="#63b8ff" points="766.63,-298.93 776.03,-294.04 765.63,-292 766.63,-298.93"/>
</a>
</g>
</g>
<!-- Node6&#45;&gt;Node2 -->
<g id="edge8_Node000006_Node000002" class="edge">
<title>Node6&#45;&gt;Node2</title>
<g id="a_edge8_Node000006_Node000002"><a xlink:title=" ">
<path fill="none" stroke="#63b8ff" d="M276.18,-219.86C273.66,-207.63 269.87,-184.58 272.15,-165 278.53,-110.31 280.56,-80.91 329.15,-55 373.14,-31.54 719.57,-16.04 827.9,-11.72"/>
<polygon fill="#63b8ff" stroke="#63b8ff" points="828.05,-15.22 837.9,-11.33 827.78,-8.23 828.05,-15.22"/>
</a>
</g>
</g>
<!-- Node6&#45;&gt;Node3 -->
<g id="edge11_Node000006_Node000003" class="edge">
<title>Node6&#45;&gt;Node3</title>
<g id="a_edge11_Node000006_Node000003"><a xlink:title=" ">
<path fill="none" stroke="#63b8ff" d="M224.43,-228.72C155.64,-226.97 49.33,-216.24 85.15,-165 141.31,-84.66 269.66,-68.98 327.69,-66.07"/>
<polygon fill="#63b8ff" stroke="#63b8ff" points="328.15,-69.55 338,-65.65 327.86,-62.56 328.15,-69.55"/>
</a>
</g>
</g>
<!-- Node6&#45;&gt;Node4 -->
<g id="edge7_Node000006_Node000004" class="edge">
<title>Node6&#45;&gt;Node4</title>
<g id="a_edge7_Node000006_Node000004"><a xlink:title=" ">
<path fill="none" stroke="#63b8ff" d="M290.1,-219.76C301.19,-211.32 317.8,-197.82 330.15,-184 343,-169.62 355.07,-151.18 363.14,-137.88"/>
<polygon fill="#63b8ff" stroke="#63b8ff" points="366.17,-139.63 368.25,-129.24 360.15,-136.06 366.17,-139.63"/>
</a>
</g>
</g>
<!-- Node6&#45;&gt;Node5 -->
<g id="edge12_Node000006_Node000005" class="edge">
<title>Node6&#45;&gt;Node5</title>
<g id="a_edge12_Node000006_Node000005"><a xlink:title=" ">
<path fill="none" stroke="#63b8ff" d="M331.72,-228.79C422.47,-228.15 611.63,-221.85 766.15,-184 828.68,-168.68 851.85,-171.56 900.15,-129 914.09,-116.72 923.87,-97.67 929.69,-83.64"/>
<polygon fill="#63b8ff" stroke="#63b8ff" points="933.04,-84.68 933.36,-74.09 926.51,-82.16 933.04,-84.68"/>
</a>
</g>
</g>
<!-- Node7 -->
<g id="Node000007" class="node">
<title>Node7</title>
<g id="a_Node000007"><a xlink:title=" ">
<polygon fill="#e0e0e0" stroke="#999999" points="147.65,-184 94.65,-184 94.65,-165 147.65,-165 147.65,-184"/>
<text text-anchor="middle" x="121.15" y="-172" font-family="Helvetica,sans-Serif" font-size="10.00">iterator</text>
</a>
</g>
</g>
<!-- Node6&#45;&gt;Node7 -->
<g id="edge6_Node000006_Node000007" class="edge">
<title>Node6&#45;&gt;Node7</title>
<g id="a_edge6_Node000006_Node000007"><a xlink:title=" ">
<path fill="none" stroke="#63b8ff" d="M252.93,-219.98C226.8,-211.16 185.75,-197.31 156.42,-187.41"/>
<polygon fill="#63b8ff" stroke="#63b8ff" points="157.17,-183.96 146.57,-184.08 154.93,-190.6 157.17,-183.96"/>
</a>
</g>
</g>
<!-- Node8 -->
<g id="Node000008" class="node">
<title>Node8</title>
<g id="a_Node000008"><a xlink:title=" ">
<polygon fill="#e0e0e0" stroke="#999999" points="671.65,-74 630.65,-74 630.65,-55 671.65,-55 671.65,-74"/>
<text text-anchor="middle" x="651.15" y="-62" font-family="Helvetica,sans-Serif" font-size="10.00">tuple</text>
</a>
</g>
</g>
<!-- Node6&#45;&gt;Node8 -->
<g id="edge9_Node000006_Node000008" class="edge">
<title>Node6&#45;&gt;Node8</title>
<g id="a_edge9_Node000006_Node000008"><a xlink:title=" ">
<path fill="none" stroke="#63b8ff" d="M281.14,-219.77C289.84,-194.82 315.8,-124.15 335.15,-110 346.63,-101.61 543.01,-78.05 620.27,-69.05"/>
<polygon fill="#63b8ff" stroke="#63b8ff" points="620.83,-72.51 630.36,-67.88 620.02,-65.56 620.83,-72.51"/>
</a>
</g>
</g>
<!-- Node9 -->
<g id="Node000009" class="node">
<title>Node9</title>
<g id="a_Node000009"><a xlink:title=" ">
<polygon fill="#e0e0e0" stroke="#999999" points="210.65,-19 117.65,-19 117.65,0 210.65,0 210.65,-19"/>
<text text-anchor="middle" x="164.15" y="-7" font-family="Helvetica,sans-Serif" font-size="10.00">unordered_map</text>
</a>
</g>
</g>
<!-- Node6&#45;&gt;Node9 -->
<g id="edge10_Node000006_Node000009" class="edge">
<title>Node6&#45;&gt;Node9</title>
<g id="a_edge10_Node000006_Node000009"><a xlink:title=" ">
<path fill="none" stroke="#63b8ff" d="M224.36,-227.32C155.11,-224.53 40.52,-215.19 14.15,-184 -7.08,-158.89 -1.4,-138.98 14.15,-110 38.13,-65.32 91.96,-37.31 128.18,-22.78"/>
<polygon fill="#63b8ff" stroke="#63b8ff" points="129.81,-25.91 137.89,-19.04 127.3,-19.37 129.81,-25.91"/>
</a>
</g>
</g>
<!-- Node10 -->
<g id="Node000010" class="node">
<title>Node10</title>
<g id="a_Node000010"><a xlink:title=" ">
<polygon fill="#e0e0e0" stroke="#999999" points="569.65,-19 522.65,-19 522.65,0 569.65,0 569.65,-19"/>
<text text-anchor="middle" x="546.15" y="-7" font-family="Helvetica,sans-Serif" font-size="10.00">vector</text>
</a>
</g>
</g>
<!-- Node6&#45;&gt;Node10 -->
<g id="edge13_Node000006_Node000010" class="edge">
<title>Node6&#45;&gt;Node10</title>
<g id="a_edge13_Node000006_Node000010"><a xlink:title=" ">
<path fill="none" stroke="#63b8ff" d="M224.28,-224.26C170.32,-218.76 92.68,-207.01 74.15,-184 68.85,-177.42 71.27,-172.94 74.15,-165 102.61,-86.62 146.7,-80.31 226.15,-55 326.78,-22.94 452.48,-13.97 511.95,-11.46"/>
<polygon fill="#63b8ff" stroke="#63b8ff" points="512.4,-14.95 522.26,-11.07 512.13,-7.96 512.4,-14.95"/>
</a>
</g>
</g>
<!-- Node11 -->
<g id="Node000011" class="node">
<title>Node11</title>
<g id="a_Node000011"><a xlink:title=" ">
<polygon fill="#e0e0e0" stroke="#999999" points="212.15,-184 166.15,-184 166.15,-165 212.15,-165 212.15,-184"/>
<text text-anchor="middle" x="189.15" y="-172" font-family="Helvetica,sans-Serif" font-size="10.00">future</text>
</a>
</g>
</g>
<!-- Node6&#45;&gt;Node11 -->
<g id="edge14_Node000006_Node000011" class="edge">
<title>Node6&#45;&gt;Node11</title>
<g id="a_edge14_Node000006_Node000011"><a xlink:title=" ">
<path fill="none" stroke="#63b8ff" d="M263.85,-219.98C250.05,-211.77 228.91,-199.18 212.64,-189.49"/>
<polygon fill="#63b8ff" stroke="#63b8ff" points="214.09,-186.28 203.71,-184.17 210.51,-192.29 214.09,-186.28"/>
</a>
</g>
</g>
<!-- Node12 -->
<g id="Node000012" class="node">
<title>Node12</title>
<g id="a_Node000012"><a xlink:href="types_8h.html" target="_top" xlink:title=" ">
<polygon fill="white" stroke="#666666" points="553.65,-74 464.65,-74 464.65,-55 553.65,-55 553.65,-74"/>
<text text-anchor="middle" x="509.15" y="-62" font-family="Helvetica,sans-Serif" font-size="10.00">Library/types.h</text>
</a>
</g>
</g>
<!-- Node6&#45;&gt;Node12 -->
<g id="edge15_Node000006_Node000012" class="edge">
<title>Node6&#45;&gt;Node12</title>
<g id="a_edge15_Node000006_Node000012"><a xlink:title=" ">
<path fill="none" stroke="#63b8ff" d="M277.03,-219.91C274.71,-198.18 271.91,-140.61 302.15,-110 323.09,-88.81 400.47,-76.62 454.44,-70.52"/>
<polygon fill="#63b8ff" stroke="#63b8ff" points="455,-73.98 464.56,-69.42 454.24,-67.02 455,-73.98"/>
</a>
</g>
</g>
<!-- Node6&#45;&gt;Node13 -->
<g id="edge19_Node000006_Node000013" class="edge">
<title>Node6&#45;&gt;Node13</title>
<g id="a_edge19_Node000006_Node000013"><a xlink:title=" ">
<path fill="none" stroke="#63b8ff" d="M332.04,-221.52C403.5,-212.26 530,-195.86 611.14,-185.35"/>
<polygon fill="#63b8ff" stroke="#63b8ff" points="611.83,-188.79 621.29,-184.03 610.93,-181.85 611.83,-188.79"/>
</a>
</g>
</g>
<!-- Node12&#45;&gt;Node2 -->
<g id="edge18_Node000012_Node000002" class="edge">
<title>Node12&#45;&gt;Node2</title>
<g id="a_edge18_Node000012_Node000002"><a xlink:title=" ">
<path fill="none" stroke="#63b8ff" d="M553.96,-56.73C625.77,-45.89 764.91,-24.88 827.84,-15.38"/>
<polygon fill="#63b8ff" stroke="#63b8ff" points="828.61,-18.8 837.97,-13.85 827.56,-11.88 828.61,-18.8"/>
</a>
</g>
</g>
<!-- Node12&#45;&gt;Node9 -->
<g id="edge17_Node000012_Node000009" class="edge">
<title>Node12&#45;&gt;Node9</title>
<g id="a_edge17_Node000012_Node000009"><a xlink:title=" ">
<path fill="none" stroke="#63b8ff" d="M464.4,-56.63C402.06,-47.05 289.06,-29.69 220.88,-19.22"/>
<polygon fill="#63b8ff" stroke="#63b8ff" points="221.16,-15.72 210.75,-17.66 220.1,-22.64 221.16,-15.72"/>
</a>
</g>
</g>
<!-- Node12&#45;&gt;Node10 -->
<g id="edge16_Node000012_Node000010" class="edge">
<title>Node12&#45;&gt;Node10</title>
<g id="a_edge16_Node000012_Node000010"><a xlink:title=" ">
<path fill="none" stroke="#63b8ff" d="M515.26,-54.75C520.43,-47.34 528,-36.5 534.35,-27.41"/>
<polygon fill="#63b8ff" stroke="#63b8ff" points="537.3,-29.29 540.15,-19.09 531.56,-25.29 537.3,-29.29"/>
</a>
</g>
</g>
<!-- Node13&#45;&gt;Node2 -->
<g id="edge20_Node000013_Node000002" class="edge">
<title>Node13&#45;&gt;Node2</title>
<g id="a_edge20_Node000013_Node000002"><a xlink:title=" ">
<path fill="none" stroke="#63b8ff" d="M747.71,-164.93C772.8,-158.65 800.56,-147.79 820.15,-129 848.14,-102.16 856.54,-55.11 859.07,-29.1"/>
<polygon fill="#63b8ff" stroke="#63b8ff" points="862.56,-29.31 859.85,-19.07 855.58,-28.77 862.56,-29.31"/>
</a>
</g>
</g>
<!-- Node13&#45;&gt;Node3 -->
<g id="edge25_Node000013_Node000003" class="edge">
<title>Node13&#45;&gt;Node3</title>
<g id="a_edge25_Node000013_Node000003"><a xlink:title=" ">
<path fill="none" stroke="#63b8ff" d="M658.45,-165C629.13,-156.24 582.35,-142.06 542.15,-129 486.51,-110.92 421.96,-88.41 385.7,-75.63"/>
<polygon fill="#63b8ff" stroke="#63b8ff" points="386.85,-72.32 376.26,-72.29 384.52,-78.92 386.85,-72.32"/>
</a>
</g>
</g>
<!-- Node13&#45;&gt;Node4 -->
<g id="edge23_Node000013_Node000004" class="edge">
<title>Node13&#45;&gt;Node4</title>
<g id="a_edge23_Node000013_Node000004"><a xlink:title=" ">
<path fill="none" stroke="#63b8ff" d="M636.7,-164.98C574.19,-154.43 469.02,-136.68 412.28,-127.1"/>
<polygon fill="#63b8ff" stroke="#63b8ff" points="412.71,-123.63 402.27,-125.41 411.54,-130.53 412.71,-123.63"/>
</a>
</g>
</g>
<!-- Node13&#45;&gt;Node5 -->
<g id="edge21_Node000013_Node000005" class="edge">
<title>Node13&#45;&gt;Node5</title>
<g id="a_edge21_Node000013_Node000005"><a xlink:title=" ">
<path fill="none" stroke="#63b8ff" d="M756.76,-166.41C793.51,-160.39 838.29,-149.32 874.15,-129 894.58,-117.43 912.65,-97.13 923.94,-82.6"/>
<polygon fill="#63b8ff" stroke="#63b8ff" points="926.87,-84.53 930.05,-74.43 921.26,-80.34 926.87,-84.53"/>
</a>
</g>
</g>
<!-- Node13&#45;&gt;Node10 -->
<g id="edge22_Node000013_Node000010" class="edge">
<title>Node13&#45;&gt;Node10</title>
<g id="a_edge22_Node000013_Node000010"><a xlink:title=" ">
<path fill="none" stroke="#63b8ff" d="M660.61,-164.99C641.97,-157.88 617.55,-146.12 601.15,-129 586.55,-113.76 564.1,-58.03 552.94,-28.75"/>
<polygon fill="#63b8ff" stroke="#63b8ff" points="556.17,-27.41 549.37,-19.29 549.62,-29.88 556.17,-27.41"/>
</a>
</g>
</g>
<!-- Node13&#45;&gt;Node12 -->
<g id="edge28_Node000013_Node000012" class="edge">
<title>Node13&#45;&gt;Node12</title>
<g id="a_edge28_Node000013_Node000012"><a xlink:title=" ">
<path fill="none" stroke="#63b8ff" d="M651.8,-164.95C626.99,-157.88 593.81,-146.18 568.15,-129 549.28,-116.36 532.15,-96.55 521.27,-82.42"/>
<polygon fill="#63b8ff" stroke="#63b8ff" points="523.84,-80.02 515.07,-74.09 518.23,-84.2 523.84,-80.02"/>
</a>
</g>
</g>
<!-- Node14 -->
<g id="Node000014" class="node">
<title>Node14</title>
<g id="a_Node000014"><a xlink:title=" ">
<polygon fill="#e0e0e0" stroke="#999999" points="658.15,-129 610.15,-129 610.15,-110 658.15,-110 658.15,-129"/>
<text text-anchor="middle" x="634.15" y="-117" font-family="Helvetica,sans-Serif" font-size="10.00">mutex</text>
</a>
</g>
</g>
<!-- Node13&#45;&gt;Node14 -->
<g id="edge24_Node000013_Node000014" class="edge">
<title>Node13&#45;&gt;Node14</title>
<g id="a_edge24_Node000013_Node000014"><a xlink:title=" ">
<path fill="none" stroke="#63b8ff" d="M678.4,-164.75C670.68,-157.03 659.25,-145.6 649.93,-136.28"/>
<polygon fill="#63b8ff" stroke="#63b8ff" points="652.29,-133.69 642.74,-129.09 647.34,-138.64 652.29,-133.69"/>
</a>
</g>
</g>
<!-- Node15 -->
<g id="Node000015" class="node">
<title>Node15</title>
<g id="a_Node000015"><a xlink:title=" ">
<polygon fill="#e0e0e0" stroke="#999999" points="1020.15,-129 964.15,-129 964.15,-110 1020.15,-110 1020.15,-129"/>
<text text-anchor="middle" x="992.15" y="-117" font-family="Helvetica,sans-Serif" font-size="10.00">optional</text>
</a>
</g>
</g>
<!-- Node13&#45;&gt;Node15 -->
<g id="edge26_Node000013_Node000015" class="edge">
<title>Node13&#45;&gt;Node15</title>
<g id="a_edge26_Node000013_Node000015"><a xlink:title=" ">
<path fill="none" stroke="#63b8ff" d="M736.15,-164.98C796.74,-154.46 898.6,-136.76 953.8,-127.16"/>
<polygon fill="#63b8ff" stroke="#63b8ff" points="954.62,-130.57 963.87,-125.41 953.42,-123.68 954.62,-130.57"/>
</a>
</g>
</g>
<!-- Node16 -->
<g id="Node000016" class="node">
<title>Node16</title>
<g id="a_Node000016"><a xlink:title=" ">
<polygon fill="#e0e0e0" stroke="#999999" points="831.65,-74 766.65,-74 766.65,-55 831.65,-55 831.65,-74"/>
<text text-anchor="middle" x="799.15" y="-62" font-family="Helvetica,sans-Serif" font-size="10.00">functional</text>
</a>
</g>
</g>
<!-- Node13&#45;&gt;Node16 -->
<g id="edge27_Node000013_Node000016" class="edge">
<title>Node13&#45;&gt;Node16</title>
<g id="a_edge27_Node000013_Node000016"><a xlink:title=" ">
<path fill="none" stroke="#63b8ff" d="M746.62,-164.98C768.08,-158.71 790.2,-147.84 803.15,-129 812.14,-115.93 809.78,-97.54 805.98,-83.91"/>
<polygon fill="#63b8ff" stroke="#63b8ff" points="809.24,-82.62 802.81,-74.2 802.59,-84.79 809.24,-82.62"/>
</a>
</g>
</g>
<!-- Node17 -->
<g id="Node000017" class="node">
<title>Node17</title>
<g id="a_Node000017"><a xlink:href="error_8h.html" target="_top" xlink:title=" ">
<polygon fill="white" stroke="#666666" points="1275.65,-129 1190.65,-129 1190.65,-110 1275.65,-110 1275.65,-129"/>
<text text-anchor="middle" x="1233.15" y="-117" font-family="Helvetica,sans-Serif" font-size="10.00">Library/error.h</text>
</a>
</g>
</g>
<!-- Node13&#45;&gt;Node17 -->
<g id="edge29_Node000013_Node000017" class="edge">
<title>Node13&#45;&gt;Node17</title>
<g id="a_edge29_Node000013_Node000017"><a xlink:title=" ">
<path fill="none" stroke="#63b8ff" d="M756.86,-166.73C867.64,-155.98 1081.48,-135.22 1180.48,-125.61"/>
<polygon fill="#63b8ff" stroke="#63b8ff" points="1180.94,-129.08 1190.55,-124.63 1180.26,-122.12 1180.94,-129.08"/>
</a>
</g>
</g>
<!-- Node19 -->
<g id="Node000019" class="node">
<title>Node19</title>
<g id="a_Node000019"><a xlink:href="evaluate_8h.html" target="_top" xlink:title=" ">
<polygon fill="white" stroke="#666666" points="794.15,-129 676.15,-129 676.15,-110 794.15,-110 794.15,-129"/>
<text text-anchor="middle" x="735.15" y="-117" font-family="Helvetica,sans-Serif" font-size="10.00">Evaluator/evaluate.h</text>
</a>
</g>
</g>
<!-- Node13&#45;&gt;Node19 -->
<g id="edge32_Node000013_Node000019" class="edge">
<title>Node13&#45;&gt;Node19</title>
<g id="a_edge32_Node000013_Node000019"><a xlink:title=" ">
<path fill="none" stroke="#63b8ff" d="M695.08,-164.75C702,-157.11 712.22,-145.82 720.6,-136.56"/>
<polygon fill="#63b8ff" stroke="#63b8ff" points="723.25,-138.85 727.37,-129.09 718.06,-134.15 723.25,-138.85"/>
</a>
</g>
</g>
<!-- Node17&#45;&gt;Node2 -->
<g id="edge30_Node000017_Node000002" class="edge">
<title>Node17&#45;&gt;Node2</title>
<g id="a_edge30_Node000017_Node000002"><a xlink:title=" ">
<path fill="none" stroke="#63b8ff" d="M1233.33,-109.96C1233.11,-96.08 1230.49,-68.83 1214.15,-55 1166.07,-14.29 970.86,-10.18 892.72,-10.21"/>
<polygon fill="#63b8ff" stroke="#63b8ff" points="892.49,-6.71 882.5,-10.24 892.51,-13.71 892.49,-6.71"/>
</a>
</g>
</g>
<!-- Node18 -->
<g id="Node000018" class="node">
<title>Node18</title>
<g id="a_Node000018"><a xlink:title=" ">
<polygon fill="#e0e0e0" stroke="#999999" points="1205.15,-74 1145.15,-74 1145.15,-55 1205.15,-55 1205.15,-74"/>
<text text-anchor="middle" x="1175.15" y="-62" font-family="Helvetica,sans-Serif" font-size="10.00">iostream</text>
</a>
</g>
</g>
<!-- Node17&#45;&gt;Node18 -->
<g id="edge31_Node000017_Node000018" class="edge">
<title>Node17&#45;&gt;Node18</title>
<g id="a_edge31_Node000017_Node000018"><a xlink:title=" ">
<path fill="none" stroke="#63b8ff" d="M1223.83,-109.98C1215.34,-102.23 1202.59,-90.58 1192.27,-81.14"/>
<polygon fill="#63b8ff" stroke="#63b8ff" points="1194.38,-78.33 1184.64,-74.17 1189.66,-83.5 1194.38,-78.33"/>
</a>
</g>
</g>
<!-- Node19&#45;&gt;Node2 -->
<g id="edge35_Node000019_Node000002" class="edge">
<title>Node19&#45;&gt;Node2</title>
<g id="a_edge35_Node000019_Node000002"><a xlink:title=" ">
<path fill="none" stroke="#63b8ff" d="M736.08,-109.99C737.97,-96.65 743.39,-70.73 758.15,-55 776.83,-35.08 805.98,-23.59 828.34,-17.3"/>
<polygon fill="#63b8ff" stroke="#63b8ff" points="829.28,-20.67 838.08,-14.76 827.52,-13.9 829.28,-20.67"/>
</a>
</g>
</g>
<!-- Node19&#45;&gt;Node3 -->
<g id="edge38_Node000019_Node000003" class="edge">
<title>Node19&#45;&gt;Node3</title>
<g id="a_edge38_Node000019_Node000003"><a xlink:title=" ">
<path fill="none" stroke="#63b8ff" d="M676.09,-110.22C594.01,-98.71 448.58,-78.32 386.53,-69.62"/>
<polygon fill="#63b8ff" stroke="#63b8ff" points="386.67,-66.11 376.28,-68.18 385.7,-73.04 386.67,-66.11"/>
</a>
</g>
</g>
<!-- Node19&#45;&gt;Node5 -->
<g id="edge33_Node000019_Node000005" class="edge">
<title>Node19&#45;&gt;Node5</title>
<g id="a_edge33_Node000019_Node000005"><a xlink:title=" ">
<path fill="none" stroke="#63b8ff" d="M767.44,-109.98C804.87,-100.12 866.2,-83.94 903.7,-74.06"/>
<polygon fill="#63b8ff" stroke="#63b8ff" points="904.83,-77.38 913.6,-71.45 903.04,-70.61 904.83,-77.38"/>
</a>
</g>
</g>
<!-- Node19&#45;&gt;Node8 -->
<g id="edge37_Node000019_Node000008" class="edge">
<title>Node19&#45;&gt;Node8</title>
<g id="a_edge37_Node000019_Node000008"><a xlink:title=" ">
<path fill="none" stroke="#63b8ff" d="M721.65,-109.98C708.75,-101.84 689.05,-89.41 673.75,-79.76"/>
<polygon fill="#63b8ff" stroke="#63b8ff" points="675.22,-76.55 664.89,-74.17 671.48,-82.47 675.22,-76.55"/>
</a>
</g>
</g>
<!-- Node19&#45;&gt;Node10 -->
<g id="edge34_Node000019_Node000010" class="edge">
<title>Node19&#45;&gt;Node10</title>
<g id="a_edge34_Node000019_Node000010"><a xlink:title=" ">
<path fill="none" stroke="#63b8ff" d="M729.98,-109.78C721.47,-96.17 703.24,-69.86 681.15,-55 650.15,-34.14 608.6,-22.39 579.82,-16.27"/>
<polygon fill="#63b8ff" stroke="#63b8ff" points="580.33,-12.8 569.84,-14.26 578.95,-19.67 580.33,-12.8"/>
</a>
</g>
</g>
<!-- Node19&#45;&gt;Node12 -->
<g id="edge39_Node000019_Node000012" class="edge">
<title>Node19&#45;&gt;Node12</title>
<g id="a_edge39_Node000019_Node000012"><a xlink:title=" ">
<path fill="none" stroke="#63b8ff" d="M698.84,-109.98C659.91,-100.86 597.99,-86.33 555.55,-76.38"/>
<polygon fill="#63b8ff" stroke="#63b8ff" points="556.28,-72.96 545.75,-74.08 554.68,-79.77 556.28,-72.96"/>
</a>
</g>
</g>
<!-- Node19&#45;&gt;Node16 -->
<g id="edge36_Node000019_Node000016" class="edge">
<title>Node19&#45;&gt;Node16</title>
<g id="a_edge36_Node000019_Node000016"><a xlink:title=" ">
<path fill="none" stroke="#63b8ff" d="M745.43,-109.98C754.99,-102.07 769.43,-90.11 780.93,-80.58"/>
<polygon fill="#63b8ff" stroke="#63b8ff" points="783.21,-83.24 788.68,-74.17 778.75,-77.85 783.21,-83.24"/>
</a>
</g>
</g>
<!-- Node20&#45;&gt;Node2 -->
<g id="edge43_Node000020_Node000002" class="edge">
<title>Node20&#45;&gt;Node2</title>
<g id="a_edge43_Node000020_Node000002"><a xlink:title=" ">
<path fill="none" stroke="#63b8ff" d="M896.46,-282.12C1023.59,-277.59 1304.15,-258.22 1304.15,-175.5 1304.15,-175.5 1304.15,-175.5 1304.15,-118.5 1304.15,-76.5 1272.37,-72.42 1234.15,-55 1173.49,-27.35 972.18,-15.52 892.77,-11.84"/>
<polygon fill="#63b8ff" stroke="#63b8ff" points="892.55,-8.33 882.4,-11.38 892.23,-15.32 892.55,-8.33"/>
</a>
</g>
</g>
<!-- Node20&#45;&gt;Node4 -->
<g id="edge41_Node000020_Node000004" class="edge">
<title>Node20&#45;&gt;Node4</title>
<g id="a_edge41_Node000020_Node000004"><a xlink:title=" ">
<path fill="none" stroke="#63b8ff" d="M773.82,-280.27C688.87,-275 540.4,-262.67 492.15,-239 467.14,-226.73 413.14,-166.72 387.38,-137.11"/>
<polygon fill="#63b8ff" stroke="#63b8ff" points="389.82,-134.57 380.63,-129.3 384.52,-139.15 389.82,-134.57"/>
</a>
</g>
</g>
<!-- Node20&#45;&gt;Node5 -->
<g id="edge46_Node000020_Node000005" class="edge">
<title>Node20&#45;&gt;Node5</title>
<g id="a_edge46_Node000020_Node000005"><a xlink:title=" ">
<path fill="none" stroke="#63b8ff" d="M896.39,-279.3C960.15,-273.76 1054.52,-261.91 1082.15,-239 1102.29,-222.3 1098.41,-209.73 1103.15,-184 1109.35,-150.38 1107.14,-133.33 1082.15,-110 1051.08,-81 1001.65,-70.87 969.04,-67.35"/>
<polygon fill="#63b8ff" stroke="#63b8ff" points="968.96,-63.83 958.68,-66.39 968.32,-70.8 968.96,-63.83"/>
</a>
</g>
</g>
<!-- Node20&#45;&gt;Node6 -->
<g id="edge48_Node000020_Node000006" class="edge">
<title>Node20&#45;&gt;Node6</title>
<g id="a_edge48_Node000020_Node000006"><a xlink:title=" ">
<path fill="none" stroke="#63b8ff" d="M773.95,-277.68C667.72,-267.57 450.26,-246.88 342.13,-236.59"/>
<polygon fill="#63b8ff" stroke="#63b8ff" points="342.3,-233.09 332.01,-235.63 341.64,-240.06 342.3,-233.09"/>
</a>
</g>
</g>
<!-- Node20&#45;&gt;Node8 -->
<g id="edge44_Node000020_Node000008" class="edge">
<title>Node20&#45;&gt;Node8</title>
<g id="a_edge44_Node000020_Node000008"><a xlink:title=" ">
<path fill="none" stroke="#63b8ff" d="M859.64,-274.9C924.5,-250.88 1091.6,-180.23 1029.15,-110 1017.61,-97.02 770.1,-75.35 681.97,-68.01"/>
<polygon fill="#63b8ff" stroke="#63b8ff" points="682.06,-64.51 671.8,-67.17 681.48,-71.49 682.06,-64.51"/>
</a>
</g>
</g>
<!-- Node20&#45;&gt;Node9 -->
<g id="edge45_Node000020_Node000009" class="edge">
<title>Node20&#45;&gt;Node9</title>
<g id="a_edge45_Node000020_Node000009"><a xlink:title=" ">
<path fill="none" stroke="#63b8ff" d="M789.41,-274.98C753.35,-267.54 702.16,-255.37 659.15,-239 543.03,-194.81 524.01,-161.94 411.15,-110 335.87,-75.36 244.91,-40.45 197.14,-22.63"/>
<polygon fill="#63b8ff" stroke="#63b8ff" points="198.22,-19.29 187.63,-19.09 195.78,-25.85 198.22,-19.29"/>
</a>
</g>
</g>
<!-- Node20&#45;&gt;Node12 -->
<g id="edge50_Node000020_Node000012" class="edge">
<title>Node20&#45;&gt;Node12</title>
<g id="a_edge50_Node000020_Node000012"><a xlink:title=" ">
<path fill="none" stroke="#63b8ff" d="M800.49,-274.91C739.03,-257.86 610.97,-213.87 542.15,-129 531.04,-115.29 522.1,-97.25 516.34,-83.9"/>
<polygon fill="#63b8ff" stroke="#63b8ff" points="519.46,-82.29 512.42,-74.37 512.99,-84.95 519.46,-82.29"/>
</a>
</g>
</g>
<!-- Node20&#45;&gt;Node13 -->
<g id="edge49_Node000020_Node000013" class="edge">
<title>Node20&#45;&gt;Node13</title>
<g id="a_edge49_Node000020_Node000013"><a xlink:title=" ">
<path fill="none" stroke="#63b8ff" d="M823.29,-274.84C798.07,-256.44 738.86,-213.23 707.49,-190.34"/>
<polygon fill="#63b8ff" stroke="#63b8ff" points="709.21,-187.26 699.07,-184.2 705.08,-192.92 709.21,-187.26"/>
</a>
</g>
</g>
<!-- Node20&#45;&gt;Node15 -->
<g id="edge42_Node000020_Node000015" class="edge">
<title>Node20&#45;&gt;Node15</title>
<g id="a_edge42_Node000020_Node000015"><a xlink:title=" ">
<path fill="none" stroke="#63b8ff" d="M847.19,-274.84C869.23,-258.62 916.86,-221.88 950.15,-184 962.67,-169.76 974.34,-151.54 982.19,-138.27"/>
<polygon fill="#63b8ff" stroke="#63b8ff" points="985.43,-139.65 987.4,-129.24 979.37,-136.16 985.43,-139.65"/>
</a>
</g>
</g>
<!-- Node20&#45;&gt;Node16 -->
<g id="edge47_Node000020_Node000016" class="edge">
<title>Node20&#45;&gt;Node16</title>
<g id="a_edge47_Node000020_Node000016"><a xlink:title=" ">
<path fill="none" stroke="#63b8ff" d="M896.41,-280.04C956.33,-275.23 1041.51,-264.08 1062.15,-239 1098.58,-194.73 1099.16,-153.79 1062.15,-110 1048.08,-93.35 912.5,-77.13 841.71,-69.7"/>
<polygon fill="#63b8ff" stroke="#63b8ff" points="842.07,-66.22 831.76,-68.67 841.35,-73.18 842.07,-66.22"/>
</a>
</g>
</g>
<!-- Node20&#45;&gt;Node17 -->
<g id="edge51_Node000020_Node000017" class="edge">
<title>Node20&#45;&gt;Node17</title>
<g id="a_edge51_Node000020_Node000017"><a xlink:title=" ">
<path fill="none" stroke="#63b8ff" d="M896.47,-279.78C972.82,-274.26 1098.08,-261.97 1138.15,-239 1179.94,-215.05 1210.46,-164.95 1224.52,-138.21"/>
<polygon fill="#63b8ff" stroke="#63b8ff" points="1227.68,-139.71 1229.09,-129.2 1221.44,-136.54 1227.68,-139.71"/>
</a>
</g>
</g>
</g>
</svg>

<g id="navigator" transform="translate(0 0)" fill="#404254">
  <rect fill="#f2f5e9" fill-opacity="0.5" stroke="#606060" stroke-width=".5" x="0" y="0" width="60" height="60"/>
  <use id="zoomplus" xlink:href="#zoomPlus" x="17" y="9" onmousedown="handleZoom(evt,'in')"/>
  <use id="zoomminus" xlink:href="#zoomMin" x="42" y="9" onmousedown="handleZoom(evt,'out')"/>
  <use id="reset" xlink:href="#resetDef" x="30" y="36" onmousedown="handleReset()"/>
   <use id="arrowup" xlink:href="#arrowUp" x="0" y="0" onmousedown="handlePan(0,-1)"/>
  <use id="arrowright" xlink:href="#arrowRight" x="0" y="0" onmousedown="handlePan(1,0)"/>
  <use id="arrowdown" xlink:href="#arrowDown" x="0" y="0" onmousedown="handlePan(0,1)"/>
  <use id="arrowleft" xlink:href="#arrowLeft" x="0" y="0" onmousedown="handlePan(-1,0)"/>
</g>
<svg viewBox="0 0 15 15" width="100%" height="30px" preserveAspectRatio="xMaxYMin meet">
 <g id="arrow_out" transform="scale(0.3 0.3)">
  <a xlink:href="ref_8h__incl_org.svg" target="_base">
   <rect id="button" ry="5" rx="5" y="6" x="6" height="38" width="38"
        fill="#f2f5e9" fill-opacity="0.5" stroke="#606060" stroke-width="1.0"/>
   <path id="arrow"
     d="M 11.500037,31.436501 C 11.940474,20.09759 22.043105,11.32322 32.158766,21.979434 L 37.068811,17.246167 C 37.068811,17.246167 37.088388,32 37.088388,32 L 22.160133,31.978069 C 22.160133,31.978069 26.997745,27.140456 26.997745,27.140456 C 18.528582,18.264221 13.291696,25.230495 11.500037,31.436501 z"
     style="fill:#404040;"/>
  </a>
 </g>
</svg>

<style type='text/css'>
<![CDATA[
[data-mouse-over-selected='false'] { opacity: 0.7; }
[data-mouse-over-selected='true']  { opacity: 1.0; }
]]>
</style>
<script type="application/ecmascript"><![CDATA[
document.addEventListener('DOMContentLoaded', (event) => {
  highlightEdges();
  highlightAdjacentNodes();
});
]]></script>
</svg>
