<?xml version="1.0" encoding="UTF-8" standalone="no"?>
<!DOCTYPE svg PUBLIC "-//W3C//DTD SVG 1.1//EN"
 "http://www.w3.org/Graphics/SVG/1.1/DTD/svg11.dtd">
<!-- Generated by graphviz version 2.43.0 (0)
 -->
<!-- Title: include/RefPack/ref.h Pages: 1 -->
<svg width="1362pt" height="357pt"
 viewBox="0.00 0.00 1362.08 357.00" xmlns="http://www.w3.org/2000/svg" xmlns:xlink="http://www.w3.org/1999/xlink">
<g id="graph0" class="graph" transform="scale(1 1) rotate(0) translate(4 353)">
<title>include/RefPack/ref.h</title>
<!-- Node1 -->
<g id="Node000001" class="node">
<title>Node1</title>
<g id="a_Node000001"><a xlink:title=" ">
<polygon fill="#999999" stroke="#666666" points="388.58,-349 269.58,-349 269.58,-330 388.58,-330 388.58,-349"/>
<text text-anchor="middle" x="329.08" y="-337" font-family="Helvetica,sans-Serif" font-size="10.00">include/RefPack/ref.h</text>
</a>
</g>
</g>
<!-- Node2 -->
<g id="Node000002" class="node">
<title>Node2</title>
<g id="a_Node000002"><a xlink:title=" ">
<polygon fill="#e0e0e0" stroke="#999999" points="1003.08,-19 959.08,-19 959.08,0 1003.08,0 1003.08,-19"/>
<text text-anchor="middle" x="981.08" y="-7" font-family="Helvetica,sans-Serif" font-size="10.00">string</text>
</a>
</g>
</g>
<!-- Node1&#45;&gt;Node2 -->
<g id="edge1_Node000001_Node000002" class="edge">
<title>Node1&#45;&gt;Node2</title>
<g id="a_edge1_Node000001_Node000002"><a xlink:title=" ">
<path fill="none" stroke="#63b8ff" d="M388.62,-338.52C607.38,-337.81 1354.08,-328.24 1354.08,-230.5 1354.08,-230.5 1354.08,-230.5 1354.08,-118.5 1354.08,-47.81 1103.8,-20.47 1013.27,-12.88"/>
<polygon fill="#63b8ff" stroke="#63b8ff" points="1013.54,-9.39 1003.29,-12.08 1012.98,-16.37 1013.54,-9.39"/>
</a>
</g>
</g>
<!-- Node3 -->
<g id="Node000003" class="node">
<title>Node3</title>
<g id="a_Node000003"><a xlink:title=" ">
<polygon fill="#e0e0e0" stroke="#999999" points="170.08,-74 132.08,-74 132.08,-55 170.08,-55 170.08,-74"/>
<text text-anchor="middle" x="151.08" y="-62" font-family="Helvetica,sans-Serif" font-size="10.00">map</text>
</a>
</g>
</g>
<!-- Node1&#45;&gt;Node3 -->
<g id="edge2_Node000001_Node000003" class="edge">
<title>Node1&#45;&gt;Node3</title>
<g id="a_edge2_Node000001_Node000003"><a xlink:title=" ">
<path fill="none" stroke="#63b8ff" d="M291.02,-329.96C261.91,-322.61 221.26,-310.57 188.08,-294 112.82,-256.43 88.01,-248.54 34.08,-184 11.72,-157.25 -12.59,-138.07 8.08,-110 34.15,-74.57 88.22,-66.54 121.89,-65.16"/>
<polygon fill="#63b8ff" stroke="#63b8ff" points="122.13,-68.65 132.05,-64.92 121.97,-61.66 122.13,-68.65"/>
</a>
</g>
</g>
<!-- Node4 -->
<g id="Node000004" class="node">
<title>Node4</title>
<g id="a_Node000004"><a xlink:title=" ">
<polygon fill="#e0e0e0" stroke="#999999" points="82.08,-129 24.08,-129 24.08,-110 82.08,-110 82.08,-129"/>
<text text-anchor="middle" x="53.08" y="-117" font-family="Helvetica,sans-Serif" font-size="10.00">memory</text>
</a>
</g>
</g>
<!-- Node1&#45;&gt;Node4 -->
<g id="edge3_Node000001_Node000004" class="edge">
<title>Node1&#45;&gt;Node4</title>
<g id="a_edge3_Node000001_Node000004"><a xlink:title=" ">
<path fill="none" stroke="#63b8ff" d="M305.06,-329.92C255.65,-311.12 141.96,-261.65 78.08,-184 67.37,-170.99 60.85,-152.84 57.16,-139.28"/>
<polygon fill="#63b8ff" stroke="#63b8ff" points="60.47,-138.06 54.7,-129.18 53.67,-139.72 60.47,-138.06"/>
</a>
</g>
</g>
<!-- Node5 -->
<g id="Node000005" class="node">
<title>Node5</title>
<g id="a_Node000005"><a xlink:title=" ">
<polygon fill="#e0e0e0" stroke="#999999" points="274.58,-74 229.58,-74 229.58,-55 274.58,-55 274.58,-74"/>
<text text-anchor="middle" x="252.08" y="-62" font-family="Helvetica,sans-Serif" font-size="10.00">utility</text>
</a>
</g>
</g>
<!-- Node1&#45;&gt;Node5 -->
<g id="edge4_Node000001_Node000005" class="edge">
<title>Node1&#45;&gt;Node5</title>
<g id="a_edge4_Node000001_Node000005"><a xlink:title=" ">
<path fill="none" stroke="#63b8ff" d="M298.36,-329.94C230.45,-309.07 69.3,-248.32 15.08,-129 11.58,-121.31 9.68,-116.5 15.08,-110 28.03,-94.39 157.18,-76.91 219.19,-69.34"/>
<polygon fill="#63b8ff" stroke="#63b8ff" points="219.73,-72.8 229.24,-68.13 218.89,-65.85 219.73,-72.8"/>
</a>
</g>
</g>
<!-- Node6 -->
<g id="Node000006" class="node">
<title>Node6</title>
<g id="a_Node000006"><a xlink:href="channel_8h.html" target="_top" xlink:title=" ">
<polygon fill="white" stroke="#666666" points="382.58,-239 275.58,-239 275.58,-220 382.58,-220 382.58,-239"/>
<text text-anchor="middle" x="329.08" y="-227" font-family="Helvetica,sans-Serif" font-size="10.00">Channel/channel.h</text>
</a>
</g>
</g>
<!-- Node1&#45;&gt;Node6 -->
<g id="edge5_Node000001_Node000006" class="edge">
<title>Node1&#45;&gt;Node6</title>
<g id="a_edge5_Node000001_Node000006"><a xlink:title=" ">
<path fill="none" stroke="#63b8ff" d="M329.08,-329.66C329.08,-312.17 329.08,-272.8 329.08,-249.27"/>
<polygon fill="#63b8ff" stroke="#63b8ff" points="332.58,-249.16 329.08,-239.16 325.58,-249.16 332.58,-249.16"/>
</a>
</g>
</g>
<!-- Node16 -->
<g id="Node000016" class="node">
<title>Node16</title>
<g id="a_Node000016"><a xlink:href="transaction_8h_source.html" target="_top" xlink:title=" ">
<polygon fill="white" stroke="#666666" points="563.58,-184 424.58,-184 424.58,-165 563.58,-165 563.58,-184"/>
<text text-anchor="middle" x="494.08" y="-172" font-family="Helvetica,sans-Serif" font-size="10.00">Transaction/transaction.h</text>
</a>
</g>
</g>
<!-- Node1&#45;&gt;Node16 -->
<g id="edge57_Node000001_Node000016" class="edge">
<title>Node1&#45;&gt;Node16</title>
<g id="a_edge57_Node000001_Node000016"><a xlink:title=" ">
<path fill="none" stroke="#63b8ff" d="M337.95,-329.74C364.47,-303.53 443.45,-225.51 477.81,-191.57"/>
<polygon fill="#63b8ff" stroke="#63b8ff" points="480.51,-193.82 485.16,-184.31 475.59,-188.84 480.51,-193.82"/>
</a>
</g>
</g>
<!-- Node21 -->
<g id="Node000021" class="node">
<title>Node21</title>
<g id="a_Node000021"><a xlink:href="driverModel_8h.html" target="_top" xlink:title=" ">
<polygon fill="white" stroke="#666666" points="990.08,-294 868.08,-294 868.08,-275 990.08,-275 990.08,-294"/>
<text text-anchor="middle" x="929.08" y="-282" font-family="Helvetica,sans-Serif" font-size="10.00">Drivers/driverModel.h</text>
</a>
</g>
</g>
<!-- Node1&#45;&gt;Node21 -->
<g id="edge45_Node000001_Node000021" class="edge">
<title>Node1&#45;&gt;Node21</title>
<g id="a_edge45_Node000001_Node000021"><a xlink:title=" ">
<path fill="none" stroke="#63b8ff" d="M388.8,-333.22C499.98,-323.4 738.2,-302.36 857.67,-291.81"/>
<polygon fill="#63b8ff" stroke="#63b8ff" points="858.15,-295.28 867.81,-290.91 857.54,-288.31 858.15,-295.28"/>
</a>
</g>
</g>
<!-- Node6&#45;&gt;Node2 -->
<g id="edge9_Node000006_Node000002" class="edge">
<title>Node6&#45;&gt;Node2</title>
<g id="a_edge9_Node000006_Node000002"><a xlink:title=" ">
<path fill="none" stroke="#63b8ff" d="M382.97,-228.12C490.47,-226.58 738.85,-219.16 944.08,-184 966.9,-180.09 1131.03,-147.41 1145.08,-129 1186.29,-75 1071.65,-34.96 1013.1,-18.61"/>
<polygon fill="#63b8ff" stroke="#63b8ff" points="1013.78,-15.16 1003.21,-15.92 1011.94,-21.92 1013.78,-15.16"/>
</a>
</g>
</g>
<!-- Node6&#45;&gt;Node3 -->
<g id="edge12_Node000006_Node000003" class="edge">
<title>Node6&#45;&gt;Node3</title>
<g id="a_edge12_Node000006_Node000003"><a xlink:title=" ">
<path fill="none" stroke="#63b8ff" d="M275.44,-220.55C233.35,-213.15 179.53,-200.75 165.08,-184 141.03,-156.12 143.62,-109.85 147.46,-84.15"/>
<polygon fill="#63b8ff" stroke="#63b8ff" points="150.92,-84.67 149.16,-74.22 144.02,-83.49 150.92,-84.67"/>
</a>
</g>
</g>
<!-- Node6&#45;&gt;Node4 -->
<g id="edge7_Node000006_Node000004" class="edge">
<title>Node6&#45;&gt;Node4</title>
<g id="a_edge7_Node000006_Node000004"><a xlink:title=" ">
<path fill="none" stroke="#63b8ff" d="M275.49,-223.06C234.59,-217.36 177.71,-206.02 132.08,-184 107.47,-172.13 83.66,-151.3 68.72,-136.75"/>
<polygon fill="#63b8ff" stroke="#63b8ff" points="70.93,-134.01 61.39,-129.4 65.98,-138.95 70.93,-134.01"/>
</a>
</g>
</g>
<!-- Node6&#45;&gt;Node5 -->
<g id="edge13_Node000006_Node000005" class="edge">
<title>Node6&#45;&gt;Node5</title>
<g id="a_edge13_Node000006_Node000005"><a xlink:title=" ">
<path fill="none" stroke="#63b8ff" d="M317.33,-219.82C299.98,-207.14 266.26,-183.09 236.08,-165 206.41,-147.22 185.01,-158.58 167.08,-129 151.63,-103.53 189.62,-84.9 219.7,-74.63"/>
<polygon fill="#63b8ff" stroke="#63b8ff" points="221.06,-77.87 229.51,-71.47 218.91,-71.2 221.06,-77.87"/>
</a>
</g>
</g>
<!-- Node7 -->
<g id="Node000007" class="node">
<title>Node7</title>
<g id="a_Node000007"><a xlink:title=" ">
<polygon fill="#e0e0e0" stroke="#999999" points="227.58,-184 174.58,-184 174.58,-165 227.58,-165 227.58,-184"/>
<text text-anchor="middle" x="201.08" y="-172" font-family="Helvetica,sans-Serif" font-size="10.00">iterator</text>
</a>
</g>
</g>
<!-- Node6&#45;&gt;Node7 -->
<g id="edge6_Node000006_Node000007" class="edge">
<title>Node6&#45;&gt;Node7</title>
<g id="a_edge6_Node000006_Node000007"><a xlink:title=" ">
<path fill="none" stroke="#63b8ff" d="M308.51,-219.98C287.64,-211.34 255.11,-197.87 231.3,-188.02"/>
<polygon fill="#63b8ff" stroke="#63b8ff" points="232.59,-184.76 222.02,-184.17 229.92,-191.23 232.59,-184.76"/>
</a>
</g>
</g>
<!-- Node8 -->
<g id="Node000008" class="node">
<title>Node8</title>
<g id="a_Node000008"><a xlink:title=" ">
<polygon fill="#e0e0e0" stroke="#999999" points="224.08,-129 176.08,-129 176.08,-110 224.08,-110 224.08,-129"/>
<text text-anchor="middle" x="200.08" y="-117" font-family="Helvetica,sans-Serif" font-size="10.00">mutex</text>
</a>
</g>
</g>
<!-- Node6&#45;&gt;Node8 -->
<g id="edge8_Node000006_Node000008" class="edge">
<title>Node6&#45;&gt;Node8</title>
<g id="a_edge8_Node000006_Node000008"><a xlink:title=" ">
<path fill="none" stroke="#63b8ff" d="M322.07,-219.62C311.61,-206.68 290.89,-182.33 270.08,-165 256.14,-153.4 238.97,-142.44 225.13,-134.3"/>
<polygon fill="#63b8ff" stroke="#63b8ff" points="226.57,-131.09 216.16,-129.15 223.08,-137.16 226.57,-131.09"/>
</a>
</g>
</g>
<!-- Node9 -->
<g id="Node000009" class="node">
<title>Node9</title>
<g id="a_Node000009"><a xlink:title=" ">
<polygon fill="#e0e0e0" stroke="#999999" points="1072.58,-74 1031.58,-74 1031.58,-55 1072.58,-55 1072.58,-74"/>
<text text-anchor="middle" x="1052.08" y="-62" font-family="Helvetica,sans-Serif" font-size="10.00">tuple</text>
</a>
</g>
</g>
<!-- Node6&#45;&gt;Node9 -->
<g id="edge10_Node000006_Node000009" class="edge">
<title>Node6&#45;&gt;Node9</title>
<g id="a_edge10_Node000006_Node000009"><a xlink:title=" ">
<path fill="none" stroke="#63b8ff" d="M382.67,-228.41C530.17,-227.03 937.53,-215.32 1033.08,-129 1045.47,-117.8 1049.92,-98.88 1051.45,-84.6"/>
<polygon fill="#63b8ff" stroke="#63b8ff" points="1054.96,-84.59 1052.14,-74.38 1047.97,-84.11 1054.96,-84.59"/>
</a>
</g>
</g>
<!-- Node10 -->
<g id="Node000010" class="node">
<title>Node10</title>
<g id="a_Node000010"><a xlink:title=" ">
<polygon fill="#e0e0e0" stroke="#999999" points="1286.58,-19 1193.58,-19 1193.58,0 1286.58,0 1286.58,-19"/>
<text text-anchor="middle" x="1240.08" y="-7" font-family="Helvetica,sans-Serif" font-size="10.00">unordered_map</text>
</a>
</g>
</g>
<!-- Node6&#45;&gt;Node10 -->
<g id="edge11_Node000006_Node000010" class="edge">
<title>Node6&#45;&gt;Node10</title>
<g id="a_edge11_Node000006_Node000010"><a xlink:title=" ">
<path fill="none" stroke="#63b8ff" d="M382.78,-226.77C520.54,-222.05 883.89,-207.66 1002.08,-184 1076.22,-169.15 1103.43,-175.47 1163.08,-129 1197.95,-101.83 1221.88,-54.21 1232.99,-28.38"/>
<polygon fill="#63b8ff" stroke="#63b8ff" points="1236.26,-29.63 1236.85,-19.05 1229.79,-26.96 1236.26,-29.63"/>
</a>
</g>
</g>
<!-- Node11 -->
<g id="Node000011" class="node">
<title>Node11</title>
<g id="a_Node000011"><a xlink:title=" ">
<polygon fill="#e0e0e0" stroke="#999999" points="408.58,-19 361.58,-19 361.58,0 408.58,0 408.58,-19"/>
<text text-anchor="middle" x="385.08" y="-7" font-family="Helvetica,sans-Serif" font-size="10.00">vector</text>
</a>
</g>
</g>
<!-- Node6&#45;&gt;Node11 -->
<g id="edge14_Node000006_Node000011" class="edge">
<title>Node6&#45;&gt;Node11</title>
<g id="a_edge14_Node000006_Node000011"><a xlink:title=" ">
<path fill="none" stroke="#63b8ff" d="M275.18,-228.06C170.61,-225.06 -44.53,-207.24 15.08,-110 50.75,-51.81 267,-22.97 351.39,-13.82"/>
<polygon fill="#63b8ff" stroke="#63b8ff" points="351.89,-17.29 361.47,-12.76 351.16,-10.33 351.89,-17.29"/>
</a>
</g>
</g>
<!-- Node12 -->
<g id="Node000012" class="node">
<title>Node12</title>
<g id="a_Node000012"><a xlink:title=" ">
<polygon fill="#e0e0e0" stroke="#999999" points="368.08,-184 322.08,-184 322.08,-165 368.08,-165 368.08,-184"/>
<text text-anchor="middle" x="345.08" y="-172" font-family="Helvetica,sans-Serif" font-size="10.00">future</text>
</a>
</g>
</g>
<!-- Node6&#45;&gt;Node12 -->
<g id="edge15_Node000006_Node000012" class="edge">
<title>Node6&#45;&gt;Node12</title>
<g id="a_edge15_Node000006_Node000012"><a xlink:title=" ">
<path fill="none" stroke="#63b8ff" d="M331.72,-219.75C333.84,-212.72 336.89,-202.62 339.54,-193.84"/>
<polygon fill="#63b8ff" stroke="#63b8ff" points="342.94,-194.67 342.48,-184.09 336.24,-192.65 342.94,-194.67"/>
</a>
</g>
</g>
<!-- Node13 -->
<g id="Node000013" class="node">
<title>Node13</title>
<g id="a_Node000013"><a xlink:title=" ">
<polygon fill="#e0e0e0" stroke="#999999" points="940.08,-74 880.08,-74 880.08,-55 940.08,-55 940.08,-74"/>
<text text-anchor="middle" x="910.08" y="-62" font-family="Helvetica,sans-Serif" font-size="10.00">iostream</text>
</a>
</g>
</g>
<!-- Node6&#45;&gt;Node13 -->
<g id="edge16_Node000006_Node000013" class="edge">
<title>Node6&#45;&gt;Node13</title>
<g id="a_edge16_Node000006_Node000013"><a xlink:title=" ">
<path fill="none" stroke="#63b8ff" d="M382.84,-229.12C457.86,-228.46 597.33,-221.61 709.08,-184 781.68,-159.57 856.7,-106.57 890.95,-80.54"/>
<polygon fill="#63b8ff" stroke="#63b8ff" points="893.33,-83.12 899.12,-74.25 889.06,-77.58 893.33,-83.12"/>
</a>
</g>
</g>
<!-- Node14 -->
<g id="Node000014" class="node">
<title>Node14</title>
<g id="a_Node000014"><a xlink:title=" ">
<polygon fill="#e0e0e0" stroke="#999999" points="768.08,-129 682.08,-129 682.08,-110 768.08,-110 768.08,-129"/>
<text text-anchor="middle" x="725.08" y="-117" font-family="Helvetica,sans-Serif" font-size="10.00">shared_mutex</text>
</a>
</g>
</g>
<!-- Node6&#45;&gt;Node14 -->
<g id="edge17_Node000006_Node000014" class="edge">
<title>Node6&#45;&gt;Node14</title>
<g id="a_edge17_Node000006_Node000014"><a xlink:title=" ">
<path fill="none" stroke="#63b8ff" d="M382.68,-222.11C432.64,-215.35 508.88,-203.02 573.08,-184 618.41,-170.57 668.58,-148 698.43,-133.7"/>
<polygon fill="#63b8ff" stroke="#63b8ff" points="700.27,-136.7 707.74,-129.2 697.22,-130.4 700.27,-136.7"/>
</a>
</g>
</g>
<!-- Node15 -->
<g id="Node000015" class="node">
<title>Node15</title>
<g id="a_Node000015"><a xlink:href="types_8h.html" target="_top" xlink:title=" ">
<polygon fill="white" stroke="#666666" points="700.58,-74 611.58,-74 611.58,-55 700.58,-55 700.58,-74"/>
<text text-anchor="middle" x="656.08" y="-62" font-family="Helvetica,sans-Serif" font-size="10.00">Library/types.h</text>
</a>
</g>
</g>
<!-- Node6&#45;&gt;Node15 -->
<g id="edge18_Node000006_Node000015" class="edge">
<title>Node6&#45;&gt;Node15</title>
<g id="a_edge18_Node000006_Node000015"><a xlink:title=" ">
<path fill="none" stroke="#63b8ff" d="M382.6,-225.2C491.24,-217.2 731.25,-192.58 777.08,-129 782.01,-122.15 781.91,-116.93 777.08,-110 768.1,-97.14 732.69,-85.02 702.47,-76.69"/>
<polygon fill="#63b8ff" stroke="#63b8ff" points="703.03,-73.22 692.47,-74.01 701.22,-79.98 703.03,-73.22"/>
</a>
</g>
</g>
<!-- Node6&#45;&gt;Node16 -->
<g id="edge22_Node000006_Node000016" class="edge">
<title>Node6&#45;&gt;Node16</title>
<g id="a_edge22_Node000006_Node000016"><a xlink:title=" ">
<path fill="none" stroke="#63b8ff" d="M355.59,-219.98C383.29,-211.09 426.94,-197.07 457.82,-187.15"/>
<polygon fill="#63b8ff" stroke="#63b8ff" points="458.91,-190.47 467.36,-184.08 456.77,-183.81 458.91,-190.47"/>
</a>
</g>
</g>
<!-- Node15&#45;&gt;Node2 -->
<g id="edge21_Node000015_Node000002" class="edge">
<title>Node15&#45;&gt;Node2</title>
<g id="a_edge21_Node000015_Node000002"><a xlink:title=" ">
<path fill="none" stroke="#63b8ff" d="M700.58,-56.24C767.03,-45.41 890.58,-25.26 948.95,-15.74"/>
<polygon fill="#63b8ff" stroke="#63b8ff" points="949.76,-19.15 959.06,-14.09 948.63,-12.25 949.76,-19.15"/>
</a>
</g>
</g>
<!-- Node15&#45;&gt;Node10 -->
<g id="edge20_Node000015_Node000010" class="edge">
<title>Node15&#45;&gt;Node10</title>
<g id="a_edge20_Node000015_Node000010"><a xlink:title=" ">
<path fill="none" stroke="#63b8ff" d="M700.83,-56.2C703.96,-55.77 707.06,-55.36 710.08,-55 881.89,-34.29 1086.21,-20.05 1183.34,-13.91"/>
<polygon fill="#63b8ff" stroke="#63b8ff" points="1183.76,-17.39 1193.53,-13.27 1183.33,-10.41 1183.76,-17.39"/>
</a>
</g>
</g>
<!-- Node15&#45;&gt;Node11 -->
<g id="edge19_Node000015_Node000011" class="edge">
<title>Node15&#45;&gt;Node11</title>
<g id="a_edge19_Node000015_Node000011"><a xlink:title=" ">
<path fill="none" stroke="#63b8ff" d="M612.54,-54.98C558.59,-44.43 467.83,-26.68 418.85,-17.11"/>
<polygon fill="#63b8ff" stroke="#63b8ff" points="419.26,-13.62 408.78,-15.13 417.92,-20.49 419.26,-13.62"/>
</a>
</g>
</g>
<!-- Node16&#45;&gt;Node2 -->
<g id="edge26_Node000016_Node000002" class="edge">
<title>Node16&#45;&gt;Node2</title>
<g id="a_edge26_Node000016_Node000002"><a xlink:title=" ">
<path fill="none" stroke="#63b8ff" d="M470.59,-164.92C444.32,-153.94 407.36,-133.51 423.08,-110 482.16,-21.63 838.97,-11.55 948.88,-10.56"/>
<polygon fill="#63b8ff" stroke="#63b8ff" points="949.04,-14.06 959.01,-10.49 948.99,-7.06 949.04,-14.06"/>
</a>
</g>
</g>
<!-- Node16&#45;&gt;Node3 -->
<g id="edge30_Node000016_Node000003" class="edge">
<title>Node16&#45;&gt;Node3</title>
<g id="a_edge30_Node000016_Node000003"><a xlink:title=" ">
<path fill="none" stroke="#63b8ff" d="M453.27,-164.99C416.51,-156.95 361.18,-143.93 314.08,-129 266.06,-113.78 211.85,-91.63 179.62,-77.92"/>
<polygon fill="#63b8ff" stroke="#63b8ff" points="180.93,-74.67 170.36,-73.95 178.17,-81.1 180.93,-74.67"/>
</a>
</g>
</g>
<!-- Node16&#45;&gt;Node4 -->
<g id="edge29_Node000016_Node000004" class="edge">
<title>Node16&#45;&gt;Node4</title>
<g id="a_edge29_Node000016_Node000004"><a xlink:title=" ">
<path fill="none" stroke="#63b8ff" d="M424.2,-165.1C330.56,-153.85 167.51,-134.25 92.68,-125.26"/>
<polygon fill="#63b8ff" stroke="#63b8ff" points="92.64,-121.73 82.3,-124.01 91.81,-128.68 92.64,-121.73"/>
</a>
</g>
</g>
<!-- Node16&#45;&gt;Node5 -->
<g id="edge27_Node000016_Node000005" class="edge">
<title>Node16&#45;&gt;Node5</title>
<g id="a_edge27_Node000016_Node000005"><a xlink:title=" ">
<path fill="none" stroke="#63b8ff" d="M457.8,-164.94C428.51,-157.38 386.64,-145.05 352.08,-129 322.48,-115.25 291.15,-94.15 271.61,-80.09"/>
<polygon fill="#63b8ff" stroke="#63b8ff" points="273.65,-77.25 263.51,-74.18 269.52,-82.9 273.65,-77.25"/>
</a>
</g>
</g>
<!-- Node16&#45;&gt;Node8 -->
<g id="edge24_Node000016_Node000008" class="edge">
<title>Node16&#45;&gt;Node8</title>
<g id="a_edge24_Node000016_Node000008"><a xlink:title=" ">
<path fill="none" stroke="#63b8ff" d="M446.84,-164.98C387.46,-154.28 286.97,-136.16 234.42,-126.69"/>
<polygon fill="#63b8ff" stroke="#63b8ff" points="234.74,-123.19 224.27,-124.86 233.49,-130.08 234.74,-123.19"/>
</a>
</g>
</g>
<!-- Node16&#45;&gt;Node11 -->
<g id="edge28_Node000016_Node000011" class="edge">
<title>Node16&#45;&gt;Node11</title>
<g id="a_edge28_Node000016_Node000011"><a xlink:title=" ">
<path fill="none" stroke="#63b8ff" d="M446.4,-164.95C425.59,-158.64 403.02,-147.75 390.08,-129 369.48,-99.17 374.85,-54.33 380.21,-29.23"/>
<polygon fill="#63b8ff" stroke="#63b8ff" points="383.68,-29.75 382.58,-19.21 376.87,-28.14 383.68,-29.75"/>
</a>
</g>
</g>
<!-- Node16&#45;&gt;Node13 -->
<g id="edge23_Node000016_Node000013" class="edge">
<title>Node16&#45;&gt;Node13</title>
<g id="a_edge23_Node000016_Node000013"><a xlink:title=" ">
<path fill="none" stroke="#63b8ff" d="M523.54,-164.96C551.51,-156.62 594.58,-143.13 631.08,-129 650.18,-121.6 653.54,-116.16 673.08,-110 740.6,-88.73 822.32,-76.14 870.02,-70.05"/>
<polygon fill="#63b8ff" stroke="#63b8ff" points="870.47,-73.52 879.96,-68.81 869.6,-66.57 870.47,-73.52"/>
</a>
</g>
</g>
<!-- Node16&#45;&gt;Node14 -->
<g id="edge25_Node000016_Node000014" class="edge">
<title>Node16&#45;&gt;Node14</title>
<g id="a_edge25_Node000016_Node000014"><a xlink:title=" ">
<path fill="none" stroke="#63b8ff" d="M531.19,-164.98C571.06,-155.84 634.54,-141.27 677.92,-131.32"/>
<polygon fill="#63b8ff" stroke="#63b8ff" points="678.71,-134.73 687.67,-129.08 677.14,-127.91 678.71,-134.73"/>
</a>
</g>
</g>
<!-- Node16&#45;&gt;Node15 -->
<g id="edge33_Node000016_Node000015" class="edge">
<title>Node16&#45;&gt;Node15</title>
<g id="a_edge33_Node000016_Node000015"><a xlink:title=" ">
<path fill="none" stroke="#63b8ff" d="M507.06,-164.84C534.9,-146.28 600.59,-102.49 634.7,-79.75"/>
<polygon fill="#63b8ff" stroke="#63b8ff" points="636.65,-82.66 643.03,-74.2 632.77,-76.83 636.65,-82.66"/>
</a>
</g>
</g>
<!-- Node17 -->
<g id="Node000017" class="node">
<title>Node17</title>
<g id="a_Node000017"><a xlink:title=" ">
<polygon fill="#e0e0e0" stroke="#999999" points="1136.08,-129 1080.08,-129 1080.08,-110 1136.08,-110 1136.08,-129"/>
<text text-anchor="middle" x="1108.08" y="-117" font-family="Helvetica,sans-Serif" font-size="10.00">optional</text>
</a>
</g>
</g>
<!-- Node16&#45;&gt;Node17 -->
<g id="edge31_Node000016_Node000017" class="edge">
<title>Node16&#45;&gt;Node17</title>
<g id="a_edge31_Node000016_Node000017"><a xlink:title=" ">
<path fill="none" stroke="#63b8ff" d="M563.91,-168.42C666.73,-160.78 864.87,-145.47 1033.08,-129 1045.08,-127.82 1058.15,-126.4 1069.96,-125.05"/>
<polygon fill="#63b8ff" stroke="#63b8ff" points="1070.43,-128.52 1079.96,-123.89 1069.63,-121.56 1070.43,-128.52"/>
</a>
</g>
</g>
<!-- Node18 -->
<g id="Node000018" class="node">
<title>Node18</title>
<g id="a_Node000018"><a xlink:title=" ">
<polygon fill="#e0e0e0" stroke="#999999" points="783.58,-74 718.58,-74 718.58,-55 783.58,-55 783.58,-74"/>
<text text-anchor="middle" x="751.08" y="-62" font-family="Helvetica,sans-Serif" font-size="10.00">functional</text>
</a>
</g>
</g>
<!-- Node16&#45;&gt;Node18 -->
<g id="edge32_Node000016_Node000018" class="edge">
<title>Node16&#45;&gt;Node18</title>
<g id="a_edge32_Node000016_Node000018"><a xlink:title=" ">
<path fill="none" stroke="#63b8ff" d="M513.37,-164.9C541.23,-152.52 594.42,-129.07 640.08,-110 666.94,-98.77 697.69,-86.49 720,-77.68"/>
<polygon fill="#63b8ff" stroke="#63b8ff" points="721.29,-80.94 729.31,-74.01 718.72,-74.42 721.29,-80.94"/>
</a>
</g>
</g>
<!-- Node19 -->
<g id="Node000019" class="node">
<title>Node19</title>
<g id="a_Node000019"><a xlink:href="error_8h.html" target="_top" xlink:title=" ">
<polygon fill="white" stroke="#666666" points="1023.58,-129 938.58,-129 938.58,-110 1023.58,-110 1023.58,-129"/>
<text text-anchor="middle" x="981.08" y="-117" font-family="Helvetica,sans-Serif" font-size="10.00">Library/error.h</text>
</a>
</g>
</g>
<!-- Node16&#45;&gt;Node19 -->
<g id="edge34_Node000016_Node000019" class="edge">
<title>Node16&#45;&gt;Node19</title>
<g id="a_edge34_Node000016_Node000019"><a xlink:title=" ">
<path fill="none" stroke="#63b8ff" d="M563.59,-165.93C662.06,-155.22 839.97,-135.86 928.33,-126.24"/>
<polygon fill="#63b8ff" stroke="#63b8ff" points="928.83,-129.71 938.4,-125.14 928.08,-122.75 928.83,-129.71"/>
</a>
</g>
</g>
<!-- Node20 -->
<g id="Node000020" class="node">
<title>Node20</title>
<g id="a_Node000020"><a xlink:href="evaluate_8h.html" target="_top" xlink:title=" ">
<polygon fill="white" stroke="#666666" points="550.08,-129 432.08,-129 432.08,-110 550.08,-110 550.08,-129"/>
<text text-anchor="middle" x="491.08" y="-117" font-family="Helvetica,sans-Serif" font-size="10.00">Evaluator/evaluate.h</text>
</a>
</g>
</g>
<!-- Node16&#45;&gt;Node20 -->
<g id="edge37_Node000016_Node000020" class="edge">
<title>Node16&#45;&gt;Node20</title>
<g id="a_edge37_Node000016_Node000020"><a xlink:title=" ">
<path fill="none" stroke="#63b8ff" d="M493.58,-164.75C493.19,-157.8 492.62,-147.85 492.13,-139.13"/>
<polygon fill="#63b8ff" stroke="#63b8ff" points="495.62,-138.88 491.56,-129.09 488.63,-139.27 495.62,-138.88"/>
</a>
</g>
</g>
<!-- Node19&#45;&gt;Node2 -->
<g id="edge35_Node000019_Node000002" class="edge">
<title>Node19&#45;&gt;Node2</title>
<g id="a_edge35_Node000019_Node000002"><a xlink:title=" ">
<path fill="none" stroke="#63b8ff" d="M981.08,-109.66C981.08,-92.17 981.08,-52.8 981.08,-29.27"/>
<polygon fill="#63b8ff" stroke="#63b8ff" points="984.58,-29.16 981.08,-19.16 977.58,-29.16 984.58,-29.16"/>
</a>
</g>
</g>
<!-- Node19&#45;&gt;Node13 -->
<g id="edge36_Node000019_Node000013" class="edge">
<title>Node19&#45;&gt;Node13</title>
<g id="a_edge36_Node000019_Node000013"><a xlink:title=" ">
<path fill="none" stroke="#63b8ff" d="M969.67,-109.98C958.97,-102 942.74,-89.88 929.91,-80.31"/>
<polygon fill="#63b8ff" stroke="#63b8ff" points="931.8,-77.35 921.69,-74.17 927.61,-82.96 931.8,-77.35"/>
</a>
</g>
</g>
<!-- Node20&#45;&gt;Node2 -->
<g id="edge40_Node000020_Node000002" class="edge">
<title>Node20&#45;&gt;Node2</title>
<g id="a_edge40_Node000020_Node000002"><a xlink:title=" ">
<path fill="none" stroke="#63b8ff" d="M502.44,-109.98C521.9,-95.9 563.35,-68.01 603.08,-55 725.91,-14.77 881.73,-10.04 948.4,-10.04"/>
<polygon fill="#63b8ff" stroke="#63b8ff" points="948.68,-13.55 958.69,-10.08 948.7,-6.55 948.68,-13.55"/>
</a>
</g>
</g>
<!-- Node20&#45;&gt;Node3 -->
<g id="edge43_Node000020_Node000003" class="edge">
<title>Node20&#45;&gt;Node3</title>
<g id="a_edge43_Node000020_Node000003"><a xlink:title=" ">
<path fill="none" stroke="#63b8ff" d="M436.45,-109.98C363.62,-98.63 237.29,-78.94 180.37,-70.07"/>
<polygon fill="#63b8ff" stroke="#63b8ff" points="180.68,-66.57 170.26,-68.49 179.6,-73.49 180.68,-66.57"/>
</a>
</g>
</g>
<!-- Node20&#45;&gt;Node5 -->
<g id="edge38_Node000020_Node000005" class="edge">
<title>Node20&#45;&gt;Node5</title>
<g id="a_edge38_Node000020_Node000005"><a xlink:title=" ">
<path fill="none" stroke="#63b8ff" d="M452.68,-109.98C406.13,-99.66 328.51,-82.45 284.73,-72.74"/>
<polygon fill="#63b8ff" stroke="#63b8ff" points="285.4,-69.3 274.88,-70.56 283.88,-76.14 285.4,-69.3"/>
</a>
</g>
</g>
<!-- Node20&#45;&gt;Node9 -->
<g id="edge42_Node000020_Node000009" class="edge">
<title>Node20&#45;&gt;Node9</title>
<g id="a_edge42_Node000020_Node000009"><a xlink:title=" ">
<path fill="none" stroke="#63b8ff" d="M550.32,-112.9C668.86,-101.7 931.58,-76.88 1021.33,-68.41"/>
<polygon fill="#63b8ff" stroke="#63b8ff" points="1021.77,-71.88 1031.39,-67.45 1021.11,-64.91 1021.77,-71.88"/>
</a>
</g>
</g>
<!-- Node20&#45;&gt;Node11 -->
<g id="edge39_Node000020_Node000011" class="edge">
<title>Node20&#45;&gt;Node11</title>
<g id="a_edge39_Node000020_Node000011"><a xlink:title=" ">
<path fill="none" stroke="#63b8ff" d="M482.4,-109.66C464.53,-91.46 423.4,-49.55 400.75,-26.47"/>
<polygon fill="#63b8ff" stroke="#63b8ff" points="403.08,-23.84 393.57,-19.16 398.08,-28.75 403.08,-23.84"/>
</a>
</g>
</g>
<!-- Node20&#45;&gt;Node15 -->
<g id="edge44_Node000020_Node000015" class="edge">
<title>Node20&#45;&gt;Node15</title>
<g id="a_edge44_Node000020_Node000015"><a xlink:title=" ">
<path fill="none" stroke="#63b8ff" d="M517.59,-109.98C545.29,-101.09 588.94,-87.07 619.82,-77.15"/>
<polygon fill="#63b8ff" stroke="#63b8ff" points="620.91,-80.47 629.36,-74.08 618.77,-73.81 620.91,-80.47"/>
</a>
</g>
</g>
<!-- Node20&#45;&gt;Node18 -->
<g id="edge41_Node000020_Node000018" class="edge">
<title>Node20&#45;&gt;Node18</title>
<g id="a_edge41_Node000020_Node000018"><a xlink:title=" ">
<path fill="none" stroke="#63b8ff" d="M533.48,-109.94C575.53,-101.43 642.09,-87.94 708.6,-74.3"/>
<polygon fill="#63b8ff" stroke="#63b8ff" points="709.31,-77.72 718.41,-72.29 707.91,-70.87 709.31,-77.72"/>
</a>
</g>
</g>
<!-- Node21&#45;&gt;Node2 -->
<g id="edge48_Node000021_Node000002" class="edge">
<title>Node21&#45;&gt;Node2</title>
<g id="a_edge48_Node000021_Node000002"><a xlink:title=" ">
<path fill="none" stroke="#63b8ff" d="M990.27,-277.26C1090.36,-265.34 1278.08,-235.04 1278.08,-175.5 1278.08,-175.5 1278.08,-175.5 1278.08,-118.5 1278.08,-62.69 1090.53,-27.38 1013.5,-15.23"/>
<polygon fill="#63b8ff" stroke="#63b8ff" points="1013.82,-11.74 1003.4,-13.67 1012.75,-18.66 1013.82,-11.74"/>
</a>
</g>
</g>
<!-- Node21&#45;&gt;Node4 -->
<g id="edge46_Node000021_Node000004" class="edge">
<title>Node21&#45;&gt;Node4</title>
<g id="a_edge46_Node000021_Node000004"><a xlink:title=" ">
<path fill="none" stroke="#63b8ff" d="M868.02,-281.38C726.68,-276.14 380.35,-261.39 266.08,-239 189.8,-224.06 163.02,-229.59 100.08,-184 83.47,-171.97 70.23,-152.34 62.09,-138.08"/>
<polygon fill="#63b8ff" stroke="#63b8ff" points="65.13,-136.35 57.29,-129.23 58.98,-139.69 65.13,-136.35"/>
</a>
</g>
</g>
<!-- Node21&#45;&gt;Node5 -->
<g id="edge51_Node000021_Node000005" class="edge">
<title>Node21&#45;&gt;Node5</title>
<g id="a_edge51_Node000021_Node000005"><a xlink:title=" ">
<path fill="none" stroke="#63b8ff" d="M867.78,-277.93C769.85,-267.63 573.12,-241.25 416.08,-184 403.98,-179.59 324.36,-136.75 314.08,-129 295.53,-115.02 277.33,-95.49 265.5,-81.79"/>
<polygon fill="#63b8ff" stroke="#63b8ff" points="268.14,-79.49 259.01,-74.12 262.8,-84.01 268.14,-79.49"/>
</a>
</g>
</g>
<!-- Node21&#45;&gt;Node6 -->
<g id="edge53_Node000021_Node000006" class="edge">
<title>Node21&#45;&gt;Node6</title>
<g id="a_edge53_Node000021_Node000006"><a xlink:title=" ">
<path fill="none" stroke="#63b8ff" d="M867.96,-279.2C768.95,-272.06 567.39,-256.76 397.08,-239 395.78,-238.86 394.47,-238.73 393.15,-238.58"/>
<polygon fill="#63b8ff" stroke="#63b8ff" points="393.2,-235.07 382.87,-237.43 392.42,-242.02 393.2,-235.07"/>
</a>
</g>
</g>
<!-- Node21&#45;&gt;Node9 -->
<g id="edge49_Node000021_Node000009" class="edge">
<title>Node21&#45;&gt;Node9</title>
<g id="a_edge49_Node000021_Node000009"><a xlink:title=" ">
<path fill="none" stroke="#63b8ff" d="M953.65,-274.98C1001.42,-256.87 1105.6,-209.52 1145.08,-129 1159.52,-99.54 1115.05,-81.41 1082.71,-72.42"/>
<polygon fill="#63b8ff" stroke="#63b8ff" points="1083.28,-68.96 1072.72,-69.82 1081.52,-75.73 1083.28,-68.96"/>
</a>
</g>
</g>
<!-- Node21&#45;&gt;Node10 -->
<g id="edge50_Node000021_Node000010" class="edge">
<title>Node21&#45;&gt;Node10</title>
<g id="a_edge50_Node000021_Node000010"><a xlink:title=" ">
<path fill="none" stroke="#63b8ff" d="M990.4,-279.11C1099.52,-269.59 1316.08,-242.29 1316.08,-175.5 1316.08,-175.5 1316.08,-175.5 1316.08,-118.5 1316.08,-79.47 1282.46,-44.58 1259.95,-25.6"/>
<polygon fill="#63b8ff" stroke="#63b8ff" points="1261.93,-22.7 1251.95,-19.12 1257.52,-28.14 1261.93,-22.7"/>
</a>
</g>
</g>
<!-- Node21&#45;&gt;Node15 -->
<g id="edge55_Node000021_Node000015" class="edge">
<title>Node21&#45;&gt;Node15</title>
<g id="a_edge55_Node000021_Node000015"><a xlink:title=" ">
<path fill="none" stroke="#63b8ff" d="M924.66,-274.82C909.91,-246.66 859.43,-157.01 792.08,-110 767.87,-93.11 736.84,-82.31 710.53,-75.59"/>
<polygon fill="#63b8ff" stroke="#63b8ff" points="711.24,-72.16 700.7,-73.21 709.59,-78.96 711.24,-72.16"/>
</a>
</g>
</g>
<!-- Node21&#45;&gt;Node16 -->
<g id="edge54_Node000021_Node000016" class="edge">
<title>Node21&#45;&gt;Node16</title>
<g id="a_edge54_Node000021_Node000016"><a xlink:title=" ">
<path fill="none" stroke="#63b8ff" d="M894.58,-274.94C816.29,-255.5 625.27,-208.07 538.39,-186.5"/>
<polygon fill="#63b8ff" stroke="#63b8ff" points="539.13,-183.08 528.58,-184.07 537.44,-189.87 539.13,-183.08"/>
</a>
</g>
</g>
<!-- Node21&#45;&gt;Node17 -->
<g id="edge47_Node000021_Node000017" class="edge">
<title>Node21&#45;&gt;Node17</title>
<g id="a_edge47_Node000021_Node000017"><a xlink:title=" ">
<path fill="none" stroke="#63b8ff" d="M939.08,-274.68C949.2,-265.74 965.29,-251.47 979.08,-239 1019.61,-202.35 1066.8,-158.77 1091.33,-136.04"/>
<polygon fill="#63b8ff" stroke="#63b8ff" points="1093.78,-138.54 1098.73,-129.17 1089.02,-133.41 1093.78,-138.54"/>
</a>
</g>
</g>
<!-- Node21&#45;&gt;Node18 -->
<g id="edge52_Node000021_Node000018" class="edge">
<title>Node21&#45;&gt;Node18</title>
<g id="a_edge52_Node000021_Node000018"><a xlink:title=" ">
<path fill="none" stroke="#63b8ff" d="M931.13,-274.8C935.5,-254.24 943.77,-201.64 924.08,-165 897.57,-115.7 835.63,-89 793.52,-76.01"/>
<polygon fill="#63b8ff" stroke="#63b8ff" points="794.39,-72.61 783.81,-73.14 792.41,-79.33 794.39,-72.61"/>
</a>
</g>
</g>
<!-- Node21&#45;&gt;Node19 -->
<g id="edge56_Node000021_Node000019" class="edge">
<title>Node21&#45;&gt;Node19</title>
<g id="a_edge56_Node000021_Node000019"><a xlink:title=" ">
<path fill="none" stroke="#63b8ff" d="M937.58,-274.76C945.27,-266.33 956.25,-252.83 962.08,-239 976.04,-205.83 979.81,-163.47 980.79,-139.43"/>
<polygon fill="#63b8ff" stroke="#63b8ff" points="984.29,-139.31 981.07,-129.21 977.29,-139.11 984.29,-139.31"/>
</a>
</g>
</g>
</g>
</svg>
