<?xml version="1.0" encoding="UTF-8" standalone="no"?>
<!DOCTYPE svg PUBLIC "-//W3C//DTD SVG 1.1//EN"
 "http://www.w3.org/Graphics/SVG/1.1/DTD/svg11.dtd">
<!-- Generated by graphviz version 2.43.0 (0)
 -->
<!-- Title: include/RefPack/ref.h Pages: 1 -->
<!--zoomable 357 -->

<svg id="main" version="1.1" xmlns="http://www.w3.org/2000/svg" xmlns:xlink="http://www.w3.org/1999/xlink" xml:space="preserve" onload="init(evt)">
<style type="text/css"><![CDATA[
.node, .edge {opacity: 0.7;}
.node.selected, .edge.selected {opacity: 1;}
.edge:hover path { stroke: red; }
.edge:hover polygon { stroke: red; fill: red; }
]]></style>

<defs>
  <circle id="rim" cx="0" cy="0" r="7"/>
  <circle id="rim2" cx="0" cy="0" r="3.5"/>
  <g id="zoomPlus">
    <use xlink:href="#rim" fill="#404040"><set attributeName="fill" to="#808080" begin="zoomplus.mouseover" end="zoomplus.mouseout"/></use>
    <path d="M-4,0h8M0,-4v8" fill="none" stroke="white" stroke-width="1.5" pointer-events="none"/>
  </g>
  <g id="zoomMin">
    <use xlink:href="#rim" fill="#404040"><set attributeName="fill" to="#808080" begin="zoomminus.mouseover" end="zoomminus.mouseout"/></use>
    <path d="M-4,0h8" fill="none" stroke="white" stroke-width="1.5" pointer-events="none"/>
  </g>
  <g id="arrowUp" transform="translate(30 24)">
    <use xlink:href="#rim"/>
    <path pointer-events="none" fill="none" stroke="white" stroke-width="1.5" d="M0,-3.0v7 M-2.5,-0.5L0,-3.0L2.5,-0.5"/>
  </g>
  <g id="arrowRight" transform="rotate(90) translate(36 -43)">
    <use xlink:href="#rim"/>
    <path pointer-events="none" fill="none" stroke="white" stroke-width="1.5" d="M0,-3.0v7 M-2.5,-0.5L0,-3.0L2.5,-0.5"/>
  </g>
  <g id="arrowDown" transform="rotate(180) translate(-30 -48)">
    <use xlink:href="#rim"/>
    <path pointer-events="none" fill="none" stroke="white" stroke-width="1.5" d="M0,-3.0v7 M-2.5,-0.5L0,-3.0L2.5,-0.5"/>
  </g>
  <g id="arrowLeft" transform="rotate(270) translate(-36 17)">
    <use xlink:href="#rim"/>
    <path pointer-events="none" fill="none" stroke="white" stroke-width="1.5" d="M0,-3.0v7 M-2.5,-0.5L0,-3.0L2.5,-0.5"/>
  </g>
  <g id="resetDef">
    <use xlink:href="#rim2" fill="#404040"><set attributeName="fill" to="#808080" begin="reset.mouseover" end="reset.mouseout"/></use>
  </g>
</defs>
<script type="application/ecmascript">
var viewWidth = 1190;
var viewHeight = 357;
var sectionId = 'dynsection-0';
</script>
<script type="application/ecmascript" xlink:href="svg.min.js"/>
<svg id="graph" class="graph">
<g id="viewport">
<title>include/RefPack/ref.h</title>
<!-- Node1 -->
<g id="Node000001" class="node">
<title>Node1</title>
<g id="a_Node000001"><a xlink:title=" ">
<polygon fill="#999999" stroke="#666666" points="503.69,-349 384.69,-349 384.69,-330 503.69,-330 503.69,-349"/>
<text text-anchor="middle" x="444.19" y="-337" font-family="Helvetica,sans-Serif" font-size="10.00">include/RefPack/ref.h</text>
</a>
</g>
</g>
<!-- Node2 -->
<g id="Node000002" class="node">
<title>Node2</title>
<g id="a_Node000002"><a xlink:title=" ">
<polygon fill="#e0e0e0" stroke="#999999" points="986.19,-19 942.19,-19 942.19,0 986.19,0 986.19,-19"/>
<text text-anchor="middle" x="964.19" y="-7" font-family="Helvetica,sans-Serif" font-size="10.00">string</text>
</a>
</g>
</g>
<!-- Node1&#45;&gt;Node2 -->
<g id="edge1_Node000001_Node000002" class="edge">
<title>Node1&#45;&gt;Node2</title>
<g id="a_edge1_Node000001_Node000002"><a xlink:title=" ">
<path fill="none" stroke="#63b8ff" d="M503.96,-336.02C679.65,-327.95 1182.19,-298.89 1182.19,-230.5 1182.19,-230.5 1182.19,-230.5 1182.19,-118.5 1182.19,-36.62 1057.18,-16.82 996.49,-12.03"/>
<polygon fill="#63b8ff" stroke="#63b8ff" points="996.51,-8.52 986.29,-11.32 996.02,-15.5 996.51,-8.52"/>
</a>
</g>
</g>
<!-- Node3 -->
<g id="Node000003" class="node">
<title>Node3</title>
<g id="a_Node000003"><a xlink:title=" ">
<polygon fill="#e0e0e0" stroke="#999999" points="206.19,-74 168.19,-74 168.19,-55 206.19,-55 206.19,-74"/>
<text text-anchor="middle" x="187.19" y="-62" font-family="Helvetica,sans-Serif" font-size="10.00">map</text>
</a>
</g>
</g>
<!-- Node1&#45;&gt;Node3 -->
<g id="edge2_Node000001_Node000003" class="edge">
<title>Node1&#45;&gt;Node3</title>
<g id="a_edge2_Node000001_Node000003"><a xlink:title=" ">
<path fill="none" stroke="#63b8ff" d="M384.52,-330.1C306.84,-315.6 174.07,-277.79 115.19,-184 108.19,-172.85 99.89,-140.18 117.19,-110 126.23,-94.22 143.4,-83.17 158.47,-76.04"/>
<polygon fill="#63b8ff" stroke="#63b8ff" points="160.19,-79.1 167.96,-71.9 157.39,-72.69 160.19,-79.1"/>
</a>
</g>
</g>
<!-- Node4 -->
<g id="Node000004" class="node">
<title>Node4</title>
<g id="a_Node000004"><a xlink:title=" ">
<polygon fill="#e0e0e0" stroke="#999999" points="280.19,-129 222.19,-129 222.19,-110 280.19,-110 280.19,-129"/>
<text text-anchor="middle" x="251.19" y="-117" font-family="Helvetica,sans-Serif" font-size="10.00">memory</text>
</a>
</g>
</g>
<!-- Node1&#45;&gt;Node4 -->
<g id="edge3_Node000001_Node000004" class="edge">
<title>Node1&#45;&gt;Node4</title>
<g id="a_edge3_Node000001_Node000004"><a xlink:title=" ">
<path fill="none" stroke="#63b8ff" d="M445.95,-329.95C451.13,-302.22 463.36,-213.69 420.19,-165 419.08,-163.75 339.72,-143.21 290.16,-130.48"/>
<polygon fill="#63b8ff" stroke="#63b8ff" points="290.93,-127.07 280.38,-127.97 289.19,-133.85 290.93,-127.07"/>
</a>
</g>
</g>
<!-- Node5 -->
<g id="Node000005" class="node">
<title>Node5</title>
<g id="a_Node000005"><a xlink:title=" ">
<polygon fill="#e0e0e0" stroke="#999999" points="453.69,-74 408.69,-74 408.69,-55 453.69,-55 453.69,-74"/>
<text text-anchor="middle" x="431.19" y="-62" font-family="Helvetica,sans-Serif" font-size="10.00">utility</text>
</a>
</g>
</g>
<!-- Node1&#45;&gt;Node5 -->
<g id="edge4_Node000001_Node000005" class="edge">
<title>Node1&#45;&gt;Node5</title>
<g id="a_edge4_Node000001_Node000005"><a xlink:title=" ">
<path fill="none" stroke="#63b8ff" d="M439.11,-329.79C422.19,-301.57 364.75,-211.71 293.19,-165 257.06,-141.42 185.73,-143.28 213.19,-110 264.78,-47.46 313.38,-89.43 398.5,-73.8"/>
<polygon fill="#63b8ff" stroke="#63b8ff" points="399.43,-77.18 408.51,-71.73 398.01,-70.33 399.43,-77.18"/>
</a>
</g>
</g>
<!-- Node6 -->
<g id="Node000006" class="node">
<title>Node6</title>
<g id="a_Node000006"><a xlink:href="channel_8h.html" target="_top" xlink:title=" ">
<polygon fill="white" stroke="#666666" points="345.69,-239 238.69,-239 238.69,-220 345.69,-220 345.69,-239"/>
<text text-anchor="middle" x="292.19" y="-227" font-family="Helvetica,sans-Serif" font-size="10.00">Channel/channel.h</text>
</a>
</g>
</g>
<!-- Node1&#45;&gt;Node6 -->
<g id="edge5_Node000001_Node000006" class="edge">
<title>Node1&#45;&gt;Node6</title>
<g id="a_edge5_Node000001_Node000006"><a xlink:title=" ">
<path fill="none" stroke="#63b8ff" d="M432.01,-329.84C405.99,-311.36 344.77,-267.86 312.66,-245.05"/>
<polygon fill="#63b8ff" stroke="#63b8ff" points="314.61,-242.14 304.43,-239.2 310.55,-247.84 314.61,-242.14"/>
</a>
</g>
</g>
<!-- Node13 -->
<g id="Node000013" class="node">
<title>Node13</title>
<g id="a_Node000013"><a xlink:href="transaction_8h_source.html" target="_top" xlink:title=" ">
<polygon fill="white" stroke="#666666" points="672.69,-184 533.69,-184 533.69,-165 672.69,-165 672.69,-184"/>
<text text-anchor="middle" x="603.19" y="-172" font-family="Helvetica,sans-Serif" font-size="10.00">Transaction/transaction.h</text>
</a>
</g>
</g>
<!-- Node1&#45;&gt;Node13 -->
<g id="edge51_Node000001_Node000013" class="edge">
<title>Node1&#45;&gt;Node13</title>
<g id="a_edge51_Node000001_Node000013"><a xlink:title=" ">
<path fill="none" stroke="#63b8ff" d="M452.74,-329.74C478.3,-303.53 554.4,-225.51 587.51,-191.57"/>
<polygon fill="#63b8ff" stroke="#63b8ff" points="590.12,-193.91 594.6,-184.31 585.11,-189.02 590.12,-193.91"/>
</a>
</g>
</g>
<!-- Node20 -->
<g id="Node000020" class="node">
<title>Node20</title>
<g id="a_Node000020"><a xlink:href="driverModel_8h.html" target="_top" xlink:title=" ">
<polygon fill="white" stroke="#666666" points="911.19,-294 789.19,-294 789.19,-275 911.19,-275 911.19,-294"/>
<text text-anchor="middle" x="850.19" y="-282" font-family="Helvetica,sans-Serif" font-size="10.00">Drivers/driverModel.h</text>
</a>
</g>
</g>
<!-- Node1&#45;&gt;Node20 -->
<g id="edge40_Node000001_Node000020" class="edge">
<title>Node1&#45;&gt;Node20</title>
<g id="a_edge40_Node000001_Node000020"><a xlink:title=" ">
<path fill="none" stroke="#63b8ff" d="M504.1,-330.68C577.24,-321.13 700.82,-305 778.82,-294.82"/>
<polygon fill="#63b8ff" stroke="#63b8ff" points="779.58,-298.25 789.04,-293.48 778.67,-291.31 779.58,-298.25"/>
</a>
</g>
</g>
<!-- Node6&#45;&gt;Node2 -->
<g id="edge8_Node000006_Node000002" class="edge">
<title>Node6&#45;&gt;Node2</title>
<g id="a_edge8_Node000006_Node000002"><a xlink:title=" ">
<path fill="none" stroke="#63b8ff" d="M345.88,-226.44C421.73,-222.63 564.18,-212.08 682.19,-184 750.86,-167.66 770.67,-165.34 831.19,-129 879.78,-99.82 926.97,-51.68 949.85,-26.69"/>
<polygon fill="#63b8ff" stroke="#63b8ff" points="952.55,-28.93 956.65,-19.16 947.35,-24.24 952.55,-28.93"/>
</a>
</g>
</g>
<!-- Node6&#45;&gt;Node3 -->
<g id="edge11_Node000006_Node000003" class="edge">
<title>Node6&#45;&gt;Node3</title>
<g id="a_edge11_Node000006_Node000003"><a xlink:title=" ">
<path fill="none" stroke="#63b8ff" d="M238.67,-221.27C195.56,-214.22 139.95,-201.93 126.19,-184 118.88,-174.48 110,-144.89 128.19,-110 135.04,-96.85 147.73,-86.51 159.58,-79.12"/>
<polygon fill="#63b8ff" stroke="#63b8ff" points="161.47,-82.07 168.38,-74.04 157.97,-76.01 161.47,-82.07"/>
</a>
</g>
</g>
<!-- Node6&#45;&gt;Node4 -->
<g id="edge7_Node000006_Node000004" class="edge">
<title>Node6&#45;&gt;Node4</title>
<g id="a_edge7_Node000006_Node000004"><a xlink:title=" ">
<path fill="none" stroke="#63b8ff" d="M297.47,-219.88C304.46,-207.28 314.94,-183.34 306.19,-165 300.09,-152.23 288.35,-141.94 277.27,-134.49"/>
<polygon fill="#63b8ff" stroke="#63b8ff" points="278.99,-131.43 268.65,-129.12 275.29,-137.38 278.99,-131.43"/>
</a>
</g>
</g>
<!-- Node6&#45;&gt;Node5 -->
<g id="edge12_Node000006_Node000005" class="edge">
<title>Node6&#45;&gt;Node5</title>
<g id="a_edge12_Node000006_Node000005"><a xlink:title=" ">
<path fill="none" stroke="#63b8ff" d="M291.94,-219.95C291.09,-206.55 287.56,-180.55 273.19,-165 240.59,-129.74 149.11,-146.61 180.19,-110 210.36,-74.46 336.1,-83.19 398.39,-73.66"/>
<polygon fill="#63b8ff" stroke="#63b8ff" points="399.32,-77.05 408.53,-71.81 398.06,-70.16 399.32,-77.05"/>
</a>
</g>
</g>
<!-- Node7 -->
<g id="Node000007" class="node">
<title>Node7</title>
<g id="a_Node000007"><a xlink:title=" ">
<polygon fill="#e0e0e0" stroke="#999999" points="199.69,-184 146.69,-184 146.69,-165 199.69,-165 199.69,-184"/>
<text text-anchor="middle" x="173.19" y="-172" font-family="Helvetica,sans-Serif" font-size="10.00">iterator</text>
</a>
</g>
</g>
<!-- Node6&#45;&gt;Node7 -->
<g id="edge6_Node000006_Node000007" class="edge">
<title>Node6&#45;&gt;Node7</title>
<g id="a_edge6_Node000006_Node000007"><a xlink:title=" ">
<path fill="none" stroke="#63b8ff" d="M273.07,-219.98C253.84,-211.42 223.96,-198.11 201.88,-188.28"/>
<polygon fill="#63b8ff" stroke="#63b8ff" points="203.21,-185.04 192.66,-184.17 200.37,-191.44 203.21,-185.04"/>
</a>
</g>
</g>
<!-- Node8 -->
<g id="Node000008" class="node">
<title>Node8</title>
<g id="a_Node000008"><a xlink:title=" ">
<polygon fill="#e0e0e0" stroke="#999999" points="390.69,-74 349.69,-74 349.69,-55 390.69,-55 390.69,-74"/>
<text text-anchor="middle" x="370.19" y="-62" font-family="Helvetica,sans-Serif" font-size="10.00">tuple</text>
</a>
</g>
</g>
<!-- Node6&#45;&gt;Node8 -->
<g id="edge9_Node000006_Node000008" class="edge">
<title>Node6&#45;&gt;Node8</title>
<g id="a_edge9_Node000006_Node000008"><a xlink:title=" ">
<path fill="none" stroke="#63b8ff" d="M238.55,-220.11C198.84,-212.67 149.57,-200.44 137.19,-184 127.09,-170.6 120.27,-134.28 142.19,-110 168.15,-81.24 283.55,-70.59 339.53,-67.06"/>
<polygon fill="#63b8ff" stroke="#63b8ff" points="339.8,-70.55 349.57,-66.46 339.38,-63.56 339.8,-70.55"/>
</a>
</g>
</g>
<!-- Node9 -->
<g id="Node000009" class="node">
<title>Node9</title>
<g id="a_Node000009"><a xlink:title=" ">
<polygon fill="#e0e0e0" stroke="#999999" points="639.69,-19 546.69,-19 546.69,0 639.69,0 639.69,-19"/>
<text text-anchor="middle" x="593.19" y="-7" font-family="Helvetica,sans-Serif" font-size="10.00">unordered_map</text>
</a>
</g>
</g>
<!-- Node6&#45;&gt;Node9 -->
<g id="edge10_Node000006_Node000009" class="edge">
<title>Node6&#45;&gt;Node9</title>
<g id="a_edge10_Node000006_Node000009"><a xlink:title=" ">
<path fill="none" stroke="#63b8ff" d="M238.33,-222.23C191.99,-215.59 130.29,-203.37 115.19,-184 77.94,-136.23 106.33,-84.59 159.19,-55 191.36,-36.99 425.68,-20.63 536.02,-13.83"/>
<polygon fill="#63b8ff" stroke="#63b8ff" points="536.53,-17.31 546.3,-13.2 536.1,-10.32 536.53,-17.31"/>
</a>
</g>
</g>
<!-- Node10 -->
<g id="Node000010" class="node">
<title>Node10</title>
<g id="a_Node000010"><a xlink:title=" ">
<polygon fill="#e0e0e0" stroke="#999999" points="424.69,-19 377.69,-19 377.69,0 424.69,0 424.69,-19"/>
<text text-anchor="middle" x="401.19" y="-7" font-family="Helvetica,sans-Serif" font-size="10.00">vector</text>
</a>
</g>
</g>
<!-- Node6&#45;&gt;Node10 -->
<g id="edge13_Node000006_Node000010" class="edge">
<title>Node6&#45;&gt;Node10</title>
<g id="a_edge13_Node000006_Node000010"><a xlink:title=" ">
<path fill="none" stroke="#63b8ff" d="M238.4,-227.32C169.15,-224.53 54.56,-215.19 28.19,-184 -8.83,-140.22 -9.88,-97.87 28.19,-55 50.56,-29.81 279.82,-16.29 367.42,-12.02"/>
<polygon fill="#63b8ff" stroke="#63b8ff" points="367.79,-15.5 377.62,-11.53 367.46,-8.51 367.79,-15.5"/>
</a>
</g>
</g>
<!-- Node11 -->
<g id="Node000011" class="node">
<title>Node11</title>
<g id="a_Node000011"><a xlink:title=" ">
<polygon fill="#e0e0e0" stroke="#999999" points="264.19,-184 218.19,-184 218.19,-165 264.19,-165 264.19,-184"/>
<text text-anchor="middle" x="241.19" y="-172" font-family="Helvetica,sans-Serif" font-size="10.00">future</text>
</a>
</g>
</g>
<!-- Node6&#45;&gt;Node11 -->
<g id="edge14_Node000006_Node000011" class="edge">
<title>Node6&#45;&gt;Node11</title>
<g id="a_edge14_Node000006_Node000011"><a xlink:title=" ">
<path fill="none" stroke="#63b8ff" d="M283.77,-219.75C276.41,-212.11 265.56,-200.82 256.65,-191.56"/>
<polygon fill="#63b8ff" stroke="#63b8ff" points="258.91,-188.87 249.45,-184.09 253.87,-193.72 258.91,-188.87"/>
</a>
</g>
</g>
<!-- Node12 -->
<g id="Node000012" class="node">
<title>Node12</title>
<g id="a_Node000012"><a xlink:href="types_8h.html" target="_top" xlink:title=" ">
<polygon fill="white" stroke="#666666" points="637.69,-74 548.69,-74 548.69,-55 637.69,-55 637.69,-74"/>
<text text-anchor="middle" x="593.19" y="-62" font-family="Helvetica,sans-Serif" font-size="10.00">Library/types.h</text>
</a>
</g>
</g>
<!-- Node6&#45;&gt;Node12 -->
<g id="edge15_Node000006_Node000012" class="edge">
<title>Node6&#45;&gt;Node12</title>
<g id="a_edge15_Node000006_Node000012"><a xlink:title=" ">
<path fill="none" stroke="#63b8ff" d="M327.99,-219.93C378.57,-206.59 472.24,-177.25 539.19,-129 556.91,-116.23 572.51,-96.44 582.32,-82.35"/>
<polygon fill="#63b8ff" stroke="#63b8ff" points="585.23,-84.3 587.9,-74.05 579.42,-80.4 585.23,-84.3"/>
</a>
</g>
</g>
<!-- Node6&#45;&gt;Node13 -->
<g id="edge19_Node000006_Node000013" class="edge">
<title>Node6&#45;&gt;Node13</title>
<g id="a_edge19_Node000006_Node000013"><a xlink:title=" ">
<path fill="none" stroke="#63b8ff" d="M342.16,-219.98C396.82,-210.67 484.44,-195.74 542.89,-185.78"/>
<polygon fill="#63b8ff" stroke="#63b8ff" points="543.82,-189.17 553.09,-184.04 542.64,-182.27 543.82,-189.17"/>
</a>
</g>
</g>
<!-- Node12&#45;&gt;Node2 -->
<g id="edge18_Node000012_Node000002" class="edge">
<title>Node12&#45;&gt;Node2</title>
<g id="a_edge18_Node000012_Node000002"><a xlink:title=" ">
<path fill="none" stroke="#63b8ff" d="M637.97,-56.39C641.09,-55.92 644.18,-55.45 647.19,-55 751.2,-39.51 874.64,-22.61 931.96,-14.84"/>
<polygon fill="#63b8ff" stroke="#63b8ff" points="932.44,-18.31 941.88,-13.5 931.5,-11.37 932.44,-18.31"/>
</a>
</g>
</g>
<!-- Node12&#45;&gt;Node9 -->
<g id="edge17_Node000012_Node000009" class="edge">
<title>Node12&#45;&gt;Node9</title>
<g id="a_edge17_Node000012_Node000009"><a xlink:title=" ">
<path fill="none" stroke="#63b8ff" d="M593.19,-54.75C593.19,-47.8 593.19,-37.85 593.19,-29.13"/>
<polygon fill="#63b8ff" stroke="#63b8ff" points="596.69,-29.09 593.19,-19.09 589.69,-29.09 596.69,-29.09"/>
</a>
</g>
</g>
<!-- Node12&#45;&gt;Node10 -->
<g id="edge16_Node000012_Node000010" class="edge">
<title>Node12&#45;&gt;Node10</title>
<g id="a_edge16_Node000012_Node000010"><a xlink:title=" ">
<path fill="none" stroke="#63b8ff" d="M562.34,-54.98C527.41,-45.34 470.71,-29.69 434.71,-19.75"/>
<polygon fill="#63b8ff" stroke="#63b8ff" points="435.27,-16.28 424.7,-16.99 433.41,-23.02 435.27,-16.28"/>
</a>
</g>
</g>
<!-- Node13&#45;&gt;Node2 -->
<g id="edge20_Node000013_Node000002" class="edge">
<title>Node13&#45;&gt;Node2</title>
<g id="a_edge20_Node000013_Node000002"><a xlink:title=" ">
<path fill="none" stroke="#63b8ff" d="M622.09,-164.97C681.53,-138.13 864.92,-55.32 935.81,-23.31"/>
<polygon fill="#63b8ff" stroke="#63b8ff" points="937.37,-26.45 945.04,-19.15 934.49,-20.07 937.37,-26.45"/>
</a>
</g>
</g>
<!-- Node13&#45;&gt;Node3 -->
<g id="edge25_Node000013_Node000003" class="edge">
<title>Node13&#45;&gt;Node3</title>
<g id="a_edge25_Node000013_Node000003"><a xlink:title=" ">
<path fill="none" stroke="#63b8ff" d="M533.6,-166.98C478.21,-160.63 399.13,-148.93 332.19,-129 312.16,-123.04 308.32,-118.4 289.19,-110 264.41,-99.12 236.21,-86.82 215.75,-77.92"/>
<polygon fill="#63b8ff" stroke="#63b8ff" points="216.94,-74.62 206.38,-73.84 214.15,-81.04 216.94,-74.62"/>
</a>
</g>
</g>
<!-- Node13&#45;&gt;Node4 -->
<g id="edge23_Node000013_Node000004" class="edge">
<title>Node13&#45;&gt;Node4</title>
<g id="a_edge23_Node000013_Node000004"><a xlink:title=" ">
<path fill="none" stroke="#63b8ff" d="M537.03,-164.99C474.35,-156.68 377.67,-143.25 294.19,-129 292.92,-128.78 291.64,-128.56 290.34,-128.33"/>
<polygon fill="#63b8ff" stroke="#63b8ff" points="290.77,-124.85 280.29,-126.47 289.49,-131.73 290.77,-124.85"/>
</a>
</g>
</g>
<!-- Node13&#45;&gt;Node5 -->
<g id="edge21_Node000013_Node000005" class="edge">
<title>Node13&#45;&gt;Node5</title>
<g id="a_edge21_Node000013_Node000005"><a xlink:title=" ">
<path fill="none" stroke="#63b8ff" d="M533.66,-167.2C482.63,-160.96 419.49,-149.33 403.19,-129 391.83,-114.83 403.55,-95.34 415.11,-81.7"/>
<polygon fill="#63b8ff" stroke="#63b8ff" points="417.93,-83.81 422.08,-74.06 412.76,-79.09 417.93,-83.81"/>
</a>
</g>
</g>
<!-- Node13&#45;&gt;Node10 -->
<g id="edge22_Node000013_Node000010" class="edge">
<title>Node13&#45;&gt;Node10</title>
<g id="a_edge22_Node000013_Node000010"><a xlink:title=" ">
<path fill="none" stroke="#63b8ff" d="M545.85,-164.98C493.58,-156.54 420.74,-142.89 395.19,-129 359.19,-109.42 321.62,-91.53 340.19,-55 346.96,-41.68 359.79,-31.41 371.94,-24.1"/>
<polygon fill="#63b8ff" stroke="#63b8ff" points="373.94,-26.99 380.99,-19.09 370.55,-20.87 373.94,-26.99"/>
</a>
</g>
</g>
<!-- Node13&#45;&gt;Node12 -->
<g id="edge28_Node000013_Node000012" class="edge">
<title>Node13&#45;&gt;Node12</title>
<g id="a_edge28_Node000013_Node000012"><a xlink:title=" ">
<path fill="none" stroke="#63b8ff" d="M615.22,-164.9C630.15,-153.09 652.58,-130.92 643.19,-110 637.69,-97.74 626.96,-87.48 616.84,-79.91"/>
<polygon fill="#63b8ff" stroke="#63b8ff" points="618.83,-77.03 608.62,-74.2 614.84,-82.78 618.83,-77.03"/>
</a>
</g>
</g>
<!-- Node14 -->
<g id="Node000014" class="node">
<title>Node14</title>
<g id="a_Node000014"><a xlink:title=" ">
<polygon fill="#e0e0e0" stroke="#999999" points="634.19,-129 586.19,-129 586.19,-110 634.19,-110 634.19,-129"/>
<text text-anchor="middle" x="610.19" y="-117" font-family="Helvetica,sans-Serif" font-size="10.00">mutex</text>
</a>
</g>
</g>
<!-- Node13&#45;&gt;Node14 -->
<g id="edge24_Node000013_Node000014" class="edge">
<title>Node13&#45;&gt;Node14</title>
<g id="a_edge24_Node000013_Node000014"><a xlink:title=" ">
<path fill="none" stroke="#63b8ff" d="M604.34,-164.75C605.26,-157.8 606.58,-147.85 607.73,-139.13"/>
<polygon fill="#63b8ff" stroke="#63b8ff" points="611.21,-139.46 609.05,-129.09 604.27,-138.54 611.21,-139.46"/>
</a>
</g>
</g>
<!-- Node15 -->
<g id="Node000015" class="node">
<title>Node15</title>
<g id="a_Node000015"><a xlink:title=" ">
<polygon fill="#e0e0e0" stroke="#999999" points="822.19,-129 766.19,-129 766.19,-110 822.19,-110 822.19,-129"/>
<text text-anchor="middle" x="794.19" y="-117" font-family="Helvetica,sans-Serif" font-size="10.00">optional</text>
</a>
</g>
</g>
<!-- Node13&#45;&gt;Node15 -->
<g id="edge26_Node000013_Node000015" class="edge">
<title>Node13&#45;&gt;Node15</title>
<g id="a_edge26_Node000013_Node000015"><a xlink:title=" ">
<path fill="none" stroke="#63b8ff" d="M633.88,-164.98C667.08,-155.77 720.09,-141.06 755.98,-131.1"/>
<polygon fill="#63b8ff" stroke="#63b8ff" points="757.37,-134.35 766.07,-128.3 755.5,-127.6 757.37,-134.35"/>
</a>
</g>
</g>
<!-- Node16 -->
<g id="Node000016" class="node">
<title>Node16</title>
<g id="a_Node000016"><a xlink:title=" ">
<polygon fill="#e0e0e0" stroke="#999999" points="720.69,-74 655.69,-74 655.69,-55 720.69,-55 720.69,-74"/>
<text text-anchor="middle" x="688.19" y="-62" font-family="Helvetica,sans-Serif" font-size="10.00">functional</text>
</a>
</g>
</g>
<!-- Node13&#45;&gt;Node16 -->
<g id="edge27_Node000013_Node000016" class="edge">
<title>Node13&#45;&gt;Node16</title>
<g id="a_edge27_Node000013_Node000016"><a xlink:title=" ">
<path fill="none" stroke="#63b8ff" d="M617.33,-164.7C629.43,-156.62 646.65,-143.68 658.19,-129 668.89,-115.38 676.95,-97.33 682.01,-83.95"/>
<polygon fill="#63b8ff" stroke="#63b8ff" points="685.35,-85 685.41,-74.4 678.76,-82.65 685.35,-85"/>
</a>
</g>
</g>
<!-- Node17 -->
<g id="Node000017" class="node">
<title>Node17</title>
<g id="a_Node000017"><a xlink:href="error_8h.html" target="_top" xlink:title=" ">
<polygon fill="white" stroke="#666666" points="1115.69,-129 1030.69,-129 1030.69,-110 1115.69,-110 1115.69,-129"/>
<text text-anchor="middle" x="1073.19" y="-117" font-family="Helvetica,sans-Serif" font-size="10.00">Library/error.h</text>
</a>
</g>
</g>
<!-- Node13&#45;&gt;Node17 -->
<g id="edge29_Node000013_Node000017" class="edge">
<title>Node13&#45;&gt;Node17</title>
<g id="a_edge29_Node000013_Node000017"><a xlink:title=" ">
<path fill="none" stroke="#63b8ff" d="M672.79,-165.65C767.7,-154.95 935.6,-136.01 1020.66,-126.42"/>
<polygon fill="#63b8ff" stroke="#63b8ff" points="1021.07,-129.9 1030.61,-125.3 1020.28,-122.94 1021.07,-129.9"/>
</a>
</g>
</g>
<!-- Node19 -->
<g id="Node000019" class="node">
<title>Node19</title>
<g id="a_Node000019"><a xlink:href="evaluate_8h.html" target="_top" xlink:title=" ">
<polygon fill="white" stroke="#666666" points="530.19,-129 412.19,-129 412.19,-110 530.19,-110 530.19,-129"/>
<text text-anchor="middle" x="471.19" y="-117" font-family="Helvetica,sans-Serif" font-size="10.00">Evaluator/evaluate.h</text>
</a>
</g>
</g>
<!-- Node13&#45;&gt;Node19 -->
<g id="edge32_Node000013_Node000019" class="edge">
<title>Node13&#45;&gt;Node19</title>
<g id="a_edge32_Node000013_Node000019"><a xlink:title=" ">
<path fill="none" stroke="#63b8ff" d="M581.98,-164.98C560.46,-156.34 526.91,-142.87 502.36,-133.02"/>
<polygon fill="#63b8ff" stroke="#63b8ff" points="503.37,-129.65 492.78,-129.17 500.76,-136.14 503.37,-129.65"/>
</a>
</g>
</g>
<!-- Node17&#45;&gt;Node2 -->
<g id="edge30_Node000017_Node000002" class="edge">
<title>Node17&#45;&gt;Node2</title>
<g id="a_edge30_Node000017_Node000002"><a xlink:title=" ">
<path fill="none" stroke="#63b8ff" d="M1073.91,-109.68C1074.53,-96.39 1073.77,-71.08 1061.19,-55 1045.23,-34.59 1017.76,-23.2 996.11,-17.06"/>
<polygon fill="#63b8ff" stroke="#63b8ff" points="996.9,-13.65 986.34,-14.53 995.14,-20.43 996.9,-13.65"/>
</a>
</g>
</g>
<!-- Node18 -->
<g id="Node000018" class="node">
<title>Node18</title>
<g id="a_Node000018"><a xlink:title=" ">
<polygon fill="#e0e0e0" stroke="#999999" points="1052.19,-74 992.19,-74 992.19,-55 1052.19,-55 1052.19,-74"/>
<text text-anchor="middle" x="1022.19" y="-62" font-family="Helvetica,sans-Serif" font-size="10.00">iostream</text>
</a>
</g>
</g>
<!-- Node17&#45;&gt;Node18 -->
<g id="edge31_Node000017_Node000018" class="edge">
<title>Node17&#45;&gt;Node18</title>
<g id="a_edge31_Node000017_Node000018"><a xlink:title=" ">
<path fill="none" stroke="#63b8ff" d="M1064.77,-109.75C1057.41,-102.11 1046.56,-90.82 1037.65,-81.56"/>
<polygon fill="#63b8ff" stroke="#63b8ff" points="1039.91,-78.87 1030.45,-74.09 1034.87,-83.72 1039.91,-78.87"/>
</a>
</g>
</g>
<!-- Node19&#45;&gt;Node2 -->
<g id="edge35_Node000019_Node000002" class="edge">
<title>Node19&#45;&gt;Node2</title>
<g id="a_edge35_Node000019_Node000002"><a xlink:title=" ">
<path fill="none" stroke="#63b8ff" d="M477.65,-109.65C488.67,-95.34 512.59,-67.46 540.19,-55 610.2,-23.38 845.48,-13.78 931.95,-11.28"/>
<polygon fill="#63b8ff" stroke="#63b8ff" points="932.07,-14.78 941.97,-11 931.88,-7.78 932.07,-14.78"/>
</a>
</g>
</g>
<!-- Node19&#45;&gt;Node3 -->
<g id="edge38_Node000019_Node000003" class="edge">
<title>Node19&#45;&gt;Node3</title>
<g id="a_edge38_Node000019_Node000003"><a xlink:title=" ">
<path fill="none" stroke="#63b8ff" d="M425.56,-109.98C366.69,-99 265.98,-80.2 216.45,-70.96"/>
<polygon fill="#63b8ff" stroke="#63b8ff" points="216.88,-67.48 206.41,-69.09 215.6,-74.36 216.88,-67.48"/>
</a>
</g>
</g>
<!-- Node19&#45;&gt;Node5 -->
<g id="edge33_Node000019_Node000005" class="edge">
<title>Node19&#45;&gt;Node5</title>
<g id="a_edge33_Node000019_Node000005"><a xlink:title=" ">
<path fill="none" stroke="#63b8ff" d="M464.58,-109.75C458.93,-102.26 450.64,-91.28 443.74,-82.13"/>
<polygon fill="#63b8ff" stroke="#63b8ff" points="446.49,-79.96 437.67,-74.09 440.9,-84.18 446.49,-79.96"/>
</a>
</g>
</g>
<!-- Node19&#45;&gt;Node8 -->
<g id="edge37_Node000019_Node000008" class="edge">
<title>Node19&#45;&gt;Node8</title>
<g id="a_edge37_Node000019_Node000008"><a xlink:title=" ">
<path fill="none" stroke="#63b8ff" d="M454.96,-109.98C439.01,-101.61 414.41,-88.7 395.81,-78.95"/>
<polygon fill="#63b8ff" stroke="#63b8ff" points="397.19,-75.72 386.71,-74.17 393.94,-81.92 397.19,-75.72"/>
</a>
</g>
</g>
<!-- Node19&#45;&gt;Node10 -->
<g id="edge34_Node000019_Node000010" class="edge">
<title>Node19&#45;&gt;Node10</title>
<g id="a_edge34_Node000019_Node000010"><a xlink:title=" ">
<path fill="none" stroke="#63b8ff" d="M472.2,-109.58C473.22,-96.6 473.42,-72.19 463.19,-55 455.28,-41.71 441.7,-31.3 429.27,-23.89"/>
<polygon fill="#63b8ff" stroke="#63b8ff" points="430.95,-20.82 420.51,-19.03 427.55,-26.94 430.95,-20.82"/>
</a>
</g>
</g>
<!-- Node19&#45;&gt;Node12 -->
<g id="edge39_Node000019_Node000012" class="edge">
<title>Node19&#45;&gt;Node12</title>
<g id="a_edge39_Node000019_Node000012"><a xlink:title=" ">
<path fill="none" stroke="#63b8ff" d="M490.79,-109.98C510.5,-101.42 541.14,-88.11 563.77,-78.28"/>
<polygon fill="#63b8ff" stroke="#63b8ff" points="565.45,-81.37 573.23,-74.17 562.66,-74.94 565.45,-81.37"/>
</a>
</g>
</g>
<!-- Node19&#45;&gt;Node16 -->
<g id="edge36_Node000019_Node000016" class="edge">
<title>Node19&#45;&gt;Node16</title>
<g id="a_edge36_Node000019_Node000016"><a xlink:title=" ">
<path fill="none" stroke="#63b8ff" d="M506.05,-109.98C544.05,-100.71 604.85,-85.85 645.63,-75.89"/>
<polygon fill="#63b8ff" stroke="#63b8ff" points="646.66,-79.25 655.54,-73.47 645,-72.45 646.66,-79.25"/>
</a>
</g>
</g>
<!-- Node20&#45;&gt;Node2 -->
<g id="edge43_Node000020_Node000002" class="edge">
<title>Node20&#45;&gt;Node2</title>
<g id="a_edge43_Node000020_Node000002"><a xlink:title=" ">
<path fill="none" stroke="#63b8ff" d="M904.46,-274.97C989.4,-260.08 1144.19,-226 1144.19,-175.5 1144.19,-175.5 1144.19,-175.5 1144.19,-118.5 1144.19,-50.31 1048.03,-24.11 996.28,-14.94"/>
<polygon fill="#63b8ff" stroke="#63b8ff" points="996.7,-11.46 986.26,-13.28 995.55,-18.37 996.7,-11.46"/>
</a>
</g>
</g>
<!-- Node20&#45;&gt;Node4 -->
<g id="edge41_Node000020_Node000004" class="edge">
<title>Node20&#45;&gt;Node4</title>
<g id="a_edge41_Node000020_Node000004"><a xlink:title=" ">
<path fill="none" stroke="#63b8ff" d="M822.37,-274.93C738.99,-249.29 494.66,-174.29 458.19,-165 385.35,-146.45 363.59,-146.49 290.62,-130.2"/>
<polygon fill="#63b8ff" stroke="#63b8ff" points="291,-126.69 280.47,-127.9 289.45,-133.52 291,-126.69"/>
</a>
</g>
</g>
<!-- Node20&#45;&gt;Node5 -->
<g id="edge45_Node000020_Node000005" class="edge">
<title>Node20&#45;&gt;Node5</title>
<g id="a_edge45_Node000020_Node000005"><a xlink:title=" ">
<path fill="none" stroke="#63b8ff" d="M852.52,-274.73C859.5,-246.3 877,-155.89 831.19,-110 818.22,-97.01 556.99,-75.36 463.84,-68.02"/>
<polygon fill="#63b8ff" stroke="#63b8ff" points="464.08,-64.53 453.84,-67.24 463.53,-71.51 464.08,-64.53"/>
</a>
</g>
</g>
<!-- Node20&#45;&gt;Node6 -->
<g id="edge47_Node000020_Node000006" class="edge">
<title>Node20&#45;&gt;Node6</title>
<g id="a_edge47_Node000020_Node000006"><a xlink:title=" ">
<path fill="none" stroke="#63b8ff" d="M789.14,-277.7C682.71,-267.59 464.23,-246.84 355.93,-236.55"/>
<polygon fill="#63b8ff" stroke="#63b8ff" points="356.09,-233.05 345.81,-235.59 355.43,-240.02 356.09,-233.05"/>
</a>
</g>
</g>
<!-- Node20&#45;&gt;Node9 -->
<g id="edge44_Node000020_Node000009" class="edge">
<title>Node20&#45;&gt;Node9</title>
<g id="a_edge44_Node000020_Node000009"><a xlink:title=" ">
<path fill="none" stroke="#63b8ff" d="M871.43,-274.86C887.03,-267.5 907.6,-255.48 920.19,-239 954.99,-193.43 962.17,-151.1 922.19,-110 849.71,-35.5 723.55,-16.32 650.31,-11.66"/>
<polygon fill="#63b8ff" stroke="#63b8ff" points="650.08,-8.15 639.9,-11.08 649.69,-15.14 650.08,-8.15"/>
</a>
</g>
</g>
<!-- Node20&#45;&gt;Node12 -->
<g id="edge49_Node000020_Node000012" class="edge">
<title>Node20&#45;&gt;Node12</title>
<g id="a_edge49_Node000020_Node000012"><a xlink:title=" ">
<path fill="none" stroke="#63b8ff" d="M854.77,-274.61C868.49,-246.59 905.85,-159.06 864.19,-110 863.31,-108.97 726.96,-86.95 648.02,-74.28"/>
<polygon fill="#63b8ff" stroke="#63b8ff" points="648.18,-70.76 637.76,-72.63 647.08,-77.67 648.18,-70.76"/>
</a>
</g>
</g>
<!-- Node20&#45;&gt;Node13 -->
<g id="edge48_Node000020_Node000013" class="edge">
<title>Node20&#45;&gt;Node13</title>
<g id="a_edge48_Node000020_Node000013"><a xlink:title=" ">
<path fill="none" stroke="#63b8ff" d="M830.39,-274.84C786.93,-255.84 682.98,-210.39 632.16,-188.17"/>
<polygon fill="#63b8ff" stroke="#63b8ff" points="633.3,-184.85 622.74,-184.05 630.5,-191.26 633.3,-184.85"/>
</a>
</g>
</g>
<!-- Node20&#45;&gt;Node15 -->
<g id="edge42_Node000020_Node000015" class="edge">
<title>Node20&#45;&gt;Node15</title>
<g id="a_edge42_Node000020_Node000015"><a xlink:title=" ">
<path fill="none" stroke="#63b8ff" d="M847.18,-274.74C838.37,-249.09 812.49,-173.78 800.47,-138.78"/>
<polygon fill="#63b8ff" stroke="#63b8ff" points="803.77,-137.63 797.21,-129.31 797.15,-139.9 803.77,-137.63"/>
</a>
</g>
</g>
<!-- Node20&#45;&gt;Node16 -->
<g id="edge46_Node000020_Node000016" class="edge">
<title>Node20&#45;&gt;Node16</title>
<g id="a_edge46_Node000020_Node000016"><a xlink:title=" ">
<path fill="none" stroke="#63b8ff" d="M866.22,-274.95C878.6,-267.35 894.83,-254.97 902.19,-239 926.17,-186.92 938.37,-154.48 902.19,-110 881,-83.95 786.82,-72.65 730.71,-68.16"/>
<polygon fill="#63b8ff" stroke="#63b8ff" points="730.94,-64.66 720.7,-67.39 730.41,-71.64 730.94,-64.66"/>
</a>
</g>
</g>
<!-- Node20&#45;&gt;Node17 -->
<g id="edge50_Node000020_Node000017" class="edge">
<title>Node20&#45;&gt;Node17</title>
<g id="a_edge50_Node000020_Node000017"><a xlink:title=" ">
<path fill="none" stroke="#63b8ff" d="M911.54,-279.47C945.61,-274.41 986.9,-263.28 1016.19,-239 1047.71,-212.86 1063.05,-165.18 1069.4,-138.97"/>
<polygon fill="#63b8ff" stroke="#63b8ff" points="1072.82,-139.7 1071.59,-129.18 1065.99,-138.17 1072.82,-139.7"/>
</a>
</g>
</g>
</g>
</svg>

<g id="navigator" transform="translate(0 0)" fill="#404254">
  <rect fill="#f2f5e9" fill-opacity="0.5" stroke="#606060" stroke-width=".5" x="0" y="0" width="60" height="60"/>
  <use id="zoomplus" xlink:href="#zoomPlus" x="17" y="9" onmousedown="handleZoom(evt,'in')"/>
  <use id="zoomminus" xlink:href="#zoomMin" x="42" y="9" onmousedown="handleZoom(evt,'out')"/>
  <use id="reset" xlink:href="#resetDef" x="30" y="36" onmousedown="handleReset()"/>
   <use id="arrowup" xlink:href="#arrowUp" x="0" y="0" onmousedown="handlePan(0,-1)"/>
  <use id="arrowright" xlink:href="#arrowRight" x="0" y="0" onmousedown="handlePan(1,0)"/>
  <use id="arrowdown" xlink:href="#arrowDown" x="0" y="0" onmousedown="handlePan(0,1)"/>
  <use id="arrowleft" xlink:href="#arrowLeft" x="0" y="0" onmousedown="handlePan(-1,0)"/>
</g>
<svg viewBox="0 0 15 15" width="100%" height="30px" preserveAspectRatio="xMaxYMin meet">
 <g id="arrow_out" transform="scale(0.3 0.3)">
  <a xlink:href="ref_8h__incl_org.svg" target="_base">
   <rect id="button" ry="5" rx="5" y="6" x="6" height="38" width="38"
        fill="#f2f5e9" fill-opacity="0.5" stroke="#606060" stroke-width="1.0"/>
   <path id="arrow"
     d="M 11.500037,31.436501 C 11.940474,20.09759 22.043105,11.32322 32.158766,21.979434 L 37.068811,17.246167 C 37.068811,17.246167 37.088388,32 37.088388,32 L 22.160133,31.978069 C 22.160133,31.978069 26.997745,27.140456 26.997745,27.140456 C 18.528582,18.264221 13.291696,25.230495 11.500037,31.436501 z"
     style="fill:#404040;"/>
  </a>
 </g>
</svg>

<style type='text/css'>
<![CDATA[
[data-mouse-over-selected='false'] { opacity: 0.7; }
[data-mouse-over-selected='true']  { opacity: 1.0; }
]]>
</style>
<script type="application/ecmascript"><![CDATA[
document.addEventListener('DOMContentLoaded', (event) => {
  highlightEdges();
  highlightAdjacentNodes();
});
]]></script>
</svg>
