<?xml version="1.0" encoding="UTF-8" standalone="no"?>
<!DOCTYPE svg PUBLIC "-//W3C//DTD SVG 1.1//EN"
 "http://www.w3.org/Graphics/SVG/1.1/DTD/svg11.dtd">
<!-- Generated by graphviz version 2.43.0 (0)
 -->
<!-- Title: include/RefPack/ref.h Pages: 1 -->
<!--zoomable 357 -->

<svg id="main" version="1.1" xmlns="http://www.w3.org/2000/svg" xmlns:xlink="http://www.w3.org/1999/xlink" xml:space="preserve" onload="init(evt)">
<style type="text/css"><![CDATA[
.node, .edge {opacity: 0.7;}
.node.selected, .edge.selected {opacity: 1;}
.edge:hover path { stroke: red; }
.edge:hover polygon { stroke: red; fill: red; }
]]></style>

<defs>
  <circle id="rim" cx="0" cy="0" r="7"/>
  <circle id="rim2" cx="0" cy="0" r="3.5"/>
  <g id="zoomPlus">
    <use xlink:href="#rim" fill="#404040"><set attributeName="fill" to="#808080" begin="zoomplus.mouseover" end="zoomplus.mouseout"/></use>
    <path d="M-4,0h8M0,-4v8" fill="none" stroke="white" stroke-width="1.5" pointer-events="none"/>
  </g>
  <g id="zoomMin">
    <use xlink:href="#rim" fill="#404040"><set attributeName="fill" to="#808080" begin="zoomminus.mouseover" end="zoomminus.mouseout"/></use>
    <path d="M-4,0h8" fill="none" stroke="white" stroke-width="1.5" pointer-events="none"/>
  </g>
  <g id="arrowUp" transform="translate(30 24)">
    <use xlink:href="#rim"/>
    <path pointer-events="none" fill="none" stroke="white" stroke-width="1.5" d="M0,-3.0v7 M-2.5,-0.5L0,-3.0L2.5,-0.5"/>
  </g>
  <g id="arrowRight" transform="rotate(90) translate(36 -43)">
    <use xlink:href="#rim"/>
    <path pointer-events="none" fill="none" stroke="white" stroke-width="1.5" d="M0,-3.0v7 M-2.5,-0.5L0,-3.0L2.5,-0.5"/>
  </g>
  <g id="arrowDown" transform="rotate(180) translate(-30 -48)">
    <use xlink:href="#rim"/>
    <path pointer-events="none" fill="none" stroke="white" stroke-width="1.5" d="M0,-3.0v7 M-2.5,-0.5L0,-3.0L2.5,-0.5"/>
  </g>
  <g id="arrowLeft" transform="rotate(270) translate(-36 17)">
    <use xlink:href="#rim"/>
    <path pointer-events="none" fill="none" stroke="white" stroke-width="1.5" d="M0,-3.0v7 M-2.5,-0.5L0,-3.0L2.5,-0.5"/>
  </g>
  <g id="resetDef">
    <use xlink:href="#rim2" fill="#404040"><set attributeName="fill" to="#808080" begin="reset.mouseover" end="reset.mouseout"/></use>
  </g>
</defs>
<script type="application/ecmascript">
var viewWidth = 1360;
var viewHeight = 357;
var sectionId = 'dynsection-0';
</script>
<script type="application/ecmascript" xlink:href="svg.min.js"/>
<svg id="graph" class="graph">
<g id="viewport">
<title>include/RefPack/ref.h</title>
<!-- Node1 -->
<g id="Node000001" class="node">
<title>Node1</title>
<g id="a_Node000001"><a xlink:title=" ">
<polygon fill="#999999" stroke="#666666" points="985.5,-349 866.5,-349 866.5,-330 985.5,-330 985.5,-349"/>
<text text-anchor="middle" x="926" y="-337" font-family="Helvetica,sans-Serif" font-size="10.00">include/RefPack/ref.h</text>
</a>
</g>
</g>
<!-- Node2 -->
<g id="Node000002" class="node">
<title>Node2</title>
<g id="a_Node000002"><a xlink:title=" ">
<polygon fill="#e0e0e0" stroke="#999999" points="1075,-19 1031,-19 1031,0 1075,0 1075,-19"/>
<text text-anchor="middle" x="1053" y="-7" font-family="Helvetica,sans-Serif" font-size="10.00">string</text>
</a>
</g>
</g>
<!-- Node1&#45;&gt;Node2 -->
<g id="edge1_Node000001_Node000002" class="edge">
<title>Node1&#45;&gt;Node2</title>
<g id="a_edge1_Node000001_Node000002"><a xlink:title=" ">
<path fill="none" stroke="#63b8ff" d="M985.68,-335.78C1102.92,-328.8 1352,-305.18 1352,-230.5 1352,-230.5 1352,-230.5 1352,-118.5 1352,-62.36 1163.19,-27.24 1085.65,-15.19"/>
<polygon fill="#63b8ff" stroke="#63b8ff" points="1085.89,-11.69 1075.47,-13.64 1084.83,-18.61 1085.89,-11.69"/>
</a>
</g>
</g>
<!-- Node3 -->
<g id="Node000003" class="node">
<title>Node3</title>
<g id="a_Node000003"><a xlink:title=" ">
<polygon fill="#e0e0e0" stroke="#999999" points="132,-74 94,-74 94,-55 132,-55 132,-74"/>
<text text-anchor="middle" x="113" y="-62" font-family="Helvetica,sans-Serif" font-size="10.00">map</text>
</a>
</g>
</g>
<!-- Node1&#45;&gt;Node3 -->
<g id="edge2_Node000001_Node000003" class="edge">
<title>Node1&#45;&gt;Node3</title>
<g id="a_edge2_Node000001_Node000003"><a xlink:title=" ">
<path fill="none" stroke="#63b8ff" d="M866.31,-337.83C661.52,-334.76 0,-318.05 0,-230.5 0,-230.5 0,-230.5 0,-173.5 0,-126.82 51.02,-94.11 84.5,-77.67"/>
<polygon fill="#63b8ff" stroke="#63b8ff" points="86.27,-80.7 93.83,-73.28 83.29,-74.37 86.27,-80.7"/>
</a>
</g>
</g>
<!-- Node4 -->
<g id="Node000004" class="node">
<title>Node4</title>
<g id="a_Node000004"><a xlink:title=" ">
<polygon fill="#e0e0e0" stroke="#999999" points="1210,-129 1152,-129 1152,-110 1210,-110 1210,-129"/>
<text text-anchor="middle" x="1181" y="-117" font-family="Helvetica,sans-Serif" font-size="10.00">memory</text>
</a>
</g>
</g>
<!-- Node1&#45;&gt;Node4 -->
<g id="edge3_Node000001_Node000004" class="edge">
<title>Node1&#45;&gt;Node4</title>
<g id="a_edge3_Node000001_Node000004"><a xlink:title=" ">
<path fill="none" stroke="#63b8ff" d="M940.89,-329.89C955.34,-321.33 977.72,-307.55 996,-294 1056.25,-249.32 1070.39,-236.46 1124,-184 1139.63,-168.7 1156.2,-149.92 1167.41,-136.77"/>
<polygon fill="#63b8ff" stroke="#63b8ff" points="1170.17,-138.93 1173.95,-129.04 1164.82,-134.42 1170.17,-138.93"/>
</a>
</g>
</g>
<!-- Node5 -->
<g id="Node000005" class="node">
<title>Node5</title>
<g id="a_Node000005"><a xlink:title=" ">
<polygon fill="#e0e0e0" stroke="#999999" points="892.5,-74 847.5,-74 847.5,-55 892.5,-55 892.5,-74"/>
<text text-anchor="middle" x="870" y="-62" font-family="Helvetica,sans-Serif" font-size="10.00">utility</text>
</a>
</g>
</g>
<!-- Node1&#45;&gt;Node5 -->
<g id="edge4_Node000001_Node000005" class="edge">
<title>Node1&#45;&gt;Node5</title>
<g id="a_edge4_Node000001_Node000005"><a xlink:title=" ">
<path fill="none" stroke="#63b8ff" d="M985.77,-334.28C1094.61,-324.95 1314,-297.8 1314,-230.5 1314,-230.5 1314,-230.5 1314,-173.5 1314,-129.82 1279.03,-127.46 1239,-110 1178.98,-83.82 982.2,-71.18 903.23,-67.07"/>
<polygon fill="#63b8ff" stroke="#63b8ff" points="903.06,-63.56 892.9,-66.54 902.71,-70.55 903.06,-63.56"/>
</a>
</g>
</g>
<!-- Node6 -->
<g id="Node000006" class="node">
<title>Node6</title>
<g id="a_Node000006"><a xlink:href="channel_8h.html" target="_top" xlink:title=" ">
<polygon fill="white" stroke="#666666" points="373.5,-239 266.5,-239 266.5,-220 373.5,-220 373.5,-239"/>
<text text-anchor="middle" x="320" y="-227" font-family="Helvetica,sans-Serif" font-size="10.00">Channel/channel.h</text>
</a>
</g>
</g>
<!-- Node1&#45;&gt;Node6 -->
<g id="edge5_Node000001_Node000006" class="edge">
<title>Node1&#45;&gt;Node6</title>
<g id="a_edge5_Node000001_Node000006"><a xlink:title=" ">
<path fill="none" stroke="#63b8ff" d="M878.2,-329.98C768.07,-310.35 496.87,-262.02 377.72,-240.79"/>
<polygon fill="#63b8ff" stroke="#63b8ff" points="378.16,-237.31 367.7,-239 376.93,-244.2 378.16,-237.31"/>
</a>
</g>
</g>
<!-- Node14 -->
<g id="Node000014" class="node">
<title>Node14</title>
<g id="a_Node000014"><a xlink:href="transaction_8h_source.html" target="_top" xlink:title=" ">
<polygon fill="white" stroke="#666666" points="841.5,-184 702.5,-184 702.5,-165 841.5,-165 841.5,-184"/>
<text text-anchor="middle" x="772" y="-172" font-family="Helvetica,sans-Serif" font-size="10.00">Transaction/transaction.h</text>
</a>
</g>
</g>
<!-- Node1&#45;&gt;Node14 -->
<g id="edge54_Node000001_Node000014" class="edge">
<title>Node1&#45;&gt;Node14</title>
<g id="a_edge54_Node000001_Node000014"><a xlink:title=" ">
<path fill="none" stroke="#63b8ff" d="M908.58,-329.9C893.57,-321.94 871.86,-309.08 856,-294 823.39,-263 795.44,-217.65 781.48,-193.01"/>
<polygon fill="#63b8ff" stroke="#63b8ff" points="784.45,-191.15 776.54,-184.1 778.33,-194.54 784.45,-191.15"/>
</a>
</g>
</g>
<!-- Node20 -->
<g id="Node000020" class="node">
<title>Node20</title>
<g id="a_Node000020"><a xlink:href="driverModel_8h.html" target="_top" xlink:title=" ">
<polygon fill="white" stroke="#666666" points="987,-294 865,-294 865,-275 987,-275 987,-294"/>
<text text-anchor="middle" x="926" y="-282" font-family="Helvetica,sans-Serif" font-size="10.00">Drivers/driverModel.h</text>
</a>
</g>
</g>
<!-- Node1&#45;&gt;Node20 -->
<g id="edge42_Node000001_Node000020" class="edge">
<title>Node1&#45;&gt;Node20</title>
<g id="a_edge42_Node000001_Node000020"><a xlink:title=" ">
<path fill="none" stroke="#63b8ff" d="M926,-329.75C926,-322.8 926,-312.85 926,-304.13"/>
<polygon fill="#63b8ff" stroke="#63b8ff" points="929.5,-304.09 926,-294.09 922.5,-304.09 929.5,-304.09"/>
</a>
</g>
</g>
<!-- Node6&#45;&gt;Node2 -->
<g id="edge8_Node000006_Node000002" class="edge">
<title>Node6&#45;&gt;Node2</title>
<g id="a_edge8_Node000006_Node000002"><a xlink:title=" ">
<path fill="none" stroke="#63b8ff" d="M331.11,-219.93C358.31,-199.21 430.85,-145.49 497,-110 553.01,-79.96 567.42,-70.7 629,-55 771.92,-18.56 949.25,-11.89 1020.82,-10.72"/>
<polygon fill="#63b8ff" stroke="#63b8ff" points="1021.04,-14.22 1030.99,-10.58 1020.94,-7.22 1021.04,-14.22"/>
</a>
</g>
</g>
<!-- Node6&#45;&gt;Node3 -->
<g id="edge11_Node000006_Node000003" class="edge">
<title>Node6&#45;&gt;Node3</title>
<g id="a_edge11_Node000006_Node000003"><a xlink:title=" ">
<path fill="none" stroke="#63b8ff" d="M266.23,-222.33C217.6,-215.61 150.96,-203.19 133,-184 107.54,-156.79 107.87,-109.88 110.4,-84"/>
<polygon fill="#63b8ff" stroke="#63b8ff" points="113.88,-84.36 111.59,-74.02 106.93,-83.53 113.88,-84.36"/>
</a>
</g>
</g>
<!-- Node6&#45;&gt;Node4 -->
<g id="edge7_Node000006_Node000004" class="edge">
<title>Node6&#45;&gt;Node4</title>
<g id="a_edge7_Node000006_Node000004"><a xlink:title=" ">
<path fill="none" stroke="#63b8ff" d="M373.53,-226.63C474.03,-222.6 697.63,-211.15 884,-184 977.33,-170.4 1085.23,-144.81 1141.78,-130.62"/>
<polygon fill="#63b8ff" stroke="#63b8ff" points="1142.89,-133.95 1151.72,-128.11 1141.17,-127.16 1142.89,-133.95"/>
</a>
</g>
</g>
<!-- Node6&#45;&gt;Node5 -->
<g id="edge12_Node000006_Node000005" class="edge">
<title>Node6&#45;&gt;Node5</title>
<g id="a_edge12_Node000006_Node000005"><a xlink:title=" ">
<path fill="none" stroke="#63b8ff" d="M373.95,-227.68C502.08,-225.22 816.53,-215.96 851,-184 878.4,-158.59 876.73,-110.61 873.28,-84.16"/>
<polygon fill="#63b8ff" stroke="#63b8ff" points="876.74,-83.63 871.77,-74.28 869.82,-84.69 876.74,-83.63"/>
</a>
</g>
</g>
<!-- Node7 -->
<g id="Node000007" class="node">
<title>Node7</title>
<g id="a_Node000007"><a xlink:title=" ">
<polygon fill="#e0e0e0" stroke="#999999" points="335.5,-184 282.5,-184 282.5,-165 335.5,-165 335.5,-184"/>
<text text-anchor="middle" x="309" y="-172" font-family="Helvetica,sans-Serif" font-size="10.00">iterator</text>
</a>
</g>
</g>
<!-- Node6&#45;&gt;Node7 -->
<g id="edge6_Node000006_Node000007" class="edge">
<title>Node6&#45;&gt;Node7</title>
<g id="a_edge6_Node000006_Node000007"><a xlink:title=" ">
<path fill="none" stroke="#63b8ff" d="M318.18,-219.75C316.74,-212.8 314.68,-202.85 312.87,-194.13"/>
<polygon fill="#63b8ff" stroke="#63b8ff" points="316.24,-193.17 310.78,-184.09 309.39,-194.59 316.24,-193.17"/>
</a>
</g>
</g>
<!-- Node8 -->
<g id="Node000008" class="node">
<title>Node8</title>
<g id="a_Node000008"><a xlink:title=" ">
<polygon fill="#e0e0e0" stroke="#999999" points="336.5,-74 295.5,-74 295.5,-55 336.5,-55 336.5,-74"/>
<text text-anchor="middle" x="316" y="-62" font-family="Helvetica,sans-Serif" font-size="10.00">tuple</text>
</a>
</g>
</g>
<!-- Node6&#45;&gt;Node8 -->
<g id="edge9_Node000006_Node000008" class="edge">
<title>Node6&#45;&gt;Node8</title>
<g id="a_edge9_Node000006_Node000008"><a xlink:title=" ">
<path fill="none" stroke="#63b8ff" d="M326.37,-219.84C332.26,-211.25 340.61,-197.45 344,-184 353.02,-148.29 336.79,-106.3 325.51,-83.12"/>
<polygon fill="#63b8ff" stroke="#63b8ff" points="328.59,-81.46 320.92,-74.15 322.35,-84.64 328.59,-81.46"/>
</a>
</g>
</g>
<!-- Node9 -->
<g id="Node000009" class="node">
<title>Node9</title>
<g id="a_Node000009"><a xlink:title=" ">
<polygon fill="#e0e0e0" stroke="#999999" points="294.5,-19 201.5,-19 201.5,0 294.5,0 294.5,-19"/>
<text text-anchor="middle" x="248" y="-7" font-family="Helvetica,sans-Serif" font-size="10.00">unordered_map</text>
</a>
</g>
</g>
<!-- Node6&#45;&gt;Node9 -->
<g id="edge10_Node000006_Node000009" class="edge">
<title>Node6&#45;&gt;Node9</title>
<g id="a_edge10_Node000006_Node000009"><a xlink:title=" ">
<path fill="none" stroke="#63b8ff" d="M302.68,-219.88C252.56,-194.54 109.39,-119.23 85,-74 80.99,-66.57 79.88,-61.71 85,-55 91.99,-45.84 151.8,-31.16 196.96,-21.19"/>
<polygon fill="#63b8ff" stroke="#63b8ff" points="197.9,-24.57 206.93,-19.01 196.41,-17.73 197.9,-24.57"/>
</a>
</g>
</g>
<!-- Node10 -->
<g id="Node000010" class="node">
<title>Node10</title>
<g id="a_Node000010"><a xlink:title=" ">
<polygon fill="#e0e0e0" stroke="#999999" points="183.5,-19 136.5,-19 136.5,0 183.5,0 183.5,-19"/>
<text text-anchor="middle" x="160" y="-7" font-family="Helvetica,sans-Serif" font-size="10.00">vector</text>
</a>
</g>
</g>
<!-- Node6&#45;&gt;Node10 -->
<g id="edge13_Node000006_Node000010" class="edge">
<title>Node6&#45;&gt;Node10</title>
<g id="a_edge13_Node000006_Node000010"><a xlink:title=" ">
<path fill="none" stroke="#63b8ff" d="M266.37,-222.66C213.92,-215.94 138.85,-203.28 117,-184 72.09,-144.37 47.37,-106.47 78,-55 88.55,-37.27 108.91,-26.16 126.7,-19.48"/>
<polygon fill="#63b8ff" stroke="#63b8ff" points="127.92,-22.76 136.24,-16.21 125.65,-16.14 127.92,-22.76"/>
</a>
</g>
</g>
<!-- Node11 -->
<g id="Node000011" class="node">
<title>Node11</title>
<g id="a_Node000011"><a xlink:title=" ">
<polygon fill="#e0e0e0" stroke="#999999" points="188,-184 142,-184 142,-165 188,-165 188,-184"/>
<text text-anchor="middle" x="165" y="-172" font-family="Helvetica,sans-Serif" font-size="10.00">future</text>
</a>
</g>
</g>
<!-- Node6&#45;&gt;Node11 -->
<g id="edge14_Node000006_Node000011" class="edge">
<title>Node6&#45;&gt;Node11</title>
<g id="a_edge14_Node000006_Node000011"><a xlink:title=" ">
<path fill="none" stroke="#63b8ff" d="M295.1,-219.98C268.76,-210.98 227.09,-196.73 198.03,-186.79"/>
<polygon fill="#63b8ff" stroke="#63b8ff" points="198.91,-183.4 188.32,-183.47 196.65,-190.02 198.91,-183.4"/>
</a>
</g>
</g>
<!-- Node12 -->
<g id="Node000012" class="node">
<title>Node12</title>
<g id="a_Node000012"><a xlink:title=" ">
<polygon fill="#e0e0e0" stroke="#999999" points="826,-74 766,-74 766,-55 826,-55 826,-74"/>
<text text-anchor="middle" x="796" y="-62" font-family="Helvetica,sans-Serif" font-size="10.00">iostream</text>
</a>
</g>
</g>
<!-- Node6&#45;&gt;Node12 -->
<g id="edge15_Node000006_Node000012" class="edge">
<title>Node6&#45;&gt;Node12</title>
<g id="a_edge15_Node000006_Node000012"><a xlink:title=" ">
<path fill="none" stroke="#63b8ff" d="M352.58,-219.95C410.13,-204.46 533.15,-169.54 633,-129 650.5,-121.9 653.63,-117.4 671,-110 700.18,-97.56 734.14,-85.63 759.3,-77.26"/>
<polygon fill="#63b8ff" stroke="#63b8ff" points="760.41,-80.57 768.81,-74.12 758.22,-73.93 760.41,-80.57"/>
</a>
</g>
</g>
<!-- Node13 -->
<g id="Node000013" class="node">
<title>Node13</title>
<g id="a_Node000013"><a xlink:href="types_8h.html" target="_top" xlink:title=" ">
<polygon fill="white" stroke="#666666" points="277.5,-74 188.5,-74 188.5,-55 277.5,-55 277.5,-74"/>
<text text-anchor="middle" x="233" y="-62" font-family="Helvetica,sans-Serif" font-size="10.00">Library/types.h</text>
</a>
</g>
</g>
<!-- Node6&#45;&gt;Node13 -->
<g id="edge16_Node000006_Node000013" class="edge">
<title>Node6&#45;&gt;Node13</title>
<g id="a_edge16_Node000006_Node000013"><a xlink:title=" ">
<path fill="none" stroke="#63b8ff" d="M308,-219.88C297.44,-211.72 282.33,-198.58 273,-184 252.59,-152.1 241.43,-108.68 236.38,-84.23"/>
<polygon fill="#63b8ff" stroke="#63b8ff" points="239.77,-83.31 234.43,-74.16 232.9,-84.64 239.77,-83.31"/>
</a>
</g>
</g>
<!-- Node6&#45;&gt;Node14 -->
<g id="edge20_Node000006_Node000014" class="edge">
<title>Node6&#45;&gt;Node14</title>
<g id="a_edge20_Node000006_Node000014"><a xlink:title=" ">
<path fill="none" stroke="#63b8ff" d="M373.63,-222.21C452.51,-212.96 600.4,-195.62 692.1,-184.87"/>
<polygon fill="#63b8ff" stroke="#63b8ff" points="692.65,-188.33 702.17,-183.69 691.83,-181.38 692.65,-188.33"/>
</a>
</g>
</g>
<!-- Node13&#45;&gt;Node2 -->
<g id="edge19_Node000013_Node000002" class="edge">
<title>Node13&#45;&gt;Node2</title>
<g id="a_edge19_Node000013_Node000002"><a xlink:title=" ">
<path fill="none" stroke="#63b8ff" d="M277.78,-55.99C280.56,-55.63 283.31,-55.29 286,-55 569.96,-24.07 915.55,-13.75 1020.97,-11.2"/>
<polygon fill="#63b8ff" stroke="#63b8ff" points="1021.05,-14.7 1030.97,-10.96 1020.89,-7.7 1021.05,-14.7"/>
</a>
</g>
</g>
<!-- Node13&#45;&gt;Node9 -->
<g id="edge18_Node000013_Node000009" class="edge">
<title>Node13&#45;&gt;Node9</title>
<g id="a_edge18_Node000013_Node000009"><a xlink:title=" ">
<path fill="none" stroke="#63b8ff" d="M235.48,-54.75C237.46,-47.72 240.32,-37.62 242.81,-28.84"/>
<polygon fill="#63b8ff" stroke="#63b8ff" points="246.21,-29.66 245.57,-19.09 239.48,-27.76 246.21,-29.66"/>
</a>
</g>
</g>
<!-- Node13&#45;&gt;Node10 -->
<g id="edge17_Node000013_Node000010" class="edge">
<title>Node13&#45;&gt;Node10</title>
<g id="a_edge17_Node000013_Node000010"><a xlink:title=" ">
<path fill="none" stroke="#63b8ff" d="M221.27,-54.98C210.27,-47 193.58,-34.88 180.4,-25.31"/>
<polygon fill="#63b8ff" stroke="#63b8ff" points="182.09,-22.21 171.94,-19.17 177.98,-27.88 182.09,-22.21"/>
</a>
</g>
</g>
<!-- Node14&#45;&gt;Node2 -->
<g id="edge22_Node000014_Node000002" class="edge">
<title>Node14&#45;&gt;Node2</title>
<g id="a_edge22_Node000014_Node000002"><a xlink:title=" ">
<path fill="none" stroke="#63b8ff" d="M841.53,-166.55C936.58,-156.71 1096.39,-138.83 1105,-129 1132.1,-98.03 1093.8,-50.71 1069.81,-26.29"/>
<polygon fill="#63b8ff" stroke="#63b8ff" points="1072.21,-23.74 1062.63,-19.22 1067.3,-28.73 1072.21,-23.74"/>
</a>
</g>
</g>
<!-- Node14&#45;&gt;Node3 -->
<g id="edge27_Node000014_Node000003" class="edge">
<title>Node14&#45;&gt;Node3</title>
<g id="a_edge27_Node000014_Node000003"><a xlink:title=" ">
<path fill="none" stroke="#63b8ff" d="M702.35,-171.36C611.64,-167.53 448.55,-157.06 312,-129 249.88,-116.24 179.77,-91.28 141.57,-76.74"/>
<polygon fill="#63b8ff" stroke="#63b8ff" points="142.72,-73.43 132.13,-73.11 140.2,-79.97 142.72,-73.43"/>
</a>
</g>
</g>
<!-- Node14&#45;&gt;Node4 -->
<g id="edge25_Node000014_Node000004" class="edge">
<title>Node14&#45;&gt;Node4</title>
<g id="a_edge25_Node000014_Node000004"><a xlink:title=" ">
<path fill="none" stroke="#63b8ff" d="M841.7,-166.58C915.5,-158.89 1035.28,-145.37 1138,-129 1139.27,-128.8 1140.56,-128.59 1141.86,-128.36"/>
<polygon fill="#63b8ff" stroke="#63b8ff" points="1142.69,-131.77 1151.91,-126.55 1141.45,-124.88 1142.69,-131.77"/>
</a>
</g>
</g>
<!-- Node14&#45;&gt;Node5 -->
<g id="edge23_Node000014_Node000005" class="edge">
<title>Node14&#45;&gt;Node5</title>
<g id="a_edge23_Node000014_Node000005"><a xlink:title=" ">
<path fill="none" stroke="#63b8ff" d="M780.02,-164.66C796.47,-146.54 834.24,-104.91 855.24,-81.77"/>
<polygon fill="#63b8ff" stroke="#63b8ff" points="858.02,-83.92 862.14,-74.16 852.83,-79.21 858.02,-83.92"/>
</a>
</g>
</g>
<!-- Node14&#45;&gt;Node10 -->
<g id="edge24_Node000014_Node000010" class="edge">
<title>Node14&#45;&gt;Node10</title>
<g id="a_edge24_Node000014_Node000010"><a xlink:title=" ">
<path fill="none" stroke="#63b8ff" d="M702.24,-166.17C553.73,-149.94 216.77,-109.6 179,-74 166.84,-62.54 162.36,-43.65 160.76,-29.45"/>
<polygon fill="#63b8ff" stroke="#63b8ff" points="164.24,-29.01 160.01,-19.3 157.26,-29.53 164.24,-29.01"/>
</a>
</g>
</g>
<!-- Node14&#45;&gt;Node12 -->
<g id="edge21_Node000014_Node000012" class="edge">
<title>Node14&#45;&gt;Node12</title>
<g id="a_edge21_Node000014_Node000012"><a xlink:title=" ">
<path fill="none" stroke="#63b8ff" d="M773.96,-164.66C777.87,-147.09 786.68,-107.45 791.9,-83.95"/>
<polygon fill="#63b8ff" stroke="#63b8ff" points="795.32,-84.68 794.08,-74.16 788.49,-83.16 795.32,-84.68"/>
</a>
</g>
</g>
<!-- Node14&#45;&gt;Node13 -->
<g id="edge30_Node000014_Node000013" class="edge">
<title>Node14&#45;&gt;Node13</title>
<g id="a_edge30_Node000014_Node000013"><a xlink:title=" ">
<path fill="none" stroke="#63b8ff" d="M710.87,-164.96C654.98,-156.83 570.14,-143.69 497,-129 417.93,-113.12 326.63,-90.1 274.76,-76.58"/>
<polygon fill="#63b8ff" stroke="#63b8ff" points="275.49,-73.15 264.93,-74.01 273.72,-79.92 275.49,-73.15"/>
</a>
</g>
</g>
<!-- Node15 -->
<g id="Node000015" class="node">
<title>Node15</title>
<g id="a_Node000015"><a xlink:title=" ">
<polygon fill="#e0e0e0" stroke="#999999" points="728,-129 680,-129 680,-110 728,-110 728,-129"/>
<text text-anchor="middle" x="704" y="-117" font-family="Helvetica,sans-Serif" font-size="10.00">mutex</text>
</a>
</g>
</g>
<!-- Node14&#45;&gt;Node15 -->
<g id="edge26_Node000014_Node000015" class="edge">
<title>Node14&#45;&gt;Node15</title>
<g id="a_edge26_Node000014_Node000015"><a xlink:title=" ">
<path fill="none" stroke="#63b8ff" d="M761.07,-164.98C750.92,-157.07 735.58,-145.11 723.35,-135.58"/>
<polygon fill="#63b8ff" stroke="#63b8ff" points="725.16,-132.56 715.12,-129.17 720.86,-138.08 725.16,-132.56"/>
</a>
</g>
</g>
<!-- Node16 -->
<g id="Node000016" class="node">
<title>Node16</title>
<g id="a_Node000016"><a xlink:title=" ">
<polygon fill="#e0e0e0" stroke="#999999" points="954,-129 898,-129 898,-110 954,-110 954,-129"/>
<text text-anchor="middle" x="926" y="-117" font-family="Helvetica,sans-Serif" font-size="10.00">optional</text>
</a>
</g>
</g>
<!-- Node14&#45;&gt;Node16 -->
<g id="edge28_Node000014_Node000016" class="edge">
<title>Node14&#45;&gt;Node16</title>
<g id="a_edge28_Node000014_Node000016"><a xlink:title=" ">
<path fill="none" stroke="#63b8ff" d="M796.74,-164.98C822.37,-156.16 862.63,-142.31 891.41,-132.41"/>
<polygon fill="#63b8ff" stroke="#63b8ff" points="892.75,-135.65 901.06,-129.08 890.47,-129.03 892.75,-135.65"/>
</a>
</g>
</g>
<!-- Node17 -->
<g id="Node000017" class="node">
<title>Node17</title>
<g id="a_Node000017"><a xlink:title=" ">
<polygon fill="#e0e0e0" stroke="#999999" points="747.5,-74 682.5,-74 682.5,-55 747.5,-55 747.5,-74"/>
<text text-anchor="middle" x="715" y="-62" font-family="Helvetica,sans-Serif" font-size="10.00">functional</text>
</a>
</g>
</g>
<!-- Node14&#45;&gt;Node17 -->
<g id="edge29_Node000014_Node000017" class="edge">
<title>Node14&#45;&gt;Node17</title>
<g id="a_edge29_Node000014_Node000017"><a xlink:title=" ">
<path fill="none" stroke="#63b8ff" d="M767.34,-164.66C757.94,-146.85 736.57,-106.37 724.24,-83.01"/>
<polygon fill="#63b8ff" stroke="#63b8ff" points="727.33,-81.37 719.57,-74.16 721.14,-84.64 727.33,-81.37"/>
</a>
</g>
</g>
<!-- Node18 -->
<g id="Node000018" class="node">
<title>Node18</title>
<g id="a_Node000018"><a xlink:href="error_8h.html" target="_top" xlink:title=" ">
<polygon fill="white" stroke="#666666" points="1095.5,-129 1010.5,-129 1010.5,-110 1095.5,-110 1095.5,-129"/>
<text text-anchor="middle" x="1053" y="-117" font-family="Helvetica,sans-Serif" font-size="10.00">Library/error.h</text>
</a>
</g>
</g>
<!-- Node14&#45;&gt;Node18 -->
<g id="edge31_Node000014_Node000018" class="edge">
<title>Node14&#45;&gt;Node18</title>
<g id="a_edge31_Node000014_Node000018"><a xlink:title=" ">
<path fill="none" stroke="#63b8ff" d="M817.15,-164.98C867.14,-155.56 947.62,-140.38 1000.42,-130.42"/>
<polygon fill="#63b8ff" stroke="#63b8ff" points="1001.09,-133.85 1010.27,-128.56 999.79,-126.97 1001.09,-133.85"/>
</a>
</g>
</g>
<!-- Node19 -->
<g id="Node000019" class="node">
<title>Node19</title>
<g id="a_Node000019"><a xlink:href="evaluate_8h.html" target="_top" xlink:title=" ">
<polygon fill="white" stroke="#666666" points="624,-129 506,-129 506,-110 624,-110 624,-129"/>
<text text-anchor="middle" x="565" y="-117" font-family="Helvetica,sans-Serif" font-size="10.00">Evaluator/evaluate.h</text>
</a>
</g>
</g>
<!-- Node14&#45;&gt;Node19 -->
<g id="edge34_Node000014_Node000019" class="edge">
<title>Node14&#45;&gt;Node19</title>
<g id="a_edge34_Node000014_Node000019"><a xlink:title=" ">
<path fill="none" stroke="#63b8ff" d="M738.74,-164.98C703.39,-155.93 647.33,-141.58 608.49,-131.64"/>
<polygon fill="#63b8ff" stroke="#63b8ff" points="609.07,-128.17 598.52,-129.08 607.34,-134.95 609.07,-128.17"/>
</a>
</g>
</g>
<!-- Node18&#45;&gt;Node2 -->
<g id="edge32_Node000018_Node000002" class="edge">
<title>Node18&#45;&gt;Node2</title>
<g id="a_edge32_Node000018_Node000002"><a xlink:title=" ">
<path fill="none" stroke="#63b8ff" d="M1053,-109.66C1053,-92.17 1053,-52.8 1053,-29.27"/>
<polygon fill="#63b8ff" stroke="#63b8ff" points="1056.5,-29.16 1053,-19.16 1049.5,-29.16 1056.5,-29.16"/>
</a>
</g>
</g>
<!-- Node18&#45;&gt;Node12 -->
<g id="edge33_Node000018_Node000012" class="edge">
<title>Node18&#45;&gt;Node12</title>
<g id="a_edge33_Node000018_Node000012"><a xlink:title=" ">
<path fill="none" stroke="#63b8ff" d="M1011.71,-109.98C963.46,-100.03 884.15,-83.68 836.32,-73.82"/>
<polygon fill="#63b8ff" stroke="#63b8ff" points="836.83,-70.35 826.33,-71.75 835.41,-77.2 836.83,-70.35"/>
</a>
</g>
</g>
<!-- Node19&#45;&gt;Node2 -->
<g id="edge37_Node000019_Node000002" class="edge">
<title>Node19&#45;&gt;Node2</title>
<g id="a_edge37_Node000019_Node000002"><a xlink:title=" ">
<path fill="none" stroke="#63b8ff" d="M576.02,-109.97C594.9,-95.87 635.15,-67.97 674,-55 797.22,-13.87 954.03,-9.64 1020.69,-9.91"/>
<polygon fill="#63b8ff" stroke="#63b8ff" points="1020.93,-13.41 1030.96,-9.99 1020.99,-6.41 1020.93,-13.41"/>
</a>
</g>
</g>
<!-- Node19&#45;&gt;Node3 -->
<g id="edge40_Node000019_Node000003" class="edge">
<title>Node19&#45;&gt;Node3</title>
<g id="a_edge40_Node000019_Node000003"><a xlink:title=" ">
<path fill="none" stroke="#63b8ff" d="M505.79,-111.92C430,-103.44 294.68,-88.12 179,-74 166.88,-72.52 153.53,-70.82 142.02,-69.32"/>
<polygon fill="#63b8ff" stroke="#63b8ff" points="142.42,-65.85 132.05,-68.02 141.52,-72.79 142.42,-65.85"/>
</a>
</g>
</g>
<!-- Node19&#45;&gt;Node5 -->
<g id="edge35_Node000019_Node000005" class="edge">
<title>Node19&#45;&gt;Node5</title>
<g id="a_edge35_Node000019_Node000005"><a xlink:title=" ">
<path fill="none" stroke="#63b8ff" d="M624.22,-110.04C679.08,-101.9 762.84,-88.69 835,-74 835.88,-73.82 836.78,-73.63 837.68,-73.44"/>
<polygon fill="#63b8ff" stroke="#63b8ff" points="838.48,-76.85 847.46,-71.24 836.94,-70.02 838.48,-76.85"/>
</a>
</g>
</g>
<!-- Node19&#45;&gt;Node8 -->
<g id="edge39_Node000019_Node000008" class="edge">
<title>Node19&#45;&gt;Node8</title>
<g id="a_edge39_Node000019_Node000008"><a xlink:title=" ">
<path fill="none" stroke="#63b8ff" d="M521.87,-109.97C478.59,-101.31 410.05,-87.31 351,-74 349.55,-73.67 348.07,-73.33 346.57,-72.99"/>
<polygon fill="#63b8ff" stroke="#63b8ff" points="347.24,-69.55 336.7,-70.65 345.62,-76.36 347.24,-69.55"/>
</a>
</g>
</g>
<!-- Node19&#45;&gt;Node10 -->
<g id="edge36_Node000019_Node000010" class="edge">
<title>Node19&#45;&gt;Node10</title>
<g id="a_edge36_Node000019_Node000010"><a xlink:title=" ">
<path fill="none" stroke="#63b8ff" d="M536.99,-109.93C495.31,-97.29 414.42,-73.17 345,-55 280.46,-38.1 261.45,-36.12 193.65,-19.36"/>
<polygon fill="#63b8ff" stroke="#63b8ff" points="194.3,-15.91 183.75,-16.89 192.6,-22.7 194.3,-15.91"/>
</a>
</g>
</g>
<!-- Node19&#45;&gt;Node13 -->
<g id="edge41_Node000019_Node000013" class="edge">
<title>Node19&#45;&gt;Node13</title>
<g id="a_edge41_Node000019_Node000013"><a xlink:title=" ">
<path fill="none" stroke="#63b8ff" d="M511.51,-109.98C457.49,-101.38 371.34,-87.64 287.48,-74.24"/>
<polygon fill="#63b8ff" stroke="#63b8ff" points="287.96,-70.77 277.53,-72.64 286.85,-77.68 287.96,-70.77"/>
</a>
</g>
</g>
<!-- Node19&#45;&gt;Node17 -->
<g id="edge38_Node000019_Node000017" class="edge">
<title>Node19&#45;&gt;Node17</title>
<g id="a_edge38_Node000019_Node000017"><a xlink:title=" ">
<path fill="none" stroke="#63b8ff" d="M589.1,-109.98C613.88,-101.23 652.7,-87.51 680.69,-77.62"/>
<polygon fill="#63b8ff" stroke="#63b8ff" points="682.2,-80.8 690.46,-74.17 679.87,-74.2 682.2,-80.8"/>
</a>
</g>
</g>
<!-- Node20&#45;&gt;Node2 -->
<g id="edge45_Node000020_Node000002" class="edge">
<title>Node20&#45;&gt;Node2</title>
<g id="a_edge45_Node000020_Node000002"><a xlink:title=" ">
<path fill="none" stroke="#63b8ff" d="M987.45,-277.62C1033.7,-271.71 1097.98,-260.31 1151,-239 1193.1,-222.08 1214.49,-223.39 1237,-184 1253.32,-155.43 1255.91,-138.22 1239,-110 1205.54,-54.16 1128.88,-27.89 1085.13,-17.05"/>
<polygon fill="#63b8ff" stroke="#63b8ff" points="1085.82,-13.62 1075.29,-14.74 1084.22,-20.44 1085.82,-13.62"/>
</a>
</g>
</g>
<!-- Node20&#45;&gt;Node4 -->
<g id="edge43_Node000020_Node000004" class="edge">
<title>Node20&#45;&gt;Node4</title>
<g id="a_edge43_Node000020_Node000004"><a xlink:title=" ">
<path fill="none" stroke="#63b8ff" d="M945.8,-274.84C964.37,-266.47 992.69,-253 1016,-239 1071.58,-205.61 1132.43,-159.06 1162.31,-135.47"/>
<polygon fill="#63b8ff" stroke="#63b8ff" points="1164.57,-138.15 1170.22,-129.2 1160.22,-132.67 1164.57,-138.15"/>
</a>
</g>
</g>
<!-- Node20&#45;&gt;Node5 -->
<g id="edge48_Node000020_Node000005" class="edge">
<title>Node20&#45;&gt;Node5</title>
<g id="a_edge48_Node000020_Node000005"><a xlink:title=" ">
<path fill="none" stroke="#63b8ff" d="M973.14,-274.96C1074.35,-254.72 1297.14,-198.73 1219,-110 1198.24,-86.42 985.45,-72 902.68,-67.25"/>
<polygon fill="#63b8ff" stroke="#63b8ff" points="902.76,-63.75 892.58,-66.68 902.36,-70.73 902.76,-63.75"/>
</a>
</g>
</g>
<!-- Node20&#45;&gt;Node6 -->
<g id="edge50_Node000020_Node000006" class="edge">
<title>Node20&#45;&gt;Node6</title>
<g id="a_edge50_Node000020_Node000006"><a xlink:title=" ">
<path fill="none" stroke="#63b8ff" d="M864.6,-279.26C764.62,-272.17 560.46,-256.9 388,-239 386.7,-238.87 385.39,-238.73 384.07,-238.58"/>
<polygon fill="#63b8ff" stroke="#63b8ff" points="384.13,-235.07 373.8,-237.44 383.35,-242.03 384.13,-235.07"/>
</a>
</g>
</g>
<!-- Node20&#45;&gt;Node8 -->
<g id="edge46_Node000020_Node000008" class="edge">
<title>Node20&#45;&gt;Node8</title>
<g id="a_edge46_Node000020_Node000008"><a xlink:title=" ">
<path fill="none" stroke="#63b8ff" d="M864.89,-282.73C794.66,-280.23 676.78,-271.08 581,-239 487.38,-207.65 468.33,-186.4 388,-129 367.59,-114.42 346.3,-95.04 332.22,-81.54"/>
<polygon fill="#63b8ff" stroke="#63b8ff" points="334.43,-78.81 324.82,-74.36 329.55,-83.83 334.43,-78.81"/>
</a>
</g>
</g>
<!-- Node20&#45;&gt;Node9 -->
<g id="edge47_Node000020_Node000009" class="edge">
<title>Node20&#45;&gt;Node9</title>
<g id="a_edge47_Node000020_Node000009"><a xlink:title=" ">
<path fill="none" stroke="#63b8ff" d="M899.01,-274.9C830.76,-252.92 646.15,-191.95 497,-129 427.78,-99.78 412.93,-87.11 345,-55 321.93,-44.09 295.61,-32.04 276.21,-23.23"/>
<polygon fill="#63b8ff" stroke="#63b8ff" points="277.57,-20.01 267.02,-19.07 274.68,-26.39 277.57,-20.01"/>
</a>
</g>
</g>
<!-- Node20&#45;&gt;Node13 -->
<g id="edge52_Node000020_Node000013" class="edge">
<title>Node20&#45;&gt;Node13</title>
<g id="a_edge52_Node000020_Node000013"><a xlink:title=" ">
<path fill="none" stroke="#63b8ff" d="M864.76,-282.16C722.12,-278.6 371.21,-267.19 257,-239 198.47,-224.56 165.87,-234.54 133,-184 106.21,-142.81 168.46,-100.11 206.4,-79"/>
<polygon fill="#63b8ff" stroke="#63b8ff" points="208.32,-81.94 215.45,-74.11 204.99,-75.78 208.32,-81.94"/>
</a>
</g>
</g>
<!-- Node20&#45;&gt;Node14 -->
<g id="edge51_Node000020_Node000014" class="edge">
<title>Node20&#45;&gt;Node14</title>
<g id="a_edge51_Node000020_Node000014"><a xlink:title=" ">
<path fill="none" stroke="#63b8ff" d="M913.66,-274.84C887.3,-256.36 825.27,-212.86 792.74,-190.05"/>
<polygon fill="#63b8ff" stroke="#63b8ff" points="794.6,-187.07 784.4,-184.2 790.58,-192.8 794.6,-187.07"/>
</a>
</g>
</g>
<!-- Node20&#45;&gt;Node16 -->
<g id="edge44_Node000020_Node000016" class="edge">
<title>Node20&#45;&gt;Node16</title>
<g id="a_edge44_Node000020_Node000016"><a xlink:title=" ">
<path fill="none" stroke="#63b8ff" d="M926,-274.74C926,-249.31 926,-175.08 926,-139.69"/>
<polygon fill="#63b8ff" stroke="#63b8ff" points="929.5,-139.31 926,-129.31 922.5,-139.31 929.5,-139.31"/>
</a>
</g>
</g>
<!-- Node20&#45;&gt;Node17 -->
<g id="edge49_Node000020_Node000017" class="edge">
<title>Node20&#45;&gt;Node17</title>
<g id="a_edge49_Node000020_Node000017"><a xlink:title=" ">
<path fill="none" stroke="#63b8ff" d="M932.35,-274.71C951.56,-246.98 1005.21,-160.22 963,-110 934.8,-76.44 817.12,-81.82 757.6,-73.78"/>
<polygon fill="#63b8ff" stroke="#63b8ff" points="757.97,-70.29 747.54,-72.18 756.87,-77.21 757.97,-70.29"/>
</a>
</g>
</g>
<!-- Node20&#45;&gt;Node18 -->
<g id="edge53_Node000020_Node000018" class="edge">
<title>Node20&#45;&gt;Node18</title>
<g id="a_edge53_Node000020_Node000018"><a xlink:title=" ">
<path fill="none" stroke="#63b8ff" d="M945.31,-274.93C960.66,-267.32 981.84,-254.93 996,-239 1022.81,-208.82 1039.78,-163.79 1047.71,-138.83"/>
<polygon fill="#63b8ff" stroke="#63b8ff" points="1051.08,-139.77 1050.64,-129.18 1044.39,-137.73 1051.08,-139.77"/>
</a>
</g>
</g>
</g>
</svg>

<g id="navigator" transform="translate(0 0)" fill="#404254">
  <rect fill="#f2f5e9" fill-opacity="0.5" stroke="#606060" stroke-width=".5" x="0" y="0" width="60" height="60"/>
  <use id="zoomplus" xlink:href="#zoomPlus" x="17" y="9" onmousedown="handleZoom(evt,'in')"/>
  <use id="zoomminus" xlink:href="#zoomMin" x="42" y="9" onmousedown="handleZoom(evt,'out')"/>
  <use id="reset" xlink:href="#resetDef" x="30" y="36" onmousedown="handleReset()"/>
   <use id="arrowup" xlink:href="#arrowUp" x="0" y="0" onmousedown="handlePan(0,-1)"/>
  <use id="arrowright" xlink:href="#arrowRight" x="0" y="0" onmousedown="handlePan(1,0)"/>
  <use id="arrowdown" xlink:href="#arrowDown" x="0" y="0" onmousedown="handlePan(0,1)"/>
  <use id="arrowleft" xlink:href="#arrowLeft" x="0" y="0" onmousedown="handlePan(-1,0)"/>
</g>
<svg viewBox="0 0 15 15" width="100%" height="30px" preserveAspectRatio="xMaxYMin meet">
 <g id="arrow_out" transform="scale(0.3 0.3)">
  <a xlink:href="ref_8h__incl_org.svg" target="_base">
   <rect id="button" ry="5" rx="5" y="6" x="6" height="38" width="38"
        fill="#f2f5e9" fill-opacity="0.5" stroke="#606060" stroke-width="1.0"/>
   <path id="arrow"
     d="M 11.500037,31.436501 C 11.940474,20.09759 22.043105,11.32322 32.158766,21.979434 L 37.068811,17.246167 C 37.068811,17.246167 37.088388,32 37.088388,32 L 22.160133,31.978069 C 22.160133,31.978069 26.997745,27.140456 26.997745,27.140456 C 18.528582,18.264221 13.291696,25.230495 11.500037,31.436501 z"
     style="fill:#404040;"/>
  </a>
 </g>
</svg>

<style type='text/css'>
<![CDATA[
[data-mouse-over-selected='false'] { opacity: 0.7; }
[data-mouse-over-selected='true']  { opacity: 1.0; }
]]>
</style>
<script type="application/ecmascript"><![CDATA[
document.addEventListener('DOMContentLoaded', (event) => {
  highlightEdges();
  highlightAdjacentNodes();
});
]]></script>
</svg>
