<?xml version="1.0" encoding="UTF-8" standalone="no"?>
<!DOCTYPE svg PUBLIC "-//W3C//DTD SVG 1.1//EN"
 "http://www.w3.org/Graphics/SVG/1.1/DTD/svg11.dtd">
<!-- Generated by graphviz version 2.43.0 (0)
 -->
<!-- Title: include/Drivers/refDriver.h Pages: 1 -->
<svg width="548pt" height="247pt"
 viewBox="0.00 0.00 548.47 247.00" xmlns="http://www.w3.org/2000/svg" xmlns:xlink="http://www.w3.org/1999/xlink">
<g id="graph0" class="graph" transform="scale(1 1) rotate(0) translate(4 243)">
<title>include/Drivers/refDriver.h</title>
<!-- Node1 -->
<g id="Node000001" class="node">
<title>Node1</title>
<g id="a_Node000001"><a xlink:title=" ">
<polygon fill="#999999" stroke="#666666" points="378.47,-239 233.47,-239 233.47,-220 378.47,-220 378.47,-239"/>
<text text-anchor="middle" x="305.97" y="-227" font-family="Helvetica,sans-Serif" font-size="10.00">include/Drivers/refDriver.h</text>
</a>
</g>
</g>
<!-- Node2 -->
<g id="Node000002" class="node">
<title>Node2</title>
<g id="a_Node000002"><a xlink:href="driver_8h.html" target="_top" xlink:title=" ">
<polygon fill="white" stroke="#666666" points="299.97,-184 169.97,-184 169.97,-165 299.97,-165 299.97,-184"/>
<text text-anchor="middle" x="234.97" y="-172" font-family="Helvetica,sans-Serif" font-size="10.00">include/Drivers/driver.h</text>
</a>
</g>
</g>
<!-- Node1&#45;&gt;Node2 -->
<g id="edge1_Node000001_Node000002" class="edge">
<title>Node1&#45;&gt;Node2</title>
<g id="a_edge1_Node000001_Node000002"><a xlink:title=" ">
<path fill="none" stroke="#63b8ff" d="M286.38,-213.88C273.6,-204.34 257.35,-192.21 246.58,-184.17"/>
<polygon fill="#63b8ff" stroke="#63b8ff" points="284.45,-216.81 294.56,-219.98 288.64,-211.2 284.45,-216.81"/>
</a>
</g>
</g>
<!-- Node4 -->
<g id="Node000004" class="node">
<title>Node4</title>
<g id="a_Node000004"><a xlink:href="mlvp_8h.html" target="_top" xlink:title=" ">
<polygon fill="white" stroke="#666666" points="91.47,-74 2.47,-74 2.47,-55 91.47,-55 91.47,-74"/>
<text text-anchor="middle" x="46.97" y="-62" font-family="Helvetica,sans-Serif" font-size="10.00">include/mlvp.h</text>
</a>
</g>
</g>
<!-- Node1&#45;&gt;Node4 -->
<g id="edge9_Node000001_Node000004" class="edge">
<title>Node1&#45;&gt;Node4</title>
<g id="a_edge9_Node000001_Node000004"><a xlink:title=" ">
<path fill="none" stroke="#63b8ff" d="M223,-226.65C151.74,-220.11 52.97,-198.1 3.97,-129 -9.82,-109.56 16.7,-86.26 33.89,-74"/>
<polygon fill="#63b8ff" stroke="#63b8ff" points="223.05,-230.17 233.31,-227.51 223.63,-223.2 223.05,-230.17"/>
</a>
</g>
</g>
<!-- Node5 -->
<g id="Node000005" class="node">
<title>Node5</title>
<g id="a_Node000005"><a xlink:href="main_8cpp.html" target="_top" xlink:title=" ">
<polygon fill="white" stroke="#666666" points="378.47,-19 299.47,-19 299.47,0 378.47,0 378.47,-19"/>
<text text-anchor="middle" x="338.97" y="-7" font-family="Helvetica,sans-Serif" font-size="10.00">src/main.cpp</text>
</a>
</g>
</g>
<!-- Node1&#45;&gt;Node5 -->
<g id="edge11_Node000001_Node000005" class="edge">
<title>Node1&#45;&gt;Node5</title>
<g id="a_edge11_Node000001_Node000005"><a xlink:title=" ">
<path fill="none" stroke="#63b8ff" d="M313.75,-210.23C325.38,-181.76 346.73,-124.79 353.97,-74 355.16,-65.64 355.33,-63.33 353.97,-55 351.86,-42.13 346.52,-27.96 342.82,-19.15"/>
<polygon fill="#63b8ff" stroke="#63b8ff" points="310.43,-209.1 309.81,-219.68 316.89,-211.79 310.43,-209.1"/>
</a>
</g>
</g>
<!-- Node8 -->
<g id="Node000008" class="node">
<title>Node8</title>
<g id="a_Node000008"><a xlink:href="refDriver_8cpp.html" target="_top" xlink:title=" ">
<polygon fill="white" stroke="#666666" points="540.47,-184 405.47,-184 405.47,-165 540.47,-165 540.47,-184"/>
<text text-anchor="middle" x="472.97" y="-172" font-family="Helvetica,sans-Serif" font-size="10.00">src/Drivers/refDriver.cpp</text>
</a>
</g>
</g>
<!-- Node1&#45;&gt;Node8 -->
<g id="edge10_Node000001_Node000008" class="edge">
<title>Node1&#45;&gt;Node8</title>
<g id="a_edge10_Node000001_Node000008"><a xlink:title=" ">
<path fill="none" stroke="#63b8ff" d="M342.43,-216.93C373.62,-207.03 417.81,-193.01 445.93,-184.08"/>
<polygon fill="#63b8ff" stroke="#63b8ff" points="341.27,-213.62 332.8,-219.98 343.39,-220.3 341.27,-213.62"/>
</a>
</g>
</g>
<!-- Node3 -->
<g id="Node000003" class="node">
<title>Node3</title>
<g id="a_Node000003"><a xlink:href="spreader_8h.html" target="_top" xlink:title=" ">
<polygon fill="white" stroke="#666666" points="310.97,-129 158.97,-129 158.97,-110 310.97,-110 310.97,-129"/>
<text text-anchor="middle" x="234.97" y="-117" font-family="Helvetica,sans-Serif" font-size="10.00">include/Spreader/spreader.h</text>
</a>
</g>
</g>
<!-- Node2&#45;&gt;Node3 -->
<g id="edge2_Node000002_Node000003" class="edge">
<title>Node2&#45;&gt;Node3</title>
<g id="a_edge2_Node000002_Node000003"><a xlink:title=" ">
<path fill="none" stroke="#63b8ff" d="M234.97,-154.66C234.97,-145.93 234.97,-135.99 234.97,-129.09"/>
<polygon fill="#63b8ff" stroke="#63b8ff" points="231.47,-154.75 234.97,-164.75 238.47,-154.75 231.47,-154.75"/>
</a>
</g>
</g>
<!-- Node2&#45;&gt;Node4 -->
<g id="edge6_Node000002_Node000004" class="edge">
<title>Node2&#45;&gt;Node4</title>
<g id="a_edge6_Node000002_Node000004"><a xlink:title=" ">
<path fill="none" stroke="#63b8ff" d="M159.68,-168.52C102.46,-162.98 30.54,-151.64 11.97,-129 -2.4,-111.48 20.74,-87.2 35.75,-74.33"/>
<polygon fill="#63b8ff" stroke="#63b8ff" points="159.53,-172.02 169.81,-169.46 160.17,-165.05 159.53,-172.02"/>
</a>
</g>
</g>
<!-- Node2&#45;&gt;Node5 -->
<g id="edge8_Node000002_Node000005" class="edge">
<title>Node2&#45;&gt;Node5</title>
<g id="a_edge8_Node000002_Node000005"><a xlink:title=" ">
<path fill="none" stroke="#63b8ff" d="M275.78,-161.16C291.96,-154.24 309.23,-143.92 319.97,-129 344.67,-94.67 342.14,-40.27 340.04,-19.22"/>
<polygon fill="#63b8ff" stroke="#63b8ff" points="274.45,-157.93 266.44,-164.85 277.02,-164.44 274.45,-157.93"/>
</a>
</g>
</g>
<!-- Node7 -->
<g id="Node000007" class="node">
<title>Node7</title>
<g id="a_Node000007"><a xlink:href="driver_8cpp.html" target="_top" xlink:title=" ">
<polygon fill="white" stroke="#666666" points="140.97,-129 20.97,-129 20.97,-110 140.97,-110 140.97,-129"/>
<text text-anchor="middle" x="80.97" y="-117" font-family="Helvetica,sans-Serif" font-size="10.00">src/Drivers/driver.cpp</text>
</a>
</g>
</g>
<!-- Node2&#45;&gt;Node7 -->
<g id="edge7_Node000002_Node000007" class="edge">
<title>Node2&#45;&gt;Node7</title>
<g id="a_edge7_Node000002_Node000007"><a xlink:title=" ">
<path fill="none" stroke="#63b8ff" d="M200.59,-161.67C171.87,-151.79 131.61,-137.93 105.9,-129.08"/>
<polygon fill="#63b8ff" stroke="#63b8ff" points="199.63,-165.04 210.22,-164.98 201.91,-158.42 199.63,-165.04"/>
</a>
</g>
</g>
<!-- Node3&#45;&gt;Node4 -->
<g id="edge3_Node000003_Node000004" class="edge">
<title>Node3&#45;&gt;Node4</title>
<g id="a_edge3_Node000003_Node000004"><a xlink:title=" ">
<path fill="none" stroke="#63b8ff" d="M194.83,-107.18C159.67,-97.27 109.34,-83.08 77.41,-74.08"/>
<polygon fill="#63b8ff" stroke="#63b8ff" points="194.19,-110.64 204.76,-109.98 196.09,-103.9 194.19,-110.64"/>
</a>
</g>
</g>
<!-- Node6 -->
<g id="Node000006" class="node">
<title>Node6</title>
<g id="a_Node000006"><a xlink:href="spreader_8cpp.html" target="_top" xlink:title=" ">
<polygon fill="white" stroke="#666666" points="306.47,-74 163.47,-74 163.47,-55 306.47,-55 306.47,-74"/>
<text text-anchor="middle" x="234.97" y="-62" font-family="Helvetica,sans-Serif" font-size="10.00">src/Spreader/spreader.cpp</text>
</a>
</g>
</g>
<!-- Node3&#45;&gt;Node6 -->
<g id="edge5_Node000003_Node000006" class="edge">
<title>Node3&#45;&gt;Node6</title>
<g id="a_edge5_Node000003_Node000006"><a xlink:title=" ">
<path fill="none" stroke="#63b8ff" d="M234.97,-99.66C234.97,-90.93 234.97,-80.99 234.97,-74.09"/>
<polygon fill="#63b8ff" stroke="#63b8ff" points="231.47,-99.75 234.97,-109.75 238.47,-99.75 231.47,-99.75"/>
</a>
</g>
</g>
<!-- Node4&#45;&gt;Node5 -->
<g id="edge4_Node000004_Node000005" class="edge">
<title>Node4&#45;&gt;Node5</title>
<g id="a_edge4_Node000004_Node000005"><a xlink:title=" ">
<path fill="none" stroke="#63b8ff" d="M101.64,-53.58C159.2,-43.13 248.39,-26.94 299.46,-17.67"/>
<polygon fill="#63b8ff" stroke="#63b8ff" points="100.85,-50.16 91.63,-55.39 102.1,-57.05 100.85,-50.16"/>
</a>
</g>
</g>
</g>
</svg>
