<?xml version="1.0" encoding="UTF-8" standalone="no"?>
<!DOCTYPE svg PUBLIC "-//W3C//DTD SVG 1.1//EN"
 "http://www.w3.org/Graphics/SVG/1.1/DTD/svg11.dtd">
<!-- Generated by graphviz version 2.43.0 (0)
 -->
<!-- Title: src/Drivers/refDriver.cpp Pages: 1 -->
<svg width="1490pt" height="577pt"
 viewBox="0.00 0.00 1490.00 577.00" xmlns="http://www.w3.org/2000/svg" xmlns:xlink="http://www.w3.org/1999/xlink">
<g id="graph0" class="graph" transform="scale(1 1) rotate(0) translate(4 573)">
<title>src/Drivers/refDriver.cpp</title>
<!-- Node1 -->
<g id="Node000001" class="node">
<title>Node1</title>
<g id="a_Node000001"><a xlink:title=" ">
<polygon fill="#999999" stroke="#666666" points="856.5,-569 721.5,-569 721.5,-550 856.5,-550 856.5,-569"/>
<text text-anchor="middle" x="789" y="-557" font-family="Helvetica,sans-Serif" font-size="10.00">src/Drivers/refDriver.cpp</text>
</a>
</g>
</g>
<!-- Node2 -->
<g id="Node000002" class="node">
<title>Node2</title>
<g id="a_Node000002"><a xlink:href="refDriver_8h.html" target="_top" xlink:title=" ">
<polygon fill="white" stroke="#666666" points="842.5,-514 735.5,-514 735.5,-495 842.5,-495 842.5,-514"/>
<text text-anchor="middle" x="789" y="-502" font-family="Helvetica,sans-Serif" font-size="10.00">Drivers/refDriver.h</text>
</a>
</g>
</g>
<!-- Node1&#45;&gt;Node2 -->
<g id="edge1_Node000001_Node000002" class="edge">
<title>Node1&#45;&gt;Node2</title>
<g id="a_edge1_Node000001_Node000002"><a xlink:title=" ">
<path fill="none" stroke="#63b8ff" d="M789,-549.75C789,-542.8 789,-532.85 789,-524.13"/>
<polygon fill="#63b8ff" stroke="#63b8ff" points="792.5,-524.09 789,-514.09 785.5,-524.09 792.5,-524.09"/>
</a>
</g>
</g>
<!-- Node3 -->
<g id="Node000003" class="node">
<title>Node3</title>
<g id="a_Node000003"><a xlink:title=" ">
<polygon fill="#e0e0e0" stroke="#999999" points="265,-19 221,-19 221,0 265,0 265,-19"/>
<text text-anchor="middle" x="243" y="-7" font-family="Helvetica,sans-Serif" font-size="10.00">string</text>
</a>
</g>
</g>
<!-- Node2&#45;&gt;Node3 -->
<g id="edge2_Node000002_Node000003" class="edge">
<title>Node2&#45;&gt;Node3</title>
<g id="a_edge2_Node000002_Node000003"><a xlink:title=" ">
<path fill="none" stroke="#63b8ff" d="M735.39,-501.82C557.81,-495.54 0,-469.9 0,-395.5 0,-395.5 0,-395.5 0,-118.5 0,-27.54 143.94,-12.62 210.26,-10.57"/>
<polygon fill="#63b8ff" stroke="#63b8ff" points="210.66,-14.06 220.57,-10.34 210.5,-7.07 210.66,-14.06"/>
</a>
</g>
</g>
<!-- Node4 -->
<g id="Node000004" class="node">
<title>Node4</title>
<g id="a_Node000004"><a xlink:title=" ">
<polygon fill="#e0e0e0" stroke="#999999" points="1048.5,-74 1003.5,-74 1003.5,-55 1048.5,-55 1048.5,-74"/>
<text text-anchor="middle" x="1026" y="-62" font-family="Helvetica,sans-Serif" font-size="10.00">utility</text>
</a>
</g>
</g>
<!-- Node2&#45;&gt;Node4 -->
<g id="edge3_Node000002_Node000004" class="edge">
<title>Node2&#45;&gt;Node4</title>
<g id="a_edge3_Node000002_Node000004"><a xlink:title=" ">
<path fill="none" stroke="#63b8ff" d="M842.6,-500.3C999.03,-490.24 1444,-456.29 1444,-395.5 1444,-395.5 1444,-395.5 1444,-283.5 1444,-181.57 1382.9,-159.87 1294,-110 1254.14,-87.64 1121.06,-73.63 1058.73,-68.15"/>
<polygon fill="#63b8ff" stroke="#63b8ff" points="1058.91,-64.65 1048.65,-67.28 1058.31,-71.62 1058.91,-64.65"/>
</a>
</g>
</g>
<!-- Node5 -->
<g id="Node000005" class="node">
<title>Node5</title>
<g id="a_Node000005"><a xlink:title=" ">
<polygon fill="#e0e0e0" stroke="#999999" points="1239.5,-19 1192.5,-19 1192.5,0 1239.5,0 1239.5,-19"/>
<text text-anchor="middle" x="1216" y="-7" font-family="Helvetica,sans-Serif" font-size="10.00">vector</text>
</a>
</g>
</g>
<!-- Node2&#45;&gt;Node5 -->
<g id="edge4_Node000002_Node000005" class="edge">
<title>Node2&#45;&gt;Node5</title>
<g id="a_edge4_Node000002_Node000005"><a xlink:title=" ">
<path fill="none" stroke="#63b8ff" d="M842.76,-504.19C939.84,-504.3 1150.24,-499.32 1322,-459 1396.48,-441.52 1482,-472.01 1482,-395.5 1482,-395.5 1482,-395.5 1482,-118.5 1482,-68.86 1320.94,-31.08 1249.47,-16.76"/>
<polygon fill="#63b8ff" stroke="#63b8ff" points="1250.09,-13.31 1239.61,-14.82 1248.74,-20.18 1250.09,-13.31"/>
</a>
</g>
</g>
<!-- Node6 -->
<g id="Node000006" class="node">
<title>Node6</title>
<g id="a_Node000006"><a xlink:title=" ">
<polygon fill="#e0e0e0" stroke="#999999" points="1264,-129 1206,-129 1206,-110 1264,-110 1264,-129"/>
<text text-anchor="middle" x="1235" y="-117" font-family="Helvetica,sans-Serif" font-size="10.00">memory</text>
</a>
</g>
</g>
<!-- Node2&#45;&gt;Node6 -->
<g id="edge5_Node000002_Node000006" class="edge">
<title>Node2&#45;&gt;Node6</title>
<g id="a_edge5_Node000002_Node000006"><a xlink:title=" ">
<path fill="none" stroke="#63b8ff" d="M842.8,-502.51C965.2,-497.13 1254,-465.38 1254,-285.5 1254,-285.5 1254,-285.5 1254,-228.5 1254,-196.56 1245.84,-160.1 1240.22,-138.77"/>
<polygon fill="#63b8ff" stroke="#63b8ff" points="1243.58,-137.81 1237.56,-129.09 1236.83,-139.66 1243.58,-137.81"/>
</a>
</g>
</g>
<!-- Node7 -->
<g id="Node000007" class="node">
<title>Node7</title>
<g id="a_Node000007"><a xlink:title=" ">
<polygon fill="#e0e0e0" stroke="#999999" points="1150,-184 1104,-184 1104,-165 1150,-165 1150,-184"/>
<text text-anchor="middle" x="1127" y="-172" font-family="Helvetica,sans-Serif" font-size="10.00">future</text>
</a>
</g>
</g>
<!-- Node2&#45;&gt;Node7 -->
<g id="edge6_Node000002_Node000007" class="edge">
<title>Node2&#45;&gt;Node7</title>
<g id="a_edge6_Node000002_Node000007"><a xlink:title=" ">
<path fill="none" stroke="#63b8ff" d="M842.8,-497.02C935.85,-484.59 1120.6,-454.09 1159,-404 1208.31,-339.68 1159.69,-234.31 1137.14,-192.94"/>
<polygon fill="#63b8ff" stroke="#63b8ff" points="1140.1,-191.08 1132.16,-184.08 1134,-194.51 1140.1,-191.08"/>
</a>
</g>
</g>
<!-- Node8 -->
<g id="Node000008" class="node">
<title>Node8</title>
<g id="a_Node000008"><a xlink:href="driverModel_8h.html" target="_top" xlink:title=" ">
<polygon fill="white" stroke="#666666" points="464,-294 342,-294 342,-275 464,-275 464,-294"/>
<text text-anchor="middle" x="403" y="-282" font-family="Helvetica,sans-Serif" font-size="10.00">Drivers/driverModel.h</text>
</a>
</g>
</g>
<!-- Node2&#45;&gt;Node8 -->
<g id="edge7_Node000002_Node000008" class="edge">
<title>Node2&#45;&gt;Node8</title>
<g id="a_edge7_Node000002_Node000008"><a xlink:title=" ">
<path fill="none" stroke="#63b8ff" d="M735.02,-502.02C682.83,-498.74 602.68,-488.77 540,-459 476.4,-428.8 462.36,-409.29 426,-349 417.49,-334.88 411.38,-317.11 407.62,-303.96"/>
<polygon fill="#63b8ff" stroke="#63b8ff" points="410.97,-302.94 405,-294.19 404.2,-304.75 410.97,-302.94"/>
</a>
</g>
</g>
<!-- Node16 -->
<g id="Node000016" class="node">
<title>Node16</title>
<g id="a_Node000016"><a xlink:href="transaction_8h_source.html" target="_top" xlink:title=" ">
<polygon fill="white" stroke="#666666" points="729.5,-184 590.5,-184 590.5,-165 729.5,-165 729.5,-184"/>
<text text-anchor="middle" x="660" y="-172" font-family="Helvetica,sans-Serif" font-size="10.00">Transaction/transaction.h</text>
</a>
</g>
</g>
<!-- Node2&#45;&gt;Node16 -->
<g id="edge60_Node000002_Node000016" class="edge">
<title>Node2&#45;&gt;Node16</title>
<g id="a_edge60_Node000002_Node000016"><a xlink:title=" ">
<path fill="none" stroke="#63b8ff" d="M784.61,-494.73C780.22,-485.82 773.35,-471.58 768,-459 726.07,-360.51 682.65,-239.71 666.53,-194.11"/>
<polygon fill="#63b8ff" stroke="#63b8ff" points="669.74,-192.69 663.11,-184.42 663.14,-195.01 669.74,-192.69"/>
</a>
</g>
</g>
<!-- Node21 -->
<g id="Node000021" class="node">
<title>Node21</title>
<g id="a_Node000021"><a xlink:href="transDriverModel_8h.html" target="_top" xlink:title=" ">
<polygon fill="white" stroke="#666666" points="666.5,-404 517.5,-404 517.5,-385 666.5,-385 666.5,-404"/>
<text text-anchor="middle" x="592" y="-392" font-family="Helvetica,sans-Serif" font-size="10.00">Drivers/transDriverModel.h</text>
</a>
</g>
</g>
<!-- Node2&#45;&gt;Node21 -->
<g id="edge51_Node000002_Node000021" class="edge">
<title>Node2&#45;&gt;Node21</title>
<g id="a_edge51_Node000002_Node000021"><a xlink:title=" ">
<path fill="none" stroke="#63b8ff" d="M773.21,-494.84C738.91,-476.04 657.36,-431.33 616.39,-408.87"/>
<polygon fill="#63b8ff" stroke="#63b8ff" points="618.04,-405.79 607.59,-404.05 614.68,-411.92 618.04,-405.79"/>
</a>
</g>
</g>
<!-- Node22 -->
<g id="Node000022" class="node">
<title>Node22</title>
<g id="a_Node000022"><a xlink:href="simulatorDriver_8h.html" target="_top" xlink:title=" ">
<polygon fill="white" stroke="#666666" points="628,-349 488,-349 488,-330 628,-330 628,-349"/>
<text text-anchor="middle" x="558" y="-337" font-family="Helvetica,sans-Serif" font-size="10.00">Drivers/simulatorDriver.h</text>
</a>
</g>
</g>
<!-- Node2&#45;&gt;Node22 -->
<g id="edge75_Node000002_Node000022" class="edge">
<title>Node2&#45;&gt;Node22</title>
<g id="a_edge75_Node000002_Node000022"><a xlink:title=" ">
<path fill="none" stroke="#63b8ff" d="M735.45,-501.85C669.61,-496.6 560.32,-476.7 509,-404 496.78,-386.7 516.38,-367.54 534.3,-354.84"/>
<polygon fill="#63b8ff" stroke="#63b8ff" points="536.44,-357.62 542.82,-349.16 532.56,-351.79 536.44,-357.62"/>
</a>
</g>
</g>
<!-- Node24 -->
<g id="Node000024" class="node">
<title>Node24</title>
<g id="a_Node000024"><a xlink:href="dutDriver_8h.html" target="_top" xlink:title=" ">
<polygon fill="white" stroke="#666666" points="885.5,-459 776.5,-459 776.5,-440 885.5,-440 885.5,-459"/>
<text text-anchor="middle" x="831" y="-447" font-family="Helvetica,sans-Serif" font-size="10.00">Drivers/dutDriver.h</text>
</a>
</g>
</g>
<!-- Node2&#45;&gt;Node24 -->
<g id="edge61_Node000002_Node000024" class="edge">
<title>Node2&#45;&gt;Node24</title>
<g id="a_edge61_Node000002_Node000024"><a xlink:title=" ">
<path fill="none" stroke="#63b8ff" d="M795.94,-494.75C801.87,-487.26 810.57,-476.28 817.82,-467.13"/>
<polygon fill="#63b8ff" stroke="#63b8ff" points="820.73,-469.1 824.19,-459.09 815.24,-464.75 820.73,-469.1"/>
</a>
</g>
</g>
<!-- Node8&#45;&gt;Node3 -->
<g id="edge10_Node000008_Node000003" class="edge">
<title>Node8&#45;&gt;Node3</title>
<g id="a_edge10_Node000008_Node000003"><a xlink:title=" ">
<path fill="none" stroke="#63b8ff" d="M341.88,-276C247.23,-262.66 76,-230.88 76,-175.5 76,-175.5 76,-175.5 76,-118.5 76,-89.04 74.18,-75.84 95,-55 125.88,-24.08 177.37,-14.49 210.75,-11.61"/>
<polygon fill="#63b8ff" stroke="#63b8ff" points="211.18,-15.09 220.9,-10.89 210.68,-8.1 211.18,-15.09"/>
</a>
</g>
</g>
<!-- Node8&#45;&gt;Node4 -->
<g id="edge12_Node000008_Node000004" class="edge">
<title>Node8&#45;&gt;Node4</title>
<g id="a_edge12_Node000008_Node000004"><a xlink:title=" ">
<path fill="none" stroke="#63b8ff" d="M460.7,-274.94C505.1,-267.58 567.69,-255.53 621,-239 701.66,-213.99 715.56,-190.71 796,-165 866.26,-142.54 892.75,-163.38 958,-129 980.22,-117.29 1000.53,-96.38 1013.06,-81.77"/>
<polygon fill="#63b8ff" stroke="#63b8ff" points="1015.8,-83.94 1019.49,-74.01 1010.41,-79.47 1015.8,-83.94"/>
</a>
</g>
</g>
<!-- Node8&#45;&gt;Node6 -->
<g id="edge8_Node000008_Node000006" class="edge">
<title>Node8&#45;&gt;Node6</title>
<g id="a_edge8_Node000008_Node000006"><a xlink:title=" ">
<path fill="none" stroke="#63b8ff" d="M464.06,-282.83C568.68,-280.78 788.58,-272.46 971,-239 1056.63,-223.29 1082.2,-225 1159,-184 1182.55,-171.43 1205.49,-150.75 1219.89,-136.42"/>
<polygon fill="#63b8ff" stroke="#63b8ff" points="1222.47,-138.8 1226.97,-129.21 1217.47,-133.9 1222.47,-138.8"/>
</a>
</g>
</g>
<!-- Node9 -->
<g id="Node000009" class="node">
<title>Node9</title>
<g id="a_Node000009"><a xlink:title=" ">
<polygon fill="#e0e0e0" stroke="#999999" points="416,-129 360,-129 360,-110 416,-110 416,-129"/>
<text text-anchor="middle" x="388" y="-117" font-family="Helvetica,sans-Serif" font-size="10.00">optional</text>
</a>
</g>
</g>
<!-- Node8&#45;&gt;Node9 -->
<g id="edge9_Node000008_Node000009" class="edge">
<title>Node8&#45;&gt;Node9</title>
<g id="a_edge9_Node000008_Node000009"><a xlink:title=" ">
<path fill="none" stroke="#63b8ff" d="M402.19,-274.74C399.85,-249.31 393.02,-175.08 389.77,-139.69"/>
<polygon fill="#63b8ff" stroke="#63b8ff" points="393.21,-138.94 388.81,-129.31 386.24,-139.59 393.21,-138.94"/>
</a>
</g>
</g>
<!-- Node10 -->
<g id="Node000010" class="node">
<title>Node10</title>
<g id="a_Node000010"><a xlink:title=" ">
<polygon fill="#e0e0e0" stroke="#999999" points="941.5,-19 848.5,-19 848.5,0 941.5,0 941.5,-19"/>
<text text-anchor="middle" x="895" y="-7" font-family="Helvetica,sans-Serif" font-size="10.00">unordered_map</text>
</a>
</g>
</g>
<!-- Node8&#45;&gt;Node10 -->
<g id="edge11_Node000008_Node000010" class="edge">
<title>Node8&#45;&gt;Node10</title>
<g id="a_edge11_Node000008_Node000010"><a xlink:title=" ">
<path fill="none" stroke="#63b8ff" d="M364.65,-274.95C343.88,-268.42 319.4,-257.32 304,-239 267.11,-195.1 263.8,-152.76 302,-110 372.58,-31 703.99,-14.72 838.28,-11.37"/>
<polygon fill="#63b8ff" stroke="#63b8ff" points="838.45,-14.87 848.36,-11.13 838.28,-7.87 838.45,-14.87"/>
</a>
</g>
</g>
<!-- Node11 -->
<g id="Node000011" class="node">
<title>Node11</title>
<g id="a_Node000011"><a xlink:title=" ">
<polygon fill="#e0e0e0" stroke="#999999" points="537.5,-74 472.5,-74 472.5,-55 537.5,-55 537.5,-74"/>
<text text-anchor="middle" x="505" y="-62" font-family="Helvetica,sans-Serif" font-size="10.00">functional</text>
</a>
</g>
</g>
<!-- Node8&#45;&gt;Node11 -->
<g id="edge13_Node000008_Node000011" class="edge">
<title>Node8&#45;&gt;Node11</title>
<g id="a_edge13_Node000008_Node000011"><a xlink:title=" ">
<path fill="none" stroke="#63b8ff" d="M368.78,-274.93C350.29,-268.37 329.04,-257.24 318,-239 288.31,-189.95 282.46,-154.99 318,-110 335.62,-87.69 412.62,-75.37 462.15,-69.62"/>
<polygon fill="#63b8ff" stroke="#63b8ff" points="462.72,-73.08 472.28,-68.49 461.95,-66.12 462.72,-73.08"/>
</a>
</g>
</g>
<!-- Node12 -->
<g id="Node000012" class="node">
<title>Node12</title>
<g id="a_Node000012"><a xlink:href="channel_8h.html" target="_top" xlink:title=" ">
<polygon fill="white" stroke="#666666" points="961.5,-239 854.5,-239 854.5,-220 961.5,-220 961.5,-239"/>
<text text-anchor="middle" x="908" y="-227" font-family="Helvetica,sans-Serif" font-size="10.00">Channel/channel.h</text>
</a>
</g>
</g>
<!-- Node8&#45;&gt;Node12 -->
<g id="edge14_Node000008_Node000012" class="edge">
<title>Node8&#45;&gt;Node12</title>
<g id="a_edge14_Node000008_Node000012"><a xlink:title=" ">
<path fill="none" stroke="#63b8ff" d="M464.17,-277.08C560.42,-266.98 746.32,-247.47 844.18,-237.2"/>
<polygon fill="#63b8ff" stroke="#63b8ff" points="844.65,-240.67 854.23,-236.14 843.92,-233.71 844.65,-240.67"/>
</a>
</g>
</g>
<!-- Node15 -->
<g id="Node000015" class="node">
<title>Node15</title>
<g id="a_Node000015"><a xlink:href="types_8h.html" target="_top" xlink:title=" ">
<polygon fill="white" stroke="#666666" points="706.5,-74 617.5,-74 617.5,-55 706.5,-55 706.5,-74"/>
<text text-anchor="middle" x="662" y="-62" font-family="Helvetica,sans-Serif" font-size="10.00">Library/types.h</text>
</a>
</g>
</g>
<!-- Node8&#45;&gt;Node15 -->
<g id="edge49_Node000008_Node000015" class="edge">
<title>Node8&#45;&gt;Node15</title>
<g id="a_edge49_Node000008_Node000015"><a xlink:title=" ">
<path fill="none" stroke="#63b8ff" d="M395.38,-274.74C372.26,-247.11 307.12,-160.6 351,-110 367.52,-90.94 522.55,-76.19 607.29,-69.47"/>
<polygon fill="#63b8ff" stroke="#63b8ff" points="607.56,-72.96 617.26,-68.7 607.02,-65.98 607.56,-72.96"/>
</a>
</g>
</g>
<!-- Node8&#45;&gt;Node16 -->
<g id="edge48_Node000008_Node000016" class="edge">
<title>Node8&#45;&gt;Node16</title>
<g id="a_edge48_Node000008_Node000016"><a xlink:title=" ">
<path fill="none" stroke="#63b8ff" d="M464.04,-277.71C503.08,-272.03 553.76,-260.85 594,-239 615.29,-227.44 634.62,-207.14 646.78,-192.61"/>
<polygon fill="#63b8ff" stroke="#63b8ff" points="649.82,-194.41 653.38,-184.43 644.37,-190.01 649.82,-194.41"/>
</a>
</g>
</g>
<!-- Node18 -->
<g id="Node000018" class="node">
<title>Node18</title>
<g id="a_Node000018"><a xlink:href="error_8h.html" target="_top" xlink:title=" ">
<polygon fill="white" stroke="#666666" points="189.5,-129 104.5,-129 104.5,-110 189.5,-110 189.5,-129"/>
<text text-anchor="middle" x="147" y="-117" font-family="Helvetica,sans-Serif" font-size="10.00">Library/error.h</text>
</a>
</g>
</g>
<!-- Node8&#45;&gt;Node18 -->
<g id="edge50_Node000008_Node000018" class="edge">
<title>Node8&#45;&gt;Node18</title>
<g id="a_edge50_Node000008_Node000018"><a xlink:title=" ">
<path fill="none" stroke="#63b8ff" d="M341.59,-275.72C291.27,-268.28 225.07,-255.73 204,-239 171.93,-213.53 156.82,-165.58 150.64,-139.15"/>
<polygon fill="#63b8ff" stroke="#63b8ff" points="154.04,-138.31 148.52,-129.27 147.2,-139.78 154.04,-138.31"/>
</a>
</g>
</g>
<!-- Node12&#45;&gt;Node3 -->
<g id="edge16_Node000012_Node000003" class="edge">
<title>Node12&#45;&gt;Node3</title>
<g id="a_edge16_Node000012_Node000003"><a xlink:title=" ">
<path fill="none" stroke="#63b8ff" d="M854.15,-223.68C731.65,-211.96 436.15,-179.2 351,-129 307.22,-103.19 270.95,-53.92 253.75,-27.78"/>
<polygon fill="#63b8ff" stroke="#63b8ff" points="256.65,-25.81 248.3,-19.28 250.75,-29.59 256.65,-25.81"/>
</a>
</g>
</g>
<!-- Node12&#45;&gt;Node4 -->
<g id="edge20_Node000012_Node000004" class="edge">
<title>Node12&#45;&gt;Node4</title>
<g id="a_edge20_Node000012_Node000004"><a xlink:title=" ">
<path fill="none" stroke="#63b8ff" d="M914.34,-219.74C933.15,-193.76 988.84,-116.83 1013.74,-82.44"/>
<polygon fill="#63b8ff" stroke="#63b8ff" points="1016.6,-84.46 1019.62,-74.31 1010.93,-80.35 1016.6,-84.46"/>
</a>
</g>
</g>
<!-- Node12&#45;&gt;Node5 -->
<g id="edge21_Node000012_Node000005" class="edge">
<title>Node12&#45;&gt;Node5</title>
<g id="a_edge21_Node000012_Node000005"><a xlink:title=" ">
<path fill="none" stroke="#63b8ff" d="M936.08,-219.9C958.84,-212.26 991.25,-199.87 1017,-184 1093.62,-136.78 1169.78,-59.92 1201.11,-26.67"/>
<polygon fill="#63b8ff" stroke="#63b8ff" points="1203.81,-28.9 1208.08,-19.21 1198.7,-24.13 1203.81,-28.9"/>
</a>
</g>
</g>
<!-- Node12&#45;&gt;Node6 -->
<g id="edge15_Node000012_Node000006" class="edge">
<title>Node12&#45;&gt;Node6</title>
<g id="a_edge15_Node000012_Node000006"><a xlink:title=" ">
<path fill="none" stroke="#63b8ff" d="M939.25,-219.98C968.66,-211.7 1013.77,-198.3 1052,-184 1071.57,-176.68 1075.46,-172.4 1095,-165 1128.67,-152.25 1167.78,-140.03 1196.09,-131.63"/>
<polygon fill="#63b8ff" stroke="#63b8ff" points="1197.39,-134.9 1206,-128.72 1195.42,-128.18 1197.39,-134.9"/>
</a>
</g>
</g>
<!-- Node12&#45;&gt;Node7 -->
<g id="edge22_Node000012_Node000007" class="edge">
<title>Node12&#45;&gt;Node7</title>
<g id="a_edge22_Node000012_Node000007"><a xlink:title=" ">
<path fill="none" stroke="#63b8ff" d="M943.19,-219.98C984.79,-209.92 1053.48,-193.29 1094.07,-183.47"/>
<polygon fill="#63b8ff" stroke="#63b8ff" points="1095.1,-186.82 1103.99,-181.07 1093.45,-180.02 1095.1,-186.82"/>
</a>
</g>
</g>
<!-- Node12&#45;&gt;Node10 -->
<g id="edge18_Node000012_Node000010" class="edge">
<title>Node12&#45;&gt;Node10</title>
<g id="a_edge18_Node000012_Node000010"><a xlink:title=" ">
<path fill="none" stroke="#63b8ff" d="M926.06,-219.97C975.93,-195.28 1108.63,-121.3 1058,-55 1044.97,-37.93 993.52,-25.83 951.86,-18.6"/>
<polygon fill="#63b8ff" stroke="#63b8ff" points="952.22,-15.11 941.78,-16.91 951.07,-22.01 952.22,-15.11"/>
</a>
</g>
</g>
<!-- Node13 -->
<g id="Node000013" class="node">
<title>Node13</title>
<g id="a_Node000013"><a xlink:title=" ">
<polygon fill="#e0e0e0" stroke="#999999" points="983.5,-74 942.5,-74 942.5,-55 983.5,-55 983.5,-74"/>
<text text-anchor="middle" x="963" y="-62" font-family="Helvetica,sans-Serif" font-size="10.00">tuple</text>
</a>
</g>
</g>
<!-- Node12&#45;&gt;Node13 -->
<g id="edge17_Node000012_Node000013" class="edge">
<title>Node12&#45;&gt;Node13</title>
<g id="a_edge17_Node000012_Node000013"><a xlink:title=" ">
<path fill="none" stroke="#63b8ff" d="M910.96,-219.74C919.57,-194.2 944.8,-119.43 956.68,-84.23"/>
<polygon fill="#63b8ff" stroke="#63b8ff" points="960.15,-84.9 960.03,-74.31 953.51,-82.66 960.15,-84.9"/>
</a>
</g>
</g>
<!-- Node14 -->
<g id="Node000014" class="node">
<title>Node14</title>
<g id="a_Node000014"><a xlink:title=" ">
<polygon fill="#e0e0e0" stroke="#999999" points="763,-74 725,-74 725,-55 763,-55 763,-74"/>
<text text-anchor="middle" x="744" y="-62" font-family="Helvetica,sans-Serif" font-size="10.00">map</text>
</a>
</g>
</g>
<!-- Node12&#45;&gt;Node14 -->
<g id="edge19_Node000012_Node000014" class="edge">
<title>Node12&#45;&gt;Node14</title>
<g id="a_edge19_Node000012_Node000014"><a xlink:title=" ">
<path fill="none" stroke="#63b8ff" d="M903.91,-219.79C897.09,-206.19 882.13,-179.9 862,-165 822.34,-135.65 789.57,-166.05 757,-129 746.32,-116.85 743.53,-98.32 743.15,-84.41"/>
<polygon fill="#63b8ff" stroke="#63b8ff" points="746.65,-84.09 743.26,-74.05 739.65,-84.01 746.65,-84.09"/>
</a>
</g>
</g>
<!-- Node12&#45;&gt;Node15 -->
<g id="edge23_Node000012_Node000015" class="edge">
<title>Node12&#45;&gt;Node15</title>
<g id="a_edge23_Node000012_Node000015"><a xlink:title=" ">
<path fill="none" stroke="#63b8ff" d="M892.13,-219.79C862.25,-203.2 795.87,-165.46 743,-129 720.66,-113.59 696.32,-94.12 680.21,-80.82"/>
<polygon fill="#63b8ff" stroke="#63b8ff" points="682.1,-77.84 672.18,-74.14 677.63,-83.22 682.1,-77.84"/>
</a>
</g>
</g>
<!-- Node12&#45;&gt;Node16 -->
<g id="edge27_Node000012_Node000016" class="edge">
<title>Node12&#45;&gt;Node16</title>
<g id="a_edge27_Node000012_Node000016"><a xlink:title=" ">
<path fill="none" stroke="#63b8ff" d="M868.15,-219.98C825.17,-210.8 756.63,-196.15 710.04,-186.19"/>
<polygon fill="#63b8ff" stroke="#63b8ff" points="710.67,-182.75 700.16,-184.08 709.21,-189.59 710.67,-182.75"/>
</a>
</g>
</g>
<!-- Node15&#45;&gt;Node3 -->
<g id="edge26_Node000015_Node000003" class="edge">
<title>Node15&#45;&gt;Node3</title>
<g id="a_edge26_Node000015_Node000003"><a xlink:title=" ">
<path fill="none" stroke="#63b8ff" d="M617.16,-57.83C532.25,-47.09 349.84,-24.01 275.52,-14.61"/>
<polygon fill="#63b8ff" stroke="#63b8ff" points="275.72,-11.11 265.36,-13.33 274.84,-18.06 275.72,-11.11"/>
</a>
</g>
</g>
<!-- Node15&#45;&gt;Node5 -->
<g id="edge24_Node000015_Node000005" class="edge">
<title>Node15&#45;&gt;Node5</title>
<g id="a_edge24_Node000015_Node000005"><a xlink:title=" ">
<path fill="none" stroke="#63b8ff" d="M706.76,-56.22C709.88,-55.78 712.99,-55.37 716,-55 890.87,-33.48 1101.38,-18.2 1182.17,-12.72"/>
<polygon fill="#63b8ff" stroke="#63b8ff" points="1182.51,-16.21 1192.26,-12.04 1182.04,-9.22 1182.51,-16.21"/>
</a>
</g>
</g>
<!-- Node15&#45;&gt;Node10 -->
<g id="edge25_Node000015_Node000010" class="edge">
<title>Node15&#45;&gt;Node10</title>
<g id="a_edge25_Node000015_Node000010"><a xlink:title=" ">
<path fill="none" stroke="#63b8ff" d="M699.44,-54.98C739.65,-45.84 803.68,-31.27 847.44,-21.32"/>
<polygon fill="#63b8ff" stroke="#63b8ff" points="848.3,-24.71 857.27,-19.08 846.74,-17.89 848.3,-24.71"/>
</a>
</g>
</g>
<!-- Node16&#45;&gt;Node3 -->
<g id="edge28_Node000016_Node000003" class="edge">
<title>Node16&#45;&gt;Node3</title>
<g id="a_edge28_Node000016_Node000003"><a xlink:title=" ">
<path fill="none" stroke="#63b8ff" d="M636.69,-164.94C612.66,-156.09 574.13,-141.78 541,-129 442.95,-91.18 327.49,-44.71 273.59,-22.91"/>
<polygon fill="#63b8ff" stroke="#63b8ff" points="274.84,-19.64 264.26,-19.13 272.22,-26.13 274.84,-19.64"/>
</a>
</g>
</g>
<!-- Node16&#45;&gt;Node4 -->
<g id="edge29_Node000016_Node000004" class="edge">
<title>Node16&#45;&gt;Node4</title>
<g id="a_edge29_Node000016_Node000004"><a xlink:title=" ">
<path fill="none" stroke="#63b8ff" d="M729.72,-165.03C796.16,-156.39 891.07,-142.38 926,-129 956.98,-117.14 988.62,-95.01 1007.79,-80.27"/>
<polygon fill="#63b8ff" stroke="#63b8ff" points="1009.97,-83.01 1015.67,-74.08 1005.64,-77.5 1009.97,-83.01"/>
</a>
</g>
</g>
<!-- Node16&#45;&gt;Node5 -->
<g id="edge30_Node000016_Node000005" class="edge">
<title>Node16&#45;&gt;Node5</title>
<g id="a_edge30_Node000016_Node000005"><a xlink:title=" ">
<path fill="none" stroke="#63b8ff" d="M729.55,-166.76C788.47,-159.88 867.36,-147.57 893,-129 923.45,-106.95 903.2,-76.56 934,-55 973.52,-27.34 1115.99,-16.01 1182,-12.18"/>
<polygon fill="#63b8ff" stroke="#63b8ff" points="1182.49,-15.65 1192.28,-11.6 1182.1,-8.66 1182.49,-15.65"/>
</a>
</g>
</g>
<!-- Node16&#45;&gt;Node6 -->
<g id="edge31_Node000016_Node000006" class="edge">
<title>Node16&#45;&gt;Node6</title>
<g id="a_edge31_Node000016_Node000006"><a xlink:title=" ">
<path fill="none" stroke="#63b8ff" d="M729.64,-167.08C851.55,-155.84 1099.76,-132.97 1195.82,-124.11"/>
<polygon fill="#63b8ff" stroke="#63b8ff" points="1196.33,-127.58 1205.96,-123.18 1195.68,-120.61 1196.33,-127.58"/>
</a>
</g>
</g>
<!-- Node16&#45;&gt;Node9 -->
<g id="edge34_Node000016_Node000009" class="edge">
<title>Node16&#45;&gt;Node9</title>
<g id="a_edge34_Node000016_Node000009"><a xlink:title=" ">
<path fill="none" stroke="#63b8ff" d="M615.46,-165C569.11,-156.13 494.43,-141.75 430,-129 428.73,-128.75 427.43,-128.49 426.13,-128.23"/>
<polygon fill="#63b8ff" stroke="#63b8ff" points="426.5,-124.74 416.01,-126.2 425.12,-131.6 426.5,-124.74"/>
</a>
</g>
</g>
<!-- Node16&#45;&gt;Node11 -->
<g id="edge35_Node000016_Node000011" class="edge">
<title>Node16&#45;&gt;Node11</title>
<g id="a_edge35_Node000016_Node000011"><a xlink:title=" ">
<path fill="none" stroke="#63b8ff" d="M636.88,-164.88C617.52,-157.08 589.66,-144.46 568,-129 548.95,-115.4 530.49,-95.8 518.54,-81.99"/>
<polygon fill="#63b8ff" stroke="#63b8ff" points="521.11,-79.61 511.98,-74.23 515.77,-84.13 521.11,-79.61"/>
</a>
</g>
</g>
<!-- Node16&#45;&gt;Node14 -->
<g id="edge33_Node000016_Node000014" class="edge">
<title>Node16&#45;&gt;Node14</title>
<g id="a_edge33_Node000016_Node000014"><a xlink:title=" ">
<path fill="none" stroke="#63b8ff" d="M631.53,-164.98C600.67,-154.27 558.18,-134.32 577,-110 614.15,-62 650.8,-88.37 714.69,-74.01"/>
<polygon fill="#63b8ff" stroke="#63b8ff" points="715.92,-77.31 724.75,-71.46 714.2,-70.52 715.92,-77.31"/>
</a>
</g>
</g>
<!-- Node16&#45;&gt;Node15 -->
<g id="edge36_Node000016_Node000015" class="edge">
<title>Node16&#45;&gt;Node15</title>
<g id="a_edge36_Node000016_Node000015"><a xlink:title=" ">
<path fill="none" stroke="#63b8ff" d="M660.16,-164.66C660.49,-147.17 661.22,-107.8 661.65,-84.27"/>
<polygon fill="#63b8ff" stroke="#63b8ff" points="665.15,-84.22 661.84,-74.16 658.16,-84.09 665.15,-84.22"/>
</a>
</g>
</g>
<!-- Node17 -->
<g id="Node000017" class="node">
<title>Node17</title>
<g id="a_Node000017"><a xlink:title=" ">
<polygon fill="#e0e0e0" stroke="#999999" points="634,-129 586,-129 586,-110 634,-110 634,-129"/>
<text text-anchor="middle" x="610" y="-117" font-family="Helvetica,sans-Serif" font-size="10.00">mutex</text>
</a>
</g>
</g>
<!-- Node16&#45;&gt;Node17 -->
<g id="edge32_Node000016_Node000017" class="edge">
<title>Node16&#45;&gt;Node17</title>
<g id="a_edge32_Node000016_Node000017"><a xlink:title=" ">
<path fill="none" stroke="#63b8ff" d="M651.74,-164.75C644.54,-157.11 633.89,-145.82 625.15,-136.56"/>
<polygon fill="#63b8ff" stroke="#63b8ff" points="627.51,-133.96 618.1,-129.09 622.42,-138.76 627.51,-133.96"/>
</a>
</g>
</g>
<!-- Node16&#45;&gt;Node18 -->
<g id="edge37_Node000016_Node000018" class="edge">
<title>Node16&#45;&gt;Node18</title>
<g id="a_edge37_Node000016_Node000018"><a xlink:title=" ">
<path fill="none" stroke="#63b8ff" d="M590.28,-166.3C486.24,-155.55 292.67,-135.55 199.61,-125.94"/>
<polygon fill="#63b8ff" stroke="#63b8ff" points="199.89,-122.45 189.58,-124.9 199.17,-129.41 199.89,-122.45"/>
</a>
</g>
</g>
<!-- Node20 -->
<g id="Node000020" class="node">
<title>Node20</title>
<g id="a_Node000020"><a xlink:href="evaluate_8h.html" target="_top" xlink:title=" ">
<polygon fill="white" stroke="#666666" points="884,-129 766,-129 766,-110 884,-110 884,-129"/>
<text text-anchor="middle" x="825" y="-117" font-family="Helvetica,sans-Serif" font-size="10.00">Evaluator/evaluate.h</text>
</a>
</g>
</g>
<!-- Node16&#45;&gt;Node20 -->
<g id="edge40_Node000016_Node000020" class="edge">
<title>Node16&#45;&gt;Node20</title>
<g id="a_edge40_Node000016_Node000020"><a xlink:title=" ">
<path fill="none" stroke="#63b8ff" d="M686.51,-164.98C714.21,-156.09 757.86,-142.07 788.74,-132.15"/>
<polygon fill="#63b8ff" stroke="#63b8ff" points="789.83,-135.47 798.28,-129.08 787.69,-128.81 789.83,-135.47"/>
</a>
</g>
</g>
<!-- Node18&#45;&gt;Node3 -->
<g id="edge38_Node000018_Node000003" class="edge">
<title>Node18&#45;&gt;Node3</title>
<g id="a_edge38_Node000018_Node000003"><a xlink:title=" ">
<path fill="none" stroke="#63b8ff" d="M154.86,-109.66C170.97,-91.54 207.97,-49.91 228.54,-26.77"/>
<polygon fill="#63b8ff" stroke="#63b8ff" points="231.28,-28.96 235.3,-19.16 226.04,-24.31 231.28,-28.96"/>
</a>
</g>
</g>
<!-- Node19 -->
<g id="Node000019" class="node">
<title>Node19</title>
<g id="a_Node000019"><a xlink:title=" ">
<polygon fill="#e0e0e0" stroke="#999999" points="164,-74 104,-74 104,-55 164,-55 164,-74"/>
<text text-anchor="middle" x="134" y="-62" font-family="Helvetica,sans-Serif" font-size="10.00">iostream</text>
</a>
</g>
</g>
<!-- Node18&#45;&gt;Node19 -->
<g id="edge39_Node000018_Node000019" class="edge">
<title>Node18&#45;&gt;Node19</title>
<g id="a_edge39_Node000018_Node000019"><a xlink:title=" ">
<path fill="none" stroke="#63b8ff" d="M144.85,-109.75C143.13,-102.72 140.65,-92.62 138.5,-83.84"/>
<polygon fill="#63b8ff" stroke="#63b8ff" points="141.89,-82.97 136.11,-74.09 135.09,-84.63 141.89,-82.97"/>
</a>
</g>
</g>
<!-- Node20&#45;&gt;Node3 -->
<g id="edge43_Node000020_Node000003" class="edge">
<title>Node20&#45;&gt;Node3</title>
<g id="a_edge43_Node000020_Node000003"><a xlink:title=" ">
<path fill="none" stroke="#63b8ff" d="M820.59,-109.62C812.94,-95.26 795.7,-67.32 772,-55 684.92,-9.71 376.56,-8.98 275.41,-10.01"/>
<polygon fill="#63b8ff" stroke="#63b8ff" points="275.15,-6.51 265.19,-10.13 275.23,-13.51 275.15,-6.51"/>
</a>
</g>
</g>
<!-- Node20&#45;&gt;Node4 -->
<g id="edge41_Node000020_Node000004" class="edge">
<title>Node20&#45;&gt;Node4</title>
<g id="a_edge41_Node000020_Node000004"><a xlink:title=" ">
<path fill="none" stroke="#63b8ff" d="M857.29,-109.98C894.72,-100.12 956.05,-83.94 993.55,-74.06"/>
<polygon fill="#63b8ff" stroke="#63b8ff" points="994.68,-77.38 1003.45,-71.45 992.89,-70.61 994.68,-77.38"/>
</a>
</g>
</g>
<!-- Node20&#45;&gt;Node5 -->
<g id="edge42_Node000020_Node000005" class="edge">
<title>Node20&#45;&gt;Node5</title>
<g id="a_edge42_Node000020_Node000005"><a xlink:title=" ">
<path fill="none" stroke="#63b8ff" d="M832.01,-109.76C843.92,-95.6 869.57,-67.95 898,-55 948.18,-32.14 1110.73,-18.03 1181.99,-12.81"/>
<polygon fill="#63b8ff" stroke="#63b8ff" points="1182.49,-16.28 1192.22,-12.07 1181.99,-9.3 1182.49,-16.28"/>
</a>
</g>
</g>
<!-- Node20&#45;&gt;Node11 -->
<g id="edge44_Node000020_Node000011" class="edge">
<title>Node20&#45;&gt;Node11</title>
<g id="a_edge44_Node000020_Node000011"><a xlink:title=" ">
<path fill="none" stroke="#63b8ff" d="M773.59,-109.98C710.92,-99.61 606.18,-82.26 547.73,-72.58"/>
<polygon fill="#63b8ff" stroke="#63b8ff" points="548.16,-69.1 537.72,-70.92 547.02,-76.01 548.16,-69.1"/>
</a>
</g>
</g>
<!-- Node20&#45;&gt;Node13 -->
<g id="edge45_Node000020_Node000013" class="edge">
<title>Node20&#45;&gt;Node13</title>
<g id="a_edge45_Node000020_Node000013"><a xlink:title=" ">
<path fill="none" stroke="#63b8ff" d="M847.17,-109.98C870.31,-101.1 906.75,-87.1 932.57,-77.19"/>
<polygon fill="#63b8ff" stroke="#63b8ff" points="934.16,-80.33 942.24,-73.47 931.65,-73.79 934.16,-80.33"/>
</a>
</g>
</g>
<!-- Node20&#45;&gt;Node14 -->
<g id="edge46_Node000020_Node000014" class="edge">
<title>Node20&#45;&gt;Node14</title>
<g id="a_edge46_Node000020_Node000014"><a xlink:title=" ">
<path fill="none" stroke="#63b8ff" d="M811.99,-109.98C799.54,-101.84 780.54,-89.41 765.79,-79.76"/>
<polygon fill="#63b8ff" stroke="#63b8ff" points="767.54,-76.72 757.25,-74.17 763.7,-82.57 767.54,-76.72"/>
</a>
</g>
</g>
<!-- Node20&#45;&gt;Node15 -->
<g id="edge47_Node000020_Node000015" class="edge">
<title>Node20&#45;&gt;Node15</title>
<g id="a_edge47_Node000020_Node000015"><a xlink:title=" ">
<path fill="none" stroke="#63b8ff" d="M798.81,-109.98C771.56,-101.13 728.7,-87.19 698.22,-77.28"/>
<polygon fill="#63b8ff" stroke="#63b8ff" points="698.99,-73.85 688.39,-74.08 696.82,-80.5 698.99,-73.85"/>
</a>
</g>
</g>
<!-- Node21&#45;&gt;Node5 -->
<g id="edge59_Node000021_Node000005" class="edge">
<title>Node21&#45;&gt;Node5</title>
<g id="a_edge59_Node000021_Node000005"><a xlink:title=" ">
<path fill="none" stroke="#63b8ff" d="M666.75,-392.63C818.66,-386.21 1160.34,-347.05 1294,-129 1317.43,-90.78 1268.1,-47 1237.64,-24.89"/>
<polygon fill="#63b8ff" stroke="#63b8ff" points="1239.45,-21.89 1229.26,-19 1235.43,-27.61 1239.45,-21.89"/>
</a>
</g>
</g>
<!-- Node21&#45;&gt;Node8 -->
<g id="edge52_Node000021_Node000008" class="edge">
<title>Node21&#45;&gt;Node8</title>
<g id="a_edge52_Node000021_Node000008"><a xlink:title=" ">
<path fill="none" stroke="#63b8ff" d="M562.96,-384.93C539.41,-377.31 505.84,-364.93 479,-349 456.29,-335.53 433.48,-315.37 418.86,-301.39"/>
<polygon fill="#63b8ff" stroke="#63b8ff" points="421.24,-298.82 411.63,-294.35 416.35,-303.83 421.24,-298.82"/>
</a>
</g>
</g>
<!-- Node21&#45;&gt;Node16 -->
<g id="edge58_Node000021_Node000016" class="edge">
<title>Node21&#45;&gt;Node16</title>
<g id="a_edge58_Node000021_Node000016"><a xlink:title=" ">
<path fill="none" stroke="#63b8ff" d="M604.56,-384.84C615.09,-376.84 629.56,-363.95 637,-349 662.65,-297.4 662.92,-227.04 661.34,-194.03"/>
<polygon fill="#63b8ff" stroke="#63b8ff" points="664.83,-193.78 660.74,-184 657.84,-194.19 664.83,-193.78"/>
</a>
</g>
</g>
<!-- Node21&#45;&gt;Node22 -->
<g id="edge53_Node000021_Node000022" class="edge">
<title>Node21&#45;&gt;Node22</title>
<g id="a_edge53_Node000021_Node000022"><a xlink:title=" ">
<path fill="none" stroke="#63b8ff" d="M586.39,-384.75C581.68,-377.42 574.83,-366.73 569.03,-357.7"/>
<polygon fill="#63b8ff" stroke="#63b8ff" points="571.86,-355.62 563.51,-349.09 565.96,-359.4 571.86,-355.62"/>
</a>
</g>
</g>
<!-- Node22&#45;&gt;Node4 -->
<g id="edge54_Node000022_Node000004" class="edge">
<title>Node22&#45;&gt;Node4</title>
<g id="a_edge54_Node000022_Node000004"><a xlink:title=" ">
<path fill="none" stroke="#63b8ff" d="M578.99,-329.98C655.39,-298.68 917.74,-188.81 985,-129 999.36,-116.23 1010.71,-97.29 1017.79,-83.42"/>
<polygon fill="#63b8ff" stroke="#63b8ff" points="1020.96,-84.9 1022.18,-74.37 1014.66,-81.84 1020.96,-84.9"/>
</a>
</g>
</g>
<!-- Node22&#45;&gt;Node8 -->
<g id="edge55_Node000022_Node000008" class="edge">
<title>Node22&#45;&gt;Node8</title>
<g id="a_edge55_Node000022_Node000008"><a xlink:title=" ">
<path fill="none" stroke="#63b8ff" d="M533.1,-329.98C507.3,-321.16 466.78,-307.31 437.82,-297.41"/>
<polygon fill="#63b8ff" stroke="#63b8ff" points="438.69,-294.01 428.1,-294.08 436.43,-300.63 438.69,-294.01"/>
</a>
</g>
</g>
<!-- Node23 -->
<g id="Node000023" class="node">
<title>Node23</title>
<g id="a_Node000023"><a xlink:href="simulator_8h.html" target="_top" xlink:title=" ">
<polygon fill="white" stroke="#666666" points="585,-239 463,-239 463,-220 585,-220 585,-239"/>
<text text-anchor="middle" x="524" y="-227" font-family="Helvetica,sans-Serif" font-size="10.00">Simulator/simulator.h</text>
</a>
</g>
</g>
<!-- Node22&#45;&gt;Node23 -->
<g id="edge56_Node000022_Node000023" class="edge">
<title>Node22&#45;&gt;Node23</title>
<g id="a_edge56_Node000022_Node000023"><a xlink:title=" ">
<path fill="none" stroke="#63b8ff" d="M555.22,-329.66C549.69,-312.09 537.21,-272.45 529.81,-248.95"/>
<polygon fill="#63b8ff" stroke="#63b8ff" points="533.07,-247.65 526.73,-239.16 526.39,-249.75 533.07,-247.65"/>
</a>
</g>
</g>
<!-- Node23&#45;&gt;Node15 -->
<g id="edge57_Node000023_Node000015" class="edge">
<title>Node23&#45;&gt;Node15</title>
<g id="a_edge57_Node000023_Node000015"><a xlink:title=" ">
<path fill="none" stroke="#63b8ff" d="M524.96,-219.9C527.77,-198.65 537.74,-143 568,-110 581.8,-94.95 601.74,-84.52 619.71,-77.55"/>
<polygon fill="#63b8ff" stroke="#63b8ff" points="621.23,-80.73 629.44,-74.04 618.85,-74.15 621.23,-80.73"/>
</a>
</g>
</g>
<!-- Node24&#45;&gt;Node3 -->
<g id="edge62_Node000024_Node000003" class="edge">
<title>Node24&#45;&gt;Node3</title>
<g id="a_edge62_Node000024_Node000003"><a xlink:title=" ">
<path fill="none" stroke="#63b8ff" d="M776.49,-446.82C597.33,-440.6 38,-415.18 38,-340.5 38,-340.5 38,-340.5 38,-118.5 38,-41.43 152.8,-19.23 210.59,-12.93"/>
<polygon fill="#63b8ff" stroke="#63b8ff" points="211.07,-16.4 220.67,-11.93 210.37,-9.44 211.07,-16.4"/>
</a>
</g>
</g>
<!-- Node24&#45;&gt;Node4 -->
<g id="edge64_Node000024_Node000004" class="edge">
<title>Node24&#45;&gt;Node4</title>
<g id="a_edge64_Node000024_Node000004"><a xlink:title=" ">
<path fill="none" stroke="#63b8ff" d="M833.22,-439.58C837.16,-425.68 846.74,-399 865,-385 1019.65,-266.44 1292,-480.36 1292,-285.5 1292,-285.5 1292,-285.5 1292,-173.5 1292,-144.04 1294.97,-129.63 1273,-110 1241.81,-82.14 1118.5,-71.04 1058.77,-67.23"/>
<polygon fill="#63b8ff" stroke="#63b8ff" points="1058.93,-63.73 1048.73,-66.62 1058.5,-70.72 1058.93,-63.73"/>
</a>
</g>
</g>
<!-- Node24&#45;&gt;Node5 -->
<g id="edge65_Node000024_Node000005" class="edge">
<title>Node24&#45;&gt;Node5</title>
<g id="a_edge65_Node000024_Node000005"><a xlink:title=" ">
<path fill="none" stroke="#63b8ff" d="M885.63,-445.48C976.69,-439.89 1155.3,-426.43 1214,-404 1253.63,-388.86 1263.78,-380.67 1292,-349 1348.62,-285.47 1363.33,-248.11 1345,-165 1333.39,-112.38 1330.46,-94.68 1294,-55 1281.42,-41.31 1263.63,-30.72 1248.22,-23.31"/>
<polygon fill="#63b8ff" stroke="#63b8ff" points="1249.55,-20.07 1239,-19.11 1246.65,-26.44 1249.55,-20.07"/>
</a>
</g>
</g>
<!-- Node24&#45;&gt;Node6 -->
<g id="edge63_Node000024_Node000006" class="edge">
<title>Node24&#45;&gt;Node6</title>
<g id="a_edge63_Node000024_Node000006"><a xlink:title=" ">
<path fill="none" stroke="#63b8ff" d="M885.84,-448.19C968.47,-446.58 1119.48,-438.79 1159,-404 1238.48,-334.03 1239,-190.84 1236.38,-139.42"/>
<polygon fill="#63b8ff" stroke="#63b8ff" points="1239.86,-138.91 1235.75,-129.15 1232.87,-139.34 1239.86,-138.91"/>
</a>
</g>
</g>
<!-- Node24&#45;&gt;Node8 -->
<g id="edge70_Node000024_Node000008" class="edge">
<title>Node24&#45;&gt;Node8</title>
<g id="a_edge70_Node000024_Node000008"><a xlink:title=" ">
<path fill="none" stroke="#63b8ff" d="M776.2,-444.83C697.1,-438.87 555.31,-425.55 509,-404 462.86,-382.53 428.2,-330.53 412.42,-303.1"/>
<polygon fill="#63b8ff" stroke="#63b8ff" points="415.39,-301.25 407.47,-294.21 409.28,-304.65 415.39,-301.25"/>
</a>
</g>
</g>
<!-- Node24&#45;&gt;Node10 -->
<g id="edge66_Node000024_Node000010" class="edge">
<title>Node24&#45;&gt;Node10</title>
<g id="a_edge66_Node000024_Node000010"><a xlink:title=" ">
<path fill="none" stroke="#63b8ff" d="M885.61,-445.49C970.46,-440.16 1129.55,-427.35 1181,-404 1248.08,-373.55 1274.18,-360.91 1305,-294 1339.28,-219.59 1350.99,-168.86 1294,-110 1246.88,-61.33 1050.34,-30.14 951.82,-17.26"/>
<polygon fill="#63b8ff" stroke="#63b8ff" points="952.1,-13.77 941.74,-15.96 951.21,-20.71 952.1,-13.77"/>
</a>
</g>
</g>
<!-- Node24&#45;&gt;Node12 -->
<g id="edge74_Node000024_Node000012" class="edge">
<title>Node24&#45;&gt;Node12</title>
<g id="a_edge74_Node000024_Node000012"><a xlink:title=" ">
<path fill="none" stroke="#63b8ff" d="M829.94,-439.72C828.72,-427.33 827.4,-404.08 832,-385 844.9,-331.45 878.61,-274.94 896.48,-247.48"/>
<polygon fill="#63b8ff" stroke="#63b8ff" points="899.48,-249.3 902.09,-239.03 893.64,-245.43 899.48,-249.3"/>
</a>
</g>
</g>
<!-- Node24&#45;&gt;Node16 -->
<g id="edge72_Node000024_Node000016" class="edge">
<title>Node24&#45;&gt;Node16</title>
<g id="a_edge72_Node000024_Node000016"><a xlink:title=" ">
<path fill="none" stroke="#63b8ff" d="M827.79,-439.98C815.68,-408.56 770.4,-296.99 710,-220 701.35,-208.97 689.74,-198.45 679.89,-190.41"/>
<polygon fill="#63b8ff" stroke="#63b8ff" points="681.83,-187.48 671.81,-184.04 677.49,-192.98 681.83,-187.48"/>
</a>
</g>
</g>
<!-- Node24&#45;&gt;Node21 -->
<g id="edge71_Node000024_Node000021" class="edge">
<title>Node24&#45;&gt;Node21</title>
<g id="a_edge71_Node000024_Node000021"><a xlink:title=" ">
<path fill="none" stroke="#63b8ff" d="M792.6,-439.98C751.26,-430.82 685.4,-416.21 640.51,-406.26"/>
<polygon fill="#63b8ff" stroke="#63b8ff" points="641.22,-402.83 630.7,-404.08 639.71,-409.66 641.22,-402.83"/>
</a>
</g>
</g>
<!-- Node24&#45;&gt;Node22 -->
<g id="edge73_Node000024_Node000022" class="edge">
<title>Node24&#45;&gt;Node22</title>
<g id="a_edge73_Node000024_Node000022"><a xlink:title=" ">
<path fill="none" stroke="#63b8ff" d="M810.51,-439.89C780.92,-427.51 724.44,-404.05 676,-385 647.3,-373.71 614.45,-361.37 590.71,-352.55"/>
<polygon fill="#63b8ff" stroke="#63b8ff" points="591.73,-349.2 581.14,-349.01 589.3,-355.76 591.73,-349.2"/>
</a>
</g>
</g>
<!-- Node25 -->
<g id="Node000025" class="node">
<title>Node25</title>
<g id="a_Node000025"><a xlink:title=" ">
<polygon fill="#e0e0e0" stroke="#999999" points="942,-404 874,-404 874,-385 942,-385 942,-404"/>
<text text-anchor="middle" x="908" y="-392" font-family="Helvetica,sans-Serif" font-size="10.00">filesystem</text>
</a>
</g>
</g>
<!-- Node24&#45;&gt;Node25 -->
<g id="edge67_Node000024_Node000025" class="edge">
<title>Node24&#45;&gt;Node25</title>
<g id="a_edge67_Node000024_Node000025"><a xlink:title=" ">
<path fill="none" stroke="#63b8ff" d="M843.37,-439.98C855.09,-431.92 872.92,-419.65 886.89,-410.03"/>
<polygon fill="#63b8ff" stroke="#63b8ff" points="889.15,-412.72 895.4,-404.17 885.18,-406.96 889.15,-412.72"/>
</a>
</g>
</g>
<!-- Node26 -->
<g id="Node000026" class="node">
<title>Node26</title>
<g id="a_Node000026"><a xlink:title=" ">
<polygon fill="#e0e0e0" stroke="#999999" points="1029.5,-404 960.5,-404 960.5,-385 1029.5,-385 1029.5,-404"/>
<text text-anchor="middle" x="995" y="-392" font-family="Helvetica,sans-Serif" font-size="10.00">verilated.h</text>
</a>
</g>
</g>
<!-- Node24&#45;&gt;Node26 -->
<g id="edge68_Node000024_Node000026" class="edge">
<title>Node24&#45;&gt;Node26</title>
<g id="a_edge68_Node000024_Node000026"><a xlink:title=" ">
<path fill="none" stroke="#63b8ff" d="M857.35,-439.98C884.76,-431.13 927.89,-417.19 958.56,-407.28"/>
<polygon fill="#63b8ff" stroke="#63b8ff" points="960,-410.49 968.44,-404.08 957.85,-403.83 960,-410.49"/>
</a>
</g>
</g>
<!-- Node27 -->
<g id="Node000027" class="node">
<title>Node27</title>
<g id="a_Node000027"><a xlink:title=" ">
<polygon fill="#e0e0e0" stroke="#999999" points="1150,-404 1048,-404 1048,-385 1150,-385 1150,-404"/>
<text text-anchor="middle" x="1099" y="-392" font-family="Helvetica,sans-Serif" font-size="10.00">verilated_vcd_c.h</text>
</a>
</g>
</g>
<!-- Node24&#45;&gt;Node27 -->
<g id="edge69_Node000024_Node000027" class="edge">
<title>Node24&#45;&gt;Node27</title>
<g id="a_edge69_Node000024_Node000027"><a xlink:title=" ">
<path fill="none" stroke="#63b8ff" d="M874.06,-439.98C920.71,-430.76 995.2,-416.03 1045.56,-406.07"/>
<polygon fill="#63b8ff" stroke="#63b8ff" points="1046.47,-409.46 1055.6,-404.08 1045.11,-402.59 1046.47,-409.46"/>
</a>
</g>
</g>
</g>
</svg>
