<?xml version="1.0" encoding="UTF-8" standalone="no"?>
<!DOCTYPE svg PUBLIC "-//W3C//DTD SVG 1.1//EN"
 "http://www.w3.org/Graphics/SVG/1.1/DTD/svg11.dtd">
<!-- Generated by graphviz version 2.43.0 (0)
 -->
<!-- Title: include/Drivers/refDriver.h Pages: 1 -->
<svg width="1816pt" height="577pt"
 viewBox="0.00 0.00 1816.00 577.00" xmlns="http://www.w3.org/2000/svg" xmlns:xlink="http://www.w3.org/1999/xlink">
<g id="graph0" class="graph" transform="scale(1 1) rotate(0) translate(4 573)">
<title>include/Drivers/refDriver.h</title>
<!-- Node1 -->
<g id="Node000001" class="node">
<title>Node1</title>
<g id="a_Node000001"><a xlink:title=" ">
<polygon fill="#999999" stroke="#666666" points="737.5,-569 592.5,-569 592.5,-550 737.5,-550 737.5,-569"/>
<text text-anchor="middle" x="665" y="-557" font-family="Helvetica,sans-Serif" font-size="10.00">include/Drivers/refDriver.h</text>
</a>
</g>
</g>
<!-- Node2 -->
<g id="Node000002" class="node">
<title>Node2</title>
<g id="a_Node000002"><a xlink:title=" ">
<polygon fill="#e0e0e0" stroke="#999999" points="250,-19 206,-19 206,0 250,0 250,-19"/>
<text text-anchor="middle" x="228" y="-7" font-family="Helvetica,sans-Serif" font-size="10.00">string</text>
</a>
</g>
</g>
<!-- Node1&#45;&gt;Node2 -->
<g id="edge1_Node000001_Node000002" class="edge">
<title>Node1&#45;&gt;Node2</title>
<g id="a_edge1_Node000001_Node000002"><a xlink:title=" ">
<path fill="none" stroke="#63b8ff" d="M592.12,-555.94C465.83,-550.92 211.63,-538.12 126,-514 65.64,-497 0,-513.21 0,-450.5 0,-450.5 0,-450.5 0,-118.5 0,-33 132.57,-15.1 195.53,-11.41"/>
<polygon fill="#63b8ff" stroke="#63b8ff" points="195.91,-14.9 205.72,-10.91 195.56,-7.91 195.91,-14.9"/>
</a>
</g>
</g>
<!-- Node3 -->
<g id="Node000003" class="node">
<title>Node3</title>
<g id="a_Node000003"><a xlink:title=" ">
<polygon fill="#e0e0e0" stroke="#999999" points="1409.5,-74 1364.5,-74 1364.5,-55 1409.5,-55 1409.5,-74"/>
<text text-anchor="middle" x="1387" y="-62" font-family="Helvetica,sans-Serif" font-size="10.00">utility</text>
</a>
</g>
</g>
<!-- Node1&#45;&gt;Node3 -->
<g id="edge2_Node000001_Node000003" class="edge">
<title>Node1&#45;&gt;Node3</title>
<g id="a_edge2_Node000001_Node000003"><a xlink:title=" ">
<path fill="none" stroke="#63b8ff" d="M737.5,-558.78C977.65,-558.75 1732,-550.69 1732,-450.5 1732,-450.5 1732,-450.5 1732,-228.5 1732,-91.14 1505.66,-69.36 1419.64,-66.04"/>
<polygon fill="#63b8ff" stroke="#63b8ff" points="1419.75,-62.54 1409.64,-65.71 1419.52,-69.54 1419.75,-62.54"/>
</a>
</g>
</g>
<!-- Node4 -->
<g id="Node000004" class="node">
<title>Node4</title>
<g id="a_Node000004"><a xlink:title=" ">
<polygon fill="#e0e0e0" stroke="#999999" points="886.5,-19 839.5,-19 839.5,0 886.5,0 886.5,-19"/>
<text text-anchor="middle" x="863" y="-7" font-family="Helvetica,sans-Serif" font-size="10.00">vector</text>
</a>
</g>
</g>
<!-- Node1&#45;&gt;Node4 -->
<g id="edge3_Node000001_Node000004" class="edge">
<title>Node1&#45;&gt;Node4</title>
<g id="a_edge3_Node000001_Node000004"><a xlink:title=" ">
<path fill="none" stroke="#63b8ff" d="M592.46,-553.51C427.42,-541.19 38,-506.21 38,-450.5 38,-450.5 38,-450.5 38,-393.5 38,-319.11 76,-304.89 76,-230.5 76,-230.5 76,-230.5 76,-173.5 76,-17.14 679.2,-9.63 829.43,-10.18"/>
<polygon fill="#63b8ff" stroke="#63b8ff" points="829.43,-13.68 839.45,-10.23 829.46,-6.68 829.43,-13.68"/>
</a>
</g>
</g>
<!-- Node5 -->
<g id="Node000005" class="node">
<title>Node5</title>
<g id="a_Node000005"><a xlink:title=" ">
<polygon fill="#e0e0e0" stroke="#999999" points="1416,-129 1358,-129 1358,-110 1416,-110 1416,-129"/>
<text text-anchor="middle" x="1387" y="-117" font-family="Helvetica,sans-Serif" font-size="10.00">memory</text>
</a>
</g>
</g>
<!-- Node1&#45;&gt;Node5 -->
<g id="edge4_Node000001_Node000005" class="edge">
<title>Node1&#45;&gt;Node5</title>
<g id="a_edge4_Node000001_Node000005"><a xlink:title=" ">
<path fill="none" stroke="#63b8ff" d="M737.87,-558.2C966.73,-556.29 1656,-542.87 1656,-450.5 1656,-450.5 1656,-450.5 1656,-228.5 1656,-179.53 1500.57,-142.61 1426,-127.71"/>
<polygon fill="#63b8ff" stroke="#63b8ff" points="1426.53,-124.25 1416.04,-125.75 1425.18,-131.11 1426.53,-124.25"/>
</a>
</g>
</g>
<!-- Node6 -->
<g id="Node000006" class="node">
<title>Node6</title>
<g id="a_Node000006"><a xlink:title=" ">
<polygon fill="#e0e0e0" stroke="#999999" points="1514,-184 1468,-184 1468,-165 1514,-165 1514,-184"/>
<text text-anchor="middle" x="1491" y="-172" font-family="Helvetica,sans-Serif" font-size="10.00">future</text>
</a>
</g>
</g>
<!-- Node1&#45;&gt;Node6 -->
<g id="edge5_Node000001_Node000006" class="edge">
<title>Node1&#45;&gt;Node6</title>
<g id="a_edge5_Node000001_Node000006"><a xlink:title=" ">
<path fill="none" stroke="#63b8ff" d="M737.51,-557.15C947.63,-552.27 1542,-531.33 1542,-450.5 1542,-450.5 1542,-450.5 1542,-338.5 1542,-283.33 1515.06,-222.25 1500.34,-193"/>
<polygon fill="#63b8ff" stroke="#63b8ff" points="1503.41,-191.31 1495.71,-184.04 1497.19,-194.53 1503.41,-191.31"/>
</a>
</g>
</g>
<!-- Node7 -->
<g id="Node000007" class="node">
<title>Node7</title>
<g id="a_Node000007"><a xlink:href="driverModel_8h.html" target="_top" xlink:title=" ">
<polygon fill="white" stroke="#666666" points="808,-294 686,-294 686,-275 808,-275 808,-294"/>
<text text-anchor="middle" x="747" y="-282" font-family="Helvetica,sans-Serif" font-size="10.00">Drivers/driverModel.h</text>
</a>
</g>
</g>
<!-- Node1&#45;&gt;Node7 -->
<g id="edge6_Node000001_Node000007" class="edge">
<title>Node1&#45;&gt;Node7</title>
<g id="a_edge6_Node000001_Node000007"><a xlink:title=" ">
<path fill="none" stroke="#63b8ff" d="M659.72,-549.9C649.27,-532.07 627,-489.46 627,-450.5 627,-450.5 627,-450.5 627,-393.5 627,-346.36 678.8,-314.54 714.33,-298.26"/>
<polygon fill="#63b8ff" stroke="#63b8ff" points="716.11,-301.31 723.86,-294.09 713.3,-294.89 716.11,-301.31"/>
</a>
</g>
</g>
<!-- Node17 -->
<g id="Node000017" class="node">
<title>Node17</title>
<g id="a_Node000017"><a xlink:href="transaction_8h_source.html" target="_top" xlink:title=" ">
<polygon fill="white" stroke="#666666" points="709.5,-184 570.5,-184 570.5,-165 709.5,-165 709.5,-184"/>
<text text-anchor="middle" x="640" y="-172" font-family="Helvetica,sans-Serif" font-size="10.00">Transaction/transaction.h</text>
</a>
</g>
</g>
<!-- Node1&#45;&gt;Node17 -->
<g id="edge69_Node000001_Node000017" class="edge">
<title>Node1&#45;&gt;Node17</title>
<g id="a_edge69_Node000001_Node000017"><a xlink:title=" ">
<path fill="none" stroke="#63b8ff" d="M592.25,-557.78C488.39,-552.36 300.61,-525.22 214,-404 150.49,-315.11 275.57,-260.59 377,-220 435.77,-196.48 506.76,-185.39 560.17,-180.16"/>
<polygon fill="#63b8ff" stroke="#63b8ff" points="560.63,-183.64 570.27,-179.22 559.98,-176.67 560.63,-183.64"/>
</a>
</g>
</g>
<!-- Node21 -->
<g id="Node000021" class="node">
<title>Node21</title>
<g id="a_Node000021"><a xlink:href="transDriverModel_8h.html" target="_top" xlink:title=" ">
<polygon fill="white" stroke="#666666" points="599.5,-459 450.5,-459 450.5,-440 599.5,-440 599.5,-459"/>
<text text-anchor="middle" x="525" y="-447" font-family="Helvetica,sans-Serif" font-size="10.00">Drivers/transDriverModel.h</text>
</a>
</g>
</g>
<!-- Node1&#45;&gt;Node21 -->
<g id="edge54_Node000001_Node000021" class="edge">
<title>Node1&#45;&gt;Node21</title>
<g id="a_edge54_Node000001_Node000021"><a xlink:title=" ">
<path fill="none" stroke="#63b8ff" d="M653.54,-549.66C629.53,-531.14 573.71,-488.08 544.15,-465.28"/>
<polygon fill="#63b8ff" stroke="#63b8ff" points="546.28,-462.5 536.22,-459.16 542,-468.04 546.28,-462.5"/>
</a>
</g>
</g>
<!-- Node22 -->
<g id="Node000022" class="node">
<title>Node22</title>
<g id="a_Node000022"><a xlink:href="simulatorDriver_8h.html" target="_top" xlink:title=" ">
<polygon fill="white" stroke="#666666" points="840,-404 700,-404 700,-385 840,-385 840,-404"/>
<text text-anchor="middle" x="770" y="-392" font-family="Helvetica,sans-Serif" font-size="10.00">Drivers/simulatorDriver.h</text>
</a>
</g>
</g>
<!-- Node1&#45;&gt;Node22 -->
<g id="edge84_Node000001_Node000022" class="edge">
<title>Node1&#45;&gt;Node22</title>
<g id="a_edge84_Node000001_Node000022"><a xlink:title=" ">
<path fill="none" stroke="#63b8ff" d="M670.65,-549.74C687.31,-523.87 736.52,-447.48 758.8,-412.88"/>
<polygon fill="#63b8ff" stroke="#63b8ff" points="761.85,-414.61 764.33,-404.31 755.97,-410.82 761.85,-414.61"/>
</a>
</g>
</g>
<!-- Node24 -->
<g id="Node000024" class="node">
<title>Node24</title>
<g id="a_Node000024"><a xlink:href="dutDriver_8h.html" target="_top" xlink:title=" ">
<polygon fill="white" stroke="#666666" points="1257.5,-514 1148.5,-514 1148.5,-495 1257.5,-495 1257.5,-514"/>
<text text-anchor="middle" x="1203" y="-502" font-family="Helvetica,sans-Serif" font-size="10.00">Drivers/dutDriver.h</text>
</a>
</g>
</g>
<!-- Node1&#45;&gt;Node24 -->
<g id="edge70_Node000001_Node000024" class="edge">
<title>Node1&#45;&gt;Node24</title>
<g id="a_edge70_Node000001_Node000024"><a xlink:title=" ">
<path fill="none" stroke="#63b8ff" d="M737.56,-551.35C843.07,-540.96 1037.24,-521.83 1138.2,-511.88"/>
<polygon fill="#63b8ff" stroke="#63b8ff" points="1138.65,-515.36 1148.26,-510.89 1137.96,-508.39 1138.65,-515.36"/>
</a>
</g>
</g>
<!-- Node7&#45;&gt;Node2 -->
<g id="edge9_Node000007_Node000002" class="edge">
<title>Node7&#45;&gt;Node2</title>
<g id="a_edge9_Node000007_Node000002"><a xlink:title=" ">
<path fill="none" stroke="#63b8ff" d="M685.73,-280.43C587.91,-274.92 401.14,-261.76 339,-239 256.94,-208.94 217.02,-206.17 176,-129 157.04,-93.33 190.36,-49.31 211.88,-26.27"/>
<polygon fill="#63b8ff" stroke="#63b8ff" points="214.44,-28.65 218.9,-19.04 209.42,-23.78 214.44,-28.65"/>
</a>
</g>
</g>
<!-- Node7&#45;&gt;Node3 -->
<g id="edge12_Node000007_Node000003" class="edge">
<title>Node7&#45;&gt;Node3</title>
<g id="a_edge12_Node000007_Node000003"><a xlink:title=" ">
<path fill="none" stroke="#63b8ff" d="M808.29,-282.29C885.38,-279.45 1021.2,-270.03 1133,-239 1189.92,-223.2 1204.46,-216.18 1254,-184 1301.3,-153.27 1348.71,-106.18 1372.06,-81.64"/>
<polygon fill="#63b8ff" stroke="#63b8ff" points="1374.73,-83.92 1379.03,-74.24 1369.63,-79.12 1374.73,-83.92"/>
</a>
</g>
</g>
<!-- Node7&#45;&gt;Node5 -->
<g id="edge7_Node000007_Node000005" class="edge">
<title>Node7&#45;&gt;Node5</title>
<g id="a_edge7_Node000007_Node000005"><a xlink:title=" ">
<path fill="none" stroke="#63b8ff" d="M808.25,-282.2C948.8,-278.73 1285.65,-267.52 1328,-239 1362.36,-215.86 1377.58,-166.56 1383.59,-139.41"/>
<polygon fill="#63b8ff" stroke="#63b8ff" points="1387.08,-139.76 1385.62,-129.27 1380.22,-138.38 1387.08,-139.76"/>
</a>
</g>
</g>
<!-- Node8 -->
<g id="Node000008" class="node">
<title>Node8</title>
<g id="a_Node000008"><a xlink:title=" ">
<polygon fill="#e0e0e0" stroke="#999999" points="454,-129 398,-129 398,-110 454,-110 454,-129"/>
<text text-anchor="middle" x="426" y="-117" font-family="Helvetica,sans-Serif" font-size="10.00">optional</text>
</a>
</g>
</g>
<!-- Node7&#45;&gt;Node8 -->
<g id="edge8_Node000007_Node000008" class="edge">
<title>Node7&#45;&gt;Node8</title>
<g id="a_edge8_Node000007_Node000008"><a xlink:title=" ">
<path fill="none" stroke="#63b8ff" d="M716.86,-275C668.61,-260.62 572.03,-228.65 499,-184 477.2,-170.67 455.53,-150.76 441.53,-136.79"/>
<polygon fill="#63b8ff" stroke="#63b8ff" points="443.74,-134.04 434.23,-129.35 438.74,-138.94 443.74,-134.04"/>
</a>
</g>
</g>
<!-- Node9 -->
<g id="Node000009" class="node">
<title>Node9</title>
<g id="a_Node000009"><a xlink:title=" ">
<polygon fill="#e0e0e0" stroke="#999999" points="796.5,-74 755.5,-74 755.5,-55 796.5,-55 796.5,-74"/>
<text text-anchor="middle" x="776" y="-62" font-family="Helvetica,sans-Serif" font-size="10.00">tuple</text>
</a>
</g>
</g>
<!-- Node7&#45;&gt;Node9 -->
<g id="edge10_Node000007_Node000009" class="edge">
<title>Node7&#45;&gt;Node9</title>
<g id="a_edge10_Node000007_Node000009"><a xlink:title=" ">
<path fill="none" stroke="#63b8ff" d="M748.14,-274.95C752.39,-242.95 767.46,-129.68 773.49,-84.4"/>
<polygon fill="#63b8ff" stroke="#63b8ff" points="776.99,-84.6 774.84,-74.22 770.05,-83.67 776.99,-84.6"/>
</a>
</g>
</g>
<!-- Node10 -->
<g id="Node000010" class="node">
<title>Node10</title>
<g id="a_Node000010"><a xlink:title=" ">
<polygon fill="#e0e0e0" stroke="#999999" points="1539.5,-19 1446.5,-19 1446.5,0 1539.5,0 1539.5,-19"/>
<text text-anchor="middle" x="1493" y="-7" font-family="Helvetica,sans-Serif" font-size="10.00">unordered_map</text>
</a>
</g>
</g>
<!-- Node7&#45;&gt;Node10 -->
<g id="edge11_Node000007_Node000010" class="edge">
<title>Node7&#45;&gt;Node10</title>
<g id="a_edge11_Node000007_Node000010"><a xlink:title=" ">
<path fill="none" stroke="#63b8ff" d="M808.17,-283.78C918.09,-283.22 1155.84,-277.19 1352,-239 1430.36,-223.74 1475.98,-248.52 1523,-184 1557.9,-136.11 1522.74,-61.25 1503.61,-27.74"/>
<polygon fill="#63b8ff" stroke="#63b8ff" points="1506.6,-25.92 1498.5,-19.09 1500.58,-29.48 1506.6,-25.92"/>
</a>
</g>
</g>
<!-- Node11 -->
<g id="Node000011" class="node">
<title>Node11</title>
<g id="a_Node000011"><a xlink:title=" ">
<polygon fill="#e0e0e0" stroke="#999999" points="651.5,-74 586.5,-74 586.5,-55 651.5,-55 651.5,-74"/>
<text text-anchor="middle" x="619" y="-62" font-family="Helvetica,sans-Serif" font-size="10.00">functional</text>
</a>
</g>
</g>
<!-- Node7&#45;&gt;Node11 -->
<g id="edge13_Node000007_Node000011" class="edge">
<title>Node7&#45;&gt;Node11</title>
<g id="a_edge13_Node000007_Node000011"><a xlink:title=" ">
<path fill="none" stroke="#63b8ff" d="M685.72,-279.21C599.24,-269.32 445.65,-236.69 389,-129 385.07,-121.53 383.63,-116.51 389,-110 400.83,-95.66 513.07,-79.11 576.26,-70.81"/>
<polygon fill="#63b8ff" stroke="#63b8ff" points="576.87,-74.27 586.34,-69.51 575.97,-67.32 576.87,-74.27"/>
</a>
</g>
</g>
<!-- Node12 -->
<g id="Node000012" class="node">
<title>Node12</title>
<g id="a_Node000012"><a xlink:href="channel_8h.html" target="_top" xlink:title=" ">
<polygon fill="white" stroke="#666666" points="1123.5,-239 1016.5,-239 1016.5,-220 1123.5,-220 1123.5,-239"/>
<text text-anchor="middle" x="1070" y="-227" font-family="Helvetica,sans-Serif" font-size="10.00">Channel/channel.h</text>
</a>
</g>
</g>
<!-- Node7&#45;&gt;Node12 -->
<g id="edge14_Node000007_Node000012" class="edge">
<title>Node7&#45;&gt;Node12</title>
<g id="a_edge14_Node000007_Node000012"><a xlink:title=" ">
<path fill="none" stroke="#63b8ff" d="M798.9,-274.98C855.79,-265.65 947.05,-250.67 1007.75,-240.71"/>
<polygon fill="#63b8ff" stroke="#63b8ff" points="1008.66,-244.11 1017.97,-239.04 1007.53,-237.2 1008.66,-244.11"/>
</a>
</g>
</g>
<!-- Node16 -->
<g id="Node000016" class="node">
<title>Node16</title>
<g id="a_Node000016"><a xlink:href="types_8h.html" target="_top" xlink:title=" ">
<polygon fill="white" stroke="#666666" points="1092.5,-74 1003.5,-74 1003.5,-55 1092.5,-55 1092.5,-74"/>
<text text-anchor="middle" x="1048" y="-62" font-family="Helvetica,sans-Serif" font-size="10.00">Library/types.h</text>
</a>
</g>
</g>
<!-- Node7&#45;&gt;Node16 -->
<g id="edge52_Node000007_Node000016" class="edge">
<title>Node7&#45;&gt;Node16</title>
<g id="a_edge52_Node000007_Node000016"><a xlink:title=" ">
<path fill="none" stroke="#63b8ff" d="M762.33,-274.87C800.99,-252.82 904.92,-191.71 983,-129 1001.33,-114.27 1020.36,-95.17 1033.05,-81.78"/>
<polygon fill="#63b8ff" stroke="#63b8ff" points="1035.8,-83.96 1040.07,-74.26 1030.68,-79.18 1035.8,-83.96"/>
</a>
</g>
</g>
<!-- Node7&#45;&gt;Node17 -->
<g id="edge51_Node000007_Node000017" class="edge">
<title>Node7&#45;&gt;Node17</title>
<g id="a_edge51_Node000007_Node000017"><a xlink:title=" ">
<path fill="none" stroke="#63b8ff" d="M738.24,-274.66C720.21,-256.46 678.69,-214.55 655.82,-191.47"/>
<polygon fill="#63b8ff" stroke="#63b8ff" points="658.1,-188.8 648.58,-184.16 653.13,-193.73 658.1,-188.8"/>
</a>
</g>
</g>
<!-- Node19 -->
<g id="Node000019" class="node">
<title>Node19</title>
<g id="a_Node000019"><a xlink:href="error_8h.html" target="_top" xlink:title=" ">
<polygon fill="white" stroke="#666666" points="341.5,-129 256.5,-129 256.5,-110 341.5,-110 341.5,-129"/>
<text text-anchor="middle" x="299" y="-117" font-family="Helvetica,sans-Serif" font-size="10.00">Library/error.h</text>
</a>
</g>
</g>
<!-- Node7&#45;&gt;Node19 -->
<g id="edge53_Node000007_Node000019" class="edge">
<title>Node7&#45;&gt;Node19</title>
<g id="a_edge53_Node000007_Node000019"><a xlink:title=" ">
<path fill="none" stroke="#63b8ff" d="M685.88,-283.28C590.63,-281.81 412.37,-274.28 361,-239 326.5,-215.31 309.85,-166.23 303.01,-139.26"/>
<polygon fill="#63b8ff" stroke="#63b8ff" points="306.34,-138.14 300.66,-129.2 299.53,-139.73 306.34,-138.14"/>
</a>
</g>
</g>
<!-- Node12&#45;&gt;Node2 -->
<g id="edge17_Node000012_Node000002" class="edge">
<title>Node12&#45;&gt;Node2</title>
<g id="a_edge17_Node000012_Node000002"><a xlink:title=" ">
<path fill="none" stroke="#63b8ff" d="M1016.36,-225.87C842.22,-216.82 300.74,-184.4 247,-129 221.09,-102.29 222.08,-55.19 225.05,-29.13"/>
<polygon fill="#63b8ff" stroke="#63b8ff" points="228.54,-29.47 226.42,-19.09 221.6,-28.52 228.54,-29.47"/>
</a>
</g>
</g>
<!-- Node12&#45;&gt;Node3 -->
<g id="edge21_Node000012_Node000003" class="edge">
<title>Node12&#45;&gt;Node3</title>
<g id="a_edge21_Node000012_Node000003"><a xlink:title=" ">
<path fill="none" stroke="#63b8ff" d="M1118.69,-219.98C1150.48,-213.15 1192.2,-201.72 1226,-184 1271.86,-159.95 1273.97,-140.26 1316,-110 1331.4,-98.91 1349.54,-87.57 1363.63,-79.11"/>
<polygon fill="#63b8ff" stroke="#63b8ff" points="1365.42,-82.12 1372.23,-74 1361.84,-76.1 1365.42,-82.12"/>
</a>
</g>
</g>
<!-- Node12&#45;&gt;Node4 -->
<g id="edge22_Node000012_Node000004" class="edge">
<title>Node12&#45;&gt;Node4</title>
<g id="a_edge22_Node000012_Node000004"><a xlink:title=" ">
<path fill="none" stroke="#63b8ff" d="M1077.55,-219.97C1091.41,-203.69 1120.44,-166.44 1131,-129 1140.59,-95 1130.44,-75.95 1102,-55 1069.85,-31.32 954.65,-18.33 896.74,-13.17"/>
<polygon fill="#63b8ff" stroke="#63b8ff" points="896.89,-9.67 886.63,-12.3 896.29,-16.64 896.89,-9.67"/>
</a>
</g>
</g>
<!-- Node12&#45;&gt;Node5 -->
<g id="edge16_Node000012_Node000005" class="edge">
<title>Node12&#45;&gt;Node5</title>
<g id="a_edge16_Node000012_Node000005"><a xlink:title=" ">
<path fill="none" stroke="#63b8ff" d="M1123.32,-220C1162.89,-212.8 1217.76,-200.93 1264,-184 1300.66,-170.58 1340.32,-148.62 1364.41,-134.37"/>
<polygon fill="#63b8ff" stroke="#63b8ff" points="1366.36,-137.28 1373.14,-129.14 1362.76,-131.27 1366.36,-137.28"/>
</a>
</g>
</g>
<!-- Node12&#45;&gt;Node6 -->
<g id="edge23_Node000012_Node000006" class="edge">
<title>Node12&#45;&gt;Node6</title>
<g id="a_edge23_Node000012_Node000006"><a xlink:title=" ">
<path fill="none" stroke="#63b8ff" d="M1123.75,-221.73C1212.06,-210.62 1385.31,-188.81 1457.83,-179.68"/>
<polygon fill="#63b8ff" stroke="#63b8ff" points="1458.29,-183.15 1467.78,-178.42 1457.42,-176.2 1458.29,-183.15"/>
</a>
</g>
</g>
<!-- Node12&#45;&gt;Node9 -->
<g id="edge18_Node000012_Node000009" class="edge">
<title>Node12&#45;&gt;Node9</title>
<g id="a_edge18_Node000012_Node000009"><a xlink:title=" ">
<path fill="none" stroke="#63b8ff" d="M1016.45,-223.4C954.61,-214.68 853.85,-191.27 795,-129 783.52,-116.86 778.95,-98.06 777.15,-84.07"/>
<polygon fill="#63b8ff" stroke="#63b8ff" points="780.63,-83.72 776.21,-74.09 773.66,-84.37 780.63,-83.72"/>
</a>
</g>
</g>
<!-- Node12&#45;&gt;Node10 -->
<g id="edge19_Node000012_Node000010" class="edge">
<title>Node12&#45;&gt;Node10</title>
<g id="a_edge19_Node000012_Node000010"><a xlink:title=" ">
<path fill="none" stroke="#63b8ff" d="M1102.31,-219.93C1127.86,-212.42 1163.94,-200.19 1193,-184 1273.71,-139.04 1274.56,-98.62 1356,-55 1383.85,-40.08 1417.59,-29.05 1444.61,-21.7"/>
<polygon fill="#63b8ff" stroke="#63b8ff" points="1445.84,-25 1454.61,-19.06 1444.05,-18.23 1445.84,-25"/>
</a>
</g>
</g>
<!-- Node13 -->
<g id="Node000013" class="node">
<title>Node13</title>
<g id="a_Node000013"><a xlink:title=" ">
<polygon fill="#e0e0e0" stroke="#999999" points="1183.5,-184 1130.5,-184 1130.5,-165 1183.5,-165 1183.5,-184"/>
<text text-anchor="middle" x="1157" y="-172" font-family="Helvetica,sans-Serif" font-size="10.00">iterator</text>
</a>
</g>
</g>
<!-- Node12&#45;&gt;Node13 -->
<g id="edge15_Node000012_Node000013" class="edge">
<title>Node12&#45;&gt;Node13</title>
<g id="a_edge15_Node000012_Node000013"><a xlink:title=" ">
<path fill="none" stroke="#63b8ff" d="M1083.98,-219.98C1097.47,-211.77 1118.13,-199.18 1134.04,-189.49"/>
<polygon fill="#63b8ff" stroke="#63b8ff" points="1136.05,-192.36 1142.77,-184.17 1132.41,-186.38 1136.05,-192.36"/>
</a>
</g>
</g>
<!-- Node14 -->
<g id="Node000014" class="node">
<title>Node14</title>
<g id="a_Node000014"><a xlink:title=" ">
<polygon fill="#e0e0e0" stroke="#999999" points="969,-74 931,-74 931,-55 969,-55 969,-74"/>
<text text-anchor="middle" x="950" y="-62" font-family="Helvetica,sans-Serif" font-size="10.00">map</text>
</a>
</g>
</g>
<!-- Node12&#45;&gt;Node14 -->
<g id="edge20_Node000012_Node000014" class="edge">
<title>Node12&#45;&gt;Node14</title>
<g id="a_edge20_Node000012_Node000014"><a xlink:title=" ">
<path fill="none" stroke="#63b8ff" d="M1063.55,-219.74C1044.42,-193.76 987.79,-116.83 962.47,-82.44"/>
<polygon fill="#63b8ff" stroke="#63b8ff" points="965.23,-80.28 956.48,-74.31 959.59,-84.44 965.23,-80.28"/>
</a>
</g>
</g>
<!-- Node15 -->
<g id="Node000015" class="node">
<title>Node15</title>
<g id="a_Node000015"><a xlink:title=" ">
<polygon fill="#e0e0e0" stroke="#999999" points="512,-74 452,-74 452,-55 512,-55 512,-74"/>
<text text-anchor="middle" x="482" y="-62" font-family="Helvetica,sans-Serif" font-size="10.00">iostream</text>
</a>
</g>
</g>
<!-- Node12&#45;&gt;Node15 -->
<g id="edge24_Node000012_Node000015" class="edge">
<title>Node12&#45;&gt;Node15</title>
<g id="a_edge24_Node000012_Node000015"><a xlink:title=" ">
<path fill="none" stroke="#63b8ff" d="M1016.21,-229.13C901.79,-229.62 638.38,-225.99 561,-184 521.29,-162.45 498.02,-111.28 487.95,-83.76"/>
<polygon fill="#63b8ff" stroke="#63b8ff" points="491.21,-82.48 484.63,-74.18 484.6,-84.77 491.21,-82.48"/>
</a>
</g>
</g>
<!-- Node12&#45;&gt;Node16 -->
<g id="edge25_Node000012_Node000016" class="edge">
<title>Node12&#45;&gt;Node16</title>
<g id="a_edge25_Node000012_Node000016"><a xlink:title=" ">
<path fill="none" stroke="#63b8ff" d="M1071.35,-219.9C1073.57,-207.32 1078.68,-183.4 1088,-165 1100.39,-140.53 1129.05,-134.13 1116,-110 1108.42,-95.98 1094.3,-85.67 1080.87,-78.53"/>
<polygon fill="#63b8ff" stroke="#63b8ff" points="1082.3,-75.33 1071.78,-74.08 1079.23,-81.62 1082.3,-75.33"/>
</a>
</g>
</g>
<!-- Node12&#45;&gt;Node17 -->
<g id="edge29_Node000012_Node000017" class="edge">
<title>Node12&#45;&gt;Node17</title>
<g id="a_edge29_Node000012_Node000017"><a xlink:title=" ">
<path fill="none" stroke="#63b8ff" d="M1016.41,-221.89C941.7,-212.69 805.7,-195.92 719.25,-185.27"/>
<polygon fill="#63b8ff" stroke="#63b8ff" points="719.58,-181.78 709.22,-184.03 718.72,-188.73 719.58,-181.78"/>
</a>
</g>
</g>
<!-- Node16&#45;&gt;Node2 -->
<g id="edge28_Node000016_Node000002" class="edge">
<title>Node16&#45;&gt;Node2</title>
<g id="a_edge28_Node000016_Node000002"><a xlink:title=" ">
<path fill="none" stroke="#63b8ff" d="M1003.23,-57.65C994.86,-56.67 986.17,-55.74 978,-55 700.71,-29.96 364.43,-15.74 260.3,-11.7"/>
<polygon fill="#63b8ff" stroke="#63b8ff" points="260.25,-8.2 250.12,-11.31 259.98,-15.2 260.25,-8.2"/>
</a>
</g>
</g>
<!-- Node16&#45;&gt;Node4 -->
<g id="edge26_Node000016_Node000004" class="edge">
<title>Node16&#45;&gt;Node4</title>
<g id="a_edge26_Node000016_Node000004"><a xlink:title=" ">
<path fill="none" stroke="#63b8ff" d="M1018.28,-54.98C985,-45.45 931.19,-30.03 896.46,-20.09"/>
<polygon fill="#63b8ff" stroke="#63b8ff" points="897.35,-16.7 886.77,-17.31 895.42,-23.43 897.35,-16.7"/>
</a>
</g>
</g>
<!-- Node16&#45;&gt;Node10 -->
<g id="edge27_Node000016_Node000010" class="edge">
<title>Node16&#45;&gt;Node10</title>
<g id="a_edge27_Node000016_Node000010"><a xlink:title=" ">
<path fill="none" stroke="#63b8ff" d="M1092.71,-58.18C1174.2,-48.47 1346.75,-27.92 1436.34,-17.25"/>
<polygon fill="#63b8ff" stroke="#63b8ff" points="1436.81,-20.72 1446.32,-16.06 1435.98,-13.77 1436.81,-20.72"/>
</a>
</g>
</g>
<!-- Node17&#45;&gt;Node2 -->
<g id="edge31_Node000017_Node000002" class="edge">
<title>Node17&#45;&gt;Node2</title>
<g id="a_edge31_Node000017_Node000002"><a xlink:title=" ">
<path fill="none" stroke="#63b8ff" d="M634.29,-164.8C619,-142.29 574.63,-82.04 521,-55 475.74,-32.18 326.59,-18.13 260.27,-12.86"/>
<polygon fill="#63b8ff" stroke="#63b8ff" points="260.24,-9.35 250,-12.07 259.7,-16.33 260.24,-9.35"/>
</a>
</g>
</g>
<!-- Node17&#45;&gt;Node3 -->
<g id="edge32_Node000017_Node000003" class="edge">
<title>Node17&#45;&gt;Node3</title>
<g id="a_edge32_Node000017_Node000003"><a xlink:title=" ">
<path fill="none" stroke="#63b8ff" d="M709.71,-165.01C779.07,-156.44 888.49,-142.56 983,-129 1121.09,-109.19 1285.2,-82.38 1354.04,-70.99"/>
<polygon fill="#63b8ff" stroke="#63b8ff" points="1354.96,-74.38 1364.25,-69.3 1353.81,-67.48 1354.96,-74.38"/>
</a>
</g>
</g>
<!-- Node17&#45;&gt;Node4 -->
<g id="edge33_Node000017_Node000004" class="edge">
<title>Node17&#45;&gt;Node4</title>
<g id="a_edge33_Node000017_Node000004"><a xlink:title=" ">
<path fill="none" stroke="#63b8ff" d="M648.23,-164.69C656.55,-155.75 669.76,-141.5 681,-129 710.28,-96.46 710.04,-79.96 746,-55 771.46,-37.33 804.87,-25.53 829.46,-18.55"/>
<polygon fill="#63b8ff" stroke="#63b8ff" points="830.68,-21.85 839.42,-15.85 828.85,-15.09 830.68,-21.85"/>
</a>
</g>
</g>
<!-- Node17&#45;&gt;Node5 -->
<g id="edge34_Node000017_Node000005" class="edge">
<title>Node17&#45;&gt;Node5</title>
<g id="a_edge34_Node000017_Node000005"><a xlink:title=" ">
<path fill="none" stroke="#63b8ff" d="M709.61,-168.56C863.25,-157.66 1227.28,-131.83 1347.62,-123.29"/>
<polygon fill="#63b8ff" stroke="#63b8ff" points="1348.11,-126.77 1357.84,-122.57 1347.62,-119.79 1348.11,-126.77"/>
</a>
</g>
</g>
<!-- Node17&#45;&gt;Node8 -->
<g id="edge37_Node000017_Node000008" class="edge">
<title>Node17&#45;&gt;Node8</title>
<g id="a_edge37_Node000017_Node000008"><a xlink:title=" ">
<path fill="none" stroke="#63b8ff" d="M605.62,-164.98C566.92,-155.4 504.24,-139.88 464.09,-129.93"/>
<polygon fill="#63b8ff" stroke="#63b8ff" points="464.7,-126.48 454.15,-127.47 463.01,-133.27 464.7,-126.48"/>
</a>
</g>
</g>
<!-- Node17&#45;&gt;Node11 -->
<g id="edge38_Node000017_Node000011" class="edge">
<title>Node17&#45;&gt;Node11</title>
<g id="a_edge38_Node000017_Node000011"><a xlink:title=" ">
<path fill="none" stroke="#63b8ff" d="M633.37,-164.88C627.24,-156.32 618.54,-142.54 615,-129 611.15,-114.29 612.6,-97.03 614.76,-84.23"/>
<polygon fill="#63b8ff" stroke="#63b8ff" points="618.22,-84.78 616.73,-74.3 611.35,-83.42 618.22,-84.78"/>
</a>
</g>
</g>
<!-- Node17&#45;&gt;Node14 -->
<g id="edge36_Node000017_Node000014" class="edge">
<title>Node17&#45;&gt;Node14</title>
<g id="a_edge36_Node000017_Node000014"><a xlink:title=" ">
<path fill="none" stroke="#63b8ff" d="M709.72,-171.24C785.12,-167.38 898.85,-156.97 931,-129 943.61,-118.04 948.02,-99.08 949.49,-84.73"/>
<polygon fill="#63b8ff" stroke="#63b8ff" points="953,-84.64 950.13,-74.45 946.01,-84.21 953,-84.64"/>
</a>
</g>
</g>
<!-- Node17&#45;&gt;Node15 -->
<g id="edge30_Node000017_Node000015" class="edge">
<title>Node17&#45;&gt;Node15</title>
<g id="a_edge30_Node000017_Node000015"><a xlink:title=" ">
<path fill="none" stroke="#63b8ff" d="M615.42,-164.96C595.2,-157.29 566.35,-144.81 544,-129 525.04,-115.59 506.92,-95.96 495.21,-82.08"/>
<polygon fill="#63b8ff" stroke="#63b8ff" points="497.86,-79.79 488.81,-74.29 492.46,-84.24 497.86,-79.79"/>
</a>
</g>
</g>
<!-- Node17&#45;&gt;Node16 -->
<g id="edge39_Node000017_Node000016" class="edge">
<title>Node17&#45;&gt;Node16</title>
<g id="a_edge39_Node000017_Node000016"><a xlink:title=" ">
<path fill="none" stroke="#63b8ff" d="M709.78,-172.14C774.26,-168.9 871.78,-158.9 951,-129 981.24,-117.59 1011.7,-95.51 1030.22,-80.64"/>
<polygon fill="#63b8ff" stroke="#63b8ff" points="1032.56,-83.24 1038.07,-74.18 1028.12,-77.83 1032.56,-83.24"/>
</a>
</g>
</g>
<!-- Node18 -->
<g id="Node000018" class="node">
<title>Node18</title>
<g id="a_Node000018"><a xlink:title=" ">
<polygon fill="#e0e0e0" stroke="#999999" points="672,-129 624,-129 624,-110 672,-110 672,-129"/>
<text text-anchor="middle" x="648" y="-117" font-family="Helvetica,sans-Serif" font-size="10.00">mutex</text>
</a>
</g>
</g>
<!-- Node17&#45;&gt;Node18 -->
<g id="edge35_Node000017_Node000018" class="edge">
<title>Node17&#45;&gt;Node18</title>
<g id="a_edge35_Node000017_Node000018"><a xlink:title=" ">
<path fill="none" stroke="#63b8ff" d="M641.32,-164.75C642.37,-157.8 643.87,-147.85 645.19,-139.13"/>
<polygon fill="#63b8ff" stroke="#63b8ff" points="648.67,-139.5 646.7,-129.09 641.75,-138.45 648.67,-139.5"/>
</a>
</g>
</g>
<!-- Node17&#45;&gt;Node19 -->
<g id="edge40_Node000017_Node000019" class="edge">
<title>Node17&#45;&gt;Node19</title>
<g id="a_edge40_Node000017_Node000019"><a xlink:title=" ">
<path fill="none" stroke="#63b8ff" d="M585.21,-164.98C520.92,-154.99 415.07,-138.54 351.7,-128.69"/>
<polygon fill="#63b8ff" stroke="#63b8ff" points="351.94,-125.19 341.52,-127.11 350.87,-132.1 351.94,-125.19"/>
</a>
</g>
</g>
<!-- Node20 -->
<g id="Node000020" class="node">
<title>Node20</title>
<g id="a_Node000020"><a xlink:href="evaluate_8h.html" target="_top" xlink:title=" ">
<polygon fill="white" stroke="#666666" points="922,-129 804,-129 804,-110 922,-110 922,-129"/>
<text text-anchor="middle" x="863" y="-117" font-family="Helvetica,sans-Serif" font-size="10.00">Evaluator/evaluate.h</text>
</a>
</g>
</g>
<!-- Node17&#45;&gt;Node20 -->
<g id="edge43_Node000017_Node000020" class="edge">
<title>Node17&#45;&gt;Node20</title>
<g id="a_edge43_Node000017_Node000020"><a xlink:title=" ">
<path fill="none" stroke="#63b8ff" d="M675.83,-164.98C714.16,-155.87 775.08,-141.4 816.95,-131.45"/>
<polygon fill="#63b8ff" stroke="#63b8ff" points="817.97,-134.8 826.89,-129.08 816.35,-127.99 817.97,-134.8"/>
</a>
</g>
</g>
<!-- Node19&#45;&gt;Node2 -->
<g id="edge41_Node000019_Node000002" class="edge">
<title>Node19&#45;&gt;Node2</title>
<g id="a_edge41_Node000019_Node000002"><a xlink:title=" ">
<path fill="none" stroke="#63b8ff" d="M293.19,-109.66C281.43,-91.77 254.63,-51 239.3,-27.69"/>
<polygon fill="#63b8ff" stroke="#63b8ff" points="242.11,-25.59 233.69,-19.16 236.26,-29.44 242.11,-25.59"/>
</a>
</g>
</g>
<!-- Node19&#45;&gt;Node15 -->
<g id="edge42_Node000019_Node000015" class="edge">
<title>Node19&#45;&gt;Node15</title>
<g id="a_edge42_Node000019_Node000015"><a xlink:title=" ">
<path fill="none" stroke="#63b8ff" d="M328.4,-109.98C359.39,-101.01 408.38,-86.82 442.67,-76.89"/>
<polygon fill="#63b8ff" stroke="#63b8ff" points="443.74,-80.23 452.37,-74.08 441.79,-73.5 443.74,-80.23"/>
</a>
</g>
</g>
<!-- Node20&#45;&gt;Node2 -->
<g id="edge46_Node000020_Node000002" class="edge">
<title>Node20&#45;&gt;Node2</title>
<g id="a_edge46_Node000020_Node000002"><a xlink:title=" ">
<path fill="none" stroke="#63b8ff" d="M858.09,-109.59C849.61,-95.18 830.71,-67.18 806,-55 756.97,-30.83 374.92,-15.64 260.36,-11.59"/>
<polygon fill="#63b8ff" stroke="#63b8ff" points="260.25,-8.08 250.13,-11.23 260,-15.08 260.25,-8.08"/>
</a>
</g>
</g>
<!-- Node20&#45;&gt;Node3 -->
<g id="edge44_Node000020_Node000003" class="edge">
<title>Node20&#45;&gt;Node3</title>
<g id="a_edge44_Node000020_Node000003"><a xlink:title=" ">
<path fill="none" stroke="#63b8ff" d="M922.09,-112.52C1032.83,-101.32 1268.19,-77.52 1354.44,-68.79"/>
<polygon fill="#63b8ff" stroke="#63b8ff" points="1354.84,-72.27 1364.44,-67.78 1354.13,-65.31 1354.84,-72.27"/>
</a>
</g>
</g>
<!-- Node20&#45;&gt;Node4 -->
<g id="edge45_Node000020_Node000004" class="edge">
<title>Node20&#45;&gt;Node4</title>
<g id="a_edge45_Node000020_Node000004"><a xlink:title=" ">
<path fill="none" stroke="#63b8ff" d="M863,-109.66C863,-92.17 863,-52.8 863,-29.27"/>
<polygon fill="#63b8ff" stroke="#63b8ff" points="866.5,-29.16 863,-19.16 859.5,-29.16 866.5,-29.16"/>
</a>
</g>
</g>
<!-- Node20&#45;&gt;Node9 -->
<g id="edge48_Node000020_Node000009" class="edge">
<title>Node20&#45;&gt;Node9</title>
<g id="a_edge48_Node000020_Node000009"><a xlink:title=" ">
<path fill="none" stroke="#63b8ff" d="M849.02,-109.98C835.53,-101.77 814.87,-89.18 798.96,-79.49"/>
<polygon fill="#63b8ff" stroke="#63b8ff" points="800.59,-76.38 790.23,-74.17 796.95,-82.36 800.59,-76.38"/>
</a>
</g>
</g>
<!-- Node20&#45;&gt;Node11 -->
<g id="edge47_Node000020_Node000011" class="edge">
<title>Node20&#45;&gt;Node11</title>
<g id="a_edge47_Node000020_Node000011"><a xlink:title=" ">
<path fill="none" stroke="#63b8ff" d="M823.8,-109.98C779.46,-100.35 707.5,-84.72 661.75,-74.79"/>
<polygon fill="#63b8ff" stroke="#63b8ff" points="662.36,-71.34 651.85,-72.63 660.88,-78.18 662.36,-71.34"/>
</a>
</g>
</g>
<!-- Node20&#45;&gt;Node14 -->
<g id="edge49_Node000020_Node000014" class="edge">
<title>Node20&#45;&gt;Node14</title>
<g id="a_edge49_Node000020_Node000014"><a xlink:title=" ">
<path fill="none" stroke="#63b8ff" d="M876.98,-109.98C890.47,-101.77 911.13,-89.18 927.04,-79.49"/>
<polygon fill="#63b8ff" stroke="#63b8ff" points="929.05,-82.36 935.77,-74.17 925.41,-76.38 929.05,-82.36"/>
</a>
</g>
</g>
<!-- Node20&#45;&gt;Node16 -->
<g id="edge50_Node000020_Node000016" class="edge">
<title>Node20&#45;&gt;Node16</title>
<g id="a_edge50_Node000020_Node000016"><a xlink:title=" ">
<path fill="none" stroke="#63b8ff" d="M892.72,-109.98C924.05,-101.01 973.57,-86.82 1008.24,-76.89"/>
<polygon fill="#63b8ff" stroke="#63b8ff" points="1009.39,-80.2 1018.04,-74.08 1007.47,-73.47 1009.39,-80.2"/>
</a>
</g>
</g>
<!-- Node21&#45;&gt;Node2 -->
<g id="edge55_Node000021_Node000002" class="edge">
<title>Node21&#45;&gt;Node2</title>
<g id="a_edge55_Node000021_Node000002"><a xlink:title=" ">
<path fill="none" stroke="#63b8ff" d="M450.32,-443.92C371.54,-438.03 253.42,-425.84 214,-404 153.72,-370.6 114,-354.41 114,-285.5 114,-285.5 114,-285.5 114,-118.5 114,-72.47 163.58,-40.18 197.35,-23.53"/>
<polygon fill="#63b8ff" stroke="#63b8ff" points="199.28,-26.49 206.82,-19.05 196.29,-20.16 199.28,-26.49"/>
</a>
</g>
</g>
<!-- Node21&#45;&gt;Node4 -->
<g id="edge56_Node000021_Node000004" class="edge">
<title>Node21&#45;&gt;Node4</title>
<g id="a_edge56_Node000021_Node000004"><a xlink:title=" ">
<path fill="none" stroke="#63b8ff" d="M469.48,-439.96C383.52,-425.14 228,-391.32 228,-340.5 228,-340.5 228,-340.5 228,-283.5 228,-205.93 196.84,-169.17 247,-110 322.82,-20.55 710.94,-11.23 828.93,-10.49"/>
<polygon fill="#63b8ff" stroke="#63b8ff" points="829.19,-13.99 839.17,-10.44 829.16,-6.99 829.19,-13.99"/>
</a>
</g>
</g>
<!-- Node21&#45;&gt;Node7 -->
<g id="edge57_Node000021_Node000007" class="edge">
<title>Node21&#45;&gt;Node7</title>
<g id="a_edge57_Node000021_Node000007"><a xlink:title=" ">
<path fill="none" stroke="#63b8ff" d="M529.02,-439.93C539.61,-418.26 570.44,-360.79 613,-330 635.35,-313.83 663.96,-303.27 688.99,-296.52"/>
<polygon fill="#63b8ff" stroke="#63b8ff" points="689.92,-299.9 698.75,-294.03 688.19,-293.11 689.92,-299.9"/>
</a>
</g>
</g>
<!-- Node21&#45;&gt;Node17 -->
<g id="edge68_Node000021_Node000017" class="edge">
<title>Node21&#45;&gt;Node17</title>
<g id="a_edge68_Node000021_Node000017"><a xlink:title=" ">
<path fill="none" stroke="#63b8ff" d="M466.55,-439.96C411.36,-428.19 337,-401.1 337,-340.5 337,-340.5 337,-340.5 337,-283.5 337,-233.89 482.92,-201.13 572.23,-185.72"/>
<polygon fill="#63b8ff" stroke="#63b8ff" points="573.02,-189.13 582.29,-184.01 571.85,-182.23 573.02,-189.13"/>
</a>
</g>
</g>
<!-- Node21&#45;&gt;Node22 -->
<g id="edge58_Node000021_Node000022" class="edge">
<title>Node21&#45;&gt;Node22</title>
<g id="a_edge58_Node000021_Node000022"><a xlink:title=" ">
<path fill="none" stroke="#63b8ff" d="M564.36,-439.98C606.74,-430.82 674.26,-416.21 720.28,-406.26"/>
<polygon fill="#63b8ff" stroke="#63b8ff" points="721.29,-409.62 730.33,-404.08 719.81,-402.78 721.29,-409.62"/>
</a>
</g>
</g>
<!-- Node22&#45;&gt;Node3 -->
<g id="edge59_Node000022_Node000003" class="edge">
<title>Node22&#45;&gt;Node3</title>
<g id="a_edge59_Node000022_Node000003"><a xlink:title=" ">
<path fill="none" stroke="#63b8ff" d="M840.22,-385.99C1013.39,-365.73 1451.97,-303.28 1523,-184 1552.68,-134.16 1468.2,-94.4 1419.23,-76.23"/>
<polygon fill="#63b8ff" stroke="#63b8ff" points="1420.26,-72.88 1409.67,-72.79 1417.89,-79.47 1420.26,-72.88"/>
</a>
</g>
</g>
<!-- Node22&#45;&gt;Node7 -->
<g id="edge60_Node000022_Node000007" class="edge">
<title>Node22&#45;&gt;Node7</title>
<g id="a_edge60_Node000022_Node000007"><a xlink:title=" ">
<path fill="none" stroke="#63b8ff" d="M768.12,-384.66C764.38,-367.09 755.93,-327.45 750.93,-303.95"/>
<polygon fill="#63b8ff" stroke="#63b8ff" points="754.35,-303.21 748.84,-294.16 747.5,-304.67 754.35,-303.21"/>
</a>
</g>
</g>
<!-- Node23 -->
<g id="Node000023" class="node">
<title>Node23</title>
<g id="a_Node000023"><a xlink:href="simulator_8h.html" target="_top" xlink:title=" ">
<polygon fill="white" stroke="#666666" points="1049,-349 927,-349 927,-330 1049,-330 1049,-349"/>
<text text-anchor="middle" x="988" y="-337" font-family="Helvetica,sans-Serif" font-size="10.00">Simulator/simulator.h</text>
</a>
</g>
</g>
<!-- Node22&#45;&gt;Node23 -->
<g id="edge61_Node000022_Node000023" class="edge">
<title>Node22&#45;&gt;Node23</title>
<g id="a_edge61_Node000022_Node000023"><a xlink:title=" ">
<path fill="none" stroke="#63b8ff" d="M805.03,-384.98C842.5,-375.87 902.05,-361.4 942.98,-351.45"/>
<polygon fill="#63b8ff" stroke="#63b8ff" points="943.81,-354.85 952.7,-349.08 942.16,-348.04 943.81,-354.85"/>
</a>
</g>
</g>
<!-- Node23&#45;&gt;Node3 -->
<g id="edge63_Node000023_Node000003" class="edge">
<title>Node23&#45;&gt;Node3</title>
<g id="a_edge63_Node000023_Node000003"><a xlink:title=" ">
<path fill="none" stroke="#63b8ff" d="M1049.08,-335.85C1109.48,-331.71 1203.81,-321.11 1281,-294 1327.03,-277.83 1342.97,-274.9 1376,-239 1417.53,-193.87 1446.22,-167.54 1425,-110 1420.94,-98.99 1412.81,-88.86 1405.1,-81.05"/>
<polygon fill="#63b8ff" stroke="#63b8ff" points="1407.39,-78.39 1397.71,-74.07 1402.58,-83.48 1407.39,-78.39"/>
</a>
</g>
</g>
<!-- Node23&#45;&gt;Node5 -->
<g id="edge62_Node000023_Node000005" class="edge">
<title>Node23&#45;&gt;Node5</title>
<g id="a_edge62_Node000023_Node000005"><a xlink:title=" ">
<path fill="none" stroke="#63b8ff" d="M1049.21,-335.12C1126.62,-328.06 1260.79,-306.27 1352,-239 1375.32,-221.8 1378.9,-211.82 1387,-184 1391.24,-169.43 1390.92,-152.16 1389.72,-139.32"/>
<polygon fill="#63b8ff" stroke="#63b8ff" points="1393.19,-138.86 1388.53,-129.35 1386.24,-139.69 1393.19,-138.86"/>
</a>
</g>
</g>
<!-- Node23&#45;&gt;Node7 -->
<g id="edge65_Node000023_Node000007" class="edge">
<title>Node23&#45;&gt;Node7</title>
<g id="a_edge65_Node000023_Node000007"><a xlink:title=" ">
<path fill="none" stroke="#63b8ff" d="M949.28,-329.98C907.59,-320.82 841.18,-306.21 795.91,-296.26"/>
<polygon fill="#63b8ff" stroke="#63b8ff" points="796.54,-292.81 786.02,-294.08 795.04,-299.65 796.54,-292.81"/>
</a>
</g>
</g>
<!-- Node23&#45;&gt;Node12 -->
<g id="edge66_Node000023_Node000012" class="edge">
<title>Node23&#45;&gt;Node12</title>
<g id="a_edge66_Node000023_Node000012"><a xlink:title=" ">
<path fill="none" stroke="#63b8ff" d="M994.71,-329.66C1008.35,-311.69 1039.52,-270.64 1057.18,-247.38"/>
<polygon fill="#63b8ff" stroke="#63b8ff" points="1060.17,-249.24 1063.43,-239.16 1054.59,-245.01 1060.17,-249.24"/>
</a>
</g>
</g>
<!-- Node23&#45;&gt;Node16 -->
<g id="edge64_Node000023_Node000016" class="edge">
<title>Node23&#45;&gt;Node16</title>
<g id="a_edge64_Node000023_Node000016"><a xlink:title=" ">
<path fill="none" stroke="#63b8ff" d="M989.2,-329.83C991.98,-310.18 999.29,-260.81 1008,-220 1018.57,-170.48 1034.43,-112.93 1042.64,-84.05"/>
<polygon fill="#63b8ff" stroke="#63b8ff" points="1046.09,-84.73 1045.48,-74.15 1039.36,-82.8 1046.09,-84.73"/>
</a>
</g>
</g>
<!-- Node23&#45;&gt;Node17 -->
<g id="edge67_Node000023_Node000017" class="edge">
<title>Node23&#45;&gt;Node17</title>
<g id="a_edge67_Node000023_Node000017"><a xlink:title=" ">
<path fill="none" stroke="#63b8ff" d="M969.78,-329.97C912.6,-303.18 736.42,-220.66 667.78,-188.51"/>
<polygon fill="#63b8ff" stroke="#63b8ff" points="669,-185.22 658.46,-184.15 666.03,-191.56 669,-185.22"/>
</a>
</g>
</g>
<!-- Node24&#45;&gt;Node2 -->
<g id="edge71_Node000024_Node000002" class="edge">
<title>Node24&#45;&gt;Node2</title>
<g id="a_edge71_Node000024_Node000002"><a xlink:title=" ">
<path fill="none" stroke="#63b8ff" d="M1148.22,-503.54C960.94,-502.84 348.25,-493.62 177,-404 89.46,-358.19 38,-329.31 38,-230.5 38,-230.5 38,-230.5 38,-118.5 38,-46.82 141.46,-22.12 195.69,-14.1"/>
<polygon fill="#63b8ff" stroke="#63b8ff" points="196.4,-17.53 205.83,-12.71 195.45,-10.6 196.4,-17.53"/>
</a>
</g>
</g>
<!-- Node24&#45;&gt;Node3 -->
<g id="edge73_Node000024_Node000003" class="edge">
<title>Node24&#45;&gt;Node3</title>
<g id="a_edge73_Node000024_Node000003"><a xlink:title=" ">
<path fill="none" stroke="#63b8ff" d="M1257.79,-501.64C1334.24,-498.02 1467.87,-487.69 1506,-459 1548.91,-426.71 1544.63,-401.49 1556,-349 1578.83,-243.59 1594.14,-182.17 1514,-110 1487.68,-86.29 1447.98,-75.06 1419.99,-69.84"/>
<polygon fill="#63b8ff" stroke="#63b8ff" points="1420.33,-66.35 1409.89,-68.12 1419.16,-73.25 1420.33,-66.35"/>
</a>
</g>
</g>
<!-- Node24&#45;&gt;Node4 -->
<g id="edge74_Node000024_Node000004" class="edge">
<title>Node24&#45;&gt;Node4</title>
<g id="a_edge74_Node000024_Node000004"><a xlink:title=" ">
<path fill="none" stroke="#63b8ff" d="M1257.72,-500.78C1338.3,-495.99 1484.29,-484.08 1530,-459 1674.74,-379.6 1770,-340.59 1770,-175.5 1770,-175.5 1770,-175.5 1770,-118.5 1770,-28.79 1061.36,-13.29 896.83,-10.9"/>
<polygon fill="#63b8ff" stroke="#63b8ff" points="896.84,-7.4 886.79,-10.76 896.74,-14.4 896.84,-7.4"/>
</a>
</g>
</g>
<!-- Node24&#45;&gt;Node5 -->
<g id="edge72_Node000024_Node000005" class="edge">
<title>Node24&#45;&gt;Node5</title>
<g id="a_edge72_Node000024_Node000005"><a xlink:title=" ">
<path fill="none" stroke="#63b8ff" d="M1257.55,-501.65C1329.81,-498.09 1451.97,-487.87 1485,-459 1507.18,-439.61 1504,-424.96 1504,-395.5 1504,-395.5 1504,-395.5 1504,-338.5 1504,-260.93 1568.53,-227.8 1523,-165 1501.12,-134.82 1458.17,-124.73 1426.37,-121.55"/>
<polygon fill="#63b8ff" stroke="#63b8ff" points="1426.3,-118.03 1416.05,-120.72 1425.74,-125.01 1426.3,-118.03"/>
</a>
</g>
</g>
<!-- Node24&#45;&gt;Node7 -->
<g id="edge79_Node000024_Node000007" class="edge">
<title>Node24&#45;&gt;Node7</title>
<g id="a_edge79_Node000024_Node000007"><a xlink:title=" ">
<path fill="none" stroke="#63b8ff" d="M1185.12,-494.95C1115.11,-461.48 859.26,-339.17 774.49,-298.64"/>
<polygon fill="#63b8ff" stroke="#63b8ff" points="775.78,-295.38 765.25,-294.22 772.76,-301.69 775.78,-295.38"/>
</a>
</g>
</g>
<!-- Node24&#45;&gt;Node10 -->
<g id="edge75_Node000024_Node000010" class="edge">
<title>Node24&#45;&gt;Node10</title>
<g id="a_edge75_Node000024_Node000010"><a xlink:title=" ">
<path fill="none" stroke="#63b8ff" d="M1257.65,-503.42C1358.67,-502.38 1569.99,-495.73 1632,-459 1759.6,-383.42 1808,-323.81 1808,-175.5 1808,-175.5 1808,-175.5 1808,-118.5 1808,-88.33 1807.45,-73.99 1784,-55 1748.96,-26.63 1623.97,-16.23 1549.68,-12.5"/>
<polygon fill="#63b8ff" stroke="#63b8ff" points="1549.71,-9 1539.55,-12.02 1549.37,-15.99 1549.71,-9"/>
</a>
</g>
</g>
<!-- Node24&#45;&gt;Node12 -->
<g id="edge83_Node000024_Node000012" class="edge">
<title>Node24&#45;&gt;Node12</title>
<g id="a_edge83_Node000024_Node000012"><a xlink:title=" ">
<path fill="none" stroke="#63b8ff" d="M1198.73,-494.73C1179.93,-456.14 1104.39,-301.09 1078.65,-248.25"/>
<polygon fill="#63b8ff" stroke="#63b8ff" points="1081.72,-246.56 1074.19,-239.11 1075.43,-249.63 1081.72,-246.56"/>
</a>
</g>
</g>
<!-- Node24&#45;&gt;Node17 -->
<g id="edge81_Node000024_Node000017" class="edge">
<title>Node24&#45;&gt;Node17</title>
<g id="a_edge81_Node000024_Node000017"><a xlink:title=" ">
<path fill="none" stroke="#63b8ff" d="M1148.27,-501.11C1028.71,-494.65 750.14,-472.42 691,-404 637.68,-342.31 636.61,-236.99 638.64,-194.3"/>
<polygon fill="#63b8ff" stroke="#63b8ff" points="642.14,-194.41 639.24,-184.22 635.15,-193.99 642.14,-194.41"/>
</a>
</g>
</g>
<!-- Node24&#45;&gt;Node21 -->
<g id="edge80_Node000024_Node000021" class="edge">
<title>Node24&#45;&gt;Node21</title>
<g id="a_edge80_Node000024_Node000021"><a xlink:title=" ">
<path fill="none" stroke="#63b8ff" d="M1148.38,-499.23C1030.47,-490.01 751.37,-468.2 610.08,-457.15"/>
<polygon fill="#63b8ff" stroke="#63b8ff" points="609.98,-453.63 599.74,-456.34 609.44,-460.61 609.98,-453.63"/>
</a>
</g>
</g>
<!-- Node24&#45;&gt;Node22 -->
<g id="edge82_Node000024_Node000022" class="edge">
<title>Node24&#45;&gt;Node22</title>
<g id="a_edge82_Node000024_Node000022"><a xlink:title=" ">
<path fill="none" stroke="#63b8ff" d="M1148.28,-502.25C1083.02,-499.33 971.41,-489.81 881,-459 846.8,-447.34 811.22,-424.84 789.84,-410"/>
<polygon fill="#63b8ff" stroke="#63b8ff" points="791.78,-407.08 781.59,-404.16 787.73,-412.79 791.78,-407.08"/>
</a>
</g>
</g>
<!-- Node25 -->
<g id="Node000025" class="node">
<title>Node25</title>
<g id="a_Node000025"><a xlink:title=" ">
<polygon fill="#e0e0e0" stroke="#999999" points="1268,-459 1200,-459 1200,-440 1268,-440 1268,-459"/>
<text text-anchor="middle" x="1234" y="-447" font-family="Helvetica,sans-Serif" font-size="10.00">filesystem</text>
</a>
</g>
</g>
<!-- Node24&#45;&gt;Node25 -->
<g id="edge76_Node000024_Node000025" class="edge">
<title>Node24&#45;&gt;Node25</title>
<g id="a_edge76_Node000024_Node000025"><a xlink:title=" ">
<path fill="none" stroke="#63b8ff" d="M1208.12,-494.75C1212.36,-487.49 1218.53,-476.95 1223.78,-467.98"/>
<polygon fill="#63b8ff" stroke="#63b8ff" points="1226.95,-469.49 1228.98,-459.09 1220.91,-465.95 1226.95,-469.49"/>
</a>
</g>
</g>
<!-- Node26 -->
<g id="Node000026" class="node">
<title>Node26</title>
<g id="a_Node000026"><a xlink:title=" ">
<polygon fill="#e0e0e0" stroke="#999999" points="1355.5,-459 1286.5,-459 1286.5,-440 1355.5,-440 1355.5,-459"/>
<text text-anchor="middle" x="1321" y="-447" font-family="Helvetica,sans-Serif" font-size="10.00">verilated.h</text>
</a>
</g>
</g>
<!-- Node24&#45;&gt;Node26 -->
<g id="edge77_Node000024_Node000026" class="edge">
<title>Node24&#45;&gt;Node26</title>
<g id="a_edge77_Node000024_Node000026"><a xlink:title=" ">
<path fill="none" stroke="#63b8ff" d="M1221.96,-494.98C1241.03,-486.42 1270.66,-473.11 1292.55,-463.28"/>
<polygon fill="#63b8ff" stroke="#63b8ff" points="1294.01,-466.46 1301.7,-459.17 1291.14,-460.07 1294.01,-466.46"/>
</a>
</g>
</g>
<!-- Node27 -->
<g id="Node000027" class="node">
<title>Node27</title>
<g id="a_Node000027"><a xlink:title=" ">
<polygon fill="#e0e0e0" stroke="#999999" points="1476,-459 1374,-459 1374,-440 1476,-440 1476,-459"/>
<text text-anchor="middle" x="1425" y="-447" font-family="Helvetica,sans-Serif" font-size="10.00">verilated_vcd_c.h</text>
</a>
</g>
</g>
<!-- Node24&#45;&gt;Node27 -->
<g id="edge78_Node000024_Node000027" class="edge">
<title>Node24&#45;&gt;Node27</title>
<g id="a_edge78_Node000024_Node000027"><a xlink:title=" ">
<path fill="none" stroke="#63b8ff" d="M1238.67,-494.98C1276.83,-485.87 1337.47,-471.4 1379.15,-461.45"/>
<polygon fill="#63b8ff" stroke="#63b8ff" points="1380.14,-464.81 1389.05,-459.08 1378.51,-458 1380.14,-464.81"/>
</a>
</g>
</g>
</g>
</svg>
