<?xml version="1.0" encoding="UTF-8" standalone="no"?>
<!DOCTYPE svg PUBLIC "-//W3C//DTD SVG 1.1//EN"
 "http://www.w3.org/Graphics/SVG/1.1/DTD/svg11.dtd">
<!-- Generated by graphviz version 2.43.0 (0)
 -->
<!-- Title: include/Reporter/reporter.h Pages: 1 -->
<!--zoomable 247 -->

<svg id="main" version="1.1" xmlns="http://www.w3.org/2000/svg" xmlns:xlink="http://www.w3.org/1999/xlink" xml:space="preserve" onload="init(evt)">
<style type="text/css"><![CDATA[
.node, .edge {opacity: 0.7;}
.node.selected, .edge.selected {opacity: 1;}
.edge:hover path { stroke: red; }
.edge:hover polygon { stroke: red; fill: red; }
]]></style>

<defs>
  <circle id="rim" cx="0" cy="0" r="7"/>
  <circle id="rim2" cx="0" cy="0" r="3.5"/>
  <g id="zoomPlus">
    <use xlink:href="#rim" fill="#404040"><set attributeName="fill" to="#808080" begin="zoomplus.mouseover" end="zoomplus.mouseout"/></use>
    <path d="M-4,0h8M0,-4v8" fill="none" stroke="white" stroke-width="1.5" pointer-events="none"/>
  </g>
  <g id="zoomMin">
    <use xlink:href="#rim" fill="#404040"><set attributeName="fill" to="#808080" begin="zoomminus.mouseover" end="zoomminus.mouseout"/></use>
    <path d="M-4,0h8" fill="none" stroke="white" stroke-width="1.5" pointer-events="none"/>
  </g>
  <g id="arrowUp" transform="translate(30 24)">
    <use xlink:href="#rim"/>
    <path pointer-events="none" fill="none" stroke="white" stroke-width="1.5" d="M0,-3.0v7 M-2.5,-0.5L0,-3.0L2.5,-0.5"/>
  </g>
  <g id="arrowRight" transform="rotate(90) translate(36 -43)">
    <use xlink:href="#rim"/>
    <path pointer-events="none" fill="none" stroke="white" stroke-width="1.5" d="M0,-3.0v7 M-2.5,-0.5L0,-3.0L2.5,-0.5"/>
  </g>
  <g id="arrowDown" transform="rotate(180) translate(-30 -48)">
    <use xlink:href="#rim"/>
    <path pointer-events="none" fill="none" stroke="white" stroke-width="1.5" d="M0,-3.0v7 M-2.5,-0.5L0,-3.0L2.5,-0.5"/>
  </g>
  <g id="arrowLeft" transform="rotate(270) translate(-36 17)">
    <use xlink:href="#rim"/>
    <path pointer-events="none" fill="none" stroke="white" stroke-width="1.5" d="M0,-3.0v7 M-2.5,-0.5L0,-3.0L2.5,-0.5"/>
  </g>
  <g id="resetDef">
    <use xlink:href="#rim2" fill="#404040"><set attributeName="fill" to="#808080" begin="reset.mouseover" end="reset.mouseout"/></use>
  </g>
</defs>
<script type="application/ecmascript">
var viewWidth = 831;
var viewHeight = 247;
var sectionId = 'dynsection-0';
</script>
<script type="application/ecmascript" xlink:href="svg.min.js"/>
<svg id="graph" class="graph">
<g id="viewport">
<title>include/Reporter/reporter.h</title>
<!-- Node1 -->
<g id="Node000001" class="node">
<title>Node1</title>
<g id="a_Node000001"><a xlink:title=" ">
<polygon fill="#999999" stroke="#666666" points="321.6,-239 174.6,-239 174.6,-220 321.6,-220 321.6,-239"/>
<text text-anchor="middle" x="248.1" y="-227" font-family="Helvetica,sans-Serif" font-size="10.00">include/Reporter/reporter.h</text>
</a>
</g>
</g>
<!-- Node2 -->
<g id="Node000002" class="node">
<title>Node2</title>
<g id="a_Node000002"><a xlink:title=" ">
<polygon fill="#e0e0e0" stroke="#999999" points="76.1,-129 18.1,-129 18.1,-110 76.1,-110 76.1,-129"/>
<text text-anchor="middle" x="47.1" y="-117" font-family="Helvetica,sans-Serif" font-size="10.00">memory</text>
</a>
</g>
</g>
<!-- Node1&#45;&gt;Node2 -->
<g id="edge1_Node000001_Node000002" class="edge">
<title>Node1&#45;&gt;Node2</title>
<g id="a_edge1_Node000001_Node000002"><a xlink:title=" ">
<path fill="none" stroke="#63b8ff" d="M231.99,-219.84C196.99,-201.04 113.79,-156.33 71.98,-133.87"/>
<polygon fill="#63b8ff" stroke="#63b8ff" points="73.47,-130.7 63.01,-129.05 70.16,-136.86 73.47,-130.7"/>
</a>
</g>
</g>
<!-- Node3 -->
<g id="Node000003" class="node">
<title>Node3</title>
<g id="a_Node000003"><a xlink:title=" ">
<polygon fill="#e0e0e0" stroke="#999999" points="272.1,-19 228.1,-19 228.1,0 272.1,0 272.1,-19"/>
<text text-anchor="middle" x="250.1" y="-7" font-family="Helvetica,sans-Serif" font-size="10.00">string</text>
</a>
</g>
</g>
<!-- Node1&#45;&gt;Node3 -->
<g id="edge2_Node000001_Node000003" class="edge">
<title>Node1&#45;&gt;Node3</title>
<g id="a_edge2_Node000001_Node000003"><a xlink:title=" ">
<path fill="none" stroke="#63b8ff" d="M174.23,-220.29C89.04,-207.53 -34.09,-177.07 9.1,-110 55.16,-38.46 163.51,-18.33 217.84,-12.69"/>
<polygon fill="#63b8ff" stroke="#63b8ff" points="218.33,-16.16 227.96,-11.74 217.67,-9.19 218.33,-16.16"/>
</a>
</g>
</g>
<!-- Node4 -->
<g id="Node000004" class="node">
<title>Node4</title>
<g id="a_Node000004"><a xlink:title=" ">
<polygon fill="#e0e0e0" stroke="#999999" points="822.6,-74 777.6,-74 777.6,-55 822.6,-55 822.6,-74"/>
<text text-anchor="middle" x="800.1" y="-62" font-family="Helvetica,sans-Serif" font-size="10.00">utility</text>
</a>
</g>
</g>
<!-- Node1&#45;&gt;Node4 -->
<g id="edge3_Node000001_Node000004" class="edge">
<title>Node1&#45;&gt;Node4</title>
<g id="a_edge3_Node000001_Node000004"><a xlink:title=" ">
<path fill="none" stroke="#63b8ff" d="M321.93,-222.3C416.2,-212.26 582.73,-187.32 713.1,-129 739.84,-117.04 766.44,-95.93 783.05,-81.35"/>
<polygon fill="#63b8ff" stroke="#63b8ff" points="785.68,-83.7 790.78,-74.41 781,-78.49 785.68,-83.7"/>
</a>
</g>
</g>
<!-- Node5 -->
<g id="Node000005" class="node">
<title>Node5</title>
<g id="a_Node000005"><a xlink:href="transaction_8h_source.html" target="_top" xlink:title=" ">
<polygon fill="white" stroke="#666666" points="419.6,-184 280.6,-184 280.6,-165 419.6,-165 419.6,-184"/>
<text text-anchor="middle" x="350.1" y="-172" font-family="Helvetica,sans-Serif" font-size="10.00">Transaction/transaction.h</text>
</a>
</g>
</g>
<!-- Node1&#45;&gt;Node5 -->
<g id="edge4_Node000001_Node000005" class="edge">
<title>Node1&#45;&gt;Node5</title>
<g id="a_edge4_Node000001_Node000005"><a xlink:title=" ">
<path fill="none" stroke="#63b8ff" d="M264.49,-219.98C280.67,-211.57 305.67,-198.59 324.48,-188.81"/>
<polygon fill="#63b8ff" stroke="#63b8ff" points="326.15,-191.89 333.41,-184.17 322.92,-185.68 326.15,-191.89"/>
</a>
</g>
</g>
<!-- Node5&#45;&gt;Node2 -->
<g id="edge8_Node000005_Node000002" class="edge">
<title>Node5&#45;&gt;Node2</title>
<g id="a_edge8_Node000005_Node000002"><a xlink:title=" ">
<path fill="none" stroke="#63b8ff" d="M297.74,-164.94C245.18,-156.26 161.93,-142.24 90.1,-129 88.84,-128.77 87.55,-128.53 86.26,-128.28"/>
<polygon fill="#63b8ff" stroke="#63b8ff" points="86.7,-124.81 76.22,-126.36 85.39,-131.68 86.7,-124.81"/>
</a>
</g>
</g>
<!-- Node5&#45;&gt;Node3 -->
<g id="edge5_Node000005_Node000003" class="edge">
<title>Node5&#45;&gt;Node3</title>
<g id="a_edge5_Node000005_Node000003"><a xlink:title=" ">
<path fill="none" stroke="#63b8ff" d="M280.35,-169.33C221.16,-164.17 142.78,-152.92 123.1,-129 87.51,-85.76 170.39,-42.9 218.58,-22.62"/>
<polygon fill="#63b8ff" stroke="#63b8ff" points="220.07,-25.79 228,-18.75 217.42,-19.31 220.07,-25.79"/>
</a>
</g>
</g>
<!-- Node5&#45;&gt;Node4 -->
<g id="edge6_Node000005_Node000004" class="edge">
<title>Node5&#45;&gt;Node4</title>
<g id="a_edge6_Node000005_Node000004"><a xlink:title=" ">
<path fill="none" stroke="#63b8ff" d="M419.86,-170.88C487.11,-166.76 591.05,-156.18 677.1,-129 714.73,-117.12 754.69,-94.35 778.51,-79.55"/>
<polygon fill="#63b8ff" stroke="#63b8ff" points="780.51,-82.43 787.1,-74.13 776.78,-76.51 780.51,-82.43"/>
</a>
</g>
</g>
<!-- Node6 -->
<g id="Node000006" class="node">
<title>Node6</title>
<g id="a_Node000006"><a xlink:title=" ">
<polygon fill="#e0e0e0" stroke="#999999" points="657.6,-19 610.6,-19 610.6,0 657.6,0 657.6,-19"/>
<text text-anchor="middle" x="634.1" y="-7" font-family="Helvetica,sans-Serif" font-size="10.00">vector</text>
</a>
</g>
</g>
<!-- Node5&#45;&gt;Node6 -->
<g id="edge7_Node000005_Node000006" class="edge">
<title>Node5&#45;&gt;Node6</title>
<g id="a_edge7_Node000005_Node000006"><a xlink:title=" ">
<path fill="none" stroke="#63b8ff" d="M353.82,-164.75C357.51,-155.86 363.17,-141.63 367.1,-129 377.16,-96.68 360.44,-78.18 385.1,-55 415.66,-26.27 539.26,-15.64 600.03,-12.09"/>
<polygon fill="#63b8ff" stroke="#63b8ff" points="600.47,-15.57 610.26,-11.53 600.09,-8.58 600.47,-15.57"/>
</a>
</g>
</g>
<!-- Node7 -->
<g id="Node000007" class="node">
<title>Node7</title>
<g id="a_Node000007"><a xlink:title=" ">
<polygon fill="#e0e0e0" stroke="#999999" points="180.1,-129 132.1,-129 132.1,-110 180.1,-110 180.1,-129"/>
<text text-anchor="middle" x="156.1" y="-117" font-family="Helvetica,sans-Serif" font-size="10.00">mutex</text>
</a>
</g>
</g>
<!-- Node5&#45;&gt;Node7 -->
<g id="edge9_Node000005_Node000007" class="edge">
<title>Node5&#45;&gt;Node7</title>
<g id="a_edge9_Node000005_Node000007"><a xlink:title=" ">
<path fill="none" stroke="#63b8ff" d="M318.93,-164.98C283.59,-155.33 226.17,-139.64 189.8,-129.71"/>
<polygon fill="#63b8ff" stroke="#63b8ff" points="190.71,-126.33 180.14,-127.07 188.87,-133.08 190.71,-126.33"/>
</a>
</g>
</g>
<!-- Node8 -->
<g id="Node000008" class="node">
<title>Node8</title>
<g id="a_Node000008"><a xlink:title=" ">
<polygon fill="#e0e0e0" stroke="#999999" points="432.1,-74 394.1,-74 394.1,-55 432.1,-55 432.1,-74"/>
<text text-anchor="middle" x="413.1" y="-62" font-family="Helvetica,sans-Serif" font-size="10.00">map</text>
</a>
</g>
</g>
<!-- Node5&#45;&gt;Node8 -->
<g id="edge10_Node000005_Node000008" class="edge">
<title>Node5&#45;&gt;Node8</title>
<g id="a_edge10_Node000005_Node000008"><a xlink:title=" ">
<path fill="none" stroke="#63b8ff" d="M364.24,-164.7C375.73,-156.79 391.4,-144.1 400.1,-129 407.92,-115.43 411.08,-97.84 412.33,-84.61"/>
<polygon fill="#63b8ff" stroke="#63b8ff" points="415.85,-84.54 413.02,-74.33 408.86,-84.07 415.85,-84.54"/>
</a>
</g>
</g>
<!-- Node9 -->
<g id="Node000009" class="node">
<title>Node9</title>
<g id="a_Node000009"><a xlink:title=" ">
<polygon fill="#e0e0e0" stroke="#999999" points="254.1,-129 198.1,-129 198.1,-110 254.1,-110 254.1,-129"/>
<text text-anchor="middle" x="226.1" y="-117" font-family="Helvetica,sans-Serif" font-size="10.00">optional</text>
</a>
</g>
</g>
<!-- Node5&#45;&gt;Node9 -->
<g id="edge11_Node000005_Node000009" class="edge">
<title>Node5&#45;&gt;Node9</title>
<g id="a_edge11_Node000005_Node000009"><a xlink:title=" ">
<path fill="none" stroke="#63b8ff" d="M330.18,-164.98C310.05,-156.38 278.72,-142.99 255.69,-133.15"/>
<polygon fill="#63b8ff" stroke="#63b8ff" points="256.95,-129.88 246.38,-129.17 254.2,-136.32 256.95,-129.88"/>
</a>
</g>
</g>
<!-- Node10 -->
<g id="Node000010" class="node">
<title>Node10</title>
<g id="a_Node000010"><a xlink:title=" ">
<polygon fill="#e0e0e0" stroke="#999999" points="515.6,-74 450.6,-74 450.6,-55 515.6,-55 515.6,-74"/>
<text text-anchor="middle" x="483.1" y="-62" font-family="Helvetica,sans-Serif" font-size="10.00">functional</text>
</a>
</g>
</g>
<!-- Node5&#45;&gt;Node10 -->
<g id="edge12_Node000005_Node000010" class="edge">
<title>Node5&#45;&gt;Node10</title>
<g id="a_edge12_Node000005_Node000010"><a xlink:title=" ">
<path fill="none" stroke="#63b8ff" d="M364.47,-165C378.4,-156.52 399.89,-142.81 417.1,-129 435.59,-114.17 454.92,-95.08 467.85,-81.72"/>
<polygon fill="#63b8ff" stroke="#63b8ff" points="470.63,-83.88 475,-74.23 465.56,-79.04 470.63,-83.88"/>
</a>
</g>
</g>
<!-- Node11 -->
<g id="Node000011" class="node">
<title>Node11</title>
<g id="a_Node000011"><a xlink:href="types_8h.html" target="_top" xlink:title=" ">
<polygon fill="white" stroke="#666666" points="759.6,-74 670.6,-74 670.6,-55 759.6,-55 759.6,-74"/>
<text text-anchor="middle" x="715.1" y="-62" font-family="Helvetica,sans-Serif" font-size="10.00">Library/types.h</text>
</a>
</g>
</g>
<!-- Node5&#45;&gt;Node11 -->
<g id="edge13_Node000005_Node000011" class="edge">
<title>Node5&#45;&gt;Node11</title>
<g id="a_edge13_Node000005_Node000011"><a xlink:title=" ">
<path fill="none" stroke="#63b8ff" d="M419.72,-168.16C495.39,-161.48 610.77,-148.51 650.1,-129 671.87,-118.2 690.97,-97.41 702.74,-82.56"/>
<polygon fill="#63b8ff" stroke="#63b8ff" points="705.81,-84.3 709.07,-74.22 700.24,-80.07 705.81,-84.3"/>
</a>
</g>
</g>
<!-- Node13 -->
<g id="Node000013" class="node">
<title>Node13</title>
<g id="a_Node000013"><a xlink:href="error_8h.html" target="_top" xlink:title=" ">
<polygon fill="white" stroke="#666666" points="357.6,-129 272.6,-129 272.6,-110 357.6,-110 357.6,-129"/>
<text text-anchor="middle" x="315.1" y="-117" font-family="Helvetica,sans-Serif" font-size="10.00">Library/error.h</text>
</a>
</g>
</g>
<!-- Node5&#45;&gt;Node13 -->
<g id="edge17_Node000005_Node000013" class="edge">
<title>Node5&#45;&gt;Node13</title>
<g id="a_edge17_Node000005_Node000013"><a xlink:title=" ">
<path fill="none" stroke="#63b8ff" d="M344.32,-164.75C339.48,-157.42 332.42,-146.73 326.45,-137.7"/>
<polygon fill="#63b8ff" stroke="#63b8ff" points="329.2,-135.5 320.77,-129.09 323.36,-139.36 329.2,-135.5"/>
</a>
</g>
</g>
<!-- Node15 -->
<g id="Node000015" class="node">
<title>Node15</title>
<g id="a_Node000015"><a xlink:href="evaluate_8h.html" target="_top" xlink:title=" ">
<polygon fill="white" stroke="#666666" points="641.1,-129 523.1,-129 523.1,-110 641.1,-110 641.1,-129"/>
<text text-anchor="middle" x="582.1" y="-117" font-family="Helvetica,sans-Serif" font-size="10.00">Evaluator/evaluate.h</text>
</a>
</g>
</g>
<!-- Node5&#45;&gt;Node15 -->
<g id="edge20_Node000005_Node000015" class="edge">
<title>Node5&#45;&gt;Node15</title>
<g id="a_edge20_Node000005_Node000015"><a xlink:title=" ">
<path fill="none" stroke="#63b8ff" d="M387.37,-164.98C427.42,-155.84 491.17,-141.27 534.74,-131.32"/>
<polygon fill="#63b8ff" stroke="#63b8ff" points="535.56,-134.72 544.53,-129.08 534,-127.9 535.56,-134.72"/>
</a>
</g>
</g>
<!-- Node11&#45;&gt;Node3 -->
<g id="edge16_Node000011_Node000003" class="edge">
<title>Node11&#45;&gt;Node3</title>
<g id="a_edge16_Node000011_Node000003"><a xlink:title=" ">
<path fill="none" stroke="#63b8ff" d="M670.51,-58.42C577.4,-47.81 364.19,-23.5 282.64,-14.21"/>
<polygon fill="#63b8ff" stroke="#63b8ff" points="282.81,-10.71 272.48,-13.05 282.02,-17.66 282.81,-10.71"/>
</a>
</g>
</g>
<!-- Node11&#45;&gt;Node6 -->
<g id="edge14_Node000011_Node000006" class="edge">
<title>Node11&#45;&gt;Node6</title>
<g id="a_edge14_Node000011_Node000006"><a xlink:title=" ">
<path fill="none" stroke="#63b8ff" d="M702.08,-54.98C689.64,-46.84 670.64,-34.41 655.89,-24.76"/>
<polygon fill="#63b8ff" stroke="#63b8ff" points="657.63,-21.72 647.35,-19.17 653.8,-27.57 657.63,-21.72"/>
</a>
</g>
</g>
<!-- Node12 -->
<g id="Node000012" class="node">
<title>Node12</title>
<g id="a_Node000012"><a xlink:title=" ">
<polygon fill="#e0e0e0" stroke="#999999" points="768.6,-19 675.6,-19 675.6,0 768.6,0 768.6,-19"/>
<text text-anchor="middle" x="722.1" y="-7" font-family="Helvetica,sans-Serif" font-size="10.00">unordered_map</text>
</a>
</g>
</g>
<!-- Node11&#45;&gt;Node12 -->
<g id="edge15_Node000011_Node000012" class="edge">
<title>Node11&#45;&gt;Node12</title>
<g id="a_edge15_Node000011_Node000012"><a xlink:title=" ">
<path fill="none" stroke="#63b8ff" d="M716.25,-54.75C717.17,-47.8 718.49,-37.85 719.64,-29.13"/>
<polygon fill="#63b8ff" stroke="#63b8ff" points="723.12,-29.46 720.96,-19.09 716.18,-28.54 723.12,-29.46"/>
</a>
</g>
</g>
<!-- Node13&#45;&gt;Node3 -->
<g id="edge18_Node000013_Node000003" class="edge">
<title>Node13&#45;&gt;Node3</title>
<g id="a_edge18_Node000013_Node000003"><a xlink:title=" ">
<path fill="none" stroke="#63b8ff" d="M303.24,-109.9C292.83,-101.75 277.99,-88.62 269.1,-74 260.69,-60.17 255.79,-42.38 253.07,-29.14"/>
<polygon fill="#63b8ff" stroke="#63b8ff" points="256.51,-28.5 251.28,-19.29 249.63,-29.75 256.51,-28.5"/>
</a>
</g>
</g>
<!-- Node14 -->
<g id="Node000014" class="node">
<title>Node14</title>
<g id="a_Node000014"><a xlink:title=" ">
<polygon fill="#e0e0e0" stroke="#999999" points="338.1,-74 278.1,-74 278.1,-55 338.1,-55 338.1,-74"/>
<text text-anchor="middle" x="308.1" y="-62" font-family="Helvetica,sans-Serif" font-size="10.00">iostream</text>
</a>
</g>
</g>
<!-- Node13&#45;&gt;Node14 -->
<g id="edge19_Node000013_Node000014" class="edge">
<title>Node13&#45;&gt;Node14</title>
<g id="a_edge19_Node000013_Node000014"><a xlink:title=" ">
<path fill="none" stroke="#63b8ff" d="M313.94,-109.75C313.03,-102.8 311.71,-92.85 310.56,-84.13"/>
<polygon fill="#63b8ff" stroke="#63b8ff" points="314.01,-83.54 309.23,-74.09 307.07,-84.46 314.01,-83.54"/>
</a>
</g>
</g>
<!-- Node15&#45;&gt;Node3 -->
<g id="edge23_Node000015_Node000003" class="edge">
<title>Node15&#45;&gt;Node3</title>
<g id="a_edge23_Node000015_Node000003"><a xlink:title=" ">
<path fill="none" stroke="#63b8ff" d="M577.07,-109.82C568.41,-95.74 549.28,-68.21 525.1,-55 483.77,-32.43 346.19,-18.45 282.71,-13.05"/>
<polygon fill="#63b8ff" stroke="#63b8ff" points="282.72,-9.54 272.47,-12.2 282.14,-16.51 282.72,-9.54"/>
</a>
</g>
</g>
<!-- Node15&#45;&gt;Node4 -->
<g id="edge21_Node000015_Node000004" class="edge">
<title>Node15&#45;&gt;Node4</title>
<g id="a_edge21_Node000015_Node000004"><a xlink:title=" ">
<path fill="none" stroke="#63b8ff" d="M619.8,-109.92C655.56,-101.7 711.05,-88.72 767.61,-74.32"/>
<polygon fill="#63b8ff" stroke="#63b8ff" points="768.61,-77.68 777.44,-71.81 766.88,-70.9 768.61,-77.68"/>
</a>
</g>
</g>
<!-- Node15&#45;&gt;Node6 -->
<g id="edge22_Node000015_Node000006" class="edge">
<title>Node15&#45;&gt;Node6</title>
<g id="a_edge22_Node000015_Node000006"><a xlink:title=" ">
<path fill="none" stroke="#63b8ff" d="M593.03,-109.85C602.56,-101.67 615.95,-88.51 623.1,-74 629.99,-60.03 632.64,-42.47 633.62,-29.36"/>
<polygon fill="#63b8ff" stroke="#63b8ff" points="637.12,-29.35 634.12,-19.19 630.13,-29.01 637.12,-29.35"/>
</a>
</g>
</g>
<!-- Node15&#45;&gt;Node8 -->
<g id="edge26_Node000015_Node000008" class="edge">
<title>Node15&#45;&gt;Node8</title>
<g id="a_edge26_Node000015_Node000008"><a xlink:title=" ">
<path fill="none" stroke="#63b8ff" d="M554.95,-109.98C523.96,-100.27 473.5,-84.44 441.86,-74.52"/>
<polygon fill="#63b8ff" stroke="#63b8ff" points="442.89,-71.17 432.3,-71.52 440.79,-77.85 442.89,-71.17"/>
</a>
</g>
</g>
<!-- Node15&#45;&gt;Node10 -->
<g id="edge24_Node000015_Node000010" class="edge">
<title>Node15&#45;&gt;Node10</title>
<g id="a_edge24_Node000015_Node000010"><a xlink:title=" ">
<path fill="none" stroke="#63b8ff" d="M566.19,-109.98C550.55,-101.61 526.44,-88.7 508.21,-78.95"/>
<polygon fill="#63b8ff" stroke="#63b8ff" points="509.76,-75.8 499.29,-74.17 506.46,-81.98 509.76,-75.8"/>
</a>
</g>
</g>
<!-- Node15&#45;&gt;Node11 -->
<g id="edge27_Node000015_Node000011" class="edge">
<title>Node15&#45;&gt;Node11</title>
<g id="a_edge27_Node000015_Node000011"><a xlink:title=" ">
<path fill="none" stroke="#63b8ff" d="M603.47,-109.98C625.25,-101.3 659.26,-87.75 684.02,-77.88"/>
<polygon fill="#63b8ff" stroke="#63b8ff" points="685.35,-81.12 693.34,-74.17 682.76,-74.62 685.35,-81.12"/>
</a>
</g>
</g>
<!-- Node16 -->
<g id="Node000016" class="node">
<title>Node16</title>
<g id="a_Node000016"><a xlink:title=" ">
<polygon fill="#e0e0e0" stroke="#999999" points="613.6,-74 572.6,-74 572.6,-55 613.6,-55 613.6,-74"/>
<text text-anchor="middle" x="593.1" y="-62" font-family="Helvetica,sans-Serif" font-size="10.00">tuple</text>
</a>
</g>
</g>
<!-- Node15&#45;&gt;Node16 -->
<g id="edge25_Node000015_Node000016" class="edge">
<title>Node15&#45;&gt;Node16</title>
<g id="a_edge25_Node000015_Node000016"><a xlink:title=" ">
<path fill="none" stroke="#63b8ff" d="M583.91,-109.75C585.36,-102.8 587.42,-92.85 589.23,-84.13"/>
<polygon fill="#63b8ff" stroke="#63b8ff" points="592.71,-84.59 591.32,-74.09 585.86,-83.17 592.71,-84.59"/>
</a>
</g>
</g>
</g>
</svg>

<g id="navigator" transform="translate(0 0)" fill="#404254">
  <rect fill="#f2f5e9" fill-opacity="0.5" stroke="#606060" stroke-width=".5" x="0" y="0" width="60" height="60"/>
  <use id="zoomplus" xlink:href="#zoomPlus" x="17" y="9" onmousedown="handleZoom(evt,'in')"/>
  <use id="zoomminus" xlink:href="#zoomMin" x="42" y="9" onmousedown="handleZoom(evt,'out')"/>
  <use id="reset" xlink:href="#resetDef" x="30" y="36" onmousedown="handleReset()"/>
   <use id="arrowup" xlink:href="#arrowUp" x="0" y="0" onmousedown="handlePan(0,-1)"/>
  <use id="arrowright" xlink:href="#arrowRight" x="0" y="0" onmousedown="handlePan(1,0)"/>
  <use id="arrowdown" xlink:href="#arrowDown" x="0" y="0" onmousedown="handlePan(0,1)"/>
  <use id="arrowleft" xlink:href="#arrowLeft" x="0" y="0" onmousedown="handlePan(-1,0)"/>
</g>
<svg viewBox="0 0 15 15" width="100%" height="30px" preserveAspectRatio="xMaxYMin meet">
 <g id="arrow_out" transform="scale(0.3 0.3)">
  <a xlink:href="reporter_8h__incl_org.svg" target="_base">
   <rect id="button" ry="5" rx="5" y="6" x="6" height="38" width="38"
        fill="#f2f5e9" fill-opacity="0.5" stroke="#606060" stroke-width="1.0"/>
   <path id="arrow"
     d="M 11.500037,31.436501 C 11.940474,20.09759 22.043105,11.32322 32.158766,21.979434 L 37.068811,17.246167 C 37.068811,17.246167 37.088388,32 37.088388,32 L 22.160133,31.978069 C 22.160133,31.978069 26.997745,27.140456 26.997745,27.140456 C 18.528582,18.264221 13.291696,25.230495 11.500037,31.436501 z"
     style="fill:#404040;"/>
  </a>
 </g>
</svg>

<style type='text/css'>
<![CDATA[
[data-mouse-over-selected='false'] { opacity: 0.7; }
[data-mouse-over-selected='true']  { opacity: 1.0; }
]]>
</style>
<script type="application/ecmascript"><![CDATA[
document.addEventListener('DOMContentLoaded', (event) => {
  highlightEdges();
  highlightAdjacentNodes();
});
]]></script>
</svg>
