<?xml version="1.0" encoding="UTF-8" standalone="no"?>
<!DOCTYPE svg PUBLIC "-//W3C//DTD SVG 1.1//EN"
 "http://www.w3.org/Graphics/SVG/1.1/DTD/svg11.dtd">
<!-- Generated by graphviz version 2.43.0 (0)
 -->
<!-- Title: src/Reporter/reporter.cpp Pages: 1 -->
<!--zoomable 302 -->

<svg id="main" version="1.1" xmlns="http://www.w3.org/2000/svg" xmlns:xlink="http://www.w3.org/1999/xlink" xml:space="preserve" onload="init(evt)">
<style type="text/css"><![CDATA[
.node, .edge {opacity: 0.7;}
.node.selected, .edge.selected {opacity: 1;}
.edge:hover path { stroke: red; }
.edge:hover polygon { stroke: red; fill: red; }
]]></style>

<defs>
  <circle id="rim" cx="0" cy="0" r="7"/>
  <circle id="rim2" cx="0" cy="0" r="3.5"/>
  <g id="zoomPlus">
    <use xlink:href="#rim" fill="#404040"><set attributeName="fill" to="#808080" begin="zoomplus.mouseover" end="zoomplus.mouseout"/></use>
    <path d="M-4,0h8M0,-4v8" fill="none" stroke="white" stroke-width="1.5" pointer-events="none"/>
  </g>
  <g id="zoomMin">
    <use xlink:href="#rim" fill="#404040"><set attributeName="fill" to="#808080" begin="zoomminus.mouseover" end="zoomminus.mouseout"/></use>
    <path d="M-4,0h8" fill="none" stroke="white" stroke-width="1.5" pointer-events="none"/>
  </g>
  <g id="arrowUp" transform="translate(30 24)">
    <use xlink:href="#rim"/>
    <path pointer-events="none" fill="none" stroke="white" stroke-width="1.5" d="M0,-3.0v7 M-2.5,-0.5L0,-3.0L2.5,-0.5"/>
  </g>
  <g id="arrowRight" transform="rotate(90) translate(36 -43)">
    <use xlink:href="#rim"/>
    <path pointer-events="none" fill="none" stroke="white" stroke-width="1.5" d="M0,-3.0v7 M-2.5,-0.5L0,-3.0L2.5,-0.5"/>
  </g>
  <g id="arrowDown" transform="rotate(180) translate(-30 -48)">
    <use xlink:href="#rim"/>
    <path pointer-events="none" fill="none" stroke="white" stroke-width="1.5" d="M0,-3.0v7 M-2.5,-0.5L0,-3.0L2.5,-0.5"/>
  </g>
  <g id="arrowLeft" transform="rotate(270) translate(-36 17)">
    <use xlink:href="#rim"/>
    <path pointer-events="none" fill="none" stroke="white" stroke-width="1.5" d="M0,-3.0v7 M-2.5,-0.5L0,-3.0L2.5,-0.5"/>
  </g>
  <g id="resetDef">
    <use xlink:href="#rim2" fill="#404040"><set attributeName="fill" to="#808080" begin="reset.mouseover" end="reset.mouseout"/></use>
  </g>
</defs>
<script type="application/ecmascript">
var viewWidth = 839;
var viewHeight = 302;
var sectionId = 'dynsection-0';
</script>
<script type="application/ecmascript" xlink:href="svg.min.js"/>
<svg id="graph" class="graph">
<g id="viewport">
<title>src/Reporter/reporter.cpp</title>
<!-- Node1 -->
<g id="Node000001" class="node">
<title>Node1</title>
<g id="a_Node000001"><a xlink:title=" ">
<polygon fill="#999999" stroke="#666666" points="655.5,-294 518.5,-294 518.5,-275 655.5,-275 655.5,-294"/>
<text text-anchor="middle" x="587" y="-282" font-family="Helvetica,sans-Serif" font-size="10.00">src/Reporter/reporter.cpp</text>
</a>
</g>
</g>
<!-- Node2 -->
<g id="Node000002" class="node">
<title>Node2</title>
<g id="a_Node000002"><a xlink:href="reporter_8h.html" target="_top" xlink:title=" ">
<polygon fill="white" stroke="#666666" points="402.5,-239 293.5,-239 293.5,-220 402.5,-220 402.5,-239"/>
<text text-anchor="middle" x="348" y="-227" font-family="Helvetica,sans-Serif" font-size="10.00">Reporter/reporter.h</text>
</a>
</g>
</g>
<!-- Node1&#45;&gt;Node2 -->
<g id="edge1_Node000001_Node000002" class="edge">
<title>Node1&#45;&gt;Node2</title>
<g id="a_edge1_Node000001_Node000002"><a xlink:title=" ">
<path fill="none" stroke="#63b8ff" d="M548.6,-274.98C507.26,-265.82 441.4,-251.21 396.51,-241.26"/>
<polygon fill="#63b8ff" stroke="#63b8ff" points="397.22,-237.83 386.7,-239.08 395.71,-244.66 397.22,-237.83"/>
</a>
</g>
</g>
<!-- Node4 -->
<g id="Node000004" class="node">
<title>Node4</title>
<g id="a_Node000004"><a xlink:title=" ">
<polygon fill="#e0e0e0" stroke="#999999" points="174,-19 130,-19 130,0 174,0 174,-19"/>
<text text-anchor="middle" x="152" y="-7" font-family="Helvetica,sans-Serif" font-size="10.00">string</text>
</a>
</g>
</g>
<!-- Node1&#45;&gt;Node4 -->
<g id="edge32_Node000001_Node000004" class="edge">
<title>Node1&#45;&gt;Node4</title>
<g id="a_edge32_Node000001_Node000004"><a xlink:title=" ">
<path fill="none" stroke="#63b8ff" d="M518.23,-277.97C363.22,-264.59 0,-227.67 0,-175.5 0,-175.5 0,-175.5 0,-118.5 0,-60.09 75.52,-30.36 120.09,-17.91"/>
<polygon fill="#63b8ff" stroke="#63b8ff" points="121.13,-21.25 129.9,-15.3 119.33,-14.49 121.13,-21.25"/>
</a>
</g>
</g>
<!-- Node7 -->
<g id="Node000007" class="node">
<title>Node7</title>
<g id="a_Node000007"><a xlink:title=" ">
<polygon fill="#e0e0e0" stroke="#999999" points="752,-74 692,-74 692,-55 752,-55 752,-74"/>
<text text-anchor="middle" x="722" y="-62" font-family="Helvetica,sans-Serif" font-size="10.00">iostream</text>
</a>
</g>
</g>
<!-- Node1&#45;&gt;Node7 -->
<g id="edge30_Node000001_Node000007" class="edge">
<title>Node1&#45;&gt;Node7</title>
<g id="a_edge30_Node000001_Node000007"><a xlink:title=" ">
<path fill="none" stroke="#63b8ff" d="M652.34,-274.93C699.71,-267.5 758.57,-255.36 777,-239 821.89,-199.15 849.21,-160.65 817,-110 804.82,-90.85 781.99,-79.8 761.76,-73.5"/>
<polygon fill="#63b8ff" stroke="#63b8ff" points="762.68,-70.12 752.1,-70.77 760.78,-76.86 762.68,-70.12"/>
</a>
</g>
</g>
<!-- Node18 -->
<g id="Node000018" class="node">
<title>Node18</title>
<g id="a_Node000018"><a xlink:title=" ">
<polygon fill="#e0e0e0" stroke="#999999" points="614.5,-239 559.5,-239 559.5,-220 614.5,-220 614.5,-239"/>
<text text-anchor="middle" x="587" y="-227" font-family="Helvetica,sans-Serif" font-size="10.00">fstream</text>
</a>
</g>
</g>
<!-- Node1&#45;&gt;Node18 -->
<g id="edge31_Node000001_Node000018" class="edge">
<title>Node1&#45;&gt;Node18</title>
<g id="a_edge31_Node000001_Node000018"><a xlink:title=" ">
<path fill="none" stroke="#63b8ff" d="M587,-274.75C587,-267.8 587,-257.85 587,-249.13"/>
<polygon fill="#63b8ff" stroke="#63b8ff" points="590.5,-249.09 587,-239.09 583.5,-249.09 590.5,-249.09"/>
</a>
</g>
</g>
<!-- Node19 -->
<g id="Node000019" class="node">
<title>Node19</title>
<g id="a_Node000019"><a xlink:title=" ">
<polygon fill="#e0e0e0" stroke="#999999" points="681.5,-239 632.5,-239 632.5,-220 681.5,-220 681.5,-239"/>
<text text-anchor="middle" x="657" y="-227" font-family="Helvetica,sans-Serif" font-size="10.00">cstdlib</text>
</a>
</g>
</g>
<!-- Node1&#45;&gt;Node19 -->
<g id="edge33_Node000001_Node000019" class="edge">
<title>Node1&#45;&gt;Node19</title>
<g id="a_edge33_Node000001_Node000019"><a xlink:title=" ">
<path fill="none" stroke="#63b8ff" d="M598.25,-274.98C608.8,-267 624.8,-254.88 637.44,-245.31"/>
<polygon fill="#63b8ff" stroke="#63b8ff" points="639.69,-248 645.55,-239.17 635.46,-242.42 639.69,-248"/>
</a>
</g>
</g>
<!-- Node20 -->
<g id="Node000020" class="node">
<title>Node20</title>
<g id="a_Node000020"><a xlink:title=" ">
<polygon fill="#e0e0e0" stroke="#999999" points="768,-239 700,-239 700,-220 768,-220 768,-239"/>
<text text-anchor="middle" x="734" y="-227" font-family="Helvetica,sans-Serif" font-size="10.00">filesystem</text>
</a>
</g>
</g>
<!-- Node1&#45;&gt;Node20 -->
<g id="edge34_Node000001_Node000020" class="edge">
<title>Node1&#45;&gt;Node20</title>
<g id="a_edge34_Node000001_Node000020"><a xlink:title=" ">
<path fill="none" stroke="#63b8ff" d="M610.62,-274.98C634.9,-266.23 672.95,-252.51 700.37,-242.62"/>
<polygon fill="#63b8ff" stroke="#63b8ff" points="701.73,-245.85 709.95,-239.17 699.36,-239.27 701.73,-245.85"/>
</a>
</g>
</g>
<!-- Node21 -->
<g id="Node000021" class="node">
<title>Node21</title>
<g id="a_Node000021"><a xlink:href="database_8h.html" target="_top" xlink:title=" ">
<polygon fill="white" stroke="#666666" points="541,-239 421,-239 421,-220 541,-220 541,-239"/>
<text text-anchor="middle" x="481" y="-227" font-family="Helvetica,sans-Serif" font-size="10.00">Database/database.h</text>
</a>
</g>
</g>
<!-- Node1&#45;&gt;Node21 -->
<g id="edge35_Node000001_Node000021" class="edge">
<title>Node1&#45;&gt;Node21</title>
<g id="a_edge35_Node000001_Node000021"><a xlink:title=" ">
<path fill="none" stroke="#63b8ff" d="M569.97,-274.98C553.07,-266.54 526.94,-253.47 507.36,-243.68"/>
<polygon fill="#63b8ff" stroke="#63b8ff" points="508.85,-240.51 498.34,-239.17 505.72,-246.77 508.85,-240.51"/>
</a>
</g>
</g>
<!-- Node3 -->
<g id="Node000003" class="node">
<title>Node3</title>
<g id="a_Node000003"><a xlink:title=" ">
<polygon fill="#e0e0e0" stroke="#999999" points="808,-129 750,-129 750,-110 808,-110 808,-129"/>
<text text-anchor="middle" x="779" y="-117" font-family="Helvetica,sans-Serif" font-size="10.00">memory</text>
</a>
</g>
</g>
<!-- Node2&#45;&gt;Node3 -->
<g id="edge2_Node000002_Node000003" class="edge">
<title>Node2&#45;&gt;Node3</title>
<g id="a_edge2_Node000002_Node000003"><a xlink:title=" ">
<path fill="none" stroke="#63b8ff" d="M382.18,-219.94C461.21,-200.13 656.21,-151.27 739.86,-130.31"/>
<polygon fill="#63b8ff" stroke="#63b8ff" points="740.88,-133.66 749.73,-127.83 739.18,-126.87 740.88,-133.66"/>
</a>
</g>
</g>
<!-- Node2&#45;&gt;Node4 -->
<g id="edge3_Node000002_Node000004" class="edge">
<title>Node2&#45;&gt;Node4</title>
<g id="a_edge3_Node000002_Node000004"><a xlink:title=" ">
<path fill="none" stroke="#63b8ff" d="M293.2,-223.46C253.28,-218.02 198.89,-206.83 156,-184 124.35,-167.16 120.76,-155.84 97,-129 72.22,-101.01 36.94,-86.55 57,-55 70.75,-33.37 98.09,-22.08 119.92,-16.29"/>
<polygon fill="#63b8ff" stroke="#63b8ff" points="120.89,-19.66 129.8,-13.93 119.26,-12.85 120.89,-19.66"/>
</a>
</g>
</g>
<!-- Node5 -->
<g id="Node000005" class="node">
<title>Node5</title>
<g id="a_Node000005"><a xlink:title=" ">
<polygon fill="#e0e0e0" stroke="#999999" points="111.5,-74 66.5,-74 66.5,-55 111.5,-55 111.5,-74"/>
<text text-anchor="middle" x="89" y="-62" font-family="Helvetica,sans-Serif" font-size="10.00">utility</text>
</a>
</g>
</g>
<!-- Node2&#45;&gt;Node5 -->
<g id="edge4_Node000002_Node000005" class="edge">
<title>Node2&#45;&gt;Node5</title>
<g id="a_edge4_Node000002_Node000005"><a xlink:title=" ">
<path fill="none" stroke="#63b8ff" d="M300.19,-219.91C247.65,-208.11 163.98,-182.01 113,-129 101.14,-116.67 95.01,-97.9 91.93,-83.96"/>
<polygon fill="#63b8ff" stroke="#63b8ff" points="95.35,-83.21 90.06,-74.03 88.47,-84.51 95.35,-83.21"/>
</a>
</g>
</g>
<!-- Node6 -->
<g id="Node000006" class="node">
<title>Node6</title>
<g id="a_Node000006"><a xlink:href="transaction_8h_source.html" target="_top" xlink:title=" ">
<polygon fill="white" stroke="#666666" points="511.5,-184 372.5,-184 372.5,-165 511.5,-165 511.5,-184"/>
<text text-anchor="middle" x="442" y="-172" font-family="Helvetica,sans-Serif" font-size="10.00">Transaction/transaction.h</text>
</a>
</g>
</g>
<!-- Node2&#45;&gt;Node6 -->
<g id="edge5_Node000002_Node000006" class="edge">
<title>Node2&#45;&gt;Node6</title>
<g id="a_edge5_Node000002_Node000006"><a xlink:title=" ">
<path fill="none" stroke="#63b8ff" d="M363.1,-219.98C377.82,-211.69 400.42,-198.94 417.67,-189.22"/>
<polygon fill="#63b8ff" stroke="#63b8ff" points="419.63,-192.13 426.62,-184.17 416.19,-186.03 419.63,-192.13"/>
</a>
</g>
</g>
<!-- Node6&#45;&gt;Node3 -->
<g id="edge11_Node000006_Node000003" class="edge">
<title>Node6&#45;&gt;Node3</title>
<g id="a_edge11_Node000006_Node000003"><a xlink:title=" ">
<path fill="none" stroke="#63b8ff" d="M503.79,-164.97C563.37,-156.55 656.03,-142.95 736,-129 737.27,-128.78 738.55,-128.55 739.85,-128.32"/>
<polygon fill="#63b8ff" stroke="#63b8ff" points="740.7,-131.72 749.89,-126.44 739.42,-124.84 740.7,-131.72"/>
</a>
</g>
</g>
<!-- Node6&#45;&gt;Node4 -->
<g id="edge8_Node000006_Node000004" class="edge">
<title>Node6&#45;&gt;Node4</title>
<g id="a_edge8_Node000006_Node000004"><a xlink:title=" ">
<path fill="none" stroke="#63b8ff" d="M372.38,-167.79C310.92,-161.49 227.15,-149.44 201,-129 169.38,-104.29 158,-55.63 154.03,-29"/>
<polygon fill="#63b8ff" stroke="#63b8ff" points="157.5,-28.53 152.74,-19.06 150.55,-29.43 157.5,-28.53"/>
</a>
</g>
</g>
<!-- Node6&#45;&gt;Node5 -->
<g id="edge9_Node000006_Node000005" class="edge">
<title>Node6&#45;&gt;Node5</title>
<g id="a_edge9_Node000006_Node000005"><a xlink:title=" ">
<path fill="none" stroke="#63b8ff" d="M372.29,-169.34C295.15,-163.69 176.61,-151.6 138,-129 119.84,-118.37 106.04,-98.16 97.79,-83.39"/>
<polygon fill="#63b8ff" stroke="#63b8ff" points="100.72,-81.44 92.97,-74.21 94.52,-84.69 100.72,-81.44"/>
</a>
</g>
</g>
<!-- Node6&#45;&gt;Node7 -->
<g id="edge6_Node000006_Node000007" class="edge">
<title>Node6&#45;&gt;Node7</title>
<g id="a_edge6_Node000006_Node000007"><a xlink:title=" ">
<path fill="none" stroke="#63b8ff" d="M511.78,-165.43C584.16,-156.47 688.78,-141.59 703,-129 715.51,-117.93 719.94,-98.99 721.43,-84.67"/>
<polygon fill="#63b8ff" stroke="#63b8ff" points="724.95,-84.62 722.1,-74.41 717.96,-84.17 724.95,-84.62"/>
</a>
</g>
</g>
<!-- Node8 -->
<g id="Node000008" class="node">
<title>Node8</title>
<g id="a_Node000008"><a xlink:title=" ">
<polygon fill="#e0e0e0" stroke="#999999" points="440,-129 392,-129 392,-110 440,-110 440,-129"/>
<text text-anchor="middle" x="416" y="-117" font-family="Helvetica,sans-Serif" font-size="10.00">mutex</text>
</a>
</g>
</g>
<!-- Node6&#45;&gt;Node8 -->
<g id="edge7_Node000006_Node000008" class="edge">
<title>Node6&#45;&gt;Node8</title>
<g id="a_edge7_Node000006_Node000008"><a xlink:title=" ">
<path fill="none" stroke="#63b8ff" d="M437.71,-164.75C434.19,-157.57 429.09,-147.18 424.72,-138.27"/>
<polygon fill="#63b8ff" stroke="#63b8ff" points="427.76,-136.53 420.21,-129.09 421.48,-139.61 427.76,-136.53"/>
</a>
</g>
</g>
<!-- Node9 -->
<g id="Node000009" class="node">
<title>Node9</title>
<g id="a_Node000009"><a xlink:title=" ">
<polygon fill="#e0e0e0" stroke="#999999" points="406.5,-19 359.5,-19 359.5,0 406.5,0 406.5,-19"/>
<text text-anchor="middle" x="383" y="-7" font-family="Helvetica,sans-Serif" font-size="10.00">vector</text>
</a>
</g>
</g>
<!-- Node6&#45;&gt;Node9 -->
<g id="edge10_Node000006_Node000009" class="edge">
<title>Node6&#45;&gt;Node9</title>
<g id="a_edge10_Node000006_Node000009"><a xlink:title=" ">
<path fill="none" stroke="#63b8ff" d="M492.81,-164.98C531.13,-157.39 579.06,-145.02 591,-129 596.04,-122.23 593.2,-118.15 591,-110 583.63,-82.7 581.59,-72.02 559,-55 516.9,-23.27 454.67,-14.01 416.6,-11.4"/>
<polygon fill="#63b8ff" stroke="#63b8ff" points="416.72,-7.9 406.54,-10.82 416.32,-14.89 416.72,-7.9"/>
</a>
</g>
</g>
<!-- Node10 -->
<g id="Node000010" class="node">
<title>Node10</title>
<g id="a_Node000010"><a xlink:title=" ">
<polygon fill="#e0e0e0" stroke="#999999" points="449,-74 411,-74 411,-55 449,-55 449,-74"/>
<text text-anchor="middle" x="430" y="-62" font-family="Helvetica,sans-Serif" font-size="10.00">map</text>
</a>
</g>
</g>
<!-- Node6&#45;&gt;Node10 -->
<g id="edge12_Node000006_Node000010" class="edge">
<title>Node6&#45;&gt;Node10</title>
<g id="a_edge12_Node000006_Node000010"><a xlink:title=" ">
<path fill="none" stroke="#63b8ff" d="M422.73,-164.9C408.88,-157.55 391.24,-145.54 383,-129 373.88,-110.71 391.31,-92.19 407.46,-79.91"/>
<polygon fill="#63b8ff" stroke="#63b8ff" points="409.52,-82.74 415.65,-74.1 405.47,-77.04 409.52,-82.74"/>
</a>
</g>
</g>
<!-- Node11 -->
<g id="Node000011" class="node">
<title>Node11</title>
<g id="a_Node000011"><a xlink:title=" ">
<polygon fill="#e0e0e0" stroke="#999999" points="694,-129 638,-129 638,-110 694,-110 694,-129"/>
<text text-anchor="middle" x="666" y="-117" font-family="Helvetica,sans-Serif" font-size="10.00">optional</text>
</a>
</g>
</g>
<!-- Node6&#45;&gt;Node11 -->
<g id="edge13_Node000006_Node000011" class="edge">
<title>Node6&#45;&gt;Node11</title>
<g id="a_edge13_Node000006_Node000011"><a xlink:title=" ">
<path fill="none" stroke="#63b8ff" d="M477.99,-164.98C519.12,-155.25 586.14,-139.39 628.07,-129.47"/>
<polygon fill="#63b8ff" stroke="#63b8ff" points="628.97,-132.86 637.9,-127.15 627.36,-126.05 628.97,-132.86"/>
</a>
</g>
</g>
<!-- Node12 -->
<g id="Node000012" class="node">
<title>Node12</title>
<g id="a_Node000012"><a xlink:title=" ">
<polygon fill="#e0e0e0" stroke="#999999" points="532.5,-74 467.5,-74 467.5,-55 532.5,-55 532.5,-74"/>
<text text-anchor="middle" x="500" y="-62" font-family="Helvetica,sans-Serif" font-size="10.00">functional</text>
</a>
</g>
</g>
<!-- Node6&#45;&gt;Node12 -->
<g id="edge14_Node000006_Node000012" class="edge">
<title>Node6&#45;&gt;Node12</title>
<g id="a_edge14_Node000006_Node000012"><a xlink:title=" ">
<path fill="none" stroke="#63b8ff" d="M446.75,-164.66C456.31,-146.85 478.05,-106.37 490.6,-83.01"/>
<polygon fill="#63b8ff" stroke="#63b8ff" points="493.7,-84.62 495.35,-74.16 487.54,-81.31 493.7,-84.62"/>
</a>
</g>
</g>
<!-- Node13 -->
<g id="Node000013" class="node">
<title>Node13</title>
<g id="a_Node000013"><a xlink:href="types_8h.html" target="_top" xlink:title=" ">
<polygon fill="white" stroke="#666666" points="295.5,-74 206.5,-74 206.5,-55 295.5,-55 295.5,-74"/>
<text text-anchor="middle" x="251" y="-62" font-family="Helvetica,sans-Serif" font-size="10.00">Library/types.h</text>
</a>
</g>
</g>
<!-- Node6&#45;&gt;Node13 -->
<g id="edge15_Node000006_Node000013" class="edge">
<title>Node6&#45;&gt;Node13</title>
<g id="a_edge15_Node000006_Node000013"><a xlink:title=" ">
<path fill="none" stroke="#63b8ff" d="M372.49,-169.77C311.52,-164.86 229.47,-153.75 209,-129 196.09,-113.39 213.7,-93.71 229.9,-80.43"/>
<polygon fill="#63b8ff" stroke="#63b8ff" points="232.3,-83 238.08,-74.12 228.03,-77.45 232.3,-83"/>
</a>
</g>
</g>
<!-- Node15 -->
<g id="Node000015" class="node">
<title>Node15</title>
<g id="a_Node000015"><a xlink:href="error_8h.html" target="_top" xlink:title=" ">
<polygon fill="white" stroke="#666666" points="581.5,-129 496.5,-129 496.5,-110 581.5,-110 581.5,-129"/>
<text text-anchor="middle" x="539" y="-117" font-family="Helvetica,sans-Serif" font-size="10.00">Library/error.h</text>
</a>
</g>
</g>
<!-- Node6&#45;&gt;Node15 -->
<g id="edge19_Node000006_Node000015" class="edge">
<title>Node6&#45;&gt;Node15</title>
<g id="a_edge19_Node000006_Node000015"><a xlink:title=" ">
<path fill="none" stroke="#63b8ff" d="M457.58,-164.98C472.77,-156.69 496.1,-143.94 513.9,-134.22"/>
<polygon fill="#63b8ff" stroke="#63b8ff" points="516.03,-137.04 523.13,-129.17 512.68,-130.89 516.03,-137.04"/>
</a>
</g>
</g>
<!-- Node16 -->
<g id="Node000016" class="node">
<title>Node16</title>
<g id="a_Node000016"><a xlink:href="evaluate_8h.html" target="_top" xlink:title=" ">
<polygon fill="white" stroke="#666666" points="336,-129 218,-129 218,-110 336,-110 336,-129"/>
<text text-anchor="middle" x="277" y="-117" font-family="Helvetica,sans-Serif" font-size="10.00">Evaluator/evaluate.h</text>
</a>
</g>
</g>
<!-- Node6&#45;&gt;Node16 -->
<g id="edge22_Node000006_Node000016" class="edge">
<title>Node6&#45;&gt;Node16</title>
<g id="a_edge22_Node000006_Node000016"><a xlink:title=" ">
<path fill="none" stroke="#63b8ff" d="M415.49,-164.98C387.79,-156.09 344.14,-142.07 313.26,-132.15"/>
<polygon fill="#63b8ff" stroke="#63b8ff" points="314.31,-128.81 303.72,-129.08 312.17,-135.47 314.31,-128.81"/>
</a>
</g>
</g>
<!-- Node13&#45;&gt;Node4 -->
<g id="edge18_Node000013_Node000004" class="edge">
<title>Node13&#45;&gt;Node4</title>
<g id="a_edge18_Node000013_Node000004"><a xlink:title=" ">
<path fill="none" stroke="#63b8ff" d="M235.09,-54.98C219.45,-46.61 195.34,-33.7 177.12,-23.95"/>
<polygon fill="#63b8ff" stroke="#63b8ff" points="178.66,-20.8 168.2,-19.17 175.36,-26.98 178.66,-20.8"/>
</a>
</g>
</g>
<!-- Node13&#45;&gt;Node9 -->
<g id="edge16_Node000013_Node000009" class="edge">
<title>Node13&#45;&gt;Node9</title>
<g id="a_edge16_Node000013_Node000009"><a xlink:title=" ">
<path fill="none" stroke="#63b8ff" d="M272.21,-54.98C293.73,-46.34 327.28,-32.87 351.83,-23.02"/>
<polygon fill="#63b8ff" stroke="#63b8ff" points="353.43,-26.14 361.41,-19.17 350.82,-19.65 353.43,-26.14"/>
</a>
</g>
</g>
<!-- Node14 -->
<g id="Node000014" class="node">
<title>Node14</title>
<g id="a_Node000014"><a xlink:title=" ">
<polygon fill="#e0e0e0" stroke="#999999" points="297.5,-19 204.5,-19 204.5,0 297.5,0 297.5,-19"/>
<text text-anchor="middle" x="251" y="-7" font-family="Helvetica,sans-Serif" font-size="10.00">unordered_map</text>
</a>
</g>
</g>
<!-- Node13&#45;&gt;Node14 -->
<g id="edge17_Node000013_Node000014" class="edge">
<title>Node13&#45;&gt;Node14</title>
<g id="a_edge17_Node000013_Node000014"><a xlink:title=" ">
<path fill="none" stroke="#63b8ff" d="M251,-54.75C251,-47.8 251,-37.85 251,-29.13"/>
<polygon fill="#63b8ff" stroke="#63b8ff" points="254.5,-29.09 251,-19.09 247.5,-29.09 254.5,-29.09"/>
</a>
</g>
</g>
<!-- Node15&#45;&gt;Node4 -->
<g id="edge20_Node000015_Node000004" class="edge">
<title>Node15&#45;&gt;Node4</title>
<g id="a_edge20_Node000015_Node000004"><a xlink:title=" ">
<path fill="none" stroke="#63b8ff" d="M542.81,-109.84C548.1,-96.29 555.6,-70.08 542,-55 490.09,2.58 271.66,-30.53 195,-19 191.51,-18.47 187.87,-17.86 184.25,-17.21"/>
<polygon fill="#63b8ff" stroke="#63b8ff" points="184.73,-13.74 174.25,-15.3 183.42,-20.61 184.73,-13.74"/>
</a>
</g>
</g>
<!-- Node15&#45;&gt;Node7 -->
<g id="edge21_Node000015_Node000007" class="edge">
<title>Node15&#45;&gt;Node7</title>
<g id="a_edge21_Node000015_Node000007"><a xlink:title=" ">
<path fill="none" stroke="#63b8ff" d="M568.4,-109.98C599.39,-101.01 648.38,-86.82 682.67,-76.89"/>
<polygon fill="#63b8ff" stroke="#63b8ff" points="683.74,-80.23 692.37,-74.08 681.79,-73.5 683.74,-80.23"/>
</a>
</g>
</g>
<!-- Node16&#45;&gt;Node4 -->
<g id="edge25_Node000016_Node000004" class="edge">
<title>Node16&#45;&gt;Node4</title>
<g id="a_edge25_Node000016_Node000004"><a xlink:title=" ">
<path fill="none" stroke="#63b8ff" d="M256,-109.96C238.84,-102.29 214.63,-89.81 197,-74 182.27,-60.79 169.66,-41.91 161.57,-28.17"/>
<polygon fill="#63b8ff" stroke="#63b8ff" points="164.49,-26.22 156.52,-19.23 158.39,-29.66 164.49,-26.22"/>
</a>
</g>
</g>
<!-- Node16&#45;&gt;Node5 -->
<g id="edge23_Node000016_Node000005" class="edge">
<title>Node16&#45;&gt;Node5</title>
<g id="a_edge23_Node000016_Node000005"><a xlink:title=" ">
<path fill="none" stroke="#63b8ff" d="M246.79,-109.98C212.5,-100.32 156.76,-84.6 121.53,-74.67"/>
<polygon fill="#63b8ff" stroke="#63b8ff" points="122.31,-71.26 111.74,-71.91 120.42,-77.99 122.31,-71.26"/>
</a>
</g>
</g>
<!-- Node16&#45;&gt;Node9 -->
<g id="edge24_Node000016_Node000009" class="edge">
<title>Node16&#45;&gt;Node9</title>
<g id="a_edge24_Node000016_Node000009"><a xlink:title=" ">
<path fill="none" stroke="#63b8ff" d="M306.27,-109.87C324.93,-102.96 348.29,-91.5 363,-74 373.58,-61.42 378.57,-43.23 380.93,-29.53"/>
<polygon fill="#63b8ff" stroke="#63b8ff" points="384.44,-29.7 382.35,-19.31 377.5,-28.74 384.44,-29.7"/>
</a>
</g>
</g>
<!-- Node16&#45;&gt;Node10 -->
<g id="edge28_Node000016_Node000010" class="edge">
<title>Node16&#45;&gt;Node10</title>
<g id="a_edge28_Node000016_Node000010"><a xlink:title=" ">
<path fill="none" stroke="#63b8ff" d="M301.58,-109.98C328.78,-100.56 372.57,-85.39 401.32,-75.44"/>
<polygon fill="#63b8ff" stroke="#63b8ff" points="402.5,-78.73 410.81,-72.15 400.21,-72.11 402.5,-78.73"/>
</a>
</g>
</g>
<!-- Node16&#45;&gt;Node12 -->
<g id="edge26_Node000016_Node000012" class="edge">
<title>Node16&#45;&gt;Node12</title>
<g id="a_edge26_Node000016_Node000012"><a xlink:title=" ">
<path fill="none" stroke="#63b8ff" d="M312.83,-109.98C352.18,-100.63 415.35,-85.62 457.26,-75.66"/>
<polygon fill="#63b8ff" stroke="#63b8ff" points="458.25,-79.02 467.17,-73.3 456.63,-72.21 458.25,-79.02"/>
</a>
</g>
</g>
<!-- Node16&#45;&gt;Node13 -->
<g id="edge29_Node000016_Node000013" class="edge">
<title>Node16&#45;&gt;Node13</title>
<g id="a_edge29_Node000016_Node000013"><a xlink:title=" ">
<path fill="none" stroke="#63b8ff" d="M272.71,-109.75C269.19,-102.57 264.09,-92.18 259.72,-83.27"/>
<polygon fill="#63b8ff" stroke="#63b8ff" points="262.76,-81.53 255.21,-74.09 256.48,-84.61 262.76,-81.53"/>
</a>
</g>
</g>
<!-- Node17 -->
<g id="Node000017" class="node">
<title>Node17</title>
<g id="a_Node000017"><a xlink:title=" ">
<polygon fill="#e0e0e0" stroke="#999999" points="354.5,-74 313.5,-74 313.5,-55 354.5,-55 354.5,-74"/>
<text text-anchor="middle" x="334" y="-62" font-family="Helvetica,sans-Serif" font-size="10.00">tuple</text>
</a>
</g>
</g>
<!-- Node16&#45;&gt;Node17 -->
<g id="edge27_Node000016_Node000017" class="edge">
<title>Node16&#45;&gt;Node17</title>
<g id="a_edge27_Node000016_Node000017"><a xlink:title=" ">
<path fill="none" stroke="#63b8ff" d="M286.16,-109.98C294.5,-102.23 307.03,-90.58 317.18,-81.14"/>
<polygon fill="#63b8ff" stroke="#63b8ff" points="319.74,-83.54 324.68,-74.17 314.97,-78.42 319.74,-83.54"/>
</a>
</g>
</g>
<!-- Node21&#45;&gt;Node3 -->
<g id="edge36_Node000021_Node000003" class="edge">
<title>Node21&#45;&gt;Node3</title>
<g id="a_edge36_Node000021_Node000003"><a xlink:title=" ">
<path fill="none" stroke="#63b8ff" d="M504.63,-219.94C557.45,-200.79 685.16,-154.51 745.87,-132.51"/>
<polygon fill="#63b8ff" stroke="#63b8ff" points="747.16,-135.76 755.36,-129.07 744.77,-129.18 747.16,-135.76"/>
</a>
</g>
</g>
<!-- Node21&#45;&gt;Node6 -->
<g id="edge37_Node000021_Node000006" class="edge">
<title>Node21&#45;&gt;Node6</title>
<g id="a_edge37_Node000021_Node000006"><a xlink:title=" ">
<path fill="none" stroke="#63b8ff" d="M474.56,-219.75C469.11,-212.34 461.14,-201.5 454.44,-192.41"/>
<polygon fill="#63b8ff" stroke="#63b8ff" points="457.07,-190.07 448.32,-184.09 451.43,-194.22 457.07,-190.07"/>
</a>
</g>
</g>
</g>
</svg>

<g id="navigator" transform="translate(0 0)" fill="#404254">
  <rect fill="#f2f5e9" fill-opacity="0.5" stroke="#606060" stroke-width=".5" x="0" y="0" width="60" height="60"/>
  <use id="zoomplus" xlink:href="#zoomPlus" x="17" y="9" onmousedown="handleZoom(evt,'in')"/>
  <use id="zoomminus" xlink:href="#zoomMin" x="42" y="9" onmousedown="handleZoom(evt,'out')"/>
  <use id="reset" xlink:href="#resetDef" x="30" y="36" onmousedown="handleReset()"/>
   <use id="arrowup" xlink:href="#arrowUp" x="0" y="0" onmousedown="handlePan(0,-1)"/>
  <use id="arrowright" xlink:href="#arrowRight" x="0" y="0" onmousedown="handlePan(1,0)"/>
  <use id="arrowdown" xlink:href="#arrowDown" x="0" y="0" onmousedown="handlePan(0,1)"/>
  <use id="arrowleft" xlink:href="#arrowLeft" x="0" y="0" onmousedown="handlePan(-1,0)"/>
</g>
<svg viewBox="0 0 15 15" width="100%" height="30px" preserveAspectRatio="xMaxYMin meet">
 <g id="arrow_out" transform="scale(0.3 0.3)">
  <a xlink:href="reporter_8cpp__incl_org.svg" target="_base">
   <rect id="button" ry="5" rx="5" y="6" x="6" height="38" width="38"
        fill="#f2f5e9" fill-opacity="0.5" stroke="#606060" stroke-width="1.0"/>
   <path id="arrow"
     d="M 11.500037,31.436501 C 11.940474,20.09759 22.043105,11.32322 32.158766,21.979434 L 37.068811,17.246167 C 37.068811,17.246167 37.088388,32 37.088388,32 L 22.160133,31.978069 C 22.160133,31.978069 26.997745,27.140456 26.997745,27.140456 C 18.528582,18.264221 13.291696,25.230495 11.500037,31.436501 z"
     style="fill:#404040;"/>
  </a>
 </g>
</svg>

<style type='text/css'>
<![CDATA[
[data-mouse-over-selected='false'] { opacity: 0.7; }
[data-mouse-over-selected='true']  { opacity: 1.0; }
]]>
</style>
<script type="application/ecmascript"><![CDATA[
document.addEventListener('DOMContentLoaded', (event) => {
  highlightEdges();
  highlightAdjacentNodes();
});
]]></script>
</svg>
