<?xml version="1.0" encoding="UTF-8" standalone="no"?>
<!DOCTYPE svg PUBLIC "-//W3C//DTD SVG 1.1//EN"
 "http://www.w3.org/Graphics/SVG/1.1/DTD/svg11.dtd">
<!-- Generated by graphviz version 2.43.0 (0)
 -->
<!-- Title: src/Reporter/reporter.cpp Pages: 1 -->
<svg width="1120pt" height="302pt"
 viewBox="0.00 0.00 1120.00 302.00" xmlns="http://www.w3.org/2000/svg" xmlns:xlink="http://www.w3.org/1999/xlink">
<g id="graph0" class="graph" transform="scale(1 1) rotate(0) translate(4 298)">
<title>src/Reporter/reporter.cpp</title>
<!-- Node1 -->
<g id="Node000001" class="node">
<title>Node1</title>
<g id="a_Node000001"><a xlink:title=" ">
<polygon fill="#999999" stroke="#666666" points="943.5,-294 806.5,-294 806.5,-275 943.5,-275 943.5,-294"/>
<text text-anchor="middle" x="875" y="-282" font-family="Helvetica,sans-Serif" font-size="10.00">src/Reporter/reporter.cpp</text>
</a>
</g>
</g>
<!-- Node2 -->
<g id="Node000002" class="node">
<title>Node2</title>
<g id="a_Node000002"><a xlink:href="reporter_8h.html" target="_top" xlink:title=" ">
<polygon fill="white" stroke="#666666" points="808.5,-239 699.5,-239 699.5,-220 808.5,-220 808.5,-239"/>
<text text-anchor="middle" x="754" y="-227" font-family="Helvetica,sans-Serif" font-size="10.00">Reporter/reporter.h</text>
</a>
</g>
</g>
<!-- Node1&#45;&gt;Node2 -->
<g id="edge1_Node000001_Node000002" class="edge">
<title>Node1&#45;&gt;Node2</title>
<g id="a_edge1_Node000001_Node000002"><a xlink:title=" ">
<path fill="none" stroke="#63b8ff" d="M855.56,-274.98C836.01,-266.42 805.62,-253.11 783.18,-243.28"/>
<polygon fill="#63b8ff" stroke="#63b8ff" points="784.36,-239.98 773.79,-239.17 781.55,-246.39 784.36,-239.98"/>
</a>
</g>
</g>
<!-- Node4 -->
<g id="Node000004" class="node">
<title>Node4</title>
<g id="a_Node000004"><a xlink:title=" ">
<polygon fill="#e0e0e0" stroke="#999999" points="610,-19 566,-19 566,0 610,0 610,-19"/>
<text text-anchor="middle" x="588" y="-7" font-family="Helvetica,sans-Serif" font-size="10.00">string</text>
</a>
</g>
</g>
<!-- Node1&#45;&gt;Node4 -->
<g id="edge31_Node000001_Node000004" class="edge">
<title>Node1&#45;&gt;Node4</title>
<g id="a_edge31_Node000001_Node000004"><a xlink:title=" ">
<path fill="none" stroke="#63b8ff" d="M875,-274.82C875,-256.48 875,-212.44 875,-175.5 875,-175.5 875,-175.5 875,-118.5 875,-89.04 878.1,-74.48 856,-55 821.46,-24.57 683.77,-14.67 620.32,-11.69"/>
<polygon fill="#63b8ff" stroke="#63b8ff" points="620.23,-8.18 610.09,-11.24 619.92,-15.17 620.23,-8.18"/>
</a>
</g>
</g>
<!-- Node15 -->
<g id="Node000015" class="node">
<title>Node15</title>
<g id="a_Node000015"><a xlink:title=" ">
<polygon fill="#e0e0e0" stroke="#999999" points="847,-74 787,-74 787,-55 847,-55 847,-74"/>
<text text-anchor="middle" x="817" y="-62" font-family="Helvetica,sans-Serif" font-size="10.00">iostream</text>
</a>
</g>
</g>
<!-- Node1&#45;&gt;Node15 -->
<g id="edge29_Node000001_Node000015" class="edge">
<title>Node1&#45;&gt;Node15</title>
<g id="a_edge29_Node000001_Node000015"><a xlink:title=" ">
<path fill="none" stroke="#63b8ff" d="M872.06,-274.68C869.12,-265.73 864.54,-251.47 861,-239 845.13,-183.09 828.96,-116.27 821.4,-84.32"/>
<polygon fill="#63b8ff" stroke="#63b8ff" points="824.72,-83.14 819.03,-74.21 817.91,-84.75 824.72,-83.14"/>
</a>
</g>
</g>
<!-- Node18 -->
<g id="Node000018" class="node">
<title>Node18</title>
<g id="a_Node000018"><a xlink:title=" ">
<polygon fill="#e0e0e0" stroke="#999999" points="958.5,-239 903.5,-239 903.5,-220 958.5,-220 958.5,-239"/>
<text text-anchor="middle" x="931" y="-227" font-family="Helvetica,sans-Serif" font-size="10.00">fstream</text>
</a>
</g>
</g>
<!-- Node1&#45;&gt;Node18 -->
<g id="edge30_Node000001_Node000018" class="edge">
<title>Node1&#45;&gt;Node18</title>
<g id="a_edge30_Node000001_Node000018"><a xlink:title=" ">
<path fill="none" stroke="#63b8ff" d="M884,-274.98C892.19,-267.23 904.51,-255.58 914.47,-246.14"/>
<polygon fill="#63b8ff" stroke="#63b8ff" points="916.98,-248.59 921.84,-239.17 912.17,-243.5 916.98,-248.59"/>
</a>
</g>
</g>
<!-- Node19 -->
<g id="Node000019" class="node">
<title>Node19</title>
<g id="a_Node000019"><a xlink:title=" ">
<polygon fill="#e0e0e0" stroke="#999999" points="1025.5,-239 976.5,-239 976.5,-220 1025.5,-220 1025.5,-239"/>
<text text-anchor="middle" x="1001" y="-227" font-family="Helvetica,sans-Serif" font-size="10.00">cstdlib</text>
</a>
</g>
</g>
<!-- Node1&#45;&gt;Node19 -->
<g id="edge32_Node000001_Node000019" class="edge">
<title>Node1&#45;&gt;Node19</title>
<g id="a_edge32_Node000001_Node000019"><a xlink:title=" ">
<path fill="none" stroke="#63b8ff" d="M895.24,-274.98C915.7,-266.38 947.53,-252.99 970.93,-243.15"/>
<polygon fill="#63b8ff" stroke="#63b8ff" points="972.53,-246.27 980.39,-239.17 969.81,-239.82 972.53,-246.27"/>
</a>
</g>
</g>
<!-- Node20 -->
<g id="Node000020" class="node">
<title>Node20</title>
<g id="a_Node000020"><a xlink:title=" ">
<polygon fill="#e0e0e0" stroke="#999999" points="1112,-239 1044,-239 1044,-220 1112,-220 1112,-239"/>
<text text-anchor="middle" x="1078" y="-227" font-family="Helvetica,sans-Serif" font-size="10.00">filesystem</text>
</a>
</g>
</g>
<!-- Node1&#45;&gt;Node20 -->
<g id="edge33_Node000001_Node000020" class="edge">
<title>Node1&#45;&gt;Node20</title>
<g id="a_edge33_Node000001_Node000020"><a xlink:title=" ">
<path fill="none" stroke="#63b8ff" d="M907.62,-274.98C942.29,-265.93 997.26,-251.58 1035.35,-241.64"/>
<polygon fill="#63b8ff" stroke="#63b8ff" points="1036.34,-244.99 1045.13,-239.08 1034.57,-238.22 1036.34,-244.99"/>
</a>
</g>
</g>
<!-- Node21 -->
<g id="Node000021" class="node">
<title>Node21</title>
<g id="a_Node000021"><a xlink:href="database_8h.html" target="_top" xlink:title=" ">
<polygon fill="white" stroke="#666666" points="681,-239 561,-239 561,-220 681,-220 681,-239"/>
<text text-anchor="middle" x="621" y="-227" font-family="Helvetica,sans-Serif" font-size="10.00">Database/database.h</text>
</a>
</g>
</g>
<!-- Node1&#45;&gt;Node21 -->
<g id="edge34_Node000001_Node000021" class="edge">
<title>Node1&#45;&gt;Node21</title>
<g id="a_edge34_Node000001_Node000021"><a xlink:title=" ">
<path fill="none" stroke="#63b8ff" d="M834.19,-274.98C790.07,-265.78 719.67,-251.09 671.95,-241.13"/>
<polygon fill="#63b8ff" stroke="#63b8ff" points="672.63,-237.7 662.13,-239.08 671.2,-244.55 672.63,-237.7"/>
</a>
</g>
</g>
<!-- Node3 -->
<g id="Node000003" class="node">
<title>Node3</title>
<g id="a_Node000003"><a xlink:title=" ">
<polygon fill="#e0e0e0" stroke="#999999" points="726,-129 668,-129 668,-110 726,-110 726,-129"/>
<text text-anchor="middle" x="697" y="-117" font-family="Helvetica,sans-Serif" font-size="10.00">memory</text>
</a>
</g>
</g>
<!-- Node2&#45;&gt;Node3 -->
<g id="edge2_Node000002_Node000003" class="edge">
<title>Node2&#45;&gt;Node3</title>
<g id="a_edge2_Node000002_Node000003"><a xlink:title=" ">
<path fill="none" stroke="#63b8ff" d="M749.34,-219.66C739.94,-201.85 718.57,-161.37 706.24,-138.01"/>
<polygon fill="#63b8ff" stroke="#63b8ff" points="709.33,-136.37 701.57,-129.16 703.14,-139.64 709.33,-136.37"/>
</a>
</g>
</g>
<!-- Node2&#45;&gt;Node4 -->
<g id="edge3_Node000002_Node000004" class="edge">
<title>Node2&#45;&gt;Node4</title>
<g id="a_edge3_Node000002_Node000004"><a xlink:title=" ">
<path fill="none" stroke="#63b8ff" d="M758.37,-219.91C762.56,-211.14 768.6,-197.01 771,-184 777.11,-150.91 775.58,-136.62 755,-110 719.75,-64.42 657.23,-35.38 619.5,-21.09"/>
<polygon fill="#63b8ff" stroke="#63b8ff" points="620.61,-17.77 610.02,-17.61 618.2,-24.34 620.61,-17.77"/>
</a>
</g>
</g>
<!-- Node5 -->
<g id="Node000005" class="node">
<title>Node5</title>
<g id="a_Node000005"><a xlink:title=" ">
<polygon fill="#e0e0e0" stroke="#999999" points="540.5,-74 495.5,-74 495.5,-55 540.5,-55 540.5,-74"/>
<text text-anchor="middle" x="518" y="-62" font-family="Helvetica,sans-Serif" font-size="10.00">utility</text>
</a>
</g>
</g>
<!-- Node2&#45;&gt;Node5 -->
<g id="edge4_Node000002_Node000005" class="edge">
<title>Node2&#45;&gt;Node5</title>
<g id="a_edge4_Node000002_Node000005"><a xlink:title=" ">
<path fill="none" stroke="#63b8ff" d="M755.56,-219.94C758.95,-198.28 764.54,-140.85 735,-110 710.06,-83.96 605.25,-72.19 550.94,-67.76"/>
<polygon fill="#63b8ff" stroke="#63b8ff" points="551.03,-64.26 540.79,-66.97 550.49,-71.24 551.03,-64.26"/>
</a>
</g>
</g>
<!-- Node6 -->
<g id="Node000006" class="node">
<title>Node6</title>
<g id="a_Node000006"><a xlink:href="transaction_8h_source.html" target="_top" xlink:title=" ">
<polygon fill="white" stroke="#666666" points="515.5,-184 376.5,-184 376.5,-165 515.5,-165 515.5,-184"/>
<text text-anchor="middle" x="446" y="-172" font-family="Helvetica,sans-Serif" font-size="10.00">Transaction/transaction.h</text>
</a>
</g>
</g>
<!-- Node2&#45;&gt;Node6 -->
<g id="edge5_Node000002_Node000006" class="edge">
<title>Node2&#45;&gt;Node6</title>
<g id="a_edge5_Node000002_Node000006"><a xlink:title=" ">
<path fill="none" stroke="#63b8ff" d="M704.51,-219.98C650.37,-210.67 563.6,-195.74 505.72,-185.78"/>
<polygon fill="#63b8ff" stroke="#63b8ff" points="506.07,-182.28 495.62,-184.04 504.88,-189.18 506.07,-182.28"/>
</a>
</g>
</g>
<!-- Node6&#45;&gt;Node3 -->
<g id="edge9_Node000006_Node000003" class="edge">
<title>Node6&#45;&gt;Node3</title>
<g id="a_edge9_Node000006_Node000003"><a xlink:title=" ">
<path fill="none" stroke="#63b8ff" d="M487.67,-164.98C528.53,-156.58 592.88,-143.24 657.94,-129.21"/>
<polygon fill="#63b8ff" stroke="#63b8ff" points="658.93,-132.57 667.96,-127.04 657.45,-125.73 658.93,-132.57"/>
</a>
</g>
</g>
<!-- Node6&#45;&gt;Node4 -->
<g id="edge6_Node000006_Node000004" class="edge">
<title>Node6&#45;&gt;Node4</title>
<g id="a_edge6_Node000006_Node000004"><a xlink:title=" ">
<path fill="none" stroke="#63b8ff" d="M457.57,-164.75C468.79,-156.09 486.1,-142.24 500,-129 523.92,-106.21 530.31,-100.53 550,-74 560.98,-59.2 571.59,-41.05 578.79,-27.95"/>
<polygon fill="#63b8ff" stroke="#63b8ff" points="581.92,-29.52 583.59,-19.06 575.76,-26.2 581.92,-29.52"/>
</a>
</g>
</g>
<!-- Node6&#45;&gt;Node5 -->
<g id="edge7_Node000006_Node000005" class="edge">
<title>Node6&#45;&gt;Node5</title>
<g id="a_edge7_Node000006_Node000005"><a xlink:title=" ">
<path fill="none" stroke="#63b8ff" d="M452.81,-164.8C459.65,-155.94 470.38,-141.75 479,-129 489.28,-113.8 500.14,-95.95 507.78,-83.05"/>
<polygon fill="#63b8ff" stroke="#63b8ff" points="510.89,-84.67 512.94,-74.28 504.85,-81.13 510.89,-84.67"/>
</a>
</g>
</g>
<!-- Node7 -->
<g id="Node000007" class="node">
<title>Node7</title>
<g id="a_Node000007"><a xlink:title=" ">
<polygon fill="#e0e0e0" stroke="#999999" points="285.5,-19 238.5,-19 238.5,0 285.5,0 285.5,-19"/>
<text text-anchor="middle" x="262" y="-7" font-family="Helvetica,sans-Serif" font-size="10.00">vector</text>
</a>
</g>
</g>
<!-- Node6&#45;&gt;Node7 -->
<g id="edge8_Node000006_Node000007" class="edge">
<title>Node6&#45;&gt;Node7</title>
<g id="a_edge8_Node000006_Node000007"><a xlink:title=" ">
<path fill="none" stroke="#63b8ff" d="M376.37,-168.95C323.51,-163.72 249.79,-152.59 189,-129 146.7,-112.58 124.79,-113.8 103,-74 76.24,-25.11 173.97,-13.77 228.19,-11.21"/>
<polygon fill="#63b8ff" stroke="#63b8ff" points="228.55,-14.69 238.41,-10.8 228.27,-7.7 228.55,-14.69"/>
</a>
</g>
</g>
<!-- Node8 -->
<g id="Node000008" class="node">
<title>Node8</title>
<g id="a_Node000008"><a xlink:title=" ">
<polygon fill="#e0e0e0" stroke="#999999" points="470,-129 422,-129 422,-110 470,-110 470,-129"/>
<text text-anchor="middle" x="446" y="-117" font-family="Helvetica,sans-Serif" font-size="10.00">mutex</text>
</a>
</g>
</g>
<!-- Node6&#45;&gt;Node8 -->
<g id="edge10_Node000006_Node000008" class="edge">
<title>Node6&#45;&gt;Node8</title>
<g id="a_edge10_Node000006_Node000008"><a xlink:title=" ">
<path fill="none" stroke="#63b8ff" d="M446,-164.75C446,-157.8 446,-147.85 446,-139.13"/>
<polygon fill="#63b8ff" stroke="#63b8ff" points="449.5,-139.09 446,-129.09 442.5,-139.09 449.5,-139.09"/>
</a>
</g>
</g>
<!-- Node9 -->
<g id="Node000009" class="node">
<title>Node9</title>
<g id="a_Node000009"><a xlink:title=" ">
<polygon fill="#e0e0e0" stroke="#999999" points="234,-74 196,-74 196,-55 234,-55 234,-74"/>
<text text-anchor="middle" x="215" y="-62" font-family="Helvetica,sans-Serif" font-size="10.00">map</text>
</a>
</g>
</g>
<!-- Node6&#45;&gt;Node9 -->
<g id="edge11_Node000006_Node000009" class="edge">
<title>Node6&#45;&gt;Node9</title>
<g id="a_edge11_Node000006_Node000009"><a xlink:title=" ">
<path fill="none" stroke="#63b8ff" d="M376.25,-165.72C324.47,-158.64 259.44,-146.59 239,-129 226.03,-117.84 220.05,-98.91 217.31,-84.62"/>
<polygon fill="#63b8ff" stroke="#63b8ff" points="220.71,-83.74 215.73,-74.39 213.79,-84.8 220.71,-83.74"/>
</a>
</g>
</g>
<!-- Node10 -->
<g id="Node000010" class="node">
<title>Node10</title>
<g id="a_Node000010"><a xlink:title=" ">
<polygon fill="#e0e0e0" stroke="#999999" points="56,-129 0,-129 0,-110 56,-110 56,-129"/>
<text text-anchor="middle" x="28" y="-117" font-family="Helvetica,sans-Serif" font-size="10.00">optional</text>
</a>
</g>
</g>
<!-- Node6&#45;&gt;Node10 -->
<g id="edge12_Node000006_Node000010" class="edge">
<title>Node6&#45;&gt;Node10</title>
<g id="a_edge12_Node000006_Node000010"><a xlink:title=" ">
<path fill="none" stroke="#63b8ff" d="M376.46,-166.99C300.82,-159.51 176.45,-146.04 70,-129 68.9,-128.82 67.78,-128.64 66.65,-128.45"/>
<polygon fill="#63b8ff" stroke="#63b8ff" points="66.88,-124.93 56.41,-126.58 65.62,-131.82 66.88,-124.93"/>
</a>
</g>
</g>
<!-- Node11 -->
<g id="Node000011" class="node">
<title>Node11</title>
<g id="a_Node000011"><a xlink:title=" ">
<polygon fill="#e0e0e0" stroke="#999999" points="177.5,-74 112.5,-74 112.5,-55 177.5,-55 177.5,-74"/>
<text text-anchor="middle" x="145" y="-62" font-family="Helvetica,sans-Serif" font-size="10.00">functional</text>
</a>
</g>
</g>
<!-- Node6&#45;&gt;Node11 -->
<g id="edge13_Node000006_Node000011" class="edge">
<title>Node6&#45;&gt;Node11</title>
<g id="a_edge13_Node000006_Node000011"><a xlink:title=" ">
<path fill="none" stroke="#63b8ff" d="M376.46,-168.35C331.03,-162.92 271.4,-151.79 223,-129 198.21,-117.32 174.5,-96.1 159.86,-81.42"/>
<polygon fill="#63b8ff" stroke="#63b8ff" points="162.19,-78.79 152.72,-74.04 157.16,-83.66 162.19,-78.79"/>
</a>
</g>
</g>
<!-- Node12 -->
<g id="Node000012" class="node">
<title>Node12</title>
<g id="a_Node000012"><a xlink:href="types_8h.html" target="_top" xlink:title=" ">
<polygon fill="white" stroke="#666666" points="438.5,-74 349.5,-74 349.5,-55 438.5,-55 438.5,-74"/>
<text text-anchor="middle" x="394" y="-62" font-family="Helvetica,sans-Serif" font-size="10.00">Library/types.h</text>
</a>
</g>
</g>
<!-- Node6&#45;&gt;Node12 -->
<g id="edge14_Node000006_Node000012" class="edge">
<title>Node6&#45;&gt;Node12</title>
<g id="a_edge14_Node000006_Node000012"><a xlink:title=" ">
<path fill="none" stroke="#63b8ff" d="M438.19,-164.9C430.78,-156.35 419.81,-142.59 413,-129 405.82,-114.68 400.83,-97.15 397.77,-84.14"/>
<polygon fill="#63b8ff" stroke="#63b8ff" points="401.13,-83.09 395.58,-74.07 394.29,-84.59 401.13,-83.09"/>
</a>
</g>
</g>
<!-- Node14 -->
<g id="Node000014" class="node">
<title>Node14</title>
<g id="a_Node000014"><a xlink:href="error_8h.html" target="_top" xlink:title=" ">
<polygon fill="white" stroke="#666666" points="649.5,-129 564.5,-129 564.5,-110 649.5,-110 649.5,-129"/>
<text text-anchor="middle" x="607" y="-117" font-family="Helvetica,sans-Serif" font-size="10.00">Library/error.h</text>
</a>
</g>
</g>
<!-- Node6&#45;&gt;Node14 -->
<g id="edge18_Node000006_Node000014" class="edge">
<title>Node6&#45;&gt;Node14</title>
<g id="a_edge18_Node000006_Node000014"><a xlink:title=" ">
<path fill="none" stroke="#63b8ff" d="M471.87,-164.98C498.78,-156.13 541.12,-142.19 571.23,-132.28"/>
<polygon fill="#63b8ff" stroke="#63b8ff" points="572.53,-135.53 580.93,-129.08 570.34,-128.88 572.53,-135.53"/>
</a>
</g>
</g>
<!-- Node16 -->
<g id="Node000016" class="node">
<title>Node16</title>
<g id="a_Node000016"><a xlink:href="evaluate_8h.html" target="_top" xlink:title=" ">
<polygon fill="white" stroke="#666666" points="366,-129 248,-129 248,-110 366,-110 366,-129"/>
<text text-anchor="middle" x="307" y="-117" font-family="Helvetica,sans-Serif" font-size="10.00">Evaluator/evaluate.h</text>
</a>
</g>
</g>
<!-- Node6&#45;&gt;Node16 -->
<g id="edge21_Node000006_Node000016" class="edge">
<title>Node6&#45;&gt;Node16</title>
<g id="a_edge21_Node000006_Node000016"><a xlink:title=" ">
<path fill="none" stroke="#63b8ff" d="M423.67,-164.98C400.8,-156.27 365.04,-142.63 339.14,-132.75"/>
<polygon fill="#63b8ff" stroke="#63b8ff" points="340.33,-129.46 329.74,-129.17 337.84,-136 340.33,-129.46"/>
</a>
</g>
</g>
<!-- Node12&#45;&gt;Node4 -->
<g id="edge17_Node000012_Node000004" class="edge">
<title>Node12&#45;&gt;Node4</title>
<g id="a_edge17_Node000012_Node000004"><a xlink:title=" ">
<path fill="none" stroke="#63b8ff" d="M425.17,-54.98C461.04,-45.18 519.66,-29.17 555.92,-19.26"/>
<polygon fill="#63b8ff" stroke="#63b8ff" points="557.23,-22.53 565.96,-16.52 555.39,-15.78 557.23,-22.53"/>
</a>
</g>
</g>
<!-- Node12&#45;&gt;Node7 -->
<g id="edge15_Node000012_Node000007" class="edge">
<title>Node12&#45;&gt;Node7</title>
<g id="a_edge15_Node000012_Node000007"><a xlink:title=" ">
<path fill="none" stroke="#63b8ff" d="M372.79,-54.98C351.27,-46.34 317.72,-32.87 293.17,-23.02"/>
<polygon fill="#63b8ff" stroke="#63b8ff" points="294.18,-19.65 283.59,-19.17 291.57,-26.14 294.18,-19.65"/>
</a>
</g>
</g>
<!-- Node13 -->
<g id="Node000013" class="node">
<title>Node13</title>
<g id="a_Node000013"><a xlink:title=" ">
<polygon fill="#e0e0e0" stroke="#999999" points="440.5,-19 347.5,-19 347.5,0 440.5,0 440.5,-19"/>
<text text-anchor="middle" x="394" y="-7" font-family="Helvetica,sans-Serif" font-size="10.00">unordered_map</text>
</a>
</g>
</g>
<!-- Node12&#45;&gt;Node13 -->
<g id="edge16_Node000012_Node000013" class="edge">
<title>Node12&#45;&gt;Node13</title>
<g id="a_edge16_Node000012_Node000013"><a xlink:title=" ">
<path fill="none" stroke="#63b8ff" d="M394,-54.75C394,-47.8 394,-37.85 394,-29.13"/>
<polygon fill="#63b8ff" stroke="#63b8ff" points="397.5,-29.09 394,-19.09 390.5,-29.09 397.5,-29.09"/>
</a>
</g>
</g>
<!-- Node14&#45;&gt;Node4 -->
<g id="edge19_Node000014_Node000004" class="edge">
<title>Node14&#45;&gt;Node4</title>
<g id="a_edge19_Node000014_Node000004"><a xlink:title=" ">
<path fill="none" stroke="#63b8ff" d="M605.45,-109.66C602.37,-92.17 595.44,-52.8 591.3,-29.27"/>
<polygon fill="#63b8ff" stroke="#63b8ff" points="594.7,-28.4 589.52,-19.16 587.81,-29.61 594.7,-28.4"/>
</a>
</g>
</g>
<!-- Node14&#45;&gt;Node15 -->
<g id="edge20_Node000014_Node000015" class="edge">
<title>Node14&#45;&gt;Node15</title>
<g id="a_edge20_Node000014_Node000015"><a xlink:title=" ">
<path fill="none" stroke="#63b8ff" d="M640.74,-109.98C677.86,-100.62 737.47,-85.57 776.93,-75.61"/>
<polygon fill="#63b8ff" stroke="#63b8ff" points="777.91,-78.97 786.75,-73.13 776.2,-72.19 777.91,-78.97"/>
</a>
</g>
</g>
<!-- Node16&#45;&gt;Node4 -->
<g id="edge24_Node000016_Node000004" class="edge">
<title>Node16&#45;&gt;Node4</title>
<g id="a_edge24_Node000016_Node000004"><a xlink:title=" ">
<path fill="none" stroke="#63b8ff" d="M338.32,-109.96C367,-101.81 410.42,-88.64 447,-74 464.9,-66.84 468.49,-63.08 486,-55 510.12,-43.87 537.76,-31.86 558.17,-23.12"/>
<polygon fill="#63b8ff" stroke="#63b8ff" points="559.74,-26.26 567.57,-19.12 557,-19.82 559.74,-26.26"/>
</a>
</g>
</g>
<!-- Node16&#45;&gt;Node5 -->
<g id="edge22_Node000016_Node000005" class="edge">
<title>Node16&#45;&gt;Node5</title>
<g id="a_edge22_Node000016_Node000005"><a xlink:title=" ">
<path fill="none" stroke="#63b8ff" d="M340.9,-109.98C380.68,-99.99 446.18,-83.54 485.39,-73.69"/>
<polygon fill="#63b8ff" stroke="#63b8ff" points="486.39,-77.05 495.24,-71.22 484.69,-70.26 486.39,-77.05"/>
</a>
</g>
</g>
<!-- Node16&#45;&gt;Node7 -->
<g id="edge23_Node000016_Node000007" class="edge">
<title>Node16&#45;&gt;Node7</title>
<g id="a_edge23_Node000016_Node000007"><a xlink:title=" ">
<path fill="none" stroke="#63b8ff" d="M301.18,-109.96C295.43,-101.23 286.7,-87.13 281,-74 274.69,-59.47 269.67,-42.2 266.38,-29.34"/>
<polygon fill="#63b8ff" stroke="#63b8ff" points="269.71,-28.25 263.94,-19.36 262.91,-29.91 269.71,-28.25"/>
</a>
</g>
</g>
<!-- Node16&#45;&gt;Node9 -->
<g id="edge27_Node000016_Node000009" class="edge">
<title>Node16&#45;&gt;Node9</title>
<g id="a_edge27_Node000016_Node000009"><a xlink:title=" ">
<path fill="none" stroke="#63b8ff" d="M292.22,-109.98C277.82,-101.69 255.69,-88.94 238.81,-79.22"/>
<polygon fill="#63b8ff" stroke="#63b8ff" points="240.46,-76.13 230.05,-74.17 236.97,-82.19 240.46,-76.13"/>
</a>
</g>
</g>
<!-- Node16&#45;&gt;Node11 -->
<g id="edge25_Node000016_Node000011" class="edge">
<title>Node16&#45;&gt;Node11</title>
<g id="a_edge25_Node000016_Node000011"><a xlink:title=" ">
<path fill="none" stroke="#63b8ff" d="M280.97,-109.98C253.89,-101.13 211.29,-87.19 180.99,-77.28"/>
<polygon fill="#63b8ff" stroke="#63b8ff" points="181.82,-73.87 171.23,-74.08 179.65,-80.52 181.82,-73.87"/>
</a>
</g>
</g>
<!-- Node16&#45;&gt;Node12 -->
<g id="edge28_Node000016_Node000012" class="edge">
<title>Node16&#45;&gt;Node12</title>
<g id="a_edge28_Node000016_Node000012"><a xlink:title=" ">
<path fill="none" stroke="#63b8ff" d="M320.98,-109.98C334.47,-101.77 355.13,-89.18 371.04,-79.49"/>
<polygon fill="#63b8ff" stroke="#63b8ff" points="373.05,-82.36 379.77,-74.17 369.41,-76.38 373.05,-82.36"/>
</a>
</g>
</g>
<!-- Node17 -->
<g id="Node000017" class="node">
<title>Node17</title>
<g id="a_Node000017"><a xlink:title=" ">
<polygon fill="#e0e0e0" stroke="#999999" points="331.5,-74 290.5,-74 290.5,-55 331.5,-55 331.5,-74"/>
<text text-anchor="middle" x="311" y="-62" font-family="Helvetica,sans-Serif" font-size="10.00">tuple</text>
</a>
</g>
</g>
<!-- Node16&#45;&gt;Node17 -->
<g id="edge26_Node000016_Node000017" class="edge">
<title>Node16&#45;&gt;Node17</title>
<g id="a_edge26_Node000016_Node000017"><a xlink:title=" ">
<path fill="none" stroke="#63b8ff" d="M307.66,-109.75C308.18,-102.8 308.94,-92.85 309.59,-84.13"/>
<polygon fill="#63b8ff" stroke="#63b8ff" points="313.09,-84.32 310.35,-74.09 306.11,-83.8 313.09,-84.32"/>
</a>
</g>
</g>
<!-- Node21&#45;&gt;Node3 -->
<g id="edge35_Node000021_Node000003" class="edge">
<title>Node21&#45;&gt;Node3</title>
<g id="a_edge35_Node000021_Node000003"><a xlink:title=" ">
<path fill="none" stroke="#63b8ff" d="M627.22,-219.66C639.86,-201.69 668.75,-160.64 685.12,-137.38"/>
<polygon fill="#63b8ff" stroke="#63b8ff" points="688.01,-139.35 690.91,-129.16 682.29,-135.32 688.01,-139.35"/>
</a>
</g>
</g>
<!-- Node21&#45;&gt;Node6 -->
<g id="edge36_Node000021_Node000006" class="edge">
<title>Node21&#45;&gt;Node6</title>
<g id="a_edge36_Node000021_Node000006"><a xlink:title=" ">
<path fill="none" stroke="#63b8ff" d="M592.88,-219.98C563.38,-211.05 516.81,-196.94 484.03,-187.02"/>
<polygon fill="#63b8ff" stroke="#63b8ff" points="484.92,-183.63 474.34,-184.08 482.89,-190.33 484.92,-183.63"/>
</a>
</g>
</g>
</g>
</svg>
