<?xml version="1.0" encoding="UTF-8" standalone="no"?>
<!DOCTYPE svg PUBLIC "-//W3C//DTD SVG 1.1//EN"
 "http://www.w3.org/Graphics/SVG/1.1/DTD/svg11.dtd">
<!-- Generated by graphviz version 2.43.0 (0)
 -->
<!-- Title: src/Reporter/reporter.cpp Pages: 1 -->
<!--zoomable 302 -->

<svg id="main" version="1.1" xmlns="http://www.w3.org/2000/svg" xmlns:xlink="http://www.w3.org/1999/xlink" xml:space="preserve" onload="init(evt)">
<style type="text/css"><![CDATA[
.node, .edge {opacity: 0.7;}
.node.selected, .edge.selected {opacity: 1;}
.edge:hover path { stroke: red; }
.edge:hover polygon { stroke: red; fill: red; }
]]></style>

<defs>
  <circle id="rim" cx="0" cy="0" r="7"/>
  <circle id="rim2" cx="0" cy="0" r="3.5"/>
  <g id="zoomPlus">
    <use xlink:href="#rim" fill="#404040"><set attributeName="fill" to="#808080" begin="zoomplus.mouseover" end="zoomplus.mouseout"/></use>
    <path d="M-4,0h8M0,-4v8" fill="none" stroke="white" stroke-width="1.5" pointer-events="none"/>
  </g>
  <g id="zoomMin">
    <use xlink:href="#rim" fill="#404040"><set attributeName="fill" to="#808080" begin="zoomminus.mouseover" end="zoomminus.mouseout"/></use>
    <path d="M-4,0h8" fill="none" stroke="white" stroke-width="1.5" pointer-events="none"/>
  </g>
  <g id="arrowUp" transform="translate(30 24)">
    <use xlink:href="#rim"/>
    <path pointer-events="none" fill="none" stroke="white" stroke-width="1.5" d="M0,-3.0v7 M-2.5,-0.5L0,-3.0L2.5,-0.5"/>
  </g>
  <g id="arrowRight" transform="rotate(90) translate(36 -43)">
    <use xlink:href="#rim"/>
    <path pointer-events="none" fill="none" stroke="white" stroke-width="1.5" d="M0,-3.0v7 M-2.5,-0.5L0,-3.0L2.5,-0.5"/>
  </g>
  <g id="arrowDown" transform="rotate(180) translate(-30 -48)">
    <use xlink:href="#rim"/>
    <path pointer-events="none" fill="none" stroke="white" stroke-width="1.5" d="M0,-3.0v7 M-2.5,-0.5L0,-3.0L2.5,-0.5"/>
  </g>
  <g id="arrowLeft" transform="rotate(270) translate(-36 17)">
    <use xlink:href="#rim"/>
    <path pointer-events="none" fill="none" stroke="white" stroke-width="1.5" d="M0,-3.0v7 M-2.5,-0.5L0,-3.0L2.5,-0.5"/>
  </g>
  <g id="resetDef">
    <use xlink:href="#rim2" fill="#404040"><set attributeName="fill" to="#808080" begin="reset.mouseover" end="reset.mouseout"/></use>
  </g>
</defs>
<script type="application/ecmascript">
var viewWidth = 944;
var viewHeight = 302;
var sectionId = 'dynsection-0';
</script>
<script type="application/ecmascript" xlink:href="svg.min.js"/>
<svg id="graph" class="graph">
<g id="viewport">
<title>src/Reporter/reporter.cpp</title>
<!-- Node1 -->
<g id="Node000001" class="node">
<title>Node1</title>
<g id="a_Node000001"><a xlink:title=" ">
<polygon fill="#999999" stroke="#666666" points="741.5,-294 604.5,-294 604.5,-275 741.5,-275 741.5,-294"/>
<text text-anchor="middle" x="673" y="-282" font-family="Helvetica,sans-Serif" font-size="10.00">src/Reporter/reporter.cpp</text>
</a>
</g>
</g>
<!-- Node2 -->
<g id="Node000002" class="node">
<title>Node2</title>
<g id="a_Node000002"><a xlink:href="reporter_8h.html" target="_top" xlink:title=" ">
<polygon fill="white" stroke="#666666" points="488.5,-239 379.5,-239 379.5,-220 488.5,-220 488.5,-239"/>
<text text-anchor="middle" x="434" y="-227" font-family="Helvetica,sans-Serif" font-size="10.00">Reporter/reporter.h</text>
</a>
</g>
</g>
<!-- Node1&#45;&gt;Node2 -->
<g id="edge1_Node000001_Node000002" class="edge">
<title>Node1&#45;&gt;Node2</title>
<g id="a_edge1_Node000001_Node000002"><a xlink:title=" ">
<path fill="none" stroke="#63b8ff" d="M634.6,-274.98C593.26,-265.82 527.4,-251.21 482.51,-241.26"/>
<polygon fill="#63b8ff" stroke="#63b8ff" points="483.22,-237.83 472.7,-239.08 481.71,-244.66 483.22,-237.83"/>
</a>
</g>
</g>
<!-- Node4 -->
<g id="Node000004" class="node">
<title>Node4</title>
<g id="a_Node000004"><a xlink:title=" ">
<polygon fill="#e0e0e0" stroke="#999999" points="303,-19 259,-19 259,0 303,0 303,-19"/>
<text text-anchor="middle" x="281" y="-7" font-family="Helvetica,sans-Serif" font-size="10.00">string</text>
</a>
</g>
</g>
<!-- Node1&#45;&gt;Node4 -->
<g id="edge33_Node000001_Node000004" class="edge">
<title>Node1&#45;&gt;Node4</title>
<g id="a_edge33_Node000001_Node000004"><a xlink:title=" ">
<path fill="none" stroke="#63b8ff" d="M604.45,-279.63C433.14,-269.04 0,-236.26 0,-175.5 0,-175.5 0,-175.5 0,-118.5 0,-75.83 33.89,-74.18 72,-55 129.89,-25.86 206.1,-15.77 248.66,-12.3"/>
<polygon fill="#63b8ff" stroke="#63b8ff" points="249.02,-15.78 258.73,-11.55 248.5,-8.8 249.02,-15.78"/>
</a>
</g>
</g>
<!-- Node7 -->
<g id="Node000007" class="node">
<title>Node7</title>
<g id="a_Node000007"><a xlink:title=" ">
<polygon fill="#e0e0e0" stroke="#999999" points="709,-74 649,-74 649,-55 709,-55 709,-74"/>
<text text-anchor="middle" x="679" y="-62" font-family="Helvetica,sans-Serif" font-size="10.00">iostream</text>
</a>
</g>
</g>
<!-- Node1&#45;&gt;Node7 -->
<g id="edge31_Node000001_Node000007" class="edge">
<title>Node1&#45;&gt;Node7</title>
<g id="a_edge31_Node000001_Node000007"><a xlink:title=" ">
<path fill="none" stroke="#63b8ff" d="M741.81,-281.19C780.81,-276.72 828.55,-265.62 863,-239 912.74,-200.57 961.23,-158.3 921,-110 895.8,-79.75 781.42,-69.99 719.35,-66.9"/>
<polygon fill="#63b8ff" stroke="#63b8ff" points="719.28,-63.39 709.13,-66.42 718.96,-70.38 719.28,-63.39"/>
</a>
</g>
</g>
<!-- Node19 -->
<g id="Node000019" class="node">
<title>Node19</title>
<g id="a_Node000019"><a xlink:title=" ">
<polygon fill="#e0e0e0" stroke="#999999" points="700.5,-239 645.5,-239 645.5,-220 700.5,-220 700.5,-239"/>
<text text-anchor="middle" x="673" y="-227" font-family="Helvetica,sans-Serif" font-size="10.00">fstream</text>
</a>
</g>
</g>
<!-- Node1&#45;&gt;Node19 -->
<g id="edge32_Node000001_Node000019" class="edge">
<title>Node1&#45;&gt;Node19</title>
<g id="a_edge32_Node000001_Node000019"><a xlink:title=" ">
<path fill="none" stroke="#63b8ff" d="M673,-274.75C673,-267.8 673,-257.85 673,-249.13"/>
<polygon fill="#63b8ff" stroke="#63b8ff" points="676.5,-249.09 673,-239.09 669.5,-249.09 676.5,-249.09"/>
</a>
</g>
</g>
<!-- Node20 -->
<g id="Node000020" class="node">
<title>Node20</title>
<g id="a_Node000020"><a xlink:title=" ">
<polygon fill="#e0e0e0" stroke="#999999" points="767.5,-239 718.5,-239 718.5,-220 767.5,-220 767.5,-239"/>
<text text-anchor="middle" x="743" y="-227" font-family="Helvetica,sans-Serif" font-size="10.00">cstdlib</text>
</a>
</g>
</g>
<!-- Node1&#45;&gt;Node20 -->
<g id="edge34_Node000001_Node000020" class="edge">
<title>Node1&#45;&gt;Node20</title>
<g id="a_edge34_Node000001_Node000020"><a xlink:title=" ">
<path fill="none" stroke="#63b8ff" d="M684.25,-274.98C694.8,-267 710.8,-254.88 723.44,-245.31"/>
<polygon fill="#63b8ff" stroke="#63b8ff" points="725.69,-248 731.55,-239.17 721.46,-242.42 725.69,-248"/>
</a>
</g>
</g>
<!-- Node21 -->
<g id="Node000021" class="node">
<title>Node21</title>
<g id="a_Node000021"><a xlink:title=" ">
<polygon fill="#e0e0e0" stroke="#999999" points="854,-239 786,-239 786,-220 854,-220 854,-239"/>
<text text-anchor="middle" x="820" y="-227" font-family="Helvetica,sans-Serif" font-size="10.00">filesystem</text>
</a>
</g>
</g>
<!-- Node1&#45;&gt;Node21 -->
<g id="edge35_Node000001_Node000021" class="edge">
<title>Node1&#45;&gt;Node21</title>
<g id="a_edge35_Node000001_Node000021"><a xlink:title=" ">
<path fill="none" stroke="#63b8ff" d="M696.62,-274.98C720.9,-266.23 758.95,-252.51 786.37,-242.62"/>
<polygon fill="#63b8ff" stroke="#63b8ff" points="787.73,-245.85 795.95,-239.17 785.36,-239.27 787.73,-245.85"/>
</a>
</g>
</g>
<!-- Node22 -->
<g id="Node000022" class="node">
<title>Node22</title>
<g id="a_Node000022"><a xlink:href="database_8h.html" target="_top" xlink:title=" ">
<polygon fill="white" stroke="#666666" points="627,-239 507,-239 507,-220 627,-220 627,-239"/>
<text text-anchor="middle" x="567" y="-227" font-family="Helvetica,sans-Serif" font-size="10.00">Database/database.h</text>
</a>
</g>
</g>
<!-- Node1&#45;&gt;Node22 -->
<g id="edge36_Node000001_Node000022" class="edge">
<title>Node1&#45;&gt;Node22</title>
<g id="a_edge36_Node000001_Node000022"><a xlink:title=" ">
<path fill="none" stroke="#63b8ff" d="M655.97,-274.98C639.07,-266.54 612.94,-253.47 593.36,-243.68"/>
<polygon fill="#63b8ff" stroke="#63b8ff" points="594.85,-240.51 584.34,-239.17 591.72,-246.77 594.85,-240.51"/>
</a>
</g>
</g>
<!-- Node3 -->
<g id="Node000003" class="node">
<title>Node3</title>
<g id="a_Node000003"><a xlink:title=" ">
<polygon fill="#e0e0e0" stroke="#999999" points="912,-129 854,-129 854,-110 912,-110 912,-129"/>
<text text-anchor="middle" x="883" y="-117" font-family="Helvetica,sans-Serif" font-size="10.00">memory</text>
</a>
</g>
</g>
<!-- Node2&#45;&gt;Node3 -->
<g id="edge2_Node000002_Node000003" class="edge">
<title>Node2&#45;&gt;Node3</title>
<g id="a_edge2_Node000002_Node000003"><a xlink:title=" ">
<path fill="none" stroke="#63b8ff" d="M469.61,-219.94C552.52,-199.99 757.96,-150.58 844.06,-129.87"/>
<polygon fill="#63b8ff" stroke="#63b8ff" points="845.05,-133.23 853.95,-127.49 843.41,-126.42 845.05,-133.23"/>
</a>
</g>
</g>
<!-- Node2&#45;&gt;Node4 -->
<g id="edge3_Node000002_Node000004" class="edge">
<title>Node2&#45;&gt;Node4</title>
<g id="a_edge3_Node000002_Node000004"><a xlink:title=" ">
<path fill="none" stroke="#63b8ff" d="M379.12,-226.52C327.43,-222.86 248.9,-212.6 187,-184 124.8,-155.26 100.57,-139.03 79,-74 76.34,-65.99 73.71,-61.58 79,-55 99.9,-29 196.85,-17.3 248.46,-12.84"/>
<polygon fill="#63b8ff" stroke="#63b8ff" points="249.07,-16.3 258.75,-11.99 248.49,-9.32 249.07,-16.3"/>
</a>
</g>
</g>
<!-- Node5 -->
<g id="Node000005" class="node">
<title>Node5</title>
<g id="a_Node000005"><a xlink:title=" ">
<polygon fill="#e0e0e0" stroke="#999999" points="133.5,-74 88.5,-74 88.5,-55 133.5,-55 133.5,-74"/>
<text text-anchor="middle" x="111" y="-62" font-family="Helvetica,sans-Serif" font-size="10.00">utility</text>
</a>
</g>
</g>
<!-- Node2&#45;&gt;Node5 -->
<g id="edge4_Node000002_Node000005" class="edge">
<title>Node2&#45;&gt;Node5</title>
<g id="a_edge4_Node000002_Node000005"><a xlink:title=" ">
<path fill="none" stroke="#63b8ff" d="M379.39,-223.83C313.94,-215.47 204.67,-192.38 137,-129 124.38,-117.18 117.71,-98.34 114.3,-84.25"/>
<polygon fill="#63b8ff" stroke="#63b8ff" points="117.67,-83.27 112.22,-74.19 110.82,-84.69 117.67,-83.27"/>
</a>
</g>
</g>
<!-- Node6 -->
<g id="Node000006" class="node">
<title>Node6</title>
<g id="a_Node000006"><a xlink:href="transaction_8h_source.html" target="_top" xlink:title=" ">
<polygon fill="white" stroke="#666666" points="578.5,-184 439.5,-184 439.5,-165 578.5,-165 578.5,-184"/>
<text text-anchor="middle" x="509" y="-172" font-family="Helvetica,sans-Serif" font-size="10.00">Transaction/transaction.h</text>
</a>
</g>
</g>
<!-- Node2&#45;&gt;Node6 -->
<g id="edge5_Node000002_Node000006" class="edge">
<title>Node2&#45;&gt;Node6</title>
<g id="a_edge5_Node000002_Node000006"><a xlink:title=" ">
<path fill="none" stroke="#63b8ff" d="M446.05,-219.98C457.46,-211.92 474.83,-199.65 488.43,-190.03"/>
<polygon fill="#63b8ff" stroke="#63b8ff" points="490.58,-192.8 496.73,-184.17 486.54,-187.08 490.58,-192.8"/>
</a>
</g>
</g>
<!-- Node6&#45;&gt;Node3 -->
<g id="edge12_Node000006_Node000003" class="edge">
<title>Node6&#45;&gt;Node3</title>
<g id="a_edge12_Node000006_Node000003"><a xlink:title=" ">
<path fill="none" stroke="#63b8ff" d="M578.78,-166.08C644.66,-158.66 746.43,-146.13 843.6,-129.12"/>
<polygon fill="#63b8ff" stroke="#63b8ff" points="844.36,-132.54 853.59,-127.35 843.14,-125.64 844.36,-132.54"/>
</a>
</g>
</g>
<!-- Node6&#45;&gt;Node4 -->
<g id="edge9_Node000006_Node000004" class="edge">
<title>Node6&#45;&gt;Node4</title>
<g id="a_edge9_Node000006_Node000004"><a xlink:title=" ">
<path fill="none" stroke="#63b8ff" d="M451.47,-164.94C408.73,-157.71 349.37,-145.83 299,-129 285.28,-124.42 188.77,-86.2 181,-74 162.14,-44.4 212.86,-26.05 248.78,-17.1"/>
<polygon fill="#63b8ff" stroke="#63b8ff" points="249.97,-20.41 258.9,-14.72 248.37,-13.6 249.97,-20.41"/>
</a>
</g>
</g>
<!-- Node6&#45;&gt;Node5 -->
<g id="edge10_Node000006_Node000005" class="edge">
<title>Node6&#45;&gt;Node5</title>
<g id="a_edge10_Node000006_Node000005"><a xlink:title=" ">
<path fill="none" stroke="#63b8ff" d="M439.43,-170.59C352.36,-165.93 209.08,-154.55 163,-129 143.99,-118.46 129.17,-97.92 120.29,-83.06"/>
<polygon fill="#63b8ff" stroke="#63b8ff" points="123.3,-81.26 115.34,-74.26 117.2,-84.69 123.3,-81.26"/>
</a>
</g>
</g>
<!-- Node6&#45;&gt;Node7 -->
<g id="edge6_Node000006_Node000007" class="edge">
<title>Node6&#45;&gt;Node7</title>
<g id="a_edge6_Node000006_Node000007"><a xlink:title=" ">
<path fill="none" stroke="#63b8ff" d="M550.41,-164.98C575.77,-158.27 607.87,-146.98 632,-129 648.44,-116.75 661.71,-97.15 669.9,-82.96"/>
<polygon fill="#63b8ff" stroke="#63b8ff" points="672.99,-84.61 674.74,-74.17 666.86,-81.24 672.99,-84.61"/>
</a>
</g>
</g>
<!-- Node8 -->
<g id="Node000008" class="node">
<title>Node8</title>
<g id="a_Node000008"><a xlink:title=" ">
<polygon fill="#e0e0e0" stroke="#999999" points="732,-129 684,-129 684,-110 732,-110 732,-129"/>
<text text-anchor="middle" x="708" y="-117" font-family="Helvetica,sans-Serif" font-size="10.00">mutex</text>
</a>
</g>
</g>
<!-- Node6&#45;&gt;Node8 -->
<g id="edge7_Node000006_Node000008" class="edge">
<title>Node6&#45;&gt;Node8</title>
<g id="a_edge7_Node000006_Node000008"><a xlink:title=" ">
<path fill="none" stroke="#63b8ff" d="M540.97,-164.98C577.43,-155.28 636.78,-139.47 674.04,-129.54"/>
<polygon fill="#63b8ff" stroke="#63b8ff" points="675.17,-132.87 683.93,-126.91 673.37,-126.1 675.17,-132.87"/>
</a>
</g>
</g>
<!-- Node9 -->
<g id="Node000009" class="node">
<title>Node9</title>
<g id="a_Node000009"><a xlink:title=" ">
<polygon fill="#e0e0e0" stroke="#999999" points="836,-129 750,-129 750,-110 836,-110 836,-129"/>
<text text-anchor="middle" x="793" y="-117" font-family="Helvetica,sans-Serif" font-size="10.00">shared_mutex</text>
</a>
</g>
</g>
<!-- Node6&#45;&gt;Node9 -->
<g id="edge8_Node000006_Node000009" class="edge">
<title>Node6&#45;&gt;Node9</title>
<g id="a_edge8_Node000006_Node000009"><a xlink:title=" ">
<path fill="none" stroke="#63b8ff" d="M554.63,-164.98C605.15,-155.56 686.5,-140.38 739.86,-130.42"/>
<polygon fill="#63b8ff" stroke="#63b8ff" points="740.62,-133.84 749.81,-128.56 739.34,-126.95 740.62,-133.84"/>
</a>
</g>
</g>
<!-- Node10 -->
<g id="Node000010" class="node">
<title>Node10</title>
<g id="a_Node000010"><a xlink:title=" ">
<polygon fill="#e0e0e0" stroke="#999999" points="613.5,-19 566.5,-19 566.5,0 613.5,0 613.5,-19"/>
<text text-anchor="middle" x="590" y="-7" font-family="Helvetica,sans-Serif" font-size="10.00">vector</text>
</a>
</g>
</g>
<!-- Node6&#45;&gt;Node10 -->
<g id="edge11_Node000006_Node000010" class="edge">
<title>Node6&#45;&gt;Node10</title>
<g id="a_edge11_Node000006_Node000010"><a xlink:title=" ">
<path fill="none" stroke="#63b8ff" d="M530.72,-164.85C545.94,-157.61 565.39,-145.75 576,-129 595.42,-98.33 594.81,-54.12 592.5,-29.28"/>
<polygon fill="#63b8ff" stroke="#63b8ff" points="595.94,-28.61 591.34,-19.07 588.99,-29.4 595.94,-28.61"/>
</a>
</g>
</g>
<!-- Node11 -->
<g id="Node000011" class="node">
<title>Node11</title>
<g id="a_Node000011"><a xlink:title=" ">
<polygon fill="#e0e0e0" stroke="#999999" points="228,-74 190,-74 190,-55 228,-55 228,-74"/>
<text text-anchor="middle" x="209" y="-62" font-family="Helvetica,sans-Serif" font-size="10.00">map</text>
</a>
</g>
</g>
<!-- Node6&#45;&gt;Node11 -->
<g id="edge13_Node000006_Node000011" class="edge">
<title>Node6&#45;&gt;Node11</title>
<g id="a_edge13_Node000006_Node000011"><a xlink:title=" ">
<path fill="none" stroke="#63b8ff" d="M439.22,-169.17C345.43,-162.62 188.39,-148.83 171,-129 158.06,-114.25 174.09,-94.5 189.12,-80.96"/>
<polygon fill="#63b8ff" stroke="#63b8ff" points="191.8,-83.28 197.18,-74.16 187.28,-77.93 191.8,-83.28"/>
</a>
</g>
</g>
<!-- Node12 -->
<g id="Node000012" class="node">
<title>Node12</title>
<g id="a_Node000012"><a xlink:title=" ">
<polygon fill="#e0e0e0" stroke="#999999" points="236,-129 180,-129 180,-110 236,-110 236,-129"/>
<text text-anchor="middle" x="208" y="-117" font-family="Helvetica,sans-Serif" font-size="10.00">optional</text>
</a>
</g>
</g>
<!-- Node6&#45;&gt;Node12 -->
<g id="edge14_Node000006_Node000012" class="edge">
<title>Node6&#45;&gt;Node12</title>
<g id="a_edge14_Node000006_Node000012"><a xlink:title=" ">
<path fill="none" stroke="#63b8ff" d="M456.34,-164.92C403.95,-156.27 321.31,-142.34 250,-129 248.9,-128.79 247.79,-128.58 246.67,-128.37"/>
<polygon fill="#63b8ff" stroke="#63b8ff" points="246.93,-124.86 236.44,-126.37 245.59,-131.73 246.93,-124.86"/>
</a>
</g>
</g>
<!-- Node13 -->
<g id="Node000013" class="node">
<title>Node13</title>
<g id="a_Node000013"><a xlink:title=" ">
<polygon fill="#e0e0e0" stroke="#999999" points="311.5,-74 246.5,-74 246.5,-55 311.5,-55 311.5,-74"/>
<text text-anchor="middle" x="279" y="-62" font-family="Helvetica,sans-Serif" font-size="10.00">functional</text>
</a>
</g>
</g>
<!-- Node6&#45;&gt;Node13 -->
<g id="edge15_Node000006_Node000013" class="edge">
<title>Node6&#45;&gt;Node13</title>
<g id="a_edge15_Node000006_Node000013"><a xlink:title=" ">
<path fill="none" stroke="#63b8ff" d="M439.15,-169.38C401.37,-164.26 355.52,-153.09 321,-129 304.95,-117.8 293.42,-98.31 286.54,-83.87"/>
<polygon fill="#63b8ff" stroke="#63b8ff" points="289.62,-82.16 282.37,-74.44 283.22,-85 289.62,-82.16"/>
</a>
</g>
</g>
<!-- Node14 -->
<g id="Node000014" class="node">
<title>Node14</title>
<g id="a_Node000014"><a xlink:href="types_8h.html" target="_top" xlink:title=" ">
<polygon fill="white" stroke="#666666" points="554.5,-74 465.5,-74 465.5,-55 554.5,-55 554.5,-74"/>
<text text-anchor="middle" x="510" y="-62" font-family="Helvetica,sans-Serif" font-size="10.00">Library/types.h</text>
</a>
</g>
</g>
<!-- Node6&#45;&gt;Node14 -->
<g id="edge16_Node000006_Node000014" class="edge">
<title>Node6&#45;&gt;Node14</title>
<g id="a_edge16_Node000006_Node000014"><a xlink:title=" ">
<path fill="none" stroke="#63b8ff" d="M524.73,-164.88C536.88,-157.23 552.8,-144.83 560,-129 568.6,-110.07 550.5,-91.78 533.72,-79.73"/>
<polygon fill="#63b8ff" stroke="#63b8ff" points="535.47,-76.69 525.21,-74.03 531.57,-82.51 535.47,-76.69"/>
</a>
</g>
</g>
<!-- Node16 -->
<g id="Node000016" class="node">
<title>Node16</title>
<g id="a_Node000016"><a xlink:href="error_8h.html" target="_top" xlink:title=" ">
<polygon fill="white" stroke="#666666" points="551.5,-129 466.5,-129 466.5,-110 551.5,-110 551.5,-129"/>
<text text-anchor="middle" x="509" y="-117" font-family="Helvetica,sans-Serif" font-size="10.00">Library/error.h</text>
</a>
</g>
</g>
<!-- Node6&#45;&gt;Node16 -->
<g id="edge20_Node000006_Node000016" class="edge">
<title>Node6&#45;&gt;Node16</title>
<g id="a_edge20_Node000006_Node000016"><a xlink:title=" ">
<path fill="none" stroke="#63b8ff" d="M509,-164.75C509,-157.8 509,-147.85 509,-139.13"/>
<polygon fill="#63b8ff" stroke="#63b8ff" points="512.5,-139.09 509,-129.09 505.5,-139.09 512.5,-139.09"/>
</a>
</g>
</g>
<!-- Node17 -->
<g id="Node000017" class="node">
<title>Node17</title>
<g id="a_Node000017"><a xlink:href="evaluate_8h.html" target="_top" xlink:title=" ">
<polygon fill="white" stroke="#666666" points="448,-129 330,-129 330,-110 448,-110 448,-129"/>
<text text-anchor="middle" x="389" y="-117" font-family="Helvetica,sans-Serif" font-size="10.00">Evaluator/evaluate.h</text>
</a>
</g>
</g>
<!-- Node6&#45;&gt;Node17 -->
<g id="edge23_Node000006_Node000017" class="edge">
<title>Node6&#45;&gt;Node17</title>
<g id="a_edge23_Node000006_Node000017"><a xlink:title=" ">
<path fill="none" stroke="#63b8ff" d="M489.72,-164.98C470.33,-156.42 440.19,-143.11 417.93,-133.28"/>
<polygon fill="#63b8ff" stroke="#63b8ff" points="419.19,-130.01 408.63,-129.17 416.36,-136.41 419.19,-130.01"/>
</a>
</g>
</g>
<!-- Node14&#45;&gt;Node4 -->
<g id="edge19_Node000014_Node000004" class="edge">
<title>Node14&#45;&gt;Node4</title>
<g id="a_edge19_Node000014_Node000004"><a xlink:title=" ">
<path fill="none" stroke="#63b8ff" d="M473.21,-54.98C428.92,-44.73 355.25,-27.69 313.15,-17.94"/>
<polygon fill="#63b8ff" stroke="#63b8ff" points="313.69,-14.47 303.16,-15.63 312.11,-21.29 313.69,-14.47"/>
</a>
</g>
</g>
<!-- Node14&#45;&gt;Node10 -->
<g id="edge17_Node000014_Node000010" class="edge">
<title>Node14&#45;&gt;Node10</title>
<g id="a_edge17_Node000014_Node000010"><a xlink:title=" ">
<path fill="none" stroke="#63b8ff" d="M522.85,-54.98C535.14,-46.84 553.91,-34.41 568.48,-24.76"/>
<polygon fill="#63b8ff" stroke="#63b8ff" points="570.51,-27.61 576.91,-19.17 566.64,-21.78 570.51,-27.61"/>
</a>
</g>
</g>
<!-- Node15 -->
<g id="Node000015" class="node">
<title>Node15</title>
<g id="a_Node000015"><a xlink:title=" ">
<polygon fill="#e0e0e0" stroke="#999999" points="548.5,-19 455.5,-19 455.5,0 548.5,0 548.5,-19"/>
<text text-anchor="middle" x="502" y="-7" font-family="Helvetica,sans-Serif" font-size="10.00">unordered_map</text>
</a>
</g>
</g>
<!-- Node14&#45;&gt;Node15 -->
<g id="edge18_Node000014_Node000015" class="edge">
<title>Node14&#45;&gt;Node15</title>
<g id="a_edge18_Node000014_Node000015"><a xlink:title=" ">
<path fill="none" stroke="#63b8ff" d="M508.68,-54.75C507.63,-47.8 506.13,-37.85 504.81,-29.13"/>
<polygon fill="#63b8ff" stroke="#63b8ff" points="508.25,-28.45 503.3,-19.09 501.33,-29.5 508.25,-28.45"/>
</a>
</g>
</g>
<!-- Node16&#45;&gt;Node4 -->
<g id="edge21_Node000016_Node000004" class="edge">
<title>Node16&#45;&gt;Node4</title>
<g id="a_edge21_Node000016_Node000004"><a xlink:title=" ">
<path fill="none" stroke="#63b8ff" d="M495.69,-109.98C475.22,-97.08 434.53,-72.27 398,-55 369.98,-41.75 336.86,-29.46 313.03,-21.16"/>
<polygon fill="#63b8ff" stroke="#63b8ff" points="314.02,-17.8 303.42,-17.86 311.74,-24.42 314.02,-17.8"/>
</a>
</g>
</g>
<!-- Node16&#45;&gt;Node7 -->
<g id="edge22_Node000016_Node000007" class="edge">
<title>Node16&#45;&gt;Node7</title>
<g id="a_edge22_Node000016_Node000007"><a xlink:title=" ">
<path fill="none" stroke="#63b8ff" d="M536.31,-109.98C564.85,-101.09 609.83,-87.07 641.64,-77.15"/>
<polygon fill="#63b8ff" stroke="#63b8ff" points="642.97,-80.4 651.47,-74.08 640.88,-73.72 642.97,-80.4"/>
</a>
</g>
</g>
<!-- Node17&#45;&gt;Node4 -->
<g id="edge26_Node000017_Node000004" class="edge">
<title>Node17&#45;&gt;Node4</title>
<g id="a_edge26_Node000017_Node000004"><a xlink:title=" ">
<path fill="none" stroke="#63b8ff" d="M390.06,-109.7C391.16,-96.44 391.3,-71.17 379,-55 363.08,-34.07 335.05,-22.71 313.04,-16.71"/>
<polygon fill="#63b8ff" stroke="#63b8ff" points="313.65,-13.26 303.1,-14.25 311.97,-20.06 313.65,-13.26"/>
</a>
</g>
</g>
<!-- Node17&#45;&gt;Node5 -->
<g id="edge24_Node000017_Node000005" class="edge">
<title>Node17&#45;&gt;Node5</title>
<g id="a_edge24_Node000017_Node000005"><a xlink:title=" ">
<path fill="none" stroke="#63b8ff" d="M344.33,-109.98C288.16,-99.28 193.08,-81.15 143.41,-71.68"/>
<polygon fill="#63b8ff" stroke="#63b8ff" points="144.01,-68.23 133.53,-69.8 142.7,-75.11 144.01,-68.23"/>
</a>
</g>
</g>
<!-- Node17&#45;&gt;Node10 -->
<g id="edge25_Node000017_Node000010" class="edge">
<title>Node17&#45;&gt;Node10</title>
<g id="a_edge25_Node000017_Node000010"><a xlink:title=" ">
<path fill="none" stroke="#63b8ff" d="M443.79,-109.92C487.81,-102.06 545.14,-89.34 563,-74 576.19,-62.67 583.11,-43.77 586.62,-29.52"/>
<polygon fill="#63b8ff" stroke="#63b8ff" points="590.13,-29.84 588.76,-19.34 583.28,-28.4 590.13,-29.84"/>
</a>
</g>
</g>
<!-- Node17&#45;&gt;Node11 -->
<g id="edge29_Node000017_Node000011" class="edge">
<title>Node17&#45;&gt;Node11</title>
<g id="a_edge29_Node000017_Node000011"><a xlink:title=" ">
<path fill="none" stroke="#63b8ff" d="M359.55,-109.97C330.83,-101.63 285.65,-88.47 237.86,-74.24"/>
<polygon fill="#63b8ff" stroke="#63b8ff" points="238.86,-70.88 228.27,-71.38 236.86,-77.59 238.86,-70.88"/>
</a>
</g>
</g>
<!-- Node17&#45;&gt;Node13 -->
<g id="edge27_Node000017_Node000013" class="edge">
<title>Node17&#45;&gt;Node13</title>
<g id="a_edge27_Node000017_Node000013"><a xlink:title=" ">
<path fill="none" stroke="#63b8ff" d="M371.33,-109.98C353.71,-101.5 326.42,-88.35 306.07,-78.54"/>
<polygon fill="#63b8ff" stroke="#63b8ff" points="307.52,-75.36 296.99,-74.17 304.48,-81.66 307.52,-75.36"/>
</a>
</g>
</g>
<!-- Node17&#45;&gt;Node14 -->
<g id="edge30_Node000017_Node000014" class="edge">
<title>Node17&#45;&gt;Node14</title>
<g id="a_edge30_Node000017_Node000014"><a xlink:title=" ">
<path fill="none" stroke="#63b8ff" d="M408.44,-109.98C427.99,-101.42 458.38,-88.11 480.82,-78.28"/>
<polygon fill="#63b8ff" stroke="#63b8ff" points="482.45,-81.39 490.21,-74.17 479.64,-74.98 482.45,-81.39"/>
</a>
</g>
</g>
<!-- Node18 -->
<g id="Node000018" class="node">
<title>Node18</title>
<g id="a_Node000018"><a xlink:title=" ">
<polygon fill="#e0e0e0" stroke="#999999" points="370.5,-74 329.5,-74 329.5,-55 370.5,-55 370.5,-74"/>
<text text-anchor="middle" x="350" y="-62" font-family="Helvetica,sans-Serif" font-size="10.00">tuple</text>
</a>
</g>
</g>
<!-- Node17&#45;&gt;Node18 -->
<g id="edge28_Node000017_Node000018" class="edge">
<title>Node17&#45;&gt;Node18</title>
<g id="a_edge28_Node000017_Node000018"><a xlink:title=" ">
<path fill="none" stroke="#63b8ff" d="M382.56,-109.75C377.11,-102.34 369.14,-91.5 362.44,-82.41"/>
<polygon fill="#63b8ff" stroke="#63b8ff" points="365.07,-80.07 356.32,-74.09 359.43,-84.22 365.07,-80.07"/>
</a>
</g>
</g>
<!-- Node22&#45;&gt;Node3 -->
<g id="edge37_Node000022_Node000003" class="edge">
<title>Node22&#45;&gt;Node3</title>
<g id="a_edge37_Node000022_Node000003"><a xlink:title=" ">
<path fill="none" stroke="#63b8ff" d="M592.06,-219.94C648.18,-200.76 784.05,-154.32 848.27,-132.37"/>
<polygon fill="#63b8ff" stroke="#63b8ff" points="849.61,-135.61 857.94,-129.07 847.34,-128.99 849.61,-135.61"/>
</a>
</g>
</g>
<!-- Node22&#45;&gt;Node6 -->
<g id="edge38_Node000022_Node000006" class="edge">
<title>Node22&#45;&gt;Node6</title>
<g id="a_edge38_Node000022_Node000006"><a xlink:title=" ">
<path fill="none" stroke="#63b8ff" d="M557.68,-219.98C549.19,-212.23 536.44,-200.58 526.12,-191.14"/>
<polygon fill="#63b8ff" stroke="#63b8ff" points="528.23,-188.33 518.49,-184.17 523.51,-193.5 528.23,-188.33"/>
</a>
</g>
</g>
</g>
</svg>

<g id="navigator" transform="translate(0 0)" fill="#404254">
  <rect fill="#f2f5e9" fill-opacity="0.5" stroke="#606060" stroke-width=".5" x="0" y="0" width="60" height="60"/>
  <use id="zoomplus" xlink:href="#zoomPlus" x="17" y="9" onmousedown="handleZoom(evt,'in')"/>
  <use id="zoomminus" xlink:href="#zoomMin" x="42" y="9" onmousedown="handleZoom(evt,'out')"/>
  <use id="reset" xlink:href="#resetDef" x="30" y="36" onmousedown="handleReset()"/>
   <use id="arrowup" xlink:href="#arrowUp" x="0" y="0" onmousedown="handlePan(0,-1)"/>
  <use id="arrowright" xlink:href="#arrowRight" x="0" y="0" onmousedown="handlePan(1,0)"/>
  <use id="arrowdown" xlink:href="#arrowDown" x="0" y="0" onmousedown="handlePan(0,1)"/>
  <use id="arrowleft" xlink:href="#arrowLeft" x="0" y="0" onmousedown="handlePan(-1,0)"/>
</g>
<svg viewBox="0 0 15 15" width="100%" height="30px" preserveAspectRatio="xMaxYMin meet">
 <g id="arrow_out" transform="scale(0.3 0.3)">
  <a xlink:href="reporter_8cpp__incl_org.svg" target="_base">
   <rect id="button" ry="5" rx="5" y="6" x="6" height="38" width="38"
        fill="#f2f5e9" fill-opacity="0.5" stroke="#606060" stroke-width="1.0"/>
   <path id="arrow"
     d="M 11.500037,31.436501 C 11.940474,20.09759 22.043105,11.32322 32.158766,21.979434 L 37.068811,17.246167 C 37.068811,17.246167 37.088388,32 37.088388,32 L 22.160133,31.978069 C 22.160133,31.978069 26.997745,27.140456 26.997745,27.140456 C 18.528582,18.264221 13.291696,25.230495 11.500037,31.436501 z"
     style="fill:#404040;"/>
  </a>
 </g>
</svg>

<style type='text/css'>
<![CDATA[
[data-mouse-over-selected='false'] { opacity: 0.7; }
[data-mouse-over-selected='true']  { opacity: 1.0; }
]]>
</style>
<script type="application/ecmascript"><![CDATA[
document.addEventListener('DOMContentLoaded', (event) => {
  highlightEdges();
  highlightAdjacentNodes();
});
]]></script>
</svg>
