<?xml version="1.0" encoding="UTF-8" standalone="no"?>
<!DOCTYPE svg PUBLIC "-//W3C//DTD SVG 1.1//EN"
 "http://www.w3.org/Graphics/SVG/1.1/DTD/svg11.dtd">
<!-- Generated by graphviz version 2.43.0 (0)
 -->
<!-- Title: include/Reporter/reporter.h Pages: 1 -->
<svg width="388pt" height="192pt"
 viewBox="0.00 0.00 388.00 192.00" xmlns="http://www.w3.org/2000/svg" xmlns:xlink="http://www.w3.org/1999/xlink">
<g id="graph0" class="graph" transform="scale(1 1) rotate(0) translate(4 188)">
<title>include/Reporter/reporter.h</title>
<!-- Node1 -->
<g id="Node000001" class="node">
<title>Node1</title>
<g id="a_Node000001"><a xlink:title=" ">
<polygon fill="#999999" stroke="#666666" points="222,-184 75,-184 75,-165 222,-165 222,-184"/>
<text text-anchor="middle" x="148.5" y="-172" font-family="Helvetica,sans-Serif" font-size="10.00">include/Reporter/reporter.h</text>
</a>
</g>
</g>
<!-- Node2 -->
<g id="Node000002" class="node">
<title>Node2</title>
<g id="a_Node000002"><a xlink:href="spreader_8h.html" target="_top" xlink:title=" ">
<polygon fill="white" stroke="#666666" points="224.5,-129 72.5,-129 72.5,-110 224.5,-110 224.5,-129"/>
<text text-anchor="middle" x="148.5" y="-117" font-family="Helvetica,sans-Serif" font-size="10.00">include/Spreader/spreader.h</text>
</a>
</g>
</g>
<!-- Node1&#45;&gt;Node2 -->
<g id="edge1_Node000001_Node000002" class="edge">
<title>Node1&#45;&gt;Node2</title>
<g id="a_edge1_Node000001_Node000002"><a xlink:title=" ">
<path fill="none" stroke="#63b8ff" d="M148.5,-154.66C148.5,-145.93 148.5,-135.99 148.5,-129.09"/>
<polygon fill="#63b8ff" stroke="#63b8ff" points="145,-154.75 148.5,-164.75 152,-154.75 145,-154.75"/>
</a>
</g>
</g>
<!-- Node3 -->
<g id="Node000003" class="node">
<title>Node3</title>
<g id="a_Node000003"><a xlink:href="mlvp_8h.html" target="_top" xlink:title=" ">
<polygon fill="white" stroke="#666666" points="89,-74 0,-74 0,-55 89,-55 89,-74"/>
<text text-anchor="middle" x="44.5" y="-62" font-family="Helvetica,sans-Serif" font-size="10.00">include/mlvp.h</text>
</a>
</g>
</g>
<!-- Node1&#45;&gt;Node3 -->
<g id="edge5_Node000001_Node000003" class="edge">
<title>Node1&#45;&gt;Node3</title>
<g id="a_edge5_Node000001_Node000003"><a xlink:title=" ">
<path fill="none" stroke="#63b8ff" d="M110.07,-161.08C93.66,-154.02 75.55,-143.61 63.5,-129 50.18,-112.84 46.19,-87.56 45,-74.3"/>
<polygon fill="#63b8ff" stroke="#63b8ff" points="108.9,-164.38 119.48,-164.85 111.5,-157.88 108.9,-164.38"/>
</a>
</g>
</g>
<!-- Node6 -->
<g id="Node000006" class="node">
<title>Node6</title>
<g id="a_Node000006"><a xlink:href="reporter_8cpp.html" target="_top" xlink:title=" ">
<polygon fill="white" stroke="#666666" points="380,-129 243,-129 243,-110 380,-110 380,-129"/>
<text text-anchor="middle" x="311.5" y="-117" font-family="Helvetica,sans-Serif" font-size="10.00">src/Reporter/reporter.cpp</text>
</a>
</g>
</g>
<!-- Node1&#45;&gt;Node6 -->
<g id="edge6_Node000001_Node000006" class="edge">
<title>Node1&#45;&gt;Node6</title>
<g id="a_edge6_Node000001_Node000006"><a xlink:title=" ">
<path fill="none" stroke="#63b8ff" d="M184.49,-161.8C214.91,-151.91 257.78,-137.97 285.11,-129.08"/>
<polygon fill="#63b8ff" stroke="#63b8ff" points="183.12,-158.56 174.69,-164.98 185.28,-165.22 183.12,-158.56"/>
</a>
</g>
</g>
<!-- Node2&#45;&gt;Node3 -->
<g id="edge2_Node000002_Node000003" class="edge">
<title>Node2&#45;&gt;Node3</title>
<g id="a_edge2_Node000002_Node000003"><a xlink:title=" ">
<path fill="none" stroke="#63b8ff" d="M122.73,-105.37C103.63,-95.63 78.13,-82.64 61.51,-74.17"/>
<polygon fill="#63b8ff" stroke="#63b8ff" points="121.29,-108.56 131.79,-109.98 124.47,-102.33 121.29,-108.56"/>
</a>
</g>
</g>
<!-- Node5 -->
<g id="Node000005" class="node">
<title>Node5</title>
<g id="a_Node000005"><a xlink:href="spreader_8cpp.html" target="_top" xlink:title=" ">
<polygon fill="white" stroke="#666666" points="250,-74 107,-74 107,-55 250,-55 250,-74"/>
<text text-anchor="middle" x="178.5" y="-62" font-family="Helvetica,sans-Serif" font-size="10.00">src/Spreader/spreader.cpp</text>
</a>
</g>
</g>
<!-- Node2&#45;&gt;Node5 -->
<g id="edge4_Node000002_Node000005" class="edge">
<title>Node2&#45;&gt;Node5</title>
<g id="a_edge4_Node000002_Node000005"><a xlink:title=" ">
<path fill="none" stroke="#63b8ff" d="M158.51,-100.82C163.6,-91.82 169.56,-81.29 173.64,-74.09"/>
<polygon fill="#63b8ff" stroke="#63b8ff" points="155.33,-99.32 153.45,-109.75 161.43,-102.77 155.33,-99.32"/>
</a>
</g>
</g>
<!-- Node4 -->
<g id="Node000004" class="node">
<title>Node4</title>
<g id="a_Node000004"><a xlink:href="main_8cpp.html" target="_top" xlink:title=" ">
<polygon fill="white" stroke="#666666" points="84,-19 5,-19 5,0 84,0 84,-19"/>
<text text-anchor="middle" x="44.5" y="-7" font-family="Helvetica,sans-Serif" font-size="10.00">src/main.cpp</text>
</a>
</g>
</g>
<!-- Node3&#45;&gt;Node4 -->
<g id="edge3_Node000003_Node000004" class="edge">
<title>Node3&#45;&gt;Node4</title>
<g id="a_edge3_Node000003_Node000004"><a xlink:title=" ">
<path fill="none" stroke="#63b8ff" d="M44.5,-44.66C44.5,-35.93 44.5,-25.99 44.5,-19.09"/>
<polygon fill="#63b8ff" stroke="#63b8ff" points="41,-44.75 44.5,-54.75 48,-44.75 41,-44.75"/>
</a>
</g>
</g>
</g>
</svg>
