<?xml version="1.0" encoding="UTF-8" standalone="no"?>
<!DOCTYPE svg PUBLIC "-//W3C//DTD SVG 1.1//EN"
 "http://www.w3.org/Graphics/SVG/1.1/DTD/svg11.dtd">
<!-- Generated by graphviz version 2.43.0 (0)
 -->
<!-- Title: src/Reporter/reporter.cpp Pages: 1 -->
<!--zoomable 302 -->

<svg id="main" version="1.1" xmlns="http://www.w3.org/2000/svg" xmlns:xlink="http://www.w3.org/1999/xlink" xml:space="preserve" onload="init(evt)">
<style type="text/css"><![CDATA[
.node, .edge {opacity: 0.7;}
.node.selected, .edge.selected {opacity: 1;}
.edge:hover path { stroke: red; }
.edge:hover polygon { stroke: red; fill: red; }
]]></style>

<defs>
  <circle id="rim" cx="0" cy="0" r="7"/>
  <circle id="rim2" cx="0" cy="0" r="3.5"/>
  <g id="zoomPlus">
    <use xlink:href="#rim" fill="#404040"><set attributeName="fill" to="#808080" begin="zoomplus.mouseover" end="zoomplus.mouseout"/></use>
    <path d="M-4,0h8M0,-4v8" fill="none" stroke="white" stroke-width="1.5" pointer-events="none"/>
  </g>
  <g id="zoomMin">
    <use xlink:href="#rim" fill="#404040"><set attributeName="fill" to="#808080" begin="zoomminus.mouseover" end="zoomminus.mouseout"/></use>
    <path d="M-4,0h8" fill="none" stroke="white" stroke-width="1.5" pointer-events="none"/>
  </g>
  <g id="arrowUp" transform="translate(30 24)">
    <use xlink:href="#rim"/>
    <path pointer-events="none" fill="none" stroke="white" stroke-width="1.5" d="M0,-3.0v7 M-2.5,-0.5L0,-3.0L2.5,-0.5"/>
  </g>
  <g id="arrowRight" transform="rotate(90) translate(36 -43)">
    <use xlink:href="#rim"/>
    <path pointer-events="none" fill="none" stroke="white" stroke-width="1.5" d="M0,-3.0v7 M-2.5,-0.5L0,-3.0L2.5,-0.5"/>
  </g>
  <g id="arrowDown" transform="rotate(180) translate(-30 -48)">
    <use xlink:href="#rim"/>
    <path pointer-events="none" fill="none" stroke="white" stroke-width="1.5" d="M0,-3.0v7 M-2.5,-0.5L0,-3.0L2.5,-0.5"/>
  </g>
  <g id="arrowLeft" transform="rotate(270) translate(-36 17)">
    <use xlink:href="#rim"/>
    <path pointer-events="none" fill="none" stroke="white" stroke-width="1.5" d="M0,-3.0v7 M-2.5,-0.5L0,-3.0L2.5,-0.5"/>
  </g>
  <g id="resetDef">
    <use xlink:href="#rim2" fill="#404040"><set attributeName="fill" to="#808080" begin="reset.mouseover" end="reset.mouseout"/></use>
  </g>
</defs>
<script type="application/ecmascript">
var viewWidth = 828;
var viewHeight = 302;
var sectionId = 'dynsection-0';
</script>
<script type="application/ecmascript" xlink:href="svg.min.js"/>
<svg id="graph" class="graph">
<g id="viewport">
<title>src/Reporter/reporter.cpp</title>
<!-- Node1 -->
<g id="Node000001" class="node">
<title>Node1</title>
<g id="a_Node000001"><a xlink:title=" ">
<polygon fill="#999999" stroke="#666666" points="672.5,-294 535.5,-294 535.5,-275 672.5,-275 672.5,-294"/>
<text text-anchor="middle" x="604" y="-282" font-family="Helvetica,sans-Serif" font-size="10.00">src/Reporter/reporter.cpp</text>
</a>
</g>
</g>
<!-- Node2 -->
<g id="Node000002" class="node">
<title>Node2</title>
<g id="a_Node000002"><a xlink:href="reporter_8h.html" target="_top" xlink:title=" ">
<polygon fill="white" stroke="#666666" points="419.5,-239 310.5,-239 310.5,-220 419.5,-220 419.5,-239"/>
<text text-anchor="middle" x="365" y="-227" font-family="Helvetica,sans-Serif" font-size="10.00">Reporter/reporter.h</text>
</a>
</g>
</g>
<!-- Node1&#45;&gt;Node2 -->
<g id="edge1_Node000001_Node000002" class="edge">
<title>Node1&#45;&gt;Node2</title>
<g id="a_edge1_Node000001_Node000002"><a xlink:title=" ">
<path fill="none" stroke="#63b8ff" d="M565.6,-274.98C524.26,-265.82 458.4,-251.21 413.51,-241.26"/>
<polygon fill="#63b8ff" stroke="#63b8ff" points="414.22,-237.83 403.7,-239.08 412.71,-244.66 414.22,-237.83"/>
</a>
</g>
</g>
<!-- Node4 -->
<g id="Node000004" class="node">
<title>Node4</title>
<g id="a_Node000004"><a xlink:title=" ">
<polygon fill="#e0e0e0" stroke="#999999" points="191,-19 147,-19 147,0 191,0 191,-19"/>
<text text-anchor="middle" x="169" y="-7" font-family="Helvetica,sans-Serif" font-size="10.00">string</text>
</a>
</g>
</g>
<!-- Node1&#45;&gt;Node4 -->
<g id="edge32_Node000001_Node000004" class="edge">
<title>Node1&#45;&gt;Node4</title>
<g id="a_edge32_Node000001_Node000004"><a xlink:title=" ">
<path fill="none" stroke="#63b8ff" d="M535.3,-278.34C376.99,-265.53 0,-229.36 0,-175.5 0,-175.5 0,-175.5 0,-118.5 0,-54.14 88.12,-26.41 137.09,-15.97"/>
<polygon fill="#63b8ff" stroke="#63b8ff" points="137.79,-19.4 146.91,-14 136.41,-12.54 137.79,-19.4"/>
</a>
</g>
</g>
<!-- Node7 -->
<g id="Node000007" class="node">
<title>Node7</title>
<g id="a_Node000007"><a xlink:title=" ">
<polygon fill="#e0e0e0" stroke="#999999" points="686,-74 626,-74 626,-55 686,-55 686,-74"/>
<text text-anchor="middle" x="656" y="-62" font-family="Helvetica,sans-Serif" font-size="10.00">iostream</text>
</a>
</g>
</g>
<!-- Node1&#45;&gt;Node7 -->
<g id="edge30_Node000001_Node000007" class="edge">
<title>Node1&#45;&gt;Node7</title>
<g id="a_edge30_Node000001_Node000007"><a xlink:title=" ">
<path fill="none" stroke="#63b8ff" d="M672.98,-275.2C720.18,-268.1 777.14,-256.27 794,-239 828.89,-203.26 811.86,-178.68 817,-129 817.87,-120.6 822.11,-116.72 817,-110 802.44,-90.87 739.19,-77.85 696.43,-71.05"/>
<polygon fill="#63b8ff" stroke="#63b8ff" points="696.73,-67.56 686.32,-69.5 695.67,-74.48 696.73,-67.56"/>
</a>
</g>
</g>
<!-- Node18 -->
<g id="Node000018" class="node">
<title>Node18</title>
<g id="a_Node000018"><a xlink:title=" ">
<polygon fill="#e0e0e0" stroke="#999999" points="631.5,-239 576.5,-239 576.5,-220 631.5,-220 631.5,-239"/>
<text text-anchor="middle" x="604" y="-227" font-family="Helvetica,sans-Serif" font-size="10.00">fstream</text>
</a>
</g>
</g>
<!-- Node1&#45;&gt;Node18 -->
<g id="edge31_Node000001_Node000018" class="edge">
<title>Node1&#45;&gt;Node18</title>
<g id="a_edge31_Node000001_Node000018"><a xlink:title=" ">
<path fill="none" stroke="#63b8ff" d="M604,-274.75C604,-267.8 604,-257.85 604,-249.13"/>
<polygon fill="#63b8ff" stroke="#63b8ff" points="607.5,-249.09 604,-239.09 600.5,-249.09 607.5,-249.09"/>
</a>
</g>
</g>
<!-- Node19 -->
<g id="Node000019" class="node">
<title>Node19</title>
<g id="a_Node000019"><a xlink:title=" ">
<polygon fill="#e0e0e0" stroke="#999999" points="698.5,-239 649.5,-239 649.5,-220 698.5,-220 698.5,-239"/>
<text text-anchor="middle" x="674" y="-227" font-family="Helvetica,sans-Serif" font-size="10.00">cstdlib</text>
</a>
</g>
</g>
<!-- Node1&#45;&gt;Node19 -->
<g id="edge33_Node000001_Node000019" class="edge">
<title>Node1&#45;&gt;Node19</title>
<g id="a_edge33_Node000001_Node000019"><a xlink:title=" ">
<path fill="none" stroke="#63b8ff" d="M615.25,-274.98C625.8,-267 641.8,-254.88 654.44,-245.31"/>
<polygon fill="#63b8ff" stroke="#63b8ff" points="656.69,-248 662.55,-239.17 652.46,-242.42 656.69,-248"/>
</a>
</g>
</g>
<!-- Node20 -->
<g id="Node000020" class="node">
<title>Node20</title>
<g id="a_Node000020"><a xlink:title=" ">
<polygon fill="#e0e0e0" stroke="#999999" points="785,-239 717,-239 717,-220 785,-220 785,-239"/>
<text text-anchor="middle" x="751" y="-227" font-family="Helvetica,sans-Serif" font-size="10.00">filesystem</text>
</a>
</g>
</g>
<!-- Node1&#45;&gt;Node20 -->
<g id="edge34_Node000001_Node000020" class="edge">
<title>Node1&#45;&gt;Node20</title>
<g id="a_edge34_Node000001_Node000020"><a xlink:title=" ">
<path fill="none" stroke="#63b8ff" d="M627.62,-274.98C651.9,-266.23 689.95,-252.51 717.37,-242.62"/>
<polygon fill="#63b8ff" stroke="#63b8ff" points="718.73,-245.85 726.95,-239.17 716.36,-239.27 718.73,-245.85"/>
</a>
</g>
</g>
<!-- Node21 -->
<g id="Node000021" class="node">
<title>Node21</title>
<g id="a_Node000021"><a xlink:href="database_8h.html" target="_top" xlink:title=" ">
<polygon fill="white" stroke="#666666" points="558,-239 438,-239 438,-220 558,-220 558,-239"/>
<text text-anchor="middle" x="498" y="-227" font-family="Helvetica,sans-Serif" font-size="10.00">Database/database.h</text>
</a>
</g>
</g>
<!-- Node1&#45;&gt;Node21 -->
<g id="edge35_Node000001_Node000021" class="edge">
<title>Node1&#45;&gt;Node21</title>
<g id="a_edge35_Node000001_Node000021"><a xlink:title=" ">
<path fill="none" stroke="#63b8ff" d="M586.97,-274.98C570.07,-266.54 543.94,-253.47 524.36,-243.68"/>
<polygon fill="#63b8ff" stroke="#63b8ff" points="525.85,-240.51 515.34,-239.17 522.72,-246.77 525.85,-240.51"/>
</a>
</g>
</g>
<!-- Node3 -->
<g id="Node000003" class="node">
<title>Node3</title>
<g id="a_Node000003"><a xlink:title=" ">
<polygon fill="#e0e0e0" stroke="#999999" points="808,-129 750,-129 750,-110 808,-110 808,-129"/>
<text text-anchor="middle" x="779" y="-117" font-family="Helvetica,sans-Serif" font-size="10.00">memory</text>
</a>
</g>
</g>
<!-- Node2&#45;&gt;Node3 -->
<g id="edge2_Node000002_Node000003" class="edge">
<title>Node2&#45;&gt;Node3</title>
<g id="a_edge2_Node000002_Node000003"><a xlink:title=" ">
<path fill="none" stroke="#63b8ff" d="M397.83,-219.94C473.3,-200.25 658.87,-151.84 739.99,-130.68"/>
<polygon fill="#63b8ff" stroke="#63b8ff" points="741.01,-134.03 749.8,-128.12 739.24,-127.25 741.01,-134.03"/>
</a>
</g>
</g>
<!-- Node2&#45;&gt;Node4 -->
<g id="edge3_Node000002_Node000004" class="edge">
<title>Node2&#45;&gt;Node4</title>
<g id="a_edge3_Node000002_Node000004"><a xlink:title=" ">
<path fill="none" stroke="#63b8ff" d="M310.29,-222.23C252.18,-212.57 161.97,-188.43 112,-129 89.57,-102.32 68.1,-84.91 86,-55 97.1,-36.45 118.88,-25.19 137.34,-18.64"/>
<polygon fill="#63b8ff" stroke="#63b8ff" points="138.46,-21.96 146.9,-15.55 136.3,-15.3 138.46,-21.96"/>
</a>
</g>
</g>
<!-- Node5 -->
<g id="Node000005" class="node">
<title>Node5</title>
<g id="a_Node000005"><a xlink:title=" ">
<polygon fill="#e0e0e0" stroke="#999999" points="149.5,-74 104.5,-74 104.5,-55 149.5,-55 149.5,-74"/>
<text text-anchor="middle" x="127" y="-62" font-family="Helvetica,sans-Serif" font-size="10.00">utility</text>
</a>
</g>
</g>
<!-- Node2&#45;&gt;Node5 -->
<g id="edge4_Node000002_Node000005" class="edge">
<title>Node2&#45;&gt;Node5</title>
<g id="a_edge4_Node000002_Node000005"><a xlink:title=" ">
<path fill="none" stroke="#63b8ff" d="M323.03,-219.92C274.32,-207.83 194.72,-181.19 148,-129 136.99,-116.7 131.73,-98.47 129.23,-84.7"/>
<polygon fill="#63b8ff" stroke="#63b8ff" points="132.64,-83.79 127.72,-74.4 125.71,-84.81 132.64,-83.79"/>
</a>
</g>
</g>
<!-- Node6 -->
<g id="Node000006" class="node">
<title>Node6</title>
<g id="a_Node000006"><a xlink:href="transaction_8h_source.html" target="_top" xlink:title=" ">
<polygon fill="white" stroke="#666666" points="526.5,-184 387.5,-184 387.5,-165 526.5,-165 526.5,-184"/>
<text text-anchor="middle" x="457" y="-172" font-family="Helvetica,sans-Serif" font-size="10.00">Transaction/transaction.h</text>
</a>
</g>
</g>
<!-- Node2&#45;&gt;Node6 -->
<g id="edge5_Node000002_Node000006" class="edge">
<title>Node2&#45;&gt;Node6</title>
<g id="a_edge5_Node000002_Node000006"><a xlink:title=" ">
<path fill="none" stroke="#63b8ff" d="M379.78,-219.98C394.18,-211.69 416.31,-198.94 433.19,-189.22"/>
<polygon fill="#63b8ff" stroke="#63b8ff" points="435.03,-192.19 441.95,-184.17 431.54,-186.13 435.03,-192.19"/>
</a>
</g>
</g>
<!-- Node6&#45;&gt;Node3 -->
<g id="edge10_Node000006_Node000003" class="edge">
<title>Node6&#45;&gt;Node3</title>
<g id="a_edge10_Node000006_Node000003"><a xlink:title=" ">
<path fill="none" stroke="#63b8ff" d="M518.97,-164.97C574.38,-157.07 658.03,-144.49 740.01,-129.08"/>
<polygon fill="#63b8ff" stroke="#63b8ff" points="740.82,-132.49 749.99,-127.19 739.52,-125.61 740.82,-132.49"/>
</a>
</g>
</g>
<!-- Node6&#45;&gt;Node4 -->
<g id="edge7_Node000006_Node000004" class="edge">
<title>Node6&#45;&gt;Node4</title>
<g id="a_edge7_Node000006_Node000004"><a xlink:title=" ">
<path fill="none" stroke="#63b8ff" d="M387.28,-168.73C309.29,-162.47 188.58,-149.79 148,-129 112,-110.55 75.09,-90.21 95,-55 104.11,-38.9 121.63,-27.98 137.33,-20.99"/>
<polygon fill="#63b8ff" stroke="#63b8ff" points="138.85,-24.15 146.79,-17.13 136.21,-17.67 138.85,-24.15"/>
</a>
</g>
</g>
<!-- Node6&#45;&gt;Node5 -->
<g id="edge8_Node000006_Node000005" class="edge">
<title>Node6&#45;&gt;Node5</title>
<g id="a_edge8_Node000006_Node000005"><a xlink:title=" ">
<path fill="none" stroke="#63b8ff" d="M387.26,-168.94C314.46,-163.1 206.08,-150.97 171,-129 153.82,-118.24 141.59,-98.05 134.45,-83.32"/>
<polygon fill="#63b8ff" stroke="#63b8ff" points="137.63,-81.85 130.33,-74.18 131.25,-84.73 137.63,-81.85"/>
</a>
</g>
</g>
<!-- Node6&#45;&gt;Node7 -->
<g id="edge6_Node000006_Node000007" class="edge">
<title>Node6&#45;&gt;Node7</title>
<g id="a_edge6_Node000006_Node000007"><a xlink:title=" ">
<path fill="none" stroke="#63b8ff" d="M518.25,-164.97C563.45,-157.49 619.93,-145.27 637,-129 649.1,-117.48 653.58,-98.6 655.2,-84.42"/>
<polygon fill="#63b8ff" stroke="#63b8ff" points="658.7,-84.51 655.97,-74.28 651.72,-83.98 658.7,-84.51"/>
</a>
</g>
</g>
<!-- Node8 -->
<g id="Node000008" class="node">
<title>Node8</title>
<g id="a_Node000008"><a xlink:title=" ">
<polygon fill="#e0e0e0" stroke="#999999" points="496.5,-19 449.5,-19 449.5,0 496.5,0 496.5,-19"/>
<text text-anchor="middle" x="473" y="-7" font-family="Helvetica,sans-Serif" font-size="10.00">vector</text>
</a>
</g>
</g>
<!-- Node6&#45;&gt;Node8 -->
<g id="edge9_Node000006_Node000008" class="edge">
<title>Node6&#45;&gt;Node8</title>
<g id="a_edge9_Node000006_Node000008"><a xlink:title=" ">
<path fill="none" stroke="#63b8ff" d="M468.49,-164.95C488.17,-149.46 527.55,-114.55 541,-74 543.66,-65.99 545.02,-62.43 541,-55 533.42,-40.98 519.3,-30.67 505.87,-23.53"/>
<polygon fill="#63b8ff" stroke="#63b8ff" points="507.3,-20.33 496.78,-19.08 504.23,-26.62 507.3,-20.33"/>
</a>
</g>
</g>
<!-- Node9 -->
<g id="Node000009" class="node">
<title>Node9</title>
<g id="a_Node000009"><a xlink:title=" ">
<polygon fill="#e0e0e0" stroke="#999999" points="732,-129 684,-129 684,-110 732,-110 732,-129"/>
<text text-anchor="middle" x="708" y="-117" font-family="Helvetica,sans-Serif" font-size="10.00">mutex</text>
</a>
</g>
</g>
<!-- Node6&#45;&gt;Node9 -->
<g id="edge11_Node000006_Node000009" class="edge">
<title>Node6&#45;&gt;Node9</title>
<g id="a_edge11_Node000006_Node000009"><a xlink:title=" ">
<path fill="none" stroke="#63b8ff" d="M498.67,-164.98C541.63,-156.14 610.55,-141.86 670,-129 671.26,-128.73 672.55,-128.45 673.85,-128.16"/>
<polygon fill="#63b8ff" stroke="#63b8ff" points="674.88,-131.52 683.89,-125.95 673.37,-124.68 674.88,-131.52"/>
</a>
</g>
</g>
<!-- Node10 -->
<g id="Node000010" class="node">
<title>Node10</title>
<g id="a_Node000010"><a xlink:title=" ">
<polygon fill="#e0e0e0" stroke="#999999" points="532,-74 494,-74 494,-55 532,-55 532,-74"/>
<text text-anchor="middle" x="513" y="-62" font-family="Helvetica,sans-Serif" font-size="10.00">map</text>
</a>
</g>
</g>
<!-- Node6&#45;&gt;Node10 -->
<g id="edge12_Node000006_Node000010" class="edge">
<title>Node6&#45;&gt;Node10</title>
<g id="a_edge12_Node000006_Node000010"><a xlink:title=" ">
<path fill="none" stroke="#63b8ff" d="M461.58,-164.66C470.78,-146.93 491.62,-106.73 503.76,-83.32"/>
<polygon fill="#63b8ff" stroke="#63b8ff" points="507.01,-84.65 508.51,-74.16 500.8,-81.42 507.01,-84.65"/>
</a>
</g>
</g>
<!-- Node11 -->
<g id="Node000011" class="node">
<title>Node11</title>
<g id="a_Node000011"><a xlink:title=" ">
<polygon fill="#e0e0e0" stroke="#999999" points="236,-129 180,-129 180,-110 236,-110 236,-129"/>
<text text-anchor="middle" x="208" y="-117" font-family="Helvetica,sans-Serif" font-size="10.00">optional</text>
</a>
</g>
</g>
<!-- Node6&#45;&gt;Node11 -->
<g id="edge13_Node000006_Node000011" class="edge">
<title>Node6&#45;&gt;Node11</title>
<g id="a_edge13_Node000006_Node000011"><a xlink:title=" ">
<path fill="none" stroke="#63b8ff" d="M416.99,-164.98C369.96,-154.97 292.47,-138.48 246.22,-128.64"/>
<polygon fill="#63b8ff" stroke="#63b8ff" points="246.8,-125.18 236.29,-126.52 245.34,-132.03 246.8,-125.18"/>
</a>
</g>
</g>
<!-- Node12 -->
<g id="Node000012" class="node">
<title>Node12</title>
<g id="a_Node000012"><a xlink:title=" ">
<polygon fill="#e0e0e0" stroke="#999999" points="232.5,-74 167.5,-74 167.5,-55 232.5,-55 232.5,-74"/>
<text text-anchor="middle" x="200" y="-62" font-family="Helvetica,sans-Serif" font-size="10.00">functional</text>
</a>
</g>
</g>
<!-- Node6&#45;&gt;Node12 -->
<g id="edge14_Node000006_Node000012" class="edge">
<title>Node6&#45;&gt;Node12</title>
<g id="a_edge14_Node000006_Node000012"><a xlink:title=" ">
<path fill="none" stroke="#63b8ff" d="M400.14,-164.94C365.13,-158.24 320.03,-146.97 283,-129 257.42,-116.59 232.06,-95.58 216.23,-81.15"/>
<polygon fill="#63b8ff" stroke="#63b8ff" points="218.57,-78.55 208.88,-74.29 213.8,-83.67 218.57,-78.55"/>
</a>
</g>
</g>
<!-- Node13 -->
<g id="Node000013" class="node">
<title>Node13</title>
<g id="a_Node000013"><a xlink:href="types_8h.html" target="_top" xlink:title=" ">
<polygon fill="white" stroke="#666666" points="437.5,-74 348.5,-74 348.5,-55 437.5,-55 437.5,-74"/>
<text text-anchor="middle" x="393" y="-62" font-family="Helvetica,sans-Serif" font-size="10.00">Library/types.h</text>
</a>
</g>
</g>
<!-- Node6&#45;&gt;Node13 -->
<g id="edge15_Node000006_Node000013" class="edge">
<title>Node6&#45;&gt;Node13</title>
<g id="a_edge15_Node000006_Node000013"><a xlink:title=" ">
<path fill="none" stroke="#63b8ff" d="M451.76,-164.66C441.21,-146.85 417.22,-106.37 403.37,-83.01"/>
<polygon fill="#63b8ff" stroke="#63b8ff" points="406.24,-80.98 398.13,-74.16 400.22,-84.55 406.24,-80.98"/>
</a>
</g>
</g>
<!-- Node15 -->
<g id="Node000015" class="node">
<title>Node15</title>
<g id="a_Node000015"><a xlink:href="error_8h.html" target="_top" xlink:title=" ">
<polygon fill="white" stroke="#666666" points="627.5,-129 542.5,-129 542.5,-110 627.5,-110 627.5,-129"/>
<text text-anchor="middle" x="585" y="-117" font-family="Helvetica,sans-Serif" font-size="10.00">Library/error.h</text>
</a>
</g>
</g>
<!-- Node6&#45;&gt;Node15 -->
<g id="edge19_Node000006_Node000015" class="edge">
<title>Node6&#45;&gt;Node15</title>
<g id="a_edge19_Node000006_Node000015"><a xlink:title=" ">
<path fill="none" stroke="#63b8ff" d="M477.57,-164.98C498.43,-156.34 530.97,-142.87 554.77,-133.02"/>
<polygon fill="#63b8ff" stroke="#63b8ff" points="556.16,-136.23 564.06,-129.17 553.48,-129.76 556.16,-136.23"/>
</a>
</g>
</g>
<!-- Node16 -->
<g id="Node000016" class="node">
<title>Node16</title>
<g id="a_Node000016"><a xlink:href="evaluate_8h.html" target="_top" xlink:title=" ">
<polygon fill="white" stroke="#666666" points="410,-129 292,-129 292,-110 410,-110 410,-129"/>
<text text-anchor="middle" x="351" y="-117" font-family="Helvetica,sans-Serif" font-size="10.00">Evaluator/evaluate.h</text>
</a>
</g>
</g>
<!-- Node6&#45;&gt;Node16 -->
<g id="edge22_Node000006_Node000016" class="edge">
<title>Node6&#45;&gt;Node16</title>
<g id="a_edge22_Node000006_Node000016"><a xlink:title=" ">
<path fill="none" stroke="#63b8ff" d="M439.97,-164.98C423.07,-156.54 396.94,-143.47 377.36,-133.68"/>
<polygon fill="#63b8ff" stroke="#63b8ff" points="378.85,-130.51 368.34,-129.17 375.72,-136.77 378.85,-130.51"/>
</a>
</g>
</g>
<!-- Node13&#45;&gt;Node4 -->
<g id="edge18_Node000013_Node000004" class="edge">
<title>Node13&#45;&gt;Node4</title>
<g id="a_edge18_Node000013_Node000004"><a xlink:title=" ">
<path fill="none" stroke="#63b8ff" d="M357.01,-54.98C313.92,-44.79 242.39,-27.86 201.1,-18.09"/>
<polygon fill="#63b8ff" stroke="#63b8ff" points="201.82,-14.67 191.29,-15.77 200.21,-21.48 201.82,-14.67"/>
</a>
</g>
</g>
<!-- Node13&#45;&gt;Node8 -->
<g id="edge16_Node000013_Node000008" class="edge">
<title>Node13&#45;&gt;Node8</title>
<g id="a_edge16_Node000013_Node000008"><a xlink:title=" ">
<path fill="none" stroke="#63b8ff" d="M405.85,-54.98C418.14,-46.84 436.91,-34.41 451.48,-24.76"/>
<polygon fill="#63b8ff" stroke="#63b8ff" points="453.51,-27.61 459.91,-19.17 449.64,-21.78 453.51,-27.61"/>
</a>
</g>
</g>
<!-- Node14 -->
<g id="Node000014" class="node">
<title>Node14</title>
<g id="a_Node000014"><a xlink:title=" ">
<polygon fill="#e0e0e0" stroke="#999999" points="431.5,-19 338.5,-19 338.5,0 431.5,0 431.5,-19"/>
<text text-anchor="middle" x="385" y="-7" font-family="Helvetica,sans-Serif" font-size="10.00">unordered_map</text>
</a>
</g>
</g>
<!-- Node13&#45;&gt;Node14 -->
<g id="edge17_Node000013_Node000014" class="edge">
<title>Node13&#45;&gt;Node14</title>
<g id="a_edge17_Node000013_Node000014"><a xlink:title=" ">
<path fill="none" stroke="#63b8ff" d="M391.68,-54.75C390.63,-47.8 389.13,-37.85 387.81,-29.13"/>
<polygon fill="#63b8ff" stroke="#63b8ff" points="391.25,-28.45 386.3,-19.09 384.33,-29.5 391.25,-28.45"/>
</a>
</g>
</g>
<!-- Node15&#45;&gt;Node4 -->
<g id="edge20_Node000015_Node000004" class="edge">
<title>Node15&#45;&gt;Node4</title>
<g id="a_edge20_Node000015_Node000004"><a xlink:title=" ">
<path fill="none" stroke="#63b8ff" d="M581.72,-109.74C575.92,-95.56 562.37,-67.87 541,-55 512.14,-37.63 286.43,-19.23 201.33,-12.85"/>
<polygon fill="#63b8ff" stroke="#63b8ff" points="201.44,-9.34 191.2,-12.09 200.92,-16.32 201.44,-9.34"/>
</a>
</g>
</g>
<!-- Node15&#45;&gt;Node7 -->
<g id="edge21_Node000015_Node000007" class="edge">
<title>Node15&#45;&gt;Node7</title>
<g id="a_edge21_Node000015_Node000007"><a xlink:title=" ">
<path fill="none" stroke="#63b8ff" d="M596.41,-109.98C607.11,-102 623.34,-89.88 636.16,-80.31"/>
<polygon fill="#63b8ff" stroke="#63b8ff" points="638.47,-82.96 644.39,-74.17 634.28,-77.35 638.47,-82.96"/>
</a>
</g>
</g>
<!-- Node16&#45;&gt;Node4 -->
<g id="edge25_Node000016_Node000004" class="edge">
<title>Node16&#45;&gt;Node4</title>
<g id="a_edge25_Node000016_Node000004"><a xlink:title=" ">
<path fill="none" stroke="#63b8ff" d="M336.41,-109.84C304.92,-91.16 230.33,-46.9 192.25,-24.3"/>
<polygon fill="#63b8ff" stroke="#63b8ff" points="193.79,-21.14 183.4,-19.05 190.22,-27.16 193.79,-21.14"/>
</a>
</g>
</g>
<!-- Node16&#45;&gt;Node5 -->
<g id="edge23_Node000016_Node000005" class="edge">
<title>Node16&#45;&gt;Node5</title>
<g id="a_edge23_Node000016_Node000005"><a xlink:title=" ">
<path fill="none" stroke="#63b8ff" d="M311.7,-109.94C274.69,-101.76 217.45,-88.83 159.36,-74.27"/>
<polygon fill="#63b8ff" stroke="#63b8ff" points="160.21,-70.88 149.66,-71.83 158.5,-77.67 160.21,-70.88"/>
</a>
</g>
</g>
<!-- Node16&#45;&gt;Node8 -->
<g id="edge24_Node000016_Node000008" class="edge">
<title>Node16&#45;&gt;Node8</title>
<g id="a_edge24_Node000016_Node000008"><a xlink:title=" ">
<path fill="none" stroke="#63b8ff" d="M383.17,-109.93C403.44,-103.1 428.93,-91.7 446,-74 457.94,-61.62 464.98,-43.15 468.86,-29.31"/>
<polygon fill="#63b8ff" stroke="#63b8ff" points="472.31,-29.97 471.33,-19.42 465.52,-28.27 472.31,-29.97"/>
</a>
</g>
</g>
<!-- Node16&#45;&gt;Node10 -->
<g id="edge28_Node000016_Node000010" class="edge">
<title>Node16&#45;&gt;Node10</title>
<g id="a_edge28_Node000016_Node000010"><a xlink:title=" ">
<path fill="none" stroke="#63b8ff" d="M377.03,-109.98C406.28,-100.42 453.64,-84.92 484.04,-74.98"/>
<polygon fill="#63b8ff" stroke="#63b8ff" points="485.23,-78.27 493.65,-71.83 483.05,-71.62 485.23,-78.27"/>
</a>
</g>
</g>
<!-- Node16&#45;&gt;Node12 -->
<g id="edge26_Node000016_Node000012" class="edge">
<title>Node16&#45;&gt;Node12</title>
<g id="a_edge26_Node000016_Node000012"><a xlink:title=" ">
<path fill="none" stroke="#63b8ff" d="M326.74,-109.98C301.68,-101.19 262.37,-87.39 234.17,-77.49"/>
<polygon fill="#63b8ff" stroke="#63b8ff" points="235.3,-74.18 224.7,-74.17 232.98,-80.78 235.3,-74.18"/>
</a>
</g>
</g>
<!-- Node16&#45;&gt;Node13 -->
<g id="edge29_Node000016_Node000013" class="edge">
<title>Node16&#45;&gt;Node13</title>
<g id="a_edge29_Node000016_Node000013"><a xlink:title=" ">
<path fill="none" stroke="#63b8ff" d="M357.94,-109.75C363.87,-102.26 372.57,-91.28 379.82,-82.13"/>
<polygon fill="#63b8ff" stroke="#63b8ff" points="382.73,-84.1 386.19,-74.09 377.24,-79.75 382.73,-84.1"/>
</a>
</g>
</g>
<!-- Node17 -->
<g id="Node000017" class="node">
<title>Node17</title>
<g id="a_Node000017"><a xlink:title=" ">
<polygon fill="#e0e0e0" stroke="#999999" points="330.5,-74 289.5,-74 289.5,-55 330.5,-55 330.5,-74"/>
<text text-anchor="middle" x="310" y="-62" font-family="Helvetica,sans-Serif" font-size="10.00">tuple</text>
</a>
</g>
</g>
<!-- Node16&#45;&gt;Node17 -->
<g id="edge27_Node000016_Node000017" class="edge">
<title>Node16&#45;&gt;Node17</title>
<g id="a_edge27_Node000016_Node000017"><a xlink:title=" ">
<path fill="none" stroke="#63b8ff" d="M344.23,-109.75C338.44,-102.26 329.94,-91.28 322.86,-82.13"/>
<polygon fill="#63b8ff" stroke="#63b8ff" points="325.53,-79.86 316.64,-74.09 319.99,-84.14 325.53,-79.86"/>
</a>
</g>
</g>
<!-- Node21&#45;&gt;Node3 -->
<g id="edge36_Node000021_Node000003" class="edge">
<title>Node21&#45;&gt;Node3</title>
<g id="a_edge36_Node000021_Node000003"><a xlink:title=" ">
<path fill="none" stroke="#63b8ff" d="M520.52,-219.84C570.28,-200.72 689.71,-154.82 747.12,-132.75"/>
<polygon fill="#63b8ff" stroke="#63b8ff" points="748.68,-135.9 756.76,-129.05 746.17,-129.37 748.68,-135.9"/>
</a>
</g>
</g>
<!-- Node21&#45;&gt;Node6 -->
<g id="edge37_Node000021_Node000006" class="edge">
<title>Node21&#45;&gt;Node6</title>
<g id="a_edge37_Node000021_Node000006"><a xlink:title=" ">
<path fill="none" stroke="#63b8ff" d="M491.23,-219.75C485.44,-212.26 476.94,-201.28 469.86,-192.13"/>
<polygon fill="#63b8ff" stroke="#63b8ff" points="472.53,-189.86 463.64,-184.09 466.99,-194.14 472.53,-189.86"/>
</a>
</g>
</g>
</g>
</svg>

<g id="navigator" transform="translate(0 0)" fill="#404254">
  <rect fill="#f2f5e9" fill-opacity="0.5" stroke="#606060" stroke-width=".5" x="0" y="0" width="60" height="60"/>
  <use id="zoomplus" xlink:href="#zoomPlus" x="17" y="9" onmousedown="handleZoom(evt,'in')"/>
  <use id="zoomminus" xlink:href="#zoomMin" x="42" y="9" onmousedown="handleZoom(evt,'out')"/>
  <use id="reset" xlink:href="#resetDef" x="30" y="36" onmousedown="handleReset()"/>
   <use id="arrowup" xlink:href="#arrowUp" x="0" y="0" onmousedown="handlePan(0,-1)"/>
  <use id="arrowright" xlink:href="#arrowRight" x="0" y="0" onmousedown="handlePan(1,0)"/>
  <use id="arrowdown" xlink:href="#arrowDown" x="0" y="0" onmousedown="handlePan(0,1)"/>
  <use id="arrowleft" xlink:href="#arrowLeft" x="0" y="0" onmousedown="handlePan(-1,0)"/>
</g>
<svg viewBox="0 0 15 15" width="100%" height="30px" preserveAspectRatio="xMaxYMin meet">
 <g id="arrow_out" transform="scale(0.3 0.3)">
  <a xlink:href="reporter_8cpp__incl_org.svg" target="_base">
   <rect id="button" ry="5" rx="5" y="6" x="6" height="38" width="38"
        fill="#f2f5e9" fill-opacity="0.5" stroke="#606060" stroke-width="1.0"/>
   <path id="arrow"
     d="M 11.500037,31.436501 C 11.940474,20.09759 22.043105,11.32322 32.158766,21.979434 L 37.068811,17.246167 C 37.068811,17.246167 37.088388,32 37.088388,32 L 22.160133,31.978069 C 22.160133,31.978069 26.997745,27.140456 26.997745,27.140456 C 18.528582,18.264221 13.291696,25.230495 11.500037,31.436501 z"
     style="fill:#404040;"/>
  </a>
 </g>
</svg>

<style type='text/css'>
<![CDATA[
[data-mouse-over-selected='false'] { opacity: 0.7; }
[data-mouse-over-selected='true']  { opacity: 1.0; }
]]>
</style>
<script type="application/ecmascript"><![CDATA[
document.addEventListener('DOMContentLoaded', (event) => {
  highlightEdges();
  highlightAdjacentNodes();
});
]]></script>
</svg>
