<?xml version="1.0" encoding="UTF-8" standalone="no"?>
<!DOCTYPE svg PUBLIC "-//W3C//DTD SVG 1.1//EN"
 "http://www.w3.org/Graphics/SVG/1.1/DTD/svg11.dtd">
<!-- Generated by graphviz version 2.43.0 (0)
 -->
<!-- Title: src/Simulator/simulator.cpp Pages: 1 -->
<!--zoomable 412 -->

<svg id="main" version="1.1" xmlns="http://www.w3.org/2000/svg" xmlns:xlink="http://www.w3.org/1999/xlink" xml:space="preserve" onload="init(evt)">
<style type="text/css"><![CDATA[
.node, .edge {opacity: 0.7;}
.node.selected, .edge.selected {opacity: 1;}
.edge:hover path { stroke: red; }
.edge:hover polygon { stroke: red; fill: red; }
]]></style>

<defs>
  <circle id="rim" cx="0" cy="0" r="7"/>
  <circle id="rim2" cx="0" cy="0" r="3.5"/>
  <g id="zoomPlus">
    <use xlink:href="#rim" fill="#404040"><set attributeName="fill" to="#808080" begin="zoomplus.mouseover" end="zoomplus.mouseout"/></use>
    <path d="M-4,0h8M0,-4v8" fill="none" stroke="white" stroke-width="1.5" pointer-events="none"/>
  </g>
  <g id="zoomMin">
    <use xlink:href="#rim" fill="#404040"><set attributeName="fill" to="#808080" begin="zoomminus.mouseover" end="zoomminus.mouseout"/></use>
    <path d="M-4,0h8" fill="none" stroke="white" stroke-width="1.5" pointer-events="none"/>
  </g>
  <g id="arrowUp" transform="translate(30 24)">
    <use xlink:href="#rim"/>
    <path pointer-events="none" fill="none" stroke="white" stroke-width="1.5" d="M0,-3.0v7 M-2.5,-0.5L0,-3.0L2.5,-0.5"/>
  </g>
  <g id="arrowRight" transform="rotate(90) translate(36 -43)">
    <use xlink:href="#rim"/>
    <path pointer-events="none" fill="none" stroke="white" stroke-width="1.5" d="M0,-3.0v7 M-2.5,-0.5L0,-3.0L2.5,-0.5"/>
  </g>
  <g id="arrowDown" transform="rotate(180) translate(-30 -48)">
    <use xlink:href="#rim"/>
    <path pointer-events="none" fill="none" stroke="white" stroke-width="1.5" d="M0,-3.0v7 M-2.5,-0.5L0,-3.0L2.5,-0.5"/>
  </g>
  <g id="arrowLeft" transform="rotate(270) translate(-36 17)">
    <use xlink:href="#rim"/>
    <path pointer-events="none" fill="none" stroke="white" stroke-width="1.5" d="M0,-3.0v7 M-2.5,-0.5L0,-3.0L2.5,-0.5"/>
  </g>
  <g id="resetDef">
    <use xlink:href="#rim2" fill="#404040"><set attributeName="fill" to="#808080" begin="reset.mouseover" end="reset.mouseout"/></use>
  </g>
</defs>
<script type="application/ecmascript">
var viewWidth = 1179;
var viewHeight = 412;
var sectionId = 'dynsection-0';
</script>
<script type="application/ecmascript" xlink:href="svg.min.js"/>
<svg id="graph" class="graph">
<g id="viewport">
<title>src/Simulator/simulator.cpp</title>
<!-- Node1 -->
<g id="Node000001" class="node">
<title>Node1</title>
<g id="a_Node000001"><a xlink:title=" ">
<polygon fill="#999999" stroke="#666666" points="877,-404 727,-404 727,-385 877,-385 877,-404"/>
<text text-anchor="middle" x="802" y="-392" font-family="Helvetica,sans-Serif" font-size="10.00">src/Simulator/simulator.cpp</text>
</a>
</g>
</g>
<!-- Node2 -->
<g id="Node000002" class="node">
<title>Node2</title>
<g id="a_Node000002"><a xlink:href="simulator_8h.html" target="_top" xlink:title=" ">
<polygon fill="white" stroke="#666666" points="863,-349 741,-349 741,-330 863,-330 863,-349"/>
<text text-anchor="middle" x="802" y="-337" font-family="Helvetica,sans-Serif" font-size="10.00">Simulator/simulator.h</text>
</a>
</g>
</g>
<!-- Node1&#45;&gt;Node2 -->
<g id="edge1_Node000001_Node000002" class="edge">
<title>Node1&#45;&gt;Node2</title>
<g id="a_edge1_Node000001_Node000002"><a xlink:title=" ">
<path fill="none" stroke="#63b8ff" d="M802,-384.75C802,-377.8 802,-367.85 802,-359.13"/>
<polygon fill="#63b8ff" stroke="#63b8ff" points="805.5,-359.09 802,-349.09 798.5,-359.09 805.5,-359.09"/>
</a>
</g>
</g>
<!-- Node3 -->
<g id="Node000003" class="node">
<title>Node3</title>
<g id="a_Node000003"><a xlink:title=" ">
<polygon fill="#e0e0e0" stroke="#999999" points="932,-129 874,-129 874,-110 932,-110 932,-129"/>
<text text-anchor="middle" x="903" y="-117" font-family="Helvetica,sans-Serif" font-size="10.00">memory</text>
</a>
</g>
</g>
<!-- Node2&#45;&gt;Node3 -->
<g id="edge2_Node000002_Node000003" class="edge">
<title>Node2&#45;&gt;Node3</title>
<g id="a_edge2_Node000002_Node000003"><a xlink:title=" ">
<path fill="none" stroke="#63b8ff" d="M859.57,-329.99C880.95,-323.73 903.12,-312.86 916,-294 948.75,-246.06 925,-172.31 911.12,-138.53"/>
<polygon fill="#63b8ff" stroke="#63b8ff" points="914.21,-136.85 907.05,-129.04 907.78,-139.61 914.21,-136.85"/>
</a>
</g>
</g>
<!-- Node4 -->
<g id="Node000004" class="node">
<title>Node4</title>
<g id="a_Node000004"><a xlink:title=" ">
<polygon fill="#e0e0e0" stroke="#999999" points="868.5,-74 823.5,-74 823.5,-55 868.5,-55 868.5,-74"/>
<text text-anchor="middle" x="846" y="-62" font-family="Helvetica,sans-Serif" font-size="10.00">utility</text>
</a>
</g>
</g>
<!-- Node2&#45;&gt;Node4 -->
<g id="edge3_Node000002_Node000004" class="edge">
<title>Node2&#45;&gt;Node4</title>
<g id="a_edge3_Node000002_Node000004"><a xlink:title=" ">
<path fill="none" stroke="#63b8ff" d="M850,-329.95C876.68,-323.43 909.36,-312.33 934,-294 982.09,-258.23 993.81,-241.1 1012,-184 1022.31,-151.65 1017.47,-133.54 993,-110 955.51,-73.94 930.01,-88.07 878.54,-75.12"/>
<polygon fill="#63b8ff" stroke="#63b8ff" points="879.19,-71.67 868.62,-72.37 877.32,-78.41 879.19,-71.67"/>
</a>
</g>
</g>
<!-- Node5 -->
<g id="Node000005" class="node">
<title>Node5</title>
<g id="a_Node000005"><a xlink:href="types_8h.html" target="_top" xlink:title=" ">
<polygon fill="white" stroke="#666666" points="237.5,-74 148.5,-74 148.5,-55 237.5,-55 237.5,-74"/>
<text text-anchor="middle" x="193" y="-62" font-family="Helvetica,sans-Serif" font-size="10.00">Library/types.h</text>
</a>
</g>
</g>
<!-- Node2&#45;&gt;Node5 -->
<g id="edge4_Node000002_Node000005" class="edge">
<title>Node2&#45;&gt;Node5</title>
<g id="a_edge4_Node000002_Node000005"><a xlink:title=" ">
<path fill="none" stroke="#63b8ff" d="M740.73,-336.68C553.25,-330.31 0,-305.18 0,-230.5 0,-230.5 0,-230.5 0,-173.5 0,-109.75 81.18,-83.26 138.24,-72.52"/>
<polygon fill="#63b8ff" stroke="#63b8ff" points="139,-75.94 148.24,-70.75 137.78,-69.05 139,-75.94"/>
</a>
</g>
</g>
<!-- Node9 -->
<g id="Node000009" class="node">
<title>Node9</title>
<g id="a_Node000009"><a xlink:href="driverModel_8h.html" target="_top" xlink:title=" ">
<polygon fill="white" stroke="#666666" points="907,-294 785,-294 785,-275 907,-275 907,-294"/>
<text text-anchor="middle" x="846" y="-282" font-family="Helvetica,sans-Serif" font-size="10.00">Drivers/driverModel.h</text>
</a>
</g>
</g>
<!-- Node2&#45;&gt;Node9 -->
<g id="edge8_Node000002_Node000009" class="edge">
<title>Node2&#45;&gt;Node9</title>
<g id="a_edge8_Node000002_Node000009"><a xlink:title=" ">
<path fill="none" stroke="#63b8ff" d="M809.27,-329.75C815.54,-322.18 824.79,-311.05 832.43,-301.84"/>
<polygon fill="#63b8ff" stroke="#63b8ff" points="835.17,-304.02 838.87,-294.09 829.79,-299.55 835.17,-304.02"/>
</a>
</g>
</g>
<!-- Node12 -->
<g id="Node000012" class="node">
<title>Node12</title>
<g id="a_Node000012"><a xlink:href="channel_8h.html" target="_top" xlink:title=" ">
<polygon fill="white" stroke="#666666" points="392.5,-239 285.5,-239 285.5,-220 392.5,-220 392.5,-239"/>
<text text-anchor="middle" x="339" y="-227" font-family="Helvetica,sans-Serif" font-size="10.00">Channel/channel.h</text>
</a>
</g>
</g>
<!-- Node2&#45;&gt;Node12 -->
<g id="edge50_Node000002_Node000012" class="edge">
<title>Node2&#45;&gt;Node12</title>
<g id="a_edge50_Node000002_Node000012"><a xlink:title=" ">
<path fill="none" stroke="#63b8ff" d="M765.28,-329.94C681.79,-310.46 477.81,-262.88 385.61,-241.37"/>
<polygon fill="#63b8ff" stroke="#63b8ff" points="386.26,-237.93 375.72,-239.07 384.67,-244.75 386.26,-237.93"/>
</a>
</g>
</g>
<!-- Node17 -->
<g id="Node000017" class="node">
<title>Node17</title>
<g id="a_Node000017"><a xlink:href="transaction_8h_source.html" target="_top" xlink:title=" ">
<polygon fill="white" stroke="#666666" points="734.5,-184 595.5,-184 595.5,-165 734.5,-165 734.5,-184"/>
<text text-anchor="middle" x="665" y="-172" font-family="Helvetica,sans-Serif" font-size="10.00">Transaction/transaction.h</text>
</a>
</g>
</g>
<!-- Node2&#45;&gt;Node17 -->
<g id="edge51_Node000002_Node000017" class="edge">
<title>Node2&#45;&gt;Node17</title>
<g id="a_edge51_Node000002_Node000017"><a xlink:title=" ">
<path fill="none" stroke="#63b8ff" d="M794.63,-329.74C772.71,-303.65 707.59,-226.17 678.87,-192"/>
<polygon fill="#63b8ff" stroke="#63b8ff" points="681.52,-189.71 672.4,-184.31 676.16,-194.21 681.52,-189.71"/>
</a>
</g>
</g>
<!-- Node6 -->
<g id="Node000006" class="node">
<title>Node6</title>
<g id="a_Node000006"><a xlink:title=" ">
<polygon fill="#e0e0e0" stroke="#999999" points="117.5,-19 70.5,-19 70.5,0 117.5,0 117.5,-19"/>
<text text-anchor="middle" x="94" y="-7" font-family="Helvetica,sans-Serif" font-size="10.00">vector</text>
</a>
</g>
</g>
<!-- Node5&#45;&gt;Node6 -->
<g id="edge5_Node000005_Node000006" class="edge">
<title>Node5&#45;&gt;Node6</title>
<g id="a_edge5_Node000005_Node000006"><a xlink:title=" ">
<path fill="none" stroke="#63b8ff" d="M177.09,-54.98C161.45,-46.61 137.34,-33.7 119.12,-23.95"/>
<polygon fill="#63b8ff" stroke="#63b8ff" points="120.66,-20.8 110.2,-19.17 117.36,-26.98 120.66,-20.8"/>
</a>
</g>
</g>
<!-- Node7 -->
<g id="Node000007" class="node">
<title>Node7</title>
<g id="a_Node000007"><a xlink:title=" ">
<polygon fill="#e0e0e0" stroke="#999999" points="239.5,-19 146.5,-19 146.5,0 239.5,0 239.5,-19"/>
<text text-anchor="middle" x="193" y="-7" font-family="Helvetica,sans-Serif" font-size="10.00">unordered_map</text>
</a>
</g>
</g>
<!-- Node5&#45;&gt;Node7 -->
<g id="edge6_Node000005_Node000007" class="edge">
<title>Node5&#45;&gt;Node7</title>
<g id="a_edge6_Node000005_Node000007"><a xlink:title=" ">
<path fill="none" stroke="#63b8ff" d="M193,-54.75C193,-47.8 193,-37.85 193,-29.13"/>
<polygon fill="#63b8ff" stroke="#63b8ff" points="196.5,-29.09 193,-19.09 189.5,-29.09 196.5,-29.09"/>
</a>
</g>
</g>
<!-- Node8 -->
<g id="Node000008" class="node">
<title>Node8</title>
<g id="a_Node000008"><a xlink:title=" ">
<polygon fill="#e0e0e0" stroke="#999999" points="602,-19 558,-19 558,0 602,0 602,-19"/>
<text text-anchor="middle" x="580" y="-7" font-family="Helvetica,sans-Serif" font-size="10.00">string</text>
</a>
</g>
</g>
<!-- Node5&#45;&gt;Node8 -->
<g id="edge7_Node000005_Node000008" class="edge">
<title>Node5&#45;&gt;Node8</title>
<g id="a_edge7_Node000005_Node000008"><a xlink:title=" ">
<path fill="none" stroke="#63b8ff" d="M237.77,-57.01C242.57,-56.33 247.39,-55.65 252,-55 360.23,-39.86 488.65,-22.66 547.55,-14.81"/>
<polygon fill="#63b8ff" stroke="#63b8ff" points="548.27,-18.25 557.72,-13.46 547.35,-11.31 548.27,-18.25"/>
</a>
</g>
</g>
<!-- Node9&#45;&gt;Node3 -->
<g id="edge9_Node000009_Node000003" class="edge">
<title>Node9&#45;&gt;Node3</title>
<g id="a_edge9_Node000009_Node000003"><a xlink:title=" ">
<path fill="none" stroke="#63b8ff" d="M849.06,-274.74C858.03,-249.09 884.37,-173.78 896.61,-138.78"/>
<polygon fill="#63b8ff" stroke="#63b8ff" points="899.92,-139.9 899.92,-129.31 893.32,-137.59 899.92,-139.9"/>
</a>
</g>
</g>
<!-- Node9&#45;&gt;Node4 -->
<g id="edge13_Node000009_Node000004" class="edge">
<title>Node9&#45;&gt;Node4</title>
<g id="a_edge13_Node000009_Node000004"><a xlink:title=" ">
<path fill="none" stroke="#63b8ff" d="M907.11,-277.56C932.09,-271.78 958.66,-260.57 974,-239 1007.22,-192.27 1007.22,-156.73 974,-110 971.1,-105.93 915.6,-87.64 878.64,-75.81"/>
<polygon fill="#63b8ff" stroke="#63b8ff" points="879.36,-72.36 868.77,-72.66 877.23,-79.03 879.36,-72.36"/>
</a>
</g>
</g>
<!-- Node9&#45;&gt;Node5 -->
<g id="edge48_Node000009_Node000005" class="edge">
<title>Node9&#45;&gt;Node5</title>
<g id="a_edge48_Node000009_Node000005"><a xlink:title=" ">
<path fill="none" stroke="#63b8ff" d="M784.74,-283.11C657.38,-281.6 368.28,-274.25 277,-239 239.76,-224.62 228.45,-217 206,-184 185.51,-153.88 187.05,-109.15 190.01,-84.14"/>
<polygon fill="#63b8ff" stroke="#63b8ff" points="193.49,-84.55 191.4,-74.17 186.56,-83.59 193.49,-84.55"/>
</a>
</g>
</g>
<!-- Node9&#45;&gt;Node7 -->
<g id="edge12_Node000009_Node000007" class="edge">
<title>Node9&#45;&gt;Node7</title>
<g id="a_edge12_Node000009_Node000007"><a xlink:title=" ">
<path fill="none" stroke="#63b8ff" d="M805.11,-274.94C719.55,-256.09 516.69,-206.4 361,-129 301.66,-99.5 240.02,-50.46 210.64,-25.74"/>
<polygon fill="#63b8ff" stroke="#63b8ff" points="212.79,-22.98 202.91,-19.17 208.26,-28.31 212.79,-22.98"/>
</a>
</g>
</g>
<!-- Node9&#45;&gt;Node8 -->
<g id="edge11_Node000009_Node000008" class="edge">
<title>Node9&#45;&gt;Node8</title>
<g id="a_edge11_Node000009_Node000008"><a xlink:title=" ">
<path fill="none" stroke="#63b8ff" d="M907.24,-277.2C946.12,-271.32 996.56,-260.12 1037,-239 1121.25,-195 1218.17,-116.85 1146,-55 1105.35,-20.16 726.1,-12.41 612.2,-10.86"/>
<polygon fill="#63b8ff" stroke="#63b8ff" points="612.07,-7.35 602.02,-10.72 611.98,-14.35 612.07,-7.35"/>
</a>
</g>
</g>
<!-- Node10 -->
<g id="Node000010" class="node">
<title>Node10</title>
<g id="a_Node000010"><a xlink:title=" ">
<polygon fill="#e0e0e0" stroke="#999999" points="818,-129 762,-129 762,-110 818,-110 818,-129"/>
<text text-anchor="middle" x="790" y="-117" font-family="Helvetica,sans-Serif" font-size="10.00">optional</text>
</a>
</g>
</g>
<!-- Node9&#45;&gt;Node10 -->
<g id="edge10_Node000009_Node000010" class="edge">
<title>Node9&#45;&gt;Node10</title>
<g id="a_edge10_Node000009_Node000010"><a xlink:title=" ">
<path fill="none" stroke="#63b8ff" d="M842.99,-274.74C834.18,-249.09 808.31,-173.78 796.28,-138.78"/>
<polygon fill="#63b8ff" stroke="#63b8ff" points="799.59,-137.63 793.03,-129.31 792.96,-139.9 799.59,-137.63"/>
</a>
</g>
</g>
<!-- Node11 -->
<g id="Node000011" class="node">
<title>Node11</title>
<g id="a_Node000011"><a xlink:title=" ">
<polygon fill="#e0e0e0" stroke="#999999" points="667.5,-74 602.5,-74 602.5,-55 667.5,-55 667.5,-74"/>
<text text-anchor="middle" x="635" y="-62" font-family="Helvetica,sans-Serif" font-size="10.00">functional</text>
</a>
</g>
</g>
<!-- Node9&#45;&gt;Node11 -->
<g id="edge14_Node000009_Node000011" class="edge">
<title>Node9&#45;&gt;Node11</title>
<g id="a_edge14_Node000009_Node000011"><a xlink:title=" ">
<path fill="none" stroke="#63b8ff" d="M857.68,-274.77C892.22,-247.91 988.63,-165.06 941,-110 924.03,-90.38 758.19,-75.01 678,-68.67"/>
<polygon fill="#63b8ff" stroke="#63b8ff" points="677.98,-65.16 667.73,-67.87 677.43,-72.13 677.98,-65.16"/>
</a>
</g>
</g>
<!-- Node9&#45;&gt;Node12 -->
<g id="edge15_Node000009_Node000012" class="edge">
<title>Node9&#45;&gt;Node12</title>
<g id="a_edge15_Node000009_Node000012"><a xlink:title=" ">
<path fill="none" stroke="#63b8ff" d="M784.88,-277.76C700.02,-269.68 541.73,-254.25 407,-239 405.7,-238.85 404.39,-238.7 403.07,-238.55"/>
<polygon fill="#63b8ff" stroke="#63b8ff" points="403.15,-235.04 392.81,-237.34 402.33,-241.99 403.15,-235.04"/>
</a>
</g>
</g>
<!-- Node9&#45;&gt;Node17 -->
<g id="edge47_Node000009_Node000017" class="edge">
<title>Node9&#45;&gt;Node17</title>
<g id="a_edge47_Node000009_Node000017"><a xlink:title=" ">
<path fill="none" stroke="#63b8ff" d="M831.49,-274.84C800.17,-256.16 726,-211.9 688.12,-189.3"/>
<polygon fill="#63b8ff" stroke="#63b8ff" points="689.7,-186.17 679.32,-184.05 686.12,-192.18 689.7,-186.17"/>
</a>
</g>
</g>
<!-- Node19 -->
<g id="Node000019" class="node">
<title>Node19</title>
<g id="a_Node000019"><a xlink:href="error_8h.html" target="_top" xlink:title=" ">
<polygon fill="white" stroke="#666666" points="1149.5,-129 1064.5,-129 1064.5,-110 1149.5,-110 1149.5,-129"/>
<text text-anchor="middle" x="1107" y="-117" font-family="Helvetica,sans-Serif" font-size="10.00">Library/error.h</text>
</a>
</g>
</g>
<!-- Node9&#45;&gt;Node19 -->
<g id="edge49_Node000009_Node000019" class="edge">
<title>Node9&#45;&gt;Node19</title>
<g id="a_edge49_Node000009_Node000019"><a xlink:title=" ">
<path fill="none" stroke="#63b8ff" d="M907.39,-276.49C940.46,-270.48 980.77,-259.39 1012,-239 1052.13,-212.79 1083.17,-164.06 1097.79,-138"/>
<polygon fill="#63b8ff" stroke="#63b8ff" points="1100.87,-139.67 1102.58,-129.22 1094.72,-136.32 1100.87,-139.67"/>
</a>
</g>
</g>
<!-- Node12&#45;&gt;Node3 -->
<g id="edge17_Node000012_Node000003" class="edge">
<title>Node12&#45;&gt;Node3</title>
<g id="a_edge17_Node000012_Node000003"><a xlink:title=" ">
<path fill="none" stroke="#63b8ff" d="M392.77,-225.74C494.67,-220.09 712.12,-205.83 784,-184 820.83,-172.81 859.42,-149.82 882.33,-134.79"/>
<polygon fill="#63b8ff" stroke="#63b8ff" points="884.49,-137.55 890.86,-129.08 880.6,-131.73 884.49,-137.55"/>
</a>
</g>
</g>
<!-- Node12&#45;&gt;Node4 -->
<g id="edge22_Node000012_Node000004" class="edge">
<title>Node12&#45;&gt;Node4</title>
<g id="a_edge22_Node000012_Node000004"><a xlink:title=" ">
<path fill="none" stroke="#63b8ff" d="M392.53,-225.76C487.31,-220.38 680.65,-206.93 744,-184 764.81,-176.47 813.82,-146.77 827,-129 836.75,-115.86 841.53,-97.73 843.85,-84.2"/>
<polygon fill="#63b8ff" stroke="#63b8ff" points="847.34,-84.53 845.28,-74.13 840.41,-83.54 847.34,-84.53"/>
</a>
</g>
</g>
<!-- Node12&#45;&gt;Node5 -->
<g id="edge25_Node000012_Node000005" class="edge">
<title>Node12&#45;&gt;Node5</title>
<g id="a_edge25_Node000012_Node000005"><a xlink:title=" ">
<path fill="none" stroke="#63b8ff" d="M285.57,-219.92C262.68,-213.62 237.48,-202.75 221,-184 196.31,-155.91 192.37,-110.06 192.3,-84.4"/>
<polygon fill="#63b8ff" stroke="#63b8ff" points="195.8,-84.23 192.47,-74.17 188.8,-84.11 195.8,-84.23"/>
</a>
</g>
</g>
<!-- Node12&#45;&gt;Node6 -->
<g id="edge23_Node000012_Node000006" class="edge">
<title>Node12&#45;&gt;Node6</title>
<g id="a_edge23_Node000012_Node000006"><a xlink:title=" ">
<path fill="none" stroke="#63b8ff" d="M285.32,-223.15C252.56,-217.66 211.3,-206.53 181,-184 128.54,-145 105.63,-65.47 97.61,-29.24"/>
<polygon fill="#63b8ff" stroke="#63b8ff" points="100.96,-28.18 95.51,-19.1 94.11,-29.6 100.96,-28.18"/>
</a>
</g>
</g>
<!-- Node12&#45;&gt;Node7 -->
<g id="edge20_Node000012_Node000007" class="edge">
<title>Node12&#45;&gt;Node7</title>
<g id="a_edge20_Node000012_Node000007"><a xlink:title=" ">
<path fill="none" stroke="#63b8ff" d="M287.24,-219.99C260.77,-213.59 229.32,-202.6 206,-184 161.25,-148.3 154.46,-129.12 139,-74 136.72,-65.87 135.4,-62.64 139,-55 145.01,-42.26 156.66,-31.92 167.61,-24.44"/>
<polygon fill="#63b8ff" stroke="#63b8ff" points="169.54,-27.36 176.11,-19.05 165.79,-21.44 169.54,-27.36"/>
</a>
</g>
</g>
<!-- Node12&#45;&gt;Node8 -->
<g id="edge18_Node000012_Node000008" class="edge">
<title>Node12&#45;&gt;Node8</title>
<g id="a_edge18_Node000012_Node000008"><a xlink:title=" ">
<path fill="none" stroke="#63b8ff" d="M345.63,-219.88C351.76,-211.32 360.46,-197.54 364,-184 366.14,-175.83 365.26,-173.35 364,-165 356.5,-115.11 303.69,-93.74 336,-55 362.6,-23.1 487.68,-14.01 547.7,-11.46"/>
<polygon fill="#63b8ff" stroke="#63b8ff" points="547.92,-14.96 557.77,-11.07 547.64,-7.96 547.92,-14.96"/>
</a>
</g>
</g>
<!-- Node13 -->
<g id="Node000013" class="node">
<title>Node13</title>
<g id="a_Node000013"><a xlink:title=" ">
<polygon fill="#e0e0e0" stroke="#999999" points="290.5,-184 237.5,-184 237.5,-165 290.5,-165 290.5,-184"/>
<text text-anchor="middle" x="264" y="-172" font-family="Helvetica,sans-Serif" font-size="10.00">iterator</text>
</a>
</g>
</g>
<!-- Node12&#45;&gt;Node13 -->
<g id="edge16_Node000012_Node000013" class="edge">
<title>Node12&#45;&gt;Node13</title>
<g id="a_edge16_Node000012_Node000013"><a xlink:title=" ">
<path fill="none" stroke="#63b8ff" d="M326.95,-219.98C315.54,-211.92 298.17,-199.65 284.57,-190.03"/>
<polygon fill="#63b8ff" stroke="#63b8ff" points="286.46,-187.08 276.27,-184.17 282.42,-192.8 286.46,-187.08"/>
</a>
</g>
</g>
<!-- Node14 -->
<g id="Node000014" class="node">
<title>Node14</title>
<g id="a_Node000014"><a xlink:title=" ">
<polygon fill="#e0e0e0" stroke="#999999" points="386.5,-74 345.5,-74 345.5,-55 386.5,-55 386.5,-74"/>
<text text-anchor="middle" x="366" y="-62" font-family="Helvetica,sans-Serif" font-size="10.00">tuple</text>
</a>
</g>
</g>
<!-- Node12&#45;&gt;Node14 -->
<g id="edge19_Node000012_Node000014" class="edge">
<title>Node12&#45;&gt;Node14</title>
<g id="a_edge19_Node000012_Node000014"><a xlink:title=" ">
<path fill="none" stroke="#63b8ff" d="M289.14,-219.93C253,-211.13 212.93,-194.45 228,-165 250.54,-120.97 302.64,-91.96 335.99,-77.17"/>
<polygon fill="#63b8ff" stroke="#63b8ff" points="337.45,-80.35 345.27,-73.2 334.7,-73.92 337.45,-80.35"/>
</a>
</g>
</g>
<!-- Node15 -->
<g id="Node000015" class="node">
<title>Node15</title>
<g id="a_Node000015"><a xlink:title=" ">
<polygon fill="#e0e0e0" stroke="#999999" points="535,-74 497,-74 497,-55 535,-55 535,-74"/>
<text text-anchor="middle" x="516" y="-62" font-family="Helvetica,sans-Serif" font-size="10.00">map</text>
</a>
</g>
</g>
<!-- Node12&#45;&gt;Node15 -->
<g id="edge21_Node000012_Node000015" class="edge">
<title>Node12&#45;&gt;Node15</title>
<g id="a_edge21_Node000012_Node000015"><a xlink:title=" ">
<path fill="none" stroke="#63b8ff" d="M362.6,-219.91C397.22,-206.11 461.5,-175.72 497,-129 506.9,-115.97 511.66,-97.83 513.94,-84.27"/>
<polygon fill="#63b8ff" stroke="#63b8ff" points="517.44,-84.55 515.33,-74.17 510.5,-83.6 517.44,-84.55"/>
</a>
</g>
</g>
<!-- Node16 -->
<g id="Node000016" class="node">
<title>Node16</title>
<g id="a_Node000016"><a xlink:title=" ">
<polygon fill="#e0e0e0" stroke="#999999" points="355,-184 309,-184 309,-165 355,-165 355,-184"/>
<text text-anchor="middle" x="332" y="-172" font-family="Helvetica,sans-Serif" font-size="10.00">future</text>
</a>
</g>
</g>
<!-- Node12&#45;&gt;Node16 -->
<g id="edge24_Node000012_Node000016" class="edge">
<title>Node12&#45;&gt;Node16</title>
<g id="a_edge24_Node000012_Node000016"><a xlink:title=" ">
<path fill="none" stroke="#63b8ff" d="M337.84,-219.75C336.93,-212.8 335.61,-202.85 334.46,-194.13"/>
<polygon fill="#63b8ff" stroke="#63b8ff" points="337.91,-193.54 333.13,-184.09 330.97,-194.46 337.91,-193.54"/>
</a>
</g>
</g>
<!-- Node12&#45;&gt;Node17 -->
<g id="edge26_Node000012_Node000017" class="edge">
<title>Node12&#45;&gt;Node17</title>
<g id="a_edge26_Node000012_Node000017"><a xlink:title=" ">
<path fill="none" stroke="#63b8ff" d="M391.38,-219.98C448.92,-210.63 541.29,-195.61 602.55,-185.65"/>
<polygon fill="#63b8ff" stroke="#63b8ff" points="603.17,-189.1 612.48,-184.04 602.05,-182.19 603.17,-189.1"/>
</a>
</g>
</g>
<!-- Node17&#45;&gt;Node3 -->
<g id="edge30_Node000017_Node000003" class="edge">
<title>Node17&#45;&gt;Node3</title>
<g id="a_edge30_Node000017_Node000003"><a xlink:title=" ">
<path fill="none" stroke="#63b8ff" d="M703.24,-164.98C747.37,-155.16 819.55,-139.08 864,-129.18"/>
<polygon fill="#63b8ff" stroke="#63b8ff" points="864.86,-132.58 873.86,-126.99 863.34,-125.75 864.86,-132.58"/>
</a>
</g>
</g>
<!-- Node17&#45;&gt;Node4 -->
<g id="edge28_Node000017_Node000004" class="edge">
<title>Node17&#45;&gt;Node4</title>
<g id="a_edge28_Node000017_Node000004"><a xlink:title=" ">
<path fill="none" stroke="#63b8ff" d="M675.68,-164.82C691.83,-151.94 723.68,-127.41 753,-110 773.45,-97.86 797.72,-86.34 816.33,-78.06"/>
<polygon fill="#63b8ff" stroke="#63b8ff" points="817.75,-81.26 825.51,-74.04 814.94,-74.85 817.75,-81.26"/>
</a>
</g>
</g>
<!-- Node17&#45;&gt;Node5 -->
<g id="edge35_Node000017_Node000005" class="edge">
<title>Node17&#45;&gt;Node5</title>
<g id="a_edge35_Node000017_Node000005"><a xlink:title=" ">
<path fill="none" stroke="#63b8ff" d="M595.33,-167.62C533.16,-161.36 440.01,-149.46 361,-129 310.39,-115.9 254.02,-92.72 221.13,-78.29"/>
<polygon fill="#63b8ff" stroke="#63b8ff" points="222.27,-74.96 211.71,-74.11 219.43,-81.36 222.27,-74.96"/>
</a>
</g>
</g>
<!-- Node17&#45;&gt;Node6 -->
<g id="edge29_Node000017_Node000006" class="edge">
<title>Node17&#45;&gt;Node6</title>
<g id="a_edge29_Node000017_Node000006"><a xlink:title=" ">
<path fill="none" stroke="#63b8ff" d="M595.16,-169.24C521.34,-163.75 401.86,-152.03 301,-129 226.87,-112.07 199.95,-119.46 139,-74 122.96,-62.04 110.42,-42.67 102.7,-28.47"/>
<polygon fill="#63b8ff" stroke="#63b8ff" points="105.63,-26.51 97.95,-19.22 99.4,-29.71 105.63,-26.51"/>
</a>
</g>
</g>
<!-- Node17&#45;&gt;Node8 -->
<g id="edge27_Node000017_Node000008" class="edge">
<title>Node17&#45;&gt;Node8</title>
<g id="a_edge27_Node000017_Node000008"><a xlink:title=" ">
<path fill="none" stroke="#63b8ff" d="M669.24,-164.91C678.84,-144.14 699.66,-90.33 677,-55 662.77,-32.82 634.42,-21.55 612.02,-15.91"/>
<polygon fill="#63b8ff" stroke="#63b8ff" points="612.75,-12.49 602.22,-13.7 611.21,-19.32 612.75,-12.49"/>
</a>
</g>
</g>
<!-- Node17&#45;&gt;Node10 -->
<g id="edge33_Node000017_Node000010" class="edge">
<title>Node17&#45;&gt;Node10</title>
<g id="a_edge33_Node000017_Node000010"><a xlink:title=" ">
<path fill="none" stroke="#63b8ff" d="M685.08,-164.98C705.37,-156.38 736.96,-142.99 760.17,-133.15"/>
<polygon fill="#63b8ff" stroke="#63b8ff" points="761.71,-136.3 769.55,-129.17 758.98,-129.85 761.71,-136.3"/>
</a>
</g>
</g>
<!-- Node17&#45;&gt;Node11 -->
<g id="edge34_Node000017_Node000011" class="edge">
<title>Node17&#45;&gt;Node11</title>
<g id="a_edge34_Node000017_Node000011"><a xlink:title=" ">
<path fill="none" stroke="#63b8ff" d="M662.54,-164.66C657.66,-147.09 646.65,-107.45 640.13,-83.95"/>
<polygon fill="#63b8ff" stroke="#63b8ff" points="643.45,-82.86 637.41,-74.16 636.71,-84.73 643.45,-82.86"/>
</a>
</g>
</g>
<!-- Node17&#45;&gt;Node15 -->
<g id="edge32_Node000017_Node000015" class="edge">
<title>Node17&#45;&gt;Node15</title>
<g id="a_edge32_Node000017_Node000015"><a xlink:title=" ">
<path fill="none" stroke="#63b8ff" d="M657.81,-164.87C646.64,-151.82 623.99,-126.83 601,-110 583.47,-97.17 561.75,-85.86 544.65,-77.86"/>
<polygon fill="#63b8ff" stroke="#63b8ff" points="545.73,-74.51 535.18,-73.54 542.82,-80.87 545.73,-74.51"/>
</a>
</g>
</g>
<!-- Node18 -->
<g id="Node000018" class="node">
<title>Node18</title>
<g id="a_Node000018"><a xlink:title=" ">
<polygon fill="#e0e0e0" stroke="#999999" points="592,-129 544,-129 544,-110 592,-110 592,-129"/>
<text text-anchor="middle" x="568" y="-117" font-family="Helvetica,sans-Serif" font-size="10.00">mutex</text>
</a>
</g>
</g>
<!-- Node17&#45;&gt;Node18 -->
<g id="edge31_Node000017_Node000018" class="edge">
<title>Node17&#45;&gt;Node18</title>
<g id="a_edge31_Node000017_Node000018"><a xlink:title=" ">
<path fill="none" stroke="#63b8ff" d="M649.42,-164.98C634.23,-156.69 610.9,-143.94 593.1,-134.22"/>
<polygon fill="#63b8ff" stroke="#63b8ff" points="594.32,-130.89 583.87,-129.17 590.97,-137.04 594.32,-130.89"/>
</a>
</g>
</g>
<!-- Node17&#45;&gt;Node19 -->
<g id="edge36_Node000017_Node000019" class="edge">
<title>Node17&#45;&gt;Node19</title>
<g id="a_edge36_Node000017_Node000019"><a xlink:title=" ">
<path fill="none" stroke="#63b8ff" d="M734.55,-165.16C823.08,-154.54 974.08,-136.44 1053.91,-126.87"/>
<polygon fill="#63b8ff" stroke="#63b8ff" points="1054.71,-130.3 1064.22,-125.63 1053.87,-123.35 1054.71,-130.3"/>
</a>
</g>
</g>
<!-- Node21 -->
<g id="Node000021" class="node">
<title>Node21</title>
<g id="a_Node000021"><a xlink:href="evaluate_8h.html" target="_top" xlink:title=" ">
<polygon fill="white" stroke="#666666" points="488,-129 370,-129 370,-110 488,-110 488,-129"/>
<text text-anchor="middle" x="429" y="-117" font-family="Helvetica,sans-Serif" font-size="10.00">Evaluator/evaluate.h</text>
</a>
</g>
</g>
<!-- Node17&#45;&gt;Node21 -->
<g id="edge39_Node000017_Node000021" class="edge">
<title>Node17&#45;&gt;Node21</title>
<g id="a_edge39_Node000017_Node000021"><a xlink:title=" ">
<path fill="none" stroke="#63b8ff" d="M627.08,-164.98C586.35,-155.84 521.5,-141.27 477.18,-131.32"/>
<polygon fill="#63b8ff" stroke="#63b8ff" points="477.74,-127.86 467.21,-129.08 476.2,-134.69 477.74,-127.86"/>
</a>
</g>
</g>
<!-- Node19&#45;&gt;Node8 -->
<g id="edge37_Node000019_Node000008" class="edge">
<title>Node19&#45;&gt;Node8</title>
<g id="a_edge37_Node000019_Node000008"><a xlink:title=" ">
<path fill="none" stroke="#63b8ff" d="M1080.12,-109.89C1037.6,-96.54 952.05,-70.73 878,-55 782.3,-34.67 667.37,-20.29 612.4,-14.02"/>
<polygon fill="#63b8ff" stroke="#63b8ff" points="612.55,-10.52 602.22,-12.88 611.77,-17.47 612.55,-10.52"/>
</a>
</g>
</g>
<!-- Node20 -->
<g id="Node000020" class="node">
<title>Node20</title>
<g id="a_Node000020"><a xlink:title=" ">
<polygon fill="#e0e0e0" stroke="#999999" points="1137,-74 1077,-74 1077,-55 1137,-55 1137,-74"/>
<text text-anchor="middle" x="1107" y="-62" font-family="Helvetica,sans-Serif" font-size="10.00">iostream</text>
</a>
</g>
</g>
<!-- Node19&#45;&gt;Node20 -->
<g id="edge38_Node000019_Node000020" class="edge">
<title>Node19&#45;&gt;Node20</title>
<g id="a_edge38_Node000019_Node000020"><a xlink:title=" ">
<path fill="none" stroke="#63b8ff" d="M1107,-109.75C1107,-102.8 1107,-92.85 1107,-84.13"/>
<polygon fill="#63b8ff" stroke="#63b8ff" points="1110.5,-84.09 1107,-74.09 1103.5,-84.09 1110.5,-84.09"/>
</a>
</g>
</g>
<!-- Node21&#45;&gt;Node4 -->
<g id="edge40_Node000021_Node000004" class="edge">
<title>Node21&#45;&gt;Node4</title>
<g id="a_edge40_Node000021_Node000004"><a xlink:title=" ">
<path fill="none" stroke="#63b8ff" d="M488.3,-110.96C577.49,-99.63 743.16,-78.57 813.29,-69.66"/>
<polygon fill="#63b8ff" stroke="#63b8ff" points="813.83,-73.12 823.31,-68.38 812.95,-66.17 813.83,-73.12"/>
</a>
</g>
</g>
<!-- Node21&#45;&gt;Node5 -->
<g id="edge46_Node000021_Node000005" class="edge">
<title>Node21&#45;&gt;Node5</title>
<g id="a_edge46_Node000021_Node000005"><a xlink:title=" ">
<path fill="none" stroke="#63b8ff" d="M391.08,-109.98C350.35,-100.84 285.5,-86.27 241.18,-76.32"/>
<polygon fill="#63b8ff" stroke="#63b8ff" points="241.74,-72.86 231.21,-74.08 240.2,-79.69 241.74,-72.86"/>
</a>
</g>
</g>
<!-- Node21&#45;&gt;Node6 -->
<g id="edge41_Node000021_Node000006" class="edge">
<title>Node21&#45;&gt;Node6</title>
<g id="a_edge41_Node000021_Node000006"><a xlink:title=" ">
<path fill="none" stroke="#63b8ff" d="M427.18,-109.84C423.74,-95.81 414.88,-68.33 396,-55 348.53,-21.48 194.3,-28.64 137,-19 133.95,-18.49 130.78,-17.92 127.61,-17.33"/>
<polygon fill="#63b8ff" stroke="#63b8ff" points="128.09,-13.86 117.61,-15.42 126.78,-20.74 128.09,-13.86"/>
</a>
</g>
</g>
<!-- Node21&#45;&gt;Node8 -->
<g id="edge42_Node000021_Node000008" class="edge">
<title>Node21&#45;&gt;Node8</title>
<g id="a_edge42_Node000021_Node000008"><a xlink:title=" ">
<path fill="none" stroke="#63b8ff" d="M435.42,-109.73C445.44,-96.5 465.97,-71.28 488,-55 506.51,-41.33 529.87,-30.09 548.43,-22.32"/>
<polygon fill="#63b8ff" stroke="#63b8ff" points="549.96,-25.48 557.91,-18.48 547.33,-18.99 549.96,-25.48"/>
</a>
</g>
</g>
<!-- Node21&#45;&gt;Node11 -->
<g id="edge43_Node000021_Node000011" class="edge">
<title>Node21&#45;&gt;Node11</title>
<g id="a_edge43_Node000021_Node000011"><a xlink:title=" ">
<path fill="none" stroke="#63b8ff" d="M462.1,-109.98C497.49,-100.88 553.73,-86.41 592.41,-76.46"/>
<polygon fill="#63b8ff" stroke="#63b8ff" points="593.51,-79.79 602.32,-73.91 591.77,-73.01 593.51,-79.79"/>
</a>
</g>
</g>
<!-- Node21&#45;&gt;Node14 -->
<g id="edge44_Node000021_Node000014" class="edge">
<title>Node21&#45;&gt;Node14</title>
<g id="a_edge44_Node000021_Node000014"><a xlink:title=" ">
<path fill="none" stroke="#63b8ff" d="M418.88,-109.98C409.56,-102.15 395.53,-90.34 384.26,-80.86"/>
<polygon fill="#63b8ff" stroke="#63b8ff" points="386.21,-77.93 376.31,-74.17 381.71,-83.29 386.21,-77.93"/>
</a>
</g>
</g>
<!-- Node21&#45;&gt;Node15 -->
<g id="edge45_Node000021_Node000015" class="edge">
<title>Node21&#45;&gt;Node15</title>
<g id="a_edge45_Node000021_Node000015"><a xlink:title=" ">
<path fill="none" stroke="#63b8ff" d="M442.98,-109.98C456.47,-101.77 477.13,-89.18 493.04,-79.49"/>
<polygon fill="#63b8ff" stroke="#63b8ff" points="495.05,-82.36 501.77,-74.17 491.41,-76.38 495.05,-82.36"/>
</a>
</g>
</g>
</g>
</svg>

<g id="navigator" transform="translate(0 0)" fill="#404254">
  <rect fill="#f2f5e9" fill-opacity="0.5" stroke="#606060" stroke-width=".5" x="0" y="0" width="60" height="60"/>
  <use id="zoomplus" xlink:href="#zoomPlus" x="17" y="9" onmousedown="handleZoom(evt,'in')"/>
  <use id="zoomminus" xlink:href="#zoomMin" x="42" y="9" onmousedown="handleZoom(evt,'out')"/>
  <use id="reset" xlink:href="#resetDef" x="30" y="36" onmousedown="handleReset()"/>
   <use id="arrowup" xlink:href="#arrowUp" x="0" y="0" onmousedown="handlePan(0,-1)"/>
  <use id="arrowright" xlink:href="#arrowRight" x="0" y="0" onmousedown="handlePan(1,0)"/>
  <use id="arrowdown" xlink:href="#arrowDown" x="0" y="0" onmousedown="handlePan(0,1)"/>
  <use id="arrowleft" xlink:href="#arrowLeft" x="0" y="0" onmousedown="handlePan(-1,0)"/>
</g>
<svg viewBox="0 0 15 15" width="100%" height="30px" preserveAspectRatio="xMaxYMin meet">
 <g id="arrow_out" transform="scale(0.3 0.3)">
  <a xlink:href="simulator_8cpp__incl_org.svg" target="_base">
   <rect id="button" ry="5" rx="5" y="6" x="6" height="38" width="38"
        fill="#f2f5e9" fill-opacity="0.5" stroke="#606060" stroke-width="1.0"/>
   <path id="arrow"
     d="M 11.500037,31.436501 C 11.940474,20.09759 22.043105,11.32322 32.158766,21.979434 L 37.068811,17.246167 C 37.068811,17.246167 37.088388,32 37.088388,32 L 22.160133,31.978069 C 22.160133,31.978069 26.997745,27.140456 26.997745,27.140456 C 18.528582,18.264221 13.291696,25.230495 11.500037,31.436501 z"
     style="fill:#404040;"/>
  </a>
 </g>
</svg>

<style type='text/css'>
<![CDATA[
[data-mouse-over-selected='false'] { opacity: 0.7; }
[data-mouse-over-selected='true']  { opacity: 1.0; }
]]>
</style>
<script type="application/ecmascript"><![CDATA[
document.addEventListener('DOMContentLoaded', (event) => {
  highlightEdges();
  highlightAdjacentNodes();
});
]]></script>
</svg>
