<?xml version="1.0" encoding="UTF-8" standalone="no"?>
<!DOCTYPE svg PUBLIC "-//W3C//DTD SVG 1.1//EN"
 "http://www.w3.org/Graphics/SVG/1.1/DTD/svg11.dtd">
<!-- Generated by graphviz version 2.43.0 (0)
 -->
<!-- Title: src/Drivers/simulatorDriver.cpp Pages: 1 -->
<svg width="1271pt" height="467pt"
 viewBox="0.00 0.00 1270.50 467.00" xmlns="http://www.w3.org/2000/svg" xmlns:xlink="http://www.w3.org/1999/xlink">
<g id="graph0" class="graph" transform="scale(1 1) rotate(0) translate(4 463)">
<title>src/Drivers/simulatorDriver.cpp</title>
<!-- Node1 -->
<g id="Node000001" class="node">
<title>Node1</title>
<g id="a_Node000001"><a xlink:title=" ">
<polygon fill="#999999" stroke="#666666" points="862.5,-459 694.5,-459 694.5,-440 862.5,-440 862.5,-459"/>
<text text-anchor="middle" x="778.5" y="-447" font-family="Helvetica,sans-Serif" font-size="10.00">src/Drivers/simulatorDriver.cpp</text>
</a>
</g>
</g>
<!-- Node2 -->
<g id="Node000002" class="node">
<title>Node2</title>
<g id="a_Node000002"><a xlink:href="simulatorDriver_8h.html" target="_top" xlink:title=" ">
<polygon fill="white" stroke="#666666" points="848.5,-404 708.5,-404 708.5,-385 848.5,-385 848.5,-404"/>
<text text-anchor="middle" x="778.5" y="-392" font-family="Helvetica,sans-Serif" font-size="10.00">Drivers/simulatorDriver.h</text>
</a>
</g>
</g>
<!-- Node1&#45;&gt;Node2 -->
<g id="edge1_Node000001_Node000002" class="edge">
<title>Node1&#45;&gt;Node2</title>
<g id="a_edge1_Node000001_Node000002"><a xlink:title=" ">
<path fill="none" stroke="#63b8ff" d="M778.5,-439.75C778.5,-432.8 778.5,-422.85 778.5,-414.13"/>
<polygon fill="#63b8ff" stroke="#63b8ff" points="782,-414.09 778.5,-404.09 775,-414.09 782,-414.09"/>
</a>
</g>
</g>
<!-- Node3 -->
<g id="Node000003" class="node">
<title>Node3</title>
<g id="a_Node000003"><a xlink:title=" ">
<polygon fill="#e0e0e0" stroke="#999999" points="1152,-74 1107,-74 1107,-55 1152,-55 1152,-74"/>
<text text-anchor="middle" x="1129.5" y="-62" font-family="Helvetica,sans-Serif" font-size="10.00">utility</text>
</a>
</g>
</g>
<!-- Node2&#45;&gt;Node3 -->
<g id="edge2_Node000002_Node000003" class="edge">
<title>Node2&#45;&gt;Node3</title>
<g id="a_edge2_Node000002_Node000003"><a xlink:title=" ">
<path fill="none" stroke="#63b8ff" d="M848.62,-392.3C982.75,-388.09 1262.5,-369.28 1262.5,-285.5 1262.5,-285.5 1262.5,-285.5 1262.5,-228.5 1262.5,-159.86 1190.82,-104.15 1152.71,-79.38"/>
<polygon fill="#63b8ff" stroke="#63b8ff" points="1154.56,-76.42 1144.24,-74.03 1150.82,-82.33 1154.56,-76.42"/>
</a>
</g>
</g>
<!-- Node4 -->
<g id="Node000004" class="node">
<title>Node4</title>
<g id="a_Node000004"><a xlink:href="driverModel_8h.html" target="_top" xlink:title=" ">
<polygon fill="white" stroke="#666666" points="665.5,-294 543.5,-294 543.5,-275 665.5,-275 665.5,-294"/>
<text text-anchor="middle" x="604.5" y="-282" font-family="Helvetica,sans-Serif" font-size="10.00">Drivers/driverModel.h</text>
</a>
</g>
</g>
<!-- Node2&#45;&gt;Node4 -->
<g id="edge3_Node000002_Node000004" class="edge">
<title>Node2&#45;&gt;Node4</title>
<g id="a_edge3_Node000002_Node000004"><a xlink:title=" ">
<path fill="none" stroke="#63b8ff" d="M764.55,-384.84C734.65,-366.28 664.09,-322.49 627.46,-299.75"/>
<polygon fill="#63b8ff" stroke="#63b8ff" points="628.85,-296.5 618.51,-294.2 625.16,-302.44 628.85,-296.5"/>
</a>
</g>
</g>
<!-- Node22 -->
<g id="Node000022" class="node">
<title>Node22</title>
<g id="a_Node000022"><a xlink:href="simulator_8h.html" target="_top" xlink:title=" ">
<polygon fill="white" stroke="#666666" points="839.5,-349 717.5,-349 717.5,-330 839.5,-330 839.5,-349"/>
<text text-anchor="middle" x="778.5" y="-337" font-family="Helvetica,sans-Serif" font-size="10.00">Simulator/simulator.h</text>
</a>
</g>
</g>
<!-- Node2&#45;&gt;Node22 -->
<g id="edge49_Node000002_Node000022" class="edge">
<title>Node2&#45;&gt;Node22</title>
<g id="a_edge49_Node000002_Node000022"><a xlink:title=" ">
<path fill="none" stroke="#63b8ff" d="M778.5,-384.75C778.5,-377.8 778.5,-367.85 778.5,-359.13"/>
<polygon fill="#63b8ff" stroke="#63b8ff" points="782,-359.09 778.5,-349.09 775,-359.09 782,-359.09"/>
</a>
</g>
</g>
<!-- Node4&#45;&gt;Node3 -->
<g id="edge9_Node000004_Node000003" class="edge">
<title>Node4&#45;&gt;Node3</title>
<g id="a_edge9_Node000004_Node000003"><a xlink:title=" ">
<path fill="none" stroke="#63b8ff" d="M665.66,-282.43C735.64,-279.65 852.9,-270.23 948.5,-239 1031.93,-211.75 1065.79,-203.3 1112.5,-129 1121.04,-115.41 1125.33,-97.59 1127.46,-84.29"/>
<polygon fill="#63b8ff" stroke="#63b8ff" points="1130.93,-84.74 1128.79,-74.37 1123.99,-83.82 1130.93,-84.74"/>
</a>
</g>
</g>
<!-- Node5 -->
<g id="Node000005" class="node">
<title>Node5</title>
<g id="a_Node000005"><a xlink:title=" ">
<polygon fill="#e0e0e0" stroke="#999999" points="1082.5,-129 1024.5,-129 1024.5,-110 1082.5,-110 1082.5,-129"/>
<text text-anchor="middle" x="1053.5" y="-117" font-family="Helvetica,sans-Serif" font-size="10.00">memory</text>
</a>
</g>
</g>
<!-- Node4&#45;&gt;Node5 -->
<g id="edge4_Node000004_Node000005" class="edge">
<title>Node4&#45;&gt;Node5</title>
<g id="a_edge4_Node000004_Node000005"><a xlink:title=" ">
<path fill="none" stroke="#63b8ff" d="M665.68,-283.02C751.78,-279.41 909.96,-261.68 1015.5,-184 1030.82,-172.72 1041.13,-153.25 1047.1,-138.83"/>
<polygon fill="#63b8ff" stroke="#63b8ff" points="1050.4,-140.01 1050.69,-129.42 1043.86,-137.51 1050.4,-140.01"/>
</a>
</g>
</g>
<!-- Node6 -->
<g id="Node000006" class="node">
<title>Node6</title>
<g id="a_Node000006"><a xlink:title=" ">
<polygon fill="#e0e0e0" stroke="#999999" points="462.5,-129 406.5,-129 406.5,-110 462.5,-110 462.5,-129"/>
<text text-anchor="middle" x="434.5" y="-117" font-family="Helvetica,sans-Serif" font-size="10.00">optional</text>
</a>
</g>
</g>
<!-- Node4&#45;&gt;Node6 -->
<g id="edge5_Node000004_Node000006" class="edge">
<title>Node4&#45;&gt;Node6</title>
<g id="a_edge5_Node000004_Node000006"><a xlink:title=" ">
<path fill="none" stroke="#63b8ff" d="M590.61,-274.89C565.75,-259.04 512.84,-223.23 476.5,-184 463.62,-170.09 451.98,-151.83 444.25,-138.47"/>
<polygon fill="#63b8ff" stroke="#63b8ff" points="447.08,-136.36 439.13,-129.35 440.97,-139.79 447.08,-136.36"/>
</a>
</g>
</g>
<!-- Node7 -->
<g id="Node000007" class="node">
<title>Node7</title>
<g id="a_Node000007"><a xlink:title=" ">
<polygon fill="#e0e0e0" stroke="#999999" points="418.5,-19 374.5,-19 374.5,0 418.5,0 418.5,-19"/>
<text text-anchor="middle" x="396.5" y="-7" font-family="Helvetica,sans-Serif" font-size="10.00">string</text>
</a>
</g>
</g>
<!-- Node4&#45;&gt;Node7 -->
<g id="edge6_Node000004_Node000007" class="edge">
<title>Node4&#45;&gt;Node7</title>
<g id="a_edge6_Node000004_Node000007"><a xlink:title=" ">
<path fill="none" stroke="#63b8ff" d="M543.32,-283.52C405.86,-281.93 84.5,-268.28 84.5,-175.5 84.5,-175.5 84.5,-175.5 84.5,-118.5 84.5,-88.48 84.31,-74.06 107.5,-55 146.21,-23.18 297.11,-13.97 364.13,-11.42"/>
<polygon fill="#63b8ff" stroke="#63b8ff" points="364.26,-14.92 374.13,-11.07 364.01,-7.93 364.26,-14.92"/>
</a>
</g>
</g>
<!-- Node8 -->
<g id="Node000008" class="node">
<title>Node8</title>
<g id="a_Node000008"><a xlink:title=" ">
<polygon fill="#e0e0e0" stroke="#999999" points="274,-74 233,-74 233,-55 274,-55 274,-74"/>
<text text-anchor="middle" x="253.5" y="-62" font-family="Helvetica,sans-Serif" font-size="10.00">tuple</text>
</a>
</g>
</g>
<!-- Node4&#45;&gt;Node8 -->
<g id="edge7_Node000004_Node000008" class="edge">
<title>Node4&#45;&gt;Node8</title>
<g id="a_edge7_Node000004_Node000008"><a xlink:title=" ">
<path fill="none" stroke="#63b8ff" d="M555.26,-274.95C481.67,-259.48 343.91,-219.62 271.5,-129 261.33,-116.27 256.9,-98.09 254.98,-84.45"/>
<polygon fill="#63b8ff" stroke="#63b8ff" points="258.43,-83.83 253.88,-74.27 251.47,-84.58 258.43,-83.83"/>
</a>
</g>
</g>
<!-- Node9 -->
<g id="Node000009" class="node">
<title>Node9</title>
<g id="a_Node000009"><a xlink:title=" ">
<polygon fill="#e0e0e0" stroke="#999999" points="93,-19 0,-19 0,0 93,0 93,-19"/>
<text text-anchor="middle" x="46.5" y="-7" font-family="Helvetica,sans-Serif" font-size="10.00">unordered_map</text>
</a>
</g>
</g>
<!-- Node4&#45;&gt;Node9 -->
<g id="edge8_Node000004_Node000009" class="edge">
<title>Node4&#45;&gt;Node9</title>
<g id="a_edge8_Node000004_Node000009"><a xlink:title=" ">
<path fill="none" stroke="#63b8ff" d="M543.27,-281.25C430.49,-276.57 194.35,-264.04 116.5,-239 63.49,-221.95 8.5,-231.18 8.5,-175.5 8.5,-175.5 8.5,-175.5 8.5,-118.5 8.5,-85.02 24.95,-48.84 36.2,-28.01"/>
<polygon fill="#63b8ff" stroke="#63b8ff" points="39.37,-29.53 41.22,-19.1 33.26,-26.1 39.37,-29.53"/>
</a>
</g>
</g>
<!-- Node10 -->
<g id="Node000010" class="node">
<title>Node10</title>
<g id="a_Node000010"><a xlink:title=" ">
<polygon fill="#e0e0e0" stroke="#999999" points="675,-74 610,-74 610,-55 675,-55 675,-74"/>
<text text-anchor="middle" x="642.5" y="-62" font-family="Helvetica,sans-Serif" font-size="10.00">functional</text>
</a>
</g>
</g>
<!-- Node4&#45;&gt;Node10 -->
<g id="edge10_Node000004_Node000010" class="edge">
<title>Node4&#45;&gt;Node10</title>
<g id="a_edge10_Node000004_Node000010"><a xlink:title=" ">
<path fill="none" stroke="#63b8ff" d="M605.99,-274.95C611.58,-242.88 631.4,-129.2 639.26,-84.12"/>
<polygon fill="#63b8ff" stroke="#63b8ff" points="642.71,-84.68 640.98,-74.22 635.81,-83.47 642.71,-84.68"/>
</a>
</g>
</g>
<!-- Node11 -->
<g id="Node000011" class="node">
<title>Node11</title>
<g id="a_Node000011"><a xlink:href="channel_8h.html" target="_top" xlink:title=" ">
<polygon fill="white" stroke="#666666" points="778,-239 671,-239 671,-220 778,-220 778,-239"/>
<text text-anchor="middle" x="724.5" y="-227" font-family="Helvetica,sans-Serif" font-size="10.00">Channel/channel.h</text>
</a>
</g>
</g>
<!-- Node4&#45;&gt;Node11 -->
<g id="edge11_Node000004_Node000011" class="edge">
<title>Node4&#45;&gt;Node11</title>
<g id="a_edge11_Node000004_Node000011"><a xlink:title=" ">
<path fill="none" stroke="#63b8ff" d="M623.78,-274.98C643.17,-266.42 673.31,-253.11 695.57,-243.28"/>
<polygon fill="#63b8ff" stroke="#63b8ff" points="697.14,-246.41 704.87,-239.17 694.31,-240.01 697.14,-246.41"/>
</a>
</g>
</g>
<!-- Node16 -->
<g id="Node000016" class="node">
<title>Node16</title>
<g id="a_Node000016"><a xlink:href="types_8h.html" target="_top" xlink:title=" ">
<polygon fill="white" stroke="#666666" points="488,-74 399,-74 399,-55 488,-55 488,-74"/>
<text text-anchor="middle" x="443.5" y="-62" font-family="Helvetica,sans-Serif" font-size="10.00">Library/types.h</text>
</a>
</g>
</g>
<!-- Node4&#45;&gt;Node16 -->
<g id="edge47_Node000004_Node000016" class="edge">
<title>Node4&#45;&gt;Node16</title>
<g id="a_edge47_Node000004_Node000016"><a xlink:title=" ">
<path fill="none" stroke="#63b8ff" d="M580.33,-274.92C533.46,-256.72 431.77,-209.21 397.5,-129 389.65,-110.62 405.93,-92.44 421.25,-80.27"/>
<polygon fill="#63b8ff" stroke="#63b8ff" points="423.54,-82.93 429.5,-74.17 419.38,-77.3 423.54,-82.93"/>
</a>
</g>
</g>
<!-- Node17 -->
<g id="Node000017" class="node">
<title>Node17</title>
<g id="a_Node000017"><a xlink:href="transaction_8h_source.html" target="_top" xlink:title=" ">
<polygon fill="white" stroke="#666666" points="794,-184 655,-184 655,-165 794,-165 794,-184"/>
<text text-anchor="middle" x="724.5" y="-172" font-family="Helvetica,sans-Serif" font-size="10.00">Transaction/transaction.h</text>
</a>
</g>
</g>
<!-- Node4&#45;&gt;Node17 -->
<g id="edge46_Node000004_Node000017" class="edge">
<title>Node4&#45;&gt;Node17</title>
<g id="a_edge46_Node000004_Node000017"><a xlink:title=" ">
<path fill="none" stroke="#63b8ff" d="M611.32,-274.72C621.49,-261.92 641.58,-237.73 661.5,-220 674.14,-208.75 689.65,-197.77 702.11,-189.53"/>
<polygon fill="#63b8ff" stroke="#63b8ff" points="704.08,-192.42 710.57,-184.05 700.27,-186.55 704.08,-192.42"/>
</a>
</g>
</g>
<!-- Node19 -->
<g id="Node000019" class="node">
<title>Node19</title>
<g id="a_Node000019"><a xlink:href="error_8h.html" target="_top" xlink:title=" ">
<polygon fill="white" stroke="#666666" points="198,-129 113,-129 113,-110 198,-110 198,-129"/>
<text text-anchor="middle" x="155.5" y="-117" font-family="Helvetica,sans-Serif" font-size="10.00">Library/error.h</text>
</a>
</g>
</g>
<!-- Node4&#45;&gt;Node19 -->
<g id="edge48_Node000004_Node000019" class="edge">
<title>Node4&#45;&gt;Node19</title>
<g id="a_edge48_Node000004_Node000019"><a xlink:title=" ">
<path fill="none" stroke="#63b8ff" d="M543.24,-283.42C447.28,-282.16 267.11,-274.92 215.5,-239 181.38,-215.26 165.56,-166.2 159.19,-139.25"/>
<polygon fill="#63b8ff" stroke="#63b8ff" points="162.55,-138.22 157.01,-129.19 155.71,-139.7 162.55,-138.22"/>
</a>
</g>
</g>
<!-- Node11&#45;&gt;Node3 -->
<g id="edge18_Node000011_Node000003" class="edge">
<title>Node11&#45;&gt;Node3</title>
<g id="a_edge18_Node000011_Node000003"><a xlink:title=" ">
<path fill="none" stroke="#63b8ff" d="M778,-227.8C837.95,-225.34 937,-216.18 1015.5,-184 1054.08,-168.18 1063.33,-159.74 1091.5,-129 1104.09,-115.26 1114.61,-96.71 1121.37,-83.21"/>
<polygon fill="#63b8ff" stroke="#63b8ff" points="1124.6,-84.56 1125.77,-74.03 1118.29,-81.53 1124.6,-84.56"/>
</a>
</g>
</g>
<!-- Node11&#45;&gt;Node5 -->
<g id="edge13_Node000011_Node000005" class="edge">
<title>Node11&#45;&gt;Node5</title>
<g id="a_edge13_Node000011_Node000005"><a xlink:title=" ">
<path fill="none" stroke="#63b8ff" d="M746.91,-219.88C769.6,-211.09 805.63,-196.95 836.5,-184 855.77,-175.92 859.76,-171.83 879.5,-165 924.96,-149.27 978.82,-136.34 1014.44,-128.54"/>
<polygon fill="#63b8ff" stroke="#63b8ff" points="1015.4,-131.92 1024.43,-126.39 1013.92,-125.07 1015.4,-131.92"/>
</a>
</g>
</g>
<!-- Node11&#45;&gt;Node7 -->
<g id="edge14_Node000011_Node000007" class="edge">
<title>Node11&#45;&gt;Node7</title>
<g id="a_edge14_Node000011_Node000007"><a xlink:title=" ">
<path fill="none" stroke="#63b8ff" d="M670.98,-228.83C597.28,-226.15 465.91,-209.48 397.5,-129 373.71,-101.02 382.61,-54.45 390.18,-28.81"/>
<polygon fill="#63b8ff" stroke="#63b8ff" points="393.53,-29.81 393.24,-19.22 386.87,-27.68 393.53,-29.81"/>
</a>
</g>
</g>
<!-- Node11&#45;&gt;Node8 -->
<g id="edge15_Node000011_Node000008" class="edge">
<title>Node11&#45;&gt;Node8</title>
<g id="a_edge15_Node000011_Node000008"><a xlink:title=" ">
<path fill="none" stroke="#63b8ff" d="M670.84,-224.98C585.18,-218.82 421.66,-204.77 367.5,-184 327.55,-168.69 317.13,-160.79 288.5,-129 276.28,-115.43 266.67,-96.86 260.64,-83.3"/>
<polygon fill="#63b8ff" stroke="#63b8ff" points="263.86,-81.93 256.74,-74.08 257.41,-84.66 263.86,-81.93"/>
</a>
</g>
</g>
<!-- Node11&#45;&gt;Node9 -->
<g id="edge16_Node000011_Node000009" class="edge">
<title>Node11&#45;&gt;Node9</title>
<g id="a_edge16_Node000011_Node000009"><a xlink:title=" ">
<path fill="none" stroke="#63b8ff" d="M670.72,-226.64C536.3,-220.95 190.3,-199.65 103.5,-129 71.74,-103.15 56.5,-55.35 50.23,-29.05"/>
<polygon fill="#63b8ff" stroke="#63b8ff" points="53.63,-28.23 48.06,-19.22 46.8,-29.74 53.63,-28.23"/>
</a>
</g>
</g>
<!-- Node12 -->
<g id="Node000012" class="node">
<title>Node12</title>
<g id="a_Node000012"><a xlink:title=" ">
<polygon fill="#e0e0e0" stroke="#999999" points="942,-184 889,-184 889,-165 942,-165 942,-184"/>
<text text-anchor="middle" x="915.5" y="-172" font-family="Helvetica,sans-Serif" font-size="10.00">iterator</text>
</a>
</g>
</g>
<!-- Node11&#45;&gt;Node12 -->
<g id="edge12_Node000011_Node000012" class="edge">
<title>Node11&#45;&gt;Node12</title>
<g id="a_edge12_Node000011_Node000012"><a xlink:title=" ">
<path fill="none" stroke="#63b8ff" d="M755.19,-219.98C788.88,-210.64 842.94,-195.64 878.83,-185.67"/>
<polygon fill="#63b8ff" stroke="#63b8ff" points="880.19,-188.93 888.89,-182.88 878.32,-182.18 880.19,-188.93"/>
</a>
</g>
</g>
<!-- Node13 -->
<g id="Node000013" class="node">
<title>Node13</title>
<g id="a_Node000013"><a xlink:title=" ">
<polygon fill="#e0e0e0" stroke="#999999" points="835.5,-74 797.5,-74 797.5,-55 835.5,-55 835.5,-74"/>
<text text-anchor="middle" x="816.5" y="-62" font-family="Helvetica,sans-Serif" font-size="10.00">map</text>
</a>
</g>
</g>
<!-- Node11&#45;&gt;Node13 -->
<g id="edge17_Node000011_Node000013" class="edge">
<title>Node11&#45;&gt;Node13</title>
<g id="a_edge17_Node000011_Node000013"><a xlink:title=" ">
<path fill="none" stroke="#63b8ff" d="M739.69,-219.82C761.2,-207.55 801.79,-184.45 836.5,-165 865.31,-148.86 884.73,-157.45 901.5,-129 917.21,-102.34 875.69,-83.32 845.29,-73.4"/>
<polygon fill="#63b8ff" stroke="#63b8ff" points="846.09,-69.98 835.51,-70.38 844.03,-76.67 846.09,-69.98"/>
</a>
</g>
</g>
<!-- Node14 -->
<g id="Node000014" class="node">
<title>Node14</title>
<g id="a_Node000014"><a xlink:title=" ">
<polygon fill="#e0e0e0" stroke="#999999" points="864,-19 817,-19 817,0 864,0 864,-19"/>
<text text-anchor="middle" x="840.5" y="-7" font-family="Helvetica,sans-Serif" font-size="10.00">vector</text>
</a>
</g>
</g>
<!-- Node11&#45;&gt;Node14 -->
<g id="edge19_Node000011_Node000014" class="edge">
<title>Node11&#45;&gt;Node14</title>
<g id="a_edge19_Node000011_Node000014"><a xlink:title=" ">
<path fill="none" stroke="#63b8ff" d="M778.26,-224.81C857.5,-218.76 1001.39,-205.22 1048.5,-184 1112.41,-155.22 1136.55,-139.5 1161.5,-74 1164.51,-66.11 1167.05,-61.37 1161.5,-55 1124.52,-12.54 949.14,-9.27 874.38,-9.87"/>
<polygon fill="#63b8ff" stroke="#63b8ff" points="874.07,-6.37 864.11,-9.98 874.15,-13.37 874.07,-6.37"/>
</a>
</g>
</g>
<!-- Node15 -->
<g id="Node000015" class="node">
<title>Node15</title>
<g id="a_Node000015"><a xlink:title=" ">
<polygon fill="#e0e0e0" stroke="#999999" points="1006.5,-184 960.5,-184 960.5,-165 1006.5,-165 1006.5,-184"/>
<text text-anchor="middle" x="983.5" y="-172" font-family="Helvetica,sans-Serif" font-size="10.00">future</text>
</a>
</g>
</g>
<!-- Node11&#45;&gt;Node15 -->
<g id="edge20_Node000011_Node000015" class="edge">
<title>Node11&#45;&gt;Node15</title>
<g id="a_edge20_Node000011_Node000015"><a xlink:title=" ">
<path fill="none" stroke="#63b8ff" d="M771.85,-220C817.69,-211.57 889.08,-197.94 950.5,-184 950.6,-183.98 950.7,-183.95 950.8,-183.93"/>
<polygon fill="#63b8ff" stroke="#63b8ff" points="951.55,-187.35 960.46,-181.61 949.92,-180.54 951.55,-187.35"/>
</a>
</g>
</g>
<!-- Node11&#45;&gt;Node16 -->
<g id="edge21_Node000011_Node000016" class="edge">
<title>Node11&#45;&gt;Node16</title>
<g id="a_edge21_Node000011_Node000016"><a xlink:title=" ">
<path fill="none" stroke="#63b8ff" d="M699.87,-219.9C658.8,-204.94 574.58,-171.61 511.5,-129 491.14,-115.24 470.96,-95.41 457.94,-81.58"/>
<polygon fill="#63b8ff" stroke="#63b8ff" points="460.51,-79.2 451.15,-74.23 455.36,-83.95 460.51,-79.2"/>
</a>
</g>
</g>
<!-- Node11&#45;&gt;Node17 -->
<g id="edge25_Node000011_Node000017" class="edge">
<title>Node11&#45;&gt;Node17</title>
<g id="a_edge25_Node000011_Node000017"><a xlink:title=" ">
<path fill="none" stroke="#63b8ff" d="M724.5,-219.75C724.5,-212.8 724.5,-202.85 724.5,-194.13"/>
<polygon fill="#63b8ff" stroke="#63b8ff" points="728,-194.09 724.5,-184.09 721,-194.09 728,-194.09"/>
</a>
</g>
</g>
<!-- Node16&#45;&gt;Node7 -->
<g id="edge24_Node000016_Node000007" class="edge">
<title>Node16&#45;&gt;Node7</title>
<g id="a_edge24_Node000016_Node000007"><a xlink:title=" ">
<path fill="none" stroke="#63b8ff" d="M435.74,-54.75C429.03,-47.18 419.16,-36.05 410.99,-26.84"/>
<polygon fill="#63b8ff" stroke="#63b8ff" points="413.37,-24.25 404.12,-19.09 408.13,-28.89 413.37,-24.25"/>
</a>
</g>
</g>
<!-- Node16&#45;&gt;Node9 -->
<g id="edge23_Node000016_Node000009" class="edge">
<title>Node16&#45;&gt;Node9</title>
<g id="a_edge23_Node000016_Node000009"><a xlink:title=" ">
<path fill="none" stroke="#63b8ff" d="M398.73,-57.52C326.25,-47.85 183.29,-28.76 103.59,-18.12"/>
<polygon fill="#63b8ff" stroke="#63b8ff" points="103.63,-14.6 93.25,-16.74 102.7,-21.53 103.63,-14.6"/>
</a>
</g>
</g>
<!-- Node16&#45;&gt;Node14 -->
<g id="edge22_Node000016_Node000014" class="edge">
<title>Node16&#45;&gt;Node14</title>
<g id="a_edge22_Node000016_Node000014"><a xlink:title=" ">
<path fill="none" stroke="#63b8ff" d="M488.27,-57.52C568.51,-46.81 735.1,-24.57 806.65,-15.02"/>
<polygon fill="#63b8ff" stroke="#63b8ff" points="807.44,-18.44 816.89,-13.65 806.52,-11.51 807.44,-18.44"/>
</a>
</g>
</g>
<!-- Node17&#45;&gt;Node3 -->
<g id="edge27_Node000017_Node000003" class="edge">
<title>Node17&#45;&gt;Node3</title>
<g id="a_edge27_Node000017_Node000003"><a xlink:title=" ">
<path fill="none" stroke="#63b8ff" d="M771.96,-164.93C814.75,-156.86 879.24,-143.81 934.5,-129 992.59,-113.43 1058.91,-90.77 1097.32,-77.14"/>
<polygon fill="#63b8ff" stroke="#63b8ff" points="1098.67,-80.38 1106.92,-73.72 1096.32,-73.78 1098.67,-80.38"/>
</a>
</g>
</g>
<!-- Node17&#45;&gt;Node5 -->
<g id="edge29_Node000017_Node000005" class="edge">
<title>Node17&#45;&gt;Node5</title>
<g id="a_edge29_Node000017_Node000005"><a xlink:title=" ">
<path fill="none" stroke="#63b8ff" d="M783.77,-165C841.7,-156.52 932.31,-142.8 1010.5,-129 1011.76,-128.78 1013.05,-128.55 1014.35,-128.31"/>
<polygon fill="#63b8ff" stroke="#63b8ff" points="1015.2,-131.71 1024.39,-126.42 1013.91,-124.83 1015.2,-131.71"/>
</a>
</g>
</g>
<!-- Node17&#45;&gt;Node6 -->
<g id="edge32_Node000017_Node000006" class="edge">
<title>Node17&#45;&gt;Node6</title>
<g id="a_edge32_Node000017_Node000006"><a xlink:title=" ">
<path fill="none" stroke="#63b8ff" d="M677.91,-164.98C620.87,-154.56 525.36,-137.11 472.53,-127.45"/>
<polygon fill="#63b8ff" stroke="#63b8ff" points="473.03,-123.98 462.56,-125.63 471.77,-130.87 473.03,-123.98"/>
</a>
</g>
</g>
<!-- Node17&#45;&gt;Node7 -->
<g id="edge26_Node000017_Node000007" class="edge">
<title>Node17&#45;&gt;Node7</title>
<g id="a_edge26_Node000017_Node000007"><a xlink:title=" ">
<path fill="none" stroke="#63b8ff" d="M708.91,-164.98C672.24,-145.03 577.48,-94.02 496.5,-55 472.96,-43.66 445.86,-31.66 425.81,-22.99"/>
<polygon fill="#63b8ff" stroke="#63b8ff" points="427.15,-19.75 416.59,-19.01 424.38,-26.18 427.15,-19.75"/>
</a>
</g>
</g>
<!-- Node17&#45;&gt;Node10 -->
<g id="edge33_Node000017_Node000010" class="edge">
<title>Node17&#45;&gt;Node10</title>
<g id="a_edge33_Node000017_Node000010"><a xlink:title=" ">
<path fill="none" stroke="#63b8ff" d="M706.21,-164.86C692.06,-157.28 672.99,-144.98 661.5,-129 651.95,-115.71 647.15,-97.6 644.76,-84.12"/>
<polygon fill="#63b8ff" stroke="#63b8ff" points="648.21,-83.47 643.28,-74.09 641.28,-84.49 648.21,-83.47"/>
</a>
</g>
</g>
<!-- Node17&#45;&gt;Node13 -->
<g id="edge31_Node000017_Node000013" class="edge">
<title>Node17&#45;&gt;Node13</title>
<g id="a_edge31_Node000017_Node000013"><a xlink:title=" ">
<path fill="none" stroke="#63b8ff" d="M747.04,-164.97C763.28,-157.72 784.54,-145.81 797.5,-129 807.49,-116.04 812.25,-97.89 814.5,-84.31"/>
<polygon fill="#63b8ff" stroke="#63b8ff" points="818,-84.57 815.86,-74.19 811.06,-83.64 818,-84.57"/>
</a>
</g>
</g>
<!-- Node17&#45;&gt;Node14 -->
<g id="edge28_Node000017_Node000014" class="edge">
<title>Node17&#45;&gt;Node14</title>
<g id="a_edge28_Node000017_Node000014"><a xlink:title=" ">
<path fill="none" stroke="#63b8ff" d="M793.13,-164.99C836.94,-157.99 887.96,-146.37 901.5,-129 927.55,-95.6 885.15,-49.37 858.88,-25.74"/>
<polygon fill="#63b8ff" stroke="#63b8ff" points="861.17,-23.1 851.33,-19.17 856.58,-28.38 861.17,-23.1"/>
</a>
</g>
</g>
<!-- Node17&#45;&gt;Node16 -->
<g id="edge34_Node000017_Node000016" class="edge">
<title>Node17&#45;&gt;Node16</title>
<g id="a_edge34_Node000017_Node000016"><a xlink:title=" ">
<path fill="none" stroke="#63b8ff" d="M677.39,-164.95C642.18,-157.7 593.29,-145.78 552.5,-129 520.04,-115.64 485.5,-94.12 464.21,-79.89"/>
<polygon fill="#63b8ff" stroke="#63b8ff" points="465.91,-76.82 455.67,-74.1 461.98,-82.61 465.91,-76.82"/>
</a>
</g>
</g>
<!-- Node18 -->
<g id="Node000018" class="node">
<title>Node18</title>
<g id="a_Node000018"><a xlink:title=" ">
<polygon fill="#e0e0e0" stroke="#999999" points="892.5,-129 844.5,-129 844.5,-110 892.5,-110 892.5,-129"/>
<text text-anchor="middle" x="868.5" y="-117" font-family="Helvetica,sans-Serif" font-size="10.00">mutex</text>
</a>
</g>
</g>
<!-- Node17&#45;&gt;Node18 -->
<g id="edge30_Node000017_Node000018" class="edge">
<title>Node17&#45;&gt;Node18</title>
<g id="a_edge30_Node000017_Node000018"><a xlink:title=" ">
<path fill="none" stroke="#63b8ff" d="M747.64,-164.98C771.32,-156.27 808.37,-142.63 835.21,-132.75"/>
<polygon fill="#63b8ff" stroke="#63b8ff" points="836.77,-135.91 844.94,-129.17 834.35,-129.34 836.77,-135.91"/>
</a>
</g>
</g>
<!-- Node17&#45;&gt;Node19 -->
<g id="edge35_Node000017_Node000019" class="edge">
<title>Node17&#45;&gt;Node19</title>
<g id="a_edge35_Node000017_Node000019"><a xlink:title=" ">
<path fill="none" stroke="#63b8ff" d="M654.73,-167C539.39,-156.26 311.5,-135.03 208.38,-125.43"/>
<polygon fill="#63b8ff" stroke="#63b8ff" points="208.49,-121.92 198.21,-124.48 207.84,-128.89 208.49,-121.92"/>
</a>
</g>
</g>
<!-- Node21 -->
<g id="Node000021" class="node">
<title>Node21</title>
<g id="a_Node000021"><a xlink:href="evaluate_8h.html" target="_top" xlink:title=" ">
<polygon fill="white" stroke="#666666" points="788.5,-129 670.5,-129 670.5,-110 788.5,-110 788.5,-129"/>
<text text-anchor="middle" x="729.5" y="-117" font-family="Helvetica,sans-Serif" font-size="10.00">Evaluator/evaluate.h</text>
</a>
</g>
</g>
<!-- Node17&#45;&gt;Node21 -->
<g id="edge38_Node000017_Node000021" class="edge">
<title>Node17&#45;&gt;Node21</title>
<g id="a_edge38_Node000017_Node000021"><a xlink:title=" ">
<path fill="none" stroke="#63b8ff" d="M725.33,-164.75C725.98,-157.8 726.92,-147.85 727.74,-139.13"/>
<polygon fill="#63b8ff" stroke="#63b8ff" points="731.23,-139.37 728.69,-129.09 724.27,-138.72 731.23,-139.37"/>
</a>
</g>
</g>
<!-- Node19&#45;&gt;Node7 -->
<g id="edge36_Node000019_Node000007" class="edge">
<title>Node19&#45;&gt;Node7</title>
<g id="a_edge36_Node000019_Node000007"><a xlink:title=" ">
<path fill="none" stroke="#63b8ff" d="M162.43,-109.65C173.71,-95.84 197.44,-69.29 223.5,-55 268.79,-30.17 328.38,-18.81 364.49,-13.91"/>
<polygon fill="#63b8ff" stroke="#63b8ff" points="364.98,-17.37 374.46,-12.64 364.1,-10.43 364.98,-17.37"/>
</a>
</g>
</g>
<!-- Node20 -->
<g id="Node000020" class="node">
<title>Node20</title>
<g id="a_Node000020"><a xlink:title=" ">
<polygon fill="#e0e0e0" stroke="#999999" points="176.5,-74 116.5,-74 116.5,-55 176.5,-55 176.5,-74"/>
<text text-anchor="middle" x="146.5" y="-62" font-family="Helvetica,sans-Serif" font-size="10.00">iostream</text>
</a>
</g>
</g>
<!-- Node19&#45;&gt;Node20 -->
<g id="edge37_Node000019_Node000020" class="edge">
<title>Node19&#45;&gt;Node20</title>
<g id="a_edge37_Node000019_Node000020"><a xlink:title=" ">
<path fill="none" stroke="#63b8ff" d="M154.01,-109.75C152.83,-102.8 151.14,-92.85 149.66,-84.13"/>
<polygon fill="#63b8ff" stroke="#63b8ff" points="153.08,-83.36 147.96,-74.09 146.18,-84.53 153.08,-83.36"/>
</a>
</g>
</g>
<!-- Node21&#45;&gt;Node3 -->
<g id="edge39_Node000021_Node000003" class="edge">
<title>Node21&#45;&gt;Node3</title>
<g id="a_edge39_Node000021_Node000003"><a xlink:title=" ">
<path fill="none" stroke="#63b8ff" d="M788.52,-110.68C873.92,-99.36 1029.1,-78.8 1096.63,-69.85"/>
<polygon fill="#63b8ff" stroke="#63b8ff" points="1097.24,-73.31 1106.69,-68.52 1096.32,-66.37 1097.24,-73.31"/>
</a>
</g>
</g>
<!-- Node21&#45;&gt;Node7 -->
<g id="edge41_Node000021_Node000007" class="edge">
<title>Node21&#45;&gt;Node7</title>
<g id="a_edge41_Node000021_Node000007"><a xlink:title=" ">
<path fill="none" stroke="#63b8ff" d="M725.91,-109.82C719.6,-95.75 705.1,-68.21 683.5,-55 641.22,-29.15 494.67,-16.76 428.9,-12.4"/>
<polygon fill="#63b8ff" stroke="#63b8ff" points="428.9,-8.89 418.69,-11.75 428.45,-15.88 428.9,-8.89"/>
</a>
</g>
</g>
<!-- Node21&#45;&gt;Node8 -->
<g id="edge43_Node000021_Node000008" class="edge">
<title>Node21&#45;&gt;Node8</title>
<g id="a_edge43_Node000021_Node000008"><a xlink:title=" ">
<path fill="none" stroke="#63b8ff" d="M670.18,-111.89C568.06,-100.53 362.54,-77.64 284.51,-68.95"/>
<polygon fill="#63b8ff" stroke="#63b8ff" points="284.7,-65.45 274.37,-67.82 283.92,-72.41 284.7,-65.45"/>
</a>
</g>
</g>
<!-- Node21&#45;&gt;Node10 -->
<g id="edge42_Node000021_Node000010" class="edge">
<title>Node21&#45;&gt;Node10</title>
<g id="a_edge42_Node000021_Node000010"><a xlink:title=" ">
<path fill="none" stroke="#63b8ff" d="M715.52,-109.98C702.03,-101.77 681.37,-89.18 665.46,-79.49"/>
<polygon fill="#63b8ff" stroke="#63b8ff" points="667.09,-76.38 656.73,-74.17 663.45,-82.36 667.09,-76.38"/>
</a>
</g>
</g>
<!-- Node21&#45;&gt;Node13 -->
<g id="edge44_Node000021_Node000013" class="edge">
<title>Node21&#45;&gt;Node13</title>
<g id="a_edge44_Node000021_Node000013"><a xlink:title=" ">
<path fill="none" stroke="#63b8ff" d="M743.48,-109.98C756.97,-101.77 777.63,-89.18 793.54,-79.49"/>
<polygon fill="#63b8ff" stroke="#63b8ff" points="795.55,-82.36 802.27,-74.17 791.91,-76.38 795.55,-82.36"/>
</a>
</g>
</g>
<!-- Node21&#45;&gt;Node14 -->
<g id="edge40_Node000021_Node000014" class="edge">
<title>Node21&#45;&gt;Node14</title>
<g id="a_edge40_Node000021_Node000014"><a xlink:title=" ">
<path fill="none" stroke="#63b8ff" d="M736.85,-109.99C747.73,-97.53 768.96,-73.76 788.5,-55 799.21,-44.71 811.86,-33.86 822,-25.45"/>
<polygon fill="#63b8ff" stroke="#63b8ff" points="824.32,-28.08 829.83,-19.03 819.88,-22.66 824.32,-28.08"/>
</a>
</g>
</g>
<!-- Node21&#45;&gt;Node16 -->
<g id="edge45_Node000021_Node000016" class="edge">
<title>Node21&#45;&gt;Node16</title>
<g id="a_edge45_Node000021_Node000016"><a xlink:title=" ">
<path fill="none" stroke="#63b8ff" d="M683.55,-109.98C633.11,-100.64 552.18,-85.64 498.43,-75.68"/>
<polygon fill="#63b8ff" stroke="#63b8ff" points="498.86,-72.2 488.39,-73.82 497.59,-79.08 498.86,-72.2"/>
</a>
</g>
</g>
<!-- Node22&#45;&gt;Node3 -->
<g id="edge51_Node000022_Node000003" class="edge">
<title>Node22&#45;&gt;Node3</title>
<g id="a_edge51_Node000022_Node000003"><a xlink:title=" ">
<path fill="none" stroke="#63b8ff" d="M839.58,-335.01C953.4,-326.82 1186.5,-301.39 1186.5,-230.5 1186.5,-230.5 1186.5,-230.5 1186.5,-173.5 1186.5,-137.51 1161.44,-101.76 1144.55,-81.76"/>
<polygon fill="#63b8ff" stroke="#63b8ff" points="1147.14,-79.4 1137.91,-74.2 1141.88,-84.02 1147.14,-79.4"/>
</a>
</g>
</g>
<!-- Node22&#45;&gt;Node4 -->
<g id="edge53_Node000022_Node000004" class="edge">
<title>Node22&#45;&gt;Node4</title>
<g id="a_edge53_Node000022_Node000004"><a xlink:title=" ">
<path fill="none" stroke="#63b8ff" d="M750.54,-329.98C721.2,-321.05 674.9,-306.94 642.31,-297.02"/>
<polygon fill="#63b8ff" stroke="#63b8ff" points="643.26,-293.65 632.68,-294.08 641.22,-300.34 643.26,-293.65"/>
</a>
</g>
</g>
<!-- Node22&#45;&gt;Node5 -->
<g id="edge50_Node000022_Node000005" class="edge">
<title>Node22&#45;&gt;Node5</title>
<g id="a_edge50_Node000022_Node000005"><a xlink:title=" ">
<path fill="none" stroke="#63b8ff" d="M807.18,-329.94C861.45,-312.2 979.03,-266.06 1038.5,-184 1047.95,-170.96 1051.53,-152.81 1052.85,-139.26"/>
<polygon fill="#63b8ff" stroke="#63b8ff" points="1056.35,-139.37 1053.5,-129.17 1049.36,-138.92 1056.35,-139.37"/>
</a>
</g>
</g>
<!-- Node22&#45;&gt;Node11 -->
<g id="edge54_Node000022_Node000011" class="edge">
<title>Node22&#45;&gt;Node11</title>
<g id="a_edge54_Node000022_Node000011"><a xlink:title=" ">
<path fill="none" stroke="#63b8ff" d="M774.08,-329.66C765.22,-311.93 745.11,-271.73 733.41,-248.32"/>
<polygon fill="#63b8ff" stroke="#63b8ff" points="736.43,-246.54 728.83,-239.16 730.17,-249.67 736.43,-246.54"/>
</a>
</g>
</g>
<!-- Node22&#45;&gt;Node16 -->
<g id="edge52_Node000022_Node000016" class="edge">
<title>Node22&#45;&gt;Node16</title>
<g id="a_edge52_Node000022_Node000016"><a xlink:title=" ">
<path fill="none" stroke="#63b8ff" d="M717.45,-336.59C666.27,-332.88 592.46,-322.5 534.5,-294 447.42,-251.17 411.32,-224 391.5,-129 389.77,-120.73 387.97,-117.67 391.5,-110 397.25,-97.52 408.41,-87.24 418.92,-79.71"/>
<polygon fill="#63b8ff" stroke="#63b8ff" points="421.07,-82.49 427.47,-74.05 417.2,-76.65 421.07,-82.49"/>
</a>
</g>
</g>
<!-- Node22&#45;&gt;Node17 -->
<g id="edge55_Node000022_Node000017" class="edge">
<title>Node22&#45;&gt;Node17</title>
<g id="a_edge55_Node000022_Node000017"><a xlink:title=" ">
<path fill="none" stroke="#63b8ff" d="M781.96,-329.85C789.54,-309.41 805.52,-257.06 786.5,-220 779.54,-206.44 766.31,-196.07 753.85,-188.78"/>
<polygon fill="#63b8ff" stroke="#63b8ff" points="755.48,-185.68 745.02,-184 752.15,-191.84 755.48,-185.68"/>
</a>
</g>
</g>
</g>
</svg>
