<?xml version="1.0" encoding="UTF-8" standalone="no"?>
<!DOCTYPE svg PUBLIC "-//W3C//DTD SVG 1.1//EN"
 "http://www.w3.org/Graphics/SVG/1.1/DTD/svg11.dtd">
<!-- Generated by graphviz version 2.43.0 (0)
 -->
<!-- Title: src/Drivers/simulatorDriver.cpp Pages: 1 -->
<svg width="1376pt" height="467pt"
 viewBox="0.00 0.00 1376.00 467.00" xmlns="http://www.w3.org/2000/svg" xmlns:xlink="http://www.w3.org/1999/xlink">
<g id="graph0" class="graph" transform="scale(1 1) rotate(0) translate(4 463)">
<title>src/Drivers/simulatorDriver.cpp</title>
<!-- Node1 -->
<g id="Node000001" class="node">
<title>Node1</title>
<g id="a_Node000001"><a xlink:title=" ">
<polygon fill="#999999" stroke="#666666" points="700,-459 532,-459 532,-440 700,-440 700,-459"/>
<text text-anchor="middle" x="616" y="-447" font-family="Helvetica,sans-Serif" font-size="10.00">src/Drivers/simulatorDriver.cpp</text>
</a>
</g>
</g>
<!-- Node2 -->
<g id="Node000002" class="node">
<title>Node2</title>
<g id="a_Node000002"><a xlink:href="simulatorDriver_8h.html" target="_top" xlink:title=" ">
<polygon fill="white" stroke="#666666" points="686,-404 546,-404 546,-385 686,-385 686,-404"/>
<text text-anchor="middle" x="616" y="-392" font-family="Helvetica,sans-Serif" font-size="10.00">Drivers/simulatorDriver.h</text>
</a>
</g>
</g>
<!-- Node1&#45;&gt;Node2 -->
<g id="edge1_Node000001_Node000002" class="edge">
<title>Node1&#45;&gt;Node2</title>
<g id="a_edge1_Node000001_Node000002"><a xlink:title=" ">
<path fill="none" stroke="#63b8ff" d="M616,-439.75C616,-432.8 616,-422.85 616,-414.13"/>
<polygon fill="#63b8ff" stroke="#63b8ff" points="619.5,-414.09 616,-404.09 612.5,-414.09 619.5,-414.09"/>
</a>
</g>
</g>
<!-- Node3 -->
<g id="Node000003" class="node">
<title>Node3</title>
<g id="a_Node000003"><a xlink:title=" ">
<polygon fill="#e0e0e0" stroke="#999999" points="275.5,-74 230.5,-74 230.5,-55 275.5,-55 275.5,-74"/>
<text text-anchor="middle" x="253" y="-62" font-family="Helvetica,sans-Serif" font-size="10.00">utility</text>
</a>
</g>
</g>
<!-- Node2&#45;&gt;Node3 -->
<g id="edge2_Node000002_Node000003" class="edge">
<title>Node2&#45;&gt;Node3</title>
<g id="a_edge2_Node000002_Node000003"><a xlink:title=" ">
<path fill="none" stroke="#63b8ff" d="M545.94,-388.48C384.48,-375.96 0,-340.4 0,-285.5 0,-285.5 0,-285.5 0,-173.5 0,-78.98 151.21,-66.06 219.83,-65.06"/>
<polygon fill="#63b8ff" stroke="#63b8ff" points="220.13,-68.56 230.1,-64.99 220.08,-61.56 220.13,-68.56"/>
</a>
</g>
</g>
<!-- Node4 -->
<g id="Node000004" class="node">
<title>Node4</title>
<g id="a_Node000004"><a xlink:href="driverModel_8h.html" target="_top" xlink:title=" ">
<polygon fill="white" stroke="#666666" points="927,-294 805,-294 805,-275 927,-275 927,-294"/>
<text text-anchor="middle" x="866" y="-282" font-family="Helvetica,sans-Serif" font-size="10.00">Drivers/driverModel.h</text>
</a>
</g>
</g>
<!-- Node2&#45;&gt;Node4 -->
<g id="edge3_Node000002_Node000004" class="edge">
<title>Node2&#45;&gt;Node4</title>
<g id="a_edge3_Node000002_Node000004"><a xlink:title=" ">
<path fill="none" stroke="#63b8ff" d="M636.04,-384.84C680.12,-365.8 785.68,-320.2 837,-298.03"/>
<polygon fill="#63b8ff" stroke="#63b8ff" points="838.42,-301.23 846.22,-294.05 835.65,-294.8 838.42,-301.23"/>
</a>
</g>
</g>
<!-- Node22 -->
<g id="Node000022" class="node">
<title>Node22</title>
<g id="a_Node000022"><a xlink:href="simulator_8h.html" target="_top" xlink:title=" ">
<polygon fill="white" stroke="#666666" points="677,-349 555,-349 555,-330 677,-330 677,-349"/>
<text text-anchor="middle" x="616" y="-337" font-family="Helvetica,sans-Serif" font-size="10.00">Simulator/simulator.h</text>
</a>
</g>
</g>
<!-- Node2&#45;&gt;Node22 -->
<g id="edge52_Node000002_Node000022" class="edge">
<title>Node2&#45;&gt;Node22</title>
<g id="a_edge52_Node000002_Node000022"><a xlink:title=" ">
<path fill="none" stroke="#63b8ff" d="M616,-384.75C616,-377.8 616,-367.85 616,-359.13"/>
<polygon fill="#63b8ff" stroke="#63b8ff" points="619.5,-359.09 616,-349.09 612.5,-359.09 619.5,-359.09"/>
</a>
</g>
</g>
<!-- Node4&#45;&gt;Node3 -->
<g id="edge9_Node000004_Node000003" class="edge">
<title>Node4&#45;&gt;Node3</title>
<g id="a_edge9_Node000004_Node000003"><a xlink:title=" ">
<path fill="none" stroke="#63b8ff" d="M804.85,-281.72C668.19,-276.47 343.99,-256.5 267,-184 239.95,-158.52 243.93,-110.57 248.74,-84.15"/>
<polygon fill="#63b8ff" stroke="#63b8ff" points="252.19,-84.77 250.76,-74.27 245.33,-83.36 252.19,-84.77"/>
</a>
</g>
</g>
<!-- Node5 -->
<g id="Node000005" class="node">
<title>Node5</title>
<g id="a_Node000005"><a xlink:title=" ">
<polygon fill="#e0e0e0" stroke="#999999" points="152,-129 94,-129 94,-110 152,-110 152,-129"/>
<text text-anchor="middle" x="123" y="-117" font-family="Helvetica,sans-Serif" font-size="10.00">memory</text>
</a>
</g>
</g>
<!-- Node4&#45;&gt;Node5 -->
<g id="edge4_Node000004_Node000005" class="edge">
<title>Node4&#45;&gt;Node5</title>
<g id="a_edge4_Node000004_Node000005"><a xlink:title=" ">
<path fill="none" stroke="#63b8ff" d="M804.84,-284.2C663.83,-285.04 319.9,-282.41 214,-239 179.3,-224.77 172.14,-214.27 150,-184 140.06,-170.4 132.89,-152.58 128.45,-139.28"/>
<polygon fill="#63b8ff" stroke="#63b8ff" points="131.68,-137.87 125.36,-129.36 124.99,-139.95 131.68,-137.87"/>
</a>
</g>
</g>
<!-- Node6 -->
<g id="Node000006" class="node">
<title>Node6</title>
<g id="a_Node000006"><a xlink:title=" ">
<polygon fill="#e0e0e0" stroke="#999999" points="894,-129 838,-129 838,-110 894,-110 894,-129"/>
<text text-anchor="middle" x="866" y="-117" font-family="Helvetica,sans-Serif" font-size="10.00">optional</text>
</a>
</g>
</g>
<!-- Node4&#45;&gt;Node6 -->
<g id="edge5_Node000004_Node000006" class="edge">
<title>Node4&#45;&gt;Node6</title>
<g id="a_edge5_Node000004_Node000006"><a xlink:title=" ">
<path fill="none" stroke="#63b8ff" d="M866,-274.74C866,-249.31 866,-175.08 866,-139.69"/>
<polygon fill="#63b8ff" stroke="#63b8ff" points="869.5,-139.31 866,-129.31 862.5,-139.31 869.5,-139.31"/>
</a>
</g>
</g>
<!-- Node7 -->
<g id="Node000007" class="node">
<title>Node7</title>
<g id="a_Node000007"><a xlink:title=" ">
<polygon fill="#e0e0e0" stroke="#999999" points="862,-19 818,-19 818,0 862,0 862,-19"/>
<text text-anchor="middle" x="840" y="-7" font-family="Helvetica,sans-Serif" font-size="10.00">string</text>
</a>
</g>
</g>
<!-- Node4&#45;&gt;Node7 -->
<g id="edge6_Node000004_Node000007" class="edge">
<title>Node4&#45;&gt;Node7</title>
<g id="a_edge6_Node000004_Node000007"><a xlink:title=" ">
<path fill="none" stroke="#63b8ff" d="M927.05,-279.17C1036.32,-269.74 1254,-242.54 1254,-175.5 1254,-175.5 1254,-175.5 1254,-118.5 1254,-82.3 1234.63,-72.61 1203,-55 1146.58,-23.58 950.6,-14 872.5,-11.38"/>
<polygon fill="#63b8ff" stroke="#63b8ff" points="872.39,-7.88 862.28,-11.06 872.17,-14.88 872.39,-7.88"/>
</a>
</g>
</g>
<!-- Node8 -->
<g id="Node000008" class="node">
<title>Node8</title>
<g id="a_Node000008"><a xlink:title=" ">
<polygon fill="#e0e0e0" stroke="#999999" points="830.5,-74 789.5,-74 789.5,-55 830.5,-55 830.5,-74"/>
<text text-anchor="middle" x="810" y="-62" font-family="Helvetica,sans-Serif" font-size="10.00">tuple</text>
</a>
</g>
</g>
<!-- Node4&#45;&gt;Node8 -->
<g id="edge7_Node000004_Node000008" class="edge">
<title>Node4&#45;&gt;Node8</title>
<g id="a_edge7_Node000004_Node000008"><a xlink:title=" ">
<path fill="none" stroke="#63b8ff" d="M890.81,-274.95C906.84,-267.99 926.43,-256.42 936,-239 963.6,-188.75 969.11,-156.81 936,-110 914.64,-79.81 871.02,-69.96 841.15,-66.83"/>
<polygon fill="#63b8ff" stroke="#63b8ff" points="841.09,-63.31 830.83,-65.95 840.5,-70.29 841.09,-63.31"/>
</a>
</g>
</g>
<!-- Node9 -->
<g id="Node000009" class="node">
<title>Node9</title>
<g id="a_Node000009"><a xlink:title=" ">
<polygon fill="#e0e0e0" stroke="#999999" points="1338.5,-19 1245.5,-19 1245.5,0 1338.5,0 1338.5,-19"/>
<text text-anchor="middle" x="1292" y="-7" font-family="Helvetica,sans-Serif" font-size="10.00">unordered_map</text>
</a>
</g>
</g>
<!-- Node4&#45;&gt;Node9 -->
<g id="edge8_Node000004_Node000009" class="edge">
<title>Node4&#45;&gt;Node9</title>
<g id="a_edge8_Node000004_Node000009"><a xlink:title=" ">
<path fill="none" stroke="#63b8ff" d="M927.14,-281.97C1053.13,-277.16 1330,-257.28 1330,-175.5 1330,-175.5 1330,-175.5 1330,-118.5 1330,-85.02 1313.55,-48.84 1302.3,-28.01"/>
<polygon fill="#63b8ff" stroke="#63b8ff" points="1305.24,-26.1 1297.28,-19.1 1299.13,-29.53 1305.24,-26.1"/>
</a>
</g>
</g>
<!-- Node10 -->
<g id="Node000010" class="node">
<title>Node10</title>
<g id="a_Node000010"><a xlink:title=" ">
<polygon fill="#e0e0e0" stroke="#999999" points="723.5,-74 658.5,-74 658.5,-55 723.5,-55 723.5,-74"/>
<text text-anchor="middle" x="691" y="-62" font-family="Helvetica,sans-Serif" font-size="10.00">functional</text>
</a>
</g>
</g>
<!-- Node4&#45;&gt;Node10 -->
<g id="edge10_Node000004_Node000010" class="edge">
<title>Node4&#45;&gt;Node10</title>
<g id="a_edge10_Node000004_Node000010"><a xlink:title=" ">
<path fill="none" stroke="#63b8ff" d="M872.28,-274.77C891.28,-247.22 944.35,-160.93 903,-110 892.38,-96.92 792.71,-80.34 733.89,-71.57"/>
<polygon fill="#63b8ff" stroke="#63b8ff" points="734.17,-68.08 723.76,-70.08 733.15,-75 734.17,-68.08"/>
</a>
</g>
</g>
<!-- Node11 -->
<g id="Node000011" class="node">
<title>Node11</title>
<g id="a_Node000011"><a xlink:href="channel_8h.html" target="_top" xlink:title=" ">
<polygon fill="white" stroke="#666666" points="608.5,-239 501.5,-239 501.5,-220 608.5,-220 608.5,-239"/>
<text text-anchor="middle" x="555" y="-227" font-family="Helvetica,sans-Serif" font-size="10.00">Channel/channel.h</text>
</a>
</g>
</g>
<!-- Node4&#45;&gt;Node11 -->
<g id="edge11_Node000004_Node000011" class="edge">
<title>Node4&#45;&gt;Node11</title>
<g id="a_edge11_Node000004_Node000011"><a xlink:title=" ">
<path fill="none" stroke="#63b8ff" d="M816.03,-274.98C761.36,-265.67 673.75,-250.74 615.3,-240.78"/>
<polygon fill="#63b8ff" stroke="#63b8ff" points="615.55,-237.27 605.1,-239.04 614.37,-244.17 615.55,-237.27"/>
</a>
</g>
</g>
<!-- Node18 -->
<g id="Node000018" class="node">
<title>Node18</title>
<g id="a_Node000018"><a xlink:href="types_8h.html" target="_top" xlink:title=" ">
<polygon fill="white" stroke="#666666" points="1194.5,-74 1105.5,-74 1105.5,-55 1194.5,-55 1194.5,-74"/>
<text text-anchor="middle" x="1150" y="-62" font-family="Helvetica,sans-Serif" font-size="10.00">Library/types.h</text>
</a>
</g>
</g>
<!-- Node4&#45;&gt;Node18 -->
<g id="edge50_Node000004_Node000018" class="edge">
<title>Node4&#45;&gt;Node18</title>
<g id="a_edge50_Node000004_Node000018"><a xlink:title=" ">
<path fill="none" stroke="#63b8ff" d="M927.34,-280.77C970.28,-276.44 1027.52,-265.62 1071,-239 1124.87,-206.01 1139.76,-188.49 1161,-129 1166.23,-114.35 1162.53,-96.88 1158.06,-83.97"/>
<polygon fill="#63b8ff" stroke="#63b8ff" points="1161.21,-82.41 1154.31,-74.37 1154.69,-84.96 1161.21,-82.41"/>
</a>
</g>
</g>
<!-- Node19 -->
<g id="Node000019" class="node">
<title>Node19</title>
<g id="a_Node000019"><a xlink:href="transaction_8h_source.html" target="_top" xlink:title=" ">
<polygon fill="white" stroke="#666666" points="706.5,-184 567.5,-184 567.5,-165 706.5,-165 706.5,-184"/>
<text text-anchor="middle" x="637" y="-172" font-family="Helvetica,sans-Serif" font-size="10.00">Transaction/transaction.h</text>
</a>
</g>
</g>
<!-- Node4&#45;&gt;Node19 -->
<g id="edge49_Node000004_Node000019" class="edge">
<title>Node4&#45;&gt;Node19</title>
<g id="a_edge49_Node000004_Node000019"><a xlink:title=" ">
<path fill="none" stroke="#63b8ff" d="M847.65,-274.84C807.52,-255.92 711.78,-210.77 664.45,-188.45"/>
<polygon fill="#63b8ff" stroke="#63b8ff" points="665.66,-185.15 655.12,-184.05 662.67,-191.48 665.66,-185.15"/>
</a>
</g>
</g>
<!-- Node20 -->
<g id="Node000020" class="node">
<title>Node20</title>
<g id="a_Node000020"><a xlink:href="error_8h.html" target="_top" xlink:title=" ">
<polygon fill="white" stroke="#666666" points="1111.5,-129 1026.5,-129 1026.5,-110 1111.5,-110 1111.5,-129"/>
<text text-anchor="middle" x="1069" y="-117" font-family="Helvetica,sans-Serif" font-size="10.00">Library/error.h</text>
</a>
</g>
</g>
<!-- Node4&#45;&gt;Node20 -->
<g id="edge51_Node000004_Node000020" class="edge">
<title>Node4&#45;&gt;Node20</title>
<g id="a_edge51_Node000004_Node000020"><a xlink:title=" ">
<path fill="none" stroke="#63b8ff" d="M927.32,-276.03C974.17,-269.02 1033.43,-256.92 1050,-239 1075.26,-211.68 1074.52,-164.81 1071.77,-138.96"/>
<polygon fill="#63b8ff" stroke="#63b8ff" points="1075.23,-138.47 1070.49,-129 1068.29,-139.37 1075.23,-138.47"/>
</a>
</g>
</g>
<!-- Node11&#45;&gt;Node3 -->
<g id="edge19_Node000011_Node000003" class="edge">
<title>Node11&#45;&gt;Node3</title>
<g id="a_edge19_Node000011_Node000003"><a xlink:title=" ">
<path fill="none" stroke="#63b8ff" d="M501.46,-226.39C432,-222.56 316.01,-212.04 285,-184 256.78,-158.48 252.36,-110.9 252.27,-84.46"/>
<polygon fill="#63b8ff" stroke="#63b8ff" points="255.77,-84.31 252.45,-74.25 248.77,-84.18 255.77,-84.31"/>
</a>
</g>
</g>
<!-- Node11&#45;&gt;Node5 -->
<g id="edge13_Node000011_Node000005" class="edge">
<title>Node11&#45;&gt;Node5</title>
<g id="a_edge13_Node000011_Node000005"><a xlink:title=" ">
<path fill="none" stroke="#63b8ff" d="M501.3,-227.05C410.44,-223.8 230.91,-213.72 176,-184 156.73,-173.57 141.6,-153.02 132.53,-138.11"/>
<polygon fill="#63b8ff" stroke="#63b8ff" points="135.47,-136.22 127.45,-129.3 129.41,-139.71 135.47,-136.22"/>
</a>
</g>
</g>
<!-- Node11&#45;&gt;Node7 -->
<g id="edge15_Node000011_Node000007" class="edge">
<title>Node11&#45;&gt;Node7</title>
<g id="a_edge15_Node000011_Node000007"><a xlink:title=" ">
<path fill="none" stroke="#63b8ff" d="M535.16,-219.97C519.7,-212.46 498.64,-200.19 485,-184 447.73,-139.78 427.32,-96.1 468,-55 491.75,-31 721.66,-16.66 807.71,-12.1"/>
<polygon fill="#63b8ff" stroke="#63b8ff" points="808.13,-15.58 817.93,-11.56 807.76,-8.59 808.13,-15.58"/>
</a>
</g>
</g>
<!-- Node11&#45;&gt;Node8 -->
<g id="edge16_Node000011_Node000008" class="edge">
<title>Node11&#45;&gt;Node8</title>
<g id="a_edge16_Node000011_Node000008"><a xlink:title=" ">
<path fill="none" stroke="#63b8ff" d="M608.81,-223.47C646.93,-218.05 698.16,-206.87 738,-184 767.44,-167.1 773.87,-158.31 791,-129 799.08,-115.17 803.99,-97.6 806.79,-84.45"/>
<polygon fill="#63b8ff" stroke="#63b8ff" points="810.3,-84.72 808.73,-74.24 803.43,-83.41 810.3,-84.72"/>
</a>
</g>
</g>
<!-- Node11&#45;&gt;Node9 -->
<g id="edge17_Node000011_Node000009" class="edge">
<title>Node11&#45;&gt;Node9</title>
<g id="a_edge17_Node000011_Node000009"><a xlink:title=" ">
<path fill="none" stroke="#63b8ff" d="M608.89,-226.43C720.99,-221.68 975.79,-208.49 1059,-184 1159.7,-154.36 1198.48,-152.65 1268,-74 1279.21,-61.32 1285.39,-42.88 1288.67,-29.14"/>
<polygon fill="#63b8ff" stroke="#63b8ff" points="1292.1,-29.82 1290.7,-19.32 1285.24,-28.4 1292.1,-29.82"/>
</a>
</g>
</g>
<!-- Node12 -->
<g id="Node000012" class="node">
<title>Node12</title>
<g id="a_Node000012"><a xlink:title=" ">
<polygon fill="#e0e0e0" stroke="#999999" points="347.5,-184 294.5,-184 294.5,-165 347.5,-165 347.5,-184"/>
<text text-anchor="middle" x="321" y="-172" font-family="Helvetica,sans-Serif" font-size="10.00">iterator</text>
</a>
</g>
</g>
<!-- Node11&#45;&gt;Node12 -->
<g id="edge12_Node000011_Node000012" class="edge">
<title>Node11&#45;&gt;Node12</title>
<g id="a_edge12_Node000011_Node000012"><a xlink:title=" ">
<path fill="none" stroke="#63b8ff" d="M516.27,-219.93C478.37,-211.5 418.72,-198.18 357.56,-184.11"/>
<polygon fill="#63b8ff" stroke="#63b8ff" points="358.26,-180.68 347.73,-181.84 356.69,-187.5 358.26,-180.68"/>
</a>
</g>
</g>
<!-- Node13 -->
<g id="Node000013" class="node">
<title>Node13</title>
<g id="a_Node000013"><a xlink:title=" ">
<polygon fill="#e0e0e0" stroke="#999999" points="782,-129 734,-129 734,-110 782,-110 782,-129"/>
<text text-anchor="middle" x="758" y="-117" font-family="Helvetica,sans-Serif" font-size="10.00">mutex</text>
</a>
</g>
</g>
<!-- Node11&#45;&gt;Node13 -->
<g id="edge14_Node000011_Node000013" class="edge">
<title>Node11&#45;&gt;Node13</title>
<g id="a_edge14_Node000011_Node000013"><a xlink:title=" ">
<path fill="none" stroke="#63b8ff" d="M608.75,-223.06C641.9,-217.52 683.87,-206.39 715,-184 731,-172.49 742.88,-153.05 750.05,-138.71"/>
<polygon fill="#63b8ff" stroke="#63b8ff" points="753.36,-139.89 754.43,-129.35 747.02,-136.92 753.36,-139.89"/>
</a>
</g>
</g>
<!-- Node14 -->
<g id="Node000014" class="node">
<title>Node14</title>
<g id="a_Node000014"><a xlink:title=" ">
<polygon fill="#e0e0e0" stroke="#999999" points="515,-74 477,-74 477,-55 515,-55 515,-74"/>
<text text-anchor="middle" x="496" y="-62" font-family="Helvetica,sans-Serif" font-size="10.00">map</text>
</a>
</g>
</g>
<!-- Node11&#45;&gt;Node14 -->
<g id="edge18_Node000011_Node000014" class="edge">
<title>Node11&#45;&gt;Node14</title>
<g id="a_edge18_Node000011_Node000014"><a xlink:title=" ">
<path fill="none" stroke="#63b8ff" d="M543.24,-220C523.05,-204.57 482.44,-169.76 467,-129 460.86,-112.79 470.63,-94.88 480.45,-82.22"/>
<polygon fill="#63b8ff" stroke="#63b8ff" points="483.29,-84.28 487.06,-74.38 477.94,-79.77 483.29,-84.28"/>
</a>
</g>
</g>
<!-- Node15 -->
<g id="Node000015" class="node">
<title>Node15</title>
<g id="a_Node000015"><a xlink:title=" ">
<polygon fill="#e0e0e0" stroke="#999999" points="500.5,-19 453.5,-19 453.5,0 500.5,0 500.5,-19"/>
<text text-anchor="middle" x="477" y="-7" font-family="Helvetica,sans-Serif" font-size="10.00">vector</text>
</a>
</g>
</g>
<!-- Node11&#45;&gt;Node15 -->
<g id="edge20_Node000011_Node000015" class="edge">
<title>Node11&#45;&gt;Node15</title>
<g id="a_edge20_Node000011_Node000015"><a xlink:title=" ">
<path fill="none" stroke="#63b8ff" d="M501.27,-226.37C428.2,-222.45 302.51,-211.79 267,-184 225.27,-151.34 231.43,-125.96 221,-74 219.34,-65.72 215.56,-61.46 221,-55 249,-21.71 380.08,-13.32 443.06,-11.21"/>
<polygon fill="#63b8ff" stroke="#63b8ff" points="443.38,-14.7 453.27,-10.9 443.17,-7.71 443.38,-14.7"/>
</a>
</g>
</g>
<!-- Node16 -->
<g id="Node000016" class="node">
<title>Node16</title>
<g id="a_Node000016"><a xlink:title=" ">
<polygon fill="#e0e0e0" stroke="#999999" points="412,-184 366,-184 366,-165 412,-165 412,-184"/>
<text text-anchor="middle" x="389" y="-172" font-family="Helvetica,sans-Serif" font-size="10.00">future</text>
</a>
</g>
</g>
<!-- Node11&#45;&gt;Node16 -->
<g id="edge21_Node000011_Node000016" class="edge">
<title>Node11&#45;&gt;Node16</title>
<g id="a_edge21_Node000011_Node000016"><a xlink:title=" ">
<path fill="none" stroke="#63b8ff" d="M528.33,-219.98C499.3,-210.72 452.87,-195.89 421.68,-185.93"/>
<polygon fill="#63b8ff" stroke="#63b8ff" points="422.71,-182.59 412.12,-182.88 420.59,-189.26 422.71,-182.59"/>
</a>
</g>
</g>
<!-- Node17 -->
<g id="Node000017" class="node">
<title>Node17</title>
<g id="a_Node000017"><a xlink:title=" ">
<polygon fill="#e0e0e0" stroke="#999999" points="990,-74 930,-74 930,-55 990,-55 990,-74"/>
<text text-anchor="middle" x="960" y="-62" font-family="Helvetica,sans-Serif" font-size="10.00">iostream</text>
</a>
</g>
</g>
<!-- Node11&#45;&gt;Node17 -->
<g id="edge22_Node000011_Node000017" class="edge">
<title>Node11&#45;&gt;Node17</title>
<g id="a_edge22_Node000011_Node000017"><a xlink:title=" ">
<path fill="none" stroke="#63b8ff" d="M608.55,-224.07C681.14,-215.79 812.13,-192.58 903,-129 921.32,-116.18 937.85,-96.4 948.34,-82.33"/>
<polygon fill="#63b8ff" stroke="#63b8ff" points="951.31,-84.2 954.31,-74.04 945.63,-80.1 951.31,-84.2"/>
</a>
</g>
</g>
<!-- Node11&#45;&gt;Node18 -->
<g id="edge23_Node000011_Node000018" class="edge">
<title>Node11&#45;&gt;Node18</title>
<g id="a_edge23_Node000011_Node000018"><a xlink:title=" ">
<path fill="none" stroke="#63b8ff" d="M608.82,-227.31C739.73,-223.21 1069.33,-205.38 1142,-129 1153.12,-117.31 1154.2,-98.46 1153.05,-84.32"/>
<polygon fill="#63b8ff" stroke="#63b8ff" points="1156.5,-83.72 1151.8,-74.23 1149.56,-84.58 1156.5,-83.72"/>
</a>
</g>
</g>
<!-- Node11&#45;&gt;Node19 -->
<g id="edge27_Node000011_Node000019" class="edge">
<title>Node11&#45;&gt;Node19</title>
<g id="a_edge27_Node000011_Node000019"><a xlink:title=" ">
<path fill="none" stroke="#63b8ff" d="M568.17,-219.98C580.77,-211.84 600,-199.41 614.94,-189.76"/>
<polygon fill="#63b8ff" stroke="#63b8ff" points="617.09,-192.54 623.59,-184.17 613.29,-186.66 617.09,-192.54"/>
</a>
</g>
</g>
<!-- Node18&#45;&gt;Node7 -->
<g id="edge26_Node000018_Node000007" class="edge">
<title>Node18&#45;&gt;Node7</title>
<g id="a_edge26_Node000018_Node000007"><a xlink:title=" ">
<path fill="none" stroke="#63b8ff" d="M1105.25,-55.85C1041.93,-45.02 927.71,-25.49 872.12,-15.99"/>
<polygon fill="#63b8ff" stroke="#63b8ff" points="872.58,-12.52 862.14,-14.28 871.4,-19.42 872.58,-12.52"/>
</a>
</g>
</g>
<!-- Node18&#45;&gt;Node9 -->
<g id="edge25_Node000018_Node000009" class="edge">
<title>Node18&#45;&gt;Node9</title>
<g id="a_edge25_Node000018_Node000009"><a xlink:title=" ">
<path fill="none" stroke="#63b8ff" d="M1172.81,-54.98C1196.17,-46.27 1232.7,-32.63 1259.17,-22.75"/>
<polygon fill="#63b8ff" stroke="#63b8ff" points="1260.63,-25.95 1268.77,-19.17 1258.18,-19.39 1260.63,-25.95"/>
</a>
</g>
</g>
<!-- Node18&#45;&gt;Node15 -->
<g id="edge24_Node000018_Node000015" class="edge">
<title>Node18&#45;&gt;Node15</title>
<g id="a_edge24_Node000018_Node000015"><a xlink:title=" ">
<path fill="none" stroke="#63b8ff" d="M1105.32,-59.98C979.19,-50.05 622.3,-21.94 510.75,-13.16"/>
<polygon fill="#63b8ff" stroke="#63b8ff" points="510.98,-9.67 500.74,-12.37 510.43,-16.64 510.98,-9.67"/>
</a>
</g>
</g>
<!-- Node19&#45;&gt;Node3 -->
<g id="edge31_Node000019_Node000003" class="edge">
<title>Node19&#45;&gt;Node3</title>
<g id="a_edge31_Node000019_Node000003"><a xlink:title=" ">
<path fill="none" stroke="#63b8ff" d="M572.84,-164.95C525.55,-157.75 459.98,-145.91 404,-129 359,-115.4 309.15,-92.89 279.48,-78.64"/>
<polygon fill="#63b8ff" stroke="#63b8ff" points="280.75,-75.37 270.23,-74.15 277.7,-81.67 280.75,-75.37"/>
</a>
</g>
</g>
<!-- Node19&#45;&gt;Node5 -->
<g id="edge33_Node000019_Node000005" class="edge">
<title>Node19&#45;&gt;Node5</title>
<g id="a_edge33_Node000019_Node000005"><a xlink:title=" ">
<path fill="none" stroke="#63b8ff" d="M567.41,-166.32C457.91,-155.03 248.93,-133.49 162.22,-124.54"/>
<polygon fill="#63b8ff" stroke="#63b8ff" points="162.57,-121.06 152.27,-123.52 161.85,-128.03 162.57,-121.06"/>
</a>
</g>
</g>
<!-- Node19&#45;&gt;Node6 -->
<g id="edge35_Node000019_Node000006" class="edge">
<title>Node19&#45;&gt;Node6</title>
<g id="a_edge35_Node000019_Node000006"><a xlink:title=" ">
<path fill="none" stroke="#63b8ff" d="M673.79,-164.98C716.16,-155.18 785.42,-139.15 828.21,-129.25"/>
<polygon fill="#63b8ff" stroke="#63b8ff" points="829.01,-132.65 837.96,-126.99 827.43,-125.83 829.01,-132.65"/>
</a>
</g>
</g>
<!-- Node19&#45;&gt;Node7 -->
<g id="edge30_Node000019_Node000007" class="edge">
<title>Node19&#45;&gt;Node7</title>
<g id="a_edge30_Node000019_Node000007"><a xlink:title=" ">
<path fill="none" stroke="#63b8ff" d="M634.84,-164.74C630.06,-143.12 621.14,-86.67 649,-55 669.64,-31.54 758.85,-18.85 807.71,-13.54"/>
<polygon fill="#63b8ff" stroke="#63b8ff" points="808.19,-17.01 817.77,-12.49 807.46,-10.05 808.19,-17.01"/>
</a>
</g>
</g>
<!-- Node19&#45;&gt;Node10 -->
<g id="edge36_Node000019_Node000010" class="edge">
<title>Node19&#45;&gt;Node10</title>
<g id="a_edge36_Node000019_Node000010"><a xlink:title=" ">
<path fill="none" stroke="#63b8ff" d="M641.42,-164.66C650.28,-146.93 670.39,-106.73 682.09,-83.32"/>
<polygon fill="#63b8ff" stroke="#63b8ff" points="685.33,-84.67 686.67,-74.16 679.07,-81.54 685.33,-84.67"/>
</a>
</g>
</g>
<!-- Node19&#45;&gt;Node13 -->
<g id="edge29_Node000019_Node000013" class="edge">
<title>Node19&#45;&gt;Node13</title>
<g id="a_edge29_Node000019_Node000013"><a xlink:title=" ">
<path fill="none" stroke="#63b8ff" d="M656.44,-164.98C675.99,-156.42 706.38,-143.11 728.82,-133.28"/>
<polygon fill="#63b8ff" stroke="#63b8ff" points="730.45,-136.39 738.21,-129.17 727.64,-129.98 730.45,-136.39"/>
</a>
</g>
</g>
<!-- Node19&#45;&gt;Node14 -->
<g id="edge34_Node000019_Node000014" class="edge">
<title>Node19&#45;&gt;Node14</title>
<g id="a_edge34_Node000019_Node000014"><a xlink:title=" ">
<path fill="none" stroke="#63b8ff" d="M578.42,-164.99C537.4,-157.69 487.73,-145.7 475,-129 464.49,-115.21 473.38,-95.91 482.62,-82.21"/>
<polygon fill="#63b8ff" stroke="#63b8ff" points="485.45,-84.27 488.54,-74.14 479.8,-80.13 485.45,-84.27"/>
</a>
</g>
</g>
<!-- Node19&#45;&gt;Node15 -->
<g id="edge32_Node000019_Node000015" class="edge">
<title>Node19&#45;&gt;Node15</title>
<g id="a_edge32_Node000019_Node000015"><a xlink:title=" ">
<path fill="none" stroke="#63b8ff" d="M572.86,-164.94C530.38,-157.8 480.14,-146.03 467,-129 444.48,-99.83 458.23,-53.72 468.61,-28.48"/>
<polygon fill="#63b8ff" stroke="#63b8ff" points="471.94,-29.62 472.74,-19.05 465.53,-26.81 471.94,-29.62"/>
</a>
</g>
</g>
<!-- Node19&#45;&gt;Node17 -->
<g id="edge28_Node000019_Node000017" class="edge">
<title>Node19&#45;&gt;Node17</title>
<g id="a_edge28_Node000019_Node000017"><a xlink:title=" ">
<path fill="none" stroke="#63b8ff" d="M645.92,-164.96C660.94,-151.09 692.81,-123.84 725,-110 789.68,-82.19 871.77,-71.7 919.84,-67.78"/>
<polygon fill="#63b8ff" stroke="#63b8ff" points="920.14,-71.27 929.85,-67.02 919.61,-64.29 920.14,-71.27"/>
</a>
</g>
</g>
<!-- Node19&#45;&gt;Node18 -->
<g id="edge37_Node000019_Node000018" class="edge">
<title>Node19&#45;&gt;Node18</title>
<g id="a_edge37_Node000019_Node000018"><a xlink:title=" ">
<path fill="none" stroke="#63b8ff" d="M706.75,-170.87C832.42,-165.58 1086.93,-152.15 1120,-129 1134.81,-118.64 1142.52,-98.99 1146.4,-84.28"/>
<polygon fill="#63b8ff" stroke="#63b8ff" points="1149.88,-84.76 1148.67,-74.23 1143.05,-83.21 1149.88,-84.76"/>
</a>
</g>
</g>
<!-- Node19&#45;&gt;Node20 -->
<g id="edge38_Node000019_Node000020" class="edge">
<title>Node19&#45;&gt;Node20</title>
<g id="a_edge38_Node000019_Node000020"><a xlink:title=" ">
<path fill="none" stroke="#63b8ff" d="M706.41,-164.98C792.8,-154.39 938.45,-136.52 1016.26,-126.97"/>
<polygon fill="#63b8ff" stroke="#63b8ff" points="1016.81,-130.43 1026.31,-125.74 1015.96,-123.48 1016.81,-130.43"/>
</a>
</g>
</g>
<!-- Node21 -->
<g id="Node000021" class="node">
<title>Node21</title>
<g id="a_Node000021"><a xlink:href="evaluate_8h.html" target="_top" xlink:title=" ">
<polygon fill="white" stroke="#666666" points="602,-129 484,-129 484,-110 602,-110 602,-129"/>
<text text-anchor="middle" x="543" y="-117" font-family="Helvetica,sans-Serif" font-size="10.00">Evaluator/evaluate.h</text>
</a>
</g>
</g>
<!-- Node19&#45;&gt;Node21 -->
<g id="edge41_Node000019_Node000021" class="edge">
<title>Node19&#45;&gt;Node21</title>
<g id="a_edge41_Node000019_Node000021"><a xlink:title=" ">
<path fill="none" stroke="#63b8ff" d="M621.9,-164.98C607.18,-156.69 584.58,-143.94 567.33,-134.22"/>
<polygon fill="#63b8ff" stroke="#63b8ff" points="568.81,-131.03 558.38,-129.17 565.37,-137.13 568.81,-131.03"/>
</a>
</g>
</g>
<!-- Node20&#45;&gt;Node7 -->
<g id="edge39_Node000020_Node000007" class="edge">
<title>Node20&#45;&gt;Node7</title>
<g id="a_edge39_Node000020_Node000007"><a xlink:title=" ">
<path fill="none" stroke="#63b8ff" d="M1061.77,-109.72C1050.03,-96.02 1025.42,-69.6 999,-55 958.36,-32.54 905.5,-20.69 872.15,-15.01"/>
<polygon fill="#63b8ff" stroke="#63b8ff" points="872.48,-11.52 862.04,-13.38 871.36,-18.43 872.48,-11.52"/>
</a>
</g>
</g>
<!-- Node20&#45;&gt;Node17 -->
<g id="edge40_Node000020_Node000017" class="edge">
<title>Node20&#45;&gt;Node17</title>
<g id="a_edge40_Node000020_Node000017"><a xlink:title=" ">
<path fill="none" stroke="#63b8ff" d="M1051.49,-109.98C1034.03,-101.5 1006.99,-88.35 986.83,-78.54"/>
<polygon fill="#63b8ff" stroke="#63b8ff" points="988.36,-75.4 977.83,-74.17 985.29,-81.69 988.36,-75.4"/>
</a>
</g>
</g>
<!-- Node21&#45;&gt;Node3 -->
<g id="edge42_Node000021_Node000003" class="edge">
<title>Node21&#45;&gt;Node3</title>
<g id="a_edge42_Node000021_Node000003"><a xlink:title=" ">
<path fill="none" stroke="#63b8ff" d="M496.41,-109.98C437.39,-99.2 337.19,-80.89 285.69,-71.48"/>
<polygon fill="#63b8ff" stroke="#63b8ff" points="286.24,-68.02 275.77,-69.66 284.98,-74.9 286.24,-68.02"/>
</a>
</g>
</g>
<!-- Node21&#45;&gt;Node7 -->
<g id="edge44_Node000021_Node000007" class="edge">
<title>Node21&#45;&gt;Node7</title>
<g id="a_edge44_Node000021_Node000007"><a xlink:title=" ">
<path fill="none" stroke="#63b8ff" d="M550.1,-109.94C562.12,-96.05 587.95,-68.76 616,-55 679.27,-23.96 762.67,-14.57 807.74,-11.73"/>
<polygon fill="#63b8ff" stroke="#63b8ff" points="808.03,-15.22 817.82,-11.17 807.63,-8.23 808.03,-15.22"/>
</a>
</g>
</g>
<!-- Node21&#45;&gt;Node8 -->
<g id="edge46_Node000021_Node000008" class="edge">
<title>Node21&#45;&gt;Node8</title>
<g id="a_edge46_Node000021_Node000008"><a xlink:title=" ">
<path fill="none" stroke="#63b8ff" d="M585.9,-109.98C640.03,-99.24 731.8,-81.02 779.36,-71.58"/>
<polygon fill="#63b8ff" stroke="#63b8ff" points="780.24,-74.98 789.36,-69.6 778.87,-68.11 780.24,-74.98"/>
</a>
</g>
</g>
<!-- Node21&#45;&gt;Node10 -->
<g id="edge45_Node000021_Node000010" class="edge">
<title>Node21&#45;&gt;Node10</title>
<g id="a_edge45_Node000021_Node000010"><a xlink:title=" ">
<path fill="none" stroke="#63b8ff" d="M566.78,-109.98C591.23,-101.23 629.53,-87.51 657.15,-77.62"/>
<polygon fill="#63b8ff" stroke="#63b8ff" points="658.55,-80.84 666.79,-74.17 656.19,-74.25 658.55,-80.84"/>
</a>
</g>
</g>
<!-- Node21&#45;&gt;Node14 -->
<g id="edge47_Node000021_Node000014" class="edge">
<title>Node21&#45;&gt;Node14</title>
<g id="a_edge47_Node000021_Node000014"><a xlink:title=" ">
<path fill="none" stroke="#63b8ff" d="M535.24,-109.75C528.53,-102.18 518.66,-91.05 510.49,-81.84"/>
<polygon fill="#63b8ff" stroke="#63b8ff" points="512.87,-79.25 503.62,-74.09 507.63,-83.89 512.87,-79.25"/>
</a>
</g>
</g>
<!-- Node21&#45;&gt;Node15 -->
<g id="edge43_Node000021_Node000015" class="edge">
<title>Node21&#45;&gt;Node15</title>
<g id="a_edge43_Node000021_Node000015"><a xlink:title=" ">
<path fill="none" stroke="#63b8ff" d="M541.84,-109.7C539.84,-96.87 534.86,-72.64 524,-55 517.06,-43.72 506.54,-33.39 497.21,-25.53"/>
<polygon fill="#63b8ff" stroke="#63b8ff" points="499.11,-22.56 489.12,-19.05 494.74,-28.03 499.11,-22.56"/>
</a>
</g>
</g>
<!-- Node21&#45;&gt;Node18 -->
<g id="edge48_Node000021_Node000018" class="edge">
<title>Node21&#45;&gt;Node18</title>
<g id="a_edge48_Node000021_Node000018"><a xlink:title=" ">
<path fill="none" stroke="#63b8ff" d="M602.03,-113.35C719.47,-103.09 980.89,-80.27 1094.97,-70.3"/>
<polygon fill="#63b8ff" stroke="#63b8ff" points="1095.56,-73.77 1105.22,-69.41 1094.95,-66.79 1095.56,-73.77"/>
</a>
</g>
</g>
<!-- Node22&#45;&gt;Node3 -->
<g id="edge54_Node000022_Node000003" class="edge">
<title>Node22&#45;&gt;Node3</title>
<g id="a_edge54_Node000022_Node000003"><a xlink:title=" ">
<path fill="none" stroke="#63b8ff" d="M554.96,-333.46C406.39,-320.37 38,-282.66 38,-230.5 38,-230.5 38,-230.5 38,-173.5 38,-92.92 160.1,-72.45 220.27,-67.26"/>
<polygon fill="#63b8ff" stroke="#63b8ff" points="220.7,-70.74 230.4,-66.48 220.16,-63.76 220.7,-70.74"/>
</a>
</g>
</g>
<!-- Node22&#45;&gt;Node4 -->
<g id="edge56_Node000022_Node000004" class="edge">
<title>Node22&#45;&gt;Node4</title>
<g id="a_edge56_Node000022_Node000004"><a xlink:title=" ">
<path fill="none" stroke="#63b8ff" d="M656.17,-329.98C699.5,-320.8 768.59,-306.15 815.56,-296.19"/>
<polygon fill="#63b8ff" stroke="#63b8ff" points="816.46,-299.58 825.52,-294.08 815.01,-292.73 816.46,-299.58"/>
</a>
</g>
</g>
<!-- Node22&#45;&gt;Node5 -->
<g id="edge53_Node000022_Node000005" class="edge">
<title>Node22&#45;&gt;Node5</title>
<g id="a_edge53_Node000022_Node000005"><a xlink:title=" ">
<path fill="none" stroke="#63b8ff" d="M554.83,-337.71C464.99,-333.82 295.26,-315.9 177,-239 151.44,-222.38 148.47,-211.82 136,-184 129.59,-169.7 126.31,-152.18 124.65,-139.16"/>
<polygon fill="#63b8ff" stroke="#63b8ff" points="128.11,-138.65 123.57,-129.08 121.15,-139.4 128.11,-138.65"/>
</a>
</g>
</g>
<!-- Node22&#45;&gt;Node11 -->
<g id="edge57_Node000022_Node000011" class="edge">
<title>Node22&#45;&gt;Node11</title>
<g id="a_edge57_Node000022_Node000011"><a xlink:title=" ">
<path fill="none" stroke="#63b8ff" d="M611.01,-329.66C600.95,-311.85 578.08,-271.37 564.89,-248.01"/>
<polygon fill="#63b8ff" stroke="#63b8ff" points="567.86,-246.14 559.89,-239.16 561.76,-249.59 567.86,-246.14"/>
</a>
</g>
</g>
<!-- Node22&#45;&gt;Node18 -->
<g id="edge55_Node000022_Node000018" class="edge">
<title>Node22&#45;&gt;Node18</title>
<g id="a_edge55_Node000022_Node000018"><a xlink:title=" ">
<path fill="none" stroke="#63b8ff" d="M677.22,-336.13C856.53,-328.36 1368,-300.12 1368,-230.5 1368,-230.5 1368,-230.5 1368,-173.5 1368,-100.73 1269.27,-76.99 1204.69,-69.25"/>
<polygon fill="#63b8ff" stroke="#63b8ff" points="1204.97,-65.76 1194.64,-68.14 1204.2,-72.72 1204.97,-65.76"/>
</a>
</g>
</g>
<!-- Node22&#45;&gt;Node19 -->
<g id="edge58_Node000022_Node000019" class="edge">
<title>Node22&#45;&gt;Node19</title>
<g id="a_edge58_Node000022_Node000019"><a xlink:title=" ">
<path fill="none" stroke="#63b8ff" d="M617.13,-329.74C620.42,-304.2 630.05,-229.43 634.59,-194.23"/>
<polygon fill="#63b8ff" stroke="#63b8ff" points="638.06,-194.67 635.87,-184.31 631.12,-193.78 638.06,-194.67"/>
</a>
</g>
</g>
</g>
</svg>
