<?xml version="1.0" encoding="UTF-8" standalone="no"?>
<!DOCTYPE svg PUBLIC "-//W3C//DTD SVG 1.1//EN"
 "http://www.w3.org/Graphics/SVG/1.1/DTD/svg11.dtd">
<!-- Generated by graphviz version 2.43.0 (0)
 -->
<!-- Title: include/Simulator/simulator.h Pages: 1 -->
<!--zoomable 357 -->

<svg id="main" version="1.1" xmlns="http://www.w3.org/2000/svg" xmlns:xlink="http://www.w3.org/1999/xlink" xml:space="preserve" onload="init(evt)">
<style type="text/css"><![CDATA[
.node, .edge {opacity: 0.7;}
.node.selected, .edge.selected {opacity: 1;}
.edge:hover path { stroke: red; }
.edge:hover polygon { stroke: red; fill: red; }
]]></style>

<defs>
  <circle id="rim" cx="0" cy="0" r="7"/>
  <circle id="rim2" cx="0" cy="0" r="3.5"/>
  <g id="zoomPlus">
    <use xlink:href="#rim" fill="#404040"><set attributeName="fill" to="#808080" begin="zoomplus.mouseover" end="zoomplus.mouseout"/></use>
    <path d="M-4,0h8M0,-4v8" fill="none" stroke="white" stroke-width="1.5" pointer-events="none"/>
  </g>
  <g id="zoomMin">
    <use xlink:href="#rim" fill="#404040"><set attributeName="fill" to="#808080" begin="zoomminus.mouseover" end="zoomminus.mouseout"/></use>
    <path d="M-4,0h8" fill="none" stroke="white" stroke-width="1.5" pointer-events="none"/>
  </g>
  <g id="arrowUp" transform="translate(30 24)">
    <use xlink:href="#rim"/>
    <path pointer-events="none" fill="none" stroke="white" stroke-width="1.5" d="M0,-3.0v7 M-2.5,-0.5L0,-3.0L2.5,-0.5"/>
  </g>
  <g id="arrowRight" transform="rotate(90) translate(36 -43)">
    <use xlink:href="#rim"/>
    <path pointer-events="none" fill="none" stroke="white" stroke-width="1.5" d="M0,-3.0v7 M-2.5,-0.5L0,-3.0L2.5,-0.5"/>
  </g>
  <g id="arrowDown" transform="rotate(180) translate(-30 -48)">
    <use xlink:href="#rim"/>
    <path pointer-events="none" fill="none" stroke="white" stroke-width="1.5" d="M0,-3.0v7 M-2.5,-0.5L0,-3.0L2.5,-0.5"/>
  </g>
  <g id="arrowLeft" transform="rotate(270) translate(-36 17)">
    <use xlink:href="#rim"/>
    <path pointer-events="none" fill="none" stroke="white" stroke-width="1.5" d="M0,-3.0v7 M-2.5,-0.5L0,-3.0L2.5,-0.5"/>
  </g>
  <g id="resetDef">
    <use xlink:href="#rim2" fill="#404040"><set attributeName="fill" to="#808080" begin="reset.mouseover" end="reset.mouseout"/></use>
  </g>
</defs>
<script type="application/ecmascript">
var viewWidth = 1300;
var viewHeight = 357;
var sectionId = 'dynsection-0';
</script>
<script type="application/ecmascript" xlink:href="svg.min.js"/>
<svg id="graph" class="graph">
<g id="viewport">
<title>include/Simulator/simulator.h</title>
<!-- Node1 -->
<g id="Node000001" class="node">
<title>Node1</title>
<g id="a_Node000001"><a xlink:title=" ">
<polygon fill="#999999" stroke="#666666" points="778,-349 618,-349 618,-330 778,-330 778,-349"/>
<text text-anchor="middle" x="698" y="-337" font-family="Helvetica,sans-Serif" font-size="10.00">include/Simulator/simulator.h</text>
</a>
</g>
</g>
<!-- Node2 -->
<g id="Node000002" class="node">
<title>Node2</title>
<g id="a_Node000002"><a xlink:title=" ">
<polygon fill="#e0e0e0" stroke="#999999" points="1226,-129 1168,-129 1168,-110 1226,-110 1226,-129"/>
<text text-anchor="middle" x="1197" y="-117" font-family="Helvetica,sans-Serif" font-size="10.00">memory</text>
</a>
</g>
</g>
<!-- Node1&#45;&gt;Node2 -->
<g id="edge1_Node000001_Node000002" class="edge">
<title>Node1&#45;&gt;Node2</title>
<g id="a_edge1_Node000001_Node000002"><a xlink:title=" ">
<path fill="none" stroke="#63b8ff" d="M723.69,-329.9C786.98,-308.39 954.93,-249.25 1088,-184 1119,-168.8 1153.16,-148.23 1174.83,-134.68"/>
<polygon fill="#63b8ff" stroke="#63b8ff" points="1176.99,-137.46 1183.58,-129.16 1173.25,-131.54 1176.99,-137.46"/>
</a>
</g>
</g>
<!-- Node3 -->
<g id="Node000003" class="node">
<title>Node3</title>
<g id="a_Node000003"><a xlink:title=" ">
<polygon fill="#e0e0e0" stroke="#999999" points="457.5,-74 412.5,-74 412.5,-55 457.5,-55 457.5,-74"/>
<text text-anchor="middle" x="435" y="-62" font-family="Helvetica,sans-Serif" font-size="10.00">utility</text>
</a>
</g>
</g>
<!-- Node1&#45;&gt;Node3 -->
<g id="edge2_Node000001_Node000003" class="edge">
<title>Node1&#45;&gt;Node3</title>
<g id="a_edge2_Node000001_Node000003"><a xlink:title=" ">
<path fill="none" stroke="#63b8ff" d="M617.78,-338.35C511.29,-333.21 327.36,-305.99 247,-184 228.77,-156.32 268.73,-119.31 281,-110 316.81,-82.82 368.73,-72.23 402.19,-68.11"/>
<polygon fill="#63b8ff" stroke="#63b8ff" points="402.8,-71.56 412.35,-66.98 402.03,-64.6 402.8,-71.56"/>
</a>
</g>
</g>
<!-- Node4 -->
<g id="Node000004" class="node">
<title>Node4</title>
<g id="a_Node000004"><a xlink:href="types_8h.html" target="_top" xlink:title=" ">
<polygon fill="white" stroke="#666666" points="328.5,-74 239.5,-74 239.5,-55 328.5,-55 328.5,-74"/>
<text text-anchor="middle" x="284" y="-62" font-family="Helvetica,sans-Serif" font-size="10.00">Library/types.h</text>
</a>
</g>
</g>
<!-- Node1&#45;&gt;Node4 -->
<g id="edge3_Node000001_Node000004" class="edge">
<title>Node1&#45;&gt;Node4</title>
<g id="a_edge3_Node000001_Node000004"><a xlink:title=" ">
<path fill="none" stroke="#63b8ff" d="M617.93,-334.38C434.59,-323.87 0,-292.42 0,-230.5 0,-230.5 0,-230.5 0,-173.5 0,-124.95 146.83,-90.38 229.34,-74.79"/>
<polygon fill="#63b8ff" stroke="#63b8ff" points="230.12,-78.2 239.31,-72.94 228.84,-71.32 230.12,-78.2"/>
</a>
</g>
</g>
<!-- Node8 -->
<g id="Node000008" class="node">
<title>Node8</title>
<g id="a_Node000008"><a xlink:href="driverModel_8h.html" target="_top" xlink:title=" ">
<polygon fill="white" stroke="#666666" points="786,-294 664,-294 664,-275 786,-275 786,-294"/>
<text text-anchor="middle" x="725" y="-282" font-family="Helvetica,sans-Serif" font-size="10.00">Drivers/driverModel.h</text>
</a>
</g>
</g>
<!-- Node1&#45;&gt;Node8 -->
<g id="edge7_Node000001_Node000008" class="edge">
<title>Node1&#45;&gt;Node8</title>
<g id="a_edge7_Node000001_Node000008"><a xlink:title=" ">
<path fill="none" stroke="#63b8ff" d="M702.46,-329.75C706.12,-322.57 711.41,-312.18 715.95,-303.27"/>
<polygon fill="#63b8ff" stroke="#63b8ff" points="719.2,-304.59 720.62,-294.09 712.97,-301.41 719.2,-304.59"/>
</a>
</g>
</g>
<!-- Node12 -->
<g id="Node000012" class="node">
<title>Node12</title>
<g id="a_Node000012"><a xlink:href="channel_8h.html" target="_top" xlink:title=" ">
<polygon fill="white" stroke="#666666" points="491.5,-239 384.5,-239 384.5,-220 491.5,-220 491.5,-239"/>
<text text-anchor="middle" x="438" y="-227" font-family="Helvetica,sans-Serif" font-size="10.00">Channel/channel.h</text>
</a>
</g>
</g>
<!-- Node1&#45;&gt;Node12 -->
<g id="edge53_Node000001_Node000012" class="edge">
<title>Node1&#45;&gt;Node12</title>
<g id="a_edge53_Node000001_Node000012"><a xlink:title=" ">
<path fill="none" stroke="#63b8ff" d="M677.16,-329.84C631.22,-310.76 521.08,-265.01 467.83,-242.89"/>
<polygon fill="#63b8ff" stroke="#63b8ff" points="469.15,-239.65 458.58,-239.05 466.47,-246.12 469.15,-239.65"/>
</a>
</g>
</g>
<!-- Node18 -->
<g id="Node000018" class="node">
<title>Node18</title>
<g id="a_Node000018"><a xlink:href="transaction_8h_source.html" target="_top" xlink:title=" ">
<polygon fill="white" stroke="#666666" points="917.5,-184 778.5,-184 778.5,-165 917.5,-165 917.5,-184"/>
<text text-anchor="middle" x="848" y="-172" font-family="Helvetica,sans-Serif" font-size="10.00">Transaction/transaction.h</text>
</a>
</g>
</g>
<!-- Node1&#45;&gt;Node18 -->
<g id="edge54_Node000001_Node000018" class="edge">
<title>Node1&#45;&gt;Node18</title>
<g id="a_edge54_Node000001_Node000018"><a xlink:title=" ">
<path fill="none" stroke="#63b8ff" d="M730.73,-329.98C751.39,-323.17 777.4,-311.77 795,-294 823.18,-265.55 837.78,-219.5 844.07,-193.99"/>
<polygon fill="#63b8ff" stroke="#63b8ff" points="847.5,-194.67 846.33,-184.14 840.68,-193.1 847.5,-194.67"/>
</a>
</g>
</g>
<!-- Node5 -->
<g id="Node000005" class="node">
<title>Node5</title>
<g id="a_Node000005"><a xlink:title=" ">
<polygon fill="#e0e0e0" stroke="#999999" points="439.5,-19 392.5,-19 392.5,0 439.5,0 439.5,-19"/>
<text text-anchor="middle" x="416" y="-7" font-family="Helvetica,sans-Serif" font-size="10.00">vector</text>
</a>
</g>
</g>
<!-- Node4&#45;&gt;Node5 -->
<g id="edge4_Node000004_Node000005" class="edge">
<title>Node4&#45;&gt;Node5</title>
<g id="a_edge4_Node000004_Node000005"><a xlink:title=" ">
<path fill="none" stroke="#63b8ff" d="M305.21,-54.98C326.73,-46.34 360.28,-32.87 384.83,-23.02"/>
<polygon fill="#63b8ff" stroke="#63b8ff" points="386.43,-26.14 394.41,-19.17 383.82,-19.65 386.43,-26.14"/>
</a>
</g>
</g>
<!-- Node6 -->
<g id="Node000006" class="node">
<title>Node6</title>
<g id="a_Node000006"><a xlink:title=" ">
<polygon fill="#e0e0e0" stroke="#999999" points="122.5,-19 29.5,-19 29.5,0 122.5,0 122.5,-19"/>
<text text-anchor="middle" x="76" y="-7" font-family="Helvetica,sans-Serif" font-size="10.00">unordered_map</text>
</a>
</g>
</g>
<!-- Node4&#45;&gt;Node6 -->
<g id="edge5_Node000004_Node000006" class="edge">
<title>Node4&#45;&gt;Node6</title>
<g id="a_edge5_Node000004_Node000006"><a xlink:title=" ">
<path fill="none" stroke="#63b8ff" d="M250.58,-54.98C215.06,-45.93 158.73,-31.58 119.7,-21.64"/>
<polygon fill="#63b8ff" stroke="#63b8ff" points="120.24,-18.16 109.68,-19.08 118.51,-24.94 120.24,-18.16"/>
</a>
</g>
</g>
<!-- Node7 -->
<g id="Node000007" class="node">
<title>Node7</title>
<g id="a_Node000007"><a xlink:title=" ">
<polygon fill="#e0e0e0" stroke="#999999" points="832,-19 788,-19 788,0 832,0 832,-19"/>
<text text-anchor="middle" x="810" y="-7" font-family="Helvetica,sans-Serif" font-size="10.00">string</text>
</a>
</g>
</g>
<!-- Node4&#45;&gt;Node7 -->
<g id="edge6_Node000004_Node000007" class="edge">
<title>Node4&#45;&gt;Node7</title>
<g id="a_edge6_Node000004_Node000007"><a xlink:title=" ">
<path fill="none" stroke="#63b8ff" d="M328.85,-58.98C432.7,-48.52 687.69,-22.82 777.81,-13.74"/>
<polygon fill="#63b8ff" stroke="#63b8ff" points="778.36,-17.21 787.96,-12.72 777.66,-10.24 778.36,-17.21"/>
</a>
</g>
</g>
<!-- Node8&#45;&gt;Node2 -->
<g id="edge8_Node000008_Node000002" class="edge">
<title>Node8&#45;&gt;Node2</title>
<g id="a_edge8_Node000008_Node000002"><a xlink:title=" ">
<path fill="none" stroke="#63b8ff" d="M765.75,-275C802.12,-267.01 856.65,-254.06 903,-239 1003.06,-206.5 1117.64,-156.45 1169.24,-133.19"/>
<polygon fill="#63b8ff" stroke="#63b8ff" points="1170.75,-136.35 1178.42,-129.04 1167.86,-129.98 1170.75,-136.35"/>
</a>
</g>
</g>
<!-- Node8&#45;&gt;Node3 -->
<g id="edge13_Node000008_Node000003" class="edge">
<title>Node8&#45;&gt;Node3</title>
<g id="a_edge13_Node000008_Node000003"><a xlink:title=" ">
<path fill="none" stroke="#63b8ff" d="M708.85,-274.97C693.16,-266.48 668.86,-252.75 649,-239 572.18,-185.82 488,-112.78 452.41,-81.15"/>
<polygon fill="#63b8ff" stroke="#63b8ff" points="454.61,-78.42 444.82,-74.37 449.95,-83.64 454.61,-78.42"/>
</a>
</g>
</g>
<!-- Node8&#45;&gt;Node4 -->
<g id="edge51_Node000008_Node000004" class="edge">
<title>Node8&#45;&gt;Node4</title>
<g id="a_edge51_Node000008_Node000004"><a xlink:title=" ">
<path fill="none" stroke="#63b8ff" d="M663.84,-281.2C543.35,-275.17 282.79,-254.12 235,-184 227.47,-172.95 225.54,-141.11 240,-110 245.33,-98.53 254.91,-88.3 263.77,-80.54"/>
<polygon fill="#63b8ff" stroke="#63b8ff" points="266.05,-83.2 271.56,-74.15 261.61,-77.78 266.05,-83.2"/>
</a>
</g>
</g>
<!-- Node8&#45;&gt;Node6 -->
<g id="edge12_Node000008_Node000006" class="edge">
<title>Node8&#45;&gt;Node6</title>
<g id="a_edge12_Node000008_Node000006"><a xlink:title=" ">
<path fill="none" stroke="#63b8ff" d="M663.73,-280.28C495.35,-270.61 38,-238.55 38,-175.5 38,-175.5 38,-175.5 38,-118.5 38,-85.02 54.45,-48.84 65.7,-28.01"/>
<polygon fill="#63b8ff" stroke="#63b8ff" points="68.87,-29.53 70.72,-19.1 62.76,-26.1 68.87,-29.53"/>
</a>
</g>
</g>
<!-- Node8&#45;&gt;Node7 -->
<g id="edge10_Node000008_Node000007" class="edge">
<title>Node8&#45;&gt;Node7</title>
<g id="a_edge10_Node000008_Node000007"><a xlink:title=" ">
<path fill="none" stroke="#63b8ff" d="M786.22,-278.22C932.83,-264.75 1292,-226.54 1292,-175.5 1292,-175.5 1292,-175.5 1292,-118.5 1292,-26.16 950.91,-12.75 842.59,-10.82"/>
<polygon fill="#63b8ff" stroke="#63b8ff" points="842.33,-7.32 832.28,-10.66 842.23,-14.31 842.33,-7.32"/>
</a>
</g>
</g>
<!-- Node9 -->
<g id="Node000009" class="node">
<title>Node9</title>
<g id="a_Node000009"><a xlink:title=" ">
<polygon fill="#e0e0e0" stroke="#999999" points="1008,-129 952,-129 952,-110 1008,-110 1008,-129"/>
<text text-anchor="middle" x="980" y="-117" font-family="Helvetica,sans-Serif" font-size="10.00">optional</text>
</a>
</g>
</g>
<!-- Node8&#45;&gt;Node9 -->
<g id="edge9_Node000008_Node000009" class="edge">
<title>Node8&#45;&gt;Node9</title>
<g id="a_edge9_Node000008_Node000009"><a xlink:title=" ">
<path fill="none" stroke="#63b8ff" d="M750.2,-274.99C790.41,-260.59 870.31,-228.59 927,-184 943.69,-170.87 958.78,-151.72 968.55,-137.89"/>
<polygon fill="#63b8ff" stroke="#63b8ff" points="971.67,-139.53 974.42,-129.3 965.89,-135.58 971.67,-139.53"/>
</a>
</g>
</g>
<!-- Node10 -->
<g id="Node000010" class="node">
<title>Node10</title>
<g id="a_Node000010"><a xlink:title=" ">
<polygon fill="#e0e0e0" stroke="#999999" points="516.5,-74 475.5,-74 475.5,-55 516.5,-55 516.5,-74"/>
<text text-anchor="middle" x="496" y="-62" font-family="Helvetica,sans-Serif" font-size="10.00">tuple</text>
</a>
</g>
</g>
<!-- Node8&#45;&gt;Node10 -->
<g id="edge11_Node000008_Node000010" class="edge">
<title>Node8&#45;&gt;Node10</title>
<g id="a_edge11_Node000008_Node000010"><a xlink:title=" ">
<path fill="none" stroke="#63b8ff" d="M714.76,-274.73C687.9,-251.61 613.41,-186.77 555,-129 539.38,-113.55 522.38,-95.07 510.66,-82.04"/>
<polygon fill="#63b8ff" stroke="#63b8ff" points="513.06,-79.47 503.79,-74.35 507.84,-84.13 513.06,-79.47"/>
</a>
</g>
</g>
<!-- Node11 -->
<g id="Node000011" class="node">
<title>Node11</title>
<g id="a_Node000011"><a xlink:title=" ">
<polygon fill="#e0e0e0" stroke="#999999" points="941.5,-74 876.5,-74 876.5,-55 941.5,-55 941.5,-74"/>
<text text-anchor="middle" x="909" y="-62" font-family="Helvetica,sans-Serif" font-size="10.00">functional</text>
</a>
</g>
</g>
<!-- Node8&#45;&gt;Node11 -->
<g id="edge14_Node000008_Node000011" class="edge">
<title>Node8&#45;&gt;Node11</title>
<g id="a_edge14_Node000008_Node000011"><a xlink:title=" ">
<path fill="none" stroke="#63b8ff" d="M783.18,-274.97C905.6,-255.68 1182.82,-204.41 1235,-129 1239.8,-122.06 1240.55,-116.36 1235,-110 1225.75,-99.4 1037.7,-78.76 951.5,-69.81"/>
<polygon fill="#63b8ff" stroke="#63b8ff" points="951.82,-66.33 941.51,-68.78 951.1,-73.29 951.82,-66.33"/>
</a>
</g>
</g>
<!-- Node8&#45;&gt;Node12 -->
<g id="edge15_Node000008_Node000012" class="edge">
<title>Node8&#45;&gt;Node12</title>
<g id="a_edge15_Node000008_Node000012"><a xlink:title=" ">
<path fill="none" stroke="#63b8ff" d="M678.89,-274.98C628.72,-265.72 548.49,-250.9 494.56,-240.94"/>
<polygon fill="#63b8ff" stroke="#63b8ff" points="494.94,-237.46 484.47,-239.08 493.67,-244.34 494.94,-237.46"/>
</a>
</g>
</g>
<!-- Node8&#45;&gt;Node18 -->
<g id="edge50_Node000008_Node000018" class="edge">
<title>Node8&#45;&gt;Node18</title>
<g id="a_edge50_Node000008_Node000018"><a xlink:title=" ">
<path fill="none" stroke="#63b8ff" d="M735.07,-274.66C755.98,-256.3 804.37,-213.81 830.5,-190.87"/>
<polygon fill="#63b8ff" stroke="#63b8ff" points="832.93,-193.39 838.14,-184.16 828.32,-188.13 832.93,-193.39"/>
</a>
</g>
</g>
<!-- Node19 -->
<g id="Node000019" class="node">
<title>Node19</title>
<g id="a_Node000019"><a xlink:href="error_8h.html" target="_top" xlink:title=" ">
<polygon fill="white" stroke="#666666" points="1149.5,-129 1064.5,-129 1064.5,-110 1149.5,-110 1149.5,-129"/>
<text text-anchor="middle" x="1107" y="-117" font-family="Helvetica,sans-Serif" font-size="10.00">Library/error.h</text>
</a>
</g>
</g>
<!-- Node8&#45;&gt;Node19 -->
<g id="edge52_Node000008_Node000019" class="edge">
<title>Node8&#45;&gt;Node19</title>
<g id="a_edge52_Node000008_Node000019"><a xlink:title=" ">
<path fill="none" stroke="#63b8ff" d="M757.6,-274.95C786.92,-266.88 830.95,-253.84 868,-239 949.14,-206.5 1040.54,-157.52 1082.97,-134.02"/>
<polygon fill="#63b8ff" stroke="#63b8ff" points="1084.7,-137.06 1091.73,-129.14 1081.29,-130.94 1084.7,-137.06"/>
</a>
</g>
</g>
<!-- Node12&#45;&gt;Node2 -->
<g id="edge17_Node000012_Node000002" class="edge">
<title>Node12&#45;&gt;Node2</title>
<g id="a_edge17_Node000012_Node000002"><a xlink:title=" ">
<path fill="none" stroke="#63b8ff" d="M491.76,-227.05C586.85,-223.78 790.68,-213.66 960,-184 1032.55,-171.29 1115.23,-146.78 1161.24,-132.21"/>
<polygon fill="#63b8ff" stroke="#63b8ff" points="1162.57,-135.46 1171.04,-129.08 1160.44,-128.79 1162.57,-135.46"/>
</a>
</g>
</g>
<!-- Node12&#45;&gt;Node3 -->
<g id="edge23_Node000012_Node000003" class="edge">
<title>Node12&#45;&gt;Node3</title>
<g id="a_edge23_Node000012_Node000003"><a xlink:title=" ">
<path fill="none" stroke="#63b8ff" d="M432.6,-219.92C423.76,-206.49 404.95,-180.44 383,-165 343.73,-137.37 261.46,-148.62 290,-110 315.67,-75.26 367.98,-66.77 402.24,-65.15"/>
<polygon fill="#63b8ff" stroke="#63b8ff" points="402.36,-68.65 412.25,-64.85 402.15,-61.66 402.36,-68.65"/>
</a>
</g>
</g>
<!-- Node12&#45;&gt;Node4 -->
<g id="edge27_Node000012_Node000004" class="edge">
<title>Node12&#45;&gt;Node4</title>
<g id="a_edge27_Node000012_Node000004"><a xlink:title=" ">
<path fill="none" stroke="#63b8ff" d="M384.24,-223.36C333.87,-217.31 263.88,-205.27 247,-184 222.77,-153.48 251.22,-106.96 270.03,-82.27"/>
<polygon fill="#63b8ff" stroke="#63b8ff" points="272.93,-84.24 276.4,-74.23 267.45,-79.89 272.93,-84.24"/>
</a>
</g>
</g>
<!-- Node12&#45;&gt;Node5 -->
<g id="edge24_Node000012_Node000005" class="edge">
<title>Node12&#45;&gt;Node5</title>
<g id="a_edge24_Node000012_Node000005"><a xlink:title=" ">
<path fill="none" stroke="#63b8ff" d="M384.1,-224C330.59,-218.31 253.89,-206.42 235,-184 198.03,-140.12 194.46,-100.04 230,-55 248.63,-31.38 334.08,-18.9 382.42,-13.63"/>
<polygon fill="#63b8ff" stroke="#63b8ff" points="382.84,-17.1 392.42,-12.58 382.11,-10.14 382.84,-17.1"/>
</a>
</g>
</g>
<!-- Node12&#45;&gt;Node6 -->
<g id="edge21_Node000012_Node000006" class="edge">
<title>Node12&#45;&gt;Node6</title>
<g id="a_edge21_Node000012_Node000006"><a xlink:title=" ">
<path fill="none" stroke="#63b8ff" d="M384.16,-227.6C337.23,-224.59 268.9,-214.67 218,-184 152.76,-144.69 104.29,-64.1 85.07,-28.31"/>
<polygon fill="#63b8ff" stroke="#63b8ff" points="87.99,-26.34 80.24,-19.1 81.79,-29.58 87.99,-26.34"/>
</a>
</g>
</g>
<!-- Node12&#45;&gt;Node7 -->
<g id="edge19_Node000012_Node000007" class="edge">
<title>Node12&#45;&gt;Node7</title>
<g id="a_edge19_Node000012_Node000007"><a xlink:title=" ">
<path fill="none" stroke="#63b8ff" d="M491.72,-226.5C540.92,-222.8 614.59,-212.5 672,-184 739.77,-150.35 784.84,-66.06 802.1,-28.76"/>
<polygon fill="#63b8ff" stroke="#63b8ff" points="805.5,-29.73 806.4,-19.18 799.11,-26.87 805.5,-29.73"/>
</a>
</g>
</g>
<!-- Node12&#45;&gt;Node10 -->
<g id="edge20_Node000012_Node000010" class="edge">
<title>Node12&#45;&gt;Node10</title>
<g id="a_edge20_Node000012_Node000010"><a xlink:title=" ">
<path fill="none" stroke="#63b8ff" d="M436.06,-219.94C432.6,-206.54 424.18,-180.54 408,-165 375.54,-133.84 295.34,-145.49 323,-110 361.4,-60.73 398.99,-88.06 465.36,-73.85"/>
<polygon fill="#63b8ff" stroke="#63b8ff" points="466.46,-77.18 475.37,-71.43 464.82,-70.38 466.46,-77.18"/>
</a>
</g>
</g>
<!-- Node13 -->
<g id="Node000013" class="node">
<title>Node13</title>
<g id="a_Node000013"><a xlink:title=" ">
<polygon fill="#e0e0e0" stroke="#999999" points="309.5,-184 256.5,-184 256.5,-165 309.5,-165 309.5,-184"/>
<text text-anchor="middle" x="283" y="-172" font-family="Helvetica,sans-Serif" font-size="10.00">iterator</text>
</a>
</g>
</g>
<!-- Node12&#45;&gt;Node13 -->
<g id="edge16_Node000012_Node000013" class="edge">
<title>Node12&#45;&gt;Node13</title>
<g id="a_edge16_Node000012_Node000013"><a xlink:title=" ">
<path fill="none" stroke="#63b8ff" d="M413.1,-219.98C387.3,-211.16 346.78,-197.31 317.82,-187.41"/>
<polygon fill="#63b8ff" stroke="#63b8ff" points="318.69,-184.01 308.1,-184.08 316.43,-190.63 318.69,-184.01"/>
</a>
</g>
</g>
<!-- Node14 -->
<g id="Node000014" class="node">
<title>Node14</title>
<g id="a_Node000014"><a xlink:title=" ">
<polygon fill="#e0e0e0" stroke="#999999" points="380,-129 332,-129 332,-110 380,-110 380,-129"/>
<text text-anchor="middle" x="356" y="-117" font-family="Helvetica,sans-Serif" font-size="10.00">mutex</text>
</a>
</g>
</g>
<!-- Node12&#45;&gt;Node14 -->
<g id="edge18_Node000012_Node000014" class="edge">
<title>Node12&#45;&gt;Node14</title>
<g id="a_edge18_Node000012_Node000014"><a xlink:title=" ">
<path fill="none" stroke="#63b8ff" d="M444.32,-219.58C452.67,-206.61 465.08,-182.2 454,-165 446.54,-153.42 415.17,-140.42 389.9,-131.47"/>
<polygon fill="#63b8ff" stroke="#63b8ff" points="390.83,-128.09 380.23,-128.14 388.55,-134.71 390.83,-128.09"/>
</a>
</g>
</g>
<!-- Node15 -->
<g id="Node000015" class="node">
<title>Node15</title>
<g id="a_Node000015"><a xlink:title=" ">
<polygon fill="#e0e0e0" stroke="#999999" points="744,-74 706,-74 706,-55 744,-55 744,-74"/>
<text text-anchor="middle" x="725" y="-62" font-family="Helvetica,sans-Serif" font-size="10.00">map</text>
</a>
</g>
</g>
<!-- Node12&#45;&gt;Node15 -->
<g id="edge22_Node000012_Node000015" class="edge">
<title>Node12&#45;&gt;Node15</title>
<g id="a_edge22_Node000012_Node000015"><a xlink:title=" ">
<path fill="none" stroke="#63b8ff" d="M491.75,-225.05C555.34,-217.92 659.55,-196.04 715,-129 725.11,-116.77 727.08,-98.54 726.82,-84.74"/>
<polygon fill="#63b8ff" stroke="#63b8ff" points="730.3,-84.21 726.22,-74.43 723.31,-84.61 730.3,-84.21"/>
</a>
</g>
</g>
<!-- Node16 -->
<g id="Node000016" class="node">
<title>Node16</title>
<g id="a_Node000016"><a xlink:title=" ">
<polygon fill="#e0e0e0" stroke="#999999" points="374,-184 328,-184 328,-165 374,-165 374,-184"/>
<text text-anchor="middle" x="351" y="-172" font-family="Helvetica,sans-Serif" font-size="10.00">future</text>
</a>
</g>
</g>
<!-- Node12&#45;&gt;Node16 -->
<g id="edge25_Node000012_Node000016" class="edge">
<title>Node12&#45;&gt;Node16</title>
<g id="a_edge25_Node000012_Node000016"><a xlink:title=" ">
<path fill="none" stroke="#63b8ff" d="M424.02,-219.98C410.53,-211.77 389.87,-199.18 373.96,-189.49"/>
<polygon fill="#63b8ff" stroke="#63b8ff" points="375.59,-186.38 365.23,-184.17 371.95,-192.36 375.59,-186.38"/>
</a>
</g>
</g>
<!-- Node17 -->
<g id="Node000017" class="node">
<title>Node17</title>
<g id="a_Node000017"><a xlink:title=" ">
<polygon fill="#e0e0e0" stroke="#999999" points="1066,-74 1006,-74 1006,-55 1066,-55 1066,-74"/>
<text text-anchor="middle" x="1036" y="-62" font-family="Helvetica,sans-Serif" font-size="10.00">iostream</text>
</a>
</g>
</g>
<!-- Node12&#45;&gt;Node17 -->
<g id="edge26_Node000012_Node000017" class="edge">
<title>Node12&#45;&gt;Node17</title>
<g id="a_edge26_Node000012_Node000017"><a xlink:title=" ">
<path fill="none" stroke="#63b8ff" d="M491.66,-226.69C601.31,-222.48 847.39,-210.35 927,-184 929.78,-183.08 1015.21,-131.32 1017,-129 1026.99,-116.04 1031.74,-97.89 1033.99,-84.31"/>
<polygon fill="#63b8ff" stroke="#63b8ff" points="1037.49,-84.57 1035.36,-74.19 1030.55,-83.63 1037.49,-84.57"/>
</a>
</g>
</g>
<!-- Node12&#45;&gt;Node18 -->
<g id="edge28_Node000012_Node000018" class="edge">
<title>Node12&#45;&gt;Node18</title>
<g id="a_edge28_Node000012_Node000018"><a xlink:title=" ">
<path fill="none" stroke="#63b8ff" d="M491.6,-221.57C563.21,-212.31 690.5,-195.86 771.99,-185.33"/>
<polygon fill="#63b8ff" stroke="#63b8ff" points="772.71,-188.76 782.18,-184.01 771.82,-181.82 772.71,-188.76"/>
</a>
</g>
</g>
<!-- Node18&#45;&gt;Node2 -->
<g id="edge34_Node000018_Node000002" class="edge">
<title>Node18&#45;&gt;Node2</title>
<g id="a_edge34_Node000018_Node000002"><a xlink:title=" ">
<path fill="none" stroke="#63b8ff" d="M917.73,-165.1C978.64,-157.4 1069.65,-145.04 1157.7,-129.12"/>
<polygon fill="#63b8ff" stroke="#63b8ff" points="1158.38,-132.56 1167.59,-127.32 1157.12,-125.67 1158.38,-132.56"/>
</a>
</g>
</g>
<!-- Node18&#45;&gt;Node3 -->
<g id="edge32_Node000018_Node000003" class="edge">
<title>Node18&#45;&gt;Node3</title>
<g id="a_edge32_Node000018_Node000003"><a xlink:title=" ">
<path fill="none" stroke="#63b8ff" d="M778.2,-170.58C715.84,-166.26 622.76,-155.55 546,-129 511.85,-117.19 476.26,-94.73 454.86,-79.94"/>
<polygon fill="#63b8ff" stroke="#63b8ff" points="456.8,-77.02 446.61,-74.12 452.76,-82.74 456.8,-77.02"/>
</a>
</g>
</g>
<!-- Node18&#45;&gt;Node4 -->
<g id="edge38_Node000018_Node000004" class="edge">
<title>Node18&#45;&gt;Node4</title>
<g id="a_edge38_Node000018_Node000004"><a xlink:title=" ">
<path fill="none" stroke="#63b8ff" d="M778.46,-167.88C707.82,-161.41 595.53,-149.02 500,-129 434.48,-115.27 359.95,-91.49 317.79,-77.25"/>
<polygon fill="#63b8ff" stroke="#63b8ff" points="318.89,-73.93 308.3,-74.02 316.64,-80.56 318.89,-73.93"/>
</a>
</g>
</g>
<!-- Node18&#45;&gt;Node5 -->
<g id="edge33_Node000018_Node000005" class="edge">
<title>Node18&#45;&gt;Node5</title>
<g id="a_edge33_Node000018_Node000005"><a xlink:title=" ">
<path fill="none" stroke="#63b8ff" d="M778.36,-168.04C710.02,-161.62 611.45,-149.19 579,-129 544.65,-107.63 557.79,-80.02 526,-55 503.44,-37.24 472.84,-25.63 449.64,-18.73"/>
<polygon fill="#63b8ff" stroke="#63b8ff" points="450.45,-15.33 439.88,-15.98 448.55,-22.06 450.45,-15.33"/>
</a>
</g>
</g>
<!-- Node18&#45;&gt;Node7 -->
<g id="edge31_Node000018_Node000007" class="edge">
<title>Node18&#45;&gt;Node7</title>
<g id="a_edge31_Node000018_Node000007"><a xlink:title=" ">
<path fill="none" stroke="#63b8ff" d="M845.96,-164.74C840,-139.2 822.57,-64.43 814.37,-29.23"/>
<polygon fill="#63b8ff" stroke="#63b8ff" points="817.73,-28.25 812.05,-19.31 810.92,-29.84 817.73,-28.25"/>
</a>
</g>
</g>
<!-- Node18&#45;&gt;Node9 -->
<g id="edge36_Node000018_Node000009" class="edge">
<title>Node18&#45;&gt;Node9</title>
<g id="a_edge36_Node000018_Node000009"><a xlink:title=" ">
<path fill="none" stroke="#63b8ff" d="M869.21,-164.98C890.73,-156.34 924.28,-142.87 948.83,-133.02"/>
<polygon fill="#63b8ff" stroke="#63b8ff" points="950.43,-136.14 958.41,-129.17 947.82,-129.65 950.43,-136.14"/>
</a>
</g>
</g>
<!-- Node18&#45;&gt;Node11 -->
<g id="edge37_Node000018_Node000011" class="edge">
<title>Node18&#45;&gt;Node11</title>
<g id="a_edge37_Node000018_Node000011"><a xlink:title=" ">
<path fill="none" stroke="#63b8ff" d="M852.99,-164.66C863.05,-146.85 885.92,-106.37 899.11,-83.01"/>
<polygon fill="#63b8ff" stroke="#63b8ff" points="902.24,-84.59 904.11,-74.16 896.14,-81.14 902.24,-84.59"/>
</a>
</g>
</g>
<!-- Node18&#45;&gt;Node14 -->
<g id="edge30_Node000018_Node000014" class="edge">
<title>Node18&#45;&gt;Node14</title>
<g id="a_edge30_Node000018_Node000014"><a xlink:title=" ">
<path fill="none" stroke="#63b8ff" d="M778.44,-169.34C689.06,-163.38 529.29,-150.68 394,-129 392.72,-128.8 391.43,-128.57 390.12,-128.34"/>
<polygon fill="#63b8ff" stroke="#63b8ff" points="390.53,-124.85 380.04,-126.34 389.17,-131.72 390.53,-124.85"/>
</a>
</g>
</g>
<!-- Node18&#45;&gt;Node15 -->
<g id="edge35_Node000018_Node000015" class="edge">
<title>Node18&#45;&gt;Node15</title>
<g id="a_edge35_Node000018_Node000015"><a xlink:title=" ">
<path fill="none" stroke="#63b8ff" d="M837.93,-164.66C817.02,-146.3 768.63,-103.81 742.5,-80.87"/>
<polygon fill="#63b8ff" stroke="#63b8ff" points="744.68,-78.13 734.86,-74.16 740.07,-83.39 744.68,-78.13"/>
</a>
</g>
</g>
<!-- Node18&#45;&gt;Node17 -->
<g id="edge29_Node000018_Node000017" class="edge">
<title>Node18&#45;&gt;Node17</title>
<g id="a_edge29_Node000018_Node000017"><a xlink:title=" ">
<path fill="none" stroke="#63b8ff" d="M859.65,-164.92C877.23,-152.16 911.8,-127.77 943,-110 963.79,-98.16 988.23,-86.55 1006.84,-78.16"/>
<polygon fill="#63b8ff" stroke="#63b8ff" points="1008.28,-81.35 1015.99,-74.08 1005.43,-74.95 1008.28,-81.35"/>
</a>
</g>
</g>
<!-- Node18&#45;&gt;Node19 -->
<g id="edge39_Node000018_Node000019" class="edge">
<title>Node18&#45;&gt;Node19</title>
<g id="a_edge39_Node000018_Node000019"><a xlink:title=" ">
<path fill="none" stroke="#63b8ff" d="M889.61,-164.98C934.6,-155.78 1006.39,-141.09 1055.05,-131.13"/>
<polygon fill="#63b8ff" stroke="#63b8ff" points="1055.97,-134.52 1065.06,-129.08 1054.56,-127.66 1055.97,-134.52"/>
</a>
</g>
</g>
<!-- Node20 -->
<g id="Node000020" class="node">
<title>Node20</title>
<g id="a_Node000020"><a xlink:href="evaluate_8h.html" target="_top" xlink:title=" ">
<polygon fill="white" stroke="#666666" points="706,-129 588,-129 588,-110 706,-110 706,-129"/>
<text text-anchor="middle" x="647" y="-117" font-family="Helvetica,sans-Serif" font-size="10.00">Evaluator/evaluate.h</text>
</a>
</g>
</g>
<!-- Node18&#45;&gt;Node20 -->
<g id="edge42_Node000018_Node000020" class="edge">
<title>Node18&#45;&gt;Node20</title>
<g id="a_edge42_Node000018_Node000020"><a xlink:title=" ">
<path fill="none" stroke="#63b8ff" d="M815.71,-164.98C781.38,-155.93 726.94,-141.58 689.23,-131.64"/>
<polygon fill="#63b8ff" stroke="#63b8ff" points="690.11,-128.25 679.55,-129.08 688.32,-135.02 690.11,-128.25"/>
</a>
</g>
</g>
<!-- Node19&#45;&gt;Node7 -->
<g id="edge40_Node000019_Node000007" class="edge">
<title>Node19&#45;&gt;Node7</title>
<g id="a_edge40_Node000019_Node000007"><a xlink:title=" ">
<path fill="none" stroke="#63b8ff" d="M1105.28,-109.91C1102,-95.97 1093.48,-68.62 1075,-55 1038.53,-28.11 904.81,-16.41 842.44,-12.33"/>
<polygon fill="#63b8ff" stroke="#63b8ff" points="842.56,-8.83 832.36,-11.69 842.12,-15.81 842.56,-8.83"/>
</a>
</g>
</g>
<!-- Node19&#45;&gt;Node17 -->
<g id="edge41_Node000019_Node000017" class="edge">
<title>Node19&#45;&gt;Node17</title>
<g id="a_edge41_Node000019_Node000017"><a xlink:title=" ">
<path fill="none" stroke="#63b8ff" d="M1095.59,-109.98C1084.89,-102 1068.66,-89.88 1055.84,-80.31"/>
<polygon fill="#63b8ff" stroke="#63b8ff" points="1057.72,-77.35 1047.61,-74.17 1053.53,-82.96 1057.72,-77.35"/>
</a>
</g>
</g>
<!-- Node20&#45;&gt;Node3 -->
<g id="edge43_Node000020_Node000003" class="edge">
<title>Node20&#45;&gt;Node3</title>
<g id="a_edge43_Node000020_Node000003"><a xlink:title=" ">
<path fill="none" stroke="#63b8ff" d="M611.21,-110C576.72,-101.74 522.81,-88.66 467.62,-74.37"/>
<polygon fill="#63b8ff" stroke="#63b8ff" points="468.23,-70.92 457.67,-71.79 466.47,-77.69 468.23,-70.92"/>
</a>
</g>
</g>
<!-- Node20&#45;&gt;Node4 -->
<g id="edge49_Node000020_Node000004" class="edge">
<title>Node20&#45;&gt;Node4</title>
<g id="a_edge49_Node000020_Node000004"><a xlink:title=" ">
<path fill="none" stroke="#63b8ff" d="M588.68,-109.98C519.77,-99.92 406,-83.31 338.7,-73.49"/>
<polygon fill="#63b8ff" stroke="#63b8ff" points="339.12,-70.01 328.72,-72.03 338.11,-76.94 339.12,-70.01"/>
</a>
</g>
</g>
<!-- Node20&#45;&gt;Node5 -->
<g id="edge44_Node000020_Node000005" class="edge">
<title>Node20&#45;&gt;Node5</title>
<g id="a_edge44_Node000020_Node000005"><a xlink:title=" ">
<path fill="none" stroke="#63b8ff" d="M639.38,-109.74C627.01,-96.07 601.19,-69.69 574,-55 534.18,-33.49 482.96,-21.54 449.81,-15.57"/>
<polygon fill="#63b8ff" stroke="#63b8ff" points="450.16,-12.08 439.72,-13.84 448.98,-18.98 450.16,-12.08"/>
</a>
</g>
</g>
<!-- Node20&#45;&gt;Node7 -->
<g id="edge45_Node000020_Node000007" class="edge">
<title>Node20&#45;&gt;Node7</title>
<g id="a_edge45_Node000020_Node000007"><a xlink:title=" ">
<path fill="none" stroke="#63b8ff" d="M651.72,-109.91C659.52,-96.47 676.28,-70.41 697,-55 721.43,-36.83 754.24,-25 778.21,-18.14"/>
<polygon fill="#63b8ff" stroke="#63b8ff" points="779.17,-21.51 787.9,-15.5 777.33,-14.76 779.17,-21.51"/>
</a>
</g>
</g>
<!-- Node20&#45;&gt;Node10 -->
<g id="edge47_Node000020_Node000010" class="edge">
<title>Node20&#45;&gt;Node10</title>
<g id="a_edge47_Node000020_Node000010"><a xlink:title=" ">
<path fill="none" stroke="#63b8ff" d="M622.74,-109.98C596.6,-100.81 554.96,-86.19 526.59,-76.24"/>
<polygon fill="#63b8ff" stroke="#63b8ff" points="527.39,-72.81 516.8,-72.8 525.07,-79.41 527.39,-72.81"/>
</a>
</g>
</g>
<!-- Node20&#45;&gt;Node11 -->
<g id="edge46_Node000020_Node000011" class="edge">
<title>Node20&#45;&gt;Node11</title>
<g id="a_edge46_Node000020_Node000011"><a xlink:title=" ">
<path fill="none" stroke="#63b8ff" d="M689.09,-109.98C737.71,-100.15 817.26,-84.06 866.18,-74.16"/>
<polygon fill="#63b8ff" stroke="#63b8ff" points="867.02,-77.56 876.13,-72.15 865.64,-70.7 867.02,-77.56"/>
</a>
</g>
</g>
<!-- Node20&#45;&gt;Node15 -->
<g id="edge48_Node000020_Node000015" class="edge">
<title>Node20&#45;&gt;Node15</title>
<g id="a_edge48_Node000020_Node000015"><a xlink:title=" ">
<path fill="none" stroke="#63b8ff" d="M659.53,-109.98C671.4,-101.92 689.46,-89.65 703.61,-80.03"/>
<polygon fill="#63b8ff" stroke="#63b8ff" points="705.94,-82.69 712.24,-74.17 702,-76.9 705.94,-82.69"/>
</a>
</g>
</g>
</g>
</svg>

<g id="navigator" transform="translate(0 0)" fill="#404254">
  <rect fill="#f2f5e9" fill-opacity="0.5" stroke="#606060" stroke-width=".5" x="0" y="0" width="60" height="60"/>
  <use id="zoomplus" xlink:href="#zoomPlus" x="17" y="9" onmousedown="handleZoom(evt,'in')"/>
  <use id="zoomminus" xlink:href="#zoomMin" x="42" y="9" onmousedown="handleZoom(evt,'out')"/>
  <use id="reset" xlink:href="#resetDef" x="30" y="36" onmousedown="handleReset()"/>
   <use id="arrowup" xlink:href="#arrowUp" x="0" y="0" onmousedown="handlePan(0,-1)"/>
  <use id="arrowright" xlink:href="#arrowRight" x="0" y="0" onmousedown="handlePan(1,0)"/>
  <use id="arrowdown" xlink:href="#arrowDown" x="0" y="0" onmousedown="handlePan(0,1)"/>
  <use id="arrowleft" xlink:href="#arrowLeft" x="0" y="0" onmousedown="handlePan(-1,0)"/>
</g>
<svg viewBox="0 0 15 15" width="100%" height="30px" preserveAspectRatio="xMaxYMin meet">
 <g id="arrow_out" transform="scale(0.3 0.3)">
  <a xlink:href="simulator_8h__incl_org.svg" target="_base">
   <rect id="button" ry="5" rx="5" y="6" x="6" height="38" width="38"
        fill="#f2f5e9" fill-opacity="0.5" stroke="#606060" stroke-width="1.0"/>
   <path id="arrow"
     d="M 11.500037,31.436501 C 11.940474,20.09759 22.043105,11.32322 32.158766,21.979434 L 37.068811,17.246167 C 37.068811,17.246167 37.088388,32 37.088388,32 L 22.160133,31.978069 C 22.160133,31.978069 26.997745,27.140456 26.997745,27.140456 C 18.528582,18.264221 13.291696,25.230495 11.500037,31.436501 z"
     style="fill:#404040;"/>
  </a>
 </g>
</svg>

<style type='text/css'>
<![CDATA[
[data-mouse-over-selected='false'] { opacity: 0.7; }
[data-mouse-over-selected='true']  { opacity: 1.0; }
]]>
</style>
<script type="application/ecmascript"><![CDATA[
document.addEventListener('DOMContentLoaded', (event) => {
  highlightEdges();
  highlightAdjacentNodes();
});
]]></script>
</svg>
