<?xml version="1.0" encoding="UTF-8" standalone="no"?>
<!DOCTYPE svg PUBLIC "-//W3C//DTD SVG 1.1//EN"
 "http://www.w3.org/Graphics/SVG/1.1/DTD/svg11.dtd">
<!-- Generated by graphviz version 2.43.0 (0)
 -->
<!-- Title: include/Simulator/simulator.h Pages: 1 -->
<svg width="1279pt" height="357pt"
 viewBox="0.00 0.00 1278.66 357.00" xmlns="http://www.w3.org/2000/svg" xmlns:xlink="http://www.w3.org/1999/xlink">
<g id="graph0" class="graph" transform="scale(1 1) rotate(0) translate(4 353)">
<title>include/Simulator/simulator.h</title>
<!-- Node1 -->
<g id="Node000001" class="node">
<title>Node1</title>
<g id="a_Node000001"><a xlink:title=" ">
<polygon fill="#999999" stroke="#666666" points="401.16,-349 241.16,-349 241.16,-330 401.16,-330 401.16,-349"/>
<text text-anchor="middle" x="321.16" y="-337" font-family="Helvetica,sans-Serif" font-size="10.00">include/Simulator/simulator.h</text>
</a>
</g>
</g>
<!-- Node2 -->
<g id="Node000002" class="node">
<title>Node2</title>
<g id="a_Node000002"><a xlink:title=" ">
<polygon fill="#e0e0e0" stroke="#999999" points="108.16,-129 50.16,-129 50.16,-110 108.16,-110 108.16,-129"/>
<text text-anchor="middle" x="79.16" y="-117" font-family="Helvetica,sans-Serif" font-size="10.00">memory</text>
</a>
</g>
</g>
<!-- Node1&#45;&gt;Node2 -->
<g id="edge1_Node000001_Node000002" class="edge">
<title>Node1&#45;&gt;Node2</title>
<g id="a_edge1_Node000001_Node000002"><a xlink:title=" ">
<path fill="none" stroke="#63b8ff" d="M284.88,-329.99C261.07,-323.12 230.18,-311.64 207.16,-294 149.53,-249.86 105.76,-173.02 87.92,-138.36"/>
<polygon fill="#63b8ff" stroke="#63b8ff" points="90.85,-136.4 83.23,-129.04 84.6,-139.55 90.85,-136.4"/>
</a>
</g>
</g>
<!-- Node3 -->
<g id="Node000003" class="node">
<title>Node3</title>
<g id="a_Node000003"><a xlink:title=" ">
<polygon fill="#e0e0e0" stroke="#999999" points="158.66,-74 113.66,-74 113.66,-55 158.66,-55 158.66,-74"/>
<text text-anchor="middle" x="136.16" y="-62" font-family="Helvetica,sans-Serif" font-size="10.00">utility</text>
</a>
</g>
</g>
<!-- Node1&#45;&gt;Node3 -->
<g id="edge2_Node000001_Node000003" class="edge">
<title>Node1&#45;&gt;Node3</title>
<g id="a_edge2_Node000001_Node000003"><a xlink:title=" ">
<path fill="none" stroke="#63b8ff" d="M269.83,-329.98C197.9,-314.92 70.02,-276.02 17.16,-184 0.77,-155.46 -4.71,-136.97 14.16,-110 24.69,-94.96 71.2,-81.04 103.65,-72.91"/>
<polygon fill="#63b8ff" stroke="#63b8ff" points="104.74,-76.25 113.63,-70.48 103.09,-69.45 104.74,-76.25"/>
</a>
</g>
</g>
<!-- Node4 -->
<g id="Node000004" class="node">
<title>Node4</title>
<g id="a_Node000004"><a xlink:href="types_8h.html" target="_top" xlink:title=" ">
<polygon fill="white" stroke="#666666" points="1085.66,-74 996.66,-74 996.66,-55 1085.66,-55 1085.66,-74"/>
<text text-anchor="middle" x="1041.16" y="-62" font-family="Helvetica,sans-Serif" font-size="10.00">Library/types.h</text>
</a>
</g>
</g>
<!-- Node1&#45;&gt;Node4 -->
<g id="edge3_Node000001_Node000004" class="edge">
<title>Node1&#45;&gt;Node4</title>
<g id="a_edge3_Node000001_Node000004"><a xlink:title=" ">
<path fill="none" stroke="#63b8ff" d="M401.53,-339.48C609.03,-339.94 1152.46,-327.25 1237.16,-184 1252.12,-158.69 1218.69,-116.98 1210.16,-110 1178.11,-83.76 1132.18,-72.85 1096.29,-68.39"/>
<polygon fill="#63b8ff" stroke="#63b8ff" points="1096.3,-64.87 1085.98,-67.24 1095.53,-71.82 1096.3,-64.87"/>
</a>
</g>
</g>
<!-- Node8 -->
<g id="Node000008" class="node">
<title>Node8</title>
<g id="a_Node000008"><a xlink:href="driverModel_8h.html" target="_top" xlink:title=" ">
<polygon fill="white" stroke="#666666" points="338.16,-294 216.16,-294 216.16,-275 338.16,-275 338.16,-294"/>
<text text-anchor="middle" x="277.16" y="-282" font-family="Helvetica,sans-Serif" font-size="10.00">Drivers/driverModel.h</text>
</a>
</g>
</g>
<!-- Node1&#45;&gt;Node8 -->
<g id="edge7_Node000001_Node000008" class="edge">
<title>Node1&#45;&gt;Node8</title>
<g id="a_edge7_Node000001_Node000008"><a xlink:title=" ">
<path fill="none" stroke="#63b8ff" d="M313.9,-329.75C307.62,-322.18 298.37,-311.05 290.73,-301.84"/>
<polygon fill="#63b8ff" stroke="#63b8ff" points="293.37,-299.55 284.29,-294.09 287.99,-304.02 293.37,-299.55"/>
</a>
</g>
</g>
<!-- Node12 -->
<g id="Node000012" class="node">
<title>Node12</title>
<g id="a_Node000012"><a xlink:href="channel_8h.html" target="_top" xlink:title=" ">
<polygon fill="white" stroke="#666666" points="932.66,-239 825.66,-239 825.66,-220 932.66,-220 932.66,-239"/>
<text text-anchor="middle" x="879.16" y="-227" font-family="Helvetica,sans-Serif" font-size="10.00">Channel/channel.h</text>
</a>
</g>
</g>
<!-- Node1&#45;&gt;Node12 -->
<g id="edge55_Node000001_Node000012" class="edge">
<title>Node1&#45;&gt;Node12</title>
<g id="a_edge55_Node000001_Node000012"><a xlink:title=" ">
<path fill="none" stroke="#63b8ff" d="M365.41,-329.94C466.65,-310.34 714.86,-262.3 825,-240.98"/>
<polygon fill="#63b8ff" stroke="#63b8ff" points="825.75,-244.4 834.9,-239.07 824.42,-237.53 825.75,-244.4"/>
</a>
</g>
</g>
<!-- Node19 -->
<g id="Node000019" class="node">
<title>Node19</title>
<g id="a_Node000019"><a xlink:href="transaction_8h_source.html" target="_top" xlink:title=" ">
<polygon fill="white" stroke="#666666" points="569.66,-184 430.66,-184 430.66,-165 569.66,-165 569.66,-184"/>
<text text-anchor="middle" x="500.16" y="-172" font-family="Helvetica,sans-Serif" font-size="10.00">Transaction/transaction.h</text>
</a>
</g>
</g>
<!-- Node1&#45;&gt;Node19 -->
<g id="edge56_Node000001_Node000019" class="edge">
<title>Node1&#45;&gt;Node19</title>
<g id="a_edge56_Node000001_Node000019"><a xlink:title=" ">
<path fill="none" stroke="#63b8ff" d="M330.78,-329.74C359.68,-303.42 445.96,-224.85 482.98,-191.14"/>
<polygon fill="#63b8ff" stroke="#63b8ff" points="485.45,-193.63 490.49,-184.31 480.74,-188.45 485.45,-193.63"/>
</a>
</g>
</g>
<!-- Node5 -->
<g id="Node000005" class="node">
<title>Node5</title>
<g id="a_Node000005"><a xlink:title=" ">
<polygon fill="#e0e0e0" stroke="#999999" points="906.66,-19 859.66,-19 859.66,0 906.66,0 906.66,-19"/>
<text text-anchor="middle" x="883.16" y="-7" font-family="Helvetica,sans-Serif" font-size="10.00">vector</text>
</a>
</g>
</g>
<!-- Node4&#45;&gt;Node5 -->
<g id="edge4_Node000004_Node000005" class="edge">
<title>Node4&#45;&gt;Node5</title>
<g id="a_edge4_Node000004_Node000005"><a xlink:title=" ">
<path fill="none" stroke="#63b8ff" d="M1015.78,-54.98C988.74,-45.91 945.83,-31.52 916.18,-21.58"/>
<polygon fill="#63b8ff" stroke="#63b8ff" points="917.27,-18.25 906.68,-18.39 915.05,-24.89 917.27,-18.25"/>
</a>
</g>
</g>
<!-- Node6 -->
<g id="Node000006" class="node">
<title>Node6</title>
<g id="a_Node000006"><a xlink:title=" ">
<polygon fill="#e0e0e0" stroke="#999999" points="1270.66,-19 1177.66,-19 1177.66,0 1270.66,0 1270.66,-19"/>
<text text-anchor="middle" x="1224.16" y="-7" font-family="Helvetica,sans-Serif" font-size="10.00">unordered_map</text>
</a>
</g>
</g>
<!-- Node4&#45;&gt;Node6 -->
<g id="edge5_Node000004_Node000006" class="edge">
<title>Node4&#45;&gt;Node6</title>
<g id="a_edge5_Node000004_Node000006"><a xlink:title=" ">
<path fill="none" stroke="#63b8ff" d="M1070.56,-54.98C1101.55,-46.01 1150.54,-31.82 1184.83,-21.89"/>
<polygon fill="#63b8ff" stroke="#63b8ff" points="1185.9,-25.23 1194.53,-19.08 1183.95,-18.5 1185.9,-25.23"/>
</a>
</g>
</g>
<!-- Node7 -->
<g id="Node000007" class="node">
<title>Node7</title>
<g id="a_Node000007"><a xlink:title=" ">
<polygon fill="#e0e0e0" stroke="#999999" points="407.16,-19 363.16,-19 363.16,0 407.16,0 407.16,-19"/>
<text text-anchor="middle" x="385.16" y="-7" font-family="Helvetica,sans-Serif" font-size="10.00">string</text>
</a>
</g>
</g>
<!-- Node4&#45;&gt;Node7 -->
<g id="edge6_Node000004_Node000007" class="edge">
<title>Node4&#45;&gt;Node7</title>
<g id="a_edge6_Node000004_Node000007"><a xlink:title=" ">
<path fill="none" stroke="#63b8ff" d="M996.41,-56.17C993.28,-55.74 990.18,-55.35 987.16,-55 770.32,-29.96 507.83,-16.21 417.51,-11.95"/>
<polygon fill="#63b8ff" stroke="#63b8ff" points="417.51,-8.45 407.36,-11.48 417.19,-15.44 417.51,-8.45"/>
</a>
</g>
</g>
<!-- Node8&#45;&gt;Node2 -->
<g id="edge8_Node000008_Node000002" class="edge">
<title>Node8&#45;&gt;Node2</title>
<g id="a_edge8_Node000008_Node000002"><a xlink:title=" ">
<path fill="none" stroke="#63b8ff" d="M266.79,-274.97C235,-248.79 138.55,-169.39 97.73,-135.79"/>
<polygon fill="#63b8ff" stroke="#63b8ff" points="99.85,-133 89.91,-129.34 95.4,-138.4 99.85,-133"/>
</a>
</g>
</g>
<!-- Node8&#45;&gt;Node3 -->
<g id="edge13_Node000008_Node000003" class="edge">
<title>Node8&#45;&gt;Node3</title>
<g id="a_edge13_Node000008_Node000003"><a xlink:title=" ">
<path fill="none" stroke="#63b8ff" d="M216.04,-280.47C154.09,-273.57 62.72,-251.76 29.16,-184 14.56,-154.52 8.81,-137.31 27.16,-110 44.09,-84.8 78.07,-73.86 103.61,-69.12"/>
<polygon fill="#63b8ff" stroke="#63b8ff" points="104.32,-72.55 113.63,-67.49 103.19,-65.64 104.32,-72.55"/>
</a>
</g>
</g>
<!-- Node8&#45;&gt;Node4 -->
<g id="edge53_Node000008_Node000004" class="edge">
<title>Node8&#45;&gt;Node4</title>
<g id="a_edge53_Node000008_Node000004"><a xlink:title=" ">
<path fill="none" stroke="#63b8ff" d="M338.39,-282.31C498.57,-278.84 927.24,-267.12 1066.16,-239 1137.4,-224.58 1178.29,-243.41 1220.16,-184 1258.55,-129.52 1155.97,-93.33 1090.63,-76.46"/>
<polygon fill="#63b8ff" stroke="#63b8ff" points="1091.44,-73.06 1080.88,-74.02 1089.73,-79.85 1091.44,-73.06"/>
</a>
</g>
</g>
<!-- Node8&#45;&gt;Node6 -->
<g id="edge12_Node000008_Node000006" class="edge">
<title>Node8&#45;&gt;Node6</title>
<g id="a_edge12_Node000008_Node000006"><a xlink:title=" ">
<path fill="none" stroke="#63b8ff" d="M338.29,-283.88C508.78,-284.36 986.9,-281.77 1137.16,-239 1185.95,-225.12 1209.39,-226.45 1237.16,-184 1268.64,-135.88 1260.75,-110.88 1247.16,-55 1244.85,-45.51 1240.14,-35.78 1235.58,-27.85"/>
<polygon fill="#63b8ff" stroke="#63b8ff" points="1238.48,-25.89 1230.26,-19.2 1232.52,-29.55 1238.48,-25.89"/>
</a>
</g>
</g>
<!-- Node8&#45;&gt;Node7 -->
<g id="edge10_Node000008_Node000007" class="edge">
<title>Node8&#45;&gt;Node7</title>
<g id="a_edge10_Node000008_Node000007"><a xlink:title=" ">
<path fill="none" stroke="#63b8ff" d="M216.04,-276.74C159.12,-269.49 79.25,-256.61 53.16,-239 3.51,-205.49 -15.14,-162.24 14.16,-110 37.09,-69.11 60.17,-71.2 104.16,-55 190.24,-23.31 299.3,-14.18 352.71,-11.55"/>
<polygon fill="#63b8ff" stroke="#63b8ff" points="353.09,-15.04 362.93,-11.1 352.78,-8.05 353.09,-15.04"/>
</a>
</g>
</g>
<!-- Node9 -->
<g id="Node000009" class="node">
<title>Node9</title>
<g id="a_Node000009"><a xlink:title=" ">
<polygon fill="#e0e0e0" stroke="#999999" points="220.16,-129 164.16,-129 164.16,-110 220.16,-110 220.16,-129"/>
<text text-anchor="middle" x="192.16" y="-117" font-family="Helvetica,sans-Serif" font-size="10.00">optional</text>
</a>
</g>
</g>
<!-- Node8&#45;&gt;Node9 -->
<g id="edge9_Node000008_Node000009" class="edge">
<title>Node8&#45;&gt;Node9</title>
<g id="a_edge9_Node000008_Node000009"><a xlink:title=" ">
<path fill="none" stroke="#63b8ff" d="M267.2,-274.83C258.08,-266.44 244.73,-252.97 236.16,-239 216.16,-206.37 202.99,-163.21 196.63,-139.01"/>
<polygon fill="#63b8ff" stroke="#63b8ff" points="199.95,-137.89 194.12,-129.05 193.17,-139.6 199.95,-137.89"/>
</a>
</g>
</g>
<!-- Node10 -->
<g id="Node000010" class="node">
<title>Node10</title>
<g id="a_Node000010"><a xlink:title=" ">
<polygon fill="#e0e0e0" stroke="#999999" points="978.66,-74 937.66,-74 937.66,-55 978.66,-55 978.66,-74"/>
<text text-anchor="middle" x="958.16" y="-62" font-family="Helvetica,sans-Serif" font-size="10.00">tuple</text>
</a>
</g>
</g>
<!-- Node8&#45;&gt;Node10 -->
<g id="edge11_Node000008_Node000010" class="edge">
<title>Node8&#45;&gt;Node10</title>
<g id="a_edge11_Node000008_Node000010"><a xlink:title=" ">
<path fill="none" stroke="#63b8ff" d="M338.44,-281.81C536.59,-275.68 1150.37,-251.38 1205.16,-184 1210.49,-177.45 1209.89,-172 1205.16,-165 1192.36,-146.04 1051.63,-96.9 988.5,-75.59"/>
<polygon fill="#63b8ff" stroke="#63b8ff" points="989.31,-72.17 978.71,-72.31 987.08,-78.81 989.31,-72.17"/>
</a>
</g>
</g>
<!-- Node11 -->
<g id="Node000011" class="node">
<title>Node11</title>
<g id="a_Node000011"><a xlink:title=" ">
<polygon fill="#e0e0e0" stroke="#999999" points="417.66,-74 352.66,-74 352.66,-55 417.66,-55 417.66,-74"/>
<text text-anchor="middle" x="385.16" y="-62" font-family="Helvetica,sans-Serif" font-size="10.00">functional</text>
</a>
</g>
</g>
<!-- Node8&#45;&gt;Node11 -->
<g id="edge14_Node000008_Node000011" class="edge">
<title>Node8&#45;&gt;Node11</title>
<g id="a_edge14_Node000008_Node000011"><a xlink:title=" ">
<path fill="none" stroke="#63b8ff" d="M244.89,-274.99C165.54,-252.61 -27.75,-188.4 41.16,-110 60.76,-87.7 254.35,-73.35 342.2,-67.93"/>
<polygon fill="#63b8ff" stroke="#63b8ff" points="342.6,-71.41 352.37,-67.32 342.18,-64.43 342.6,-71.41"/>
</a>
</g>
</g>
<!-- Node8&#45;&gt;Node12 -->
<g id="edge15_Node000008_Node000012" class="edge">
<title>Node8&#45;&gt;Node12</title>
<g id="a_edge15_Node000008_Node000012"><a xlink:title=" ">
<path fill="none" stroke="#63b8ff" d="M338.2,-278.13C452.67,-268.05 698.52,-246.4 815.19,-236.13"/>
<polygon fill="#63b8ff" stroke="#63b8ff" points="815.74,-239.6 825.4,-235.23 815.13,-232.62 815.74,-239.6"/>
</a>
</g>
</g>
<!-- Node8&#45;&gt;Node19 -->
<g id="edge52_Node000008_Node000019" class="edge">
<title>Node8&#45;&gt;Node19</title>
<g id="a_edge52_Node000008_Node000019"><a xlink:title=" ">
<path fill="none" stroke="#63b8ff" d="M295.03,-274.84C334.11,-255.92 427.34,-210.77 473.43,-188.45"/>
<polygon fill="#63b8ff" stroke="#63b8ff" points="475.04,-191.56 482.51,-184.05 471.99,-185.26 475.04,-191.56"/>
</a>
</g>
</g>
<!-- Node20 -->
<g id="Node000020" class="node">
<title>Node20</title>
<g id="a_Node000020"><a xlink:href="error_8h.html" target="_top" xlink:title=" ">
<polygon fill="white" stroke="#666666" points="475.66,-129 390.66,-129 390.66,-110 475.66,-110 475.66,-129"/>
<text text-anchor="middle" x="433.16" y="-117" font-family="Helvetica,sans-Serif" font-size="10.00">Library/error.h</text>
</a>
</g>
</g>
<!-- Node8&#45;&gt;Node20 -->
<g id="edge54_Node000008_Node000020" class="edge">
<title>Node8&#45;&gt;Node20</title>
<g id="a_edge54_Node000008_Node000020"><a xlink:title=" ">
<path fill="none" stroke="#63b8ff" d="M285.55,-274.74C310.62,-248.53 385.3,-170.51 417.78,-136.57"/>
<polygon fill="#63b8ff" stroke="#63b8ff" points="420.35,-138.95 424.73,-129.31 415.29,-134.11 420.35,-138.95"/>
</a>
</g>
</g>
<!-- Node12&#45;&gt;Node2 -->
<g id="edge17_Node000012_Node000002" class="edge">
<title>Node12&#45;&gt;Node2</title>
<g id="a_edge17_Node000012_Node000002"><a xlink:title=" ">
<path fill="none" stroke="#63b8ff" d="M825.57,-227.91C686.31,-225.91 315.73,-217.52 198.16,-184 160.95,-173.39 122.2,-150.02 99.4,-134.79"/>
<polygon fill="#63b8ff" stroke="#63b8ff" points="101.16,-131.75 90.93,-129.01 97.21,-137.53 101.16,-131.75"/>
</a>
</g>
</g>
<!-- Node12&#45;&gt;Node3 -->
<g id="edge23_Node000012_Node000003" class="edge">
<title>Node12&#45;&gt;Node3</title>
<g id="a_edge23_Node000012_Node000003"><a xlink:title=" ">
<path fill="none" stroke="#63b8ff" d="M825.41,-227.01C697.44,-223.07 377.65,-210.78 274.16,-184 217.75,-169.41 193.33,-173.02 155.16,-129 144.44,-116.64 139.77,-98.42 137.73,-84.66"/>
<polygon fill="#63b8ff" stroke="#63b8ff" points="141.17,-83.93 136.57,-74.38 134.22,-84.71 141.17,-83.93"/>
</a>
</g>
</g>
<!-- Node12&#45;&gt;Node4 -->
<g id="edge28_Node000012_Node000004" class="edge">
<title>Node12&#45;&gt;Node4</title>
<g id="a_edge28_Node000012_Node000004"><a xlink:title=" ">
<path fill="none" stroke="#63b8ff" d="M932.88,-220.13C973.07,-212.67 1023.21,-200.4 1036.16,-184 1058.84,-155.28 1052.44,-109.33 1046.41,-83.91"/>
<polygon fill="#63b8ff" stroke="#63b8ff" points="1049.76,-82.89 1043.85,-74.1 1042.99,-84.66 1049.76,-82.89"/>
</a>
</g>
</g>
<!-- Node12&#45;&gt;Node5 -->
<g id="edge24_Node000012_Node000005" class="edge">
<title>Node12&#45;&gt;Node5</title>
<g id="a_edge24_Node000012_Node000005"><a xlink:title=" ">
<path fill="none" stroke="#63b8ff" d="M933.06,-227.54C971.17,-224.1 1021.15,-213.63 1054.16,-184 1098.93,-143.81 1133.08,-101.7 1095.16,-55 1073.11,-27.83 971.09,-16.65 917.02,-12.57"/>
<polygon fill="#63b8ff" stroke="#63b8ff" points="917.11,-9.06 906.88,-11.84 916.61,-16.04 917.11,-9.06"/>
</a>
</g>
</g>
<!-- Node12&#45;&gt;Node6 -->
<g id="edge21_Node000012_Node000006" class="edge">
<title>Node12&#45;&gt;Node6</title>
<g id="a_edge21_Node000012_Node000006"><a xlink:title=" ">
<path fill="none" stroke="#63b8ff" d="M932.98,-228.86C1015.71,-228.19 1168.45,-221.7 1205.16,-184 1245.98,-142.08 1236.03,-64.68 1228.68,-29.18"/>
<polygon fill="#63b8ff" stroke="#63b8ff" points="1232.05,-28.22 1226.45,-19.23 1225.22,-29.75 1232.05,-28.22"/>
</a>
</g>
</g>
<!-- Node12&#45;&gt;Node7 -->
<g id="edge19_Node000012_Node000007" class="edge">
<title>Node12&#45;&gt;Node7</title>
<g id="a_edge19_Node000012_Node000007"><a xlink:title=" ">
<path fill="none" stroke="#63b8ff" d="M825.49,-226.96C720.86,-223.37 493.56,-212.46 421.16,-184 383.69,-169.27 371.36,-162.6 349.16,-129 335.26,-107.95 338.3,-99.03 335.16,-74 334.11,-65.62 331.7,-62.7 335.16,-55 340.66,-42.74 351.39,-32.48 361.51,-24.91"/>
<polygon fill="#63b8ff" stroke="#63b8ff" points="363.51,-27.78 369.73,-19.2 359.52,-22.03 363.51,-27.78"/>
</a>
</g>
</g>
<!-- Node12&#45;&gt;Node10 -->
<g id="edge20_Node000012_Node000010" class="edge">
<title>Node12&#45;&gt;Node10</title>
<g id="a_edge20_Node000012_Node000010"><a xlink:title=" ">
<path fill="none" stroke="#63b8ff" d="M932.94,-226.27C963.52,-221.9 999.51,-210.86 1019.16,-184 1027.39,-172.75 1030.65,-140.54 1014.16,-110 1007.32,-97.32 995.18,-87 983.95,-79.5"/>
<polygon fill="#63b8ff" stroke="#63b8ff" points="985.6,-76.4 975.26,-74.1 981.9,-82.35 985.6,-76.4"/>
</a>
</g>
</g>
<!-- Node13 -->
<g id="Node000013" class="node">
<title>Node13</title>
<g id="a_Node000013"><a xlink:title=" ">
<polygon fill="#e0e0e0" stroke="#999999" points="1195.66,-184 1142.66,-184 1142.66,-165 1195.66,-165 1195.66,-184"/>
<text text-anchor="middle" x="1169.16" y="-172" font-family="Helvetica,sans-Serif" font-size="10.00">iterator</text>
</a>
</g>
</g>
<!-- Node12&#45;&gt;Node13 -->
<g id="edge16_Node000012_Node000013" class="edge">
<title>Node12&#45;&gt;Node13</title>
<g id="a_edge16_Node000012_Node000013"><a xlink:title=" ">
<path fill="none" stroke="#63b8ff" d="M929.31,-219.96C979.65,-211.28 1059.39,-197.27 1128.16,-184 1129.45,-183.75 1130.75,-183.5 1132.07,-183.24"/>
<polygon fill="#63b8ff" stroke="#63b8ff" points="1133.16,-186.59 1142.28,-181.18 1131.78,-179.73 1133.16,-186.59"/>
</a>
</g>
</g>
<!-- Node14 -->
<g id="Node000014" class="node">
<title>Node14</title>
<g id="a_Node000014"><a xlink:title=" ">
<polygon fill="#e0e0e0" stroke="#999999" points="830.16,-129 782.16,-129 782.16,-110 830.16,-110 830.16,-129"/>
<text text-anchor="middle" x="806.16" y="-117" font-family="Helvetica,sans-Serif" font-size="10.00">mutex</text>
</a>
</g>
</g>
<!-- Node12&#45;&gt;Node14 -->
<g id="edge18_Node000012_Node000014" class="edge">
<title>Node12&#45;&gt;Node14</title>
<g id="a_edge18_Node000012_Node000014"><a xlink:title=" ">
<path fill="none" stroke="#63b8ff" d="M873.19,-219.66C861.1,-201.77 833.54,-161 817.78,-137.69"/>
<polygon fill="#63b8ff" stroke="#63b8ff" points="820.51,-135.48 812.01,-129.16 814.71,-139.4 820.51,-135.48"/>
</a>
</g>
</g>
<!-- Node15 -->
<g id="Node000015" class="node">
<title>Node15</title>
<g id="a_Node000015"><a xlink:title=" ">
<polygon fill="#e0e0e0" stroke="#999999" points="619.16,-74 581.16,-74 581.16,-55 619.16,-55 619.16,-74"/>
<text text-anchor="middle" x="600.16" y="-62" font-family="Helvetica,sans-Serif" font-size="10.00">map</text>
</a>
</g>
</g>
<!-- Node12&#45;&gt;Node15 -->
<g id="edge22_Node000012_Node000015" class="edge">
<title>Node12&#45;&gt;Node15</title>
<g id="a_edge22_Node000012_Node000015"><a xlink:title=" ">
<path fill="none" stroke="#63b8ff" d="M886.49,-219.83C906.48,-195.68 959.43,-128.23 943.16,-110 898.13,-59.53 712.85,-85.95 629.24,-73.58"/>
<polygon fill="#63b8ff" stroke="#63b8ff" points="629.78,-70.12 619.32,-71.82 628.56,-77.01 629.78,-70.12"/>
</a>
</g>
</g>
<!-- Node16 -->
<g id="Node000016" class="node">
<title>Node16</title>
<g id="a_Node000016"><a xlink:title=" ">
<polygon fill="#e0e0e0" stroke="#999999" points="1010.16,-184 964.16,-184 964.16,-165 1010.16,-165 1010.16,-184"/>
<text text-anchor="middle" x="987.16" y="-172" font-family="Helvetica,sans-Serif" font-size="10.00">future</text>
</a>
</g>
</g>
<!-- Node12&#45;&gt;Node16 -->
<g id="edge25_Node000012_Node000016" class="edge">
<title>Node12&#45;&gt;Node16</title>
<g id="a_edge25_Node000012_Node000016"><a xlink:title=" ">
<path fill="none" stroke="#63b8ff" d="M896.51,-219.98C913.73,-211.54 940.36,-198.47 960.31,-188.68"/>
<polygon fill="#63b8ff" stroke="#63b8ff" points="962.06,-191.72 969.49,-184.17 958.97,-185.43 962.06,-191.72"/>
</a>
</g>
</g>
<!-- Node17 -->
<g id="Node000017" class="node">
<title>Node17</title>
<g id="a_Node000017"><a xlink:title=" ">
<polygon fill="#e0e0e0" stroke="#999999" points="697.16,-74 637.16,-74 637.16,-55 697.16,-55 697.16,-74"/>
<text text-anchor="middle" x="667.16" y="-62" font-family="Helvetica,sans-Serif" font-size="10.00">iostream</text>
</a>
</g>
</g>
<!-- Node12&#45;&gt;Node17 -->
<g id="edge26_Node000012_Node000017" class="edge">
<title>Node12&#45;&gt;Node17</title>
<g id="a_edge26_Node000012_Node000017"><a xlink:title=" ">
<path fill="none" stroke="#63b8ff" d="M890.02,-219.77C918.92,-196.07 994.27,-130.9 976.16,-110 941.84,-70.39 783.02,-65.23 707.4,-65.08"/>
<polygon fill="#63b8ff" stroke="#63b8ff" points="707.3,-61.58 697.3,-65.08 707.3,-68.58 707.3,-61.58"/>
</a>
</g>
</g>
<!-- Node18 -->
<g id="Node000018" class="node">
<title>Node18</title>
<g id="a_Node000018"><a xlink:title=" ">
<polygon fill="#e0e0e0" stroke="#999999" points="934.16,-129 848.16,-129 848.16,-110 934.16,-110 934.16,-129"/>
<text text-anchor="middle" x="891.16" y="-117" font-family="Helvetica,sans-Serif" font-size="10.00">shared_mutex</text>
</a>
</g>
</g>
<!-- Node12&#45;&gt;Node18 -->
<g id="edge27_Node000012_Node000018" class="edge">
<title>Node12&#45;&gt;Node18</title>
<g id="a_edge27_Node000012_Node000018"><a xlink:title=" ">
<path fill="none" stroke="#63b8ff" d="M879.63,-219.85C880.34,-207.61 881.86,-184.55 884.16,-165 885.17,-156.45 886.6,-147.02 887.91,-139.05"/>
<polygon fill="#63b8ff" stroke="#63b8ff" points="891.4,-139.45 889.62,-129 884.5,-138.28 891.4,-139.45"/>
</a>
</g>
</g>
<!-- Node12&#45;&gt;Node19 -->
<g id="edge29_Node000012_Node000019" class="edge">
<title>Node12&#45;&gt;Node19</title>
<g id="a_edge29_Node000012_Node000019"><a xlink:title=" ">
<path fill="none" stroke="#63b8ff" d="M825.26,-220.96C758.61,-211.64 644.95,-195.75 571.22,-185.44"/>
<polygon fill="#63b8ff" stroke="#63b8ff" points="571.48,-181.94 561.09,-184.02 570.51,-188.87 571.48,-181.94"/>
</a>
</g>
</g>
<!-- Node19&#45;&gt;Node2 -->
<g id="edge36_Node000019_Node000002" class="edge">
<title>Node19&#45;&gt;Node2</title>
<g id="a_edge36_Node000019_Node000002"><a xlink:title=" ">
<path fill="none" stroke="#63b8ff" d="M432.52,-164.98C343.68,-153.8 190.57,-134.53 118.65,-125.47"/>
<polygon fill="#63b8ff" stroke="#63b8ff" points="119,-121.99 108.64,-124.21 118.13,-128.93 119,-121.99"/>
</a>
</g>
</g>
<!-- Node19&#45;&gt;Node3 -->
<g id="edge34_Node000019_Node000003" class="edge">
<title>Node19&#45;&gt;Node3</title>
<g id="a_edge34_Node000019_Node000003"><a xlink:title=" ">
<path fill="none" stroke="#63b8ff" d="M457.14,-164.96C418.38,-156.91 359.99,-143.87 310.16,-129 258.98,-113.73 200.96,-91.54 166.53,-77.84"/>
<polygon fill="#63b8ff" stroke="#63b8ff" points="167.63,-74.51 157.05,-74.05 165.03,-81.01 167.63,-74.51"/>
</a>
</g>
</g>
<!-- Node19&#45;&gt;Node4 -->
<g id="edge40_Node000019_Node000004" class="edge">
<title>Node19&#45;&gt;Node4</title>
<g id="a_edge40_Node000019_Node000004"><a xlink:title=" ">
<path fill="none" stroke="#63b8ff" d="M565.07,-164.93C611.68,-157.82 675.63,-146.08 730.16,-129 750.1,-122.75 753.14,-115.98 773.16,-110 783.29,-106.97 910.72,-86.35 986.15,-74.27"/>
<polygon fill="#63b8ff" stroke="#63b8ff" points="987.11,-77.66 996.43,-72.63 986.01,-70.75 987.11,-77.66"/>
</a>
</g>
</g>
<!-- Node19&#45;&gt;Node5 -->
<g id="edge35_Node000019_Node000005" class="edge">
<title>Node19&#45;&gt;Node5</title>
<g id="a_edge35_Node000019_Node000005"><a xlink:title=" ">
<path fill="none" stroke="#63b8ff" d="M539.48,-164.97C572.14,-157.31 619.49,-144.83 659.16,-129 736.33,-98.2 821.55,-48.35 860.94,-24.32"/>
<polygon fill="#63b8ff" stroke="#63b8ff" points="862.82,-27.28 869.51,-19.06 859.15,-21.31 862.82,-27.28"/>
</a>
</g>
</g>
<!-- Node19&#45;&gt;Node7 -->
<g id="edge33_Node000019_Node000007" class="edge">
<title>Node19&#45;&gt;Node7</title>
<g id="a_edge33_Node000019_Node000007"><a xlink:title=" ">
<path fill="none" stroke="#63b8ff" d="M447.78,-164.97C422.29,-158.61 392.61,-147.66 371.16,-129 344.63,-105.92 330.18,-87.68 343.16,-55 347.68,-43.63 356.64,-33.48 365.12,-25.76"/>
<polygon fill="#63b8ff" stroke="#63b8ff" points="367.58,-28.27 372.95,-19.14 363.05,-22.92 367.58,-28.27"/>
</a>
</g>
</g>
<!-- Node19&#45;&gt;Node9 -->
<g id="edge38_Node000019_Node000009" class="edge">
<title>Node19&#45;&gt;Node9</title>
<g id="a_edge38_Node000019_Node000009"><a xlink:title=" ">
<path fill="none" stroke="#63b8ff" d="M445.81,-164.96C391.98,-156.37 307.25,-142.51 234.16,-129 233.06,-128.8 231.95,-128.59 230.83,-128.38"/>
<polygon fill="#63b8ff" stroke="#63b8ff" points="231.09,-124.86 220.6,-126.39 229.75,-131.73 231.09,-124.86"/>
</a>
</g>
</g>
<!-- Node19&#45;&gt;Node11 -->
<g id="edge39_Node000019_Node000011" class="edge">
<title>Node19&#45;&gt;Node11</title>
<g id="a_edge39_Node000019_Node000011"><a xlink:title=" ">
<path fill="none" stroke="#63b8ff" d="M437.95,-165C416.33,-158.73 394.24,-147.85 381.16,-129 372.12,-115.97 374.48,-97.57 378.3,-83.93"/>
<polygon fill="#63b8ff" stroke="#63b8ff" points="381.7,-84.8 381.48,-74.21 375.04,-82.62 381.7,-84.8"/>
</a>
</g>
</g>
<!-- Node19&#45;&gt;Node14 -->
<g id="edge31_Node000019_Node000014" class="edge">
<title>Node19&#45;&gt;Node14</title>
<g id="a_edge31_Node000019_Node000014"><a xlink:title=" ">
<path fill="none" stroke="#63b8ff" d="M557.05,-164.99C611.41,-156.64 695.59,-143.13 768.16,-129 769.43,-128.75 770.72,-128.5 772.03,-128.23"/>
<polygon fill="#63b8ff" stroke="#63b8ff" points="773.02,-131.6 782.08,-126.1 771.57,-124.75 773.02,-131.6"/>
</a>
</g>
</g>
<!-- Node19&#45;&gt;Node15 -->
<g id="edge37_Node000019_Node000015" class="edge">
<title>Node19&#45;&gt;Node15</title>
<g id="a_edge37_Node000019_Node000015"><a xlink:title=" ">
<path fill="none" stroke="#63b8ff" d="M564.34,-164.98C586.02,-158.7 608.03,-147.82 621.16,-129 630.99,-114.92 622.45,-95.92 613.49,-82.38"/>
<polygon fill="#63b8ff" stroke="#63b8ff" points="616.14,-80.06 607.44,-74.01 610.46,-84.16 616.14,-80.06"/>
</a>
</g>
</g>
<!-- Node19&#45;&gt;Node17 -->
<g id="edge30_Node000019_Node000017" class="edge">
<title>Node19&#45;&gt;Node17</title>
<g id="a_edge30_Node000019_Node000017"><a xlink:title=" ">
<path fill="none" stroke="#63b8ff" d="M561.69,-164.97C587.79,-158.7 617,-147.83 638.16,-129 651.31,-117.3 658.87,-98.45 662.95,-84.32"/>
<polygon fill="#63b8ff" stroke="#63b8ff" points="666.45,-84.78 665.52,-74.23 659.66,-83.05 666.45,-84.78"/>
</a>
</g>
</g>
<!-- Node19&#45;&gt;Node18 -->
<g id="edge32_Node000019_Node000018" class="edge">
<title>Node19&#45;&gt;Node18</title>
<g id="a_edge32_Node000019_Node000018"><a xlink:title=" ">
<path fill="none" stroke="#63b8ff" d="M569.72,-165.02C636.03,-156.79 738.97,-143.62 837.87,-129.15"/>
<polygon fill="#63b8ff" stroke="#63b8ff" points="838.66,-132.57 848.05,-127.65 837.64,-125.65 838.66,-132.57"/>
</a>
</g>
</g>
<!-- Node19&#45;&gt;Node20 -->
<g id="edge41_Node000019_Node000020" class="edge">
<title>Node19&#45;&gt;Node20</title>
<g id="a_edge41_Node000019_Node000020"><a xlink:title=" ">
<path fill="none" stroke="#63b8ff" d="M489.4,-164.98C479.4,-157.07 464.27,-145.11 452.23,-135.58"/>
<polygon fill="#63b8ff" stroke="#63b8ff" points="454.14,-132.63 444.12,-129.17 449.79,-138.12 454.14,-132.63"/>
</a>
</g>
</g>
<!-- Node21 -->
<g id="Node000021" class="node">
<title>Node21</title>
<g id="a_Node000021"><a xlink:href="evaluate_8h.html" target="_top" xlink:title=" ">
<polygon fill="white" stroke="#666666" points="612.16,-129 494.16,-129 494.16,-110 612.16,-110 612.16,-129"/>
<text text-anchor="middle" x="553.16" y="-117" font-family="Helvetica,sans-Serif" font-size="10.00">Evaluator/evaluate.h</text>
</a>
</g>
</g>
<!-- Node19&#45;&gt;Node21 -->
<g id="edge44_Node000019_Node000021" class="edge">
<title>Node19&#45;&gt;Node21</title>
<g id="a_edge44_Node000019_Node000021"><a xlink:title=" ">
<path fill="none" stroke="#63b8ff" d="M508.91,-164.75C516.63,-157.03 528.07,-145.6 537.38,-136.28"/>
<polygon fill="#63b8ff" stroke="#63b8ff" points="539.98,-138.64 544.57,-129.09 535.03,-133.69 539.98,-138.64"/>
</a>
</g>
</g>
<!-- Node20&#45;&gt;Node7 -->
<g id="edge42_Node000020_Node000007" class="edge">
<title>Node20&#45;&gt;Node7</title>
<g id="a_edge42_Node000020_Node000007"><a xlink:title=" ">
<path fill="none" stroke="#63b8ff" d="M433.86,-109.84C434.53,-97.18 434.43,-73.17 426.16,-55 421.08,-43.84 412.11,-33.61 403.86,-25.78"/>
<polygon fill="#63b8ff" stroke="#63b8ff" points="406.1,-23.09 396.31,-19.05 401.45,-28.32 406.1,-23.09"/>
</a>
</g>
</g>
<!-- Node20&#45;&gt;Node17 -->
<g id="edge43_Node000020_Node000017" class="edge">
<title>Node20&#45;&gt;Node17</title>
<g id="a_edge43_Node000020_Node000017"><a xlink:title=" ">
<path fill="none" stroke="#63b8ff" d="M470.76,-109.98C513.58,-100.29 583.26,-84.5 627.08,-74.58"/>
<polygon fill="#63b8ff" stroke="#63b8ff" points="628.12,-77.93 637.1,-72.31 626.57,-71.1 628.12,-77.93"/>
</a>
</g>
</g>
<!-- Node21&#45;&gt;Node3 -->
<g id="edge45_Node000021_Node000003" class="edge">
<title>Node21&#45;&gt;Node3</title>
<g id="a_edge45_Node000021_Node000003"><a xlink:title=" ">
<path fill="none" stroke="#63b8ff" d="M493.86,-110.96C404.67,-99.63 239,-78.57 168.87,-69.66"/>
<polygon fill="#63b8ff" stroke="#63b8ff" points="169.21,-66.17 158.85,-68.38 168.33,-73.12 169.21,-66.17"/>
</a>
</g>
</g>
<!-- Node21&#45;&gt;Node4 -->
<g id="edge51_Node000021_Node000004" class="edge">
<title>Node21&#45;&gt;Node4</title>
<g id="a_edge51_Node000021_Node000004"><a xlink:title=" ">
<path fill="none" stroke="#63b8ff" d="M612.24,-113.46C693.91,-106.27 846.12,-92.05 986.33,-74.04"/>
<polygon fill="#63b8ff" stroke="#63b8ff" points="986.93,-77.49 996.4,-72.74 986.03,-70.55 986.93,-77.49"/>
</a>
</g>
</g>
<!-- Node21&#45;&gt;Node5 -->
<g id="edge46_Node000021_Node000005" class="edge">
<title>Node21&#45;&gt;Node5</title>
<g id="a_edge46_Node000021_Node000005"><a xlink:title=" ">
<path fill="none" stroke="#63b8ff" d="M553.01,-109.99C553.26,-96.16 555.94,-68.97 572.16,-55 613.14,-19.7 777.27,-12.39 849.15,-10.88"/>
<polygon fill="#63b8ff" stroke="#63b8ff" points="849.53,-14.38 859.46,-10.69 849.4,-7.38 849.53,-14.38"/>
</a>
</g>
</g>
<!-- Node21&#45;&gt;Node7 -->
<g id="edge47_Node000021_Node000007" class="edge">
<title>Node21&#45;&gt;Node7</title>
<g id="a_edge47_Node000021_Node000007"><a xlink:title=" ">
<path fill="none" stroke="#63b8ff" d="M539.7,-109.84C510.82,-91.28 442.7,-47.49 407.33,-24.75"/>
<polygon fill="#63b8ff" stroke="#63b8ff" points="408.99,-21.66 398.69,-19.2 405.21,-27.55 408.99,-21.66"/>
</a>
</g>
</g>
<!-- Node21&#45;&gt;Node10 -->
<g id="edge49_Node000021_Node000010" class="edge">
<title>Node21&#45;&gt;Node10</title>
<g id="a_edge49_Node000021_Node000010"><a xlink:title=" ">
<path fill="none" stroke="#63b8ff" d="M612.49,-110.74C699.9,-99.3 860.19,-78.32 927.31,-69.54"/>
<polygon fill="#63b8ff" stroke="#63b8ff" points="928.17,-72.96 937.63,-68.19 927.26,-66.01 928.17,-72.96"/>
</a>
</g>
</g>
<!-- Node21&#45;&gt;Node11 -->
<g id="edge48_Node000021_Node000011" class="edge">
<title>Node21&#45;&gt;Node11</title>
<g id="a_edge48_Node000021_Node000011"><a xlink:title=" ">
<path fill="none" stroke="#63b8ff" d="M526.17,-109.98C497.96,-101.09 453.52,-87.07 422.08,-77.15"/>
<polygon fill="#63b8ff" stroke="#63b8ff" points="422.95,-73.75 412.36,-74.08 420.85,-80.43 422.95,-73.75"/>
</a>
</g>
</g>
<!-- Node21&#45;&gt;Node15 -->
<g id="edge50_Node000021_Node000015" class="edge">
<title>Node21&#45;&gt;Node15</title>
<g id="a_edge50_Node000021_Node000015"><a xlink:title=" ">
<path fill="none" stroke="#63b8ff" d="M560.92,-109.75C567.63,-102.18 577.5,-91.05 585.67,-81.84"/>
<polygon fill="#63b8ff" stroke="#63b8ff" points="588.53,-83.89 592.54,-74.09 583.29,-79.25 588.53,-83.89"/>
</a>
</g>
</g>
</g>
</svg>
