<?xml version="1.0" encoding="UTF-8" standalone="no"?>
<!DOCTYPE svg PUBLIC "-//W3C//DTD SVG 1.1//EN"
 "http://www.w3.org/Graphics/SVG/1.1/DTD/svg11.dtd">
<!-- Generated by graphviz version 2.43.0 (0)
 -->
<!-- Title: include/Simulator/simulator.h Pages: 1 -->
<!--zoomable 357 -->

<svg id="main" version="1.1" xmlns="http://www.w3.org/2000/svg" xmlns:xlink="http://www.w3.org/1999/xlink" xml:space="preserve" onload="init(evt)">
<style type="text/css"><![CDATA[
.node, .edge {opacity: 0.7;}
.node.selected, .edge.selected {opacity: 1;}
.edge:hover path { stroke: red; }
.edge:hover polygon { stroke: red; fill: red; }
]]></style>

<defs>
  <circle id="rim" cx="0" cy="0" r="7"/>
  <circle id="rim2" cx="0" cy="0" r="3.5"/>
  <g id="zoomPlus">
    <use xlink:href="#rim" fill="#404040"><set attributeName="fill" to="#808080" begin="zoomplus.mouseover" end="zoomplus.mouseout"/></use>
    <path d="M-4,0h8M0,-4v8" fill="none" stroke="white" stroke-width="1.5" pointer-events="none"/>
  </g>
  <g id="zoomMin">
    <use xlink:href="#rim" fill="#404040"><set attributeName="fill" to="#808080" begin="zoomminus.mouseover" end="zoomminus.mouseout"/></use>
    <path d="M-4,0h8" fill="none" stroke="white" stroke-width="1.5" pointer-events="none"/>
  </g>
  <g id="arrowUp" transform="translate(30 24)">
    <use xlink:href="#rim"/>
    <path pointer-events="none" fill="none" stroke="white" stroke-width="1.5" d="M0,-3.0v7 M-2.5,-0.5L0,-3.0L2.5,-0.5"/>
  </g>
  <g id="arrowRight" transform="rotate(90) translate(36 -43)">
    <use xlink:href="#rim"/>
    <path pointer-events="none" fill="none" stroke="white" stroke-width="1.5" d="M0,-3.0v7 M-2.5,-0.5L0,-3.0L2.5,-0.5"/>
  </g>
  <g id="arrowDown" transform="rotate(180) translate(-30 -48)">
    <use xlink:href="#rim"/>
    <path pointer-events="none" fill="none" stroke="white" stroke-width="1.5" d="M0,-3.0v7 M-2.5,-0.5L0,-3.0L2.5,-0.5"/>
  </g>
  <g id="arrowLeft" transform="rotate(270) translate(-36 17)">
    <use xlink:href="#rim"/>
    <path pointer-events="none" fill="none" stroke="white" stroke-width="1.5" d="M0,-3.0v7 M-2.5,-0.5L0,-3.0L2.5,-0.5"/>
  </g>
  <g id="resetDef">
    <use xlink:href="#rim2" fill="#404040"><set attributeName="fill" to="#808080" begin="reset.mouseover" end="reset.mouseout"/></use>
  </g>
</defs>
<script type="application/ecmascript">
var viewWidth = 1214;
var viewHeight = 357;
var sectionId = 'dynsection-0';
</script>
<script type="application/ecmascript" xlink:href="svg.min.js"/>
<svg id="graph" class="graph">
<g id="viewport">
<title>include/Simulator/simulator.h</title>
<!-- Node1 -->
<g id="Node000001" class="node">
<title>Node1</title>
<g id="a_Node000001"><a xlink:title=" ">
<polygon fill="#999999" stroke="#666666" points="890.5,-349 730.5,-349 730.5,-330 890.5,-330 890.5,-349"/>
<text text-anchor="middle" x="810.5" y="-337" font-family="Helvetica,sans-Serif" font-size="10.00">include/Simulator/simulator.h</text>
</a>
</g>
</g>
<!-- Node2 -->
<g id="Node000002" class="node">
<title>Node2</title>
<g id="a_Node000002"><a xlink:title=" ">
<polygon fill="#e0e0e0" stroke="#999999" points="1044.5,-129 986.5,-129 986.5,-110 1044.5,-110 1044.5,-129"/>
<text text-anchor="middle" x="1015.5" y="-117" font-family="Helvetica,sans-Serif" font-size="10.00">memory</text>
</a>
</g>
</g>
<!-- Node1&#45;&gt;Node2 -->
<g id="edge1_Node000001_Node000002" class="edge">
<title>Node1&#45;&gt;Node2</title>
<g id="a_edge1_Node000001_Node000002"><a xlink:title=" ">
<path fill="none" stroke="#63b8ff" d="M837.32,-329.94C856.98,-322.69 883.46,-310.77 902.5,-294 954.57,-248.14 992.36,-172.8 1007.8,-138.5"/>
<polygon fill="#63b8ff" stroke="#63b8ff" points="1011.05,-139.82 1011.87,-129.26 1004.64,-137 1011.05,-139.82"/>
</a>
</g>
</g>
<!-- Node3 -->
<g id="Node000003" class="node">
<title>Node3</title>
<g id="a_Node000003"><a xlink:title=" ">
<polygon fill="#e0e0e0" stroke="#999999" points="1171,-74 1126,-74 1126,-55 1171,-55 1171,-74"/>
<text text-anchor="middle" x="1148.5" y="-62" font-family="Helvetica,sans-Serif" font-size="10.00">utility</text>
</a>
</g>
</g>
<!-- Node1&#45;&gt;Node3 -->
<g id="edge2_Node000001_Node000003" class="edge">
<title>Node1&#45;&gt;Node3</title>
<g id="a_edge2_Node000001_Node000003"><a xlink:title=" ">
<path fill="none" stroke="#63b8ff" d="M864.24,-329.99C940.47,-314.91 1078.62,-275.95 1149.5,-184 1171.82,-155.04 1162.67,-109.19 1154.99,-83.85"/>
<polygon fill="#63b8ff" stroke="#63b8ff" points="1158.22,-82.48 1151.78,-74.07 1151.57,-84.66 1158.22,-82.48"/>
</a>
</g>
</g>
<!-- Node4 -->
<g id="Node000004" class="node">
<title>Node4</title>
<g id="a_Node000004"><a xlink:href="types_8h.html" target="_top" xlink:title=" ">
<polygon fill="white" stroke="#666666" points="255,-74 166,-74 166,-55 255,-55 255,-74"/>
<text text-anchor="middle" x="210.5" y="-62" font-family="Helvetica,sans-Serif" font-size="10.00">Library/types.h</text>
</a>
</g>
</g>
<!-- Node1&#45;&gt;Node4 -->
<g id="edge3_Node000001_Node000004" class="edge">
<title>Node1&#45;&gt;Node4</title>
<g id="a_edge3_Node000001_Node000004"><a xlink:title=" ">
<path fill="none" stroke="#63b8ff" d="M730.24,-332.8C582.65,-321.18 274.81,-291.33 182.5,-239 130.28,-209.4 111.13,-161.17 142.5,-110 150.95,-96.22 165.45,-85.86 178.9,-78.62"/>
<polygon fill="#63b8ff" stroke="#63b8ff" points="180.57,-81.7 187.96,-74.1 177.45,-75.44 180.57,-81.7"/>
</a>
</g>
</g>
<!-- Node8 -->
<g id="Node000008" class="node">
<title>Node8</title>
<g id="a_Node000008"><a xlink:href="driverModel_8h.html" target="_top" xlink:title=" ">
<polygon fill="white" stroke="#666666" points="893.5,-294 771.5,-294 771.5,-275 893.5,-275 893.5,-294"/>
<text text-anchor="middle" x="832.5" y="-282" font-family="Helvetica,sans-Serif" font-size="10.00">Drivers/driverModel.h</text>
</a>
</g>
</g>
<!-- Node1&#45;&gt;Node8 -->
<g id="edge7_Node000001_Node000008" class="edge">
<title>Node1&#45;&gt;Node8</title>
<g id="a_edge7_Node000001_Node000008"><a xlink:title=" ">
<path fill="none" stroke="#63b8ff" d="M814.13,-329.75C817.08,-322.65 821.33,-312.4 825.01,-303.56"/>
<polygon fill="#63b8ff" stroke="#63b8ff" points="828.33,-304.67 828.93,-294.09 821.87,-301.98 828.33,-304.67"/>
</a>
</g>
</g>
<!-- Node12 -->
<g id="Node000012" class="node">
<title>Node12</title>
<g id="a_Node000012"><a xlink:href="channel_8h.html" target="_top" xlink:title=" ">
<polygon fill="white" stroke="#666666" points="423,-239 316,-239 316,-220 423,-220 423,-239"/>
<text text-anchor="middle" x="369.5" y="-227" font-family="Helvetica,sans-Serif" font-size="10.00">Channel/channel.h</text>
</a>
</g>
</g>
<!-- Node1&#45;&gt;Node12 -->
<g id="edge52_Node000001_Node000012" class="edge">
<title>Node1&#45;&gt;Node12</title>
<g id="a_edge52_Node000001_Node000012"><a xlink:title=" ">
<path fill="none" stroke="#63b8ff" d="M775.53,-329.94C696.16,-310.5 502.5,-263.07 414.43,-241.5"/>
<polygon fill="#63b8ff" stroke="#63b8ff" points="415.02,-238.04 404.48,-239.07 413.36,-244.84 415.02,-238.04"/>
</a>
</g>
</g>
<!-- Node17 -->
<g id="Node000017" class="node">
<title>Node17</title>
<g id="a_Node000017"><a xlink:href="transaction_8h_source.html" target="_top" xlink:title=" ">
<polygon fill="white" stroke="#666666" points="774,-184 635,-184 635,-165 774,-165 774,-184"/>
<text text-anchor="middle" x="704.5" y="-172" font-family="Helvetica,sans-Serif" font-size="10.00">Transaction/transaction.h</text>
</a>
</g>
</g>
<!-- Node1&#45;&gt;Node17 -->
<g id="edge53_Node000001_Node000017" class="edge">
<title>Node1&#45;&gt;Node17</title>
<g id="a_edge53_Node000001_Node000017"><a xlink:title=" ">
<path fill="none" stroke="#63b8ff" d="M799.09,-329.95C788.59,-321.64 773.08,-308.23 762.5,-294 738.56,-261.8 720.23,-218.18 711.04,-193.85"/>
<polygon fill="#63b8ff" stroke="#63b8ff" points="714.2,-192.32 707.47,-184.14 707.63,-194.73 714.2,-192.32"/>
</a>
</g>
</g>
<!-- Node5 -->
<g id="Node000005" class="node">
<title>Node5</title>
<g id="a_Node000005"><a xlink:title=" ">
<polygon fill="#e0e0e0" stroke="#999999" points="201,-19 154,-19 154,0 201,0 201,-19"/>
<text text-anchor="middle" x="177.5" y="-7" font-family="Helvetica,sans-Serif" font-size="10.00">vector</text>
</a>
</g>
</g>
<!-- Node4&#45;&gt;Node5 -->
<g id="edge4_Node000004_Node000005" class="edge">
<title>Node4&#45;&gt;Node5</title>
<g id="a_edge4_Node000004_Node000005"><a xlink:title=" ">
<path fill="none" stroke="#63b8ff" d="M205.05,-54.75C200.49,-47.42 193.83,-36.73 188.21,-27.7"/>
<polygon fill="#63b8ff" stroke="#63b8ff" points="191.1,-25.73 182.85,-19.09 185.16,-29.43 191.1,-25.73"/>
</a>
</g>
</g>
<!-- Node6 -->
<g id="Node000006" class="node">
<title>Node6</title>
<g id="a_Node000006"><a xlink:title=" ">
<polygon fill="#e0e0e0" stroke="#999999" points="93,-19 0,-19 0,0 93,0 93,-19"/>
<text text-anchor="middle" x="46.5" y="-7" font-family="Helvetica,sans-Serif" font-size="10.00">unordered_map</text>
</a>
</g>
</g>
<!-- Node4&#45;&gt;Node6 -->
<g id="edge5_Node000004_Node000006" class="edge">
<title>Node4&#45;&gt;Node6</title>
<g id="a_edge5_Node000004_Node000006"><a xlink:title=" ">
<path fill="none" stroke="#63b8ff" d="M184.15,-54.98C156.74,-46.13 113.61,-32.19 82.94,-22.28"/>
<polygon fill="#63b8ff" stroke="#63b8ff" points="83.65,-18.83 73.06,-19.08 81.5,-25.49 83.65,-18.83"/>
</a>
</g>
</g>
<!-- Node7 -->
<g id="Node000007" class="node">
<title>Node7</title>
<g id="a_Node000007"><a xlink:title=" ">
<polygon fill="#e0e0e0" stroke="#999999" points="682.5,-19 638.5,-19 638.5,0 682.5,0 682.5,-19"/>
<text text-anchor="middle" x="660.5" y="-7" font-family="Helvetica,sans-Serif" font-size="10.00">string</text>
</a>
</g>
</g>
<!-- Node4&#45;&gt;Node7 -->
<g id="edge6_Node000004_Node000007" class="edge">
<title>Node4&#45;&gt;Node7</title>
<g id="a_edge6_Node000004_Node000007"><a xlink:title=" ">
<path fill="none" stroke="#63b8ff" d="M255.26,-56.91C260.06,-56.24 264.88,-55.6 269.5,-55 402.37,-37.87 561.09,-20.88 628.11,-13.86"/>
<polygon fill="#63b8ff" stroke="#63b8ff" points="628.84,-17.3 638.43,-12.78 628.12,-10.34 628.84,-17.3"/>
</a>
</g>
</g>
<!-- Node8&#45;&gt;Node2 -->
<g id="edge8_Node000008_Node000002" class="edge">
<title>Node8&#45;&gt;Node2</title>
<g id="a_edge8_Node000008_Node000002"><a xlink:title=" ">
<path fill="none" stroke="#63b8ff" d="M842.08,-274.97C871.34,-248.9 959.86,-170.06 997.86,-136.21"/>
<polygon fill="#63b8ff" stroke="#63b8ff" points="1000.43,-138.61 1005.57,-129.34 995.77,-133.38 1000.43,-138.61"/>
</a>
</g>
</g>
<!-- Node8&#45;&gt;Node3 -->
<g id="edge13_Node000008_Node000003" class="edge">
<title>Node8&#45;&gt;Node3</title>
<g id="a_edge13_Node000008_Node000003"><a xlink:title=" ">
<path fill="none" stroke="#63b8ff" d="M893.69,-279.38C960.63,-273.79 1062.54,-261.78 1093.5,-239 1142.88,-202.67 1149,-121.76 1149.07,-84.71"/>
<polygon fill="#63b8ff" stroke="#63b8ff" points="1152.57,-84.28 1148.93,-74.33 1145.57,-84.37 1152.57,-84.28"/>
</a>
</g>
</g>
<!-- Node8&#45;&gt;Node4 -->
<g id="edge50_Node000008_Node000004" class="edge">
<title>Node8&#45;&gt;Node4</title>
<g id="a_edge50_Node000008_Node000004"><a xlink:title=" ">
<path fill="none" stroke="#63b8ff" d="M771.18,-283.1C672.47,-281.39 472.7,-273.51 307.5,-239 233.07,-223.45 189.79,-245.81 145.5,-184 135.81,-170.48 139.45,-135.64 154.5,-110 161.84,-97.49 174.14,-87.14 185.34,-79.57"/>
<polygon fill="#63b8ff" stroke="#63b8ff" points="187.39,-82.42 193.98,-74.11 183.65,-76.5 187.39,-82.42"/>
</a>
</g>
</g>
<!-- Node8&#45;&gt;Node6 -->
<g id="edge12_Node000008_Node000006" class="edge">
<title>Node8&#45;&gt;Node6</title>
<g id="a_edge12_Node000008_Node000006"><a xlink:title=" ">
<path fill="none" stroke="#63b8ff" d="M771.27,-282.55C621.21,-279 240.44,-262.32 145.5,-184 93.84,-141.38 63.79,-64.34 52.14,-29.06"/>
<polygon fill="#63b8ff" stroke="#63b8ff" points="55.36,-27.64 49,-19.16 48.69,-29.75 55.36,-27.64"/>
</a>
</g>
</g>
<!-- Node8&#45;&gt;Node7 -->
<g id="edge10_Node000008_Node000007" class="edge">
<title>Node8&#45;&gt;Node7</title>
<g id="a_edge10_Node000008_Node000007"><a xlink:title=" ">
<path fill="none" stroke="#63b8ff" d="M893.62,-279.95C965.95,-274.72 1081.06,-262.88 1116.5,-239 1188.31,-190.62 1239.06,-118.78 1180.5,-55 1147.48,-19.03 801.34,-12.08 692.84,-10.79"/>
<polygon fill="#63b8ff" stroke="#63b8ff" points="692.85,-7.29 682.81,-10.68 692.77,-14.29 692.85,-7.29"/>
</a>
</g>
</g>
<!-- Node9 -->
<g id="Node000009" class="node">
<title>Node9</title>
<g id="a_Node000009"><a xlink:title=" ">
<polygon fill="#e0e0e0" stroke="#999999" points="968.5,-129 912.5,-129 912.5,-110 968.5,-110 968.5,-129"/>
<text text-anchor="middle" x="940.5" y="-117" font-family="Helvetica,sans-Serif" font-size="10.00">optional</text>
</a>
</g>
</g>
<!-- Node8&#45;&gt;Node9 -->
<g id="edge9_Node000008_Node000009" class="edge">
<title>Node8&#45;&gt;Node9</title>
<g id="a_edge9_Node000008_Node000009"><a xlink:title=" ">
<path fill="none" stroke="#63b8ff" d="M838.31,-274.74C855.45,-248.87 906.06,-172.48 928.98,-137.88"/>
<polygon fill="#63b8ff" stroke="#63b8ff" points="932.06,-139.58 934.66,-129.31 926.22,-135.71 932.06,-139.58"/>
</a>
</g>
</g>
<!-- Node10 -->
<g id="Node000010" class="node">
<title>Node10</title>
<g id="a_Node000010"><a xlink:title=" ">
<polygon fill="#e0e0e0" stroke="#999999" points="621,-74 580,-74 580,-55 621,-55 621,-74"/>
<text text-anchor="middle" x="600.5" y="-62" font-family="Helvetica,sans-Serif" font-size="10.00">tuple</text>
</a>
</g>
</g>
<!-- Node8&#45;&gt;Node10 -->
<g id="edge11_Node000008_Node000010" class="edge">
<title>Node8&#45;&gt;Node10</title>
<g id="a_edge11_Node000008_Node000010"><a xlink:title=" ">
<path fill="none" stroke="#63b8ff" d="M861.44,-274.98C935.5,-251.84 1121.46,-184.52 1053.5,-110 1024.18,-77.85 706.74,-78.91 663.5,-74 653,-72.81 641.54,-71.32 631.31,-69.92"/>
<polygon fill="#63b8ff" stroke="#63b8ff" points="631.57,-66.42 621.19,-68.51 630.61,-73.36 631.57,-66.42"/>
</a>
</g>
</g>
<!-- Node11 -->
<g id="Node000011" class="node">
<title>Node11</title>
<g id="a_Node000011"><a xlink:title=" ">
<polygon fill="#e0e0e0" stroke="#999999" points="737,-74 672,-74 672,-55 737,-55 737,-74"/>
<text text-anchor="middle" x="704.5" y="-62" font-family="Helvetica,sans-Serif" font-size="10.00">functional</text>
</a>
</g>
</g>
<!-- Node8&#45;&gt;Node11 -->
<g id="edge14_Node000008_Node000011" class="edge">
<title>Node8&#45;&gt;Node11</title>
<g id="a_edge14_Node000008_Node000011"><a xlink:title=" ">
<path fill="none" stroke="#63b8ff" d="M893.68,-280.2C956.57,-275.45 1048.6,-264.3 1072.5,-239 1112.11,-197.08 1124.85,-153.07 1086.5,-110 1064.22,-84.98 842.03,-71.84 747.12,-67.33"/>
<polygon fill="#63b8ff" stroke="#63b8ff" points="747.15,-63.83 737,-66.86 746.83,-70.82 747.15,-63.83"/>
</a>
</g>
</g>
<!-- Node8&#45;&gt;Node12 -->
<g id="edge15_Node000008_Node000012" class="edge">
<title>Node8&#45;&gt;Node12</title>
<g id="a_edge15_Node000008_Node000012"><a xlink:title=" ">
<path fill="none" stroke="#63b8ff" d="M771.49,-276.52C683.66,-266.46 522.33,-247.99 433.08,-237.78"/>
<polygon fill="#63b8ff" stroke="#63b8ff" points="433.43,-234.29 423.09,-236.63 432.63,-241.25 433.43,-234.29"/>
</a>
</g>
</g>
<!-- Node8&#45;&gt;Node17 -->
<g id="edge49_Node000008_Node000017" class="edge">
<title>Node8&#45;&gt;Node17</title>
<g id="a_edge49_Node000008_Node000017"><a xlink:title=" ">
<path fill="none" stroke="#63b8ff" d="M822.03,-274.66C800.26,-256.3 749.91,-213.81 722.71,-190.87"/>
<polygon fill="#63b8ff" stroke="#63b8ff" points="724.66,-187.93 714.76,-184.16 720.15,-193.28 724.66,-187.93"/>
</a>
</g>
</g>
<!-- Node19 -->
<g id="Node000019" class="node">
<title>Node19</title>
<g id="a_Node000019"><a xlink:href="error_8h.html" target="_top" xlink:title=" ">
<polygon fill="white" stroke="#666666" points="818,-129 733,-129 733,-110 818,-110 818,-129"/>
<text text-anchor="middle" x="775.5" y="-117" font-family="Helvetica,sans-Serif" font-size="10.00">Library/error.h</text>
</a>
</g>
</g>
<!-- Node8&#45;&gt;Node19 -->
<g id="edge51_Node000008_Node000019" class="edge">
<title>Node8&#45;&gt;Node19</title>
<g id="a_edge51_Node000008_Node000019"><a xlink:title=" ">
<path fill="none" stroke="#63b8ff" d="M829.44,-274.74C820.47,-249.09 794.13,-173.78 781.89,-138.78"/>
<polygon fill="#63b8ff" stroke="#63b8ff" points="785.18,-137.59 778.58,-129.31 778.58,-139.9 785.18,-137.59"/>
</a>
</g>
</g>
<!-- Node12&#45;&gt;Node2 -->
<g id="edge17_Node000012_Node000002" class="edge">
<title>Node12&#45;&gt;Node2</title>
<g id="a_edge17_Node000012_Node000002"><a xlink:title=" ">
<path fill="none" stroke="#63b8ff" d="M423.16,-225.48C502.49,-220.41 655.47,-208.24 783.5,-184 854.26,-170.6 934.97,-146.44 980.11,-132.09"/>
<polygon fill="#63b8ff" stroke="#63b8ff" points="981.27,-135.4 989.72,-129.02 979.13,-128.73 981.27,-135.4"/>
</a>
</g>
</g>
<!-- Node12&#45;&gt;Node3 -->
<g id="edge22_Node000012_Node000003" class="edge">
<title>Node12&#45;&gt;Node3</title>
<g id="a_edge22_Node000012_Node000003"><a xlink:title=" ">
<path fill="none" stroke="#63b8ff" d="M423.32,-226.02C510.44,-221.41 687.55,-209.58 835.5,-184 933.96,-166.98 962.19,-169.58 1053.5,-129 1082.32,-116.19 1111.98,-94.8 1130.33,-80.43"/>
<polygon fill="#63b8ff" stroke="#63b8ff" points="1132.74,-82.98 1138.37,-74 1128.37,-77.51 1132.74,-82.98"/>
</a>
</g>
</g>
<!-- Node12&#45;&gt;Node4 -->
<g id="edge26_Node000012_Node000004" class="edge">
<title>Node12&#45;&gt;Node4</title>
<g id="a_edge26_Node000012_Node000004"><a xlink:title=" ">
<path fill="none" stroke="#63b8ff" d="M315.85,-224.78C259.72,-219.65 177.09,-208.12 157.5,-184 131.59,-152.09 169.5,-105.5 193.44,-81.35"/>
<polygon fill="#63b8ff" stroke="#63b8ff" points="196.2,-83.55 200.92,-74.07 191.31,-78.54 196.2,-83.55"/>
</a>
</g>
</g>
<!-- Node12&#45;&gt;Node5 -->
<g id="edge23_Node000012_Node000005" class="edge">
<title>Node12&#45;&gt;Node5</title>
<g id="a_edge23_Node000012_Node000005"><a xlink:title=" ">
<path fill="none" stroke="#63b8ff" d="M315.78,-225.47C256.5,-220.86 166.63,-209.74 145.5,-184 134.24,-170.29 87.53,-250.44 148.5,-55 151.61,-45.02 157.65,-35.16 163.42,-27.26"/>
<polygon fill="#63b8ff" stroke="#63b8ff" points="166.25,-29.32 169.64,-19.28 160.73,-25.01 166.25,-29.32"/>
</a>
</g>
</g>
<!-- Node12&#45;&gt;Node6 -->
<g id="edge20_Node000012_Node000006" class="edge">
<title>Node12&#45;&gt;Node6</title>
<g id="a_edge20_Node000012_Node000006"><a xlink:title=" ">
<path fill="none" stroke="#63b8ff" d="M315.81,-223C258.46,-216.23 172.2,-203.23 145.5,-184 90.67,-144.51 61.95,-64.63 51.36,-28.71"/>
<polygon fill="#63b8ff" stroke="#63b8ff" points="54.73,-27.75 48.65,-19.07 47.99,-29.65 54.73,-27.75"/>
</a>
</g>
</g>
<!-- Node12&#45;&gt;Node7 -->
<g id="edge18_Node000012_Node000007" class="edge">
<title>Node12&#45;&gt;Node7</title>
<g id="a_edge18_Node000012_Node000007"><a xlink:title=" ">
<path fill="none" stroke="#63b8ff" d="M361.36,-219.76C336.63,-192.17 266.79,-105.77 311.5,-55 332.31,-31.37 546.04,-16.93 628.39,-12.21"/>
<polygon fill="#63b8ff" stroke="#63b8ff" points="628.65,-15.7 638.44,-11.65 628.26,-8.72 628.65,-15.7"/>
</a>
</g>
</g>
<!-- Node12&#45;&gt;Node10 -->
<g id="edge19_Node000012_Node000010" class="edge">
<title>Node12&#45;&gt;Node10</title>
<g id="a_edge19_Node000012_Node000010"><a xlink:title=" ">
<path fill="none" stroke="#63b8ff" d="M410.35,-219.98C458.16,-207.9 536.51,-181.2 581.5,-129 592.18,-116.61 596.86,-98.39 598.91,-84.64"/>
<polygon fill="#63b8ff" stroke="#63b8ff" points="602.42,-84.71 600.08,-74.37 595.47,-83.91 602.42,-84.71"/>
</a>
</g>
</g>
<!-- Node13 -->
<g id="Node000013" class="node">
<title>Node13</title>
<g id="a_Node000013"><a xlink:title=" ">
<polygon fill="#e0e0e0" stroke="#999999" points="220,-184 167,-184 167,-165 220,-165 220,-184"/>
<text text-anchor="middle" x="193.5" y="-172" font-family="Helvetica,sans-Serif" font-size="10.00">iterator</text>
</a>
</g>
</g>
<!-- Node12&#45;&gt;Node13 -->
<g id="edge16_Node000012_Node000013" class="edge">
<title>Node12&#45;&gt;Node13</title>
<g id="a_edge16_Node000012_Node000013"><a xlink:title=" ">
<path fill="none" stroke="#63b8ff" d="M341.22,-219.98C311.02,-210.89 263.04,-196.44 230,-186.49"/>
<polygon fill="#63b8ff" stroke="#63b8ff" points="230.85,-183.09 220.26,-183.56 228.83,-189.79 230.85,-183.09"/>
</a>
</g>
</g>
<!-- Node14 -->
<g id="Node000014" class="node">
<title>Node14</title>
<g id="a_Node000014"><a xlink:title=" ">
<polygon fill="#e0e0e0" stroke="#999999" points="445.5,-74 407.5,-74 407.5,-55 445.5,-55 445.5,-74"/>
<text text-anchor="middle" x="426.5" y="-62" font-family="Helvetica,sans-Serif" font-size="10.00">map</text>
</a>
</g>
</g>
<!-- Node12&#45;&gt;Node14 -->
<g id="edge21_Node000012_Node000014" class="edge">
<title>Node12&#45;&gt;Node14</title>
<g id="a_edge21_Node000012_Node000014"><a xlink:title=" ">
<path fill="none" stroke="#63b8ff" d="M372.56,-219.74C381.53,-194.09 407.87,-118.78 420.11,-83.78"/>
<polygon fill="#63b8ff" stroke="#63b8ff" points="423.42,-84.9 423.42,-74.31 416.82,-82.59 423.42,-84.9"/>
</a>
</g>
</g>
<!-- Node15 -->
<g id="Node000015" class="node">
<title>Node15</title>
<g id="a_Node000015"><a xlink:title=" ">
<polygon fill="#e0e0e0" stroke="#999999" points="284.5,-184 238.5,-184 238.5,-165 284.5,-165 284.5,-184"/>
<text text-anchor="middle" x="261.5" y="-172" font-family="Helvetica,sans-Serif" font-size="10.00">future</text>
</a>
</g>
</g>
<!-- Node12&#45;&gt;Node15 -->
<g id="edge24_Node000012_Node000015" class="edge">
<title>Node12&#45;&gt;Node15</title>
<g id="a_edge24_Node000012_Node000015"><a xlink:title=" ">
<path fill="none" stroke="#63b8ff" d="M352.15,-219.98C334.93,-211.54 308.3,-198.47 288.35,-188.68"/>
<polygon fill="#63b8ff" stroke="#63b8ff" points="289.69,-185.43 279.17,-184.17 286.6,-191.72 289.69,-185.43"/>
</a>
</g>
</g>
<!-- Node16 -->
<g id="Node000016" class="node">
<title>Node16</title>
<g id="a_Node000016"><a xlink:title=" ">
<polygon fill="#e0e0e0" stroke="#999999" points="380.5,-74 320.5,-74 320.5,-55 380.5,-55 380.5,-74"/>
<text text-anchor="middle" x="350.5" y="-62" font-family="Helvetica,sans-Serif" font-size="10.00">iostream</text>
</a>
</g>
</g>
<!-- Node12&#45;&gt;Node16 -->
<g id="edge25_Node000012_Node000016" class="edge">
<title>Node12&#45;&gt;Node16</title>
<g id="a_edge25_Node000012_Node000016"><a xlink:title=" ">
<path fill="none" stroke="#63b8ff" d="M368.48,-219.74C365.51,-194.31 356.86,-120.08 352.74,-84.69"/>
<polygon fill="#63b8ff" stroke="#63b8ff" points="356.16,-83.83 351.53,-74.31 349.21,-84.64 356.16,-83.83"/>
</a>
</g>
</g>
<!-- Node12&#45;&gt;Node17 -->
<g id="edge27_Node000012_Node000017" class="edge">
<title>Node12&#45;&gt;Node17</title>
<g id="a_edge27_Node000012_Node000017"><a xlink:title=" ">
<path fill="none" stroke="#63b8ff" d="M423.32,-219.98C482.45,-210.63 577.37,-195.61 640.33,-185.65"/>
<polygon fill="#63b8ff" stroke="#63b8ff" points="641.2,-189.06 650.53,-184.04 640.11,-182.14 641.2,-189.06"/>
</a>
</g>
</g>
<!-- Node17&#45;&gt;Node2 -->
<g id="edge32_Node000017_Node000002" class="edge">
<title>Node17&#45;&gt;Node2</title>
<g id="a_edge32_Node000017_Node000002"><a xlink:title=" ">
<path fill="none" stroke="#63b8ff" d="M762.99,-164.98C816.12,-157.01 896.87,-144.32 976.31,-129.13"/>
<polygon fill="#63b8ff" stroke="#63b8ff" points="977.33,-132.5 986.49,-127.17 976.01,-125.63 977.33,-132.5"/>
</a>
</g>
</g>
<!-- Node17&#45;&gt;Node3 -->
<g id="edge30_Node000017_Node000003" class="edge">
<title>Node17&#45;&gt;Node3</title>
<g id="a_edge30_Node000017_Node000003"><a xlink:title=" ">
<path fill="none" stroke="#63b8ff" d="M739.64,-164.96C771.54,-156.86 819.71,-143.75 860.5,-129 880.15,-121.9 883.53,-116.13 903.5,-110 977.65,-87.23 1068.22,-74.52 1115.76,-68.95"/>
<polygon fill="#63b8ff" stroke="#63b8ff" points="1116.24,-72.42 1125.78,-67.81 1115.45,-65.46 1116.24,-72.42"/>
</a>
</g>
</g>
<!-- Node17&#45;&gt;Node4 -->
<g id="edge37_Node000017_Node000004" class="edge">
<title>Node17&#45;&gt;Node4</title>
<g id="a_edge37_Node000017_Node000004"><a xlink:title=" ">
<path fill="none" stroke="#63b8ff" d="M634.91,-167.4C571.4,-160.93 475.26,-148.84 393.5,-129 338.24,-115.59 276.13,-92.19 240.34,-77.85"/>
<polygon fill="#63b8ff" stroke="#63b8ff" points="241.55,-74.56 230.97,-74.06 238.93,-81.05 241.55,-74.56"/>
</a>
</g>
</g>
<!-- Node17&#45;&gt;Node5 -->
<g id="edge31_Node000017_Node000005" class="edge">
<title>Node17&#45;&gt;Node5</title>
<g id="a_edge31_Node000017_Node000005"><a xlink:title=" ">
<path fill="none" stroke="#63b8ff" d="M634.89,-169.27C558.91,-163.73 434.01,-151.89 328.5,-129 250.07,-111.98 203.83,-138.82 156.5,-74 146.38,-60.13 154.95,-41.1 164.01,-27.49"/>
<polygon fill="#63b8ff" stroke="#63b8ff" points="167.08,-29.22 170.13,-19.07 161.42,-25.1 167.08,-29.22"/>
</a>
</g>
</g>
<!-- Node17&#45;&gt;Node7 -->
<g id="edge29_Node000017_Node000007" class="edge">
<title>Node17&#45;&gt;Node7</title>
<g id="a_edge29_Node000017_Node000007"><a xlink:title=" ">
<path fill="none" stroke="#63b8ff" d="M766.6,-164.96C803.65,-156.62 841.08,-140.52 827.5,-110 803.41,-55.85 733.78,-29.17 692.43,-17.75"/>
<polygon fill="#63b8ff" stroke="#63b8ff" points="693.13,-14.32 682.57,-15.17 691.36,-21.09 693.13,-14.32"/>
</a>
</g>
</g>
<!-- Node17&#45;&gt;Node9 -->
<g id="edge35_Node000017_Node000009" class="edge">
<title>Node17&#45;&gt;Node9</title>
<g id="a_edge35_Node000017_Node000009"><a xlink:title=" ">
<path fill="none" stroke="#63b8ff" d="M742.42,-164.98C786.33,-155.12 858.24,-138.97 902.28,-129.08"/>
<polygon fill="#63b8ff" stroke="#63b8ff" points="903.31,-132.44 912.3,-126.83 901.78,-125.61 903.31,-132.44"/>
</a>
</g>
</g>
<!-- Node17&#45;&gt;Node11 -->
<g id="edge36_Node000017_Node000011" class="edge">
<title>Node17&#45;&gt;Node11</title>
<g id="a_edge36_Node000017_Node000011"><a xlink:title=" ">
<path fill="none" stroke="#63b8ff" d="M704.5,-164.66C704.5,-147.17 704.5,-107.8 704.5,-84.27"/>
<polygon fill="#63b8ff" stroke="#63b8ff" points="708,-84.16 704.5,-74.16 701,-84.16 708,-84.16"/>
</a>
</g>
</g>
<!-- Node17&#45;&gt;Node14 -->
<g id="edge34_Node000017_Node000014" class="edge">
<title>Node17&#45;&gt;Node14</title>
<g id="a_edge34_Node000017_Node000014"><a xlink:title=" ">
<path fill="none" stroke="#63b8ff" d="M634.7,-169.68C567.75,-164.61 472.9,-153.28 445.5,-129 433,-117.92 428.56,-98.98 427.07,-84.67"/>
<polygon fill="#63b8ff" stroke="#63b8ff" points="430.54,-84.16 426.4,-74.41 423.56,-84.62 430.54,-84.16"/>
</a>
</g>
</g>
<!-- Node17&#45;&gt;Node16 -->
<g id="edge28_Node000017_Node000016" class="edge">
<title>Node17&#45;&gt;Node16</title>
<g id="a_edge28_Node000017_Node000016"><a xlink:title=" ">
<path fill="none" stroke="#63b8ff" d="M634.74,-172.19C577.16,-168.81 494.49,-158.59 428.5,-129 403.5,-117.79 379.83,-96.46 365.27,-81.63"/>
<polygon fill="#63b8ff" stroke="#63b8ff" points="367.59,-78.99 358.16,-74.17 362.52,-83.82 367.59,-78.99"/>
</a>
</g>
</g>
<!-- Node18 -->
<g id="Node000018" class="node">
<title>Node18</title>
<g id="a_Node000018"><a xlink:title=" ">
<polygon fill="#e0e0e0" stroke="#999999" points="676.5,-129 628.5,-129 628.5,-110 676.5,-110 676.5,-129"/>
<text text-anchor="middle" x="652.5" y="-117" font-family="Helvetica,sans-Serif" font-size="10.00">mutex</text>
</a>
</g>
</g>
<!-- Node17&#45;&gt;Node18 -->
<g id="edge33_Node000017_Node000018" class="edge">
<title>Node17&#45;&gt;Node18</title>
<g id="a_edge33_Node000017_Node000018"><a xlink:title=" ">
<path fill="none" stroke="#63b8ff" d="M695.91,-164.75C688.34,-157.03 677.12,-145.6 667.99,-136.28"/>
<polygon fill="#63b8ff" stroke="#63b8ff" points="670.43,-133.78 660.93,-129.09 665.43,-138.68 670.43,-133.78"/>
</a>
</g>
</g>
<!-- Node17&#45;&gt;Node19 -->
<g id="edge38_Node000017_Node000019" class="edge">
<title>Node17&#45;&gt;Node19</title>
<g id="a_edge38_Node000017_Node000019"><a xlink:title=" ">
<path fill="none" stroke="#63b8ff" d="M715.91,-164.98C726.61,-157 742.84,-144.88 755.66,-135.31"/>
<polygon fill="#63b8ff" stroke="#63b8ff" points="757.97,-137.96 763.89,-129.17 753.78,-132.35 757.97,-137.96"/>
</a>
</g>
</g>
<!-- Node20 -->
<g id="Node000020" class="node">
<title>Node20</title>
<g id="a_Node000020"><a xlink:href="evaluate_8h.html" target="_top" xlink:title=" ">
<polygon fill="white" stroke="#666666" points="572.5,-129 454.5,-129 454.5,-110 572.5,-110 572.5,-129"/>
<text text-anchor="middle" x="513.5" y="-117" font-family="Helvetica,sans-Serif" font-size="10.00">Evaluator/evaluate.h</text>
</a>
</g>
</g>
<!-- Node17&#45;&gt;Node20 -->
<g id="edge41_Node000017_Node000020" class="edge">
<title>Node17&#45;&gt;Node20</title>
<g id="a_edge41_Node000017_Node000020"><a xlink:title=" ">
<path fill="none" stroke="#63b8ff" d="M673.81,-164.98C641.33,-155.97 589.9,-141.7 554.09,-131.76"/>
<polygon fill="#63b8ff" stroke="#63b8ff" points="555,-128.38 544.43,-129.08 553.13,-135.13 555,-128.38"/>
</a>
</g>
</g>
<!-- Node19&#45;&gt;Node7 -->
<g id="edge39_Node000019_Node000007" class="edge">
<title>Node19&#45;&gt;Node7</title>
<g id="a_edge39_Node000019_Node000007"><a xlink:title=" ">
<path fill="none" stroke="#63b8ff" d="M773.44,-109.65C769.95,-96.33 761.71,-70.98 746.5,-55 731.63,-39.39 710.08,-28.25 692.27,-21.02"/>
<polygon fill="#63b8ff" stroke="#63b8ff" points="693.41,-17.71 682.82,-17.4 690.91,-24.25 693.41,-17.71"/>
</a>
</g>
</g>
<!-- Node19&#45;&gt;Node16 -->
<g id="edge40_Node000019_Node000016" class="edge">
<title>Node19&#45;&gt;Node16</title>
<g id="a_edge40_Node000019_Node000016"><a xlink:title=" ">
<path fill="none" stroke="#63b8ff" d="M732.99,-114.29C663.06,-107.19 519.45,-91.83 398.5,-74 395.97,-73.63 393.37,-73.22 390.76,-72.8"/>
<polygon fill="#63b8ff" stroke="#63b8ff" points="391.11,-69.31 380.67,-71.12 389.96,-76.22 391.11,-69.31"/>
</a>
</g>
</g>
<!-- Node20&#45;&gt;Node3 -->
<g id="edge42_Node000020_Node000003" class="edge">
<title>Node20&#45;&gt;Node3</title>
<g id="a_edge42_Node000020_Node000003"><a xlink:title=" ">
<path fill="none" stroke="#63b8ff" d="M572.67,-113.56C703.53,-102.64 1013.92,-76.73 1115.62,-68.24"/>
<polygon fill="#63b8ff" stroke="#63b8ff" points="1116.21,-71.71 1125.88,-67.39 1115.63,-64.73 1116.21,-71.71"/>
</a>
</g>
</g>
<!-- Node20&#45;&gt;Node4 -->
<g id="edge48_Node000020_Node000004" class="edge">
<title>Node20&#45;&gt;Node4</title>
<g id="a_edge48_Node000020_Node000004"><a xlink:title=" ">
<path fill="none" stroke="#63b8ff" d="M464.82,-109.98C410.21,-100.43 321.87,-84.98 265,-75.03"/>
<polygon fill="#63b8ff" stroke="#63b8ff" points="265.57,-71.58 255.11,-73.3 264.36,-78.47 265.57,-71.58"/>
</a>
</g>
</g>
<!-- Node20&#45;&gt;Node5 -->
<g id="edge43_Node000020_Node000005" class="edge">
<title>Node20&#45;&gt;Node5</title>
<g id="a_edge43_Node000020_Node000005"><a xlink:title=" ">
<path fill="none" stroke="#63b8ff" d="M508.22,-109.81C499.15,-95.73 479.19,-68.19 454.5,-55 412.89,-32.77 275.64,-18.7 211.32,-13.17"/>
<polygon fill="#63b8ff" stroke="#63b8ff" points="211.55,-9.68 201.29,-12.33 210.96,-16.65 211.55,-9.68"/>
</a>
</g>
</g>
<!-- Node20&#45;&gt;Node7 -->
<g id="edge44_Node000020_Node000007" class="edge">
<title>Node20&#45;&gt;Node7</title>
<g id="a_edge44_Node000020_Node000007"><a xlink:title=" ">
<path fill="none" stroke="#63b8ff" d="M519.8,-109.76C529.65,-96.57 549.82,-71.38 571.5,-55 589.06,-41.73 611.19,-30.65 628.98,-22.86"/>
<polygon fill="#63b8ff" stroke="#63b8ff" points="630.53,-26.01 638.37,-18.88 627.8,-19.56 630.53,-26.01"/>
</a>
</g>
</g>
<!-- Node20&#45;&gt;Node10 -->
<g id="edge46_Node000020_Node000010" class="edge">
<title>Node20&#45;&gt;Node10</title>
<g id="a_edge46_Node000020_Node000010"><a xlink:title=" ">
<path fill="none" stroke="#63b8ff" d="M527.48,-109.98C540.97,-101.77 561.63,-89.18 577.54,-79.49"/>
<polygon fill="#63b8ff" stroke="#63b8ff" points="579.55,-82.36 586.27,-74.17 575.91,-76.38 579.55,-82.36"/>
</a>
</g>
</g>
<!-- Node20&#45;&gt;Node11 -->
<g id="edge45_Node000020_Node000011" class="edge">
<title>Node20&#45;&gt;Node11</title>
<g id="a_edge45_Node000020_Node000011"><a xlink:title=" ">
<path fill="none" stroke="#63b8ff" d="M544.19,-109.98C576.67,-100.97 628.1,-86.7 663.91,-76.76"/>
<polygon fill="#63b8ff" stroke="#63b8ff" points="664.87,-80.13 673.57,-74.08 663,-73.38 664.87,-80.13"/>
</a>
</g>
</g>
<!-- Node20&#45;&gt;Node14 -->
<g id="edge47_Node000020_Node000014" class="edge">
<title>Node20&#45;&gt;Node14</title>
<g id="a_edge47_Node000020_Node000014"><a xlink:title=" ">
<path fill="none" stroke="#63b8ff" d="M499.52,-109.98C486.03,-101.77 465.37,-89.18 449.46,-79.49"/>
<polygon fill="#63b8ff" stroke="#63b8ff" points="451.09,-76.38 440.73,-74.17 447.45,-82.36 451.09,-76.38"/>
</a>
</g>
</g>
</g>
</svg>

<g id="navigator" transform="translate(0 0)" fill="#404254">
  <rect fill="#f2f5e9" fill-opacity="0.5" stroke="#606060" stroke-width=".5" x="0" y="0" width="60" height="60"/>
  <use id="zoomplus" xlink:href="#zoomPlus" x="17" y="9" onmousedown="handleZoom(evt,'in')"/>
  <use id="zoomminus" xlink:href="#zoomMin" x="42" y="9" onmousedown="handleZoom(evt,'out')"/>
  <use id="reset" xlink:href="#resetDef" x="30" y="36" onmousedown="handleReset()"/>
   <use id="arrowup" xlink:href="#arrowUp" x="0" y="0" onmousedown="handlePan(0,-1)"/>
  <use id="arrowright" xlink:href="#arrowRight" x="0" y="0" onmousedown="handlePan(1,0)"/>
  <use id="arrowdown" xlink:href="#arrowDown" x="0" y="0" onmousedown="handlePan(0,1)"/>
  <use id="arrowleft" xlink:href="#arrowLeft" x="0" y="0" onmousedown="handlePan(-1,0)"/>
</g>
<svg viewBox="0 0 15 15" width="100%" height="30px" preserveAspectRatio="xMaxYMin meet">
 <g id="arrow_out" transform="scale(0.3 0.3)">
  <a xlink:href="simulator_8h__incl_org.svg" target="_base">
   <rect id="button" ry="5" rx="5" y="6" x="6" height="38" width="38"
        fill="#f2f5e9" fill-opacity="0.5" stroke="#606060" stroke-width="1.0"/>
   <path id="arrow"
     d="M 11.500037,31.436501 C 11.940474,20.09759 22.043105,11.32322 32.158766,21.979434 L 37.068811,17.246167 C 37.068811,17.246167 37.088388,32 37.088388,32 L 22.160133,31.978069 C 22.160133,31.978069 26.997745,27.140456 26.997745,27.140456 C 18.528582,18.264221 13.291696,25.230495 11.500037,31.436501 z"
     style="fill:#404040;"/>
  </a>
 </g>
</svg>

<style type='text/css'>
<![CDATA[
[data-mouse-over-selected='false'] { opacity: 0.7; }
[data-mouse-over-selected='true']  { opacity: 1.0; }
]]>
</style>
<script type="application/ecmascript"><![CDATA[
document.addEventListener('DOMContentLoaded', (event) => {
  highlightEdges();
  highlightAdjacentNodes();
});
]]></script>
</svg>
