<?xml version="1.0" encoding="UTF-8" standalone="no"?>
<!DOCTYPE svg PUBLIC "-//W3C//DTD SVG 1.1//EN"
 "http://www.w3.org/Graphics/SVG/1.1/DTD/svg11.dtd">
<!-- Generated by graphviz version 2.43.0 (0)
 -->
<!-- Title: include/Drivers/simulatorDriver.h Pages: 1 -->
<!--zoomable 423 -->

<svg id="main" version="1.1" xmlns="http://www.w3.org/2000/svg" xmlns:xlink="http://www.w3.org/1999/xlink" xml:space="preserve" onload="init(evt)">
<style type="text/css"><![CDATA[
.node, .edge {opacity: 0.7;}
.node.selected, .edge.selected {opacity: 1;}
.edge:hover path { stroke: red; }
.edge:hover polygon { stroke: red; fill: red; }
]]></style>

<defs>
  <circle id="rim" cx="0" cy="0" r="7"/>
  <circle id="rim2" cx="0" cy="0" r="3.5"/>
  <g id="zoomPlus">
    <use xlink:href="#rim" fill="#404040"><set attributeName="fill" to="#808080" begin="zoomplus.mouseover" end="zoomplus.mouseout"/></use>
    <path d="M-4,0h8M0,-4v8" fill="none" stroke="white" stroke-width="1.5" pointer-events="none"/>
  </g>
  <g id="zoomMin">
    <use xlink:href="#rim" fill="#404040"><set attributeName="fill" to="#808080" begin="zoomminus.mouseover" end="zoomminus.mouseout"/></use>
    <path d="M-4,0h8" fill="none" stroke="white" stroke-width="1.5" pointer-events="none"/>
  </g>
  <g id="arrowUp" transform="translate(30 24)">
    <use xlink:href="#rim"/>
    <path pointer-events="none" fill="none" stroke="white" stroke-width="1.5" d="M0,-3.0v7 M-2.5,-0.5L0,-3.0L2.5,-0.5"/>
  </g>
  <g id="arrowRight" transform="rotate(90) translate(36 -43)">
    <use xlink:href="#rim"/>
    <path pointer-events="none" fill="none" stroke="white" stroke-width="1.5" d="M0,-3.0v7 M-2.5,-0.5L0,-3.0L2.5,-0.5"/>
  </g>
  <g id="arrowDown" transform="rotate(180) translate(-30 -48)">
    <use xlink:href="#rim"/>
    <path pointer-events="none" fill="none" stroke="white" stroke-width="1.5" d="M0,-3.0v7 M-2.5,-0.5L0,-3.0L2.5,-0.5"/>
  </g>
  <g id="arrowLeft" transform="rotate(270) translate(-36 17)">
    <use xlink:href="#rim"/>
    <path pointer-events="none" fill="none" stroke="white" stroke-width="1.5" d="M0,-3.0v7 M-2.5,-0.5L0,-3.0L2.5,-0.5"/>
  </g>
  <g id="resetDef">
    <use xlink:href="#rim2" fill="#404040"><set attributeName="fill" to="#808080" begin="reset.mouseover" end="reset.mouseout"/></use>
  </g>
</defs>
<script type="application/ecmascript">
var viewWidth = 1247;
var viewHeight = 423;
var sectionId = 'dynsection-0';
</script>
<script type="application/ecmascript" xlink:href="svg.min.js"/>
<svg id="graph" class="graph">
<g id="viewport">
<title>include/Drivers/simulatorDriver.h</title>
<!-- Node1 -->
<g id="Node000001" class="node">
<title>Node1</title>
<g id="a_Node000001"><a xlink:title=" ">
<polygon fill="#999999" stroke="#666666" points="684,-415 544,-415 544,-385 684,-385 684,-415"/>
<text text-anchor="start" x="552" y="-403" font-family="Helvetica,sans-Serif" font-size="10.00">include/Drivers/simulator</text>
<text text-anchor="middle" x="614" y="-392" font-family="Helvetica,sans-Serif" font-size="10.00">Driver.h</text>
</a>
</g>
</g>
<!-- Node2 -->
<g id="Node000002" class="node">
<title>Node2</title>
<g id="a_Node000002"><a xlink:title=" ">
<polygon fill="#e0e0e0" stroke="#999999" points="931.5,-74 886.5,-74 886.5,-55 931.5,-55 931.5,-74"/>
<text text-anchor="middle" x="909" y="-62" font-family="Helvetica,sans-Serif" font-size="10.00">utility</text>
</a>
</g>
</g>
<!-- Node1&#45;&gt;Node2 -->
<g id="edge1_Node000001_Node000002" class="edge">
<title>Node1&#45;&gt;Node2</title>
<g id="a_edge1_Node000001_Node000002"><a xlink:title=" ">
<path fill="none" stroke="#63b8ff" d="M649.55,-384.98C715.34,-357.13 855.92,-288.38 928,-184 947.29,-156.06 958.75,-141.86 947,-110 942.94,-98.99 934.81,-88.86 927.1,-81.05"/>
<polygon fill="#63b8ff" stroke="#63b8ff" points="929.39,-78.39 919.71,-74.07 924.58,-83.48 929.39,-78.39"/>
</a>
</g>
</g>
<!-- Node3 -->
<g id="Node000003" class="node">
<title>Node3</title>
<g id="a_Node000003"><a xlink:href="driverModel_8h.html" target="_top" xlink:title=" ">
<polygon fill="white" stroke="#666666" points="675,-294 553,-294 553,-275 675,-275 675,-294"/>
<text text-anchor="middle" x="614" y="-282" font-family="Helvetica,sans-Serif" font-size="10.00">Drivers/driverModel.h</text>
</a>
</g>
</g>
<!-- Node1&#45;&gt;Node3 -->
<g id="edge2_Node000001_Node000003" class="edge">
<title>Node1&#45;&gt;Node3</title>
<g id="a_edge2_Node000001_Node000003"><a xlink:title=" ">
<path fill="none" stroke="#63b8ff" d="M614,-384.63C614,-364.21 614,-326.81 614,-304.24"/>
<polygon fill="#63b8ff" stroke="#63b8ff" points="617.5,-304.23 614,-294.23 610.5,-304.23 617.5,-304.23"/>
</a>
</g>
</g>
<!-- Node21 -->
<g id="Node000021" class="node">
<title>Node21</title>
<g id="a_Node000021"><a xlink:href="simulator_8h.html" target="_top" xlink:title=" ">
<polygon fill="white" stroke="#666666" points="577,-349 455,-349 455,-330 577,-330 577,-349"/>
<text text-anchor="middle" x="516" y="-337" font-family="Helvetica,sans-Serif" font-size="10.00">Simulator/simulator.h</text>
</a>
</g>
</g>
<!-- Node1&#45;&gt;Node21 -->
<g id="edge47_Node000001_Node000021" class="edge">
<title>Node1&#45;&gt;Node21</title>
<g id="a_edge47_Node000001_Node000021"><a xlink:title=" ">
<path fill="none" stroke="#63b8ff" d="M590.28,-384.84C574.8,-375.6 554.68,-363.59 539.29,-354.4"/>
<polygon fill="#63b8ff" stroke="#63b8ff" points="540.78,-351.21 530.4,-349.09 537.19,-357.23 540.78,-351.21"/>
</a>
</g>
</g>
<!-- Node3&#45;&gt;Node2 -->
<g id="edge7_Node000003_Node000002" class="edge">
<title>Node3&#45;&gt;Node2</title>
<g id="a_edge7_Node000003_Node000002"><a xlink:title=" ">
<path fill="none" stroke="#63b8ff" d="M673.61,-274.98C711.02,-268.26 759.65,-256.95 800,-239 839.42,-221.46 849.45,-214.47 880,-184 901.03,-163.02 909.15,-157.36 918,-129 922.61,-114.22 919.56,-96.76 915.8,-83.89"/>
<polygon fill="#63b8ff" stroke="#63b8ff" points="919.1,-82.72 912.64,-74.32 912.46,-84.92 919.1,-82.72"/>
</a>
</g>
</g>
<!-- Node4 -->
<g id="Node000004" class="node">
<title>Node4</title>
<g id="a_Node000004"><a xlink:title=" ">
<polygon fill="#e0e0e0" stroke="#999999" points="314,-129 256,-129 256,-110 314,-110 314,-129"/>
<text text-anchor="middle" x="285" y="-117" font-family="Helvetica,sans-Serif" font-size="10.00">memory</text>
</a>
</g>
</g>
<!-- Node3&#45;&gt;Node4 -->
<g id="edge3_Node000003_Node000004" class="edge">
<title>Node3&#45;&gt;Node4</title>
<g id="a_edge3_Node000003_Node000004"><a xlink:title=" ">
<path fill="none" stroke="#63b8ff" d="M599.92,-274.95C565.93,-254.52 476.42,-201.77 398,-165 371.89,-152.76 341.43,-140.9 318.72,-132.5"/>
<polygon fill="#63b8ff" stroke="#63b8ff" points="319.77,-129.16 309.18,-129.01 317.37,-135.74 319.77,-129.16"/>
</a>
</g>
</g>
<!-- Node5 -->
<g id="Node000005" class="node">
<title>Node5</title>
<g id="a_Node000005"><a xlink:title=" ">
<polygon fill="#e0e0e0" stroke="#999999" points="894,-129 838,-129 838,-110 894,-110 894,-129"/>
<text text-anchor="middle" x="866" y="-117" font-family="Helvetica,sans-Serif" font-size="10.00">optional</text>
</a>
</g>
</g>
<!-- Node3&#45;&gt;Node5 -->
<g id="edge4_Node000003_Node000005" class="edge">
<title>Node3&#45;&gt;Node5</title>
<g id="a_edge4_Node000003_Node000005"><a xlink:title=" ">
<path fill="none" stroke="#63b8ff" d="M627.19,-274.97C668.09,-248.51 793.06,-167.68 844.02,-134.72"/>
<polygon fill="#63b8ff" stroke="#63b8ff" points="846.14,-137.52 852.63,-129.15 842.34,-131.64 846.14,-137.52"/>
</a>
</g>
</g>
<!-- Node6 -->
<g id="Node000006" class="node">
<title>Node6</title>
<g id="a_Node000006"><a xlink:title=" ">
<polygon fill="#e0e0e0" stroke="#999999" points="888,-19 844,-19 844,0 888,0 888,-19"/>
<text text-anchor="middle" x="866" y="-7" font-family="Helvetica,sans-Serif" font-size="10.00">string</text>
</a>
</g>
</g>
<!-- Node3&#45;&gt;Node6 -->
<g id="edge5_Node000003_Node000006" class="edge">
<title>Node3&#45;&gt;Node6</title>
<g id="a_edge5_Node000003_Node000006"><a xlink:title=" ">
<path fill="none" stroke="#63b8ff" d="M675.23,-281.57C784.24,-277.49 1007.35,-266.03 1080,-239 1159.17,-209.54 1196.23,-204.05 1235,-129 1245.18,-109.29 1233.01,-64.88 1222,-55 1174.74,-12.58 976.91,-9.5 898.35,-10.01"/>
<polygon fill="#63b8ff" stroke="#63b8ff" points="898.05,-6.51 888.09,-10.1 898.12,-13.51 898.05,-6.51"/>
</a>
</g>
</g>
<!-- Node7 -->
<g id="Node000007" class="node">
<title>Node7</title>
<g id="a_Node000007"><a xlink:title=" ">
<polygon fill="#e0e0e0" stroke="#999999" points="160.5,-19 67.5,-19 67.5,0 160.5,0 160.5,-19"/>
<text text-anchor="middle" x="114" y="-7" font-family="Helvetica,sans-Serif" font-size="10.00">unordered_map</text>
</a>
</g>
</g>
<!-- Node3&#45;&gt;Node7 -->
<g id="edge6_Node000003_Node000007" class="edge">
<title>Node3&#45;&gt;Node7</title>
<g id="a_edge6_Node000003_Node000007"><a xlink:title=" ">
<path fill="none" stroke="#63b8ff" d="M552.81,-277.59C411.8,-263.14 76,-223.67 76,-175.5 76,-175.5 76,-175.5 76,-118.5 76,-85.02 92.45,-48.84 103.7,-28.01"/>
<polygon fill="#63b8ff" stroke="#63b8ff" points="106.87,-29.53 108.72,-19.1 100.76,-26.1 106.87,-29.53"/>
</a>
</g>
</g>
<!-- Node8 -->
<g id="Node000008" class="node">
<title>Node8</title>
<g id="a_Node000008"><a xlink:title=" ">
<polygon fill="#e0e0e0" stroke="#999999" points="743.5,-74 678.5,-74 678.5,-55 743.5,-55 743.5,-74"/>
<text text-anchor="middle" x="711" y="-62" font-family="Helvetica,sans-Serif" font-size="10.00">functional</text>
</a>
</g>
</g>
<!-- Node3&#45;&gt;Node8 -->
<g id="edge8_Node000003_Node000008" class="edge">
<title>Node3&#45;&gt;Node8</title>
<g id="a_edge8_Node000003_Node000008"><a xlink:title=" ">
<path fill="none" stroke="#63b8ff" d="M658.39,-274.96C725.6,-259.36 850.89,-219.14 903,-129 907.23,-121.69 908.25,-116.61 903,-110 884.73,-87.01 804.62,-74.84 753.83,-69.32"/>
<polygon fill="#63b8ff" stroke="#63b8ff" points="754.08,-65.83 743.78,-68.27 753.36,-72.79 754.08,-65.83"/>
</a>
</g>
</g>
<!-- Node9 -->
<g id="Node000009" class="node">
<title>Node9</title>
<g id="a_Node000009"><a xlink:href="channel_8h.html" target="_top" xlink:title=" ">
<polygon fill="white" stroke="#666666" points="449.5,-239 342.5,-239 342.5,-220 449.5,-220 449.5,-239"/>
<text text-anchor="middle" x="396" y="-227" font-family="Helvetica,sans-Serif" font-size="10.00">Channel/channel.h</text>
</a>
</g>
</g>
<!-- Node3&#45;&gt;Node9 -->
<g id="edge9_Node000003_Node000009" class="edge">
<title>Node3&#45;&gt;Node9</title>
<g id="a_edge9_Node000003_Node000009"><a xlink:title=" ">
<path fill="none" stroke="#63b8ff" d="M578.97,-274.98C541.5,-265.87 481.95,-251.4 441.02,-241.45"/>
<polygon fill="#63b8ff" stroke="#63b8ff" points="441.84,-238.04 431.3,-239.08 440.19,-244.85 441.84,-238.04"/>
</a>
</g>
</g>
<!-- Node15 -->
<g id="Node000015" class="node">
<title>Node15</title>
<g id="a_Node000015"><a xlink:href="types_8h.html" target="_top" xlink:title=" ">
<polygon fill="white" stroke="#666666" points="350.5,-74 261.5,-74 261.5,-55 350.5,-55 350.5,-74"/>
<text text-anchor="middle" x="306" y="-62" font-family="Helvetica,sans-Serif" font-size="10.00">Library/types.h</text>
</a>
</g>
</g>
<!-- Node3&#45;&gt;Node15 -->
<g id="edge45_Node000003_Node000015" class="edge">
<title>Node3&#45;&gt;Node15</title>
<g id="a_edge45_Node000003_Node000015"><a xlink:title=" ">
<path fill="none" stroke="#63b8ff" d="M603.49,-274.58C588.56,-262.03 560.21,-238.59 535,-220 460.89,-165.36 369.15,-105.78 327.9,-79.4"/>
<polygon fill="#63b8ff" stroke="#63b8ff" points="329.75,-76.43 319.43,-74 325.98,-82.33 329.75,-76.43"/>
</a>
</g>
</g>
<!-- Node16 -->
<g id="Node000016" class="node">
<title>Node16</title>
<g id="a_Node000016"><a xlink:href="transaction_8h_source.html" target="_top" xlink:title=" ">
<polygon fill="white" stroke="#666666" points="683.5,-184 544.5,-184 544.5,-165 683.5,-165 683.5,-184"/>
<text text-anchor="middle" x="614" y="-172" font-family="Helvetica,sans-Serif" font-size="10.00">Transaction/transaction.h</text>
</a>
</g>
</g>
<!-- Node3&#45;&gt;Node16 -->
<g id="edge44_Node000003_Node000016" class="edge">
<title>Node3&#45;&gt;Node16</title>
<g id="a_edge44_Node000003_Node000016"><a xlink:title=" ">
<path fill="none" stroke="#63b8ff" d="M614,-274.66C614,-257.17 614,-217.8 614,-194.27"/>
<polygon fill="#63b8ff" stroke="#63b8ff" points="617.5,-194.16 614,-184.16 610.5,-194.16 617.5,-194.16"/>
</a>
</g>
</g>
<!-- Node18 -->
<g id="Node000018" class="node">
<title>Node18</title>
<g id="a_Node000018"><a xlink:href="error_8h.html" target="_top" xlink:title=" ">
<polygon fill="white" stroke="#666666" points="1225.5,-129 1140.5,-129 1140.5,-110 1225.5,-110 1225.5,-129"/>
<text text-anchor="middle" x="1183" y="-117" font-family="Helvetica,sans-Serif" font-size="10.00">Library/error.h</text>
</a>
</g>
</g>
<!-- Node3&#45;&gt;Node18 -->
<g id="edge46_Node000003_Node000018" class="edge">
<title>Node3&#45;&gt;Node18</title>
<g id="a_edge46_Node000003_Node000018"><a xlink:title=" ">
<path fill="none" stroke="#63b8ff" d="M675.26,-281.88C779,-278.37 984.37,-267.9 1050,-239 1102.64,-215.82 1148.99,-163.78 1170.41,-137.05"/>
<polygon fill="#63b8ff" stroke="#63b8ff" points="1173.28,-139.06 1176.69,-129.03 1167.77,-134.74 1173.28,-139.06"/>
</a>
</g>
</g>
<!-- Node9&#45;&gt;Node2 -->
<g id="edge16_Node000009_Node000002" class="edge">
<title>Node9&#45;&gt;Node2</title>
<g id="a_edge16_Node000009_Node000002"><a xlink:title=" ">
<path fill="none" stroke="#63b8ff" d="M449.82,-226.11C568.12,-219.62 844.87,-197.32 903,-129 913.42,-116.76 913.95,-97.98 912.46,-84.01"/>
<polygon fill="#63b8ff" stroke="#63b8ff" points="915.91,-83.44 910.98,-74.06 908.99,-84.47 915.91,-83.44"/>
</a>
</g>
</g>
<!-- Node9&#45;&gt;Node4 -->
<g id="edge11_Node000009_Node000004" class="edge">
<title>Node9&#45;&gt;Node4</title>
<g id="a_edge11_Node000009_Node000004"><a xlink:title=" ">
<path fill="none" stroke="#63b8ff" d="M395.73,-219.65C394.87,-206.31 391.44,-180.95 378,-165 364.05,-148.45 342.53,-137.61 323.7,-130.77"/>
<polygon fill="#63b8ff" stroke="#63b8ff" points="324.75,-127.43 314.16,-127.55 322.51,-134.06 324.75,-127.43"/>
</a>
</g>
</g>
<!-- Node9&#45;&gt;Node6 -->
<g id="edge12_Node000009_Node000006" class="edge">
<title>Node9&#45;&gt;Node6</title>
<g id="a_edge12_Node000009_Node000006"><a xlink:title=" ">
<path fill="none" stroke="#63b8ff" d="M449.56,-225.76C548.78,-220.23 757.29,-206.31 826,-184 872.4,-168.93 889.67,-166.4 921,-129 937.7,-109.06 936.49,-99.62 941,-74 942.47,-65.68 945.18,-62.34 941,-55 931.69,-38.66 913.76,-27.7 897.76,-20.74"/>
<polygon fill="#63b8ff" stroke="#63b8ff" points="898.73,-17.36 888.15,-16.92 896.15,-23.87 898.73,-17.36"/>
</a>
</g>
</g>
<!-- Node9&#45;&gt;Node7 -->
<g id="edge14_Node000009_Node000007" class="edge">
<title>Node9&#45;&gt;Node7</title>
<g id="a_edge14_Node000009_Node000007"><a xlink:title=" ">
<path fill="none" stroke="#63b8ff" d="M342.47,-222.95C288.05,-216.32 208.5,-203.6 185,-184 136.73,-143.75 120.89,-65.5 116.01,-29.48"/>
<polygon fill="#63b8ff" stroke="#63b8ff" points="119.46,-28.88 114.79,-19.38 112.51,-29.72 119.46,-28.88"/>
</a>
</g>
</g>
<!-- Node10 -->
<g id="Node000010" class="node">
<title>Node10</title>
<g id="a_Node000010"><a xlink:title=" ">
<polygon fill="#e0e0e0" stroke="#999999" points="271.5,-184 218.5,-184 218.5,-165 271.5,-165 271.5,-184"/>
<text text-anchor="middle" x="245" y="-172" font-family="Helvetica,sans-Serif" font-size="10.00">iterator</text>
</a>
</g>
</g>
<!-- Node9&#45;&gt;Node10 -->
<g id="edge10_Node000009_Node000010" class="edge">
<title>Node9&#45;&gt;Node10</title>
<g id="a_edge10_Node000009_Node000010"><a xlink:title=" ">
<path fill="none" stroke="#63b8ff" d="M371.74,-219.98C346.68,-211.19 307.37,-197.39 279.17,-187.49"/>
<polygon fill="#63b8ff" stroke="#63b8ff" points="280.3,-184.18 269.7,-184.17 277.98,-190.78 280.3,-184.18"/>
</a>
</g>
</g>
<!-- Node11 -->
<g id="Node000011" class="node">
<title>Node11</title>
<g id="a_Node000011"><a xlink:title=" ">
<polygon fill="#e0e0e0" stroke="#999999" points="409.5,-74 368.5,-74 368.5,-55 409.5,-55 409.5,-74"/>
<text text-anchor="middle" x="389" y="-62" font-family="Helvetica,sans-Serif" font-size="10.00">tuple</text>
</a>
</g>
</g>
<!-- Node9&#45;&gt;Node11 -->
<g id="edge13_Node000009_Node000011" class="edge">
<title>Node9&#45;&gt;Node11</title>
<g id="a_edge13_Node000009_Node000011"><a xlink:title=" ">
<path fill="none" stroke="#63b8ff" d="M342.42,-223.08C293.17,-216.87 225.39,-204.75 209,-184 187.11,-156.29 225.44,-125.88 247,-110 251.63,-106.59 318.41,-86.43 358.72,-74.44"/>
<polygon fill="#63b8ff" stroke="#63b8ff" points="359.75,-77.79 368.34,-71.59 357.76,-71.08 359.75,-77.79"/>
</a>
</g>
</g>
<!-- Node12 -->
<g id="Node000012" class="node">
<title>Node12</title>
<g id="a_Node000012"><a xlink:title=" ">
<polygon fill="#e0e0e0" stroke="#999999" points="466,-74 428,-74 428,-55 466,-55 466,-74"/>
<text text-anchor="middle" x="447" y="-62" font-family="Helvetica,sans-Serif" font-size="10.00">map</text>
</a>
</g>
</g>
<!-- Node9&#45;&gt;Node12 -->
<g id="edge15_Node000009_Node000012" class="edge">
<title>Node9&#45;&gt;Node12</title>
<g id="a_edge15_Node000009_Node000012"><a xlink:title=" ">
<path fill="none" stroke="#63b8ff" d="M398.74,-219.74C406.73,-194.2 430.13,-119.43 441.14,-84.23"/>
<polygon fill="#63b8ff" stroke="#63b8ff" points="444.6,-84.9 444.24,-74.31 437.92,-82.81 444.6,-84.9"/>
</a>
</g>
</g>
<!-- Node13 -->
<g id="Node000013" class="node">
<title>Node13</title>
<g id="a_Node000013"><a xlink:title=" ">
<polygon fill="#e0e0e0" stroke="#999999" points="423.5,-19 376.5,-19 376.5,0 423.5,0 423.5,-19"/>
<text text-anchor="middle" x="400" y="-7" font-family="Helvetica,sans-Serif" font-size="10.00">vector</text>
</a>
</g>
</g>
<!-- Node9&#45;&gt;Node13 -->
<g id="edge17_Node000009_Node000013" class="edge">
<title>Node9&#45;&gt;Node13</title>
<g id="a_edge17_Node000009_Node000013"><a xlink:title=" ">
<path fill="none" stroke="#63b8ff" d="M342.03,-223.77C290,-217.96 216.62,-206.05 199,-184 160.3,-135.58 203.6,-93.72 252,-55 285.13,-28.49 333.8,-17.75 366.17,-13.42"/>
<polygon fill="#63b8ff" stroke="#63b8ff" points="366.97,-16.85 376.48,-12.18 366.13,-9.9 366.97,-16.85"/>
</a>
</g>
</g>
<!-- Node14 -->
<g id="Node000014" class="node">
<title>Node14</title>
<g id="a_Node000014"><a xlink:title=" ">
<polygon fill="#e0e0e0" stroke="#999999" points="336,-184 290,-184 290,-165 336,-165 336,-184"/>
<text text-anchor="middle" x="313" y="-172" font-family="Helvetica,sans-Serif" font-size="10.00">future</text>
</a>
</g>
</g>
<!-- Node9&#45;&gt;Node14 -->
<g id="edge18_Node000009_Node000014" class="edge">
<title>Node9&#45;&gt;Node14</title>
<g id="a_edge18_Node000009_Node000014"><a xlink:title=" ">
<path fill="none" stroke="#63b8ff" d="M382.66,-219.98C369.91,-211.84 350.45,-199.41 335.33,-189.76"/>
<polygon fill="#63b8ff" stroke="#63b8ff" points="336.89,-186.6 326.58,-184.17 333.12,-192.5 336.89,-186.6"/>
</a>
</g>
</g>
<!-- Node9&#45;&gt;Node15 -->
<g id="edge19_Node000009_Node000015" class="edge">
<title>Node9&#45;&gt;Node15</title>
<g id="a_edge19_Node000009_Node000015"><a xlink:title=" ">
<path fill="none" stroke="#63b8ff" d="M391.18,-219.86C383.23,-206.34 366.13,-180.18 345,-165 307.32,-137.92 273.56,-167.05 247,-129 233.81,-110.1 257.51,-91.09 278.68,-78.87"/>
<polygon fill="#63b8ff" stroke="#63b8ff" points="280.39,-81.93 287.49,-74.06 277.04,-75.78 280.39,-81.93"/>
</a>
</g>
</g>
<!-- Node9&#45;&gt;Node16 -->
<g id="edge23_Node000009_Node000016" class="edge">
<title>Node9&#45;&gt;Node16</title>
<g id="a_edge23_Node000009_Node000016"><a xlink:title=" ">
<path fill="none" stroke="#63b8ff" d="M431.03,-219.98C468.5,-210.87 528.05,-196.4 568.98,-186.45"/>
<polygon fill="#63b8ff" stroke="#63b8ff" points="569.81,-189.85 578.7,-184.08 568.16,-183.04 569.81,-189.85"/>
</a>
</g>
</g>
<!-- Node15&#45;&gt;Node6 -->
<g id="edge22_Node000015_Node000006" class="edge">
<title>Node15&#45;&gt;Node6</title>
<g id="a_edge22_Node000015_Node000006"><a xlink:title=" ">
<path fill="none" stroke="#63b8ff" d="M350.5,-56.13C353.37,-55.72 356.23,-55.34 359,-55 537.75,-32.85 753.3,-17.76 833.7,-12.53"/>
<polygon fill="#63b8ff" stroke="#63b8ff" points="833.95,-16.02 843.7,-11.89 833.5,-9.04 833.95,-16.02"/>
</a>
</g>
</g>
<!-- Node15&#45;&gt;Node7 -->
<g id="edge21_Node000015_Node000007" class="edge">
<title>Node15&#45;&gt;Node7</title>
<g id="a_edge21_Node000015_Node000007"><a xlink:title=" ">
<path fill="none" stroke="#63b8ff" d="M275.15,-54.98C242.5,-45.97 190.8,-31.7 154.8,-21.76"/>
<polygon fill="#63b8ff" stroke="#63b8ff" points="155.66,-18.37 145.09,-19.08 153.8,-25.12 155.66,-18.37"/>
</a>
</g>
</g>
<!-- Node15&#45;&gt;Node13 -->
<g id="edge20_Node000015_Node000013" class="edge">
<title>Node15&#45;&gt;Node13</title>
<g id="a_edge20_Node000015_Node000013"><a xlink:title=" ">
<path fill="none" stroke="#63b8ff" d="M321.1,-54.98C335.82,-46.69 358.42,-33.94 375.67,-24.22"/>
<polygon fill="#63b8ff" stroke="#63b8ff" points="377.63,-27.13 384.62,-19.17 374.19,-21.03 377.63,-27.13"/>
</a>
</g>
</g>
<!-- Node16&#45;&gt;Node2 -->
<g id="edge25_Node000016_Node000002" class="edge">
<title>Node16&#45;&gt;Node2</title>
<g id="a_edge25_Node000016_Node000002"><a xlink:title=" ">
<path fill="none" stroke="#63b8ff" d="M657.96,-164.97C693.22,-157.45 743.64,-145.18 786,-129 805.35,-121.61 854.39,-95.39 884.38,-79.04"/>
<polygon fill="#63b8ff" stroke="#63b8ff" points="886.29,-81.99 893.38,-74.12 882.93,-75.85 886.29,-81.99"/>
</a>
</g>
</g>
<!-- Node16&#45;&gt;Node4 -->
<g id="edge27_Node000016_Node000004" class="edge">
<title>Node16&#45;&gt;Node4</title>
<g id="a_edge27_Node000016_Node000004"><a xlink:title=" ">
<path fill="none" stroke="#63b8ff" d="M561.14,-164.98C495,-154.33 383.26,-136.33 324.24,-126.82"/>
<polygon fill="#63b8ff" stroke="#63b8ff" points="324.63,-123.34 314.2,-125.2 323.52,-130.25 324.63,-123.34"/>
</a>
</g>
</g>
<!-- Node16&#45;&gt;Node5 -->
<g id="edge30_Node000016_Node000005" class="edge">
<title>Node16&#45;&gt;Node5</title>
<g id="a_edge30_Node000016_Node000005"><a xlink:title=" ">
<path fill="none" stroke="#63b8ff" d="M654.49,-164.98C702.22,-154.95 780.94,-138.39 827.7,-128.56"/>
<polygon fill="#63b8ff" stroke="#63b8ff" points="828.67,-131.93 837.73,-126.45 827.23,-125.08 828.67,-131.93"/>
</a>
</g>
</g>
<!-- Node16&#45;&gt;Node6 -->
<g id="edge24_Node000016_Node000006" class="edge">
<title>Node16&#45;&gt;Node6</title>
<g id="a_edge24_Node000016_Node000006"><a xlink:title=" ">
<path fill="none" stroke="#63b8ff" d="M645.19,-164.98C669.58,-157.54 703.82,-145.37 731,-129 779.97,-99.52 828.02,-51.51 851.36,-26.62"/>
<polygon fill="#63b8ff" stroke="#63b8ff" points="854.08,-28.84 858.3,-19.12 848.94,-24.08 854.08,-28.84"/>
</a>
</g>
</g>
<!-- Node16&#45;&gt;Node8 -->
<g id="edge31_Node000016_Node000008" class="edge">
<title>Node16&#45;&gt;Node8</title>
<g id="a_edge31_Node000016_Node000008"><a xlink:title=" ">
<path fill="none" stroke="#63b8ff" d="M660.16,-165C680.6,-158.69 702.75,-147.78 715,-129 723.67,-115.71 721.35,-97.35 717.65,-83.79"/>
<polygon fill="#63b8ff" stroke="#63b8ff" points="720.94,-82.59 714.56,-74.13 714.27,-84.72 720.94,-82.59"/>
</a>
</g>
</g>
<!-- Node16&#45;&gt;Node12 -->
<g id="edge29_Node000016_Node000012" class="edge">
<title>Node16&#45;&gt;Node12</title>
<g id="a_edge29_Node000016_Node000012"><a xlink:title=" ">
<path fill="none" stroke="#63b8ff" d="M558.02,-164.93C531.94,-158.6 501.92,-147.69 480,-129 466.14,-117.18 457.33,-98.07 452.33,-83.9"/>
<polygon fill="#63b8ff" stroke="#63b8ff" points="455.62,-82.68 449.23,-74.22 448.95,-84.81 455.62,-82.68"/>
</a>
</g>
</g>
<!-- Node16&#45;&gt;Node13 -->
<g id="edge26_Node000016_Node000013" class="edge">
<title>Node16&#45;&gt;Node13</title>
<g id="a_edge26_Node000016_Node000013"><a xlink:title=" ">
<path fill="none" stroke="#63b8ff" d="M580.26,-164.96C558.88,-158.14 531.83,-146.74 513,-129 486.09,-103.64 500.33,-81.93 475,-55 462.49,-41.7 445.13,-31.06 430.25,-23.52"/>
<polygon fill="#63b8ff" stroke="#63b8ff" points="431.45,-20.21 420.92,-19.02 428.4,-26.51 431.45,-20.21"/>
</a>
</g>
</g>
<!-- Node16&#45;&gt;Node15 -->
<g id="edge32_Node000016_Node000015" class="edge">
<title>Node16&#45;&gt;Node15</title>
<g id="a_edge32_Node000016_Node000015"><a xlink:title=" ">
<path fill="none" stroke="#63b8ff" d="M581.38,-164.98C550.39,-156.65 502.63,-143.18 462,-129 416.91,-113.27 365.86,-91.76 334.8,-78.26"/>
<polygon fill="#63b8ff" stroke="#63b8ff" points="336.02,-74.97 325.46,-74.17 333.22,-81.38 336.02,-74.97"/>
</a>
</g>
</g>
<!-- Node17 -->
<g id="Node000017" class="node">
<title>Node17</title>
<g id="a_Node000017"><a xlink:title=" ">
<polygon fill="#e0e0e0" stroke="#999999" points="570,-129 522,-129 522,-110 570,-110 570,-129"/>
<text text-anchor="middle" x="546" y="-117" font-family="Helvetica,sans-Serif" font-size="10.00">mutex</text>
</a>
</g>
</g>
<!-- Node16&#45;&gt;Node17 -->
<g id="edge28_Node000016_Node000017" class="edge">
<title>Node16&#45;&gt;Node17</title>
<g id="a_edge28_Node000016_Node000017"><a xlink:title=" ">
<path fill="none" stroke="#63b8ff" d="M603.07,-164.98C592.92,-157.07 577.58,-145.11 565.35,-135.58"/>
<polygon fill="#63b8ff" stroke="#63b8ff" points="567.16,-132.56 557.12,-129.17 562.86,-138.08 567.16,-132.56"/>
</a>
</g>
</g>
<!-- Node16&#45;&gt;Node18 -->
<g id="edge33_Node000016_Node000018" class="edge">
<title>Node16&#45;&gt;Node18</title>
<g id="a_edge33_Node000016_Node000018"><a xlink:title=" ">
<path fill="none" stroke="#63b8ff" d="M683.77,-167C799.11,-156.26 1027,-135.03 1130.12,-125.43"/>
<polygon fill="#63b8ff" stroke="#63b8ff" points="1130.66,-128.89 1140.29,-124.48 1130.01,-121.92 1130.66,-128.89"/>
</a>
</g>
</g>
<!-- Node20 -->
<g id="Node000020" class="node">
<title>Node20</title>
<g id="a_Node000020"><a xlink:href="evaluate_8h.html" target="_top" xlink:title=" ">
<polygon fill="white" stroke="#666666" points="706,-129 588,-129 588,-110 706,-110 706,-129"/>
<text text-anchor="middle" x="647" y="-117" font-family="Helvetica,sans-Serif" font-size="10.00">Evaluator/evaluate.h</text>
</a>
</g>
</g>
<!-- Node16&#45;&gt;Node20 -->
<g id="edge36_Node000016_Node000020" class="edge">
<title>Node16&#45;&gt;Node20</title>
<g id="a_edge36_Node000016_Node000020"><a xlink:title=" ">
<path fill="none" stroke="#63b8ff" d="M619.45,-164.75C624.01,-157.42 630.67,-146.73 636.29,-137.7"/>
<polygon fill="#63b8ff" stroke="#63b8ff" points="639.34,-139.43 641.65,-129.09 633.4,-135.73 639.34,-139.43"/>
</a>
</g>
</g>
<!-- Node18&#45;&gt;Node6 -->
<g id="edge34_Node000018_Node000006" class="edge">
<title>Node18&#45;&gt;Node6</title>
<g id="a_edge34_Node000018_Node000006"><a xlink:title=" ">
<path fill="none" stroke="#63b8ff" d="M1157.86,-109.94C1100.71,-90.46 961.11,-42.9 897.96,-21.39"/>
<polygon fill="#63b8ff" stroke="#63b8ff" points="898.74,-17.96 888.15,-18.05 896.48,-24.58 898.74,-17.96"/>
</a>
</g>
</g>
<!-- Node19 -->
<g id="Node000019" class="node">
<title>Node19</title>
<g id="a_Node000019"><a xlink:title=" ">
<polygon fill="#e0e0e0" stroke="#999999" points="1213,-74 1153,-74 1153,-55 1213,-55 1213,-74"/>
<text text-anchor="middle" x="1183" y="-62" font-family="Helvetica,sans-Serif" font-size="10.00">iostream</text>
</a>
</g>
</g>
<!-- Node18&#45;&gt;Node19 -->
<g id="edge35_Node000018_Node000019" class="edge">
<title>Node18&#45;&gt;Node19</title>
<g id="a_edge35_Node000018_Node000019"><a xlink:title=" ">
<path fill="none" stroke="#63b8ff" d="M1183,-109.75C1183,-102.8 1183,-92.85 1183,-84.13"/>
<polygon fill="#63b8ff" stroke="#63b8ff" points="1186.5,-84.09 1183,-74.09 1179.5,-84.09 1186.5,-84.09"/>
</a>
</g>
</g>
<!-- Node20&#45;&gt;Node2 -->
<g id="edge37_Node000020_Node000002" class="edge">
<title>Node20&#45;&gt;Node2</title>
<g id="a_edge37_Node000020_Node000002"><a xlink:title=" ">
<path fill="none" stroke="#63b8ff" d="M689.09,-109.98C741.27,-99.43 829.08,-81.67 876.42,-72.09"/>
<polygon fill="#63b8ff" stroke="#63b8ff" points="877.32,-75.48 886.43,-70.07 875.93,-68.62 877.32,-75.48"/>
</a>
</g>
</g>
<!-- Node20&#45;&gt;Node6 -->
<g id="edge39_Node000020_Node000006" class="edge">
<title>Node20&#45;&gt;Node6</title>
<g id="a_edge39_Node000020_Node000006"><a xlink:title=" ">
<path fill="none" stroke="#63b8ff" d="M647.44,-109.65C648.63,-95.85 653,-69.31 669,-55 693.04,-33.49 784.29,-19.91 833.72,-13.98"/>
<polygon fill="#63b8ff" stroke="#63b8ff" points="834.36,-17.43 843.88,-12.79 833.55,-10.47 834.36,-17.43"/>
</a>
</g>
</g>
<!-- Node20&#45;&gt;Node8 -->
<g id="edge40_Node000020_Node000008" class="edge">
<title>Node20&#45;&gt;Node8</title>
<g id="a_edge40_Node000020_Node000008"><a xlink:title=" ">
<path fill="none" stroke="#63b8ff" d="M657.28,-109.98C666.84,-102.07 681.28,-90.11 692.78,-80.58"/>
<polygon fill="#63b8ff" stroke="#63b8ff" points="695.06,-83.24 700.53,-74.17 690.6,-77.85 695.06,-83.24"/>
</a>
</g>
</g>
<!-- Node20&#45;&gt;Node11 -->
<g id="edge41_Node000020_Node000011" class="edge">
<title>Node20&#45;&gt;Node11</title>
<g id="a_edge41_Node000020_Node000011"><a xlink:title=" ">
<path fill="none" stroke="#63b8ff" d="M596.93,-109.97C552.73,-102.16 486.38,-89.75 419.47,-73.94"/>
<polygon fill="#63b8ff" stroke="#63b8ff" points="420.14,-70.5 409.6,-71.58 418.51,-77.31 420.14,-70.5"/>
</a>
</g>
</g>
<!-- Node20&#45;&gt;Node12 -->
<g id="edge42_Node000020_Node000012" class="edge">
<title>Node20&#45;&gt;Node12</title>
<g id="a_edge42_Node000020_Node000012"><a xlink:title=" ">
<path fill="none" stroke="#63b8ff" d="M614.87,-109.98C576.58,-99.84 513.15,-83.03 476.2,-73.24"/>
<polygon fill="#63b8ff" stroke="#63b8ff" points="476.64,-69.74 466.08,-70.56 474.85,-76.5 476.64,-69.74"/>
</a>
</g>
</g>
<!-- Node20&#45;&gt;Node13 -->
<g id="edge38_Node000020_Node000013" class="edge">
<title>Node20&#45;&gt;Node13</title>
<g id="a_edge38_Node000020_Node000013"><a xlink:title=" ">
<path fill="none" stroke="#63b8ff" d="M628.66,-109.86C602.16,-97.42 551.56,-73.92 508,-55 482.19,-43.79 452.63,-31.66 430.97,-22.9"/>
<polygon fill="#63b8ff" stroke="#63b8ff" points="432.2,-19.62 421.62,-19.13 429.58,-26.11 432.2,-19.62"/>
</a>
</g>
</g>
<!-- Node20&#45;&gt;Node15 -->
<g id="edge43_Node000020_Node000015" class="edge">
<title>Node20&#45;&gt;Node15</title>
<g id="a_edge43_Node000020_Node000015"><a xlink:title=" ">
<path fill="none" stroke="#63b8ff" d="M591.24,-109.98C535.36,-101.42 446.6,-87.77 360.47,-74.23"/>
<polygon fill="#63b8ff" stroke="#63b8ff" points="360.95,-70.76 350.53,-72.66 359.86,-77.67 360.95,-70.76"/>
</a>
</g>
</g>
<!-- Node21&#45;&gt;Node2 -->
<g id="edge49_Node000021_Node000002" class="edge">
<title>Node21&#45;&gt;Node2</title>
<g id="a_edge49_Node000021_Node000002"><a xlink:title=" ">
<path fill="none" stroke="#63b8ff" d="M562.83,-329.95C626.68,-316.94 743.28,-288.33 832,-239 890.01,-206.75 916.6,-193.31 933,-129 937.08,-112.98 929.49,-95.46 921.79,-82.88"/>
<polygon fill="#63b8ff" stroke="#63b8ff" points="924.54,-80.7 916.07,-74.34 918.72,-84.6 924.54,-80.7"/>
</a>
</g>
</g>
<!-- Node21&#45;&gt;Node3 -->
<g id="edge51_Node000021_Node000003" class="edge">
<title>Node21&#45;&gt;Node3</title>
<g id="a_edge51_Node000021_Node000003"><a xlink:title=" ">
<path fill="none" stroke="#63b8ff" d="M531.75,-329.98C547.23,-321.61 571.09,-308.7 589.14,-298.95"/>
<polygon fill="#63b8ff" stroke="#63b8ff" points="590.84,-302.01 597.97,-294.17 587.51,-295.85 590.84,-302.01"/>
</a>
</g>
</g>
<!-- Node21&#45;&gt;Node4 -->
<g id="edge48_Node000021_Node000004" class="edge">
<title>Node21&#45;&gt;Node4</title>
<g id="a_edge48_Node000021_Node000004"><a xlink:title=" ">
<path fill="none" stroke="#63b8ff" d="M466.09,-329.97C394.59,-314.78 265.42,-275.56 209,-184 195.5,-162.1 223.75,-144.11 249.55,-132.94"/>
<polygon fill="#63b8ff" stroke="#63b8ff" points="250.92,-136.15 258.86,-129.13 248.28,-129.67 250.92,-136.15"/>
</a>
</g>
</g>
<!-- Node21&#45;&gt;Node9 -->
<g id="edge52_Node000021_Node000009" class="edge">
<title>Node21&#45;&gt;Node9</title>
<g id="a_edge52_Node000021_Node000009"><a xlink:title=" ">
<path fill="none" stroke="#63b8ff" d="M506.18,-329.66C485.77,-311.3 438.57,-268.81 413.07,-245.87"/>
<polygon fill="#63b8ff" stroke="#63b8ff" points="415.39,-243.25 405.62,-239.16 410.71,-248.45 415.39,-243.25"/>
</a>
</g>
</g>
<!-- Node21&#45;&gt;Node15 -->
<g id="edge50_Node000021_Node000015" class="edge">
<title>Node21&#45;&gt;Node15</title>
<g id="a_edge50_Node000021_Node000015"><a xlink:title=" ">
<path fill="none" stroke="#63b8ff" d="M454.78,-338.42C318.1,-336.6 0,-322.48 0,-230.5 0,-230.5 0,-230.5 0,-173.5 0,-120.87 163.02,-87.53 251.08,-73.36"/>
<polygon fill="#63b8ff" stroke="#63b8ff" points="251.85,-76.79 261.18,-71.77 250.75,-69.87 251.85,-76.79"/>
</a>
</g>
</g>
<!-- Node21&#45;&gt;Node16 -->
<g id="edge53_Node000021_Node000016" class="edge">
<title>Node21&#45;&gt;Node16</title>
<g id="a_edge53_Node000021_Node000016"><a xlink:title=" ">
<path fill="none" stroke="#63b8ff" d="M519.28,-329.61C524.04,-317.08 533.45,-293.67 544,-275 561.31,-244.36 585.74,-211.46 600.69,-192.21"/>
<polygon fill="#63b8ff" stroke="#63b8ff" points="603.59,-194.19 607.01,-184.16 598.08,-189.87 603.59,-194.19"/>
</a>
</g>
</g>
</g>
</svg>

<g id="navigator" transform="translate(0 0)" fill="#404254">
  <rect fill="#f2f5e9" fill-opacity="0.5" stroke="#606060" stroke-width=".5" x="0" y="0" width="60" height="60"/>
  <use id="zoomplus" xlink:href="#zoomPlus" x="17" y="9" onmousedown="handleZoom(evt,'in')"/>
  <use id="zoomminus" xlink:href="#zoomMin" x="42" y="9" onmousedown="handleZoom(evt,'out')"/>
  <use id="reset" xlink:href="#resetDef" x="30" y="36" onmousedown="handleReset()"/>
   <use id="arrowup" xlink:href="#arrowUp" x="0" y="0" onmousedown="handlePan(0,-1)"/>
  <use id="arrowright" xlink:href="#arrowRight" x="0" y="0" onmousedown="handlePan(1,0)"/>
  <use id="arrowdown" xlink:href="#arrowDown" x="0" y="0" onmousedown="handlePan(0,1)"/>
  <use id="arrowleft" xlink:href="#arrowLeft" x="0" y="0" onmousedown="handlePan(-1,0)"/>
</g>
<svg viewBox="0 0 15 15" width="100%" height="30px" preserveAspectRatio="xMaxYMin meet">
 <g id="arrow_out" transform="scale(0.3 0.3)">
  <a xlink:href="simulatorDriver_8h__incl_org.svg" target="_base">
   <rect id="button" ry="5" rx="5" y="6" x="6" height="38" width="38"
        fill="#f2f5e9" fill-opacity="0.5" stroke="#606060" stroke-width="1.0"/>
   <path id="arrow"
     d="M 11.500037,31.436501 C 11.940474,20.09759 22.043105,11.32322 32.158766,21.979434 L 37.068811,17.246167 C 37.068811,17.246167 37.088388,32 37.088388,32 L 22.160133,31.978069 C 22.160133,31.978069 26.997745,27.140456 26.997745,27.140456 C 18.528582,18.264221 13.291696,25.230495 11.500037,31.436501 z"
     style="fill:#404040;"/>
  </a>
 </g>
</svg>

<style type='text/css'>
<![CDATA[
[data-mouse-over-selected='false'] { opacity: 0.7; }
[data-mouse-over-selected='true']  { opacity: 1.0; }
]]>
</style>
<script type="application/ecmascript"><![CDATA[
document.addEventListener('DOMContentLoaded', (event) => {
  highlightEdges();
  highlightAdjacentNodes();
});
]]></script>
</svg>
