<?xml version="1.0" encoding="UTF-8" standalone="no"?>
<!DOCTYPE svg PUBLIC "-//W3C//DTD SVG 1.1//EN"
 "http://www.w3.org/Graphics/SVG/1.1/DTD/svg11.dtd">
<!-- Generated by graphviz version 2.43.0 (0)
 -->
<!-- Title: include/Drivers/simulatorDriver.h Pages: 1 -->
<!--zoomable 423 -->

<svg id="main" version="1.1" xmlns="http://www.w3.org/2000/svg" xmlns:xlink="http://www.w3.org/1999/xlink" xml:space="preserve" onload="init(evt)">
<style type="text/css"><![CDATA[
.node, .edge {opacity: 0.7;}
.node.selected, .edge.selected {opacity: 1;}
.edge:hover path { stroke: red; }
.edge:hover polygon { stroke: red; fill: red; }
]]></style>

<defs>
  <circle id="rim" cx="0" cy="0" r="7"/>
  <circle id="rim2" cx="0" cy="0" r="3.5"/>
  <g id="zoomPlus">
    <use xlink:href="#rim" fill="#404040"><set attributeName="fill" to="#808080" begin="zoomplus.mouseover" end="zoomplus.mouseout"/></use>
    <path d="M-4,0h8M0,-4v8" fill="none" stroke="white" stroke-width="1.5" pointer-events="none"/>
  </g>
  <g id="zoomMin">
    <use xlink:href="#rim" fill="#404040"><set attributeName="fill" to="#808080" begin="zoomminus.mouseover" end="zoomminus.mouseout"/></use>
    <path d="M-4,0h8" fill="none" stroke="white" stroke-width="1.5" pointer-events="none"/>
  </g>
  <g id="arrowUp" transform="translate(30 24)">
    <use xlink:href="#rim"/>
    <path pointer-events="none" fill="none" stroke="white" stroke-width="1.5" d="M0,-3.0v7 M-2.5,-0.5L0,-3.0L2.5,-0.5"/>
  </g>
  <g id="arrowRight" transform="rotate(90) translate(36 -43)">
    <use xlink:href="#rim"/>
    <path pointer-events="none" fill="none" stroke="white" stroke-width="1.5" d="M0,-3.0v7 M-2.5,-0.5L0,-3.0L2.5,-0.5"/>
  </g>
  <g id="arrowDown" transform="rotate(180) translate(-30 -48)">
    <use xlink:href="#rim"/>
    <path pointer-events="none" fill="none" stroke="white" stroke-width="1.5" d="M0,-3.0v7 M-2.5,-0.5L0,-3.0L2.5,-0.5"/>
  </g>
  <g id="arrowLeft" transform="rotate(270) translate(-36 17)">
    <use xlink:href="#rim"/>
    <path pointer-events="none" fill="none" stroke="white" stroke-width="1.5" d="M0,-3.0v7 M-2.5,-0.5L0,-3.0L2.5,-0.5"/>
  </g>
  <g id="resetDef">
    <use xlink:href="#rim2" fill="#404040"><set attributeName="fill" to="#808080" begin="reset.mouseover" end="reset.mouseout"/></use>
  </g>
</defs>
<script type="application/ecmascript">
var viewWidth = 1338;
var viewHeight = 423;
var sectionId = 'dynsection-0';
</script>
<script type="application/ecmascript" xlink:href="svg.min.js"/>
<svg id="graph" class="graph">
<g id="viewport">
<title>include/Drivers/simulatorDriver.h</title>
<!-- Node1 -->
<g id="Node000001" class="node">
<title>Node1</title>
<g id="a_Node000001"><a xlink:title=" ">
<polygon fill="#999999" stroke="#666666" points="949,-415 809,-415 809,-385 949,-385 949,-415"/>
<text text-anchor="start" x="817" y="-403" font-family="Helvetica,sans-Serif" font-size="10.00">include/Drivers/simulator</text>
<text text-anchor="middle" x="879" y="-392" font-family="Helvetica,sans-Serif" font-size="10.00">Driver.h</text>
</a>
</g>
</g>
<!-- Node2 -->
<g id="Node000002" class="node">
<title>Node2</title>
<g id="a_Node000002"><a xlink:title=" ">
<polygon fill="#e0e0e0" stroke="#999999" points="1181.5,-74 1136.5,-74 1136.5,-55 1181.5,-55 1181.5,-74"/>
<text text-anchor="middle" x="1159" y="-62" font-family="Helvetica,sans-Serif" font-size="10.00">utility</text>
</a>
</g>
</g>
<!-- Node1&#45;&gt;Node2 -->
<g id="edge1_Node000001_Node000002" class="edge">
<title>Node1&#45;&gt;Node2</title>
<g id="a_edge1_Node000001_Node000002"><a xlink:title=" ">
<path fill="none" stroke="#63b8ff" d="M949.47,-395.8C1076.31,-388.1 1330,-363.01 1330,-285.5 1330,-285.5 1330,-285.5 1330,-173.5 1330,-108.76 1241.29,-81.25 1191.66,-70.93"/>
<polygon fill="#63b8ff" stroke="#63b8ff" points="1192.19,-67.47 1181.71,-68.98 1190.85,-74.33 1192.19,-67.47"/>
</a>
</g>
</g>
<!-- Node3 -->
<g id="Node000003" class="node">
<title>Node3</title>
<g id="a_Node000003"><a xlink:href="driverModel_8h.html" target="_top" xlink:title=" ">
<polygon fill="white" stroke="#666666" points="940,-294 818,-294 818,-275 940,-275 940,-294"/>
<text text-anchor="middle" x="879" y="-282" font-family="Helvetica,sans-Serif" font-size="10.00">Drivers/driverModel.h</text>
</a>
</g>
</g>
<!-- Node1&#45;&gt;Node3 -->
<g id="edge2_Node000001_Node000003" class="edge">
<title>Node1&#45;&gt;Node3</title>
<g id="a_edge2_Node000001_Node000003"><a xlink:title=" ">
<path fill="none" stroke="#63b8ff" d="M879,-384.63C879,-364.21 879,-326.81 879,-304.24"/>
<polygon fill="#63b8ff" stroke="#63b8ff" points="882.5,-304.23 879,-294.23 875.5,-304.23 882.5,-304.23"/>
</a>
</g>
</g>
<!-- Node21 -->
<g id="Node000021" class="node">
<title>Node21</title>
<g id="a_Node000021"><a xlink:href="simulator_8h.html" target="_top" xlink:title=" ">
<polygon fill="white" stroke="#666666" points="830,-349 708,-349 708,-330 830,-330 830,-349"/>
<text text-anchor="middle" x="769" y="-337" font-family="Helvetica,sans-Serif" font-size="10.00">Simulator/simulator.h</text>
</a>
</g>
</g>
<!-- Node1&#45;&gt;Node21 -->
<g id="edge50_Node000001_Node000021" class="edge">
<title>Node1&#45;&gt;Node21</title>
<g id="a_edge50_Node000001_Node000021"><a xlink:title=" ">
<path fill="none" stroke="#63b8ff" d="M852.65,-384.99C834.95,-375.58 811.77,-363.24 794.29,-353.95"/>
<polygon fill="#63b8ff" stroke="#63b8ff" points="795.72,-350.74 785.24,-349.14 792.43,-356.92 795.72,-350.74"/>
</a>
</g>
</g>
<!-- Node3&#45;&gt;Node2 -->
<g id="edge8_Node000003_Node000002" class="edge">
<title>Node3&#45;&gt;Node2</title>
<g id="a_edge8_Node000003_Node000002"><a xlink:title=" ">
<path fill="none" stroke="#63b8ff" d="M909.31,-274.89C933.46,-267.34 967.65,-255.04 995,-239 1060.87,-200.36 1079.49,-188.79 1127,-129 1137.91,-115.27 1146.56,-97.23 1152.11,-83.89"/>
<polygon fill="#63b8ff" stroke="#63b8ff" points="1155.45,-84.95 1155.87,-74.37 1148.94,-82.38 1155.45,-84.95"/>
</a>
</g>
</g>
<!-- Node4 -->
<g id="Node000004" class="node">
<title>Node4</title>
<g id="a_Node000004"><a xlink:title=" ">
<polygon fill="#e0e0e0" stroke="#999999" points="276,-129 218,-129 218,-110 276,-110 276,-129"/>
<text text-anchor="middle" x="247" y="-117" font-family="Helvetica,sans-Serif" font-size="10.00">memory</text>
</a>
</g>
</g>
<!-- Node3&#45;&gt;Node4 -->
<g id="edge3_Node000003_Node000004" class="edge">
<title>Node3&#45;&gt;Node4</title>
<g id="a_edge3_Node000003_Node000004"><a xlink:title=" ">
<path fill="none" stroke="#63b8ff" d="M817.61,-282.13C717.59,-279.05 524.52,-269.26 464,-239 423.78,-218.89 433.19,-188.74 395,-165 376.78,-153.67 323.54,-139.12 286.17,-129.81"/>
<polygon fill="#63b8ff" stroke="#63b8ff" points="286.63,-126.32 276.09,-127.32 284.96,-133.11 286.63,-126.32"/>
</a>
</g>
</g>
<!-- Node5 -->
<g id="Node000005" class="node">
<title>Node5</title>
<g id="a_Node000005"><a xlink:title=" ">
<polygon fill="#e0e0e0" stroke="#999999" points="932,-129 876,-129 876,-110 932,-110 932,-129"/>
<text text-anchor="middle" x="904" y="-117" font-family="Helvetica,sans-Serif" font-size="10.00">optional</text>
</a>
</g>
</g>
<!-- Node3&#45;&gt;Node5 -->
<g id="edge4_Node000003_Node000005" class="edge">
<title>Node3&#45;&gt;Node5</title>
<g id="a_edge4_Node000003_Node000005"><a xlink:title=" ">
<path fill="none" stroke="#63b8ff" d="M880.34,-274.74C884.26,-249.2 895.73,-174.43 901.13,-139.23"/>
<polygon fill="#63b8ff" stroke="#63b8ff" points="904.59,-139.72 902.65,-129.31 897.67,-138.66 904.59,-139.72"/>
</a>
</g>
</g>
<!-- Node6 -->
<g id="Node000006" class="node">
<title>Node6</title>
<g id="a_Node000006"><a xlink:title=" ">
<polygon fill="#e0e0e0" stroke="#999999" points="812,-19 768,-19 768,0 812,0 812,-19"/>
<text text-anchor="middle" x="790" y="-7" font-family="Helvetica,sans-Serif" font-size="10.00">string</text>
</a>
</g>
</g>
<!-- Node3&#45;&gt;Node6 -->
<g id="edge5_Node000003_Node000006" class="edge">
<title>Node3&#45;&gt;Node6</title>
<g id="a_edge5_Node000003_Node000006"><a xlink:title=" ">
<path fill="none" stroke="#63b8ff" d="M940.12,-283.15C1028.53,-281.44 1186.29,-273.47 1230,-239 1253.69,-220.32 1254,-205.67 1254,-175.5 1254,-175.5 1254,-175.5 1254,-118.5 1254,-88.33 1253.92,-73.38 1230,-55 1197.8,-30.26 918.3,-16.02 822.25,-11.82"/>
<polygon fill="#63b8ff" stroke="#63b8ff" points="822.39,-8.32 812.25,-11.39 822.09,-15.32 822.39,-8.32"/>
</a>
</g>
</g>
<!-- Node7 -->
<g id="Node000007" class="node">
<title>Node7</title>
<g id="a_Node000007"><a xlink:title=" ">
<polygon fill="#e0e0e0" stroke="#999999" points="413.5,-74 372.5,-74 372.5,-55 413.5,-55 413.5,-74"/>
<text text-anchor="middle" x="393" y="-62" font-family="Helvetica,sans-Serif" font-size="10.00">tuple</text>
</a>
</g>
</g>
<!-- Node3&#45;&gt;Node7 -->
<g id="edge6_Node000003_Node000007" class="edge">
<title>Node3&#45;&gt;Node7</title>
<g id="a_edge6_Node000003_Node000007"><a xlink:title=" ">
<path fill="none" stroke="#63b8ff" d="M840.4,-274.99C763.44,-256.83 587.25,-209.28 459,-129 438.46,-116.14 418.99,-96.1 406.59,-81.97"/>
<polygon fill="#63b8ff" stroke="#63b8ff" points="408.99,-79.39 399.84,-74.06 403.67,-83.94 408.99,-79.39"/>
</a>
</g>
</g>
<!-- Node8 -->
<g id="Node000008" class="node">
<title>Node8</title>
<g id="a_Node000008"><a xlink:title=" ">
<polygon fill="#e0e0e0" stroke="#999999" points="356.5,-19 263.5,-19 263.5,0 356.5,0 356.5,-19"/>
<text text-anchor="middle" x="310" y="-7" font-family="Helvetica,sans-Serif" font-size="10.00">unordered_map</text>
</a>
</g>
</g>
<!-- Node3&#45;&gt;Node8 -->
<g id="edge7_Node000003_Node000008" class="edge">
<title>Node3&#45;&gt;Node8</title>
<g id="a_edge7_Node000003_Node000008"><a xlink:title=" ">
<path fill="none" stroke="#63b8ff" d="M940.03,-276.61C1037.14,-263.93 1216,-232.79 1216,-175.5 1216,-175.5 1216,-175.5 1216,-118.5 1216,-88.17 1215.63,-72.7 1191,-55 1157.49,-30.92 555.91,-15.84 366.57,-11.68"/>
<polygon fill="#63b8ff" stroke="#63b8ff" points="366.61,-8.18 356.54,-11.46 366.46,-15.18 366.61,-8.18"/>
</a>
</g>
</g>
<!-- Node9 -->
<g id="Node000009" class="node">
<title>Node9</title>
<g id="a_Node000009"><a xlink:title=" ">
<polygon fill="#e0e0e0" stroke="#999999" points="782.5,-74 717.5,-74 717.5,-55 782.5,-55 782.5,-74"/>
<text text-anchor="middle" x="750" y="-62" font-family="Helvetica,sans-Serif" font-size="10.00">functional</text>
</a>
</g>
</g>
<!-- Node3&#45;&gt;Node9 -->
<g id="edge9_Node000003_Node000009" class="edge">
<title>Node3&#45;&gt;Node9</title>
<g id="a_edge9_Node000003_Node000009"><a xlink:title=" ">
<path fill="none" stroke="#63b8ff" d="M887.25,-274.98C912.31,-248.04 983.36,-163.36 941,-110 938.66,-107.05 848.26,-86.91 792.69,-74.76"/>
<polygon fill="#63b8ff" stroke="#63b8ff" points="793.26,-71.3 782.74,-72.59 791.77,-78.14 793.26,-71.3"/>
</a>
</g>
</g>
<!-- Node10 -->
<g id="Node000010" class="node">
<title>Node10</title>
<g id="a_Node000010"><a xlink:href="channel_8h.html" target="_top" xlink:title=" ">
<polygon fill="white" stroke="#666666" points="411.5,-239 304.5,-239 304.5,-220 411.5,-220 411.5,-239"/>
<text text-anchor="middle" x="358" y="-227" font-family="Helvetica,sans-Serif" font-size="10.00">Channel/channel.h</text>
</a>
</g>
</g>
<!-- Node3&#45;&gt;Node10 -->
<g id="edge10_Node000003_Node000010" class="edge">
<title>Node3&#45;&gt;Node10</title>
<g id="a_edge10_Node000003_Node000010"><a xlink:title=" ">
<path fill="none" stroke="#63b8ff" d="M817.77,-278C730.66,-270.06 565.99,-254.62 426,-239 424.7,-238.86 423.39,-238.71 422.07,-238.56"/>
<polygon fill="#63b8ff" stroke="#63b8ff" points="422.14,-235.04 411.81,-237.36 421.33,-241.99 422.14,-235.04"/>
</a>
</g>
</g>
<!-- Node16 -->
<g id="Node000016" class="node">
<title>Node16</title>
<g id="a_Node000016"><a xlink:href="types_8h.html" target="_top" xlink:title=" ">
<polygon fill="white" stroke="#666666" points="354.5,-74 265.5,-74 265.5,-55 354.5,-55 354.5,-74"/>
<text text-anchor="middle" x="310" y="-62" font-family="Helvetica,sans-Serif" font-size="10.00">Library/types.h</text>
</a>
</g>
</g>
<!-- Node3&#45;&gt;Node16 -->
<g id="edge48_Node000003_Node000016" class="edge">
<title>Node3&#45;&gt;Node16</title>
<g id="a_edge48_Node000003_Node000016"><a xlink:title=" ">
<path fill="none" stroke="#63b8ff" d="M817.97,-274.95C771.8,-267.67 707.15,-255.71 652,-239 522.46,-199.75 382.99,-113.43 331.05,-79.54"/>
<polygon fill="#63b8ff" stroke="#63b8ff" points="332.94,-76.6 322.66,-74.03 329.09,-82.45 332.94,-76.6"/>
</a>
</g>
</g>
<!-- Node17 -->
<g id="Node000017" class="node">
<title>Node17</title>
<g id="a_Node000017"><a xlink:href="transaction_8h_source.html" target="_top" xlink:title=" ">
<polygon fill="white" stroke="#666666" points="838.5,-184 699.5,-184 699.5,-165 838.5,-165 838.5,-184"/>
<text text-anchor="middle" x="769" y="-172" font-family="Helvetica,sans-Serif" font-size="10.00">Transaction/transaction.h</text>
</a>
</g>
</g>
<!-- Node3&#45;&gt;Node17 -->
<g id="edge47_Node000003_Node000017" class="edge">
<title>Node3&#45;&gt;Node17</title>
<g id="a_edge47_Node000003_Node000017"><a xlink:title=" ">
<path fill="none" stroke="#63b8ff" d="M870,-274.66C851.37,-256.38 808.4,-214.18 784.96,-191.17"/>
<polygon fill="#63b8ff" stroke="#63b8ff" points="787.41,-188.67 777.82,-184.16 782.5,-193.66 787.41,-188.67"/>
</a>
</g>
</g>
<!-- Node19 -->
<g id="Node000019" class="node">
<title>Node19</title>
<g id="a_Node000019"><a xlink:href="error_8h.html" target="_top" xlink:title=" ">
<polygon fill="white" stroke="#666666" points="1073.5,-129 988.5,-129 988.5,-110 1073.5,-110 1073.5,-129"/>
<text text-anchor="middle" x="1031" y="-117" font-family="Helvetica,sans-Serif" font-size="10.00">Library/error.h</text>
</a>
</g>
</g>
<!-- Node3&#45;&gt;Node19 -->
<g id="edge49_Node000003_Node000019" class="edge">
<title>Node3&#45;&gt;Node19</title>
<g id="a_edge49_Node000003_Node000019"><a xlink:title=" ">
<path fill="none" stroke="#63b8ff" d="M910,-274.97C930.31,-268.06 956.27,-256.55 974,-239 1002.83,-210.46 1019.1,-164.44 1026.36,-138.97"/>
<polygon fill="#63b8ff" stroke="#63b8ff" points="1029.79,-139.69 1029,-129.13 1023.03,-137.88 1029.79,-139.69"/>
</a>
</g>
</g>
<!-- Node10&#45;&gt;Node2 -->
<g id="edge17_Node000010_Node000002" class="edge">
<title>Node10&#45;&gt;Node2</title>
<g id="a_edge17_Node000010_Node000002"><a xlink:title=" ">
<path fill="none" stroke="#63b8ff" d="M411.58,-226.6C561.85,-220.47 984.08,-197.44 1102,-129 1121.55,-117.65 1138.04,-97.28 1148.18,-82.66"/>
<polygon fill="#63b8ff" stroke="#63b8ff" points="1151.28,-84.31 1153.89,-74.04 1145.45,-80.45 1151.28,-84.31"/>
</a>
</g>
</g>
<!-- Node10&#45;&gt;Node4 -->
<g id="edge12_Node000010_Node000004" class="edge">
<title>Node10&#45;&gt;Node4</title>
<g id="a_edge12_Node000010_Node000004"><a xlink:title=" ">
<path fill="none" stroke="#63b8ff" d="M365.12,-219.94C374.97,-206.98 390.25,-182.1 378,-165 367.05,-149.72 320.51,-136.48 285.99,-128.51"/>
<polygon fill="#63b8ff" stroke="#63b8ff" points="286.69,-125.08 276.17,-126.31 285.16,-131.91 286.69,-125.08"/>
</a>
</g>
</g>
<!-- Node10&#45;&gt;Node6 -->
<g id="edge13_Node000010_Node000006" class="edge">
<title>Node10&#45;&gt;Node6</title>
<g id="a_edge13_Node000010_Node000006"><a xlink:title=" ">
<path fill="none" stroke="#63b8ff" d="M387.25,-219.92C435.62,-205.1 534.52,-172.1 611,-129 658.24,-102.38 662.48,-84.46 708,-55 725.85,-43.45 746.95,-32.05 763.27,-23.67"/>
<polygon fill="#63b8ff" stroke="#63b8ff" points="764.93,-26.76 772.27,-19.12 761.77,-20.51 764.93,-26.76"/>
</a>
</g>
</g>
<!-- Node10&#45;&gt;Node7 -->
<g id="edge14_Node000010_Node000007" class="edge">
<title>Node10&#45;&gt;Node7</title>
<g id="a_edge14_Node000010_Node000007"><a xlink:title=" ">
<path fill="none" stroke="#63b8ff" d="M358.08,-219.78C357.72,-206.16 354.97,-179.85 340,-165 295.17,-120.53 169.76,-159.47 209,-110 250.8,-57.3 291.31,-88.6 362.59,-73.77"/>
<polygon fill="#63b8ff" stroke="#63b8ff" points="363.44,-77.16 372.38,-71.48 361.84,-70.35 363.44,-77.16"/>
</a>
</g>
</g>
<!-- Node10&#45;&gt;Node8 -->
<g id="edge15_Node000010_Node000008" class="edge">
<title>Node10&#45;&gt;Node8</title>
<g id="a_edge15_Node000010_Node000008"><a xlink:title=" ">
<path fill="none" stroke="#63b8ff" d="M304.16,-223.5C253.24,-217.53 182.13,-205.53 165,-184 116.58,-123.15 229.93,-52.58 283.68,-23.77"/>
<polygon fill="#63b8ff" stroke="#63b8ff" points="285.44,-26.8 292.67,-19.04 282.19,-20.6 285.44,-26.8"/>
</a>
</g>
</g>
<!-- Node11 -->
<g id="Node000011" class="node">
<title>Node11</title>
<g id="a_Node000011"><a xlink:title=" ">
<polygon fill="#e0e0e0" stroke="#999999" points="233.5,-184 180.5,-184 180.5,-165 233.5,-165 233.5,-184"/>
<text text-anchor="middle" x="207" y="-172" font-family="Helvetica,sans-Serif" font-size="10.00">iterator</text>
</a>
</g>
</g>
<!-- Node10&#45;&gt;Node11 -->
<g id="edge11_Node000010_Node000011" class="edge">
<title>Node10&#45;&gt;Node11</title>
<g id="a_edge11_Node000010_Node000011"><a xlink:title=" ">
<path fill="none" stroke="#63b8ff" d="M333.74,-219.98C308.68,-211.19 269.37,-197.39 241.17,-187.49"/>
<polygon fill="#63b8ff" stroke="#63b8ff" points="242.3,-184.18 231.7,-184.17 239.98,-190.78 242.3,-184.18"/>
</a>
</g>
</g>
<!-- Node12 -->
<g id="Node000012" class="node">
<title>Node12</title>
<g id="a_Node000012"><a xlink:title=" ">
<polygon fill="#e0e0e0" stroke="#999999" points="475,-74 437,-74 437,-55 475,-55 475,-74"/>
<text text-anchor="middle" x="456" y="-62" font-family="Helvetica,sans-Serif" font-size="10.00">map</text>
</a>
</g>
</g>
<!-- Node10&#45;&gt;Node12 -->
<g id="edge16_Node000010_Node000012" class="edge">
<title>Node10&#45;&gt;Node12</title>
<g id="a_edge16_Node000010_Node000012"><a xlink:title=" ">
<path fill="none" stroke="#63b8ff" d="M304.42,-223.08C255.17,-216.87 187.39,-204.75 171,-184 165.77,-177.37 168.49,-173.06 171,-165 179.85,-136.64 183.94,-125.95 209,-110 289.99,-58.45 328.02,-93.66 422,-74 423.68,-73.65 425.4,-73.27 427.13,-72.88"/>
<polygon fill="#63b8ff" stroke="#63b8ff" points="428.08,-76.25 437,-70.53 426.46,-69.44 428.08,-76.25"/>
</a>
</g>
</g>
<!-- Node13 -->
<g id="Node000013" class="node">
<title>Node13</title>
<g id="a_Node000013"><a xlink:title=" ">
<polygon fill="#e0e0e0" stroke="#999999" points="234.5,-19 187.5,-19 187.5,0 234.5,0 234.5,-19"/>
<text text-anchor="middle" x="211" y="-7" font-family="Helvetica,sans-Serif" font-size="10.00">vector</text>
</a>
</g>
</g>
<!-- Node10&#45;&gt;Node13 -->
<g id="edge18_Node000010_Node000013" class="edge">
<title>Node10&#45;&gt;Node13</title>
<g id="a_edge18_Node000010_Node000013"><a xlink:title=" ">
<path fill="none" stroke="#63b8ff" d="M304.36,-224.41C249.84,-219.01 170.81,-207.31 152,-184 112.93,-135.59 167.96,-59.92 196.14,-26.87"/>
<polygon fill="#63b8ff" stroke="#63b8ff" points="199.01,-28.91 202.96,-19.08 193.74,-24.29 199.01,-28.91"/>
</a>
</g>
</g>
<!-- Node14 -->
<g id="Node000014" class="node">
<title>Node14</title>
<g id="a_Node000014"><a xlink:title=" ">
<polygon fill="#e0e0e0" stroke="#999999" points="298,-184 252,-184 252,-165 298,-165 298,-184"/>
<text text-anchor="middle" x="275" y="-172" font-family="Helvetica,sans-Serif" font-size="10.00">future</text>
</a>
</g>
</g>
<!-- Node10&#45;&gt;Node14 -->
<g id="edge19_Node000010_Node000014" class="edge">
<title>Node10&#45;&gt;Node14</title>
<g id="a_edge19_Node000010_Node000014"><a xlink:title=" ">
<path fill="none" stroke="#63b8ff" d="M344.66,-219.98C331.91,-211.84 312.45,-199.41 297.33,-189.76"/>
<polygon fill="#63b8ff" stroke="#63b8ff" points="298.89,-186.6 288.58,-184.17 295.12,-192.5 298.89,-186.6"/>
</a>
</g>
</g>
<!-- Node15 -->
<g id="Node000015" class="node">
<title>Node15</title>
<g id="a_Node000015"><a xlink:title=" ">
<polygon fill="#e0e0e0" stroke="#999999" points="861,-74 801,-74 801,-55 861,-55 861,-74"/>
<text text-anchor="middle" x="831" y="-62" font-family="Helvetica,sans-Serif" font-size="10.00">iostream</text>
</a>
</g>
</g>
<!-- Node10&#45;&gt;Node15 -->
<g id="edge20_Node000010_Node000015" class="edge">
<title>Node10&#45;&gt;Node15</title>
<g id="a_edge20_Node000010_Node000015"><a xlink:title=" ">
<path fill="none" stroke="#63b8ff" d="M411.8,-225.61C483.92,-220.82 607.18,-209.16 644,-184 675.41,-162.54 657.23,-133.68 687,-110 703.19,-97.12 754.32,-83.17 791.05,-74.39"/>
<polygon fill="#63b8ff" stroke="#63b8ff" points="792.06,-77.75 800.99,-72.06 790.45,-70.94 792.06,-77.75"/>
</a>
</g>
</g>
<!-- Node10&#45;&gt;Node16 -->
<g id="edge21_Node000010_Node000016" class="edge">
<title>Node10&#45;&gt;Node16</title>
<g id="a_edge21_Node000010_Node000016"><a xlink:title=" ">
<path fill="none" stroke="#63b8ff" d="M353.24,-219.78C345.37,-206.15 328.38,-179.83 307,-165 265.08,-135.92 227.89,-170.35 198,-129 178.83,-102.48 218.22,-85.52 255.46,-75.87"/>
<polygon fill="#63b8ff" stroke="#63b8ff" points="256.47,-79.22 265.35,-73.45 254.81,-72.42 256.47,-79.22"/>
</a>
</g>
</g>
<!-- Node10&#45;&gt;Node17 -->
<g id="edge25_Node000010_Node000017" class="edge">
<title>Node10&#45;&gt;Node17</title>
<g id="a_edge25_Node000010_Node000017"><a xlink:title=" ">
<path fill="none" stroke="#63b8ff" d="M411.73,-221.57C483.51,-212.31 611.11,-195.86 692.8,-185.33"/>
<polygon fill="#63b8ff" stroke="#63b8ff" points="693.55,-188.76 703.02,-184.01 692.66,-181.82 693.55,-188.76"/>
</a>
</g>
</g>
<!-- Node16&#45;&gt;Node6 -->
<g id="edge24_Node000016_Node000006" class="edge">
<title>Node16&#45;&gt;Node6</title>
<g id="a_edge24_Node000016_Node000006"><a xlink:title=" ">
<path fill="none" stroke="#63b8ff" d="M354.51,-56.18C357.38,-55.76 360.23,-55.37 363,-55 509.89,-35.58 686.14,-19.49 757.57,-13.26"/>
<polygon fill="#63b8ff" stroke="#63b8ff" points="758.06,-16.73 767.72,-12.38 757.46,-9.76 758.06,-16.73"/>
</a>
</g>
</g>
<!-- Node16&#45;&gt;Node8 -->
<g id="edge23_Node000016_Node000008" class="edge">
<title>Node16&#45;&gt;Node8</title>
<g id="a_edge23_Node000016_Node000008"><a xlink:title=" ">
<path fill="none" stroke="#63b8ff" d="M310,-54.75C310,-47.8 310,-37.85 310,-29.13"/>
<polygon fill="#63b8ff" stroke="#63b8ff" points="313.5,-29.09 310,-19.09 306.5,-29.09 313.5,-29.09"/>
</a>
</g>
</g>
<!-- Node16&#45;&gt;Node13 -->
<g id="edge22_Node000016_Node000013" class="edge">
<title>Node16&#45;&gt;Node13</title>
<g id="a_edge22_Node000016_Node000013"><a xlink:title=" ">
<path fill="none" stroke="#63b8ff" d="M294.09,-54.98C278.45,-46.61 254.34,-33.7 236.12,-23.95"/>
<polygon fill="#63b8ff" stroke="#63b8ff" points="237.66,-20.8 227.2,-19.17 234.36,-26.98 237.66,-20.8"/>
</a>
</g>
</g>
<!-- Node17&#45;&gt;Node2 -->
<g id="edge28_Node000017_Node000002" class="edge">
<title>Node17&#45;&gt;Node2</title>
<g id="a_edge28_Node000017_Node000002"><a xlink:title=" ">
<path fill="none" stroke="#63b8ff" d="M779.07,-164.86C795.99,-150.85 831.75,-123.39 867,-110 956.43,-76.02 1070.59,-67.93 1125.94,-66.05"/>
<polygon fill="#63b8ff" stroke="#63b8ff" points="1126.31,-69.54 1136.21,-65.75 1126.11,-62.54 1126.31,-69.54"/>
</a>
</g>
</g>
<!-- Node17&#45;&gt;Node4 -->
<g id="edge30_Node000017_Node000004" class="edge">
<title>Node17&#45;&gt;Node4</title>
<g id="a_edge30_Node000017_Node000004"><a xlink:title=" ">
<path fill="none" stroke="#63b8ff" d="M699.48,-166.57C612.58,-157.89 459.28,-142.51 328,-129 314.46,-127.61 299.65,-126.06 286.44,-124.67"/>
<polygon fill="#63b8ff" stroke="#63b8ff" points="286.55,-121.16 276.24,-123.6 285.82,-128.12 286.55,-121.16"/>
</a>
</g>
</g>
<!-- Node17&#45;&gt;Node5 -->
<g id="edge33_Node000017_Node000005" class="edge">
<title>Node17&#45;&gt;Node5</title>
<g id="a_edge33_Node000017_Node000005"><a xlink:title=" ">
<path fill="none" stroke="#63b8ff" d="M790.69,-164.98C812.8,-156.3 847.32,-142.75 872.45,-132.88"/>
<polygon fill="#63b8ff" stroke="#63b8ff" points="873.89,-136.08 881.92,-129.17 871.33,-129.57 873.89,-136.08"/>
</a>
</g>
</g>
<!-- Node17&#45;&gt;Node6 -->
<g id="edge27_Node000017_Node000006" class="edge">
<title>Node17&#45;&gt;Node6</title>
<g id="a_edge27_Node000017_Node000006"><a xlink:title=" ">
<path fill="none" stroke="#63b8ff" d="M838.57,-173.81C921.26,-172.53 1052,-164.7 1083,-129 1158.61,-41.92 912.57,-17.95 822.07,-12.16"/>
<polygon fill="#63b8ff" stroke="#63b8ff" points="822.27,-8.67 812.08,-11.56 821.85,-15.65 822.27,-8.67"/>
</a>
</g>
</g>
<!-- Node17&#45;&gt;Node9 -->
<g id="edge34_Node000017_Node000009" class="edge">
<title>Node17&#45;&gt;Node9</title>
<g id="a_edge34_Node000017_Node000009"><a xlink:title=" ">
<path fill="none" stroke="#63b8ff" d="M767.45,-164.66C764.37,-147.17 757.44,-107.8 753.3,-84.27"/>
<polygon fill="#63b8ff" stroke="#63b8ff" points="756.7,-83.4 751.52,-74.16 749.81,-84.61 756.7,-83.4"/>
</a>
</g>
</g>
<!-- Node17&#45;&gt;Node12 -->
<g id="edge32_Node000017_Node000012" class="edge">
<title>Node17&#45;&gt;Node12</title>
<g id="a_edge32_Node000017_Node000012"><a xlink:title=" ">
<path fill="none" stroke="#63b8ff" d="M699.25,-171.37C623.09,-167.62 507.59,-157.31 475,-129 462.39,-118.04 457.97,-99.09 456.51,-84.74"/>
<polygon fill="#63b8ff" stroke="#63b8ff" points="459.98,-84.21 455.87,-74.45 453,-84.65 459.98,-84.21"/>
</a>
</g>
</g>
<!-- Node17&#45;&gt;Node13 -->
<g id="edge29_Node000017_Node000013" class="edge">
<title>Node17&#45;&gt;Node13</title>
<g id="a_edge29_Node000017_Node000013"><a xlink:title=" ">
<path fill="none" stroke="#63b8ff" d="M699.26,-170.1C624.57,-165.3 503.01,-154.12 401,-129 334.07,-112.52 310.52,-116.17 256,-74 240.18,-61.76 227.6,-42.44 219.81,-28.32"/>
<polygon fill="#63b8ff" stroke="#63b8ff" points="222.75,-26.37 215.01,-19.13 216.54,-29.62 222.75,-26.37"/>
</a>
</g>
</g>
<!-- Node17&#45;&gt;Node15 -->
<g id="edge26_Node000017_Node000015" class="edge">
<title>Node17&#45;&gt;Node15</title>
<g id="a_edge26_Node000017_Node000015"><a xlink:title=" ">
<path fill="none" stroke="#63b8ff" d="M774.07,-164.66C784.3,-146.85 807.54,-106.37 820.95,-83.01"/>
<polygon fill="#63b8ff" stroke="#63b8ff" points="824.09,-84.57 826.03,-74.16 818.02,-81.09 824.09,-84.57"/>
</a>
</g>
</g>
<!-- Node17&#45;&gt;Node16 -->
<g id="edge35_Node000017_Node000016" class="edge">
<title>Node17&#45;&gt;Node16</title>
<g id="a_edge35_Node000017_Node000016"><a xlink:title=" ">
<path fill="none" stroke="#63b8ff" d="M699.29,-168.7C635.75,-163.11 539.77,-151.59 459,-129 413.99,-116.41 364.62,-93.4 335.52,-78.81"/>
<polygon fill="#63b8ff" stroke="#63b8ff" points="336.97,-75.62 326.47,-74.21 333.8,-81.86 336.97,-75.62"/>
</a>
</g>
</g>
<!-- Node18 -->
<g id="Node000018" class="node">
<title>Node18</title>
<g id="a_Node000018"><a xlink:title=" ">
<polygon fill="#e0e0e0" stroke="#999999" points="744,-129 696,-129 696,-110 744,-110 744,-129"/>
<text text-anchor="middle" x="720" y="-117" font-family="Helvetica,sans-Serif" font-size="10.00">mutex</text>
</a>
</g>
</g>
<!-- Node17&#45;&gt;Node18 -->
<g id="edge31_Node000017_Node000018" class="edge">
<title>Node17&#45;&gt;Node18</title>
<g id="a_edge31_Node000017_Node000018"><a xlink:title=" ">
<path fill="none" stroke="#63b8ff" d="M760.91,-164.75C753.84,-157.11 743.41,-145.82 734.85,-136.56"/>
<polygon fill="#63b8ff" stroke="#63b8ff" points="737.3,-134.06 727.94,-129.09 732.16,-138.81 737.3,-134.06"/>
</a>
</g>
</g>
<!-- Node17&#45;&gt;Node19 -->
<g id="edge36_Node000017_Node000019" class="edge">
<title>Node17&#45;&gt;Node19</title>
<g id="a_edge36_Node000017_Node000019"><a xlink:title=" ">
<path fill="none" stroke="#63b8ff" d="M811.09,-164.98C856.7,-155.76 929.52,-141.03 978.75,-131.07"/>
<polygon fill="#63b8ff" stroke="#63b8ff" points="979.47,-134.5 988.58,-129.08 978.08,-127.63 979.47,-134.5"/>
</a>
</g>
</g>
<!-- Node20 -->
<g id="Node000020" class="node">
<title>Node20</title>
<g id="a_Node000020"><a xlink:href="evaluate_8h.html" target="_top" xlink:title=" ">
<polygon fill="white" stroke="#666666" points="602,-129 484,-129 484,-110 602,-110 602,-129"/>
<text text-anchor="middle" x="543" y="-117" font-family="Helvetica,sans-Serif" font-size="10.00">Evaluator/evaluate.h</text>
</a>
</g>
</g>
<!-- Node17&#45;&gt;Node20 -->
<g id="edge39_Node000017_Node000020" class="edge">
<title>Node17&#45;&gt;Node20</title>
<g id="a_edge39_Node000017_Node000020"><a xlink:title=" ">
<path fill="none" stroke="#63b8ff" d="M732.69,-164.98C693.76,-155.86 631.84,-141.33 589.4,-131.38"/>
<polygon fill="#63b8ff" stroke="#63b8ff" points="590.13,-127.96 579.6,-129.08 588.53,-134.77 590.13,-127.96"/>
</a>
</g>
</g>
<!-- Node19&#45;&gt;Node6 -->
<g id="edge37_Node000019_Node000006" class="edge">
<title>Node19&#45;&gt;Node6</title>
<g id="a_edge37_Node000019_Node000006"><a xlink:title=" ">
<path fill="none" stroke="#63b8ff" d="M1011.69,-109.84C969.28,-90.84 867.85,-45.39 818.27,-23.17"/>
<polygon fill="#63b8ff" stroke="#63b8ff" points="819.63,-19.94 809.07,-19.05 816.77,-26.33 819.63,-19.94"/>
</a>
</g>
</g>
<!-- Node19&#45;&gt;Node15 -->
<g id="edge38_Node000019_Node000015" class="edge">
<title>Node19&#45;&gt;Node15</title>
<g id="a_edge38_Node000019_Node000015"><a xlink:title=" ">
<path fill="none" stroke="#63b8ff" d="M998.87,-109.98C964.15,-100.78 908.76,-86.11 871.18,-76.15"/>
<polygon fill="#63b8ff" stroke="#63b8ff" points="871.65,-72.65 861.09,-73.47 869.86,-79.42 871.65,-72.65"/>
</a>
</g>
</g>
<!-- Node20&#45;&gt;Node2 -->
<g id="edge40_Node000020_Node000002" class="edge">
<title>Node20&#45;&gt;Node2</title>
<g id="a_edge40_Node000020_Node000002"><a xlink:title=" ">
<path fill="none" stroke="#63b8ff" d="M602.06,-113.42C729.61,-102.44 1027.29,-76.83 1126.31,-68.31"/>
<polygon fill="#63b8ff" stroke="#63b8ff" points="1126.66,-71.8 1136.33,-67.45 1126.06,-64.82 1126.66,-71.8"/>
</a>
</g>
</g>
<!-- Node20&#45;&gt;Node6 -->
<g id="edge42_Node000020_Node000006" class="edge">
<title>Node20&#45;&gt;Node6</title>
<g id="a_edge42_Node000020_Node000006"><a xlink:title=" ">
<path fill="none" stroke="#63b8ff" d="M550.58,-109.66C562.89,-95.88 588.63,-69.36 616,-55 661.99,-30.87 721.79,-19.3 757.96,-14.16"/>
<polygon fill="#63b8ff" stroke="#63b8ff" points="758.5,-17.62 767.95,-12.83 757.57,-10.69 758.5,-17.62"/>
</a>
</g>
</g>
<!-- Node20&#45;&gt;Node7 -->
<g id="edge44_Node000020_Node000007" class="edge">
<title>Node20&#45;&gt;Node7</title>
<g id="a_edge44_Node000020_Node000007"><a xlink:title=" ">
<path fill="none" stroke="#63b8ff" d="M518.9,-109.98C492.94,-100.81 451.57,-86.19 423.39,-76.24"/>
<polygon fill="#63b8ff" stroke="#63b8ff" points="424.25,-72.83 413.66,-72.8 421.92,-79.43 424.25,-72.83"/>
</a>
</g>
</g>
<!-- Node20&#45;&gt;Node9 -->
<g id="edge43_Node000020_Node000009" class="edge">
<title>Node20&#45;&gt;Node9</title>
<g id="a_edge43_Node000020_Node000009"><a xlink:title=" ">
<path fill="none" stroke="#63b8ff" d="M576.26,-109.98C611.82,-100.88 668.34,-86.41 707.2,-76.46"/>
<polygon fill="#63b8ff" stroke="#63b8ff" points="708.35,-79.78 717.17,-73.91 706.61,-73 708.35,-79.78"/>
</a>
</g>
</g>
<!-- Node20&#45;&gt;Node12 -->
<g id="edge45_Node000020_Node000012" class="edge">
<title>Node20&#45;&gt;Node12</title>
<g id="a_edge45_Node000020_Node000012"><a xlink:title=" ">
<path fill="none" stroke="#63b8ff" d="M529.02,-109.98C515.53,-101.77 494.87,-89.18 478.96,-79.49"/>
<polygon fill="#63b8ff" stroke="#63b8ff" points="480.59,-76.38 470.23,-74.17 476.95,-82.36 480.59,-76.38"/>
</a>
</g>
</g>
<!-- Node20&#45;&gt;Node13 -->
<g id="edge41_Node000020_Node000013" class="edge">
<title>Node20&#45;&gt;Node13</title>
<g id="a_edge41_Node000020_Node000013"><a xlink:title=" ">
<path fill="none" stroke="#63b8ff" d="M537.72,-109.8C528.66,-95.71 508.71,-68.14 484,-55 392.64,-6.43 355.88,-37.04 254,-19 250.95,-18.46 247.79,-17.88 244.62,-17.28"/>
<polygon fill="#63b8ff" stroke="#63b8ff" points="245.11,-13.81 234.63,-15.35 243.78,-20.68 245.11,-13.81"/>
</a>
</g>
</g>
<!-- Node20&#45;&gt;Node16 -->
<g id="edge46_Node000020_Node000016" class="edge">
<title>Node20&#45;&gt;Node16</title>
<g id="a_edge46_Node000020_Node000016"><a xlink:title=" ">
<path fill="none" stroke="#63b8ff" d="M505.56,-109.98C465.35,-100.84 401.32,-86.27 357.56,-76.32"/>
<polygon fill="#63b8ff" stroke="#63b8ff" points="358.26,-72.89 347.73,-74.08 356.7,-79.71 358.26,-72.89"/>
</a>
</g>
</g>
<!-- Node21&#45;&gt;Node2 -->
<g id="edge52_Node000021_Node000002" class="edge">
<title>Node21&#45;&gt;Node2</title>
<g id="a_edge52_Node000021_Node000002"><a xlink:title=" ">
<path fill="none" stroke="#63b8ff" d="M830.02,-338.6C967.98,-337.18 1292,-323.91 1292,-230.5 1292,-230.5 1292,-230.5 1292,-173.5 1292,-121.68 1230.39,-90.37 1191.04,-75.65"/>
<polygon fill="#63b8ff" stroke="#63b8ff" points="1192.16,-72.34 1181.56,-72.27 1189.8,-78.93 1192.16,-72.34"/>
</a>
</g>
</g>
<!-- Node21&#45;&gt;Node3 -->
<g id="edge54_Node000021_Node000003" class="edge">
<title>Node21&#45;&gt;Node3</title>
<g id="a_edge54_Node000021_Node000003"><a xlink:title=" ">
<path fill="none" stroke="#63b8ff" d="M786.67,-329.98C804.29,-321.5 831.58,-308.35 851.93,-298.54"/>
<polygon fill="#63b8ff" stroke="#63b8ff" points="853.52,-301.66 861.01,-294.17 850.48,-295.36 853.52,-301.66"/>
</a>
</g>
</g>
<!-- Node21&#45;&gt;Node4 -->
<g id="edge51_Node000021_Node000004" class="edge">
<title>Node21&#45;&gt;Node4</title>
<g id="a_edge51_Node000021_Node000004"><a xlink:title=" ">
<path fill="none" stroke="#63b8ff" d="M707.76,-332.84C567.4,-318.39 229.98,-274.67 171,-184 156.89,-162.31 185.64,-144.17 211.74,-132.91"/>
<polygon fill="#63b8ff" stroke="#63b8ff" points="213.2,-136.09 221.14,-129.08 210.56,-129.61 213.2,-136.09"/>
</a>
</g>
</g>
<!-- Node21&#45;&gt;Node10 -->
<g id="edge55_Node000021_Node000010" class="edge">
<title>Node21&#45;&gt;Node10</title>
<g id="a_edge55_Node000021_Node000010"><a xlink:title=" ">
<path fill="none" stroke="#63b8ff" d="M736.41,-329.94C662.59,-310.54 482.69,-263.26 400.37,-241.63"/>
<polygon fill="#63b8ff" stroke="#63b8ff" points="401.16,-238.22 390.6,-239.07 399.38,-244.99 401.16,-238.22"/>
</a>
</g>
</g>
<!-- Node21&#45;&gt;Node16 -->
<g id="edge53_Node000021_Node000016" class="edge">
<title>Node21&#45;&gt;Node16</title>
<g id="a_edge53_Node000021_Node000016"><a xlink:title=" ">
<path fill="none" stroke="#63b8ff" d="M707.69,-336.32C525.51,-329.03 0,-301.83 0,-230.5 0,-230.5 0,-230.5 0,-173.5 0,-120.06 166.34,-86.96 255.32,-73.08"/>
<polygon fill="#63b8ff" stroke="#63b8ff" points="255.9,-76.53 265.25,-71.56 254.84,-69.61 255.9,-76.53"/>
</a>
</g>
</g>
<!-- Node21&#45;&gt;Node17 -->
<g id="edge56_Node000021_Node000017" class="edge">
<title>Node21&#45;&gt;Node17</title>
<g id="a_edge56_Node000021_Node000017"><a xlink:title=" ">
<path fill="none" stroke="#63b8ff" d="M769,-329.74C769,-304.31 769,-230.08 769,-194.69"/>
<polygon fill="#63b8ff" stroke="#63b8ff" points="772.5,-194.31 769,-184.31 765.5,-194.31 772.5,-194.31"/>
</a>
</g>
</g>
</g>
</svg>

<g id="navigator" transform="translate(0 0)" fill="#404254">
  <rect fill="#f2f5e9" fill-opacity="0.5" stroke="#606060" stroke-width=".5" x="0" y="0" width="60" height="60"/>
  <use id="zoomplus" xlink:href="#zoomPlus" x="17" y="9" onmousedown="handleZoom(evt,'in')"/>
  <use id="zoomminus" xlink:href="#zoomMin" x="42" y="9" onmousedown="handleZoom(evt,'out')"/>
  <use id="reset" xlink:href="#resetDef" x="30" y="36" onmousedown="handleReset()"/>
   <use id="arrowup" xlink:href="#arrowUp" x="0" y="0" onmousedown="handlePan(0,-1)"/>
  <use id="arrowright" xlink:href="#arrowRight" x="0" y="0" onmousedown="handlePan(1,0)"/>
  <use id="arrowdown" xlink:href="#arrowDown" x="0" y="0" onmousedown="handlePan(0,1)"/>
  <use id="arrowleft" xlink:href="#arrowLeft" x="0" y="0" onmousedown="handlePan(-1,0)"/>
</g>
<svg viewBox="0 0 15 15" width="100%" height="30px" preserveAspectRatio="xMaxYMin meet">
 <g id="arrow_out" transform="scale(0.3 0.3)">
  <a xlink:href="simulatorDriver_8h__incl_org.svg" target="_base">
   <rect id="button" ry="5" rx="5" y="6" x="6" height="38" width="38"
        fill="#f2f5e9" fill-opacity="0.5" stroke="#606060" stroke-width="1.0"/>
   <path id="arrow"
     d="M 11.500037,31.436501 C 11.940474,20.09759 22.043105,11.32322 32.158766,21.979434 L 37.068811,17.246167 C 37.068811,17.246167 37.088388,32 37.088388,32 L 22.160133,31.978069 C 22.160133,31.978069 26.997745,27.140456 26.997745,27.140456 C 18.528582,18.264221 13.291696,25.230495 11.500037,31.436501 z"
     style="fill:#404040;"/>
  </a>
 </g>
</svg>

<style type='text/css'>
<![CDATA[
[data-mouse-over-selected='false'] { opacity: 0.7; }
[data-mouse-over-selected='true']  { opacity: 1.0; }
]]>
</style>
<script type="application/ecmascript"><![CDATA[
document.addEventListener('DOMContentLoaded', (event) => {
  highlightEdges();
  highlightAdjacentNodes();
});
]]></script>
</svg>
