<?xml version="1.0" encoding="UTF-8" standalone="no"?>
<!DOCTYPE svg PUBLIC "-//W3C//DTD SVG 1.1//EN"
 "http://www.w3.org/Graphics/SVG/1.1/DTD/svg11.dtd">
<!-- Generated by graphviz version 2.43.0 (0)
 -->
<!-- Title: include/Simulator/simulator.h Pages: 1 -->
<svg width="839pt" height="489pt"
 viewBox="0.00 0.00 839.00 489.00" xmlns="http://www.w3.org/2000/svg" xmlns:xlink="http://www.w3.org/1999/xlink">
<g id="graph0" class="graph" transform="scale(1 1) rotate(0) translate(4 485)">
<title>include/Simulator/simulator.h</title>
<!-- Node1 -->
<g id="Node000001" class="node">
<title>Node1</title>
<g id="a_Node000001"><a xlink:title=" ">
<polygon fill="#999999" stroke="#666666" points="611,-481 451,-481 451,-462 611,-462 611,-481"/>
<text text-anchor="middle" x="531" y="-469" font-family="Helvetica,sans-Serif" font-size="10.00">include/Simulator/simulator.h</text>
</a>
</g>
</g>
<!-- Node2 -->
<g id="Node000002" class="node">
<title>Node2</title>
<g id="a_Node000002"><a xlink:href="simulatorDriver_8h.html" target="_top" xlink:title=" ">
<polygon fill="white" stroke="#666666" points="520,-426 380,-426 380,-396 520,-396 520,-426"/>
<text text-anchor="start" x="388" y="-414" font-family="Helvetica,sans-Serif" font-size="10.00">include/Drivers/simulator</text>
<text text-anchor="middle" x="450" y="-403" font-family="Helvetica,sans-Serif" font-size="10.00">Driver.h</text>
</a>
</g>
</g>
<!-- Node1&#45;&gt;Node2 -->
<g id="edge1_Node000001_Node000002" class="edge">
<title>Node1&#45;&gt;Node2</title>
<g id="a_edge1_Node000001_Node000002"><a xlink:title=" ">
<path fill="none" stroke="#63b8ff" d="M510.6,-455.77C498.02,-446.68 481.96,-435.09 469.54,-426.11"/>
<polygon fill="#63b8ff" stroke="#63b8ff" points="508.89,-458.85 519.05,-461.87 512.99,-453.18 508.89,-458.85"/>
</a>
</g>
</g>
<!-- Node16 -->
<g id="Node000016" class="node">
<title>Node16</title>
<g id="a_Node000016"><a xlink:href="simulator_8cpp.html" target="_top" xlink:title=" ">
<polygon fill="white" stroke="#666666" points="688,-420.5 538,-420.5 538,-401.5 688,-401.5 688,-420.5"/>
<text text-anchor="middle" x="613" y="-408.5" font-family="Helvetica,sans-Serif" font-size="10.00">src/Simulator/simulator.cpp</text>
</a>
</g>
</g>
<!-- Node1&#45;&gt;Node16 -->
<g id="edge26_Node000001_Node000016" class="edge">
<title>Node1&#45;&gt;Node16</title>
<g id="a_edge26_Node000001_Node000016"><a xlink:title=" ">
<path fill="none" stroke="#63b8ff" d="M551.54,-455.85C567.07,-444.77 587.87,-429.93 600.85,-420.67"/>
<polygon fill="#63b8ff" stroke="#63b8ff" points="549.21,-453.21 543.1,-461.87 553.27,-458.91 549.21,-453.21"/>
</a>
</g>
</g>
<!-- Node3 -->
<g id="Node000003" class="node">
<title>Node3</title>
<g id="a_Node000003"><a xlink:href="dutDriver_8h.html" target="_top" xlink:title=" ">
<polygon fill="white" stroke="#666666" points="298.5,-294 151.5,-294 151.5,-275 298.5,-275 298.5,-294"/>
<text text-anchor="middle" x="225" y="-282" font-family="Helvetica,sans-Serif" font-size="10.00">include/Drivers/dutDriver.h</text>
</a>
</g>
</g>
<!-- Node2&#45;&gt;Node3 -->
<g id="edge2_Node000002_Node000003" class="edge">
<title>Node2&#45;&gt;Node3</title>
<g id="a_edge2_Node000002_Node000003"><a xlink:title=" ">
<path fill="none" stroke="#63b8ff" d="M415.87,-391.12C366.35,-363.71 276.57,-314.04 240.56,-294.11"/>
<polygon fill="#63b8ff" stroke="#63b8ff" points="414.18,-394.18 424.63,-395.96 417.57,-388.06 414.18,-394.18"/>
</a>
</g>
</g>
<!-- Node5 -->
<g id="Node000005" class="node">
<title>Node5</title>
<g id="a_Node000005"><a xlink:href="spreader_8h.html" target="_top" xlink:title=" ">
<polygon fill="white" stroke="#666666" points="180,-129 28,-129 28,-110 180,-110 180,-129"/>
<text text-anchor="middle" x="104" y="-117" font-family="Helvetica,sans-Serif" font-size="10.00">include/Spreader/spreader.h</text>
</a>
</g>
</g>
<!-- Node2&#45;&gt;Node5 -->
<g id="edge22_Node000002_Node000005" class="edge">
<title>Node2&#45;&gt;Node5</title>
<g id="a_edge22_Node000002_Node000005"><a xlink:title=" ">
<path fill="none" stroke="#63b8ff" d="M369.82,-397.09C269.3,-378.59 110,-340.58 110,-285.5 110,-285.5 110,-285.5 110,-228.5 110,-191.51 106.45,-147.49 104.81,-129.17"/>
<polygon fill="#63b8ff" stroke="#63b8ff" points="369.5,-400.59 379.96,-398.93 370.75,-393.7 369.5,-400.59"/>
</a>
</g>
</g>
<!-- Node6 -->
<g id="Node000006" class="node">
<title>Node6</title>
<g id="a_Node000006"><a xlink:href="mlvp_8h.html" target="_top" xlink:title=" ">
<polygon fill="white" stroke="#666666" points="428.5,-74 339.5,-74 339.5,-55 428.5,-55 428.5,-74"/>
<text text-anchor="middle" x="384" y="-62" font-family="Helvetica,sans-Serif" font-size="10.00">include/mlvp.h</text>
</a>
</g>
</g>
<!-- Node2&#45;&gt;Node6 -->
<g id="edge23_Node000002_Node000006" class="edge">
<title>Node2&#45;&gt;Node6</title>
<g id="a_edge23_Node000002_Node000006"><a xlink:title=" ">
<path fill="none" stroke="#63b8ff" d="M520.71,-392.91C572.94,-375.58 635,-342.9 635,-285.5 635,-285.5 635,-285.5 635,-173.5 635,-84.67 500.71,-68.01 428.58,-65.46"/>
<polygon fill="#63b8ff" stroke="#63b8ff" points="519.56,-389.6 511.09,-395.97 521.68,-396.27 519.56,-389.6"/>
</a>
</g>
</g>
<!-- Node7 -->
<g id="Node000007" class="node">
<title>Node7</title>
<g id="a_Node000007"><a xlink:href="main_8cpp.html" target="_top" xlink:title=" ">
<polygon fill="white" stroke="#666666" points="231.5,-19 152.5,-19 152.5,0 231.5,0 231.5,-19"/>
<text text-anchor="middle" x="192" y="-7" font-family="Helvetica,sans-Serif" font-size="10.00">src/main.cpp</text>
</a>
</g>
</g>
<!-- Node2&#45;&gt;Node7 -->
<g id="edge25_Node000002_Node000007" class="edge">
<title>Node2&#45;&gt;Node7</title>
<g id="a_edge25_Node000002_Node000007"><a xlink:title=" ">
<path fill="none" stroke="#63b8ff" d="M369.42,-404.25C239.95,-392.77 0,-361.27 0,-285.5 0,-285.5 0,-285.5 0,-118.5 0,-88.48 0.84,-75.25 23,-55 58.39,-22.66 114.47,-13.29 152.22,-10.85"/>
<polygon fill="#63b8ff" stroke="#63b8ff" points="369.42,-407.76 379.69,-405.14 370.03,-400.79 369.42,-407.76"/>
</a>
</g>
</g>
<!-- Node10 -->
<g id="Node000010" class="node">
<title>Node10</title>
<g id="a_Node000010"><a xlink:href="refDriver_8h.html" target="_top" xlink:title=" ">
<polygon fill="white" stroke="#666666" points="553.5,-239 408.5,-239 408.5,-220 553.5,-220 553.5,-239"/>
<text text-anchor="middle" x="481" y="-227" font-family="Helvetica,sans-Serif" font-size="10.00">include/Drivers/refDriver.h</text>
</a>
</g>
</g>
<!-- Node2&#45;&gt;Node10 -->
<g id="edge16_Node000002_Node000010" class="edge">
<title>Node2&#45;&gt;Node10</title>
<g id="a_edge16_Node000002_Node000010"><a xlink:title=" ">
<path fill="none" stroke="#63b8ff" d="M499.61,-391.07C512.8,-383.5 525.47,-373.33 533,-360 557.31,-316.97 509.86,-260.29 489.57,-239.03"/>
<polygon fill="#63b8ff" stroke="#63b8ff" points="497.65,-388.15 490.44,-395.91 500.92,-394.34 497.65,-388.15"/>
</a>
</g>
</g>
<!-- Node13 -->
<g id="Node000013" class="node">
<title>Node13</title>
<g id="a_Node000013"><a xlink:href="transDriverModel_8h.html" target="_top" xlink:title=" ">
<polygon fill="white" stroke="#666666" points="524,-360 376,-360 376,-330 524,-330 524,-360"/>
<text text-anchor="start" x="384" y="-348" font-family="Helvetica,sans-Serif" font-size="10.00">include/Drivers/transDriver</text>
<text text-anchor="middle" x="450" y="-337" font-family="Helvetica,sans-Serif" font-size="10.00">Model.h</text>
</a>
</g>
</g>
<!-- Node2&#45;&gt;Node13 -->
<g id="edge17_Node000002_Node000013" class="edge">
<title>Node2&#45;&gt;Node13</title>
<g id="a_edge17_Node000002_Node000013"><a xlink:title=" ">
<path fill="none" stroke="#63b8ff" d="M450,-385.54C450,-376.96 450,-367.61 450,-360.16"/>
<polygon fill="#63b8ff" stroke="#63b8ff" points="446.5,-385.8 450,-395.8 453.5,-385.8 446.5,-385.8"/>
</a>
</g>
</g>
<!-- Node15 -->
<g id="Node000015" class="node">
<title>Node15</title>
<g id="a_Node000015"><a xlink:href="simulatorDriver_8cpp.html" target="_top" xlink:title=" ">
<polygon fill="white" stroke="#666666" points="831,-354.5 663,-354.5 663,-335.5 831,-335.5 831,-354.5"/>
<text text-anchor="middle" x="747" y="-342.5" font-family="Helvetica,sans-Serif" font-size="10.00">src/Drivers/simulatorDriver.cpp</text>
</a>
</g>
</g>
<!-- Node2&#45;&gt;Node15 -->
<g id="edge24_Node000002_Node000015" class="edge">
<title>Node2&#45;&gt;Node15</title>
<g id="a_edge24_Node000002_Node000015"><a xlink:title=" ">
<path fill="none" stroke="#63b8ff" d="M525.04,-393.83C583.05,-381.33 661.06,-364.52 707.47,-354.52"/>
<polygon fill="#63b8ff" stroke="#63b8ff" points="524.22,-390.43 515.18,-395.95 525.69,-397.27 524.22,-390.43"/>
</a>
</g>
</g>
<!-- Node4 -->
<g id="Node000004" class="node">
<title>Node4</title>
<g id="a_Node000004"><a xlink:href="driver_8h.html" target="_top" xlink:title=" ">
<polygon fill="white" stroke="#666666" points="354,-184 224,-184 224,-165 354,-165 354,-184"/>
<text text-anchor="middle" x="289" y="-172" font-family="Helvetica,sans-Serif" font-size="10.00">include/Drivers/driver.h</text>
</a>
</g>
</g>
<!-- Node3&#45;&gt;Node4 -->
<g id="edge3_Node000003_Node000004" class="edge">
<title>Node3&#45;&gt;Node4</title>
<g id="a_edge3_Node000003_Node000004"><a xlink:title=" ">
<path fill="none" stroke="#63b8ff" d="M228.41,-264.91C231.4,-251.71 236.61,-233.92 245,-220 253.64,-205.67 267.81,-192.48 277.72,-184.24"/>
<polygon fill="#63b8ff" stroke="#63b8ff" points="224.98,-264.25 226.4,-274.74 231.83,-265.65 224.98,-264.25"/>
</a>
</g>
</g>
<!-- Node3&#45;&gt;Node6 -->
<g id="edge14_Node000003_Node000006" class="edge">
<title>Node3&#45;&gt;Node6</title>
<g id="a_edge14_Node000003_Node000006"><a xlink:title=" ">
<path fill="none" stroke="#63b8ff" d="M218.24,-265.36C206.45,-230.21 186.98,-152.56 227,-110 255.82,-79.35 304.03,-69.29 339.44,-66.24"/>
<polygon fill="#63b8ff" stroke="#63b8ff" points="214.95,-266.55 221.58,-274.81 221.55,-264.22 214.95,-266.55"/>
</a>
</g>
</g>
<!-- Node3&#45;&gt;Node10 -->
<g id="edge10_Node000003_Node000010" class="edge">
<title>Node3&#45;&gt;Node10</title>
<g id="a_edge10_Node000003_Node000010"><a xlink:title=" ">
<path fill="none" stroke="#63b8ff" d="M276,-272.94C323.99,-263.01 394.95,-248.31 439.55,-239.08"/>
<polygon fill="#63b8ff" stroke="#63b8ff" points="275.21,-269.53 266.13,-274.98 276.63,-276.38 275.21,-269.53"/>
</a>
</g>
</g>
<!-- Node12 -->
<g id="Node000012" class="node">
<title>Node12</title>
<g id="a_Node000012"><a xlink:href="dutDriver_8cpp.html" target="_top" xlink:title=" ">
<polygon fill="white" stroke="#666666" points="390.5,-239 253.5,-239 253.5,-220 390.5,-220 390.5,-239"/>
<text text-anchor="middle" x="322" y="-227" font-family="Helvetica,sans-Serif" font-size="10.00">src/Drivers/dutDriver.cpp</text>
</a>
</g>
</g>
<!-- Node3&#45;&gt;Node12 -->
<g id="edge15_Node000003_Node000012" class="edge">
<title>Node3&#45;&gt;Node12</title>
<g id="a_edge15_Node000003_Node000012"><a xlink:title=" ">
<path fill="none" stroke="#63b8ff" d="M249.77,-269.97C267.5,-260.28 290.85,-247.52 306.13,-239.17"/>
<polygon fill="#63b8ff" stroke="#63b8ff" points="247.68,-267.12 240.58,-274.98 251.04,-273.26 247.68,-267.12"/>
</a>
</g>
</g>
<!-- Node4&#45;&gt;Node5 -->
<g id="edge4_Node000004_Node000005" class="edge">
<title>Node4&#45;&gt;Node5</title>
<g id="a_edge4_Node000004_Node000005"><a xlink:title=" ">
<path fill="none" stroke="#63b8ff" d="M249.5,-162.18C214.9,-152.27 165.37,-138.08 133.96,-129.08"/>
<polygon fill="#63b8ff" stroke="#63b8ff" points="248.7,-165.6 259.28,-164.98 250.63,-158.87 248.7,-165.6"/>
</a>
</g>
</g>
<!-- Node4&#45;&gt;Node6 -->
<g id="edge8_Node000004_Node000006" class="edge">
<title>Node4&#45;&gt;Node6</title>
<g id="a_edge8_Node000004_Node000006"><a xlink:title=" ">
<path fill="none" stroke="#63b8ff" d="M322.63,-160.58C337.51,-153.33 354.07,-142.91 365,-129 377.94,-112.53 382.08,-87.38 383.4,-74.22"/>
<polygon fill="#63b8ff" stroke="#63b8ff" points="320.82,-157.56 313.17,-164.89 323.72,-163.93 320.82,-157.56"/>
</a>
</g>
</g>
<!-- Node9 -->
<g id="Node000009" class="node">
<title>Node9</title>
<g id="a_Node000009"><a xlink:href="driver_8cpp.html" target="_top" xlink:title=" ">
<polygon fill="white" stroke="#666666" points="356,-129 236,-129 236,-110 356,-110 356,-129"/>
<text text-anchor="middle" x="296" y="-117" font-family="Helvetica,sans-Serif" font-size="10.00">src/Drivers/driver.cpp</text>
</a>
</g>
</g>
<!-- Node4&#45;&gt;Node9 -->
<g id="edge9_Node000004_Node000009" class="edge">
<title>Node4&#45;&gt;Node9</title>
<g id="a_edge9_Node000004_Node000009"><a xlink:title=" ">
<path fill="none" stroke="#63b8ff" d="M291.49,-154.66C292.64,-145.93 293.95,-135.99 294.87,-129.09"/>
<polygon fill="#63b8ff" stroke="#63b8ff" points="288,-154.38 290.16,-164.75 294.94,-155.29 288,-154.38"/>
</a>
</g>
</g>
<!-- Node5&#45;&gt;Node6 -->
<g id="edge5_Node000005_Node000006" class="edge">
<title>Node5&#45;&gt;Node6</title>
<g id="a_edge5_Node000005_Node000006"><a xlink:title=" ">
<path fill="none" stroke="#63b8ff" d="M158.83,-108.12C211.49,-98.15 290.08,-83.28 339.12,-73.99"/>
<polygon fill="#63b8ff" stroke="#63b8ff" points="158.16,-104.69 148.99,-109.98 159.46,-111.56 158.16,-104.69"/>
</a>
</g>
</g>
<!-- Node8 -->
<g id="Node000008" class="node">
<title>Node8</title>
<g id="a_Node000008"><a xlink:href="spreader_8cpp.html" target="_top" xlink:title=" ">
<polygon fill="white" stroke="#666666" points="175.5,-74 32.5,-74 32.5,-55 175.5,-55 175.5,-74"/>
<text text-anchor="middle" x="104" y="-62" font-family="Helvetica,sans-Serif" font-size="10.00">src/Spreader/spreader.cpp</text>
</a>
</g>
</g>
<!-- Node5&#45;&gt;Node8 -->
<g id="edge7_Node000005_Node000008" class="edge">
<title>Node5&#45;&gt;Node8</title>
<g id="a_edge7_Node000005_Node000008"><a xlink:title=" ">
<path fill="none" stroke="#63b8ff" d="M104,-99.66C104,-90.93 104,-80.99 104,-74.09"/>
<polygon fill="#63b8ff" stroke="#63b8ff" points="100.5,-99.75 104,-109.75 107.5,-99.75 100.5,-99.75"/>
</a>
</g>
</g>
<!-- Node6&#45;&gt;Node7 -->
<g id="edge6_Node000006_Node000007" class="edge">
<title>Node6&#45;&gt;Node7</title>
<g id="a_edge6_Node000006_Node000007"><a xlink:title=" ">
<path fill="none" stroke="#63b8ff" d="M343.47,-52.31C307.54,-42.39 255.84,-28.12 223.09,-19.08"/>
<polygon fill="#63b8ff" stroke="#63b8ff" points="342.58,-55.7 353.15,-54.98 344.44,-48.95 342.58,-55.7"/>
</a>
</g>
</g>
<!-- Node10&#45;&gt;Node4 -->
<g id="edge11_Node000010_Node000004" class="edge">
<title>Node10&#45;&gt;Node4</title>
<g id="a_edge11_Node000010_Node000004"><a xlink:title=" ">
<path fill="none" stroke="#63b8ff" d="M440.47,-217.31C404.54,-207.39 352.84,-193.12 320.09,-184.08"/>
<polygon fill="#63b8ff" stroke="#63b8ff" points="439.58,-220.7 450.15,-219.98 441.44,-213.95 439.58,-220.7"/>
</a>
</g>
</g>
<!-- Node10&#45;&gt;Node6 -->
<g id="edge12_Node000010_Node000006" class="edge">
<title>Node10&#45;&gt;Node6</title>
<g id="a_edge12_Node000010_Node000006"><a xlink:title=" ">
<path fill="none" stroke="#63b8ff" d="M499.88,-212.5C512.45,-199.81 525.27,-181.52 517,-165 493.63,-118.33 436.82,-87.91 405.54,-74.1"/>
<polygon fill="#63b8ff" stroke="#63b8ff" points="497.19,-210.23 492.28,-219.61 501.97,-215.34 497.19,-210.23"/>
</a>
</g>
</g>
<!-- Node11 -->
<g id="Node000011" class="node">
<title>Node11</title>
<g id="a_Node000011"><a xlink:href="refDriver_8cpp.html" target="_top" xlink:title=" ">
<polygon fill="white" stroke="#666666" points="507.5,-184 372.5,-184 372.5,-165 507.5,-165 507.5,-184"/>
<text text-anchor="middle" x="440" y="-172" font-family="Helvetica,sans-Serif" font-size="10.00">src/Drivers/refDriver.cpp</text>
</a>
</g>
</g>
<!-- Node10&#45;&gt;Node11 -->
<g id="edge13_Node000010_Node000011" class="edge">
<title>Node10&#45;&gt;Node11</title>
<g id="a_edge13_Node000010_Node000011"><a xlink:title=" ">
<path fill="none" stroke="#63b8ff" d="M467.98,-211.67C460.88,-202.5 452.4,-191.52 446.64,-184.09"/>
<polygon fill="#63b8ff" stroke="#63b8ff" points="465.34,-213.98 474.23,-219.75 470.88,-209.7 465.34,-213.98"/>
</a>
</g>
</g>
<!-- Node13&#45;&gt;Node3 -->
<g id="edge18_Node000013_Node000003" class="edge">
<title>Node13&#45;&gt;Node3</title>
<g id="a_edge18_Node000013_Node000003"><a xlink:title=" ">
<path fill="none" stroke="#63b8ff" d="M386.28,-327.43C344.46,-316.56 291.48,-302.78 257.9,-294.05"/>
<polygon fill="#63b8ff" stroke="#63b8ff" points="385.55,-330.86 396.11,-329.99 387.31,-324.08 385.55,-330.86"/>
</a>
</g>
</g>
<!-- Node13&#45;&gt;Node6 -->
<g id="edge20_Node000013_Node000006" class="edge">
<title>Node13&#45;&gt;Node6</title>
<g id="a_edge20_Node000013_Node000006"><a xlink:title=" ">
<path fill="none" stroke="#63b8ff" d="M488.87,-324.86C526.12,-303.5 575.03,-265.84 563,-220 548.23,-163.72 537.74,-145.97 492,-110 470,-92.7 440.34,-81.12 417.66,-74.12"/>
<polygon fill="#63b8ff" stroke="#63b8ff" points="486.76,-322.03 479.7,-329.94 490.14,-328.16 486.76,-322.03"/>
</a>
</g>
</g>
<!-- Node13&#45;&gt;Node10 -->
<g id="edge19_Node000013_Node000010" class="edge">
<title>Node13&#45;&gt;Node10</title>
<g id="a_edge19_Node000013_Node000010"><a xlink:title=" ">
<path fill="none" stroke="#63b8ff" d="M479.97,-323.44C489.13,-315.42 498.08,-305.41 503,-294 511.23,-274.93 497.38,-251.68 488.17,-239.28"/>
<polygon fill="#63b8ff" stroke="#63b8ff" points="477.52,-320.92 471.96,-329.94 481.93,-326.35 477.52,-320.92"/>
</a>
</g>
</g>
<!-- Node14 -->
<g id="Node000014" class="node">
<title>Node14</title>
<g id="a_Node000014"><a xlink:href="transDriverModel_8cpp.html" target="_top" xlink:title=" ">
<polygon fill="white" stroke="#666666" points="493.5,-294 316.5,-294 316.5,-275 493.5,-275 493.5,-294"/>
<text text-anchor="middle" x="405" y="-282" font-family="Helvetica,sans-Serif" font-size="10.00">src/Drivers/transDriverModel.cpp</text>
</a>
</g>
</g>
<!-- Node13&#45;&gt;Node14 -->
<g id="edge21_Node000013_Node000014" class="edge">
<title>Node13&#45;&gt;Node14</title>
<g id="a_edge21_Node000013_Node000014"><a xlink:title=" ">
<path fill="none" stroke="#63b8ff" d="M432.92,-321.8C425.54,-312.21 417.34,-301.54 411.74,-294.27"/>
<polygon fill="#63b8ff" stroke="#63b8ff" points="430.24,-324.05 439.11,-329.84 435.78,-319.78 430.24,-324.05"/>
</a>
</g>
</g>
</g>
</svg>
