<?xml version="1.0" encoding="UTF-8" standalone="no"?>
<!DOCTYPE svg PUBLIC "-//W3C//DTD SVG 1.1//EN"
 "http://www.w3.org/Graphics/SVG/1.1/DTD/svg11.dtd">
<!-- Generated by graphviz version 2.43.0 (0)
 -->
<!-- Title: include/Simulator/simulator.h Pages: 1 -->
<svg width="931pt" height="489pt"
 viewBox="0.00 0.00 931.00 489.00" xmlns="http://www.w3.org/2000/svg" xmlns:xlink="http://www.w3.org/1999/xlink">
<g id="graph0" class="graph" transform="scale(1 1) rotate(0) translate(4 485)">
<title>include/Simulator/simulator.h</title>
<!-- Node1 -->
<g id="Node000001" class="node">
<title>Node1</title>
<g id="a_Node000001"><a xlink:title=" ">
<polygon fill="#999999" stroke="#666666" points="605,-481 445,-481 445,-462 605,-462 605,-481"/>
<text text-anchor="middle" x="525" y="-469" font-family="Helvetica,sans-Serif" font-size="10.00">include/Simulator/simulator.h</text>
</a>
</g>
</g>
<!-- Node2 -->
<g id="Node000002" class="node">
<title>Node2</title>
<g id="a_Node000002"><a xlink:href="simulatorDriver_8h.html" target="_top" xlink:title=" ">
<polygon fill="white" stroke="#666666" points="514,-426 374,-426 374,-396 514,-396 514,-426"/>
<text text-anchor="start" x="382" y="-414" font-family="Helvetica,sans-Serif" font-size="10.00">include/Drivers/simulator</text>
<text text-anchor="middle" x="444" y="-403" font-family="Helvetica,sans-Serif" font-size="10.00">Driver.h</text>
</a>
</g>
</g>
<!-- Node1&#45;&gt;Node2 -->
<g id="edge1_Node000001_Node000002" class="edge">
<title>Node1&#45;&gt;Node2</title>
<g id="a_edge1_Node000001_Node000002"><a xlink:title=" ">
<path fill="none" stroke="#63b8ff" d="M504.6,-455.77C492.02,-446.68 475.96,-435.09 463.54,-426.11"/>
<polygon fill="#63b8ff" stroke="#63b8ff" points="502.89,-458.85 513.05,-461.87 506.99,-453.18 502.89,-458.85"/>
</a>
</g>
</g>
<!-- Node16 -->
<g id="Node000016" class="node">
<title>Node16</title>
<g id="a_Node000016"><a xlink:href="simulator_8cpp.html" target="_top" xlink:title=" ">
<polygon fill="white" stroke="#666666" points="682,-420.5 532,-420.5 532,-401.5 682,-401.5 682,-420.5"/>
<text text-anchor="middle" x="607" y="-408.5" font-family="Helvetica,sans-Serif" font-size="10.00">src/Simulator/simulator.cpp</text>
</a>
</g>
</g>
<!-- Node1&#45;&gt;Node16 -->
<g id="edge27_Node000001_Node000016" class="edge">
<title>Node1&#45;&gt;Node16</title>
<g id="a_edge27_Node000001_Node000016"><a xlink:title=" ">
<path fill="none" stroke="#63b8ff" d="M545.54,-455.85C561.07,-444.77 581.87,-429.93 594.85,-420.67"/>
<polygon fill="#63b8ff" stroke="#63b8ff" points="543.21,-453.21 537.1,-461.87 547.27,-458.91 543.21,-453.21"/>
</a>
</g>
</g>
<!-- Node3 -->
<g id="Node000003" class="node">
<title>Node3</title>
<g id="a_Node000003"><a xlink:href="dutDriver_8h.html" target="_top" xlink:title=" ">
<polygon fill="white" stroke="#666666" points="466.5,-294 319.5,-294 319.5,-275 466.5,-275 466.5,-294"/>
<text text-anchor="middle" x="393" y="-282" font-family="Helvetica,sans-Serif" font-size="10.00">include/Drivers/dutDriver.h</text>
</a>
</g>
</g>
<!-- Node2&#45;&gt;Node3 -->
<g id="edge2_Node000002_Node000003" class="edge">
<title>Node2&#45;&gt;Node3</title>
<g id="a_edge2_Node000002_Node000003"><a xlink:title=" ">
<path fill="none" stroke="#63b8ff" d="M427.38,-387.43C421.87,-379.13 416.1,-369.44 412,-360 402.11,-337.23 396.56,-308.22 394.27,-294.06"/>
<polygon fill="#63b8ff" stroke="#63b8ff" points="424.61,-389.58 433.18,-395.82 430.37,-385.6 424.61,-389.58"/>
</a>
</g>
</g>
<!-- Node5 -->
<g id="Node000005" class="node">
<title>Node5</title>
<g id="a_Node000005"><a xlink:href="spreader_8h.html" target="_top" xlink:title=" ">
<polygon fill="white" stroke="#666666" points="218,-129 66,-129 66,-110 218,-110 218,-129"/>
<text text-anchor="middle" x="142" y="-117" font-family="Helvetica,sans-Serif" font-size="10.00">include/Spreader/spreader.h</text>
</a>
</g>
</g>
<!-- Node2&#45;&gt;Node5 -->
<g id="edge24_Node000002_Node000005" class="edge">
<title>Node2&#45;&gt;Node5</title>
<g id="a_edge24_Node000002_Node000005"><a xlink:title=" ">
<path fill="none" stroke="#63b8ff" d="M363.49,-403.95C235.52,-392.09 0,-360.13 0,-285.5 0,-285.5 0,-285.5 0,-228.5 0,-173.21 69.04,-142.52 110.84,-129"/>
<polygon fill="#63b8ff" stroke="#63b8ff" points="363.37,-407.45 373.65,-404.87 364,-400.48 363.37,-407.45"/>
</a>
</g>
</g>
<!-- Node6 -->
<g id="Node000006" class="node">
<title>Node6</title>
<g id="a_Node000006"><a xlink:href="mlvp_8h.html" target="_top" xlink:title=" ">
<polygon fill="white" stroke="#666666" points="504.5,-74 415.5,-74 415.5,-55 504.5,-55 504.5,-74"/>
<text text-anchor="middle" x="460" y="-62" font-family="Helvetica,sans-Serif" font-size="10.00">include/mlvp.h</text>
</a>
</g>
</g>
<!-- Node2&#45;&gt;Node6 -->
<g id="edge25_Node000002_Node000006" class="edge">
<title>Node2&#45;&gt;Node6</title>
<g id="a_edge25_Node000002_Node000006"><a xlink:title=" ">
<path fill="none" stroke="#63b8ff" d="M515.5,-393.47C599.34,-371.97 727,-331.65 727,-285.5 727,-285.5 727,-285.5 727,-173.5 727,-126.12 580.7,-89.71 504.69,-73.99"/>
<polygon fill="#63b8ff" stroke="#63b8ff" points="514.59,-390.09 505.76,-395.94 516.31,-396.88 514.59,-390.09"/>
</a>
</g>
</g>
<!-- Node10 -->
<g id="Node000010" class="node">
<title>Node10</title>
<g id="a_Node000010"><a xlink:href="refDriver_8h.html" target="_top" xlink:title=" ">
<polygon fill="white" stroke="#666666" points="275.5,-239 130.5,-239 130.5,-220 275.5,-220 275.5,-239"/>
<text text-anchor="middle" x="203" y="-227" font-family="Helvetica,sans-Serif" font-size="10.00">include/Drivers/refDriver.h</text>
</a>
</g>
</g>
<!-- Node2&#45;&gt;Node10 -->
<g id="edge18_Node000002_Node000010" class="edge">
<title>Node2&#45;&gt;Node10</title>
<g id="a_edge18_Node000002_Node000010"><a xlink:title=" ">
<path fill="none" stroke="#63b8ff" d="M411.43,-390.61C375.59,-368.75 316.84,-331.36 270,-294 247.45,-276.01 223.49,-251.93 211.25,-239.21"/>
<polygon fill="#63b8ff" stroke="#63b8ff" points="409.67,-393.64 420.03,-395.83 413.3,-387.65 409.67,-393.64"/>
</a>
</g>
</g>
<!-- Node13 -->
<g id="Node000013" class="node">
<title>Node13</title>
<g id="a_Node000013"><a xlink:href="transDriverModel_8h.html" target="_top" xlink:title=" ">
<polygon fill="white" stroke="#666666" points="569,-360 421,-360 421,-330 569,-330 569,-360"/>
<text text-anchor="start" x="429" y="-348" font-family="Helvetica,sans-Serif" font-size="10.00">include/Drivers/transDriver</text>
<text text-anchor="middle" x="495" y="-337" font-family="Helvetica,sans-Serif" font-size="10.00">Model.h</text>
</a>
</g>
</g>
<!-- Node2&#45;&gt;Node13 -->
<g id="edge19_Node000002_Node000013" class="edge">
<title>Node2&#45;&gt;Node13</title>
<g id="a_edge19_Node000002_Node000013"><a xlink:title=" ">
<path fill="none" stroke="#63b8ff" d="M461.68,-387.81C468.99,-378.64 477.25,-368.28 483.71,-360.16"/>
<polygon fill="#63b8ff" stroke="#63b8ff" points="458.81,-385.79 455.32,-395.8 464.29,-390.16 458.81,-385.79"/>
</a>
</g>
</g>
<!-- Node15 -->
<g id="Node000015" class="node">
<title>Node15</title>
<g id="a_Node000015"><a xlink:href="simulatorDriver_8cpp.html" target="_top" xlink:title=" ">
<polygon fill="white" stroke="#666666" points="923,-354.5 755,-354.5 755,-335.5 923,-335.5 923,-354.5"/>
<text text-anchor="middle" x="839" y="-342.5" font-family="Helvetica,sans-Serif" font-size="10.00">src/Drivers/simulatorDriver.cpp</text>
</a>
</g>
</g>
<!-- Node2&#45;&gt;Node15 -->
<g id="edge26_Node000002_Node000015" class="edge">
<title>Node2&#45;&gt;Node15</title>
<g id="a_edge26_Node000002_Node000015"><a xlink:title=" ">
<path fill="none" stroke="#63b8ff" d="M524.15,-395.82C620.92,-379.66 721.9,-363.93 783.01,-354.54"/>
<polygon fill="#63b8ff" stroke="#63b8ff" points="523.48,-392.39 514.2,-397.49 524.64,-399.29 523.48,-392.39"/>
</a>
</g>
</g>
<!-- Node4 -->
<g id="Node000004" class="node">
<title>Node4</title>
<g id="a_Node000004"><a xlink:href="driver_8h.html" target="_top" xlink:title=" ">
<polygon fill="white" stroke="#666666" points="404,-184 274,-184 274,-165 404,-165 404,-184"/>
<text text-anchor="middle" x="339" y="-172" font-family="Helvetica,sans-Serif" font-size="10.00">include/Drivers/driver.h</text>
</a>
</g>
</g>
<!-- Node3&#45;&gt;Node4 -->
<g id="edge3_Node000003_Node000004" class="edge">
<title>Node3&#45;&gt;Node4</title>
<g id="a_edge3_Node000003_Node000004"><a xlink:title=" ">
<path fill="none" stroke="#63b8ff" d="M359.36,-270.43C345.83,-263.31 331.65,-253.03 324,-239 314.24,-221.1 325.62,-196.98 333.24,-184.23"/>
<polygon fill="#63b8ff" stroke="#63b8ff" points="358.01,-273.66 368.53,-274.86 361.05,-267.36 358.01,-273.66"/>
</a>
</g>
</g>
<!-- Node3&#45;&gt;Node6 -->
<g id="edge16_Node000003_Node000006" class="edge">
<title>Node3&#45;&gt;Node6</title>
<g id="a_edge16_Node000003_Node000006"><a xlink:title=" ">
<path fill="none" stroke="#63b8ff" d="M437.81,-271.09C453.66,-264.31 469.81,-254.1 479,-239 512.39,-184.12 477.45,-101.15 464.45,-74.25"/>
<polygon fill="#63b8ff" stroke="#63b8ff" points="436.1,-268 428.05,-274.88 438.64,-274.52 436.1,-268"/>
</a>
</g>
</g>
<!-- Node3&#45;&gt;Node10 -->
<g id="edge11_Node000003_Node000010" class="edge">
<title>Node3&#45;&gt;Node10</title>
<g id="a_edge11_Node000003_Node000010"><a xlink:title=" ">
<path fill="none" stroke="#63b8ff" d="M352.43,-272.18C316.9,-262.27 266.03,-248.08 233.77,-239.08"/>
<polygon fill="#63b8ff" stroke="#63b8ff" points="351.9,-275.67 362.47,-274.98 353.78,-268.93 351.9,-275.67"/>
</a>
</g>
</g>
<!-- Node12 -->
<g id="Node000012" class="node">
<title>Node12</title>
<g id="a_Node000012"><a xlink:href="dutDriver_8cpp.html" target="_top" xlink:title=" ">
<polygon fill="white" stroke="#666666" points="469.5,-239 332.5,-239 332.5,-220 469.5,-220 469.5,-239"/>
<text text-anchor="middle" x="401" y="-227" font-family="Helvetica,sans-Serif" font-size="10.00">src/Drivers/dutDriver.cpp</text>
</a>
</g>
</g>
<!-- Node3&#45;&gt;Node12 -->
<g id="edge17_Node000003_Node000012" class="edge">
<title>Node3&#45;&gt;Node12</title>
<g id="a_edge17_Node000003_Node000012"><a xlink:title=" ">
<path fill="none" stroke="#63b8ff" d="M395.84,-264.66C397.16,-255.93 398.66,-245.99 399.7,-239.09"/>
<polygon fill="#63b8ff" stroke="#63b8ff" points="392.35,-264.34 394.32,-274.75 399.27,-265.38 392.35,-264.34"/>
</a>
</g>
</g>
<!-- Node4&#45;&gt;Node5 -->
<g id="edge4_Node000004_Node000005" class="edge">
<title>Node4&#45;&gt;Node5</title>
<g id="a_edge4_Node000004_Node000005"><a xlink:title=" ">
<path fill="none" stroke="#63b8ff" d="M297.41,-162.31C260.55,-152.39 207.5,-138.12 173.9,-129.08"/>
<polygon fill="#63b8ff" stroke="#63b8ff" points="296.78,-165.77 307.35,-164.98 298.6,-159.01 296.78,-165.77"/>
</a>
</g>
</g>
<!-- Node4&#45;&gt;Node6 -->
<g id="edge8_Node000004_Node000006" class="edge">
<title>Node4&#45;&gt;Node6</title>
<g id="a_edge8_Node000004_Node000006"><a xlink:title=" ">
<path fill="none" stroke="#63b8ff" d="M387.9,-161.76C406.79,-155.01 427.14,-144.64 441,-129 454.89,-113.33 458.63,-87.84 459.64,-74.42"/>
<polygon fill="#63b8ff" stroke="#63b8ff" points="386.59,-158.51 378.2,-164.98 388.8,-165.16 386.59,-158.51"/>
</a>
</g>
</g>
<!-- Node7 -->
<g id="Node000007" class="node">
<title>Node7</title>
<g id="a_Node000007"><a xlink:href="main_8cpp.html" target="_top" xlink:title=" ">
<polygon fill="white" stroke="#666666" points="323.5,-19 244.5,-19 244.5,0 323.5,0 323.5,-19"/>
<text text-anchor="middle" x="284" y="-7" font-family="Helvetica,sans-Serif" font-size="10.00">src/main.cpp</text>
</a>
</g>
</g>
<!-- Node4&#45;&gt;Node7 -->
<g id="edge10_Node000004_Node000007" class="edge">
<title>Node4&#45;&gt;Node7</title>
<g id="a_edge10_Node000004_Node000007"><a xlink:title=" ">
<path fill="none" stroke="#63b8ff" d="M322.65,-157.53C315.5,-149.61 307.69,-139.51 303,-129 285.94,-90.75 283.96,-39.51 283.89,-19.26"/>
<polygon fill="#63b8ff" stroke="#63b8ff" points="320.26,-160.1 329.7,-164.92 325.33,-155.27 320.26,-160.1"/>
</a>
</g>
</g>
<!-- Node9 -->
<g id="Node000009" class="node">
<title>Node9</title>
<g id="a_Node000009"><a xlink:href="driver_8cpp.html" target="_top" xlink:title=" ">
<polygon fill="white" stroke="#666666" points="432,-129 312,-129 312,-110 432,-110 432,-129"/>
<text text-anchor="middle" x="372" y="-117" font-family="Helvetica,sans-Serif" font-size="10.00">src/Drivers/driver.cpp</text>
</a>
</g>
</g>
<!-- Node4&#45;&gt;Node9 -->
<g id="edge9_Node000004_Node000009" class="edge">
<title>Node4&#45;&gt;Node9</title>
<g id="a_edge9_Node000004_Node000009"><a xlink:title=" ">
<path fill="none" stroke="#63b8ff" d="M349.83,-156.1C355.47,-147.04 362.12,-136.37 366.65,-129.09"/>
<polygon fill="#63b8ff" stroke="#63b8ff" points="346.76,-154.41 344.45,-164.75 352.71,-158.11 346.76,-154.41"/>
</a>
</g>
</g>
<!-- Node5&#45;&gt;Node6 -->
<g id="edge5_Node000005_Node000006" class="edge">
<title>Node5&#45;&gt;Node6</title>
<g id="a_edge5_Node000005_Node000006"><a xlink:title=" ">
<path fill="none" stroke="#63b8ff" d="M203.16,-108.31C265.3,-97.95 360.08,-82.15 415.45,-72.92"/>
<polygon fill="#63b8ff" stroke="#63b8ff" points="202.38,-104.89 193.09,-109.98 203.53,-111.79 202.38,-104.89"/>
</a>
</g>
</g>
<!-- Node8 -->
<g id="Node000008" class="node">
<title>Node8</title>
<g id="a_Node000008"><a xlink:href="spreader_8cpp.html" target="_top" xlink:title=" ">
<polygon fill="white" stroke="#666666" points="213.5,-74 70.5,-74 70.5,-55 213.5,-55 213.5,-74"/>
<text text-anchor="middle" x="142" y="-62" font-family="Helvetica,sans-Serif" font-size="10.00">src/Spreader/spreader.cpp</text>
</a>
</g>
</g>
<!-- Node5&#45;&gt;Node8 -->
<g id="edge7_Node000005_Node000008" class="edge">
<title>Node5&#45;&gt;Node8</title>
<g id="a_edge7_Node000005_Node000008"><a xlink:title=" ">
<path fill="none" stroke="#63b8ff" d="M142,-99.66C142,-90.93 142,-80.99 142,-74.09"/>
<polygon fill="#63b8ff" stroke="#63b8ff" points="138.5,-99.75 142,-109.75 145.5,-99.75 138.5,-99.75"/>
</a>
</g>
</g>
<!-- Node6&#45;&gt;Node7 -->
<g id="edge6_Node000006_Node000007" class="edge">
<title>Node6&#45;&gt;Node7</title>
<g id="a_edge6_Node000006_Node000007"><a xlink:title=" ">
<path fill="none" stroke="#63b8ff" d="M422,-52.06C389.1,-42.15 342.26,-28.04 312.5,-19.08"/>
<polygon fill="#63b8ff" stroke="#63b8ff" points="421.14,-55.45 431.72,-54.98 423.16,-48.75 421.14,-55.45"/>
</a>
</g>
</g>
<!-- Node10&#45;&gt;Node4 -->
<g id="edge12_Node000010_Node000004" class="edge">
<title>Node10&#45;&gt;Node4</title>
<g id="a_edge12_Node000010_Node000004"><a xlink:title=" ">
<path fill="none" stroke="#63b8ff" d="M234.33,-216.29C259.54,-206.47 294.33,-192.91 316.75,-184.17"/>
<polygon fill="#63b8ff" stroke="#63b8ff" points="232.9,-213.09 224.85,-219.98 235.44,-219.61 232.9,-213.09"/>
</a>
</g>
</g>
<!-- Node10&#45;&gt;Node6 -->
<g id="edge13_Node000010_Node000006" class="edge">
<title>Node10&#45;&gt;Node6</title>
<g id="a_edge13_Node000010_Node000006"><a xlink:title=" ">
<path fill="none" stroke="#63b8ff" d="M212.97,-211.08C228.74,-185.13 261.88,-136.53 303,-110 337.16,-87.96 382.36,-76.64 415.48,-70.96"/>
<polygon fill="#63b8ff" stroke="#63b8ff" points="209.88,-209.44 207.8,-219.83 215.91,-213 209.88,-209.44"/>
</a>
</g>
</g>
<!-- Node10&#45;&gt;Node7 -->
<g id="edge15_Node000010_Node000007" class="edge">
<title>Node10&#45;&gt;Node7</title>
<g id="a_edge15_Node000010_Node000007"><a xlink:title=" ">
<path fill="none" stroke="#63b8ff" d="M131.66,-217.19C110.36,-210.65 88.57,-200.31 73,-184 33.25,-142.34 22.89,-98.17 61,-55 84.71,-28.14 186.89,-17 244.36,-12.79"/>
<polygon fill="#63b8ff" stroke="#63b8ff" points="130.82,-220.59 141.39,-219.94 132.72,-213.85 130.82,-220.59"/>
</a>
</g>
</g>
<!-- Node11 -->
<g id="Node000011" class="node">
<title>Node11</title>
<g id="a_Node000011"><a xlink:href="refDriver_8cpp.html" target="_top" xlink:title=" ">
<polygon fill="white" stroke="#666666" points="217.5,-184 82.5,-184 82.5,-165 217.5,-165 217.5,-184"/>
<text text-anchor="middle" x="150" y="-172" font-family="Helvetica,sans-Serif" font-size="10.00">src/Drivers/refDriver.cpp</text>
</a>
</g>
</g>
<!-- Node10&#45;&gt;Node11 -->
<g id="edge14_Node000010_Node000011" class="edge">
<title>Node10&#45;&gt;Node11</title>
<g id="a_edge14_Node000010_Node000011"><a xlink:title=" ">
<path fill="none" stroke="#63b8ff" d="M187.02,-212.52C177.68,-203.18 166.25,-191.75 158.59,-184.09"/>
<polygon fill="#63b8ff" stroke="#63b8ff" points="184.7,-215.15 194.25,-219.75 189.65,-210.2 184.7,-215.15"/>
</a>
</g>
</g>
<!-- Node13&#45;&gt;Node3 -->
<g id="edge20_Node000013_Node000003" class="edge">
<title>Node13&#45;&gt;Node3</title>
<g id="a_edge20_Node000013_Node000003"><a xlink:title=" ">
<path fill="none" stroke="#63b8ff" d="M461.49,-324.78C443.45,-314.43 422.08,-302.18 408.06,-294.14"/>
<polygon fill="#63b8ff" stroke="#63b8ff" points="460.15,-328.05 470.57,-329.99 463.64,-321.98 460.15,-328.05"/>
</a>
</g>
</g>
<!-- Node13&#45;&gt;Node6 -->
<g id="edge22_Node000013_Node000006" class="edge">
<title>Node13&#45;&gt;Node6</title>
<g id="a_edge22_Node000013_Node000006"><a xlink:title=" ">
<path fill="none" stroke="#63b8ff" d="M501.38,-320.2C511.83,-276.31 528.39,-180.62 496,-110 489.54,-95.91 477.58,-82.47 469.23,-74.12"/>
<polygon fill="#63b8ff" stroke="#63b8ff" points="497.97,-319.41 498.95,-329.96 504.76,-321.11 497.97,-319.41"/>
</a>
</g>
</g>
<!-- Node13&#45;&gt;Node10 -->
<g id="edge21_Node000013_Node000010" class="edge">
<title>Node13&#45;&gt;Node10</title>
<g id="a_edge21_Node000013_Node000010"><a xlink:title=" ">
<path fill="none" stroke="#63b8ff" d="M416.16,-327.47C383.01,-319.28 344.46,-308.08 311,-294 274.11,-278.47 234.46,-252.46 215.07,-239.06"/>
<polygon fill="#63b8ff" stroke="#63b8ff" points="415.72,-330.96 426.26,-329.92 417.36,-324.16 415.72,-330.96"/>
</a>
</g>
</g>
<!-- Node14 -->
<g id="Node000014" class="node">
<title>Node14</title>
<g id="a_Node000014"><a xlink:href="transDriverModel_8cpp.html" target="_top" xlink:title=" ">
<polygon fill="white" stroke="#666666" points="699.5,-294 522.5,-294 522.5,-275 699.5,-275 699.5,-294"/>
<text text-anchor="middle" x="611" y="-282" font-family="Helvetica,sans-Serif" font-size="10.00">src/Drivers/transDriverModel.cpp</text>
</a>
</g>
</g>
<!-- Node13&#45;&gt;Node14 -->
<g id="edge23_Node000013_Node000014" class="edge">
<title>Node13&#45;&gt;Node14</title>
<g id="a_edge23_Node000013_Node000014"><a xlink:title=" ">
<path fill="none" stroke="#63b8ff" d="M531.98,-325.35C552.74,-314.88 577.64,-302.32 593.87,-294.14"/>
<polygon fill="#63b8ff" stroke="#63b8ff" points="530.14,-322.36 522.78,-329.99 533.29,-328.61 530.14,-322.36"/>
</a>
</g>
</g>
</g>
</svg>
