<?xml version="1.0" encoding="UTF-8" standalone="no"?>
<!DOCTYPE svg PUBLIC "-//W3C//DTD SVG 1.1//EN"
 "http://www.w3.org/Graphics/SVG/1.1/DTD/svg11.dtd">
<!-- Generated by graphviz version 2.43.0 (0)
 -->
<!-- Title: src/Simulator/simulator.cpp Pages: 1 -->
<svg width="1340pt" height="412pt"
 viewBox="0.00 0.00 1340.00 412.00" xmlns="http://www.w3.org/2000/svg" xmlns:xlink="http://www.w3.org/1999/xlink">
<g id="graph0" class="graph" transform="scale(1 1) rotate(0) translate(4 408)">
<title>src/Simulator/simulator.cpp</title>
<!-- Node1 -->
<g id="Node000001" class="node">
<title>Node1</title>
<g id="a_Node000001"><a xlink:title=" ">
<polygon fill="#999999" stroke="#666666" points="861.5,-404 711.5,-404 711.5,-385 861.5,-385 861.5,-404"/>
<text text-anchor="middle" x="786.5" y="-392" font-family="Helvetica,sans-Serif" font-size="10.00">src/Simulator/simulator.cpp</text>
</a>
</g>
</g>
<!-- Node2 -->
<g id="Node000002" class="node">
<title>Node2</title>
<g id="a_Node000002"><a xlink:href="simulator_8h.html" target="_top" xlink:title=" ">
<polygon fill="white" stroke="#666666" points="847.5,-349 725.5,-349 725.5,-330 847.5,-330 847.5,-349"/>
<text text-anchor="middle" x="786.5" y="-337" font-family="Helvetica,sans-Serif" font-size="10.00">Simulator/simulator.h</text>
</a>
</g>
</g>
<!-- Node1&#45;&gt;Node2 -->
<g id="edge1_Node000001_Node000002" class="edge">
<title>Node1&#45;&gt;Node2</title>
<g id="a_edge1_Node000001_Node000002"><a xlink:title=" ">
<path fill="none" stroke="#63b8ff" d="M786.5,-384.75C786.5,-377.8 786.5,-367.85 786.5,-359.13"/>
<polygon fill="#63b8ff" stroke="#63b8ff" points="790,-359.09 786.5,-349.09 783,-359.09 790,-359.09"/>
</a>
</g>
</g>
<!-- Node3 -->
<g id="Node000003" class="node">
<title>Node3</title>
<g id="a_Node000003"><a xlink:title=" ">
<polygon fill="#e0e0e0" stroke="#999999" points="1219.5,-129 1161.5,-129 1161.5,-110 1219.5,-110 1219.5,-129"/>
<text text-anchor="middle" x="1190.5" y="-117" font-family="Helvetica,sans-Serif" font-size="10.00">memory</text>
</a>
</g>
</g>
<!-- Node2&#45;&gt;Node3 -->
<g id="edge2_Node000002_Node000003" class="edge">
<title>Node2&#45;&gt;Node3</title>
<g id="a_edge2_Node000002_Node000003"><a xlink:title=" ">
<path fill="none" stroke="#63b8ff" d="M821.73,-329.9C880.1,-315.05 999.9,-282.01 1095.5,-239 1139.29,-219.3 1164.05,-225.33 1188.5,-184 1196.48,-170.5 1196.22,-152.41 1194.4,-138.99"/>
<polygon fill="#63b8ff" stroke="#63b8ff" points="1197.83,-138.27 1192.66,-129.02 1190.93,-139.47 1197.83,-138.27"/>
</a>
</g>
</g>
<!-- Node4 -->
<g id="Node000004" class="node">
<title>Node4</title>
<g id="a_Node000004"><a xlink:title=" ">
<polygon fill="#e0e0e0" stroke="#999999" points="375,-74 330,-74 330,-55 375,-55 375,-74"/>
<text text-anchor="middle" x="352.5" y="-62" font-family="Helvetica,sans-Serif" font-size="10.00">utility</text>
</a>
</g>
</g>
<!-- Node2&#45;&gt;Node4 -->
<g id="edge3_Node000002_Node000004" class="edge">
<title>Node2&#45;&gt;Node4</title>
<g id="a_edge3_Node000002_Node000004"><a xlink:title=" ">
<path fill="none" stroke="#63b8ff" d="M725.46,-337.98C581.19,-335.41 225.31,-320.73 145.5,-239 103.56,-196.05 134.54,-141.72 185.5,-110 227.28,-83.99 284.08,-73.04 319.5,-68.53"/>
<polygon fill="#63b8ff" stroke="#63b8ff" points="320.24,-71.97 329.77,-67.33 319.43,-65.02 320.24,-71.97"/>
</a>
</g>
</g>
<!-- Node5 -->
<g id="Node000005" class="node">
<title>Node5</title>
<g id="a_Node000005"><a xlink:href="types_8h.html" target="_top" xlink:title=" ">
<polygon fill="white" stroke="#666666" points="1039,-74 950,-74 950,-55 1039,-55 1039,-74"/>
<text text-anchor="middle" x="994.5" y="-62" font-family="Helvetica,sans-Serif" font-size="10.00">Library/types.h</text>
</a>
</g>
</g>
<!-- Node2&#45;&gt;Node5 -->
<g id="edge4_Node000002_Node000005" class="edge">
<title>Node2&#45;&gt;Node5</title>
<g id="a_edge4_Node000002_Node000005"><a xlink:title=" ">
<path fill="none" stroke="#63b8ff" d="M847.55,-335.59C941.42,-327.51 1119.35,-297.22 1205.5,-184 1226.36,-156.59 1250.46,-136.53 1228.5,-110 1206.18,-83.03 1111.01,-72.27 1049.13,-68.07"/>
<polygon fill="#63b8ff" stroke="#63b8ff" points="1049.33,-64.58 1039.13,-67.43 1048.88,-71.57 1049.33,-64.58"/>
</a>
</g>
</g>
<!-- Node9 -->
<g id="Node000009" class="node">
<title>Node9</title>
<g id="a_Node000009"><a xlink:href="driverModel_8h.html" target="_top" xlink:title=" ">
<polygon fill="white" stroke="#666666" points="624.5,-294 502.5,-294 502.5,-275 624.5,-275 624.5,-294"/>
<text text-anchor="middle" x="563.5" y="-282" font-family="Helvetica,sans-Serif" font-size="10.00">Drivers/driverModel.h</text>
</a>
</g>
</g>
<!-- Node2&#45;&gt;Node9 -->
<g id="edge8_Node000002_Node000009" class="edge">
<title>Node2&#45;&gt;Node9</title>
<g id="a_edge8_Node000002_Node000009"><a xlink:title=" ">
<path fill="none" stroke="#63b8ff" d="M750.67,-329.98C712.34,-320.87 651.42,-306.4 609.55,-296.45"/>
<polygon fill="#63b8ff" stroke="#63b8ff" points="610.15,-292.99 599.61,-294.08 608.53,-299.8 610.15,-292.99"/>
</a>
</g>
</g>
<!-- Node13 -->
<g id="Node000013" class="node">
<title>Node13</title>
<g id="a_Node000013"><a xlink:href="channel_8h.html" target="_top" xlink:title=" ">
<polygon fill="white" stroke="#666666" points="1035,-239 928,-239 928,-220 1035,-220 1035,-239"/>
<text text-anchor="middle" x="981.5" y="-227" font-family="Helvetica,sans-Serif" font-size="10.00">Channel/channel.h</text>
</a>
</g>
</g>
<!-- Node2&#45;&gt;Node13 -->
<g id="edge51_Node000002_Node000013" class="edge">
<title>Node2&#45;&gt;Node13</title>
<g id="a_edge51_Node000002_Node000013"><a xlink:title=" ">
<path fill="none" stroke="#63b8ff" d="M802.13,-329.84C836.01,-311.08 916.46,-266.52 957.11,-244.01"/>
<polygon fill="#63b8ff" stroke="#63b8ff" points="959.02,-246.95 966.07,-239.05 955.62,-240.83 959.02,-246.95"/>
</a>
</g>
</g>
<!-- Node17 -->
<g id="Node000017" class="node">
<title>Node17</title>
<g id="a_Node000017"><a xlink:href="transaction_8h_source.html" target="_top" xlink:title=" ">
<polygon fill="white" stroke="#666666" points="491,-184 352,-184 352,-165 491,-165 491,-184"/>
<text text-anchor="middle" x="421.5" y="-172" font-family="Helvetica,sans-Serif" font-size="10.00">Transaction/transaction.h</text>
</a>
</g>
</g>
<!-- Node2&#45;&gt;Node17 -->
<g id="edge52_Node000002_Node000017" class="edge">
<title>Node2&#45;&gt;Node17</title>
<g id="a_edge52_Node000002_Node000017"><a xlink:title=" ">
<path fill="none" stroke="#63b8ff" d="M725.43,-335.26C650.97,-330.29 530.48,-318.64 493.5,-294 457.23,-269.83 436.25,-220.58 427.07,-193.81"/>
<polygon fill="#63b8ff" stroke="#63b8ff" points="430.36,-192.58 423.94,-184.15 423.7,-194.74 430.36,-192.58"/>
</a>
</g>
</g>
<!-- Node6 -->
<g id="Node000006" class="node">
<title>Node6</title>
<g id="a_Node000006"><a xlink:title=" ">
<polygon fill="#e0e0e0" stroke="#999999" points="906,-19 859,-19 859,0 906,0 906,-19"/>
<text text-anchor="middle" x="882.5" y="-7" font-family="Helvetica,sans-Serif" font-size="10.00">vector</text>
</a>
</g>
</g>
<!-- Node5&#45;&gt;Node6 -->
<g id="edge5_Node000005_Node000006" class="edge">
<title>Node5&#45;&gt;Node6</title>
<g id="a_edge5_Node000005_Node000006"><a xlink:title=" ">
<path fill="none" stroke="#63b8ff" d="M976.51,-54.98C958.57,-46.5 930.78,-33.35 910.07,-23.54"/>
<polygon fill="#63b8ff" stroke="#63b8ff" points="911.36,-20.28 900.82,-19.17 908.36,-26.61 911.36,-20.28"/>
</a>
</g>
</g>
<!-- Node7 -->
<g id="Node000007" class="node">
<title>Node7</title>
<g id="a_Node000007"><a xlink:title=" ">
<polygon fill="#e0e0e0" stroke="#999999" points="1332,-19 1239,-19 1239,0 1332,0 1332,-19"/>
<text text-anchor="middle" x="1285.5" y="-7" font-family="Helvetica,sans-Serif" font-size="10.00">unordered_map</text>
</a>
</g>
</g>
<!-- Node5&#45;&gt;Node7 -->
<g id="edge6_Node000005_Node000007" class="edge">
<title>Node5&#45;&gt;Node7</title>
<g id="a_edge6_Node000005_Node000007"><a xlink:title=" ">
<path fill="none" stroke="#63b8ff" d="M1039.01,-55.39C1089.82,-46.14 1173.06,-30.98 1228.55,-20.87"/>
<polygon fill="#63b8ff" stroke="#63b8ff" points="1229.37,-24.28 1238.58,-19.05 1228.11,-17.39 1229.37,-24.28"/>
</a>
</g>
</g>
<!-- Node8 -->
<g id="Node000008" class="node">
<title>Node8</title>
<g id="a_Node000008"><a xlink:title=" ">
<polygon fill="#e0e0e0" stroke="#999999" points="627.5,-19 583.5,-19 583.5,0 627.5,0 627.5,-19"/>
<text text-anchor="middle" x="605.5" y="-7" font-family="Helvetica,sans-Serif" font-size="10.00">string</text>
</a>
</g>
</g>
<!-- Node5&#45;&gt;Node8 -->
<g id="edge7_Node000005_Node000008" class="edge">
<title>Node5&#45;&gt;Node8</title>
<g id="a_edge7_Node000005_Node000008"><a xlink:title=" ">
<path fill="none" stroke="#63b8ff" d="M949.73,-57.01C944.93,-56.32 940.11,-55.64 935.5,-55 826.35,-39.78 696.77,-22.55 637.71,-14.74"/>
<polygon fill="#63b8ff" stroke="#63b8ff" points="637.89,-11.24 627.52,-13.4 636.98,-18.18 637.89,-11.24"/>
</a>
</g>
</g>
<!-- Node9&#45;&gt;Node3 -->
<g id="edge9_Node000009_Node000003" class="edge">
<title>Node9&#45;&gt;Node3</title>
<g id="a_edge9_Node000009_Node000003"><a xlink:title=" ">
<path fill="none" stroke="#63b8ff" d="M624.8,-284.01C717.1,-283.4 896.6,-276.82 1043.5,-239 1102.67,-223.76 1128.33,-229.15 1169.5,-184 1180.74,-171.68 1185.97,-153.2 1188.41,-139.35"/>
<polygon fill="#63b8ff" stroke="#63b8ff" points="1191.87,-139.83 1189.82,-129.44 1184.94,-138.84 1191.87,-139.83"/>
</a>
</g>
</g>
<!-- Node9&#45;&gt;Node4 -->
<g id="edge14_Node000009_Node000004" class="edge">
<title>Node9&#45;&gt;Node4</title>
<g id="a_edge14_Node000009_Node000004"><a xlink:title=" ">
<path fill="none" stroke="#63b8ff" d="M502.32,-278.03C417.93,-266.72 269.35,-232.41 208.5,-129 182.82,-85.36 269.78,-71.63 319.76,-67.37"/>
<polygon fill="#63b8ff" stroke="#63b8ff" points="320.1,-70.85 329.81,-66.6 319.57,-63.87 320.1,-70.85"/>
</a>
</g>
</g>
<!-- Node9&#45;&gt;Node5 -->
<g id="edge49_Node000009_Node000005" class="edge">
<title>Node9&#45;&gt;Node5</title>
<g id="a_edge49_Node000009_Node000005"><a xlink:title=" ">
<path fill="none" stroke="#63b8ff" d="M583.38,-274.98C603.49,-266.26 635.38,-252.17 662.5,-239 778.95,-182.46 915.03,-108.95 969.81,-79.04"/>
<polygon fill="#63b8ff" stroke="#63b8ff" points="971.68,-82.01 978.77,-74.14 968.32,-75.87 971.68,-82.01"/>
</a>
</g>
</g>
<!-- Node9&#45;&gt;Node7 -->
<g id="edge13_Node000009_Node000007" class="edge">
<title>Node9&#45;&gt;Node7</title>
<g id="a_edge13_Node000009_Node000007"><a xlink:title=" ">
<path fill="none" stroke="#63b8ff" d="M624.73,-281.22C805.37,-273.68 1323.5,-245.92 1323.5,-175.5 1323.5,-175.5 1323.5,-175.5 1323.5,-118.5 1323.5,-85.02 1307.05,-48.84 1295.8,-28.01"/>
<polygon fill="#63b8ff" stroke="#63b8ff" points="1298.74,-26.1 1290.78,-19.1 1292.63,-29.53 1298.74,-26.1"/>
</a>
</g>
</g>
<!-- Node9&#45;&gt;Node8 -->
<g id="edge11_Node000009_Node000008" class="edge">
<title>Node9&#45;&gt;Node8</title>
<g id="a_edge11_Node000009_Node000008"><a xlink:title=" ">
<path fill="none" stroke="#63b8ff" d="M562.69,-274.83C561.05,-256.51 557.5,-212.49 557.5,-175.5 557.5,-175.5 557.5,-175.5 557.5,-118.5 557.5,-83.8 578.44,-47.82 592.66,-27.39"/>
<polygon fill="#63b8ff" stroke="#63b8ff" points="595.59,-29.31 598.62,-19.16 589.92,-25.21 595.59,-29.31"/>
</a>
</g>
</g>
<!-- Node10 -->
<g id="Node000010" class="node">
<title>Node10</title>
<g id="a_Node000010"><a xlink:title=" ">
<polygon fill="#e0e0e0" stroke="#999999" points="273.5,-129 217.5,-129 217.5,-110 273.5,-110 273.5,-129"/>
<text text-anchor="middle" x="245.5" y="-117" font-family="Helvetica,sans-Serif" font-size="10.00">optional</text>
</a>
</g>
</g>
<!-- Node9&#45;&gt;Node10 -->
<g id="edge10_Node000009_Node000010" class="edge">
<title>Node9&#45;&gt;Node10</title>
<g id="a_edge10_Node000009_Node000010"><a xlink:title=" ">
<path fill="none" stroke="#63b8ff" d="M541.62,-274.98C501.31,-259 412.98,-222.62 342.5,-184 314.92,-168.88 284.87,-148.56 265.64,-135.02"/>
<polygon fill="#63b8ff" stroke="#63b8ff" points="267.55,-132.09 257.37,-129.15 263.5,-137.79 267.55,-132.09"/>
</a>
</g>
</g>
<!-- Node11 -->
<g id="Node000011" class="node">
<title>Node11</title>
<g id="a_Node000011"><a xlink:title=" ">
<polygon fill="#e0e0e0" stroke="#999999" points="839,-74 798,-74 798,-55 839,-55 839,-74"/>
<text text-anchor="middle" x="818.5" y="-62" font-family="Helvetica,sans-Serif" font-size="10.00">tuple</text>
</a>
</g>
</g>
<!-- Node9&#45;&gt;Node11 -->
<g id="edge12_Node000009_Node000011" class="edge">
<title>Node9&#45;&gt;Node11</title>
<g id="a_edge12_Node000009_Node000011"><a xlink:title=" ">
<path fill="none" stroke="#63b8ff" d="M578.11,-274.9C613.93,-253.39 707.88,-194.24 772.5,-129 786.37,-114.99 799.27,-96.51 807.86,-83.1"/>
<polygon fill="#63b8ff" stroke="#63b8ff" points="810.98,-84.7 813.3,-74.36 805.04,-81 810.98,-84.7"/>
</a>
</g>
</g>
<!-- Node12 -->
<g id="Node000012" class="node">
<title>Node12</title>
<g id="a_Node000012"><a xlink:title=" ">
<polygon fill="#e0e0e0" stroke="#999999" points="458,-74 393,-74 393,-55 458,-55 458,-74"/>
<text text-anchor="middle" x="425.5" y="-62" font-family="Helvetica,sans-Serif" font-size="10.00">functional</text>
</a>
</g>
</g>
<!-- Node9&#45;&gt;Node12 -->
<g id="edge15_Node000009_Node000012" class="edge">
<title>Node9&#45;&gt;Node12</title>
<g id="a_edge15_Node000009_Node000012"><a xlink:title=" ">
<path fill="none" stroke="#63b8ff" d="M502.47,-280.88C398.68,-275.8 196.85,-262.94 175.5,-239 147.11,-207.17 83.33,-224.48 208.5,-110 208.91,-109.63 319.4,-87.09 382.54,-74.24"/>
<polygon fill="#63b8ff" stroke="#63b8ff" points="383.52,-77.61 392.62,-72.19 382.12,-70.75 383.52,-77.61"/>
</a>
</g>
</g>
<!-- Node9&#45;&gt;Node13 -->
<g id="edge16_Node000009_Node000013" class="edge">
<title>Node9&#45;&gt;Node13</title>
<g id="a_edge16_Node000009_Node000013"><a xlink:title=" ">
<path fill="none" stroke="#63b8ff" d="M624.73,-275.74C702.96,-265.82 837.76,-248.73 917.37,-238.63"/>
<polygon fill="#63b8ff" stroke="#63b8ff" points="918.27,-242.05 927.75,-237.32 917.39,-235.1 918.27,-242.05"/>
</a>
</g>
</g>
<!-- Node9&#45;&gt;Node17 -->
<g id="edge48_Node000009_Node000017" class="edge">
<title>Node9&#45;&gt;Node17</title>
<g id="a_edge48_Node000009_Node000017"><a xlink:title=" ">
<path fill="none" stroke="#63b8ff" d="M551.88,-274.66C527.52,-256.14 470.91,-213.08 440.93,-190.28"/>
<polygon fill="#63b8ff" stroke="#63b8ff" points="442.96,-187.43 432.88,-184.16 438.72,-193 442.96,-187.43"/>
</a>
</g>
</g>
<!-- Node19 -->
<g id="Node000019" class="node">
<title>Node19</title>
<g id="a_Node000019"><a xlink:href="error_8h.html" target="_top" xlink:title=" ">
<polygon fill="white" stroke="#666666" points="85,-129 0,-129 0,-110 85,-110 85,-129"/>
<text text-anchor="middle" x="42.5" y="-117" font-family="Helvetica,sans-Serif" font-size="10.00">Library/error.h</text>
</a>
</g>
</g>
<!-- Node9&#45;&gt;Node19 -->
<g id="edge50_Node000009_Node000019" class="edge">
<title>Node9&#45;&gt;Node19</title>
<g id="a_edge50_Node000009_Node000019"><a xlink:title=" ">
<path fill="none" stroke="#63b8ff" d="M502.28,-282.84C399.84,-280.79 198.86,-272.48 137.5,-239 95.22,-215.93 64.91,-165.45 51.01,-138.42"/>
<polygon fill="#63b8ff" stroke="#63b8ff" points="54.08,-136.72 46.5,-129.32 47.81,-139.83 54.08,-136.72"/>
</a>
</g>
</g>
<!-- Node13&#45;&gt;Node3 -->
<g id="edge18_Node000013_Node000003" class="edge">
<title>Node13&#45;&gt;Node3</title>
<g id="a_edge18_Node000013_Node000003"><a xlink:title=" ">
<path fill="none" stroke="#63b8ff" d="M1035.32,-223.79C1069.99,-218.54 1114.57,-207.45 1147.5,-184 1163.56,-172.57 1175.43,-153.12 1182.58,-138.75"/>
<polygon fill="#63b8ff" stroke="#63b8ff" points="1185.9,-139.91 1186.94,-129.37 1179.55,-136.96 1185.9,-139.91"/>
</a>
</g>
</g>
<!-- Node13&#45;&gt;Node4 -->
<g id="edge23_Node000013_Node000004" class="edge">
<title>Node13&#45;&gt;Node4</title>
<g id="a_edge23_Node000013_Node000004"><a xlink:title=" ">
<path fill="none" stroke="#63b8ff" d="M927.95,-224.05C866.53,-218.17 763.14,-205.91 676.5,-184 618.39,-169.3 453.08,-105.15 383.73,-77.86"/>
<polygon fill="#63b8ff" stroke="#63b8ff" points="384.81,-74.52 374.22,-74.11 382.24,-81.03 384.81,-74.52"/>
</a>
</g>
</g>
<!-- Node13&#45;&gt;Node5 -->
<g id="edge26_Node000013_Node000005" class="edge">
<title>Node13&#45;&gt;Node5</title>
<g id="a_edge26_Node000013_Node000005"><a xlink:title=" ">
<path fill="none" stroke="#63b8ff" d="M981,-219.97C980.51,-211.02 979.78,-196.53 979.5,-184 979.31,-175.56 978.87,-173.42 979.5,-165 981.63,-136.62 987.12,-104.06 990.84,-84.14"/>
<polygon fill="#63b8ff" stroke="#63b8ff" points="994.29,-84.71 992.73,-74.23 987.42,-83.4 994.29,-84.71"/>
</a>
</g>
</g>
<!-- Node13&#45;&gt;Node6 -->
<g id="edge24_Node000013_Node000006" class="edge">
<title>Node13&#45;&gt;Node6</title>
<g id="a_edge24_Node000013_Node000006"><a xlink:title=" ">
<path fill="none" stroke="#63b8ff" d="M1023.82,-219.95C1058.53,-211.97 1103.65,-199.07 1114.5,-184 1119.43,-177.15 1116.78,-173.13 1114.5,-165 1099.04,-109.88 1093.29,-89.35 1047.5,-55 1008.78,-25.96 952.41,-15.86 916.61,-12.35"/>
<polygon fill="#63b8ff" stroke="#63b8ff" points="916.46,-8.83 906.2,-11.46 915.86,-15.8 916.46,-8.83"/>
</a>
</g>
</g>
<!-- Node13&#45;&gt;Node7 -->
<g id="edge21_Node000013_Node000007" class="edge">
<title>Node13&#45;&gt;Node7</title>
<g id="a_edge21_Node000013_Node000007"><a xlink:title=" ">
<path fill="none" stroke="#63b8ff" d="M1035.16,-223.26C1074.26,-217.71 1127.51,-206.47 1169.5,-184 1232.31,-150.39 1267.06,-66.08 1279.81,-28.76"/>
<polygon fill="#63b8ff" stroke="#63b8ff" points="1283.16,-29.77 1282.94,-19.18 1276.51,-27.59 1283.16,-29.77"/>
</a>
</g>
</g>
<!-- Node13&#45;&gt;Node8 -->
<g id="edge19_Node000013_Node000008" class="edge">
<title>Node13&#45;&gt;Node8</title>
<g id="a_edge19_Node000013_Node000008"><a xlink:title=" ">
<path fill="none" stroke="#63b8ff" d="M977.67,-219.85C964.39,-191.02 917.37,-97.6 847.5,-55 812.65,-33.75 694.97,-19.43 637.55,-13.53"/>
<polygon fill="#63b8ff" stroke="#63b8ff" points="637.86,-10.05 627.56,-12.53 637.16,-17.01 637.86,-10.05"/>
</a>
</g>
</g>
<!-- Node13&#45;&gt;Node11 -->
<g id="edge20_Node000013_Node000011" class="edge">
<title>Node13&#45;&gt;Node11</title>
<g id="a_edge20_Node000013_Node000011"><a xlink:title=" ">
<path fill="none" stroke="#63b8ff" d="M938.81,-219.95C915.83,-213.44 888.4,-202.38 869.5,-184 840.96,-156.26 827.47,-109.93 821.89,-84.19"/>
<polygon fill="#63b8ff" stroke="#63b8ff" points="825.29,-83.36 819.9,-74.24 818.42,-84.73 825.29,-83.36"/>
</a>
</g>
</g>
<!-- Node14 -->
<g id="Node000014" class="node">
<title>Node14</title>
<g id="a_Node000014"><a xlink:title=" ">
<polygon fill="#e0e0e0" stroke="#999999" points="1041,-184 988,-184 988,-165 1041,-165 1041,-184"/>
<text text-anchor="middle" x="1014.5" y="-172" font-family="Helvetica,sans-Serif" font-size="10.00">iterator</text>
</a>
</g>
</g>
<!-- Node13&#45;&gt;Node14 -->
<g id="edge17_Node000013_Node000014" class="edge">
<title>Node13&#45;&gt;Node14</title>
<g id="a_edge17_Node000013_Node000014"><a xlink:title=" ">
<path fill="none" stroke="#63b8ff" d="M986.95,-219.75C991.51,-212.42 998.17,-201.73 1003.79,-192.7"/>
<polygon fill="#63b8ff" stroke="#63b8ff" points="1006.84,-194.43 1009.15,-184.09 1000.9,-190.73 1006.84,-194.43"/>
</a>
</g>
</g>
<!-- Node15 -->
<g id="Node000015" class="node">
<title>Node15</title>
<g id="a_Node000015"><a xlink:title=" ">
<polygon fill="#e0e0e0" stroke="#999999" points="623.5,-74 585.5,-74 585.5,-55 623.5,-55 623.5,-74"/>
<text text-anchor="middle" x="604.5" y="-62" font-family="Helvetica,sans-Serif" font-size="10.00">map</text>
</a>
</g>
</g>
<!-- Node13&#45;&gt;Node15 -->
<g id="edge22_Node000013_Node000015" class="edge">
<title>Node13&#45;&gt;Node15</title>
<g id="a_edge22_Node000013_Node000015"><a xlink:title=" ">
<path fill="none" stroke="#63b8ff" d="M927.8,-221.16C836.34,-207.54 656.15,-175.44 614.5,-129 603.68,-116.94 601.92,-98.13 602.42,-84.11"/>
<polygon fill="#63b8ff" stroke="#63b8ff" points="605.91,-84.35 603.17,-74.12 598.93,-83.82 605.91,-84.35"/>
</a>
</g>
</g>
<!-- Node16 -->
<g id="Node000016" class="node">
<title>Node16</title>
<g id="a_Node000016"><a xlink:title=" ">
<polygon fill="#e0e0e0" stroke="#999999" points="1105.5,-184 1059.5,-184 1059.5,-165 1105.5,-165 1105.5,-184"/>
<text text-anchor="middle" x="1082.5" y="-172" font-family="Helvetica,sans-Serif" font-size="10.00">future</text>
</a>
</g>
</g>
<!-- Node13&#45;&gt;Node16 -->
<g id="edge25_Node000013_Node000016" class="edge">
<title>Node13&#45;&gt;Node16</title>
<g id="a_edge25_Node000013_Node000016"><a xlink:title=" ">
<path fill="none" stroke="#63b8ff" d="M997.73,-219.98C1013.68,-211.61 1038.28,-198.7 1056.88,-188.95"/>
<polygon fill="#63b8ff" stroke="#63b8ff" points="1058.75,-191.92 1065.98,-184.17 1055.5,-185.72 1058.75,-191.92"/>
</a>
</g>
</g>
<!-- Node13&#45;&gt;Node17 -->
<g id="edge27_Node000013_Node000017" class="edge">
<title>Node13&#45;&gt;Node17</title>
<g id="a_edge27_Node000013_Node000017"><a xlink:title=" ">
<path fill="none" stroke="#63b8ff" d="M927.95,-223.63C839.83,-215.58 658.74,-198.92 505.5,-184 504.19,-183.87 502.86,-183.74 501.53,-183.61"/>
<polygon fill="#63b8ff" stroke="#63b8ff" points="501.46,-180.09 491.17,-182.59 500.78,-187.06 501.46,-180.09"/>
</a>
</g>
</g>
<!-- Node17&#45;&gt;Node3 -->
<g id="edge31_Node000017_Node000003" class="edge">
<title>Node17&#45;&gt;Node3</title>
<g id="a_edge31_Node000017_Node000003"><a xlink:title=" ">
<path fill="none" stroke="#63b8ff" d="M491.1,-168.7C648.63,-157.85 1028.33,-131.68 1151.33,-123.2"/>
<polygon fill="#63b8ff" stroke="#63b8ff" points="1151.69,-126.68 1161.42,-122.5 1151.2,-119.7 1151.69,-126.68"/>
</a>
</g>
</g>
<!-- Node17&#45;&gt;Node4 -->
<g id="edge29_Node000017_Node000004" class="edge">
<title>Node17&#45;&gt;Node4</title>
<g id="a_edge29_Node000017_Node000004"><a xlink:title=" ">
<path fill="none" stroke="#63b8ff" d="M415.41,-164.71C409.27,-155.78 399.57,-141.53 391.5,-129 381.57,-113.57 370.67,-95.74 362.92,-82.91"/>
<polygon fill="#63b8ff" stroke="#63b8ff" points="365.84,-80.97 357.68,-74.2 359.84,-84.57 365.84,-80.97"/>
</a>
</g>
</g>
<!-- Node17&#45;&gt;Node5 -->
<g id="edge36_Node000017_Node000005" class="edge">
<title>Node17&#45;&gt;Node5</title>
<g id="a_edge36_Node000017_Node000005"><a xlink:title=" ">
<path fill="none" stroke="#63b8ff" d="M491.14,-168.48C564.45,-162.36 682.96,-150.15 783.5,-129 847.48,-115.54 920.08,-91.75 961.27,-77.42"/>
<polygon fill="#63b8ff" stroke="#63b8ff" points="962.52,-80.69 970.79,-74.08 960.2,-74.09 962.52,-80.69"/>
</a>
</g>
</g>
<!-- Node17&#45;&gt;Node6 -->
<g id="edge30_Node000017_Node000006" class="edge">
<title>Node17&#45;&gt;Node6</title>
<g id="a_edge30_Node000017_Node000006"><a xlink:title=" ">
<path fill="none" stroke="#63b8ff" d="M491.08,-171.53C575.03,-167.9 709.97,-157.66 750.5,-129 780.69,-107.66 761.94,-80.72 788.5,-55 805.48,-38.56 829.67,-27.3 849.26,-20.22"/>
<polygon fill="#63b8ff" stroke="#63b8ff" points="850.4,-23.53 858.73,-16.98 848.14,-16.9 850.4,-23.53"/>
</a>
</g>
</g>
<!-- Node17&#45;&gt;Node8 -->
<g id="edge28_Node000017_Node000008" class="edge">
<title>Node17&#45;&gt;Node8</title>
<g id="a_edge28_Node000017_Node000008"><a xlink:title=" ">
<path fill="none" stroke="#63b8ff" d="M404.07,-164.87C366.76,-145.3 285.34,-96.07 320.5,-55 352.73,-17.35 505.46,-11.32 573.12,-10.52"/>
<polygon fill="#63b8ff" stroke="#63b8ff" points="573.24,-14.02 583.21,-10.43 573.18,-7.02 573.24,-14.02"/>
</a>
</g>
</g>
<!-- Node17&#45;&gt;Node10 -->
<g id="edge34_Node000017_Node000010" class="edge">
<title>Node17&#45;&gt;Node10</title>
<g id="a_edge34_Node000017_Node000010"><a xlink:title=" ">
<path fill="none" stroke="#63b8ff" d="M393.22,-164.98C363.46,-156.02 316.43,-141.86 283.46,-131.93"/>
<polygon fill="#63b8ff" stroke="#63b8ff" points="284.29,-128.53 273.71,-128.99 282.27,-135.23 284.29,-128.53"/>
</a>
</g>
</g>
<!-- Node17&#45;&gt;Node12 -->
<g id="edge35_Node000017_Node000012" class="edge">
<title>Node17&#45;&gt;Node12</title>
<g id="a_edge35_Node000017_Node000012"><a xlink:title=" ">
<path fill="none" stroke="#63b8ff" d="M413.96,-164.63C404.6,-152.51 390.56,-129.99 396.5,-110 399.48,-99.98 405.5,-90.11 411.29,-82.22"/>
<polygon fill="#63b8ff" stroke="#63b8ff" points="414.13,-84.28 417.56,-74.25 408.63,-79.95 414.13,-84.28"/>
</a>
</g>
</g>
<!-- Node17&#45;&gt;Node15 -->
<g id="edge33_Node000017_Node000015" class="edge">
<title>Node17&#45;&gt;Node15</title>
<g id="a_edge33_Node000017_Node000015"><a xlink:title=" ">
<path fill="none" stroke="#63b8ff" d="M436.17,-164.84C467.83,-146.16 542.83,-101.9 581.12,-79.3"/>
<polygon fill="#63b8ff" stroke="#63b8ff" points="583.18,-82.14 590.02,-74.05 579.63,-76.12 583.18,-82.14"/>
</a>
</g>
</g>
<!-- Node18 -->
<g id="Node000018" class="node">
<title>Node18</title>
<g id="a_Node000018"><a xlink:title=" ">
<polygon fill="#e0e0e0" stroke="#999999" points="453.5,-129 405.5,-129 405.5,-110 453.5,-110 453.5,-129"/>
<text text-anchor="middle" x="429.5" y="-117" font-family="Helvetica,sans-Serif" font-size="10.00">mutex</text>
</a>
</g>
</g>
<!-- Node17&#45;&gt;Node18 -->
<g id="edge32_Node000017_Node000018" class="edge">
<title>Node17&#45;&gt;Node18</title>
<g id="a_edge32_Node000017_Node000018"><a xlink:title=" ">
<path fill="none" stroke="#63b8ff" d="M422.82,-164.75C423.87,-157.8 425.37,-147.85 426.69,-139.13"/>
<polygon fill="#63b8ff" stroke="#63b8ff" points="430.17,-139.5 428.2,-129.09 423.25,-138.45 430.17,-139.5"/>
</a>
</g>
</g>
<!-- Node17&#45;&gt;Node19 -->
<g id="edge37_Node000017_Node000019" class="edge">
<title>Node17&#45;&gt;Node19</title>
<g id="a_edge37_Node000017_Node000019"><a xlink:title=" ">
<path fill="none" stroke="#63b8ff" d="M360.61,-164.98C287.17,-154.71 164.93,-137.62 95.31,-127.88"/>
<polygon fill="#63b8ff" stroke="#63b8ff" points="95.4,-124.36 85.01,-126.45 94.43,-131.3 95.4,-124.36"/>
</a>
</g>
</g>
<!-- Node21 -->
<g id="Node000021" class="node">
<title>Node21</title>
<g id="a_Node000021"><a xlink:href="evaluate_8h.html" target="_top" xlink:title=" ">
<polygon fill="white" stroke="#666666" points="741.5,-129 623.5,-129 623.5,-110 741.5,-110 741.5,-129"/>
<text text-anchor="middle" x="682.5" y="-117" font-family="Helvetica,sans-Serif" font-size="10.00">Evaluator/evaluate.h</text>
</a>
</g>
</g>
<!-- Node17&#45;&gt;Node21 -->
<g id="edge40_Node000017_Node000021" class="edge">
<title>Node17&#45;&gt;Node21</title>
<g id="a_edge40_Node000017_Node000021"><a xlink:title=" ">
<path fill="none" stroke="#63b8ff" d="M463.43,-164.98C508.77,-155.78 581.11,-141.09 630.15,-131.13"/>
<polygon fill="#63b8ff" stroke="#63b8ff" points="631.13,-134.5 640.24,-129.08 629.74,-127.64 631.13,-134.5"/>
</a>
</g>
</g>
<!-- Node19&#45;&gt;Node8 -->
<g id="edge38_Node000019_Node000008" class="edge">
<title>Node19&#45;&gt;Node8</title>
<g id="a_edge38_Node000019_Node000008"><a xlink:title=" ">
<path fill="none" stroke="#63b8ff" d="M42.25,-109.88C42.37,-95.89 44.87,-68.47 61.5,-55 101.32,-22.75 462.2,-13.23 573.18,-11.05"/>
<polygon fill="#63b8ff" stroke="#63b8ff" points="573.48,-14.55 583.41,-10.86 573.35,-7.55 573.48,-14.55"/>
</a>
</g>
</g>
<!-- Node20 -->
<g id="Node000020" class="node">
<title>Node20</title>
<g id="a_Node000020"><a xlink:title=" ">
<polygon fill="#e0e0e0" stroke="#999999" points="130.5,-74 70.5,-74 70.5,-55 130.5,-55 130.5,-74"/>
<text text-anchor="middle" x="100.5" y="-62" font-family="Helvetica,sans-Serif" font-size="10.00">iostream</text>
</a>
</g>
</g>
<!-- Node19&#45;&gt;Node20 -->
<g id="edge39_Node000019_Node000020" class="edge">
<title>Node19&#45;&gt;Node20</title>
<g id="a_edge39_Node000019_Node000020"><a xlink:title=" ">
<path fill="none" stroke="#63b8ff" d="M51.82,-109.98C60.31,-102.23 73.06,-90.58 83.38,-81.14"/>
<polygon fill="#63b8ff" stroke="#63b8ff" points="85.99,-83.5 91.01,-74.17 81.27,-78.33 85.99,-83.5"/>
</a>
</g>
</g>
<!-- Node21&#45;&gt;Node4 -->
<g id="edge41_Node000021_Node000004" class="edge">
<title>Node21&#45;&gt;Node4</title>
<g id="a_edge41_Node000021_Node000004"><a xlink:title=" ">
<path fill="none" stroke="#63b8ff" d="M623.41,-111.83C565.01,-104.76 473,-92.33 384.99,-74.11"/>
<polygon fill="#63b8ff" stroke="#63b8ff" points="385.62,-70.67 375.11,-72.04 384.18,-77.52 385.62,-70.67"/>
</a>
</g>
</g>
<!-- Node21&#45;&gt;Node5 -->
<g id="edge47_Node000021_Node000005" class="edge">
<title>Node21&#45;&gt;Node5</title>
<g id="a_edge47_Node000021_Node000005"><a xlink:title=" ">
<path fill="none" stroke="#63b8ff" d="M732.63,-109.98C789.18,-100.38 880.87,-84.8 939.39,-74.86"/>
<polygon fill="#63b8ff" stroke="#63b8ff" points="940.29,-78.26 949.56,-73.13 939.11,-71.36 940.29,-78.26"/>
</a>
</g>
</g>
<!-- Node21&#45;&gt;Node6 -->
<g id="edge42_Node000021_Node000006" class="edge">
<title>Node21&#45;&gt;Node6</title>
<g id="a_edge42_Node000021_Node000006"><a xlink:title=" ">
<path fill="none" stroke="#63b8ff" d="M690.23,-109.94C702.76,-96.54 728.78,-70.53 755.5,-55 785.1,-37.8 822.43,-25.71 848.94,-18.51"/>
<polygon fill="#63b8ff" stroke="#63b8ff" points="850.09,-21.83 858.88,-15.91 848.32,-15.06 850.09,-21.83"/>
</a>
</g>
</g>
<!-- Node21&#45;&gt;Node8 -->
<g id="edge43_Node000021_Node000008" class="edge">
<title>Node21&#45;&gt;Node8</title>
<g id="a_edge43_Node000021_Node000008"><a xlink:title=" ">
<path fill="none" stroke="#63b8ff" d="M676.2,-109.66C663.39,-91.69 634.12,-50.64 617.54,-27.38"/>
<polygon fill="#63b8ff" stroke="#63b8ff" points="620.33,-25.27 611.67,-19.16 614.63,-29.33 620.33,-25.27"/>
</a>
</g>
</g>
<!-- Node21&#45;&gt;Node11 -->
<g id="edge45_Node000021_Node000011" class="edge">
<title>Node21&#45;&gt;Node11</title>
<g id="a_edge45_Node000021_Node000011"><a xlink:title=" ">
<path fill="none" stroke="#63b8ff" d="M704.35,-109.98C727.02,-101.15 762.65,-87.27 788.07,-77.36"/>
<polygon fill="#63b8ff" stroke="#63b8ff" points="789.55,-80.54 797.6,-73.65 787.01,-74.02 789.55,-80.54"/>
</a>
</g>
</g>
<!-- Node21&#45;&gt;Node12 -->
<g id="edge44_Node000021_Node000012" class="edge">
<title>Node21&#45;&gt;Node12</title>
<g id="a_edge44_Node000021_Node000012"><a xlink:title=" ">
<path fill="none" stroke="#63b8ff" d="M641.21,-109.98C593.75,-100.2 516.25,-84.21 468.21,-74.31"/>
<polygon fill="#63b8ff" stroke="#63b8ff" points="468.63,-70.82 458.13,-72.23 467.22,-77.68 468.63,-70.82"/>
</a>
</g>
</g>
<!-- Node21&#45;&gt;Node15 -->
<g id="edge46_Node000021_Node000015" class="edge">
<title>Node21&#45;&gt;Node15</title>
<g id="a_edge46_Node000021_Node000015"><a xlink:title=" ">
<path fill="none" stroke="#63b8ff" d="M669.97,-109.98C658.1,-101.92 640.04,-89.65 625.89,-80.03"/>
<polygon fill="#63b8ff" stroke="#63b8ff" points="627.5,-76.9 617.26,-74.17 623.56,-82.69 627.5,-76.9"/>
</a>
</g>
</g>
</g>
</svg>
