<?xml version="1.0" encoding="UTF-8" standalone="no"?>
<!DOCTYPE svg PUBLIC "-//W3C//DTD SVG 1.1//EN"
 "http://www.w3.org/Graphics/SVG/1.1/DTD/svg11.dtd">
<!-- Generated by graphviz version 2.43.0 (0)
 -->
<!-- Title: src/Drivers/simulatorDriver.cpp Pages: 1 -->
<!--zoomable 467 -->

<svg id="main" version="1.1" xmlns="http://www.w3.org/2000/svg" xmlns:xlink="http://www.w3.org/1999/xlink" xml:space="preserve" onload="init(evt)">
<style type="text/css"><![CDATA[
.node, .edge {opacity: 0.7;}
.node.selected, .edge.selected {opacity: 1;}
.edge:hover path { stroke: red; }
.edge:hover polygon { stroke: red; fill: red; }
]]></style>

<defs>
  <circle id="rim" cx="0" cy="0" r="7"/>
  <circle id="rim2" cx="0" cy="0" r="3.5"/>
  <g id="zoomPlus">
    <use xlink:href="#rim" fill="#404040"><set attributeName="fill" to="#808080" begin="zoomplus.mouseover" end="zoomplus.mouseout"/></use>
    <path d="M-4,0h8M0,-4v8" fill="none" stroke="white" stroke-width="1.5" pointer-events="none"/>
  </g>
  <g id="zoomMin">
    <use xlink:href="#rim" fill="#404040"><set attributeName="fill" to="#808080" begin="zoomminus.mouseover" end="zoomminus.mouseout"/></use>
    <path d="M-4,0h8" fill="none" stroke="white" stroke-width="1.5" pointer-events="none"/>
  </g>
  <g id="arrowUp" transform="translate(30 24)">
    <use xlink:href="#rim"/>
    <path pointer-events="none" fill="none" stroke="white" stroke-width="1.5" d="M0,-3.0v7 M-2.5,-0.5L0,-3.0L2.5,-0.5"/>
  </g>
  <g id="arrowRight" transform="rotate(90) translate(36 -43)">
    <use xlink:href="#rim"/>
    <path pointer-events="none" fill="none" stroke="white" stroke-width="1.5" d="M0,-3.0v7 M-2.5,-0.5L0,-3.0L2.5,-0.5"/>
  </g>
  <g id="arrowDown" transform="rotate(180) translate(-30 -48)">
    <use xlink:href="#rim"/>
    <path pointer-events="none" fill="none" stroke="white" stroke-width="1.5" d="M0,-3.0v7 M-2.5,-0.5L0,-3.0L2.5,-0.5"/>
  </g>
  <g id="arrowLeft" transform="rotate(270) translate(-36 17)">
    <use xlink:href="#rim"/>
    <path pointer-events="none" fill="none" stroke="white" stroke-width="1.5" d="M0,-3.0v7 M-2.5,-0.5L0,-3.0L2.5,-0.5"/>
  </g>
  <g id="resetDef">
    <use xlink:href="#rim2" fill="#404040"><set attributeName="fill" to="#808080" begin="reset.mouseover" end="reset.mouseout"/></use>
  </g>
</defs>
<script type="application/ecmascript">
var viewWidth = 1451;
var viewHeight = 467;
var sectionId = 'dynsection-0';
</script>
<script type="application/ecmascript" xlink:href="svg.min.js"/>
<svg id="graph" class="graph">
<g id="viewport">
<title>src/Drivers/simulatorDriver.cpp</title>
<!-- Node1 -->
<g id="Node000001" class="node">
<title>Node1</title>
<g id="a_Node000001"><a xlink:title=" ">
<polygon fill="#999999" stroke="#666666" points="694,-459 526,-459 526,-440 694,-440 694,-459"/>
<text text-anchor="middle" x="610" y="-447" font-family="Helvetica,sans-Serif" font-size="10.00">src/Drivers/simulatorDriver.cpp</text>
</a>
</g>
</g>
<!-- Node2 -->
<g id="Node000002" class="node">
<title>Node2</title>
<g id="a_Node000002"><a xlink:href="simulatorDriver_8h.html" target="_top" xlink:title=" ">
<polygon fill="white" stroke="#666666" points="680,-404 540,-404 540,-385 680,-385 680,-404"/>
<text text-anchor="middle" x="610" y="-392" font-family="Helvetica,sans-Serif" font-size="10.00">Drivers/simulatorDriver.h</text>
</a>
</g>
</g>
<!-- Node1&#45;&gt;Node2 -->
<g id="edge1_Node000001_Node000002" class="edge">
<title>Node1&#45;&gt;Node2</title>
<g id="a_edge1_Node000001_Node000002"><a xlink:title=" ">
<path fill="none" stroke="#63b8ff" d="M610,-439.75C610,-432.8 610,-422.85 610,-414.13"/>
<polygon fill="#63b8ff" stroke="#63b8ff" points="613.5,-414.09 610,-404.09 606.5,-414.09 613.5,-414.09"/>
</a>
</g>
</g>
<!-- Node3 -->
<g id="Node000003" class="node">
<title>Node3</title>
<g id="a_Node000003"><a xlink:title=" ">
<polygon fill="#e0e0e0" stroke="#999999" points="193.5,-74 148.5,-74 148.5,-55 193.5,-55 193.5,-74"/>
<text text-anchor="middle" x="171" y="-62" font-family="Helvetica,sans-Serif" font-size="10.00">utility</text>
</a>
</g>
</g>
<!-- Node2&#45;&gt;Node3 -->
<g id="edge2_Node000002_Node000003" class="edge">
<title>Node2&#45;&gt;Node3</title>
<g id="a_edge2_Node000002_Node000003"><a xlink:title=" ">
<path fill="none" stroke="#63b8ff" d="M539.73,-388.34C379.33,-375.61 0,-339.78 0,-285.5 0,-285.5 0,-285.5 0,-173.5 0,-108.76 88.71,-81.25 138.34,-70.93"/>
<polygon fill="#63b8ff" stroke="#63b8ff" points="139.15,-74.33 148.29,-68.98 137.81,-67.47 139.15,-74.33"/>
</a>
</g>
</g>
<!-- Node4 -->
<g id="Node000004" class="node">
<title>Node4</title>
<g id="a_Node000004"><a xlink:href="driverModel_8h.html" target="_top" xlink:title=" ">
<polygon fill="white" stroke="#666666" points="932,-294 810,-294 810,-275 932,-275 932,-294"/>
<text text-anchor="middle" x="871" y="-282" font-family="Helvetica,sans-Serif" font-size="10.00">Drivers/driverModel.h</text>
</a>
</g>
</g>
<!-- Node2&#45;&gt;Node4 -->
<g id="edge3_Node000002_Node000004" class="edge">
<title>Node2&#45;&gt;Node4</title>
<g id="a_edge3_Node000002_Node000004"><a xlink:title=" ">
<path fill="none" stroke="#63b8ff" d="M630.92,-384.84C677.04,-365.76 787.6,-320.01 841.06,-297.89"/>
<polygon fill="#63b8ff" stroke="#63b8ff" points="842.44,-301.1 850.35,-294.05 839.77,-294.64 842.44,-301.1"/>
</a>
</g>
</g>
<!-- Node23 -->
<g id="Node000023" class="node">
<title>Node23</title>
<g id="a_Node000023"><a xlink:href="simulator_8h.html" target="_top" xlink:title=" ">
<polygon fill="white" stroke="#666666" points="671,-349 549,-349 549,-330 671,-330 671,-349"/>
<text text-anchor="middle" x="610" y="-337" font-family="Helvetica,sans-Serif" font-size="10.00">Simulator/simulator.h</text>
</a>
</g>
</g>
<!-- Node2&#45;&gt;Node23 -->
<g id="edge54_Node000002_Node000023" class="edge">
<title>Node2&#45;&gt;Node23</title>
<g id="a_edge54_Node000002_Node000023"><a xlink:title=" ">
<path fill="none" stroke="#63b8ff" d="M610,-384.75C610,-377.8 610,-367.85 610,-359.13"/>
<polygon fill="#63b8ff" stroke="#63b8ff" points="613.5,-359.09 610,-349.09 606.5,-359.09 613.5,-359.09"/>
</a>
</g>
</g>
<!-- Node4&#45;&gt;Node3 -->
<g id="edge9_Node000004_Node000003" class="edge">
<title>Node4&#45;&gt;Node3</title>
<g id="a_edge9_Node000004_Node000003"><a xlink:title=" ">
<path fill="none" stroke="#63b8ff" d="M809.93,-281.52C684.37,-276.98 401.23,-264.22 308,-239 219.32,-215.01 170.34,-212.94 133,-129 125.39,-111.89 138.76,-93.68 151.69,-81.17"/>
<polygon fill="#63b8ff" stroke="#63b8ff" points="154.38,-83.46 159.49,-74.18 149.71,-78.24 154.38,-83.46"/>
</a>
</g>
</g>
<!-- Node5 -->
<g id="Node000005" class="node">
<title>Node5</title>
<g id="a_Node000005"><a xlink:title=" ">
<polygon fill="#e0e0e0" stroke="#999999" points="200,-129 142,-129 142,-110 200,-110 200,-129"/>
<text text-anchor="middle" x="171" y="-117" font-family="Helvetica,sans-Serif" font-size="10.00">memory</text>
</a>
</g>
</g>
<!-- Node4&#45;&gt;Node5 -->
<g id="edge4_Node000004_Node000005" class="edge">
<title>Node4&#45;&gt;Node5</title>
<g id="a_edge4_Node000004_Node000005"><a xlink:title=" ">
<path fill="none" stroke="#63b8ff" d="M809.74,-280.59C666.48,-272.79 314.32,-247.51 217,-184 199.77,-172.76 186.85,-152.66 179.16,-138.08"/>
<polygon fill="#63b8ff" stroke="#63b8ff" points="182.26,-136.45 174.68,-129.04 175.99,-139.56 182.26,-136.45"/>
</a>
</g>
</g>
<!-- Node6 -->
<g id="Node000006" class="node">
<title>Node6</title>
<g id="a_Node000006"><a xlink:title=" ">
<polygon fill="#e0e0e0" stroke="#999999" points="1064,-129 1008,-129 1008,-110 1064,-110 1064,-129"/>
<text text-anchor="middle" x="1036" y="-117" font-family="Helvetica,sans-Serif" font-size="10.00">optional</text>
</a>
</g>
</g>
<!-- Node4&#45;&gt;Node6 -->
<g id="edge5_Node000004_Node000006" class="edge">
<title>Node4&#45;&gt;Node6</title>
<g id="a_edge5_Node000004_Node000006"><a xlink:title=" ">
<path fill="none" stroke="#63b8ff" d="M879.87,-274.74C906.39,-248.53 985.37,-170.51 1019.73,-136.57"/>
<polygon fill="#63b8ff" stroke="#63b8ff" points="1022.43,-138.82 1027.09,-129.31 1017.51,-133.84 1022.43,-138.82"/>
</a>
</g>
</g>
<!-- Node7 -->
<g id="Node000007" class="node">
<title>Node7</title>
<g id="a_Node000007"><a xlink:title=" ">
<polygon fill="#e0e0e0" stroke="#999999" points="1060,-19 1016,-19 1016,0 1060,0 1060,-19"/>
<text text-anchor="middle" x="1038" y="-7" font-family="Helvetica,sans-Serif" font-size="10.00">string</text>
</a>
</g>
</g>
<!-- Node4&#45;&gt;Node7 -->
<g id="edge6_Node000004_Node000007" class="edge">
<title>Node4&#45;&gt;Node7</title>
<g id="a_edge6_Node000004_Node000007"><a xlink:title=" ">
<path fill="none" stroke="#63b8ff" d="M932.31,-282.66C978.21,-279.38 1040.78,-269.06 1087,-239 1162.58,-189.85 1177.46,-159.85 1205,-74 1222.9,-18.2 1123.45,-10.18 1070.09,-9.8"/>
<polygon fill="#63b8ff" stroke="#63b8ff" points="1070.07,-6.3 1060.08,-9.82 1070.08,-13.3 1070.07,-6.3"/>
</a>
</g>
</g>
<!-- Node8 -->
<g id="Node000008" class="node">
<title>Node8</title>
<g id="a_Node000008"><a xlink:title=" ">
<polygon fill="#e0e0e0" stroke="#999999" points="1070.5,-74 1029.5,-74 1029.5,-55 1070.5,-55 1070.5,-74"/>
<text text-anchor="middle" x="1050" y="-62" font-family="Helvetica,sans-Serif" font-size="10.00">tuple</text>
</a>
</g>
</g>
<!-- Node4&#45;&gt;Node8 -->
<g id="edge7_Node000004_Node000008" class="edge">
<title>Node4&#45;&gt;Node8</title>
<g id="a_edge7_Node000004_Node000008"><a xlink:title=" ">
<path fill="none" stroke="#63b8ff" d="M932.25,-276.04C985.82,-265.73 1059.51,-241.35 1089,-184 1104.04,-154.75 1101.77,-140.71 1090,-110 1085.76,-98.94 1077.36,-88.91 1069.36,-81.18"/>
<polygon fill="#63b8ff" stroke="#63b8ff" points="1071.42,-78.33 1061.64,-74.27 1066.75,-83.55 1071.42,-78.33"/>
</a>
</g>
</g>
<!-- Node9 -->
<g id="Node000009" class="node">
<title>Node9</title>
<g id="a_Node000009"><a xlink:title=" ">
<polygon fill="#e0e0e0" stroke="#999999" points="1442.5,-19 1349.5,-19 1349.5,0 1442.5,0 1442.5,-19"/>
<text text-anchor="middle" x="1396" y="-7" font-family="Helvetica,sans-Serif" font-size="10.00">unordered_map</text>
</a>
</g>
</g>
<!-- Node4&#45;&gt;Node9 -->
<g id="edge8_Node000004_Node000009" class="edge">
<title>Node4&#45;&gt;Node9</title>
<g id="a_edge8_Node000004_Node000009"><a xlink:title=" ">
<path fill="none" stroke="#63b8ff" d="M932.05,-278.15C1077.8,-264.56 1434,-226.16 1434,-175.5 1434,-175.5 1434,-175.5 1434,-118.5 1434,-85.02 1417.55,-48.84 1406.3,-28.01"/>
<polygon fill="#63b8ff" stroke="#63b8ff" points="1409.24,-26.1 1401.28,-19.1 1403.13,-29.53 1409.24,-26.1"/>
</a>
</g>
</g>
<!-- Node10 -->
<g id="Node000010" class="node">
<title>Node10</title>
<g id="a_Node000010"><a xlink:title=" ">
<polygon fill="#e0e0e0" stroke="#999999" points="832.5,-74 767.5,-74 767.5,-55 832.5,-55 832.5,-74"/>
<text text-anchor="middle" x="800" y="-62" font-family="Helvetica,sans-Serif" font-size="10.00">functional</text>
</a>
</g>
</g>
<!-- Node4&#45;&gt;Node10 -->
<g id="edge10_Node000004_Node000010" class="edge">
<title>Node4&#45;&gt;Node10</title>
<g id="a_edge10_Node000004_Node000010"><a xlink:title=" ">
<path fill="none" stroke="#63b8ff" d="M897.18,-274.88C964.66,-251.35 1134.99,-182.91 1073,-110 1044.01,-75.9 912.46,-67.86 843.1,-66.02"/>
<polygon fill="#63b8ff" stroke="#63b8ff" points="843.02,-62.51 832.94,-65.78 842.85,-69.51 843.02,-62.51"/>
</a>
</g>
</g>
<!-- Node11 -->
<g id="Node000011" class="node">
<title>Node11</title>
<g id="a_Node000011"><a xlink:href="channel_8h.html" target="_top" xlink:title=" ">
<polygon fill="white" stroke="#666666" points="588.5,-239 481.5,-239 481.5,-220 588.5,-220 588.5,-239"/>
<text text-anchor="middle" x="535" y="-227" font-family="Helvetica,sans-Serif" font-size="10.00">Channel/channel.h</text>
</a>
</g>
</g>
<!-- Node4&#45;&gt;Node11 -->
<g id="edge11_Node000004_Node000011" class="edge">
<title>Node4&#45;&gt;Node11</title>
<g id="a_edge11_Node000004_Node000011"><a xlink:title=" ">
<path fill="none" stroke="#63b8ff" d="M817.02,-274.98C757.53,-265.6 661.94,-250.52 598.8,-240.56"/>
<polygon fill="#63b8ff" stroke="#63b8ff" points="599,-237.05 588.57,-238.95 597.91,-243.97 599,-237.05"/>
</a>
</g>
</g>
<!-- Node19 -->
<g id="Node000019" class="node">
<title>Node19</title>
<g id="a_Node000019"><a xlink:href="types_8h.html" target="_top" xlink:title=" ">
<polygon fill="white" stroke="#666666" points="1177.5,-74 1088.5,-74 1088.5,-55 1177.5,-55 1177.5,-74"/>
<text text-anchor="middle" x="1133" y="-62" font-family="Helvetica,sans-Serif" font-size="10.00">Library/types.h</text>
</a>
</g>
</g>
<!-- Node4&#45;&gt;Node19 -->
<g id="edge52_Node000004_Node000019" class="edge">
<title>Node4&#45;&gt;Node19</title>
<g id="a_edge52_Node000004_Node000019"><a xlink:title=" ">
<path fill="none" stroke="#63b8ff" d="M932.09,-279.41C971.62,-274.43 1022.84,-263.39 1062,-239 1116.08,-205.32 1128.97,-121.7 1132.04,-84.21"/>
<polygon fill="#63b8ff" stroke="#63b8ff" points="1135.54,-84.37 1132.71,-74.16 1128.55,-83.91 1135.54,-84.37"/>
</a>
</g>
</g>
<!-- Node20 -->
<g id="Node000020" class="node">
<title>Node20</title>
<g id="a_Node000020"><a xlink:href="transaction_8h_source.html" target="_top" xlink:title=" ">
<polygon fill="white" stroke="#666666" points="721.5,-184 582.5,-184 582.5,-165 721.5,-165 721.5,-184"/>
<text text-anchor="middle" x="652" y="-172" font-family="Helvetica,sans-Serif" font-size="10.00">Transaction/transaction.h</text>
</a>
</g>
</g>
<!-- Node4&#45;&gt;Node20 -->
<g id="edge51_Node000004_Node000020" class="edge">
<title>Node4&#45;&gt;Node20</title>
<g id="a_edge51_Node000004_Node000020"><a xlink:title=" ">
<path fill="none" stroke="#63b8ff" d="M853.45,-274.84C815.15,-255.96 723.9,-210.96 678.54,-188.59"/>
<polygon fill="#63b8ff" stroke="#63b8ff" points="679.85,-185.33 669.33,-184.05 676.75,-191.61 679.85,-185.33"/>
</a>
</g>
</g>
<!-- Node21 -->
<g id="Node000021" class="node">
<title>Node21</title>
<g id="a_Node000021"><a xlink:href="error_8h.html" target="_top" xlink:title=" ">
<polygon fill="white" stroke="#666666" points="913.5,-129 828.5,-129 828.5,-110 913.5,-110 913.5,-129"/>
<text text-anchor="middle" x="871" y="-117" font-family="Helvetica,sans-Serif" font-size="10.00">Library/error.h</text>
</a>
</g>
</g>
<!-- Node4&#45;&gt;Node21 -->
<g id="edge53_Node000004_Node000021" class="edge">
<title>Node4&#45;&gt;Node21</title>
<g id="a_edge53_Node000004_Node000021"><a xlink:title=" ">
<path fill="none" stroke="#63b8ff" d="M871,-274.74C871,-249.31 871,-175.08 871,-139.69"/>
<polygon fill="#63b8ff" stroke="#63b8ff" points="874.5,-139.31 871,-129.31 867.5,-139.31 874.5,-139.31"/>
</a>
</g>
</g>
<!-- Node11&#45;&gt;Node3 -->
<g id="edge19_Node000011_Node000003" class="edge">
<title>Node11&#45;&gt;Node3</title>
<g id="a_edge19_Node000011_Node000003"><a xlink:title=" ">
<path fill="none" stroke="#63b8ff" d="M481.42,-223.69C437.13,-218.23 373.41,-206.92 322,-184 265.42,-158.78 211.4,-107.71 186.05,-81.62"/>
<polygon fill="#63b8ff" stroke="#63b8ff" points="188.29,-78.91 178.86,-74.1 183.23,-83.75 188.29,-78.91"/>
</a>
</g>
</g>
<!-- Node11&#45;&gt;Node5 -->
<g id="edge13_Node000011_Node000005" class="edge">
<title>Node11&#45;&gt;Node5</title>
<g id="a_edge13_Node000011_Node000005"><a xlink:title=" ">
<path fill="none" stroke="#63b8ff" d="M481.4,-228.03C422.77,-225.74 327.13,-216.69 252,-184 226.29,-172.81 201.66,-151.48 186.45,-136.64"/>
<polygon fill="#63b8ff" stroke="#63b8ff" points="188.55,-133.79 179.02,-129.17 183.59,-138.73 188.55,-133.79"/>
</a>
</g>
</g>
<!-- Node11&#45;&gt;Node7 -->
<g id="edge15_Node000011_Node000007" class="edge">
<title>Node11&#45;&gt;Node7</title>
<g id="a_edge15_Node000011_Node000007"><a xlink:title=" ">
<path fill="none" stroke="#63b8ff" d="M588.69,-227.43C701,-224.59 956.99,-214.84 1038,-184 1119.55,-152.96 1238.06,-125.02 1186,-55 1159.45,-19.29 1105.19,-11.17 1070.26,-9.88"/>
<polygon fill="#63b8ff" stroke="#63b8ff" points="1070.16,-6.38 1060.09,-9.68 1070.02,-13.38 1070.16,-6.38"/>
</a>
</g>
</g>
<!-- Node11&#45;&gt;Node8 -->
<g id="edge16_Node000011_Node000008" class="edge">
<title>Node11&#45;&gt;Node8</title>
<g id="a_edge16_Node000011_Node000008"><a xlink:title=" ">
<path fill="none" stroke="#63b8ff" d="M588.52,-226.93C712.14,-222.06 1011.64,-202.75 1073,-129 1084.2,-115.54 1074.51,-96.19 1064.49,-82.39"/>
<polygon fill="#63b8ff" stroke="#63b8ff" points="1067.01,-79.93 1058.08,-74.24 1061.51,-84.26 1067.01,-79.93"/>
</a>
</g>
</g>
<!-- Node11&#45;&gt;Node9 -->
<g id="edge17_Node000011_Node000009" class="edge">
<title>Node11&#45;&gt;Node9</title>
<g id="a_edge17_Node000011_Node000009"><a xlink:title=" ">
<path fill="none" stroke="#63b8ff" d="M588.91,-226.52C707.29,-221.79 986.72,-208.34 1078,-184 1133.52,-169.2 1144.2,-155.84 1195,-129 1261.09,-94.08 1336.32,-47.94 1373.19,-24.89"/>
<polygon fill="#63b8ff" stroke="#63b8ff" points="1375.51,-27.57 1382.12,-19.29 1371.79,-21.64 1375.51,-27.57"/>
</a>
</g>
</g>
<!-- Node12 -->
<g id="Node000012" class="node">
<title>Node12</title>
<g id="a_Node000012"><a xlink:title=" ">
<polygon fill="#e0e0e0" stroke="#999999" points="423.5,-184 370.5,-184 370.5,-165 423.5,-165 423.5,-184"/>
<text text-anchor="middle" x="397" y="-172" font-family="Helvetica,sans-Serif" font-size="10.00">iterator</text>
</a>
</g>
</g>
<!-- Node11&#45;&gt;Node12 -->
<g id="edge12_Node000011_Node000012" class="edge">
<title>Node11&#45;&gt;Node12</title>
<g id="a_edge12_Node000011_Node000012"><a xlink:title=" ">
<path fill="none" stroke="#63b8ff" d="M512.83,-219.98C490.23,-211.3 454.94,-197.75 429.25,-187.88"/>
<polygon fill="#63b8ff" stroke="#63b8ff" points="430.17,-184.49 419.58,-184.17 427.66,-191.02 430.17,-184.49"/>
</a>
</g>
</g>
<!-- Node13 -->
<g id="Node000013" class="node">
<title>Node13</title>
<g id="a_Node000013"><a xlink:title=" ">
<polygon fill="#e0e0e0" stroke="#999999" points="304,-129 256,-129 256,-110 304,-110 304,-129"/>
<text text-anchor="middle" x="280" y="-117" font-family="Helvetica,sans-Serif" font-size="10.00">mutex</text>
</a>
</g>
</g>
<!-- Node11&#45;&gt;Node13 -->
<g id="edge14_Node000011_Node000013" class="edge">
<title>Node11&#45;&gt;Node13</title>
<g id="a_edge14_Node000011_Node000013"><a xlink:title=" ">
<path fill="none" stroke="#63b8ff" d="M481.4,-222.61C443.31,-216.77 391.88,-205.47 351,-184 328.48,-172.18 307.39,-151.64 294.14,-137.12"/>
<polygon fill="#63b8ff" stroke="#63b8ff" points="296.54,-134.56 287.3,-129.39 291.3,-139.2 296.54,-134.56"/>
</a>
</g>
</g>
<!-- Node14 -->
<g id="Node000014" class="node">
<title>Node14</title>
<g id="a_Node000014"><a xlink:title=" ">
<polygon fill="#e0e0e0" stroke="#999999" points="520,-74 482,-74 482,-55 520,-55 520,-74"/>
<text text-anchor="middle" x="501" y="-62" font-family="Helvetica,sans-Serif" font-size="10.00">map</text>
</a>
</g>
</g>
<!-- Node11&#45;&gt;Node14 -->
<g id="edge18_Node000011_Node000014" class="edge">
<title>Node11&#45;&gt;Node14</title>
<g id="a_edge18_Node000011_Node000014"><a xlink:title=" ">
<path fill="none" stroke="#63b8ff" d="M533.17,-219.74C527.85,-194.2 512.25,-119.43 504.91,-84.23"/>
<polygon fill="#63b8ff" stroke="#63b8ff" points="508.31,-83.38 502.84,-74.31 501.45,-84.81 508.31,-83.38"/>
</a>
</g>
</g>
<!-- Node15 -->
<g id="Node000015" class="node">
<title>Node15</title>
<g id="a_Node000015"><a xlink:title=" ">
<polygon fill="#e0e0e0" stroke="#999999" points="673.5,-19 626.5,-19 626.5,0 673.5,0 673.5,-19"/>
<text text-anchor="middle" x="650" y="-7" font-family="Helvetica,sans-Serif" font-size="10.00">vector</text>
</a>
</g>
</g>
<!-- Node11&#45;&gt;Node15 -->
<g id="edge20_Node000011_Node000015" class="edge">
<title>Node11&#45;&gt;Node15</title>
<g id="a_edge20_Node000011_Node000015"><a xlink:title=" ">
<path fill="none" stroke="#63b8ff" d="M481.48,-228.09C416.84,-226.02 305.71,-217.33 217,-184 175.23,-168.31 154.22,-168.26 133,-129 124.21,-112.74 122.33,-71.31 139,-55 173.07,-21.66 507.63,-12.96 616.18,-11.01"/>
<polygon fill="#63b8ff" stroke="#63b8ff" points="616.32,-14.5 626.26,-10.83 616.2,-7.51 616.32,-14.5"/>
</a>
</g>
</g>
<!-- Node16 -->
<g id="Node000016" class="node">
<title>Node16</title>
<g id="a_Node000016"><a xlink:title=" ">
<polygon fill="#e0e0e0" stroke="#999999" points="488,-184 442,-184 442,-165 488,-165 488,-184"/>
<text text-anchor="middle" x="465" y="-172" font-family="Helvetica,sans-Serif" font-size="10.00">future</text>
</a>
</g>
</g>
<!-- Node11&#45;&gt;Node16 -->
<g id="edge21_Node000011_Node000016" class="edge">
<title>Node11&#45;&gt;Node16</title>
<g id="a_edge21_Node000011_Node000016"><a xlink:title=" ">
<path fill="none" stroke="#63b8ff" d="M523.75,-219.98C513.2,-212 497.2,-199.88 484.56,-190.31"/>
<polygon fill="#63b8ff" stroke="#63b8ff" points="486.54,-187.42 476.45,-184.17 482.31,-193 486.54,-187.42"/>
</a>
</g>
</g>
<!-- Node17 -->
<g id="Node000017" class="node">
<title>Node17</title>
<g id="a_Node000017"><a xlink:title=" ">
<polygon fill="#e0e0e0" stroke="#999999" points="598,-74 538,-74 538,-55 598,-55 598,-74"/>
<text text-anchor="middle" x="568" y="-62" font-family="Helvetica,sans-Serif" font-size="10.00">iostream</text>
</a>
</g>
</g>
<!-- Node11&#45;&gt;Node17 -->
<g id="edge22_Node000011_Node000017" class="edge">
<title>Node11&#45;&gt;Node17</title>
<g id="a_edge22_Node000011_Node000017"><a xlink:title=" ">
<path fill="none" stroke="#63b8ff" d="M536.77,-219.74C541.94,-194.2 557.08,-119.43 564.21,-84.23"/>
<polygon fill="#63b8ff" stroke="#63b8ff" points="567.66,-84.8 566.22,-74.31 560.8,-83.41 567.66,-84.8"/>
</a>
</g>
</g>
<!-- Node18 -->
<g id="Node000018" class="node">
<title>Node18</title>
<g id="a_Node000018"><a xlink:title=" ">
<polygon fill="#e0e0e0" stroke="#999999" points="408,-129 322,-129 322,-110 408,-110 408,-129"/>
<text text-anchor="middle" x="365" y="-117" font-family="Helvetica,sans-Serif" font-size="10.00">shared_mutex</text>
</a>
</g>
</g>
<!-- Node11&#45;&gt;Node18 -->
<g id="edge23_Node000011_Node000018" class="edge">
<title>Node11&#45;&gt;Node18</title>
<g id="a_edge23_Node000011_Node000018"><a xlink:title=" ">
<path fill="none" stroke="#63b8ff" d="M481.16,-221.97C435.7,-215.22 375.72,-202.96 361,-184 351.27,-171.47 353.72,-153.02 357.74,-139.23"/>
<polygon fill="#63b8ff" stroke="#63b8ff" points="361.18,-139.96 361.1,-129.37 354.56,-137.7 361.18,-139.96"/>
</a>
</g>
</g>
<!-- Node11&#45;&gt;Node19 -->
<g id="edge24_Node000011_Node000019" class="edge">
<title>Node11&#45;&gt;Node19</title>
<g id="a_edge24_Node000011_Node000019"><a xlink:title=" ">
<path fill="none" stroke="#63b8ff" d="M588.57,-226.44C694.23,-221.89 925.8,-209.29 1001,-184 1045.07,-169.18 1056.44,-161.19 1090,-129 1104.07,-115.5 1116.12,-96.67 1123.85,-83.02"/>
<polygon fill="#63b8ff" stroke="#63b8ff" points="1126.97,-84.6 1128.68,-74.15 1120.82,-81.25 1126.97,-84.6"/>
</a>
</g>
</g>
<!-- Node11&#45;&gt;Node20 -->
<g id="edge28_Node000011_Node000020" class="edge">
<title>Node11&#45;&gt;Node20</title>
<g id="a_edge28_Node000011_Node000020"><a xlink:title=" ">
<path fill="none" stroke="#63b8ff" d="M553.8,-219.98C572.62,-211.46 601.82,-198.23 623.5,-188.41"/>
<polygon fill="#63b8ff" stroke="#63b8ff" points="625.2,-191.48 632.86,-184.17 622.31,-185.11 625.2,-191.48"/>
</a>
</g>
</g>
<!-- Node19&#45;&gt;Node7 -->
<g id="edge27_Node000019_Node000007" class="edge">
<title>Node19&#45;&gt;Node7</title>
<g id="a_edge27_Node000019_Node000007"><a xlink:title=" ">
<path fill="none" stroke="#63b8ff" d="M1117.74,-54.98C1102.87,-46.69 1080.02,-33.94 1062.58,-24.22"/>
<polygon fill="#63b8ff" stroke="#63b8ff" points="1063.98,-20.99 1053.54,-19.17 1060.57,-27.1 1063.98,-20.99"/>
</a>
</g>
</g>
<!-- Node19&#45;&gt;Node9 -->
<g id="edge26_Node000019_Node000009" class="edge">
<title>Node19&#45;&gt;Node9</title>
<g id="a_edge26_Node000019_Node000009"><a xlink:title=" ">
<path fill="none" stroke="#63b8ff" d="M1175.26,-54.98C1221.04,-45.76 1294.14,-31.03 1343.55,-21.07"/>
<polygon fill="#63b8ff" stroke="#63b8ff" points="1344.3,-24.49 1353.41,-19.08 1342.92,-17.63 1344.3,-24.49"/>
</a>
</g>
</g>
<!-- Node19&#45;&gt;Node15 -->
<g id="edge25_Node000019_Node000015" class="edge">
<title>Node19&#45;&gt;Node15</title>
<g id="a_edge25_Node000019_Node000015"><a xlink:title=" ">
<path fill="none" stroke="#63b8ff" d="M1088.24,-56.27C1085.11,-55.82 1082.01,-55.39 1079,-55 932.46,-35.88 756.88,-19.79 684.14,-13.42"/>
<polygon fill="#63b8ff" stroke="#63b8ff" points="684.04,-9.9 673.77,-12.52 683.43,-16.88 684.04,-9.9"/>
</a>
</g>
</g>
<!-- Node20&#45;&gt;Node3 -->
<g id="edge33_Node000020_Node000003" class="edge">
<title>Node20&#45;&gt;Node3</title>
<g id="a_edge33_Node000020_Node000003"><a xlink:title=" ">
<path fill="none" stroke="#63b8ff" d="M623.62,-164.99C579.64,-152 492.24,-126.94 417,-110 341.03,-92.9 250.7,-77.91 203.47,-70.47"/>
<polygon fill="#63b8ff" stroke="#63b8ff" points="203.94,-67 193.51,-68.92 202.85,-73.92 203.94,-67"/>
</a>
</g>
</g>
<!-- Node20&#45;&gt;Node5 -->
<g id="edge35_Node000020_Node000005" class="edge">
<title>Node20&#45;&gt;Node5</title>
<g id="a_edge35_Node000020_Node000005"><a xlink:title=" ">
<path fill="none" stroke="#63b8ff" d="M582.48,-165.9C501.8,-157.08 364.76,-142.05 247,-129 235.06,-127.68 222.06,-126.23 210.25,-124.9"/>
<polygon fill="#63b8ff" stroke="#63b8ff" points="210.56,-121.42 200.23,-123.78 209.78,-128.37 210.56,-121.42"/>
</a>
</g>
</g>
<!-- Node20&#45;&gt;Node6 -->
<g id="edge37_Node000020_Node000006" class="edge">
<title>Node20&#45;&gt;Node6</title>
<g id="a_edge37_Node000020_Node000006"><a xlink:title=" ">
<path fill="none" stroke="#63b8ff" d="M721.64,-165.89C790.9,-157.98 900.08,-144.59 994,-129 995.1,-128.82 996.22,-128.63 997.34,-128.43"/>
<polygon fill="#63b8ff" stroke="#63b8ff" points="998.39,-131.8 1007.58,-126.53 997.11,-124.91 998.39,-131.8"/>
</a>
</g>
</g>
<!-- Node20&#45;&gt;Node7 -->
<g id="edge32_Node000020_Node000007" class="edge">
<title>Node20&#45;&gt;Node7</title>
<g id="a_edge32_Node000020_Node000007"><a xlink:title=" ">
<path fill="none" stroke="#63b8ff" d="M721.74,-173.77C778.59,-171.32 859.41,-161.56 922,-129 968.86,-104.62 1008.13,-54.32 1026.63,-27.78"/>
<polygon fill="#63b8ff" stroke="#63b8ff" points="1029.75,-29.4 1032.47,-19.16 1023.96,-25.47 1029.75,-29.4"/>
</a>
</g>
</g>
<!-- Node20&#45;&gt;Node10 -->
<g id="edge38_Node000020_Node000010" class="edge">
<title>Node20&#45;&gt;Node10</title>
<g id="a_edge38_Node000020_Node000010"><a xlink:title=" ">
<path fill="none" stroke="#63b8ff" d="M712.41,-164.94C736.6,-158.67 762.96,-147.81 781,-129 792.57,-116.94 797.12,-98.14 798.9,-84.12"/>
<polygon fill="#63b8ff" stroke="#63b8ff" points="802.39,-84.39 799.82,-74.12 795.42,-83.76 802.39,-84.39"/>
</a>
</g>
</g>
<!-- Node20&#45;&gt;Node13 -->
<g id="edge30_Node000020_Node000013" class="edge">
<title>Node20&#45;&gt;Node13</title>
<g id="a_edge30_Node000020_Node000013"><a xlink:title=" ">
<path fill="none" stroke="#63b8ff" d="M582.46,-166.87C515.87,-159.96 412.44,-147.74 313.9,-128.96"/>
<polygon fill="#63b8ff" stroke="#63b8ff" points="314.56,-125.52 304.07,-127.06 313.23,-132.39 314.56,-125.52"/>
</a>
</g>
</g>
<!-- Node20&#45;&gt;Node14 -->
<g id="edge36_Node000020_Node000014" class="edge">
<title>Node20&#45;&gt;Node14</title>
<g id="a_edge36_Node000020_Node000014"><a xlink:title=" ">
<path fill="none" stroke="#63b8ff" d="M639.9,-164.84C614.05,-146.36 553.23,-102.86 521.34,-80.05"/>
<polygon fill="#63b8ff" stroke="#63b8ff" points="523.33,-77.17 513.16,-74.2 519.26,-82.86 523.33,-77.17"/>
</a>
</g>
</g>
<!-- Node20&#45;&gt;Node15 -->
<g id="edge34_Node000020_Node000015" class="edge">
<title>Node20&#45;&gt;Node15</title>
<g id="a_edge34_Node000020_Node000015"><a xlink:title=" ">
<path fill="none" stroke="#63b8ff" d="M650.2,-164.68C648.47,-155.74 645.98,-141.48 645,-129 642.25,-93.88 645.41,-52.77 647.81,-29.37"/>
<polygon fill="#63b8ff" stroke="#63b8ff" points="651.32,-29.46 648.93,-19.14 644.36,-28.7 651.32,-29.46"/>
</a>
</g>
</g>
<!-- Node20&#45;&gt;Node17 -->
<g id="edge29_Node000020_Node000017" class="edge">
<title>Node20&#45;&gt;Node17</title>
<g id="a_edge29_Node000020_Node000017"><a xlink:title=" ">
<path fill="none" stroke="#63b8ff" d="M643.69,-164.92C635.36,-156.16 622.31,-142.04 612,-129 600.08,-113.93 587.73,-95.85 579.15,-82.84"/>
<polygon fill="#63b8ff" stroke="#63b8ff" points="582.03,-80.84 573.64,-74.38 576.17,-84.67 582.03,-80.84"/>
</a>
</g>
</g>
<!-- Node20&#45;&gt;Node18 -->
<g id="edge31_Node000020_Node000018" class="edge">
<title>Node20&#45;&gt;Node18</title>
<g id="a_edge31_Node000020_Node000018"><a xlink:title=" ">
<path fill="none" stroke="#63b8ff" d="M605.89,-164.98C554.68,-155.53 472.15,-140.29 418.23,-130.33"/>
<polygon fill="#63b8ff" stroke="#63b8ff" points="418.65,-126.85 408.18,-128.47 417.38,-133.73 418.65,-126.85"/>
</a>
</g>
</g>
<!-- Node20&#45;&gt;Node19 -->
<g id="edge39_Node000020_Node000019" class="edge">
<title>Node20&#45;&gt;Node19</title>
<g id="a_edge39_Node000020_Node000019"><a xlink:title=" ">
<path fill="none" stroke="#63b8ff" d="M721.65,-168.69C784.01,-163.13 877.46,-151.65 956,-129 976.08,-123.21 979.51,-117.52 999,-110 1030.94,-97.67 1067.91,-85.55 1094.92,-77.08"/>
<polygon fill="#63b8ff" stroke="#63b8ff" points="1096.24,-80.33 1104.75,-74.02 1094.16,-73.65 1096.24,-80.33"/>
</a>
</g>
</g>
<!-- Node20&#45;&gt;Node21 -->
<g id="edge40_Node000020_Node000021" class="edge">
<title>Node20&#45;&gt;Node21</title>
<g id="a_edge40_Node000020_Node000021"><a xlink:title=" ">
<path fill="none" stroke="#63b8ff" d="M687.19,-164.98C724.83,-155.87 784.66,-141.4 825.77,-131.45"/>
<polygon fill="#63b8ff" stroke="#63b8ff" points="826.64,-134.84 835.54,-129.08 825,-128.03 826.64,-134.84"/>
</a>
</g>
</g>
<!-- Node22 -->
<g id="Node000022" class="node">
<title>Node22</title>
<g id="a_Node000022"><a xlink:href="evaluate_8h.html" target="_top" xlink:title=" ">
<polygon fill="white" stroke="#666666" points="772,-129 654,-129 654,-110 772,-110 772,-129"/>
<text text-anchor="middle" x="713" y="-117" font-family="Helvetica,sans-Serif" font-size="10.00">Evaluator/evaluate.h</text>
</a>
</g>
</g>
<!-- Node20&#45;&gt;Node22 -->
<g id="edge43_Node000020_Node000022" class="edge">
<title>Node20&#45;&gt;Node22</title>
<g id="a_edge43_Node000020_Node000022"><a xlink:title=" ">
<path fill="none" stroke="#63b8ff" d="M661.8,-164.98C670.82,-157.15 684.41,-145.34 695.32,-135.86"/>
<polygon fill="#63b8ff" stroke="#63b8ff" points="697.77,-138.37 703.02,-129.17 693.18,-133.09 697.77,-138.37"/>
</a>
</g>
</g>
<!-- Node21&#45;&gt;Node7 -->
<g id="edge41_Node000021_Node000007" class="edge">
<title>Node21&#45;&gt;Node7</title>
<g id="a_edge41_Node000021_Node000007"><a xlink:title=" ">
<path fill="none" stroke="#63b8ff" d="M876.7,-109.97C886,-96.61 905.69,-70.66 928,-55 951.94,-38.2 983.17,-26.35 1006.23,-19.12"/>
<polygon fill="#63b8ff" stroke="#63b8ff" points="1007.31,-22.45 1015.88,-16.22 1005.29,-15.75 1007.31,-22.45"/>
</a>
</g>
</g>
<!-- Node21&#45;&gt;Node17 -->
<g id="edge42_Node000021_Node000017" class="edge">
<title>Node21&#45;&gt;Node17</title>
<g id="a_edge42_Node000021_Node000017"><a xlink:title=" ">
<path fill="none" stroke="#63b8ff" d="M828.23,-111.02C769.72,-100.78 665.48,-82.55 608.29,-72.55"/>
<polygon fill="#63b8ff" stroke="#63b8ff" points="608.64,-69.06 598.18,-70.78 607.43,-75.95 608.64,-69.06"/>
</a>
</g>
</g>
<!-- Node22&#45;&gt;Node3 -->
<g id="edge44_Node000022_Node000003" class="edge">
<title>Node22&#45;&gt;Node3</title>
<g id="a_edge44_Node000022_Node000003"><a xlink:title=" ">
<path fill="none" stroke="#63b8ff" d="M653.96,-112.73C539.94,-101.58 292.8,-77.41 203.79,-68.71"/>
<polygon fill="#63b8ff" stroke="#63b8ff" points="204.03,-65.21 193.73,-67.72 203.35,-72.18 204.03,-65.21"/>
</a>
</g>
</g>
<!-- Node22&#45;&gt;Node7 -->
<g id="edge46_Node000022_Node000007" class="edge">
<title>Node22&#45;&gt;Node7</title>
<g id="a_edge46_Node000022_Node000007"><a xlink:title=" ">
<path fill="none" stroke="#63b8ff" d="M716.47,-109.83C722.57,-95.77 736.65,-68.26 758,-55 798.99,-29.53 941.46,-16.97 1005.9,-12.49"/>
<polygon fill="#63b8ff" stroke="#63b8ff" points="1006.17,-15.98 1015.91,-11.81 1005.7,-8.99 1006.17,-15.98"/>
</a>
</g>
</g>
<!-- Node22&#45;&gt;Node8 -->
<g id="edge48_Node000022_Node000008" class="edge">
<title>Node22&#45;&gt;Node8</title>
<g id="a_edge48_Node000022_Node000008"><a xlink:title=" ">
<path fill="none" stroke="#63b8ff" d="M767.14,-109.98C838.61,-98.75 962.03,-79.33 1019.24,-70.34"/>
<polygon fill="#63b8ff" stroke="#63b8ff" points="1019.79,-73.79 1029.13,-68.78 1018.7,-66.88 1019.79,-73.79"/>
</a>
</g>
</g>
<!-- Node22&#45;&gt;Node10 -->
<g id="edge47_Node000022_Node000010" class="edge">
<title>Node22&#45;&gt;Node10</title>
<g id="a_edge47_Node000022_Node000010"><a xlink:title=" ">
<path fill="none" stroke="#63b8ff" d="M726.98,-109.98C740.47,-101.77 761.13,-89.18 777.04,-79.49"/>
<polygon fill="#63b8ff" stroke="#63b8ff" points="779.05,-82.36 785.77,-74.17 775.41,-76.38 779.05,-82.36"/>
</a>
</g>
</g>
<!-- Node22&#45;&gt;Node14 -->
<g id="edge49_Node000022_Node000014" class="edge">
<title>Node22&#45;&gt;Node14</title>
<g id="a_edge49_Node000022_Node000014"><a xlink:title=" ">
<path fill="none" stroke="#63b8ff" d="M674.78,-109.93C639.49,-101.87 585.42,-89.14 529.89,-74.13"/>
<polygon fill="#63b8ff" stroke="#63b8ff" points="530.81,-70.75 520.24,-71.5 528.97,-77.5 530.81,-70.75"/>
</a>
</g>
</g>
<!-- Node22&#45;&gt;Node15 -->
<g id="edge45_Node000022_Node000015" class="edge">
<title>Node22&#45;&gt;Node15</title>
<g id="a_edge45_Node000022_Node000015"><a xlink:title=" ">
<path fill="none" stroke="#63b8ff" d="M707.84,-109.66C697.46,-91.85 673.84,-51.37 660.21,-28.01"/>
<polygon fill="#63b8ff" stroke="#63b8ff" points="663.11,-26.03 655.05,-19.16 657.07,-29.56 663.11,-26.03"/>
</a>
</g>
</g>
<!-- Node22&#45;&gt;Node19 -->
<g id="edge50_Node000022_Node000019" class="edge">
<title>Node22&#45;&gt;Node19</title>
<g id="a_edge50_Node000022_Node000019"><a xlink:title=" ">
<path fill="none" stroke="#63b8ff" d="M772.04,-111.97C842.4,-104.04 963.79,-89.9 1078.24,-74.06"/>
<polygon fill="#63b8ff" stroke="#63b8ff" points="1078.81,-77.52 1088.23,-72.67 1077.84,-70.58 1078.81,-77.52"/>
</a>
</g>
</g>
<!-- Node23&#45;&gt;Node3 -->
<g id="edge56_Node000023_Node000003" class="edge">
<title>Node23&#45;&gt;Node3</title>
<g id="a_edge56_Node000023_Node000003"><a xlink:title=" ">
<path fill="none" stroke="#63b8ff" d="M548.79,-333.32C401.23,-320.02 38,-282.04 38,-230.5 38,-230.5 38,-230.5 38,-173.5 38,-121.68 99.61,-90.37 138.96,-75.65"/>
<polygon fill="#63b8ff" stroke="#63b8ff" points="140.2,-78.93 148.44,-72.27 137.84,-72.34 140.2,-78.93"/>
</a>
</g>
</g>
<!-- Node23&#45;&gt;Node4 -->
<g id="edge58_Node000023_Node000004" class="edge">
<title>Node23&#45;&gt;Node4</title>
<g id="a_edge58_Node000023_Node000004"><a xlink:title=" ">
<path fill="none" stroke="#63b8ff" d="M651.93,-329.98C697.27,-320.78 769.61,-306.09 818.65,-296.13"/>
<polygon fill="#63b8ff" stroke="#63b8ff" points="819.63,-299.5 828.74,-294.08 818.24,-292.64 819.63,-299.5"/>
</a>
</g>
</g>
<!-- Node23&#45;&gt;Node5 -->
<g id="edge55_Node000023_Node000005" class="edge">
<title>Node23&#45;&gt;Node5</title>
<g id="a_edge55_Node000023_Node000005"><a xlink:title=" ">
<path fill="none" stroke="#63b8ff" d="M549,-333.28C458.11,-322.16 287.84,-287.93 194,-184 182.72,-171.5 176.85,-153.04 173.88,-139.24"/>
<polygon fill="#63b8ff" stroke="#63b8ff" points="177.32,-138.58 172.07,-129.38 170.43,-139.85 177.32,-138.58"/>
</a>
</g>
</g>
<!-- Node23&#45;&gt;Node11 -->
<g id="edge59_Node000023_Node000011" class="edge">
<title>Node23&#45;&gt;Node11</title>
<g id="a_edge59_Node000023_Node000011"><a xlink:title=" ">
<path fill="none" stroke="#63b8ff" d="M603.86,-329.66C591.38,-311.69 562.88,-270.64 546.72,-247.38"/>
<polygon fill="#63b8ff" stroke="#63b8ff" points="549.59,-245.38 541.01,-239.16 543.84,-249.37 549.59,-245.38"/>
</a>
</g>
</g>
<!-- Node23&#45;&gt;Node19 -->
<g id="edge57_Node000023_Node000019" class="edge">
<title>Node23&#45;&gt;Node19</title>
<g id="a_edge57_Node000023_Node000019"><a xlink:title=" ">
<path fill="none" stroke="#63b8ff" d="M671.18,-334.45C738.21,-329.04 848.51,-317.32 941,-294 1008.24,-277.05 1032.1,-281.36 1087,-239 1130.28,-205.61 1134.29,-183.11 1142,-129 1144.16,-113.82 1141.4,-96.61 1138.38,-83.93"/>
<polygon fill="#63b8ff" stroke="#63b8ff" points="1141.72,-82.9 1135.78,-74.13 1134.96,-84.69 1141.72,-82.9"/>
</a>
</g>
</g>
<!-- Node23&#45;&gt;Node20 -->
<g id="edge60_Node000023_Node000020" class="edge">
<title>Node23&#45;&gt;Node20</title>
<g id="a_edge60_Node000023_Node000020"><a xlink:title=" ">
<path fill="none" stroke="#63b8ff" d="M612.26,-329.74C618.84,-304.2 638.1,-229.43 647.17,-194.23"/>
<polygon fill="#63b8ff" stroke="#63b8ff" points="650.62,-194.86 649.73,-184.31 643.85,-193.12 650.62,-194.86"/>
</a>
</g>
</g>
</g>
</svg>

<g id="navigator" transform="translate(0 0)" fill="#404254">
  <rect fill="#f2f5e9" fill-opacity="0.5" stroke="#606060" stroke-width=".5" x="0" y="0" width="60" height="60"/>
  <use id="zoomplus" xlink:href="#zoomPlus" x="17" y="9" onmousedown="handleZoom(evt,'in')"/>
  <use id="zoomminus" xlink:href="#zoomMin" x="42" y="9" onmousedown="handleZoom(evt,'out')"/>
  <use id="reset" xlink:href="#resetDef" x="30" y="36" onmousedown="handleReset()"/>
   <use id="arrowup" xlink:href="#arrowUp" x="0" y="0" onmousedown="handlePan(0,-1)"/>
  <use id="arrowright" xlink:href="#arrowRight" x="0" y="0" onmousedown="handlePan(1,0)"/>
  <use id="arrowdown" xlink:href="#arrowDown" x="0" y="0" onmousedown="handlePan(0,1)"/>
  <use id="arrowleft" xlink:href="#arrowLeft" x="0" y="0" onmousedown="handlePan(-1,0)"/>
</g>
<svg viewBox="0 0 15 15" width="100%" height="30px" preserveAspectRatio="xMaxYMin meet">
 <g id="arrow_out" transform="scale(0.3 0.3)">
  <a xlink:href="simulatorDriver_8cpp__incl_org.svg" target="_base">
   <rect id="button" ry="5" rx="5" y="6" x="6" height="38" width="38"
        fill="#f2f5e9" fill-opacity="0.5" stroke="#606060" stroke-width="1.0"/>
   <path id="arrow"
     d="M 11.500037,31.436501 C 11.940474,20.09759 22.043105,11.32322 32.158766,21.979434 L 37.068811,17.246167 C 37.068811,17.246167 37.088388,32 37.088388,32 L 22.160133,31.978069 C 22.160133,31.978069 26.997745,27.140456 26.997745,27.140456 C 18.528582,18.264221 13.291696,25.230495 11.500037,31.436501 z"
     style="fill:#404040;"/>
  </a>
 </g>
</svg>

<style type='text/css'>
<![CDATA[
[data-mouse-over-selected='false'] { opacity: 0.7; }
[data-mouse-over-selected='true']  { opacity: 1.0; }
]]>
</style>
<script type="application/ecmascript"><![CDATA[
document.addEventListener('DOMContentLoaded', (event) => {
  highlightEdges();
  highlightAdjacentNodes();
});
]]></script>
</svg>
