<?xml version="1.0" encoding="UTF-8" standalone="no"?>
<!DOCTYPE svg PUBLIC "-//W3C//DTD SVG 1.1//EN"
 "http://www.w3.org/Graphics/SVG/1.1/DTD/svg11.dtd">
<!-- Generated by graphviz version 2.43.0 (0)
 -->
<!-- Title: src/Drivers/simulatorDriver.cpp Pages: 1 -->
<svg width="1139pt" height="412pt"
 viewBox="0.00 0.00 1139.26 412.00" xmlns="http://www.w3.org/2000/svg" xmlns:xlink="http://www.w3.org/1999/xlink">
<g id="graph0" class="graph" transform="scale(1 1) rotate(0) translate(4 408)">
<title>src/Drivers/simulatorDriver.cpp</title>
<!-- Node1 -->
<g id="Node000001" class="node">
<title>Node1</title>
<g id="a_Node000001"><a xlink:title=" ">
<polygon fill="#999999" stroke="#666666" points="793.35,-404 625.35,-404 625.35,-385 793.35,-385 793.35,-404"/>
<text text-anchor="middle" x="709.35" y="-392" font-family="Helvetica,sans-Serif" font-size="10.00">src/Drivers/simulatorDriver.cpp</text>
</a>
</g>
</g>
<!-- Node2 -->
<g id="Node000002" class="node">
<title>Node2</title>
<g id="a_Node000002"><a xlink:href="simulatorDriver_8h.html" target="_top" xlink:title=" ">
<polygon fill="white" stroke="#666666" points="779.35,-349 639.35,-349 639.35,-330 779.35,-330 779.35,-349"/>
<text text-anchor="middle" x="709.35" y="-337" font-family="Helvetica,sans-Serif" font-size="10.00">Drivers/simulatorDriver.h</text>
</a>
</g>
</g>
<!-- Node1&#45;&gt;Node2 -->
<g id="edge1_Node000001_Node000002" class="edge">
<title>Node1&#45;&gt;Node2</title>
<g id="a_edge1_Node000001_Node000002"><a xlink:title=" ">
<path fill="none" stroke="#63b8ff" d="M709.35,-384.75C709.35,-377.8 709.35,-367.85 709.35,-359.13"/>
<polygon fill="#63b8ff" stroke="#63b8ff" points="712.85,-359.09 709.35,-349.09 705.85,-359.09 712.85,-359.09"/>
</a>
</g>
</g>
<!-- Node3 -->
<g id="Node000003" class="node">
<title>Node3</title>
<g id="a_Node000003"><a xlink:title=" ">
<polygon fill="#e0e0e0" stroke="#999999" points="80.85,-74 35.85,-74 35.85,-55 80.85,-55 80.85,-74"/>
<text text-anchor="middle" x="58.35" y="-62" font-family="Helvetica,sans-Serif" font-size="10.00">utility</text>
</a>
</g>
</g>
<!-- Node2&#45;&gt;Node3 -->
<g id="edge2_Node000002_Node000003" class="edge">
<title>Node2&#45;&gt;Node3</title>
<g id="a_edge2_Node000002_Node000003"><a xlink:title=" ">
<path fill="none" stroke="#63b8ff" d="M639.06,-332.76C542.98,-322.97 366.8,-298.05 228.35,-239 155.89,-208.09 136.23,-192.32 89.35,-129 78.98,-115 70.58,-96.99 65.15,-83.72"/>
<polygon fill="#63b8ff" stroke="#63b8ff" points="68.36,-82.31 61.45,-74.27 61.84,-84.86 68.36,-82.31"/>
</a>
</g>
</g>
<!-- Node4 -->
<g id="Node000004" class="node">
<title>Node4</title>
<g id="a_Node000004"><a xlink:href="driverModel_8h.html" target="_top" xlink:title=" ">
<polygon fill="white" stroke="#666666" points="770.35,-294 648.35,-294 648.35,-275 770.35,-275 770.35,-294"/>
<text text-anchor="middle" x="709.35" y="-282" font-family="Helvetica,sans-Serif" font-size="10.00">Drivers/driverModel.h</text>
</a>
</g>
</g>
<!-- Node2&#45;&gt;Node4 -->
<g id="edge3_Node000002_Node000004" class="edge">
<title>Node2&#45;&gt;Node4</title>
<g id="a_edge3_Node000002_Node000004"><a xlink:title=" ">
<path fill="none" stroke="#63b8ff" d="M709.35,-329.75C709.35,-322.8 709.35,-312.85 709.35,-304.13"/>
<polygon fill="#63b8ff" stroke="#63b8ff" points="712.85,-304.09 709.35,-294.09 705.85,-304.09 712.85,-304.09"/>
</a>
</g>
</g>
<!-- Node21 -->
<g id="Node000021" class="node">
<title>Node21</title>
<g id="a_Node000021"><a xlink:href="simulator_8h.html" target="_top" xlink:title=" ">
<polygon fill="white" stroke="#666666" points="1102.35,-239 980.35,-239 980.35,-220 1102.35,-220 1102.35,-239"/>
<text text-anchor="middle" x="1041.35" y="-227" font-family="Helvetica,sans-Serif" font-size="10.00">Simulator/simulator.h</text>
</a>
</g>
</g>
<!-- Node2&#45;&gt;Node21 -->
<g id="edge47_Node000002_Node000021" class="edge">
<title>Node2&#45;&gt;Node21</title>
<g id="a_edge47_Node000002_Node000021"><a xlink:title=" ">
<path fill="none" stroke="#63b8ff" d="M735.68,-329.94C794.76,-310.72 937.98,-264.13 1005.28,-242.24"/>
<polygon fill="#63b8ff" stroke="#63b8ff" points="1006.59,-245.49 1015.02,-239.07 1004.43,-238.83 1006.59,-245.49"/>
</a>
</g>
</g>
<!-- Node4&#45;&gt;Node3 -->
<g id="edge8_Node000004_Node000003" class="edge">
<title>Node4&#45;&gt;Node3</title>
<g id="a_edge8_Node000004_Node000003"><a xlink:title=" ">
<path fill="none" stroke="#63b8ff" d="M648.08,-280.84C545.38,-275.77 343.2,-263.04 276.35,-239 193.42,-209.18 176.93,-187.88 111.35,-129 95.73,-114.97 80.66,-96.25 70.61,-82.77"/>
<polygon fill="#63b8ff" stroke="#63b8ff" points="73.23,-80.42 64.51,-74.4 67.57,-84.54 73.23,-80.42"/>
</a>
</g>
</g>
<!-- Node5 -->
<g id="Node000005" class="node">
<title>Node5</title>
<g id="a_Node000005"><a xlink:title=" ">
<polygon fill="#e0e0e0" stroke="#999999" points="868.35,-129 810.35,-129 810.35,-110 868.35,-110 868.35,-129"/>
<text text-anchor="middle" x="839.35" y="-117" font-family="Helvetica,sans-Serif" font-size="10.00">memory</text>
</a>
</g>
</g>
<!-- Node4&#45;&gt;Node5 -->
<g id="edge4_Node000004_Node000005" class="edge">
<title>Node4&#45;&gt;Node5</title>
<g id="a_edge4_Node000004_Node000005"><a xlink:title=" ">
<path fill="none" stroke="#63b8ff" d="M716.34,-274.74C737.06,-248.76 798.42,-171.83 825.84,-137.44"/>
<polygon fill="#63b8ff" stroke="#63b8ff" points="828.83,-139.31 832.33,-129.31 823.36,-134.94 828.83,-139.31"/>
</a>
</g>
</g>
<!-- Node6 -->
<g id="Node000006" class="node">
<title>Node6</title>
<g id="a_Node000006"><a xlink:title=" ">
<polygon fill="#e0e0e0" stroke="#999999" points="942.35,-129 886.35,-129 886.35,-110 942.35,-110 942.35,-129"/>
<text text-anchor="middle" x="914.35" y="-117" font-family="Helvetica,sans-Serif" font-size="10.00">optional</text>
</a>
</g>
</g>
<!-- Node4&#45;&gt;Node6 -->
<g id="edge5_Node000004_Node000006" class="edge">
<title>Node4&#45;&gt;Node6</title>
<g id="a_edge5_Node000004_Node000006"><a xlink:title=" ">
<path fill="none" stroke="#63b8ff" d="M720.97,-274.72C732.73,-265.8 751.39,-251.55 767.35,-239 813.85,-202.43 867.85,-158.53 895.66,-135.81"/>
<polygon fill="#63b8ff" stroke="#63b8ff" points="898.2,-138.25 903.73,-129.21 893.77,-132.83 898.2,-138.25"/>
</a>
</g>
</g>
<!-- Node7 -->
<g id="Node000007" class="node">
<title>Node7</title>
<g id="a_Node000007"><a xlink:title=" ">
<polygon fill="#e0e0e0" stroke="#999999" points="334.35,-19 290.35,-19 290.35,0 334.35,0 334.35,-19"/>
<text text-anchor="middle" x="312.35" y="-7" font-family="Helvetica,sans-Serif" font-size="10.00">string</text>
</a>
</g>
</g>
<!-- Node4&#45;&gt;Node7 -->
<g id="edge6_Node000004_Node000007" class="edge">
<title>Node4&#45;&gt;Node7</title>
<g id="a_edge6_Node000004_Node000007"><a xlink:title=" ">
<path fill="none" stroke="#63b8ff" d="M648.27,-280.71C536.99,-275.15 305.61,-261.27 228.35,-239 124.46,-209.04 67.95,-221.14 11.35,-129 3.36,-115.98 -9.31,-79.66 12.35,-55 47.06,-15.5 210.25,-10.55 280.29,-10.28"/>
<polygon fill="#63b8ff" stroke="#63b8ff" points="280.31,-13.78 290.31,-10.27 280.31,-6.78 280.31,-13.78"/>
</a>
</g>
</g>
<!-- Node8 -->
<g id="Node000008" class="node">
<title>Node8</title>
<g id="a_Node000008"><a xlink:title=" ">
<polygon fill="#e0e0e0" stroke="#999999" points="1092.85,-19 999.85,-19 999.85,0 1092.85,0 1092.85,-19"/>
<text text-anchor="middle" x="1046.35" y="-7" font-family="Helvetica,sans-Serif" font-size="10.00">unordered_map</text>
</a>
</g>
</g>
<!-- Node4&#45;&gt;Node8 -->
<g id="edge7_Node000004_Node000008" class="edge">
<title>Node4&#45;&gt;Node8</title>
<g id="a_edge7_Node000004_Node000008"><a xlink:title=" ">
<path fill="none" stroke="#63b8ff" d="M770.63,-280.41C876.71,-274.53 1085.74,-260.36 1111.35,-239 1133.98,-220.13 1130.35,-204.96 1130.35,-175.5 1130.35,-175.5 1130.35,-175.5 1130.35,-118.5 1130.35,-77.92 1092.94,-43.4 1068.05,-24.93"/>
<polygon fill="#63b8ff" stroke="#63b8ff" points="1070.02,-22.03 1059.85,-19.08 1065.96,-27.73 1070.02,-22.03"/>
</a>
</g>
</g>
<!-- Node9 -->
<g id="Node000009" class="node">
<title>Node9</title>
<g id="a_Node000009"><a xlink:title=" ">
<polygon fill="#e0e0e0" stroke="#999999" points="498.85,-74 433.85,-74 433.85,-55 498.85,-55 498.85,-74"/>
<text text-anchor="middle" x="466.35" y="-62" font-family="Helvetica,sans-Serif" font-size="10.00">functional</text>
</a>
</g>
</g>
<!-- Node4&#45;&gt;Node9 -->
<g id="edge9_Node000004_Node000009" class="edge">
<title>Node4&#45;&gt;Node9</title>
<g id="a_edge9_Node000004_Node000009"><a xlink:title=" ">
<path fill="none" stroke="#63b8ff" d="M656.97,-274.99C604.96,-263.65 527.13,-238.29 485.35,-184 462.87,-154.79 462.39,-109.36 464.24,-84.08"/>
<polygon fill="#63b8ff" stroke="#63b8ff" points="467.73,-84.29 465.18,-74.01 460.76,-83.64 467.73,-84.29"/>
</a>
</g>
</g>
<!-- Node10 -->
<g id="Node000010" class="node">
<title>Node10</title>
<g id="a_Node000010"><a xlink:href="channel_8h.html" target="_top" xlink:title=" ">
<polygon fill="white" stroke="#666666" points="392.85,-239 285.85,-239 285.85,-220 392.85,-220 392.85,-239"/>
<text text-anchor="middle" x="339.35" y="-227" font-family="Helvetica,sans-Serif" font-size="10.00">Channel/channel.h</text>
</a>
</g>
</g>
<!-- Node4&#45;&gt;Node10 -->
<g id="edge10_Node000004_Node000010" class="edge">
<title>Node4&#45;&gt;Node10</title>
<g id="a_edge10_Node000004_Node000010"><a xlink:title=" ">
<path fill="none" stroke="#63b8ff" d="M649.91,-274.98C582.25,-265.29 472.17,-249.52 402.86,-239.6"/>
<polygon fill="#63b8ff" stroke="#63b8ff" points="403.34,-236.13 392.94,-238.18 402.34,-243.06 403.34,-236.13"/>
</a>
</g>
</g>
<!-- Node15 -->
<g id="Node000015" class="node">
<title>Node15</title>
<g id="a_Node000015"><a xlink:href="types_8h.html" target="_top" xlink:title=" ">
<polygon fill="white" stroke="#666666" points="818.85,-74 729.85,-74 729.85,-55 818.85,-55 818.85,-74"/>
<text text-anchor="middle" x="774.35" y="-62" font-family="Helvetica,sans-Serif" font-size="10.00">Library/types.h</text>
</a>
</g>
</g>
<!-- Node4&#45;&gt;Node15 -->
<g id="edge45_Node000004_Node000015" class="edge">
<title>Node4&#45;&gt;Node15</title>
<g id="a_edge45_Node000004_Node000015"><a xlink:title=" ">
<path fill="none" stroke="#63b8ff" d="M739.71,-275C794.26,-257.86 907.28,-213.39 951.35,-129 977.07,-79.76 890.4,-67.92 829.39,-65.52"/>
<polygon fill="#63b8ff" stroke="#63b8ff" points="829.19,-62.01 819.08,-65.19 828.97,-69.01 829.19,-62.01"/>
</a>
</g>
</g>
<!-- Node16 -->
<g id="Node000016" class="node">
<title>Node16</title>
<g id="a_Node000016"><a xlink:href="transaction_8h_source.html" target="_top" xlink:title=" ">
<polygon fill="white" stroke="#666666" points="633.85,-184 494.85,-184 494.85,-165 633.85,-165 633.85,-184"/>
<text text-anchor="middle" x="564.35" y="-172" font-family="Helvetica,sans-Serif" font-size="10.00">Transaction/transaction.h</text>
</a>
</g>
</g>
<!-- Node4&#45;&gt;Node16 -->
<g id="edge44_Node000004_Node000016" class="edge">
<title>Node4&#45;&gt;Node16</title>
<g id="a_edge44_Node000004_Node000016"><a xlink:title=" ">
<path fill="none" stroke="#63b8ff" d="M697.49,-274.66C672.62,-256.14 614.8,-213.08 584.19,-190.28"/>
<polygon fill="#63b8ff" stroke="#63b8ff" points="586.09,-187.32 575.98,-184.16 581.91,-192.94 586.09,-187.32"/>
</a>
</g>
</g>
<!-- Node18 -->
<g id="Node000018" class="node">
<title>Node18</title>
<g id="a_Node000018"><a xlink:href="error_8h.html" target="_top" xlink:title=" ">
<polygon fill="white" stroke="#666666" points="715.85,-129 630.85,-129 630.85,-110 715.85,-110 715.85,-129"/>
<text text-anchor="middle" x="673.35" y="-117" font-family="Helvetica,sans-Serif" font-size="10.00">Library/error.h</text>
</a>
</g>
</g>
<!-- Node4&#45;&gt;Node18 -->
<g id="edge46_Node000004_Node000018" class="edge">
<title>Node4&#45;&gt;Node18</title>
<g id="a_edge46_Node000004_Node000018"><a xlink:title=" ">
<path fill="none" stroke="#63b8ff" d="M707.42,-274.74C701.78,-249.2 685.26,-174.43 677.49,-139.23"/>
<polygon fill="#63b8ff" stroke="#63b8ff" points="680.87,-138.32 675.3,-129.31 674.04,-139.83 680.87,-138.32"/>
</a>
</g>
</g>
<!-- Node10&#45;&gt;Node3 -->
<g id="edge16_Node000010_Node000003" class="edge">
<title>Node10&#45;&gt;Node3</title>
<g id="a_edge16_Node000010_Node000003"><a xlink:title=" ">
<path fill="none" stroke="#63b8ff" d="M319.43,-219.88C283.14,-203.86 204.29,-167.62 142.35,-129 118.44,-114.09 92.87,-94.12 76.31,-80.58"/>
<polygon fill="#63b8ff" stroke="#63b8ff" points="78.47,-77.82 68.53,-74.15 74.01,-83.22 78.47,-77.82"/>
</a>
</g>
</g>
<!-- Node10&#45;&gt;Node5 -->
<g id="edge11_Node000010_Node000005" class="edge">
<title>Node10&#45;&gt;Node5</title>
<g id="a_edge11_Node000010_Node000005"><a xlink:title=" ">
<path fill="none" stroke="#63b8ff" d="M393.14,-225.48C486.83,-219.74 675.93,-205.81 738.35,-184 770.06,-172.92 802.13,-150.4 821.37,-135.37"/>
<polygon fill="#63b8ff" stroke="#63b8ff" points="823.64,-138.04 829.26,-129.07 819.27,-132.58 823.64,-138.04"/>
</a>
</g>
</g>
<!-- Node10&#45;&gt;Node7 -->
<g id="edge12_Node000010_Node000007" class="edge">
<title>Node10&#45;&gt;Node7</title>
<g id="a_edge12_Node000010_Node000007"><a xlink:title=" ">
<path fill="none" stroke="#63b8ff" d="M285.7,-220.13C176.75,-200.99 -53.57,-148.32 26.35,-55 58.7,-17.23 211.97,-11.26 279.86,-10.5"/>
<polygon fill="#63b8ff" stroke="#63b8ff" points="280.02,-14 289.99,-10.42 279.96,-7 280.02,-14"/>
</a>
</g>
</g>
<!-- Node10&#45;&gt;Node8 -->
<g id="edge14_Node000010_Node000008" class="edge">
<title>Node10&#45;&gt;Node8</title>
<g id="a_edge14_Node000010_Node000008"><a xlink:title=" ">
<path fill="none" stroke="#63b8ff" d="M393.12,-225.52C525.01,-217.31 860.41,-190.76 951.35,-129 990.83,-102.19 1021.97,-54.06 1036.83,-28.16"/>
<polygon fill="#63b8ff" stroke="#63b8ff" points="1040.06,-29.56 1041.87,-19.12 1033.94,-26.15 1040.06,-29.56"/>
</a>
</g>
</g>
<!-- Node11 -->
<g id="Node000011" class="node">
<title>Node11</title>
<g id="a_Node000011"><a xlink:title=" ">
<polygon fill="#e0e0e0" stroke="#999999" points="244.85,-74 203.85,-74 203.85,-55 244.85,-55 244.85,-74"/>
<text text-anchor="middle" x="224.35" y="-62" font-family="Helvetica,sans-Serif" font-size="10.00">tuple</text>
</a>
</g>
</g>
<!-- Node10&#45;&gt;Node11 -->
<g id="edge13_Node000010_Node000011" class="edge">
<title>Node10&#45;&gt;Node11</title>
<g id="a_edge13_Node000010_Node000011"><a xlink:title=" ">
<path fill="none" stroke="#63b8ff" d="M330.09,-219.78C321.17,-211.15 307.57,-197.32 297.35,-184 271.49,-150.28 246.71,-106.96 233.73,-83.15"/>
<polygon fill="#63b8ff" stroke="#63b8ff" points="236.74,-81.37 228.92,-74.22 230.58,-84.69 236.74,-81.37"/>
</a>
</g>
</g>
<!-- Node12 -->
<g id="Node000012" class="node">
<title>Node12</title>
<g id="a_Node000012"><a xlink:title=" ">
<polygon fill="#e0e0e0" stroke="#999999" points="339.35,-74 301.35,-74 301.35,-55 339.35,-55 339.35,-74"/>
<text text-anchor="middle" x="320.35" y="-62" font-family="Helvetica,sans-Serif" font-size="10.00">map</text>
</a>
</g>
</g>
<!-- Node10&#45;&gt;Node12 -->
<g id="edge15_Node000010_Node000012" class="edge">
<title>Node10&#45;&gt;Node12</title>
<g id="a_edge15_Node000010_Node000012"><a xlink:title=" ">
<path fill="none" stroke="#63b8ff" d="M331.51,-219.99C324.13,-211.51 313.35,-197.79 307.35,-184 297.41,-161.14 298.81,-153.81 296.35,-129 295.52,-120.6 294.29,-118.19 296.35,-110 298.77,-100.44 303.68,-90.7 308.44,-82.78"/>
<polygon fill="#63b8ff" stroke="#63b8ff" points="311.52,-84.46 313.99,-74.16 305.63,-80.68 311.52,-84.46"/>
</a>
</g>
</g>
<!-- Node13 -->
<g id="Node000013" class="node">
<title>Node13</title>
<g id="a_Node000013"><a xlink:title=" ">
<polygon fill="#e0e0e0" stroke="#999999" points="482.85,-19 435.85,-19 435.85,0 482.85,0 482.85,-19"/>
<text text-anchor="middle" x="459.35" y="-7" font-family="Helvetica,sans-Serif" font-size="10.00">vector</text>
</a>
</g>
</g>
<!-- Node10&#45;&gt;Node13 -->
<g id="edge17_Node000010_Node000013" class="edge">
<title>Node10&#45;&gt;Node13</title>
<g id="a_edge17_Node000010_Node000013"><a xlink:title=" ">
<path fill="none" stroke="#63b8ff" d="M331.51,-219.99C324.13,-211.51 313.35,-197.79 307.35,-184 284.32,-131.07 257.18,-100.77 292.35,-55 308.47,-34.02 381.64,-20.83 425.6,-14.65"/>
<polygon fill="#63b8ff" stroke="#63b8ff" points="426.13,-18.11 435.57,-13.3 425.19,-11.17 426.13,-18.11"/>
</a>
</g>
</g>
<!-- Node14 -->
<g id="Node000014" class="node">
<title>Node14</title>
<g id="a_Node000014"><a xlink:title=" ">
<polygon fill="#e0e0e0" stroke="#999999" points="362.35,-184 316.35,-184 316.35,-165 362.35,-165 362.35,-184"/>
<text text-anchor="middle" x="339.35" y="-172" font-family="Helvetica,sans-Serif" font-size="10.00">future</text>
</a>
</g>
</g>
<!-- Node10&#45;&gt;Node14 -->
<g id="edge18_Node000010_Node000014" class="edge">
<title>Node10&#45;&gt;Node14</title>
<g id="a_edge18_Node000010_Node000014"><a xlink:title=" ">
<path fill="none" stroke="#63b8ff" d="M339.35,-219.75C339.35,-212.8 339.35,-202.85 339.35,-194.13"/>
<polygon fill="#63b8ff" stroke="#63b8ff" points="342.85,-194.09 339.35,-184.09 335.85,-194.09 342.85,-194.09"/>
</a>
</g>
</g>
<!-- Node10&#45;&gt;Node15 -->
<g id="edge19_Node000010_Node000015" class="edge">
<title>Node10&#45;&gt;Node15</title>
<g id="a_edge19_Node000010_Node000015"><a xlink:title=" ">
<path fill="none" stroke="#63b8ff" d="M393.12,-225.99C454.66,-221.9 557.85,-211.27 642.35,-184 692.86,-167.7 712.55,-168.18 748.35,-129 759.89,-116.37 766.67,-97.93 770.39,-84.17"/>
<polygon fill="#63b8ff" stroke="#63b8ff" points="773.82,-84.88 772.76,-74.34 767.01,-83.24 773.82,-84.88"/>
</a>
</g>
</g>
<!-- Node10&#45;&gt;Node16 -->
<g id="edge23_Node000010_Node000016" class="edge">
<title>Node10&#45;&gt;Node16</title>
<g id="a_edge23_Node000010_Node000016"><a xlink:title=" ">
<path fill="none" stroke="#63b8ff" d="M375.5,-219.98C414.26,-210.86 475.9,-196.33 518.15,-186.38"/>
<polygon fill="#63b8ff" stroke="#63b8ff" points="518.99,-189.78 527.92,-184.08 517.38,-182.97 518.99,-189.78"/>
</a>
</g>
</g>
<!-- Node15&#45;&gt;Node7 -->
<g id="edge22_Node000015_Node000007" class="edge">
<title>Node15&#45;&gt;Node7</title>
<g id="a_edge22_Node000015_Node000007"><a xlink:title=" ">
<path fill="none" stroke="#63b8ff" d="M729.67,-57.24C723.85,-56.46 717.96,-55.7 712.35,-55 575.78,-38.04 412.58,-20.84 344.57,-13.8"/>
<polygon fill="#63b8ff" stroke="#63b8ff" points="344.8,-10.31 334.49,-12.76 344.08,-17.27 344.8,-10.31"/>
</a>
</g>
</g>
<!-- Node15&#45;&gt;Node8 -->
<g id="edge21_Node000015_Node000008" class="edge">
<title>Node15&#45;&gt;Node8</title>
<g id="a_edge21_Node000015_Node000008"><a xlink:title=" ">
<path fill="none" stroke="#63b8ff" d="M818.05,-54.98C865.5,-45.74 941.32,-30.97 992.43,-21.01"/>
<polygon fill="#63b8ff" stroke="#63b8ff" points="993.16,-24.43 1002.31,-19.08 991.82,-17.56 993.16,-24.43"/>
</a>
</g>
</g>
<!-- Node15&#45;&gt;Node13 -->
<g id="edge20_Node000015_Node000013" class="edge">
<title>Node15&#45;&gt;Node13</title>
<g id="a_edge20_Node000015_Node000013"><a xlink:title=" ">
<path fill="none" stroke="#63b8ff" d="M729.56,-55.96C665.75,-45.23 550.14,-25.77 493.07,-16.17"/>
<polygon fill="#63b8ff" stroke="#63b8ff" points="493.57,-12.71 483.12,-14.5 492.4,-19.61 493.57,-12.71"/>
</a>
</g>
</g>
<!-- Node16&#45;&gt;Node3 -->
<g id="edge25_Node000016_Node000003" class="edge">
<title>Node16&#45;&gt;Node3</title>
<g id="a_edge25_Node000016_Node000003"><a xlink:title=" ">
<path fill="none" stroke="#63b8ff" d="M494.59,-171.49C419.62,-167.86 297.6,-157.65 196.35,-129 154.32,-117.1 108.9,-94.01 82.08,-79.2"/>
<polygon fill="#63b8ff" stroke="#63b8ff" points="83.51,-75.99 73.08,-74.15 80.09,-82.1 83.51,-75.99"/>
</a>
</g>
</g>
<!-- Node16&#45;&gt;Node5 -->
<g id="edge27_Node000016_Node000005" class="edge">
<title>Node16&#45;&gt;Node5</title>
<g id="a_edge27_Node000016_Node000005"><a xlink:title=" ">
<path fill="none" stroke="#63b8ff" d="M608.54,-164.98C661.52,-154.77 749.5,-137.82 800.16,-128.05"/>
<polygon fill="#63b8ff" stroke="#63b8ff" points="800.92,-131.47 810.08,-126.14 799.59,-124.6 800.92,-131.47"/>
</a>
</g>
</g>
<!-- Node16&#45;&gt;Node6 -->
<g id="edge30_Node000016_Node000006" class="edge">
<title>Node16&#45;&gt;Node6</title>
<g id="a_edge30_Node000016_Node000006"><a xlink:title=" ">
<path fill="none" stroke="#63b8ff" d="M633.94,-165.32C695.25,-157.72 787.18,-145.38 876.13,-129.09"/>
<polygon fill="#63b8ff" stroke="#63b8ff" points="876.93,-132.51 886.12,-127.24 875.65,-125.62 876.93,-132.51"/>
</a>
</g>
</g>
<!-- Node16&#45;&gt;Node7 -->
<g id="edge24_Node000016_Node000007" class="edge">
<title>Node16&#45;&gt;Node7</title>
<g id="a_edge24_Node000016_Node000007"><a xlink:title=" ">
<path fill="none" stroke="#63b8ff" d="M494.8,-168.28C439.78,-162.66 361.62,-151.32 296.35,-129 247.62,-112.33 220.75,-118.22 194.35,-74 173.14,-38.46 238.41,-21.65 280.2,-14.7"/>
<polygon fill="#63b8ff" stroke="#63b8ff" points="280.9,-18.13 290.25,-13.14 279.83,-11.21 280.9,-18.13"/>
</a>
</g>
</g>
<!-- Node16&#45;&gt;Node9 -->
<g id="edge31_Node000016_Node000009" class="edge">
<title>Node16&#45;&gt;Node9</title>
<g id="a_edge31_Node000016_Node000009"><a xlink:title=" ">
<path fill="none" stroke="#63b8ff" d="M563.79,-164.75C562.52,-151.55 558.43,-126.36 545.35,-110 533.96,-95.74 516.68,-85.27 501.19,-78.08"/>
<polygon fill="#63b8ff" stroke="#63b8ff" points="502.41,-74.8 491.84,-74.03 499.62,-81.22 502.41,-74.8"/>
</a>
</g>
</g>
<!-- Node16&#45;&gt;Node12 -->
<g id="edge29_Node000016_Node000012" class="edge">
<title>Node16&#45;&gt;Node12</title>
<g id="a_edge29_Node000016_Node000012"><a xlink:title=" ">
<path fill="none" stroke="#63b8ff" d="M494.55,-171.32C426.26,-167.54 329.13,-157.21 305.35,-129 294.56,-116.19 301.24,-96.99 308.81,-83.06"/>
<polygon fill="#63b8ff" stroke="#63b8ff" points="311.86,-84.78 313.99,-74.4 305.85,-81.19 311.86,-84.78"/>
</a>
</g>
</g>
<!-- Node16&#45;&gt;Node13 -->
<g id="edge26_Node000016_Node000013" class="edge">
<title>Node16&#45;&gt;Node13</title>
<g id="a_edge26_Node000016_Node000013"><a xlink:title=" ">
<path fill="none" stroke="#63b8ff" d="M566.64,-164.85C569.51,-152.22 573.19,-128.23 565.35,-110 548.77,-71.42 508.97,-40.96 483.13,-24.36"/>
<polygon fill="#63b8ff" stroke="#63b8ff" points="484.98,-21.39 474.64,-19.08 481.28,-27.33 484.98,-21.39"/>
</a>
</g>
</g>
<!-- Node16&#45;&gt;Node15 -->
<g id="edge32_Node000016_Node000015" class="edge">
<title>Node16&#45;&gt;Node15</title>
<g id="a_edge32_Node000016_Node000015"><a xlink:title=" ">
<path fill="none" stroke="#63b8ff" d="M629.81,-164.93C660.44,-158.6 696.28,-147.7 724.35,-129 741.81,-117.37 755.93,-97.67 764.66,-83.29"/>
<polygon fill="#63b8ff" stroke="#63b8ff" points="767.85,-84.76 769.81,-74.35 761.79,-81.26 767.85,-84.76"/>
</a>
</g>
</g>
<!-- Node17 -->
<g id="Node000017" class="node">
<title>Node17</title>
<g id="a_Node000017"><a xlink:title=" ">
<polygon fill="#e0e0e0" stroke="#999999" points="536.35,-129 488.35,-129 488.35,-110 536.35,-110 536.35,-129"/>
<text text-anchor="middle" x="512.35" y="-117" font-family="Helvetica,sans-Serif" font-size="10.00">mutex</text>
</a>
</g>
</g>
<!-- Node16&#45;&gt;Node17 -->
<g id="edge28_Node000016_Node000017" class="edge">
<title>Node16&#45;&gt;Node17</title>
<g id="a_edge28_Node000016_Node000017"><a xlink:title=" ">
<path fill="none" stroke="#63b8ff" d="M555.77,-164.75C548.19,-157.03 536.97,-145.6 527.84,-136.28"/>
<polygon fill="#63b8ff" stroke="#63b8ff" points="530.28,-133.78 520.78,-129.09 525.28,-138.68 530.28,-133.78"/>
</a>
</g>
</g>
<!-- Node16&#45;&gt;Node18 -->
<g id="edge33_Node000016_Node000018" class="edge">
<title>Node16&#45;&gt;Node18</title>
<g id="a_edge33_Node000016_Node000018"><a xlink:title=" ">
<path fill="none" stroke="#63b8ff" d="M581.87,-164.98C599.32,-156.5 626.36,-143.35 646.52,-133.54"/>
<polygon fill="#63b8ff" stroke="#63b8ff" points="648.06,-136.69 655.52,-129.17 645,-130.4 648.06,-136.69"/>
</a>
</g>
</g>
<!-- Node20 -->
<g id="Node000020" class="node">
<title>Node20</title>
<g id="a_Node000020"><a xlink:href="evaluate_8h.html" target="_top" xlink:title=" ">
<polygon fill="white" stroke="#666666" points="432.35,-129 314.35,-129 314.35,-110 432.35,-110 432.35,-129"/>
<text text-anchor="middle" x="373.35" y="-117" font-family="Helvetica,sans-Serif" font-size="10.00">Evaluator/evaluate.h</text>
</a>
</g>
</g>
<!-- Node16&#45;&gt;Node20 -->
<g id="edge36_Node000016_Node000020" class="edge">
<title>Node16&#45;&gt;Node20</title>
<g id="a_edge36_Node000016_Node000020"><a xlink:title=" ">
<path fill="none" stroke="#63b8ff" d="M533.67,-164.98C501.18,-155.97 449.76,-141.7 413.94,-131.76"/>
<polygon fill="#63b8ff" stroke="#63b8ff" points="414.85,-128.38 404.28,-129.08 412.98,-135.13 414.85,-128.38"/>
</a>
</g>
</g>
<!-- Node18&#45;&gt;Node7 -->
<g id="edge34_Node000018_Node000007" class="edge">
<title>Node18&#45;&gt;Node7</title>
<g id="a_edge34_Node000018_Node000007"><a xlink:title=" ">
<path fill="none" stroke="#63b8ff" d="M653.74,-109.96C622.99,-96.81 561.38,-71.41 507.35,-55 451.02,-37.89 383.76,-23.92 344.77,-16.44"/>
<polygon fill="#63b8ff" stroke="#63b8ff" points="345.03,-12.93 334.55,-14.51 343.72,-19.81 345.03,-12.93"/>
</a>
</g>
</g>
<!-- Node19 -->
<g id="Node000019" class="node">
<title>Node19</title>
<g id="a_Node000019"><a xlink:title=" ">
<polygon fill="#e0e0e0" stroke="#999999" points="703.35,-74 643.35,-74 643.35,-55 703.35,-55 703.35,-74"/>
<text text-anchor="middle" x="673.35" y="-62" font-family="Helvetica,sans-Serif" font-size="10.00">iostream</text>
</a>
</g>
</g>
<!-- Node18&#45;&gt;Node19 -->
<g id="edge35_Node000018_Node000019" class="edge">
<title>Node18&#45;&gt;Node19</title>
<g id="a_edge35_Node000018_Node000019"><a xlink:title=" ">
<path fill="none" stroke="#63b8ff" d="M673.35,-109.75C673.35,-102.8 673.35,-92.85 673.35,-84.13"/>
<polygon fill="#63b8ff" stroke="#63b8ff" points="676.85,-84.09 673.35,-74.09 669.85,-84.09 676.85,-84.09"/>
</a>
</g>
</g>
<!-- Node20&#45;&gt;Node3 -->
<g id="edge37_Node000020_Node000003" class="edge">
<title>Node20&#45;&gt;Node3</title>
<g id="a_edge37_Node000020_Node000003"><a xlink:title=" ">
<path fill="none" stroke="#63b8ff" d="M322.74,-109.98C257.55,-99.02 146.11,-80.26 91.07,-71.01"/>
<polygon fill="#63b8ff" stroke="#63b8ff" points="91.61,-67.55 81.16,-69.34 90.44,-74.45 91.61,-67.55"/>
</a>
</g>
</g>
<!-- Node20&#45;&gt;Node7 -->
<g id="edge39_Node000020_Node000007" class="edge">
<title>Node20&#45;&gt;Node7</title>
<g id="a_edge39_Node000020_Node000007"><a xlink:title=" ">
<path fill="none" stroke="#63b8ff" d="M370.89,-109.91C367.09,-97.33 359.09,-73.43 348.35,-55 342.49,-44.93 334.44,-34.75 327.44,-26.67"/>
<polygon fill="#63b8ff" stroke="#63b8ff" points="329.94,-24.22 320.66,-19.11 324.73,-28.89 329.94,-24.22"/>
</a>
</g>
</g>
<!-- Node20&#45;&gt;Node9 -->
<g id="edge40_Node000020_Node000009" class="edge">
<title>Node20&#45;&gt;Node9</title>
<g id="a_edge40_Node000020_Node000009"><a xlink:title=" ">
<path fill="none" stroke="#63b8ff" d="M388.29,-109.98C402.85,-101.69 425.22,-88.94 442.29,-79.22"/>
<polygon fill="#63b8ff" stroke="#63b8ff" points="444.18,-82.16 451.14,-74.17 440.72,-76.08 444.18,-82.16"/>
</a>
</g>
</g>
<!-- Node20&#45;&gt;Node11 -->
<g id="edge41_Node000020_Node000011" class="edge">
<title>Node20&#45;&gt;Node11</title>
<g id="a_edge41_Node000020_Node000011"><a xlink:title=" ">
<path fill="none" stroke="#63b8ff" d="M349.41,-109.98C323.62,-100.81 282.53,-86.19 254.54,-76.24"/>
<polygon fill="#63b8ff" stroke="#63b8ff" points="255.47,-72.85 244.87,-72.8 253.12,-79.45 255.47,-72.85"/>
</a>
</g>
</g>
<!-- Node20&#45;&gt;Node12 -->
<g id="edge42_Node000020_Node000012" class="edge">
<title>Node20&#45;&gt;Node12</title>
<g id="a_edge42_Node000020_Node000012"><a xlink:title=" ">
<path fill="none" stroke="#63b8ff" d="M364.6,-109.75C356.88,-102.03 345.45,-90.6 336.14,-81.28"/>
<polygon fill="#63b8ff" stroke="#63b8ff" points="338.49,-78.69 328.94,-74.09 333.54,-83.64 338.49,-78.69"/>
</a>
</g>
</g>
<!-- Node20&#45;&gt;Node13 -->
<g id="edge38_Node000020_Node000013" class="edge">
<title>Node20&#45;&gt;Node13</title>
<g id="a_edge38_Node000020_Node000013"><a xlink:title=" ">
<path fill="none" stroke="#63b8ff" d="M380.39,-109.66C394.76,-91.61 427.68,-50.28 446.15,-27.08"/>
<polygon fill="#63b8ff" stroke="#63b8ff" points="448.97,-29.16 452.46,-19.16 443.49,-24.8 448.97,-29.16"/>
</a>
</g>
</g>
<!-- Node20&#45;&gt;Node15 -->
<g id="edge43_Node000020_Node000015" class="edge">
<title>Node20&#45;&gt;Node15</title>
<g id="a_edge43_Node000020_Node000015"><a xlink:title=" ">
<path fill="none" stroke="#63b8ff" d="M432.46,-110.84C500.12,-102.06 614.25,-87.16 712.35,-74 714.71,-73.68 717.13,-73.36 719.56,-73.03"/>
<polygon fill="#63b8ff" stroke="#63b8ff" points="720.22,-76.47 729.65,-71.66 719.27,-69.54 720.22,-76.47"/>
</a>
</g>
</g>
<!-- Node21&#45;&gt;Node15 -->
<g id="edge48_Node000021_Node000015" class="edge">
<title>Node21&#45;&gt;Node15</title>
<g id="a_edge48_Node000021_Node000015"><a xlink:title=" ">
<path fill="none" stroke="#63b8ff" d="M1039.85,-219.71C1035.57,-197.5 1021.16,-138.9 984.35,-110 960.67,-91.41 883.22,-78.56 829.31,-71.61"/>
<polygon fill="#63b8ff" stroke="#63b8ff" points="829.56,-68.11 819.2,-70.34 828.69,-75.06 829.56,-68.11"/>
</a>
</g>
</g>
</g>
</svg>
