<?xml version="1.0" encoding="UTF-8" standalone="no"?>
<!DOCTYPE svg PUBLIC "-//W3C//DTD SVG 1.1//EN"
 "http://www.w3.org/Graphics/SVG/1.1/DTD/svg11.dtd">
<!-- Generated by graphviz version 2.43.0 (0)
 -->
<!-- Title: src/Transaction/transaction.cpp Pages: 1 -->
<svg width="1138pt" height="302pt"
 viewBox="0.00 0.00 1137.50 302.00" xmlns="http://www.w3.org/2000/svg" xmlns:xlink="http://www.w3.org/1999/xlink">
<g id="graph0" class="graph" transform="scale(1 1) rotate(0) translate(4 298)">
<title>src/Transaction/transaction.cpp</title>
<!-- Node1 -->
<g id="Node000001" class="node">
<title>Node1</title>
<g id="a_Node000001"><a xlink:title=" ">
<polygon fill="#999999" stroke="#666666" points="818.5,-294 651.5,-294 651.5,-275 818.5,-275 818.5,-294"/>
<text text-anchor="middle" x="735" y="-282" font-family="Helvetica,sans-Serif" font-size="10.00">src/Transaction/transaction.cpp</text>
</a>
</g>
</g>
<!-- Node2 -->
<g id="Node000002" class="node">
<title>Node2</title>
<g id="a_Node000002"><a xlink:href="transaction_8h_source.html" target="_top" xlink:title=" ">
<polygon fill="white" stroke="#666666" points="599.5,-184 460.5,-184 460.5,-165 599.5,-165 599.5,-184"/>
<text text-anchor="middle" x="530" y="-172" font-family="Helvetica,sans-Serif" font-size="10.00">Transaction/transaction.h</text>
</a>
</g>
</g>
<!-- Node1&#45;&gt;Node2 -->
<g id="edge1_Node000001_Node000002" class="edge">
<title>Node1&#45;&gt;Node2</title>
<g id="a_edge1_Node000001_Node000002"><a xlink:title=" ">
<path fill="none" stroke="#63b8ff" d="M708.21,-274.9C684.82,-266.93 650.28,-254.07 622,-239 595.21,-224.72 566.82,-204.19 548.78,-190.37"/>
<polygon fill="#63b8ff" stroke="#63b8ff" points="550.85,-187.55 540.8,-184.19 546.56,-193.08 550.85,-187.55"/>
</a>
</g>
</g>
<!-- Node3 -->
<g id="Node000003" class="node">
<title>Node3</title>
<g id="a_Node000003"><a xlink:title=" ">
<polygon fill="#e0e0e0" stroke="#999999" points="172,-74 112,-74 112,-55 172,-55 172,-74"/>
<text text-anchor="middle" x="142" y="-62" font-family="Helvetica,sans-Serif" font-size="10.00">iostream</text>
</a>
</g>
</g>
<!-- Node1&#45;&gt;Node3 -->
<g id="edge28_Node000001_Node000003" class="edge">
<title>Node1&#45;&gt;Node3</title>
<g id="a_edge28_Node000001_Node000003"><a xlink:title=" ">
<path fill="none" stroke="#63b8ff" d="M651.24,-276.43C539.38,-263.4 339.29,-227.22 201,-129 182.68,-115.99 165.66,-96.56 154.66,-82.62"/>
<polygon fill="#63b8ff" stroke="#63b8ff" points="157.2,-80.18 148.34,-74.37 151.65,-84.44 157.2,-80.18"/>
</a>
</g>
</g>
<!-- Node5 -->
<g id="Node000005" class="node">
<title>Node5</title>
<g id="a_Node000005"><a xlink:title=" ">
<polygon fill="#e0e0e0" stroke="#999999" points="259,-19 215,-19 215,0 259,0 259,-19"/>
<text text-anchor="middle" x="237" y="-7" font-family="Helvetica,sans-Serif" font-size="10.00">string</text>
</a>
</g>
</g>
<!-- Node1&#45;&gt;Node5 -->
<g id="edge31_Node000001_Node000005" class="edge">
<title>Node1&#45;&gt;Node5</title>
<g id="a_edge31_Node000001_Node000005"><a xlink:title=" ">
<path fill="none" stroke="#63b8ff" d="M651.35,-282.44C504.01,-279.78 204.42,-270.54 105,-239 53.02,-222.51 0,-230.04 0,-175.5 0,-175.5 0,-175.5 0,-118.5 0,-29.62 139.72,-13.56 204.6,-10.89"/>
<polygon fill="#63b8ff" stroke="#63b8ff" points="204.82,-14.38 214.7,-10.56 204.59,-7.39 204.82,-14.38"/>
</a>
</g>
</g>
<!-- Node6 -->
<g id="Node000006" class="node">
<title>Node6</title>
<g id="a_Node000006"><a xlink:title=" ">
<polygon fill="#e0e0e0" stroke="#999999" points="693.5,-74 648.5,-74 648.5,-55 693.5,-55 693.5,-74"/>
<text text-anchor="middle" x="671" y="-62" font-family="Helvetica,sans-Serif" font-size="10.00">utility</text>
</a>
</g>
</g>
<!-- Node1&#45;&gt;Node6 -->
<g id="edge32_Node000001_Node000006" class="edge">
<title>Node1&#45;&gt;Node6</title>
<g id="a_edge32_Node000001_Node000006"><a xlink:title=" ">
<path fill="none" stroke="#63b8ff" d="M793.66,-274.94C815.04,-268.67 837.11,-257.81 850,-239 882.41,-191.71 885.31,-155.17 850,-110 832.21,-87.24 750.56,-74.46 703.92,-68.89"/>
<polygon fill="#63b8ff" stroke="#63b8ff" points="704.04,-65.38 693.71,-67.72 703.24,-72.34 704.04,-65.38"/>
</a>
</g>
</g>
<!-- Node7 -->
<g id="Node000007" class="node">
<title>Node7</title>
<g id="a_Node000007"><a xlink:title=" ">
<polygon fill="#e0e0e0" stroke="#999999" points="701.5,-19 654.5,-19 654.5,0 701.5,0 701.5,-19"/>
<text text-anchor="middle" x="678" y="-7" font-family="Helvetica,sans-Serif" font-size="10.00">vector</text>
</a>
</g>
</g>
<!-- Node1&#45;&gt;Node7 -->
<g id="edge33_Node000001_Node000007" class="edge">
<title>Node1&#45;&gt;Node7</title>
<g id="a_edge33_Node000001_Node000007"><a xlink:title=" ">
<path fill="none" stroke="#63b8ff" d="M785.25,-275C837.58,-262.93 912,-235.26 912,-175.5 912,-175.5 912,-175.5 912,-118.5 912,-31.4 776.7,-14.32 711.86,-11.13"/>
<polygon fill="#63b8ff" stroke="#63b8ff" points="711.86,-7.63 701.72,-10.72 711.57,-14.62 711.86,-7.63"/>
</a>
</g>
</g>
<!-- Node8 -->
<g id="Node000008" class="node">
<title>Node8</title>
<g id="a_Node000008"><a xlink:title=" ">
<polygon fill="#e0e0e0" stroke="#999999" points="808,-129 750,-129 750,-110 808,-110 808,-129"/>
<text text-anchor="middle" x="779" y="-117" font-family="Helvetica,sans-Serif" font-size="10.00">memory</text>
</a>
</g>
</g>
<!-- Node1&#45;&gt;Node8 -->
<g id="edge29_Node000001_Node000008" class="edge">
<title>Node1&#45;&gt;Node8</title>
<g id="a_edge29_Node000001_Node000008"><a xlink:title=" ">
<path fill="none" stroke="#63b8ff" d="M741.16,-274.74C746.95,-266.07 755.39,-252.22 760,-239 771.85,-205.02 776.36,-162.94 778.04,-139.17"/>
<polygon fill="#63b8ff" stroke="#63b8ff" points="781.54,-139.28 778.65,-129.08 774.55,-138.85 781.54,-139.28"/>
</a>
</g>
</g>
<!-- Node11 -->
<g id="Node000011" class="node">
<title>Node11</title>
<g id="a_Node000011"><a xlink:title=" ">
<polygon fill="#e0e0e0" stroke="#999999" points="330.5,-74 265.5,-74 265.5,-55 330.5,-55 330.5,-74"/>
<text text-anchor="middle" x="298" y="-62" font-family="Helvetica,sans-Serif" font-size="10.00">functional</text>
</a>
</g>
</g>
<!-- Node1&#45;&gt;Node11 -->
<g id="edge27_Node000001_Node000011" class="edge">
<title>Node1&#45;&gt;Node11</title>
<g id="a_edge27_Node000001_Node000011"><a xlink:title=" ">
<path fill="none" stroke="#63b8ff" d="M652.94,-274.99C559.11,-260.9 407.14,-224.05 319,-129 307.54,-116.64 302.32,-97.87 299.95,-83.94"/>
<polygon fill="#63b8ff" stroke="#63b8ff" points="303.42,-83.46 298.6,-74.03 296.49,-84.41 303.42,-83.46"/>
</a>
</g>
</g>
<!-- Node12 -->
<g id="Node000012" class="node">
<title>Node12</title>
<g id="a_Node000012"><a xlink:href="types_8h.html" target="_top" xlink:title=" ">
<polygon fill="white" stroke="#666666" points="591.5,-74 502.5,-74 502.5,-55 591.5,-55 591.5,-74"/>
<text text-anchor="middle" x="547" y="-62" font-family="Helvetica,sans-Serif" font-size="10.00">Library/types.h</text>
</a>
</g>
</g>
<!-- Node1&#45;&gt;Node12 -->
<g id="edge38_Node000001_Node000012" class="edge">
<title>Node1&#45;&gt;Node12</title>
<g id="a_edge38_Node000001_Node000012"><a xlink:title=" ">
<path fill="none" stroke="#63b8ff" d="M745.48,-274.66C776.48,-247.5 862.7,-163.85 817,-110 803.24,-93.78 676.61,-78.48 601.76,-70.75"/>
<polygon fill="#63b8ff" stroke="#63b8ff" points="601.86,-67.24 591.55,-69.71 601.15,-74.2 601.86,-67.24"/>
</a>
</g>
</g>
<!-- Node14 -->
<g id="Node000014" class="node">
<title>Node14</title>
<g id="a_Node000014"><a xlink:href="error_8h.html" target="_top" xlink:title=" ">
<polygon fill="white" stroke="#666666" points="113.5,-129 28.5,-129 28.5,-110 113.5,-110 113.5,-129"/>
<text text-anchor="middle" x="71" y="-117" font-family="Helvetica,sans-Serif" font-size="10.00">Library/error.h</text>
</a>
</g>
</g>
<!-- Node1&#45;&gt;Node14 -->
<g id="edge37_Node000001_Node000014" class="edge">
<title>Node1&#45;&gt;Node14</title>
<g id="a_edge37_Node000001_Node000014"><a xlink:title=" ">
<path fill="none" stroke="#63b8ff" d="M651.38,-281.98C495,-278.46 170.22,-267.75 128,-239 93.99,-215.84 79.61,-166.55 74.08,-139.4"/>
<polygon fill="#63b8ff" stroke="#63b8ff" points="77.47,-138.47 72.23,-129.27 70.59,-139.73 77.47,-138.47"/>
</a>
</g>
</g>
<!-- Node17 -->
<g id="Node000017" class="node">
<title>Node17</title>
<g id="a_Node000017"><a xlink:title=" ">
<polygon fill="#e0e0e0" stroke="#999999" points="1046,-239 940,-239 940,-220 1046,-220 1046,-239"/>
<text text-anchor="middle" x="993" y="-227" font-family="Helvetica,sans-Serif" font-size="10.00">bits/ranges_algo.h</text>
</a>
</g>
</g>
<!-- Node1&#45;&gt;Node17 -->
<g id="edge26_Node000001_Node000017" class="edge">
<title>Node1&#45;&gt;Node17</title>
<g id="a_edge26_Node000001_Node000017"><a xlink:title=" ">
<path fill="none" stroke="#63b8ff" d="M776.45,-274.98C821.27,-265.78 892.77,-251.09 941.25,-241.13"/>
<polygon fill="#63b8ff" stroke="#63b8ff" points="942.13,-244.52 951.22,-239.08 940.72,-237.67 942.13,-244.52"/>
</a>
</g>
</g>
<!-- Node18 -->
<g id="Node000018" class="node">
<title>Node18</title>
<g id="a_Node000018"><a xlink:title=" ">
<polygon fill="#e0e0e0" stroke="#999999" points="1129.5,-239 1064.5,-239 1064.5,-220 1129.5,-220 1129.5,-239"/>
<text text-anchor="middle" x="1097" y="-227" font-family="Helvetica,sans-Serif" font-size="10.00">stdexcept</text>
</a>
</g>
</g>
<!-- Node1&#45;&gt;Node18 -->
<g id="edge30_Node000001_Node000018" class="edge">
<title>Node1&#45;&gt;Node18</title>
<g id="a_edge30_Node000001_Node000018"><a xlink:title=" ">
<path fill="none" stroke="#63b8ff" d="M805.42,-274.97C868.1,-267.09 962.51,-254.52 1054.44,-239"/>
<polygon fill="#63b8ff" stroke="#63b8ff" points="1055.21,-242.42 1064.48,-237.29 1054.03,-235.51 1055.21,-242.42"/>
</a>
</g>
</g>
<!-- Node19 -->
<g id="Node000019" class="node">
<title>Node19</title>
<g id="a_Node000019"><a xlink:href="database_8h.html" target="_top" xlink:title=" ">
<polygon fill="white" stroke="#666666" points="751,-239 631,-239 631,-220 751,-220 751,-239"/>
<text text-anchor="middle" x="691" y="-227" font-family="Helvetica,sans-Serif" font-size="10.00">Database/database.h</text>
</a>
</g>
</g>
<!-- Node1&#45;&gt;Node19 -->
<g id="edge34_Node000001_Node000019" class="edge">
<title>Node1&#45;&gt;Node19</title>
<g id="a_edge34_Node000001_Node000019"><a xlink:title=" ">
<path fill="none" stroke="#63b8ff" d="M727.73,-274.75C721.46,-267.18 712.21,-256.05 704.57,-246.84"/>
<polygon fill="#63b8ff" stroke="#63b8ff" points="707.21,-244.55 698.13,-239.09 701.83,-249.02 707.21,-244.55"/>
</a>
</g>
</g>
<!-- Node2&#45;&gt;Node3 -->
<g id="edge2_Node000002_Node000003" class="edge">
<title>Node2&#45;&gt;Node3</title>
<g id="a_edge2_Node000002_Node000003"><a xlink:title=" ">
<path fill="none" stroke="#63b8ff" d="M460.49,-170.75C400.86,-166.53 313.51,-155.88 242,-129 210.95,-117.33 179.33,-95.16 160.18,-80.35"/>
<polygon fill="#63b8ff" stroke="#63b8ff" points="162.33,-77.58 152.31,-74.13 157.99,-83.07 162.33,-77.58"/>
</a>
</g>
</g>
<!-- Node4 -->
<g id="Node000004" class="node">
<title>Node4</title>
<g id="a_Node000004"><a xlink:title=" ">
<polygon fill="#e0e0e0" stroke="#999999" points="582,-129 534,-129 534,-110 582,-110 582,-129"/>
<text text-anchor="middle" x="558" y="-117" font-family="Helvetica,sans-Serif" font-size="10.00">mutex</text>
</a>
</g>
</g>
<!-- Node2&#45;&gt;Node4 -->
<g id="edge3_Node000002_Node000004" class="edge">
<title>Node2&#45;&gt;Node4</title>
<g id="a_edge3_Node000002_Node000004"><a xlink:title=" ">
<path fill="none" stroke="#63b8ff" d="M534.62,-164.75C538.46,-157.49 544.02,-146.95 548.76,-137.98"/>
<polygon fill="#63b8ff" stroke="#63b8ff" points="551.89,-139.57 553.46,-129.09 545.7,-136.3 551.89,-139.57"/>
</a>
</g>
</g>
<!-- Node2&#45;&gt;Node5 -->
<g id="edge4_Node000002_Node000005" class="edge">
<title>Node2&#45;&gt;Node5</title>
<g id="a_edge4_Node000002_Node000005"><a xlink:title=" ">
<path fill="none" stroke="#63b8ff" d="M460.08,-167.76C417.52,-162.12 363.05,-150.98 319,-129 285.74,-112.41 276.12,-105.25 256,-74 247.24,-60.39 242.37,-42.57 239.76,-29.28"/>
<polygon fill="#63b8ff" stroke="#63b8ff" points="243.2,-28.63 238.07,-19.36 236.3,-29.81 243.2,-28.63"/>
</a>
</g>
</g>
<!-- Node2&#45;&gt;Node6 -->
<g id="edge5_Node000002_Node000006" class="edge">
<title>Node2&#45;&gt;Node6</title>
<g id="a_edge5_Node000002_Node000006"><a xlink:title=" ">
<path fill="none" stroke="#63b8ff" d="M599.69,-166.2C623.96,-160.06 649.07,-148.97 665,-129 674.82,-116.69 675.58,-98.47 674.32,-84.69"/>
<polygon fill="#63b8ff" stroke="#63b8ff" points="677.74,-83.85 672.94,-74.4 670.8,-84.78 677.74,-83.85"/>
</a>
</g>
</g>
<!-- Node2&#45;&gt;Node7 -->
<g id="edge6_Node000002_Node000007" class="edge">
<title>Node2&#45;&gt;Node7</title>
<g id="a_edge6_Node000002_Node000007"><a xlink:title=" ">
<path fill="none" stroke="#63b8ff" d="M599.69,-167.12C628.56,-161.24 660.48,-150.08 683,-129 707.87,-105.71 711.62,-87.96 703,-55 700.45,-45.26 695.25,-35.41 690.24,-27.46"/>
<polygon fill="#63b8ff" stroke="#63b8ff" points="693.11,-25.46 684.63,-19.12 687.31,-29.37 693.11,-25.46"/>
</a>
</g>
</g>
<!-- Node2&#45;&gt;Node8 -->
<g id="edge7_Node000002_Node000008" class="edge">
<title>Node2&#45;&gt;Node8</title>
<g id="a_edge7_Node000002_Node000008"><a xlink:title=" ">
<path fill="none" stroke="#63b8ff" d="M570.01,-164.98C616.78,-155.03 693.69,-138.66 740.02,-128.8"/>
<polygon fill="#63b8ff" stroke="#63b8ff" points="740.93,-132.18 749.98,-126.68 739.47,-125.33 740.93,-132.18"/>
</a>
</g>
</g>
<!-- Node9 -->
<g id="Node000009" class="node">
<title>Node9</title>
<g id="a_Node000009"><a xlink:title=" ">
<polygon fill="#e0e0e0" stroke="#999999" points="387,-74 349,-74 349,-55 387,-55 387,-74"/>
<text text-anchor="middle" x="368" y="-62" font-family="Helvetica,sans-Serif" font-size="10.00">map</text>
</a>
</g>
</g>
<!-- Node2&#45;&gt;Node9 -->
<g id="edge8_Node000002_Node000009" class="edge">
<title>Node2&#45;&gt;Node9</title>
<g id="a_edge8_Node000002_Node000009"><a xlink:title=" ">
<path fill="none" stroke="#63b8ff" d="M460.12,-165.02C415.93,-158.06 364.66,-146.47 351,-129 340.61,-115.7 347.89,-96.58 355.9,-82.8"/>
<polygon fill="#63b8ff" stroke="#63b8ff" points="358.93,-84.56 361.35,-74.25 353.03,-80.8 358.93,-84.56"/>
</a>
</g>
</g>
<!-- Node10 -->
<g id="Node000010" class="node">
<title>Node10</title>
<g id="a_Node000010"><a xlink:title=" ">
<polygon fill="#e0e0e0" stroke="#999999" points="656,-129 600,-129 600,-110 656,-110 656,-129"/>
<text text-anchor="middle" x="628" y="-117" font-family="Helvetica,sans-Serif" font-size="10.00">optional</text>
</a>
</g>
</g>
<!-- Node2&#45;&gt;Node10 -->
<g id="edge9_Node000002_Node000010" class="edge">
<title>Node2&#45;&gt;Node10</title>
<g id="a_edge9_Node000002_Node000010"><a xlink:title=" ">
<path fill="none" stroke="#63b8ff" d="M545.75,-164.98C561.23,-156.61 585.09,-143.7 603.14,-133.95"/>
<polygon fill="#63b8ff" stroke="#63b8ff" points="604.84,-137.01 611.97,-129.17 601.51,-130.85 604.84,-137.01"/>
</a>
</g>
</g>
<!-- Node2&#45;&gt;Node11 -->
<g id="edge10_Node000002_Node000011" class="edge">
<title>Node2&#45;&gt;Node11</title>
<g id="a_edge10_Node000002_Node000011"><a xlink:title=" ">
<path fill="none" stroke="#63b8ff" d="M460.36,-169.09C422.64,-163.88 376.77,-152.72 342,-129 325.59,-117.81 313.45,-98.32 306.12,-83.88"/>
<polygon fill="#63b8ff" stroke="#63b8ff" points="309.09,-81.98 301.65,-74.44 302.77,-84.98 309.09,-81.98"/>
</a>
</g>
</g>
<!-- Node2&#45;&gt;Node12 -->
<g id="edge11_Node000002_Node000012" class="edge">
<title>Node2&#45;&gt;Node12</title>
<g id="a_edge11_Node000002_Node000012"><a xlink:title=" ">
<path fill="none" stroke="#63b8ff" d="M527.64,-164.75C524.69,-152.38 520.52,-129.17 525,-110 527.2,-100.57 531.71,-90.85 536.07,-82.91"/>
<polygon fill="#63b8ff" stroke="#63b8ff" points="539.12,-84.64 541.16,-74.24 533.08,-81.09 539.12,-84.64"/>
</a>
</g>
</g>
<!-- Node2&#45;&gt;Node14 -->
<g id="edge15_Node000002_Node000014" class="edge">
<title>Node2&#45;&gt;Node14</title>
<g id="a_edge15_Node000002_Node000014"><a xlink:title=" ">
<path fill="none" stroke="#63b8ff" d="M460.29,-165.45C367.84,-154.78 206.72,-136.17 123.73,-126.59"/>
<polygon fill="#63b8ff" stroke="#63b8ff" points="124.1,-123.11 113.77,-125.44 123.3,-130.06 124.1,-123.11"/>
</a>
</g>
</g>
<!-- Node15 -->
<g id="Node000015" class="node">
<title>Node15</title>
<g id="a_Node000015"><a xlink:href="evaluate_8h.html" target="_top" xlink:title=" ">
<polygon fill="white" stroke="#666666" points="478,-129 360,-129 360,-110 478,-110 478,-129"/>
<text text-anchor="middle" x="419" y="-117" font-family="Helvetica,sans-Serif" font-size="10.00">Evaluator/evaluate.h</text>
</a>
</g>
</g>
<!-- Node2&#45;&gt;Node15 -->
<g id="edge18_Node000002_Node000015" class="edge">
<title>Node2&#45;&gt;Node15</title>
<g id="a_edge18_Node000002_Node000015"><a xlink:title=" ">
<path fill="none" stroke="#63b8ff" d="M512.17,-164.98C494.39,-156.5 466.85,-143.35 446.32,-133.54"/>
<polygon fill="#63b8ff" stroke="#63b8ff" points="447.69,-130.32 437.16,-129.17 444.67,-136.64 447.69,-130.32"/>
</a>
</g>
</g>
<!-- Node12&#45;&gt;Node5 -->
<g id="edge14_Node000012_Node000005" class="edge">
<title>Node12&#45;&gt;Node5</title>
<g id="a_edge14_Node000012_Node000005"><a xlink:title=" ">
<path fill="none" stroke="#63b8ff" d="M502.25,-55.85C438.93,-45.02 324.71,-25.49 269.12,-15.99"/>
<polygon fill="#63b8ff" stroke="#63b8ff" points="269.58,-12.52 259.14,-14.28 268.4,-19.42 269.58,-12.52"/>
</a>
</g>
</g>
<!-- Node12&#45;&gt;Node7 -->
<g id="edge12_Node000012_Node000007" class="edge">
<title>Node12&#45;&gt;Node7</title>
<g id="a_edge12_Node000012_Node000007"><a xlink:title=" ">
<path fill="none" stroke="#63b8ff" d="M568.05,-54.98C589.41,-46.34 622.7,-32.87 647.06,-23.02"/>
<polygon fill="#63b8ff" stroke="#63b8ff" points="648.61,-26.17 656.57,-19.17 645.99,-19.68 648.61,-26.17"/>
</a>
</g>
</g>
<!-- Node13 -->
<g id="Node000013" class="node">
<title>Node13</title>
<g id="a_Node000013"><a xlink:title=" ">
<polygon fill="#e0e0e0" stroke="#999999" points="593.5,-19 500.5,-19 500.5,0 593.5,0 593.5,-19"/>
<text text-anchor="middle" x="547" y="-7" font-family="Helvetica,sans-Serif" font-size="10.00">unordered_map</text>
</a>
</g>
</g>
<!-- Node12&#45;&gt;Node13 -->
<g id="edge13_Node000012_Node000013" class="edge">
<title>Node12&#45;&gt;Node13</title>
<g id="a_edge13_Node000012_Node000013"><a xlink:title=" ">
<path fill="none" stroke="#63b8ff" d="M547,-54.75C547,-47.8 547,-37.85 547,-29.13"/>
<polygon fill="#63b8ff" stroke="#63b8ff" points="550.5,-29.09 547,-19.09 543.5,-29.09 550.5,-29.09"/>
</a>
</g>
</g>
<!-- Node14&#45;&gt;Node3 -->
<g id="edge17_Node000014_Node000003" class="edge">
<title>Node14&#45;&gt;Node3</title>
<g id="a_edge17_Node000014_Node000003"><a xlink:title=" ">
<path fill="none" stroke="#63b8ff" d="M82.41,-109.98C93.11,-102 109.34,-89.88 122.16,-80.31"/>
<polygon fill="#63b8ff" stroke="#63b8ff" points="124.47,-82.96 130.39,-74.17 120.28,-77.35 124.47,-82.96"/>
</a>
</g>
</g>
<!-- Node14&#45;&gt;Node5 -->
<g id="edge16_Node000014_Node000005" class="edge">
<title>Node14&#45;&gt;Node5</title>
<g id="a_edge16_Node000014_Node000005"><a xlink:title=" ">
<path fill="none" stroke="#63b8ff" d="M73.09,-109.78C76.8,-96.16 85.81,-69.85 103,-55 131.92,-30.03 175.29,-18.97 204.8,-14.14"/>
<polygon fill="#63b8ff" stroke="#63b8ff" points="205.62,-17.56 215,-12.63 204.59,-10.63 205.62,-17.56"/>
</a>
</g>
</g>
<!-- Node15&#45;&gt;Node5 -->
<g id="edge21_Node000015_Node000005" class="edge">
<title>Node15&#45;&gt;Node5</title>
<g id="a_edge21_Node000015_Node000005"><a xlink:title=" ">
<path fill="none" stroke="#63b8ff" d="M418.32,-109.74C416.78,-96.06 411.81,-69.68 396,-55 361.15,-22.66 304.73,-13.55 269.31,-11.14"/>
<polygon fill="#63b8ff" stroke="#63b8ff" points="269.21,-7.63 259.03,-10.59 268.83,-14.62 269.21,-7.63"/>
</a>
</g>
</g>
<!-- Node15&#45;&gt;Node6 -->
<g id="edge19_Node000015_Node000006" class="edge">
<title>Node15&#45;&gt;Node6</title>
<g id="a_edge19_Node000015_Node000006"><a xlink:title=" ">
<path fill="none" stroke="#63b8ff" d="M461.48,-109.99C504.9,-101.23 574.23,-87.05 634,-74 635.45,-73.68 636.93,-73.36 638.42,-73.03"/>
<polygon fill="#63b8ff" stroke="#63b8ff" points="639.33,-76.41 648.32,-70.79 637.79,-69.58 639.33,-76.41"/>
</a>
</g>
</g>
<!-- Node15&#45;&gt;Node7 -->
<g id="edge20_Node000015_Node000007" class="edge">
<title>Node15&#45;&gt;Node7</title>
<g id="a_edge20_Node000015_Node000007"><a xlink:title=" ">
<path fill="none" stroke="#63b8ff" d="M478.35,-110.7C514.84,-104.28 561.77,-93.05 600,-74 624.27,-61.91 647.79,-41.13 662.54,-26.65"/>
<polygon fill="#63b8ff" stroke="#63b8ff" points="665.23,-28.91 669.79,-19.34 660.26,-23.98 665.23,-28.91"/>
</a>
</g>
</g>
<!-- Node15&#45;&gt;Node9 -->
<g id="edge24_Node000015_Node000009" class="edge">
<title>Node15&#45;&gt;Node9</title>
<g id="a_edge24_Node000015_Node000009"><a xlink:title=" ">
<path fill="none" stroke="#63b8ff" d="M410.58,-109.75C403.23,-102.11 392.37,-90.82 383.46,-81.56"/>
<polygon fill="#63b8ff" stroke="#63b8ff" points="385.72,-78.87 376.26,-74.09 380.68,-83.72 385.72,-78.87"/>
</a>
</g>
</g>
<!-- Node15&#45;&gt;Node11 -->
<g id="edge22_Node000015_Node000011" class="edge">
<title>Node15&#45;&gt;Node11</title>
<g id="a_edge22_Node000015_Node000011"><a xlink:title=" ">
<path fill="none" stroke="#63b8ff" d="M399.56,-109.98C380.01,-101.42 349.62,-88.11 327.18,-78.28"/>
<polygon fill="#63b8ff" stroke="#63b8ff" points="328.36,-74.98 317.79,-74.17 325.55,-81.39 328.36,-74.98"/>
</a>
</g>
</g>
<!-- Node15&#45;&gt;Node12 -->
<g id="edge25_Node000015_Node000012" class="edge">
<title>Node15&#45;&gt;Node12</title>
<g id="a_edge25_Node000015_Node000012"><a xlink:title=" ">
<path fill="none" stroke="#63b8ff" d="M439.57,-109.98C460.43,-101.34 492.97,-87.87 516.77,-78.02"/>
<polygon fill="#63b8ff" stroke="#63b8ff" points="518.16,-81.23 526.06,-74.17 515.48,-74.76 518.16,-81.23"/>
</a>
</g>
</g>
<!-- Node16 -->
<g id="Node000016" class="node">
<title>Node16</title>
<g id="a_Node000016"><a xlink:title=" ">
<polygon fill="#e0e0e0" stroke="#999999" points="484.5,-74 443.5,-74 443.5,-55 484.5,-55 484.5,-74"/>
<text text-anchor="middle" x="464" y="-62" font-family="Helvetica,sans-Serif" font-size="10.00">tuple</text>
</a>
</g>
</g>
<!-- Node15&#45;&gt;Node16 -->
<g id="edge23_Node000015_Node000016" class="edge">
<title>Node15&#45;&gt;Node16</title>
<g id="a_edge23_Node000015_Node000016"><a xlink:title=" ">
<path fill="none" stroke="#63b8ff" d="M426.43,-109.75C432.85,-102.18 442.31,-91.05 450.12,-81.84"/>
<polygon fill="#63b8ff" stroke="#63b8ff" points="452.9,-83.98 456.71,-74.09 447.57,-79.45 452.9,-83.98"/>
</a>
</g>
</g>
<!-- Node19&#45;&gt;Node2 -->
<g id="edge36_Node000019_Node000002" class="edge">
<title>Node19&#45;&gt;Node2</title>
<g id="a_edge36_Node000019_Node000002"><a xlink:title=" ">
<path fill="none" stroke="#63b8ff" d="M665.13,-219.98C638.22,-211.13 595.88,-197.19 565.77,-187.28"/>
<polygon fill="#63b8ff" stroke="#63b8ff" points="566.66,-183.88 556.07,-184.08 564.47,-190.53 566.66,-183.88"/>
</a>
</g>
</g>
<!-- Node19&#45;&gt;Node8 -->
<g id="edge35_Node000019_Node000008" class="edge">
<title>Node19&#45;&gt;Node8</title>
<g id="a_edge35_Node000019_Node000008"><a xlink:title=" ">
<path fill="none" stroke="#63b8ff" d="M698.2,-219.66C712.91,-201.61 746.59,-160.28 765.49,-137.08"/>
<polygon fill="#63b8ff" stroke="#63b8ff" points="768.34,-139.12 771.95,-129.16 762.91,-134.7 768.34,-139.12"/>
</a>
</g>
</g>
</g>
</svg>
