<?xml version="1.0" encoding="UTF-8" standalone="no"?>
<!DOCTYPE svg PUBLIC "-//W3C//DTD SVG 1.1//EN"
 "http://www.w3.org/Graphics/SVG/1.1/DTD/svg11.dtd">
<!-- Generated by graphviz version 2.43.0 (0)
 -->
<!-- Title: src/Drivers/transDriverModel.cpp Pages: 1 -->
<svg width="1447pt" height="522pt"
 viewBox="0.00 0.00 1447.00 522.00" xmlns="http://www.w3.org/2000/svg" xmlns:xlink="http://www.w3.org/1999/xlink">
<g id="graph0" class="graph" transform="scale(1 1) rotate(0) translate(4 518)">
<title>src/Drivers/transDriverModel.cpp</title>
<!-- Node1 -->
<g id="Node000001" class="node">
<title>Node1</title>
<g id="a_Node000001"><a xlink:title=" ">
<polygon fill="#999999" stroke="#666666" points="834.5,-514 657.5,-514 657.5,-495 834.5,-495 834.5,-514"/>
<text text-anchor="middle" x="746" y="-502" font-family="Helvetica,sans-Serif" font-size="10.00">src/Drivers/transDriverModel.cpp</text>
</a>
</g>
</g>
<!-- Node2 -->
<g id="Node000002" class="node">
<title>Node2</title>
<g id="a_Node000002"><a xlink:href="transDriverModel_8h.html" target="_top" xlink:title=" ">
<polygon fill="white" stroke="#666666" points="820.5,-459 671.5,-459 671.5,-440 820.5,-440 820.5,-459"/>
<text text-anchor="middle" x="746" y="-447" font-family="Helvetica,sans-Serif" font-size="10.00">Drivers/transDriverModel.h</text>
</a>
</g>
</g>
<!-- Node1&#45;&gt;Node2 -->
<g id="edge1_Node000001_Node000002" class="edge">
<title>Node1&#45;&gt;Node2</title>
<g id="a_edge1_Node000001_Node000002"><a xlink:title=" ">
<path fill="none" stroke="#63b8ff" d="M746,-494.75C746,-487.8 746,-477.85 746,-469.13"/>
<polygon fill="#63b8ff" stroke="#63b8ff" points="749.5,-469.09 746,-459.09 742.5,-469.09 749.5,-469.09"/>
</a>
</g>
</g>
<!-- Node3 -->
<g id="Node000003" class="node">
<title>Node3</title>
<g id="a_Node000003"><a xlink:title=" ">
<polygon fill="#e0e0e0" stroke="#999999" points="354,-19 310,-19 310,0 354,0 354,-19"/>
<text text-anchor="middle" x="332" y="-7" font-family="Helvetica,sans-Serif" font-size="10.00">string</text>
</a>
</g>
</g>
<!-- Node2&#45;&gt;Node3 -->
<g id="edge2_Node000002_Node000003" class="edge">
<title>Node2&#45;&gt;Node3</title>
<g id="a_edge2_Node000002_Node000003"><a xlink:title=" ">
<path fill="none" stroke="#63b8ff" d="M671.4,-445.45C482.47,-436.72 0,-407.85 0,-340.5 0,-340.5 0,-340.5 0,-118.5 0,-74.14 36.7,-73.54 77,-55 151.55,-20.7 249.49,-12.69 299.52,-10.92"/>
<polygon fill="#63b8ff" stroke="#63b8ff" points="299.84,-14.41 309.73,-10.62 299.63,-7.41 299.84,-14.41"/>
</a>
</g>
</g>
<!-- Node4 -->
<g id="Node000004" class="node">
<title>Node4</title>
<g id="a_Node000004"><a xlink:title=" ">
<polygon fill="#e0e0e0" stroke="#999999" points="1049.5,-19 1002.5,-19 1002.5,0 1049.5,0 1049.5,-19"/>
<text text-anchor="middle" x="1026" y="-7" font-family="Helvetica,sans-Serif" font-size="10.00">vector</text>
</a>
</g>
</g>
<!-- Node2&#45;&gt;Node4 -->
<g id="edge3_Node000002_Node000004" class="edge">
<title>Node2&#45;&gt;Node4</title>
<g id="a_edge3_Node000002_Node000004"><a xlink:title=" ">
<path fill="none" stroke="#63b8ff" d="M820.82,-444.59C1000.02,-434.23 1439,-402.52 1439,-340.5 1439,-340.5 1439,-340.5 1439,-118.5 1439,-40.29 1158.28,-17.63 1059.71,-12.09"/>
<polygon fill="#63b8ff" stroke="#63b8ff" points="1059.86,-8.59 1049.69,-11.55 1059.49,-15.58 1059.86,-8.59"/>
</a>
</g>
</g>
<!-- Node5 -->
<g id="Node000005" class="node">
<title>Node5</title>
<g id="a_Node000005"><a xlink:href="driverModel_8h.html" target="_top" xlink:title=" ">
<polygon fill="white" stroke="#666666" points="807,-294 685,-294 685,-275 807,-275 807,-294"/>
<text text-anchor="middle" x="746" y="-282" font-family="Helvetica,sans-Serif" font-size="10.00">Drivers/driverModel.h</text>
</a>
</g>
</g>
<!-- Node2&#45;&gt;Node5 -->
<g id="edge4_Node000002_Node000005" class="edge">
<title>Node2&#45;&gt;Node5</title>
<g id="a_edge4_Node000002_Node000005"><a xlink:title=" ">
<path fill="none" stroke="#63b8ff" d="M746,-439.74C746,-414.31 746,-340.08 746,-304.69"/>
<polygon fill="#63b8ff" stroke="#63b8ff" points="749.5,-304.31 746,-294.31 742.5,-304.31 749.5,-304.31"/>
</a>
</g>
</g>
<!-- Node18 -->
<g id="Node000018" class="node">
<title>Node18</title>
<g id="a_Node000018"><a xlink:href="transaction_8h_source.html" target="_top" xlink:title=" ">
<polygon fill="white" stroke="#666666" points="726.5,-184 587.5,-184 587.5,-165 726.5,-165 726.5,-184"/>
<text text-anchor="middle" x="657" y="-172" font-family="Helvetica,sans-Serif" font-size="10.00">Transaction/transaction.h</text>
</a>
</g>
</g>
<!-- Node2&#45;&gt;Node18 -->
<g id="edge62_Node000002_Node000018" class="edge">
<title>Node2&#45;&gt;Node18</title>
<g id="a_edge62_Node000002_Node000018"><a xlink:title=" ">
<path fill="none" stroke="#63b8ff" d="M731.3,-439.87C706.02,-423.79 657,-386.66 657,-340.5 657,-340.5 657,-340.5 657,-283.5 657,-252.19 657,-215.77 657,-194.23"/>
<polygon fill="#63b8ff" stroke="#63b8ff" points="660.5,-194.18 657,-184.18 653.5,-194.18 660.5,-194.18"/>
</a>
</g>
</g>
<!-- Node22 -->
<g id="Node000022" class="node">
<title>Node22</title>
<g id="a_Node000022"><a xlink:href="simulatorDriver_8h.html" target="_top" xlink:title=" ">
<polygon fill="white" stroke="#666666" points="963,-404 823,-404 823,-385 963,-385 963,-404"/>
<text text-anchor="middle" x="893" y="-392" font-family="Helvetica,sans-Serif" font-size="10.00">Drivers/simulatorDriver.h</text>
</a>
</g>
</g>
<!-- Node2&#45;&gt;Node22 -->
<g id="edge52_Node000002_Node000022" class="edge">
<title>Node2&#45;&gt;Node22</title>
<g id="a_edge52_Node000002_Node000022"><a xlink:title=" ">
<path fill="none" stroke="#63b8ff" d="M769.62,-439.98C793.9,-431.23 831.95,-417.51 859.37,-407.62"/>
<polygon fill="#63b8ff" stroke="#63b8ff" points="860.73,-410.85 868.95,-404.17 858.36,-404.27 860.73,-410.85"/>
</a>
</g>
</g>
<!-- Node5&#45;&gt;Node3 -->
<g id="edge7_Node000005_Node000003" class="edge">
<title>Node5&#45;&gt;Node3</title>
<g id="a_edge7_Node000005_Node000003"><a xlink:title=" ">
<path fill="none" stroke="#63b8ff" d="M684.93,-282.59C552.46,-280.05 242.63,-270.78 143,-239 91.04,-222.43 38,-230.04 38,-175.5 38,-175.5 38,-175.5 38,-118.5 38,-63.19 223.65,-27.59 299.9,-15.3"/>
<polygon fill="#63b8ff" stroke="#63b8ff" points="300.57,-18.73 309.9,-13.72 299.48,-11.82 300.57,-18.73"/>
</a>
</g>
</g>
<!-- Node6 -->
<g id="Node000006" class="node">
<title>Node6</title>
<g id="a_Node000006"><a xlink:title=" ">
<polygon fill="#e0e0e0" stroke="#999999" points="1197,-129 1139,-129 1139,-110 1197,-110 1197,-129"/>
<text text-anchor="middle" x="1168" y="-117" font-family="Helvetica,sans-Serif" font-size="10.00">memory</text>
</a>
</g>
</g>
<!-- Node5&#45;&gt;Node6 -->
<g id="edge5_Node000005_Node000006" class="edge">
<title>Node5&#45;&gt;Node6</title>
<g id="a_edge5_Node000005_Node000006"><a xlink:title=" ">
<path fill="none" stroke="#63b8ff" d="M807.1,-274.96C904.24,-260.25 1087.83,-227.49 1136,-184 1149.43,-171.87 1157.98,-152.8 1162.82,-138.73"/>
<polygon fill="#63b8ff" stroke="#63b8ff" points="1166.18,-139.72 1165.83,-129.13 1159.5,-137.63 1166.18,-139.72"/>
</a>
</g>
</g>
<!-- Node7 -->
<g id="Node000007" class="node">
<title>Node7</title>
<g id="a_Node000007"><a xlink:title=" ">
<polygon fill="#e0e0e0" stroke="#999999" points="416,-129 360,-129 360,-110 416,-110 416,-129"/>
<text text-anchor="middle" x="388" y="-117" font-family="Helvetica,sans-Serif" font-size="10.00">optional</text>
</a>
</g>
</g>
<!-- Node5&#45;&gt;Node7 -->
<g id="edge6_Node000005_Node000007" class="edge">
<title>Node5&#45;&gt;Node7</title>
<g id="a_edge6_Node000005_Node000007"><a xlink:title=" ">
<path fill="none" stroke="#63b8ff" d="M727.26,-274.97C668.31,-248.13 486.45,-165.32 416.15,-133.31"/>
<polygon fill="#63b8ff" stroke="#63b8ff" points="417.54,-130.1 406.99,-129.15 414.64,-136.48 417.54,-130.1"/>
</a>
</g>
</g>
<!-- Node8 -->
<g id="Node000008" class="node">
<title>Node8</title>
<g id="a_Node000008"><a xlink:title=" ">
<polygon fill="#e0e0e0" stroke="#999999" points="616.5,-74 575.5,-74 575.5,-55 616.5,-55 616.5,-74"/>
<text text-anchor="middle" x="596" y="-62" font-family="Helvetica,sans-Serif" font-size="10.00">tuple</text>
</a>
</g>
</g>
<!-- Node5&#45;&gt;Node8 -->
<g id="edge8_Node000005_Node000008" class="edge">
<title>Node5&#45;&gt;Node8</title>
<g id="a_edge8_Node000005_Node000008"><a xlink:title=" ">
<path fill="none" stroke="#63b8ff" d="M684.96,-280.3C593.82,-271.82 424.98,-240.97 351,-129 315.85,-75.81 305.51,-131.2 565.65,-73.83"/>
<polygon fill="#63b8ff" stroke="#63b8ff" points="566.42,-77.25 575.42,-71.65 564.9,-70.41 566.42,-77.25"/>
</a>
</g>
</g>
<!-- Node9 -->
<g id="Node000009" class="node">
<title>Node9</title>
<g id="a_Node000009"><a xlink:title=" ">
<polygon fill="#e0e0e0" stroke="#999999" points="958.5,-19 865.5,-19 865.5,0 958.5,0 958.5,-19"/>
<text text-anchor="middle" x="912" y="-7" font-family="Helvetica,sans-Serif" font-size="10.00">unordered_map</text>
</a>
</g>
</g>
<!-- Node5&#45;&gt;Node9 -->
<g id="edge9_Node000005_Node000009" class="edge">
<title>Node5&#45;&gt;Node9</title>
<g id="a_edge9_Node000005_Node000009"><a xlink:title=" ">
<path fill="none" stroke="#63b8ff" d="M684.89,-279.67C601.5,-273.73 456.93,-260.66 409,-239 346.88,-210.92 286.56,-165.61 326,-110 386.66,-24.48 720.24,-12.03 855.25,-10.54"/>
<polygon fill="#63b8ff" stroke="#63b8ff" points="855.42,-14.04 865.39,-10.44 855.36,-7.04 855.42,-14.04"/>
</a>
</g>
</g>
<!-- Node10 -->
<g id="Node000010" class="node">
<title>Node10</title>
<g id="a_Node000010"><a xlink:title=" ">
<polygon fill="#e0e0e0" stroke="#999999" points="1181.5,-74 1136.5,-74 1136.5,-55 1181.5,-55 1181.5,-74"/>
<text text-anchor="middle" x="1159" y="-62" font-family="Helvetica,sans-Serif" font-size="10.00">utility</text>
</a>
</g>
</g>
<!-- Node5&#45;&gt;Node10 -->
<g id="edge10_Node000005_Node000010" class="edge">
<title>Node5&#45;&gt;Node10</title>
<g id="a_edge10_Node000005_Node000010"><a xlink:title=" ">
<path fill="none" stroke="#63b8ff" d="M807.03,-283.33C893.31,-280.1 1052.1,-262.85 1157,-184 1188.53,-160.3 1221.59,-146.23 1206,-110 1200.85,-98.03 1190.71,-87.76 1181.17,-80.12"/>
<polygon fill="#63b8ff" stroke="#63b8ff" points="1183.19,-77.26 1173.07,-74.11 1179.01,-82.88 1183.19,-77.26"/>
</a>
</g>
</g>
<!-- Node11 -->
<g id="Node000011" class="node">
<title>Node11</title>
<g id="a_Node000011"><a xlink:title=" ">
<polygon fill="#e0e0e0" stroke="#999999" points="557.5,-74 492.5,-74 492.5,-55 557.5,-55 557.5,-74"/>
<text text-anchor="middle" x="525" y="-62" font-family="Helvetica,sans-Serif" font-size="10.00">functional</text>
</a>
</g>
</g>
<!-- Node5&#45;&gt;Node11 -->
<g id="edge11_Node000005_Node000011" class="edge">
<title>Node5&#45;&gt;Node11</title>
<g id="a_edge11_Node000005_Node000011"><a xlink:title=" ">
<path fill="none" stroke="#63b8ff" d="M684.96,-282.32C624.72,-279.29 531.02,-269.51 456,-239 388.06,-211.37 358.03,-197.94 333,-129 330.12,-121.06 327.75,-116.61 333,-110 351.27,-87.01 431.38,-74.84 482.17,-69.32"/>
<polygon fill="#63b8ff" stroke="#63b8ff" points="482.64,-72.79 492.22,-68.27 481.92,-65.83 482.64,-72.79"/>
</a>
</g>
</g>
<!-- Node12 -->
<g id="Node000012" class="node">
<title>Node12</title>
<g id="a_Node000012"><a xlink:href="channel_8h.html" target="_top" xlink:title=" ">
<polygon fill="white" stroke="#666666" points="982.5,-239 875.5,-239 875.5,-220 982.5,-220 982.5,-239"/>
<text text-anchor="middle" x="929" y="-227" font-family="Helvetica,sans-Serif" font-size="10.00">Channel/channel.h</text>
</a>
</g>
</g>
<!-- Node5&#45;&gt;Node12 -->
<g id="edge12_Node000005_Node000012" class="edge">
<title>Node5&#45;&gt;Node12</title>
<g id="a_edge12_Node000005_Node000012"><a xlink:title=" ">
<path fill="none" stroke="#63b8ff" d="M775.4,-274.98C806.39,-266.01 855.38,-251.82 889.67,-241.89"/>
<polygon fill="#63b8ff" stroke="#63b8ff" points="890.74,-245.23 899.37,-239.08 888.79,-238.5 890.74,-245.23"/>
</a>
</g>
</g>
<!-- Node17 -->
<g id="Node000017" class="node">
<title>Node17</title>
<g id="a_Node000017"><a xlink:href="types_8h.html" target="_top" xlink:title=" ">
<polygon fill="white" stroke="#666666" points="956.5,-74 867.5,-74 867.5,-55 956.5,-55 956.5,-74"/>
<text text-anchor="middle" x="912" y="-62" font-family="Helvetica,sans-Serif" font-size="10.00">Library/types.h</text>
</a>
</g>
</g>
<!-- Node5&#45;&gt;Node17 -->
<g id="edge50_Node000005_Node000017" class="edge">
<title>Node5&#45;&gt;Node17</title>
<g id="a_edge50_Node000005_Node000017"><a xlink:title=" ">
<path fill="none" stroke="#63b8ff" d="M752.51,-274.95C777.24,-242.47 865.71,-126.29 899.11,-82.43"/>
<polygon fill="#63b8ff" stroke="#63b8ff" points="902.08,-84.3 905.36,-74.22 896.51,-80.06 902.08,-84.3"/>
</a>
</g>
</g>
<!-- Node5&#45;&gt;Node18 -->
<g id="edge49_Node000005_Node000018" class="edge">
<title>Node5&#45;&gt;Node18</title>
<g id="a_edge49_Node000005_Node000018"><a xlink:title=" ">
<path fill="none" stroke="#63b8ff" d="M738.72,-274.66C723.84,-256.61 689.78,-215.28 670.66,-192.08"/>
<polygon fill="#63b8ff" stroke="#63b8ff" points="673.2,-189.65 664.14,-184.16 667.79,-194.1 673.2,-189.65"/>
</a>
</g>
</g>
<!-- Node20 -->
<g id="Node000020" class="node">
<title>Node20</title>
<g id="a_Node000020"><a xlink:href="error_8h.html" target="_top" xlink:title=" ">
<polygon fill="white" stroke="#666666" points="151.5,-129 66.5,-129 66.5,-110 151.5,-110 151.5,-129"/>
<text text-anchor="middle" x="109" y="-117" font-family="Helvetica,sans-Serif" font-size="10.00">Library/error.h</text>
</a>
</g>
</g>
<!-- Node5&#45;&gt;Node20 -->
<g id="edge51_Node000005_Node000020" class="edge">
<title>Node5&#45;&gt;Node20</title>
<g id="a_edge51_Node000005_Node000020"><a xlink:title=" ">
<path fill="none" stroke="#63b8ff" d="M684.83,-282.23C544.47,-278.83 208.08,-267.76 166,-239 132.03,-215.78 117.64,-166.51 112.09,-139.39"/>
<polygon fill="#63b8ff" stroke="#63b8ff" points="115.48,-138.46 110.23,-129.26 108.6,-139.73 115.48,-138.46"/>
</a>
</g>
</g>
<!-- Node12&#45;&gt;Node3 -->
<g id="edge15_Node000012_Node000003" class="edge">
<title>Node12&#45;&gt;Node3</title>
<g id="a_edge15_Node000012_Node000003"><a xlink:title=" ">
<path fill="none" stroke="#63b8ff" d="M875.39,-227.28C745.88,-223.13 421.41,-205.18 351,-129 325.75,-101.68 326.48,-54.81 329.23,-28.96"/>
<polygon fill="#63b8ff" stroke="#63b8ff" points="332.71,-29.36 330.51,-19 325.77,-28.47 332.71,-29.36"/>
</a>
</g>
</g>
<!-- Node12&#45;&gt;Node4 -->
<g id="edge20_Node000012_Node000004" class="edge">
<title>Node12&#45;&gt;Node4</title>
<g id="a_edge20_Node000012_Node000004"><a xlink:title=" ">
<path fill="none" stroke="#63b8ff" d="M982.58,-223.71C1025.68,-218.3 1086.92,-207.04 1136,-184 1171.82,-167.19 1188.7,-164.59 1206,-129 1216.12,-108.19 1199.13,-63.11 1191,-55 1156.1,-20.2 1097.03,-11.83 1059.84,-10.24"/>
<polygon fill="#63b8ff" stroke="#63b8ff" points="1059.61,-6.73 1049.51,-9.94 1059.41,-13.72 1059.61,-6.73"/>
</a>
</g>
</g>
<!-- Node12&#45;&gt;Node6 -->
<g id="edge14_Node000012_Node000006" class="edge">
<title>Node12&#45;&gt;Node6</title>
<g id="a_edge14_Node000012_Node000006"><a xlink:title=" ">
<path fill="none" stroke="#63b8ff" d="M982.77,-223.84C1020.8,-218.59 1071.79,-207.48 1111,-184 1130.18,-172.51 1146.56,-152.5 1156.77,-138"/>
<polygon fill="#63b8ff" stroke="#63b8ff" points="1159.87,-139.67 1162.56,-129.42 1154.07,-135.75 1159.87,-139.67"/>
</a>
</g>
</g>
<!-- Node12&#45;&gt;Node8 -->
<g id="edge16_Node000012_Node000008" class="edge">
<title>Node12&#45;&gt;Node8</title>
<g id="a_edge16_Node000012_Node000008"><a xlink:title=" ">
<path fill="none" stroke="#63b8ff" d="M905.32,-219.97C868.99,-207.05 797.16,-182.21 735,-165 665.59,-145.78 621.92,-185.3 577,-129 566.39,-115.7 574.38,-96.58 583.02,-82.8"/>
<polygon fill="#63b8ff" stroke="#63b8ff" points="586.11,-84.47 588.88,-74.25 580.34,-80.51 586.11,-84.47"/>
</a>
</g>
</g>
<!-- Node12&#45;&gt;Node9 -->
<g id="edge17_Node000012_Node000009" class="edge">
<title>Node12&#45;&gt;Node9</title>
<g id="a_edge17_Node000012_Node000009"><a xlink:title=" ">
<path fill="none" stroke="#63b8ff" d="M942.86,-219.8C954,-211.94 968.92,-199.3 976,-184 989.83,-154.13 982.81,-142.69 979,-110 976.09,-85.05 979.27,-76.32 966,-55 958.48,-42.91 946.53,-32.57 935.78,-24.9"/>
<polygon fill="#63b8ff" stroke="#63b8ff" points="937.41,-21.78 927.15,-19.11 933.51,-27.59 937.41,-21.78"/>
</a>
</g>
</g>
<!-- Node12&#45;&gt;Node10 -->
<g id="edge19_Node000012_Node000010" class="edge">
<title>Node12&#45;&gt;Node10</title>
<g id="a_edge19_Node000012_Node000010"><a xlink:title=" ">
<path fill="none" stroke="#63b8ff" d="M982.57,-221.53C1012.84,-215.5 1050.09,-204.38 1078,-184 1082.88,-180.44 1126.82,-114.31 1147.86,-82.43"/>
<polygon fill="#63b8ff" stroke="#63b8ff" points="1150.78,-84.35 1153.37,-74.08 1144.94,-80.5 1150.78,-84.35"/>
</a>
</g>
</g>
<!-- Node13 -->
<g id="Node000013" class="node">
<title>Node13</title>
<g id="a_Node000013"><a xlink:title=" ">
<polygon fill="#e0e0e0" stroke="#999999" points="966.5,-184 913.5,-184 913.5,-165 966.5,-165 966.5,-184"/>
<text text-anchor="middle" x="940" y="-172" font-family="Helvetica,sans-Serif" font-size="10.00">iterator</text>
</a>
</g>
</g>
<!-- Node12&#45;&gt;Node13 -->
<g id="edge13_Node000012_Node000013" class="edge">
<title>Node12&#45;&gt;Node13</title>
<g id="a_edge13_Node000012_Node000013"><a xlink:title=" ">
<path fill="none" stroke="#63b8ff" d="M930.82,-219.75C932.26,-212.8 934.32,-202.85 936.13,-194.13"/>
<polygon fill="#63b8ff" stroke="#63b8ff" points="939.61,-194.59 938.22,-184.09 932.76,-193.17 939.61,-194.59"/>
</a>
</g>
</g>
<!-- Node14 -->
<g id="Node000014" class="node">
<title>Node14</title>
<g id="a_Node000014"><a xlink:title=" ">
<polygon fill="#e0e0e0" stroke="#999999" points="817,-74 779,-74 779,-55 817,-55 817,-74"/>
<text text-anchor="middle" x="798" y="-62" font-family="Helvetica,sans-Serif" font-size="10.00">map</text>
</a>
</g>
</g>
<!-- Node12&#45;&gt;Node14 -->
<g id="edge18_Node000012_Node000014" class="edge">
<title>Node12&#45;&gt;Node14</title>
<g id="a_edge18_Node000012_Node000014"><a xlink:title=" ">
<path fill="none" stroke="#63b8ff" d="M921.96,-219.74C901.08,-193.76 839.25,-116.83 811.61,-82.44"/>
<polygon fill="#63b8ff" stroke="#63b8ff" points="814.07,-79.91 805.08,-74.31 808.61,-84.29 814.07,-79.91"/>
</a>
</g>
</g>
<!-- Node15 -->
<g id="Node000015" class="node">
<title>Node15</title>
<g id="a_Node000015"><a xlink:title=" ">
<polygon fill="#e0e0e0" stroke="#999999" points="1069,-184 1023,-184 1023,-165 1069,-165 1069,-184"/>
<text text-anchor="middle" x="1046" y="-172" font-family="Helvetica,sans-Serif" font-size="10.00">future</text>
</a>
</g>
</g>
<!-- Node12&#45;&gt;Node15 -->
<g id="edge21_Node000012_Node000015" class="edge">
<title>Node12&#45;&gt;Node15</title>
<g id="a_edge21_Node000012_Node000015"><a xlink:title=" ">
<path fill="none" stroke="#63b8ff" d="M947.8,-219.98C966.62,-211.46 995.82,-198.23 1017.5,-188.41"/>
<polygon fill="#63b8ff" stroke="#63b8ff" points="1019.2,-191.48 1026.86,-184.17 1016.31,-185.11 1019.2,-191.48"/>
</a>
</g>
</g>
<!-- Node16 -->
<g id="Node000016" class="node">
<title>Node16</title>
<g id="a_Node000016"><a xlink:title=" ">
<polygon fill="#e0e0e0" stroke="#999999" points="286,-74 226,-74 226,-55 286,-55 286,-74"/>
<text text-anchor="middle" x="256" y="-62" font-family="Helvetica,sans-Serif" font-size="10.00">iostream</text>
</a>
</g>
</g>
<!-- Node12&#45;&gt;Node16 -->
<g id="edge22_Node000012_Node000016" class="edge">
<title>Node12&#45;&gt;Node16</title>
<g id="a_edge22_Node000012_Node000016"><a xlink:title=" ">
<path fill="none" stroke="#63b8ff" d="M875.47,-227.55C735.1,-224.65 364.02,-214.2 318,-184 282.85,-160.94 266.41,-111.22 259.79,-84.09"/>
<polygon fill="#63b8ff" stroke="#63b8ff" points="263.2,-83.28 257.6,-74.29 256.37,-84.82 263.2,-83.28"/>
</a>
</g>
</g>
<!-- Node12&#45;&gt;Node17 -->
<g id="edge23_Node000012_Node000017" class="edge">
<title>Node12&#45;&gt;Node17</title>
<g id="a_edge23_Node000012_Node000017"><a xlink:title=" ">
<path fill="none" stroke="#63b8ff" d="M921.16,-219.92C910.7,-207.38 894.62,-183.5 905,-165 920.04,-138.21 948.96,-155.79 964,-129 968.13,-121.64 967.53,-117.67 964,-110 958.25,-97.52 947.09,-87.24 936.58,-79.71"/>
<polygon fill="#63b8ff" stroke="#63b8ff" points="938.3,-76.65 928.03,-74.05 934.43,-82.49 938.3,-76.65"/>
</a>
</g>
</g>
<!-- Node12&#45;&gt;Node18 -->
<g id="edge27_Node000012_Node000018" class="edge">
<title>Node12&#45;&gt;Node18</title>
<g id="a_edge27_Node000012_Node000018"><a xlink:title=" ">
<path fill="none" stroke="#63b8ff" d="M885.3,-219.98C837.85,-210.74 762.03,-195.97 710.92,-186.01"/>
<polygon fill="#63b8ff" stroke="#63b8ff" points="711.53,-182.56 701.04,-184.08 710.19,-189.43 711.53,-182.56"/>
</a>
</g>
</g>
<!-- Node17&#45;&gt;Node3 -->
<g id="edge26_Node000017_Node000003" class="edge">
<title>Node17&#45;&gt;Node3</title>
<g id="a_edge26_Node000017_Node000003"><a xlink:title=" ">
<path fill="none" stroke="#63b8ff" d="M867.37,-59.01C854.06,-57.7 839.44,-56.27 826,-55 652.01,-38.57 443.41,-20.22 364.43,-13.32"/>
<polygon fill="#63b8ff" stroke="#63b8ff" points="364.43,-9.81 354.16,-12.43 363.82,-16.78 364.43,-9.81"/>
</a>
</g>
</g>
<!-- Node17&#45;&gt;Node4 -->
<g id="edge24_Node000017_Node000004" class="edge">
<title>Node17&#45;&gt;Node4</title>
<g id="a_edge24_Node000017_Node000004"><a xlink:title=" ">
<path fill="none" stroke="#63b8ff" d="M930.32,-54.98C948.66,-46.46 977.11,-33.23 998.23,-23.41"/>
<polygon fill="#63b8ff" stroke="#63b8ff" points="999.76,-26.56 1007.35,-19.17 996.81,-20.21 999.76,-26.56"/>
</a>
</g>
</g>
<!-- Node17&#45;&gt;Node9 -->
<g id="edge25_Node000017_Node000009" class="edge">
<title>Node17&#45;&gt;Node9</title>
<g id="a_edge25_Node000017_Node000009"><a xlink:title=" ">
<path fill="none" stroke="#63b8ff" d="M912,-54.75C912,-47.8 912,-37.85 912,-29.13"/>
<polygon fill="#63b8ff" stroke="#63b8ff" points="915.5,-29.09 912,-19.09 908.5,-29.09 915.5,-29.09"/>
</a>
</g>
</g>
<!-- Node18&#45;&gt;Node3 -->
<g id="edge29_Node000018_Node000003" class="edge">
<title>Node18&#45;&gt;Node3</title>
<g id="a_edge29_Node000018_Node000003"><a xlink:title=" ">
<path fill="none" stroke="#63b8ff" d="M626.82,-164.95C600.44,-157.01 561.38,-144.17 529,-129 461.65,-97.45 387.97,-49.04 352.86,-25.04"/>
<polygon fill="#63b8ff" stroke="#63b8ff" points="354.62,-22 344.4,-19.22 350.65,-27.77 354.62,-22"/>
</a>
</g>
</g>
<!-- Node18&#45;&gt;Node4 -->
<g id="edge31_Node000018_Node000004" class="edge">
<title>Node18&#45;&gt;Node4</title>
<g id="a_edge31_Node000018_Node000004"><a xlink:title=" ">
<path fill="none" stroke="#63b8ff" d="M715.5,-164.96C781.15,-153.15 888.57,-127.01 966,-74 984.89,-61.07 1002.36,-41.31 1013.52,-27.27"/>
<polygon fill="#63b8ff" stroke="#63b8ff" points="1016.56,-29.06 1019.9,-19 1011.02,-24.79 1016.56,-29.06"/>
</a>
</g>
</g>
<!-- Node18&#45;&gt;Node6 -->
<g id="edge32_Node000018_Node000006" class="edge">
<title>Node18&#45;&gt;Node6</title>
<g id="a_edge32_Node000018_Node000006"><a xlink:title=" ">
<path fill="none" stroke="#63b8ff" d="M726.71,-166.27C835.65,-154.97 1042.67,-133.5 1128.84,-124.56"/>
<polygon fill="#63b8ff" stroke="#63b8ff" points="1129.39,-128.02 1138.97,-123.51 1128.67,-121.06 1129.39,-128.02"/>
</a>
</g>
</g>
<!-- Node18&#45;&gt;Node7 -->
<g id="edge35_Node000018_Node000007" class="edge">
<title>Node18&#45;&gt;Node7</title>
<g id="a_edge35_Node000018_Node000007"><a xlink:title=" ">
<path fill="none" stroke="#63b8ff" d="M613.04,-164.97C567.3,-156.07 493.61,-141.67 430,-129 428.73,-128.75 427.43,-128.49 426.13,-128.23"/>
<polygon fill="#63b8ff" stroke="#63b8ff" points="426.5,-124.73 416.01,-126.19 425.12,-131.6 426.5,-124.73"/>
</a>
</g>
</g>
<!-- Node18&#45;&gt;Node10 -->
<g id="edge30_Node000018_Node000010" class="edge">
<title>Node18&#45;&gt;Node10</title>
<g id="a_edge30_Node000018_Node000010"><a xlink:title=" ">
<path fill="none" stroke="#63b8ff" d="M696.81,-164.94C793.19,-144.2 1037.64,-91.61 1126.27,-72.54"/>
<polygon fill="#63b8ff" stroke="#63b8ff" points="1127.24,-75.91 1136.29,-70.39 1125.77,-69.07 1127.24,-75.91"/>
</a>
</g>
</g>
<!-- Node18&#45;&gt;Node11 -->
<g id="edge36_Node000018_Node000011" class="edge">
<title>Node18&#45;&gt;Node11</title>
<g id="a_edge36_Node000018_Node000011"><a xlink:title=" ">
<path fill="none" stroke="#63b8ff" d="M609.71,-164.94C587.02,-158.57 561.12,-147.63 544,-129 532.81,-116.82 528.19,-98.3 526.3,-84.39"/>
<polygon fill="#63b8ff" stroke="#63b8ff" points="529.74,-83.65 525.26,-74.04 522.78,-84.34 529.74,-83.65"/>
</a>
</g>
</g>
<!-- Node18&#45;&gt;Node14 -->
<g id="edge34_Node000018_Node000014" class="edge">
<title>Node18&#45;&gt;Node14</title>
<g id="a_edge34_Node000018_Node000014"><a xlink:title=" ">
<path fill="none" stroke="#63b8ff" d="M711.39,-164.96C735.02,-158.67 761.29,-147.78 779,-129 790.46,-116.84 795.03,-98.05 796.84,-84.06"/>
<polygon fill="#63b8ff" stroke="#63b8ff" points="800.33,-84.37 797.78,-74.09 793.36,-83.71 800.33,-84.37"/>
</a>
</g>
</g>
<!-- Node18&#45;&gt;Node16 -->
<g id="edge28_Node000018_Node000016" class="edge">
<title>Node18&#45;&gt;Node16</title>
<g id="a_edge28_Node000018_Node000016"><a xlink:title=" ">
<path fill="none" stroke="#63b8ff" d="M610.11,-164.97C571.46,-157.34 515.46,-144.92 468,-129 448.19,-122.36 444.72,-116.9 425,-110 381.79,-94.87 330.81,-82.12 296.22,-74.19"/>
<polygon fill="#63b8ff" stroke="#63b8ff" points="296.57,-70.68 286.04,-71.89 295.02,-77.51 296.57,-70.68"/>
</a>
</g>
</g>
<!-- Node18&#45;&gt;Node17 -->
<g id="edge37_Node000018_Node000017" class="edge">
<title>Node18&#45;&gt;Node17</title>
<g id="a_edge37_Node000018_Node000017"><a xlink:title=" ">
<path fill="none" stroke="#63b8ff" d="M690.74,-164.93C719.74,-157.07 762.4,-144.34 798,-129 831.31,-114.64 867.55,-93.4 890.03,-79.51"/>
<polygon fill="#63b8ff" stroke="#63b8ff" points="892.14,-82.31 898.76,-74.04 888.43,-76.38 892.14,-82.31"/>
</a>
</g>
</g>
<!-- Node19 -->
<g id="Node000019" class="node">
<title>Node19</title>
<g id="a_Node000019"><a xlink:title=" ">
<polygon fill="#e0e0e0" stroke="#999999" points="770,-129 722,-129 722,-110 770,-110 770,-129"/>
<text text-anchor="middle" x="746" y="-117" font-family="Helvetica,sans-Serif" font-size="10.00">mutex</text>
</a>
</g>
</g>
<!-- Node18&#45;&gt;Node19 -->
<g id="edge33_Node000018_Node000019" class="edge">
<title>Node18&#45;&gt;Node19</title>
<g id="a_edge33_Node000018_Node000019"><a xlink:title=" ">
<path fill="none" stroke="#63b8ff" d="M671.3,-164.98C685.1,-156.77 706.24,-144.18 722.51,-134.49"/>
<polygon fill="#63b8ff" stroke="#63b8ff" points="724.64,-137.29 731.44,-129.17 721.06,-131.28 724.64,-137.29"/>
</a>
</g>
</g>
<!-- Node18&#45;&gt;Node20 -->
<g id="edge38_Node000018_Node000020" class="edge">
<title>Node18&#45;&gt;Node20</title>
<g id="a_edge38_Node000018_Node000020"><a xlink:title=" ">
<path fill="none" stroke="#63b8ff" d="M587.32,-166.76C476.23,-156.02 261.4,-135.24 161.92,-125.62"/>
<polygon fill="#63b8ff" stroke="#63b8ff" points="162.09,-122.12 151.8,-124.64 161.42,-129.09 162.09,-122.12"/>
</a>
</g>
</g>
<!-- Node21 -->
<g id="Node000021" class="node">
<title>Node21</title>
<g id="a_Node000021"><a xlink:href="evaluate_8h.html" target="_top" xlink:title=" ">
<polygon fill="white" stroke="#666666" points="704,-129 586,-129 586,-110 704,-110 704,-129"/>
<text text-anchor="middle" x="645" y="-117" font-family="Helvetica,sans-Serif" font-size="10.00">Evaluator/evaluate.h</text>
</a>
</g>
</g>
<!-- Node18&#45;&gt;Node21 -->
<g id="edge41_Node000018_Node000021" class="edge">
<title>Node18&#45;&gt;Node21</title>
<g id="a_edge41_Node000018_Node000021"><a xlink:title=" ">
<path fill="none" stroke="#63b8ff" d="M655.02,-164.75C653.43,-157.72 651.14,-147.62 649.15,-138.84"/>
<polygon fill="#63b8ff" stroke="#63b8ff" points="652.57,-138.07 646.94,-129.09 645.74,-139.62 652.57,-138.07"/>
</a>
</g>
</g>
<!-- Node20&#45;&gt;Node3 -->
<g id="edge39_Node000020_Node000003" class="edge">
<title>Node20&#45;&gt;Node3</title>
<g id="a_edge39_Node000020_Node000003"><a xlink:title=" ">
<path fill="none" stroke="#63b8ff" d="M121.92,-109.97C141.81,-97.06 181.36,-72.23 217,-55 244.49,-41.71 277.04,-29.42 300.49,-21.13"/>
<polygon fill="#63b8ff" stroke="#63b8ff" points="301.64,-24.44 309.93,-17.84 299.34,-17.83 301.64,-24.44"/>
</a>
</g>
</g>
<!-- Node20&#45;&gt;Node16 -->
<g id="edge40_Node000020_Node000016" class="edge">
<title>Node20&#45;&gt;Node16</title>
<g id="a_edge40_Node000020_Node000016"><a xlink:title=" ">
<path fill="none" stroke="#63b8ff" d="M132.62,-109.98C156.9,-101.23 194.95,-87.51 222.37,-77.62"/>
<polygon fill="#63b8ff" stroke="#63b8ff" points="223.73,-80.85 231.95,-74.17 221.36,-74.27 223.73,-80.85"/>
</a>
</g>
</g>
<!-- Node21&#45;&gt;Node3 -->
<g id="edge44_Node000021_Node000003" class="edge">
<title>Node21&#45;&gt;Node3</title>
<g id="a_edge44_Node000021_Node000003"><a xlink:title=" ">
<path fill="none" stroke="#63b8ff" d="M644.99,-109.99C644.49,-96.17 641.33,-68.98 625,-55 586.33,-21.88 432.33,-13.37 364.44,-11.22"/>
<polygon fill="#63b8ff" stroke="#63b8ff" points="364.41,-7.72 354.31,-10.92 364.2,-14.71 364.41,-7.72"/>
</a>
</g>
</g>
<!-- Node21&#45;&gt;Node4 -->
<g id="edge43_Node000021_Node000004" class="edge">
<title>Node21&#45;&gt;Node4</title>
<g id="a_edge43_Node000021_Node000004"><a xlink:title=" ">
<path fill="none" stroke="#63b8ff" d="M658.65,-109.84C681.02,-96.04 727.27,-69.21 770,-55 790.78,-48.09 927.34,-26.06 992.07,-15.82"/>
<polygon fill="#63b8ff" stroke="#63b8ff" points="992.85,-19.24 1002.18,-14.23 991.76,-12.33 992.85,-19.24"/>
</a>
</g>
</g>
<!-- Node21&#45;&gt;Node8 -->
<g id="edge46_Node000021_Node000008" class="edge">
<title>Node21&#45;&gt;Node8</title>
<g id="a_edge46_Node000021_Node000008"><a xlink:title=" ">
<path fill="none" stroke="#63b8ff" d="M636.91,-109.75C629.84,-102.11 619.41,-90.82 610.85,-81.56"/>
<polygon fill="#63b8ff" stroke="#63b8ff" points="613.3,-79.06 603.94,-74.09 608.16,-83.81 613.3,-79.06"/>
</a>
</g>
</g>
<!-- Node21&#45;&gt;Node10 -->
<g id="edge42_Node000021_Node000010" class="edge">
<title>Node21&#45;&gt;Node10</title>
<g id="a_edge42_Node000021_Node000010"><a xlink:title=" ">
<path fill="none" stroke="#63b8ff" d="M704.33,-111C707.26,-110.65 710.16,-110.32 713,-110 867.41,-92.65 1052.29,-75.29 1126.16,-68.49"/>
<polygon fill="#63b8ff" stroke="#63b8ff" points="1126.6,-71.97 1136.24,-67.57 1125.96,-65 1126.6,-71.97"/>
</a>
</g>
</g>
<!-- Node21&#45;&gt;Node11 -->
<g id="edge45_Node000021_Node000011" class="edge">
<title>Node21&#45;&gt;Node11</title>
<g id="a_edge45_Node000021_Node000011"><a xlink:title=" ">
<path fill="none" stroke="#63b8ff" d="M625.72,-109.98C606.33,-101.42 576.19,-88.11 553.93,-78.28"/>
<polygon fill="#63b8ff" stroke="#63b8ff" points="555.19,-75.01 544.63,-74.17 552.36,-81.41 555.19,-75.01"/>
</a>
</g>
</g>
<!-- Node21&#45;&gt;Node14 -->
<g id="edge47_Node000021_Node000014" class="edge">
<title>Node21&#45;&gt;Node14</title>
<g id="a_edge47_Node000021_Node000014"><a xlink:title=" ">
<path fill="none" stroke="#63b8ff" d="M669.58,-109.98C696.78,-100.56 740.57,-85.39 769.32,-75.44"/>
<polygon fill="#63b8ff" stroke="#63b8ff" points="770.5,-78.73 778.81,-72.15 768.21,-72.11 770.5,-78.73"/>
</a>
</g>
</g>
<!-- Node21&#45;&gt;Node17 -->
<g id="edge48_Node000021_Node000017" class="edge">
<title>Node21&#45;&gt;Node17</title>
<g id="a_edge48_Node000021_Node000017"><a xlink:title=" ">
<path fill="none" stroke="#63b8ff" d="M687.9,-109.98C734.37,-100.76 808.59,-86.03 858.76,-76.07"/>
<polygon fill="#63b8ff" stroke="#63b8ff" points="859.64,-79.46 868.77,-74.08 858.28,-72.6 859.64,-79.46"/>
</a>
</g>
</g>
<!-- Node22&#45;&gt;Node5 -->
<g id="edge54_Node000022_Node000005" class="edge">
<title>Node22&#45;&gt;Node5</title>
<g id="a_edge54_Node000022_Node000005"><a xlink:title=" ">
<path fill="none" stroke="#63b8ff" d="M881.22,-384.84C856.17,-366.44 797.36,-323.23 766.2,-300.34"/>
<polygon fill="#63b8ff" stroke="#63b8ff" points="767.97,-297.3 757.84,-294.2 763.82,-302.94 767.97,-297.3"/>
</a>
</g>
</g>
<!-- Node22&#45;&gt;Node10 -->
<g id="edge53_Node000022_Node000010" class="edge">
<title>Node22&#45;&gt;Node10</title>
<g id="a_edge53_Node000022_Node000010"><a xlink:title=" ">
<path fill="none" stroke="#63b8ff" d="M963.1,-393.06C1102.46,-390.27 1401,-373.97 1401,-285.5 1401,-285.5 1401,-285.5 1401,-173.5 1401,-83.07 1258.34,-67.84 1192.08,-65.64"/>
<polygon fill="#63b8ff" stroke="#63b8ff" points="1191.85,-62.13 1181.77,-65.38 1191.68,-69.13 1191.85,-62.13"/>
</a>
</g>
</g>
<!-- Node23 -->
<g id="Node000023" class="node">
<title>Node23</title>
<g id="a_Node000023"><a xlink:href="simulator_8h.html" target="_top" xlink:title=" ">
<polygon fill="white" stroke="#666666" points="990,-349 868,-349 868,-330 990,-330 990,-349"/>
<text text-anchor="middle" x="929" y="-337" font-family="Helvetica,sans-Serif" font-size="10.00">Simulator/simulator.h</text>
</a>
</g>
</g>
<!-- Node22&#45;&gt;Node23 -->
<g id="edge55_Node000022_Node000023" class="edge">
<title>Node22&#45;&gt;Node23</title>
<g id="a_edge55_Node000022_Node000023"><a xlink:title=" ">
<path fill="none" stroke="#63b8ff" d="M898.94,-384.75C903.98,-377.34 911.34,-366.5 917.51,-357.41"/>
<polygon fill="#63b8ff" stroke="#63b8ff" points="920.44,-359.33 923.17,-349.09 914.65,-355.39 920.44,-359.33"/>
</a>
</g>
</g>
<!-- Node23&#45;&gt;Node5 -->
<g id="edge59_Node000023_Node000005" class="edge">
<title>Node23&#45;&gt;Node5</title>
<g id="a_edge59_Node000023_Node000005"><a xlink:title=" ">
<path fill="none" stroke="#63b8ff" d="M899.6,-329.98C868.61,-321.01 819.62,-306.82 785.33,-296.89"/>
<polygon fill="#63b8ff" stroke="#63b8ff" points="786.21,-293.5 775.63,-294.08 784.26,-300.23 786.21,-293.5"/>
</a>
</g>
</g>
<!-- Node23&#45;&gt;Node6 -->
<g id="edge56_Node000023_Node000006" class="edge">
<title>Node23&#45;&gt;Node6</title>
<g id="a_edge56_Node000023_Node000006"><a xlink:title=" ">
<path fill="none" stroke="#63b8ff" d="M952.32,-329.99C999.52,-311.47 1106.16,-262.73 1157,-184 1165.63,-170.64 1168.07,-152.53 1168.53,-139.07"/>
<polygon fill="#63b8ff" stroke="#63b8ff" points="1172.03,-139.07 1168.54,-129.06 1165.03,-139.06 1172.03,-139.07"/>
</a>
</g>
</g>
<!-- Node23&#45;&gt;Node10 -->
<g id="edge57_Node000023_Node000010" class="edge">
<title>Node23&#45;&gt;Node10</title>
<g id="a_edge57_Node000023_Node000010"><a xlink:title=" ">
<path fill="none" stroke="#63b8ff" d="M990.26,-335.97C1109.89,-329.36 1363,-306.4 1363,-230.5 1363,-230.5 1363,-230.5 1363,-173.5 1363,-96.92 1249.32,-74.49 1191.68,-68.04"/>
<polygon fill="#63b8ff" stroke="#63b8ff" points="1191.91,-64.54 1181.61,-67.01 1191.2,-71.51 1191.91,-64.54"/>
</a>
</g>
</g>
<!-- Node23&#45;&gt;Node12 -->
<g id="edge60_Node000023_Node000012" class="edge">
<title>Node23&#45;&gt;Node12</title>
<g id="a_edge60_Node000023_Node000012"><a xlink:title=" ">
<path fill="none" stroke="#63b8ff" d="M929,-329.66C929,-312.17 929,-272.8 929,-249.27"/>
<polygon fill="#63b8ff" stroke="#63b8ff" points="932.5,-249.16 929,-239.16 925.5,-249.16 932.5,-249.16"/>
</a>
</g>
</g>
<!-- Node23&#45;&gt;Node17 -->
<g id="edge58_Node000023_Node000017" class="edge">
<title>Node23&#45;&gt;Node17</title>
<g id="a_edge58_Node000023_Node000017"><a xlink:title=" ">
<path fill="none" stroke="#63b8ff" d="M990.14,-332.74C1092.38,-321.4 1287,-291.77 1287,-230.5 1287,-230.5 1287,-230.5 1287,-173.5 1287,-127.76 1248,-128.13 1206,-110 1127.48,-76.1 1027.47,-67.44 966.66,-65.55"/>
<polygon fill="#63b8ff" stroke="#63b8ff" points="966.6,-62.05 956.51,-65.29 966.41,-69.05 966.6,-62.05"/>
</a>
</g>
</g>
<!-- Node23&#45;&gt;Node18 -->
<g id="edge61_Node000023_Node000018" class="edge">
<title>Node23&#45;&gt;Node18</title>
<g id="a_edge61_Node000023_Node000018"><a xlink:title=" ">
<path fill="none" stroke="#63b8ff" d="M914.76,-329.97C870.43,-303.4 734.61,-222.01 680.05,-189.31"/>
<polygon fill="#63b8ff" stroke="#63b8ff" points="681.8,-186.28 671.43,-184.15 678.21,-192.29 681.8,-186.28"/>
</a>
</g>
</g>
</g>
</svg>
