<?xml version="1.0" encoding="UTF-8" standalone="no"?>
<!DOCTYPE svg PUBLIC "-//W3C//DTD SVG 1.1//EN"
 "http://www.w3.org/Graphics/SVG/1.1/DTD/svg11.dtd">
<!-- Generated by graphviz version 2.43.0 (0)
 -->
<!-- Title: src/Drivers/transDriverModel.cpp Pages: 1 -->
<!--zoomable 522 -->

<svg id="main" version="1.1" xmlns="http://www.w3.org/2000/svg" xmlns:xlink="http://www.w3.org/1999/xlink" xml:space="preserve" onload="init(evt)">
<style type="text/css"><![CDATA[
.node, .edge {opacity: 0.7;}
.node.selected, .edge.selected {opacity: 1;}
.edge:hover path { stroke: red; }
.edge:hover polygon { stroke: red; fill: red; }
]]></style>

<defs>
  <circle id="rim" cx="0" cy="0" r="7"/>
  <circle id="rim2" cx="0" cy="0" r="3.5"/>
  <g id="zoomPlus">
    <use xlink:href="#rim" fill="#404040"><set attributeName="fill" to="#808080" begin="zoomplus.mouseover" end="zoomplus.mouseout"/></use>
    <path d="M-4,0h8M0,-4v8" fill="none" stroke="white" stroke-width="1.5" pointer-events="none"/>
  </g>
  <g id="zoomMin">
    <use xlink:href="#rim" fill="#404040"><set attributeName="fill" to="#808080" begin="zoomminus.mouseover" end="zoomminus.mouseout"/></use>
    <path d="M-4,0h8" fill="none" stroke="white" stroke-width="1.5" pointer-events="none"/>
  </g>
  <g id="arrowUp" transform="translate(30 24)">
    <use xlink:href="#rim"/>
    <path pointer-events="none" fill="none" stroke="white" stroke-width="1.5" d="M0,-3.0v7 M-2.5,-0.5L0,-3.0L2.5,-0.5"/>
  </g>
  <g id="arrowRight" transform="rotate(90) translate(36 -43)">
    <use xlink:href="#rim"/>
    <path pointer-events="none" fill="none" stroke="white" stroke-width="1.5" d="M0,-3.0v7 M-2.5,-0.5L0,-3.0L2.5,-0.5"/>
  </g>
  <g id="arrowDown" transform="rotate(180) translate(-30 -48)">
    <use xlink:href="#rim"/>
    <path pointer-events="none" fill="none" stroke="white" stroke-width="1.5" d="M0,-3.0v7 M-2.5,-0.5L0,-3.0L2.5,-0.5"/>
  </g>
  <g id="arrowLeft" transform="rotate(270) translate(-36 17)">
    <use xlink:href="#rim"/>
    <path pointer-events="none" fill="none" stroke="white" stroke-width="1.5" d="M0,-3.0v7 M-2.5,-0.5L0,-3.0L2.5,-0.5"/>
  </g>
  <g id="resetDef">
    <use xlink:href="#rim2" fill="#404040"><set attributeName="fill" to="#808080" begin="reset.mouseover" end="reset.mouseout"/></use>
  </g>
</defs>
<script type="application/ecmascript">
var viewWidth = 1300;
var viewHeight = 522;
var sectionId = 'dynsection-0';
</script>
<script type="application/ecmascript" xlink:href="svg.min.js"/>
<svg id="graph" class="graph">
<g id="viewport">
<title>src/Drivers/transDriverModel.cpp</title>
<!-- Node1 -->
<g id="Node000001" class="node">
<title>Node1</title>
<g id="a_Node000001"><a xlink:title=" ">
<polygon fill="#999999" stroke="#666666" points="477.5,-514 300.5,-514 300.5,-495 477.5,-495 477.5,-514"/>
<text text-anchor="middle" x="389" y="-502" font-family="Helvetica,sans-Serif" font-size="10.00">src/Drivers/transDriverModel.cpp</text>
</a>
</g>
</g>
<!-- Node2 -->
<g id="Node000002" class="node">
<title>Node2</title>
<g id="a_Node000002"><a xlink:href="transDriverModel_8h.html" target="_top" xlink:title=" ">
<polygon fill="white" stroke="#666666" points="463.5,-459 314.5,-459 314.5,-440 463.5,-440 463.5,-459"/>
<text text-anchor="middle" x="389" y="-447" font-family="Helvetica,sans-Serif" font-size="10.00">Drivers/transDriverModel.h</text>
</a>
</g>
</g>
<!-- Node1&#45;&gt;Node2 -->
<g id="edge1_Node000001_Node000002" class="edge">
<title>Node1&#45;&gt;Node2</title>
<g id="a_edge1_Node000001_Node000002"><a xlink:title=" ">
<path fill="none" stroke="#63b8ff" d="M389,-494.75C389,-487.8 389,-477.85 389,-469.13"/>
<polygon fill="#63b8ff" stroke="#63b8ff" points="392.5,-469.09 389,-459.09 385.5,-469.09 392.5,-469.09"/>
</a>
</g>
</g>
<!-- Node3 -->
<g id="Node000003" class="node">
<title>Node3</title>
<g id="a_Node000003"><a xlink:title=" ">
<polygon fill="#e0e0e0" stroke="#999999" points="944,-19 900,-19 900,0 944,0 944,-19"/>
<text text-anchor="middle" x="922" y="-7" font-family="Helvetica,sans-Serif" font-size="10.00">string</text>
</a>
</g>
</g>
<!-- Node2&#45;&gt;Node3 -->
<g id="edge2_Node000002_Node000003" class="edge">
<title>Node2&#45;&gt;Node3</title>
<g id="a_edge2_Node000002_Node000003"><a xlink:title=" ">
<path fill="none" stroke="#63b8ff" d="M463.87,-446.96C674.01,-441.65 1254,-419.81 1254,-340.5 1254,-340.5 1254,-340.5 1254,-118.5 1254,-70.63 1211,-73.87 1167,-55 1095.16,-24.19 1002.57,-14.7 954.39,-11.79"/>
<polygon fill="#63b8ff" stroke="#63b8ff" points="954.42,-8.29 944.25,-11.23 954.04,-15.27 954.42,-8.29"/>
</a>
</g>
</g>
<!-- Node4 -->
<g id="Node000004" class="node">
<title>Node4</title>
<g id="a_Node000004"><a xlink:title=" ">
<polygon fill="#e0e0e0" stroke="#999999" points="365.5,-19 318.5,-19 318.5,0 365.5,0 365.5,-19"/>
<text text-anchor="middle" x="342" y="-7" font-family="Helvetica,sans-Serif" font-size="10.00">vector</text>
</a>
</g>
</g>
<!-- Node2&#45;&gt;Node4 -->
<g id="edge3_Node000002_Node000004" class="edge">
<title>Node2&#45;&gt;Node4</title>
<g id="a_edge3_Node000002_Node000004"><a xlink:title=" ">
<path fill="none" stroke="#63b8ff" d="M314.46,-443.02C201.5,-432.64 0,-405.07 0,-340.5 0,-340.5 0,-340.5 0,-118.5 0,-54.24 222.3,-23.4 308.45,-13.86"/>
<polygon fill="#63b8ff" stroke="#63b8ff" points="308.93,-17.33 318.49,-12.77 308.18,-10.37 308.93,-17.33"/>
</a>
</g>
</g>
<!-- Node5 -->
<g id="Node000005" class="node">
<title>Node5</title>
<g id="a_Node000005"><a xlink:href="driverModel_8h.html" target="_top" xlink:title=" ">
<polygon fill="white" stroke="#666666" points="1002,-294 880,-294 880,-275 1002,-275 1002,-294"/>
<text text-anchor="middle" x="941" y="-282" font-family="Helvetica,sans-Serif" font-size="10.00">Drivers/driverModel.h</text>
</a>
</g>
</g>
<!-- Node2&#45;&gt;Node5 -->
<g id="edge4_Node000002_Node000005" class="edge">
<title>Node2&#45;&gt;Node5</title>
<g id="a_edge4_Node000002_Node000005"><a xlink:title=" ">
<path fill="none" stroke="#63b8ff" d="M417.9,-439.97C510.11,-412.74 797.36,-327.91 902.2,-296.96"/>
<polygon fill="#63b8ff" stroke="#63b8ff" points="903.45,-300.24 912.05,-294.05 901.47,-293.52 903.45,-300.24"/>
</a>
</g>
</g>
<!-- Node17 -->
<g id="Node000017" class="node">
<title>Node17</title>
<g id="a_Node000017"><a xlink:href="transaction_8h_source.html" target="_top" xlink:title=" ">
<polygon fill="white" stroke="#666666" points="553.5,-184 414.5,-184 414.5,-165 553.5,-165 553.5,-184"/>
<text text-anchor="middle" x="484" y="-172" font-family="Helvetica,sans-Serif" font-size="10.00">Transaction/transaction.h</text>
</a>
</g>
</g>
<!-- Node2&#45;&gt;Node17 -->
<g id="edge59_Node000002_Node000017" class="edge">
<title>Node2&#45;&gt;Node17</title>
<g id="a_edge59_Node000002_Node000017"><a xlink:title=" ">
<path fill="none" stroke="#63b8ff" d="M314.34,-444.89C244.87,-437.02 152,-412.96 152,-340.5 152,-340.5 152,-340.5 152,-283.5 152,-230.61 306.27,-199.64 404.49,-185.29"/>
<polygon fill="#63b8ff" stroke="#63b8ff" points="405,-188.75 414.4,-183.87 404.01,-181.82 405,-188.75"/>
</a>
</g>
</g>
<!-- Node22 -->
<g id="Node000022" class="node">
<title>Node22</title>
<g id="a_Node000022"><a xlink:href="simulatorDriver_8h.html" target="_top" xlink:title=" ">
<polygon fill="white" stroke="#666666" points="459,-404 319,-404 319,-385 459,-385 459,-404"/>
<text text-anchor="middle" x="389" y="-392" font-family="Helvetica,sans-Serif" font-size="10.00">Drivers/simulatorDriver.h</text>
</a>
</g>
</g>
<!-- Node2&#45;&gt;Node22 -->
<g id="edge49_Node000002_Node000022" class="edge">
<title>Node2&#45;&gt;Node22</title>
<g id="a_edge49_Node000002_Node000022"><a xlink:title=" ">
<path fill="none" stroke="#63b8ff" d="M389,-439.75C389,-432.8 389,-422.85 389,-414.13"/>
<polygon fill="#63b8ff" stroke="#63b8ff" points="392.5,-414.09 389,-404.09 385.5,-414.09 392.5,-414.09"/>
</a>
</g>
</g>
<!-- Node5&#45;&gt;Node3 -->
<g id="edge7_Node000005_Node000003" class="edge">
<title>Node5&#45;&gt;Node3</title>
<g id="a_edge7_Node000005_Node000003"><a xlink:title=" ">
<path fill="none" stroke="#63b8ff" d="M1002.03,-281.26C1072.25,-275.03 1178,-252.82 1178,-175.5 1178,-175.5 1178,-175.5 1178,-118.5 1178,-22.57 1023.52,-10.51 954.57,-9.9"/>
<polygon fill="#63b8ff" stroke="#63b8ff" points="954.27,-6.4 944.27,-9.89 954.27,-13.4 954.27,-6.4"/>
</a>
</g>
</g>
<!-- Node6 -->
<g id="Node000006" class="node">
<title>Node6</title>
<g id="a_Node000006"><a xlink:title=" ">
<polygon fill="#e0e0e0" stroke="#999999" points="1008,-129 950,-129 950,-110 1008,-110 1008,-129"/>
<text text-anchor="middle" x="979" y="-117" font-family="Helvetica,sans-Serif" font-size="10.00">memory</text>
</a>
</g>
</g>
<!-- Node5&#45;&gt;Node6 -->
<g id="edge5_Node000005_Node000006" class="edge">
<title>Node5&#45;&gt;Node6</title>
<g id="a_edge5_Node000005_Node000006"><a xlink:title=" ">
<path fill="none" stroke="#63b8ff" d="M943.04,-274.74C949,-249.2 966.43,-174.43 974.63,-139.23"/>
<polygon fill="#63b8ff" stroke="#63b8ff" points="978.08,-139.84 976.95,-129.31 971.27,-138.25 978.08,-139.84"/>
</a>
</g>
</g>
<!-- Node7 -->
<g id="Node000007" class="node">
<title>Node7</title>
<g id="a_Node000007"><a xlink:title=" ">
<polygon fill="#e0e0e0" stroke="#999999" points="856,-129 800,-129 800,-110 856,-110 856,-129"/>
<text text-anchor="middle" x="828" y="-117" font-family="Helvetica,sans-Serif" font-size="10.00">optional</text>
</a>
</g>
</g>
<!-- Node5&#45;&gt;Node7 -->
<g id="edge6_Node000005_Node000007" class="edge">
<title>Node5&#45;&gt;Node7</title>
<g id="a_edge6_Node000005_Node000007"><a xlink:title=" ">
<path fill="none" stroke="#63b8ff" d="M934.92,-274.74C916.99,-248.87 864.04,-172.48 840.05,-137.88"/>
<polygon fill="#63b8ff" stroke="#63b8ff" points="842.68,-135.53 834.11,-129.31 836.93,-139.52 842.68,-135.53"/>
</a>
</g>
</g>
<!-- Node8 -->
<g id="Node000008" class="node">
<title>Node8</title>
<g id="a_Node000008"><a xlink:title=" ">
<polygon fill="#e0e0e0" stroke="#999999" points="1262.5,-19 1169.5,-19 1169.5,0 1262.5,0 1262.5,-19"/>
<text text-anchor="middle" x="1216" y="-7" font-family="Helvetica,sans-Serif" font-size="10.00">unordered_map</text>
</a>
</g>
</g>
<!-- Node5&#45;&gt;Node8 -->
<g id="edge8_Node000005_Node000008" class="edge">
<title>Node5&#45;&gt;Node8</title>
<g id="a_edge8_Node000005_Node000008"><a xlink:title=" ">
<path fill="none" stroke="#63b8ff" d="M1002.14,-277.37C1102.7,-265.58 1292,-235.43 1292,-175.5 1292,-175.5 1292,-175.5 1292,-118.5 1292,-88.33 1285.34,-79.69 1268,-55 1259.89,-43.45 1248.12,-33.04 1237.82,-25.2"/>
<polygon fill="#63b8ff" stroke="#63b8ff" points="1239.78,-22.3 1229.63,-19.25 1235.66,-27.96 1239.78,-22.3"/>
</a>
</g>
</g>
<!-- Node9 -->
<g id="Node000009" class="node">
<title>Node9</title>
<g id="a_Node000009"><a xlink:title=" ">
<polygon fill="#e0e0e0" stroke="#999999" points="148.5,-74 103.5,-74 103.5,-55 148.5,-55 148.5,-74"/>
<text text-anchor="middle" x="126" y="-62" font-family="Helvetica,sans-Serif" font-size="10.00">utility</text>
</a>
</g>
</g>
<!-- Node5&#45;&gt;Node9 -->
<g id="edge9_Node000005_Node000009" class="edge">
<title>Node5&#45;&gt;Node9</title>
<g id="a_edge9_Node000005_Node000009"><a xlink:title=" ">
<path fill="none" stroke="#63b8ff" d="M879.91,-281.41C784.96,-277.42 596.51,-266.5 439,-239 344.38,-222.48 316.95,-224.81 230,-184 191.93,-166.13 179.32,-161.8 153,-129 142.23,-115.58 135.05,-97.24 130.82,-83.71"/>
<polygon fill="#63b8ff" stroke="#63b8ff" points="134.18,-82.73 128.04,-74.09 127.45,-84.67 134.18,-82.73"/>
</a>
</g>
</g>
<!-- Node10 -->
<g id="Node000010" class="node">
<title>Node10</title>
<g id="a_Node000010"><a xlink:title=" ">
<polygon fill="#e0e0e0" stroke="#999999" points="766.5,-74 701.5,-74 701.5,-55 766.5,-55 766.5,-74"/>
<text text-anchor="middle" x="734" y="-62" font-family="Helvetica,sans-Serif" font-size="10.00">functional</text>
</a>
</g>
</g>
<!-- Node5&#45;&gt;Node10 -->
<g id="edge10_Node000005_Node000010" class="edge">
<title>Node5&#45;&gt;Node10</title>
<g id="a_edge10_Node000005_Node000010"><a xlink:title=" ">
<path fill="none" stroke="#63b8ff" d="M950.57,-274.97C979.68,-247.99 1062.52,-163.24 1017,-110 986.58,-74.42 847.88,-67.1 776.59,-65.72"/>
<polygon fill="#63b8ff" stroke="#63b8ff" points="776.64,-62.23 766.58,-65.56 776.52,-69.22 776.64,-62.23"/>
</a>
</g>
</g>
<!-- Node11 -->
<g id="Node000011" class="node">
<title>Node11</title>
<g id="a_Node000011"><a xlink:href="channel_8h.html" target="_top" xlink:title=" ">
<polygon fill="white" stroke="#666666" points="699.5,-239 592.5,-239 592.5,-220 699.5,-220 699.5,-239"/>
<text text-anchor="middle" x="646" y="-227" font-family="Helvetica,sans-Serif" font-size="10.00">Channel/channel.h</text>
</a>
</g>
</g>
<!-- Node5&#45;&gt;Node11 -->
<g id="edge11_Node000005_Node000011" class="edge">
<title>Node5&#45;&gt;Node11</title>
<g id="a_edge11_Node000005_Node000011"><a xlink:title=" ">
<path fill="none" stroke="#63b8ff" d="M893.6,-274.98C841.93,-265.7 759.23,-250.84 703.79,-240.88"/>
<polygon fill="#63b8ff" stroke="#63b8ff" points="704.23,-237.41 693.77,-239.08 702.99,-244.3 704.23,-237.41"/>
</a>
</g>
</g>
<!-- Node16 -->
<g id="Node000016" class="node">
<title>Node16</title>
<g id="a_Node000016"><a xlink:href="types_8h.html" target="_top" xlink:title=" ">
<polygon fill="white" stroke="#666666" points="475.5,-74 386.5,-74 386.5,-55 475.5,-55 475.5,-74"/>
<text text-anchor="middle" x="431" y="-62" font-family="Helvetica,sans-Serif" font-size="10.00">Library/types.h</text>
</a>
</g>
</g>
<!-- Node5&#45;&gt;Node16 -->
<g id="edge47_Node000005_Node000016" class="edge">
<title>Node5&#45;&gt;Node16</title>
<g id="a_edge47_Node000005_Node000016"><a xlink:title=" ">
<path fill="none" stroke="#63b8ff" d="M879.87,-282.7C748.13,-279.46 444.8,-263.36 389,-184 383.17,-175.71 374.62,-148.36 390,-110 394.5,-98.77 403.25,-88.64 411.52,-80.89"/>
<polygon fill="#63b8ff" stroke="#63b8ff" points="413.91,-83.44 419.14,-74.23 409.31,-78.17 413.91,-83.44"/>
</a>
</g>
</g>
<!-- Node5&#45;&gt;Node17 -->
<g id="edge46_Node000005_Node000017" class="edge">
<title>Node5&#45;&gt;Node17</title>
<g id="a_edge46_Node000005_Node000017"><a xlink:title=" ">
<path fill="none" stroke="#63b8ff" d="M879.87,-284.05C807.04,-282.88 682.69,-275.05 583,-239 552,-227.79 520.73,-205.47 501.86,-190.5"/>
<polygon fill="#63b8ff" stroke="#63b8ff" points="503.84,-187.61 493.87,-184.02 499.43,-193.04 503.84,-187.61"/>
</a>
</g>
</g>
<!-- Node19 -->
<g id="Node000019" class="node">
<title>Node19</title>
<g id="a_Node000019"><a xlink:href="error_8h.html" target="_top" xlink:title=" ">
<polygon fill="white" stroke="#666666" points="1149.5,-129 1064.5,-129 1064.5,-110 1149.5,-110 1149.5,-129"/>
<text text-anchor="middle" x="1107" y="-117" font-family="Helvetica,sans-Serif" font-size="10.00">Library/error.h</text>
</a>
</g>
</g>
<!-- Node5&#45;&gt;Node19 -->
<g id="edge48_Node000005_Node000019" class="edge">
<title>Node5&#45;&gt;Node19</title>
<g id="a_edge48_Node000005_Node000019"><a xlink:title=" ">
<path fill="none" stroke="#63b8ff" d="M980.42,-274.93C1003.06,-268.31 1030.72,-257.14 1050,-239 1079.54,-211.2 1095.54,-164.89 1102.56,-139.17"/>
<polygon fill="#63b8ff" stroke="#63b8ff" points="1106.01,-139.79 1105.1,-129.23 1099.23,-138.05 1106.01,-139.79"/>
</a>
</g>
</g>
<!-- Node11&#45;&gt;Node3 -->
<g id="edge14_Node000011_Node000003" class="edge">
<title>Node11&#45;&gt;Node3</title>
<g id="a_edge14_Node000011_Node000003"><a xlink:title=" ">
<path fill="none" stroke="#63b8ff" d="M679.21,-219.96C708.01,-212.08 750.52,-199.31 786,-184 788.89,-182.75 883.01,-131.44 885,-129 908.95,-99.57 917.46,-54.58 920.44,-29.35"/>
<polygon fill="#63b8ff" stroke="#63b8ff" points="923.93,-29.57 921.45,-19.27 916.97,-28.87 923.93,-29.57"/>
</a>
</g>
</g>
<!-- Node11&#45;&gt;Node4 -->
<g id="edge19_Node000011_Node000004" class="edge">
<title>Node11&#45;&gt;Node4</title>
<g id="a_edge19_Node000011_Node000004"><a xlink:title=" ">
<path fill="none" stroke="#63b8ff" d="M592.39,-225.62C526.2,-221 418.71,-209.69 389,-184 343.2,-144.4 339.83,-65.18 340.88,-29.13"/>
<polygon fill="#63b8ff" stroke="#63b8ff" points="344.38,-29.19 341.33,-19.05 337.38,-28.88 344.38,-29.19"/>
</a>
</g>
</g>
<!-- Node11&#45;&gt;Node6 -->
<g id="edge13_Node000011_Node000006" class="edge">
<title>Node11&#45;&gt;Node6</title>
<g id="a_edge13_Node000011_Node000006"><a xlink:title=" ">
<path fill="none" stroke="#63b8ff" d="M686.29,-219.96C722.25,-211.95 776.17,-198.99 822,-184 867.9,-168.99 919.52,-147.11 950.63,-133.35"/>
<polygon fill="#63b8ff" stroke="#63b8ff" points="952.27,-136.45 959.98,-129.18 949.42,-130.05 952.27,-136.45"/>
</a>
</g>
</g>
<!-- Node11&#45;&gt;Node8 -->
<g id="edge16_Node000011_Node000008" class="edge">
<title>Node11&#45;&gt;Node8</title>
<g id="a_edge16_Node000011_Node000008"><a xlink:title=" ">
<path fill="none" stroke="#63b8ff" d="M699.9,-224.14C816.5,-213.75 1087.43,-184.2 1159,-129 1191.58,-103.87 1206.54,-55.38 1212.54,-28.88"/>
<polygon fill="#63b8ff" stroke="#63b8ff" points="1215.98,-29.51 1214.59,-19.01 1209.13,-28.09 1215.98,-29.51"/>
</a>
</g>
</g>
<!-- Node11&#45;&gt;Node9 -->
<g id="edge18_Node000011_Node000009" class="edge">
<title>Node11&#45;&gt;Node9</title>
<g id="a_edge18_Node000011_Node000009"><a xlink:title=" ">
<path fill="none" stroke="#63b8ff" d="M592.43,-227.19C521.79,-224.26 394.25,-214.76 290,-184 236.04,-168.08 219.86,-164.23 176,-129 159.82,-116.01 145.65,-96.84 136.57,-82.96"/>
<polygon fill="#63b8ff" stroke="#63b8ff" points="139.42,-80.93 131.13,-74.34 133.5,-84.67 139.42,-80.93"/>
</a>
</g>
</g>
<!-- Node12 -->
<g id="Node000012" class="node">
<title>Node12</title>
<g id="a_Node000012"><a xlink:title=" ">
<polygon fill="#e0e0e0" stroke="#999999" points="727.5,-184 674.5,-184 674.5,-165 727.5,-165 727.5,-184"/>
<text text-anchor="middle" x="701" y="-172" font-family="Helvetica,sans-Serif" font-size="10.00">iterator</text>
</a>
</g>
</g>
<!-- Node11&#45;&gt;Node12 -->
<g id="edge12_Node000011_Node000012" class="edge">
<title>Node11&#45;&gt;Node12</title>
<g id="a_edge12_Node000011_Node000012"><a xlink:title=" ">
<path fill="none" stroke="#63b8ff" d="M655.08,-219.75C663.09,-212.03 674.96,-200.6 684.62,-191.28"/>
<polygon fill="#63b8ff" stroke="#63b8ff" points="687.31,-193.55 692.09,-184.09 682.46,-188.51 687.31,-193.55"/>
</a>
</g>
</g>
<!-- Node13 -->
<g id="Node000013" class="node">
<title>Node13</title>
<g id="a_Node000013"><a xlink:title=" ">
<polygon fill="#e0e0e0" stroke="#999999" points="683.5,-74 642.5,-74 642.5,-55 683.5,-55 683.5,-74"/>
<text text-anchor="middle" x="663" y="-62" font-family="Helvetica,sans-Serif" font-size="10.00">tuple</text>
</a>
</g>
</g>
<!-- Node11&#45;&gt;Node13 -->
<g id="edge15_Node000011_Node000013" class="edge">
<title>Node11&#45;&gt;Node13</title>
<g id="a_edge15_Node000011_Node000013"><a xlink:title=" ">
<path fill="none" stroke="#63b8ff" d="M666.36,-219.96C719.57,-197.53 859.15,-138.08 865,-129 922.59,-39.58 992.93,-147.3 693.43,-74.19"/>
<polygon fill="#63b8ff" stroke="#63b8ff" points="694.09,-70.74 683.54,-71.74 692.41,-77.54 694.09,-70.74"/>
</a>
</g>
</g>
<!-- Node14 -->
<g id="Node000014" class="node">
<title>Node14</title>
<g id="a_Node000014"><a xlink:title=" ">
<polygon fill="#e0e0e0" stroke="#999999" points="548,-74 510,-74 510,-55 548,-55 548,-74"/>
<text text-anchor="middle" x="529" y="-62" font-family="Helvetica,sans-Serif" font-size="10.00">map</text>
</a>
</g>
</g>
<!-- Node11&#45;&gt;Node14 -->
<g id="edge17_Node000011_Node000014" class="edge">
<title>Node11&#45;&gt;Node14</title>
<g id="a_edge17_Node000011_Node000014"><a xlink:title=" ">
<path fill="none" stroke="#63b8ff" d="M645.16,-219.96C643.53,-207.03 638.98,-182.18 627,-165 611.75,-143.13 598.08,-147.63 579,-129 564.32,-114.66 550.09,-95.98 540.6,-82.6"/>
<polygon fill="#63b8ff" stroke="#63b8ff" points="543.41,-80.51 534.83,-74.3 537.66,-84.51 543.41,-80.51"/>
</a>
</g>
</g>
<!-- Node15 -->
<g id="Node000015" class="node">
<title>Node15</title>
<g id="a_Node000015"><a xlink:title=" ">
<polygon fill="#e0e0e0" stroke="#999999" points="618,-184 572,-184 572,-165 618,-165 618,-184"/>
<text text-anchor="middle" x="595" y="-172" font-family="Helvetica,sans-Serif" font-size="10.00">future</text>
</a>
</g>
</g>
<!-- Node11&#45;&gt;Node15 -->
<g id="edge20_Node000011_Node000015" class="edge">
<title>Node11&#45;&gt;Node15</title>
<g id="a_edge20_Node000011_Node000015"><a xlink:title=" ">
<path fill="none" stroke="#63b8ff" d="M637.58,-219.75C630.23,-212.11 619.37,-200.82 610.46,-191.56"/>
<polygon fill="#63b8ff" stroke="#63b8ff" points="612.72,-188.87 603.26,-184.09 607.68,-193.72 612.72,-188.87"/>
</a>
</g>
</g>
<!-- Node11&#45;&gt;Node16 -->
<g id="edge21_Node000011_Node000016" class="edge">
<title>Node11&#45;&gt;Node16</title>
<g id="a_edge21_Node000011_Node000016"><a xlink:title=" ">
<path fill="none" stroke="#63b8ff" d="M592.4,-225.88C529.26,-221.59 429.79,-210.7 405,-184 382.55,-159.82 388.88,-141.41 399,-110 402.34,-99.62 409.1,-89.62 415.55,-81.74"/>
<polygon fill="#63b8ff" stroke="#63b8ff" points="418.29,-83.92 422.25,-74.1 413.03,-79.31 418.29,-83.92"/>
</a>
</g>
</g>
<!-- Node11&#45;&gt;Node17 -->
<g id="edge25_Node000011_Node000017" class="edge">
<title>Node11&#45;&gt;Node17</title>
<g id="a_edge25_Node000011_Node000017"><a xlink:title=" ">
<path fill="none" stroke="#63b8ff" d="M619.97,-219.98C592.89,-211.13 550.29,-197.19 519.99,-187.28"/>
<polygon fill="#63b8ff" stroke="#63b8ff" points="520.82,-183.87 510.23,-184.08 518.65,-190.52 520.82,-183.87"/>
</a>
</g>
</g>
<!-- Node16&#45;&gt;Node3 -->
<g id="edge24_Node000016_Node000003" class="edge">
<title>Node16&#45;&gt;Node3</title>
<g id="a_edge24_Node000016_Node000003"><a xlink:title=" ">
<path fill="none" stroke="#63b8ff" d="M475.8,-57.96C484.17,-56.95 492.85,-55.93 501,-55 645.83,-38.55 818.92,-20.88 889.57,-13.75"/>
<polygon fill="#63b8ff" stroke="#63b8ff" points="890.02,-17.23 899.62,-12.74 889.32,-10.26 890.02,-17.23"/>
</a>
</g>
</g>
<!-- Node16&#45;&gt;Node4 -->
<g id="edge22_Node000016_Node000004" class="edge">
<title>Node16&#45;&gt;Node4</title>
<g id="a_edge22_Node000016_Node000004"><a xlink:title=" ">
<path fill="none" stroke="#63b8ff" d="M416.7,-54.98C402.9,-46.77 381.76,-34.18 365.49,-24.49"/>
<polygon fill="#63b8ff" stroke="#63b8ff" points="366.94,-21.28 356.56,-19.17 363.36,-27.29 366.94,-21.28"/>
</a>
</g>
</g>
<!-- Node16&#45;&gt;Node8 -->
<g id="edge23_Node000016_Node000008" class="edge">
<title>Node16&#45;&gt;Node8</title>
<g id="a_edge23_Node000016_Node000008"><a xlink:title=" ">
<path fill="none" stroke="#63b8ff" d="M475.77,-57.67C484.14,-56.69 492.83,-55.75 501,-55 745.3,-32.58 1037.61,-18.29 1158.91,-12.91"/>
<polygon fill="#63b8ff" stroke="#63b8ff" points="1159.24,-16.4 1169.08,-12.47 1158.94,-9.41 1159.24,-16.4"/>
</a>
</g>
</g>
<!-- Node17&#45;&gt;Node3 -->
<g id="edge26_Node000017_Node000003" class="edge">
<title>Node17&#45;&gt;Node3</title>
<g id="a_edge26_Node000017_Node000003"><a xlink:title=" ">
<path fill="none" stroke="#63b8ff" d="M548.32,-164.99C611.07,-156.17 701.79,-141.89 735,-129 802.47,-102.82 871.86,-51.04 903.84,-25.49"/>
<polygon fill="#63b8ff" stroke="#63b8ff" points="906.26,-28.03 911.83,-19.02 901.86,-22.59 906.26,-28.03"/>
</a>
</g>
</g>
<!-- Node17&#45;&gt;Node4 -->
<g id="edge28_Node000017_Node000004" class="edge">
<title>Node17&#45;&gt;Node4</title>
<g id="a_edge28_Node000017_Node000004"><a xlink:title=" ">
<path fill="none" stroke="#63b8ff" d="M457.83,-164.85C439.45,-157.67 415.32,-145.89 399,-129 370.81,-99.83 354.29,-54.06 346.82,-28.79"/>
<polygon fill="#63b8ff" stroke="#63b8ff" points="350.16,-27.72 344.09,-19.04 343.42,-29.61 350.16,-27.72"/>
</a>
</g>
</g>
<!-- Node17&#45;&gt;Node6 -->
<g id="edge29_Node000017_Node000006" class="edge">
<title>Node17&#45;&gt;Node6</title>
<g id="a_edge29_Node000017_Node000006"><a xlink:title=" ">
<path fill="none" stroke="#63b8ff" d="M553.79,-165.99C556.9,-165.65 559.98,-165.32 563,-165 701.53,-150.14 866.02,-132.56 939.79,-124.69"/>
<polygon fill="#63b8ff" stroke="#63b8ff" points="940.43,-128.14 950,-123.6 939.68,-121.18 940.43,-128.14"/>
</a>
</g>
</g>
<!-- Node17&#45;&gt;Node7 -->
<g id="edge32_Node000017_Node000007" class="edge">
<title>Node17&#45;&gt;Node7</title>
<g id="a_edge32_Node000017_Node000007"><a xlink:title=" ">
<path fill="none" stroke="#63b8ff" d="M548.67,-164.99C609.93,-156.69 704.43,-143.25 786,-129 787.1,-128.81 788.21,-128.61 789.34,-128.41"/>
<polygon fill="#63b8ff" stroke="#63b8ff" points="790.4,-131.77 799.57,-126.47 789.1,-124.89 790.4,-131.77"/>
</a>
</g>
</g>
<!-- Node17&#45;&gt;Node9 -->
<g id="edge27_Node000017_Node000009" class="edge">
<title>Node17&#45;&gt;Node9</title>
<g id="a_edge27_Node000017_Node000009"><a xlink:title=" ">
<path fill="none" stroke="#63b8ff" d="M453.15,-164.96C421.62,-156.18 371.3,-141.98 328,-129 267.91,-110.99 198.17,-88.77 158.35,-75.96"/>
<polygon fill="#63b8ff" stroke="#63b8ff" points="159.25,-72.58 148.66,-72.84 157.1,-79.24 159.25,-72.58"/>
</a>
</g>
</g>
<!-- Node17&#45;&gt;Node10 -->
<g id="edge33_Node000017_Node000010" class="edge">
<title>Node17&#45;&gt;Node10</title>
<g id="a_edge33_Node000017_Node000010"><a xlink:title=" ">
<path fill="none" stroke="#63b8ff" d="M545.5,-165C609.59,-155.61 702.47,-140.33 715,-129 727.39,-117.79 731.84,-98.87 733.37,-84.59"/>
<polygon fill="#63b8ff" stroke="#63b8ff" points="736.88,-84.59 734.06,-74.37 729.89,-84.11 736.88,-84.59"/>
</a>
</g>
</g>
<!-- Node17&#45;&gt;Node14 -->
<g id="edge31_Node000017_Node000014" class="edge">
<title>Node17&#45;&gt;Node14</title>
<g id="a_edge31_Node000017_Node000014"><a xlink:title=" ">
<path fill="none" stroke="#63b8ff" d="M487.68,-164.66C495.04,-147.01 511.67,-107.09 521.44,-83.64"/>
<polygon fill="#63b8ff" stroke="#63b8ff" points="524.78,-84.74 525.39,-74.16 518.32,-82.04 524.78,-84.74"/>
</a>
</g>
</g>
<!-- Node17&#45;&gt;Node16 -->
<g id="edge34_Node000017_Node000016" class="edge">
<title>Node17&#45;&gt;Node16</title>
<g id="a_edge34_Node000017_Node000016"><a xlink:title=" ">
<path fill="none" stroke="#63b8ff" d="M482.46,-164.91C479.98,-152.35 474.41,-128.45 465,-110 459.87,-99.95 452.41,-89.87 445.78,-81.85"/>
<polygon fill="#63b8ff" stroke="#63b8ff" points="448.24,-79.35 439.06,-74.05 442.94,-83.91 448.24,-79.35"/>
</a>
</g>
</g>
<!-- Node18 -->
<g id="Node000018" class="node">
<title>Node18</title>
<g id="a_Node000018"><a xlink:title=" ">
<polygon fill="#e0e0e0" stroke="#999999" points="456,-129 408,-129 408,-110 456,-110 456,-129"/>
<text text-anchor="middle" x="432" y="-117" font-family="Helvetica,sans-Serif" font-size="10.00">mutex</text>
</a>
</g>
</g>
<!-- Node17&#45;&gt;Node18 -->
<g id="edge30_Node000017_Node000018" class="edge">
<title>Node17&#45;&gt;Node18</title>
<g id="a_edge30_Node000017_Node000018"><a xlink:title=" ">
<path fill="none" stroke="#63b8ff" d="M475.41,-164.75C467.84,-157.03 456.62,-145.6 447.49,-136.28"/>
<polygon fill="#63b8ff" stroke="#63b8ff" points="449.93,-133.78 440.43,-129.09 444.93,-138.68 449.93,-133.78"/>
</a>
</g>
</g>
<!-- Node17&#45;&gt;Node19 -->
<g id="edge35_Node000017_Node000019" class="edge">
<title>Node17&#45;&gt;Node19</title>
<g id="a_edge35_Node000017_Node000019"><a xlink:title=" ">
<path fill="none" stroke="#63b8ff" d="M553.78,-165.89C556.89,-165.58 559.98,-165.28 563,-165 764.53,-146.17 815.35,-146.52 1017,-129 1029.09,-127.95 1042.09,-126.76 1054.35,-125.61"/>
<polygon fill="#63b8ff" stroke="#63b8ff" points="1054.81,-129.08 1064.43,-124.65 1054.15,-122.11 1054.81,-129.08"/>
</a>
</g>
</g>
<!-- Node21 -->
<g id="Node000021" class="node">
<title>Node21</title>
<g id="a_Node000021"><a xlink:href="evaluate_8h.html" target="_top" xlink:title=" ">
<polygon fill="white" stroke="#666666" points="706,-129 588,-129 588,-110 706,-110 706,-129"/>
<text text-anchor="middle" x="647" y="-117" font-family="Helvetica,sans-Serif" font-size="10.00">Evaluator/evaluate.h</text>
</a>
</g>
</g>
<!-- Node17&#45;&gt;Node21 -->
<g id="edge38_Node000017_Node000021" class="edge">
<title>Node17&#45;&gt;Node21</title>
<g id="a_edge38_Node000017_Node000021"><a xlink:title=" ">
<path fill="none" stroke="#63b8ff" d="M510.19,-164.98C537.44,-156.13 580.3,-142.19 610.78,-132.28"/>
<polygon fill="#63b8ff" stroke="#63b8ff" points="612.18,-135.5 620.61,-129.08 610.01,-128.85 612.18,-135.5"/>
</a>
</g>
</g>
<!-- Node19&#45;&gt;Node3 -->
<g id="edge36_Node000019_Node000003" class="edge">
<title>Node19&#45;&gt;Node3</title>
<g id="a_edge36_Node000019_Node000003"><a xlink:title=" ">
<path fill="none" stroke="#63b8ff" d="M1106.94,-109.76C1106.36,-96.1 1103.19,-69.75 1088,-55 1051.97,-19.99 991.52,-11.78 954.36,-10.27"/>
<polygon fill="#63b8ff" stroke="#63b8ff" points="954.18,-6.76 944.09,-9.99 953.99,-13.76 954.18,-6.76"/>
</a>
</g>
</g>
<!-- Node20 -->
<g id="Node000020" class="node">
<title>Node20</title>
<g id="a_Node000020"><a xlink:title=" ">
<polygon fill="#e0e0e0" stroke="#999999" points="1079,-74 1019,-74 1019,-55 1079,-55 1079,-74"/>
<text text-anchor="middle" x="1049" y="-62" font-family="Helvetica,sans-Serif" font-size="10.00">iostream</text>
</a>
</g>
</g>
<!-- Node19&#45;&gt;Node20 -->
<g id="edge37_Node000019_Node000020" class="edge">
<title>Node19&#45;&gt;Node20</title>
<g id="a_edge37_Node000019_Node000020"><a xlink:title=" ">
<path fill="none" stroke="#63b8ff" d="M1097.68,-109.98C1089.19,-102.23 1076.44,-90.58 1066.12,-81.14"/>
<polygon fill="#63b8ff" stroke="#63b8ff" points="1068.23,-78.33 1058.49,-74.17 1063.51,-83.5 1068.23,-78.33"/>
</a>
</g>
</g>
<!-- Node21&#45;&gt;Node3 -->
<g id="edge41_Node000021_Node000003" class="edge">
<title>Node21&#45;&gt;Node3</title>
<g id="a_edge41_Node000021_Node000003"><a xlink:title=" ">
<path fill="none" stroke="#63b8ff" d="M641.09,-110C632.63,-96.67 619.48,-70.77 633,-55 665.79,-16.78 821.31,-11.07 889.66,-10.44"/>
<polygon fill="#63b8ff" stroke="#63b8ff" points="889.87,-13.94 899.85,-10.38 889.82,-6.94 889.87,-13.94"/>
</a>
</g>
</g>
<!-- Node21&#45;&gt;Node4 -->
<g id="edge40_Node000021_Node000004" class="edge">
<title>Node21&#45;&gt;Node4</title>
<g id="a_edge40_Node000021_Node000004"><a xlink:title=" ">
<path fill="none" stroke="#63b8ff" d="M637.31,-109.58C621.65,-95.68 589.28,-69 557,-55 496.27,-28.66 418.98,-17.57 375.56,-13.17"/>
<polygon fill="#63b8ff" stroke="#63b8ff" points="375.82,-9.68 365.53,-12.22 375.16,-16.65 375.82,-9.68"/>
</a>
</g>
</g>
<!-- Node21&#45;&gt;Node9 -->
<g id="edge39_Node000021_Node000009" class="edge">
<title>Node21&#45;&gt;Node9</title>
<g id="a_edge39_Node000021_Node000009"><a xlink:title=" ">
<path fill="none" stroke="#63b8ff" d="M587.99,-112.5C477.9,-101.3 244.54,-77.56 158.63,-68.82"/>
<polygon fill="#63b8ff" stroke="#63b8ff" points="158.98,-65.34 148.67,-67.81 158.27,-72.3 158.98,-65.34"/>
</a>
</g>
</g>
<!-- Node21&#45;&gt;Node10 -->
<g id="edge42_Node000021_Node000010" class="edge">
<title>Node21&#45;&gt;Node10</title>
<g id="a_edge42_Node000021_Node000010"><a xlink:title=" ">
<path fill="none" stroke="#63b8ff" d="M660.98,-109.98C674.47,-101.77 695.13,-89.18 711.04,-79.49"/>
<polygon fill="#63b8ff" stroke="#63b8ff" points="713.05,-82.36 719.77,-74.17 709.41,-76.38 713.05,-82.36"/>
</a>
</g>
</g>
<!-- Node21&#45;&gt;Node13 -->
<g id="edge43_Node000021_Node000013" class="edge">
<title>Node21&#45;&gt;Node13</title>
<g id="a_edge43_Node000021_Node000013"><a xlink:title=" ">
<path fill="none" stroke="#63b8ff" d="M649.64,-109.75C651.76,-102.72 654.81,-92.62 657.46,-83.84"/>
<polygon fill="#63b8ff" stroke="#63b8ff" points="660.87,-84.67 660.41,-74.09 654.17,-82.65 660.87,-84.67"/>
</a>
</g>
</g>
<!-- Node21&#45;&gt;Node14 -->
<g id="edge44_Node000021_Node000014" class="edge">
<title>Node21&#45;&gt;Node14</title>
<g id="a_edge44_Node000021_Node000014"><a xlink:title=" ">
<path fill="none" stroke="#63b8ff" d="M628.04,-109.98C608.97,-101.42 579.34,-88.11 557.45,-78.28"/>
<polygon fill="#63b8ff" stroke="#63b8ff" points="558.86,-75.07 548.3,-74.17 555.99,-81.46 558.86,-75.07"/>
</a>
</g>
</g>
<!-- Node21&#45;&gt;Node16 -->
<g id="edge45_Node000021_Node000016" class="edge">
<title>Node21&#45;&gt;Node16</title>
<g id="a_edge45_Node000021_Node000016"><a xlink:title=" ">
<path fill="none" stroke="#63b8ff" d="M612.3,-109.98C575.25,-100.89 516.41,-86.46 475.87,-76.51"/>
<polygon fill="#63b8ff" stroke="#63b8ff" points="476.52,-73.07 465.98,-74.08 474.85,-79.86 476.52,-73.07"/>
</a>
</g>
</g>
<!-- Node22&#45;&gt;Node5 -->
<g id="edge51_Node000022_Node000005" class="edge">
<title>Node22&#45;&gt;Node5</title>
<g id="a_edge51_Node000022_Node000005"><a xlink:title=" ">
<path fill="none" stroke="#63b8ff" d="M429.84,-384.95C489.4,-372.54 603.6,-348.94 701,-330 763.33,-317.88 834.92,-304.7 883.57,-295.86"/>
<polygon fill="#63b8ff" stroke="#63b8ff" points="884.38,-299.27 893.59,-294.04 883.13,-292.38 884.38,-299.27"/>
</a>
</g>
</g>
<!-- Node22&#45;&gt;Node9 -->
<g id="edge50_Node000022_Node000009" class="edge">
<title>Node22&#45;&gt;Node9</title>
<g id="a_edge50_Node000022_Node000009"><a xlink:title=" ">
<path fill="none" stroke="#63b8ff" d="M318.81,-386.29C216.38,-373.79 38,-343.68 38,-285.5 38,-285.5 38,-285.5 38,-173.5 38,-132.39 76.79,-98.26 102.86,-79.97"/>
<polygon fill="#63b8ff" stroke="#63b8ff" points="105.13,-82.66 111.47,-74.17 101.22,-76.85 105.13,-82.66"/>
</a>
</g>
</g>
<!-- Node23 -->
<g id="Node000023" class="node">
<title>Node23</title>
<g id="a_Node000023"><a xlink:href="simulator_8h.html" target="_top" xlink:title=" ">
<polygon fill="white" stroke="#666666" points="450,-349 328,-349 328,-330 450,-330 450,-349"/>
<text text-anchor="middle" x="389" y="-337" font-family="Helvetica,sans-Serif" font-size="10.00">Simulator/simulator.h</text>
</a>
</g>
</g>
<!-- Node22&#45;&gt;Node23 -->
<g id="edge52_Node000022_Node000023" class="edge">
<title>Node22&#45;&gt;Node23</title>
<g id="a_edge52_Node000022_Node000023"><a xlink:title=" ">
<path fill="none" stroke="#63b8ff" d="M389,-384.75C389,-377.8 389,-367.85 389,-359.13"/>
<polygon fill="#63b8ff" stroke="#63b8ff" points="392.5,-359.09 389,-349.09 385.5,-359.09 392.5,-359.09"/>
</a>
</g>
</g>
<!-- Node23&#45;&gt;Node5 -->
<g id="edge56_Node000023_Node000005" class="edge">
<title>Node23&#45;&gt;Node5</title>
<g id="a_edge56_Node000023_Node000005"><a xlink:title=" ">
<path fill="none" stroke="#63b8ff" d="M450.03,-333.2C540.78,-325.22 716.67,-309.43 866,-294 867.11,-293.89 868.23,-293.77 869.35,-293.65"/>
<polygon fill="#63b8ff" stroke="#63b8ff" points="870.04,-297.1 879.62,-292.56 869.3,-290.14 870.04,-297.1"/>
</a>
</g>
</g>
<!-- Node23&#45;&gt;Node6 -->
<g id="edge53_Node000023_Node000006" class="edge">
<title>Node23&#45;&gt;Node6</title>
<g id="a_edge53_Node000023_Node000006"><a xlink:title=" ">
<path fill="none" stroke="#63b8ff" d="M423.16,-329.98C502.29,-309.68 703.46,-254.82 862,-184 895.75,-168.92 933.01,-147.89 956.21,-134.24"/>
<polygon fill="#63b8ff" stroke="#63b8ff" points="958.14,-137.16 964.95,-129.05 954.56,-131.14 958.14,-137.16"/>
</a>
</g>
</g>
<!-- Node23&#45;&gt;Node9 -->
<g id="edge54_Node000023_Node000009" class="edge">
<title>Node23&#45;&gt;Node9</title>
<g id="a_edge54_Node000023_Node000009"><a xlink:title=" ">
<path fill="none" stroke="#63b8ff" d="M357.42,-329.97C334.52,-322.79 303.56,-310.96 280,-294 201.48,-237.48 179.97,-216.17 138,-129 131.22,-114.93 128.27,-97.38 126.98,-84.3"/>
<polygon fill="#63b8ff" stroke="#63b8ff" points="130.46,-83.87 126.23,-74.16 123.48,-84.39 130.46,-83.87"/>
</a>
</g>
</g>
<!-- Node23&#45;&gt;Node11 -->
<g id="edge57_Node000023_Node000011" class="edge">
<title>Node23&#45;&gt;Node11</title>
<g id="a_edge57_Node000023_Node000011"><a xlink:title=" ">
<path fill="none" stroke="#63b8ff" d="M409.6,-329.84C454.92,-310.8 563.43,-265.2 616.19,-243.03"/>
<polygon fill="#63b8ff" stroke="#63b8ff" points="617.8,-246.15 625.66,-239.05 615.09,-239.69 617.8,-246.15"/>
</a>
</g>
</g>
<!-- Node23&#45;&gt;Node16 -->
<g id="edge55_Node000023_Node000016" class="edge">
<title>Node23&#45;&gt;Node16</title>
<g id="a_edge55_Node000023_Node000016"><a xlink:title=" ">
<path fill="none" stroke="#63b8ff" d="M364.99,-329.97C329.2,-315.53 266,-282.65 266,-230.5 266,-230.5 266,-230.5 266,-173.5 266,-118.89 330.06,-90.4 378.35,-76.69"/>
<polygon fill="#63b8ff" stroke="#63b8ff" points="379.34,-80.05 388.08,-74.06 377.51,-73.29 379.34,-80.05"/>
</a>
</g>
</g>
<!-- Node23&#45;&gt;Node17 -->
<g id="edge58_Node000023_Node000017" class="edge">
<title>Node23&#45;&gt;Node17</title>
<g id="a_edge58_Node000023_Node000017"><a xlink:title=" ">
<path fill="none" stroke="#63b8ff" d="M394.11,-329.74C409.12,-303.98 453.32,-228.13 473.61,-193.33"/>
<polygon fill="#63b8ff" stroke="#63b8ff" points="476.86,-194.71 478.87,-184.31 470.81,-191.18 476.86,-194.71"/>
</a>
</g>
</g>
</g>
</svg>

<g id="navigator" transform="translate(0 0)" fill="#404254">
  <rect fill="#f2f5e9" fill-opacity="0.5" stroke="#606060" stroke-width=".5" x="0" y="0" width="60" height="60"/>
  <use id="zoomplus" xlink:href="#zoomPlus" x="17" y="9" onmousedown="handleZoom(evt,'in')"/>
  <use id="zoomminus" xlink:href="#zoomMin" x="42" y="9" onmousedown="handleZoom(evt,'out')"/>
  <use id="reset" xlink:href="#resetDef" x="30" y="36" onmousedown="handleReset()"/>
   <use id="arrowup" xlink:href="#arrowUp" x="0" y="0" onmousedown="handlePan(0,-1)"/>
  <use id="arrowright" xlink:href="#arrowRight" x="0" y="0" onmousedown="handlePan(1,0)"/>
  <use id="arrowdown" xlink:href="#arrowDown" x="0" y="0" onmousedown="handlePan(0,1)"/>
  <use id="arrowleft" xlink:href="#arrowLeft" x="0" y="0" onmousedown="handlePan(-1,0)"/>
</g>
<svg viewBox="0 0 15 15" width="100%" height="30px" preserveAspectRatio="xMaxYMin meet">
 <g id="arrow_out" transform="scale(0.3 0.3)">
  <a xlink:href="transDriverModel_8cpp__incl_org.svg" target="_base">
   <rect id="button" ry="5" rx="5" y="6" x="6" height="38" width="38"
        fill="#f2f5e9" fill-opacity="0.5" stroke="#606060" stroke-width="1.0"/>
   <path id="arrow"
     d="M 11.500037,31.436501 C 11.940474,20.09759 22.043105,11.32322 32.158766,21.979434 L 37.068811,17.246167 C 37.068811,17.246167 37.088388,32 37.088388,32 L 22.160133,31.978069 C 22.160133,31.978069 26.997745,27.140456 26.997745,27.140456 C 18.528582,18.264221 13.291696,25.230495 11.500037,31.436501 z"
     style="fill:#404040;"/>
  </a>
 </g>
</svg>

<style type='text/css'>
<![CDATA[
[data-mouse-over-selected='false'] { opacity: 0.7; }
[data-mouse-over-selected='true']  { opacity: 1.0; }
]]>
</style>
<script type="application/ecmascript"><![CDATA[
document.addEventListener('DOMContentLoaded', (event) => {
  highlightEdges();
  highlightAdjacentNodes();
});
]]></script>
</svg>
