<?xml version="1.0" encoding="UTF-8" standalone="no"?>
<!DOCTYPE svg PUBLIC "-//W3C//DTD SVG 1.1//EN"
 "http://www.w3.org/Graphics/SVG/1.1/DTD/svg11.dtd">
<!-- Generated by graphviz version 2.43.0 (0)
 -->
<!-- Title: src/Transaction/transaction.cpp Pages: 1 -->
<!--zoomable 302 -->

<svg id="main" version="1.1" xmlns="http://www.w3.org/2000/svg" xmlns:xlink="http://www.w3.org/1999/xlink" xml:space="preserve" onload="init(evt)">
<style type="text/css"><![CDATA[
.node, .edge {opacity: 0.7;}
.node.selected, .edge.selected {opacity: 1;}
.edge:hover path { stroke: red; }
.edge:hover polygon { stroke: red; fill: red; }
]]></style>

<defs>
  <circle id="rim" cx="0" cy="0" r="7"/>
  <circle id="rim2" cx="0" cy="0" r="3.5"/>
  <g id="zoomPlus">
    <use xlink:href="#rim" fill="#404040"><set attributeName="fill" to="#808080" begin="zoomplus.mouseover" end="zoomplus.mouseout"/></use>
    <path d="M-4,0h8M0,-4v8" fill="none" stroke="white" stroke-width="1.5" pointer-events="none"/>
  </g>
  <g id="zoomMin">
    <use xlink:href="#rim" fill="#404040"><set attributeName="fill" to="#808080" begin="zoomminus.mouseover" end="zoomminus.mouseout"/></use>
    <path d="M-4,0h8" fill="none" stroke="white" stroke-width="1.5" pointer-events="none"/>
  </g>
  <g id="arrowUp" transform="translate(30 24)">
    <use xlink:href="#rim"/>
    <path pointer-events="none" fill="none" stroke="white" stroke-width="1.5" d="M0,-3.0v7 M-2.5,-0.5L0,-3.0L2.5,-0.5"/>
  </g>
  <g id="arrowRight" transform="rotate(90) translate(36 -43)">
    <use xlink:href="#rim"/>
    <path pointer-events="none" fill="none" stroke="white" stroke-width="1.5" d="M0,-3.0v7 M-2.5,-0.5L0,-3.0L2.5,-0.5"/>
  </g>
  <g id="arrowDown" transform="rotate(180) translate(-30 -48)">
    <use xlink:href="#rim"/>
    <path pointer-events="none" fill="none" stroke="white" stroke-width="1.5" d="M0,-3.0v7 M-2.5,-0.5L0,-3.0L2.5,-0.5"/>
  </g>
  <g id="arrowLeft" transform="rotate(270) translate(-36 17)">
    <use xlink:href="#rim"/>
    <path pointer-events="none" fill="none" stroke="white" stroke-width="1.5" d="M0,-3.0v7 M-2.5,-0.5L0,-3.0L2.5,-0.5"/>
  </g>
  <g id="resetDef">
    <use xlink:href="#rim2" fill="#404040"><set attributeName="fill" to="#808080" begin="reset.mouseover" end="reset.mouseout"/></use>
  </g>
</defs>
<script type="application/ecmascript">
var viewWidth = 816;
var viewHeight = 302;
var sectionId = 'dynsection-0';
</script>
<script type="application/ecmascript" xlink:href="svg.min.js"/>
<svg id="graph" class="graph">
<g id="viewport">
<title>src/Transaction/transaction.cpp</title>
<!-- Node1 -->
<g id="Node000001" class="node">
<title>Node1</title>
<g id="a_Node000001"><a xlink:title=" ">
<polygon fill="#999999" stroke="#666666" points="549.5,-294 382.5,-294 382.5,-275 549.5,-275 549.5,-294"/>
<text text-anchor="middle" x="466" y="-282" font-family="Helvetica,sans-Serif" font-size="10.00">src/Transaction/transaction.cpp</text>
</a>
</g>
</g>
<!-- Node2 -->
<g id="Node000002" class="node">
<title>Node2</title>
<g id="a_Node000002"><a xlink:href="transaction_8h_source.html" target="_top" xlink:title=" ">
<polygon fill="white" stroke="#666666" points="491.5,-184 352.5,-184 352.5,-165 491.5,-165 491.5,-184"/>
<text text-anchor="middle" x="422" y="-172" font-family="Helvetica,sans-Serif" font-size="10.00">Transaction/transaction.h</text>
</a>
</g>
</g>
<!-- Node1&#45;&gt;Node2 -->
<g id="edge1_Node000001_Node000002" class="edge">
<title>Node1&#45;&gt;Node2</title>
<g id="a_edge1_Node000001_Node000002"><a xlink:title=" ">
<path fill="none" stroke="#63b8ff" d="M460.43,-274.93C454.92,-266.17 446.54,-252.05 441,-239 434.81,-224.42 429.78,-207.15 426.46,-194.31"/>
<polygon fill="#63b8ff" stroke="#63b8ff" points="429.79,-193.21 423.99,-184.34 423,-194.89 429.79,-193.21"/>
</a>
</g>
</g>
<!-- Node4 -->
<g id="Node000004" class="node">
<title>Node4</title>
<g id="a_Node000004"><a xlink:title=" ">
<polygon fill="#e0e0e0" stroke="#999999" points="269.5,-74 224.5,-74 224.5,-55 269.5,-55 269.5,-74"/>
<text text-anchor="middle" x="247" y="-62" font-family="Helvetica,sans-Serif" font-size="10.00">utility</text>
</a>
</g>
</g>
<!-- Node1&#45;&gt;Node4 -->
<g id="edge27_Node000001_Node000004" class="edge">
<title>Node1&#45;&gt;Node4</title>
<g id="a_edge27_Node000001_Node000004"><a xlink:title=" ">
<path fill="none" stroke="#63b8ff" d="M420.8,-274.99C352.64,-259.46 225.7,-219.39 171,-129 157.13,-106.07 188.32,-87.53 214.84,-76.52"/>
<polygon fill="#63b8ff" stroke="#63b8ff" points="216.27,-79.72 224.31,-72.82 213.72,-73.2 216.27,-79.72"/>
</a>
</g>
</g>
<!-- Node5 -->
<g id="Node000005" class="node">
<title>Node5</title>
<g id="a_Node000005"><a xlink:title=" ">
<polygon fill="#e0e0e0" stroke="#999999" points="240.5,-19 193.5,-19 193.5,0 240.5,0 240.5,-19"/>
<text text-anchor="middle" x="217" y="-7" font-family="Helvetica,sans-Serif" font-size="10.00">vector</text>
</a>
</g>
</g>
<!-- Node1&#45;&gt;Node5 -->
<g id="edge28_Node000001_Node000005" class="edge">
<title>Node1&#45;&gt;Node5</title>
<g id="a_edge28_Node000001_Node000005"><a xlink:title=" ">
<path fill="none" stroke="#63b8ff" d="M382.42,-281.1C248.32,-274.96 0,-253.1 0,-175.5 0,-175.5 0,-175.5 0,-118.5 0,-37.71 122.03,-17.36 183.07,-12.23"/>
<polygon fill="#63b8ff" stroke="#63b8ff" points="183.65,-15.69 193.36,-11.46 183.13,-8.71 183.65,-15.69"/>
</a>
</g>
</g>
<!-- Node10 -->
<g id="Node000010" class="node">
<title>Node10</title>
<g id="a_Node000010"><a xlink:title=" ">
<polygon fill="#e0e0e0" stroke="#999999" points="184.5,-74 119.5,-74 119.5,-55 184.5,-55 184.5,-74"/>
<text text-anchor="middle" x="152" y="-62" font-family="Helvetica,sans-Serif" font-size="10.00">functional</text>
</a>
</g>
</g>
<!-- Node1&#45;&gt;Node10 -->
<g id="edge26_Node000001_Node000010" class="edge">
<title>Node1&#45;&gt;Node10</title>
<g id="a_edge26_Node000001_Node000010"><a xlink:title=" ">
<path fill="none" stroke="#63b8ff" d="M394.25,-275C355.77,-268.56 308.33,-257.54 269,-239 207.87,-210.17 188.45,-192.01 164,-129 158.41,-114.6 155.36,-97.32 153.74,-84.43"/>
<polygon fill="#63b8ff" stroke="#63b8ff" points="157.21,-83.97 152.65,-74.41 150.25,-84.73 157.21,-83.97"/>
</a>
</g>
</g>
<!-- Node11 -->
<g id="Node000011" class="node">
<title>Node11</title>
<g id="a_Node000011"><a xlink:href="types_8h.html" target="_top" xlink:title=" ">
<polygon fill="white" stroke="#666666" points="568.5,-74 479.5,-74 479.5,-55 568.5,-55 568.5,-74"/>
<text text-anchor="middle" x="524" y="-62" font-family="Helvetica,sans-Serif" font-size="10.00">Library/types.h</text>
</a>
</g>
</g>
<!-- Node1&#45;&gt;Node11 -->
<g id="edge33_Node000001_Node000011" class="edge">
<title>Node1&#45;&gt;Node11</title>
<g id="a_edge33_Node000001_Node000011"><a xlink:title=" ">
<path fill="none" stroke="#63b8ff" d="M499.47,-274.92C523.12,-267.81 554.79,-256.07 579,-239 632.03,-201.6 652.22,-189.76 675,-129 690.97,-86.4 628.02,-72.25 578.54,-67.62"/>
<polygon fill="#63b8ff" stroke="#63b8ff" points="578.79,-64.13 568.53,-66.79 578.21,-71.1 578.79,-64.13"/>
</a>
</g>
</g>
<!-- Node13 -->
<g id="Node000013" class="node">
<title>Node13</title>
<g id="a_Node000013"><a xlink:href="error_8h.html" target="_top" xlink:title=" ">
<polygon fill="white" stroke="#666666" points="807.5,-129 722.5,-129 722.5,-110 807.5,-110 807.5,-129"/>
<text text-anchor="middle" x="765" y="-117" font-family="Helvetica,sans-Serif" font-size="10.00">Library/error.h</text>
</a>
</g>
</g>
<!-- Node1&#45;&gt;Node13 -->
<g id="edge32_Node000001_Node000013" class="edge">
<title>Node1&#45;&gt;Node13</title>
<g id="a_edge32_Node000001_Node000013"><a xlink:title=" ">
<path fill="none" stroke="#63b8ff" d="M549.57,-283.11C629.81,-280.76 742.87,-271.53 771,-239 795.16,-211.06 782.53,-164.13 772.8,-138.52"/>
<polygon fill="#63b8ff" stroke="#63b8ff" points="776.04,-137.2 769.04,-129.25 769.56,-139.83 776.04,-137.2"/>
</a>
</g>
</g>
<!-- Node17 -->
<g id="Node000017" class="node">
<title>Node17</title>
<g id="a_Node000017"><a xlink:title=" ">
<polygon fill="#e0e0e0" stroke="#999999" points="762,-239 656,-239 656,-220 762,-220 762,-239"/>
<text text-anchor="middle" x="709" y="-227" font-family="Helvetica,sans-Serif" font-size="10.00">bits/ranges_algo.h</text>
</a>
</g>
</g>
<!-- Node1&#45;&gt;Node17 -->
<g id="edge25_Node000001_Node000017" class="edge">
<title>Node1&#45;&gt;Node17</title>
<g id="a_edge25_Node000001_Node000017"><a xlink:title=" ">
<path fill="none" stroke="#63b8ff" d="M505.04,-274.98C547.08,-265.82 614.04,-251.21 659.68,-241.26"/>
<polygon fill="#63b8ff" stroke="#63b8ff" points="660.63,-244.63 669.65,-239.08 659.14,-237.79 660.63,-244.63"/>
</a>
</g>
</g>
<!-- Node18 -->
<g id="Node000018" class="node">
<title>Node18</title>
<g id="a_Node000018"><a xlink:href="database_8h.html" target="_top" xlink:title=" ">
<polygon fill="white" stroke="#666666" points="570,-239 450,-239 450,-220 570,-220 570,-239"/>
<text text-anchor="middle" x="510" y="-227" font-family="Helvetica,sans-Serif" font-size="10.00">Database/database.h</text>
</a>
</g>
</g>
<!-- Node1&#45;&gt;Node18 -->
<g id="edge29_Node000001_Node000018" class="edge">
<title>Node1&#45;&gt;Node18</title>
<g id="a_edge29_Node000001_Node000018"><a xlink:title=" ">
<path fill="none" stroke="#63b8ff" d="M473.27,-274.75C479.54,-267.18 488.79,-256.05 496.43,-246.84"/>
<polygon fill="#63b8ff" stroke="#63b8ff" points="499.17,-249.02 502.87,-239.09 493.79,-244.55 499.17,-249.02"/>
</a>
</g>
</g>
<!-- Node3 -->
<g id="Node000003" class="node">
<title>Node3</title>
<g id="a_Node000003"><a xlink:title=" ">
<polygon fill="#e0e0e0" stroke="#999999" points="619,-19 575,-19 575,0 619,0 619,-19"/>
<text text-anchor="middle" x="597" y="-7" font-family="Helvetica,sans-Serif" font-size="10.00">string</text>
</a>
</g>
</g>
<!-- Node2&#45;&gt;Node3 -->
<g id="edge2_Node000002_Node000003" class="edge">
<title>Node2&#45;&gt;Node3</title>
<g id="a_edge2_Node000002_Node000003"><a xlink:title=" ">
<path fill="none" stroke="#63b8ff" d="M448.22,-164.95C484.2,-151.71 547.84,-122.58 578,-74 586.54,-60.25 591.43,-42.45 594.1,-29.19"/>
<polygon fill="#63b8ff" stroke="#63b8ff" points="597.55,-29.77 595.86,-19.31 590.66,-28.55 597.55,-29.77"/>
</a>
</g>
</g>
<!-- Node2&#45;&gt;Node4 -->
<g id="edge3_Node000002_Node000004" class="edge">
<title>Node2&#45;&gt;Node4</title>
<g id="a_edge3_Node000002_Node000004"><a xlink:title=" ">
<path fill="none" stroke="#63b8ff" d="M407.71,-164.84C392.97,-155.9 369.35,-141.53 349,-129 321.59,-112.11 290.15,-92.5 269.5,-79.59"/>
<polygon fill="#63b8ff" stroke="#63b8ff" points="271.17,-76.51 260.83,-74.17 267.45,-82.44 271.17,-76.51"/>
</a>
</g>
</g>
<!-- Node2&#45;&gt;Node5 -->
<g id="edge4_Node000002_Node000005" class="edge">
<title>Node2&#45;&gt;Node5</title>
<g id="a_edge4_Node000002_Node000005"><a xlink:title=" ">
<path fill="none" stroke="#63b8ff" d="M352.49,-167.37C285.19,-160.46 188.66,-147.7 156,-129 122.39,-109.76 88.51,-87.21 110,-55 126.22,-30.69 158.48,-19.64 183.36,-14.63"/>
<polygon fill="#63b8ff" stroke="#63b8ff" points="184.26,-18.02 193.5,-12.83 183.04,-11.13 184.26,-18.02"/>
</a>
</g>
</g>
<!-- Node6 -->
<g id="Node000006" class="node">
<title>Node6</title>
<g id="a_Node000006"><a xlink:title=" ">
<polygon fill="#e0e0e0" stroke="#999999" points="666,-129 608,-129 608,-110 666,-110 666,-129"/>
<text text-anchor="middle" x="637" y="-117" font-family="Helvetica,sans-Serif" font-size="10.00">memory</text>
</a>
</g>
</g>
<!-- Node2&#45;&gt;Node6 -->
<g id="edge5_Node000002_Node000006" class="edge">
<title>Node2&#45;&gt;Node6</title>
<g id="a_edge5_Node000002_Node000006"><a xlink:title=" ">
<path fill="none" stroke="#63b8ff" d="M456.54,-164.98C495.17,-155.46 557.6,-140.07 597.96,-130.12"/>
<polygon fill="#63b8ff" stroke="#63b8ff" points="598.85,-133.51 607.72,-127.72 597.18,-126.71 598.85,-133.51"/>
</a>
</g>
</g>
<!-- Node7 -->
<g id="Node000007" class="node">
<title>Node7</title>
<g id="a_Node000007"><a xlink:title=" ">
<polygon fill="#e0e0e0" stroke="#999999" points="228,-129 180,-129 180,-110 228,-110 228,-129"/>
<text text-anchor="middle" x="204" y="-117" font-family="Helvetica,sans-Serif" font-size="10.00">mutex</text>
</a>
</g>
</g>
<!-- Node2&#45;&gt;Node7 -->
<g id="edge6_Node000002_Node000007" class="edge">
<title>Node2&#45;&gt;Node7</title>
<g id="a_edge6_Node000002_Node000007"><a xlink:title=" ">
<path fill="none" stroke="#63b8ff" d="M385.8,-164.97C350.52,-156.62 295.09,-143.4 238.05,-129.23"/>
<polygon fill="#63b8ff" stroke="#63b8ff" points="238.69,-125.78 228.14,-126.77 237,-132.58 238.69,-125.78"/>
</a>
</g>
</g>
<!-- Node8 -->
<g id="Node000008" class="node">
<title>Node8</title>
<g id="a_Node000008"><a xlink:title=" ">
<polygon fill="#e0e0e0" stroke="#999999" points="461,-74 423,-74 423,-55 461,-55 461,-74"/>
<text text-anchor="middle" x="442" y="-62" font-family="Helvetica,sans-Serif" font-size="10.00">map</text>
</a>
</g>
</g>
<!-- Node2&#45;&gt;Node8 -->
<g id="edge7_Node000002_Node000008" class="edge">
<title>Node2&#45;&gt;Node8</title>
<g id="a_edge7_Node000002_Node000008"><a xlink:title=" ">
<path fill="none" stroke="#63b8ff" d="M443.15,-164.93C457.83,-157.73 476.25,-145.88 485,-129 494.09,-111.44 478.17,-92.89 463.19,-80.4"/>
<polygon fill="#63b8ff" stroke="#63b8ff" points="465.17,-77.51 455.13,-74.13 460.87,-83.03 465.17,-77.51"/>
</a>
</g>
</g>
<!-- Node9 -->
<g id="Node000009" class="node">
<title>Node9</title>
<g id="a_Node000009"><a xlink:title=" ">
<polygon fill="#e0e0e0" stroke="#999999" points="302,-129 246,-129 246,-110 302,-110 302,-129"/>
<text text-anchor="middle" x="274" y="-117" font-family="Helvetica,sans-Serif" font-size="10.00">optional</text>
</a>
</g>
</g>
<!-- Node2&#45;&gt;Node9 -->
<g id="edge8_Node000002_Node000009" class="edge">
<title>Node2&#45;&gt;Node9</title>
<g id="a_edge8_Node000002_Node000009"><a xlink:title=" ">
<path fill="none" stroke="#63b8ff" d="M398.22,-164.98C373.77,-156.23 335.47,-142.51 307.85,-132.62"/>
<polygon fill="#63b8ff" stroke="#63b8ff" points="308.81,-129.25 298.21,-129.17 306.45,-135.84 308.81,-129.25"/>
</a>
</g>
</g>
<!-- Node2&#45;&gt;Node10 -->
<g id="edge9_Node000002_Node000010" class="edge">
<title>Node2&#45;&gt;Node10</title>
<g id="a_edge9_Node000002_Node000010"><a xlink:title=" ">
<path fill="none" stroke="#63b8ff" d="M352.21,-169.23C287.45,-163.87 197.23,-152.37 171,-129 158.53,-117.89 154.09,-98.95 152.59,-84.65"/>
<polygon fill="#63b8ff" stroke="#63b8ff" points="156.06,-84.15 151.91,-74.4 149.08,-84.61 156.06,-84.15"/>
</a>
</g>
</g>
<!-- Node2&#45;&gt;Node11 -->
<g id="edge10_Node000002_Node000011" class="edge">
<title>Node2&#45;&gt;Node11</title>
<g id="a_edge10_Node000002_Node000011"><a xlink:title=" ">
<path fill="none" stroke="#63b8ff" d="M446.07,-164.9C463.2,-157.68 485.62,-145.83 500,-129 510.88,-116.26 517.08,-98.08 520.44,-84.44"/>
<polygon fill="#63b8ff" stroke="#63b8ff" points="523.95,-84.77 522.64,-74.26 517.11,-83.3 523.95,-84.77"/>
</a>
</g>
</g>
<!-- Node2&#45;&gt;Node13 -->
<g id="edge14_Node000002_Node000013" class="edge">
<title>Node2&#45;&gt;Node13</title>
<g id="a_edge14_Node000002_Node000013"><a xlink:title=" ">
<path fill="none" stroke="#63b8ff" d="M477.11,-164.98C541.87,-154.98 648.55,-138.49 712.26,-128.65"/>
<polygon fill="#63b8ff" stroke="#63b8ff" points="713.14,-132.06 722.49,-127.07 712.07,-125.14 713.14,-132.06"/>
</a>
</g>
</g>
<!-- Node15 -->
<g id="Node000015" class="node">
<title>Node15</title>
<g id="a_Node000015"><a xlink:href="evaluate_8h.html" target="_top" xlink:title=" ">
<polygon fill="white" stroke="#666666" points="476,-129 358,-129 358,-110 476,-110 476,-129"/>
<text text-anchor="middle" x="417" y="-117" font-family="Helvetica,sans-Serif" font-size="10.00">Evaluator/evaluate.h</text>
</a>
</g>
</g>
<!-- Node2&#45;&gt;Node15 -->
<g id="edge17_Node000002_Node000015" class="edge">
<title>Node2&#45;&gt;Node15</title>
<g id="a_edge17_Node000002_Node000015"><a xlink:title=" ">
<path fill="none" stroke="#63b8ff" d="M421.17,-164.75C420.52,-157.8 419.58,-147.85 418.76,-139.13"/>
<polygon fill="#63b8ff" stroke="#63b8ff" points="422.23,-138.72 417.81,-129.09 415.27,-139.37 422.23,-138.72"/>
</a>
</g>
</g>
<!-- Node11&#45;&gt;Node3 -->
<g id="edge13_Node000011_Node000003" class="edge">
<title>Node11&#45;&gt;Node3</title>
<g id="a_edge13_Node000011_Node000003"><a xlink:title=" ">
<path fill="none" stroke="#63b8ff" d="M535.73,-54.98C546.73,-47 563.42,-34.88 576.6,-25.31"/>
<polygon fill="#63b8ff" stroke="#63b8ff" points="579.02,-27.88 585.06,-19.17 574.91,-22.21 579.02,-27.88"/>
</a>
</g>
</g>
<!-- Node11&#45;&gt;Node5 -->
<g id="edge11_Node000011_Node000005" class="edge">
<title>Node11&#45;&gt;Node5</title>
<g id="a_edge11_Node000011_Node000005"><a xlink:title=" ">
<path fill="none" stroke="#63b8ff" d="M479.36,-55.79C417.34,-45.09 306.46,-25.94 250.81,-16.34"/>
<polygon fill="#63b8ff" stroke="#63b8ff" points="251.22,-12.86 240.77,-14.6 250.03,-19.75 251.22,-12.86"/>
</a>
</g>
</g>
<!-- Node12 -->
<g id="Node000012" class="node">
<title>Node12</title>
<g id="a_Node000012"><a xlink:title=" ">
<polygon fill="#e0e0e0" stroke="#999999" points="556.5,-19 463.5,-19 463.5,0 556.5,0 556.5,-19"/>
<text text-anchor="middle" x="510" y="-7" font-family="Helvetica,sans-Serif" font-size="10.00">unordered_map</text>
</a>
</g>
</g>
<!-- Node11&#45;&gt;Node12 -->
<g id="edge12_Node000011_Node000012" class="edge">
<title>Node11&#45;&gt;Node12</title>
<g id="a_edge12_Node000011_Node000012"><a xlink:title=" ">
<path fill="none" stroke="#63b8ff" d="M521.69,-54.75C519.83,-47.72 517.16,-37.62 514.85,-28.84"/>
<polygon fill="#63b8ff" stroke="#63b8ff" points="518.21,-27.86 512.27,-19.09 511.44,-29.65 518.21,-27.86"/>
</a>
</g>
</g>
<!-- Node13&#45;&gt;Node3 -->
<g id="edge15_Node000013_Node000003" class="edge">
<title>Node13&#45;&gt;Node3</title>
<g id="a_edge15_Node000013_Node000003"><a xlink:title=" ">
<path fill="none" stroke="#63b8ff" d="M751.54,-109.84C722.66,-91.28 654.54,-47.49 619.17,-24.75"/>
<polygon fill="#63b8ff" stroke="#63b8ff" points="620.83,-21.66 610.53,-19.2 617.05,-27.55 620.83,-21.66"/>
</a>
</g>
</g>
<!-- Node14 -->
<g id="Node000014" class="node">
<title>Node14</title>
<g id="a_Node000014"><a xlink:title=" ">
<polygon fill="#e0e0e0" stroke="#999999" points="795,-74 735,-74 735,-55 795,-55 795,-74"/>
<text text-anchor="middle" x="765" y="-62" font-family="Helvetica,sans-Serif" font-size="10.00">iostream</text>
</a>
</g>
</g>
<!-- Node13&#45;&gt;Node14 -->
<g id="edge16_Node000013_Node000014" class="edge">
<title>Node13&#45;&gt;Node14</title>
<g id="a_edge16_Node000013_Node000014"><a xlink:title=" ">
<path fill="none" stroke="#63b8ff" d="M765,-109.75C765,-102.8 765,-92.85 765,-84.13"/>
<polygon fill="#63b8ff" stroke="#63b8ff" points="768.5,-84.09 765,-74.09 761.5,-84.09 768.5,-84.09"/>
</a>
</g>
</g>
<!-- Node15&#45;&gt;Node3 -->
<g id="edge20_Node000015_Node000003" class="edge">
<title>Node15&#45;&gt;Node3</title>
<g id="a_edge20_Node000015_Node000003"><a xlink:title=" ">
<path fill="none" stroke="#63b8ff" d="M413.27,-109.6C408.31,-96.2 401.54,-70.76 414,-55 455.13,-2.99 494.99,-33.16 564.64,-19.02"/>
<polygon fill="#63b8ff" stroke="#63b8ff" points="565.71,-22.37 574.67,-16.72 564.14,-15.55 565.71,-22.37"/>
</a>
</g>
</g>
<!-- Node15&#45;&gt;Node4 -->
<g id="edge18_Node000015_Node000004" class="edge">
<title>Node15&#45;&gt;Node4</title>
<g id="a_edge18_Node000015_Node000004"><a xlink:title=" ">
<path fill="none" stroke="#63b8ff" d="M389.69,-109.98C359.62,-100.61 311.32,-85.55 279.38,-75.59"/>
<polygon fill="#63b8ff" stroke="#63b8ff" points="280.21,-72.19 269.62,-72.55 278.13,-78.87 280.21,-72.19"/>
</a>
</g>
</g>
<!-- Node15&#45;&gt;Node5 -->
<g id="edge19_Node000015_Node000005" class="edge">
<title>Node15&#45;&gt;Node5</title>
<g id="a_edge19_Node000015_Node000005"><a xlink:title=" ">
<path fill="none" stroke="#63b8ff" d="M407.86,-109.62C393.69,-96.25 365.12,-70.84 337,-55 309.27,-39.38 274.99,-27.3 250.18,-19.7"/>
<polygon fill="#63b8ff" stroke="#63b8ff" points="251.09,-16.32 240.51,-16.81 249.09,-23.03 251.09,-16.32"/>
</a>
</g>
</g>
<!-- Node15&#45;&gt;Node8 -->
<g id="edge23_Node000015_Node000008" class="edge">
<title>Node15&#45;&gt;Node8</title>
<g id="a_edge23_Node000015_Node000008"><a xlink:title=" ">
<path fill="none" stroke="#63b8ff" d="M421.13,-109.75C424.51,-102.57 429.42,-92.18 433.62,-83.27"/>
<polygon fill="#63b8ff" stroke="#63b8ff" points="436.85,-84.63 437.95,-74.09 430.52,-81.64 436.85,-84.63"/>
</a>
</g>
</g>
<!-- Node15&#45;&gt;Node10 -->
<g id="edge21_Node000015_Node000010" class="edge">
<title>Node15&#45;&gt;Node10</title>
<g id="a_edge21_Node000015_Node000010"><a xlink:title=" ">
<path fill="none" stroke="#63b8ff" d="M374.42,-109.98C325.11,-100.12 244.34,-83.97 194.9,-74.08"/>
<polygon fill="#63b8ff" stroke="#63b8ff" points="195.34,-70.6 184.85,-72.07 193.96,-77.46 195.34,-70.6"/>
</a>
</g>
</g>
<!-- Node15&#45;&gt;Node11 -->
<g id="edge24_Node000015_Node000011" class="edge">
<title>Node15&#45;&gt;Node11</title>
<g id="a_edge24_Node000015_Node000011"><a xlink:title=" ">
<path fill="none" stroke="#63b8ff" d="M434.19,-109.98C451.25,-101.54 477.63,-88.47 497.4,-78.68"/>
<polygon fill="#63b8ff" stroke="#63b8ff" points="499.09,-81.75 506.5,-74.17 495.98,-75.47 499.09,-81.75"/>
</a>
</g>
</g>
<!-- Node16 -->
<g id="Node000016" class="node">
<title>Node16</title>
<g id="a_Node000016"><a xlink:title=" ">
<polygon fill="#e0e0e0" stroke="#999999" points="328.5,-74 287.5,-74 287.5,-55 328.5,-55 328.5,-74"/>
<text text-anchor="middle" x="308" y="-62" font-family="Helvetica,sans-Serif" font-size="10.00">tuple</text>
</a>
</g>
</g>
<!-- Node15&#45;&gt;Node16 -->
<g id="edge22_Node000015_Node000016" class="edge">
<title>Node15&#45;&gt;Node16</title>
<g id="a_edge22_Node000015_Node000016"><a xlink:title=" ">
<path fill="none" stroke="#63b8ff" d="M399.49,-109.98C382.03,-101.5 354.99,-88.35 334.83,-78.54"/>
<polygon fill="#63b8ff" stroke="#63b8ff" points="336.36,-75.4 325.83,-74.17 333.29,-81.69 336.36,-75.4"/>
</a>
</g>
</g>
<!-- Node18&#45;&gt;Node2 -->
<g id="edge31_Node000018_Node000002" class="edge">
<title>Node18&#45;&gt;Node2</title>
<g id="a_edge31_Node000018_Node000002"><a xlink:title=" ">
<path fill="none" stroke="#63b8ff" d="M495.86,-219.98C482.21,-211.77 461.31,-199.18 445.22,-189.49"/>
<polygon fill="#63b8ff" stroke="#63b8ff" points="446.77,-186.33 436.4,-184.17 443.16,-192.33 446.77,-186.33"/>
</a>
</g>
</g>
<!-- Node18&#45;&gt;Node6 -->
<g id="edge30_Node000018_Node000006" class="edge">
<title>Node18&#45;&gt;Node6</title>
<g id="a_edge30_Node000018_Node000006"><a xlink:title=" ">
<path fill="none" stroke="#63b8ff" d="M520.39,-219.66C541.99,-201.3 591.95,-158.81 618.93,-135.87"/>
<polygon fill="#63b8ff" stroke="#63b8ff" points="621.47,-138.3 626.82,-129.16 616.93,-132.97 621.47,-138.3"/>
</a>
</g>
</g>
</g>
</svg>

<g id="navigator" transform="translate(0 0)" fill="#404254">
  <rect fill="#f2f5e9" fill-opacity="0.5" stroke="#606060" stroke-width=".5" x="0" y="0" width="60" height="60"/>
  <use id="zoomplus" xlink:href="#zoomPlus" x="17" y="9" onmousedown="handleZoom(evt,'in')"/>
  <use id="zoomminus" xlink:href="#zoomMin" x="42" y="9" onmousedown="handleZoom(evt,'out')"/>
  <use id="reset" xlink:href="#resetDef" x="30" y="36" onmousedown="handleReset()"/>
   <use id="arrowup" xlink:href="#arrowUp" x="0" y="0" onmousedown="handlePan(0,-1)"/>
  <use id="arrowright" xlink:href="#arrowRight" x="0" y="0" onmousedown="handlePan(1,0)"/>
  <use id="arrowdown" xlink:href="#arrowDown" x="0" y="0" onmousedown="handlePan(0,1)"/>
  <use id="arrowleft" xlink:href="#arrowLeft" x="0" y="0" onmousedown="handlePan(-1,0)"/>
</g>
<svg viewBox="0 0 15 15" width="100%" height="30px" preserveAspectRatio="xMaxYMin meet">
 <g id="arrow_out" transform="scale(0.3 0.3)">
  <a xlink:href="transaction_8cpp__incl_org.svg" target="_base">
   <rect id="button" ry="5" rx="5" y="6" x="6" height="38" width="38"
        fill="#f2f5e9" fill-opacity="0.5" stroke="#606060" stroke-width="1.0"/>
   <path id="arrow"
     d="M 11.500037,31.436501 C 11.940474,20.09759 22.043105,11.32322 32.158766,21.979434 L 37.068811,17.246167 C 37.068811,17.246167 37.088388,32 37.088388,32 L 22.160133,31.978069 C 22.160133,31.978069 26.997745,27.140456 26.997745,27.140456 C 18.528582,18.264221 13.291696,25.230495 11.500037,31.436501 z"
     style="fill:#404040;"/>
  </a>
 </g>
</svg>

<style type='text/css'>
<![CDATA[
[data-mouse-over-selected='false'] { opacity: 0.7; }
[data-mouse-over-selected='true']  { opacity: 1.0; }
]]>
</style>
<script type="application/ecmascript"><![CDATA[
document.addEventListener('DOMContentLoaded', (event) => {
  highlightEdges();
  highlightAdjacentNodes();
});
]]></script>
</svg>
