<?xml version="1.0" encoding="UTF-8" standalone="no"?>
<!DOCTYPE svg PUBLIC "-//W3C//DTD SVG 1.1//EN"
 "http://www.w3.org/Graphics/SVG/1.1/DTD/svg11.dtd">
<!-- Generated by graphviz version 2.43.0 (0)
 -->
<!-- Title: include/Drivers/transDriverModel.h Pages: 1 -->
<svg width="1556pt" height="478pt"
 viewBox="0.00 0.00 1556.00 478.00" xmlns="http://www.w3.org/2000/svg" xmlns:xlink="http://www.w3.org/1999/xlink">
<g id="graph0" class="graph" transform="scale(1 1) rotate(0) translate(4 474)">
<title>include/Drivers/transDriverModel.h</title>
<!-- Node1 -->
<g id="Node000001" class="node">
<title>Node1</title>
<g id="a_Node000001"><a xlink:title=" ">
<polygon fill="#999999" stroke="#666666" points="708,-470 560,-470 560,-440 708,-440 708,-470"/>
<text text-anchor="start" x="568" y="-458" font-family="Helvetica,sans-Serif" font-size="10.00">include/Drivers/transDriver</text>
<text text-anchor="middle" x="634" y="-447" font-family="Helvetica,sans-Serif" font-size="10.00">Model.h</text>
</a>
</g>
</g>
<!-- Node2 -->
<g id="Node000002" class="node">
<title>Node2</title>
<g id="a_Node000002"><a xlink:title=" ">
<polygon fill="#e0e0e0" stroke="#999999" points="425,-19 381,-19 381,0 425,0 425,-19"/>
<text text-anchor="middle" x="403" y="-7" font-family="Helvetica,sans-Serif" font-size="10.00">string</text>
</a>
</g>
</g>
<!-- Node1&#45;&gt;Node2 -->
<g id="edge1_Node000001_Node000002" class="edge">
<title>Node1&#45;&gt;Node2</title>
<g id="a_edge1_Node000001_Node000002"><a xlink:title=" ">
<path fill="none" stroke="#63b8ff" d="M559.72,-448.39C392.3,-434.75 0,-396.79 0,-340.5 0,-340.5 0,-340.5 0,-118.5 0,-77.79 29.32,-72.66 66,-55 119.47,-29.26 296.91,-16.5 370.54,-12.21"/>
<polygon fill="#63b8ff" stroke="#63b8ff" points="370.84,-15.7 380.62,-11.64 370.44,-8.71 370.84,-15.7"/>
</a>
</g>
</g>
<!-- Node3 -->
<g id="Node000003" class="node">
<title>Node3</title>
<g id="a_Node000003"><a xlink:title=" ">
<polygon fill="#e0e0e0" stroke="#999999" points="923.5,-19 876.5,-19 876.5,0 923.5,0 923.5,-19"/>
<text text-anchor="middle" x="900" y="-7" font-family="Helvetica,sans-Serif" font-size="10.00">vector</text>
</a>
</g>
</g>
<!-- Node1&#45;&gt;Node3 -->
<g id="edge2_Node000001_Node000003" class="edge">
<title>Node1&#45;&gt;Node3</title>
<g id="a_edge2_Node000001_Node000003"><a xlink:title=" ">
<path fill="none" stroke="#63b8ff" d="M708.02,-452.55C925.61,-447.31 1548,-424.95 1548,-340.5 1548,-340.5 1548,-340.5 1548,-118.5 1548,-45.29 1467.07,-72.59 1396,-55 1226.13,-12.96 1014.8,-9.58 933.77,-10.01"/>
<polygon fill="#63b8ff" stroke="#63b8ff" points="933.63,-6.51 923.66,-10.08 933.69,-13.51 933.63,-6.51"/>
</a>
</g>
</g>
<!-- Node4 -->
<g id="Node000004" class="node">
<title>Node4</title>
<g id="a_Node000004"><a xlink:href="driverModel_8h.html" target="_top" xlink:title=" ">
<polygon fill="white" stroke="#666666" points="568,-294 446,-294 446,-275 568,-275 568,-294"/>
<text text-anchor="middle" x="507" y="-282" font-family="Helvetica,sans-Serif" font-size="10.00">Drivers/driverModel.h</text>
</a>
</g>
</g>
<!-- Node1&#45;&gt;Node4 -->
<g id="edge3_Node000001_Node000004" class="edge">
<title>Node1&#45;&gt;Node4</title>
<g id="a_edge3_Node000001_Node000004"><a xlink:title=" ">
<path fill="none" stroke="#63b8ff" d="M623.39,-439.92C600.18,-409.12 544.95,-335.85 519.83,-302.53"/>
<polygon fill="#63b8ff" stroke="#63b8ff" points="522.41,-300.13 513.6,-294.25 516.82,-304.35 522.41,-300.13"/>
</a>
</g>
</g>
<!-- Node19 -->
<g id="Node000019" class="node">
<title>Node19</title>
<g id="a_Node000019"><a xlink:href="transaction_8h_source.html" target="_top" xlink:title=" ">
<polygon fill="white" stroke="#666666" points="703.5,-184 564.5,-184 564.5,-165 703.5,-165 703.5,-184"/>
<text text-anchor="middle" x="634" y="-172" font-family="Helvetica,sans-Serif" font-size="10.00">Transaction/transaction.h</text>
</a>
</g>
</g>
<!-- Node1&#45;&gt;Node19 -->
<g id="edge64_Node000001_Node000019" class="edge">
<title>Node1&#45;&gt;Node19</title>
<g id="a_edge64_Node000001_Node000019"><a xlink:title=" ">
<path fill="none" stroke="#63b8ff" d="M634,-439.67C634,-418.14 634,-376.17 634,-340.5 634,-340.5 634,-340.5 634,-283.5 634,-252.19 634,-215.77 634,-194.23"/>
<polygon fill="#63b8ff" stroke="#63b8ff" points="637.5,-194.18 634,-184.18 630.5,-194.18 637.5,-194.18"/>
</a>
</g>
</g>
<!-- Node22 -->
<g id="Node000022" class="node">
<title>Node22</title>
<g id="a_Node000022"><a xlink:href="simulatorDriver_8h.html" target="_top" xlink:title=" ">
<polygon fill="white" stroke="#666666" points="802,-404 662,-404 662,-385 802,-385 802,-404"/>
<text text-anchor="middle" x="732" y="-392" font-family="Helvetica,sans-Serif" font-size="10.00">Drivers/simulatorDriver.h</text>
</a>
</g>
</g>
<!-- Node1&#45;&gt;Node22 -->
<g id="edge54_Node000001_Node000022" class="edge">
<title>Node1&#45;&gt;Node22</title>
<g id="a_edge54_Node000001_Node000022"><a xlink:title=" ">
<path fill="none" stroke="#63b8ff" d="M657.72,-439.84C673.2,-430.6 693.32,-418.59 708.71,-409.4"/>
<polygon fill="#63b8ff" stroke="#63b8ff" points="710.81,-412.23 717.6,-404.09 707.22,-406.21 710.81,-412.23"/>
</a>
</g>
</g>
<!-- Node4&#45;&gt;Node2 -->
<g id="edge6_Node000004_Node000002" class="edge">
<title>Node4&#45;&gt;Node2</title>
<g id="a_edge6_Node000004_Node000002"><a xlink:title=" ">
<path fill="none" stroke="#63b8ff" d="M445.69,-282.12C318.56,-277.59 38,-258.22 38,-175.5 38,-175.5 38,-175.5 38,-118.5 38,-72.05 78.31,-73.29 121,-55 205.82,-18.66 316.41,-11.64 370.44,-10.52"/>
<polygon fill="#63b8ff" stroke="#63b8ff" points="370.82,-14.01 380.77,-10.36 370.72,-7.01 370.82,-14.01"/>
</a>
</g>
</g>
<!-- Node5 -->
<g id="Node000005" class="node">
<title>Node5</title>
<g id="a_Node000005"><a xlink:title=" ">
<polygon fill="#e0e0e0" stroke="#999999" points="1377,-129 1319,-129 1319,-110 1377,-110 1377,-129"/>
<text text-anchor="middle" x="1348" y="-117" font-family="Helvetica,sans-Serif" font-size="10.00">memory</text>
</a>
</g>
</g>
<!-- Node4&#45;&gt;Node5 -->
<g id="edge4_Node000004_Node000005" class="edge">
<title>Node4&#45;&gt;Node5</title>
<g id="a_edge4_Node000004_Node000005"><a xlink:title=" ">
<path fill="none" stroke="#63b8ff" d="M568.16,-280.53C667.21,-275.24 868.71,-262.47 1038,-239 1164.92,-221.4 1221.4,-264.6 1321,-184 1334.8,-172.83 1341.67,-153.31 1345.01,-138.85"/>
<polygon fill="#63b8ff" stroke="#63b8ff" points="1348.45,-139.49 1346.93,-129 1341.58,-138.15 1348.45,-139.49"/>
</a>
</g>
</g>
<!-- Node6 -->
<g id="Node000006" class="node">
<title>Node6</title>
<g id="a_Node000006"><a xlink:title=" ">
<polygon fill="#e0e0e0" stroke="#999999" points="416,-129 360,-129 360,-110 416,-110 416,-129"/>
<text text-anchor="middle" x="388" y="-117" font-family="Helvetica,sans-Serif" font-size="10.00">optional</text>
</a>
</g>
</g>
<!-- Node4&#45;&gt;Node6 -->
<g id="edge5_Node000004_Node000006" class="edge">
<title>Node4&#45;&gt;Node6</title>
<g id="a_edge5_Node000004_Node000006"><a xlink:title=" ">
<path fill="none" stroke="#63b8ff" d="M500.6,-274.74C481.63,-248.76 425.47,-171.83 400.37,-137.44"/>
<polygon fill="#63b8ff" stroke="#63b8ff" points="403.15,-135.32 394.43,-129.31 397.5,-139.45 403.15,-135.32"/>
</a>
</g>
</g>
<!-- Node7 -->
<g id="Node000007" class="node">
<title>Node7</title>
<g id="a_Node000007"><a xlink:title=" ">
<polygon fill="#e0e0e0" stroke="#999999" points="777.5,-74 736.5,-74 736.5,-55 777.5,-55 777.5,-74"/>
<text text-anchor="middle" x="757" y="-62" font-family="Helvetica,sans-Serif" font-size="10.00">tuple</text>
</a>
</g>
</g>
<!-- Node4&#45;&gt;Node7 -->
<g id="edge7_Node000004_Node000007" class="edge">
<title>Node4&#45;&gt;Node7</title>
<g id="a_edge7_Node000004_Node000007"><a xlink:title=" ">
<path fill="none" stroke="#63b8ff" d="M508.41,-274.93C512.29,-253.73 524.99,-198.18 556,-165 603.75,-113.91 683.43,-85.53 726.74,-73.14"/>
<polygon fill="#63b8ff" stroke="#63b8ff" points="727.71,-76.51 736.42,-70.47 725.85,-69.76 727.71,-76.51"/>
</a>
</g>
</g>
<!-- Node8 -->
<g id="Node000008" class="node">
<title>Node8</title>
<g id="a_Node000008"><a xlink:title=" ">
<polygon fill="#e0e0e0" stroke="#999999" points="681.5,-19 588.5,-19 588.5,0 681.5,0 681.5,-19"/>
<text text-anchor="middle" x="635" y="-7" font-family="Helvetica,sans-Serif" font-size="10.00">unordered_map</text>
</a>
</g>
</g>
<!-- Node4&#45;&gt;Node8 -->
<g id="edge8_Node000004_Node000008" class="edge">
<title>Node4&#45;&gt;Node8</title>
<g id="a_edge8_Node000004_Node000008"><a xlink:title=" ">
<path fill="none" stroke="#63b8ff" d="M445.98,-279.79C382.54,-274.68 288.93,-263.2 263,-239 221.09,-199.88 222.71,-150.79 263,-110 306.99,-65.48 485.62,-32.86 578.41,-18.54"/>
<polygon fill="#63b8ff" stroke="#63b8ff" points="579.12,-21.98 588.48,-17.01 578.06,-15.06 579.12,-21.98"/>
</a>
</g>
</g>
<!-- Node9 -->
<g id="Node000009" class="node">
<title>Node9</title>
<g id="a_Node000009"><a xlink:title=" ">
<polygon fill="#e0e0e0" stroke="#999999" points="1386.5,-74 1341.5,-74 1341.5,-55 1386.5,-55 1386.5,-74"/>
<text text-anchor="middle" x="1364" y="-62" font-family="Helvetica,sans-Serif" font-size="10.00">utility</text>
</a>
</g>
</g>
<!-- Node4&#45;&gt;Node9 -->
<g id="edge9_Node000004_Node000009" class="edge">
<title>Node4&#45;&gt;Node9</title>
<g id="a_edge9_Node000004_Node000009"><a xlink:title=" ">
<path fill="none" stroke="#63b8ff" d="M568.18,-284.02C684.88,-283.99 946.93,-278.97 1163,-239 1244.84,-223.86 1273.17,-230.79 1342,-184 1367.89,-166.4 1375.64,-158.54 1386,-129 1391.48,-113.38 1384.13,-95.58 1376.49,-82.8"/>
<polygon fill="#63b8ff" stroke="#63b8ff" points="1379.21,-80.57 1370.8,-74.13 1373.36,-84.41 1379.21,-80.57"/>
</a>
</g>
</g>
<!-- Node10 -->
<g id="Node000010" class="node">
<title>Node10</title>
<g id="a_Node000010"><a xlink:title=" ">
<polygon fill="#e0e0e0" stroke="#999999" points="572.5,-74 507.5,-74 507.5,-55 572.5,-55 572.5,-74"/>
<text text-anchor="middle" x="540" y="-62" font-family="Helvetica,sans-Serif" font-size="10.00">functional</text>
</a>
</g>
</g>
<!-- Node4&#45;&gt;Node10 -->
<g id="edge10_Node000004_Node000010" class="edge">
<title>Node4&#45;&gt;Node10</title>
<g id="a_edge10_Node000004_Node000010"><a xlink:title=" ">
<path fill="none" stroke="#63b8ff" d="M445.74,-280.04C385.82,-275.23 300.64,-264.08 280,-239 243.57,-194.73 243.04,-153.83 280,-110 293.83,-93.6 426.71,-77.37 496.95,-69.84"/>
<polygon fill="#63b8ff" stroke="#63b8ff" points="497.68,-73.29 507.25,-68.75 496.94,-66.33 497.68,-73.29"/>
</a>
</g>
</g>
<!-- Node11 -->
<g id="Node000011" class="node">
<title>Node11</title>
<g id="a_Node000011"><a xlink:href="channel_8h.html" target="_top" xlink:title=" ">
<polygon fill="white" stroke="#666666" points="1028.5,-239 921.5,-239 921.5,-220 1028.5,-220 1028.5,-239"/>
<text text-anchor="middle" x="975" y="-227" font-family="Helvetica,sans-Serif" font-size="10.00">Channel/channel.h</text>
</a>
</g>
</g>
<!-- Node4&#45;&gt;Node11 -->
<g id="edge11_Node000004_Node000011" class="edge">
<title>Node4&#45;&gt;Node11</title>
<g id="a_edge11_Node000004_Node000011"><a xlink:title=" ">
<path fill="none" stroke="#63b8ff" d="M568.18,-276.57C657.05,-266.51 821.06,-247.93 911.31,-237.71"/>
<polygon fill="#63b8ff" stroke="#63b8ff" points="911.87,-241.17 921.41,-236.57 911.08,-234.22 911.87,-241.17"/>
</a>
</g>
</g>
<!-- Node18 -->
<g id="Node000018" class="node">
<title>Node18</title>
<g id="a_Node000018"><a xlink:href="types_8h.html" target="_top" xlink:title=" ">
<polygon fill="white" stroke="#666666" points="679.5,-74 590.5,-74 590.5,-55 679.5,-55 679.5,-74"/>
<text text-anchor="middle" x="635" y="-62" font-family="Helvetica,sans-Serif" font-size="10.00">Library/types.h</text>
</a>
</g>
</g>
<!-- Node4&#45;&gt;Node18 -->
<g id="edge52_Node000004_Node000018" class="edge">
<title>Node4&#45;&gt;Node18</title>
<g id="a_edge52_Node000004_Node000018"><a xlink:title=" ">
<path fill="none" stroke="#63b8ff" d="M483.13,-274.85C419.92,-250.71 257.08,-179.8 318,-110 355.11,-67.48 508.1,-81.2 580.42,-73.95"/>
<polygon fill="#63b8ff" stroke="#63b8ff" points="580.98,-77.41 590.48,-72.72 580.13,-70.46 580.98,-77.41"/>
</a>
</g>
</g>
<!-- Node4&#45;&gt;Node19 -->
<g id="edge51_Node000004_Node000019" class="edge">
<title>Node4&#45;&gt;Node19</title>
<g id="a_edge51_Node000004_Node000019"><a xlink:title=" ">
<path fill="none" stroke="#63b8ff" d="M517.39,-274.66C538.99,-256.3 588.95,-213.81 615.93,-190.87"/>
<polygon fill="#63b8ff" stroke="#63b8ff" points="618.47,-193.3 623.82,-184.16 613.93,-187.97 618.47,-193.3"/>
</a>
</g>
</g>
<!-- Node20 -->
<g id="Node000020" class="node">
<title>Node20</title>
<g id="a_Node000020"><a xlink:href="error_8h.html" target="_top" xlink:title=" ">
<polygon fill="white" stroke="#666666" points="151.5,-129 66.5,-129 66.5,-110 151.5,-110 151.5,-129"/>
<text text-anchor="middle" x="109" y="-117" font-family="Helvetica,sans-Serif" font-size="10.00">Library/error.h</text>
</a>
</g>
</g>
<!-- Node4&#45;&gt;Node20 -->
<g id="edge53_Node000004_Node000020" class="edge">
<title>Node4&#45;&gt;Node20</title>
<g id="a_edge53_Node000004_Node000020"><a xlink:title=" ">
<path fill="none" stroke="#63b8ff" d="M445.84,-282.38C360.02,-279.67 209.48,-270.44 166,-239 132.66,-214.89 118.01,-165.98 112.26,-139.15"/>
<polygon fill="#63b8ff" stroke="#63b8ff" points="115.66,-138.29 110.31,-129.14 108.79,-139.63 115.66,-138.29"/>
</a>
</g>
</g>
<!-- Node11&#45;&gt;Node2 -->
<g id="edge15_Node000011_Node000002" class="edge">
<title>Node11&#45;&gt;Node2</title>
<g id="a_edge15_Node000011_Node000002"><a xlink:title=" ">
<path fill="none" stroke="#63b8ff" d="M921.23,-227.59C822.88,-225.15 618.39,-216.24 556,-184 485.88,-147.77 433.25,-64.92 412.58,-28.38"/>
<polygon fill="#63b8ff" stroke="#63b8ff" points="415.51,-26.44 407.61,-19.38 409.38,-29.82 415.51,-26.44"/>
</a>
</g>
</g>
<!-- Node11&#45;&gt;Node3 -->
<g id="edge20_Node000011_Node000003" class="edge">
<title>Node11&#45;&gt;Node3</title>
<g id="a_edge20_Node000011_Node000003"><a xlink:title=" ">
<path fill="none" stroke="#63b8ff" d="M1028.73,-220.72C1100.3,-210.1 1218.7,-191.52 1225,-184 1235.66,-171.28 1278.25,-118.92 1220,-55 1182.28,-13.61 1008.72,-9.71 934.17,-10"/>
<polygon fill="#63b8ff" stroke="#63b8ff" points="933.9,-6.51 923.92,-10.07 933.94,-13.51 933.9,-6.51"/>
</a>
</g>
</g>
<!-- Node11&#45;&gt;Node5 -->
<g id="edge13_Node000011_Node000005" class="edge">
<title>Node11&#45;&gt;Node5</title>
<g id="a_edge13_Node000011_Node000005"><a xlink:title=" ">
<path fill="none" stroke="#63b8ff" d="M1028.77,-225.77C1107.94,-220.97 1251.35,-209.05 1296,-184 1314.96,-173.36 1329.79,-152.85 1338.68,-138.01"/>
<polygon fill="#63b8ff" stroke="#63b8ff" points="1341.77,-139.67 1343.65,-129.24 1335.67,-136.22 1341.77,-139.67"/>
</a>
</g>
</g>
<!-- Node11&#45;&gt;Node7 -->
<g id="edge16_Node000011_Node000007" class="edge">
<title>Node11&#45;&gt;Node7</title>
<g id="a_edge16_Node000011_Node000007"><a xlink:title=" ">
<path fill="none" stroke="#63b8ff" d="M979.76,-219.96C987.61,-206.59 1004.45,-180.63 1025,-165 1061.12,-137.54 1141.01,-144.02 1111,-110 1110.83,-109.81 873.77,-80.12 787.73,-69.35"/>
<polygon fill="#63b8ff" stroke="#63b8ff" points="787.91,-65.84 777.55,-68.07 787.04,-72.79 787.91,-65.84"/>
</a>
</g>
</g>
<!-- Node11&#45;&gt;Node8 -->
<g id="edge17_Node000011_Node000008" class="edge">
<title>Node11&#45;&gt;Node8</title>
<g id="a_edge17_Node000011_Node000008"><a xlink:title=" ">
<path fill="none" stroke="#63b8ff" d="M990.85,-219.84C1007.19,-210.89 1033.4,-196.52 1056,-184 1071.14,-175.61 1074.72,-173.14 1090,-165 1121.23,-148.37 1142.48,-159.15 1161,-129 1165.42,-121.8 1166.36,-116.52 1161,-110 1102.06,-38.36 815.16,-17.94 691.69,-12.43"/>
<polygon fill="#63b8ff" stroke="#63b8ff" points="691.82,-8.93 681.68,-12 691.52,-15.92 691.82,-8.93"/>
</a>
</g>
</g>
<!-- Node11&#45;&gt;Node9 -->
<g id="edge19_Node000011_Node000009" class="edge">
<title>Node11&#45;&gt;Node9</title>
<g id="a_edge19_Node000011_Node000009"><a xlink:title=" ">
<path fill="none" stroke="#63b8ff" d="M1028.54,-225.05C1099.66,-219.64 1220.64,-207.27 1258,-184 1292.12,-162.75 1282.69,-139.49 1310,-110 1320.06,-99.14 1332.78,-88.53 1343.35,-80.4"/>
<polygon fill="#63b8ff" stroke="#63b8ff" points="1345.71,-83 1351.61,-74.2 1341.51,-77.4 1345.71,-83"/>
</a>
</g>
</g>
<!-- Node12 -->
<g id="Node000012" class="node">
<title>Node12</title>
<g id="a_Node000012"><a xlink:title=" ">
<polygon fill="#e0e0e0" stroke="#999999" points="1151.5,-184 1098.5,-184 1098.5,-165 1151.5,-165 1151.5,-184"/>
<text text-anchor="middle" x="1125" y="-172" font-family="Helvetica,sans-Serif" font-size="10.00">iterator</text>
</a>
</g>
</g>
<!-- Node11&#45;&gt;Node12 -->
<g id="edge12_Node000011_Node000012" class="edge">
<title>Node11&#45;&gt;Node12</title>
<g id="a_edge12_Node000011_Node000012"><a xlink:title=" ">
<path fill="none" stroke="#63b8ff" d="M999.1,-219.98C1023.88,-211.23 1062.7,-197.51 1090.69,-187.62"/>
<polygon fill="#63b8ff" stroke="#63b8ff" points="1092.2,-190.8 1100.46,-184.17 1089.87,-184.2 1092.2,-190.8"/>
</a>
</g>
</g>
<!-- Node13 -->
<g id="Node000013" class="node">
<title>Node13</title>
<g id="a_Node000013"><a xlink:title=" ">
<polygon fill="#e0e0e0" stroke="#999999" points="1102,-129 1054,-129 1054,-110 1102,-110 1102,-129"/>
<text text-anchor="middle" x="1078" y="-117" font-family="Helvetica,sans-Serif" font-size="10.00">mutex</text>
</a>
</g>
</g>
<!-- Node11&#45;&gt;Node13 -->
<g id="edge14_Node000011_Node000013" class="edge">
<title>Node11&#45;&gt;Node13</title>
<g id="a_edge14_Node000011_Node000013"><a xlink:title=" ">
<path fill="none" stroke="#63b8ff" d="M973.12,-219.78C970.79,-206.62 968.44,-181.48 980,-165 987.91,-153.72 1019.21,-140.68 1044.34,-131.64"/>
<polygon fill="#63b8ff" stroke="#63b8ff" points="1045.67,-134.88 1053.95,-128.26 1043.35,-128.27 1045.67,-134.88"/>
</a>
</g>
</g>
<!-- Node14 -->
<g id="Node000014" class="node">
<title>Node14</title>
<g id="a_Node000014"><a xlink:title=" ">
<polygon fill="#e0e0e0" stroke="#999999" points="872,-74 834,-74 834,-55 872,-55 872,-74"/>
<text text-anchor="middle" x="853" y="-62" font-family="Helvetica,sans-Serif" font-size="10.00">map</text>
</a>
</g>
</g>
<!-- Node11&#45;&gt;Node14 -->
<g id="edge18_Node000011_Node000014" class="edge">
<title>Node11&#45;&gt;Node14</title>
<g id="a_edge18_Node000011_Node000014"><a xlink:title=" ">
<path fill="none" stroke="#63b8ff" d="M984.34,-219.75C998.81,-206.54 1027.88,-181.34 1056,-165 1095.87,-141.82 1174.05,-144.99 1144,-110 1110.49,-70.97 949.76,-65.81 882.6,-65.38"/>
<polygon fill="#63b8ff" stroke="#63b8ff" points="882.3,-61.88 872.29,-65.35 882.28,-68.88 882.3,-61.88"/>
</a>
</g>
</g>
<!-- Node15 -->
<g id="Node000015" class="node">
<title>Node15</title>
<g id="a_Node000015"><a xlink:title=" ">
<polygon fill="#e0e0e0" stroke="#999999" points="1216,-184 1170,-184 1170,-165 1216,-165 1216,-184"/>
<text text-anchor="middle" x="1193" y="-172" font-family="Helvetica,sans-Serif" font-size="10.00">future</text>
</a>
</g>
</g>
<!-- Node11&#45;&gt;Node15 -->
<g id="edge21_Node000011_Node000015" class="edge">
<title>Node11&#45;&gt;Node15</title>
<g id="a_edge21_Node000011_Node000015"><a xlink:title=" ">
<path fill="none" stroke="#63b8ff" d="M1011.77,-219.99C1047.28,-211.7 1102.84,-198.58 1160.01,-184.2"/>
<polygon fill="#63b8ff" stroke="#63b8ff" points="1161.11,-187.54 1169.95,-181.7 1159.39,-180.75 1161.11,-187.54"/>
</a>
</g>
</g>
<!-- Node16 -->
<g id="Node000016" class="node">
<title>Node16</title>
<g id="a_Node000016"><a xlink:title=" ">
<polygon fill="#e0e0e0" stroke="#999999" points="210,-74 150,-74 150,-55 210,-55 210,-74"/>
<text text-anchor="middle" x="180" y="-62" font-family="Helvetica,sans-Serif" font-size="10.00">iostream</text>
</a>
</g>
</g>
<!-- Node11&#45;&gt;Node16 -->
<g id="edge22_Node000011_Node000016" class="edge">
<title>Node11&#45;&gt;Node16</title>
<g id="a_edge22_Node000011_Node000016"><a xlink:title=" ">
<path fill="none" stroke="#63b8ff" d="M921.22,-229.07C827.7,-228.9 629.61,-223.37 468,-184 366.3,-159.23 253.72,-104.15 204.87,-78.78"/>
<polygon fill="#63b8ff" stroke="#63b8ff" points="206.45,-75.66 195.97,-74.11 203.21,-81.86 206.45,-75.66"/>
</a>
</g>
</g>
<!-- Node17 -->
<g id="Node000017" class="node">
<title>Node17</title>
<g id="a_Node000017"><a xlink:title=" ">
<polygon fill="#e0e0e0" stroke="#999999" points="1036,-129 950,-129 950,-110 1036,-110 1036,-129"/>
<text text-anchor="middle" x="993" y="-117" font-family="Helvetica,sans-Serif" font-size="10.00">shared_mutex</text>
</a>
</g>
</g>
<!-- Node11&#45;&gt;Node17 -->
<g id="edge23_Node000011_Node000017" class="edge">
<title>Node11&#45;&gt;Node17</title>
<g id="a_edge23_Node000011_Node000017"><a xlink:title=" ">
<path fill="none" stroke="#63b8ff" d="M964.69,-219.6C951.94,-207.45 932.95,-184.91 942,-165 947.62,-152.63 958.57,-142.36 968.89,-134.81"/>
<polygon fill="#63b8ff" stroke="#63b8ff" points="970.96,-137.63 977.27,-129.12 967.03,-131.84 970.96,-137.63"/>
</a>
</g>
</g>
<!-- Node11&#45;&gt;Node18 -->
<g id="edge24_Node000011_Node000018" class="edge">
<title>Node11&#45;&gt;Node18</title>
<g id="a_edge24_Node000011_Node000018"><a xlink:title=" ">
<path fill="none" stroke="#63b8ff" d="M929.21,-219.99C870.21,-207.41 766.3,-179.69 691,-129 672.6,-116.61 656.43,-96.76 646.25,-82.55"/>
<polygon fill="#63b8ff" stroke="#63b8ff" points="649.03,-80.41 640.47,-74.16 643.27,-84.38 649.03,-80.41"/>
</a>
</g>
</g>
<!-- Node11&#45;&gt;Node19 -->
<g id="edge28_Node000011_Node000019" class="edge">
<title>Node11&#45;&gt;Node19</title>
<g id="a_edge28_Node000011_Node000019"><a xlink:title=" ">
<path fill="none" stroke="#63b8ff" d="M921.34,-220.16C861.08,-210.79 763.29,-195.59 698.81,-185.57"/>
<polygon fill="#63b8ff" stroke="#63b8ff" points="699.17,-182.09 688.75,-184.01 698.1,-189 699.17,-182.09"/>
</a>
</g>
</g>
<!-- Node18&#45;&gt;Node2 -->
<g id="edge27_Node000018_Node000002" class="edge">
<title>Node18&#45;&gt;Node2</title>
<g id="a_edge27_Node000018_Node000002"><a xlink:title=" ">
<path fill="none" stroke="#63b8ff" d="M597.73,-54.98C552.64,-44.69 477.52,-27.52 434.96,-17.8"/>
<polygon fill="#63b8ff" stroke="#63b8ff" points="435.66,-14.37 425.14,-15.56 434.1,-21.2 435.66,-14.37"/>
</a>
</g>
</g>
<!-- Node18&#45;&gt;Node3 -->
<g id="edge25_Node000018_Node000003" class="edge">
<title>Node18&#45;&gt;Node3</title>
<g id="a_edge25_Node000018_Node000003"><a xlink:title=" ">
<path fill="none" stroke="#63b8ff" d="M677.58,-54.98C730.19,-44.46 818.62,-26.78 866.6,-17.18"/>
<polygon fill="#63b8ff" stroke="#63b8ff" points="867.36,-20.6 876.48,-15.2 865.99,-13.73 867.36,-20.6"/>
</a>
</g>
</g>
<!-- Node18&#45;&gt;Node8 -->
<g id="edge26_Node000018_Node000008" class="edge">
<title>Node18&#45;&gt;Node8</title>
<g id="a_edge26_Node000018_Node000008"><a xlink:title=" ">
<path fill="none" stroke="#63b8ff" d="M635,-54.75C635,-47.8 635,-37.85 635,-29.13"/>
<polygon fill="#63b8ff" stroke="#63b8ff" points="638.5,-29.09 635,-19.09 631.5,-29.09 638.5,-29.09"/>
</a>
</g>
</g>
<!-- Node19&#45;&gt;Node2 -->
<g id="edge32_Node000019_Node000002" class="edge">
<title>Node19&#45;&gt;Node2</title>
<g id="a_edge32_Node000019_Node000002"><a xlink:title=" ">
<path fill="none" stroke="#63b8ff" d="M621.91,-164.97C584.49,-138.57 470.34,-58.02 423.44,-24.93"/>
<polygon fill="#63b8ff" stroke="#63b8ff" points="425.44,-22.05 415.25,-19.15 421.41,-27.77 425.44,-22.05"/>
</a>
</g>
</g>
<!-- Node19&#45;&gt;Node3 -->
<g id="edge34_Node000019_Node000003" class="edge">
<title>Node19&#45;&gt;Node3</title>
<g id="a_edge34_Node000019_Node000003"><a xlink:title=" ">
<path fill="none" stroke="#63b8ff" d="M703.79,-172.7C748.29,-169.05 805.24,-158.28 847,-129 880.26,-105.68 892.96,-56.45 897.56,-29.36"/>
<polygon fill="#63b8ff" stroke="#63b8ff" points="901.06,-29.65 899.07,-19.25 894.13,-28.62 901.06,-29.65"/>
</a>
</g>
</g>
<!-- Node19&#45;&gt;Node5 -->
<g id="edge35_Node000019_Node000005" class="edge">
<title>Node19&#45;&gt;Node5</title>
<g id="a_edge35_Node000019_Node000005"><a xlink:title=" ">
<path fill="none" stroke="#63b8ff" d="M703.76,-168.32C851.61,-157.35 1192.42,-132.05 1308.47,-123.43"/>
<polygon fill="#63b8ff" stroke="#63b8ff" points="1308.95,-126.91 1318.67,-122.68 1308.43,-119.93 1308.95,-126.91"/>
</a>
</g>
</g>
<!-- Node19&#45;&gt;Node6 -->
<g id="edge37_Node000019_Node000006" class="edge">
<title>Node19&#45;&gt;Node6</title>
<g id="a_edge37_Node000019_Node000006"><a xlink:title=" ">
<path fill="none" stroke="#63b8ff" d="M594.48,-164.98C548.14,-155 471.86,-138.57 426.13,-128.72"/>
<polygon fill="#63b8ff" stroke="#63b8ff" points="426.82,-125.28 416.31,-126.6 425.35,-132.13 426.82,-125.28"/>
</a>
</g>
</g>
<!-- Node19&#45;&gt;Node9 -->
<g id="edge33_Node000019_Node000009" class="edge">
<title>Node19&#45;&gt;Node9</title>
<g id="a_edge33_Node000019_Node000009"><a xlink:title=" ">
<path fill="none" stroke="#63b8ff" d="M703.73,-166.55C757.59,-160.03 833.56,-148.34 898,-129 918.01,-122.99 920.81,-115.38 941,-110 1082.51,-72.29 1258.62,-66.3 1330.81,-65.52"/>
<polygon fill="#63b8ff" stroke="#63b8ff" points="1331.11,-69.01 1341.08,-65.43 1331.05,-62.01 1331.11,-69.01"/>
</a>
</g>
</g>
<!-- Node19&#45;&gt;Node10 -->
<g id="edge38_Node000019_Node000010" class="edge">
<title>Node19&#45;&gt;Node10</title>
<g id="a_edge38_Node000019_Node000010"><a xlink:title=" ">
<path fill="none" stroke="#63b8ff" d="M626.31,-164.66C610.53,-146.54 574.3,-104.91 554.16,-81.77"/>
<polygon fill="#63b8ff" stroke="#63b8ff" points="556.74,-79.4 547.54,-74.16 551.46,-84 556.74,-79.4"/>
</a>
</g>
</g>
<!-- Node19&#45;&gt;Node13 -->
<g id="edge30_Node000019_Node000013" class="edge">
<title>Node19&#45;&gt;Node13</title>
<g id="a_edge30_Node000019_Node000013"><a xlink:title=" ">
<path fill="none" stroke="#63b8ff" d="M703.52,-169.04C783.44,-163.23 918.65,-151.3 1043.79,-128.96"/>
<polygon fill="#63b8ff" stroke="#63b8ff" points="1044.72,-132.35 1053.94,-127.13 1043.47,-125.46 1044.72,-132.35"/>
</a>
</g>
</g>
<!-- Node19&#45;&gt;Node14 -->
<g id="edge36_Node000019_Node000014" class="edge">
<title>Node19&#45;&gt;Node14</title>
<g id="a_edge36_Node000019_Node000014"><a xlink:title=" ">
<path fill="none" stroke="#63b8ff" d="M699.19,-164.99C747.38,-157.53 807.81,-145.31 827,-129 840.18,-117.8 846.77,-98.88 850.01,-84.6"/>
<polygon fill="#63b8ff" stroke="#63b8ff" points="853.52,-84.85 851.95,-74.38 846.65,-83.55 853.52,-84.85"/>
</a>
</g>
</g>
<!-- Node19&#45;&gt;Node16 -->
<g id="edge29_Node000019_Node000016" class="edge">
<title>Node19&#45;&gt;Node16</title>
<g id="a_edge29_Node000019_Node000016"><a xlink:title=" ">
<path fill="none" stroke="#63b8ff" d="M609.16,-164.93C570.27,-151.75 492.45,-126.32 425,-110 353.56,-92.72 268.94,-78.76 220.17,-71.34"/>
<polygon fill="#63b8ff" stroke="#63b8ff" points="220.44,-67.84 210.03,-69.81 219.39,-74.76 220.44,-67.84"/>
</a>
</g>
</g>
<!-- Node19&#45;&gt;Node17 -->
<g id="edge31_Node000019_Node000017" class="edge">
<title>Node19&#45;&gt;Node17</title>
<g id="a_edge31_Node000019_Node000017"><a xlink:title=" ">
<path fill="none" stroke="#63b8ff" d="M691.9,-165C752.7,-156.07 851.07,-141.59 936,-129 937.25,-128.81 938.52,-128.63 939.8,-128.44"/>
<polygon fill="#63b8ff" stroke="#63b8ff" points="940.36,-131.89 949.74,-126.96 939.34,-124.97 940.36,-131.89"/>
</a>
</g>
</g>
<!-- Node19&#45;&gt;Node18 -->
<g id="edge39_Node000019_Node000018" class="edge">
<title>Node19&#45;&gt;Node18</title>
<g id="a_edge39_Node000019_Node000018"><a xlink:title=" ">
<path fill="none" stroke="#63b8ff" d="M634.08,-164.66C634.24,-147.17 634.61,-107.8 634.83,-84.27"/>
<polygon fill="#63b8ff" stroke="#63b8ff" points="638.33,-84.19 634.92,-74.16 631.33,-84.13 638.33,-84.19"/>
</a>
</g>
</g>
<!-- Node19&#45;&gt;Node20 -->
<g id="edge40_Node000019_Node000020" class="edge">
<title>Node19&#45;&gt;Node20</title>
<g id="a_edge40_Node000019_Node000020"><a xlink:title=" ">
<path fill="none" stroke="#63b8ff" d="M564.28,-166.46C457.71,-155.7 256.66,-135.41 161.48,-125.8"/>
<polygon fill="#63b8ff" stroke="#63b8ff" points="161.81,-122.31 151.51,-124.79 161.11,-129.28 161.81,-122.31"/>
</a>
</g>
</g>
<!-- Node21 -->
<g id="Node000021" class="node">
<title>Node21</title>
<g id="a_Node000021"><a xlink:href="evaluate_8h.html" target="_top" xlink:title=" ">
<polygon fill="white" stroke="#666666" points="818,-129 700,-129 700,-110 818,-110 818,-129"/>
<text text-anchor="middle" x="759" y="-117" font-family="Helvetica,sans-Serif" font-size="10.00">Evaluator/evaluate.h</text>
</a>
</g>
</g>
<!-- Node19&#45;&gt;Node21 -->
<g id="edge43_Node000019_Node000021" class="edge">
<title>Node19&#45;&gt;Node21</title>
<g id="a_edge43_Node000019_Node000021"><a xlink:title=" ">
<path fill="none" stroke="#63b8ff" d="M654.08,-164.98C674.37,-156.38 705.96,-142.99 729.17,-133.15"/>
<polygon fill="#63b8ff" stroke="#63b8ff" points="730.71,-136.3 738.55,-129.17 727.98,-129.85 730.71,-136.3"/>
</a>
</g>
</g>
<!-- Node20&#45;&gt;Node2 -->
<g id="edge41_Node000020_Node000002" class="edge">
<title>Node20&#45;&gt;Node2</title>
<g id="a_edge41_Node000020_Node000002"><a xlink:title=" ">
<path fill="none" stroke="#63b8ff" d="M110.73,-109.91C114.01,-95.98 122.53,-68.64 141,-55 176.97,-28.43 308.71,-16.58 370.54,-12.4"/>
<polygon fill="#63b8ff" stroke="#63b8ff" points="371.14,-15.87 380.89,-11.72 370.68,-8.88 371.14,-15.87"/>
</a>
</g>
</g>
<!-- Node20&#45;&gt;Node16 -->
<g id="edge42_Node000020_Node000016" class="edge">
<title>Node20&#45;&gt;Node16</title>
<g id="a_edge42_Node000020_Node000016"><a xlink:title=" ">
<path fill="none" stroke="#63b8ff" d="M120.41,-109.98C131.11,-102 147.34,-89.88 160.16,-80.31"/>
<polygon fill="#63b8ff" stroke="#63b8ff" points="162.47,-82.96 168.39,-74.17 158.28,-77.35 162.47,-82.96"/>
</a>
</g>
</g>
<!-- Node21&#45;&gt;Node2 -->
<g id="edge46_Node000021_Node000002" class="edge">
<title>Node21&#45;&gt;Node2</title>
<g id="a_edge46_Node000021_Node000002"><a xlink:title=" ">
<path fill="none" stroke="#63b8ff" d="M752.34,-109.8C741.01,-95.71 716.54,-68.15 689,-55 603.98,-14.4 490.08,-9.4 435.21,-9.63"/>
<polygon fill="#63b8ff" stroke="#63b8ff" points="435.01,-6.13 425.05,-9.74 435.09,-13.13 435.01,-6.13"/>
</a>
</g>
</g>
<!-- Node21&#45;&gt;Node3 -->
<g id="edge45_Node000021_Node000003" class="edge">
<title>Node21&#45;&gt;Node3</title>
<g id="a_edge45_Node000021_Node000003"><a xlink:title=" ">
<path fill="none" stroke="#63b8ff" d="M766.98,-109.62C778.85,-96.69 802.23,-72.34 825,-55 840.41,-43.26 859.16,-32.14 874.05,-23.95"/>
<polygon fill="#63b8ff" stroke="#63b8ff" points="876.07,-26.84 883.21,-19.02 872.75,-20.68 876.07,-26.84"/>
</a>
</g>
</g>
<!-- Node21&#45;&gt;Node7 -->
<g id="edge48_Node000021_Node000007" class="edge">
<title>Node21&#45;&gt;Node7</title>
<g id="a_edge48_Node000021_Node000007"><a xlink:title=" ">
<path fill="none" stroke="#63b8ff" d="M758.67,-109.75C758.41,-102.8 758.03,-92.85 757.7,-84.13"/>
<polygon fill="#63b8ff" stroke="#63b8ff" points="761.2,-83.95 757.32,-74.09 754.2,-84.21 761.2,-83.95"/>
</a>
</g>
</g>
<!-- Node21&#45;&gt;Node9 -->
<g id="edge44_Node000021_Node000009" class="edge">
<title>Node21&#45;&gt;Node9</title>
<g id="a_edge44_Node000021_Node000009"><a xlink:title=" ">
<path fill="none" stroke="#63b8ff" d="M818.11,-113.32C943.64,-102.33 1233.3,-76.95 1331.08,-68.38"/>
<polygon fill="#63b8ff" stroke="#63b8ff" points="1331.59,-71.85 1341.25,-67.49 1330.98,-64.88 1331.59,-71.85"/>
</a>
</g>
</g>
<!-- Node21&#45;&gt;Node10 -->
<g id="edge47_Node000021_Node000010" class="edge">
<title>Node21&#45;&gt;Node10</title>
<g id="a_edge47_Node000021_Node000010"><a xlink:title=" ">
<path fill="none" stroke="#63b8ff" d="M723.81,-109.98C685.28,-100.66 623.49,-85.71 582.33,-75.74"/>
<polygon fill="#63b8ff" stroke="#63b8ff" points="583.14,-72.34 572.6,-73.39 581.49,-79.14 583.14,-72.34"/>
</a>
</g>
</g>
<!-- Node21&#45;&gt;Node14 -->
<g id="edge49_Node000021_Node000014" class="edge">
<title>Node21&#45;&gt;Node14</title>
<g id="a_edge49_Node000021_Node000014"><a xlink:title=" ">
<path fill="none" stroke="#63b8ff" d="M774.1,-109.98C788.82,-101.69 811.42,-88.94 828.67,-79.22"/>
<polygon fill="#63b8ff" stroke="#63b8ff" points="830.63,-82.13 837.62,-74.17 827.19,-76.03 830.63,-82.13"/>
</a>
</g>
</g>
<!-- Node21&#45;&gt;Node18 -->
<g id="edge50_Node000021_Node000018" class="edge">
<title>Node21&#45;&gt;Node18</title>
<g id="a_edge50_Node000021_Node000018"><a xlink:title=" ">
<path fill="none" stroke="#63b8ff" d="M739.08,-109.98C718.95,-101.38 687.62,-87.99 664.59,-78.15"/>
<polygon fill="#63b8ff" stroke="#63b8ff" points="665.86,-74.88 655.29,-74.17 663.1,-81.32 665.86,-74.88"/>
</a>
</g>
</g>
<!-- Node22&#45;&gt;Node4 -->
<g id="edge56_Node000022_Node000004" class="edge">
<title>Node22&#45;&gt;Node4</title>
<g id="a_edge56_Node000022_Node000004"><a xlink:title=" ">
<path fill="none" stroke="#63b8ff" d="M713.97,-384.84C674.54,-365.92 580.47,-320.77 533.97,-298.45"/>
<polygon fill="#63b8ff" stroke="#63b8ff" points="535.34,-295.22 524.81,-294.05 532.31,-301.53 535.34,-295.22"/>
</a>
</g>
</g>
<!-- Node22&#45;&gt;Node9 -->
<g id="edge55_Node000022_Node000009" class="edge">
<title>Node22&#45;&gt;Node9</title>
<g id="a_edge55_Node000022_Node000009"><a xlink:title=" ">
<path fill="none" stroke="#63b8ff" d="M802.07,-391.08C993.31,-383.55 1510,-356.62 1510,-285.5 1510,-285.5 1510,-285.5 1510,-173.5 1510,-117.46 1439.61,-87.17 1396.58,-73.89"/>
<polygon fill="#63b8ff" stroke="#63b8ff" points="1397.39,-70.48 1386.81,-71.02 1395.42,-77.2 1397.39,-70.48"/>
</a>
</g>
</g>
<!-- Node23 -->
<g id="Node000023" class="node">
<title>Node23</title>
<g id="a_Node000023"><a xlink:href="simulator_8h.html" target="_top" xlink:title=" ">
<polygon fill="white" stroke="#666666" points="793,-349 671,-349 671,-330 793,-330 793,-349"/>
<text text-anchor="middle" x="732" y="-337" font-family="Helvetica,sans-Serif" font-size="10.00">Simulator/simulator.h</text>
</a>
</g>
</g>
<!-- Node22&#45;&gt;Node23 -->
<g id="edge57_Node000022_Node000023" class="edge">
<title>Node22&#45;&gt;Node23</title>
<g id="a_edge57_Node000022_Node000023"><a xlink:title=" ">
<path fill="none" stroke="#63b8ff" d="M732,-384.75C732,-377.8 732,-367.85 732,-359.13"/>
<polygon fill="#63b8ff" stroke="#63b8ff" points="735.5,-359.09 732,-349.09 728.5,-359.09 735.5,-359.09"/>
</a>
</g>
</g>
<!-- Node23&#45;&gt;Node4 -->
<g id="edge61_Node000023_Node000004" class="edge">
<title>Node23&#45;&gt;Node4</title>
<g id="a_edge61_Node000023_Node000004"><a xlink:title=" ">
<path fill="none" stroke="#63b8ff" d="M695.85,-329.98C657.09,-320.86 595.45,-306.33 553.2,-296.38"/>
<polygon fill="#63b8ff" stroke="#63b8ff" points="553.97,-292.97 543.43,-294.08 552.36,-299.78 553.97,-292.97"/>
</a>
</g>
</g>
<!-- Node23&#45;&gt;Node5 -->
<g id="edge58_Node000023_Node000005" class="edge">
<title>Node23&#45;&gt;Node5</title>
<g id="a_edge58_Node000023_Node000005"><a xlink:title=" ">
<path fill="none" stroke="#63b8ff" d="M793.2,-332.14C933.65,-316.17 1272.41,-269.45 1342,-184 1352.04,-171.67 1352.71,-153.19 1351.35,-139.34"/>
<polygon fill="#63b8ff" stroke="#63b8ff" points="1354.82,-138.86 1349.98,-129.43 1347.89,-139.82 1354.82,-138.86"/>
</a>
</g>
</g>
<!-- Node23&#45;&gt;Node9 -->
<g id="edge59_Node000023_Node000009" class="edge">
<title>Node23&#45;&gt;Node9</title>
<g id="a_edge59_Node000023_Node000009"><a xlink:title=" ">
<path fill="none" stroke="#63b8ff" d="M793.19,-335.98C970.48,-327.88 1472,-298.91 1472,-230.5 1472,-230.5 1472,-230.5 1472,-173.5 1472,-128.37 1424.26,-95.51 1392.26,-78.55"/>
<polygon fill="#63b8ff" stroke="#63b8ff" points="1393.81,-75.41 1383.31,-74 1390.64,-81.65 1393.81,-75.41"/>
</a>
</g>
</g>
<!-- Node23&#45;&gt;Node11 -->
<g id="edge62_Node000023_Node000011" class="edge">
<title>Node23&#45;&gt;Node11</title>
<g id="a_edge62_Node000023_Node000011"><a xlink:title=" ">
<path fill="none" stroke="#63b8ff" d="M751.47,-329.84C794.24,-310.84 896.5,-265.39 946.5,-243.17"/>
<polygon fill="#63b8ff" stroke="#63b8ff" points="948.05,-246.31 955.77,-239.05 945.21,-239.91 948.05,-246.31"/>
</a>
</g>
</g>
<!-- Node23&#45;&gt;Node18 -->
<g id="edge60_Node000023_Node000018" class="edge">
<title>Node23&#45;&gt;Node18</title>
<g id="a_edge60_Node000023_Node000018"><a xlink:title=" ">
<path fill="none" stroke="#63b8ff" d="M710.3,-330C635.77,-300.31 392.54,-199.26 351,-129 281.51,-11.48 40.95,-158.2 580.44,-74.23"/>
<polygon fill="#63b8ff" stroke="#63b8ff" points="581.13,-77.66 590.47,-72.66 580.05,-70.75 581.13,-77.66"/>
</a>
</g>
</g>
<!-- Node23&#45;&gt;Node19 -->
<g id="edge63_Node000023_Node000019" class="edge">
<title>Node23&#45;&gt;Node19</title>
<g id="a_edge63_Node000023_Node000019"><a xlink:title=" ">
<path fill="none" stroke="#63b8ff" d="M726.73,-329.74C711.18,-303.87 665.25,-227.48 644.45,-192.88"/>
<polygon fill="#63b8ff" stroke="#63b8ff" points="647.45,-191.07 639.29,-184.31 641.45,-194.68 647.45,-191.07"/>
</a>
</g>
</g>
</g>
</svg>
