<?xml version="1.0" encoding="UTF-8" standalone="no"?>
<!DOCTYPE svg PUBLIC "-//W3C//DTD SVG 1.1//EN"
 "http://www.w3.org/Graphics/SVG/1.1/DTD/svg11.dtd">
<!-- Generated by graphviz version 2.43.0 (0)
 -->
<!-- Title: src/Transaction/transaction.cpp Pages: 1 -->
<svg width="1009pt" height="302pt"
 viewBox="0.00 0.00 1008.85 302.00" xmlns="http://www.w3.org/2000/svg" xmlns:xlink="http://www.w3.org/1999/xlink">
<g id="graph0" class="graph" transform="scale(1 1) rotate(0) translate(4 298)">
<title>src/Transaction/transaction.cpp</title>
<!-- Node1 -->
<g id="Node000001" class="node">
<title>Node1</title>
<g id="a_Node000001"><a xlink:title=" ">
<polygon fill="#999999" stroke="#666666" points="773.35,-294 606.35,-294 606.35,-275 773.35,-275 773.35,-294"/>
<text text-anchor="middle" x="689.85" y="-282" font-family="Helvetica,sans-Serif" font-size="10.00">src/Transaction/transaction.cpp</text>
</a>
</g>
</g>
<!-- Node2 -->
<g id="Node000002" class="node">
<title>Node2</title>
<g id="a_Node000002"><a xlink:href="transaction_8h_source.html" target="_top" xlink:title=" ">
<polygon fill="white" stroke="#666666" points="515.35,-184 376.35,-184 376.35,-165 515.35,-165 515.35,-184"/>
<text text-anchor="middle" x="445.85" y="-172" font-family="Helvetica,sans-Serif" font-size="10.00">Transaction/transaction.h</text>
</a>
</g>
</g>
<!-- Node1&#45;&gt;Node2 -->
<g id="edge1_Node000001_Node000002" class="edge">
<title>Node1&#45;&gt;Node2</title>
<g id="a_edge1_Node000001_Node000002"><a xlink:title=" ">
<path fill="none" stroke="#63b8ff" d="M666.7,-274.97C643.71,-266.37 607.56,-252.46 576.85,-239 539.91,-222.8 498.11,-202.12 471.87,-188.84"/>
<polygon fill="#63b8ff" stroke="#63b8ff" points="473.12,-185.55 462.62,-184.14 469.95,-191.79 473.12,-185.55"/>
</a>
</g>
</g>
<!-- Node3 -->
<g id="Node000003" class="node">
<title>Node3</title>
<g id="a_Node000003"><a xlink:title=" ">
<polygon fill="#e0e0e0" stroke="#999999" points="151.85,-74 91.85,-74 91.85,-55 151.85,-55 151.85,-74"/>
<text text-anchor="middle" x="121.85" y="-62" font-family="Helvetica,sans-Serif" font-size="10.00">iostream</text>
</a>
</g>
</g>
<!-- Node1&#45;&gt;Node3 -->
<g id="edge28_Node000001_Node000003" class="edge">
<title>Node1&#45;&gt;Node3</title>
<g id="a_edge28_Node000001_Node000003"><a xlink:title=" ">
<path fill="none" stroke="#63b8ff" d="M606.14,-283.59C471.13,-282.63 212.05,-275.84 128.85,-239 58.08,-207.66 -31.41,-174.18 11.85,-110 27.44,-86.88 57.3,-75.77 81.97,-70.43"/>
<polygon fill="#63b8ff" stroke="#63b8ff" points="82.67,-73.86 91.83,-68.54 81.35,-66.99 82.67,-73.86"/>
</a>
</g>
</g>
<!-- Node5 -->
<g id="Node000005" class="node">
<title>Node5</title>
<g id="a_Node000005"><a xlink:title=" ">
<polygon fill="#e0e0e0" stroke="#999999" points="712.35,-74 667.35,-74 667.35,-55 712.35,-55 712.35,-74"/>
<text text-anchor="middle" x="689.85" y="-62" font-family="Helvetica,sans-Serif" font-size="10.00">utility</text>
</a>
</g>
</g>
<!-- Node1&#45;&gt;Node5 -->
<g id="edge30_Node000001_Node000005" class="edge">
<title>Node1&#45;&gt;Node5</title>
<g id="a_edge30_Node000001_Node000005"><a xlink:title=" ">
<path fill="none" stroke="#63b8ff" d="M748.52,-274.94C769.9,-268.67 791.97,-257.81 804.85,-239 837.26,-191.71 837.26,-157.29 804.85,-110 786.58,-83.34 749.87,-72.65 722.82,-68.36"/>
<polygon fill="#63b8ff" stroke="#63b8ff" points="723.01,-64.86 712.62,-66.97 722.06,-71.79 723.01,-64.86"/>
</a>
</g>
</g>
<!-- Node6 -->
<g id="Node000006" class="node">
<title>Node6</title>
<g id="a_Node000006"><a xlink:title=" ">
<polygon fill="#e0e0e0" stroke="#999999" points="601.35,-19 554.35,-19 554.35,0 601.35,0 601.35,-19"/>
<text text-anchor="middle" x="577.85" y="-7" font-family="Helvetica,sans-Serif" font-size="10.00">vector</text>
</a>
</g>
</g>
<!-- Node1&#45;&gt;Node6 -->
<g id="edge31_Node000001_Node000006" class="edge">
<title>Node1&#45;&gt;Node6</title>
<g id="a_edge31_Node000001_Node000006"><a xlink:title=" ">
<path fill="none" stroke="#63b8ff" d="M740.1,-275C792.43,-262.93 866.85,-235.26 866.85,-175.5 866.85,-175.5 866.85,-175.5 866.85,-118.5 866.85,-64.53 687.77,-28.6 611.55,-15.76"/>
<polygon fill="#63b8ff" stroke="#63b8ff" points="611.94,-12.28 601.5,-14.1 610.8,-19.18 611.94,-12.28"/>
</a>
</g>
</g>
<!-- Node7 -->
<g id="Node000007" class="node">
<title>Node7</title>
<g id="a_Node000007"><a xlink:title=" ">
<polygon fill="#e0e0e0" stroke="#999999" points="762.85,-129 704.85,-129 704.85,-110 762.85,-110 762.85,-129"/>
<text text-anchor="middle" x="733.85" y="-117" font-family="Helvetica,sans-Serif" font-size="10.00">memory</text>
</a>
</g>
</g>
<!-- Node1&#45;&gt;Node7 -->
<g id="edge29_Node000001_Node000007" class="edge">
<title>Node1&#45;&gt;Node7</title>
<g id="a_edge29_Node000001_Node000007"><a xlink:title=" ">
<path fill="none" stroke="#63b8ff" d="M696.01,-274.74C701.8,-266.07 710.25,-252.22 714.85,-239 726.7,-205.02 731.21,-162.94 732.89,-139.17"/>
<polygon fill="#63b8ff" stroke="#63b8ff" points="736.39,-139.28 733.51,-129.08 729.4,-138.85 736.39,-139.28"/>
</a>
</g>
</g>
<!-- Node11 -->
<g id="Node000011" class="node">
<title>Node11</title>
<g id="a_Node000011"><a xlink:title=" ">
<polygon fill="#e0e0e0" stroke="#999999" points="610.35,-74 545.35,-74 545.35,-55 610.35,-55 610.35,-74"/>
<text text-anchor="middle" x="577.85" y="-62" font-family="Helvetica,sans-Serif" font-size="10.00">functional</text>
</a>
</g>
</g>
<!-- Node1&#45;&gt;Node11 -->
<g id="edge27_Node000001_Node000011" class="edge">
<title>Node1&#45;&gt;Node11</title>
<g id="a_edge27_Node000001_Node000011"><a xlink:title=" ">
<path fill="none" stroke="#63b8ff" d="M700.19,-274.78C730.75,-247.98 815.86,-165.24 771.85,-110 762.42,-98.16 675.03,-81.68 620.81,-72.46"/>
<polygon fill="#63b8ff" stroke="#63b8ff" points="621.21,-68.98 610.77,-70.77 620.05,-75.88 621.21,-68.98"/>
</a>
</g>
</g>
<!-- Node12 -->
<g id="Node000012" class="node">
<title>Node12</title>
<g id="a_Node000012"><a xlink:href="types_8h.html" target="_top" xlink:title=" ">
<polygon fill="white" stroke="#666666" points="329.35,-74 240.35,-74 240.35,-55 329.35,-55 329.35,-74"/>
<text text-anchor="middle" x="284.85" y="-62" font-family="Helvetica,sans-Serif" font-size="10.00">Library/types.h</text>
</a>
</g>
</g>
<!-- Node1&#45;&gt;Node12 -->
<g id="edge36_Node000001_Node000012" class="edge">
<title>Node1&#45;&gt;Node12</title>
<g id="a_edge36_Node000001_Node000012"><a xlink:title=" ">
<path fill="none" stroke="#63b8ff" d="M647.75,-274.97C584.54,-261.19 462.37,-230.77 366.85,-184 327.44,-164.7 305.51,-167.72 284.85,-129 277.56,-115.32 278.28,-97.51 280.41,-84.23"/>
<polygon fill="#63b8ff" stroke="#63b8ff" points="283.86,-84.83 282.38,-74.34 276.99,-83.46 283.86,-84.83"/>
</a>
</g>
</g>
<!-- Node14 -->
<g id="Node000014" class="node">
<title>Node14</title>
<g id="a_Node000014"><a xlink:href="error_8h.html" target="_top" xlink:title=" ">
<polygon fill="white" stroke="#666666" points="106.35,-129 21.35,-129 21.35,-110 106.35,-110 106.35,-129"/>
<text text-anchor="middle" x="63.85" y="-117" font-family="Helvetica,sans-Serif" font-size="10.00">Library/error.h</text>
</a>
</g>
</g>
<!-- Node1&#45;&gt;Node14 -->
<g id="edge35_Node000001_Node000014" class="edge">
<title>Node1&#45;&gt;Node14</title>
<g id="a_edge35_Node000001_Node000014"><a xlink:title=" ">
<path fill="none" stroke="#63b8ff" d="M606.09,-284.41C476.41,-284.51 234.13,-279.09 158.85,-239 116.13,-216.25 85.84,-165.21 72.11,-138.13"/>
<polygon fill="#63b8ff" stroke="#63b8ff" points="75.2,-136.49 67.67,-129.04 68.91,-139.56 75.2,-136.49"/>
</a>
</g>
</g>
<!-- Node17 -->
<g id="Node000017" class="node">
<title>Node17</title>
<g id="a_Node000017"><a xlink:title=" ">
<polygon fill="#e0e0e0" stroke="#999999" points="1000.85,-239 894.85,-239 894.85,-220 1000.85,-220 1000.85,-239"/>
<text text-anchor="middle" x="947.85" y="-227" font-family="Helvetica,sans-Serif" font-size="10.00">bits/ranges_algo.h</text>
</a>
</g>
</g>
<!-- Node1&#45;&gt;Node17 -->
<g id="edge26_Node000001_Node000017" class="edge">
<title>Node1&#45;&gt;Node17</title>
<g id="a_edge26_Node000001_Node000017"><a xlink:title=" ">
<path fill="none" stroke="#63b8ff" d="M731.31,-274.98C776.12,-265.78 847.63,-251.09 896.1,-241.13"/>
<polygon fill="#63b8ff" stroke="#63b8ff" points="896.99,-244.52 906.08,-239.08 895.58,-237.67 896.99,-244.52"/>
</a>
</g>
</g>
<!-- Node18 -->
<g id="Node000018" class="node">
<title>Node18</title>
<g id="a_Node000018"><a xlink:href="database_8h.html" target="_top" xlink:title=" ">
<polygon fill="white" stroke="#666666" points="705.85,-239 585.85,-239 585.85,-220 705.85,-220 705.85,-239"/>
<text text-anchor="middle" x="645.85" y="-227" font-family="Helvetica,sans-Serif" font-size="10.00">Database/database.h</text>
</a>
</g>
</g>
<!-- Node1&#45;&gt;Node18 -->
<g id="edge32_Node000001_Node000018" class="edge">
<title>Node1&#45;&gt;Node18</title>
<g id="a_edge32_Node000001_Node000018"><a xlink:title=" ">
<path fill="none" stroke="#63b8ff" d="M682.59,-274.75C676.31,-267.18 667.07,-256.05 659.42,-246.84"/>
<polygon fill="#63b8ff" stroke="#63b8ff" points="662.06,-244.55 652.98,-239.09 656.68,-249.02 662.06,-244.55"/>
</a>
</g>
</g>
<!-- Node2&#45;&gt;Node3 -->
<g id="edge2_Node000002_Node000003" class="edge">
<title>Node2&#45;&gt;Node3</title>
<g id="a_edge2_Node000002_Node000003"><a xlink:title=" ">
<path fill="none" stroke="#63b8ff" d="M376.35,-170.77C324.71,-166.48 253.68,-155.73 196.85,-129 172.63,-117.6 149.92,-96.32 135.97,-81.55"/>
<polygon fill="#63b8ff" stroke="#63b8ff" points="138.5,-79.13 129.17,-74.12 133.34,-83.86 138.5,-79.13"/>
</a>
</g>
</g>
<!-- Node4 -->
<g id="Node000004" class="node">
<title>Node4</title>
<g id="a_Node000004"><a xlink:title=" ">
<polygon fill="#e0e0e0" stroke="#999999" points="232.85,-19 188.85,-19 188.85,0 232.85,0 232.85,-19"/>
<text text-anchor="middle" x="210.85" y="-7" font-family="Helvetica,sans-Serif" font-size="10.00">string</text>
</a>
</g>
</g>
<!-- Node2&#45;&gt;Node4 -->
<g id="edge3_Node000002_Node000004" class="edge">
<title>Node2&#45;&gt;Node4</title>
<g id="a_edge3_Node000002_Node000004"><a xlink:title=" ">
<path fill="none" stroke="#63b8ff" d="M387.45,-164.99C355.52,-158.52 316.22,-147.47 284.85,-129 255.33,-111.62 248.49,-103.37 230.85,-74 222.49,-60.06 217.28,-42.28 214.28,-29.08"/>
<polygon fill="#63b8ff" stroke="#63b8ff" points="217.7,-28.34 212.26,-19.25 210.85,-29.75 217.7,-28.34"/>
</a>
</g>
</g>
<!-- Node2&#45;&gt;Node5 -->
<g id="edge4_Node000002_Node000005" class="edge">
<title>Node2&#45;&gt;Node5</title>
<g id="a_edge4_Node000002_Node000005"><a xlink:title=" ">
<path fill="none" stroke="#63b8ff" d="M515.4,-172.47C558.54,-168.67 613.13,-157.81 652.85,-129 668.31,-117.79 678.34,-97.98 684.01,-83.46"/>
<polygon fill="#63b8ff" stroke="#63b8ff" points="687.31,-84.62 687.38,-74.02 680.72,-82.26 687.31,-84.62"/>
</a>
</g>
</g>
<!-- Node2&#45;&gt;Node6 -->
<g id="edge5_Node000002_Node000006" class="edge">
<title>Node2&#45;&gt;Node6</title>
<g id="a_edge5_Node000002_Node000006"><a xlink:title=" ">
<path fill="none" stroke="#63b8ff" d="M515.6,-167.3C544.76,-161.46 577.08,-150.28 599.85,-129 624.74,-105.74 632.44,-86.66 619.85,-55 615.33,-43.63 606.38,-33.48 597.89,-25.76"/>
<polygon fill="#63b8ff" stroke="#63b8ff" points="599.96,-22.92 590.06,-19.14 595.44,-28.27 599.96,-22.92"/>
</a>
</g>
</g>
<!-- Node2&#45;&gt;Node7 -->
<g id="edge6_Node000002_Node000007" class="edge">
<title>Node2&#45;&gt;Node7</title>
<g id="a_edge6_Node000002_Node000007"><a xlink:title=" ">
<path fill="none" stroke="#63b8ff" d="M494.24,-164.94C543.69,-156.14 622.68,-141.93 690.85,-129 692.12,-128.76 693.4,-128.52 694.69,-128.27"/>
<polygon fill="#63b8ff" stroke="#63b8ff" points="695.57,-131.66 704.72,-126.32 694.24,-124.79 695.57,-131.66"/>
</a>
</g>
</g>
<!-- Node8 -->
<g id="Node000008" class="node">
<title>Node8</title>
<g id="a_Node000008"><a xlink:title=" ">
<polygon fill="#e0e0e0" stroke="#999999" points="362.85,-129 314.85,-129 314.85,-110 362.85,-110 362.85,-129"/>
<text text-anchor="middle" x="338.85" y="-117" font-family="Helvetica,sans-Serif" font-size="10.00">mutex</text>
</a>
</g>
</g>
<!-- Node2&#45;&gt;Node8 -->
<g id="edge7_Node000002_Node000008" class="edge">
<title>Node2&#45;&gt;Node8</title>
<g id="a_edge7_Node000002_Node000008"><a xlink:title=" ">
<path fill="none" stroke="#63b8ff" d="M428.66,-164.98C411.6,-156.54 385.22,-143.47 365.46,-133.68"/>
<polygon fill="#63b8ff" stroke="#63b8ff" points="366.87,-130.47 356.36,-129.17 363.77,-136.75 366.87,-130.47"/>
</a>
</g>
</g>
<!-- Node9 -->
<g id="Node000009" class="node">
<title>Node9</title>
<g id="a_Node000009"><a xlink:title=" ">
<polygon fill="#e0e0e0" stroke="#999999" points="388.85,-74 350.85,-74 350.85,-55 388.85,-55 388.85,-74"/>
<text text-anchor="middle" x="369.85" y="-62" font-family="Helvetica,sans-Serif" font-size="10.00">map</text>
</a>
</g>
</g>
<!-- Node2&#45;&gt;Node9 -->
<g id="edge8_Node000002_Node000009" class="edge">
<title>Node2&#45;&gt;Node9</title>
<g id="a_edge8_Node000002_Node000009"><a xlink:title=" ">
<path fill="none" stroke="#63b8ff" d="M376.25,-168.45C349.83,-162.73 322.19,-151.33 305.85,-129 291.48,-109.35 318.21,-90.13 341.39,-78.08"/>
<polygon fill="#63b8ff" stroke="#63b8ff" points="343.23,-81.07 350.66,-73.52 340.14,-74.79 343.23,-81.07"/>
</a>
</g>
</g>
<!-- Node10 -->
<g id="Node000010" class="node">
<title>Node10</title>
<g id="a_Node000010"><a xlink:title=" ">
<polygon fill="#e0e0e0" stroke="#999999" points="436.85,-129 380.85,-129 380.85,-110 436.85,-110 436.85,-129"/>
<text text-anchor="middle" x="408.85" y="-117" font-family="Helvetica,sans-Serif" font-size="10.00">optional</text>
</a>
</g>
</g>
<!-- Node2&#45;&gt;Node10 -->
<g id="edge9_Node000002_Node000010" class="edge">
<title>Node2&#45;&gt;Node10</title>
<g id="a_edge9_Node000002_Node000010"><a xlink:title=" ">
<path fill="none" stroke="#63b8ff" d="M439.74,-164.75C434.57,-157.34 427.01,-146.5 420.66,-137.41"/>
<polygon fill="#63b8ff" stroke="#63b8ff" points="423.44,-135.29 414.85,-129.09 417.7,-139.29 423.44,-135.29"/>
</a>
</g>
</g>
<!-- Node2&#45;&gt;Node11 -->
<g id="edge10_Node000002_Node000011" class="edge">
<title>Node2&#45;&gt;Node11</title>
<g id="a_edge10_Node000002_Node000011"><a xlink:title=" ">
<path fill="none" stroke="#63b8ff" d="M515.65,-167.45C540.67,-161.51 566.47,-150.22 581.85,-129 591.16,-116.16 588.77,-97.74 584.87,-84.04"/>
<polygon fill="#63b8ff" stroke="#63b8ff" points="588.1,-82.65 581.62,-74.27 581.46,-84.86 588.1,-82.65"/>
</a>
</g>
</g>
<!-- Node2&#45;&gt;Node12 -->
<g id="edge11_Node000002_Node000012" class="edge">
<title>Node2&#45;&gt;Node12</title>
<g id="a_edge11_Node000002_Node000012"><a xlink:title=" ">
<path fill="none" stroke="#63b8ff" d="M376.15,-167.93C348.16,-162.17 317.85,-150.89 297.85,-129 286.94,-117.06 284.19,-98.51 283.87,-84.53"/>
<polygon fill="#63b8ff" stroke="#63b8ff" points="287.37,-84.17 284.05,-74.12 280.37,-84.05 287.37,-84.17"/>
</a>
</g>
</g>
<!-- Node2&#45;&gt;Node14 -->
<g id="edge15_Node000002_Node000014" class="edge">
<title>Node2&#45;&gt;Node14</title>
<g id="a_edge15_Node000002_Node000014"><a xlink:title=" ">
<path fill="none" stroke="#63b8ff" d="M382,-164.99C316.44,-156.19 211.48,-141.96 120.85,-129 119.4,-128.79 117.92,-128.58 116.43,-128.36"/>
<polygon fill="#63b8ff" stroke="#63b8ff" points="116.89,-124.89 106.49,-126.91 115.88,-131.82 116.89,-124.89"/>
</a>
</g>
</g>
<!-- Node15 -->
<g id="Node000015" class="node">
<title>Node15</title>
<g id="a_Node000015"><a xlink:href="evaluate_8h.html" target="_top" xlink:title=" ">
<polygon fill="white" stroke="#666666" points="572.85,-129 454.85,-129 454.85,-110 572.85,-110 572.85,-129"/>
<text text-anchor="middle" x="513.85" y="-117" font-family="Helvetica,sans-Serif" font-size="10.00">Evaluator/evaluate.h</text>
</a>
</g>
</g>
<!-- Node2&#45;&gt;Node15 -->
<g id="edge18_Node000002_Node000015" class="edge">
<title>Node2&#45;&gt;Node15</title>
<g id="a_edge18_Node000002_Node000015"><a xlink:title=" ">
<path fill="none" stroke="#63b8ff" d="M456.78,-164.98C466.93,-157.07 482.28,-145.11 494.5,-135.58"/>
<polygon fill="#63b8ff" stroke="#63b8ff" points="496.99,-138.08 502.73,-129.17 492.69,-132.56 496.99,-138.08"/>
</a>
</g>
</g>
<!-- Node12&#45;&gt;Node4 -->
<g id="edge14_Node000012_Node000004" class="edge">
<title>Node12&#45;&gt;Node4</title>
<g id="a_edge14_Node000012_Node000004"><a xlink:title=" ">
<path fill="none" stroke="#63b8ff" d="M272.96,-54.98C261.7,-46.92 244.57,-34.65 231.14,-25.03"/>
<polygon fill="#63b8ff" stroke="#63b8ff" points="233.13,-22.15 222.96,-19.17 229.05,-27.84 233.13,-22.15"/>
</a>
</g>
</g>
<!-- Node12&#45;&gt;Node6 -->
<g id="edge12_Node000012_Node000006" class="edge">
<title>Node12&#45;&gt;Node6</title>
<g id="a_edge12_Node000012_Node000006"><a xlink:title=" ">
<path fill="none" stroke="#63b8ff" d="M329.35,-55.45C388.34,-44.78 491.11,-26.19 544.11,-16.6"/>
<polygon fill="#63b8ff" stroke="#63b8ff" points="544.8,-20.04 554.02,-14.81 543.55,-13.15 544.8,-20.04"/>
</a>
</g>
</g>
<!-- Node13 -->
<g id="Node000013" class="node">
<title>Node13</title>
<g id="a_Node000013"><a xlink:title=" ">
<polygon fill="#e0e0e0" stroke="#999999" points="344.35,-19 251.35,-19 251.35,0 344.35,0 344.35,-19"/>
<text text-anchor="middle" x="297.85" y="-7" font-family="Helvetica,sans-Serif" font-size="10.00">unordered_map</text>
</a>
</g>
</g>
<!-- Node12&#45;&gt;Node13 -->
<g id="edge13_Node000012_Node000013" class="edge">
<title>Node12&#45;&gt;Node13</title>
<g id="a_edge13_Node000012_Node000013"><a xlink:title=" ">
<path fill="none" stroke="#63b8ff" d="M287,-54.75C288.72,-47.72 291.2,-37.62 293.35,-28.84"/>
<polygon fill="#63b8ff" stroke="#63b8ff" points="296.76,-29.63 295.75,-19.09 289.97,-27.97 296.76,-29.63"/>
</a>
</g>
</g>
<!-- Node14&#45;&gt;Node3 -->
<g id="edge17_Node000014_Node000003" class="edge">
<title>Node14&#45;&gt;Node3</title>
<g id="a_edge17_Node000014_Node000003"><a xlink:title=" ">
<path fill="none" stroke="#63b8ff" d="M73.17,-109.98C81.66,-102.23 94.41,-90.58 104.74,-81.14"/>
<polygon fill="#63b8ff" stroke="#63b8ff" points="107.34,-83.5 112.37,-74.17 102.62,-78.33 107.34,-83.5"/>
</a>
</g>
</g>
<!-- Node14&#45;&gt;Node4 -->
<g id="edge16_Node000014_Node000004" class="edge">
<title>Node14&#45;&gt;Node4</title>
<g id="a_edge16_Node000014_Node000004"><a xlink:title=" ">
<path fill="none" stroke="#63b8ff" d="M64.04,-109.89C64.8,-96.41 68.21,-70.3 82.85,-55 108.06,-28.66 149.66,-17.9 178.56,-13.51"/>
<polygon fill="#63b8ff" stroke="#63b8ff" points="179.14,-16.97 188.58,-12.17 178.2,-10.03 179.14,-16.97"/>
</a>
</g>
</g>
<!-- Node15&#45;&gt;Node4 -->
<g id="edge21_Node000015_Node000004" class="edge">
<title>Node15&#45;&gt;Node4</title>
<g id="a_edge21_Node000015_Node000004"><a xlink:title=" ">
<path fill="none" stroke="#63b8ff" d="M499.18,-109.81C472.83,-94.31 418.34,-62.8 397.85,-55 334.34,-30.82 312.78,-35.87 243.31,-19.23"/>
<polygon fill="#63b8ff" stroke="#63b8ff" points="243.72,-15.73 233.18,-16.74 242.05,-22.53 243.72,-15.73"/>
</a>
</g>
</g>
<!-- Node15&#45;&gt;Node5 -->
<g id="edge19_Node000015_Node000005" class="edge">
<title>Node15&#45;&gt;Node5</title>
<g id="a_edge19_Node000015_Node000005"><a xlink:title=" ">
<path fill="none" stroke="#63b8ff" d="M542.13,-109.98C573.66,-100.49 624.54,-85.17 657.6,-75.21"/>
<polygon fill="#63b8ff" stroke="#63b8ff" points="658.68,-78.54 667.24,-72.31 656.66,-71.84 658.68,-78.54"/>
</a>
</g>
</g>
<!-- Node15&#45;&gt;Node6 -->
<g id="edge20_Node000015_Node000006" class="edge">
<title>Node15&#45;&gt;Node6</title>
<g id="a_edge20_Node000015_Node000006"><a xlink:title=" ">
<path fill="none" stroke="#63b8ff" d="M515.64,-109.78C518.51,-97.06 524.97,-72.96 535.85,-55 542.36,-44.26 551.82,-33.95 560.11,-25.96"/>
<polygon fill="#63b8ff" stroke="#63b8ff" points="562.59,-28.43 567.57,-19.08 557.85,-23.29 562.59,-28.43"/>
</a>
</g>
</g>
<!-- Node15&#45;&gt;Node9 -->
<g id="edge24_Node000015_Node000009" class="edge">
<title>Node15&#45;&gt;Node9</title>
<g id="a_edge24_Node000015_Node000009"><a xlink:title=" ">
<path fill="none" stroke="#63b8ff" d="M490.72,-109.98C465.76,-100.8 425.98,-86.16 398.93,-76.2"/>
<polygon fill="#63b8ff" stroke="#63b8ff" points="399.83,-72.8 389.24,-72.63 397.41,-79.37 399.83,-72.8"/>
</a>
</g>
</g>
<!-- Node15&#45;&gt;Node11 -->
<g id="edge22_Node000015_Node000011" class="edge">
<title>Node15&#45;&gt;Node11</title>
<g id="a_edge22_Node000015_Node000011"><a xlink:title=" ">
<path fill="none" stroke="#63b8ff" d="M524.14,-109.98C533.69,-102.07 548.13,-90.11 559.64,-80.58"/>
<polygon fill="#63b8ff" stroke="#63b8ff" points="561.91,-83.24 567.38,-74.17 557.45,-77.85 561.91,-83.24"/>
</a>
</g>
</g>
<!-- Node15&#45;&gt;Node12 -->
<g id="edge25_Node000015_Node000012" class="edge">
<title>Node15&#45;&gt;Node12</title>
<g id="a_edge25_Node000015_Node000012"><a xlink:title=" ">
<path fill="none" stroke="#63b8ff" d="M477.06,-109.98C437.62,-100.86 374.87,-86.33 331.87,-76.38"/>
<polygon fill="#63b8ff" stroke="#63b8ff" points="332.47,-72.93 321.94,-74.08 330.89,-79.75 332.47,-72.93"/>
</a>
</g>
</g>
<!-- Node16 -->
<g id="Node000016" class="node">
<title>Node16</title>
<g id="a_Node000016"><a xlink:title=" ">
<polygon fill="#e0e0e0" stroke="#999999" points="488.35,-74 447.35,-74 447.35,-55 488.35,-55 488.35,-74"/>
<text text-anchor="middle" x="467.85" y="-62" font-family="Helvetica,sans-Serif" font-size="10.00">tuple</text>
</a>
</g>
</g>
<!-- Node15&#45;&gt;Node16 -->
<g id="edge23_Node000015_Node000016" class="edge">
<title>Node15&#45;&gt;Node16</title>
<g id="a_edge23_Node000015_Node000016"><a xlink:title=" ">
<path fill="none" stroke="#63b8ff" d="M506.26,-109.75C499.69,-102.18 490.03,-91.05 482.04,-81.84"/>
<polygon fill="#63b8ff" stroke="#63b8ff" points="484.51,-79.35 475.31,-74.09 479.22,-83.94 484.51,-79.35"/>
</a>
</g>
</g>
<!-- Node18&#45;&gt;Node2 -->
<g id="edge34_Node000018_Node000002" class="edge">
<title>Node18&#45;&gt;Node2</title>
<g id="a_edge34_Node000018_Node000002"><a xlink:title=" ">
<path fill="none" stroke="#63b8ff" d="M613.72,-219.98C579.71,-210.97 525.86,-196.7 488.35,-186.76"/>
<polygon fill="#63b8ff" stroke="#63b8ff" points="488.8,-183.26 478.24,-184.08 487.01,-190.03 488.8,-183.26"/>
</a>
</g>
</g>
<!-- Node18&#45;&gt;Node7 -->
<g id="edge33_Node000018_Node000007" class="edge">
<title>Node18&#45;&gt;Node7</title>
<g id="a_edge33_Node000018_Node000007"><a xlink:title=" ">
<path fill="none" stroke="#63b8ff" d="M653.06,-219.66C667.76,-201.61 701.44,-160.28 720.35,-137.08"/>
<polygon fill="#63b8ff" stroke="#63b8ff" points="723.2,-139.12 726.8,-129.16 717.77,-134.7 723.2,-139.12"/>
</a>
</g>
</g>
</g>
</svg>
