<?xml version="1.0" encoding="UTF-8" standalone="no"?>
<!DOCTYPE svg PUBLIC "-//W3C//DTD SVG 1.1//EN"
 "http://www.w3.org/Graphics/SVG/1.1/DTD/svg11.dtd">
<!-- Generated by graphviz version 2.43.0 (0)
 -->
<!-- Title: src/Drivers/transDriverModel.cpp Pages: 1 -->
<svg width="1224pt" height="467pt"
 viewBox="0.00 0.00 1224.00 467.00" xmlns="http://www.w3.org/2000/svg" xmlns:xlink="http://www.w3.org/1999/xlink">
<g id="graph0" class="graph" transform="scale(1 1) rotate(0) translate(4 463)">
<title>src/Drivers/transDriverModel.cpp</title>
<!-- Node1 -->
<g id="Node000001" class="node">
<title>Node1</title>
<g id="a_Node000001"><a xlink:title=" ">
<polygon fill="#999999" stroke="#666666" points="418.5,-459 241.5,-459 241.5,-440 418.5,-440 418.5,-459"/>
<text text-anchor="middle" x="330" y="-447" font-family="Helvetica,sans-Serif" font-size="10.00">src/Drivers/transDriverModel.cpp</text>
</a>
</g>
</g>
<!-- Node2 -->
<g id="Node000002" class="node">
<title>Node2</title>
<g id="a_Node000002"><a xlink:href="transDriverModel_8h.html" target="_top" xlink:title=" ">
<polygon fill="white" stroke="#666666" points="404.5,-404 255.5,-404 255.5,-385 404.5,-385 404.5,-404"/>
<text text-anchor="middle" x="330" y="-392" font-family="Helvetica,sans-Serif" font-size="10.00">Drivers/transDriverModel.h</text>
</a>
</g>
</g>
<!-- Node1&#45;&gt;Node2 -->
<g id="edge1_Node000001_Node000002" class="edge">
<title>Node1&#45;&gt;Node2</title>
<g id="a_edge1_Node000001_Node000002"><a xlink:title=" ">
<path fill="none" stroke="#63b8ff" d="M330,-439.75C330,-432.8 330,-422.85 330,-414.13"/>
<polygon fill="#63b8ff" stroke="#63b8ff" points="333.5,-414.09 330,-404.09 326.5,-414.09 333.5,-414.09"/>
</a>
</g>
</g>
<!-- Node3 -->
<g id="Node000003" class="node">
<title>Node3</title>
<g id="a_Node000003"><a xlink:href="driverModel_8h.html" target="_top" xlink:title=" ">
<polygon fill="white" stroke="#666666" points="460,-294 338,-294 338,-275 460,-275 460,-294"/>
<text text-anchor="middle" x="399" y="-282" font-family="Helvetica,sans-Serif" font-size="10.00">Drivers/driverModel.h</text>
</a>
</g>
</g>
<!-- Node2&#45;&gt;Node3 -->
<g id="edge2_Node000002_Node000003" class="edge">
<title>Node2&#45;&gt;Node3</title>
<g id="a_edge2_Node000002_Node000003"><a xlink:title=" ">
<path fill="none" stroke="#63b8ff" d="M335.65,-384.66C347.08,-366.77 373.12,-326 388.02,-302.69"/>
<polygon fill="#63b8ff" stroke="#63b8ff" points="391.03,-304.47 393.47,-294.16 385.13,-300.7 391.03,-304.47"/>
</a>
</g>
</g>
<!-- Node13 -->
<g id="Node000013" class="node">
<title>Node13</title>
<g id="a_Node000013"><a xlink:title=" ">
<polygon fill="#e0e0e0" stroke="#999999" points="441.5,-19 394.5,-19 394.5,0 441.5,0 441.5,-19"/>
<text text-anchor="middle" x="418" y="-7" font-family="Helvetica,sans-Serif" font-size="10.00">vector</text>
</a>
</g>
</g>
<!-- Node2&#45;&gt;Node13 -->
<g id="edge52_Node000002_Node000013" class="edge">
<title>Node2&#45;&gt;Node13</title>
<g id="a_edge52_Node000002_Node000013"><a xlink:title=" ">
<path fill="none" stroke="#63b8ff" d="M260.42,-385C163.6,-371.19 0,-339.83 0,-285.5 0,-285.5 0,-285.5 0,-173.5 0,-76.6 93.05,-91.02 183,-55 251.31,-27.65 337.64,-16.84 384.32,-12.78"/>
<polygon fill="#63b8ff" stroke="#63b8ff" points="384.8,-16.25 394.48,-11.95 384.23,-9.27 384.8,-16.25"/>
</a>
</g>
</g>
<!-- Node16 -->
<g id="Node000016" class="node">
<title>Node16</title>
<g id="a_Node000016"><a xlink:href="transaction_8h_source.html" target="_top" xlink:title=" ">
<polygon fill="white" stroke="#666666" points="740.5,-184 601.5,-184 601.5,-165 740.5,-165 740.5,-184"/>
<text text-anchor="middle" x="671" y="-172" font-family="Helvetica,sans-Serif" font-size="10.00">Transaction/transaction.h</text>
</a>
</g>
</g>
<!-- Node2&#45;&gt;Node16 -->
<g id="edge51_Node000002_Node000016" class="edge">
<title>Node2&#45;&gt;Node16</title>
<g id="a_edge51_Node000002_Node000016"><a xlink:title=" ">
<path fill="none" stroke="#63b8ff" d="M343.37,-384.95C395.24,-351.79 583.57,-231.4 648.67,-189.77"/>
<polygon fill="#63b8ff" stroke="#63b8ff" points="650.81,-192.56 657.35,-184.22 647.04,-186.66 650.81,-192.56"/>
</a>
</g>
</g>
<!-- Node21 -->
<g id="Node000021" class="node">
<title>Node21</title>
<g id="a_Node000021"><a xlink:href="simulatorDriver_8h.html" target="_top" xlink:title=" ">
<polygon fill="white" stroke="#666666" points="293,-349 153,-349 153,-330 293,-330 293,-349"/>
<text text-anchor="middle" x="223" y="-337" font-family="Helvetica,sans-Serif" font-size="10.00">Drivers/simulatorDriver.h</text>
</a>
</g>
</g>
<!-- Node2&#45;&gt;Node21 -->
<g id="edge46_Node000002_Node000021" class="edge">
<title>Node2&#45;&gt;Node21</title>
<g id="a_edge46_Node000002_Node000021"><a xlink:title=" ">
<path fill="none" stroke="#63b8ff" d="M312.81,-384.98C295.75,-376.54 269.37,-363.47 249.6,-353.68"/>
<polygon fill="#63b8ff" stroke="#63b8ff" points="251.02,-350.47 240.5,-349.17 247.91,-356.75 251.02,-350.47"/>
</a>
</g>
</g>
<!-- Node4 -->
<g id="Node000004" class="node">
<title>Node4</title>
<g id="a_Node000004"><a xlink:title=" ">
<polygon fill="#e0e0e0" stroke="#999999" points="390,-129 332,-129 332,-110 390,-110 390,-129"/>
<text text-anchor="middle" x="361" y="-117" font-family="Helvetica,sans-Serif" font-size="10.00">memory</text>
</a>
</g>
</g>
<!-- Node3&#45;&gt;Node4 -->
<g id="edge3_Node000003_Node000004" class="edge">
<title>Node3&#45;&gt;Node4</title>
<g id="a_edge3_Node000003_Node000004"><a xlink:title=" ">
<path fill="none" stroke="#63b8ff" d="M396.96,-274.74C391,-249.2 373.57,-174.43 365.37,-139.23"/>
<polygon fill="#63b8ff" stroke="#63b8ff" points="368.73,-138.25 363.05,-129.31 361.92,-139.84 368.73,-138.25"/>
</a>
</g>
</g>
<!-- Node5 -->
<g id="Node000005" class="node">
<title>Node5</title>
<g id="a_Node000005"><a xlink:title=" ">
<polygon fill="#e0e0e0" stroke="#999999" points="1008,-129 952,-129 952,-110 1008,-110 1008,-129"/>
<text text-anchor="middle" x="980" y="-117" font-family="Helvetica,sans-Serif" font-size="10.00">optional</text>
</a>
</g>
</g>
<!-- Node3&#45;&gt;Node5 -->
<g id="edge4_Node000003_Node000005" class="edge">
<title>Node3&#45;&gt;Node5</title>
<g id="a_edge4_Node000003_Node000005"><a xlink:title=" ">
<path fill="none" stroke="#63b8ff" d="M435.49,-274.95C504.38,-258.63 658.14,-221.32 786,-184 842.52,-167.5 907.4,-145.67 945.97,-132.38"/>
<polygon fill="#63b8ff" stroke="#63b8ff" points="947.35,-135.6 955.66,-129.03 945.06,-128.99 947.35,-135.6"/>
</a>
</g>
</g>
<!-- Node6 -->
<g id="Node000006" class="node">
<title>Node6</title>
<g id="a_Node000006"><a xlink:title=" ">
<polygon fill="#e0e0e0" stroke="#999999" points="975,-19 931,-19 931,0 975,0 975,-19"/>
<text text-anchor="middle" x="953" y="-7" font-family="Helvetica,sans-Serif" font-size="10.00">string</text>
</a>
</g>
</g>
<!-- Node3&#45;&gt;Node6 -->
<g id="edge5_Node000003_Node000006" class="edge">
<title>Node3&#45;&gt;Node6</title>
<g id="a_edge5_Node000003_Node000006"><a xlink:title=" ">
<path fill="none" stroke="#63b8ff" d="M460.17,-282.2C603.53,-278.72 957.79,-267.43 1073,-239 1140.52,-222.34 1216,-245.04 1216,-175.5 1216,-175.5 1216,-175.5 1216,-118.5 1216,-19.91 1055.88,-9.42 985.52,-9.57"/>
<polygon fill="#63b8ff" stroke="#63b8ff" points="985.39,-6.07 975.42,-9.67 985.46,-13.07 985.39,-6.07"/>
</a>
</g>
</g>
<!-- Node7 -->
<g id="Node000007" class="node">
<title>Node7</title>
<g id="a_Node000007"><a xlink:title=" ">
<polygon fill="#e0e0e0" stroke="#999999" points="122.5,-19 29.5,-19 29.5,0 122.5,0 122.5,-19"/>
<text text-anchor="middle" x="76" y="-7" font-family="Helvetica,sans-Serif" font-size="10.00">unordered_map</text>
</a>
</g>
</g>
<!-- Node3&#45;&gt;Node7 -->
<g id="edge6_Node000003_Node000007" class="edge">
<title>Node3&#45;&gt;Node7</title>
<g id="a_edge6_Node000003_Node000007"><a xlink:title=" ">
<path fill="none" stroke="#63b8ff" d="M377.56,-274.9C358.56,-266.85 330.43,-253.86 308,-239 214.75,-177.25 191.75,-158.08 118,-74 105.5,-59.75 93.82,-41.53 85.97,-28.27"/>
<polygon fill="#63b8ff" stroke="#63b8ff" points="88.79,-26.15 80.76,-19.24 82.72,-29.65 88.79,-26.15"/>
</a>
</g>
</g>
<!-- Node8 -->
<g id="Node000008" class="node">
<title>Node8</title>
<g id="a_Node000008"><a xlink:title=" ">
<polygon fill="#e0e0e0" stroke="#999999" points="237.5,-74 192.5,-74 192.5,-55 237.5,-55 237.5,-74"/>
<text text-anchor="middle" x="215" y="-62" font-family="Helvetica,sans-Serif" font-size="10.00">utility</text>
</a>
</g>
</g>
<!-- Node3&#45;&gt;Node8 -->
<g id="edge7_Node000003_Node000008" class="edge">
<title>Node3&#45;&gt;Node8</title>
<g id="a_edge7_Node000003_Node000008"><a xlink:title=" ">
<path fill="none" stroke="#63b8ff" d="M384.59,-274.74C351.73,-253.95 271.05,-198.12 232,-129 224.19,-115.17 219.84,-97.6 217.51,-84.45"/>
<polygon fill="#63b8ff" stroke="#63b8ff" points="220.92,-83.59 215.93,-74.24 214,-84.65 220.92,-83.59"/>
</a>
</g>
</g>
<!-- Node9 -->
<g id="Node000009" class="node">
<title>Node9</title>
<g id="a_Node000009"><a xlink:title=" ">
<polygon fill="#e0e0e0" stroke="#999999" points="880.5,-74 815.5,-74 815.5,-55 880.5,-55 880.5,-74"/>
<text text-anchor="middle" x="848" y="-62" font-family="Helvetica,sans-Serif" font-size="10.00">functional</text>
</a>
</g>
</g>
<!-- Node3&#45;&gt;Node9 -->
<g id="edge8_Node000003_Node000009" class="edge">
<title>Node3&#45;&gt;Node9</title>
<g id="a_edge8_Node000003_Node000009"><a xlink:title=" ">
<path fill="none" stroke="#63b8ff" d="M460.17,-277.8C602.7,-263.09 949.96,-218.6 1017,-129 1051.17,-83.33 951.37,-70.5 890.79,-66.9"/>
<polygon fill="#63b8ff" stroke="#63b8ff" points="890.88,-63.4 880.71,-66.37 890.51,-70.39 890.88,-63.4"/>
</a>
</g>
</g>
<!-- Node10 -->
<g id="Node000010" class="node">
<title>Node10</title>
<g id="a_Node000010"><a xlink:href="channel_8h.html" target="_top" xlink:title=" ">
<polygon fill="white" stroke="#666666" points="509.5,-239 402.5,-239 402.5,-220 509.5,-220 509.5,-239"/>
<text text-anchor="middle" x="456" y="-227" font-family="Helvetica,sans-Serif" font-size="10.00">Channel/channel.h</text>
</a>
</g>
</g>
<!-- Node3&#45;&gt;Node10 -->
<g id="edge9_Node000003_Node000010" class="edge">
<title>Node3&#45;&gt;Node10</title>
<g id="a_edge9_Node000003_Node000010"><a xlink:title=" ">
<path fill="none" stroke="#63b8ff" d="M408.16,-274.98C416.5,-267.23 429.03,-255.58 439.18,-246.14"/>
<polygon fill="#63b8ff" stroke="#63b8ff" points="441.74,-248.54 446.68,-239.17 436.97,-243.42 441.74,-248.54"/>
</a>
</g>
</g>
<!-- Node15 -->
<g id="Node000015" class="node">
<title>Node15</title>
<g id="a_Node000015"><a xlink:href="types_8h.html" target="_top" xlink:title=" ">
<polygon fill="white" stroke="#666666" points="462.5,-74 373.5,-74 373.5,-55 462.5,-55 462.5,-74"/>
<text text-anchor="middle" x="418" y="-62" font-family="Helvetica,sans-Serif" font-size="10.00">Library/types.h</text>
</a>
</g>
</g>
<!-- Node3&#45;&gt;Node15 -->
<g id="edge44_Node000003_Node000015" class="edge">
<title>Node3&#45;&gt;Node15</title>
<g id="a_edge44_Node000003_Node000015"><a xlink:title=" ">
<path fill="none" stroke="#63b8ff" d="M389.33,-274.73C361.54,-248.45 285.77,-168.55 323,-110 332.88,-94.45 349.79,-84.25 366.62,-77.58"/>
<polygon fill="#63b8ff" stroke="#63b8ff" points="368.24,-80.72 376.47,-74.06 365.88,-74.13 368.24,-80.72"/>
</a>
</g>
</g>
<!-- Node3&#45;&gt;Node16 -->
<g id="edge43_Node000003_Node000016" class="edge">
<title>Node3&#45;&gt;Node16</title>
<g id="a_edge43_Node000003_Node000016"><a xlink:title=" ">
<path fill="none" stroke="#63b8ff" d="M423.02,-274.92C447.32,-266.16 485.92,-252.04 519,-239 561.98,-222.06 611.23,-201.22 641.73,-188.14"/>
<polygon fill="#63b8ff" stroke="#63b8ff" points="643.14,-191.35 650.94,-184.18 640.38,-184.92 643.14,-191.35"/>
</a>
</g>
</g>
<!-- Node18 -->
<g id="Node000018" class="node">
<title>Node18</title>
<g id="a_Node000018"><a xlink:href="error_8h.html" target="_top" xlink:title=" ">
<polygon fill="white" stroke="#666666" points="1149.5,-129 1064.5,-129 1064.5,-110 1149.5,-110 1149.5,-129"/>
<text text-anchor="middle" x="1107" y="-117" font-family="Helvetica,sans-Serif" font-size="10.00">Library/error.h</text>
</a>
</g>
</g>
<!-- Node3&#45;&gt;Node18 -->
<g id="edge45_Node000003_Node000018" class="edge">
<title>Node3&#45;&gt;Node18</title>
<g id="a_edge45_Node000003_Node000018"><a xlink:title=" ">
<path fill="none" stroke="#63b8ff" d="M460.21,-282.79C612.92,-280.52 1001.9,-271.58 1050,-239 1084.07,-215.92 1098.42,-166.6 1103.93,-139.42"/>
<polygon fill="#63b8ff" stroke="#63b8ff" points="1107.43,-139.74 1105.78,-129.28 1100.54,-138.49 1107.43,-139.74"/>
</a>
</g>
</g>
<!-- Node10&#45;&gt;Node4 -->
<g id="edge10_Node000010_Node000004" class="edge">
<title>Node10&#45;&gt;Node4</title>
<g id="a_edge10_Node000010_Node000004"><a xlink:title=" ">
<path fill="none" stroke="#63b8ff" d="M448.23,-219.66C432.28,-201.54 395.67,-159.91 375.31,-136.77"/>
<polygon fill="#63b8ff" stroke="#63b8ff" points="377.85,-134.36 368.62,-129.16 372.59,-138.98 377.85,-134.36"/>
</a>
</g>
</g>
<!-- Node10&#45;&gt;Node6 -->
<g id="edge11_Node000010_Node000006" class="edge">
<title>Node10&#45;&gt;Node6</title>
<g id="a_edge11_Node000010_Node000006"><a xlink:title=" ">
<path fill="none" stroke="#63b8ff" d="M509.59,-224.92C666.49,-213.9 1116.51,-178.22 1159,-129 1172.69,-113.14 1167.46,-76.34 1146,-55 1123.63,-32.75 1034.13,-19.53 985.26,-13.83"/>
<polygon fill="#63b8ff" stroke="#63b8ff" points="985.53,-10.34 975.2,-12.7 984.75,-17.29 985.53,-10.34"/>
</a>
</g>
</g>
<!-- Node10&#45;&gt;Node7 -->
<g id="edge13_Node000010_Node000007" class="edge">
<title>Node10&#45;&gt;Node7</title>
<g id="a_edge13_Node000010_Node000007"><a xlink:title=" ">
<path fill="none" stroke="#63b8ff" d="M406.86,-219.95C374.47,-213.09 331.77,-201.63 297,-184 210.81,-140.3 125.66,-60.33 91.57,-26.4"/>
<polygon fill="#63b8ff" stroke="#63b8ff" points="93.91,-23.79 84.38,-19.17 88.95,-28.72 93.91,-23.79"/>
</a>
</g>
</g>
<!-- Node10&#45;&gt;Node8 -->
<g id="edge15_Node000010_Node000008" class="edge">
<title>Node10&#45;&gt;Node8</title>
<g id="a_edge15_Node000010_Node000008"><a xlink:title=" ">
<path fill="none" stroke="#63b8ff" d="M425.76,-219.94C382.83,-206.52 303.68,-177 252,-129 238.44,-116.41 228.37,-97.7 222.19,-83.85"/>
<polygon fill="#63b8ff" stroke="#63b8ff" points="225.31,-82.26 218.22,-74.39 218.86,-84.96 225.31,-82.26"/>
</a>
</g>
</g>
<!-- Node11 -->
<g id="Node000011" class="node">
<title>Node11</title>
<g id="a_Node000011"><a xlink:title=" ">
<polygon fill="#e0e0e0" stroke="#999999" points="797.5,-74 756.5,-74 756.5,-55 797.5,-55 797.5,-74"/>
<text text-anchor="middle" x="777" y="-62" font-family="Helvetica,sans-Serif" font-size="10.00">tuple</text>
</a>
</g>
</g>
<!-- Node10&#45;&gt;Node11 -->
<g id="edge12_Node000010_Node000011" class="edge">
<title>Node10&#45;&gt;Node11</title>
<g id="a_edge12_Node000010_Node000011"><a xlink:title=" ">
<path fill="none" stroke="#63b8ff" d="M509.67,-227.64C570.11,-225.04 670.27,-215.77 750,-184 789.74,-168.16 809.19,-166.92 829,-129 838.86,-110.11 819.46,-91.63 801.62,-79.51"/>
<polygon fill="#63b8ff" stroke="#63b8ff" points="803.44,-76.52 793.12,-74.11 799.68,-82.43 803.44,-76.52"/>
</a>
</g>
</g>
<!-- Node12 -->
<g id="Node000012" class="node">
<title>Node12</title>
<g id="a_Node000012"><a xlink:title=" ">
<polygon fill="#e0e0e0" stroke="#999999" points="662,-74 624,-74 624,-55 662,-55 662,-74"/>
<text text-anchor="middle" x="643" y="-62" font-family="Helvetica,sans-Serif" font-size="10.00">map</text>
</a>
</g>
</g>
<!-- Node10&#45;&gt;Node12 -->
<g id="edge14_Node000010_Node000012" class="edge">
<title>Node10&#45;&gt;Node12</title>
<g id="a_edge14_Node000010_Node000012"><a xlink:title=" ">
<path fill="none" stroke="#63b8ff" d="M478.63,-219.93C496.44,-212.39 521.16,-200.11 539,-184 568.46,-157.4 562.3,-139.37 589,-110 598.96,-99.05 611.68,-88.44 622.27,-80.32"/>
<polygon fill="#63b8ff" stroke="#63b8ff" points="624.63,-82.93 630.55,-74.15 620.44,-77.32 624.63,-82.93"/>
</a>
</g>
</g>
<!-- Node10&#45;&gt;Node13 -->
<g id="edge16_Node000010_Node000013" class="edge">
<title>Node10&#45;&gt;Node13</title>
<g id="a_edge16_Node000010_Node000013"><a xlink:title=" ">
<path fill="none" stroke="#63b8ff" d="M434.46,-219.9C403.18,-206.09 346.37,-175.67 323,-129 301.65,-86.36 357.87,-44.83 392.72,-24.12"/>
<polygon fill="#63b8ff" stroke="#63b8ff" points="394.56,-27.1 401.48,-19.08 391.07,-21.03 394.56,-27.1"/>
</a>
</g>
</g>
<!-- Node14 -->
<g id="Node000014" class="node">
<title>Node14</title>
<g id="a_Node000014"><a xlink:title=" ">
<polygon fill="#e0e0e0" stroke="#999999" points="530,-184 484,-184 484,-165 530,-165 530,-184"/>
<text text-anchor="middle" x="507" y="-172" font-family="Helvetica,sans-Serif" font-size="10.00">future</text>
</a>
</g>
</g>
<!-- Node10&#45;&gt;Node14 -->
<g id="edge17_Node000010_Node000014" class="edge">
<title>Node10&#45;&gt;Node14</title>
<g id="a_edge17_Node000010_Node000014"><a xlink:title=" ">
<path fill="none" stroke="#63b8ff" d="M464.42,-219.75C471.77,-212.11 482.63,-200.82 491.54,-191.56"/>
<polygon fill="#63b8ff" stroke="#63b8ff" points="494.32,-193.72 498.74,-184.09 489.28,-188.87 494.32,-193.72"/>
</a>
</g>
</g>
<!-- Node10&#45;&gt;Node15 -->
<g id="edge18_Node000010_Node000015" class="edge">
<title>Node10&#45;&gt;Node15</title>
<g id="a_edge18_Node000010_Node000015"><a xlink:title=" ">
<path fill="none" stroke="#63b8ff" d="M453.96,-219.74C448,-194.2 430.57,-119.43 422.37,-84.23"/>
<polygon fill="#63b8ff" stroke="#63b8ff" points="425.73,-83.25 420.05,-74.31 418.92,-84.84 425.73,-83.25"/>
</a>
</g>
</g>
<!-- Node10&#45;&gt;Node16 -->
<g id="edge22_Node000010_Node000016" class="edge">
<title>Node10&#45;&gt;Node16</title>
<g id="a_edge22_Node000010_Node000016"><a xlink:title=" ">
<path fill="none" stroke="#63b8ff" d="M490.54,-219.98C527.42,-210.89 585.99,-196.46 626.34,-186.51"/>
<polygon fill="#63b8ff" stroke="#63b8ff" points="627.31,-189.87 636.19,-184.08 625.64,-183.08 627.31,-189.87"/>
</a>
</g>
</g>
<!-- Node15&#45;&gt;Node6 -->
<g id="edge21_Node000015_Node000006" class="edge">
<title>Node15&#45;&gt;Node6</title>
<g id="a_edge21_Node000015_Node000006"><a xlink:title=" ">
<path fill="none" stroke="#63b8ff" d="M462.69,-59.07C567.9,-48.65 829.18,-22.77 920.7,-13.7"/>
<polygon fill="#63b8ff" stroke="#63b8ff" points="921.15,-17.17 930.76,-12.7 920.46,-10.21 921.15,-17.17"/>
</a>
</g>
</g>
<!-- Node15&#45;&gt;Node7 -->
<g id="edge20_Node000015_Node000007" class="edge">
<title>Node15&#45;&gt;Node7</title>
<g id="a_edge20_Node000015_Node000007"><a xlink:title=" ">
<path fill="none" stroke="#63b8ff" d="M373.29,-56.57C311.55,-47 200.18,-29.74 132.68,-19.28"/>
<polygon fill="#63b8ff" stroke="#63b8ff" points="133.06,-15.8 122.64,-17.73 131.98,-22.72 133.06,-15.8"/>
</a>
</g>
</g>
<!-- Node15&#45;&gt;Node13 -->
<g id="edge19_Node000015_Node000013" class="edge">
<title>Node15&#45;&gt;Node13</title>
<g id="a_edge19_Node000015_Node000013"><a xlink:title=" ">
<path fill="none" stroke="#63b8ff" d="M418,-54.75C418,-47.8 418,-37.85 418,-29.13"/>
<polygon fill="#63b8ff" stroke="#63b8ff" points="421.5,-29.09 418,-19.09 414.5,-29.09 421.5,-29.09"/>
</a>
</g>
</g>
<!-- Node16&#45;&gt;Node4 -->
<g id="edge26_Node000016_Node000004" class="edge">
<title>Node16&#45;&gt;Node4</title>
<g id="a_edge26_Node000016_Node000004"><a xlink:title=" ">
<path fill="none" stroke="#63b8ff" d="M621.19,-164.98C559.64,-154.46 456.19,-136.78 400.07,-127.18"/>
<polygon fill="#63b8ff" stroke="#63b8ff" points="400.61,-123.72 390.16,-125.49 399.43,-130.62 400.61,-123.72"/>
</a>
</g>
</g>
<!-- Node16&#45;&gt;Node5 -->
<g id="edge29_Node000016_Node000005" class="edge">
<title>Node16&#45;&gt;Node5</title>
<g id="a_edge29_Node000016_Node000005"><a xlink:title=" ">
<path fill="none" stroke="#63b8ff" d="M720.65,-164.98C782.19,-154.43 885.76,-136.66 941.59,-127.09"/>
<polygon fill="#63b8ff" stroke="#63b8ff" points="942.49,-130.48 951.76,-125.34 941.31,-123.58 942.49,-130.48"/>
</a>
</g>
</g>
<!-- Node16&#45;&gt;Node6 -->
<g id="edge23_Node000016_Node000006" class="edge">
<title>Node16&#45;&gt;Node6</title>
<g id="a_edge23_Node000016_Node000006"><a xlink:title=" ">
<path fill="none" stroke="#63b8ff" d="M740.7,-165.81C774.92,-159.66 815.64,-148.66 848,-129 890.7,-103.05 925.7,-54.21 942.41,-28.06"/>
<polygon fill="#63b8ff" stroke="#63b8ff" points="945.58,-29.59 947.89,-19.25 939.64,-25.89 945.58,-29.59"/>
</a>
</g>
</g>
<!-- Node16&#45;&gt;Node8 -->
<g id="edge24_Node000016_Node000008" class="edge">
<title>Node16&#45;&gt;Node8</title>
<g id="a_edge24_Node000016_Node000008"><a xlink:title=" ">
<path fill="none" stroke="#63b8ff" d="M633.81,-164.98C595.12,-156.09 532.78,-141.7 479,-129 395.48,-109.28 297.24,-85.49 247.45,-73.4"/>
<polygon fill="#63b8ff" stroke="#63b8ff" points="248.13,-69.96 237.59,-71 246.48,-76.76 248.13,-69.96"/>
</a>
</g>
</g>
<!-- Node16&#45;&gt;Node9 -->
<g id="edge30_Node000016_Node000009" class="edge">
<title>Node16&#45;&gt;Node9</title>
<g id="a_edge30_Node000016_Node000009"><a xlink:title=" ">
<path fill="none" stroke="#63b8ff" d="M740.73,-168.79C771.38,-163.3 805.64,-151.99 829,-129 840.91,-117.28 845.42,-98.43 847.1,-84.31"/>
<polygon fill="#63b8ff" stroke="#63b8ff" points="850.59,-84.47 847.92,-74.22 843.62,-83.9 850.59,-84.47"/>
</a>
</g>
</g>
<!-- Node16&#45;&gt;Node12 -->
<g id="edge28_Node000016_Node000012" class="edge">
<title>Node16&#45;&gt;Node12</title>
<g id="a_edge28_Node000016_Node000012"><a xlink:title=" ">
<path fill="none" stroke="#63b8ff" d="M668.87,-164.86C665.85,-152.63 660.11,-129.58 655,-110 652.75,-101.38 650.19,-91.83 648.01,-83.8"/>
<polygon fill="#63b8ff" stroke="#63b8ff" points="651.35,-82.75 645.34,-74.02 644.6,-84.59 651.35,-82.75"/>
</a>
</g>
</g>
<!-- Node16&#45;&gt;Node13 -->
<g id="edge25_Node000016_Node000013" class="edge">
<title>Node16&#45;&gt;Node13</title>
<g id="a_edge25_Node000016_Node000013"><a xlink:title=" ">
<path fill="none" stroke="#63b8ff" d="M654.05,-164.99C637.25,-156.39 610.93,-142.5 589,-129 532.72,-94.37 469.55,-48.72 438.08,-25.48"/>
<polygon fill="#63b8ff" stroke="#63b8ff" points="439.84,-22.43 429.73,-19.29 435.68,-28.06 439.84,-22.43"/>
</a>
</g>
</g>
<!-- Node16&#45;&gt;Node15 -->
<g id="edge31_Node000016_Node000015" class="edge">
<title>Node16&#45;&gt;Node15</title>
<g id="a_edge31_Node000016_Node000015"><a xlink:title=" ">
<path fill="none" stroke="#63b8ff" d="M630.27,-164.97C598.78,-157.6 554.55,-145.52 518,-129 488.1,-115.49 456.62,-94.15 437.15,-79.99"/>
<polygon fill="#63b8ff" stroke="#63b8ff" points="439.22,-77.17 429.1,-74.05 435.06,-82.8 439.22,-77.17"/>
</a>
</g>
</g>
<!-- Node17 -->
<g id="Node000017" class="node">
<title>Node17</title>
<g id="a_Node000017"><a xlink:title=" ">
<polygon fill="#e0e0e0" stroke="#999999" points="646,-129 598,-129 598,-110 646,-110 646,-129"/>
<text text-anchor="middle" x="622" y="-117" font-family="Helvetica,sans-Serif" font-size="10.00">mutex</text>
</a>
</g>
</g>
<!-- Node16&#45;&gt;Node17 -->
<g id="edge27_Node000016_Node000017" class="edge">
<title>Node16&#45;&gt;Node17</title>
<g id="a_edge27_Node000016_Node000017"><a xlink:title=" ">
<path fill="none" stroke="#63b8ff" d="M662.91,-164.75C655.84,-157.11 645.41,-145.82 636.85,-136.56"/>
<polygon fill="#63b8ff" stroke="#63b8ff" points="639.3,-134.06 629.94,-129.09 634.16,-138.81 639.3,-134.06"/>
</a>
</g>
</g>
<!-- Node16&#45;&gt;Node18 -->
<g id="edge32_Node000016_Node000018" class="edge">
<title>Node16&#45;&gt;Node18</title>
<g id="a_edge32_Node000016_Node000018"><a xlink:title=" ">
<path fill="none" stroke="#63b8ff" d="M740.57,-165.04C827.89,-154.43 975.71,-136.46 1054.26,-126.91"/>
<polygon fill="#63b8ff" stroke="#63b8ff" points="1054.91,-130.36 1064.41,-125.68 1054.06,-123.41 1054.91,-130.36"/>
</a>
</g>
</g>
<!-- Node20 -->
<g id="Node000020" class="node">
<title>Node20</title>
<g id="a_Node000020"><a xlink:href="evaluate_8h.html" target="_top" xlink:title=" ">
<polygon fill="white" stroke="#666666" points="820,-129 702,-129 702,-110 820,-110 820,-129"/>
<text text-anchor="middle" x="761" y="-117" font-family="Helvetica,sans-Serif" font-size="10.00">Evaluator/evaluate.h</text>
</a>
</g>
</g>
<!-- Node16&#45;&gt;Node20 -->
<g id="edge35_Node000016_Node000020" class="edge">
<title>Node16&#45;&gt;Node20</title>
<g id="a_edge35_Node000016_Node000020"><a xlink:title=" ">
<path fill="none" stroke="#63b8ff" d="M685.46,-164.98C699.42,-156.77 720.79,-144.18 737.25,-134.49"/>
<polygon fill="#63b8ff" stroke="#63b8ff" points="739.44,-137.26 746.28,-129.17 735.88,-131.23 739.44,-137.26"/>
</a>
</g>
</g>
<!-- Node18&#45;&gt;Node6 -->
<g id="edge33_Node000018_Node000006" class="edge">
<title>Node18&#45;&gt;Node6</title>
<g id="a_edge33_Node000018_Node000006"><a xlink:title=" ">
<path fill="none" stroke="#63b8ff" d="M1094.66,-109.84C1068.3,-91.36 1006.27,-47.86 973.74,-25.05"/>
<polygon fill="#63b8ff" stroke="#63b8ff" points="975.6,-22.07 965.4,-19.2 971.58,-27.8 975.6,-22.07"/>
</a>
</g>
</g>
<!-- Node19 -->
<g id="Node000019" class="node">
<title>Node19</title>
<g id="a_Node000019"><a xlink:title=" ">
<polygon fill="#e0e0e0" stroke="#999999" points="1137,-74 1077,-74 1077,-55 1137,-55 1137,-74"/>
<text text-anchor="middle" x="1107" y="-62" font-family="Helvetica,sans-Serif" font-size="10.00">iostream</text>
</a>
</g>
</g>
<!-- Node18&#45;&gt;Node19 -->
<g id="edge34_Node000018_Node000019" class="edge">
<title>Node18&#45;&gt;Node19</title>
<g id="a_edge34_Node000018_Node000019"><a xlink:title=" ">
<path fill="none" stroke="#63b8ff" d="M1107,-109.75C1107,-102.8 1107,-92.85 1107,-84.13"/>
<polygon fill="#63b8ff" stroke="#63b8ff" points="1110.5,-84.09 1107,-74.09 1103.5,-84.09 1110.5,-84.09"/>
</a>
</g>
</g>
<!-- Node20&#45;&gt;Node6 -->
<g id="edge38_Node000020_Node000006" class="edge">
<title>Node20&#45;&gt;Node6</title>
<g id="a_edge38_Node000020_Node000006"><a xlink:title=" ">
<path fill="none" stroke="#63b8ff" d="M755.15,-109.65C747.14,-96.31 735.15,-70.94 748,-55 769.33,-28.54 868.52,-17.01 920.71,-12.7"/>
<polygon fill="#63b8ff" stroke="#63b8ff" points="921.09,-16.18 930.78,-11.91 920.54,-9.21 921.09,-16.18"/>
</a>
</g>
</g>
<!-- Node20&#45;&gt;Node8 -->
<g id="edge36_Node000020_Node000008" class="edge">
<title>Node20&#45;&gt;Node8</title>
<g id="a_edge36_Node000020_Node000008"><a xlink:title=" ">
<path fill="none" stroke="#63b8ff" d="M701.79,-112.75C586.92,-101.6 337.26,-77.37 247.76,-68.68"/>
<polygon fill="#63b8ff" stroke="#63b8ff" points="247.95,-65.18 237.65,-67.7 247.27,-72.15 247.95,-65.18"/>
</a>
</g>
</g>
<!-- Node20&#45;&gt;Node9 -->
<g id="edge39_Node000020_Node000009" class="edge">
<title>Node20&#45;&gt;Node9</title>
<g id="a_edge39_Node000020_Node000009"><a xlink:title=" ">
<path fill="none" stroke="#63b8ff" d="M774.98,-109.98C788.47,-101.77 809.13,-89.18 825.04,-79.49"/>
<polygon fill="#63b8ff" stroke="#63b8ff" points="827.05,-82.36 833.77,-74.17 823.41,-76.38 827.05,-82.36"/>
</a>
</g>
</g>
<!-- Node20&#45;&gt;Node11 -->
<g id="edge40_Node000020_Node000011" class="edge">
<title>Node20&#45;&gt;Node11</title>
<g id="a_edge40_Node000020_Node000011"><a xlink:title=" ">
<path fill="none" stroke="#63b8ff" d="M763.64,-109.75C765.76,-102.72 768.81,-92.62 771.46,-83.84"/>
<polygon fill="#63b8ff" stroke="#63b8ff" points="774.87,-84.67 774.41,-74.09 768.17,-82.65 774.87,-84.67"/>
</a>
</g>
</g>
<!-- Node20&#45;&gt;Node12 -->
<g id="edge41_Node000020_Node000012" class="edge">
<title>Node20&#45;&gt;Node12</title>
<g id="a_edge41_Node000020_Node000012"><a xlink:title=" ">
<path fill="none" stroke="#63b8ff" d="M742.04,-109.98C722.97,-101.42 693.34,-88.11 671.45,-78.28"/>
<polygon fill="#63b8ff" stroke="#63b8ff" points="672.86,-75.07 662.3,-74.17 669.99,-81.46 672.86,-75.07"/>
</a>
</g>
</g>
<!-- Node20&#45;&gt;Node13 -->
<g id="edge37_Node000020_Node000013" class="edge">
<title>Node20&#45;&gt;Node13</title>
<g id="a_edge37_Node000020_Node000013"><a xlink:title=" ">
<path fill="none" stroke="#63b8ff" d="M751.86,-109.92C736.47,-95.99 703.84,-68.66 671,-55 596.77,-24.12 501.63,-14.66 451.83,-11.77"/>
<polygon fill="#63b8ff" stroke="#63b8ff" points="451.8,-8.26 441.63,-11.23 451.43,-15.25 451.8,-8.26"/>
</a>
</g>
</g>
<!-- Node20&#45;&gt;Node15 -->
<g id="edge42_Node000020_Node000015" class="edge">
<title>Node20&#45;&gt;Node15</title>
<g id="a_edge42_Node000020_Node000015"><a xlink:title=" ">
<path fill="none" stroke="#63b8ff" d="M705.89,-109.98C641.72,-100.07 536.38,-83.79 472.48,-73.92"/>
<polygon fill="#63b8ff" stroke="#63b8ff" points="473.01,-70.46 462.59,-72.39 471.94,-77.38 473.01,-70.46"/>
</a>
</g>
</g>
<!-- Node21&#45;&gt;Node3 -->
<g id="edge48_Node000021_Node000003" class="edge">
<title>Node21&#45;&gt;Node3</title>
<g id="a_edge48_Node000021_Node000003"><a xlink:title=" ">
<path fill="none" stroke="#63b8ff" d="M251.28,-329.98C280.95,-321.05 327.79,-306.94 360.75,-297.02"/>
<polygon fill="#63b8ff" stroke="#63b8ff" points="361.93,-300.32 370.5,-294.08 359.92,-293.61 361.93,-300.32"/>
</a>
</g>
</g>
<!-- Node21&#45;&gt;Node8 -->
<g id="edge47_Node000021_Node000008" class="edge">
<title>Node21&#45;&gt;Node8</title>
<g id="a_edge47_Node000021_Node000008"><a xlink:title=" ">
<path fill="none" stroke="#63b8ff" d="M191.34,-329.96C151.77,-317.4 85.73,-289.72 57,-239 17.79,-169.78 130.33,-105.21 185.93,-78.47"/>
<polygon fill="#63b8ff" stroke="#63b8ff" points="187.72,-81.49 195.28,-74.07 184.74,-75.16 187.72,-81.49"/>
</a>
</g>
</g>
<!-- Node22 -->
<g id="Node000022" class="node">
<title>Node22</title>
<g id="a_Node000022"><a xlink:href="simulator_8h.html" target="_top" xlink:title=" ">
<polygon fill="white" stroke="#666666" points="188,-239 66,-239 66,-220 188,-220 188,-239"/>
<text text-anchor="middle" x="127" y="-227" font-family="Helvetica,sans-Serif" font-size="10.00">Simulator/simulator.h</text>
</a>
</g>
</g>
<!-- Node21&#45;&gt;Node22 -->
<g id="edge49_Node000021_Node000022" class="edge">
<title>Node21&#45;&gt;Node22</title>
<g id="a_edge49_Node000021_Node000022"><a xlink:title=" ">
<path fill="none" stroke="#63b8ff" d="M215.14,-329.66C199.03,-311.54 162.03,-269.91 141.46,-246.77"/>
<polygon fill="#63b8ff" stroke="#63b8ff" points="143.96,-244.31 134.7,-239.16 138.72,-248.96 143.96,-244.31"/>
</a>
</g>
</g>
<!-- Node22&#45;&gt;Node15 -->
<g id="edge50_Node000022_Node000015" class="edge">
<title>Node22&#45;&gt;Node15</title>
<g id="a_edge50_Node000022_Node000015"><a xlink:title=" ">
<path fill="none" stroke="#63b8ff" d="M138.81,-219.86C155.53,-207.62 187.07,-184.57 214,-165 247.73,-140.49 253.03,-129.27 290,-110 317.17,-95.84 349.81,-84.57 375.34,-76.92"/>
<polygon fill="#63b8ff" stroke="#63b8ff" points="376.48,-80.23 385.09,-74.06 374.51,-73.51 376.48,-80.23"/>
</a>
</g>
</g>
</g>
</svg>
