<?xml version="1.0" encoding="UTF-8" standalone="no"?>
<!DOCTYPE svg PUBLIC "-//W3C//DTD SVG 1.1//EN"
 "http://www.w3.org/Graphics/SVG/1.1/DTD/svg11.dtd">
<!-- Generated by graphviz version 2.43.0 (0)
 -->
<!-- Title: src/Transaction/transaction.cpp Pages: 1 -->
<svg width="994pt" height="302pt"
 viewBox="0.00 0.00 994.00 302.00" xmlns="http://www.w3.org/2000/svg" xmlns:xlink="http://www.w3.org/1999/xlink">
<g id="graph0" class="graph" transform="scale(1 1) rotate(0) translate(4 298)">
<title>src/Transaction/transaction.cpp</title>
<!-- Node1 -->
<g id="Node000001" class="node">
<title>Node1</title>
<g id="a_Node000001"><a xlink:title=" ">
<polygon fill="#999999" stroke="#666666" points="811.5,-294 644.5,-294 644.5,-275 811.5,-275 811.5,-294"/>
<text text-anchor="middle" x="728" y="-282" font-family="Helvetica,sans-Serif" font-size="10.00">src/Transaction/transaction.cpp</text>
</a>
</g>
</g>
<!-- Node2 -->
<g id="Node000002" class="node">
<title>Node2</title>
<g id="a_Node000002"><a xlink:href="transaction_8h_source.html" target="_top" xlink:title=" ">
<polygon fill="white" stroke="#666666" points="568.5,-184 429.5,-184 429.5,-165 568.5,-165 568.5,-184"/>
<text text-anchor="middle" x="499" y="-172" font-family="Helvetica,sans-Serif" font-size="10.00">Transaction/transaction.h</text>
</a>
</g>
</g>
<!-- Node1&#45;&gt;Node2 -->
<g id="edge1_Node000001_Node000002" class="edge">
<title>Node1&#45;&gt;Node2</title>
<g id="a_edge1_Node000001_Node000002"><a xlink:title=" ">
<path fill="none" stroke="#63b8ff" d="M676.65,-274.98C644.85,-268.27 603.95,-256.98 571,-239 548.5,-226.72 527.04,-206.27 513.5,-191.91"/>
<polygon fill="#63b8ff" stroke="#63b8ff" points="515.83,-189.27 506.49,-184.26 510.67,-194 515.83,-189.27"/>
</a>
</g>
</g>
<!-- Node4 -->
<g id="Node000004" class="node">
<title>Node4</title>
<g id="a_Node000004"><a xlink:title=" ">
<polygon fill="#e0e0e0" stroke="#999999" points="639.5,-74 594.5,-74 594.5,-55 639.5,-55 639.5,-74"/>
<text text-anchor="middle" x="617" y="-62" font-family="Helvetica,sans-Serif" font-size="10.00">utility</text>
</a>
</g>
</g>
<!-- Node1&#45;&gt;Node4 -->
<g id="edge28_Node000001_Node000004" class="edge">
<title>Node1&#45;&gt;Node4</title>
<g id="a_edge28_Node000001_Node000004"><a xlink:title=" ">
<path fill="none" stroke="#63b8ff" d="M748.52,-275C763.02,-267.77 781.35,-255.86 790,-239 816.18,-187.99 825.13,-155.31 790,-110 772.98,-88.05 695.07,-75.03 649.82,-69.19"/>
<polygon fill="#63b8ff" stroke="#63b8ff" points="649.97,-65.68 639.61,-67.92 649.11,-72.63 649.97,-65.68"/>
</a>
</g>
</g>
<!-- Node5 -->
<g id="Node000005" class="node">
<title>Node5</title>
<g id="a_Node000005"><a xlink:title=" ">
<polygon fill="#e0e0e0" stroke="#999999" points="598.5,-19 551.5,-19 551.5,0 598.5,0 598.5,-19"/>
<text text-anchor="middle" x="575" y="-7" font-family="Helvetica,sans-Serif" font-size="10.00">vector</text>
</a>
</g>
</g>
<!-- Node1&#45;&gt;Node5 -->
<g id="edge29_Node000001_Node000005" class="edge">
<title>Node1&#45;&gt;Node5</title>
<g id="a_edge29_Node000001_Node000005"><a xlink:title=" ">
<path fill="none" stroke="#63b8ff" d="M752.5,-274.91C788.64,-260.48 852,-227.74 852,-175.5 852,-175.5 852,-175.5 852,-118.5 852,-66.84 682.67,-29.94 608.79,-16.3"/>
<polygon fill="#63b8ff" stroke="#63b8ff" points="609.08,-12.8 598.62,-14.46 607.83,-19.68 609.08,-12.8"/>
</a>
</g>
</g>
<!-- Node6 -->
<g id="Node000006" class="node">
<title>Node6</title>
<g id="a_Node000006"><a xlink:title=" ">
<polygon fill="#e0e0e0" stroke="#999999" points="748,-129 690,-129 690,-110 748,-110 748,-129"/>
<text text-anchor="middle" x="719" y="-117" font-family="Helvetica,sans-Serif" font-size="10.00">memory</text>
</a>
</g>
</g>
<!-- Node1&#45;&gt;Node6 -->
<g id="edge27_Node000001_Node000006" class="edge">
<title>Node1&#45;&gt;Node6</title>
<g id="a_edge27_Node000001_Node000006"><a xlink:title=" ">
<path fill="none" stroke="#63b8ff" d="M727.52,-274.74C726.11,-249.31 722.01,-175.08 720.06,-139.69"/>
<polygon fill="#63b8ff" stroke="#63b8ff" points="723.53,-139.1 719.49,-129.31 716.54,-139.48 723.53,-139.1"/>
</a>
</g>
</g>
<!-- Node10 -->
<g id="Node000010" class="node">
<title>Node10</title>
<g id="a_Node000010"><a xlink:title=" ">
<polygon fill="#e0e0e0" stroke="#999999" points="576.5,-74 511.5,-74 511.5,-55 576.5,-55 576.5,-74"/>
<text text-anchor="middle" x="544" y="-62" font-family="Helvetica,sans-Serif" font-size="10.00">functional</text>
</a>
</g>
</g>
<!-- Node1&#45;&gt;Node10 -->
<g id="edge26_Node000001_Node000010" class="edge">
<title>Node1&#45;&gt;Node10</title>
<g id="a_edge26_Node000001_Node000010"><a xlink:title=" ">
<path fill="none" stroke="#63b8ff" d="M733.65,-274.73C750.71,-247.07 798.02,-160.48 757,-110 756.83,-109.79 648.83,-87.3 586.7,-74.38"/>
<polygon fill="#63b8ff" stroke="#63b8ff" points="587.28,-70.92 576.78,-72.31 585.86,-77.78 587.28,-70.92"/>
</a>
</g>
</g>
<!-- Node11 -->
<g id="Node000011" class="node">
<title>Node11</title>
<g id="a_Node000011"><a xlink:href="types_8h.html" target="_top" xlink:title=" ">
<polygon fill="white" stroke="#666666" points="205.5,-74 116.5,-74 116.5,-55 205.5,-55 205.5,-74"/>
<text text-anchor="middle" x="161" y="-62" font-family="Helvetica,sans-Serif" font-size="10.00">Library/types.h</text>
</a>
</g>
</g>
<!-- Node1&#45;&gt;Node11 -->
<g id="edge34_Node000001_Node000011" class="edge">
<title>Node1&#45;&gt;Node11</title>
<g id="a_edge34_Node000001_Node000011"><a xlink:title=" ">
<path fill="none" stroke="#63b8ff" d="M688.39,-274.94C650.39,-266.53 591.5,-252.95 541,-239 384.24,-195.7 315.23,-235.13 192,-129 178.37,-117.26 170.18,-98.14 165.68,-83.94"/>
<polygon fill="#63b8ff" stroke="#63b8ff" points="169.02,-82.91 162.92,-74.25 162.29,-84.82 169.02,-82.91"/>
</a>
</g>
</g>
<!-- Node13 -->
<g id="Node000013" class="node">
<title>Node13</title>
<g id="a_Node000013"><a xlink:href="error_8h.html" target="_top" xlink:title=" ">
<polygon fill="white" stroke="#666666" points="129.5,-129 44.5,-129 44.5,-110 129.5,-110 129.5,-129"/>
<text text-anchor="middle" x="87" y="-117" font-family="Helvetica,sans-Serif" font-size="10.00">Library/error.h</text>
</a>
</g>
</g>
<!-- Node1&#45;&gt;Node13 -->
<g id="edge33_Node000001_Node000013" class="edge">
<title>Node1&#45;&gt;Node13</title>
<g id="a_edge33_Node000001_Node000013"><a xlink:title=" ">
<path fill="none" stroke="#63b8ff" d="M644.31,-281.71C492.65,-277.8 184.3,-266.53 144,-239 110.02,-215.79 95.63,-166.52 90.09,-139.39"/>
<polygon fill="#63b8ff" stroke="#63b8ff" points="93.48,-138.46 88.23,-129.26 86.6,-139.73 93.48,-138.46"/>
</a>
</g>
</g>
<!-- Node17 -->
<g id="Node000017" class="node">
<title>Node17</title>
<g id="a_Node000017"><a xlink:title=" ">
<polygon fill="#e0e0e0" stroke="#999999" points="986,-239 880,-239 880,-220 986,-220 986,-239"/>
<text text-anchor="middle" x="933" y="-227" font-family="Helvetica,sans-Serif" font-size="10.00">bits/ranges_algo.h</text>
</a>
</g>
</g>
<!-- Node1&#45;&gt;Node17 -->
<g id="edge25_Node000001_Node000017" class="edge">
<title>Node1&#45;&gt;Node17</title>
<g id="a_edge25_Node000001_Node000017"><a xlink:title=" ">
<path fill="none" stroke="#63b8ff" d="M760.94,-274.98C795.95,-265.93 851.47,-251.58 889.93,-241.64"/>
<polygon fill="#63b8ff" stroke="#63b8ff" points="891,-244.97 899.81,-239.08 889.25,-238.2 891,-244.97"/>
</a>
</g>
</g>
<!-- Node18 -->
<g id="Node000018" class="node">
<title>Node18</title>
<g id="a_Node000018"><a xlink:href="database_8h.html" target="_top" xlink:title=" ">
<polygon fill="white" stroke="#666666" points="700,-239 580,-239 580,-220 700,-220 700,-239"/>
<text text-anchor="middle" x="640" y="-227" font-family="Helvetica,sans-Serif" font-size="10.00">Database/database.h</text>
</a>
</g>
</g>
<!-- Node1&#45;&gt;Node18 -->
<g id="edge30_Node000001_Node000018" class="edge">
<title>Node1&#45;&gt;Node18</title>
<g id="a_edge30_Node000001_Node000018"><a xlink:title=" ">
<path fill="none" stroke="#63b8ff" d="M713.86,-274.98C700.21,-266.77 679.31,-254.18 663.22,-244.49"/>
<polygon fill="#63b8ff" stroke="#63b8ff" points="664.77,-241.33 654.4,-239.17 661.16,-247.33 664.77,-241.33"/>
</a>
</g>
</g>
<!-- Node3 -->
<g id="Node000003" class="node">
<title>Node3</title>
<g id="a_Node000003"><a xlink:title=" ">
<polygon fill="#e0e0e0" stroke="#999999" points="256,-19 212,-19 212,0 256,0 256,-19"/>
<text text-anchor="middle" x="234" y="-7" font-family="Helvetica,sans-Serif" font-size="10.00">string</text>
</a>
</g>
</g>
<!-- Node2&#45;&gt;Node3 -->
<g id="edge2_Node000002_Node000003" class="edge">
<title>Node2&#45;&gt;Node3</title>
<g id="a_edge2_Node000002_Node000003"><a xlink:title=" ">
<path fill="none" stroke="#63b8ff" d="M429.25,-166.5C374.24,-159.68 303.21,-147.6 281,-129 250.7,-103.62 239.8,-55.99 235.98,-29.5"/>
<polygon fill="#63b8ff" stroke="#63b8ff" points="239.42,-28.76 234.71,-19.27 232.47,-29.62 239.42,-28.76"/>
</a>
</g>
</g>
<!-- Node2&#45;&gt;Node4 -->
<g id="edge3_Node000002_Node000004" class="edge">
<title>Node2&#45;&gt;Node4</title>
<g id="a_edge3_Node000002_Node000004"><a xlink:title=" ">
<path fill="none" stroke="#63b8ff" d="M523.88,-164.88C542.03,-157.58 566.28,-145.65 583,-129 595.85,-116.2 605.05,-97.53 610.62,-83.74"/>
<polygon fill="#63b8ff" stroke="#63b8ff" points="613.91,-84.92 614.16,-74.32 607.36,-82.45 613.91,-84.92"/>
</a>
</g>
</g>
<!-- Node2&#45;&gt;Node5 -->
<g id="edge4_Node000002_Node000005" class="edge">
<title>Node2&#45;&gt;Node5</title>
<g id="a_edge4_Node000002_Node000005"><a xlink:title=" ">
<path fill="none" stroke="#63b8ff" d="M530.36,-164.89C552.67,-157.74 582.54,-145.96 605,-129 629.98,-110.14 638.64,-103.54 649,-74 651.8,-66.03 653.16,-62.35 649,-55 640.14,-39.33 623.31,-28.57 607.94,-21.56"/>
<polygon fill="#63b8ff" stroke="#63b8ff" points="609.21,-18.3 598.64,-17.67 606.51,-24.76 609.21,-18.3"/>
</a>
</g>
</g>
<!-- Node2&#45;&gt;Node6 -->
<g id="edge5_Node000002_Node000006" class="edge">
<title>Node2&#45;&gt;Node6</title>
<g id="a_edge5_Node000002_Node000006"><a xlink:title=" ">
<path fill="none" stroke="#63b8ff" d="M534.35,-164.98C574.1,-155.41 638.47,-139.9 679.76,-129.95"/>
<polygon fill="#63b8ff" stroke="#63b8ff" points="680.82,-133.3 689.72,-127.55 679.18,-126.49 680.82,-133.3"/>
</a>
</g>
</g>
<!-- Node7 -->
<g id="Node000007" class="node">
<title>Node7</title>
<g id="a_Node000007"><a xlink:title=" ">
<polygon fill="#e0e0e0" stroke="#999999" points="348,-129 300,-129 300,-110 348,-110 348,-129"/>
<text text-anchor="middle" x="324" y="-117" font-family="Helvetica,sans-Serif" font-size="10.00">mutex</text>
</a>
</g>
</g>
<!-- Node2&#45;&gt;Node7 -->
<g id="edge6_Node000002_Node000007" class="edge">
<title>Node2&#45;&gt;Node7</title>
<g id="a_edge6_Node000002_Node000007"><a xlink:title=" ">
<path fill="none" stroke="#63b8ff" d="M470.88,-164.98C440.06,-155.65 390.63,-140.68 357.74,-130.72"/>
<polygon fill="#63b8ff" stroke="#63b8ff" points="358.69,-127.35 348.1,-127.8 356.66,-134.05 358.69,-127.35"/>
</a>
</g>
</g>
<!-- Node8 -->
<g id="Node000008" class="node">
<title>Node8</title>
<g id="a_Node000008"><a xlink:title=" ">
<polygon fill="#e0e0e0" stroke="#999999" points="315,-74 277,-74 277,-55 315,-55 315,-74"/>
<text text-anchor="middle" x="296" y="-62" font-family="Helvetica,sans-Serif" font-size="10.00">map</text>
</a>
</g>
</g>
<!-- Node2&#45;&gt;Node8 -->
<g id="edge7_Node000002_Node000008" class="edge">
<title>Node2&#45;&gt;Node8</title>
<g id="a_edge7_Node000002_Node000008"><a xlink:title=" ">
<path fill="none" stroke="#63b8ff" d="M429.43,-167.89C375.92,-161.96 308.3,-150.39 291,-129 280.92,-116.53 283.86,-97.81 288.31,-83.92"/>
<polygon fill="#63b8ff" stroke="#63b8ff" points="291.64,-85.02 291.82,-74.43 285.07,-82.6 291.64,-85.02"/>
</a>
</g>
</g>
<!-- Node9 -->
<g id="Node000009" class="node">
<title>Node9</title>
<g id="a_Node000009"><a xlink:title=" ">
<polygon fill="#e0e0e0" stroke="#999999" points="422,-129 366,-129 366,-110 422,-110 422,-129"/>
<text text-anchor="middle" x="394" y="-117" font-family="Helvetica,sans-Serif" font-size="10.00">optional</text>
</a>
</g>
</g>
<!-- Node2&#45;&gt;Node9 -->
<g id="edge8_Node000002_Node000009" class="edge">
<title>Node2&#45;&gt;Node9</title>
<g id="a_edge8_Node000002_Node000009"><a xlink:title=" ">
<path fill="none" stroke="#63b8ff" d="M482.13,-164.98C465.39,-156.54 439.5,-143.47 420.11,-133.68"/>
<polygon fill="#63b8ff" stroke="#63b8ff" points="421.68,-130.55 411.18,-129.17 418.53,-136.8 421.68,-130.55"/>
</a>
</g>
</g>
<!-- Node2&#45;&gt;Node10 -->
<g id="edge9_Node000002_Node000010" class="edge">
<title>Node2&#45;&gt;Node10</title>
<g id="a_edge9_Node000002_Node000010"><a xlink:title=" ">
<path fill="none" stroke="#63b8ff" d="M522.78,-164.92C538.43,-157.89 557.67,-146.25 567,-129 575.16,-113.92 566.49,-95.34 557.55,-82.19"/>
<polygon fill="#63b8ff" stroke="#63b8ff" points="560.3,-80.01 551.53,-74.06 554.67,-84.18 560.3,-80.01"/>
</a>
</g>
</g>
<!-- Node2&#45;&gt;Node11 -->
<g id="edge10_Node000002_Node000011" class="edge">
<title>Node2&#45;&gt;Node11</title>
<g id="a_edge10_Node000002_Node000011"><a xlink:title=" ">
<path fill="none" stroke="#63b8ff" d="M429.25,-167.6C358.73,-160.71 255.27,-147.82 220,-129 199.55,-118.09 182.35,-97.32 171.89,-82.5"/>
<polygon fill="#63b8ff" stroke="#63b8ff" points="174.78,-80.52 166.28,-74.19 168.97,-84.44 174.78,-80.52"/>
</a>
</g>
</g>
<!-- Node2&#45;&gt;Node13 -->
<g id="edge14_Node000002_Node000013" class="edge">
<title>Node2&#45;&gt;Node13</title>
<g id="a_edge14_Node000002_Node000013"><a xlink:title=" ">
<path fill="none" stroke="#63b8ff" d="M432.81,-164.98C351.34,-154.5 214.63,-136.92 139.84,-127.3"/>
<polygon fill="#63b8ff" stroke="#63b8ff" points="140.07,-123.8 129.71,-125.99 139.18,-130.74 140.07,-123.8"/>
</a>
</g>
</g>
<!-- Node15 -->
<g id="Node000015" class="node">
<title>Node15</title>
<g id="a_Node000015"><a xlink:href="evaluate_8h.html" target="_top" xlink:title=" ">
<polygon fill="white" stroke="#666666" points="558,-129 440,-129 440,-110 558,-110 558,-129"/>
<text text-anchor="middle" x="499" y="-117" font-family="Helvetica,sans-Serif" font-size="10.00">Evaluator/evaluate.h</text>
</a>
</g>
</g>
<!-- Node2&#45;&gt;Node15 -->
<g id="edge17_Node000002_Node000015" class="edge">
<title>Node2&#45;&gt;Node15</title>
<g id="a_edge17_Node000002_Node000015"><a xlink:title=" ">
<path fill="none" stroke="#63b8ff" d="M499,-164.75C499,-157.8 499,-147.85 499,-139.13"/>
<polygon fill="#63b8ff" stroke="#63b8ff" points="502.5,-139.09 499,-129.09 495.5,-139.09 502.5,-139.09"/>
</a>
</g>
</g>
<!-- Node11&#45;&gt;Node3 -->
<g id="edge13_Node000011_Node000003" class="edge">
<title>Node11&#45;&gt;Node3</title>
<g id="a_edge13_Node000011_Node000003"><a xlink:title=" ">
<path fill="none" stroke="#63b8ff" d="M172.73,-54.98C183.73,-47 200.42,-34.88 213.6,-25.31"/>
<polygon fill="#63b8ff" stroke="#63b8ff" points="216.02,-27.88 222.06,-19.17 211.91,-22.21 216.02,-27.88"/>
</a>
</g>
</g>
<!-- Node11&#45;&gt;Node5 -->
<g id="edge11_Node000011_Node000005" class="edge">
<title>Node11&#45;&gt;Node5</title>
<g id="a_edge11_Node000011_Node000005"><a xlink:title=" ">
<path fill="none" stroke="#63b8ff" d="M205.7,-57.78C289,-47.11 466.27,-24.42 540.83,-14.87"/>
<polygon fill="#63b8ff" stroke="#63b8ff" points="541.59,-18.31 551.06,-13.56 540.7,-11.36 541.59,-18.31"/>
</a>
</g>
</g>
<!-- Node12 -->
<g id="Node000012" class="node">
<title>Node12</title>
<g id="a_Node000012"><a xlink:title=" ">
<polygon fill="#e0e0e0" stroke="#999999" points="193.5,-19 100.5,-19 100.5,0 193.5,0 193.5,-19"/>
<text text-anchor="middle" x="147" y="-7" font-family="Helvetica,sans-Serif" font-size="10.00">unordered_map</text>
</a>
</g>
</g>
<!-- Node11&#45;&gt;Node12 -->
<g id="edge12_Node000011_Node000012" class="edge">
<title>Node11&#45;&gt;Node12</title>
<g id="a_edge12_Node000011_Node000012"><a xlink:title=" ">
<path fill="none" stroke="#63b8ff" d="M158.69,-54.75C156.83,-47.72 154.16,-37.62 151.85,-28.84"/>
<polygon fill="#63b8ff" stroke="#63b8ff" points="155.21,-27.86 149.27,-19.09 148.44,-29.65 155.21,-27.86"/>
</a>
</g>
</g>
<!-- Node13&#45;&gt;Node3 -->
<g id="edge15_Node000013_Node000003" class="edge">
<title>Node13&#45;&gt;Node3</title>
<g id="a_edge15_Node000013_Node000003"><a xlink:title=" ">
<path fill="none" stroke="#63b8ff" d="M87.34,-109.88C88.35,-96.4 92.2,-70.28 107,-55 113.84,-47.94 166.63,-30.91 201.96,-20.09"/>
<polygon fill="#63b8ff" stroke="#63b8ff" points="203.3,-23.34 211.85,-17.08 201.26,-16.64 203.3,-23.34"/>
</a>
</g>
</g>
<!-- Node14 -->
<g id="Node000014" class="node">
<title>Node14</title>
<g id="a_Node000014"><a xlink:title=" ">
<polygon fill="#e0e0e0" stroke="#999999" points="60,-74 0,-74 0,-55 60,-55 60,-74"/>
<text text-anchor="middle" x="30" y="-62" font-family="Helvetica,sans-Serif" font-size="10.00">iostream</text>
</a>
</g>
</g>
<!-- Node13&#45;&gt;Node14 -->
<g id="edge16_Node000013_Node000014" class="edge">
<title>Node13&#45;&gt;Node14</title>
<g id="a_edge16_Node000013_Node000014"><a xlink:title=" ">
<path fill="none" stroke="#63b8ff" d="M77.84,-109.98C69.5,-102.23 56.97,-90.58 46.82,-81.14"/>
<polygon fill="#63b8ff" stroke="#63b8ff" points="49.03,-78.42 39.32,-74.17 44.26,-83.54 49.03,-78.42"/>
</a>
</g>
</g>
<!-- Node15&#45;&gt;Node3 -->
<g id="edge20_Node000015_Node000003" class="edge">
<title>Node15&#45;&gt;Node3</title>
<g id="a_edge20_Node000015_Node000003"><a xlink:title=" ">
<path fill="none" stroke="#63b8ff" d="M477.76,-109.84C430.93,-90.76 318.68,-45.01 264.4,-22.89"/>
<polygon fill="#63b8ff" stroke="#63b8ff" points="265.55,-19.58 254.97,-19.05 262.91,-26.06 265.55,-19.58"/>
</a>
</g>
</g>
<!-- Node15&#45;&gt;Node4 -->
<g id="edge18_Node000015_Node000004" class="edge">
<title>Node15&#45;&gt;Node4</title>
<g id="a_edge18_Node000015_Node000004"><a xlink:title=" ">
<path fill="none" stroke="#63b8ff" d="M517.96,-109.98C537.03,-101.42 566.66,-88.11 588.55,-78.28"/>
<polygon fill="#63b8ff" stroke="#63b8ff" points="590.01,-81.46 597.7,-74.17 587.14,-75.07 590.01,-81.46"/>
</a>
</g>
</g>
<!-- Node15&#45;&gt;Node5 -->
<g id="edge19_Node000015_Node000005" class="edge">
<title>Node15&#45;&gt;Node5</title>
<g id="a_edge19_Node000015_Node000005"><a xlink:title=" ">
<path fill="none" stroke="#63b8ff" d="M497.04,-109.98C494.56,-97.08 491.75,-72.28 502,-55 510.88,-40.02 526.95,-29.43 541.76,-22.34"/>
<polygon fill="#63b8ff" stroke="#63b8ff" points="543.47,-25.42 551.21,-18.19 540.65,-19.01 543.47,-25.42"/>
</a>
</g>
</g>
<!-- Node15&#45;&gt;Node8 -->
<g id="edge23_Node000015_Node000008" class="edge">
<title>Node15&#45;&gt;Node8</title>
<g id="a_edge23_Node000015_Node000008"><a xlink:title=" ">
<path fill="none" stroke="#63b8ff" d="M466.38,-109.98C427.25,-99.77 362.25,-82.8 324.86,-73.04"/>
<polygon fill="#63b8ff" stroke="#63b8ff" points="325.65,-69.63 315.09,-70.49 323.89,-76.4 325.65,-69.63"/>
</a>
</g>
</g>
<!-- Node15&#45;&gt;Node10 -->
<g id="edge21_Node000015_Node000010" class="edge">
<title>Node15&#45;&gt;Node10</title>
<g id="a_edge21_Node000015_Node000010"><a xlink:title=" ">
<path fill="none" stroke="#63b8ff" d="M506.43,-109.75C512.85,-102.18 522.31,-91.05 530.12,-81.84"/>
<polygon fill="#63b8ff" stroke="#63b8ff" points="532.9,-83.98 536.71,-74.09 527.57,-79.45 532.9,-83.98"/>
</a>
</g>
</g>
<!-- Node15&#45;&gt;Node11 -->
<g id="edge24_Node000015_Node000011" class="edge">
<title>Node15&#45;&gt;Node11</title>
<g id="a_edge24_Node000015_Node000011"><a xlink:title=" ">
<path fill="none" stroke="#63b8ff" d="M444.69,-109.98C381.85,-100.13 278.95,-84 215.87,-74.1"/>
<polygon fill="#63b8ff" stroke="#63b8ff" points="216.14,-70.6 205.72,-72.51 215.06,-77.52 216.14,-70.6"/>
</a>
</g>
</g>
<!-- Node16 -->
<g id="Node000016" class="node">
<title>Node16</title>
<g id="a_Node000016"><a xlink:title=" ">
<polygon fill="#e0e0e0" stroke="#999999" points="454.5,-74 413.5,-74 413.5,-55 454.5,-55 454.5,-74"/>
<text text-anchor="middle" x="434" y="-62" font-family="Helvetica,sans-Serif" font-size="10.00">tuple</text>
</a>
</g>
</g>
<!-- Node15&#45;&gt;Node16 -->
<g id="edge22_Node000015_Node000016" class="edge">
<title>Node15&#45;&gt;Node16</title>
<g id="a_edge22_Node000015_Node000016"><a xlink:title=" ">
<path fill="none" stroke="#63b8ff" d="M488.56,-109.98C478.85,-102.07 464.18,-90.11 452.5,-80.58"/>
<polygon fill="#63b8ff" stroke="#63b8ff" points="454.6,-77.78 444.63,-74.17 450.17,-83.2 454.6,-77.78"/>
</a>
</g>
</g>
<!-- Node18&#45;&gt;Node2 -->
<g id="edge32_Node000018_Node000002" class="edge">
<title>Node18&#45;&gt;Node2</title>
<g id="a_edge32_Node000018_Node000002"><a xlink:title=" ">
<path fill="none" stroke="#63b8ff" d="M617.35,-219.98C594.15,-211.27 557.88,-197.63 531.6,-187.75"/>
<polygon fill="#63b8ff" stroke="#63b8ff" points="532.66,-184.41 522.07,-184.17 530.2,-190.97 532.66,-184.41"/>
</a>
</g>
</g>
<!-- Node18&#45;&gt;Node6 -->
<g id="edge31_Node000018_Node000006" class="edge">
<title>Node18&#45;&gt;Node6</title>
<g id="a_edge31_Node000018_Node000006"><a xlink:title=" ">
<path fill="none" stroke="#63b8ff" d="M646.46,-219.66C659.61,-201.69 689.64,-160.64 706.65,-137.38"/>
<polygon fill="#63b8ff" stroke="#63b8ff" points="709.59,-139.3 712.67,-129.16 703.94,-135.16 709.59,-139.3"/>
</a>
</g>
</g>
</g>
</svg>
