<?xml version="1.0" encoding="UTF-8" standalone="no"?>
<!DOCTYPE svg PUBLIC "-//W3C//DTD SVG 1.1//EN"
 "http://www.w3.org/Graphics/SVG/1.1/DTD/svg11.dtd">
<!-- Generated by graphviz version 2.43.0 (0)
 -->
<!-- Title: src/Drivers/transDriverModel.cpp Pages: 1 -->
<svg width="1452pt" height="522pt"
 viewBox="0.00 0.00 1452.00 522.00" xmlns="http://www.w3.org/2000/svg" xmlns:xlink="http://www.w3.org/1999/xlink">
<g id="graph0" class="graph" transform="scale(1 1) rotate(0) translate(4 518)">
<title>src/Drivers/transDriverModel.cpp</title>
<!-- Node1 -->
<g id="Node000001" class="node">
<title>Node1</title>
<g id="a_Node000001"><a xlink:title=" ">
<polygon fill="#999999" stroke="#666666" points="796.5,-514 619.5,-514 619.5,-495 796.5,-495 796.5,-514"/>
<text text-anchor="middle" x="708" y="-502" font-family="Helvetica,sans-Serif" font-size="10.00">src/Drivers/transDriverModel.cpp</text>
</a>
</g>
</g>
<!-- Node2 -->
<g id="Node000002" class="node">
<title>Node2</title>
<g id="a_Node000002"><a xlink:href="transDriverModel_8h.html" target="_top" xlink:title=" ">
<polygon fill="white" stroke="#666666" points="782.5,-459 633.5,-459 633.5,-440 782.5,-440 782.5,-459"/>
<text text-anchor="middle" x="708" y="-447" font-family="Helvetica,sans-Serif" font-size="10.00">Drivers/transDriverModel.h</text>
</a>
</g>
</g>
<!-- Node1&#45;&gt;Node2 -->
<g id="edge1_Node000001_Node000002" class="edge">
<title>Node1&#45;&gt;Node2</title>
<g id="a_edge1_Node000001_Node000002"><a xlink:title=" ">
<path fill="none" stroke="#63b8ff" d="M708,-494.75C708,-487.8 708,-477.85 708,-469.13"/>
<polygon fill="#63b8ff" stroke="#63b8ff" points="711.5,-469.09 708,-459.09 704.5,-469.09 711.5,-469.09"/>
</a>
</g>
</g>
<!-- Node3 -->
<g id="Node000003" class="node">
<title>Node3</title>
<g id="a_Node000003"><a xlink:title=" ">
<polygon fill="#e0e0e0" stroke="#999999" points="1205,-19 1161,-19 1161,0 1205,0 1205,-19"/>
<text text-anchor="middle" x="1183" y="-7" font-family="Helvetica,sans-Serif" font-size="10.00">string</text>
</a>
</g>
</g>
<!-- Node2&#45;&gt;Node3 -->
<g id="edge2_Node000002_Node000003" class="edge">
<title>Node2&#45;&gt;Node3</title>
<g id="a_edge2_Node000002_Node000003"><a xlink:title=" ">
<path fill="none" stroke="#63b8ff" d="M782.62,-445.3C969.73,-436.27 1444,-406.85 1444,-340.5 1444,-340.5 1444,-340.5 1444,-118.5 1444,-20.55 1285.1,-9.7 1215.27,-9.66"/>
<polygon fill="#63b8ff" stroke="#63b8ff" points="1215.23,-6.16 1205.25,-9.73 1215.28,-13.16 1215.23,-6.16"/>
</a>
</g>
</g>
<!-- Node4 -->
<g id="Node000004" class="node">
<title>Node4</title>
<g id="a_Node000004"><a xlink:title=" ">
<polygon fill="#e0e0e0" stroke="#999999" points="494.5,-19 447.5,-19 447.5,0 494.5,0 494.5,-19"/>
<text text-anchor="middle" x="471" y="-7" font-family="Helvetica,sans-Serif" font-size="10.00">vector</text>
</a>
</g>
</g>
<!-- Node2&#45;&gt;Node4 -->
<g id="edge3_Node000002_Node000004" class="edge">
<title>Node2&#45;&gt;Node4</title>
<g id="a_edge3_Node000002_Node000004"><a xlink:title=" ">
<path fill="none" stroke="#63b8ff" d="M633.24,-444.85C451.24,-434.96 0,-404.03 0,-340.5 0,-340.5 0,-340.5 0,-118.5 0,-28.68 329.5,-13.56 437.31,-11.01"/>
<polygon fill="#63b8ff" stroke="#63b8ff" points="437.4,-14.51 447.32,-10.8 437.25,-7.51 437.4,-14.51"/>
</a>
</g>
</g>
<!-- Node5 -->
<g id="Node000005" class="node">
<title>Node5</title>
<g id="a_Node000005"><a xlink:href="driverModel_8h.html" target="_top" xlink:title=" ">
<polygon fill="white" stroke="#666666" points="1053,-294 931,-294 931,-275 1053,-275 1053,-294"/>
<text text-anchor="middle" x="992" y="-282" font-family="Helvetica,sans-Serif" font-size="10.00">Drivers/driverModel.h</text>
</a>
</g>
</g>
<!-- Node2&#45;&gt;Node5 -->
<g id="edge4_Node000002_Node000005" class="edge">
<title>Node2&#45;&gt;Node5</title>
<g id="a_edge4_Node000002_Node000005"><a xlink:title=" ">
<path fill="none" stroke="#63b8ff" d="M723.47,-439.85C739.42,-430.92 764.99,-416.56 787,-404 852.83,-366.43 930.17,-321.51 968.3,-299.32"/>
<polygon fill="#63b8ff" stroke="#63b8ff" points="970.23,-302.24 977.11,-294.18 966.71,-296.19 970.23,-302.24"/>
</a>
</g>
</g>
<!-- Node19 -->
<g id="Node000019" class="node">
<title>Node19</title>
<g id="a_Node000019"><a xlink:href="transaction_8h_source.html" target="_top" xlink:title=" ">
<polygon fill="white" stroke="#666666" points="841.5,-184 702.5,-184 702.5,-165 841.5,-165 841.5,-184"/>
<text text-anchor="middle" x="772" y="-172" font-family="Helvetica,sans-Serif" font-size="10.00">Transaction/transaction.h</text>
</a>
</g>
</g>
<!-- Node2&#45;&gt;Node19 -->
<g id="edge63_Node000002_Node000019" class="edge">
<title>Node2&#45;&gt;Node19</title>
<g id="a_edge63_Node000002_Node000019"><a xlink:title=" ">
<path fill="none" stroke="#63b8ff" d="M633.49,-441.71C526.48,-429.86 342,-400.7 342,-340.5 342,-340.5 342,-340.5 342,-283.5 342,-246.63 582.9,-204.45 704.08,-185.56"/>
<polygon fill="#63b8ff" stroke="#63b8ff" points="704.66,-189.01 714.01,-184.02 703.59,-182.1 704.66,-189.01"/>
</a>
</g>
</g>
<!-- Node22 -->
<g id="Node000022" class="node">
<title>Node22</title>
<g id="a_Node000022"><a xlink:href="simulatorDriver_8h.html" target="_top" xlink:title=" ">
<polygon fill="white" stroke="#666666" points="778,-404 638,-404 638,-385 778,-385 778,-404"/>
<text text-anchor="middle" x="708" y="-392" font-family="Helvetica,sans-Serif" font-size="10.00">Drivers/simulatorDriver.h</text>
</a>
</g>
</g>
<!-- Node2&#45;&gt;Node22 -->
<g id="edge53_Node000002_Node000022" class="edge">
<title>Node2&#45;&gt;Node22</title>
<g id="a_edge53_Node000002_Node000022"><a xlink:title=" ">
<path fill="none" stroke="#63b8ff" d="M708,-439.75C708,-432.8 708,-422.85 708,-414.13"/>
<polygon fill="#63b8ff" stroke="#63b8ff" points="711.5,-414.09 708,-404.09 704.5,-414.09 711.5,-414.09"/>
</a>
</g>
</g>
<!-- Node5&#45;&gt;Node3 -->
<g id="edge7_Node000005_Node000003" class="edge">
<title>Node5&#45;&gt;Node3</title>
<g id="a_edge7_Node000005_Node000003"><a xlink:title=" ">
<path fill="none" stroke="#63b8ff" d="M1053.26,-283.62C1123.99,-279.96 1236.64,-261.45 1284,-184 1314.17,-134.66 1333.89,-102.56 1301,-55 1281.89,-27.38 1243.32,-16.88 1215.46,-12.9"/>
<polygon fill="#63b8ff" stroke="#63b8ff" points="1215.72,-9.41 1205.37,-11.68 1214.88,-16.36 1215.72,-9.41"/>
</a>
</g>
</g>
<!-- Node6 -->
<g id="Node000006" class="node">
<title>Node6</title>
<g id="a_Node000006"><a xlink:title=" ">
<polygon fill="#e0e0e0" stroke="#999999" points="1084,-129 1026,-129 1026,-110 1084,-110 1084,-129"/>
<text text-anchor="middle" x="1055" y="-117" font-family="Helvetica,sans-Serif" font-size="10.00">memory</text>
</a>
</g>
</g>
<!-- Node5&#45;&gt;Node6 -->
<g id="edge5_Node000005_Node000006" class="edge">
<title>Node5&#45;&gt;Node6</title>
<g id="a_edge5_Node000005_Node000006"><a xlink:title=" ">
<path fill="none" stroke="#63b8ff" d="M995.39,-274.74C1005.3,-249.09 1034.41,-173.78 1047.94,-138.78"/>
<polygon fill="#63b8ff" stroke="#63b8ff" points="1051.26,-139.9 1051.6,-129.31 1044.73,-137.37 1051.26,-139.9"/>
</a>
</g>
</g>
<!-- Node7 -->
<g id="Node000007" class="node">
<title>Node7</title>
<g id="a_Node000007"><a xlink:title=" ">
<polygon fill="#e0e0e0" stroke="#999999" points="970,-129 914,-129 914,-110 970,-110 970,-129"/>
<text text-anchor="middle" x="942" y="-117" font-family="Helvetica,sans-Serif" font-size="10.00">optional</text>
</a>
</g>
</g>
<!-- Node5&#45;&gt;Node7 -->
<g id="edge6_Node000005_Node000007" class="edge">
<title>Node5&#45;&gt;Node7</title>
<g id="a_edge6_Node000005_Node000007"><a xlink:title=" ">
<path fill="none" stroke="#63b8ff" d="M989.31,-274.74C981.48,-249.2 958.54,-174.43 947.75,-139.23"/>
<polygon fill="#63b8ff" stroke="#63b8ff" points="950.98,-137.84 944.7,-129.31 944.29,-139.89 950.98,-137.84"/>
</a>
</g>
</g>
<!-- Node8 -->
<g id="Node000008" class="node">
<title>Node8</title>
<g id="a_Node000008"><a xlink:title=" ">
<polygon fill="#e0e0e0" stroke="#999999" points="1274.5,-74 1233.5,-74 1233.5,-55 1274.5,-55 1274.5,-74"/>
<text text-anchor="middle" x="1254" y="-62" font-family="Helvetica,sans-Serif" font-size="10.00">tuple</text>
</a>
</g>
</g>
<!-- Node5&#45;&gt;Node8 -->
<g id="edge8_Node000005_Node000008" class="edge">
<title>Node5&#45;&gt;Node8</title>
<g id="a_edge8_Node000005_Node000008"><a xlink:title=" ">
<path fill="none" stroke="#63b8ff" d="M1047.52,-274.96C1078.66,-268.44 1117.29,-257.35 1148,-239 1206.55,-204.02 1229.34,-192.19 1255,-129 1260.78,-114.78 1259.97,-97.25 1258.04,-84.21"/>
<polygon fill="#63b8ff" stroke="#63b8ff" points="1261.43,-83.31 1256.19,-74.1 1254.55,-84.57 1261.43,-83.31"/>
</a>
</g>
</g>
<!-- Node9 -->
<g id="Node000009" class="node">
<title>Node9</title>
<g id="a_Node000009"><a xlink:title=" ">
<polygon fill="#e0e0e0" stroke="#999999" points="932.5,-19 839.5,-19 839.5,0 932.5,0 932.5,-19"/>
<text text-anchor="middle" x="886" y="-7" font-family="Helvetica,sans-Serif" font-size="10.00">unordered_map</text>
</a>
</g>
</g>
<!-- Node5&#45;&gt;Node9 -->
<g id="edge9_Node000005_Node000009" class="edge">
<title>Node5&#45;&gt;Node9</title>
<g id="a_edge9_Node000005_Node000009"><a xlink:title=" ">
<path fill="none" stroke="#63b8ff" d="M1053.11,-275.89C1090.36,-269.56 1138.11,-258.35 1177,-239 1261.69,-196.86 1347.07,-125.51 1284,-55 1261.66,-30.02 1047.16,-17.42 942.66,-12.73"/>
<polygon fill="#63b8ff" stroke="#63b8ff" points="942.74,-9.23 932.6,-12.29 942.44,-16.22 942.74,-9.23"/>
</a>
</g>
</g>
<!-- Node10 -->
<g id="Node000010" class="node">
<title>Node10</title>
<g id="a_Node000010"><a xlink:title=" ">
<polygon fill="#e0e0e0" stroke="#999999" points="231.5,-74 186.5,-74 186.5,-55 231.5,-55 231.5,-74"/>
<text text-anchor="middle" x="209" y="-62" font-family="Helvetica,sans-Serif" font-size="10.00">utility</text>
</a>
</g>
</g>
<!-- Node5&#45;&gt;Node10 -->
<g id="edge10_Node000005_Node000010" class="edge">
<title>Node5&#45;&gt;Node10</title>
<g id="a_edge10_Node000005_Node000010"><a xlink:title=" ">
<path fill="none" stroke="#63b8ff" d="M930.87,-284.49C833.06,-284.7 636,-279.4 475,-239 371.66,-213.07 341.76,-199.64 262,-129 246.1,-114.92 230.89,-95.92 220.87,-82.38"/>
<polygon fill="#63b8ff" stroke="#63b8ff" points="223.51,-80.06 214.82,-74.01 217.84,-84.16 223.51,-80.06"/>
</a>
</g>
</g>
<!-- Node11 -->
<g id="Node000011" class="node">
<title>Node11</title>
<g id="a_Node000011"><a xlink:title=" ">
<polygon fill="#e0e0e0" stroke="#999999" points="804.5,-74 739.5,-74 739.5,-55 804.5,-55 804.5,-74"/>
<text text-anchor="middle" x="772" y="-62" font-family="Helvetica,sans-Serif" font-size="10.00">functional</text>
</a>
</g>
</g>
<!-- Node5&#45;&gt;Node11 -->
<g id="edge11_Node000005_Node000011" class="edge">
<title>Node5&#45;&gt;Node11</title>
<g id="a_edge11_Node000005_Node000011"><a xlink:title=" ">
<path fill="none" stroke="#63b8ff" d="M1004.23,-274.82C1040.42,-248.14 1141.53,-165.72 1093,-110 1074.97,-89.3 897.89,-74.3 814.73,-68.34"/>
<polygon fill="#63b8ff" stroke="#63b8ff" points="814.81,-64.84 804.59,-67.62 814.32,-71.82 814.81,-64.84"/>
</a>
</g>
</g>
<!-- Node12 -->
<g id="Node000012" class="node">
<title>Node12</title>
<g id="a_Node000012"><a xlink:href="channel_8h.html" target="_top" xlink:title=" ">
<polygon fill="white" stroke="#666666" points="743.5,-239 636.5,-239 636.5,-220 743.5,-220 743.5,-239"/>
<text text-anchor="middle" x="690" y="-227" font-family="Helvetica,sans-Serif" font-size="10.00">Channel/channel.h</text>
</a>
</g>
</g>
<!-- Node5&#45;&gt;Node12 -->
<g id="edge12_Node000005_Node000012" class="edge">
<title>Node5&#45;&gt;Node12</title>
<g id="a_edge12_Node000005_Node000012"><a xlink:title=" ">
<path fill="none" stroke="#63b8ff" d="M943.48,-274.98C890.39,-265.67 805.31,-250.74 748.56,-240.78"/>
<polygon fill="#63b8ff" stroke="#63b8ff" points="749.11,-237.32 738.65,-239.04 747.9,-244.21 749.11,-237.32"/>
</a>
</g>
</g>
<!-- Node18 -->
<g id="Node000018" class="node">
<title>Node18</title>
<g id="a_Node000018"><a xlink:href="types_8h.html" target="_top" xlink:title=" ">
<polygon fill="white" stroke="#666666" points="588.5,-74 499.5,-74 499.5,-55 588.5,-55 588.5,-74"/>
<text text-anchor="middle" x="544" y="-62" font-family="Helvetica,sans-Serif" font-size="10.00">Library/types.h</text>
</a>
</g>
</g>
<!-- Node5&#45;&gt;Node18 -->
<g id="edge51_Node000005_Node000018" class="edge">
<title>Node5&#45;&gt;Node18</title>
<g id="a_edge51_Node000005_Node000018"><a xlink:title=" ">
<path fill="none" stroke="#63b8ff" d="M930.85,-280.22C795.25,-271.87 474.5,-245.97 388,-184 358.58,-162.92 331.51,-138.36 354,-110 370.64,-89.01 439.2,-76.98 489.2,-70.84"/>
<polygon fill="#63b8ff" stroke="#63b8ff" points="489.72,-74.3 499.25,-69.65 488.9,-67.35 489.72,-74.3"/>
</a>
</g>
</g>
<!-- Node5&#45;&gt;Node19 -->
<g id="edge50_Node000005_Node000019" class="edge">
<title>Node5&#45;&gt;Node19</title>
<g id="a_edge50_Node000005_Node000019"><a xlink:title=" ">
<path fill="none" stroke="#63b8ff" d="M974.37,-274.84C935.9,-255.96 844.22,-210.96 798.66,-188.59"/>
<polygon fill="#63b8ff" stroke="#63b8ff" points="799.93,-185.31 789.41,-184.05 796.84,-191.6 799.93,-185.31"/>
</a>
</g>
</g>
<!-- Node20 -->
<g id="Node000020" class="node">
<title>Node20</title>
<g id="a_Node000020"><a xlink:href="error_8h.html" target="_top" xlink:title=" ">
<polygon fill="white" stroke="#666666" points="1225.5,-129 1140.5,-129 1140.5,-110 1225.5,-110 1225.5,-129"/>
<text text-anchor="middle" x="1183" y="-117" font-family="Helvetica,sans-Serif" font-size="10.00">Library/error.h</text>
</a>
</g>
</g>
<!-- Node5&#45;&gt;Node20 -->
<g id="edge52_Node000005_Node000020" class="edge">
<title>Node5&#45;&gt;Node20</title>
<g id="a_edge52_Node000005_Node000020"><a xlink:title=" ">
<path fill="none" stroke="#63b8ff" d="M1049.24,-274.98C1075.14,-268.68 1104.65,-257.78 1126,-239 1156.61,-212.07 1172.25,-165.05 1178.91,-139.07"/>
<polygon fill="#63b8ff" stroke="#63b8ff" points="1182.38,-139.59 1181.3,-129.05 1175.58,-137.97 1182.38,-139.59"/>
</a>
</g>
</g>
<!-- Node12&#45;&gt;Node3 -->
<g id="edge16_Node000012_Node000003" class="edge">
<title>Node12&#45;&gt;Node3</title>
<g id="a_edge16_Node000012_Node000003"><a xlink:title=" ">
<path fill="none" stroke="#63b8ff" d="M743.67,-229.29C829.49,-229.21 1002.2,-223.53 1142,-184 1195.75,-168.8 1214.87,-167.85 1255,-129 1280.38,-104.43 1303.3,-84.59 1284,-55 1268.86,-31.79 1238.6,-20.6 1215.13,-15.26"/>
<polygon fill="#63b8ff" stroke="#63b8ff" points="1215.73,-11.81 1205.23,-13.25 1214.33,-18.67 1215.73,-11.81"/>
</a>
</g>
</g>
<!-- Node12&#45;&gt;Node4 -->
<g id="edge21_Node000012_Node000004" class="edge">
<title>Node12&#45;&gt;Node4</title>
<g id="a_edge21_Node000012_Node000004"><a xlink:title=" ">
<path fill="none" stroke="#63b8ff" d="M636.27,-228.79C567.23,-227.55 444.67,-219.83 347,-184 262.51,-153 220.01,-153.05 177,-74 172.96,-66.58 171.49,-61.4 177,-55 210.22,-16.38 366.97,-10.86 437.03,-10.36"/>
<polygon fill="#63b8ff" stroke="#63b8ff" points="437.12,-13.86 447.1,-10.31 437.09,-6.86 437.12,-13.86"/>
</a>
</g>
</g>
<!-- Node12&#45;&gt;Node6 -->
<g id="edge14_Node000012_Node000006" class="edge">
<title>Node12&#45;&gt;Node6</title>
<g id="a_edge14_Node000012_Node000006"><a xlink:title=" ">
<path fill="none" stroke="#63b8ff" d="M743.68,-225.75C798.4,-221.52 884.98,-210.84 955,-184 985.97,-172.13 1017.61,-150.01 1036.79,-135.27"/>
<polygon fill="#63b8ff" stroke="#63b8ff" points="1038.97,-138 1044.67,-129.08 1034.64,-132.5 1038.97,-138"/>
</a>
</g>
</g>
<!-- Node12&#45;&gt;Node8 -->
<g id="edge17_Node000012_Node000008" class="edge">
<title>Node12&#45;&gt;Node8</title>
<g id="a_edge17_Node000012_Node000008"><a xlink:title=" ">
<path fill="none" stroke="#63b8ff" d="M743.94,-225.86C867.14,-218.74 1164.04,-194.99 1235,-129 1247.23,-117.62 1251.7,-98.73 1253.28,-84.5"/>
<polygon fill="#63b8ff" stroke="#63b8ff" points="1256.78,-84.55 1254.02,-74.32 1249.8,-84.04 1256.78,-84.55"/>
</a>
</g>
</g>
<!-- Node12&#45;&gt;Node9 -->
<g id="edge18_Node000012_Node000009" class="edge">
<title>Node12&#45;&gt;Node9</title>
<g id="a_edge18_Node000012_Node000009"><a xlink:title=" ">
<path fill="none" stroke="#63b8ff" d="M743.7,-227.33C778.77,-223.64 822.92,-212.95 850,-184 890.41,-140.81 890.43,-64.63 887.93,-29.38"/>
<polygon fill="#63b8ff" stroke="#63b8ff" points="891.39,-28.76 887.04,-19.1 884.42,-29.36 891.39,-28.76"/>
</a>
</g>
</g>
<!-- Node12&#45;&gt;Node10 -->
<g id="edge20_Node000012_Node000010" class="edge">
<title>Node12&#45;&gt;Node10</title>
<g id="a_edge20_Node000012_Node000010"><a xlink:title=" ">
<path fill="none" stroke="#63b8ff" d="M636.4,-227.6C574.61,-224.99 470.9,-215.73 388,-184 322.46,-158.92 256.49,-106.62 226.18,-80.72"/>
<polygon fill="#63b8ff" stroke="#63b8ff" points="228.46,-78.06 218.61,-74.15 223.88,-83.35 228.46,-78.06"/>
</a>
</g>
</g>
<!-- Node13 -->
<g id="Node000013" class="node">
<title>Node13</title>
<g id="a_Node000013"><a xlink:title=" ">
<polygon fill="#e0e0e0" stroke="#999999" points="581.5,-184 528.5,-184 528.5,-165 581.5,-165 581.5,-184"/>
<text text-anchor="middle" x="555" y="-172" font-family="Helvetica,sans-Serif" font-size="10.00">iterator</text>
</a>
</g>
</g>
<!-- Node12&#45;&gt;Node13 -->
<g id="edge13_Node000012_Node000013" class="edge">
<title>Node12&#45;&gt;Node13</title>
<g id="a_edge13_Node000012_Node000013"><a xlink:title=" ">
<path fill="none" stroke="#63b8ff" d="M668.31,-219.98C646.2,-211.3 611.68,-197.75 586.55,-187.88"/>
<polygon fill="#63b8ff" stroke="#63b8ff" points="587.67,-184.57 577.08,-184.17 585.11,-191.08 587.67,-184.57"/>
</a>
</g>
</g>
<!-- Node14 -->
<g id="Node000014" class="node">
<title>Node14</title>
<g id="a_Node000014"><a xlink:title=" ">
<polygon fill="#e0e0e0" stroke="#999999" points="456,-129 408,-129 408,-110 456,-110 456,-129"/>
<text text-anchor="middle" x="432" y="-117" font-family="Helvetica,sans-Serif" font-size="10.00">mutex</text>
</a>
</g>
</g>
<!-- Node12&#45;&gt;Node14 -->
<g id="edge15_Node000012_Node000014" class="edge">
<title>Node12&#45;&gt;Node14</title>
<g id="a_edge15_Node000012_Node000014"><a xlink:title=" ">
<path fill="none" stroke="#63b8ff" d="M687.83,-219.95C683.83,-206.06 673.92,-178.79 655,-165 587.3,-115.68 551.99,-146.14 470,-129 468.73,-128.74 467.45,-128.46 466.14,-128.19"/>
<polygon fill="#63b8ff" stroke="#63b8ff" points="466.62,-124.71 456.1,-126 465.13,-131.55 466.62,-124.71"/>
</a>
</g>
</g>
<!-- Node15 -->
<g id="Node000015" class="node">
<title>Node15</title>
<g id="a_Node000015"><a xlink:title=" ">
<polygon fill="#e0e0e0" stroke="#999999" points="645,-74 607,-74 607,-55 645,-55 645,-74"/>
<text text-anchor="middle" x="626" y="-62" font-family="Helvetica,sans-Serif" font-size="10.00">map</text>
</a>
</g>
</g>
<!-- Node12&#45;&gt;Node15 -->
<g id="edge19_Node000012_Node000015" class="edge">
<title>Node12&#45;&gt;Node15</title>
<g id="a_edge19_Node000012_Node000015"><a xlink:title=" ">
<path fill="none" stroke="#63b8ff" d="M636.49,-228.55C567.25,-225.31 449.53,-207.75 399,-129 334.28,-28.14 183.75,-171.84 597,-74 597.1,-73.98 597.2,-73.95 597.3,-73.93"/>
<polygon fill="#63b8ff" stroke="#63b8ff" points="597.95,-77.38 606.73,-71.45 596.17,-70.61 597.95,-77.38"/>
</a>
</g>
</g>
<!-- Node16 -->
<g id="Node000016" class="node">
<title>Node16</title>
<g id="a_Node000016"><a xlink:title=" ">
<polygon fill="#e0e0e0" stroke="#999999" points="646,-184 600,-184 600,-165 646,-165 646,-184"/>
<text text-anchor="middle" x="623" y="-172" font-family="Helvetica,sans-Serif" font-size="10.00">future</text>
</a>
</g>
</g>
<!-- Node12&#45;&gt;Node16 -->
<g id="edge22_Node000012_Node000016" class="edge">
<title>Node12&#45;&gt;Node16</title>
<g id="a_edge22_Node000012_Node000016"><a xlink:title=" ">
<path fill="none" stroke="#63b8ff" d="M679.24,-219.98C669.23,-212.07 654.11,-200.11 642.07,-190.58"/>
<polygon fill="#63b8ff" stroke="#63b8ff" points="643.97,-187.63 633.96,-184.17 639.63,-193.12 643.97,-187.63"/>
</a>
</g>
</g>
<!-- Node17 -->
<g id="Node000017" class="node">
<title>Node17</title>
<g id="a_Node000017"><a xlink:title=" ">
<polygon fill="#e0e0e0" stroke="#999999" points="1028,-74 968,-74 968,-55 1028,-55 1028,-74"/>
<text text-anchor="middle" x="998" y="-62" font-family="Helvetica,sans-Serif" font-size="10.00">iostream</text>
</a>
</g>
</g>
<!-- Node12&#45;&gt;Node17 -->
<g id="edge23_Node000012_Node000017" class="edge">
<title>Node12&#45;&gt;Node17</title>
<g id="a_edge23_Node000012_Node000017"><a xlink:title=" ">
<path fill="none" stroke="#63b8ff" d="M743.56,-223.12C787.1,-217.36 849.38,-205.91 900,-184 939.26,-167.01 953.91,-163.65 979,-129 988.6,-115.75 993.39,-97.63 995.76,-84.13"/>
<polygon fill="#63b8ff" stroke="#63b8ff" points="999.25,-84.5 997.23,-74.1 992.32,-83.48 999.25,-84.5"/>
</a>
</g>
</g>
<!-- Node12&#45;&gt;Node18 -->
<g id="edge24_Node000012_Node000018" class="edge">
<title>Node12&#45;&gt;Node18</title>
<g id="a_edge24_Node000012_Node000018"><a xlink:title=" ">
<path fill="none" stroke="#63b8ff" d="M636.41,-227.19C582.16,-224.09 496.97,-214.29 430,-184 394.58,-167.98 378.74,-164.08 362,-129 337.32,-77.29 427.06,-66.34 489.22,-64.77"/>
<polygon fill="#63b8ff" stroke="#63b8ff" points="489.38,-68.26 499.31,-64.58 489.25,-61.27 489.38,-68.26"/>
</a>
</g>
</g>
<!-- Node12&#45;&gt;Node19 -->
<g id="edge28_Node000012_Node000019" class="edge">
<title>Node12&#45;&gt;Node19</title>
<g id="a_edge28_Node000012_Node000019"><a xlink:title=" ">
<path fill="none" stroke="#63b8ff" d="M703.17,-219.98C715.77,-211.84 735,-199.41 749.94,-189.76"/>
<polygon fill="#63b8ff" stroke="#63b8ff" points="752.09,-192.54 758.59,-184.17 748.29,-186.66 752.09,-192.54"/>
</a>
</g>
</g>
<!-- Node18&#45;&gt;Node3 -->
<g id="edge27_Node000018_Node000003" class="edge">
<title>Node18&#45;&gt;Node3</title>
<g id="a_edge27_Node000018_Node000003"><a xlink:title=" ">
<path fill="none" stroke="#63b8ff" d="M588.75,-56.17C591.88,-55.75 594.98,-55.35 598,-55 808.02,-30.52 1062.1,-16.48 1150.69,-12.05"/>
<polygon fill="#63b8ff" stroke="#63b8ff" points="1151.08,-15.53 1160.89,-11.54 1150.73,-8.54 1151.08,-15.53"/>
</a>
</g>
</g>
<!-- Node18&#45;&gt;Node4 -->
<g id="edge25_Node000018_Node000004" class="edge">
<title>Node18&#45;&gt;Node4</title>
<g id="a_edge25_Node000018_Node000004"><a xlink:title=" ">
<path fill="none" stroke="#63b8ff" d="M532.27,-54.98C521.27,-47 504.58,-34.88 491.4,-25.31"/>
<polygon fill="#63b8ff" stroke="#63b8ff" points="493.09,-22.21 482.94,-19.17 488.98,-27.88 493.09,-22.21"/>
</a>
</g>
</g>
<!-- Node18&#45;&gt;Node9 -->
<g id="edge26_Node000018_Node000009" class="edge">
<title>Node18&#45;&gt;Node9</title>
<g id="a_edge26_Node000018_Node000009"><a xlink:title=" ">
<path fill="none" stroke="#63b8ff" d="M588.79,-56.44C591.91,-55.95 595,-55.47 598,-55 678.17,-42.5 770.92,-28.2 829.02,-19.26"/>
<polygon fill="#63b8ff" stroke="#63b8ff" points="829.75,-22.68 839.1,-17.7 828.69,-15.77 829.75,-22.68"/>
</a>
</g>
</g>
<!-- Node19&#45;&gt;Node3 -->
<g id="edge31_Node000019_Node000003" class="edge">
<title>Node19&#45;&gt;Node3</title>
<g id="a_edge31_Node000019_Node000003"><a xlink:title=" ">
<path fill="none" stroke="#63b8ff" d="M784.63,-164.91C802.88,-152.55 837.77,-129.12 868,-110 907.94,-84.74 914.94,-72.08 959,-55 1024.4,-29.64 1106.39,-18.08 1150.8,-13.36"/>
<polygon fill="#63b8ff" stroke="#63b8ff" points="1151.39,-16.81 1160.99,-12.32 1150.69,-9.85 1151.39,-16.81"/>
</a>
</g>
</g>
<!-- Node19&#45;&gt;Node4 -->
<g id="edge33_Node000019_Node000004" class="edge">
<title>Node19&#45;&gt;Node4</title>
<g id="a_edge33_Node000019_Node000004"><a xlink:title=" ">
<path fill="none" stroke="#63b8ff" d="M714.57,-164.98C675.87,-158.08 624.21,-146.57 581,-129 537.22,-111.2 518.93,-111.36 490,-74 479.98,-61.06 475.23,-42.91 472.99,-29.32"/>
<polygon fill="#63b8ff" stroke="#63b8ff" points="476.43,-28.65 471.63,-19.2 469.49,-29.58 476.43,-28.65"/>
</a>
</g>
</g>
<!-- Node19&#45;&gt;Node6 -->
<g id="edge34_Node000019_Node000006" class="edge">
<title>Node19&#45;&gt;Node6</title>
<g id="a_edge34_Node000019_Node000006"><a xlink:title=" ">
<path fill="none" stroke="#63b8ff" d="M817.47,-164.98C872.4,-154.7 963.89,-137.56 1015.83,-127.84"/>
<polygon fill="#63b8ff" stroke="#63b8ff" points="1016.48,-131.27 1025.67,-125.99 1015.19,-124.39 1016.48,-131.27"/>
</a>
</g>
</g>
<!-- Node19&#45;&gt;Node7 -->
<g id="edge36_Node000019_Node000007" class="edge">
<title>Node19&#45;&gt;Node7</title>
<g id="a_edge36_Node000019_Node000007"><a xlink:title=" ">
<path fill="none" stroke="#63b8ff" d="M799.31,-164.98C827.85,-156.09 872.83,-142.07 904.64,-132.15"/>
<polygon fill="#63b8ff" stroke="#63b8ff" points="905.97,-135.4 914.47,-129.08 903.88,-128.72 905.97,-135.4"/>
</a>
</g>
</g>
<!-- Node19&#45;&gt;Node10 -->
<g id="edge32_Node000019_Node000010" class="edge">
<title>Node19&#45;&gt;Node10</title>
<g id="a_edge32_Node000019_Node000010"><a xlink:title=" ">
<path fill="none" stroke="#63b8ff" d="M702.27,-166.55C648.41,-160.03 572.44,-148.34 508,-129 487.99,-122.99 485,-116.06 465,-110 386.77,-86.31 291.02,-73.86 241.75,-68.61"/>
<polygon fill="#63b8ff" stroke="#63b8ff" points="241.99,-65.11 231.69,-67.57 241.27,-72.08 241.99,-65.11"/>
</a>
</g>
</g>
<!-- Node19&#45;&gt;Node11 -->
<g id="edge37_Node000019_Node000011" class="edge">
<title>Node19&#45;&gt;Node11</title>
<g id="a_edge37_Node000019_Node000011"><a xlink:title=" ">
<path fill="none" stroke="#63b8ff" d="M772,-164.66C772,-147.17 772,-107.8 772,-84.27"/>
<polygon fill="#63b8ff" stroke="#63b8ff" points="775.5,-84.16 772,-74.16 768.5,-84.16 775.5,-84.16"/>
</a>
</g>
</g>
<!-- Node19&#45;&gt;Node14 -->
<g id="edge30_Node000019_Node000014" class="edge">
<title>Node19&#45;&gt;Node14</title>
<g id="a_edge30_Node000019_Node000014"><a xlink:title=" ">
<path fill="none" stroke="#63b8ff" d="M704.3,-164.98C642.93,-156.91 550.12,-143.84 470,-129 468.73,-128.76 467.44,-128.52 466.13,-128.26"/>
<polygon fill="#63b8ff" stroke="#63b8ff" points="466.57,-124.78 456.07,-126.16 465.14,-131.63 466.57,-124.78"/>
</a>
</g>
</g>
<!-- Node19&#45;&gt;Node15 -->
<g id="edge35_Node000019_Node000015" class="edge">
<title>Node19&#45;&gt;Node15</title>
<g id="a_edge35_Node000019_Node000015"><a xlink:title=" ">
<path fill="none" stroke="#63b8ff" d="M717.55,-164.95C677.98,-157.5 629.3,-145.32 617,-129 607.28,-116.1 611.47,-97.44 616.92,-83.68"/>
<polygon fill="#63b8ff" stroke="#63b8ff" points="620.23,-84.85 621.12,-74.29 613.84,-81.99 620.23,-84.85"/>
</a>
</g>
</g>
<!-- Node19&#45;&gt;Node17 -->
<g id="edge29_Node000019_Node000017" class="edge">
<title>Node19&#45;&gt;Node17</title>
<g id="a_edge29_Node000019_Node000017"><a xlink:title=" ">
<path fill="none" stroke="#63b8ff" d="M790.11,-164.84C829.72,-145.92 924.2,-100.77 970.91,-78.45"/>
<polygon fill="#63b8ff" stroke="#63b8ff" points="972.6,-81.52 980.11,-74.05 969.58,-75.2 972.6,-81.52"/>
</a>
</g>
</g>
<!-- Node19&#45;&gt;Node18 -->
<g id="edge38_Node000019_Node000018" class="edge">
<title>Node19&#45;&gt;Node18</title>
<g id="a_edge38_Node000019_Node000018"><a xlink:title=" ">
<path fill="none" stroke="#63b8ff" d="M712.21,-164.94C679.79,-158.47 639.94,-147.43 608,-129 587.34,-117.08 568.6,-96.86 556.81,-82.43"/>
<polygon fill="#63b8ff" stroke="#63b8ff" points="559.36,-80.01 550.42,-74.33 553.87,-84.35 559.36,-80.01"/>
</a>
</g>
</g>
<!-- Node19&#45;&gt;Node20 -->
<g id="edge39_Node000019_Node000020" class="edge">
<title>Node19&#45;&gt;Node20</title>
<g id="a_edge39_Node000019_Node000020"><a xlink:title=" ">
<path fill="none" stroke="#63b8ff" d="M838.03,-164.98C919.3,-154.5 1055.68,-136.92 1130.29,-127.3"/>
<polygon fill="#63b8ff" stroke="#63b8ff" points="1130.93,-130.74 1140.4,-125.99 1130.03,-123.8 1130.93,-130.74"/>
</a>
</g>
</g>
<!-- Node21 -->
<g id="Node000021" class="node">
<title>Node21</title>
<g id="a_Node000021"><a xlink:href="evaluate_8h.html" target="_top" xlink:title=" ">
<polygon fill="white" stroke="#666666" points="744,-129 626,-129 626,-110 744,-110 744,-129"/>
<text text-anchor="middle" x="685" y="-117" font-family="Helvetica,sans-Serif" font-size="10.00">Evaluator/evaluate.h</text>
</a>
</g>
</g>
<!-- Node19&#45;&gt;Node21 -->
<g id="edge42_Node000019_Node000021" class="edge">
<title>Node19&#45;&gt;Node21</title>
<g id="a_edge42_Node000019_Node000021"><a xlink:title=" ">
<path fill="none" stroke="#63b8ff" d="M758.02,-164.98C744.53,-156.77 723.87,-144.18 707.96,-134.49"/>
<polygon fill="#63b8ff" stroke="#63b8ff" points="709.59,-131.38 699.23,-129.17 705.95,-137.36 709.59,-131.38"/>
</a>
</g>
</g>
<!-- Node20&#45;&gt;Node3 -->
<g id="edge40_Node000020_Node000003" class="edge">
<title>Node20&#45;&gt;Node3</title>
<g id="a_edge40_Node000020_Node000003"><a xlink:title=" ">
<path fill="none" stroke="#63b8ff" d="M1183,-109.66C1183,-92.17 1183,-52.8 1183,-29.27"/>
<polygon fill="#63b8ff" stroke="#63b8ff" points="1186.5,-29.16 1183,-19.16 1179.5,-29.16 1186.5,-29.16"/>
</a>
</g>
</g>
<!-- Node20&#45;&gt;Node17 -->
<g id="edge41_Node000020_Node000017" class="edge">
<title>Node20&#45;&gt;Node17</title>
<g id="a_edge41_Node000020_Node000017"><a xlink:title=" ">
<path fill="none" stroke="#63b8ff" d="M1153.28,-109.98C1121.95,-101.01 1072.43,-86.82 1037.76,-76.89"/>
<polygon fill="#63b8ff" stroke="#63b8ff" points="1038.53,-73.47 1027.96,-74.08 1036.61,-80.2 1038.53,-73.47"/>
</a>
</g>
</g>
<!-- Node21&#45;&gt;Node3 -->
<g id="edge45_Node000021_Node000003" class="edge">
<title>Node21&#45;&gt;Node3</title>
<g id="a_edge45_Node000021_Node000003"><a xlink:title=" ">
<path fill="none" stroke="#63b8ff" d="M688.38,-109.68C694.36,-95.42 708.27,-67.62 730,-55 766.23,-33.96 1053.25,-17.24 1150.73,-12.12"/>
<polygon fill="#63b8ff" stroke="#63b8ff" points="1151.07,-15.61 1160.87,-11.6 1150.71,-8.62 1151.07,-15.61"/>
</a>
</g>
</g>
<!-- Node21&#45;&gt;Node4 -->
<g id="edge44_Node000021_Node000004" class="edge">
<title>Node21&#45;&gt;Node4</title>
<g id="a_edge44_Node000021_Node000004"><a xlink:title=" ">
<path fill="none" stroke="#63b8ff" d="M683.2,-109.61C679.91,-95.76 671.59,-69.15 654,-55 610.74,-20.19 544.34,-11.98 504.54,-10.4"/>
<polygon fill="#63b8ff" stroke="#63b8ff" points="504.64,-6.9 494.55,-10.12 504.44,-13.9 504.64,-6.9"/>
</a>
</g>
</g>
<!-- Node21&#45;&gt;Node8 -->
<g id="edge47_Node000021_Node000008" class="edge">
<title>Node21&#45;&gt;Node8</title>
<g id="a_edge47_Node000021_Node000008"><a xlink:title=" ">
<path fill="none" stroke="#63b8ff" d="M744.02,-113C863.94,-101.83 1132.46,-76.82 1223.29,-68.36"/>
<polygon fill="#63b8ff" stroke="#63b8ff" points="1223.83,-71.83 1233.47,-67.41 1223.18,-64.86 1223.83,-71.83"/>
</a>
</g>
</g>
<!-- Node21&#45;&gt;Node10 -->
<g id="edge43_Node000021_Node000010" class="edge">
<title>Node21&#45;&gt;Node10</title>
<g id="a_edge43_Node000021_Node000010"><a xlink:title=" ">
<path fill="none" stroke="#63b8ff" d="M625.68,-111.89C524.52,-100.63 321.87,-78.07 242.23,-69.2"/>
<polygon fill="#63b8ff" stroke="#63b8ff" points="242.16,-65.67 231.83,-68.04 241.38,-72.63 242.16,-65.67"/>
</a>
</g>
</g>
<!-- Node21&#45;&gt;Node11 -->
<g id="edge46_Node000021_Node000011" class="edge">
<title>Node21&#45;&gt;Node11</title>
<g id="a_edge46_Node000021_Node000011"><a xlink:title=" ">
<path fill="none" stroke="#63b8ff" d="M698.98,-109.98C712.47,-101.77 733.13,-89.18 749.04,-79.49"/>
<polygon fill="#63b8ff" stroke="#63b8ff" points="751.05,-82.36 757.77,-74.17 747.41,-76.38 751.05,-82.36"/>
</a>
</g>
</g>
<!-- Node21&#45;&gt;Node15 -->
<g id="edge48_Node000021_Node000015" class="edge">
<title>Node21&#45;&gt;Node15</title>
<g id="a_edge48_Node000021_Node000015"><a xlink:title=" ">
<path fill="none" stroke="#63b8ff" d="M675.52,-109.98C666.8,-102.15 653.66,-90.34 643.1,-80.86"/>
<polygon fill="#63b8ff" stroke="#63b8ff" points="645.43,-78.25 635.65,-74.17 640.75,-83.46 645.43,-78.25"/>
</a>
</g>
</g>
<!-- Node21&#45;&gt;Node18 -->
<g id="edge49_Node000021_Node000018" class="edge">
<title>Node21&#45;&gt;Node18</title>
<g id="a_edge49_Node000021_Node000018"><a xlink:title=" ">
<path fill="none" stroke="#63b8ff" d="M662.35,-109.98C639.15,-101.27 602.88,-87.63 576.6,-77.75"/>
<polygon fill="#63b8ff" stroke="#63b8ff" points="577.66,-74.41 567.07,-74.17 575.2,-80.97 577.66,-74.41"/>
</a>
</g>
</g>
<!-- Node22&#45;&gt;Node5 -->
<g id="edge55_Node000022_Node000005" class="edge">
<title>Node22&#45;&gt;Node5</title>
<g id="a_edge55_Node000022_Node000005"><a xlink:title=" ">
<path fill="none" stroke="#63b8ff" d="M730.76,-384.84C781.15,-365.68 902.25,-319.63 960.14,-297.62"/>
<polygon fill="#63b8ff" stroke="#63b8ff" points="961.42,-300.87 969.52,-294.05 958.93,-294.33 961.42,-300.87"/>
</a>
</g>
</g>
<!-- Node22&#45;&gt;Node10 -->
<g id="edge54_Node000022_Node000010" class="edge">
<title>Node22&#45;&gt;Node10</title>
<g id="a_edge54_Node000022_Node000010"><a xlink:title=" ">
<path fill="none" stroke="#63b8ff" d="M637.95,-388.79C473.4,-376.8 76,-341.99 76,-285.5 76,-285.5 76,-285.5 76,-173.5 76,-121.68 137.61,-90.37 176.96,-75.65"/>
<polygon fill="#63b8ff" stroke="#63b8ff" points="178.2,-78.93 186.44,-72.27 175.84,-72.34 178.2,-78.93"/>
</a>
</g>
</g>
<!-- Node23 -->
<g id="Node000023" class="node">
<title>Node23</title>
<g id="a_Node000023"><a xlink:href="simulator_8h.html" target="_top" xlink:title=" ">
<polygon fill="white" stroke="#666666" points="769,-349 647,-349 647,-330 769,-330 769,-349"/>
<text text-anchor="middle" x="708" y="-337" font-family="Helvetica,sans-Serif" font-size="10.00">Simulator/simulator.h</text>
</a>
</g>
</g>
<!-- Node22&#45;&gt;Node23 -->
<g id="edge56_Node000022_Node000023" class="edge">
<title>Node22&#45;&gt;Node23</title>
<g id="a_edge56_Node000022_Node000023"><a xlink:title=" ">
<path fill="none" stroke="#63b8ff" d="M708,-384.75C708,-377.8 708,-367.85 708,-359.13"/>
<polygon fill="#63b8ff" stroke="#63b8ff" points="711.5,-359.09 708,-349.09 704.5,-359.09 711.5,-359.09"/>
</a>
</g>
</g>
<!-- Node23&#45;&gt;Node5 -->
<g id="edge60_Node000023_Node000005" class="edge">
<title>Node23&#45;&gt;Node5</title>
<g id="a_edge60_Node000023_Node000005"><a xlink:title=" ">
<path fill="none" stroke="#63b8ff" d="M753.63,-329.98C803.27,-320.72 882.66,-305.9 936.03,-295.94"/>
<polygon fill="#63b8ff" stroke="#63b8ff" points="936.82,-299.36 946.01,-294.08 935.54,-292.48 936.82,-299.36"/>
</a>
</g>
</g>
<!-- Node23&#45;&gt;Node6 -->
<g id="edge57_Node000023_Node000006" class="edge">
<title>Node23&#45;&gt;Node6</title>
<g id="a_edge57_Node000023_Node000006"><a xlink:title=" ">
<path fill="none" stroke="#63b8ff" d="M769.04,-335.16C865.18,-329.27 1042.97,-315.57 1062,-294 1100.68,-250.16 1076.74,-173.17 1062.85,-138.42"/>
<polygon fill="#63b8ff" stroke="#63b8ff" points="1066.03,-136.95 1058.95,-129.07 1059.58,-139.65 1066.03,-136.95"/>
</a>
</g>
</g>
<!-- Node23&#45;&gt;Node10 -->
<g id="edge58_Node000023_Node000010" class="edge">
<title>Node23&#45;&gt;Node10</title>
<g id="a_edge58_Node000023_Node000010"><a xlink:title=" ">
<path fill="none" stroke="#63b8ff" d="M646.95,-333.77C495.37,-321.2 114,-284.25 114,-230.5 114,-230.5 114,-230.5 114,-173.5 114,-130.91 156.16,-97.14 184.31,-79.33"/>
<polygon fill="#63b8ff" stroke="#63b8ff" points="186.16,-82.31 192.88,-74.12 182.52,-76.32 186.16,-82.31"/>
</a>
</g>
</g>
<!-- Node23&#45;&gt;Node12 -->
<g id="edge61_Node000023_Node000012" class="edge">
<title>Node23&#45;&gt;Node12</title>
<g id="a_edge61_Node000023_Node000012"><a xlink:title=" ">
<path fill="none" stroke="#63b8ff" d="M706.53,-329.66C703.61,-312.17 697.05,-272.8 693.13,-249.27"/>
<polygon fill="#63b8ff" stroke="#63b8ff" points="696.54,-248.45 691.44,-239.16 689.63,-249.6 696.54,-248.45"/>
</a>
</g>
</g>
<!-- Node23&#45;&gt;Node18 -->
<g id="edge59_Node000023_Node000018" class="edge">
<title>Node23&#45;&gt;Node18</title>
<g id="a_edge59_Node000023_Node000018"><a xlink:title=" ">
<path fill="none" stroke="#63b8ff" d="M660.21,-329.99C585.93,-314.29 442.91,-273.81 362,-184 339.2,-158.69 320.66,-136.56 342,-110 360.18,-87.39 435.88,-75.59 489.26,-69.97"/>
<polygon fill="#63b8ff" stroke="#63b8ff" points="489.68,-73.44 499.28,-68.95 488.97,-66.48 489.68,-73.44"/>
</a>
</g>
</g>
<!-- Node23&#45;&gt;Node19 -->
<g id="edge62_Node000023_Node000019" class="edge">
<title>Node23&#45;&gt;Node19</title>
<g id="a_edge62_Node000023_Node000019"><a xlink:title=" ">
<path fill="none" stroke="#63b8ff" d="M712.22,-329.85C720.47,-312.75 739.07,-273.28 752,-239 757.62,-224.11 762.98,-206.87 766.73,-194.12"/>
<polygon fill="#63b8ff" stroke="#63b8ff" points="770.17,-194.81 769.58,-184.23 763.45,-192.87 770.17,-194.81"/>
</a>
</g>
</g>
</g>
</svg>
