<?xml version="1.0" encoding="UTF-8" standalone="no"?>
<!DOCTYPE svg PUBLIC "-//W3C//DTD SVG 1.1//EN"
 "http://www.w3.org/Graphics/SVG/1.1/DTD/svg11.dtd">
<!-- Generated by graphviz version 2.43.0 (0)
 -->
<!-- Title: include/Drivers/transDriverModel.h Pages: 1 -->
<!--zoomable 478 -->

<svg id="main" version="1.1" xmlns="http://www.w3.org/2000/svg" xmlns:xlink="http://www.w3.org/1999/xlink" xml:space="preserve" onload="init(evt)">
<style type="text/css"><![CDATA[
.node, .edge {opacity: 0.7;}
.node.selected, .edge.selected {opacity: 1;}
.edge:hover path { stroke: red; }
.edge:hover polygon { stroke: red; fill: red; }
]]></style>

<defs>
  <circle id="rim" cx="0" cy="0" r="7"/>
  <circle id="rim2" cx="0" cy="0" r="3.5"/>
  <g id="zoomPlus">
    <use xlink:href="#rim" fill="#404040"><set attributeName="fill" to="#808080" begin="zoomplus.mouseover" end="zoomplus.mouseout"/></use>
    <path d="M-4,0h8M0,-4v8" fill="none" stroke="white" stroke-width="1.5" pointer-events="none"/>
  </g>
  <g id="zoomMin">
    <use xlink:href="#rim" fill="#404040"><set attributeName="fill" to="#808080" begin="zoomminus.mouseover" end="zoomminus.mouseout"/></use>
    <path d="M-4,0h8" fill="none" stroke="white" stroke-width="1.5" pointer-events="none"/>
  </g>
  <g id="arrowUp" transform="translate(30 24)">
    <use xlink:href="#rim"/>
    <path pointer-events="none" fill="none" stroke="white" stroke-width="1.5" d="M0,-3.0v7 M-2.5,-0.5L0,-3.0L2.5,-0.5"/>
  </g>
  <g id="arrowRight" transform="rotate(90) translate(36 -43)">
    <use xlink:href="#rim"/>
    <path pointer-events="none" fill="none" stroke="white" stroke-width="1.5" d="M0,-3.0v7 M-2.5,-0.5L0,-3.0L2.5,-0.5"/>
  </g>
  <g id="arrowDown" transform="rotate(180) translate(-30 -48)">
    <use xlink:href="#rim"/>
    <path pointer-events="none" fill="none" stroke="white" stroke-width="1.5" d="M0,-3.0v7 M-2.5,-0.5L0,-3.0L2.5,-0.5"/>
  </g>
  <g id="arrowLeft" transform="rotate(270) translate(-36 17)">
    <use xlink:href="#rim"/>
    <path pointer-events="none" fill="none" stroke="white" stroke-width="1.5" d="M0,-3.0v7 M-2.5,-0.5L0,-3.0L2.5,-0.5"/>
  </g>
  <g id="resetDef">
    <use xlink:href="#rim2" fill="#404040"><set attributeName="fill" to="#808080" begin="reset.mouseover" end="reset.mouseout"/></use>
  </g>
</defs>
<script type="application/ecmascript">
var viewWidth = 1338;
var viewHeight = 478;
var sectionId = 'dynsection-0';
</script>
<script type="application/ecmascript" xlink:href="svg.min.js"/>
<svg id="graph" class="graph">
<g id="viewport">
<title>include/Drivers/transDriverModel.h</title>
<!-- Node1 -->
<g id="Node000001" class="node">
<title>Node1</title>
<g id="a_Node000001"><a xlink:title=" ">
<polygon fill="#999999" stroke="#666666" points="482,-470 334,-470 334,-440 482,-440 482,-470"/>
<text text-anchor="start" x="342" y="-458" font-family="Helvetica,sans-Serif" font-size="10.00">include/Drivers/transDriver</text>
<text text-anchor="middle" x="408" y="-447" font-family="Helvetica,sans-Serif" font-size="10.00">Model.h</text>
</a>
</g>
</g>
<!-- Node2 -->
<g id="Node000002" class="node">
<title>Node2</title>
<g id="a_Node000002"><a xlink:title=" ">
<polygon fill="#e0e0e0" stroke="#999999" points="466,-19 422,-19 422,0 466,0 466,-19"/>
<text text-anchor="middle" x="444" y="-7" font-family="Helvetica,sans-Serif" font-size="10.00">string</text>
</a>
</g>
</g>
<!-- Node1&#45;&gt;Node2 -->
<g id="edge1_Node000001_Node000002" class="edge">
<title>Node1&#45;&gt;Node2</title>
<g id="a_edge1_Node000001_Node000002"><a xlink:title=" ">
<path fill="none" stroke="#63b8ff" d="M333.64,-448.56C215.96,-437.89 0,-408.97 0,-340.5 0,-340.5 0,-340.5 0,-118.5 0,-78.43 27.9,-72.39 64,-55 125.28,-25.47 331.72,-14.71 411.84,-11.58"/>
<polygon fill="#63b8ff" stroke="#63b8ff" points="411.98,-15.08 421.84,-11.21 411.72,-8.09 411.98,-15.08"/>
</a>
</g>
</g>
<!-- Node3 -->
<g id="Node000003" class="node">
<title>Node3</title>
<g id="a_Node000003"><a xlink:title=" ">
<polygon fill="#e0e0e0" stroke="#999999" points="1082.5,-19 1035.5,-19 1035.5,0 1082.5,0 1082.5,-19"/>
<text text-anchor="middle" x="1059" y="-7" font-family="Helvetica,sans-Serif" font-size="10.00">vector</text>
</a>
</g>
</g>
<!-- Node1&#45;&gt;Node3 -->
<g id="edge2_Node000001_Node000003" class="edge">
<title>Node1&#45;&gt;Node3</title>
<g id="a_edge2_Node000001_Node000003"><a xlink:title=" ">
<path fill="none" stroke="#63b8ff" d="M482.28,-452.62C701.42,-447.59 1330,-425.73 1330,-340.5 1330,-340.5 1330,-340.5 1330,-118.5 1330,-93.22 1165.12,-41.67 1092.58,-20.21"/>
<polygon fill="#63b8ff" stroke="#63b8ff" points="1093.16,-16.73 1082.58,-17.27 1091.18,-23.45 1093.16,-16.73"/>
</a>
</g>
</g>
<!-- Node4 -->
<g id="Node000004" class="node">
<title>Node4</title>
<g id="a_Node000004"><a xlink:href="driverModel_8h.html" target="_top" xlink:title=" ">
<polygon fill="white" stroke="#666666" points="439,-294 317,-294 317,-275 439,-275 439,-294"/>
<text text-anchor="middle" x="378" y="-282" font-family="Helvetica,sans-Serif" font-size="10.00">Drivers/driverModel.h</text>
</a>
</g>
</g>
<!-- Node1&#45;&gt;Node4 -->
<g id="edge3_Node000001_Node000004" class="edge">
<title>Node1&#45;&gt;Node4</title>
<g id="a_edge3_Node000001_Node000004"><a xlink:title=" ">
<path fill="none" stroke="#63b8ff" d="M370.28,-439.88C354.57,-431.9 337.92,-420.21 329,-404 309.78,-369.09 341.4,-325.06 362.16,-301.73"/>
<polygon fill="#63b8ff" stroke="#63b8ff" points="364.97,-303.85 369.2,-294.13 359.83,-299.09 364.97,-303.85"/>
</a>
</g>
</g>
<!-- Node16 -->
<g id="Node000016" class="node">
<title>Node16</title>
<g id="a_Node000016"><a xlink:href="transaction_8h_source.html" target="_top" xlink:title=" ">
<polygon fill="white" stroke="#666666" points="591.5,-184 452.5,-184 452.5,-165 591.5,-165 591.5,-184"/>
<text text-anchor="middle" x="522" y="-172" font-family="Helvetica,sans-Serif" font-size="10.00">Transaction/transaction.h</text>
</a>
</g>
</g>
<!-- Node1&#45;&gt;Node16 -->
<g id="edge59_Node000001_Node000016" class="edge">
<title>Node1&#45;&gt;Node16</title>
<g id="a_edge59_Node000001_Node000016"><a xlink:title=" ">
<path fill="none" stroke="#63b8ff" d="M441.24,-439.8C457.14,-431.48 475.23,-419.52 487,-404 504.8,-380.52 506,-369.96 506,-340.5 506,-340.5 506,-340.5 506,-283.5 506,-251.85 512.81,-215.54 517.54,-194.11"/>
<polygon fill="#63b8ff" stroke="#63b8ff" points="521.01,-194.65 519.84,-184.12 514.19,-193.08 521.01,-194.65"/>
</a>
</g>
</g>
<!-- Node21 -->
<g id="Node000021" class="node">
<title>Node21</title>
<g id="a_Node000021"><a xlink:href="simulatorDriver_8h.html" target="_top" xlink:title=" ">
<polygon fill="white" stroke="#666666" points="478,-404 338,-404 338,-385 478,-385 478,-404"/>
<text text-anchor="middle" x="408" y="-392" font-family="Helvetica,sans-Serif" font-size="10.00">Drivers/simulatorDriver.h</text>
</a>
</g>
</g>
<!-- Node1&#45;&gt;Node21 -->
<g id="edge49_Node000001_Node000021" class="edge">
<title>Node1&#45;&gt;Node21</title>
<g id="a_edge49_Node000001_Node000021"><a xlink:title=" ">
<path fill="none" stroke="#63b8ff" d="M408,-439.84C408,-432.21 408,-422.7 408,-414.45"/>
<polygon fill="#63b8ff" stroke="#63b8ff" points="411.5,-414.27 408,-404.27 404.5,-414.27 411.5,-414.27"/>
</a>
</g>
</g>
<!-- Node4&#45;&gt;Node2 -->
<g id="edge6_Node000004_Node000002" class="edge">
<title>Node4&#45;&gt;Node2</title>
<g id="a_edge6_Node000004_Node000002"><a xlink:title=" ">
<path fill="none" stroke="#63b8ff" d="M316.82,-276.76C218.93,-264.26 38,-233.33 38,-175.5 38,-175.5 38,-175.5 38,-118.5 38,-75.16 72.45,-72.72 112,-55 165.13,-31.2 338.24,-17.41 411.15,-12.53"/>
<polygon fill="#63b8ff" stroke="#63b8ff" points="411.81,-15.99 421.56,-11.85 411.35,-9.01 411.81,-15.99"/>
</a>
</g>
</g>
<!-- Node5 -->
<g id="Node000005" class="node">
<title>Node5</title>
<g id="a_Node000005"><a xlink:title=" ">
<polygon fill="#e0e0e0" stroke="#999999" points="416,-129 358,-129 358,-110 416,-110 416,-129"/>
<text text-anchor="middle" x="387" y="-117" font-family="Helvetica,sans-Serif" font-size="10.00">memory</text>
</a>
</g>
</g>
<!-- Node4&#45;&gt;Node5 -->
<g id="edge4_Node000004_Node000005" class="edge">
<title>Node4&#45;&gt;Node5</title>
<g id="a_edge4_Node000004_Node000005"><a xlink:title=" ">
<path fill="none" stroke="#63b8ff" d="M376.31,-274.81C372.74,-255.11 365.33,-205.66 372,-165 373.47,-156.05 376.49,-146.47 379.44,-138.51"/>
<polygon fill="#63b8ff" stroke="#63b8ff" points="382.72,-139.74 383.14,-129.15 376.21,-137.16 382.72,-139.74"/>
</a>
</g>
</g>
<!-- Node6 -->
<g id="Node000006" class="node">
<title>Node6</title>
<g id="a_Node000006"><a xlink:title=" ">
<polygon fill="#e0e0e0" stroke="#999999" points="340,-129 284,-129 284,-110 340,-110 340,-129"/>
<text text-anchor="middle" x="312" y="-117" font-family="Helvetica,sans-Serif" font-size="10.00">optional</text>
</a>
</g>
</g>
<!-- Node4&#45;&gt;Node6 -->
<g id="edge5_Node000004_Node000006" class="edge">
<title>Node4&#45;&gt;Node6</title>
<g id="a_edge5_Node000004_Node000006"><a xlink:title=" ">
<path fill="none" stroke="#63b8ff" d="M374.45,-274.74C364.07,-249.09 333.57,-173.78 319.4,-138.78"/>
<polygon fill="#63b8ff" stroke="#63b8ff" points="322.56,-137.26 315.57,-129.31 316.07,-139.89 322.56,-137.26"/>
</a>
</g>
</g>
<!-- Node7 -->
<g id="Node000007" class="node">
<title>Node7</title>
<g id="a_Node000007"><a xlink:title=" ">
<polygon fill="#e0e0e0" stroke="#999999" points="758.5,-74 717.5,-74 717.5,-55 758.5,-55 758.5,-74"/>
<text text-anchor="middle" x="738" y="-62" font-family="Helvetica,sans-Serif" font-size="10.00">tuple</text>
</a>
</g>
</g>
<!-- Node4&#45;&gt;Node7 -->
<g id="edge7_Node000004_Node000007" class="edge">
<title>Node4&#45;&gt;Node7</title>
<g id="a_edge7_Node000004_Node000007"><a xlink:title=" ">
<path fill="none" stroke="#63b8ff" d="M403.29,-274.98C445.95,-260.02 534.1,-226.54 601,-184 649.4,-153.22 698.37,-106.15 722.54,-81.63"/>
<polygon fill="#63b8ff" stroke="#63b8ff" points="725.27,-83.83 729.74,-74.23 720.26,-78.95 725.27,-83.83"/>
</a>
</g>
</g>
<!-- Node8 -->
<g id="Node000008" class="node">
<title>Node8</title>
<g id="a_Node000008"><a xlink:title=" ">
<polygon fill="#e0e0e0" stroke="#999999" points="1193.5,-19 1100.5,-19 1100.5,0 1193.5,0 1193.5,-19"/>
<text text-anchor="middle" x="1147" y="-7" font-family="Helvetica,sans-Serif" font-size="10.00">unordered_map</text>
</a>
</g>
</g>
<!-- Node4&#45;&gt;Node8 -->
<g id="edge8_Node000004_Node000008" class="edge">
<title>Node4&#45;&gt;Node8</title>
<g id="a_edge8_Node000004_Node000008"><a xlink:title=" ">
<path fill="none" stroke="#63b8ff" d="M439.34,-283.92C552.56,-283.66 801.6,-278.16 1007,-239 1086.67,-223.81 1133.07,-249.42 1181,-184 1216.17,-136 1178.57,-61.2 1158.25,-27.72"/>
<polygon fill="#63b8ff" stroke="#63b8ff" points="1161.11,-25.68 1152.83,-19.08 1155.18,-29.41 1161.11,-25.68"/>
</a>
</g>
</g>
<!-- Node9 -->
<g id="Node000009" class="node">
<title>Node9</title>
<g id="a_Node000009"><a xlink:title=" ">
<polygon fill="#e0e0e0" stroke="#999999" points="623.5,-74 578.5,-74 578.5,-55 623.5,-55 623.5,-74"/>
<text text-anchor="middle" x="601" y="-62" font-family="Helvetica,sans-Serif" font-size="10.00">utility</text>
</a>
</g>
</g>
<!-- Node4&#45;&gt;Node9 -->
<g id="edge9_Node000004_Node000009" class="edge">
<title>Node4&#45;&gt;Node9</title>
<g id="a_edge9_Node000004_Node000009"><a xlink:title=" ">
<path fill="none" stroke="#63b8ff" d="M365.58,-274.84C328.81,-248.18 226.05,-165.85 275,-110 315.19,-64.15 486.66,-82.74 547,-74 553.94,-72.99 561.38,-71.86 568.44,-70.76"/>
<polygon fill="#63b8ff" stroke="#63b8ff" points="569.09,-74.2 578.42,-69.18 568,-67.28 569.09,-74.2"/>
</a>
</g>
</g>
<!-- Node10 -->
<g id="Node000010" class="node">
<title>Node10</title>
<g id="a_Node000010"><a xlink:title=" ">
<polygon fill="#e0e0e0" stroke="#999999" points="537.5,-74 472.5,-74 472.5,-55 537.5,-55 537.5,-74"/>
<text text-anchor="middle" x="505" y="-62" font-family="Helvetica,sans-Serif" font-size="10.00">functional</text>
</a>
</g>
</g>
<!-- Node4&#45;&gt;Node10 -->
<g id="edge10_Node000004_Node000010" class="edge">
<title>Node4&#45;&gt;Node10</title>
<g id="a_edge10_Node000004_Node000010"><a xlink:title=" ">
<path fill="none" stroke="#63b8ff" d="M316.7,-279.27C289.19,-273.95 259.13,-262.63 242,-239 208.35,-192.58 205,-153.79 242,-110 269.66,-77.26 394.81,-68.6 462.02,-66.32"/>
<polygon fill="#63b8ff" stroke="#63b8ff" points="462.39,-69.81 472.28,-66 462.18,-62.81 462.39,-69.81"/>
</a>
</g>
</g>
<!-- Node11 -->
<g id="Node000011" class="node">
<title>Node11</title>
<g id="a_Node000011"><a xlink:href="channel_8h.html" target="_top" xlink:title=" ">
<polygon fill="white" stroke="#666666" points="943.5,-239 836.5,-239 836.5,-220 943.5,-220 943.5,-239"/>
<text text-anchor="middle" x="890" y="-227" font-family="Helvetica,sans-Serif" font-size="10.00">Channel/channel.h</text>
</a>
</g>
</g>
<!-- Node4&#45;&gt;Node11 -->
<g id="edge11_Node000004_Node000011" class="edge">
<title>Node4&#45;&gt;Node11</title>
<g id="a_edge11_Node000004_Node000011"><a xlink:title=" ">
<path fill="none" stroke="#63b8ff" d="M439.25,-277.16C536.92,-267.05 727.03,-247.37 826.25,-237.1"/>
<polygon fill="#63b8ff" stroke="#63b8ff" points="826.85,-240.56 836.44,-236.04 826.13,-233.59 826.85,-240.56"/>
</a>
</g>
</g>
<!-- Node15 -->
<g id="Node000015" class="node">
<title>Node15</title>
<g id="a_Node000015"><a xlink:href="types_8h.html" target="_top" xlink:title=" ">
<polygon fill="white" stroke="#666666" points="1111.5,-74 1022.5,-74 1022.5,-55 1111.5,-55 1111.5,-74"/>
<text text-anchor="middle" x="1067" y="-62" font-family="Helvetica,sans-Serif" font-size="10.00">Library/types.h</text>
</a>
</g>
</g>
<!-- Node4&#45;&gt;Node15 -->
<g id="edge47_Node000004_Node000015" class="edge">
<title>Node4&#45;&gt;Node15</title>
<g id="a_edge47_Node000004_Node000015"><a xlink:title=" ">
<path fill="none" stroke="#63b8ff" d="M439.32,-281.32C566.91,-276.36 857.03,-262.79 953,-239 1012.7,-224.2 1041.33,-231.84 1080,-184 1100.9,-158.14 1099.14,-142.24 1091,-110 1088.59,-100.44 1083.67,-90.7 1078.91,-82.78"/>
<polygon fill="#63b8ff" stroke="#63b8ff" points="1081.72,-80.68 1073.37,-74.16 1075.83,-84.46 1081.72,-80.68"/>
</a>
</g>
</g>
<!-- Node4&#45;&gt;Node16 -->
<g id="edge46_Node000004_Node000016" class="edge">
<title>Node4&#45;&gt;Node16</title>
<g id="a_edge46_Node000004_Node000016"><a xlink:title=" ">
<path fill="none" stroke="#63b8ff" d="M389.78,-274.66C414.48,-256.14 471.9,-213.08 502.3,-190.28"/>
<polygon fill="#63b8ff" stroke="#63b8ff" points="504.56,-192.96 510.46,-184.16 500.36,-187.36 504.56,-192.96"/>
</a>
</g>
</g>
<!-- Node18 -->
<g id="Node000018" class="node">
<title>Node18</title>
<g id="a_Node000018"><a xlink:href="error_8h.html" target="_top" xlink:title=" ">
<polygon fill="white" stroke="#666666" points="151.5,-129 66.5,-129 66.5,-110 151.5,-110 151.5,-129"/>
<text text-anchor="middle" x="109" y="-117" font-family="Helvetica,sans-Serif" font-size="10.00">Library/error.h</text>
</a>
</g>
</g>
<!-- Node4&#45;&gt;Node18 -->
<g id="edge48_Node000004_Node000018" class="edge">
<title>Node4&#45;&gt;Node18</title>
<g id="a_edge48_Node000004_Node000018"><a xlink:title=" ">
<path fill="none" stroke="#63b8ff" d="M316.98,-277.6C281.72,-271.93 237.8,-260.8 204,-239 163.72,-213.03 132.74,-164.19 118.17,-138.06"/>
<polygon fill="#63b8ff" stroke="#63b8ff" points="121.24,-136.38 113.4,-129.25 115.08,-139.71 121.24,-136.38"/>
</a>
</g>
</g>
<!-- Node11&#45;&gt;Node2 -->
<g id="edge14_Node000011_Node000002" class="edge">
<title>Node11&#45;&gt;Node2</title>
<g id="a_edge14_Node000011_Node000002"><a xlink:title=" ">
<path fill="none" stroke="#63b8ff" d="M892.73,-219.8C902.58,-188.28 935.88,-81.56 937,-74 938.24,-65.65 942.7,-61.23 937,-55 905.93,-20.99 581.07,-12.74 476.34,-10.95"/>
<polygon fill="#63b8ff" stroke="#63b8ff" points="476.13,-7.45 466.08,-10.78 476.02,-14.44 476.13,-7.45"/>
</a>
</g>
</g>
<!-- Node11&#45;&gt;Node3 -->
<g id="edge19_Node000011_Node000003" class="edge">
<title>Node11&#45;&gt;Node3</title>
<g id="a_edge19_Node000011_Node000003"><a xlink:title=" ">
<path fill="none" stroke="#63b8ff" d="M943.79,-227.32C1013.04,-224.53 1127.63,-215.19 1154,-184 1177.82,-155.83 1218.52,-191.64 1121,-55 1111.92,-42.28 1098.05,-31.84 1085.73,-24.27"/>
<polygon fill="#63b8ff" stroke="#63b8ff" points="1087.12,-21.03 1076.71,-19.06 1083.62,-27.09 1087.12,-21.03"/>
</a>
</g>
</g>
<!-- Node11&#45;&gt;Node5 -->
<g id="edge13_Node000011_Node000005" class="edge">
<title>Node11&#45;&gt;Node5</title>
<g id="a_edge13_Node000011_Node000005"><a xlink:title=" ">
<path fill="none" stroke="#63b8ff" d="M836.44,-227.95C733.31,-226.11 511.4,-218.19 444,-184 423.84,-173.78 407.46,-153.18 397.52,-138.21"/>
<polygon fill="#63b8ff" stroke="#63b8ff" points="400.23,-135.95 391.94,-129.35 394.31,-139.68 400.23,-135.95"/>
</a>
</g>
</g>
<!-- Node11&#45;&gt;Node7 -->
<g id="edge15_Node000011_Node000007" class="edge">
<title>Node11&#45;&gt;Node7</title>
<g id="a_edge15_Node000011_Node000007"><a xlink:title=" ">
<path fill="none" stroke="#63b8ff" d="M872.03,-219.88C843.4,-205.22 787.54,-172.74 757,-129 747.63,-115.59 742.81,-97.48 740.37,-84.04"/>
<polygon fill="#63b8ff" stroke="#63b8ff" points="743.82,-83.4 738.84,-74.05 736.9,-84.46 743.82,-83.4"/>
</a>
</g>
</g>
<!-- Node11&#45;&gt;Node8 -->
<g id="edge16_Node000011_Node000008" class="edge">
<title>Node11&#45;&gt;Node8</title>
<g id="a_edge16_Node000011_Node000008"><a xlink:title=" ">
<path fill="none" stroke="#63b8ff" d="M943.8,-221.58C992.6,-214.32 1059.87,-201.52 1080,-184 1127.03,-143.07 1141.23,-65.17 1145.37,-29.36"/>
<polygon fill="#63b8ff" stroke="#63b8ff" points="1148.86,-29.62 1146.39,-19.31 1141.9,-28.91 1148.86,-29.62"/>
</a>
</g>
</g>
<!-- Node11&#45;&gt;Node9 -->
<g id="edge18_Node000011_Node000009" class="edge">
<title>Node11&#45;&gt;Node9</title>
<g id="a_edge18_Node000011_Node000009"><a xlink:title=" ">
<path fill="none" stroke="#63b8ff" d="M867.42,-219.95C846.22,-211.65 813.85,-198.24 787,-184 724.54,-150.88 655.42,-103.89 621.74,-80.27"/>
<polygon fill="#63b8ff" stroke="#63b8ff" points="623.4,-77.16 613.22,-74.26 619.37,-82.88 623.4,-77.16"/>
</a>
</g>
</g>
<!-- Node12 -->
<g id="Node000012" class="node">
<title>Node12</title>
<g id="a_Node000012"><a xlink:title=" ">
<polygon fill="#e0e0e0" stroke="#999999" points="971.5,-184 918.5,-184 918.5,-165 971.5,-165 971.5,-184"/>
<text text-anchor="middle" x="945" y="-172" font-family="Helvetica,sans-Serif" font-size="10.00">iterator</text>
</a>
</g>
</g>
<!-- Node11&#45;&gt;Node12 -->
<g id="edge12_Node000011_Node000012" class="edge">
<title>Node11&#45;&gt;Node12</title>
<g id="a_edge12_Node000011_Node000012"><a xlink:title=" ">
<path fill="none" stroke="#63b8ff" d="M899.08,-219.75C907.09,-212.03 918.96,-200.6 928.62,-191.28"/>
<polygon fill="#63b8ff" stroke="#63b8ff" points="931.31,-193.55 936.09,-184.09 926.46,-188.51 931.31,-193.55"/>
</a>
</g>
</g>
<!-- Node13 -->
<g id="Node000013" class="node">
<title>Node13</title>
<g id="a_Node000013"><a xlink:title=" ">
<polygon fill="#e0e0e0" stroke="#999999" points="928,-74 890,-74 890,-55 928,-55 928,-74"/>
<text text-anchor="middle" x="909" y="-62" font-family="Helvetica,sans-Serif" font-size="10.00">map</text>
</a>
</g>
</g>
<!-- Node11&#45;&gt;Node13 -->
<g id="edge17_Node000011_Node000013" class="edge">
<title>Node11&#45;&gt;Node13</title>
<g id="a_edge17_Node000011_Node000013"><a xlink:title=" ">
<path fill="none" stroke="#63b8ff" d="M943.64,-220.11C983.35,-212.67 1032.62,-200.44 1045,-184 1080.96,-136.26 987.72,-93.84 937.93,-75.34"/>
<polygon fill="#63b8ff" stroke="#63b8ff" points="938.91,-71.97 928.31,-71.87 936.53,-78.56 938.91,-71.97"/>
</a>
</g>
</g>
<!-- Node14 -->
<g id="Node000014" class="node">
<title>Node14</title>
<g id="a_Node000014"><a xlink:title=" ">
<polygon fill="#e0e0e0" stroke="#999999" points="1036,-184 990,-184 990,-165 1036,-165 1036,-184"/>
<text text-anchor="middle" x="1013" y="-172" font-family="Helvetica,sans-Serif" font-size="10.00">future</text>
</a>
</g>
</g>
<!-- Node11&#45;&gt;Node14 -->
<g id="edge20_Node000011_Node000014" class="edge">
<title>Node11&#45;&gt;Node14</title>
<g id="a_edge20_Node000011_Node000014"><a xlink:title=" ">
<path fill="none" stroke="#63b8ff" d="M909.76,-219.98C929.73,-211.38 960.8,-197.99 983.65,-188.15"/>
<polygon fill="#63b8ff" stroke="#63b8ff" points="985.08,-191.34 992.88,-184.17 982.31,-184.91 985.08,-191.34"/>
</a>
</g>
</g>
<!-- Node11&#45;&gt;Node15 -->
<g id="edge21_Node000011_Node000015" class="edge">
<title>Node11&#45;&gt;Node15</title>
<g id="a_edge21_Node000011_Node000015"><a xlink:title=" ">
<path fill="none" stroke="#63b8ff" d="M943.92,-221.6C988.63,-214.66 1047.16,-202.35 1062,-184 1085.01,-155.55 1078.48,-109.5 1072.34,-83.99"/>
<polygon fill="#63b8ff" stroke="#63b8ff" points="1075.67,-82.91 1069.73,-74.14 1068.91,-84.7 1075.67,-82.91"/>
</a>
</g>
</g>
<!-- Node11&#45;&gt;Node16 -->
<g id="edge25_Node000011_Node000016" class="edge">
<title>Node11&#45;&gt;Node16</title>
<g id="a_edge25_Node000011_Node000016"><a xlink:title=" ">
<path fill="none" stroke="#63b8ff" d="M836.49,-220.79C771.7,-211.46 662.44,-195.73 591.27,-185.48"/>
<polygon fill="#63b8ff" stroke="#63b8ff" points="591.46,-181.97 581.06,-184.01 590.46,-188.9 591.46,-181.97"/>
</a>
</g>
</g>
<!-- Node15&#45;&gt;Node2 -->
<g id="edge24_Node000015_Node000002" class="edge">
<title>Node15&#45;&gt;Node2</title>
<g id="a_edge24_Node000015_Node000002"><a xlink:title=" ">
<path fill="none" stroke="#63b8ff" d="M1022.09,-59.54C1005.7,-58.1 987.01,-56.46 970,-55 783,-38.9 558.55,-20.08 476.26,-13.2"/>
<polygon fill="#63b8ff" stroke="#63b8ff" points="476.31,-9.69 466.05,-12.34 475.72,-16.66 476.31,-9.69"/>
</a>
</g>
</g>
<!-- Node15&#45;&gt;Node3 -->
<g id="edge22_Node000015_Node000003" class="edge">
<title>Node15&#45;&gt;Node3</title>
<g id="a_edge22_Node000015_Node000003"><a xlink:title=" ">
<path fill="none" stroke="#63b8ff" d="M1065.68,-54.75C1064.63,-47.8 1063.13,-37.85 1061.81,-29.13"/>
<polygon fill="#63b8ff" stroke="#63b8ff" points="1065.25,-28.45 1060.3,-19.09 1058.33,-29.5 1065.25,-28.45"/>
</a>
</g>
</g>
<!-- Node15&#45;&gt;Node8 -->
<g id="edge23_Node000015_Node000008" class="edge">
<title>Node15&#45;&gt;Node8</title>
<g id="a_edge23_Node000015_Node000008"><a xlink:title=" ">
<path fill="none" stroke="#63b8ff" d="M1079.85,-54.98C1092.14,-46.84 1110.91,-34.41 1125.48,-24.76"/>
<polygon fill="#63b8ff" stroke="#63b8ff" points="1127.51,-27.61 1133.91,-19.17 1123.64,-21.78 1127.51,-27.61"/>
</a>
</g>
</g>
<!-- Node16&#45;&gt;Node2 -->
<g id="edge26_Node000016_Node000002" class="edge">
<title>Node16&#45;&gt;Node2</title>
<g id="a_edge26_Node000016_Node000002"><a xlink:title=" ">
<path fill="none" stroke="#63b8ff" d="M516.03,-164.8C504.65,-147.92 479.61,-109.29 464,-74 457.56,-59.45 452.27,-42.18 448.74,-29.33"/>
<polygon fill="#63b8ff" stroke="#63b8ff" points="452.05,-28.13 446.12,-19.35 445.28,-29.91 452.05,-28.13"/>
</a>
</g>
</g>
<!-- Node16&#45;&gt;Node3 -->
<g id="edge28_Node000016_Node000003" class="edge">
<title>Node16&#45;&gt;Node3</title>
<g id="a_edge28_Node000016_Node000003"><a xlink:title=" ">
<path fill="none" stroke="#63b8ff" d="M591.54,-170.27C687.92,-165 856.62,-152.67 913,-129 942.01,-116.82 1010.12,-55.79 1041.99,-26.39"/>
<polygon fill="#63b8ff" stroke="#63b8ff" points="1044.66,-28.68 1049.61,-19.32 1039.9,-23.55 1044.66,-28.68"/>
</a>
</g>
</g>
<!-- Node16&#45;&gt;Node5 -->
<g id="edge29_Node000016_Node000005" class="edge">
<title>Node16&#45;&gt;Node5</title>
<g id="a_edge29_Node000016_Node000005"><a xlink:title=" ">
<path fill="none" stroke="#63b8ff" d="M500.31,-164.98C478.2,-156.3 443.68,-142.75 418.55,-132.88"/>
<polygon fill="#63b8ff" stroke="#63b8ff" points="419.67,-129.57 409.08,-129.17 417.11,-136.08 419.67,-129.57"/>
</a>
</g>
</g>
<!-- Node16&#45;&gt;Node6 -->
<g id="edge32_Node000016_Node000006" class="edge">
<title>Node16&#45;&gt;Node6</title>
<g id="a_edge32_Node000016_Node000006"><a xlink:title=" ">
<path fill="none" stroke="#63b8ff" d="M488.26,-164.98C450.5,-155.46 389.47,-140.05 350.05,-130.1"/>
<polygon fill="#63b8ff" stroke="#63b8ff" points="350.82,-126.69 340.27,-127.63 349.11,-133.48 350.82,-126.69"/>
</a>
</g>
</g>
<!-- Node16&#45;&gt;Node9 -->
<g id="edge27_Node000016_Node000009" class="edge">
<title>Node16&#45;&gt;Node9</title>
<g id="a_edge27_Node000016_Node000009"><a xlink:title=" ">
<path fill="none" stroke="#63b8ff" d="M522.48,-164.93C523.58,-151.97 527.19,-127.08 539,-110 547.83,-97.23 561.56,-86.83 573.86,-79.31"/>
<polygon fill="#63b8ff" stroke="#63b8ff" points="575.95,-82.14 582.88,-74.12 572.46,-76.07 575.95,-82.14"/>
</a>
</g>
</g>
<!-- Node16&#45;&gt;Node10 -->
<g id="edge33_Node000016_Node000010" class="edge">
<title>Node16&#45;&gt;Node10</title>
<g id="a_edge33_Node000016_Node000010"><a xlink:title=" ">
<path fill="none" stroke="#63b8ff" d="M517.93,-164.87C514.02,-156.07 508.36,-141.92 506,-129 503.3,-114.22 503.19,-97.18 503.68,-84.47"/>
<polygon fill="#63b8ff" stroke="#63b8ff" points="507.19,-84.39 504.24,-74.22 500.2,-84.01 507.19,-84.39"/>
</a>
</g>
</g>
<!-- Node16&#45;&gt;Node13 -->
<g id="edge31_Node000016_Node000013" class="edge">
<title>Node16&#45;&gt;Node13</title>
<g id="a_edge31_Node000016_Node000013"><a xlink:title=" ">
<path fill="none" stroke="#63b8ff" d="M591.87,-174.25C686.77,-173.78 849.6,-167.2 893,-129 905.53,-117.98 908.95,-98.72 909.59,-84.3"/>
<polygon fill="#63b8ff" stroke="#63b8ff" points="913.09,-84.03 909.63,-74.01 906.09,-84 913.09,-84.03"/>
</a>
</g>
</g>
<!-- Node16&#45;&gt;Node15 -->
<g id="edge34_Node000016_Node000015" class="edge">
<title>Node16&#45;&gt;Node15</title>
<g id="a_edge34_Node000016_Node000015"><a xlink:title=" ">
<path fill="none" stroke="#63b8ff" d="M591.71,-170.3C698.4,-164.75 896.88,-151.72 964,-129 996.27,-118.08 1028.99,-95.51 1048.63,-80.44"/>
<polygon fill="#63b8ff" stroke="#63b8ff" points="1050.99,-83.04 1056.7,-74.11 1046.67,-77.53 1050.99,-83.04"/>
</a>
</g>
</g>
<!-- Node17 -->
<g id="Node000017" class="node">
<title>Node17</title>
<g id="a_Node000017"><a xlink:title=" ">
<polygon fill="#e0e0e0" stroke="#999999" points="596,-129 548,-129 548,-110 596,-110 596,-129"/>
<text text-anchor="middle" x="572" y="-117" font-family="Helvetica,sans-Serif" font-size="10.00">mutex</text>
</a>
</g>
</g>
<!-- Node16&#45;&gt;Node17 -->
<g id="edge30_Node000016_Node000017" class="edge">
<title>Node16&#45;&gt;Node17</title>
<g id="a_edge30_Node000016_Node000017"><a xlink:title=" ">
<path fill="none" stroke="#63b8ff" d="M530.26,-164.75C537.46,-157.11 548.11,-145.82 556.85,-136.56"/>
<polygon fill="#63b8ff" stroke="#63b8ff" points="559.58,-138.76 563.9,-129.09 554.49,-133.96 559.58,-138.76"/>
</a>
</g>
</g>
<!-- Node16&#45;&gt;Node18 -->
<g id="edge35_Node000016_Node000018" class="edge">
<title>Node16&#45;&gt;Node18</title>
<g id="a_edge35_Node000016_Node000018"><a xlink:title=" ">
<path fill="none" stroke="#63b8ff" d="M455.64,-164.98C373.87,-154.49 236.58,-136.87 161.66,-127.26"/>
<polygon fill="#63b8ff" stroke="#63b8ff" points="161.88,-123.76 151.52,-125.96 160.99,-130.7 161.88,-123.76"/>
</a>
</g>
</g>
<!-- Node20 -->
<g id="Node000020" class="node">
<title>Node20</title>
<g id="a_Node000020"><a xlink:href="evaluate_8h.html" target="_top" xlink:title=" ">
<polygon fill="white" stroke="#666666" points="884,-129 766,-129 766,-110 884,-110 884,-129"/>
<text text-anchor="middle" x="825" y="-117" font-family="Helvetica,sans-Serif" font-size="10.00">Evaluator/evaluate.h</text>
</a>
</g>
</g>
<!-- Node16&#45;&gt;Node20 -->
<g id="edge38_Node000016_Node000020" class="edge">
<title>Node16&#45;&gt;Node20</title>
<g id="a_edge38_Node000016_Node000020"><a xlink:title=" ">
<path fill="none" stroke="#63b8ff" d="M570.68,-164.98C623.94,-155.67 709.31,-140.74 766.25,-130.78"/>
<polygon fill="#63b8ff" stroke="#63b8ff" points="766.94,-134.21 776.19,-129.04 765.73,-127.31 766.94,-134.21"/>
</a>
</g>
</g>
<!-- Node18&#45;&gt;Node2 -->
<g id="edge36_Node000018_Node000002" class="edge">
<title>Node18&#45;&gt;Node2</title>
<g id="a_edge36_Node000018_Node000002"><a xlink:title=" ">
<path fill="none" stroke="#63b8ff" d="M108.84,-109.98C109.09,-96.15 111.77,-68.95 128,-55 170.06,-18.85 339.63,-12.03 411.52,-10.77"/>
<polygon fill="#63b8ff" stroke="#63b8ff" points="411.85,-14.26 421.79,-10.62 411.74,-7.26 411.85,-14.26"/>
</a>
</g>
</g>
<!-- Node19 -->
<g id="Node000019" class="node">
<title>Node19</title>
<g id="a_Node000019"><a xlink:title=" ">
<polygon fill="#e0e0e0" stroke="#999999" points="197,-74 137,-74 137,-55 197,-55 197,-74"/>
<text text-anchor="middle" x="167" y="-62" font-family="Helvetica,sans-Serif" font-size="10.00">iostream</text>
</a>
</g>
</g>
<!-- Node18&#45;&gt;Node19 -->
<g id="edge37_Node000018_Node000019" class="edge">
<title>Node18&#45;&gt;Node19</title>
<g id="a_edge37_Node000018_Node000019"><a xlink:title=" ">
<path fill="none" stroke="#63b8ff" d="M118.32,-109.98C126.81,-102.23 139.56,-90.58 149.88,-81.14"/>
<polygon fill="#63b8ff" stroke="#63b8ff" points="152.49,-83.5 157.51,-74.17 147.77,-78.33 152.49,-83.5"/>
</a>
</g>
</g>
<!-- Node20&#45;&gt;Node2 -->
<g id="edge41_Node000020_Node000002" class="edge">
<title>Node20&#45;&gt;Node2</title>
<g id="a_edge41_Node000020_Node000002"><a xlink:title=" ">
<path fill="none" stroke="#63b8ff" d="M820,-109.75C811.4,-95.58 792.34,-67.92 768,-55 717.79,-28.36 547.93,-16.17 476.29,-12.12"/>
<polygon fill="#63b8ff" stroke="#63b8ff" points="476.24,-8.61 466.06,-11.56 475.86,-15.6 476.24,-8.61"/>
</a>
</g>
</g>
<!-- Node20&#45;&gt;Node3 -->
<g id="edge40_Node000020_Node000003" class="edge">
<title>Node20&#45;&gt;Node3</title>
<g id="a_edge40_Node000020_Node000003"><a xlink:title=" ">
<path fill="none" stroke="#63b8ff" d="M830.31,-109.59C839.07,-95.71 857.89,-69.06 881,-55 926.08,-27.58 987.35,-17.01 1024.98,-12.97"/>
<polygon fill="#63b8ff" stroke="#63b8ff" points="1025.78,-16.41 1035.39,-11.95 1025.1,-9.44 1025.78,-16.41"/>
</a>
</g>
</g>
<!-- Node20&#45;&gt;Node7 -->
<g id="edge43_Node000020_Node000007" class="edge">
<title>Node20&#45;&gt;Node7</title>
<g id="a_edge43_Node000020_Node000007"><a xlink:title=" ">
<path fill="none" stroke="#63b8ff" d="M811.02,-109.98C797.53,-101.77 776.87,-89.18 760.96,-79.49"/>
<polygon fill="#63b8ff" stroke="#63b8ff" points="762.59,-76.38 752.23,-74.17 758.95,-82.36 762.59,-76.38"/>
</a>
</g>
</g>
<!-- Node20&#45;&gt;Node9 -->
<g id="edge39_Node000020_Node000009" class="edge">
<title>Node20&#45;&gt;Node9</title>
<g id="a_edge39_Node000020_Node000009"><a xlink:title=" ">
<path fill="none" stroke="#63b8ff" d="M789.01,-109.98C746.03,-99.81 674.77,-82.95 633.43,-73.17"/>
<polygon fill="#63b8ff" stroke="#63b8ff" points="634.13,-69.74 623.6,-70.85 632.52,-76.55 634.13,-69.74"/>
</a>
</g>
</g>
<!-- Node20&#45;&gt;Node10 -->
<g id="edge42_Node000020_Node000010" class="edge">
<title>Node20&#45;&gt;Node10</title>
<g id="a_edge42_Node000020_Node000010"><a xlink:title=" ">
<path fill="none" stroke="#63b8ff" d="M773.59,-109.98C710.92,-99.61 606.18,-82.26 547.73,-72.58"/>
<polygon fill="#63b8ff" stroke="#63b8ff" points="548.16,-69.1 537.72,-70.92 547.02,-76.01 548.16,-69.1"/>
</a>
</g>
</g>
<!-- Node20&#45;&gt;Node13 -->
<g id="edge44_Node000020_Node000013" class="edge">
<title>Node20&#45;&gt;Node13</title>
<g id="a_edge44_Node000020_Node000013"><a xlink:title=" ">
<path fill="none" stroke="#63b8ff" d="M838.5,-109.98C851.4,-101.84 871.1,-89.41 886.4,-79.76"/>
<polygon fill="#63b8ff" stroke="#63b8ff" points="888.67,-82.47 895.26,-74.17 884.93,-76.55 888.67,-82.47"/>
</a>
</g>
</g>
<!-- Node20&#45;&gt;Node15 -->
<g id="edge45_Node000020_Node000015" class="edge">
<title>Node20&#45;&gt;Node15</title>
<g id="a_edge45_Node000020_Node000015"><a xlink:title=" ">
<path fill="none" stroke="#63b8ff" d="M863.88,-109.98C905.74,-100.82 972.43,-86.21 1017.88,-76.26"/>
<polygon fill="#63b8ff" stroke="#63b8ff" points="1018.79,-79.64 1027.81,-74.08 1017.3,-72.8 1018.79,-79.64"/>
</a>
</g>
</g>
<!-- Node21&#45;&gt;Node4 -->
<g id="edge51_Node000021_Node000004" class="edge">
<title>Node21&#45;&gt;Node4</title>
<g id="a_edge51_Node000021_Node000004"><a xlink:title=" ">
<path fill="none" stroke="#63b8ff" d="M405.54,-384.66C400.66,-367.09 389.65,-327.45 383.13,-303.95"/>
<polygon fill="#63b8ff" stroke="#63b8ff" points="386.45,-302.86 380.41,-294.16 379.71,-304.73 386.45,-302.86"/>
</a>
</g>
</g>
<!-- Node21&#45;&gt;Node9 -->
<g id="edge50_Node000021_Node000009" class="edge">
<title>Node21&#45;&gt;Node9</title>
<g id="a_edge50_Node000021_Node000009"><a xlink:title=" ">
<path fill="none" stroke="#63b8ff" d="M396.92,-384.96C350.69,-348.37 179.4,-202.51 261,-110 303.37,-61.96 483.58,-82.98 547,-74 553.94,-73.02 561.38,-71.89 568.44,-70.79"/>
<polygon fill="#63b8ff" stroke="#63b8ff" points="569.1,-74.23 578.43,-69.21 568,-67.32 569.1,-74.23"/>
</a>
</g>
</g>
<!-- Node22 -->
<g id="Node000022" class="node">
<title>Node22</title>
<g id="a_Node000022"><a xlink:href="simulator_8h.html" target="_top" xlink:title=" ">
<polygon fill="white" stroke="#666666" points="681,-349 559,-349 559,-330 681,-330 681,-349"/>
<text text-anchor="middle" x="620" y="-337" font-family="Helvetica,sans-Serif" font-size="10.00">Simulator/simulator.h</text>
</a>
</g>
</g>
<!-- Node21&#45;&gt;Node22 -->
<g id="edge52_Node000021_Node000022" class="edge">
<title>Node21&#45;&gt;Node22</title>
<g id="a_edge52_Node000021_Node000022"><a xlink:title=" ">
<path fill="none" stroke="#63b8ff" d="M442.06,-384.98C478.42,-375.89 536.17,-361.46 575.97,-351.51"/>
<polygon fill="#63b8ff" stroke="#63b8ff" points="576.82,-354.9 585.67,-349.08 575.12,-348.11 576.82,-354.9"/>
</a>
</g>
</g>
<!-- Node22&#45;&gt;Node4 -->
<g id="edge56_Node000022_Node000004" class="edge">
<title>Node22&#45;&gt;Node4</title>
<g id="a_edge56_Node000022_Node000004"><a xlink:title=" ">
<path fill="none" stroke="#63b8ff" d="M581.12,-329.98C539.26,-320.82 472.57,-306.21 427.12,-296.26"/>
<polygon fill="#63b8ff" stroke="#63b8ff" points="427.7,-292.8 417.19,-294.08 426.21,-299.64 427.7,-292.8"/>
</a>
</g>
</g>
<!-- Node22&#45;&gt;Node5 -->
<g id="edge53_Node000022_Node000005" class="edge">
<title>Node22&#45;&gt;Node5</title>
<g id="a_edge53_Node000022_Node000005"><a xlink:title=" ">
<path fill="none" stroke="#63b8ff" d="M603.38,-329.89C565.28,-309.41 470.64,-254.21 415,-184 404.25,-170.44 396.75,-152.11 392.24,-138.63"/>
<polygon fill="#63b8ff" stroke="#63b8ff" points="395.57,-137.55 389.25,-129.04 388.88,-139.63 395.57,-137.55"/>
</a>
</g>
</g>
<!-- Node22&#45;&gt;Node9 -->
<g id="edge54_Node000022_Node000009" class="edge">
<title>Node22&#45;&gt;Node9</title>
<g id="a_edge54_Node000022_Node000009"><a xlink:title=" ">
<path fill="none" stroke="#63b8ff" d="M623.09,-329.77C626.05,-320.9 630.32,-306.69 632,-294 633.11,-285.63 632.62,-283.42 632,-275 626.79,-204.19 611.8,-121.01 604.75,-84.4"/>
<polygon fill="#63b8ff" stroke="#63b8ff" points="608.12,-83.37 602.76,-74.23 601.25,-84.72 608.12,-83.37"/>
</a>
</g>
</g>
<!-- Node22&#45;&gt;Node11 -->
<g id="edge57_Node000022_Node000011" class="edge">
<title>Node22&#45;&gt;Node11</title>
<g id="a_edge57_Node000022_Node000011"><a xlink:title=" ">
<path fill="none" stroke="#63b8ff" d="M641.64,-329.84C689.35,-310.76 803.73,-265.01 859.02,-242.89"/>
<polygon fill="#63b8ff" stroke="#63b8ff" points="860.65,-246.01 868.63,-239.05 858.05,-239.51 860.65,-246.01"/>
</a>
</g>
</g>
<!-- Node22&#45;&gt;Node15 -->
<g id="edge55_Node000022_Node000015" class="edge">
<title>Node22&#45;&gt;Node15</title>
<g id="a_edge55_Node000022_Node000015"><a xlink:title=" ">
<path fill="none" stroke="#63b8ff" d="M681.08,-334.47C839.98,-323.19 1254,-288.25 1254,-230.5 1254,-230.5 1254,-230.5 1254,-173.5 1254,-111.91 1177,-84.89 1121.82,-73.44"/>
<polygon fill="#63b8ff" stroke="#63b8ff" points="1122.28,-69.96 1111.79,-71.48 1120.93,-76.83 1122.28,-69.96"/>
</a>
</g>
</g>
<!-- Node22&#45;&gt;Node16 -->
<g id="edge58_Node000022_Node000016" class="edge">
<title>Node22&#45;&gt;Node16</title>
<g id="a_edge58_Node000022_Node000016"><a xlink:title=" ">
<path fill="none" stroke="#63b8ff" d="M620.5,-329.84C621.27,-308.93 620.57,-254.81 596,-220 586.07,-205.93 570.16,-195.53 555.63,-188.34"/>
<polygon fill="#63b8ff" stroke="#63b8ff" points="556.9,-185.07 546.36,-184.07 553.98,-191.43 556.9,-185.07"/>
</a>
</g>
</g>
</g>
</svg>

<g id="navigator" transform="translate(0 0)" fill="#404254">
  <rect fill="#f2f5e9" fill-opacity="0.5" stroke="#606060" stroke-width=".5" x="0" y="0" width="60" height="60"/>
  <use id="zoomplus" xlink:href="#zoomPlus" x="17" y="9" onmousedown="handleZoom(evt,'in')"/>
  <use id="zoomminus" xlink:href="#zoomMin" x="42" y="9" onmousedown="handleZoom(evt,'out')"/>
  <use id="reset" xlink:href="#resetDef" x="30" y="36" onmousedown="handleReset()"/>
   <use id="arrowup" xlink:href="#arrowUp" x="0" y="0" onmousedown="handlePan(0,-1)"/>
  <use id="arrowright" xlink:href="#arrowRight" x="0" y="0" onmousedown="handlePan(1,0)"/>
  <use id="arrowdown" xlink:href="#arrowDown" x="0" y="0" onmousedown="handlePan(0,1)"/>
  <use id="arrowleft" xlink:href="#arrowLeft" x="0" y="0" onmousedown="handlePan(-1,0)"/>
</g>
<svg viewBox="0 0 15 15" width="100%" height="30px" preserveAspectRatio="xMaxYMin meet">
 <g id="arrow_out" transform="scale(0.3 0.3)">
  <a xlink:href="transDriverModel_8h__incl_org.svg" target="_base">
   <rect id="button" ry="5" rx="5" y="6" x="6" height="38" width="38"
        fill="#f2f5e9" fill-opacity="0.5" stroke="#606060" stroke-width="1.0"/>
   <path id="arrow"
     d="M 11.500037,31.436501 C 11.940474,20.09759 22.043105,11.32322 32.158766,21.979434 L 37.068811,17.246167 C 37.068811,17.246167 37.088388,32 37.088388,32 L 22.160133,31.978069 C 22.160133,31.978069 26.997745,27.140456 26.997745,27.140456 C 18.528582,18.264221 13.291696,25.230495 11.500037,31.436501 z"
     style="fill:#404040;"/>
  </a>
 </g>
</svg>

<style type='text/css'>
<![CDATA[
[data-mouse-over-selected='false'] { opacity: 0.7; }
[data-mouse-over-selected='true']  { opacity: 1.0; }
]]>
</style>
<script type="application/ecmascript"><![CDATA[
document.addEventListener('DOMContentLoaded', (event) => {
  highlightEdges();
  highlightAdjacentNodes();
});
]]></script>
</svg>
