<?xml version="1.0" encoding="UTF-8" standalone="no"?>
<!DOCTYPE svg PUBLIC "-//W3C//DTD SVG 1.1//EN"
 "http://www.w3.org/Graphics/SVG/1.1/DTD/svg11.dtd">
<!-- Generated by graphviz version 2.43.0 (0)
 -->
<!-- Title: src/Transaction/transaction.cpp Pages: 1 -->
<svg width="1103pt" height="302pt"
 viewBox="0.00 0.00 1102.86 302.00" xmlns="http://www.w3.org/2000/svg" xmlns:xlink="http://www.w3.org/1999/xlink">
<g id="graph0" class="graph" transform="scale(1 1) rotate(0) translate(4 298)">
<title>src/Transaction/transaction.cpp</title>
<!-- Node1 -->
<g id="Node000001" class="node">
<title>Node1</title>
<g id="a_Node000001"><a xlink:title=" ">
<polygon fill="#999999" stroke="#666666" points="738.36,-294 571.36,-294 571.36,-275 738.36,-275 738.36,-294"/>
<text text-anchor="middle" x="654.86" y="-282" font-family="Helvetica,sans-Serif" font-size="10.00">src/Transaction/transaction.cpp</text>
</a>
</g>
</g>
<!-- Node2 -->
<g id="Node000002" class="node">
<title>Node2</title>
<g id="a_Node000002"><a xlink:href="transaction_8h_source.html" target="_top" xlink:title=" ">
<polygon fill="white" stroke="#666666" points="596.36,-184 457.36,-184 457.36,-165 596.36,-165 596.36,-184"/>
<text text-anchor="middle" x="526.86" y="-172" font-family="Helvetica,sans-Serif" font-size="10.00">Transaction/transaction.h</text>
</a>
</g>
</g>
<!-- Node1&#45;&gt;Node2 -->
<g id="edge1_Node000001_Node000002" class="edge">
<title>Node1&#45;&gt;Node2</title>
<g id="a_edge1_Node000001_Node000002"><a xlink:title=" ">
<path fill="none" stroke="#63b8ff" d="M639.3,-274.97C624.8,-266.68 602.91,-253.28 585.86,-239 568.83,-224.73 551.82,-205.8 540.47,-192.33"/>
<polygon fill="#63b8ff" stroke="#63b8ff" points="542.96,-189.84 533.89,-184.37 537.56,-194.3 542.96,-189.84"/>
</a>
</g>
</g>
<!-- Node3 -->
<g id="Node000003" class="node">
<title>Node3</title>
<g id="a_Node000003"><a xlink:title=" ">
<polygon fill="#e0e0e0" stroke="#999999" points="60.86,-74 0.86,-74 0.86,-55 60.86,-55 60.86,-74"/>
<text text-anchor="middle" x="30.86" y="-62" font-family="Helvetica,sans-Serif" font-size="10.00">iostream</text>
</a>
</g>
</g>
<!-- Node1&#45;&gt;Node3 -->
<g id="edge29_Node000001_Node000003" class="edge">
<title>Node1&#45;&gt;Node3</title>
<g id="a_edge29_Node000001_Node000003"><a xlink:title=" ">
<path fill="none" stroke="#63b8ff" d="M571.22,-280.64C423.81,-275.06 129.35,-261.28 87.86,-239 33.19,-209.64 22.08,-187.67 1.86,-129 -3.78,-112.61 5.93,-94.72 15.6,-82.12"/>
<polygon fill="#63b8ff" stroke="#63b8ff" points="18.39,-84.24 22.1,-74.32 13.01,-79.76 18.39,-84.24"/>
</a>
</g>
</g>
<!-- Node5 -->
<g id="Node000005" class="node">
<title>Node5</title>
<g id="a_Node000005"><a xlink:title=" ">
<polygon fill="#e0e0e0" stroke="#999999" points="818.86,-129 732.86,-129 732.86,-110 818.86,-110 818.86,-129"/>
<text text-anchor="middle" x="775.86" y="-117" font-family="Helvetica,sans-Serif" font-size="10.00">shared_mutex</text>
</a>
</g>
</g>
<!-- Node1&#45;&gt;Node5 -->
<g id="edge31_Node000001_Node000005" class="edge">
<title>Node1&#45;&gt;Node5</title>
<g id="a_edge31_Node000001_Node000005"><a xlink:title=" ">
<path fill="none" stroke="#63b8ff" d="M674.04,-275C689.26,-267.42 710.18,-255.06 723.86,-239 749.52,-208.9 764.48,-164.16 771.32,-139.15"/>
<polygon fill="#63b8ff" stroke="#63b8ff" points="774.79,-139.73 773.9,-129.17 768.01,-137.98 774.79,-139.73"/>
</a>
</g>
</g>
<!-- Node7 -->
<g id="Node000007" class="node">
<title>Node7</title>
<g id="a_Node000007"><a xlink:title=" ">
<polygon fill="#e0e0e0" stroke="#999999" points="727.36,-74 682.36,-74 682.36,-55 727.36,-55 727.36,-74"/>
<text text-anchor="middle" x="704.86" y="-62" font-family="Helvetica,sans-Serif" font-size="10.00">utility</text>
</a>
</g>
</g>
<!-- Node1&#45;&gt;Node7 -->
<g id="edge32_Node000001_Node000007" class="edge">
<title>Node1&#45;&gt;Node7</title>
<g id="a_edge32_Node000001_Node000007"><a xlink:title=" ">
<path fill="none" stroke="#63b8ff" d="M689.55,-274.87C747.77,-258.22 862.82,-215.39 903.86,-129 907.49,-121.37 909.14,-116.59 903.86,-110 883.41,-84.46 788.73,-72.6 737.69,-67.98"/>
<polygon fill="#63b8ff" stroke="#63b8ff" points="737.77,-64.48 727.5,-67.11 737.17,-71.45 737.77,-64.48"/>
</a>
</g>
</g>
<!-- Node8 -->
<g id="Node000008" class="node">
<title>Node8</title>
<g id="a_Node000008"><a xlink:title=" ">
<polygon fill="#e0e0e0" stroke="#999999" points="502.36,-19 455.36,-19 455.36,0 502.36,0 502.36,-19"/>
<text text-anchor="middle" x="478.86" y="-7" font-family="Helvetica,sans-Serif" font-size="10.00">vector</text>
</a>
</g>
</g>
<!-- Node1&#45;&gt;Node8 -->
<g id="edge33_Node000001_Node000008" class="edge">
<title>Node1&#45;&gt;Node8</title>
<g id="a_edge33_Node000001_Node000008"><a xlink:title=" ">
<path fill="none" stroke="#63b8ff" d="M713.86,-274.98C802.78,-260.45 960.86,-227.33 960.86,-175.5 960.86,-175.5 960.86,-175.5 960.86,-118.5 960.86,-26.48 622.14,-12.84 512.6,-10.84"/>
<polygon fill="#63b8ff" stroke="#63b8ff" points="512.49,-7.34 502.44,-10.68 512.38,-14.34 512.49,-7.34"/>
</a>
</g>
</g>
<!-- Node9 -->
<g id="Node000009" class="node">
<title>Node9</title>
<g id="a_Node000009"><a xlink:title=" ">
<polygon fill="#e0e0e0" stroke="#999999" points="894.86,-129 836.86,-129 836.86,-110 894.86,-110 894.86,-129"/>
<text text-anchor="middle" x="865.86" y="-117" font-family="Helvetica,sans-Serif" font-size="10.00">memory</text>
</a>
</g>
</g>
<!-- Node1&#45;&gt;Node9 -->
<g id="edge30_Node000001_Node000009" class="edge">
<title>Node1&#45;&gt;Node9</title>
<g id="a_edge30_Node000001_Node000009"><a xlink:title=" ">
<path fill="none" stroke="#63b8ff" d="M676.39,-274.96C695.09,-267.04 722.45,-254.2 743.86,-239 787.59,-207.97 830.67,-161.33 852.02,-136.85"/>
<polygon fill="#63b8ff" stroke="#63b8ff" points="854.75,-139.03 858.63,-129.17 849.45,-134.47 854.75,-139.03"/>
</a>
</g>
</g>
<!-- Node12 -->
<g id="Node000012" class="node">
<title>Node12</title>
<g id="a_Node000012"><a xlink:title=" ">
<polygon fill="#e0e0e0" stroke="#999999" points="220.36,-74 155.36,-74 155.36,-55 220.36,-55 220.36,-74"/>
<text text-anchor="middle" x="187.86" y="-62" font-family="Helvetica,sans-Serif" font-size="10.00">functional</text>
</a>
</g>
</g>
<!-- Node1&#45;&gt;Node12 -->
<g id="edge28_Node000001_Node000012" class="edge">
<title>Node1&#45;&gt;Node12</title>
<g id="a_edge28_Node000001_Node000012"><a xlink:title=" ">
<path fill="none" stroke="#63b8ff" d="M571.21,-276.37C525.89,-270.34 469.73,-259.26 422.86,-239 330.21,-198.95 239.57,-116.29 203.83,-81.5"/>
<polygon fill="#63b8ff" stroke="#63b8ff" points="205.89,-78.62 196.31,-74.1 200.98,-83.61 205.89,-78.62"/>
</a>
</g>
</g>
<!-- Node13 -->
<g id="Node000013" class="node">
<title>Node13</title>
<g id="a_Node000013"><a xlink:href="types_8h.html" target="_top" xlink:title=" ">
<polygon fill="white" stroke="#666666" points="366.36,-74 277.36,-74 277.36,-55 366.36,-55 366.36,-74"/>
<text text-anchor="middle" x="321.86" y="-62" font-family="Helvetica,sans-Serif" font-size="10.00">Library/types.h</text>
</a>
</g>
</g>
<!-- Node1&#45;&gt;Node13 -->
<g id="edge38_Node000001_Node000013" class="edge">
<title>Node1&#45;&gt;Node13</title>
<g id="a_edge38_Node000001_Node000013"><a xlink:title=" ">
<path fill="none" stroke="#63b8ff" d="M592.26,-274.99C513.11,-260.51 379.94,-222.86 319.86,-129 311.41,-115.79 312.96,-97.67 316.02,-84.16"/>
<polygon fill="#63b8ff" stroke="#63b8ff" points="319.5,-84.68 318.75,-74.11 312.75,-82.84 319.5,-84.68"/>
</a>
</g>
</g>
<!-- Node15 -->
<g id="Node000015" class="node">
<title>Node15</title>
<g id="a_Node000015"><a xlink:href="error_8h.html" target="_top" xlink:title=" ">
<polygon fill="white" stroke="#666666" points="96.36,-129 11.36,-129 11.36,-110 96.36,-110 96.36,-129"/>
<text text-anchor="middle" x="53.86" y="-117" font-family="Helvetica,sans-Serif" font-size="10.00">Library/error.h</text>
</a>
</g>
</g>
<!-- Node1&#45;&gt;Node15 -->
<g id="edge37_Node000001_Node000015" class="edge">
<title>Node1&#45;&gt;Node15</title>
<g id="a_edge37_Node000001_Node000015"><a xlink:title=" ">
<path fill="none" stroke="#63b8ff" d="M571.3,-281.2C428.17,-276.59 147.86,-264.42 110.86,-239 76.95,-215.7 62.53,-166.46 56.97,-139.36"/>
<polygon fill="#63b8ff" stroke="#63b8ff" points="60.36,-138.44 55.1,-129.25 53.48,-139.72 60.36,-138.44"/>
</a>
</g>
</g>
<!-- Node18 -->
<g id="Node000018" class="node">
<title>Node18</title>
<g id="a_Node000018"><a xlink:title=" ">
<polygon fill="#e0e0e0" stroke="#999999" points="1094.86,-239 988.86,-239 988.86,-220 1094.86,-220 1094.86,-239"/>
<text text-anchor="middle" x="1041.86" y="-227" font-family="Helvetica,sans-Serif" font-size="10.00">bits/ranges_algo.h</text>
</a>
</g>
</g>
<!-- Node1&#45;&gt;Node18 -->
<g id="edge27_Node000001_Node000018" class="edge">
<title>Node1&#45;&gt;Node18</title>
<g id="a_edge27_Node000001_Node000018"><a xlink:title=" ">
<path fill="none" stroke="#63b8ff" d="M717.04,-274.98C788.83,-265.15 906.27,-249.07 978.54,-239.17"/>
<polygon fill="#63b8ff" stroke="#63b8ff" points="979.43,-242.58 988.86,-237.76 978.48,-235.65 979.43,-242.58"/>
</a>
</g>
</g>
<!-- Node19 -->
<g id="Node000019" class="node">
<title>Node19</title>
<g id="a_Node000019"><a xlink:href="database_8h.html" target="_top" xlink:title=" ">
<polygon fill="white" stroke="#666666" points="714.86,-239 594.86,-239 594.86,-220 714.86,-220 714.86,-239"/>
<text text-anchor="middle" x="654.86" y="-227" font-family="Helvetica,sans-Serif" font-size="10.00">Database/database.h</text>
</a>
</g>
</g>
<!-- Node1&#45;&gt;Node19 -->
<g id="edge34_Node000001_Node000019" class="edge">
<title>Node1&#45;&gt;Node19</title>
<g id="a_edge34_Node000001_Node000019"><a xlink:title=" ">
<path fill="none" stroke="#63b8ff" d="M654.86,-274.75C654.86,-267.8 654.86,-257.85 654.86,-249.13"/>
<polygon fill="#63b8ff" stroke="#63b8ff" points="658.36,-249.09 654.86,-239.09 651.36,-249.09 658.36,-249.09"/>
</a>
</g>
</g>
<!-- Node2&#45;&gt;Node3 -->
<g id="edge2_Node000002_Node000003" class="edge">
<title>Node2&#45;&gt;Node3</title>
<g id="a_edge2_Node000002_Node000003"><a xlink:title=" ">
<path fill="none" stroke="#63b8ff" d="M457.26,-166.65C395.64,-159.77 303.53,-147.53 224.86,-129 166.44,-115.24 100.41,-91.89 62.41,-77.67"/>
<polygon fill="#63b8ff" stroke="#63b8ff" points="63.51,-74.34 52.92,-74.09 61.04,-80.89 63.51,-74.34"/>
</a>
</g>
</g>
<!-- Node4 -->
<g id="Node000004" class="node">
<title>Node4</title>
<g id="a_Node000004"><a xlink:title=" ">
<polygon fill="#e0e0e0" stroke="#999999" points="602.86,-129 554.86,-129 554.86,-110 602.86,-110 602.86,-129"/>
<text text-anchor="middle" x="578.86" y="-117" font-family="Helvetica,sans-Serif" font-size="10.00">mutex</text>
</a>
</g>
</g>
<!-- Node2&#45;&gt;Node4 -->
<g id="edge3_Node000002_Node000004" class="edge">
<title>Node2&#45;&gt;Node4</title>
<g id="a_edge3_Node000002_Node000004"><a xlink:title=" ">
<path fill="none" stroke="#63b8ff" d="M535.45,-164.75C543.02,-157.03 554.24,-145.6 563.38,-136.28"/>
<polygon fill="#63b8ff" stroke="#63b8ff" points="565.93,-138.68 570.44,-129.09 560.93,-133.78 565.93,-138.68"/>
</a>
</g>
</g>
<!-- Node2&#45;&gt;Node5 -->
<g id="edge4_Node000002_Node000005" class="edge">
<title>Node2&#45;&gt;Node5</title>
<g id="a_edge4_Node000002_Node000005"><a xlink:title=" ">
<path fill="none" stroke="#63b8ff" d="M566.87,-164.98C610.03,-155.8 678.84,-141.15 725.62,-131.19"/>
<polygon fill="#63b8ff" stroke="#63b8ff" points="726.49,-134.59 735.54,-129.08 725.03,-127.74 726.49,-134.59"/>
</a>
</g>
</g>
<!-- Node6 -->
<g id="Node000006" class="node">
<title>Node6</title>
<g id="a_Node000006"><a xlink:title=" ">
<polygon fill="#e0e0e0" stroke="#999999" points="202.86,-19 158.86,-19 158.86,0 202.86,0 202.86,-19"/>
<text text-anchor="middle" x="180.86" y="-7" font-family="Helvetica,sans-Serif" font-size="10.00">string</text>
</a>
</g>
</g>
<!-- Node2&#45;&gt;Node6 -->
<g id="edge5_Node000002_Node000006" class="edge">
<title>Node2&#45;&gt;Node6</title>
<g id="a_edge5_Node000002_Node000006"><a xlink:title=" ">
<path fill="none" stroke="#63b8ff" d="M457.1,-165.89C405.25,-159.14 333.19,-147.45 271.86,-129 242.61,-120.2 162.6,-99.56 145.86,-74 135.6,-58.33 149.1,-39.42 162.19,-26.34"/>
<polygon fill="#63b8ff" stroke="#63b8ff" points="164.74,-28.75 169.68,-19.37 159.97,-23.62 164.74,-28.75"/>
</a>
</g>
</g>
<!-- Node2&#45;&gt;Node7 -->
<g id="edge6_Node000002_Node000007" class="edge">
<title>Node2&#45;&gt;Node7</title>
<g id="a_edge6_Node000002_Node000007"><a xlink:title=" ">
<path fill="none" stroke="#63b8ff" d="M596.63,-168.97C627.57,-163.53 662.24,-152.2 685.86,-129 697.78,-117.29 702.29,-98.44 703.96,-84.31"/>
<polygon fill="#63b8ff" stroke="#63b8ff" points="707.46,-84.47 704.78,-74.22 700.49,-83.91 707.46,-84.47"/>
</a>
</g>
</g>
<!-- Node2&#45;&gt;Node8 -->
<g id="edge7_Node000002_Node000008" class="edge">
<title>Node2&#45;&gt;Node8</title>
<g id="a_edge7_Node000002_Node000008"><a xlink:title=" ">
<path fill="none" stroke="#63b8ff" d="M529.5,-164.96C535.25,-144.75 547.07,-92.84 529.86,-55 524.24,-42.63 513.29,-32.36 502.98,-24.81"/>
<polygon fill="#63b8ff" stroke="#63b8ff" points="504.83,-21.84 494.59,-19.12 500.9,-27.63 504.83,-21.84"/>
</a>
</g>
</g>
<!-- Node2&#45;&gt;Node9 -->
<g id="edge8_Node000002_Node000009" class="edge">
<title>Node2&#45;&gt;Node9</title>
<g id="a_edge8_Node000002_Node000009"><a xlink:title=" ">
<path fill="none" stroke="#63b8ff" d="M594.34,-164.96C653.23,-157.18 741.18,-144.78 826.96,-129.05"/>
<polygon fill="#63b8ff" stroke="#63b8ff" points="827.67,-132.48 836.86,-127.22 826.39,-125.6 827.67,-132.48"/>
</a>
</g>
</g>
<!-- Node10 -->
<g id="Node000010" class="node">
<title>Node10</title>
<g id="a_Node000010"><a xlink:title=" ">
<polygon fill="#e0e0e0" stroke="#999999" points="520.86,-74 482.86,-74 482.86,-55 520.86,-55 520.86,-74"/>
<text text-anchor="middle" x="501.86" y="-62" font-family="Helvetica,sans-Serif" font-size="10.00">map</text>
</a>
</g>
</g>
<!-- Node2&#45;&gt;Node10 -->
<g id="edge9_Node000002_Node000010" class="edge">
<title>Node2&#45;&gt;Node10</title>
<g id="a_edge9_Node000002_Node000010"><a xlink:title=" ">
<path fill="none" stroke="#63b8ff" d="M523.72,-164.73C520.62,-155.83 515.92,-141.59 512.86,-129 509.27,-114.18 506.38,-97.15 504.47,-84.45"/>
<polygon fill="#63b8ff" stroke="#63b8ff" points="507.88,-83.6 503,-74.2 500.96,-84.6 507.88,-83.6"/>
</a>
</g>
</g>
<!-- Node11 -->
<g id="Node000011" class="node">
<title>Node11</title>
<g id="a_Node000011"><a xlink:title=" ">
<polygon fill="#e0e0e0" stroke="#999999" points="676.86,-129 620.86,-129 620.86,-110 676.86,-110 676.86,-129"/>
<text text-anchor="middle" x="648.86" y="-117" font-family="Helvetica,sans-Serif" font-size="10.00">optional</text>
</a>
</g>
</g>
<!-- Node2&#45;&gt;Node11 -->
<g id="edge10_Node000002_Node000011" class="edge">
<title>Node2&#45;&gt;Node11</title>
<g id="a_edge10_Node000002_Node000011"><a xlink:title=" ">
<path fill="none" stroke="#63b8ff" d="M546.46,-164.98C566.18,-156.42 596.82,-143.11 619.45,-133.28"/>
<polygon fill="#63b8ff" stroke="#63b8ff" points="621.13,-136.37 628.9,-129.17 618.34,-129.94 621.13,-136.37"/>
</a>
</g>
</g>
<!-- Node2&#45;&gt;Node12 -->
<g id="edge11_Node000002_Node000012" class="edge">
<title>Node2&#45;&gt;Node12</title>
<g id="a_edge11_Node000002_Node000012"><a xlink:title=" ">
<path fill="none" stroke="#63b8ff" d="M469.65,-164.95C427.53,-157.76 369.24,-145.92 319.86,-129 280.61,-115.55 237.78,-93.45 211.87,-79.19"/>
<polygon fill="#63b8ff" stroke="#63b8ff" points="213.25,-75.95 202.81,-74.14 209.84,-82.07 213.25,-75.95"/>
</a>
</g>
</g>
<!-- Node2&#45;&gt;Node13 -->
<g id="edge12_Node000002_Node000013" class="edge">
<title>Node2&#45;&gt;Node13</title>
<g id="a_edge12_Node000002_Node000013"><a xlink:title=" ">
<path fill="none" stroke="#63b8ff" d="M457.21,-165.51C409.12,-158.54 350.9,-146.73 333.86,-129 322.58,-117.25 320.23,-98.41 320.32,-84.29"/>
<polygon fill="#63b8ff" stroke="#63b8ff" points="323.82,-84.36 320.78,-74.21 316.83,-84.04 323.82,-84.36"/>
</a>
</g>
</g>
<!-- Node2&#45;&gt;Node15 -->
<g id="edge16_Node000002_Node000015" class="edge">
<title>Node2&#45;&gt;Node15</title>
<g id="a_edge16_Node000002_Node000015"><a xlink:title=" ">
<path fill="none" stroke="#63b8ff" d="M457.32,-165.71C361.83,-155.01 192.21,-136 106.52,-126.4"/>
<polygon fill="#63b8ff" stroke="#63b8ff" points="106.82,-122.91 96.49,-125.28 106.04,-129.87 106.82,-122.91"/>
</a>
</g>
</g>
<!-- Node16 -->
<g id="Node000016" class="node">
<title>Node16</title>
<g id="a_Node000016"><a xlink:href="evaluate_8h.html" target="_top" xlink:title=" ">
<polygon fill="white" stroke="#666666" points="460.86,-129 342.86,-129 342.86,-110 460.86,-110 460.86,-129"/>
<text text-anchor="middle" x="401.86" y="-117" font-family="Helvetica,sans-Serif" font-size="10.00">Evaluator/evaluate.h</text>
</a>
</g>
</g>
<!-- Node2&#45;&gt;Node16 -->
<g id="edge19_Node000002_Node000016" class="edge">
<title>Node2&#45;&gt;Node16</title>
<g id="a_edge19_Node000002_Node000016"><a xlink:title=" ">
<path fill="none" stroke="#63b8ff" d="M506.78,-164.98C486.49,-156.38 454.91,-142.99 431.69,-133.15"/>
<polygon fill="#63b8ff" stroke="#63b8ff" points="432.88,-129.85 422.31,-129.17 430.15,-136.3 432.88,-129.85"/>
</a>
</g>
</g>
<!-- Node13&#45;&gt;Node6 -->
<g id="edge15_Node000013_Node000006" class="edge">
<title>Node13&#45;&gt;Node6</title>
<g id="a_edge15_Node000013_Node000006"><a xlink:title=" ">
<path fill="none" stroke="#63b8ff" d="M299.21,-54.98C275.74,-46.16 238.88,-32.31 212.53,-22.4"/>
<polygon fill="#63b8ff" stroke="#63b8ff" points="213.59,-19.06 203,-18.82 211.12,-25.61 213.59,-19.06"/>
</a>
</g>
</g>
<!-- Node13&#45;&gt;Node8 -->
<g id="edge13_Node000013_Node000008" class="edge">
<title>Node13&#45;&gt;Node8</title>
<g id="a_edge13_Node000013_Node000008"><a xlink:title=" ">
<path fill="none" stroke="#63b8ff" d="M347.09,-54.98C373.76,-45.98 415.97,-31.73 445.41,-21.79"/>
<polygon fill="#63b8ff" stroke="#63b8ff" points="446.89,-24.99 455.24,-18.47 444.65,-18.36 446.89,-24.99"/>
</a>
</g>
</g>
<!-- Node14 -->
<g id="Node000014" class="node">
<title>Node14</title>
<g id="a_Node000014"><a xlink:title=" ">
<polygon fill="#e0e0e0" stroke="#999999" points="368.36,-19 275.36,-19 275.36,0 368.36,0 368.36,-19"/>
<text text-anchor="middle" x="321.86" y="-7" font-family="Helvetica,sans-Serif" font-size="10.00">unordered_map</text>
</a>
</g>
</g>
<!-- Node13&#45;&gt;Node14 -->
<g id="edge14_Node000013_Node000014" class="edge">
<title>Node13&#45;&gt;Node14</title>
<g id="a_edge14_Node000013_Node000014"><a xlink:title=" ">
<path fill="none" stroke="#63b8ff" d="M321.86,-54.75C321.86,-47.8 321.86,-37.85 321.86,-29.13"/>
<polygon fill="#63b8ff" stroke="#63b8ff" points="325.36,-29.09 321.86,-19.09 318.36,-29.09 325.36,-29.09"/>
</a>
</g>
</g>
<!-- Node15&#45;&gt;Node3 -->
<g id="edge18_Node000015_Node000003" class="edge">
<title>Node15&#45;&gt;Node3</title>
<g id="a_edge18_Node000015_Node000003"><a xlink:title=" ">
<path fill="none" stroke="#63b8ff" d="M50.06,-109.75C46.95,-102.57 42.44,-92.18 38.57,-83.27"/>
<polygon fill="#63b8ff" stroke="#63b8ff" points="41.78,-81.87 34.59,-74.09 35.36,-84.66 41.78,-81.87"/>
</a>
</g>
</g>
<!-- Node15&#45;&gt;Node6 -->
<g id="edge17_Node000015_Node000006" class="edge">
<title>Node15&#45;&gt;Node6</title>
<g id="a_edge17_Node000015_Node000006"><a xlink:title=" ">
<path fill="none" stroke="#63b8ff" d="M60.9,-109.65C71.4,-96.76 92.16,-72.47 112.86,-55 126.53,-43.47 143.33,-32.45 156.82,-24.26"/>
<polygon fill="#63b8ff" stroke="#63b8ff" points="158.74,-27.19 165.54,-19.07 155.16,-21.17 158.74,-27.19"/>
</a>
</g>
</g>
<!-- Node16&#45;&gt;Node6 -->
<g id="edge22_Node000016_Node000006" class="edge">
<title>Node16&#45;&gt;Node6</title>
<g id="a_edge22_Node000016_Node000006"><a xlink:title=" ">
<path fill="none" stroke="#63b8ff" d="M366.53,-109.99C338.79,-102.56 299.68,-90.39 267.86,-74 241.81,-60.59 215.06,-39.8 198.22,-25.7"/>
<polygon fill="#63b8ff" stroke="#63b8ff" points="200.26,-22.83 190.38,-19.01 195.71,-28.16 200.26,-22.83"/>
</a>
</g>
</g>
<!-- Node16&#45;&gt;Node7 -->
<g id="edge20_Node000016_Node000007" class="edge">
<title>Node16&#45;&gt;Node7</title>
<g id="a_edge20_Node000016_Node000007"><a xlink:title=" ">
<path fill="none" stroke="#63b8ff" d="M450.55,-109.98C512.81,-99.09 618.94,-80.53 672.26,-71.2"/>
<polygon fill="#63b8ff" stroke="#63b8ff" points="672.94,-74.64 682.19,-69.47 671.73,-67.74 672.94,-74.64"/>
</a>
</g>
</g>
<!-- Node16&#45;&gt;Node8 -->
<g id="edge21_Node000016_Node000008" class="edge">
<title>Node16&#45;&gt;Node8</title>
<g id="a_edge21_Node000016_Node000008"><a xlink:title=" ">
<path fill="none" stroke="#63b8ff" d="M401.49,-109.94C401.34,-96.98 402.7,-72.1 413.86,-55 422.53,-41.73 436.67,-31.36 449.55,-23.98"/>
<polygon fill="#63b8ff" stroke="#63b8ff" points="451.44,-26.93 458.61,-19.13 448.14,-20.76 451.44,-26.93"/>
</a>
</g>
</g>
<!-- Node16&#45;&gt;Node10 -->
<g id="edge25_Node000016_Node000010" class="edge">
<title>Node16&#45;&gt;Node10</title>
<g id="a_edge25_Node000016_Node000010"><a xlink:title=" ">
<path fill="none" stroke="#63b8ff" d="M417.93,-109.98C433.73,-101.61 458.08,-88.7 476.49,-78.95"/>
<polygon fill="#63b8ff" stroke="#63b8ff" points="478.31,-81.95 485.5,-74.17 475.03,-75.76 478.31,-81.95"/>
</a>
</g>
</g>
<!-- Node16&#45;&gt;Node12 -->
<g id="edge23_Node000016_Node000012" class="edge">
<title>Node16&#45;&gt;Node12</title>
<g id="a_edge23_Node000016_Node000012"><a xlink:title=" ">
<path fill="none" stroke="#63b8ff" d="M367.48,-109.98C330.12,-100.73 270.4,-85.94 230.18,-75.98"/>
<polygon fill="#63b8ff" stroke="#63b8ff" points="230.95,-72.57 220.41,-73.56 229.27,-79.36 230.95,-72.57"/>
</a>
</g>
</g>
<!-- Node16&#45;&gt;Node13 -->
<g id="edge26_Node000016_Node000013" class="edge">
<title>Node16&#45;&gt;Node13</title>
<g id="a_edge26_Node000016_Node000013"><a xlink:title=" ">
<path fill="none" stroke="#63b8ff" d="M389.01,-109.98C376.72,-101.84 357.96,-89.41 343.39,-79.76"/>
<polygon fill="#63b8ff" stroke="#63b8ff" points="345.22,-76.78 334.95,-74.17 341.35,-82.61 345.22,-76.78"/>
</a>
</g>
</g>
<!-- Node17 -->
<g id="Node000017" class="node">
<title>Node17</title>
<g id="a_Node000017"><a xlink:title=" ">
<polygon fill="#e0e0e0" stroke="#999999" points="464.36,-74 423.36,-74 423.36,-55 464.36,-55 464.36,-74"/>
<text text-anchor="middle" x="443.86" y="-62" font-family="Helvetica,sans-Serif" font-size="10.00">tuple</text>
</a>
</g>
</g>
<!-- Node16&#45;&gt;Node17 -->
<g id="edge24_Node000016_Node000017" class="edge">
<title>Node16&#45;&gt;Node17</title>
<g id="a_edge24_Node000016_Node000017"><a xlink:title=" ">
<path fill="none" stroke="#63b8ff" d="M408.8,-109.75C414.73,-102.26 423.43,-91.28 430.69,-82.13"/>
<polygon fill="#63b8ff" stroke="#63b8ff" points="433.59,-84.1 437.06,-74.09 428.1,-79.75 433.59,-84.1"/>
</a>
</g>
</g>
<!-- Node19&#45;&gt;Node2 -->
<g id="edge36_Node000019_Node000002" class="edge">
<title>Node19&#45;&gt;Node2</title>
<g id="a_edge36_Node000019_Node000002"><a xlink:title=" ">
<path fill="none" stroke="#63b8ff" d="M634.3,-219.98C613.43,-211.34 580.89,-197.87 557.09,-188.02"/>
<polygon fill="#63b8ff" stroke="#63b8ff" points="558.38,-184.76 547.8,-184.17 555.7,-191.23 558.38,-184.76"/>
</a>
</g>
</g>
<!-- Node19&#45;&gt;Node9 -->
<g id="edge35_Node000019_Node000009" class="edge">
<title>Node19&#45;&gt;Node9</title>
<g id="a_edge35_Node000019_Node000009"><a xlink:title=" ">
<path fill="none" stroke="#63b8ff" d="M671.77,-219.84C708.59,-201 796.22,-156.14 840.02,-133.73"/>
<polygon fill="#63b8ff" stroke="#63b8ff" points="841.86,-136.72 849.16,-129.05 838.67,-130.49 841.86,-136.72"/>
</a>
</g>
</g>
</g>
</svg>
